<?xml version="1.0" encoding="UTF-8" standalone="no"?>
<!-- Created with Inkscape (http://www.inkscape.org/) -->

<svg
   width="92.812424mm"
   height="92.812424mm"
   viewBox="0 0 92.812424 92.812424"
   version="1.1"
   id="svg1"
   inkscape:version="1.4 (e7c3feb1, 2024-10-09)"
   sodipodi:docname="cricle-eroded.svg"
   xmlns:inkscape="http://www.inkscape.org/namespaces/inkscape"
   xmlns:sodipodi="http://sodipodi.sourceforge.net/DTD/sodipodi-0.dtd"
   xmlns="http://www.w3.org/2000/svg"
   xmlns:svg="http://www.w3.org/2000/svg">
  <sodipodi:namedview
     id="namedview1"
     pagecolor="#ffffff"
     bordercolor="#000000"
     borderopacity="0.25"
     inkscape:showpageshadow="2"
     inkscape:pageopacity="0.0"
     inkscape:pagecheckerboard="0"
     inkscape:deskcolor="#d1d1d1"
     inkscape:document-units="mm"
     inkscape:zoom="0.52410024"
     inkscape:cx="-29.574495"
     inkscape:cy="165.99878"
     inkscape:window-width="1920"
     inkscape:window-height="1027"
     inkscape:window-x="1080"
     inkscape:window-y="25"
     inkscape:window-maximized="1"
     inkscape:current-layer="layer1" />
  <defs
     id="defs1" />
  <g
     inkscape:label="Layer 1"
     inkscape:groupmode="layer"
     id="layer1"
     transform="translate(-58.543197,-54.973389)">
    <circle
       style="font-variation-settings:normal;opacity:1;vector-effect:none;fill:#f8f6f6;fill-opacity:1;stroke-width:0.264999;stroke-linecap:butt;stroke-linejoin:miter;stroke-miterlimit:4;stroke-dasharray:0.53, 0.264999;stroke-dashoffset:0;stroke-opacity:1;-inkscape-stroke:none"
       id="path1"
       cx="104.59254"
       cy="101.02284"
       r="43.72897" />
    <path
       id="path1-2"
       style="fill:#3b2e1f;fill-opacity:1;stroke-width:0.264999;stroke-dasharray:0.53, 0.264999;-inkscape-stroke:none"
       d="M 104.94967,54.973389 A 46.40625,46.40625 0 0 0 74.043542,66.824345 c 0.222543,0.365886 0.335621,0.799877 0.254249,1.293978 0.220832,1.372719 -1.73617,1.723822 -1.97094,2.45153 -0.947414,0.806795 -0.801808,2.680467 -2.099096,3.430281 -1.288244,0.733976 -3.025344,1.477453 -3.070614,3.209107 -0.770335,1.248446 -2.680369,1.455471 -3.29644,3.001884 -0.103113,0.173214 -0.221977,0.327363 -0.348815,0.471806 a 46.40625,46.40625 0 0 0 -4.968689,20.696929 46.40625,46.40625 0 0 0 4.017842,18.80712 c 2.774007,0.3807 5.473054,1.85199 5.88853,4.86482 1.051553,1.37906 0.407378,3.51537 -0.22531,4.50825 a 46.40625,46.40625 0 0 0 8.491989,8.50542 c 0.741642,-0.0805 1.587823,-0.14904 2.431892,-0.13384 0.902496,0.0163 1.773754,0.12278 2.420008,0.39481 2.2885,0.34474 3.65359,1.53446 4.818827,3.03392 0.489531,0.78509 0.590861,1.85046 0.473873,2.67529 a 46.40625,46.40625 0 0 0 18.088822,3.75016 46.40625,46.40625 0 0 0 9.0165,-0.99735 c 1.36559,-1.66736 3.39069,-1.93952 5.79758,-1.67949 1.10435,-1.48162 2.6817,-1.54539 4.34134,-1.47071 a 46.40625,46.40625 0 0 0 25.70799,-30.73404 c -1.27323,0.29215 -1.40812,-1.23267 -2.20555,-1.88619 1.67487,-1.48487 1.73809,-3.60099 3.39307,-4.67775 a 46.40625,46.40625 0 0 0 0.35502,-4.96042 46.40625,46.40625 0 0 0 -6.04253,-22.869407 c -0.0359,0.02134 -0.0745,0.05266 -0.108,0.06511 -0.53669,0.0069 -1.5144,1.401193 -2.18746,2.580204 1.04641,-0.285526 1.67877,-0.190748 -0.22893,1.126029 -0.85111,1.12011 -0.48057,0.116805 0.22893,-1.126029 -0.54389,0.148406 -1.13444,0.39408 -1.60456,0.630452 a 41.408653,41.408653 0 0 1 0.29198,0.537435 c 0.12651,-0.01488 0.21251,-0.01758 0.36948,-0.04186 -0.0413,0.02406 -0.2447,0.07071 -0.33641,0.10232 a 41.408653,41.408653 0 0 1 4.17287,12.995072 c 1.96508,0.687535 2.89902,1.866856 0.447,2.430859 1.87901,0.862347 -0.5751,2.676425 1.09192,4.603855 -0.22639,1.39252 -0.65543,1.20832 -1.12913,0.37569 a 41.408653,41.408653 0 0 1 -4.28242,16.98346 c 0.17628,1.49009 0.0192,3.1492 -2.00815,4.08502 -0.56544,1.61197 -1.62157,3.99313 -2.05,2.47375 a 41.408653,41.408653 0 0 1 -29.83074,16.3189 c 0.08,2.18041 -5.51408,-0.0819 -7.48378,-0.0408 -0.0503,-0.0787 -0.0845,-0.10199 -0.13126,-0.16847 a 41.408653,41.408653 0 0 1 -1.628322,-0.12816 c -0.01111,-1e-4 -0.02267,-4e-5 -0.03411,-0.003 a 41.408653,41.408653 0 0 1 -23.98768,-12.56887 c -0.699297,0.56639 -2.601879,0.61239 -3.311426,-1.23196 -0.678416,-1.00218 -1.237385,-3.29307 -1.235066,-4.60385 a 41.408653,41.408653 0 0 1 -6.048727,-15.05387 c -0.102762,0.13799 -0.224048,0.26867 -0.39119,0.38138 -3.020854,-1.87466 -4.321709,-2.96838 -0.673861,-5.77588 0.218164,-0.17282 0.313525,-0.24459 0.452685,-0.35243 a 41.408653,41.408653 0 0 1 -0.135909,-1.72496 41.408653,41.408653 0 0 1 41.408846,-41.408844 41.408653,41.408653 0 0 1 17.36069,3.827674 c 0.003,-0.01475 0.011,-0.115084 0.0134,-0.12454 0.005,0.03327 0.006,0.09988 0.0103,0.135392 a 41.408653,41.408653 0 0 1 1.51102,0.727087 c 0.37953,-1.693687 0.60565,-3.42529 0.83509,-5.156791 A 46.40625,46.40625 0 0 0 104.9496,54.973389 Z m 23.44198,6.366536 c -0.67991,0.962434 -1.68862,2.837184 -2.68976,4.208529 a 41.408653,41.408653 0 0 1 14.76809,14.57172 c 1.0895,-0.720449 2.69871,-1.642625 4.25452,-2.643766 A 46.40625,46.40625 0 0 0 129.48719,62.006551 c 0.42358,1.887006 0.17069,3.222799 0,0 a 46.40625,46.40625 0 0 0 -1.09554,-0.666626 z M 62.678861,120.50221 a 46.40625,46.40625 0 0 0 4.923214,8.22688 c 0.01654,-0.0773 0.0237,-0.13495 0.04393,-0.21962 0.03345,-1.45325 -0.410159,-4.0973 -1.249536,-5.71128 -0.626244,-1.67518 -2.073101,-1.9882 -3.717603,-2.29598 z m 10.696505,7.47241 c -0.007,0.0596 -0.0047,0.1161 -0.01757,0.17776 0.08581,0.0196 0.145463,0.0433 0.224276,0.0641 a 41.408653,41.408653 0 0 1 -0.206706,-0.24184 z m 7.034713,11.11663 c -0.721294,-0.0564 -1.454368,0.0415 -2.180229,0.10749 a 46.40625,46.40625 0 0 0 7.643461,4.46846 c 0.486373,-1.60236 -1.984406,-3.64574 -3.591512,-3.91294 -0.603631,-0.4378 -1.23252,-0.61306 -1.87172,-0.66301 z" />
  </g>
</svg>
