<?xml version="1.0" encoding="UTF-8" standalone="no"?>
<svg id="svg5262" xmlns:rdf="http://www.w3.org/1999/02/22-rdf-syntax-ns#" xmlns="http://www.w3.org/2000/svg" height="53.225mm" width="480.6mm" version="1.1" xmlns:cc="http://creativecommons.org/ns#" xmlns:dc="http://purl.org/dc/elements/1.1/" viewBox="0 0 1702.903 188.59328">
<g id="layer1" transform="translate(-865.17 -489.79)">
<path id="path5173" d="m485.79 0.0058594c-10.999-0.19795-21.37 5.1318-25.207 17.43-1.8543 5.944-0.38074 9.8629 2.5684 6.8301 6.2946-6.4725 18.164-1.4968 21.822 9.1484 5.5583 16.175-12.157 32.413-31.119 28.523-8.8334-1.8122-26.787-11.547-27.932-15.145-0.3565-1.121-1.3948-2.7649-2.3066-3.6543-6.998-6.8273-3.8358-25.463 4.9668-29.27 15.408-6.6626 9.7944-7.5134-44.283-6.7051-55.139 0.82413-54.545 0.70715-45.504 9.0723 13.424 12.422 12.762 21.693-2.6738 37.434-12.81 13.058-11.43 12.691-20.23 5.331-2.9955-2.9999-7.1472-10.065-9.9961-7.1348l-7.6582 7.873c-9.0308 9.2866-6.7871 9.661-21.482-3.6094-16.544-14.94-17.365-25.911-2.8535-38.162 8.4924-7.1698 7.7242-7.2825-44.627-6.5137-55.134 0.80977-54.502 0.66514-44.738 10.295 7.2471 7.1482 9.8703 14.08 7.7266 20.426-10.811 32.001-63.074 32.902-63.078 1.0879-0.00032-5.913 7.8273-15.978 12.006-15.438 4.2357 0.54792 6.715 1.522 8.6406 3.3945 1.2923 1.2567 2.4803 2.1493 2.6406 1.9844 0.16031-0.16491 0.9582-0.60544 1.7695-0.98047 5.4251-2.5075-9.1626-22.921-19.393-27.137-2.433-1.0028-5.0567-1.4252-7.748-1.3438-11.663 0.35298-24.594 10.185-28.764 23.43-5.2494 18.501-3.175 26.163-1.2812 31.352 5.0326 13.102 20.328 31.67 33.51 34.523 3.4764 0.75256 2.5851 1.9576-2.9121 3.9395-12.432 4.482-25.99 17.871-30.344 29.967-3.1922 11.748-5.6438 18.758-3.2246 31.049 11.015 35.062 49.674 41.31 58.869 11.836 1.8544-5.944 0.38089-9.8609-2.5684-6.8281-6.2941 6.4725-18.164 1.4949-21.822-9.1504-5.5583-16.175 12.158-32.413 31.119-28.523 8.8335 1.8122 26.785 11.545 27.93 15.143 0.35658 1.121 1.395 2.7668 2.3066 3.6562 6.9979 6.8273 3.8356 25.463-4.9668 29.27-15.408 6.6626-9.7938 7.5134 44.283 6.7051 55.138-0.82412 54.547-0.70521 45.506-9.0703-13.424-12.422-12.763-21.693 2.6719-37.434 12.804-13.057 11.603-12.903 20.221-5.332 3.1846 2.7978 7.1492 10.064 9.998 7.1348l7.6562-7.8711c9.0308-9.2866 6.7891-9.663 21.484 3.6074 16.544 14.94 17.363 25.911 2.8516 38.162-8.4925 7.1698-7.7222 7.2845 44.629 6.5156 55.134-0.80978 54.502-0.66685 44.738-10.297-7.2472-7.1481-9.8703-14.082-7.7266-20.428 10.811-32.001 63.074-32.902 63.078-1.0879 0 5.913-7.827 15.982-12.006 15.441-4.2356-0.54792-6.717-1.5219-8.6426-3.3945-1.2922-1.2567-2.4804-2.1512-2.6406-1.9863-0.1605 0.1649-0.95422 0.60738-1.7656 0.98242-5.4252 2.5075 9.1605 22.919 19.391 27.135 12.976 5.348 31.38-5.7845 36.512-22.086 1.8836-5.9834 3.1702-9.9402 4.252-13.133 1.0818 3.1926 2.3684 7.1494 4.252 13.133 5.1317 16.301 23.535 27.434 36.512 22.086 10.23-4.2162 24.816-24.627 19.391-27.135-0.8114-0.37504-1.6051-0.81752-1.7656-0.98242-0.1602-0.1649-1.3483 0.72962-2.6406 1.9863-1.9256 1.8726-4.407 2.8466-8.6426 3.3945-4.1789 0.54052-12.006-9.5284-12.006-15.441 0.004-31.814 52.267-30.913 63.078 1.0879 2.1437 6.3454-0.47936 13.28-7.7266 20.428-9.7636 9.63-10.396 9.4871 44.738 10.297 52.351 0.76887 53.121 0.65414 44.629-6.5156-14.512-12.251-13.692-23.222 2.8516-38.162 14.695-13.27 12.454-12.894 21.484-3.6074l7.6562 7.8711c2.8488 2.9289 6.8134-4.337 9.998-7.1348 8.618-7.571 7.4169-7.7248 20.221 5.332 15.435 15.74 16.096 25.012 2.6719 37.434-9.041 8.3651-9.6326 8.2462 45.506 9.0703 54.077 0.80831 59.691-0.0425 44.283-6.7051-8.8024-3.8063-11.965-22.442-4.9668-29.27 0.9117-0.88943 1.95-2.5353 2.3066-3.6562 1.1443-3.5978 19.096-13.33 27.93-15.143 18.962-3.89 36.677 12.348 31.119 28.523-3.658 10.645-15.528 15.623-21.822 9.1504-2.9493-3.0328-4.4228 0.88407-2.5684 6.8281 9.1953 29.474 55.918 18.926 58.869-11.836 2.951 30.761 49.674 41.31 58.869 11.836 1.8544-5.944 0.3809-9.8609-2.5684-6.8281-6.2941 6.4725-18.164 1.4949-21.822-9.1504-5.5583-16.175 12.158-32.413 31.119-28.523 8.8335 1.8122 26.785 11.545 27.93 15.143 0.3566 1.121 1.3949 2.7668 2.3066 3.6562 6.9979 6.8273 3.8356 25.463-4.9668 29.27-15.408 6.6626-9.7938 7.5134 44.283 6.7051 55.138-0.82412 54.547-0.70521 45.506-9.0703-13.424-12.422-12.763-21.693 2.6719-37.434 12.804-13.057 11.603-12.903 20.221-5.332 3.1846 2.7978 7.1492 10.064 9.998 7.1348l7.6563-7.8711c9.0308-9.2866 6.789-9.663 21.484 3.6074 16.544 14.94 17.363 25.911 2.8516 38.162-8.4925 7.1698-7.7222 7.2845 44.629 6.5156 55.134-0.80978 54.502-0.66685 44.738-10.297-7.2472-7.1481-9.8703-14.082-7.7266-20.428 10.811-32.001 63.074-32.902 63.078-1.0879 0 5.913-7.827 15.982-12.006 15.441-4.2356-0.54792-6.717-1.5219-8.6426-3.3945-1.2923-1.2567-2.4804-2.1512-2.6406-1.9863-0.1605 0.1649-0.9542 0.60738-1.7656 0.98242-5.4252 2.5075 9.1605 22.919 19.391 27.135 12.976 5.348 31.38-5.7845 36.512-22.086 1.883-5.9815 3.1704-9.9368 4.252-13.129 1.0815 3.192 2.3671 7.1477 4.25 13.129 5.1317 16.301 23.535 27.434 36.512 22.086 10.23-4.2162 24.816-24.627 19.391-27.135-0.8114-0.37504-1.6051-0.81752-1.7656-0.98242-0.1602-0.1649-1.3483 0.72962-2.6406 1.9863-1.9256 1.8726-4.407 2.8466-8.6426 3.3945-4.1789 0.54052-12.006-9.5284-12.006-15.441 0-31.814 52.267-30.913 63.078 1.0879 2.1436 6.3454-0.4794 13.28-7.7266 20.428-9.7636 9.63-10.396 9.4871 44.738 10.297 52.351 0.76887 53.121 0.65414 44.629-6.5156-14.512-12.251-13.692-23.222 2.8515-38.162 14.695-13.27 12.454-12.894 21.484-3.6074l7.6563 7.8711c2.8488 2.9289 6.8134-4.337 9.998-7.1348 8.618-7.571 7.4169-7.7248 20.221 5.332 15.435 15.74 16.096 25.012 2.6719 37.434-9.041 8.3651-9.6327 8.2462 45.506 9.0703 54.077 0.80831 59.691-0.0425 44.283-6.7051-8.8024-3.8063-11.965-22.442-4.9667-29.27 0.9117-0.88943 1.95-2.5353 2.3066-3.6562 1.1443-3.5978 19.096-13.33 27.93-15.143 18.962-3.89 36.677 12.348 31.119 28.523-3.658 10.645-15.528 15.623-21.822 9.1504-2.9493-3.0328-4.4228 0.88407-2.5684 6.8281 9.1953 29.474 55.918 18.926 58.869-11.836 1.2012-13.606 0.2688-21.355-3.2246-31.049-4.3542-12.096-17.912-25.485-30.344-29.967-5.4972-1.9818-6.3885-3.1869-2.9121-3.9395 13.182-2.8536 31.165-23.303 33.51-34.523 2.7627-13.381 4.3408-15.086-1.2812-31.352-4.1695-13.245-17.101-23.077-28.764-23.43-2.6913-0.08148-5.315 0.341-7.748 1.3438-10.23 4.2162-24.818 24.629-19.393 27.137 0.8113 0.37503 1.6092 0.81556 1.7695 0.98047 0.1603 0.16489 1.3483-0.72764 2.6406-1.9844 1.9257-1.8726 4.4049-2.8466 8.6407-3.3945 4.1785-0.54051 12.006 9.5245 12.006 15.438 0 31.814-52.267 30.913-63.078-1.0879-2.1437-6.3454 0.4795-13.278 7.7266-20.426 9.7634-9.6298 10.396-9.4852-44.738-10.295-52.351-0.76886-53.119-0.6561-44.627 6.5137 14.512 12.251 13.69 23.222-2.8535 38.162-14.695 13.27-12.452 12.896-21.482 3.6094l-7.6582-7.873c-2.8489-2.9298-7.0006 4.1349-9.9961 7.1348-8.7986 7.36-7.4169 7.7267-20.221-5.3301-15.435-15.74-16.098-25.012-2.6738-37.434 9.0409-8.3651 9.6347-8.2481-45.504-9.0723-54.078-0.80828-59.691 0.042498-44.283 6.7051 8.8026 3.8063 11.965 22.442 4.9668 29.27-0.9118 0.88942-1.9502 2.5333-2.3067 3.6543-1.1445 3.5978-19.098 13.332-27.932 15.145-18.962 3.89-36.678-12.348-31.119-28.523 3.6581-10.645 15.528-15.621 21.822-9.1484 2.9491 3.0328 4.4227-0.88603 2.5684-6.8301-3.9-12.302-14.3-17.632-25.3-17.434-15.3 0.27632-31.9 11.34-33.6 29.265-1.8-17.925-18.3-28.989-33.7-29.265-10.999-0.19795-21.37 5.1318-25.207 17.43-1.8543 5.944-0.3807 9.8629 2.5684 6.8301 6.2946-6.4725 18.164-1.4968 21.822 9.1484 5.5583 16.175-12.157 32.413-31.119 28.523-8.8334-1.8122-26.787-11.547-27.932-15.145-0.3565-1.121-1.3949-2.7649-2.3067-3.6543-6.998-6.8273-3.8358-25.463 4.9668-29.27 15.408-6.6626 9.7944-7.5134-44.283-6.7051-55.139 0.82413-54.545 0.70715-45.504 9.0723 13.424 12.422 12.762 21.693-2.6738 37.434-12.804 13.057-11.422 12.69-20.221 5.3301-2.9955-2.9999-7.1472-10.065-9.9961-7.1348l-7.6582 7.873c-9.0308 9.2866-6.7871 9.661-21.482-3.6094-16.544-14.94-17.365-25.911-2.8535-38.162 8.4924-7.1698 7.7241-7.2825-44.627-6.5137-55.134 0.80977-54.502 0.66514-44.738 10.295 7.2471 7.1482 9.8703 14.08 7.7266 20.426-10.811 32.001-63.074 32.902-63.078 1.0879-0.0003-5.913 7.8274-15.978 12.006-15.438 4.2358 0.54792 6.7149 1.522 8.6406 3.3945 1.2923 1.2567 2.4804 2.1493 2.6407 1.9844 0.1603-0.16491 0.9582-0.60544 1.7695-0.98047 5.4251-2.5075-9.1626-22.921-19.393-27.137-2.433-1.0028-5.0568-1.4252-7.748-1.3438-11.663 0.35298-24.594 10.185-28.764 23.43-1.8831 5.9822-3.1706 9.9381-4.252 13.131-1.0813-3.1928-2.3689-7.1486-4.252-13.131-4.1695-13.245-17.101-23.077-28.764-23.43-2.6913-0.08148-5.315 0.341-7.748 1.3438-10.23 4.2162-24.818 24.629-19.393 27.137 0.8113 0.37503 1.6092 0.81556 1.7695 0.98047 0.1603 0.16489 1.3483-0.72764 2.6406-1.9844 1.9257-1.8726 4.4048-2.8466 8.6406-3.3945 4.1785-0.54051 12.006 9.5245 12.006 15.438-0.004 31.814-52.267 30.913-63.078-1.0879-2.1437-6.3454 0.47946-13.278 7.7266-20.426 9.7634-9.6298 10.396-9.4852-44.738-10.295-52.351-0.76886-53.119-0.6561-44.627 6.5137 14.512 12.251 13.69 23.222-2.8535 38.162-14.695 13.27-12.452 12.896-21.482 3.6094l-7.62-7.872c-2.85-2.93-7 4.135-10 7.135-8.7986 7.36-7.4169 7.7267-20.221-5.3301-15.435-15.74-16.098-25.012-2.6738-37.434 9.0409-8.3651 9.6347-8.2481-45.504-9.0723-54.078-0.80828-59.691 0.042498-44.283 6.7051 8.8026 3.8063 11.965 22.442 4.9668 29.27-0.9118 0.88942-1.9501 2.5333-2.3066 3.6543-1.1445 3.5978-19.098 13.332-27.932 15.145-18.962 3.89-36.677-12.348-31.119-28.523 3.6581-10.645 15.528-15.621 21.822-9.1484 2.9491 3.0328 4.4227-0.88603 2.5684-6.8301-3.83-12.299-14.21-17.629-25.2-17.431-15.37 0.27636-31.95 11.343-33.67 29.273-1.71-17.93-18.3-28.997-33.66-29.273zm-0.27735 4.5176c12.097 0.04 26.885 12 28.332 25.455 0.2159 2.008 0.65546 3.9024 0.97266 4.2109 2.0463 1.9901 0.0387 16.672-3.457 25.234-19.359 47.479-114.01 35.182-124.05-16.117-1.692-8.6413-7.6866-8.8547-8.7637-0.3125-1.5199 12.055-4.3075 16.507-21.535 34.408-16.148 16.78-16.416 13.612 2.6758 31.746 16.088 15.281 21.592 22.812 21.916 29.984 0.3308 7.3189 8.426 8.612 8.5098 1.3594 0.1754-15.192 21.385-39.109 37.957-42.807 0.9625-0.21474 2.9259-0.81781 4.3633-1.3379 25.638-9.2757 66.731 5.2255 76.193 26.887 14.172 32.442-13.413 69.035-35.701 47.361-5.6529-5.4971-5.6577-5.8351-0.11524-6.0312 17.772-0.62898 23.003-32.375 7.0762-42.947-31.486-20.901-80.701 13.218-60.426 41.891 4.8219 6.8191 5.0038 6.7443-15.973 6.5195-9.9713-0.10686-19.242-0.0845-20.604 0.0488-1.3619 0.13311-9.7749 0.35393-18.693 0.49219l-16.217 0.25195 2.6016-4.2852c9.1195-15.031 6.4802-25.907-9.4942-39.133-5.0523-4.1829-9.6354-8.1128-10.186-8.7305-0.5499-0.61777-2.5012-2.4829-4.3359-4.1465l-3.334-3.0254-8.543 8.7832c-3.6711 3.7752-7.2965 7.166-9.1992 8.6524-1.5232-1.9719-3.7982-4.4248-6.8828-7.2344-9.7338-8.8662-8.2436-9.245-23.217 5.9199-18.8 19.041-21.153 30.217-8.873 42.158 5.0238 4.8855 4.3599 5.1672-10.48 4.4531-4.9798-0.2396-14.644-0.25817-21.475-0.041-6.8309 0.21711-13.655 0.37341-15.164 0.34765-1.5093-0.026-7.5494-0.0567-13.422-0.0684-12.272-0.0242-12.804-0.26366-9.9844-4.5117 10.522-15.852 3.4718-31.089-20.785-44.922-32.011-18.254-70.871 16.803-45.695 41.225 2.8491 2.7636 4.4169 3.3408 12.502 4.6035 5.4979 0.85861 3.4986 4.0322-6.2227 9.8809-12.307 7.4042-34.299-6.8892-36.08-23.449-2.3051-9.8793-0.9682-20.615 2.4863-29.445 19.359-47.479 114.01-35.184 124.05 16.115 1.6919 8.6413 7.6886 8.8566 8.7656 0.31445 1.5198-12.055 4.3075-16.511 21.535-34.412 16.148-16.78 16.416-13.608-2.6758-31.742-16.088-15.281-21.594-22.812-21.918-29.984-0.3308-7.3189-8.426-8.6139-8.5098-1.3613-0.17541 15.192-21.383 39.111-37.955 42.809-0.9625 0.21476-2.9259 0.81586-4.3633 1.3359-25.637 9.2757-66.731-5.2255-76.193-26.887-14.172-32.442 13.413-69.037 35.701-47.363 5.6527 5.4971 5.6596 5.837 0.11719 6.0332-17.772 0.629-23.004 32.375-7.0781 42.947 31.486 20.901 80.699-13.216 60.424-41.889-4.8219-6.8191-5.0057-6.7463 15.971-6.5215 9.9712 0.10685 19.245 0.08633 20.607-0.04687 1.3618-0.1331 9.7726-0.35589 18.691-0.49414l16.217-0.25195-2.5996 4.2871c-9.1196 15.031-6.4822 25.907 9.4922 39.133 5.0522 4.1829 9.6373 8.1108 10.188 8.7285 0.55 0.61774 2.4994 2.4848 4.334 4.1484l3.3359 3.0234 8.541-8.7812c3.671-3.7752 7.2984-7.1679 9.2012-8.6543 1.5231 1.9719 3.7981 4.4247 6.8828 7.2344 9.734 8.8662 8.2436 9.245 23.217-5.9199 18.8-19.041 21.153-30.215 8.873-42.156-5.0241-4.8855-4.36-5.1672 10.48-4.4531 4.9797 0.23962 14.644 0.25619 21.475 0.03906 6.8309-0.21711 13.653-0.37342 15.162-0.34766 1.5095 0.026 7.5493 0.05666 13.422 0.06836 12.272 0.0242 12.804 0.26362 9.9844 4.5117-10.522 15.852-3.4723 31.089 20.785 44.922 32.012 18.254 70.873-16.801 45.697-41.223-2.8491-2.7636-4.4189-3.3409-12.504-4.6035-5.4981-0.85864-3.4986-4.0322 6.2226-9.8809 2.3077-1.3883 4.9566-2.0151 7.748-2.0059zm67.879 0c2.7914-0.00924 5.4403 0.61757 7.748 2.0059 9.7213 5.8487 11.721 9.0222 6.2227 9.8809-8.085 1.2627-9.6549 1.8399-12.504 4.6035-25.176 24.421 13.686 59.477 45.697 41.223 24.258-13.833 31.307-29.07 20.785-44.922-2.8196-4.2481-2.2879-4.4875 9.9844-4.5117 5.8726-0.0117 11.912-0.04236 13.422-0.06836 1.5092-0.02576 8.3312 0.13055 15.162 0.34766 6.8306 0.21709 16.495 0.20056 21.475-0.03906 14.84-0.71407 15.505-0.43234 10.48 4.4531-12.28 11.941-9.9272 23.115 8.873 42.156 14.973 15.165 13.483 14.786 23.217 5.9199 3.0847-2.8096 5.3597-5.2625 6.8828-7.2344 1.9028 1.4864 5.5302 4.8791 9.2012 8.6543l8.541 8.7812 3.3359-3.0234c1.8346-1.6636 3.784-3.5307 4.334-4.1484 0.5502-0.61773 5.1353-4.5456 10.188-8.7285 15.974-13.226 18.612-24.102 9.4922-39.133l-2.5996-4.2871 16.217 0.25195c8.9188 0.13825 17.33 0.36104 18.691 0.49414 1.362 0.1332 10.636 0.15372 20.607 0.04687 20.976-0.22477 20.793-0.29759 15.971 6.5215-20.275 28.673 28.938 62.789 60.424 41.889 15.926-10.572 10.694-42.318-7.0781-42.947-5.5424-0.19616-5.5355-0.53608 0.11719-6.0332 22.288-21.674 49.873 14.922 35.701 47.363-9.4623 21.661-50.556 36.162-76.193 26.887-1.4374-0.52008-3.4008-1.1212-4.3633-1.3359-16.572-3.6972-37.78-27.617-37.955-42.809-0.0837-7.2526-8.179-5.9576-8.5098 1.3613-0.3242 7.1721-5.8303 14.703-21.918 29.984-19.092 18.134-18.824 14.963-2.6758 31.742 17.228 17.901 20.015 22.358 21.535 34.412 1.077 8.5422 7.0737 8.3269 8.7656-0.31445 10.044-51.299 104.69-63.594 124.05-16.115 3.4921 8.5628 5.5015 23.244 3.4551 25.234-0.3172 0.30853-0.75285 2.203-0.96875 4.2109-1.7809 16.56-23.773 30.853-36.08 23.449-9.7213-5.8487-11.721-9.0222-6.2227-9.8809 8.085-1.2627 9.6529-1.8399 12.502-4.6035 25.176-24.421-13.684-59.479-45.695-41.225-24.257 13.833-31.307 29.07-20.785 44.922 2.8197 4.2481 2.288 4.4875-9.9844 4.5117-5.8724 0.0117-11.913 0.0424-13.422 0.0684-1.5094 0.0258-8.3332-0.13054-15.164-0.34765-6.8308-0.21717-16.495-0.19859-21.475 0.041-14.84 0.71409-15.504 0.43237-10.48-4.4531 12.28-11.941 9.9274-23.117-8.873-42.158-14.973-15.165-13.483-14.786-23.217-5.9199-3.0846 2.8096-5.3596 5.2625-6.8828 7.2344-1.9027-1.4864-5.5281-4.8772-9.1992-8.6524l-8.543-8.7832-3.334 3.0254c-1.8347 1.6636-3.786 3.5287-4.3359 4.1465-0.5501 0.6177-5.1332 4.5476-10.186 8.7305-15.974 13.226-18.614 24.102-9.4941 39.133l2.6016 4.2852-16.217-0.25195c-8.9185-0.13826-17.331-0.35908-18.693-0.49219-1.3619-0.1333-10.632-0.15569-20.604-0.0488-20.976 0.22478-20.795 0.29954-15.973-6.5195 20.275-28.673-28.94-62.791-60.426-41.891-15.927 10.572-10.696 42.318 7.0762 42.947 5.5425 0.19618 5.5377 0.53413-0.11523 6.0312-22.288 21.674-49.873-14.92-35.701-47.361 9.4623-21.661 50.556-36.162 76.193-26.887 1.4374 0.52008 3.4008 1.1232 4.3633 1.3379 16.572 3.6973 37.782 27.615 37.957 42.807 0.0837 7.2526 8.179 5.9595 8.5098-1.3594 0.3241-7.1721 5.8282-14.703 21.916-29.984 19.091-18.134 18.824-14.967 2.6758-31.746-17.228-17.901-20.015-22.354-21.535-34.408-1.0771-8.5422-7.0717-8.3288-8.7637 0.3125-10.044 51.299-104.7 63.596-124.05 16.117-3.496-8.5628-5.5033-23.244-3.457-25.234 0.3172-0.30853 0.75676-2.2029 0.97266-4.2109 1.4469-13.455 16.235-25.415 28.332-25.455zm782.84 0c12.097 0.04 26.885 12 28.332 25.455 0.2159 2.008 0.6555 3.9024 0.9727 4.2109 2.0463 1.9901 0.039 16.672-3.457 25.234-19.359 47.479-114.01 35.182-124.05-16.117-1.692-8.6413-7.6866-8.8547-8.7637-0.3125-1.5199 12.055-4.3074 16.507-21.535 34.408-16.148 16.78-16.416 13.612 2.6757 31.746 16.088 15.281 21.592 22.812 21.916 29.984 0.3308 7.3189 8.426 8.612 8.5097 1.3594 0.1755-15.192 21.385-39.109 37.957-42.807 0.9626-0.21474 2.9259-0.81781 4.3633-1.3379 25.638-9.2757 66.731 5.2255 76.193 26.887 14.172 32.442-13.413 69.035-35.701 47.361-5.6529-5.4971-5.6577-5.8351-0.1152-6.0312 17.772-0.62898 23.003-32.375 7.0762-42.947-31.486-20.901-80.701 13.218-60.426 41.891 4.8219 6.8191 5.0038 6.7443-15.973 6.5195-9.9712-0.10686-19.242-0.0845-20.604 0.0488-1.3619 0.13311-9.7749 0.35393-18.693 0.49219l-16.217 0.25195 2.6016-4.2852c9.1195-15.031 6.4802-25.907-9.4941-39.133-5.0523-4.1829-9.6355-8.1128-10.186-8.7305-0.5499-0.61776-2.5012-2.4829-4.3359-4.1465l-3.334-3.0254-8.543 8.7832c-3.6711 3.7752-7.2965 7.166-9.1992 8.6524-1.5232-1.9719-3.7982-4.4248-6.8828-7.2344-9.7338-8.8662-8.2436-9.245-23.217 5.9199-18.8 19.041-21.153 30.217-8.873 42.158 5.0238 4.8855 4.3599 5.1672-10.48 4.4531-4.9798-0.2396-14.644-0.25818-21.475-0.041-6.8309 0.21711-13.655 0.37341-15.164 0.34765-1.5093-0.026-7.5495-0.0567-13.422-0.0684-12.272-0.0242-12.804-0.26366-9.9843-4.5117 10.522-15.852 3.4718-31.089-20.785-44.922-32.011-18.254-70.871 16.803-45.695 41.225 2.8491 2.7636 4.417 3.3408 12.502 4.6035 5.4979 0.85861 3.4986 4.0322-6.2227 9.8809-12.307 7.4042-34.299-6.8892-36.08-23.449-0.2159-2.008-0.65155-3.9024-0.96875-4.2109-2.0464-1.9901-0.037-16.672 3.4551-25.234 19.359-47.479 114.01-35.184 124.05 16.115 1.6919 8.6413 7.6886 8.8566 8.7656 0.31445 1.5198-12.055 4.3075-16.511 21.535-34.412 16.148-16.78 16.416-13.608-2.6758-31.742-16.088-15.281-21.594-22.812-21.918-29.984-0.3308-7.3189-8.4261-8.6139-8.5098-1.3613-0.1754 15.192-21.383 39.111-37.955 42.809-0.9625 0.21476-2.9259 0.81586-4.3633 1.3359-25.637 9.2757-66.731-5.2255-76.193-26.887-14.172-32.442 13.413-69.037 35.701-47.363 5.6527 5.4971 5.6596 5.837 0.11718 6.0332-17.772 0.629-23.004 32.375-7.0781 42.947 31.486 20.901 80.699-13.216 60.424-41.889-4.8219-6.8191-5.0057-6.7463 15.971-6.5215 9.9712 0.10685 19.245 0.08633 20.607-0.04687 1.3618-0.1331 9.7726-0.35589 18.691-0.49414l16.217-0.25195-2.5996 4.2871c-9.1196 15.031-6.4822 25.907 9.4922 39.133 5.0522 4.1829 9.6373 8.1108 10.188 8.7285 0.55 0.61774 2.4994 2.4848 4.334 4.1484l3.3359 3.0234 8.541-8.7812c3.671-3.7752 7.2984-7.1679 9.2012-8.6543 1.5231 1.9719 3.7981 4.4247 6.8828 7.2344 9.734 8.8662 8.2436 9.245 23.217-5.9199 18.8-19.041 21.153-30.215 8.8731-42.156-5.0241-4.8855-4.36-5.1672 10.48-4.4531 4.9798 0.23962 14.644 0.25615 21.475 0.03906 6.8309-0.21711 13.653-0.37342 15.162-0.34766 1.5095 0.026 7.5493 0.05666 13.422 0.06836 12.272 0.0242 12.804 0.26362 9.9844 4.5117-10.522 15.852-3.4723 31.089 20.785 44.922 32.012 18.254 70.873-16.801 45.697-41.223-2.849-2.7636-4.4189-3.3409-12.504-4.6035-5.4981-0.85864-3.4986-4.0322 6.2227-9.8809 2.3077-1.3883 4.9566-2.0151 7.748-2.0059zm67.877 0c2.7914-0.00924 5.4403 0.61757 7.748 2.0059 9.7213 5.8487 11.721 9.0222 6.2227 9.8809-8.085 1.2627-9.6549 1.8399-12.504 4.6035-25.176 24.421 13.686 59.477 45.697 41.223 24.258-13.833 31.307-29.07 20.785-44.922-2.8196-4.2481-2.2879-4.4875 9.9844-4.5117 5.8726-0.0117 11.912-0.04236 13.422-0.06836 1.5092-0.02576 8.3312 0.13055 15.162 0.34766 6.8306 0.21709 16.495 0.20056 21.475-0.03906 14.84-0.71407 15.504-0.43234 10.48 4.4531-12.28 11.941-9.9271 23.115 8.8731 42.156 14.973 15.165 13.483 14.786 23.217 5.9199 3.0847-2.8096 5.3597-5.2625 6.8828-7.2344 1.9028 1.4864 5.5302 4.8791 9.2012 8.6543l8.541 8.7812 3.3359-3.0234c1.8346-1.6636 3.784-3.5307 4.334-4.1484 0.5502-0.61773 5.1353-4.5456 10.188-8.7285 15.974-13.226 18.612-24.102 9.4922-39.133l-2.5996-4.2871 16.217 0.25195c8.9188 0.13825 17.33 0.36104 18.691 0.49414 1.362 0.1332 10.636 0.15372 20.607 0.04687 20.976-0.22477 20.793-0.29759 15.971 6.5215-20.275 28.673 28.938 62.789 60.424 41.889 15.926-10.572 10.694-42.318-7.0781-42.947-5.5424-0.19616-5.5355-0.53608 0.1172-6.0332 22.288-21.674 49.873 14.922 35.701 47.363-9.4623 21.661-50.556 36.162-76.193 26.887-1.4374-0.52008-3.4008-1.1212-4.3633-1.3359-16.572-3.6972-37.78-27.617-37.955-42.809-0.084-7.2526-8.1789-5.9576-8.5097 1.3613-0.3242 7.1721-5.8303 14.703-21.918 29.984-19.092 18.134-18.824 14.963-2.6758 31.742 17.228 17.901 20.015 22.358 21.535 34.412 1.077 8.5422 7.0737 8.3269 8.7656-0.31445 10.044-51.299 104.69-63.594 124.05-16.115 16.648 34.195-11.494 62.639-33.594 52.895-9.7213-5.8487-11.721-9.0222-6.2227-9.8809 8.085-1.2627 9.6529-1.8399 12.502-4.6035 25.176-24.421-13.684-59.479-45.695-41.225-24.257 13.833-31.307 29.07-20.785 44.922 2.8197 4.2481 2.288 4.4875-9.9844 4.5117-5.8724 0.0117-11.912 0.0424-13.422 0.0684-1.5094 0.0258-8.3332-0.13054-15.164-0.34765-6.8308-0.21717-16.495-0.19859-21.475 0.041-14.84 0.71409-15.504 0.43237-10.48-4.4531 12.28-11.941 9.9274-23.117-8.873-42.158-14.973-15.165-13.483-14.786-23.217-5.9199-3.0846 2.8096-5.3596 5.2625-6.8828 7.2344-1.9027-1.4864-5.5281-4.8772-9.1992-8.6524l-8.543-8.7832-3.334 3.0254c-1.8347 1.6636-3.786 3.5287-4.3359 4.1465-0.5501 0.6177-5.1333 4.5476-10.186 8.7305-15.974 13.226-18.614 24.102-9.4941 39.133l2.6015 4.2852-16.217-0.25195c-8.9185-0.13826-17.331-0.35908-18.693-0.49219-1.3619-0.1333-10.632-0.15569-20.604-0.0488-20.976 0.22478-20.795 0.29954-15.973-6.5195 20.275-28.673-28.94-62.791-60.426-41.891-15.927 10.572-10.696 42.318 7.0762 42.947 5.5425 0.19618 5.5377 0.53413-0.1152 6.0312-22.288 21.674-49.873-14.92-35.701-47.361 9.4623-21.661 50.556-36.162 76.193-26.887 1.4374 0.52008 3.4007 1.1232 4.3632 1.3379 16.572 3.6973 37.782 27.615 37.957 42.807 0.084 7.2526 8.1789 5.9595 8.5097-1.3594 0.3241-7.1721 5.8282-14.703 21.916-29.984 19.091-18.134 18.824-14.967 2.6758-31.746-17.228-17.901-20.015-22.354-21.535-34.408-1.0771-8.5422-7.0717-8.3288-8.7637 0.3125-10.044 51.299-104.7 63.596-124.05 16.117-3.496-8.5628-5.5033-23.244-3.457-25.234 0.3172-0.30853 0.7567-2.2029 0.9726-4.2109 1.4469-13.455 16.236-25.415 28.332-25.455zm-1020.4 49.136c0.4424 0.0375 0.80424 0.6546 1.1816 1.7852 2.3137 6.9324 24.333 26.258 35.051 30.764 8.9765 3.7733 12.032 8.1231 5.3223 7.5762-9.9984-0.81489-31.779 17.907-36.963 31.771-2.2448 6.0044-3.0172 5.8492-6.6562-1.334-2.5063-4.9474-6.4126-9.1125-21.42-22.85l-9.9609-9.1191 13.879-14.273c11.711-12.043 14.25-15.069 16.256-19.373 1.6141-3.4628 2.5734-5.0101 3.3106-4.9473zm271.4 0c0.7372-0.0628 1.6964 1.4844 3.3106 4.9473 2.0061 4.3042 4.5451 7.3305 16.256 19.373l13.879 14.273-9.9609 9.1191c-15.007 13.737-18.914 17.902-21.42 22.85-3.639 7.1832-4.4114 7.3383-6.6562 1.334-5.1835-13.864-26.964-32.586-36.963-31.771-6.7099 0.54689-3.6542-3.8029 5.3223-7.5762 10.717-4.5052 32.737-23.831 35.051-30.764 0.3774-1.1306 0.73924-1.7477 1.1816-1.7852zm579.32 0c0.4423 0.0375 0.8042 0.6546 1.1816 1.7852 2.3137 6.9324 24.333 26.258 35.051 30.764 8.9765 3.7733 12.032 8.1231 5.3222 7.5762-9.9984-0.81489-31.779 17.907-36.963 31.771-2.2448 6.0044-3.0172 5.8492-6.6562-1.334-2.5063-4.9474-6.4126-9.1125-21.42-22.85l-9.961-9.1191 13.879-14.273c11.711-12.043 14.25-15.069 16.256-19.373 1.6141-3.4628 2.5733-5.0101 3.3106-4.9473zm271.4 0c0.7372-0.0628 1.6965 1.4844 3.3106 4.9473 2.0061 4.3042 4.545 7.3305 16.256 19.373l13.879 14.273-9.9609 9.1191c-15.007 13.737-18.914 17.902-21.42 22.85-3.639 7.1832-4.4115 7.3383-6.6563 1.334-5.1835-13.864-26.964-32.586-36.963-31.771-6.7099 0.54689-3.6542-3.8029 5.3223-7.5762 10.717-4.5052 32.737-23.831 35.051-30.764 0.3774-1.1306 0.7392-1.7477 1.1816-1.7852zm-986.58 0.746c0.0412 0.000675 0.0867 0.02534 0.1289 0.0332 0.0419-0.0079 0.0879-0.03253 0.12891-0.0332 0.969-0.01594 1.6744 1.9605 3.0977 5.9141 4.3541 12.096 17.911 25.485 30.344 29.967 5.4973 1.9818 6.3864 3.1869 2.9102 3.9395-13.182 2.8535-32.511 22.767-33.512 34.525-0.85223 4.2743-5.6423 3.0646-5.9375 0-1.0005-11.758-20.33-31.672-33.512-34.525-3.4763-0.75257-2.5872-1.9576 2.9102-3.9395 12.432-4.482 25.99-17.871 30.344-29.967 1.4233-3.9536 2.1287-5.93 3.0977-5.9141zm850.71 0c0.04 0.00066 0.088 0.02495 0.1289 0.0332 0.041-0.0082 0.087-0.03254 0.1269-0.0332 0.969-0.01594 1.6744 1.9605 3.0977 5.9141 4.3541 12.096 17.911 25.485 30.344 29.967 5.4973 1.9818 6.3865 3.1869 2.9102 3.9395-13.182 2.8535-32.511 22.767-33.512 34.525-0.853 4.275-5.6404 3.0647-5.9356 0-1.0005-11.758-20.33-31.672-33.512-34.525-3.4763-0.75257-2.5871-1.9576 2.9102-3.9395 12.432-4.482 25.99-17.871 30.344-29.967 1.4233-3.9536 2.1287-5.93 3.0977-5.9141zm-422.26 4.1172c1.0005 11.758 20.328 31.67 33.51 34.523 3.4764 0.75256 2.5851 1.9576-2.9121 3.9395-12.432 4.482-25.99 17.871-30.344 29.967-1.4837 4.1215-2.1892 6.0758-3.2246 5.8828-1.0354 0.19303-1.7409-1.7613-3.2246-5.8828-4.3542-12.096-17.912-25.485-30.344-29.967-5.4972-1.9818-6.3885-3.1869-2.9121-3.9395 13.182-2.8536 32.509-22.766 33.51-34.523 0.36412-4.5228 5.6588-3.0646 5.9414 0zm-719.73-1.084c0.929 0.1861 2.0322 2.0198 3.8516 5.6113 2.5064 4.9474 6.4106 9.1124 21.418 22.85l9.9629 9.1211-13.881 14.271c-11.711 12.043-14.25 15.071-16.256 19.375-2.5824 5.5406-3.486 6.175-4.4922 3.1602-2.3137-6.9324-24.331-26.258-35.049-30.764-8.9763-3.7733-12.034-8.123-5.3242-7.5762 9.9982 0.81495 31.779-17.907 36.963-31.771 1.1225-3.0022 1.8778-4.4635 2.8066-4.2773zm582.89 0c0.9289-0.18611 1.6841 1.2752 2.8066 4.2773 5.1835 13.864 26.965 32.586 36.963 31.771 6.7098-0.54688 3.6521 3.8029-5.3242 7.5762-10.717 4.5052-32.735 23.831-35.049 30.764-1.0062 3.0149-1.9098 2.3804-4.4922-3.1602-2.006-4.3042-4.5452-7.3325-16.256-19.375l-13.881-14.271 9.9629-9.1211c15.007-13.737 18.912-17.902 21.418-22.85 1.8193-3.5916 2.9226-5.4252 3.8516-5.6113zm267.82 0c0.929 0.1861 2.0322 2.0198 3.8515 5.6113 2.5064 4.9474 6.4106 9.1124 21.418 22.85l9.9629 9.1211-13.881 14.271c-11.711 12.043-14.25 15.071-16.256 19.375-2.5824 5.5406-3.486 6.175-4.4922 3.1602-2.3137-6.9324-24.332-26.258-35.049-30.764-8.9763-3.7733-12.034-8.123-5.3242-7.5762 9.9982 0.81495 31.779-17.907 36.963-31.771 1.1225-3.0022 1.8778-4.4635 2.8067-4.2773zm582.89 0c0.9289-0.18611 1.6842 1.2752 2.8067 4.2773 5.1835 13.864 26.965 32.586 36.963 31.771 6.7098-0.54688 3.652 3.8029-5.3243 7.5762-10.717 4.5052-32.735 23.831-35.049 30.764-1.0062 3.0149-1.9098 2.3804-4.4922-3.1602-2.006-4.3042-4.5451-7.3325-16.256-19.375l-13.881-14.271 9.9629-9.1211c15.007-13.737 18.912-17.902 21.418-22.85 1.8193-3.5916 2.9225-5.4252 3.8515-5.6113zm-1333.5 15.979-8.0644 8.5488c-11.874 12.59-11.831 11.161-0.66016 22.023 9.3344 9.0774 9.3376 9.0801 10.982 7.3887 1.8797-1.933-2.4651-8.1062-9.1992-13.07-5.4585-4.0236 1.8968-17.308 10.822-19.547 0.8586-0.21538 0.43027-1.1506-1.2988-2.832zm382.77 0-2.582 2.5117c-1.7291 1.6814-2.1574 2.6167-1.2988 2.832 8.9255 2.239 16.281 15.523 10.822 19.547-6.7341 4.9641-11.079 11.137-9.1992 13.07 1.6448 1.6914 1.648 1.6888 10.982-7.3887 11.17-10.863 11.214-9.4338-0.66016-22.023zm467.95 0-8.0644 8.5488c-11.874 12.59-11.831 11.161-0.6602 22.023 9.3344 9.0774 9.3376 9.0801 10.982 7.3887 1.8797-1.933-2.4651-8.1062-9.1992-13.07-5.4585-4.0236 1.8968-17.308 10.822-19.547 0.8586-0.21538 0.4302-1.1506-1.2989-2.832zm382.77 0-2.582 2.5117c-1.7292 1.6814-2.1575 2.6167-1.2989 2.832 8.9255 2.239 16.281 15.523 10.822 19.547-6.7341 4.9641-11.079 11.137-9.1992 13.07 1.6448 1.6914 1.648 1.6888 10.982-7.3887 11.17-10.863 11.214-9.4338-0.6602-22.023zm-1277 1.613c-0.5283-0.0277-0.88239 0.33471-1.3965 0.86328-1.8797 1.933 2.4649 8.1062 9.1992 13.07 5.4585 4.0236-1.8969 17.31-10.822 19.549-0.8587 0.21539-0.42832 1.1506 1.3008 2.832l2.582 2.5117 8.0625-8.5488c11.874-12.59 11.833-11.163 0.66211-22.025-6.4176-6.2408-8.4257-8.1914-9.5879-8.252zm469.67 0c-1.1622 0.06053-3.1703 2.0112-9.5879 8.252-11.17 10.863-11.212 9.4358 0.66211 22.025l8.0625 8.5488 2.582-2.5117c1.7291-1.6814 2.1595-2.6166 1.3008-2.832-8.9254-2.239-16.281-15.525-10.822-19.549 6.7343-4.9642 11.079-11.137 9.1992-13.07-0.5141-0.52857-0.86819-0.89098-1.3965-0.86328zm381.04 0c-0.5283-0.0277-0.8824 0.33471-1.3965 0.86328-1.8797 1.933 2.465 8.1062 9.1993 13.07 5.4585 4.0236-1.8969 17.31-10.822 19.549-0.8587 0.21539-0.4283 1.1506 1.3008 2.832l2.582 2.5117 8.0625-8.5488c11.874-12.59 11.832-11.163 0.6621-22.025-6.4176-6.2408-8.4257-8.1914-9.5879-8.252zm469.67 0c-1.1622 0.06053-3.1703 2.0112-9.5879 8.252-11.17 10.863-11.212 9.4358 0.6621 22.025l8.0625 8.5488 2.582-2.5117c1.7291-1.6814 2.1595-2.6166 1.3008-2.832-8.9254-2.239-16.281-15.525-10.822-19.549 6.7343-4.9642 11.079-11.137 9.1992-13.07-0.5141-0.52857-0.8681-0.89098-1.3964-0.86328z" transform="translate(772.05 489.79)"/>
</g>
</svg>
