<?xml version="1.0" encoding="UTF-8" standalone="no"?>
<svg
   version="1.1"
   id="Layer_1"
   x="0px"
   y="0px"
   viewBox="0 0 1664.318 1664.318"
   enable-background="new 0 0 1664.318 1664.318"
   xml:space="preserve"
   sodipodi:docname="decorative_corner.svg"
   inkscape:version="1.2.2 (b0a8486541, 2022-12-01)"
   xmlns:inkscape="http://www.inkscape.org/namespaces/inkscape"
   xmlns:sodipodi="http://sodipodi.sourceforge.net/DTD/sodipodi-0.dtd"
   xmlns="http://www.w3.org/2000/svg"
   xmlns:svg="http://www.w3.org/2000/svg"><defs
   id="defs16919" /><sodipodi:namedview
   id="namedview16917"
   pagecolor="#ffffff"
   bordercolor="#000000"
   borderopacity="0.25"
   inkscape:showpageshadow="2"
   inkscape:pageopacity="0.0"
   inkscape:pagecheckerboard="0"
   inkscape:deskcolor="#d1d1d1"
   showgrid="false"
   inkscape:zoom="0.61706958"
   inkscape:cx="613.38302"
   inkscape:cy="833.77956"
   inkscape:window-width="2560"
   inkscape:window-height="1369"
   inkscape:window-x="1080"
   inkscape:window-y="32"
   inkscape:window-maximized="1"
   inkscape:current-layer="Layer_1" />
<path
   d="m 1472.454,1472.4559 c -21.721,21.341 -63.6,13.901 -70.453,-24.02 -0.896,0 -102.964,-0.495 -103.628,0.811 -6.284,11.722 -19.532,18.374 -32.475,19.309 4.367,13.618 -6.617,25.677 -22.652,22.995 -1.495,-1.436 -2.804,-37.549 -82.445,-41.362 -3.141,16.015 -6.942,19.272 -11.679,26.622 28.691,25.597 93.033,49.204 87.921,79.071 -2.604,13.115 -14.726,15.815 -20.98,13.937 -29.358,-6.572 -49.187,-63.049 -72.375,-87.771 -7.666,5.282 -16.115,9.604 -25.356,11.263 1.714,75.201 40.128,81.444 41.023,82.119 2.653,20.497 -14.547,25.249 -23.634,22.17 0.366,20.718 -20.318,37.449 -27.425,34.141 -14.288,-4.834 -22.857,-19.989 -23.625,-34.508 -13.622,4.981 -26.626,-7.472 -22.671,-22.055 6.231,-2.106 12.503,-4.772 17.164,-9.582 16.653,-16.932 22.855,-48.243 23.649,-72.286 -9.234,-1.348 -18.028,-5.194 -25.217,-11.143 -12.251,10.646 -26.117,41.452 -46.994,68.275 -27.658,37.544 -60.18896,14.465 -40.61896,-13.797 14.41496,-20.905 61.71996,-41.02 81.88596,-60.114 -6.477,-7.275 -10.27,-16.523 -11.849,-26.065 -30.456,1.244 -75.69796,10.861 -82.08896,40.844 -20.499,3.336 -25.952,-13.051 -22.673,-22.86 -13.473,-0.523 -26.852,-8.112 -33.269,-20.131 -109.889,-0.03 -102.534,-0.045 -104.417,0.316 -0.973,3.086 -1.431,6.331 -2.656,9.338 -15.406,38.604 -71.459,32.59 -79.356,-6.522 0.071,-10.776 -27.829,24.634 -36.887,30.015 -9.161,-0.686 15.359,1.85 -300.69704,-31.493 -4.924,-0.644 17.479,-0.243 -365.117,-0.382 l -0.701,-1.328 v -11.383 c 424.641,0.176 247.016,9.679 667.04104,-34.564 11.592,11.459 23.25,22.863 34.812,34.356 1.581,-0.114 1.211,-2.126 1.711,-3.235 8.593,-41.898 71.011,-44.198 81.204,0.71 0.012,2.209 -6.348,1.527 105.822,1.439 8.238,-10.9 20.144,-18.604 32.334,-17.776 -2.521,-17.852 6.657,-25.761 22.603,-23.852 7.354,30.142 51.75896,40.907 82.69996,41.008 1.61,-9.065 5.235,-17.877 11.306,-24.89 -14.844,-16.234 -74.67296,-40.769 -85.83496,-67.493 -3.876,-8.556 -2.561,-21.629 10.471,-25.726 29.91596,-9.072 57.72296,63.723 80.86596,87.457 7.403,-5.997 16.228,-10.192 25.686,-11.62 -0.332,-19.897 -5.845,-47.548 -15.947,-63.109 -11.038,-17.624 -21.565,-17.267 -24.956,-19.419 -3.292,-16.379 8.932,-26.925 22.85,-22.62 0.978,-16.004 11.463,-32.745 25.817,-34.953 13.483,2.202 25.114,20.082 25.035,34.724 7.151,-2.255 15.517,0.088 20.328,5.842 3.899,4.863 3.821,11.373 3.55,17.265 -8.982,2.734 -15.217,4.223 -23.969,16.732 -17.552,27.024 -16.403,58.308 -17.829,65.598 9.295,1.7 18.42,5.371 25.504,11.76 18.228,-14.196 46.912,-89.151 76.939,-87.852 17.551,1.732 18.54,16.535 16.255,23.501 -8.875,27.695 -70.474,52.586 -87.176,69.901 5.509,7.296 9.679,15.692 11.073,24.794 30.725,-0.13 76.786,-10.565 82.475,-40.894 18.2,-2.926 26.718,9.92 23.13,23.435 14.825,0.755 27.102,9.293 32.368,18.351 34.665,-0.184 69.329,0.121 103.995,-0.189 1.458,-9.063 5.511,-16.516 11.098,-22.14 5.624,-5.587 13.076,-9.64 22.14,-11.098 0.31,-34.666 0,-69.33 0.189,-103.995 -9.058,-5.266 -17.596,-17.543 -18.35,-32.368 -13.514,3.588 -26.36,-4.929 -23.435,-23.13 30.329,-5.689 40.764,-51.75 40.894,-82.475 -9.102,-1.394 -17.498,-5.564 -24.794,-11.073 -17.315,16.702 -42.206,78.301 -69.901,87.176 -6.966,2.286 -21.769,1.296 -23.501,-16.255 -1.299,-30.026 73.656,-58.711 87.852,-76.939 -6.389,-7.084 -10.059,-16.209 -11.76,-25.504 -7.29,1.426 -38.573,0.277 -65.598,17.829 -12.509,8.752 -13.998,14.987 -16.732,23.969 -5.892,0.271 -12.402,0.349 -17.265,-3.55 -5.755,-4.811 -8.098,-13.178 -5.842,-20.328 -14.642,0.079 -32.522,-11.552 -34.724,-25.035 2.208,-14.354 18.949,-24.839 34.953,-25.817 -4.306,-13.918 6.241,-26.142 22.62,-22.85 2.152,3.391 1.795,13.919 19.419,24.956 15.561,10.102 43.212,15.615 63.109,15.947 1.428,-9.458 5.623,-18.283 11.62,-25.686 -23.734,-23.143 -96.529,-50.95 -87.457,-80.86596 4.097,-13.033 17.17,-14.347 25.726,-10.471 26.724,11.162 51.26,70.99096 67.493,85.83496 7.013,-6.071 15.825,-9.696 24.89,-11.306 -0.1,-30.94 -10.865,-75.34496 -41.008,-82.69996 -1.908,-15.945 6,-25.124 23.852,-22.603 -0.828,-12.191 6.876,-24.096 17.776,-32.334 0.089,-112.17 0.771,-105.81 -1.438,-105.822 -44.908,-10.194 -42.608,-72.611 -0.71,-81.204 1.108,-0.5 3.12,-0.13 3.234,-1.711 -11.493,-11.562 -22.897,-23.221 -34.356,-34.812 44.243,-420.025 34.74,-242.401 34.564,-667.041005 h 11.383 l 1.328,0.701 c 0.139,382.595005 -0.263,360.193005 0.382,365.117005 33.343,316.056 30.807,291.536 31.493,300.697 -5.38,9.057 -40.79,36.958 -30.015,36.887 39.112,7.897 45.125,63.95 6.522,79.356 -3.007,1.226 -6.253,1.683 -9.338,2.656 -0.36,1.883 -0.345,-5.472 -0.316,104.417 12.019,6.417 19.607,19.796 20.131,33.269 9.809,-3.279 26.196,2.174 22.86,22.673 -29.983,6.391 -39.6,51.63296 -40.844,82.08896 9.542,1.578 18.79,5.372 26.065,11.849 19.094,-20.166 39.209,-67.472 60.114,-81.88596 28.262,-19.57 51.341,12.96096 13.797,40.61896 -26.823,20.877 -57.63,34.743 -68.275,46.994 5.95,7.188 9.795,15.983 11.143,25.217 24.043,-0.794 55.354,-6.996 72.286,-23.649 4.81,-4.661 7.475,-10.933 9.582,-17.164 14.583,-3.956 27.036,9.048 22.055,22.671 14.519,0.768 29.674,9.337 34.508,23.625 3.308,7.107 -13.423,27.791 -34.141,27.425 3.08,9.087 -1.672,26.287 -22.17,23.634 -0.675,-0.895 -6.918,-39.309 -82.119,-41.023 -1.659,9.241 -5.982,17.69 -11.263,25.356 24.722,23.187 81.199,43.017 87.771,72.375 1.878,6.254 -0.821,18.377 -13.937,20.98 -29.867,5.112 -53.474,-59.23 -79.071,-87.921 -7.35,4.737 -10.606,8.538 -26.622,11.678 3.813,79.641 39.926,80.951 41.362,82.445 2.682,16.034 -9.377,27.019 -22.995,22.652 -0.935,12.943 -7.587,26.192 -19.309,32.476 -1.306,0.664 -0.815,102.732 -0.811,103.628 37.919,6.853 45.36,48.733 24.019,70.453 z m -347.559,-52.6 c -11.959,-7.952 -31.04,-4.612 -38.734,10.191 -15.597,32.421 28.551,56.248 47.536,27.309 7.647,-11.587 4.364,-29.098 -8.802,-37.5 z m 332.459,-286.158 c 28.939,-18.984 5.112,-63.132 -27.309,-47.535 -14.804,7.694 -18.143,26.775 -10.191,38.734 8.402,13.166 25.913,16.449 37.5,8.801 z"
   id="path16914"
   style="fill:#ffffff;fill-opacity:1" />
</svg>
