<?xml version="1.0" encoding="UTF-8" standalone="no"?>
<!-- Created with Inkscape (http://www.inkscape.org/) -->

<svg
   width="329.70856mm"
   height="7.4346862mm"
   viewBox="0 0 329.70856 7.4346862"
   version="1.1"
   id="svg827"
   sodipodi:docname="eroded-line.svg"
   inkscape:version="1.2.2 (b0a8486541, 2022-12-01)"
   xmlns:inkscape="http://www.inkscape.org/namespaces/inkscape"
   xmlns:sodipodi="http://sodipodi.sourceforge.net/DTD/sodipodi-0.dtd"
   xmlns="http://www.w3.org/2000/svg"
   xmlns:svg="http://www.w3.org/2000/svg">
  <sodipodi:namedview
     id="namedview829"
     pagecolor="#ffffff"
     bordercolor="#666666"
     borderopacity="1.0"
     inkscape:pageshadow="2"
     inkscape:pageopacity="0.0"
     inkscape:pagecheckerboard="0"
     inkscape:document-units="mm"
     showgrid="false"
     fit-margin-top="0"
     fit-margin-left="0"
     fit-margin-right="0"
     fit-margin-bottom="0"
     inkscape:zoom="1.0633188"
     inkscape:cx="165.04928"
     inkscape:cy="31.505133"
     inkscape:window-width="2560"
     inkscape:window-height="1369"
     inkscape:window-x="1080"
     inkscape:window-y="32"
     inkscape:window-maximized="1"
     inkscape:current-layer="layer1"
     inkscape:showpageshadow="2"
     inkscape:deskcolor="#d1d1d1" />
  <defs
     id="defs824" />
  <g
     inkscape:label="Layer 1"
     inkscape:groupmode="layer"
     id="layer1"
     transform="translate(-19.252588,-80.677821)">
    <path
       id="rect910-5"
       style="fill:#d4e0f8;fill-opacity:1;stroke-width:4.58012"
       d="m 19.252588,82.265322 v 5.798612 h 41.212986 c 0.553059,-0.17871 1.160254,-0.301684 1.872756,-0.380855 0.377721,-0.04197 0.973685,0.05788 1.335317,-0.05788 0.167706,-0.05368 0.59087,-0.518296 0.67903,-0.58291 0.204914,-0.150195 1.128072,-0.831253 1.51257,-0.808219 0.03977,0.0024 0.07392,0.01271 0.100769,0.03152 0.820232,0.5749 0.815485,1.512948 2.069123,1.639693 0.618332,0.06251 1.239894,0.108753 1.860868,0.158646 h 71.928423 c 0.53723,-0.257863 1.06898,-0.531035 1.62833,-0.732772 0.93536,-0.337355 1.09879,-0.277666 1.8588,-0.516247 0.19533,-0.06132 0.35915,-0.08982 0.50074,-0.09302 0.76458,-0.01726 0.88726,0.700076 1.89808,0.935344 0.45675,0.106308 0.92582,0.152541 1.39164,0.206706 0.80531,0.09364 1.62383,0.15426 2.4412,0.199987 h 30.6927 3.74189 13.42812 l -0.0181,0.04858 7.15667,-0.04858 h 16.9044 c 0.17231,-0.05568 0.39906,-0.07364 0.58342,-0.118855 l 6.96237,-0.04703 c 0.01,0.0011 0.0137,0.0062 0.0238,0.0072 0.61833,0.06251 1.23989,0.108753 1.86087,0.158646 h 33.00677 c 1.67343,-0.452174 3.39015,-0.750678 5.12062,-0.800984 0.62759,-0.02743 1.48264,-0.915254 1.75958,-0.02222 0.90762,0.35457 1.48798,-1.05934 2.35696,-0.416512 0.89196,-0.115025 1.57122,0.407801 2.35955,0.685746 0.90377,0.263245 1.53451,-0.615019 2.35282,-0.726571 0.3378,0.144292 0.43143,0.813412 0.73123,1.280542 h 24.2409 c 0.53721,-0.257863 1.06896,-0.531035 1.62832,-0.732772 0.21635,-0.07803 0.27924,-0.07522 0.42995,-0.119372 0.0148,0.0061 0.0298,0.01266 0.0444,0.0186 0.91115,0.378916 1.82036,-0.08353 2.74868,-0.130225 0.25106,0.205423 0.53319,0.44038 1.03457,0.557072 0.45675,0.106308 0.92583,0.152541 1.39163,0.206706 0.80531,0.09364 1.62383,0.154261 2.44121,0.199988 h 34.43459 V 82.265274 H 337.7277 c -0.15296,0.514733 -0.56928,2.003914 -0.77668,1.883089 -0.29525,-0.172009 -0.4721,-0.544256 -0.75499,-0.719853 -0.51311,-0.318474 -2.60009,-0.204056 -3.28457,-0.441833 -0.64087,-0.222652 -1.27746,-0.461767 -1.90529,-0.721403 h -49.50962 -15.51585 -3.622 c 0.0139,0.004 0.028,0.0078 0.0419,0.01189 0.80837,0.201745 -0.28998,1.097164 -0.75138,0.748274 -0.70449,0.331554 -1.49342,0.426932 -2.26446,0.432532 -1.08809,0.123456 -2.04118,-0.496368 -3.067,-0.724504 -0.84069,-0.222667 -1.62074,0.481458 -2.48253,0.182418 -1.20369,-0.417481 -2.38897,0.379736 -3.60599,0.294556 -0.62928,-0.185121 -1.23553,-0.337708 -1.89859,-0.127124 -0.85677,0.02102 -1.57232,-0.359651 -2.25464,-0.818038 h -23.2053 c -0.49764,0.755989 -1.41423,1.287941 -2.32286,0.96945 -0.86846,-0.427021 -1.73138,-0.07283 -2.61948,0.01395 -1.17179,0.03368 -2.35012,-0.08246 -3.51244,0.126608 -1.01035,0.125823 -2.03328,0.172905 -3.04684,0.06821 -0.40753,-0.0042 -1.30947,0.45366 -1.3193,0.35295 0.66155,-0.509068 -0.99653,0.177485 -0.26045,-0.408244 -0.1358,-0.380602 -1.15722,0.04734 -1.62213,0.08113 -0.61883,0.0962 -1.26629,0.402742 -1.88102,0.284737 -0.28933,-0.05642 -1.08286,0.197527 -0.39739,-0.116789 0.25444,-0.617652 -1.0677,0.201026 -1.06453,-0.215491 -0.78869,-0.170937 -2.16204,0.268517 -2.34922,-0.7984 -0.0749,-0.113565 -0.12887,-0.234007 -0.17001,-0.358118 h -0.74517 -15.582 -3.74189 -7.49153 -6.72156 -49.50964 c -0.42894,0.155697 -0.87519,0.262285 -1.30379,0.445968 -0.21187,0.0908 -0.41634,0.204501 -0.61857,0.32091 -0.39762,-0.155331 -0.79855,-0.297511 -1.18649,-0.331762 -0.82705,-0.07303 -1.46087,0.141958 -2.28513,0.201538 -0.68394,0.04944 -1.37793,-0.03425 -2.06292,0 -0.13419,0.0067 -0.26842,0.01533 -0.40257,0.02325 -0.0888,-0.07201 -0.58275,-0.666752 -0.88624,-0.617533 -0.48226,0.0782 -0.75185,0.362993 -0.98341,0.698148 -0.003,2e-6 -0.006,0 -0.009,0 -0.46125,0 -1.36998,-0.172878 -1.82883,0 -0.72214,0.27208 -1.25607,0.818005 -1.93735,1.059884 -0.73462,-0.481179 -1.42033,-1.174965 -2.01177,-1.800407 H 51.046514 c -0.01513,0.02538 -0.03655,0.04722 -0.05116,0.07286 -0.17358,0.36144 -0.632005,0.713135 -0.632005,0.713135 -1.348973,-0.188718 -2.174097,-0.145668 -3.526398,-0.299207 -0.01196,-0.0014 -0.863897,0.199426 -0.954464,0.204639 -1.2523,0.07208 -2.500792,-0.06345 -3.752226,-0.08268 -0.206378,-0.248065 -0.393132,-0.504357 -0.709001,-0.608748 h -0.635103 c -0.489985,0.151933 -0.87084,0.592094 -1.418518,0.543119 -0.345406,-0.03089 -0.580848,-0.266993 -0.791166,-0.543119 z" />
    <path
       id="rect910"
       style="fill:#3b2e1f;fill-opacity:1;stroke-width:17.3107"
       d="m 0,0 v 21.916016 h 155.76562 c 2.0903,-0.67544 4.38521,-1.140225 7.07813,-1.439454 1.42761,-0.158618 3.68007,0.218769 5.04687,-0.21875 0.63385,-0.202877 2.23321,-1.958915 2.56641,-2.203124 0.77448,-0.567667 4.26358,-3.141746 5.7168,-3.054688 0.15031,0.0091 0.27938,0.04805 0.38086,0.119141 3.10009,2.17285 3.08215,5.718229 7.82031,6.197265 2.337,0.236259 4.68621,0.411038 7.0332,0.59961 h 271.85547 c 2.03048,-0.974604 4.04022,-2.007065 6.1543,-2.769532 3.53522,-1.275046 4.15291,-1.049448 7.02539,-1.951172 0.73825,-0.231752 1.35743,-0.339468 1.89258,-0.351562 2.88975,-0.06524 3.3534,2.645954 7.17383,3.535156 1.72629,0.401794 3.49918,0.576532 5.25976,0.78125 3.04369,0.353915 6.13729,0.583033 9.22656,0.75586 H 616 h 14.14258 50.75195 l -0.0684,0.183593 27.04883,-0.183593 h 63.89062 c 0.65125,-0.210438 1.50827,-0.278313 2.20508,-0.449219 l 26.31446,-0.177735 c 0.0375,0.0043 0.0517,0.02349 0.0898,0.02734 2.337,0.236259 4.68619,0.411038 7.0332,0.59961 h 124.75 c 6.3248,-1.709004 12.81319,-2.837208 19.35352,-3.027344 2.37199,-0.103673 5.60369,-3.459227 6.65039,-0.08398 3.43037,1.340106 5.62387,-4.003805 8.9082,-1.574219 3.37119,-0.43474 5.93846,1.541296 8.91797,2.591797 3.41582,0.994941 5.79975,-2.32448 8.89258,-2.746094 1.27669,0.545353 1.63058,3.074311 2.76367,4.839844 h 91.61915 c 2.0304,-0.974604 4.0402,-2.007065 6.1543,-2.769532 0.8177,-0.294916 1.0554,-0.284302 1.625,-0.451172 0.056,0.02303 0.1127,0.04784 0.1679,0.07031 3.4437,1.432125 6.8801,-0.315717 10.3887,-0.492187 0.9489,0.7764 2.0152,1.664427 3.9102,2.105468 1.7263,0.401794 3.4992,0.576532 5.2597,0.78125 3.0437,0.353915 6.1373,0.583033 9.2266,0.75586 h 130.1465 V 0 h -42.4571 c -0.5781,1.9454476 -2.1516,7.5738489 -2.9355,7.1171875 -1.1159,-0.6501128 -1.7843,-2.0570294 -2.8535,-2.7207031 -1.9393,-1.2036813 -9.8271,-0.7712372 -12.4141,-1.6699219 C 1183.0601,1.8850431 1180.6541,0.98130134 1178.2812,0 h -187.123 -58.64258 -13.68945 c 0.0526,0.01528296 0.10564,0.02956131 0.15821,0.04492187 3.05527,0.76250077 -1.09597,4.14676433 -2.83985,2.82812503 -2.66264,1.2531175 -5.64443,1.6136002 -8.55859,1.6347656 -4.11247,0.4666054 -7.71468,-1.876035 -11.5918,-2.7382813 -3.17741,-0.84157967 -6.12562,1.8196831 -9.38281,0.6894532 -4.54938,-1.57788099 -9.02915,1.4352214 -13.62891,1.1132812 C 870.60404,2.8725957 868.31269,2.2958888 865.80664,3.0917969 862.56845,3.171253 859.86402,1.7324848 857.28516,0 h -87.70508 c -1.88084,2.8572826 -5.34512,4.8678069 -8.7793,3.6640625 -3.28237,-1.6139376 -6.54379,-0.275253 -9.90039,0.052734 -4.42881,0.1272945 -8.88237,-0.3116438 -13.27539,0.4785156 -3.81865,0.4755515 -7.68484,0.6534988 -11.51562,0.2578125 -1.54024,-0.015874 -4.94918,1.7146206 -4.98633,1.3339844 2.50038,-1.9240366 -3.76641,0.6708101 -0.98438,-1.5429688 -0.51326,-1.4384957 -4.37372,0.1789307 -6.13086,0.3066406 -2.33888,0.3635906 -4.78598,1.5221751 -7.10937,1.0761719 -1.09353,-0.2132409 -4.09271,0.7465598 -1.50196,-0.4414062 0.96167,-2.3344328 -4.03541,0.759784 -4.02343,-0.8144531 -2.98084,-0.6460612 -8.17146,1.014864 -8.87891,-3.0175782 C 692.21096,0.92429359 692.00705,0.46908053 691.85156,0 H 689.03516 630.14258 616 587.68555 562.28125 375.1582 c -1.62119,0.58846102 -3.30783,0.99131175 -4.92773,1.6855469 -0.80078,0.3431972 -1.57355,0.772918 -2.33789,1.2128906 -1.50281,-0.5870801 -3.01816,-1.1244512 -4.48438,-1.2539063 -3.12586,-0.2760109 -5.5214,0.5365345 -8.63672,0.7617188 -2.58497,0.1868598 -5.20793,-0.1294488 -7.79687,0 -0.50714,0.025356 -1.01447,0.057953 -1.52149,0.087891 -0.33571,-0.2721821 -2.20252,-2.52000971 -3.3496,-2.33398435 -1.82272,0.29555616 -2.84163,1.37194465 -3.7168,2.63867185 -0.0111,7.4e-6 -0.0221,0 -0.0332,0 -1.74331,0 -5.17788,-0.6533971 -6.91211,0 -2.72936,1.0283339 -4.74736,3.0916699 -7.32227,4.0058594 C 321.34262,4.9860569 318.75096,2.3638741 316.51562,0 h -196.3496 c -0.0572,0.0959244 -0.13814,0.17848362 -0.19336,0.27539062 -0.65605,1.36607508 -2.38868,2.69531248 -2.38868,2.69531248 -5.09848,-0.713263 -8.21706,-0.5505535 -13.32812,-1.1308593 -0.0452,-0.00529 -3.26512,0.7537353 -3.60742,0.7734374 C 95.915336,2.8857165 91.196627,2.3734617 86.466797,2.3007812 85.686786,1.3632111 84.980945,0.39455034 83.787109,0 h -2.40039 C 79.534807,0.57423488 78.095355,2.2378367 76.025391,2.0527344 74.719919,1.9359848 73.830059,1.0436258 73.035156,0 Z"
       transform="matrix(0.26458333,0,0,0.26458333,19.252588,80.677821)" />
  </g>
</svg>
