<?xml version="1.0" encoding="UTF-8" standalone="no"?>
<!-- Created with Inkscape (http://www.inkscape.org/) -->

<svg
   width="37.244263mm"
   height="37.041672mm"
   viewBox="0 0 37.244263 37.041672"
   version="1.1"
   id="svg5"
   sodipodi:docname="eroded-frame.svg"
   inkscape:version="1.2.2 (b0a8486541, 2022-12-01)"
   xmlns:inkscape="http://www.inkscape.org/namespaces/inkscape"
   xmlns:sodipodi="http://sodipodi.sourceforge.net/DTD/sodipodi-0.dtd"
   xmlns="http://www.w3.org/2000/svg"
   xmlns:svg="http://www.w3.org/2000/svg">
  <sodipodi:namedview
     id="namedview7"
     pagecolor="#ffffff"
     bordercolor="#666666"
     borderopacity="1.0"
     inkscape:pageshadow="2"
     inkscape:pageopacity="0.0"
     inkscape:pagecheckerboard="0"
     inkscape:document-units="mm"
     showgrid="false"
     fit-margin-top="0"
     fit-margin-left="0"
     fit-margin-right="0"
     fit-margin-bottom="0"
     inkscape:zoom="2.1266376"
     inkscape:cx="35.031827"
     inkscape:cy="166.69507"
     inkscape:window-width="2560"
     inkscape:window-height="1369"
     inkscape:window-x="1080"
     inkscape:window-y="32"
     inkscape:window-maximized="1"
     inkscape:current-layer="layer1"
     inkscape:showpageshadow="2"
     inkscape:deskcolor="#d1d1d1">
    <inkscape:grid
       type="xygrid"
       id="grid824"
       originx="-5.2916665"
       originy="-174.625" />
  </sodipodi:namedview>
  <defs
     id="defs2" />
  <g
     inkscape:label="Frame"
     inkscape:groupmode="layer"
     id="layer1"
     transform="translate(4e-7,15.875001)"
     style="display:inline">
    <path
       id="rect2593"
       style="fill:#3b2e1f;fill-opacity:1;stroke-width:19.8652"
       d="m 23.337891,20 c -0.394099,0.44234 -0.871899,0.82144 -1.103516,1.376953 -0.125887,0.587154 1.157208,0.776239 0.484375,1.335938 0.102252,0.03506 0.80622,0.214368 0.460938,0.638671 -0.409978,0.774048 -1.193656,1.213328 -2.066407,1.191407 -0.910617,0.310019 -0.305538,-0.819318 -0.578125,-1.154297 C 20.347558,23.414879 20.170772,23.464218 20,23.53125 v 8.960938 c 0.481018,0.739704 0.776653,1.456017 0,2.123046 v 1.648438 c 0.333955,0.496147 0.885172,0.913927 1.367188,1.115234 1.045817,1.135514 0.794343,2.958492 1.533203,4.337891 0.04531,1.706994 0.509527,3.369546 1.003906,5 0.348329,1.039532 1.050643,2.704681 -0.628906,2.882812 -0.971775,0.469508 -2.150604,-0.134059 -3.050782,0.34961 -0.07378,0.03323 -0.148345,0.0583 -0.224609,0.07813 v 19.666015 c 0.791195,0.546262 1.457908,1.241107 2.152344,1.935547 0.107258,0.107259 0.831435,0.73257 0.832031,0.863282 0.0012,0.273649 -2.214994,1.051454 -1.886719,1.439453 0.544023,0.642996 1.737702,0.679103 2.150391,1.486328 0.137555,0.269061 -0.07833,0.870947 -0.09766,1.158203 -0.01582,0.235165 0.190055,0.857599 0.09766,1.035156 -0.518352,0.996051 -2.202,1.416934 -3.121094,1.824219 -0.04248,0.01882 -0.08455,0.03764 -0.126953,0.05664 v 0.355468 c 0.09046,0.06414 0.196147,0.158795 0.357422,0.28711 1.683668,1.339569 0.885577,1.911941 0.9375,4.041015 0.01219,0.499901 0.409275,1.925527 0.310547,2.019531 -0.2762,0.263029 -1.210234,0.588368 -1.160157,1.072266 0.01384,0.133705 0.240882,0.123425 0.347657,0.205078 0.371248,0.283899 0.83999,0.668994 1.076172,1.078125 0.0753,0.130439 -0.03888,0.503398 -0.04687,0.625 -0.05105,0.776212 0.171583,2.737723 -0.583985,3.263672 C 20.910071,92.66792 20.444214,92.6378 20,92.517578 v 11.005862 c 1.196929,1.03544 2.356936,2.19101 2.994141,3.63086 0.103913,0.2348 -1.462591,2.26011 -1.609375,2.56836 -0.381289,0.80072 0.06065,2.03522 -0.601563,2.68164 -0.06144,0.06 -0.40721,0.29839 -0.783203,0.5332 v 14.36914 c 1.157984,0.76201 2.075594,1.72481 1.125,3.01758 0.847891,2.34668 0.403092,4.87254 0.806641,7.14453 -0.659524,0.67172 -1.329158,0.85007 -1.931641,0.70898 v 16.72461 c 0.826519,0.76622 1.823265,1.36208 2.806641,2.05469 0.797231,1.1546 1.797464,2.11049 2.822265,3.04297 h 11.429688 c 0.484272,-0.29826 1.066543,-0.57081 1.529297,-0.75977 2.520654,-0.37543 4.476562,-2.37 7.011718,-2.58203 1.734469,0.19503 4.662061,1.66886 2.884766,3.3418 h 25.345703 c 0.44293,-0.75144 0.945785,-1.58321 1.169922,-1.58789 0.215206,-0.004 0.361695,0.77608 0.443359,0.91601 0.101979,0.1749 2.689994,0.023 2.796875,0.0508 0.142036,0.17725 0.241654,0.39834 0.339844,0.62109 h 23.648442 c -0.012,-0.37001 -0.006,-0.75039 -0.0449,-1.11523 -0.18108,-1.71913 -0.12549,-0.73169 -0.39062,-2.43946 -0.0912,-0.58775 -0.15211,-1.38292 -0.22656,-1.98633 -0.0448,-0.36291 -0.0787,-0.73058 -0.16211,-1.08007 -0.0875,-0.36667 -0.30221,-0.57772 -0.44727,-0.88477 -0.0937,-0.19829 -0.1329,-0.43495 -0.2207,-0.63867 -0.49001,-1.13683 -1.101589,-2.068 -1.429689,-3.33789 -0.315969,-1.22287 -0.494149,-2.48998 -0.455079,-3.79297 0.03825,-1.27939 0.249657,-2.86296 -0.0332,-4.10742 -0.04894,-0.21519 -0.109629,-0.42059 -0.17972,-0.6172 H 78.519531 c -0.113441,0.0796 -0.231882,0.14528 -0.353515,0.18945 -0.175465,0.0637 -0.261071,-0.0693 -0.339844,-0.18945 h -0.404297 c -0.109854,0.134 -0.190949,0.28936 -0.287109,0.43359 -0.177332,0.26599 -0.346156,0.52862 -0.539063,0.78321 -0.07933,0.10469 -0.182558,0.19019 -0.234375,0.3125 -0.0017,0.004 0.0033,0.0793 0,0.0664 -0.162709,-0.62354 -0.01254,-0.22714 -0.285156,-1.04297 -0.02338,-0.07 -0.357553,0.27798 -0.384766,0.29688 -0.05178,0.0362 -0.01361,-0.0977 -0.02344,-0.0957 -0.08485,0.0215 -0.157816,0.0833 -0.244141,0.0977 -1.051642,0.17428 -2.14564,0.0425 -3.167969,-0.1914 -0.813142,-0.18605 -0.795295,0.75383 -0.970703,1.24414 -0.08428,0.23552 -0.313204,0.48043 -0.441406,0.68554 -0.314759,0.50358 -0.315547,0.71686 -0.369141,0.6836 -0.703615,-0.43768 -0.71429,-1.89705 -0.917968,-2.61328 -0.153071,-0.53826 -1.885207,0.0849 -2.283203,0.11132 -0.685761,0.0459 -1.431284,-0.33058 -2.082032,-0.77148 h -11.71289 c 1.934653,1.46156 -1.226783,3.01328 -2.851563,1.89062 -2.418861,-0.27176 -4.594446,-1.62534 -7.083984,-1.77539 0.02539,-0.0387 0.06264,-0.0772 0.113281,-0.11523 H 40 v -30.07617 c -0.05589,-0.0235 -0.111369,-0.0641 -0.166016,-0.125 -0.272779,-0.30396 -0.09848,-1.08277 -0.138672,-1.4043 -0.116867,-0.93504 -0.400911,-2.02258 -0.882812,-2.8418 -0.53694,-0.91278 -2.449473,-1.55071 -3.378906,-2.05664 -0.138761,-0.0755 -0.414949,-0.0309 -0.435547,-0.1875 -0.11237,-0.85502 0.86242,-1.65527 1.324219,-2.23828 0.405717,-0.5122 0.671484,-1.083079 1.199218,-1.496091 C 38.229875,99.019821 39.104286,98.721852 40,98.490234 V 81.345703 c -0.510375,-0.687161 -1.604669,-0.736261 -2.023438,-1.429687 -0.122684,-0.203175 0.03274,-0.825808 0.126954,-1.015625 0.239257,-0.482044 0.778372,-0.683721 1.082031,-1.128907 0.181323,-0.26584 0.13154,-0.552181 0.238281,-0.832031 C 39.543534,76.625612 39.757646,76.21744 40,75.841797 V 51.271484 c -0.655072,-0.609361 -1.599268,-1.064188 -2.121094,-1.78125 -0.423509,-0.581963 1.06316,-1.152445 0.867188,-1.75 -0.0098,-0.02993 -0.06234,0.0028 -0.09375,0 -0.522727,-0.04622 -1.05655,-0.03255 -1.56836,-0.148437 -0.219089,-0.04961 -0.391108,-0.221488 -0.582031,-0.339844 -0.04984,-0.03089 -0.179782,-0.0656 -0.138672,-0.107422 0.125739,-0.127914 0.322284,-0.155675 0.480469,-0.240234 C 37.898175,46.340669 38.91483,45.7227 40,45.259766 V 40 h 25.947266 c 0.259343,-0.288379 0.539867,-0.400318 0.830078,-0.396484 1.846021,-0.949213 3.638357,-2.19974 5.765625,-2.197266 0.0789,9.2e-5 0.158443,2.86e-4 0.238281,0.0039 2.055318,0.785453 4.543723,-0.60727 6.378906,0.970703 0.991378,1.38169 3.051978,1.453166 4.644532,1.236329 0.990937,-0.01965 1.491202,-2.446686 1.46875,-0.429688 -0.02848,0.275555 0.01413,0.552501 0.08984,0.8125 h 3.109375 c 1.085542,-0.818147 1.89948,-2.476736 3.03125,-1.691406 0.592037,1.872196 2.696467,1.154532 3.074219,-0.398438 1.381255,-0.690325 3.202155,0.358011 3.779297,1.677735 0.04522,0.144458 0.07294,0.28082 0.08789,0.412109 h 26.503911 c 0.10521,-1.865487 -0.22389,-3.793736 0.041,-5.648438 0.14733,-1.03139 0.51451,-2.16758 0.89258,-3.142578 0.96245,-2.482091 1.90797,-4.990224 2.45508,-7.589843 0.095,-0.451352 -0.04,-0.965927 0,-1.425782 0.0636,-0.73213 0.11505,-1.46252 0.16406,-2.193359 h -16.77539 c -0.0813,0.214617 -0.1948,0.444661 -0.3457,0.693359 -1.92896,1.881464 -5.11165,-0.05016 -7.55664,1.351563 -3.2997,1.862613 -6.651408,-0.226078 -9.972661,0.298828 -4.045574,1.631538 -8.30831,0.497286 -12.458984,1.056641 -2.939047,1.648132 -5.243085,-1.996978 -8.121094,-1.789063 -3.107327,2.049603 -5.998091,-2.435613 -9.154296,-0.441406 0.341134,-0.488138 0.720044,-0.867639 1.125,-1.169922 z M 66.777344,39.603516 C 66.503504,39.744322 66.228621,39.877575 65.951172,40 h 1.851562 c -0.343598,-0.226306 -0.690976,-0.392068 -1.02539,-0.396484 z M 132.11914,20 c 0.16282,0.408299 0.28625,0.81817 0.33008,1.216797 0.0796,0.724297 0.10474,1.447369 0.27539,2.164062 0.61943,2.601578 2.02912,4.990346 2.62891,7.587891 0.43094,1.866346 0.18996,3.866198 0.34375,5.763672 0.0806,0.995117 0.48185,2.127758 0.79687,3.267578 H 140 v 28.865234 c 0.19333,-0.0381 0.39454,-0.06793 0.60547,-0.08789 2.47583,0.809917 3.35995,4.430491 3.19531,6.689453 -0.19121,2.190546 0.68177,4.390476 -0.0312,6.564453 -0.27218,2.314335 -1.52998,4.607703 -3.76953,5.265625 v 9.035156 c 1.0008,0.951154 1.18002,2.175697 0.80469,3.873049 1.22742,0.69526 0.37225,1.74524 -0.80469,2.23242 v 21.82812 c 1.01426,0.36384 1.56005,0.82351 0.625,2.63868 0.76092,0.97953 2.1004,3.35413 -0.26562,3.35351 -0.1136,-0.13006 -0.23794,-0.27388 -0.35938,-0.41211 V 140 h -6.51367 c -0.88811,1.2076 -1.74792,3.21 -3.41992,2.89844 -0.6045,-0.53381 -2.48343,-1.92969 -3.1836,-2.89844 H 108.3731 c 0.003,0.73628 -0.23456,1.57569 -0.30274,2.19141 -0.21134,1.90864 -0.47157,2.39225 -1.00586,4.0625 -0.35724,1.11673 -0.47177,2.35269 -0.8125,3.47461 -0.25795,0.8494 -0.6073,1.66423 -0.91015,2.48242 -0.003,0.009 -0.5632,1.47669 -0.58399,1.58203 -0.0484,0.24719 -0.0215,0.50994 -0.0332,0.76562 -0.01,0.21075 -0.0222,0.42218 -0.0332,0.63282 -0.0386,0.75106 -0.0987,1.50499 -0.12891,2.25586 -0.0181,0.45364 -0.0521,1.54977 -0.20508,2.55273 h 22.98633 c 0.16838,-0.83165 1.24199,-2.20217 2.04492,-2.51562 1.97829,0.56432 3.79413,1.3083 5.75391,1.76953 -0.0358,0.28008 -0.14354,0.52934 -0.30469,0.74609 h 17.75781 c 0.42429,-1.46877 2.25415,-2.90533 3.91797,-1.89258 1.37493,0.10418 2.45506,-0.73414 3.48633,-1.73047 v -15.44336 c -0.1868,-0.11027 -0.39085,-0.2901 -0.61328,-0.55468 -2.68171,-0.45307 -2.31522,-2.57585 -1.33789,-4.47266 -1.62948,-2.14681 0.0638,-3.40994 1.95117,-4.21484 v -19.08594 c -1.33444,-0.44842 -2.4893,-1.32824 -2.66602,-2.36914 2.56562,-2.13307 -1.64866,-2.82077 -0.79882,-4.79492 0.9542,-0.79304 2.17507,-1.17155 3.46484,-1.46094 v -9.500001 c -0.27824,-1.127628 -0.69154,-2.210683 -1.80469,-2.84961 -2.80443,-2.334537 -0.25251,-5.630149 -0.80664,-8.498047 -0.006,-1.977582 1.03179,-4.153073 2.61133,-5.492187 V 53.972656 c -0.2092,-0.272295 -0.33472,-0.554066 -0.60547,-0.828125 -0.19399,-0.196368 -0.89711,-0.546875 -0.62109,-0.546875 0.11161,0 0.34631,-0.04334 0.23047,-0.248047 -0.54211,-0.958067 -1.53559,-1.750027 -2.16016,-2.6875 -1.36391,-2.047205 -2.68249,-4.094598 -3.94141,-6.214843 -1.15037,-1.937446 -2.71262,-3.556648 -3.8789,-5.472657 -0.46713,-0.767399 -0.79453,-1.613818 -1.17774,-2.423828 -0.54376,-1.149384 -1.09247,-2.290596 -1.73047,-3.392578 -0.44479,-0.768268 -1.00366,-1.480597 -1.38476,-2.285156 -1.13092,-2.387494 -1.82931,-4.961882 -2.56445,-7.482422 C 141.9277,21.573531 141.53187,20.797606 141.26562,20 Z m 16.38672,0 c 0.76809,0.755466 1.43548,1.661338 2.10156,2.375 0.91368,0.978962 2.00347,1.789304 2.98047,2.701172 2.07709,1.938618 4.02712,4.017375 5.95703,6.095703 0.14706,0.158372 0.30218,0.308678 0.45508,0.460937 v -9.078124 c -0.91,-0.523803 -1.94203,-1.191711 -2.57617,-1.794922 C 157.08971,20.44195 156.83981,20.201913 156.63867,20 Z m -17.51563,8.4375 c -0.073,-0.07861 -0.59469,1.328128 -0.61718,1.396484 -0.44592,1.355437 -1.13717,2.664725 -1.32813,4.095704 -0.12812,0.959987 -0.0695,1.940757 -0.13867,2.908203 -0.0615,0.860299 -0.14338,1.767634 -0.0684,2.630859 0.0152,0.174709 0.0395,0.353812 0.0606,0.53125 h 4.66797 c -0.0752,-0.265973 -0.14771,-0.532202 -0.21485,-0.800781 -0.29284,-1.17134 -0.14148,-2.363472 -0.48437,-3.529297 -0.32667,-1.110622 -1.13953,-1.938306 -1.39453,-3.115234 -0.1273,-0.587418 -0.28144,-3.900602 -0.48243,-4.117188 z m 19.22657,1.386719 c -0.12023,0.110475 0,0.326947 0,0.490234 0,1.867011 0.98177,3.312986 1.93164,4.808594 1.99025,3.133704 2.82835,6.920333 4.76562,10.074219 0.87632,1.426665 1.83792,2.718309 3.08594,3.847656 V 38.546875 c -0.33691,-0.262219 -0.66991,-0.531889 -0.99219,-0.818359 -1.91784,-1.704745 -3.88977,-3.329557 -5.70117,-5.111328 -0.16596,-0.163276 -3.04446,-2.834665 -3.08984,-2.792969 z M 20,40.974609 v 5.449219 c 0.16703,-0.07409 0.317838,-0.164863 0.439453,-0.285156 1.127187,-0.455933 1.27033,-1.929375 0.953125,-2.939453 C 21.048431,42.391792 20.519695,41.685053 20,40.974609 Z M 100.84375,140 c 0.17935,0.63094 0.38307,1.55462 0.41602,1.99609 0.0711,0.9527 -0.18184,2.0245 0,2.96485 0.24736,1.27935 0.85637,2.34582 1.36914,3.35937 0.1514,0.29927 0.18139,0.67166 0.29297,0.9961 0.12971,0.37746 0.52511,0.2194 0.77539,0.13867 0.13001,-0.0419 0.20076,-0.62405 0.24218,-0.77735 0.16967,-0.62861 0.32003,-1.2506 0.45703,-1.89257 0.083,-0.38893 0.072,-0.82591 0.14649,-1.22071 0.0364,-0.19304 0.10415,-0.36989 0.12305,-0.57422 0.0416,-0.4545 0.0544,-0.89358 0.16601,-1.31835 0.28674,-1.09134 0.86149,-2.06346 1.17383,-3.14649 0.0496,-0.172 0.0915,-0.34799 0.13086,-0.52539 z m 59.91797,1.60547 0.004,0.0371 z M 20,157.30664 V 160 h 2.820312 C 22.133171,158.96311 21.002899,158.14631 20,157.30664 Z"
       transform="matrix(0.26458333,0,0,0.26458333,-5.291667,-21.166666)" />
  </g>
</svg>
