<?xml version="1.0" encoding="UTF-8" standalone="no"?>
<!-- Created with Inkscape (http://www.inkscape.org/) -->

<svg
   width="20mm"
   height="20mm"
   viewBox="0 0 20 20"
   version="1.1"
   id="svg1"
   inkscape:version="1.4.2 (ebf0e940d0, 2025-05-08)"
   sodipodi:docname="eroded-frame-tight.svg"
   xmlns:inkscape="http://www.inkscape.org/namespaces/inkscape"
   xmlns:sodipodi="http://sodipodi.sourceforge.net/DTD/sodipodi-0.dtd"
   xmlns="http://www.w3.org/2000/svg"
   xmlns:svg="http://www.w3.org/2000/svg">
  <sodipodi:namedview
     id="namedview1"
     pagecolor="#ffffff"
     bordercolor="#000000"
     borderopacity="0.25"
     inkscape:showpageshadow="2"
     inkscape:pageopacity="0.0"
     inkscape:pagecheckerboard="0"
     inkscape:deskcolor="#d1d1d1"
     inkscape:document-units="mm"
     inkscape:zoom="3.8350027"
     inkscape:cx="42.242473"
     inkscape:cy="91.134224"
     inkscape:window-width="1920"
     inkscape:window-height="1011"
     inkscape:window-x="0"
     inkscape:window-y="0"
     inkscape:window-maximized="1"
     inkscape:current-layer="layer1" />
  <defs
     id="defs1" />
  <g
     inkscape:label="Layer 1"
     inkscape:groupmode="layer"
     id="layer1">
    <path
       id="rect1"
       style="opacity:1;fill:#3b2e1f;fill-opacity:1;stroke-width:0.264583"
       d="m 0,0 c 0,1.7018772 0,3.4037543 0,5.1056315 1.1060267,0.2959352 0.41047493,1.6783908 1.2696039,2.2826212 0.8156793,0.7033762 1.9008216,1.4432387 1.9643945,2.5922256 0.4415944,0.8487187 1.2856074,1.3554997 1.9340338,1.9972547 0.448089,0.742675 0.979533,1.439394 1.523549,2.104111 C 6.2610213,14.025296 5.887219,13.7098 6.2781697,14.419243 6.6240814,15.293175 7.4022169,15.936519 7.7264377,16.808377 6.9263973,17.443985 6.0164916,16.055791 5.3123372,15.66106 4.5669012,14.558557 4.9358995,12.970141 3.9328573,11.992306 3.4432728,11.054913 2.7214371,10.276764 2.0696411,9.4516195 2.2295838,9.2862322 1.2996635,8.8212527 1.6572629,8.9276201 1.0801867,8.5145609 0.45519285,8.1459346 0,7.5814494 0,11.720904 0,15.860358 0,19.999813 c 0.68798557,0 1.3759711,0 2.0639567,0 -0.1563691,-1.085489 -0.6023064,-2.150691 -0.4769782,-3.278834 -0.1669227,-0.511361 0.4726652,0.0194 0.6901339,-0.09677 0.7813087,0.08831 0.8806706,1.171552 1.2528256,1.787628 0.1381552,0.194169 0.369716,0.694557 0.5447441,0.74724 0.2834032,0.322264 0.3469151,0.999092 0.8993045,0.840776 2.0399683,0 4.0799365,0 6.1199044,0 -0.547496,-0.966599 -0.37887,-2.125313 -0.675927,-3.165698 -0.01453,-0.5776 -0.373778,-1.093537 0.502295,-0.978753 0.699676,0.469509 1.21506,1.232866 1.774052,1.875338 0.636687,0.613566 0.860231,1.565719 1.430403,2.269116 1.958365,0 3.91673,0 5.875094,0 0,-0.359151 0,-0.718303 0,-1.077454 -0.351483,-0.694905 -1.305706,-0.305277 -1.717175,-0.501679 -1.016928,-0.647625 -1.309228,-1.813251 -2.126448,-2.628038 -0.357694,0.02662 -1.286873,-0.78195 -0.787589,-0.652904 -0.02747,-0.671313 -0.527242,-1.338704 -0.974935,-1.845066 -0.7302,-0.806308 -1.193569,-1.761713 -2.31605,-2.101684 C 11.126313,10.65601 10.360685,9.8521818 9.3861988,9.482909 8.8062495,8.6928373 8.5975238,7.6960731 7.7559193,7.0741758 7.2090416,6.1878434 6.2063702,5.8334533 5.5215949,5.081363 4.7397959,4.4291036 5.9491076,3.6514552 5.1941637,2.9423545 4.9171752,1.9429274 3.6448882,2.440439 3.1424711,1.7382853 2.9639986,1.1666442 3.6610094,-0.21636856 2.6746729,0 1.7831152,0 0.89155762,0 0,0 Z m 5.4322266,0 c 0.6070464,1.2814075 1.2515612,2.674312 2.5369189,3.405337 0.6973364,0.5712148 1.3930602,1.1378686 2.1584705,1.6224936 0.832098,0.5881962 1.270784,1.5451364 1.946066,2.2854181 0.308779,1.0766614 1.498185,1.2343743 1.830068,2.2752569 0.268575,0.4188244 0.840337,1.7717344 0.879346,1.6857514 -0.174514,-0.438993 0.409413,0.6686 0.457562,0.733165 0.618327,1.185338 1.250697,2.428442 2.305584,3.287031 0.970214,0.225751 1.822031,1.101179 2.453572,1.587997 0,-5.627483 0,-11.2549667 0,-16.88245 -2.301152,0 -4.602303,0 -6.903455,0 0.938254,0.55930779 1.837385,1.2014122 2.846603,1.6390535 0.674542,0.4321775 1.629708,0.9010857 1.670344,1.8072078 0.01447,0.5572155 -0.537433,0.8713534 -0.975098,0.9827277 C 15.464679,3.7465292 14.220825,3.065127 13.422744,1.9286282 12.693078,1.199996 11.409043,0.90776514 10.923881,0 9.0933295,0 7.2627781,0 5.4322266,0 Z" />
  </g>
</svg>
