<?xml version="1.0" encoding="UTF-8" standalone="no"?>
<!-- Created with Inkscape (http://www.inkscape.org/) -->

<svg
   width="56.962658mm"
   height="54.855377mm"
   viewBox="0 0 56.962658 54.855377"
   version="1.1"
   id="svg1"
   xmlns="http://www.w3.org/2000/svg"
   xmlns:svg="http://www.w3.org/2000/svg">
  <defs
     id="defs1">
    <filter
       style="color-interpolation-filters:sRGB"
       id="filter14"
       x="-0.011538632"
       y="-0.011992523"
       width="1.0230773"
       height="1.023985">
      <feGaussianBlur
         stdDeviation="0.26768553"
         id="feGaussianBlur14" />
    </filter>
  </defs>
  <g
     id="layer1"
     transform="translate(-70.293278,-71.724088)">
    <path
       id="path1"
       style="fill:#3b2e1f;fill-opacity:1;stroke:none;stroke-width:1"
       d="m 99.179476,72.366642 c -0.193838,0.105854 -0.436984,0.177987 -0.580843,0.393775 -0.08546,0.128193 -0.0689,0.344511 -0.206706,0.413411 -0.0915,0.04575 -0.143111,0.02212 -0.172082,-0.03152 l -1.378211,7.16287 0.310059,0.310058 c 0.206706,0.206706 0.489386,0.358654 0.620117,0.620118 0.1646,0.329197 -0.117391,0.88806 0,1.240234 0.238879,0.716632 0.238879,0.937014 0,1.653646 -0.03897,0.116909 0.08302,0.537096 0,0.620117 -0.166881,0.166881 -0.941502,-0.02265 -1.033529,-0.206706 -0.03081,-0.06163 0.04872,-0.157985 0,-0.206706 -0.09744,-0.09744 -0.290155,0.06163 -0.413411,0 -0.07226,-0.03613 -0.155937,-0.07873 -0.235645,-0.118855 l -0.972033,5.051371 -11.472685,-7.770068 c -0.442457,0.279922 -0.899233,0.532298 -1.375627,0.770495 -0.136604,0.0683 -0.267606,0.156021 -0.395324,0.254248 l 2.696993,3.982186 c 0.318492,0.08249 0.685813,0.197988 0.798917,0.311092 0.04872,0.04872 -0.05733,0.168487 0,0.206706 0.44862,0.29908 1.00784,0.400568 1.44694,0.620117 0.46323,0.231616 1.17153,-0.03435 1.653646,0.206706 0.860261,0.43013 -0.220975,-0.01426 0.206706,0.413411 0.04872,0.04872 0.157986,-0.04872 0.206706,0 0.09318,0.09318 -0.333032,0.45936 -0.413412,0.620118 -0.153286,0.30657 0.0013,1.032282 -0.206706,1.240234 -0.06176,0.06176 -0.800211,-0.0066 -0.826823,0 -0.138754,0.03469 -0.250397,0.06212 -0.35605,0.08733 l 2.864941,4.229716 -9.75341,1.876371 c 0.0027,0.0025 0.0074,0.0054 0.0098,0.0078 0.03193,0.03193 0.05267,0.08772 0.06615,0.158646 0.04963,0.01216 0.0976,0.02658 0.14056,0.04806 0.248047,0.124024 0.37207,0.496094 0.620117,0.620117 0.28512,0.142566 0.184893,-0.250333 0.413411,0.206705 0.192926,0.38585 -0.192926,1.061091 0,1.446941 0.142431,0.284861 0.48478,0.278074 0.620117,0.413411 0.210927,0.210926 -0.23246,0.60638 -0.608231,0.902793 l 8.491471,1.63349 -2.29185,3.38377 c -0.0047,0.24838 -0.01033,0.5063 -0.01033,0.69453 0,0.19131 0.13203,1.31491 0,1.44694 -0.09744,0.0974 -0.315968,-0.0974 -0.413411,0 -0.09555,0.0956 0.0624,0.49532 0,0.62012 -0.309163,0.61833 -0.07127,-0.0499 -0.413412,0.20671 -0.519419,0.38957 -0.639209,1.03989 -1.240234,1.24023 -0.292398,0.0975 -0.545032,0.0749 -0.753443,-0.0294 l -3.415812,5.0431 c 0.624904,-0.0878 1.192107,-0.13598 1.275375,-0.0527 0.08662,0.0866 0.144065,0.49485 0.206705,0.62012 0.0349,0.0698 0.07597,0.13562 0.119373,0.19998 l 12.108822,-8.20105 1.311031,6.81406 c 0.108765,0.0446 0.228352,0.0718 0.310058,0.15348 0.04872,0.0487 -0.04872,0.15798 0,0.2067 0.108945,0.10895 0.30447,0.0978 0.413412,0.20671 0.0689,0.0689 0.137802,0.55122 0.206705,0.62012 0.04872,0.0487 0.206706,-0.0689 0.206706,0 0,0.19489 -0.326254,0.2391 -0.413411,0.41341 -0.223728,0.44745 -0.03928,1.21298 -0.05013,1.90066 l 1.672766,8.69456 2.975531,-15.46728 c -0.0135,-0.0376 -0.03,-0.0682 -0.0506,-0.0889 -0.0487,-0.0487 -0.15801,0.0487 -0.20671,0 -0.0487,-0.0487 0.0487,-0.15801 0,-0.20671 -0.0487,-0.0487 -0.1451,0.0308 -0.2067,0 -0.13036,-0.0652 -0.97423,-0.70819 -1.03353,-0.82682 -0.0308,-0.0616 0.0487,-0.15801 0,-0.20671 -0.0487,-0.0487 -0.15801,0.0487 -0.20671,0 -0.04871,-0.0487 0.0487,-0.158 0,-0.2067 -0.04871,-0.0487 -0.157987,0.0487 -0.206707,0 -0.05472,-0.0547 0,-0.53502 0,-0.62012 0,-0.20671 -0.146164,-0.47395 0,-0.62012 0.263097,-0.26308 0.628427,0.62843 0.826827,0.82683 0.12235,0.12235 0.85155,0.56311 1.30018,0.82785 l 0.4656,-2.42104 13.94386,9.44439 c 9e-4,-0.3573 0.142,-0.81964 0.35243,-1.14567 l -9.12399,-13.47101 19.00969,-3.657145 -8.51162,-1.637626 c -0.23269,0.121455 -0.43954,0.231284 -0.48628,0.278019 -0.0487,0.04872 0.0616,0.175896 0,0.206706 -0.33166,0.165827 -1.72769,0.08484 -2.06706,0 -0.0716,-0.01791 -0.31981,-0.7227 -0.50953,-1.073836 l -7.4352,-1.430404 5.8198,-8.592757 c -0.15749,-0.122609 -0.29701,-0.232803 -0.35554,-0.271818 -0.10718,-0.07145 -0.53681,-0.123366 -0.62011,-0.206706 -0.0487,-0.04872 0.0487,-0.157986 0,-0.206706 -0.10895,-0.108945 -0.30446,-0.09776 -0.41341,-0.206705 -0.0487,-0.04872 0.0487,-0.157986 0,-0.206706 -0.0487,-0.04872 -0.15801,0.04872 -0.20671,0 -0.0487,-0.04872 0.0487,-0.157986 0,-0.206706 -0.0487,-0.04872 -0.15801,0.04872 -0.20671,0 -0.0487,-0.04872 0.0573,-0.168486 0,-0.206706 -0.18129,-0.120864 -0.43882,-0.08584 -0.62011,-0.206705 -0.15465,-0.103099 -0.26519,-0.260105 -0.38758,-0.40256 L 102.4315,89.26854 Z M 80.267969,96.483516 c -0.157788,-0.03865 -0.34074,-0.04318 -0.502295,-0.08423 l -8.829952,1.698604 9.263,1.781804 c 0.08041,-0.413681 0.179822,-0.777699 0.209807,-0.867648 0.07807,-0.234212 -0.109519,-0.607782 0,-0.826823 0.05053,-0.101055 0.400724,-0.426098 0.206705,-0.620117 -0.04872,-0.04872 -0.157985,0.04872 -0.206705,0 -0.159326,-0.15933 -0.08107,-0.768367 -0.14056,-1.081588 z m -1.17874,-18.070731 2.04432,3.017903 c 0.389224,-0.198298 0.865729,-0.262115 1.135331,-0.608748 0.04314,-0.05546 0.08397,-0.113174 0.12454,-0.171049 z m 39.370211,0 -5.9552,4.033345 c 0.10489,0.292693 0.19808,0.591263 0.35709,0.856279 0.18036,0.300601 0.66714,0.507457 0.82682,0.826823 0.0308,0.06163 -0.0487,0.157985 0,0.206705 0.42771,0.427684 -0.0167,-0.653552 0.41341,0.206706 0.0357,0.07137 0.0431,0.156648 0.0377,0.248564 z M 96.944987,93.224284 c 0,0.420259 0.02156,3.285732 0,3.307292 -0.196702,0.196705 -2.051773,0.604832 -2.273763,0.826822 -0.04872,0.04872 0.04872,0.157986 0,0.206706 -0.03221,0.03221 -0.794613,0.03221 -0.826823,0 -0.0689,-0.0689 0.137806,-0.137806 0.206706,-0.206706 0.09744,-0.09744 -0.09744,-0.315971 0,-0.413411 0.0689,-0.0689 0.551217,-0.137806 0.620117,-0.206706 0.126994,-0.126995 0.136559,-0.48169 0.413411,-0.620117 0.123256,-0.06163 0.315972,0.09744 0.413412,0 0.337111,-0.337111 0.106195,-1.192821 0.413411,-1.653646 0.298508,-0.44776 0.68902,-0.826823 1.033529,-1.240234 z" />
    <path
       id="path1-8"
       style="mix-blend-mode:normal;fill:#3b2e1f;fill-opacity:1;stroke:none;stroke-width:1;filter:url(#filter14)"
       d="m 99.179477,72.366533 c -0.193838,0.105854 -0.436984,0.177987 -0.580843,0.393775 -0.08546,0.128193 -0.0689,0.344511 -0.206706,0.413411 -0.0915,0.04575 -0.143111,0.02212 -0.172082,-0.03152 l -1.378211,7.16287 0.310059,0.310058 c 0.206706,0.206706 0.489386,0.358654 0.620117,0.620118 0.1646,0.329197 -0.117391,0.88806 0,1.240234 0.238879,0.716632 0.238879,0.937014 0,1.653646 -0.03897,0.116909 0.08302,0.537096 0,0.620117 -0.166881,0.166881 -0.941502,-0.02265 -1.033529,-0.206706 -0.03081,-0.06163 0.04872,-0.157985 0,-0.206706 -0.09744,-0.09744 -0.290155,0.06163 -0.413411,0 -0.07226,-0.03613 -0.155937,-0.07873 -0.235645,-0.118855 l -0.972033,5.051371 -11.472685,-7.770068 c -0.442457,0.279922 -0.899233,0.532298 -1.375627,0.770495 -0.136604,0.0683 -0.267606,0.156021 -0.395324,0.254248 l 2.696993,3.982186 c 0.318492,0.08249 0.685813,0.197988 0.798917,0.311092 0.04872,0.04872 -0.05733,0.168487 0,0.206706 0.44862,0.29908 1.00784,0.400568 1.44694,0.620117 0.46323,0.231616 1.17153,-0.03435 1.653646,0.206706 0.860261,0.43013 -0.220975,-0.01426 0.206706,0.413411 0.04872,0.04872 0.157986,-0.04872 0.206706,0 0.09318,0.09318 -0.333032,0.45936 -0.413412,0.620118 -0.153286,0.30657 0.0013,1.032282 -0.206706,1.240234 -0.06176,0.06176 -0.800211,-0.0066 -0.826823,0 -0.138754,0.03469 -0.250397,0.06212 -0.35605,0.08733 l 2.864941,4.229716 -9.75341,1.876371 c 0.0027,0.0025 0.0074,0.0054 0.0098,0.0078 0.03193,0.03193 0.05267,0.08772 0.06615,0.158646 0.04963,0.01216 0.0976,0.02658 0.14056,0.04806 0.248047,0.124024 0.37207,0.496094 0.620117,0.620117 0.28512,0.142566 0.184893,-0.250333 0.413411,0.206705 0.192926,0.38585 -0.192926,1.061091 0,1.446941 0.142431,0.284861 0.48478,0.278074 0.620117,0.413411 0.210927,0.210926 -0.23246,0.60638 -0.608231,0.902792 l 8.491471,1.63349 -2.29185,3.38377 c -0.0047,0.24838 -0.01033,0.5063 -0.01033,0.69453 0,0.19131 0.13203,1.31491 0,1.44694 -0.09744,0.0974 -0.315968,-0.0974 -0.413411,0 -0.09555,0.0956 0.0624,0.49532 0,0.62012 -0.309163,0.61833 -0.07127,-0.0499 -0.413412,0.20671 -0.519419,0.38957 -0.639209,1.03989 -1.240234,1.24023 -0.292398,0.0975 -0.545032,0.0749 -0.753443,-0.0294 l -3.415812,5.0431 c 0.624904,-0.0878 1.192107,-0.13598 1.275375,-0.0527 0.08662,0.0866 0.144065,0.49485 0.206705,0.62012 0.0349,0.0698 0.07597,0.13562 0.119373,0.19998 l 12.108822,-8.20105 1.311031,6.81406 c 0.108765,0.0446 0.228352,0.0718 0.310058,0.15348 0.04872,0.0487 -0.04872,0.15798 0,0.2067 0.108945,0.10895 0.30447,0.0978 0.413412,0.20671 0.0689,0.0689 0.137802,0.55122 0.206705,0.62012 0.04872,0.0487 0.206706,-0.0689 0.206706,0 0,0.19489 -0.326254,0.2391 -0.413411,0.41341 -0.223728,0.44745 -0.03928,1.21298 -0.05013,1.90066 l 1.672766,8.69456 2.97553,-15.46728 c -0.0135,-0.0376 -0.03,-0.0682 -0.0506,-0.0889 -0.0487,-0.0487 -0.15801,0.0487 -0.20671,0 -0.0487,-0.0487 0.0487,-0.15801 0,-0.20671 -0.0487,-0.0487 -0.1451,0.0308 -0.2067,0 -0.13036,-0.0652 -0.97423,-0.70819 -1.03353,-0.82682 -0.0308,-0.0616 0.0487,-0.15801 0,-0.20671 -0.0487,-0.0487 -0.15801,0.0487 -0.20671,0 -0.04871,-0.0487 0.0487,-0.158 0,-0.2067 -0.04871,-0.0487 -0.157986,0.0487 -0.206706,0 -0.05472,-0.0547 0,-0.53502 0,-0.62012 0,-0.20671 -0.146164,-0.47395 0,-0.62012 0.263096,-0.26308 0.628426,0.62843 0.826826,0.82683 0.12235,0.12235 0.85155,0.56311 1.30018,0.82785 l 0.4656,-2.42104 13.94386,9.44439 c 9e-4,-0.3573 0.142,-0.81964 0.35243,-1.14567 l -9.12399,-13.47101 19.00969,-3.657144 -8.51162,-1.637626 c -0.23269,0.121455 -0.43954,0.231284 -0.48628,0.278019 -0.0487,0.04872 0.0616,0.175896 0,0.206706 -0.33166,0.165827 -1.72769,0.08484 -2.06706,0 -0.0716,-0.01791 -0.31981,-0.7227 -0.50953,-1.073836 l -7.4352,-1.430404 5.8198,-8.592757 c -0.15749,-0.122609 -0.29701,-0.232803 -0.35554,-0.271818 -0.10718,-0.07145 -0.53681,-0.123366 -0.62011,-0.206706 -0.0487,-0.04872 0.0487,-0.157986 0,-0.206706 -0.10895,-0.108945 -0.30446,-0.09776 -0.41341,-0.206705 -0.0487,-0.04872 0.0487,-0.157986 0,-0.206706 -0.0487,-0.04872 -0.15801,0.04872 -0.20671,0 -0.0487,-0.04872 0.0487,-0.157986 0,-0.206706 -0.0487,-0.04872 -0.15801,0.04872 -0.20671,0 -0.0487,-0.04872 0.0573,-0.168486 0,-0.206706 -0.18129,-0.120864 -0.43882,-0.08584 -0.62011,-0.206705 -0.15465,-0.103099 -0.26519,-0.260105 -0.38758,-0.40256 l -8.18193,5.541781 z M 80.26797,96.483407 c -0.157788,-0.03865 -0.34074,-0.04318 -0.502295,-0.08423 l -8.829952,1.698604 9.263,1.781804 c 0.08041,-0.413681 0.179822,-0.777699 0.209807,-0.867648 0.07807,-0.234212 -0.109519,-0.607782 0,-0.826823 0.05053,-0.101055 0.400724,-0.426098 0.206705,-0.620117 -0.04872,-0.04872 -0.157985,0.04872 -0.206705,0 -0.159326,-0.15933 -0.08107,-0.768367 -0.14056,-1.081588 z m -1.17874,-18.070731 2.04432,3.017903 c 0.389224,-0.198298 0.865729,-0.262115 1.135331,-0.608748 0.04314,-0.05546 0.08397,-0.113174 0.12454,-0.171049 z m 39.37021,0 -5.9552,4.033345 c 0.10489,0.292693 0.19808,0.591263 0.35709,0.856279 0.18036,0.300601 0.66714,0.507457 0.82682,0.826823 0.0308,0.06163 -0.0487,0.157985 0,0.206705 0.42771,0.427684 -0.0167,-0.653552 0.41341,0.206706 0.0357,0.07137 0.0431,0.156648 0.0377,0.248564 z M 96.944988,93.224175 c 0,0.420259 0.02156,3.285732 0,3.307292 -0.196702,0.196705 -2.051773,0.604832 -2.273763,0.826822 -0.04872,0.04872 0.04872,0.157986 0,0.206706 -0.03221,0.03221 -0.794613,0.03221 -0.826823,0 -0.0689,-0.0689 0.137806,-0.137806 0.206706,-0.206706 0.09744,-0.09744 -0.09744,-0.315971 0,-0.413411 0.0689,-0.0689 0.551217,-0.137806 0.620117,-0.206706 0.126994,-0.126995 0.136559,-0.48169 0.413411,-0.620117 0.123256,-0.06163 0.315972,0.09744 0.413412,0 0.337111,-0.337111 0.106195,-1.192821 0.413411,-1.653646 0.298508,-0.44776 0.68902,-0.826823 1.033529,-1.240234 z" />
  </g>
</svg>
