<?xml version="1.0" encoding="UTF-8" standalone="no"?>
<!-- Created with Inkscape (http://www.inkscape.org/) -->

<svg
   width="187.57562mm"
   height="16.843933mm"
   viewBox="0 0 187.57562 16.843933"
   version="1.1"
   id="svg832"
   inkscape:version="1.4 (e7c3feb1, 2024-10-09)"
   sodipodi:docname="heading-backer.svg"
   xmlns:inkscape="http://www.inkscape.org/namespaces/inkscape"
   xmlns:sodipodi="http://sodipodi.sourceforge.net/DTD/sodipodi-0.dtd"
   xmlns="http://www.w3.org/2000/svg"
   xmlns:svg="http://www.w3.org/2000/svg">
  <sodipodi:namedview
     id="namedview834"
     pagecolor="#ffffff"
     bordercolor="#666666"
     borderopacity="1.0"
     inkscape:pageshadow="2"
     inkscape:pageopacity="0.0"
     inkscape:pagecheckerboard="0"
     inkscape:document-units="mm"
     showgrid="false"
     fit-margin-top="0"
     fit-margin-left="0"
     fit-margin-right="0"
     fit-margin-bottom="0"
     inkscape:zoom="2.1266375"
     inkscape:cx="264.26695"
     inkscape:cy="89.813144"
     inkscape:window-width="1920"
     inkscape:window-height="1027"
     inkscape:window-x="1080"
     inkscape:window-y="25"
     inkscape:window-maximized="1"
     inkscape:current-layer="layer1"
     inkscape:showpageshadow="2"
     inkscape:deskcolor="#d1d1d1" />
  <defs
     id="defs829" />
  <g
     inkscape:label="Layer 1"
     inkscape:groupmode="layer"
     id="layer1"
     transform="translate(-10.395972,-60.859323)">
    <path
       id="rect915-3"
       style="fill:#ab47ab;fill-opacity:1;stroke-width:5.256"
       d="m 21.77874,61.38849 c -1.122726,1.669481 -3.084823,4.561627 -4.467428,6.610449 -0.02095,0.104632 -0.01846,0.214041 0.01705,0.331246 0.245862,0.422547 -0.674448,0.97186 -0.783415,1.526522 -0.406423,0.50863 -0.552209,1.123889 0.0186,1.556494 -0.08695,0.797293 -1.099479,1.158744 -1.58595,1.743563 0.05581,0.59807 0.45351,1.272503 -0.0124,1.812292 -0.613111,0.665165 -1.633938,0.494826 -2.369364,0.951363 -0.272364,0.151269 -0.59219,0.320807 -0.871265,0.346233 -0.540985,0.798092 -0.751322,1.11498 -1.328601,1.965771 h 15.301391 c 1.233857,-0.641403 2.882659,-0.68795 4.200778,-0.86558 2.391646,0.04541 4.590766,-1.284563 6.9696,-1.037146 1.685957,0.320368 3.309522,0.99762 5.064808,0.861446 2.048861,-0.06026 4.104216,0.03165 6.09265,0.554488 1.145696,0.106233 2.278896,0.282465 3.407026,0.486792 h 10.376112 c 1.799206,-0.413247 3.55283,-0.729302 4.635894,-0.73949 0.263726,-0.0025 0.487743,0.01239 0.663009,0.04754 -1.701067,0.607972 -2.426915,0.380932 -0.325046,0.580326 -0.03897,0.04182 -0.05339,0.07213 -0.08733,0.111621 h 27.366806 c 1.012471,-0.320468 2.040173,-0.563875 3.16053,-0.383956 2.937305,-0.06393 5.807255,-0.672893 8.720395,-0.981852 3.80187,0.352206 7.7,-0.948559 11.44788,0.242879 2.97053,-0.01725 5.91183,0.42276 8.79327,1.122929 h 28.53779 c 1.57815,-0.15399 3.18043,-0.128543 4.74286,-0.02377 1.20349,-0.512183 2.13672,-1.674731 3.65404,-1.04283 2.91337,-0.06619 5.8564,0.352291 8.74779,-0.213941 1.65651,-0.215493 3.37299,-0.425628 5.01106,0.02222 0.4308,0.269814 0.66466,0.821767 0.96893,1.258321 h 8.74727 c 0.88967,-1.323554 2.66193,-3.937258 3.76618,-5.57537 -0.005,-0.01439 -0.01,-0.02913 -0.0145,-0.04393 -0.35475,-1.08658 -0.0979,-2.245052 -0.0284,-3.356384 -0.0145,-0.438277 0.0934,-0.866821 0.33642,-1.235584 0.56625,-0.941088 1.70536,-1.249854 2.72283,-1.404048 0.38443,-0.06576 0.78013,-0.112356 1.17564,-0.165882 1.27759,-1.888733 1.87289,-2.78168 3.41994,-5.06274 h -5.50509 c -0.28829,0.336225 -0.62307,0.727115 -0.68729,0.785482 -1.30677,1.18755 -1.66805,-0.01603 -3.20911,0.148311 -0.59611,0.06358 -1.10755,0.500084 -1.6831,0.649573 -0.47379,0.12305 -1.25259,0.0809 -1.71359,0.146761 -1.49815,0.214022 -2.95538,0.513147 -4.47208,0.513147 h -1.53944 -0.69608 -0.11369 c 1.18299,0 2.13689,-0.840781 3.17707,-1.213363 0.91046,-0.32612 1.8383,-0.670358 2.76314,-1.029911 h -12.46901 c 0.18578,0.135739 0.42036,0.230504 0.61443,0.360702 -0.89914,0.372526 -1.85853,0.562452 -2.81171,0.737939 -0.86525,0.125881 -1.70748,0.398335 -2.58279,0.451135 -0.32763,0.05326 -0.64503,-0.02979 -0.96893,-0.05788 0.96437,-0.518186 1.9863,-0.916241 3.00291,-1.317749 0.12713,-0.03793 0.23256,-0.116733 0.34934,-0.17415 h -12.50363 c -0.0334,0.007 -0.0653,0.02066 -0.0987,0.02739 -3.25999,1.373828 -6.79696,0.147615 -10.20661,0.580843 -3.9305,0.817708 -8.05443,1.615912 -12.03182,0.501778 -1.32548,-0.551452 -2.6976,-0.883175 -4.08709,-1.11001 h -11.43548 c -1.72428,0.778742 -4.40348,0.642772 -6.28385,0 h -5.38831 c -2.18974,0.273406 -4.35508,0.775845 -6.57479,1.156519 -3.559643,1.245092 -7.424851,-0.854392 -10.625706,-0.709518 0.310454,-0.164704 0.628248,-0.310052 0.949296,-0.447001 h -7.200077 c 0.03795,1.2411 -3.064905,1.344819 -5.053957,0.810803 -3.573079,-0.04383 -7.136107,0.280724 -10.71304,0.331246 -2.174796,2.32074 -2.547202,-0.350037 -4.067453,-1.142049 h -3.105237 c -0.238877,0.0089 -0.477835,0.01176 -0.716751,0.01809 -2.470148,1.008719 -4.812641,2.453605 -7.714774,1.426786 -0.202155,-0.554127 0.04883,-1.016739 0.531749,-1.444873 h -3.48299 c -0.247121,0.0075 -0.495189,3.7e-5 -0.742074,0.01137 -4.034909,1.037349 -8.198707,1.784186 -12.355835,0.990637 -2.849548,0.248037 -5.605229,-0.316346 -8.343159,-1.002006 z" />
    <path
       id="rect915"
       style="fill:#9c1e3a;fill-opacity:1;stroke-width:19.8652"
       d="M 49.689453,6.6777344 C 45.446079,12.987584 38.030281,23.91853 32.804688,31.662109 c -0.07918,0.39546 -0.06976,0.808974 0.06445,1.251953 0.929242,1.597029 -2.549094,3.673171 -2.960938,5.769532 -1.536087,1.922381 -2.087087,4.24777 0.07031,5.882812 -0.32863,3.013391 -4.15551,4.379504 -5.994141,6.589844 0.210935,2.260422 1.714052,4.809462 -0.04687,6.849609 -2.31727,2.51401 -6.175515,1.870206 -8.955078,3.595703 -1.029404,0.571722 -2.238197,1.212496 -3.292969,1.308594 -2.0446676,3.016411 -2.8396424,4.2141 -5.0214842,7.429688 H 64.5 c 4.663393,-2.424201 10.895086,-2.600127 15.876953,-3.271485 9.039292,0.171629 17.350928,-4.855041 26.341797,-3.919921 6.37212,1.210839 12.50843,3.770532 19.14258,3.255859 7.74373,-0.227754 15.512,0.119615 23.02734,2.095703 4.33019,0.401511 8.61315,1.067584 12.87695,1.839844 h 39.2168 c 6.80015,-1.561879 13.42802,-2.756418 17.52149,-2.794922 0.99676,-0.0094 1.84344,0.04681 2.50586,0.179687 -6.42923,2.297847 -9.17259,1.439745 -1.22852,2.19336 -0.14727,0.158047 -0.20177,0.272629 -0.33008,0.421875 h 103.4336 c 3.82666,-1.211218 7.71089,-2.131181 11.94531,-1.451172 11.10162,-0.241625 21.94869,-2.543219 32.95898,-3.710938 14.36927,1.331173 29.10236,-3.585104 43.26758,0.917969 11.2272,-0.0652 22.34393,1.597833 33.23438,4.244141 h 107.85937 c 5.96466,-0.58201 12.02053,-0.485833 17.92578,-0.08984 4.54863,-1.93581 8.0758,-6.329693 13.81055,-3.941406 11.01116,-0.250167 22.13441,1.331495 33.0625,-0.808594 6.26082,-0.814462 12.74832,-1.608673 18.93945,0.08398 1.62822,1.01977 2.51211,3.105892 3.66211,4.75586 h 33.06055 c 3.36253,-5.002409 10.06083,-14.880976 14.23437,-21.072266 -0.0189,-0.05439 -0.0377,-0.110078 -0.0547,-0.166016 -1.34079,-4.106759 -0.3701,-8.485236 -0.10743,-12.685546 -0.0548,-1.65648 0.35299,-3.276172 1.27149,-4.669922 2.14016,-3.556868 6.44546,-4.72386 10.29101,-5.306641 1.45297,-0.248542 2.94852,-0.42465 4.44336,-0.626953 4.82869,-7.138518 7.07863,-10.513436 12.92578,-19.1347656 h -20.80664 c -1.08963,1.2707716 -2.35493,2.7481503 -2.59765,2.96875 -4.93898,4.4883776 -6.30443,-0.060588 -12.12891,0.5605466 -2.25301,0.240303 -4.18602,1.890081 -6.36133,2.455078 -1.7907,0.465071 -4.7342,0.305772 -6.47656,0.554688 -5.6623,0.808902 -11.16993,1.939453 -16.90234,1.939453 h -5.81836 -2.63086 -0.42969 c 4.47114,0 8.07642,-3.177757 12.00781,-4.585938 3.44111,-1.232579 6.9479,-2.5336372 10.44336,-3.8925776 h -47.12695 c 0.70216,0.5130293 1.58877,0.8711943 2.32227,1.3632812 -3.39833,1.4079723 -7.02439,2.1258044 -10.62696,2.7890624 -3.27023,0.475771 -6.45346,1.505519 -9.76172,1.705078 -1.23828,0.201298 -2.43792,-0.112583 -3.66211,-0.21875 3.64487,-1.958498 7.50727,-3.4629579 11.34961,-4.9804685 0.48046,-0.1433575 0.87894,-0.441194 1.32032,-0.6582031 h -47.2578 c -0.12623,0.026457 -0.24681,0.078079 -0.37304,0.1035156 -12.32123,5.192421 -25.68931,0.5579153 -38.57618,2.1953125 -14.85543,3.0905495 -30.44195,6.1073845 -45.4746,1.8964845 -5.00969,-2.0842282 -10.19565,-3.3379835 -15.44727,-4.1953126 h -43.2207 c -6.51696,2.9432745 -16.64309,2.4293739 -23.75,0 h -20.36524 c -8.27619,1.0333454 -16.46017,2.9323253 -24.84961,4.3710936 -13.45377,4.70586 -28.06243,-3.2291958 -40.16015,-2.6816405 1.17337,-0.6225054 2.37448,-1.1718511 3.58789,-1.6894531 h -27.21289 c 0.14343,4.6907716 -11.58389,5.0827816 -19.10157,3.0644531 -13.50455,-0.1656567 -26.97111,1.0610035 -40.49023,1.2519535 -8.2197,8.7713 -9.62722,-1.3229754 -15.37305,-4.3164066 h -11.73633 c -0.90284,0.033819 -1.80599,0.04445 -2.70898,0.068359 -9.33599,3.8124806 -18.18951,9.2734686 -29.1582,5.3925786 -0.76405,-2.094338 0.18457,-3.8427942 2.00976,-5.460938 h -13.16406 c -0.934,0.028346 -1.87158,1.391e-4 -2.80469,0.042969 -15.25005,3.920689 -30.98724,6.743381 -46.69922,3.744141 C 94.632395,11.402306 84.217223,9.2692052 73.869141,6.6777344 Z"
       transform="matrix(0.26458333,0,0,0.26458333,8.6317387,59.092506)" />
  </g>
</svg>
