<?xml version="1.0" encoding="UTF-8" standalone="no"?>
<!-- Created with Inkscape (http://www.inkscape.org/) -->

<svg
   width="400"
   height="400"
   id="svg6386"
   version="1.1"
   inkscape:version="1.2.2 (b0a8486541, 2022-12-01)"
   sodipodi:docname="magnifier.svg"
   xmlns:inkscape="http://www.inkscape.org/namespaces/inkscape"
   xmlns:sodipodi="http://sodipodi.sourceforge.net/DTD/sodipodi-0.dtd"
   xmlns="http://www.w3.org/2000/svg"
   xmlns:svg="http://www.w3.org/2000/svg"
   xmlns:rdf="http://www.w3.org/1999/02/22-rdf-syntax-ns#"
   xmlns:cc="http://creativecommons.org/ns#"
   xmlns:dc="http://purl.org/dc/elements/1.1/">
  <title
     id="title5920">Magnifying glass</title>
  <defs
     id="defs6388" />
  <sodipodi:namedview
     id="base"
     pagecolor="#ffffff"
     bordercolor="#666666"
     borderopacity="1.0"
     inkscape:pageopacity="0.0"
     inkscape:pageshadow="2"
     inkscape:zoom="2.44"
     inkscape:cx="245.28689"
     inkscape:cy="172.33607"
     inkscape:document-units="px"
     inkscape:current-layer="layer1"
     showgrid="false"
     inkscape:window-width="2560"
     inkscape:window-height="1369"
     inkscape:window-x="1080"
     inkscape:window-y="32"
     inkscape:window-maximized="1"
     inkscape:showpageshadow="2"
     inkscape:pagecheckerboard="0"
     inkscape:deskcolor="#d1d1d1" />
  <metadata
     id="metadata6391">
    <rdf:RDF>
      <cc:Work
         rdf:about="">
        <dc:format>image/svg+xml</dc:format>
        <dc:type
           rdf:resource="http://purl.org/dc/dcmitype/StillImage" />
        <dc:title>Magnifying glass</dc:title>
        <dc:date>2017-01-16</dc:date>
        <dc:creator>
          <cc:Agent>
            <dc:title>m1981</dc:title>
          </cc:Agent>
        </dc:creator>
        <dc:rights>
          <cc:Agent>
            <dc:title>Public domain</dc:title>
          </cc:Agent>
        </dc:rights>
        <dc:publisher>
          <cc:Agent>
            <dc:title>Inkscape</dc:title>
          </cc:Agent>
        </dc:publisher>
        <dc:subject>
          <rdf:Bag>
            <rdf:li>icon</rdf:li>
            <rdf:li>find</rdf:li>
            <rdf:li>magnifying glass</rdf:li>
            <rdf:li />
          </rdf:Bag>
        </dc:subject>
      </cc:Work>
    </rdf:RDF>
  </metadata>
  <g
     inkscape:label="Calque 1"
     inkscape:groupmode="layer"
     id="layer1"
     transform="translate(0,-652.36218)">
    <path
       inkscape:connector-curvature="0"
       id="path4142"
       d="m 82.755092,736.20008 c -5.57285,5.70225 -10.508872,12.18968 -14.67243,19.40121 -26.647093,46.15407 -11.208786,105.43724 34.736618,131.9638 35.50219,20.49724 78.84452,15.4309 109.0049,-9.21445 l 9.0819,9.0819 c -1.2454,1.0561 -2.50869,2.09274 -3.8007,3.0936 -2.23492,1.73519 -3.66995,4.468 -3.84489,7.29203 -0.17495,2.82403 0.91313,5.69205 2.91681,7.68979 l 63.44074,63.44074 c 10.14644,10.14644 26.91895,10.2926 37.07894,0.13261 10.15999,-10.15999 10.03696,-26.95364 -0.11048,-37.10107 l -63.61751,-63.61752 c -1.88427,-1.88526 -4.56059,-2.97582 -7.22578,-2.93887 -2.6652,0.0369 -5.28406,1.20095 -7.11527,3.13778 -0.25908,0.27323 -0.50268,0.56109 -0.72924,0.86175 -0.95794,1.27552 -1.95054,2.52502 -2.96101,3.75651 l -9.01561,-9.01561 c 3.12219,-3.87436 5.98864,-8.04574 8.55158,-12.48486 26.64702,-46.154 11.20878,-105.43725 -34.73662,-131.9638 -38.76644,-22.38178 -86.88849,-14.30793 -116.981983,16.48443 z m 14.451495,13.92117 c 23.948633,-24.61773 61.889553,-30.85811 92.564693,-13.14777 36.35573,20.99001 48.68373,67.63489 27.312,104.6518 -21.37172,37.01692 -67.94249,49.672 -104.29821,28.68199 -36.355797,-20.98995 -48.683794,-67.63482 -27.312001,-104.65181 3.339263,-5.78383 7.298559,-10.97534 11.733518,-15.53421 z m 14.075843,13.54551 a 5.015625,5.015625 0 1 0 7.09317,7.09317 c 18.49268,-18.49269 48.35107,-18.51479 66.84372,-0.0221 2.91958,2.91958 5.42643,6.2133 7.49091,9.78901 a 5.0052995,5.0052995 0 0 0 8.66202,-4.9939 c -2.50141,-4.33255 -5.54434,-8.32865 -9.08186,-11.86618 -22.31415,-22.31414 -58.69379,-22.31413 -81.00796,4e-5 z m 36.90217,89.18381 a 5.0005001,5.0005001 0 0 0 3.60183,8.55157 c 10.04855,0 19.93549,-2.66548 28.63782,-7.68979 a 5.0005001,5.0005001 0 1 0 -5.01604,-8.63996 c -7.18255,4.14686 -15.32811,6.34189 -23.62178,6.34187 a 5.0005001,5.0005001 0 0 0 -3.60183,1.43631 z m 98.37623,37.38827 55.88354,55.88353 c 2.63632,2.63632 2.60052,6.3267 0.11045,8.81677 -2.49008,2.49008 -6.15731,2.50476 -8.79464,-0.13258 l -55.81725,-55.81724 c 3.01272,-2.78104 5.87799,-5.69834 8.61794,-8.75045 z"
       style="color:#000000;font-style:normal;font-variant:normal;font-weight:normal;font-stretch:normal;font-size:medium;line-height:normal;font-family:sans-serif;text-indent:0;text-align:start;text-decoration:none;text-decoration-line:none;letter-spacing:normal;word-spacing:normal;text-transform:none;writing-mode:lr-tb;direction:ltr;baseline-shift:baseline;text-anchor:start;display:inline;overflow:visible;visibility:visible;fill:#3b2e1f;fill-opacity:1;fill-rule:evenodd;stroke:none;enable-background:accumulate" />
  </g>
</svg>
