<?xml version="1.0" encoding="UTF-8" standalone="no"?>
<!-- Created with Inkscape (http://www.inkscape.org/) -->

<svg
   width="164.04167mm"
   height="164.04167mm"
   viewBox="0 0 164.04167 164.04167"
   version="1.1"
   id="svg5"
   inkscape:version="1.1.2 (0a00cf5339, 2022-02-04)"
   sodipodi:docname="myotr-logo.svg"
   inkscape:export-filename="/home/sbaynham/git/myotr/myotr-simulation-prototype/assets/images/mytor-logo.png"
   inkscape:export-xdpi="374.10001"
   inkscape:export-ydpi="374.10001"
   xmlns:inkscape="http://www.inkscape.org/namespaces/inkscape"
   xmlns:sodipodi="http://sodipodi.sourceforge.net/DTD/sodipodi-0.dtd"
   xmlns="http://www.w3.org/2000/svg"
   xmlns:svg="http://www.w3.org/2000/svg">
  <sodipodi:namedview
     id="namedview7"
     pagecolor="#ffffff"
     bordercolor="#666666"
     borderopacity="1.0"
     inkscape:pageshadow="2"
     inkscape:pageopacity="0.0"
     inkscape:pagecheckerboard="0"
     inkscape:document-units="mm"
     showgrid="true"
     fit-margin-top="0"
     fit-margin-left="0"
     fit-margin-right="0"
     fit-margin-bottom="0"
     inkscape:zoom="1.0633188"
     inkscape:cx="395.45996"
     inkscape:cy="365.36551"
     inkscape:window-width="1920"
     inkscape:window-height="1016"
     inkscape:window-x="1080"
     inkscape:window-y="27"
     inkscape:window-maximized="1"
     inkscape:current-layer="layer1">
    <inkscape:grid
       type="xygrid"
       id="grid1980"
       originx="-52.916433"
       originy="-68.791673" />
  </sodipodi:namedview>
  <defs
     id="defs2" />
  <g
     inkscape:label="Layer 1"
     inkscape:groupmode="layer"
     id="layer1"
     transform="translate(-52.916431,-68.791666)">
    <path
       id="rect2848-1-3"
       style="fill:#f8f4ec;stroke-width:3;fill-opacity:1"
       d="M 63.49977,68.791673 52.916438,79.375004 V 222.24998 L 63.49977,232.8333 h 142.87497 l 10.58333,-10.58332 V 79.375004 L 206.37474,68.791673 Z" />
    <path
       id="rect2848"
       style="fill:#282828;fill-opacity:1;stroke-width:10.6071"
       d="M 57.417969 20 L 20 57.417969 L 20 562.58008 L 57.417969 600 L 562.58008 600 L 600 562.58008 L 600 57.417969 L 562.58008 20 L 57.417969 20 z M 76.128906 41.480469 L 543.87109 41.480469 L 578.51953 76.128906 L 578.51953 543.87109 L 543.87109 578.51953 L 76.128906 578.51953 L 41.480469 543.87109 L 41.480469 76.128906 L 76.128906 41.480469 z M 287.17969 58.75 L 282.10938 64.896484 L 282.10938 77.189453 L 337.89062 77.189453 L 337.89062 64.896484 L 332.82031 58.75 L 287.17969 58.75 z M 177.74023 81.996094 L 144.67969 115.05469 L 144.67969 223.96094 L 177.74023 257.02148 L 442.25977 257.02148 L 475.32031 223.96094 L 475.32031 115.05469 L 442.25977 81.996094 L 177.74023 81.996094 z M 282.33984 261.59375 L 282.33984 280.03516 L 337.66016 280.03516 L 337.66016 261.59375 L 282.33984 261.59375 z M 282.13086 284.64453 L 275.16406 291.61133 L 275.16406 314.55859 L 282.13086 321.52539 L 337.86914 321.52539 L 344.83594 314.55859 L 344.83594 291.61133 L 337.86914 284.64453 L 282.13086 284.64453 z M 282.33984 326.13477 L 282.33984 496.70898 L 337.66016 496.70898 L 337.66016 326.13477 L 282.33984 326.13477 z M 282.13086 501.31836 L 275.16406 508.28516 L 275.16406 531.23242 L 282.13086 538.19922 L 337.86914 538.19922 L 344.83594 531.23242 L 344.83594 508.28516 L 337.86914 501.31836 L 282.13086 501.31836 z M 282.10938 542.81055 L 282.10938 555.10352 L 287.17969 561.25 L 332.82031 561.25 L 337.89062 555.10352 L 337.89062 542.81055 L 282.10938 542.81055 z "
       transform="matrix(0.26458333,0,0,0.26458333,52.916431,68.791666)" />
    <rect
       style="fill:#ff00ff;fill-opacity:0;stroke:none;stroke-width:3;stroke-opacity:0.510044"
       id="rect856"
       width="232.83333"
       height="232.83333"
       x="15.874999"
       y="37.04166" />
  </g>
</svg>
