<?xml version="1.0" encoding="UTF-8"?>
<svg width="164.04mm" height="164.04mm" version="1.1" viewBox="0 0 164.04 164.04" xmlns="http://www.w3.org/2000/svg">
 <g transform="translate(-52.916 -68.792)">
     <defs>
        <clipPath id="svgPath">
            <path transform="matrix(.26458 0 0 .26458 52.916 68.792)" d="m57.418 20-37.418 37.418v505.16l37.418 37.42h505.16l37.42-37.42v-505.16l-37.42-37.418h-505.16zm18.711 21.48h467.74l34.648 34.648v467.74l-34.648 34.648h-467.74l-34.648-34.648v-467.74l34.648-34.648zm211.05 17.27-5.0703 6.1465v12.293h55.781v-12.293l-5.0703-6.1465h-45.641zm-109.44 23.246-33.061 33.059v108.91l33.061 33.061h264.52l33.061-33.061v-108.91l-33.061-33.059h-264.52zm104.6 179.6v18.441h55.32v-18.441h-55.32zm-0.20898 23.051-6.9668 6.9668v22.947l6.9668 6.9668h55.738l6.9668-6.9668v-22.947l-6.9668-6.9668h-55.738zm0.20898 41.49v170.57h55.32v-170.57h-55.32zm-0.20898 175.18-6.9668 6.9668v22.947l6.9668 6.9668h55.738l6.9668-6.9668v-22.947l-6.9668-6.9668h-55.738zm-0.02148 41.492v12.293l5.0703 6.1465h45.641l5.0703-6.1465v-12.293h-55.781z" fill="#282828" stroke-width="10.607"/>
            <rect x="15.875" y="37.042" width="232.83" height="232.83" fill-opacity="0"/>
        </clipPath>
     </defs>
 </g>
</svg>
