<?xml version="1.0" encoding="UTF-8" standalone="no"?>
<!-- Created with Inkscape (http://www.inkscape.org/) -->

<svg
   width="164.04167mm"
   height="164.04167mm"
   viewBox="0 0 164.04167 164.04167"
   version="1.1"
   id="svg5"
   inkscape:version="1.2.2 (b0a8486541, 2022-12-01)"
   sodipodi:docname="myotr-logo-cutout.svg"
   inkscape:export-filename="/home/sbaynham/git/myotr/myotr-simulation-prototype/assets/images/mytor-logo.png"
   inkscape:export-xdpi="374.10001"
   inkscape:export-ydpi="374.10001"
   xmlns:inkscape="http://www.inkscape.org/namespaces/inkscape"
   xmlns:sodipodi="http://sodipodi.sourceforge.net/DTD/sodipodi-0.dtd"
   xmlns:xlink="http://www.w3.org/1999/xlink"
   xmlns="http://www.w3.org/2000/svg"
   xmlns:svg="http://www.w3.org/2000/svg">
  <sodipodi:namedview
     id="namedview7"
     pagecolor="#ffffff"
     bordercolor="#666666"
     borderopacity="1.0"
     inkscape:pageshadow="2"
     inkscape:pageopacity="0.0"
     inkscape:pagecheckerboard="0"
     inkscape:document-units="mm"
     showgrid="true"
     fit-margin-top="0"
     fit-margin-left="0"
     fit-margin-right="0"
     fit-margin-bottom="0"
     inkscape:zoom="1.0633188"
     inkscape:cx="269.43942"
     inkscape:cy="366.30595"
     inkscape:window-width="2560"
     inkscape:window-height="1369"
     inkscape:window-x="1080"
     inkscape:window-y="32"
     inkscape:window-maximized="1"
     inkscape:current-layer="layer1"
     inkscape:showpageshadow="2"
     inkscape:deskcolor="#d1d1d1">
    <inkscape:grid
       type="xygrid"
       id="grid1980"
       originx="-52.916433"
       originy="-68.791673" />
  </sodipodi:namedview>
  <defs
     id="defs2">
    <linearGradient
       inkscape:collect="always"
       id="linearGradient4451">
      <stop
         style="stop-color:#350000;stop-opacity:1;"
         offset="0"
         id="stop4447" />
      <stop
         style="stop-color:#790000;stop-opacity:1;"
         offset="1"
         id="stop4449" />
    </linearGradient>
    <linearGradient
       inkscape:collect="always"
       xlink:href="#linearGradient4451"
       id="linearGradient4453"
       x1="142.875"
       y1="232.83333"
       x2="142.875"
       y2="68.791656"
       gradientUnits="userSpaceOnUse" />
  </defs>
  <g
     inkscape:label="Layer 1"
     inkscape:groupmode="layer"
     id="layer1"
     transform="translate(-52.916431,-68.791666)">
    <path
       id="rect2848-1-3"
       style="fill:url(#linearGradient4453);stroke-width:3;fill-opacity:1"
       d="M 63.499764 68.791666 L 52.916431 79.374999 L 52.916431 222.25 L 63.499764 232.83333 L 206.37476 232.83333 L 216.9581 222.25 L 216.9581 79.374999 L 206.37476 68.791666 L 63.499764 68.791666 z M 68.108269 74.083333 L 201.76574 74.083333 L 211.66643 83.983504 L 211.66643 217.64098 L 201.76574 227.54167 L 68.108269 227.54167 L 58.208098 217.64098 L 58.208098 83.983504 L 68.108269 74.083333 z M 73.058871 79.766707 L 63.891472 88.934106 L 63.891472 212.69089 L 73.058871 221.85829 L 196.81566 221.85829 L 205.98306 212.69089 L 205.98306 88.934106 L 196.81566 79.766707 L 73.058871 79.766707 z M 128.89939 84.335937 L 140.97514 84.335937 L 142.31666 85.962194 L 142.31666 89.214709 L 127.55787 89.214709 L 127.55787 85.962194 L 128.89939 84.335937 z M 99.943535 90.486466 L 169.93099 90.486466 L 178.67826 99.233219 L 178.67826 128.048 L 169.93099 136.79527 L 99.943535 136.79527 L 91.196265 128.048 L 91.196265 99.233219 L 99.943535 90.486466 z M 127.61885 138.00501 L 142.25568 138.00501 L 142.25568 142.8843 L 127.61885 142.8843 L 127.61885 138.00501 z M 127.56355 144.10386 L 142.31097 144.10386 L 144.15427 145.94716 L 144.15427 152.01863 L 142.31097 153.86193 L 127.56355 153.86193 L 125.72026 152.01863 L 125.72026 145.94716 L 127.56355 144.10386 z M 127.61885 155.08149 L 142.25568 155.08149 L 142.25568 200.21258 L 127.61885 200.21258 L 127.61885 155.08149 z M 127.56355 201.43215 L 142.31097 201.43215 L 144.15427 203.27545 L 144.15427 209.34691 L 142.31097 211.19021 L 127.56355 211.19021 L 125.72026 209.34691 L 125.72026 203.27545 L 127.56355 201.43215 z M 127.55787 212.41029 L 142.31666 212.41029 L 142.31666 215.6628 L 140.97514 217.28906 L 128.89939 217.28906 L 127.55787 215.6628 L 127.55787 212.41029 z " />
    <rect
       style="fill:#ff00ff;fill-opacity:0;stroke:none;stroke-width:3;stroke-opacity:0.510044"
       id="rect856"
       width="232.83333"
       height="232.83333"
       x="15.874999"
       y="37.04166" />
  </g>
</svg>
