<?xml version="1.0" encoding="UTF-8" standalone="no"?>
<!-- Created with Inkscape (http://www.inkscape.org/) -->

<svg
   width="621.45062"
   height="625.18921"
   id="svg4941"
   version="1.1"
   inkscape:version="1.4 (e7c3feb1, 2024-10-09)"
   sodipodi:docname="ornament.svg"
   xmlns:inkscape="http://www.inkscape.org/namespaces/inkscape"
   xmlns:sodipodi="http://sodipodi.sourceforge.net/DTD/sodipodi-0.dtd"
   xmlns="http://www.w3.org/2000/svg"
   xmlns:svg="http://www.w3.org/2000/svg"
   xmlns:rdf="http://www.w3.org/1999/02/22-rdf-syntax-ns#"
   xmlns:cc="http://creativecommons.org/ns#"
   xmlns:dc="http://purl.org/dc/elements/1.1/">
  <title
     id="title3020">Celtic Ornament v3 by Merlin2525.svg</title>
  <defs
     id="defs4943" />
  <sodipodi:namedview
     id="base"
     pagecolor="#ffffff"
     bordercolor="#666666"
     borderopacity="1.0"
     inkscape:pageopacity="0.0"
     inkscape:pageshadow="2"
     inkscape:zoom="0.98994949"
     inkscape:cx="189.90868"
     inkscape:cy="384.86812"
     inkscape:document-units="px"
     inkscape:current-layer="layer1"
     showgrid="true"
     fit-margin-top="0"
     fit-margin-left="0"
     fit-margin-right="0"
     fit-margin-bottom="0"
     inkscape:window-width="2560"
     inkscape:window-height="1387"
     inkscape:window-x="1080"
     inkscape:window-y="25"
     inkscape:window-maximized="1"
     inkscape:showpageshadow="2"
     inkscape:pagecheckerboard="0"
     inkscape:deskcolor="#d1d1d1">
    <inkscape:grid
       id="grid1"
       units="px"
       originx="0"
       originy="0"
       spacingx="1"
       spacingy="1"
       empcolor="#0099e5"
       empopacity="0.30196078"
       color="#0099e5"
       opacity="0.14901961"
       empspacing="5"
       enabled="true"
       visible="true" />
  </sodipodi:namedview>
  <metadata
     id="metadata4946">
    <rdf:RDF>
      <cc:Work
         rdf:about="">
        <dc:format>image/svg+xml</dc:format>
        <dc:type
           rdf:resource="http://purl.org/dc/dcmitype/StillImage" />
        <dc:title>Celtic Ornament v3 by Merlin2525.svg</dc:title>
        <dc:date>2015-12-11</dc:date>
        <dc:creator>
          <cc:Agent>
            <dc:title>Boobaloo/Merlin2525</dc:title>
          </cc:Agent>
        </dc:creator>
        <dc:rights>
          <cc:Agent>
            <dc:title>Released to the Public Domain</dc:title>
          </cc:Agent>
        </dc:rights>
        <dc:publisher>
          <cc:Agent>
            <dc:title>https://openclipart.org</dc:title>
          </cc:Agent>
        </dc:publisher>
        <dc:source>https://openclipart.org/user-detail/Merlin2525</dc:source>
        <dc:subject>
          <rdf:Bag>
            <rdf:li>abstract</rdf:li>
            <rdf:li>abstrait</rdf:li>
            <rdf:li>ancient</rdf:li>
            <rdf:li>and</rdf:li>
            <rdf:li>anillo</rdf:li>
            <rdf:li>animal</rdf:li>
            <rdf:li>anneau</rdf:li>
            <rdf:li>antiguo</rdf:li>
            <rdf:li>antique</rdf:li>
            <rdf:li>apercu</rdf:li>
            <rdf:li>art</rdf:li>
            <rdf:li>arte</rdf:li>
            <rdf:li>artesania</rdf:li>
            <rdf:li>artisanat</rdf:li>
            <rdf:li>bijoux</rdf:li>
            <rdf:li>bird</rdf:li>
            <rdf:li>black</rdf:li>
            <rdf:li>blanc</rdf:li>
            <rdf:li>blanco</rdf:li>
            <rdf:li>book</rdf:li>
            <rdf:li>Celta</rdf:li>
            <rdf:li>Celtas</rdf:li>
            <rdf:li>Celtic</rdf:li>
            <rdf:li>Celtique</rdf:li>
            <rdf:li>colgante</rdf:li>
            <rdf:li>colorear</rdf:li>
            <rdf:li>coloriage</rdf:li>
            <rdf:li>coloring</rdf:li>
            <rdf:li>colouring</rdf:li>
            <rdf:li>conception</rdf:li>
            <rdf:li>craft</rdf:li>
            <rdf:li>craftmanship</rdf:li>
            <rdf:li>de</rdf:li>
            <rdf:li>decoracion</rdf:li>
            <rdf:li>decoratif</rdf:li>
            <rdf:li>decoration</rdf:li>
            <rdf:li>decorative</rdf:li>
            <rdf:li>decorativo</rdf:li>
            <rdf:li>des</rdf:li>
            <rdf:li>design</rdf:li>
            <rdf:li>diseno</rdf:li>
            <rdf:li>divider</rdf:li>
            <rdf:li>diviseur</rdf:li>
            <rdf:li>divisor</rdf:li>
            <rdf:li>dragon</rdf:li>
            <rdf:li>el</rdf:li>
            <rdf:li>element</rdf:li>
            <rdf:li>elemento</rdf:li>
            <rdf:li>esquema</rdf:li>
            <rdf:li>et</rdf:li>
            <rdf:li>extracto</rdf:li>
            <rdf:li>folk</rdf:li>
            <rdf:li>forma</rdf:li>
            <rdf:li>forme</rdf:li>
            <rdf:li>Gaelic</rdf:li>
            <rdf:li>Gaelico</rdf:li>
            <rdf:li>Gaelique</rdf:li>
            <rdf:li>Gothic</rdf:li>
            <rdf:li>Gothique</rdf:li>
            <rdf:li>Gotico</rdf:li>
            <rdf:li>grafico</rdf:li>
            <rdf:li>graphical</rdf:li>
            <rdf:li>graphique</rdf:li>
            <rdf:li>historia</rdf:li>
            <rdf:li>history</rdf:li>
            <rdf:li>Irish</rdf:li>
            <rdf:li>Irlandais</rdf:li>
            <rdf:li>Irlandes</rdf:li>
            <rdf:li>jewellery</rdf:li>
            <rdf:li>jewelry</rdf:li>
            <rdf:li>joyas</rdf:li>
            <rdf:li>joyeria</rdf:li>
            <rdf:li>Keltisk</rdf:li>
            <rdf:li>knot</rdf:li>
            <rdf:li>knotwork</rdf:li>
            <rdf:li>l'artisanat</rdf:li>
            <rdf:li>l'histoire</rdf:li>
            <rdf:li>la</rdf:li>
            <rdf:li>le</rdf:li>
            <rdf:li>les</rdf:li>
            <rdf:li>libro</rdf:li>
            <rdf:li>ligne</rdf:li>
            <rdf:li>line</rdf:li>
            <rdf:li>linea</rdf:li>
            <rdf:li>livre</rdf:li>
            <rdf:li>los</rdf:li>
            <rdf:li>medieval</rdf:li>
            <rdf:li>medievale</rdf:li>
            <rdf:li>mitologia</rdf:li>
            <rdf:li>mitology</rdf:li>
            <rdf:li>modelo</rdf:li>
            <rdf:li>modelos</rdf:li>
            <rdf:li>motif</rdf:li>
            <rdf:li>motifs</rdf:li>
            <rdf:li>motivo</rdf:li>
            <rdf:li>mythologie</rdf:li>
            <rdf:li>mythology</rdf:li>
            <rdf:li>negro</rdf:li>
            <rdf:li>noeud</rdf:li>
            <rdf:li>noir</rdf:li>
            <rdf:li>Nordises</rdf:li>
            <rdf:li>Norse</rdf:li>
            <rdf:li>nudo</rdf:li>
            <rdf:li>oiseau</rdf:li>
            <rdf:li>ornament</rdf:li>
            <rdf:li>ornamental</rdf:li>
            <rdf:li>ornamento</rdf:li>
            <rdf:li>ornement</rdf:li>
            <rdf:li>ornementales</rdf:li>
            <rdf:li>outline</rdf:li>
            <rdf:li>pajaro</rdf:li>
            <rdf:li>patern</rdf:li>
            <rdf:li>pattern</rdf:li>
            <rdf:li>patterns</rdf:li>
            <rdf:li>pendant</rdf:li>
            <rdf:li>pendentif</rdf:li>
            <rdf:li>remezcla</rdf:li>
            <rdf:li>remix</rdf:li>
            <rdf:li>ring</rdf:li>
            <rdf:li>serpent</rdf:li>
            <rdf:li>serpiente</rdf:li>
            <rdf:li>shape</rdf:li>
            <rdf:li>simbolo</rdf:li>
            <rdf:li>snake</rdf:li>
            <rdf:li>symbol</rdf:li>
            <rdf:li>symbole</rdf:li>
            <rdf:li>tat</rdf:li>
            <rdf:li>tatoo</rdf:li>
            <rdf:li>tatouage</rdf:li>
            <rdf:li>tattoo</rdf:li>
            <rdf:li>tatuaje</rdf:li>
            <rdf:li>tema</rdf:li>
            <rdf:li>temas</rdf:li>
            <rdf:li>theme</rdf:li>
            <rdf:li>themes</rdf:li>
            <rdf:li>trabajo</rdf:li>
            <rdf:li>travail</rdf:li>
            <rdf:li>vectorisee</rdf:li>
            <rdf:li>vectorizado</rdf:li>
            <rdf:li>vectorized</rdf:li>
            <rdf:li>Viking</rdf:li>
            <rdf:li>Vikingo</rdf:li>
            <rdf:li>white</rdf:li>
            <rdf:li>work</rdf:li>
            <rdf:li>y</rdf:li>
            <rdf:li />
          </rdf:Bag>
        </dc:subject>
        <dc:description>My Remix of Boobaloo's Celtic Ornament. Version 3 - Black filled outline, perfect for a tattoo or stamp art. License:Public Domain.</dc:description>
        <dc:contributor>
          <cc:Agent>
            <dc:title>Boobaloo/Merlin2525</dc:title>
          </cc:Agent>
        </dc:contributor>
        <cc:license
           rdf:resource="http://creativecommons.org/licenses/publicdomain/" />
      </cc:Work>
      <cc:License
         rdf:about="http://creativecommons.org/licenses/publicdomain/">
        <cc:permits
           rdf:resource="http://creativecommons.org/ns#Reproduction" />
        <cc:permits
           rdf:resource="http://creativecommons.org/ns#Distribution" />
        <cc:permits
           rdf:resource="http://creativecommons.org/ns#DerivativeWorks" />
      </cc:License>
    </rdf:RDF>
  </metadata>
  <g
     inkscape:label="Layer 1"
     inkscape:groupmode="layer"
     id="layer1"
     transform="translate(-92.131828,-179.7676)">
    <path
       id="rect1"
       style="fill:#4a0000;stroke:none;stroke-width:26.4567;-inkscape-stroke:none;fill-opacity:1"
       d="M 92.131828 179.7676 L 92.131828 804.95705 L 713.583 804.95705 L 713.583 179.7676 L 92.131828 179.7676 z M 113.34472 201.10744 L 692.37011 201.10744 L 692.37011 783.61526 L 113.34472 783.61526 L 113.34472 201.10744 z M 135.56933 221.31057 L 135.56933 763.41213 L 670.1455 763.41213 L 670.1455 221.31057 L 135.56933 221.31057 z M 436.76073 244.80666 C 449.11264 244.8765 461.45194 251.62849 470.65527 261.51174 C 496.21116 288.95609 486.50644 333.20656 495.76659 366.58205 C 498.84803 377.68742 509.91424 397.91414 503.8662 409.31252 C 501.37396 414.00946 495.99272 414.20195 491.33691 414.08791 C 480.36063 413.81944 469.02942 407.66314 462.34862 399.0508 C 453.78062 388.0072 462.75773 363.5593 469.95409 353.11916 C 472.82803 357.91594 473.05827 365.10913 474.51464 370.54104 C 475.76432 375.20239 478.27212 379.39801 479.62792 384.00393 C 480.61784 387.36571 480.31189 394.371 485.00097 395.04494 C 488.11724 395.49239 489.14108 391.84865 488.13769 389.54885 C 482.94652 377.64363 477.94446 366.94475 475.51073 353.91213 C 469.41802 321.28554 465.09266 267.88749 422.3037 264.12893 C 416.92065 263.65609 410.23943 265.39843 405.01659 268.38088 C 405.72142 261.49465 410.03136 256.89935 415.18847 252.66604 C 421.93342 247.12939 429.34959 244.76476 436.76073 244.80666 z M 328.78612 265.99026 C 343.17217 266.11817 357.19204 270.39316 368.58691 280.38479 C 405.9221 313.12286 409.81172 365.8488 406.67089 411.72268 C 405.63899 426.78616 404.44177 442.14745 400.72362 456.8633 C 397.13822 470.80507 390.80549 496.31185 382.51073 510.15432 C 379.84586 511.10307 376.38452 508.21532 374.12987 507.14065 C 365.66562 503.10493 358.12119 497.77038 350.37206 492.50002 C 353.98964 483.32699 359.22403 474.95476 362.49316 465.57424 C 375.4976 428.25803 381.46302 386.69774 369.77245 348.58791 C 362.5461 325.54981 339.95013 288.72497 302.92089 312.36916 C 283.63984 306.49481 263.38124 307.95014 249.00292 313.52151 C 253.58497 302.45186 263.96884 291.93404 270.41698 287.09963 C 285.95239 274.47373 307.76036 265.8033 328.78612 265.99026 z M 506.26464 267.33791 C 515.72036 267.23029 525.29418 268.89095 534.10253 271.94143 C 545.75513 275.977 554.38808 284.12746 562.83886 292.7969 C 585.29747 315.83735 594.42014 341.37979 598.58495 372.91799 C 600.59885 388.1644 600.3818 404.5385 593.93066 418.84963 C 592.6105 421.77981 589.70399 431.3133 585.54394 430.79299 C 581.72363 430.31466 578.16646 424.70337 575.28222 422.42971 C 571.02 419.06951 563.64578 415.80416 561.0498 410.89651 C 558.90998 406.85207 561.24866 401.55597 562.08495 397.46877 C 563.42808 390.90597 563.90527 382.76677 563.26855 376.08596 C 560.35342 345.47592 547.3466 310.66522 511.9287 306.54104 C 504.61989 305.69002 499.59298 310.14051 492.92089 311.14651 C 492.92089 301.82966 491.38717 292.99169 488.21386 284.22073 C 487.23265 281.50833 483.75628 274.57558 485.12792 271.88283 C 486.81317 268.57625 493.73704 268.49939 496.88183 268.04885 C 499.97494 267.6057 503.11273 267.37381 506.26464 267.33791 z M 424.84472 270.73049 C 441.98451 270.43601 452.1162 289.79299 452.1162 289.79299 C 443.52737 299.59494 436.40701 309.12299 431.14941 319.85744 C 431.14941 319.85744 424.02245 288.02235 424.02245 270.75783 C 424.29803 270.74313 424.57266 270.73549 424.84472 270.73049 z M 455.70019 295.30862 C 461.30474 307.29201 468.8464 327.05401 467.94042 340.44729 C 467.16432 351.91932 459.73815 364.46085 456.17284 375.29299 C 451.15748 390.5307 450.26875 406.19307 450.94823 422.0176 L 414.51855 410.13869 C 414.51855 378.31302 420.76654 346.46991 437.55566 319.06643 C 442.0412 311.744 447.71189 299.11492 455.70019 295.30862 z M 278.52636 312.30276 C 294.35933 312.52064 310.30024 317.35842 323.44628 328.26369 C 335.14358 337.96715 357.0387 362.87973 340.00487 376.3926 C 326.84601 386.83115 298.37041 384.87182 288.60058 384.00393 L 288.24316 369.81448 C 312.02588 370.31822 329.92013 361.19827 309.97948 340.18362 C 280.33862 316.84969 224.99321 327.90745 228.47753 376.99416 C 228.47753 376.99416 217.09101 381.84785 210.9912 385.88283 C 191.80128 346.41625 234.75285 311.70036 278.52636 312.30276 z M 501.39159 323.11135 C 503.55804 323.03246 505.80907 323.41376 507.17675 323.90041 C 516.23416 327.12439 523.53292 332.93416 529.44237 340.44729 C 537.22476 350.34337 542.93253 360.62382 549.42089 371.33401 C 551.89332 375.41487 556.62236 380.15291 557.64159 384.8008 C 559.22705 392.02725 555.80846 398.30918 555.48534 405.38674 C 545.68905 403.64052 537.62397 395.42175 529.35058 390.33987 C 535.74434 385.57747 538.71812 378.04018 538.45995 368.95901 C 538.09803 356.24442 523.30243 340.68063 510.34472 340.84377 C 505.2478 340.90792 500.78826 342.63333 496.88183 346.78323 C 496.88183 341.99041 493.29848 328.79778 496.1162 325.08596 C 497.14453 323.73016 499.22514 323.19025 501.39159 323.11135 z M 274.76269 332.81057 C 279.4262 332.78989 284.5562 333.20767 290.18456 334.1133 C 282.52254 360.97827 280.27854 389.39798 292.56152 415.68166 C 282.30987 420.2654 272.17536 424.40801 262.46777 430.18362 C 259.8607 431.73424 248.95019 437.16994 248.95019 437.16994 C 229.53858 394.40942 219.73333 333.05455 274.76269 332.81057 z M 511.68261 346.20315 C 531.12715 346.46097 543.87678 382.90501 521.43456 386.96291 C 507.90506 389.40921 504.49672 377.00833 501.16503 367.3633 C 498.36473 359.25622 498.00261 348.28844 508.76269 346.4258 C 509.74795 346.25526 510.72632 346.19045 511.68261 346.20315 z M 512.62402 356.22658 C 511.64305 356.26038 510.63841 356.45401 509.57909 356.87112 C 500.53198 360.43405 505.78302 379.3088 516.45995 375.67776 C 527.33446 371.97947 522.10669 355.89985 512.62402 356.22658 z M 627.56542 360.7344 C 643.41592 360.94073 651.88066 391.21243 647.85839 408.74221 C 642.86284 424.76077 625.62868 433.89051 609.33691 433.89651 C 606.18182 433.8981 595.44941 434.91254 594.05956 431.17776 C 592.79562 427.78034 597.59511 421.10046 599.04198 418.05862 C 612.5398 422.84986 626.82093 416.86524 634.57323 404.59573 C 638.33732 398.63717 639.45927 384.66943 629.93066 383.31838 C 618.58739 382.34449 617.84946 402.64158 617.72948 412.39846 C 617.67547 416.79294 607.96811 416.09901 604.58495 415.68166 C 603.84528 398.44668 605.35121 364.3439 625.1748 360.92776 C 625.98947 360.78742 626.78589 360.7242 627.56542 360.7344 z M 186.72362 378.49416 C 187.90291 378.52149 189.1273 378.65819 190.39745 378.91604 C 197.37879 380.33282 196.49558 388.80119 193.39941 393.46096 C 188.83602 400.32945 181.53096 390.98204 177.16698 396.85744 C 172.2191 403.51924 167.62594 411.88543 168.2998 420.43362 C 169.25828 432.59227 184.18429 449.10135 197.52831 445.27151 C 219.44381 438.98114 205.78194 409.6556 228.77636 401.06643 C 234.54859 427.77448 211.52595 468.41611 182.48144 457.03127 C 177.23104 455.53925 173.56494 451.90141 169.80956 448.15237 C 154.96917 433.33595 152.95645 415.94076 163.01073 397.46877 C 168.06955 388.17462 175.32383 378.22997 186.72362 378.49416 z M 230.79003 381.62893 L 232.08495 397.41213 C 224.39237 399.94673 221.77745 400.79856 214.12987 407.04494 C 204.44602 414.95448 194.93487 427.53369 192.77636 440.23244 C 187.25527 439.94576 184.28109 438.35802 180.01855 435.13088 C 186.45351 412.40722 204.66628 391.19091 230.79003 381.62893 z M 507.96777 390.33987 C 514.06491 391.37652 522.32201 391.92248 527.76659 394.74416 C 533.5034 397.7171 541.52303 402.19772 545.01073 407.86721 C 550.78318 417.24853 541.82845 428.50499 533.30956 432.24612 C 518.11066 438.92217 488.39765 431.58009 480.25097 416.47463 C 483.72996 417.58731 487.65122 419.4318 491.33691 419.4258 C 508.73503 419.39492 512.52063 404.70328 507.96777 390.33987 z M 354.56152 408.69143 C 360.94153 408.67484 370.17284 409.1094 370.17284 409.1094 C 370.11161 417.9529 366.10872 437.93318 363.64355 445.99026 C 363.64355 445.99026 336.0552 447.40886 326.61425 449.96096 C 300.86501 456.92147 279.62635 468.97789 259.31152 485.86916 C 250.38715 493.28963 235.33769 509.71367 237.30566 522.59377 C 241.15052 547.76398 279.37251 547.4023 297.31152 541.79299 C 302.38864 540.20516 309.65742 533.29894 314.73534 533.66799 C 321.0566 534.1281 329.08009 542.76777 334.53417 545.85158 C 339.7 548.77226 350.88363 551.4841 352.74706 557.43948 C 332.69187 567.50171 310.63289 578.54516 295.16698 579.17776 C 286.59064 579.52859 275.74854 579.40825 267.21777 578.68362 C 233.43839 575.8168 190.07851 547.79732 201.03808 509.13088 C 213.52396 465.07925 254.57519 433.9149 295.72753 418.8926 C 312.9633 412.60144 331.5771 411.28389 349.58105 408.89065 C 350.62641 408.75182 352.43485 408.69743 354.56152 408.69143 z M 551.52441 410.13869 C 557.65719 412.22387 563.65009 418.33454 568.72167 422.40432 C 585.00948 435.4737 597.19158 451.40586 608.65331 468.74221 C 612.43087 474.45526 621.25449 485.23873 620.70409 492.50002 C 620.419 496.26965 616.24666 498.22797 613.29589 499.68752 C 604.28283 504.14376 595.21856 503.79372 585.57909 502.00393 C 584.08787 495.42292 580.04265 488.79966 576.63573 483.00979 C 566.9511 466.54933 551.2788 445.98522 532.51855 439.44143 L 532.51855 437.85744 C 543.37842 433.19608 553.85746 422.75112 551.52441 410.13869 z M 412.14355 414.09768 C 421.34747 414.18004 430.58132 419.40336 439.06933 422.65823 C 464.71787 432.49411 499.96724 447.90489 511.9287 474.28518 C 505.45459 480.75929 499.45293 487.73912 492.12987 493.29299 C 489.95679 494.94102 487.13299 498.13946 484.20995 498.14846 C 477.47767 498.17064 468.2939 485.68981 462.82714 482.07619 C 445.06156 470.33252 426.94155 460.89192 406.60058 454.4883 L 412.14355 414.09768 z M 624.66112 435.97463 C 625.31304 435.97248 625.9236 436.08742 626.44628 436.36916 C 628.8609 437.67032 629.89419 441.89639 631.09081 444.19143 C 634.79471 451.29832 638.46716 458.43095 642.10058 465.57424 C 645.95653 473.15389 648.96031 483.18774 648.93261 491.70901 C 648.84549 518.81868 619.3669 531.1806 595.87402 527.09182 C 580.96656 524.49663 566.26095 510.12078 568.15527 494.08401 C 575.40626 498.03341 580.44993 505.44035 588.74706 507.83596 C 609.50696 513.83015 633.56024 496.10232 631.42675 474.28518 C 630.48593 464.66233 623.5623 455.93927 619.7412 447.3594 C 618.45429 444.4688 615.01768 439.93893 618.95995 437.80862 C 620.38069 437.04063 622.70538 435.98063 624.66112 435.97463 z M 539.3037 448.57424 C 541.84688 448.62357 544.25185 451.2724 545.98144 452.78323 C 551.63826 457.72413 556.64095 463.03226 561.75292 468.51565 C 563.78187 470.6911 566.83577 473.34628 565.70409 476.66213 C 564.04339 481.52781 559.11624 486.06871 556.07519 490.12502 C 545.37213 504.40369 529.98738 517.93729 515.88769 528.83596 C 511.01727 532.60084 505.64052 539.03414 500.04784 541.4551 C 492.84436 544.57376 481.54783 526.22471 478.42284 521.00979 C 477.07337 518.75751 474.45892 515.93409 475.60644 513.12112 C 478.10342 506.99784 488.62861 501.12839 493.70019 497.08791 C 504.29713 488.64742 513.96922 478.30544 522.65917 467.91994 C 526.85804 462.90142 531.78279 452.00581 537.52831 449.00198 C 538.12331 448.69074 538.71681 448.56284 539.3037 448.57424 z M 307.90527 460.50783 C 308.29858 460.50961 308.6847 460.5552 309.05761 460.65627 C 313.03552 461.73331 317.43447 468.9421 320.21972 471.90237 C 327.92212 480.08864 336.60394 488.52524 345.84667 494.96291 C 357.33296 502.9615 371.98746 512.95522 385.22948 517.57619 C 396.08063 521.36245 408.01229 524.72045 419.2705 526.96877 C 424.11004 527.93493 429.79615 527.02982 434.23339 529.71291 C 437.48984 531.68246 438.77079 536.06241 440.54394 539.22463 C 444.81724 546.84863 452.2661 553.91645 454.90722 562.19143 C 401.13295 572.3235 350.13359 557.03003 307.60644 523.00198 C 296.7244 514.2946 286.85595 503.48248 278.67284 492.16408 C 276.58925 489.28301 271.11134 482.83922 273.32323 479.18362 C 277.69157 471.96747 292.21256 466.76886 299.68847 463.63674 C 301.98974 462.67216 305.15213 460.49543 307.90527 460.50783 z M 180.10839 461.60354 C 182.74824 461.81182 188.58948 461.56938 190.37792 463.78127 C 193.04319 467.07732 190.84725 475.93154 190.52636 479.81838 C 189.6256 490.72814 191.00815 502.26854 192.43261 513.0801 C 198.34792 557.97673 218.35447 601.57128 256.92675 628.18362 C 314.76842 668.09182 383.82168 685.41799 451.74316 660.70315 C 460.59545 657.48146 472.03351 652.27654 479.46191 646.52151 C 501.61483 629.3586 523.26725 598.62908 555.4873 612.09768 C 559.60697 613.82006 563.90859 615.82406 567.3662 618.67971 C 584.678 632.97905 579.45464 650.92382 569.19823 667.50783 C 551.98226 695.34608 521.15564 719.11315 489.75683 729.25393 C 349.85439 774.43962 192.19745 670.33071 177.583 524.16799 C 175.42686 502.60427 175.36705 482.58835 180.10839 461.60354 z M 416.10253 462.40627 C 428.18277 465.70391 449.98671 473.33041 457.29394 484.16018 C 460.68977 489.19216 461.11475 497.14525 463.47948 502.79494 C 468.28814 514.28519 475.65576 526.32181 484.04003 535.53127 C 492.28016 544.58314 501.40238 553.55061 511.13769 561.00198 C 515.11243 564.04461 522.7714 566.81746 525.36816 571.11135 C 528.81469 576.80936 521.07502 595.14773 516.37011 598.93557 C 512.59572 601.97345 507.54162 598.80132 504.00878 597.02737 C 494.22279 592.11418 485.12652 584.43652 477.06933 577.10158 C 453.49884 555.64398 436.85848 529.28707 425.53612 499.62893 C 421.01019 487.77202 416.20944 475.28479 416.10253 462.40627 z M 549.35253 504.99221 C 549.53657 504.98421 549.72327 504.98973 549.91308 505.00783 C 554.49921 505.44498 561.18153 513.69609 563.8955 517.05471 C 576.97201 533.2372 587.55524 554.91026 590.10448 575.65432 C 590.83069 581.56298 589.44858 587.22059 589.53808 593.07619 C 584.00244 590.49446 580.01023 585.30435 574.4912 582.37893 C 559.58136 574.47775 546.62605 576.15504 530.93456 578.82229 C 531.02088 569.20973 532.82837 559.8443 529.26464 550.31252 C 527.48199 545.54663 519.69885 535.34209 520.81152 530.5176 C 521.71592 526.59512 526.38898 524.0017 529.36034 521.82229 C 534.16187 518.30132 538.06372 513.59606 542.55956 509.69338 C 544.46763 508.03699 546.59193 505.11248 549.35253 504.99221 z M 629.92675 527.34573 C 629.8824 543.51713 621.93435 557.95575 613.09472 570.90237 C 608.44762 577.70909 603.48827 584.4741 595.08105 586.74221 C 595.08105 576.86435 593.11715 566.93246 590.29784 557.43948 C 589.06242 553.28179 584.65738 547.56421 585.60058 543.18557 C 588.81742 528.24326 602.80665 534.47484 613.29589 532.63674 C 619.12615 531.61514 624.22558 528.37366 629.92675 527.34573 z M 366.20995 567.74807 C 385.59109 568.12979 409.2651 581.14319 403.03808 604.16408 C 400.91806 611.99953 393.60847 617.60631 386.80175 621.30862 C 384.36099 622.6367 379.54316 622.82491 377.89355 625.14846 C 376.47519 627.14652 378.8643 628.66968 380.48144 629.2969 C 387.51386 632.02355 396.3796 630.3514 403.43261 628.88869 C 415.59601 626.36557 424.71256 626.43688 434.35839 617.28127 C 440.67252 611.28787 449.2197 599.6993 441.29589 591.5801 C 431.56875 581.61307 416.99149 595.54442 417.68652 607.33205 C 409.53584 604.39672 408.8755 592.04706 412.32519 585.98049 C 418.23468 575.5881 431.54958 568.7111 446.98534 574.5176 C 466.71827 582.70222 462.46315 614.4871 449.12792 626.71877 C 439.3275 635.70815 423.46104 636.93905 410.55956 636.62307 C 405.76595 636.50586 401.08939 635.07997 396.3037 635.84182 C 400.46297 641.31729 408.18224 641.26612 414.51855 642.53323 C 432.47023 646.12466 457.78853 648.32208 473.12206 635.66213 C 477.85153 631.75787 489.99627 612.69611 475.49902 612.52346 C 470.34587 612.46249 466.37674 617.94056 462.03612 620.00198 C 463.97162 612.20136 463.96233 603.6271 471.54198 598.72658 C 483.5755 590.94578 503.18054 594.872 502.03222 612.08401 C 501.27671 623.423 488.33265 634.27316 480.02441 640.86526 C 460.75732 656.15286 432.91841 665.76069 408.18456 662.53908 C 392.6776 660.51884 378.15391 653.57269 362.25097 653.36916 C 353.5436 653.2575 347.22178 660.1931 339.28417 661.57424 C 331.40517 662.94588 317.7411 657.42953 310.77441 654.05666 C 313.29595 649.06982 318.70576 646.45241 321.36034 641.38479 C 322.66783 638.88939 323.47726 636.19389 324.13378 633.46487 C 325.13637 629.29451 324.55699 626.56587 321.65136 623.30862 C 310.56025 610.87755 297.78053 622.17902 285.43261 625.00783 C 282.04153 625.78472 278.52164 625.63021 275.13769 624.89846 C 270.40506 623.87448 265.08308 620.88659 262.41503 616.70119 C 261.03864 614.54316 262.2091 609.32717 259.11816 608.58987 C 256.47309 607.95949 253.54717 610.73741 250.58691 610.36916 C 244.29415 609.58751 236.12541 598.86685 234.74902 593.07619 C 238.82592 593.86654 243.24974 595.51844 247.42089 595.19533 C 252.63581 594.79223 258.08504 591.78929 263.25878 593.10549 C 267.66117 594.22529 270.58156 602.41604 273.52441 602.41604 C 276.10772 602.41604 278.09324 598.18511 280.02636 596.8301 C 284.89442 593.41684 294.06253 591.84213 299.68847 593.84573 C 318.64988 600.60017 324.92366 623.68247 347.20409 625.47463 C 364.08111 626.83202 389.06851 612.64235 381.63378 592.28713 C 378.83903 584.63621 364.93777 576.31521 358.99902 585.20315 C 356.20188 589.38855 359.32913 595.37217 356.22948 599.1719 C 350.90131 605.70223 339.94306 601.63051 339.28417 613.66799 C 327.61653 610.20009 327.04797 593.59251 332.33495 584.36721 C 339.20028 572.38596 353.08276 567.4899 366.20995 567.74807 z M 546.99902 579.81252 C 563.29195 579.70597 582.51299 588.2751 588.49706 600.2051 C 592.67454 608.53235 587.56979 624.44956 584.78612 632.67385 L 583.20214 632.67385 C 573.07799 613.66651 554.75211 603.55041 533.30956 605.02737 C 527.46426 605.42967 522.39571 608.34346 516.6787 608.91604 C 518.08123 602.78801 524.89637 587.7806 530.18652 584.24221 C 534.69642 581.22596 540.62352 579.85422 546.99902 579.81252 z M 525.39355 638.37893 C 515.14308 638.40767 503.74286 642.78725 498.21972 648.25393 C 453.91705 692.10441 376.58492 700.5867 319.48925 680.30276 C 307.90951 676.18863 295.84102 671.33474 285.43652 664.71096 C 277.86716 659.89201 268.55739 650.85404 260.09472 648.50198 C 265.1869 659.39589 273.16462 665.51551 281.32714 673.91799 C 330.85741 724.9055 408.64399 731.17242 474.70995 716.28713 C 498.70255 710.88214 524.87024 703.17852 539.30175 681.76369 C 546.19558 671.53341 550.26856 656.18154 542.56933 645.48244 C 538.89169 640.37245 532.40703 638.35913 525.39355 638.37893 z M 525.39159 643.76174 C 531.86648 643.76412 537.9159 644.42476 539.6455 651.67971 C 535.20747 652.36474 533.32931 655.52495 530.07128 658.27932 C 524.93476 662.62152 518.92639 666.44969 513.51269 670.43948 C 507.80994 674.64308 487.39065 672.41481 492.40917 661.4219 C 493.62083 658.76652 497.08374 657.05137 499.25683 655.27346 C 507.50171 648.52614 514.52776 643.76174 525.39159 643.76174 z M 541.22948 655.64065 C 541.22948 670.99873 535.36573 682.91098 523.01464 692.34377 C 518.05947 696.12766 511.07604 701.63146 505.05175 696.26369 C 500.72301 692.40695 505.96427 685.14414 508.56737 681.84573 C 516.14703 672.24188 529.93405 660.42159 541.22948 655.64065 z M 279.09862 665.93557 L 320.27831 684.60549 L 355.91503 693.31448 L 378.09081 695.58205 L 389.17675 701.84182 L 407.39159 707.90823 C 401.13606 709.95935 396.07241 716.55007 389.96972 717.79104 C 383.4283 719.12149 375.08002 715.77902 368.58691 715.04885 C 337.08752 711.50571 297.95233 691.85575 279.09862 665.93557 z M 486.58495 665.93557 C 489.56423 674.51703 498.40657 676.2297 506.38378 676.23049 C 503.80839 682.92475 494.09414 690.88714 501.1123 698.03518 C 502.86487 699.81942 505.15255 700.94373 507.17675 702.36526 C 495.57325 707.36556 481.77392 709.43121 469.16308 709.49221 C 463.90697 709.51756 458.56201 709.60415 454.35839 705.88283 C 449.02151 701.15891 450.20884 691.36192 453.38769 685.7344 C 458.27395 677.08563 476.6081 667.01895 486.58495 665.93557 z M 448.57323 683.35744 L 445.40527 699.9883 C 430.53186 701.16354 417.6952 704.15035 402.63964 701.63674 C 397.49916 700.77907 389.70262 699.18351 386.80175 694.44533 L 422.43847 691.0508 L 448.57323 683.35744 z M 444.51659 704.80862 C 445.64015 704.80756 446.68057 704.93206 447.55566 705.25002 C 452.91868 707.19978 456.95412 712.20333 462.82714 714.24416 L 445.40527 717.63869 L 397.88769 718.99612 C 403.40275 708.20911 423.94138 708.08545 434.31737 706.38674 C 437.01987 705.94425 441.1459 704.81162 444.51659 704.80862 z " />
  </g>
</svg>
