<?xml version="1.0" encoding="UTF-8" standalone="no"?>
<!-- Created with Inkscape (http://www.inkscape.org/) -->

<svg
   width="97.220421mm"
   height="163.93787mm"
   viewBox="0 0 97.220421 163.93787"
   version="1.1"
   id="svg1"
   inkscape:version="1.2.2 (b0a8486541, 2022-12-01)"
   sodipodi:docname="pattern.svg"
   xmlns:inkscape="http://www.inkscape.org/namespaces/inkscape"
   xmlns:sodipodi="http://sodipodi.sourceforge.net/DTD/sodipodi-0.dtd"
   xmlns="http://www.w3.org/2000/svg"
   xmlns:svg="http://www.w3.org/2000/svg">
  <sodipodi:namedview
     id="namedview1"
     pagecolor="#ffffff"
     bordercolor="#000000"
     borderopacity="0.25"
     inkscape:showpageshadow="2"
     inkscape:pageopacity="0.0"
     inkscape:pagecheckerboard="0"
     inkscape:deskcolor="#d1d1d1"
     inkscape:document-units="mm"
     inkscape:zoom="1.5643378"
     inkscape:cx="133.92248"
     inkscape:cy="170.35962"
     inkscape:window-width="1920"
     inkscape:window-height="1041"
     inkscape:window-x="3640"
     inkscape:window-y="0"
     inkscape:window-maximized="1"
     inkscape:current-layer="layer1"
     showgrid="false" />
  <defs
     id="defs1" />
  <g
     inkscape:label="Layer 1"
     inkscape:groupmode="layer"
     id="layer1"
     transform="translate(-69.920592,-56.83)">
    <path
       id="rect1"
       style="fill:#ffffff;fill-opacity:1;stroke:none;stroke-width:4.33013;-inkscape-stroke:none"
       d="M 69.920592 56.83 L 69.920592 129.54856 L 69.920592 177.59576 L 69.920592 220.7678 L 76.920682 220.7678 L 76.920682 181.63634 L 103.77899 166.12979 L 103.77899 220.7678 L 106.82377 220.7678 L 106.82377 164.37227 L 118.53106 157.613 L 130.23732 164.37124 L 130.23732 220.7678 L 133.2821 220.7678 L 133.2821 166.12927 L 160.14144 181.63634 L 160.14144 220.7678 L 167.14101 220.7678 L 167.14153 220.7678 L 167.14153 56.83 L 167.14101 56.83 L 160.14144 56.83 L 160.14144 125.50591 L 133.2821 141.01349 L 133.2821 102.62307 C 139.30231 98.026403 142.83563 90.886039 142.83811 83.311588 C 142.83611 75.736955 139.30246 68.596365 133.2821 63.999588 L 133.2821 56.83 L 130.23732 56.83 L 130.23732 62.014696 C 126.65082 60.041392 122.62406 59.005817 118.53054 59.004028 C 114.4314 59.025598 110.40429 60.083479 106.82377 62.079292 L 106.82377 56.83 L 103.77899 56.83 L 103.77899 64.068318 C 97.77798 68.650516 94.247071 75.761217 94.223501 83.311588 C 94.247231 90.861776 97.778125 97.972255 103.77899 102.55434 L 103.77899 141.01298 L 76.920682 125.50591 L 76.920682 56.83 L 69.920592 56.83 z M 118.53054 62.915417 C 122.74044 62.917817 126.84043 64.297296 130.23732 66.854194 L 130.23732 99.768464 C 126.84043 102.32537 122.74044 103.70481 118.53054 103.70724 C 114.32087 103.70524 110.2209 102.32669 106.82377 99.770531 L 106.82377 66.852127 C 110.2209 64.295967 114.32087 62.917248 118.53054 62.915417 z M 133.2821 69.686063 C 136.55379 73.427514 138.36501 78.280291 138.36758 83.311588 C 138.36458 88.342707 136.55368 93.195277 133.2821 96.936596 L 133.2821 69.686063 z M 103.77899 69.762027 L 103.77899 96.860632 C 100.52456 93.138734 98.714749 88.316434 98.694029 83.311588 C 98.714629 78.306564 100.52445 73.484057 103.77899 69.762027 z M 106.82377 104.54337 C 110.40429 106.53919 114.4314 107.59707 118.53054 107.61863 C 122.62406 107.61663 126.65082 106.58127 130.23732 104.60796 L 130.23732 142.77152 L 118.53106 149.53028 L 106.82377 142.77101 L 106.82377 104.54337 z M 160.14144 133.58966 L 160.14144 173.55466 L 133.2821 158.04708 L 133.2821 149.09672 L 160.14144 133.58966 z M 76.920682 133.59017 L 103.77899 149.0962 L 103.77899 158.04759 L 76.920682 173.55414 L 76.920682 133.59017 z M 106.82377 150.85424 L 111.53097 153.5719 L 106.82377 156.28956 L 106.82377 150.85424 z M 130.23732 150.85475 L 130.23732 156.28905 L 125.53115 153.5719 L 130.23732 150.85475 z " />
  </g>
</svg>
