<?xml version="1.0" encoding="UTF-8" standalone="no"?>
<!-- Created with Inkscape (http://www.inkscape.org/) -->

<svg
   width="185.77832mm"
   height="185.77884mm"
   viewBox="0 0 185.77832 185.77884"
   version="1.1"
   id="svg1"
   inkscape:version="1.4 (e7c3feb1, 2024-10-09)"
   sodipodi:docname="starburst-mask.svg"
   xmlns:inkscape="http://www.inkscape.org/namespaces/inkscape"
   xmlns:sodipodi="http://sodipodi.sourceforge.net/DTD/sodipodi-0.dtd"
   xmlns="http://www.w3.org/2000/svg"
   xmlns:svg="http://www.w3.org/2000/svg">
  <sodipodi:namedview
     id="namedview1"
     pagecolor="#ffffff"
     bordercolor="#000000"
     borderopacity="0.25"
     inkscape:showpageshadow="2"
     inkscape:pageopacity="0.0"
     inkscape:pagecheckerboard="0"
     inkscape:deskcolor="#d1d1d1"
     inkscape:document-units="mm"
     inkscape:zoom="0.74118967"
     inkscape:cx="344.71608"
     inkscape:cy="468.16626"
     inkscape:window-width="1920"
     inkscape:window-height="1027"
     inkscape:window-x="1080"
     inkscape:window-y="25"
     inkscape:window-maximized="1"
     inkscape:current-layer="layer1" />
  <defs
     id="defs1" />
  <g
     inkscape:label="Layer 1"
     inkscape:groupmode="layer"
     id="layer1"
     transform="translate(-12.110889,-55.610559)">
    <path
       id="path1"
       style="font-variation-settings:normal;opacity:1;vector-effect:none;fill:#ffffff;fill-opacity:1;stroke-width:0.264999;stroke-linecap:butt;stroke-linejoin:miter;stroke-miterlimit:4;stroke-dasharray:0.53, 0.264999;stroke-dashoffset:0;stroke-opacity:1;-inkscape-stroke:none;stop-color:#000000;stop-opacity:1"
       d="m 107.52419,55.610559 -3.68867,68.163281 a 24.809496,24.809496 0 0 0 -6.127789,1.03456 L 71.165165,61.955391 94.292952,126.15147 a 24.809496,24.809496 0 0 0 -4.944401,3.1533 L 41.102401,81.032263 86.678947,131.82451 a 24.809496,24.809496 0 0 0 -3.550171,5.09426 L 19.87889,111.22835 81.653931,140.28136 a 24.809496,24.809496 0 0 0 -1.28416,5.71283 l -68.258882,-0.0186 68.162764,3.68866 a 24.809496,24.809496 0 0 0 1.034562,6.12779 l -62.853011,26.54308 64.196599,-23.12778 a 24.809496,24.809496 0 0 0 3.153295,4.9444 l -48.272505,48.24615 50.791732,-45.57706 a 24.809496,24.809496 0 0 0 5.094779,3.55068 L 67.728682,233.6214 96.781689,171.84636 a 24.809496,24.809496 0 0 0 5.712831,1.28416 l -0.0186,68.25888 3.68866,-68.16328 a 24.809496,24.809496 0 0 0 6.12779,-1.03456 l 26.54257,62.85301 -23.12779,-64.19608 a 24.809496,24.809496 0 0 0 4.9444,-3.1533 l 48.24615,48.27251 -45.57706,-50.79225 a 24.809496,24.809496 0 0 0 3.55069,-5.09427 l 63.24988,25.69043 -61.77504,-29.05301 a 24.809496,24.809496 0 0 0 1.28416,-5.71283 l 68.25888,0.0186 -68.10798,-3.68608 a 24.809496,24.809496 0 0 0 -1.07229,-6.13761 l 62.83596,-26.53584 -64.17231,23.119 a 24.809496,24.809496 0 0 0 -3.14865,-4.96404 l 48.24357,-48.217729 -50.76589,45.553809 a 24.809496,24.809496 0 0 0 -5.0984,-3.58221 l 25.6682,-63.19511 -29.02924,61.72388 a 24.809496,24.809496 0 0 0 -5.7366,-1.28312 z m -2.5244,70.578641 a 22.310698,22.310698 0 0 1 22.31079,22.31078 22.310698,22.310698 0 0 1 -22.31079,22.31078 22.310698,22.310698 0 0 1 -22.310264,-22.31078 22.310698,22.310698 0 0 1 22.310264,-22.31078 z" />
  </g>
</svg>
