<?xml version="1.0" encoding="UTF-8" standalone="no"?>
<!-- Created with Inkscape (http://www.inkscape.org/) -->

<svg
   width="164.04167mm"
   height="47.624996mm"
   viewBox="0 0 164.04167 47.624996"
   version="1.1"
   id="svg291"
   xmlns="http://www.w3.org/2000/svg"
   xmlns:svg="http://www.w3.org/2000/svg">
  <defs
     id="defs288" />
  <g
     id="layer1"
     transform="translate(-26.458333,-58.208333)">
    <path
       id="rect466"
       style="fill:#ffffff;stroke-width:0.264583"
       d="M 26.458333 58.208333 L 26.458333 63.5 L 190.5 63.5 L 190.5 58.208333 L 26.458333 58.208333 z M 72.760416 68.149845 L 70.106315 75.613472 L 62.952229 72.212646 L 66.352539 79.366731 L 58.889428 82.020833 L 66.352539 84.674935 L 62.952229 91.829537 L 70.106315 88.428711 L 72.760416 95.891821 L 75.414518 88.428711 L 82.568603 91.829537 L 79.168294 84.674935 L 86.631404 82.020833 L 79.168294 79.366731 L 82.568603 72.212646 L 75.414518 75.613472 L 72.760416 68.149845 z M 138.90625 68.149845 L 136.25215 75.613472 L 129.09806 72.212646 L 132.49837 79.366731 L 125.03526 82.020833 L 132.49837 84.674935 L 129.09806 91.829537 L 136.25215 88.428711 L 138.90625 95.891821 L 141.56035 88.428711 L 148.71444 91.829537 L 145.31413 84.674935 L 152.77724 82.020833 L 145.31413 79.366731 L 148.71444 72.212646 L 141.56035 75.613472 L 138.90625 68.149845 z M 39.6875 68.791666 A 13.229166 13.229166 0 0 0 26.458333 82.020833 A 13.229166 13.229166 0 0 0 39.6875 95.25 A 13.229166 13.229166 0 0 0 52.916666 82.020833 A 13.229166 13.229166 0 0 0 39.6875 68.791666 z M 105.83333 68.791666 A 13.229166 13.229166 0 0 0 92.604166 82.020833 A 13.229166 13.229166 0 0 0 105.83333 95.25 A 13.229166 13.229166 0 0 0 119.0625 82.020833 A 13.229166 13.229166 0 0 0 105.83333 68.791666 z M 171.97917 68.791666 A 13.229166 13.229166 0 0 0 158.75 82.020833 A 13.229166 13.229166 0 0 0 171.97917 95.25 A 13.229166 13.229166 0 0 0 185.20833 82.020833 A 13.229166 13.229166 0 0 0 171.97917 68.791666 z M 26.458333 100.54167 L 26.458333 105.83333 L 190.5 105.83333 L 190.5 100.54167 L 26.458333 100.54167 z " />
  </g>
</svg>
