<?xml version="1.0" encoding="UTF-8" standalone="no"?>
<svg
   xmlns:dc="http://purl.org/dc/elements/1.1/"
   xmlns:cc="http://creativecommons.org/ns#"
   xmlns:rdf="http://www.w3.org/1999/02/22-rdf-syntax-ns#"
   xmlns:svg="http://www.w3.org/2000/svg"
   xmlns="http://www.w3.org/2000/svg"
   xmlns:sodipodi="http://sodipodi.sourceforge.net/DTD/sodipodi-0.dtd"
   xmlns:inkscape="http://www.inkscape.org/namespaces/inkscape"
   version="1.1"
   viewBox="0 0 500 500"
   id="svg19"
   sodipodi:docname="william-morris-letter-s.svg"
   inkscape:version="1.0.2 (1.0.2+r75+1)">
  <metadata
     id="metadata23">
    <rdf:RDF>
      <cc:Work
         rdf:about="">
        <dc:format>image/svg+xml</dc:format>
        <dc:type
           rdf:resource="http://purl.org/dc/dcmitype/StillImage" />
      </cc:Work>
    </rdf:RDF>
  </metadata>
  <sodipodi:namedview
     pagecolor="#ffffff"
     bordercolor="#666666"
     borderopacity="1"
     objecttolerance="10"
     gridtolerance="10"
     guidetolerance="10"
     inkscape:pageopacity="0"
     inkscape:pageshadow="2"
     inkscape:window-width="1920"
     inkscape:window-height="1016"
     id="namedview21"
     showgrid="false"
     inkscape:zoom="1.686"
     inkscape:cx="255.33808"
     inkscape:cy="250"
     inkscape:window-x="0"
     inkscape:window-y="27"
     inkscape:window-maximized="1"
     inkscape:current-layer="svg19" />
  <defs
     id="defs7">
    <linearGradient
       id="linearGradient847"
       x1="500"
       x2="0"
       y1="500"
       y2="-4.2633e-14"
       gradientTransform="translate(112.495,62.495)"
       gradientUnits="userSpaceOnUse">
      <stop
         stop-color="#ff6700"
         offset="0"
         id="stop2" />
      <stop
         stop-color="#ffd700"
         offset="1"
         id="stop4" />
    </linearGradient>
  </defs>
  <path
     d="m343.91 41.311-10.904 9.4375-15.518 1.0469s-28.519-3.9842-29.357-4.6133-52.215-3.7734-52.215-3.7734l-30.197 7.5488-2.7266 2.0977 10.695 16.146 2.3066 7.7578s46.553-0.20989 46.973 0.62891c0.4194 0.8388 41.311 9.6466 46.764 11.324 5.4522 1.6776 24.324 17.824 24.324 17.824l16.986 36.068 3.1445 14.471s-0.20934 13.839 7.3398 9.0156c7.5492-4.8231 14.68-13.629 14.68-13.629s-2.5172-19.084-3.7754-21.811c-1.2582-2.7261-9.8555-44.875-9.8555-44.875l-6.5-35.648-12.164-9.0176zm-149.1 12.477-33.971 24.012-11.744 25.793s13.211 3.1458 11.953 3.3555c-1.2582 0.20969 1.4688 6.291 1.4688 6.291l-0.41992 4.1934s-0.41902-1.9e-4 -1.2578 0.62891-9.6465 4.8242-9.6465 4.8242l-8.1777 5.6602-2.5176 6.9219 14.26 55.359 16.566 20.131 43.828 30.197s3.4603-1.5734 3.3555-2.0977-3.0422-13.524-3.252-14.363c-0.2097-0.8388 0.31445-21.074 0.31445-21.074l3.5664-19.922s-12.791-8.5982-13.525-9.0176-19.607-16.566-19.607-16.566l-6.502-28.205-1.4668-11.008s4.5077-16.671 4.8223-17.195 8.2832-12.059 8.2832-12.059l16.461-10.484-6.709-15.832-6.082-9.543zm30.826 136.83-2.7266 13.002-0.20899 27.051 5.8711 18.873 36.068 13.631 74.863 42.568 13.84 29.566 0.62891 21.391 24.115-3.5644s17.824 3.1444 16.775 1.4668c-1.0485-1.6776-1.2578-45.715-1.2578-45.715l-15.727-25.793-21.391-31.244-30.195-12.582-49.279-26.213-42.359-21.18-9.0176-1.2578zm-93.965 136.79-3.2617 5.9316 3.5586 48.635-0.29687 45.967 8.3047 10.381 2.0762 10.082 19.869-6.8203 58.125 11.27 0.89062-8.8984 10.379-24.02-19.275-2.0762-23.725-8.6016-22.539-20.166-10.676-29.656-6.8223-20.166-8.8965-11.268-7.7109-0.59375zm242.64 36.637-19.713 2.7246-11.953 22.229s-14.468 16.568-15.307 16.777-29.148 11.742-29.148 11.742l-13.631 38.795 38.584-12.162 24.326-13.842 22.018-22.227 13.631-23.277 2.7266-17.195-11.533-3.5645z"
     fill="#f4eee6"
     id="path11" />
  <g
     id="g17">
    <g
       transform="translate(-146.86,-119.79)"
       id="g15">
      <path
         d="m146.86 619.79v-500h500v500h-500m7.5-7.5h485v-485h-485v485m7.5-7.5v-469.38h469.38v469.38h-469.38m250.62-449.38 1.25 3.125c0.41719 1.6672 1.0422 2.5005 1.875 2.5 2.083 4.7e-4 3.1247-1.8745 3.125-5.625v-0.625l-5.625-5.625c-1.25-1.25-1.8753-2.4995-1.875-3.75-3.1e-4 -2.9162 1.25-4.3745 3.75-4.375 3.7497 4.7e-4 6.8747 2.0838 9.375 6.25l8.125 13.75 8.125 3.125c0.83281 0.41719 2.083 0.625 3.75 0.625-3.1e-4 4.7e-4 1.6662-0.41562 5-1.25l-2.5-2.5h-1.875c-6.2503 4.7e-4 -10.209-2.0828-11.875-6.25-5.417-11.666-11.667-17.5-18.75-17.5-7.917 4.7e-4 -11.875 3.1255-11.875 9.375-3.1e-4 4.1672 3.333 7.0838 10 8.75m-151.25-16.25-16.875 1.875c-5.8334 0.83438-13.125 3.7505-21.875 8.75l-5 3.75c-1.6669 0.83438-4.5834 2.7088-8.75 5.625-3.7502 2.5005-6.0417 5.2088-6.875 8.125v10.625l3.125-1.25 3.125-0.625 31.25-16.25c4.9998-2.0828 10.208-3.1245 15.625-3.125 9.1664 4.7e-4 17.916 2.9172 26.25 8.75l-1.875-0.625 3.75 3.75 1.25 3.75c0.41562 1.25 0.625 2.292 0.625 3.125l0.625 0.625c-1.6e-4 2.0838-0.83438 3.9588-2.5 5.625 1.6664 1.25 3.1248 1.8755 4.375 1.875 5.4164 4.7e-4 8.3331-2.083 8.75-6.25l1.25-8.125 5.625 0.625c-0.41719-5.8328-1.8752-10.625-4.375-14.375l-9.375-3.75-0.625 0.625 1.875-0.625c-5.4169-0.41563-8.1252-1.8745-8.125-4.375-1.6e-4 -0.83281 0.41719-1.25 1.25-1.25 1.6664 4.7e-4 2.7081 0.20938 3.125 0.625l4.375 3.125 6.875 1.875 25.625 13.75c3.3331 0.83438 6.2497 1.25 8.75 1.25h10.625l-1.25-8.75 13.75 1.25c5.8331 0.83438 9.7914-4.3745 11.875-15.625l-2.5-4.375c-2.5003 7.0838-8.5419 10.625-18.125 10.625h-3.125l-43.75-9.375-11.25-1.25-13.75-0.625-13.75 0.625m-58.75 0 1.875 5 0.625 5.625c-1.6e-4 2.0838-1.8752 5.6255-5.625 10.625-0.41719 1.25-1.6667 2.9172-3.75 5h3.75l6.875-6.875c3.3331-3.3328 4.9998-7.2912 5-11.875-1.6e-4 -3.7495-2.9167-6.2495-8.75-7.5m331.88 19.375v-1.25c-4.7e-4 -7.0828 1.8745-10.625 5.625-10.625 1.6662 4.7e-4 3.7495 1.4594 6.25 4.375 1.6662 3.3338 2.4995 6.4588 2.5 9.375l-0.625 5.625c-4.7e-4 2.9172-0.20938 6.4588-0.625 10.625-0.41719 4.167-0.625 6.667-0.625 7.5-4.7e-4 2.917 0.83281 5.8338 2.5 8.75v-8.75c-0.41719-2.083-0.625-3.958-0.625-5.625 0.41563-1.6662 0.83281-3.333 1.25-5l6.875-15v-2.5c-4.7e-4 -5.4162-3.5422-10.625-10.625-15.625-1.25-0.41562-3.1255-0.625-5.625-0.625-7.5005 4.7e-4 -11.25 3.5422-11.25 10.625-4.7e-4 2.0838 1.6662 4.7922 5 8.125m-359.38-16.875-2.5 0.625 3.75 6.875 1.25 3.125 0.625 1.25 1.25 3.75-2.5 1.875 2.5 13.125-0.625 4.375-1.875 5-1.875 10-1.25 6.25-2.5 14.375 0.625 7.5h-0.625v9.375c-1.6e-4 2.917-1.6e-4 6.667 0 11.25 0.41719 4.5838 0.83281 9.792 1.25 15.625l2.5 10.625 2.5 8.125c2.0833 7.917 3.5416 12.917 4.375 15 1.25 2.0836 2.9166 3.7503 5 5 7.4998-3.7497 11.25-6.0414 11.25-6.875l-2.5-19.375-0.625-3.125c-0.41719-6.6662 1.0422-12.083 4.375-16.25 3.3333-4.583 7.7083-6.6662 13.125-6.25h3.125c-0.83281-8.7497-3.9584-13.125-9.375-13.125-2.5002 3.1e-4 -4.5834 0.83438-6.25 2.5v-13.125l-10 11.25-1.25 2.5-3.125 6.875c-1.6e-4 1.25-0.41719 3.1253-1.25 5.625-0.41719 2.0838-0.625 3.7503-0.625 5-1.6e-4 1.25 0.625 3.1253 1.875 5.625v3.75h-3.125c-1.25-5.4162-1.8752-9.3747-1.875-11.875l0.625-7.5c0.41719-5.4162 1.0422-9.9997 1.875-13.75 0.83281-4.1662 1.6666-7.4995 2.5-10l10-21.875c2.4998-5.4162 3.7498-10.833 3.75-16.25-1.6e-4 -0.83281-0.20781-2.083-0.625-3.75-1.6e-4 -1.6662-0.20781-3.5412-0.625-5.625-2.5002 1.25-4.3752 1.8755-5.625 1.875-0.83281 4.7e-4 -1.25-0.41562-1.25-1.25-1.6e-4 -1.6662 0.83281-4.7912 2.5-9.375-1.6e-4 -4.9995-1.8752-9.3745-5.625-13.125l-2.5-1.25-0.625-1.25-5-1.875-5-1.25m293.12 0.625h-1.875c-1.667 4.7e-4 -3.1253 1.0422-4.375 3.125v1.25c-3.1e-4 4.1672 1.6662 6.2505 5 6.25 3.333 4.7e-4 4.9995-2.2912 5-6.875-4.7e-4 -2.4995-1.25-3.7495-3.75-3.75m-91.875 7.5c0.41719 0.83438 0.625 2.5005 0.625 5-3.1e-4 6.6672-6.2503 10-18.75 10-2.0836 4.7e-4 -5.6253-0.625-10.625-1.875l-1.25 1.25c4.5831 1.6672 9.5831 2.5005 15 2.5 14.583 4.7e-4 21.875-5.2078 21.875-15.625-3.1e-4 -4.5828-2.0836-6.8745-6.25-6.875-2.0836 4.7e-4 -3.1253 0.625-3.125 1.875-3.1e-4 1.25 0.83281 2.5005 2.5 3.75m204.38-3.75c-19.584 4.5838-29.375 17.084-29.375 37.5-4.7e-4 12.084 5.4162 23.125 16.25 33.125l4.375 3.125 6.875 5 7.5 4.375c-0.83438-2.4997-1.8755-4.1662-3.125-5-0.83438-0.83281-4.3755-3.5412-10.625-8.125-10.834-7.4995-16.25-18.333-16.25-32.5-4.7e-4 -7.4995 2.7078-13.75 8.125-18.75 5.8328-5.4162 12.5-8.1245 20-8.125 7.0828 4.7e-4 13.958 3.3338 20.625 10 2.9161 5.4172 4.3745 9.5838 4.375 12.5l-3.75 7.5-0.625-0.625c-2.0839 2.0838-3.7505 3.1255-5 3.125-1.6672 4.7e-4 -2.9172-0.20781-3.75-0.625-0.83437-2.083-1.6672-3.958-2.5-5.625-0.41719-2.083-1.0422-4.1662-1.875-6.25-0.83437-0.83281-1.8755-1.4578-3.125-1.875-0.83437-0.83281-2.0839-1.6662-3.75-2.5 2.0828 5.0005 2.4995 8.9588 1.25 11.875-0.83437 2.0838-1.4594 3.7505-1.875 5-0.41719 0.83438-0.83437 1.667-1.25 2.5-4.7e-4 4.7e-4 0.20781 0.20938 0.625 0.625 0.41563 4.7e-4 1.0406 0.20938 1.875 0.625l11.25 7.5c2.4995 0.83438 4.5828 1.25 6.25 1.25 12.916 4.7e-4 19.375-7.708 19.375-23.125-4.7e-4 -9.1662-4.1672-14.166-12.5-15l-1.25-1.875c0.83281 0.41719 2.7078 0.625 5.625 0.625 5.4161 4.7e-4 8.1245-2.4995 8.125-7.5-4.7e-4 -0.83281-1.8755-1.6662-5.625-2.5h0.625l-7.5-3.125c-9.1672-3.3328-15.417-4.9995-18.75-5h-4.375l-6.25 1.875m-66.25 18.125 1.875 2.5c-2.917-12.916-11.459-19.375-25.625-19.375-11.667 4.7e-4 -17.5 2.2922-17.5 6.875v0.625c0.41563 1.25 1.4578 1.8755 3.125 1.875 1.25 4.7e-4 3.7495-0.625 7.5-1.875 4.1662-1.6662 7.2912-2.4995 9.375-2.5 6.2495 4.7e-4 13.333 3.9588 21.25 11.875m-60.625-16.25c-2.917 4.7e-4 -4.5838 1.25-5 3.75v1.25c-3.1e-4 3.7505 1.8747 5.6255 5.625 5.625 3.333 4.7e-4 4.9997-1.6662 5-5-3.1e-4 -3.7495-1.8753-5.6245-5.625-5.625m9.375 10c-1.667 4.7e-4 -2.917 1.0422-3.75 3.125v1.25c-3.1e-4 2.5005 1.25 3.7505 3.75 3.75 2.9162 4.7e-4 4.3747-1.25 4.375-3.75-3.1e-4 -2.9162-1.4594-4.3745-4.375-4.375m55.625 11.875v2.5h-2.5c-2.0838-3.3328-3.7505-5.2078-5-5.625-0.83437-0.83281-3.9588-1.25-9.375-1.25l2.5 3.125 4.375 10.625 6.875-1.25 0.625 0.625v0.625l-0.625 1.25v15.625c-4.7e-4 1.667-0.83437 5.6255-2.5 11.875l0.625 2.5c2.083-0.83281 3.1245-2.4995 3.125-5 0.41563-1.6662 1.25-4.7912 2.5-9.375 1.25-4.583 1.8745-8.1245 1.875-10.625v-3.125c-4.7e-4 -2.083-0.20937-3.7495-0.625-5l6.875-3.75-1.25-8.75 1.25-5.625-1.25-0.625c-4.5838 4.7e-4 -7.0838 3.7505-7.5 11.25m-44.375-10.625c-1.667 0.83437-2.7088 2.0838-3.125 3.75l-0.625 1.875c-4.7e-4 2.5005 1.4578 3.7505 4.375 3.75 3.333 4.7e-4 4.9995-1.4578 5-4.375-4.7e-4 -3.3328-1.667-4.9995-5-5h-0.625m-121.25 16.25 4.375 6.875c1.6664 4.167 3.3331 6.2505 5 6.25 0.83281 4.7e-4 2.4997-0.41563 5-1.25 2.4997-0.83281 4.3747-1.25 5.625-1.25h1.25l22.5-1.25c17.916-1.6662 36.666 2.917 56.25 13.75 17.916 10.834 29.791 23.334 35.625 37.5l3.125 6.875c1.6662 5.0003 4.7912 12.5 9.375 22.5 1.6662 5.0003 3.5412 7.5003 5.625 7.5 2.4995 3.1e-4 3.7495-2.9162 3.75-8.75-4.7e-4 -2.4997-0.20937-3.958-0.625-4.375l-3.75-17.5-10-65.625v-8.75c-2.0838-1.25-3.3338-1.8745-3.75-1.875-1.25 4.7e-4 -2.917 1.0422-5 3.125-3.7505 4.1672-7.5005 6.2505-11.25 6.25-3.7505 4.7e-4 -8.3338-0.625-13.75-1.875-21.667-4.5828-44.792-6.8745-69.375-6.875-12.084 4.7e-4 -20.834 0.625-26.25 1.875l-8.75 2.5c-3.7503 0.83437-5.6253 2.0838-5.625 3.75l0.625 0.625m-35.625-8.75 1.25 3.75c0.83281 3.3338 1.25 4.792 1.25 4.375-3.1e-4 1.25-0.83281 2.5005-2.5 3.75l-6.25 2.5-5.625-6.25-1.25 1.875c-0.83281 0.83437-1.25 1.667-1.25 2.5-1.6e-4 5.8338 3.7498 8.7505 11.25 8.75 7.4997 4.7e-4 11.25-3.958 11.25-11.875-3.1e-4 -6.2495-2.7086-9.3745-8.125-9.375m247.5 4.375c-4.1672 2.5005-6.2505 7.0838-6.25 13.75-4.7e-4 4.5838 1.25 9.5838 3.75 15l1.875 3.75 2.5 3.125 3.75 5 6.875 6.25 1.25-1.25c-10.417-8.7495-15.625-17.291-15.625-25.625-4.7e-4 -9.583 3.5412-14.375 10.625-14.375 1.6661 4.7e-4 3.5411 0.625 5.625 1.875-4.7e-4 -6.6662-2.2922-9.9995-6.875-10h-1.875l-5.625 2.5m-225.62-0.625 4.375 4.375c3.7497 4.5838 6.8747 10.209 9.375 16.875l1.875 4.375 1.25 10.625 6.875 0.625c-0.83281-11.25-5.4169-22.291-13.75-33.125-3.3336-3.7495-5.8336-5.6245-7.5-5.625-0.83437 4.7e-4 -1.25 0.20937-1.25 0.625l-1.25 1.25m165.62 48.75 1.25 5c0.41563 1.25 0.83281 2.917 1.25 5 0.41563 1.667 1.0406 3.9588 1.875 6.875l0.625 8.75 3.75 20.625c-4.7e-4 3.7503-2.292 7.292-6.875 10.625 1.25 0.41719 2.083 0.83437 2.5 1.25 0.83281 3.1e-4 1.25 3.1e-4 1.25 0-4.7e-4 3.1e-4 1.6662-0.41563 5-1.25l2.5-9.375-15.625-93.75-1.875 9.375c0.41563-1.25 1.8745 11.042 4.375 36.875m-236.25-35h-3.125c-1.25 4.7e-4 -1.8752 0.20937-1.875 0.625-1.6e-4 -0.41563 0.41563 1.0422 1.25 4.375l8.75 8.75 1.25 1.875 0.625 0.625c-1.6e-4 2.917 1.0406 4.3755 3.125 4.375v6.875l0.625 1.875 0.625 3.75 1.875 5.625 3.75-3.75-2.5 6.875 8.125-5.625v2.5l-4.375 5h-0.625l0.625 2.5c2.0831-0.41563 3.7498-0.625 5-0.625 1.25-0.41563 2.0831-0.625 2.5-0.625 4.5831 3.1e-4 9.5831 2.0838 15 6.25-1.6669-5.4162-5.4169-8.7497-11.25-10h-2.5l-1.875-1.25c1.25-2.9162 1.8748-5.208 1.875-6.875l-0.625-3.75-13.125 1.875c0.41719-1.25 0.625-3.7495 0.625-7.5-1.6e-4 -1.25-0.41719-3.5412-1.25-6.875l-6.25-20-1.25-8.75-0.625-0.625c-0.41719 0.41719-0.83281 0.83437-1.25 1.25-0.41719 4.7e-4 -0.83437 0.20937-1.25 0.625-1.6669 1.667-2.5002 3.7505-2.5 6.25l0.625 4.375m-18.125-0.625c0.83281 2.5005 1.25 3.542 1.25 3.125-1.6e-4 0.83437-0.83281 1.4594-2.5 1.875l1.25-0.625h-1.875c-1.6e-4 -2.9162-1.0422-5.4162-3.125-7.5l-8.125 8.125v1.875l1.25 9.375-1.875 3.75v6.25h-2.5c-1.6669 4.7e-4 -2.5002-0.625-2.5-1.875-1.6e-4 -1.25 0.41719-2.708 1.25-4.375 1.25-1.6662 1.8748-2.9162 1.875-3.75-0.41719-0.41563-0.625-0.83281-0.625-1.25-1.6e-4 -0.83281-0.20781-1.4578-0.625-1.875l-4.375-0.625v-2.5c-1.6e-4 -5.833-2.2919-10.416-6.875-13.75v3.75c-1.6e-4 4.5838-1.25 8.7505-3.75 12.5l-3.125 3.75c-0.83281 1.667-2.0834 4.5838-3.75 8.75-1.25 3.7505-1.8752 7.0838-1.875 10-1.6e-4 11.667 3.7498 18.125 11.25 19.375l10.625 1.25-1.25 4.375c-2.5002 4.5838-3.7502 7.917-3.75 10-1.6e-4 1.667 1.8748 7.0838 5.625 16.25 9.5831 12.084 19.375 19.584 29.375 22.5l15 4.375 18.125 0.625h0.625c-1.6e-4 -2.9164-2.7086-4.3747-8.125-4.375l-3.75 0.625c-1.6e-4 3.1e-4 -2.0836-0.41719-6.25-1.25-10.834-2.083-20-6.2497-27.5-12.5-7.0834-6.6662-10.625-13.958-10.625-21.875-1.6e-4 -4.583 1.6666-6.8747 5-6.875l1.25 0.625h1.25l3.75 5c1.25 1.667 4.5831 2.5003 10 2.5 8.3331 3.1e-4 16.666-2.9162 25-8.75 7.9164-6.6662 12.5-10.208 13.75-10.625l3.75-1.25 1.25-2.5c-0.83281-1.6662-2.5002-2.708-5-3.125-0.83281-1.25-1.8752-1.8747-3.125-1.875-1.6669 3.1e-4 -2.7086 0.20937-3.125 0.625l-2.5-0.625-4.375 1.875v0.625l-3.125 0.625-0.625-5-5 0.625-6.875 7.5 2.5-1.25-3.75-0.625c5.4164-6.6662 8.1248-11.875 8.125-15.625-1.6e-4 -2.083-0.625-6.0412-1.875-11.875l-5 2.5c-2.0836-6.6662-6.2502-11.875-12.5-15.625l-1.875-0.625-2.5 4.375-3.75 5v2.5c-1.6e-4 2.0838-0.625 3.7505-1.875 5-2.0834-2.083-3.5419-3.1245-4.375-3.125-1.25 0.41719-2.2919 1.8755-3.125 4.375v4.375l0.625 3.75c0.41719 1.25 0.625 2.917 0.625 5-1.6e-4 3.7503-1.6669 5.6253-5 5.625l-3.125-0.625-3.125-5-1.25-9.375-2.5-4.375-5.625 6.25-1.875-0.625c-1.25-4.1662-1.8752-7.2912-1.875-9.375-1.6e-4 -0.83281 1.0422-4.3745 3.125-10.625l1.875 0.625v0.625l0.625 0.625c-2.0834 5.0005-3.1252 7.917-3.125 8.75l0.625 5 2.5-2.5 1.875-7.5 2.5 0.625-1.25 3.75 4.375 1.25-0.625 2.5 1.25 2.5 0.625 1.875h3.75v2.5h-1.875c-0.41719 4.7e-4 -0.625 0.41719-0.625 1.25v3.75l1.25 3.125 0.625-3.125 3.125-0.625-0.625-10c0.83281-1.6662 1.8748-3.958 3.125-6.875 1.25-2.9162 2.2916-6.458 3.125-10.625l2.5-1.25-0.625 6.25-0.625 5 6.25-12.5 5-0.625c2.9166 4.7e-4 6.6664 2.5005 11.25 7.5l3.125 4.375 0.625 1.875 2.5 0.625c-0.83437-4.9995-3.1252-8.958-6.875-11.875-0.83437-0.83281-1.8752-2.2912-3.125-4.375-1.25-2.083-2.7084-4.583-4.375-7.5l6.25-1.25 3.125-8.75h-2.5l-4.375 1.25c-3.7502 1.25-7.5002 4.5838-11.25 10m88.125-5c-21.25 11.667-34.584 26.25-40 43.75l8.75 3.75 3.125 4.375 1.25 1.875-3.125 7.5-8.75 2.5-1.875 3.125-6.25 3.125c-0.83281 3.1e-4 -1.25 1.4594-1.25 4.375-1.6e-4 1.25-1.6e-4 2.917 0 5 0.41719 1.667 0.83281 3.542 1.25 5.625l1.25 9.375c0.83281 7.0836 4.3748 15.834 10.625 26.25l6.25 8.75 5.625 7.5c5.4164 5.417 10.208 10.209 14.375 14.375 4.5831 3.7503 8.7497 6.6669 12.5 8.75 0.41719 0.41719 1.6664 1.25 3.75 2.5 2.0831 1.25 4.9997 3.1253 8.75 5.625 1.6664 1.6669 3.3331 2.5003 5 2.5 0.83281 3.1e-4 1.25-0.41719 1.25-1.25v-6.25c-0.41719-1.25-0.625-3.3331-0.625-6.25v-15l1.25-5c0.41719-1.25 0.625-2.708 0.625-4.375 1.25-1.6664 1.8747-2.9164 1.875-3.75-0.41719-0.41719-0.83437-0.83281-1.25-1.25-0.41719-0.41563-1.0422-0.83281-1.875-1.25l-1.25-1.25-3.125-1.875-5-4.375-9.375-7.5c-16.667-14.166-25-30-25-47.5-3.1e-4 -22.083 8.5414-37.916 25.625-47.5l6.25-3.125c-1.6669-9.1662-4.5836-13.75-8.75-13.75l-1.875 0.625m65.625 9.375c-2.917-0.41563-5.2086-0.625-6.875-0.625-1.25-0.41563-2.0836-0.625-2.5-0.625-4.167 4.7e-4 -6.667 0.20937-7.5 0.625l-4.375 0.625-10.625 0.625-6.875 2.5h-3.125v1.25c-3.1e-4 1.667 0.625 2.5005 1.875 2.5 0.83281 4.7e-4 2.2914-0.20781 4.375-0.625 2.4997-0.41563 4.3747-0.83281 5.625-1.25h8.125l20.625-1.875c9.1664-0.41563 20.416 1.4594 33.75 5.625l0.625-1.25c-9.5838-3.333-20.625-5.833-33.125-7.5m161.25 35.625 1.25-1.25c-1.25-0.41563-3.5422-1.0406-6.875-1.875-20.417-3.7495-30.625-9.583-30.625-17.5-4.7e-4 -3.333 2.4995-6.6662 7.5-10-0.41719-0.41563-1.6672-0.625-3.75-0.625-8.3338 4.7e-4 -12.5 4.792-12.5 14.375-4.7e-4 5.8338 2.7078 9.792 8.125 11.875 5.8328 2.0838 18.125 3.7505 36.875 5m-222.5-25.625c-17.084 10.834-24.792 26.459-23.125 46.875v3.125l2.5 8.75 0.625 6.875 4.375 4.375-4.375-25 1.25-8.75 2.5-11.875 5.625-8.75 3.125-3.75 14.375-10.625c1.25-0.41563 1.8747-1.4578 1.875-3.125-3.1e-4 -1.6662-0.625-2.4995-1.875-2.5v0.625l-6.875 3.75m-145 3.125-1.25 2.5h-0.625v1.25c-3.3334 5.0005-6.0417 11.042-8.125 18.125l5.625-6.875 1.25-3.125c1.25-2.9162 6.6666-6.6662 16.25-11.25-2.5002-3.333-4.5834-4.9995-6.25-5h-0.625l-1.25 0.625-5 3.75m171.25-1.875-0.625 9.375c0.83281 2.0838 2.708 5.0005 5.625 8.75 3.7497 5.8338 8.333 8.7505 13.75 8.75 7.9164 4.7e-4 11.875-2.9162 11.875-8.75-3.1e-4 -0.41563-0.41719-2.2912-1.25-5.625-3.3336 4.5838-6.4586 6.8755-9.375 6.875-7.917 4.7e-4 -14.584-6.458-20-19.375m215 16.875c1.25 4.167 3.1245 6.2505 5.625 6.25-0.41719-1.25-0.625-3.5412-0.625-6.875-4.7e-4 -3.7495 1.25-5.6245 3.75-5.625h0.625l4.375 1.25-1.25-6.25c-0.83437-0.83281-2.5005-1.25-5-1.25-5.4172 4.7e-4 -7.9172 2.7088-7.5 8.125v4.375m-232.5-3.125c5.8331 4.7e-4 10.833 1.4594 15 4.375l0.625-3.125c-3.1e-4 -1.25-1.667-2.4995-5-3.75-3.3336-0.83281-5.2086-1.25-5.625-1.25-2.9169 4.7e-4 -4.5836 1.25-5 3.75m60 0.625c0.41719 1.667 0.625 2.917 0.625 3.75 0.41719 0.83437 0.625 1.25 0.625 1.25v2.5c-3.1e-4 2.0838-0.20937 3.7505-0.625 5l-0.625 1.875c-3.1e-4 0.83437 0.41719 1.667 1.25 2.5l1.25 0.625-0.625 2.5-5.625-1.25 1.25 6.875 1.875 3.125 1.875 1.875 0.625 1.875 2.5 0.625v1.25c2.9162 1.25 5.4162 1.8753 7.5 1.875 1.25 3.1e-4 1.8747-0.41563 1.875-1.25-3.1e-4 3.1e-4 -0.20937-0.20781-0.625-0.625-3.1e-4 -0.83281-0.20937-1.8747-0.625-3.125l3.125-1.25 1.25 3.125 2.5 5c1.6662-1.6662 2.4997-2.9162 2.5-3.75-3.1e-4 -1.25-0.83437-3.1247-2.5-5.625-1.25-2.4997-2.0838-4.9997-2.5-7.5l1.875-0.625c0.83281 3.1e-4 1.25 1.25 1.25 3.75l1.25 1.875 1.25 3.125 2.5 2.5 1.875-3.125-3.125-9.375 3.125 1.25 1.875 5.625 3.125-1.875-1.875-6.25-5.625-8.125c-4.167-5.833-12.292-9.1662-24.375-10m186.25 15.625-2.5 1.25-0.625-0.625-1.875-2.5-3.125-1.875c-0.41719 1.25-0.625 3.542-0.625 6.875-4.7e-4 3.7503 1.8745 6.8753 5.625 9.375 7.9161 5.8338 13.541 12.084 16.875 18.75l0.625 1.25 4.375 10c1.25 3.7503 1.8745 6.2503 1.875 7.5-4.7e-4 2.0836-0.20937 3.542-0.625 4.375-1.25-0.83281-2.2922-2.9164-3.125-6.25-0.83437-4.9997-3.9589-12.5-9.375-22.5-5.0005-4.583-9.5839-7.9162-13.75-10l-4.375-1.875c-4.1672-0.83281-6.2505-1.25-6.25-1.25-2.0839 3.1e-4 -6.0422 1.667-11.875 5-2.9172 2.917-4.3755 5.0003-4.375 6.25 0.83281 0.83437 2.9162 1.4594 6.25 1.875l-0.625 1.875h-2.5c-3.7505 3.1e-4 -5.6255 2.292-5.625 6.875-4.7e-4 7.5003 4.3745 11.459 13.125 11.875-4.7e-4 -7.9162 2.9161-11.875 8.75-11.875 12.083 3.1e-4 21.666 12.292 28.75 36.875v11.875c0.83281 14.584-3.5422 28.542-13.125 41.875l-5 6.875c-4.1672 2.5003-6.2505 4.7919-6.25 6.875l0.625 5c24.166-16.25 36.25-43.125 36.25-80.625-4.7e-4 -15.416-1.6672-27.083-5-35l-8.125-16.25c-1.25-2.9162-1.8755-6.2497-1.875-10-4.7e-4 -4.1662 2.9161-7.9162 8.75-11.25v-1.25c-2.9172-2.9162-6.0422-4.3745-9.375-4.375-8.3339 4.7e-4 -12.5 3.9588-12.5 11.875l0.625 3.125m-253.12 0-3.75 10.625-0.625 2.5c-2.5003 3.7503-5.2086 5.6253-8.125 5.625-2.0836 3.1e-4 -3.5419-0.20781-4.375-0.625v2.5c1.6664 2.917 3.5414 4.3753 5.625 4.375 3.3331 3.1e-4 5.4164-0.20781 6.25-0.625v2.5l-4.375 3.75 2.5 0.625c8.7497-2.9162 13.541-7.9162 14.375-15 2.0831-9.583 3.7497-14.375 5-14.375 0.83281 3.1e-4 1.4578 0.625 1.875 1.875 0.83281 0.83437 1.25 1.4594 1.25 1.875-3.1e-4 1.667-0.625 3.3338-1.875 5l-11.875 23.75c-0.41719 1.667-0.83437 2.917-1.25 3.75-3.1e-4 0.83437-3.1e-4 1.667 0 2.5-3.1e-4 0.83437 0.20781 1.25 0.625 1.25 0.83281-0.41563 1.6664-0.625 2.5-0.625 0.83281-0.41563 1.8747-1.0406 3.125-1.875v2.5c-3.3336 2.0838-4.7919 5.6253-4.375 10.625v2.5c2.4997 5.0003 5.2081 7.5003 8.125 7.5 0.41563 3.1e-4 0.83281-0.20781 1.25-0.625-3.1e-4 -1.25-0.41719-2.9164-1.25-5-0.83437-2.4997-1.25-4.3747-1.25-5.625-3.1e-4 -2.083 0.83281-4.583 2.5-7.5 8.7497-18.333 13.333-32.708 13.75-43.125v-1.25c-3.1e-4 -2.083-1.25-4.7912-3.75-8.125-2.0836-2.083-4.5836-3.1245-7.5-3.125l-1.25-1.25c-0.41719-0.41563-0.83281-0.625-1.25-0.625-6.6669 4.7e-4 -10.625 4.5838-11.875 13.75m115-13.75 1.25 5c0.41563 0.83437 0.625 2.5005 0.625 5-3.1e-4 1.667-1.0422 4.167-3.125 7.5l-4.375 3.125-5.625 5-3.125 1.875c-5.8338 4.5838-8.7503 8.7503-8.75 12.5l0.625 5.625 0.625 1.875 3.75 5.625c5.4162 4.167 11.041 6.2503 16.875 6.25 8.7497 3.1e-4 15.416-3.5412 20-10.625 3.7495-4.9997 6.2495-8.1247 7.5-9.375 1.6662-1.25 2.2912-2.2912 1.875-3.125v-1.875c-2.917-1.6662-5.8338-2.4997-8.75-2.5-4.5838 3.1e-4 -7.917 1.0422-10 3.125l-1.875 2.5-5 0.625v-1.25c7.9162-5.4162 11.875-11.875 11.875-19.375-4.7e-4 -9.1662-4.792-15-14.375-17.5m75.625 9.375-13.125 4.375c-3.3338 0.83437-5.0005 1.8753-5 3.125l0.625 4.375 0.625 3.125 5.625-2.5c10.416-4.9997 20.208-7.4997 29.375-7.5 7.0828 3.1e-4 16.875 3.1253 29.375 9.375l6.25 1.25c-1.6672-4.1662-5.0005-7.2912-10-9.375l-1.25 1.25-7.5-4.375-10-2.5-15.625-1.25h-5.625l-3.75 0.625m-161.25 6.25-1.875 6.25c1.25-0.41563 2.083-0.625 2.5-0.625 0.83281-0.41563 1.25-0.625 1.25-0.625 0.83281 3.1e-4 2.083 1.25 3.75 3.75 2.083 2.5003 3.1247 4.3753 3.125 5.625-3.1e-4 2.5003-1.25 5.8338-3.75 10l-3.125 8.125-6.875 17.5-2.5 6.25-2.5 9.375 1.25 3.75 1.25-0.625c0.83281-2.9164 1.6664-5.6247 2.5-8.125 0.83281-2.4997 1.6664-4.7914 2.5-6.875l13.75-26.25c2.4997-5.4162 3.7497-10.625 3.75-15.625-3.1e-4 -8.7497-3.542-13.125-10.625-13.125h-1.25l-3.125 1.25m159.38 8.125-4.375 5.625c-2.0838 5.0003-3.1255 7.7088-3.125 8.125-4.7e-4 2.0838 0.625 4.5838 1.875 7.5 2.9162 5.417 6.6662 8.1253 11.25 8.125 6.6662 3.1e-4 10.416-1.0406 11.25-3.125l2.5-5c0.83281-0.83281 1.25-1.6662 1.25-2.5-4.7e-4 -1.6662-0.625-2.4997-1.875-2.5l-1.25 0.625c-1.25 3.3338-2.9172 5.0003-5 5-5.8338 3.1e-4 -8.7505-3.1247-8.75-9.375-4.7e-4 -9.9997 6.6662-15 20-15 2.9162 3.1e-4 7.0828 1.0422 12.5 3.125 3.3328 0.83437 4.7911 1.25 4.375 1.25h1.25l1.875-1.25-1.25-0.625-1.25-1.875-5-2.5c-5.0005-1.6662-10.625-2.4997-16.875-2.5-9.1672 3.1e-4 -15.625 2.292-19.375 6.875m-50-3.125-3.75 3.125-1.875 1.25c-2.5005 2.0838-3.7505 3.7503-3.75 5 0.41563 0.41719 1.25 0.625 2.5 0.625-4.7e-4 3.1e-4 1.25-0.41563 3.75-1.25l5-3.75-1.875-5m-66.875 14.375-24.375 8.125c1.6664 3.7503 4.9997 6.042 10 6.875l-0.625 1.25c-5.0003 3.1e-4 -8.7503 1.25-11.25 3.75l-5 5.625c-1.667 2.917-2.5003 6.2503-2.5 10v1.25c1.6664-0.41563 2.9164-0.625 3.75-0.625 0.83281-0.41719 1.25-0.625 1.25-0.625 4.1664 3.1e-4 9.1664 2.292 15 6.875 2.9164 2.917 5.208 4.3753 6.875 4.375 1.6664 3.1e-4 4.7914-1.25 9.375-3.75l0.625 1.875 1.25-2.5-5 6.875-0.625 1.875 8.125 0.625c4.9997 0.41719 9.583-0.83281 13.75-3.75 4.583-3.333 7.2912-6.8747 8.125-10.625l1.875-8.75-6.875 1.875-3.125 0.625 1.875-2.5 5-2.5-1.25-1.25-15 3.75 15.625-7.5h-4.375l-1.25-1.875-13.125 1.25c-3.3338 2.0838-5.8338 3.3338-7.5 3.75l-4.375-0.625 6.875-3.75c0.41563-0.41563 4.9997-2.2912 13.75-5.625-0.83437-2.083-1.4594-3.1247-1.875-3.125-0.83437 3.1e-4 -2.7088 0.41719-5.625 1.25-2.5003 0.83438-4.5838 1.25-6.25 1.25l11.875-4.375-0.625-1.875h-9.375l-0.625-1.875 10-1.25c-1.25-2.083-3.542-3.1247-6.875-3.125l-7.5-1.25m74.375 6.875c-5.8338 9.167-8.542 18.959-8.125 29.375v3.75l0.625 5v6.25c0.41563 4.167 1.0406 8.3336 1.875 12.5 1.25 3.7503 2.708 7.5003 4.375 11.25l0.625 1.25c6.2495 13.334 17.083 25.834 32.5 37.5l2.5 6.25v1.875c2.4995-0.41563 4.1662-1.8747 5-4.375h2.5l-0.625 0.625 1.875 3.75c1.6662 2.0836 4.7912 3.9586 9.375 5.625 2.9162 1.25 4.7912 3.5419 5.625 6.875l1.25 5c4.5828-3.3331 7.0828-8.1247 7.5-14.375l-0.625-2.5-3.125-4.375 1.25-1.25 6.25 3.125v-3.75c0.83281-4.1664-0.83437-7.0831-5-8.75l-10.625-3.125h1.25v-1.875l4.375 0.625 13.75 2.5h3.125c3.7495 3.1e-4 7.0828-0.83281 10-2.5l8.125-4.375 1.25-1.25 0.625-1.25v-0.625c-4.7e-4 -1.6664-2.0839-3.9581-6.25-6.875l11.875-1.875 9.375-11.25 3.125-3.125-0.625-3.75-5.625-5c-0.83437-0.41719-2.0839-0.625-3.75-0.625-3.3339 3.1e-4 -7.5005 1.25-12.5 3.75l-1.875-1.25-1.25-10.625-1.875 0.625c-5.4172 1.667-9.3755 5.2086-11.875 10.625-8.3338 8.3336-13.334 12.084-15 11.25h-4.375v-1.875c-4.7e-4 -0.83281 1.6662-1.6664 5-2.5 7.4995-1.6664 15.208-9.3747 23.125-23.125 0.83281-2.4997 1.25-4.3747 1.25-5.625v-1.875l-1.875-7.5 0.625-5.625c-0.41719 3.1e-4 -0.83437-0.20781-1.25-0.625h-1.25c-1.6672 3.1e-4 -3.3338 0.83437-5 2.5l-2.5 2.5c-5.4172-9.1662-12.292-13.75-20.625-13.75-1.6672 3.1e-4 -3.3338 0.83437-5 2.5-5.4172 2.5003-8.1255 6.4586-8.125 11.875l1.25 5.625c2.4995 2.5003 5.6245 4.5836 9.375 6.25 0.41563 0.83281 0.625 1.8753 0.625 3.125-4.7e-4 5.0003-2.7088 7.5003-8.125 7.5-2.5005 3.1e-4 -4.1672-0.20781-5-0.625l-1.875-4.375-0.625-9.375c-0.41719-5.4164-4.1672-8.1247-11.25-8.125-2.5005 3.1e-4 -5.417 2.292-8.75 6.875l1.25 1.25c1.6662-2.4997 3.5412-3.7497 5.625-3.75 4.9995 3.1e-4 7.2912 4.3753 6.875 13.125v5c4.9995 3.7503 8.9578 5.6253 11.875 5.625 3.7495 3.1e-4 7.2912-1.6664 10.625-5 3.3328-3.333 4.9995-6.6664 5-10v-5l-6.875-1.25c-2.9172-1.6664-4.3755-3.7497-4.375-6.25-4.7e-4 -3.333 1.8745-4.9997 5.625-5h0.625l2.5 0.625 5.625 1.875-0.625 1.875c-0.83437 1.667 0.20781 3.9586 3.125 6.875 3.3328 2.5003 4.9995 4.5836 5 6.25-4.7e-4 6.667-6.0422 14.375-18.125 23.125l-1.25-0.625c-5.0005 1.25-8.7505 1.8753-11.25 1.875-7.0838 3.1e-4 -14.584-3.7497-22.5-11.25-10-8.333-14.375-19.166-13.125-32.5v-3.125c0.41563-1.6662 0.625-3.333 0.625-5 0.41563-1.6662 0.83281-3.5412 1.25-5.625-4.7e-4 -2.083-1.4594-4.583-4.375-7.5m-219.38 2.5-3.125 0.625c-7.0836 3.3338-10.625 6.667-10.625 10-1.6e-4 2.5003 0.20781 4.167 0.625 5l0.625 2.5 1.875 3.75 2.5 2.5 1.875 1.25c2.9164 1.667 6.0414 3.1253 9.375 4.375 3.3331 0.83281 7.0831 1.4578 11.25 1.875l6.875 0.625v-1.25c-0.83437-0.83281-2.5002-1.6664-5-2.5h-0.625c-4.1669 3.1e-4 -7.0836-0.625-8.75-1.875l-3.125-1.875-5-3.125c-2.5002-1.6664-3.7502-4.3747-3.75-8.125-1.6e-4 -4.583 2.7081-6.8747 8.125-6.875 2.9164 3.1e-4 4.7914 1.8753 5.625 5.625l1.25-0.625v3.125c3.7498-1.25 5.6248-2.708 5.625-4.375-1.6e-4 -6.6662-5.2086-10.208-15.625-10.625m-69.375 14.375v3.75c-1.25 2.0836-1.8752 3.9586-1.875 5.625-1.6e-4 1.667 0.83281 2.5003 2.5 2.5 1.25 3.1e-4 2.2916-0.41719 3.125-1.25l3.125-10c0.41719-2.9162 2.9166-4.3747 7.5-4.375 1.25 3.1e-4 3.5416 1.0422 6.875 3.125 0.83281 2.5003 1.8748 3.9588 3.125 4.375 2.0831-1.25 3.1248-2.4997 3.125-3.75-1.6e-4 -3.333-2.2919-6.8747-6.875-10.625-2.0834-1.25-3.9584-1.8747-5.625-1.875-7.5002 3.1e-4 -12.5 4.167-15 12.5m138.75-3.75c-3.7503 1.25-5.6253 2.5003-5.625 3.75-3.1e-4 0.83437 0.20781 1.4594 0.625 1.875l1.875 2.5 1.25 1.25c2.0831-0.83281 3.5414-2.2912 4.375-4.375l-2.5-5m140 4.375c-2.0838 9.167-3.1255 15-3.125 17.5v0.625l1.875 23.75c0.41563 6.667-2.5005 13.542-8.75 20.625-2.5003 2.5003-5.6253 3.7503-9.375 3.75-2.5003 3.1e-4 -6.042-1.6664-10.625-5v-5c-0.83437-3.333 1.8747-6.0414 8.125-8.125-3.3338-2.4997-6.042-3.7497-8.125-3.75-5.8338 3.1e-4 -8.7503 3.3336-8.75 10-3.1e-4 0.41719-3.1e-4 1.25 0 2.5 0.41563 1.25 0.83281 2.9169 1.25 5l0.625 1.875 0.625 0.625c3.333 7.0836 9.7912 10.625 19.375 10.625 10.833 3.1e-4 17.291-6.6664 19.375-20l1.25-10v-1.875l-3.125-9.375c-0.41719-0.41719-0.625-2.083-0.625-5-4.7e-4 -1.25-4.7e-4 -2.4997 0-3.75-4.7e-4 -1.6664-0.20937-3.5414-0.625-5.625-4.7e-4 -2.9164-0.20937-4.9997-0.625-6.25l1.25-13.125m-27.5 4.375c2.4997 8.3336 3.7497 12.084 3.75 11.25-3.1e-4 1.667-0.83437 2.7086-2.5 3.125l1.25-1.25h-2.5c-3.1e-4 -4.9997-1.25-9.1664-3.75-12.5l-1.25 6.25-3.125 9.375c-0.83437 3.3336-1.25 5.0003-1.25 5-3.1e-4 5.0003 2.2912 8.7503 6.875 11.25l7.5 3.75 3.125-6.25h2.5l0.625 4.375 1.875 2.5c0.83281 1.25 2.4997 2.292 5 3.125l0.625 1.25v-1.875c2.4995-1.25 3.7495-2.4997 3.75-3.75v-1.875l-1.875-1.875-0.625-3.75h-4.375c-0.83437-0.83281-1.8753-1.25-3.125-1.25h-0.625l-2.5-6.25 0.625-1.875 10 3.75v-5.625c-4.7e-4 -4.583-3.1255-9.7914-9.375-15.625l3.125 6.875-6.875-6.25v3.75l1.875 6.25-2.5 1.875c-0.83437-4.583-2.917-9.1664-6.25-13.75m127.5 11.25c-4.7e-4 1.25 0.625 3.1253 1.875 5.625l4.375 3.75c0.41563-6.2497 2.9161-9.3747 7.5-9.375 2.0828 3.1e-4 4.7911 1.25 8.125 3.75l1.875 2.5 2.5 8.125v11.25l2.5 3.75c0.41563-2.083 0.625-4.1664 0.625-6.25 0.41563-2.083 0.625-3.958 0.625-5.625-4.7e-4 -7.4997-2.5005-14.791-7.5-21.875l-0.625-1.875c-2.9172-2.9164-5.6255-4.3747-8.125-4.375-5.0005 3.1e-4 -8.5422 1.4578-10.625 4.375-2.0839 2.5003-3.1255 4.5836-3.125 6.25m-201.88-5.625-2.5 3.125-7.5 10.625c-4.1669 10-6.2503 20.834-6.25 32.5-3.1e-4 2.0836-3.1e-4 4.7919 0 8.125 0.41719 2.9169 0.83281 6.2503 1.25 10l0.625 6.25 4.375 13.125 3.75 6.25 2.5 4.375 4.375 7.5 8.75 12.5 5 6.25 3.125 3.125c0.41719-1.25 0.625-2.0831 0.625-2.5 0.41563-0.83281 0.625-1.25 0.625-1.25-0.41719-1.6664-2.917-4.9998-7.5-10-0.83437-0.83281-1.8753-2.0831-3.125-3.75-0.83281-2.0831-1.8753-4.1664-3.125-6.25-10.834-17.083-16.25-30.625-16.25-40.625l0.625-3.125v-19.375c0.41719-2.083 0.83281-4.1664 1.25-6.25 0.41719-2.083 1.0422-4.1664 1.875-6.25l3.125-7.5 1.25-1.875 5.625-6.25 6.25-4.375-6.25 0.625-2.5-5m-191.25 15c-7.5002 7.5003-11.667 17.5-12.5 30 0.41719 18.75 3.5416 28.125 9.375 28.125 1.25 3.1e-4 1.8748-0.83281 1.875-2.5v-1.25c-1.25-2.0831-2.9167-5.8331-5-11.25-1.6667-5.4164-2.5002-9.3747-2.5-11.875-1.6e-4 -8.333 2.0833-15.833 6.25-22.5 6.6666-11.666 15.417-17.5 26.25-17.5 4.9998 3.1e-4 9.1666 3.542 12.5 10.625l1.25 1.875 0.625 5-2.5 5.625 3.125 4.375c2.9166-5.4164 4.3748-9.9997 4.375-13.75-1.6e-4 -11.666-6.2502-17.5-18.75-17.5-6.6667 3.1e-4 -13.333 2.7086-20 8.125l-4.375 4.375m-20-3.75-0.625 2.5 7.5-1.25 5.625 2.5c0.41719 0.41719 1.0422 0.625 1.875 0.625 1.6666 3.1e-4 2.4998-0.41719 2.5-1.25-1.6e-4 -0.83281-0.625-2.2914-1.875-4.375l-2.5-1.875c-2.0834-2.4997-3.9584-3.7497-5.625-3.75-3.7502 3.1e-4 -6.0417 2.292-6.875 6.875m66.875 7.5 0.625 5 0.625 0.625 0.625 3.125 5 2.5v-3.125c-0.41719-9.1664 4.1666-13.75 13.75-13.75 4.1666 3.1e-4 6.8748 0.20937 8.125 0.625l21.25 3.75 3.125 0.625h2.5c2.4998 3.1e-4 4.3748-0.20781 5.625-0.625l-22.5-5-7.5-1.875-7.5-2.5c-2.0834-0.41719-3.9584-0.625-5.625-0.625-1.6669-0.41563-3.1252-0.625-4.375-0.625-8.7502 3.1e-4 -13.333 3.9586-13.75 11.875m-28.75-3.125 3.75 5.625 3.125 4.375 0.625-0.625v-1.25l-3.75-7.5-1.25-4.375c-0.41719-0.41719-1.0422-0.625-1.875-0.625-1.6667 3.1e-4 -2.5002 0.625-2.5 1.875 0.41719 0.41719 0.625 0.83437 0.625 1.25 0.41719 0.41719 0.83281 0.83437 1.25 1.25m172.5 5-1.25 3.75h5l6.875-5.625 10-0.625c0.41563-0.41563 1.0406-0.625 1.875-0.625 4.1664 3.1e-4 6.2497 3.1253 6.25 9.375-3.1e-4 0.83437-0.41719 2.0836-1.25 3.75-0.83437 1.667-1.25 2.5003-1.25 2.5 0.83281 0.83281 1.6664 1.25 2.5 1.25 4.1664 3.1e-4 6.2497-2.708 6.25-8.125-3.1e-4 -3.333-1.25-6.458-3.75-9.375-2.5003-2.9164-4.3753-4.1664-5.625-3.75h-2.5c-1.667-1.6664-3.542-2.4997-5.625-2.5-6.2503 3.1e-4 -12.084 3.3336-17.5 10m-177.5-6.875-3.125 1.875c-3.7502 3.3336-5.6252 5.417-5.625 6.25-1.6e-4 0.83437 1.6666 2.917 5 6.25l3.125 4.375 5 4.375c7.4998 8.3336 14.583 13.542 21.25 15.625l41.25 14.375 21.25 2.5v-0.625c-1.6e-4 -2.0831-1.25-3.7497-3.75-5-1.6e-4 3.1e-4 -1.6669-0.41719-5-1.25-2.9169-0.83281-7.2919-2.0831-13.125-3.75-0.83437-0.41719-2.0836-0.83281-3.75-1.25-1.6669-0.41719-3.5419-1.0422-5.625-1.875l-10.625-3.75-10.625-5.625-10-5-15.625-13.75-1.875-3.125c-0.83281-1.25-1.8752-2.708-3.125-4.375-1.25-2.083-2.9167-4.1664-5-6.25m267.5 1.875-0.625 3.125 1.25 0.625 2.5 1.875v-1.25c-4.7e-4 -1.6664-1.0422-3.1247-3.125-4.375m-165.62 5 1.875 3.125 1.875 3.75-0.625-0.625 8.75 11.25 3.75 3.75 5 5.625 1.875 1.25c3.3331 2.9169 7.0831 5.8336 11.25 8.75 4.5831 2.9169 9.7914 6.0419 15.625 9.375l10 6.25c-3.1e-4 -4.5831-2.2919-7.4997-6.875-8.75l-5-2.5-1.875-1.25-14.375-10-13.75-11.25-5.625-6.25-13.125-16.25 1.25 3.75m-45 4.375h1.25c5.8331 3.1e-4 8.7498-1.25 8.75-3.75-1.6e-4 -2.4997-1.25-3.7497-3.75-3.75-4.5834 3.1e-4 -6.8752 1.4578-6.875 4.375-1.6e-4 1.667 0.20781 2.7086 0.625 3.125m18.75-1.875c-2.5002 3.1e-4 -3.7502 1.0422-3.75 3.125-1.6e-4 2.917 1.4578 4.3753 4.375 4.375 2.4998 3.1e-4 3.7498-1.25 3.75-3.75-1.6e-4 -2.4997-1.4594-3.7497-4.375-3.75m-15.625 11.875 0.625 1.25c5.8331 3.1e-4 8.7498-1.25 8.75-3.75-1.6e-4 -3.7497-1.6669-5.6247-5-5.625-2.9169 3.1e-4 -4.3752 1.4578-4.375 4.375v3.75m-8.75-7.5c-2.9169 3.1e-4 -4.3752 1.4578-4.375 4.375-1.6e-4 3.3336 1.25 5.0003 3.75 5 3.7498 3.1e-4 5.6248-1.8747 5.625-5.625-1.6e-4 -2.4997-1.6669-3.7497-5-3.75m121.25 0c-2.0836 8.3336-3.1253 17.709-3.125 28.125v5.625c-3.1e-4 2.5003 0.20781 4.7919 0.625 6.875l1.25 1.875 56.875 29.375c27.916 14.167 47.083 27.084 57.5 38.75 11.25 12.5 16.875 28.125 16.875 46.875l-0.625 4.375c11.25-1.25 15.833-1.8748 13.75-1.875h11.875c1.6662-5.4166 2.4995-11.458 2.5-18.125-4.7e-4 -23.75-4.3755-42.291-13.125-55.625-8.7505-12.916-26.042-26.041-51.875-39.375-3.3338-1.6664-7.917-3.9581-13.75-6.875-5.8338-2.9164-12.917-6.6664-21.25-11.25-2.917-1.25-7.292-3.1247-13.125-5.625-5.417-2.9164-12.292-6.458-20.625-10.625l-9.375-5-6.875-3.75-1.875-0.625-5.625-3.125m-85.625 10.625v6.25l0.625 2.5 0.625 1.25 0.625 3.125h-2.5c-0.83437 3.1e-4 -1.6669 0.41719-2.5 1.25l1.25 2.5c0.41563 0.83437 1.0406 2.2919 1.875 4.375 1.25 1.6669 2.7081 3.7503 4.375 6.25 6.6664 7.5003 17.083 13.334 31.25 17.5 9.9997 2.5003 15.208 3.9586 15.625 4.375 6.2497 2.5003 9.5831 4.5836 10 6.25-3.1e-4 2.9169-1.25 4.3752-3.75 4.375-2.0836 1.6e-4 -3.9586-0.83281-5.625-2.5l-4.375-3.125-5-3.125-4.375-3.125h-1.875c-6.2503-2.0831-10.209-3.1247-11.875-3.125-5.0002 3.1e-4 -11.042 1.4578-18.125 4.375l1.875 3.125 3.75 1.875-1.875 2.5c-4.1669 2.9169-6.6669 8.1252-7.5 15.625 0.41719 9.1669 5.2081 13.75 14.375 13.75-1.6e-4 1.6e-4 1.6664-0.41719 5-1.25-4.5836-3.3331-6.8752-6.2498-6.875-8.75-1.6e-4 -7.9164 6.4581-11.875 19.375-11.875 15.833 1.6e-4 31.458 5.8336 46.875 17.5l8.75 6.875 5.625 5.625 7.5 8.75 3.125 1.875 1.25-8.75 1.25-6.875c-3.1e-4 -1.25-3.1253-4.9998-9.375-11.25-1.25-0.41719-2.5003-1.6664-3.75-3.75l-7.5-9.375-5-4.375-1.875-1.875-14.375-13.125-11.875-8.125-8.125-5.625-29.375-16.25c-5.0002-3.7497-7.5002-8.7497-7.5-15v-1.875l3.75-6.25-5.625-2.5c-3.7502 3.1e-4 -6.4586 3.3336-8.125 10m-13.125 3.125c1.6664 1.25 2.9164 1.8753 3.75 1.875 2.4998 3.1e-4 3.7498-1.25 3.75-3.75-1.6e-4 -2.4997-1.0422-4.1664-3.125-5l-1.875-0.625c-2.0836 3.1e-4 -3.1252 1.4594-3.125 4.375l0.625 3.125m-13.75 2.5-0.625-1.875c-1.6e-4 -1.25-1.0422-1.8747-3.125-1.875-2.9169 3.1e-4 -4.3752 1.4578-4.375 4.375-1.6e-4 2.9169 1.8748 4.3753 5.625 4.375h1.875l0.625-2.5v-2.5m335 21.875-3.125 5.625-5 5.625 1.25 1.875c6.6661-6.6664 11.666-14.166 15-22.5 3.3328-8.3331 4.9995-13.125 5-14.375-4.7e-4 -0.83281-0.41719-1.25-1.25-1.25-1.6672 3.1e-4 -3.1255 3.7503-4.375 11.25-0.83437 1.6669-1.8755 3.7503-3.125 6.25-1.25 2.0836-2.7089 4.5836-4.375 7.5m-312.5-5v-1.875c-5.0002-2.9164-8.5419-6.0414-10.625-9.375l-6.25-8.125-0.625 3.125c-1.6e-4 6.6669 5.8331 12.084 17.5 16.25m203.75-15.625c2.083 3.3336 2.708 6.2503 1.875 8.75v14.375h0.625c0.41563 0.41719 0.83281 0.625 1.25 0.625 2.9162 3.1e-4 4.3745-2.0831 4.375-6.25-4.7e-4 -4.9997-2.7088-10.833-8.125-17.5m-273.12 5-5 5c-5.0002 3.3336-11.875 9.3753-20.625 18.125l-2.5 5.625c-1.6667 2.9169-2.5002 5.2086-2.5 6.875-1.6e-4 1.25 0.625 1.8753 1.875 1.875l1.25-0.625c0.41719 3.1e-4 0.83281-0.20781 1.25-0.625l2.5-6.875 3.125-4.375 3.75-4.375c3.3333-3.3331 5.8333-5.8331 7.5-7.5 2.0833-1.6664 3.3333-2.7081 3.75-3.125 5.8331-3.7497 8.7498-6.4581 8.75-8.125-1.6e-4 -1.6664-0.83281-2.4997-2.5-2.5l-0.625 0.625m32.5 12.5c-8.7502 0.83281-13.125 3.9586-13.125 9.375-1.6e-4 2.9169 1.25 4.3753 3.75 4.375 1.6666 3.1e-4 2.4998-0.625 2.5-1.875l-0.625-5c-1.6e-4 -1.6664 2.2916-2.4997 6.875-2.5l1.875 0.625 15 3.125h6.875l7.5 1.875v-1.875l-10-1.25-14.375-5-6.25-0.625v-1.25m234.38 0.625c-2.5005 0.83437-3.7505 2.0836-3.75 3.75-4.7e-4 2.9169 1.25 4.3753 3.75 4.375 2.9162 3.1e-4 4.3745-1.6664 4.375-5-4.7e-4 -2.0831-1.0422-3.1247-3.125-3.125h-1.25m16.25 9.375c1.25 0.41719 2.083 0.83437 2.5 1.25 0.83281 3.1e-4 1.25 3.1e-4 1.25 0 1.6662 3.1e-4 2.4995-1.25 2.5-3.75-4.7e-4 -2.4997-1.25-3.7497-3.75-3.75-1.667 3.1e-4 -2.5005 1.0422-2.5 3.125v3.125m-276.88 1.25 3.75 1.25 0.625 9.375c-1.25 2.5003-1.8752 4.1669-1.875 5 0.83281 0.83437 1.4578 1.25 1.875 1.25 2.4998 3.1e-4 3.7498-3.9581 3.75-11.875-1.6e-4 -6.6664-2.5002-9.9997-7.5-10-1.25 3.1e-4 -2.9169 0.83437-5 2.5-1.6669 1.25-2.5002 2.5003-2.5 3.75-1.6e-4 0.83281 0.625 1.25 1.875 1.25 1.6666 3.1e-4 3.3331-0.83281 5-2.5m269.38-1.875c-2.5005 0.83437-3.9588 2.7086-4.375 5.625 2.083 2.0836 3.333 3.1253 3.75 3.125 1.25 3.1e-4 2.4995-0.625 3.75-1.875 1.25-1.25 1.8745-2.4997 1.875-3.75-4.7e-4 -0.83281-0.41719-1.6664-1.25-2.5l-3.75-0.625m-11.25 62.5-0.625 0.625 5 3.75 0.625-1.875c-4.7e-4 -1.25-1.4594-2.7081-4.375-4.375l-7.5-6.25-2.5-1.25-5-3.75h-1.25c-1.667-0.83281-3.542-1.8748-5.625-3.125-2.0838-1.25-4.167-2.4998-6.25-3.75l-3.125-2.5-5-2.5-17.5-10-6.25-3.75-5.625-2.5c-0.83281-0.83281-1.8753-1.4578-3.125-1.875-1.25-0.83281-2.7086-1.6664-4.375-2.5-3.3336-0.83281-7.0836-2.2914-11.25-4.375-4.167-2.0831-8.9586-4.5831-14.375-7.5-1.667-1.6664-3.3336-2.4997-5-2.5-0.83281 3.1e-4 -1.25 0.625-1.25 1.875-3.1e-4 1.25 0.41719 2.2919 1.25 3.125l36.875 18.125 11.875 6.25 54.375 30.625m95.625-60c-2.0838 0.83281-3.9588 2.0836-5.625 3.75l-0.625 6.25c0.83281-0.41719 2.7078-0.625 5.625-0.625 2.4995 3.1e-4 3.7495 0.625 3.75 1.875-4.7e-4 4.5836-3.3339 9.1669-10 13.75-6.2505 4.5836-12.292 7.5002-18.125 8.75-3.7505 1.25-5.8338 2.0836-6.25 2.5l-4.375 1.875c-0.41719 1.6e-4 -2.7088 0.41719-6.875 1.25-3.7505 0.83437-5.6255 1.4578-5.625 1.875 0.41563 0.83437 0.83281 2.0836 1.25 3.75 0.83281 1.6669 1.6662 2.5002 2.5 2.5l22.5-3.75c10.833-2.0831 23.75-8.1248 38.75-18.125 9.1661-6.6664 15-9.9997 17.5-10 6.2495 3.1e-4 9.3745 2.2919 9.375 6.875l-0.625 1.875-1.875 4.375v2.5c6.2495-1.6664 9.3745-5.8331 9.375-12.5-4.7e-4 -3.7497-2.5005-7.2914-7.5-10.625-3.3339-0.83281-5.6255-1.25-6.875-1.25-10 3.1e-4 -16.875 3.1253-20.625 9.375-0.41719 1.6669-1.25 2.5003-2.5 2.5h-3.75l1.25-10.625-3.125-6.25-1.25-1.25-6.25-0.625m-267.5 6.875-6.25-2.5-18.75-1.875-7.5-0.625-8.75 0.625-13.125 0.625-11.25 1.25c-5.8334 0.83437-8.7502 2.2919-8.75 4.375v1.25l0.625 0.625 7.5-1.25 28.75-3.75 20.625 0.625h6.25c0.83281 0.41719 2.2914 0.625 4.375 0.625h6.25m-110.62-0.625c7.0833 2.9169 13.542 4.3753 19.375 4.375 3.3331 3.1e-4 4.9998-0.83281 5-2.5-1.6e-4 -1.25-0.625-1.8747-1.875-1.875l-12.5-0.625-8.75-1.875-1.25 2.5m43.75 8.75-0.625-0.625h-1.25l-3.125 1.875-4.375 3.75c-1.25 1.25-3.1252 1.8753-5.625 1.875h-1.25l-2.5-0.625-5.625-6.25h-0.625c-0.83281 3.1e-4 -1.25 0.41719-1.25 1.25-1.6e-4 2.0836 1.25 4.1669 3.75 6.25 2.9166 2.0836 5.6248 3.1252 8.125 3.125 5.8331 1.6e-4 10.625-3.5414 14.375-10.625m4.375 7.5-5.625 1.25-5 3.75-3.75 2.5-0.625 1.25c-1.6e-4 2.0836 0.83281 3.1252 2.5 3.125 2.0831-0.83281 4.1666-1.8748 6.25-3.125 2.0831-1.25 4.1666-2.2914 6.25-3.125l21.875-7.5c1.25-0.41719 4.7914-1.0406 10.625-1.875h11.875c0.41719 0.41719 1.4578 0.625 3.125 0.625 0.41719 3.1e-4 0.625-0.41719 0.625-1.25-1.6e-4 -2.4997-1.25-3.7497-3.75-3.75l-5 0.625-11.875 0.625-12.5 1.875c-0.83281 0.41719-2.5002 1.0422-5 1.875-2.5002 0.83281-5.8334 1.8753-10 3.125m281.88 0.625 0.625 1.875v3.75c-4.7e-4 1.25-0.83437 2.5002-2.5 3.75v0.625l-1.875 2.5v2.5c6.6662-2.4998 9.9995-7.0831 10-13.75-4.7e-4 -4.9997-2.2922-7.4997-6.875-7.5-3.7505 3.1e-4 -5.6255 1.4578-5.625 4.375-4.7e-4 0.83281 2.0828 1.4578 6.25 1.875m-343.12-4.375c-9.1667 0.41719-13.75 3.9586-13.75 10.625-1.6e-4 1.25 0.20781 2.9169 0.625 5 0.83281 2.0836 2.4998 3.7502 5 5v-3.75l-1.25-3.125c-0.41719-0.41719-0.625-0.83281-0.625-1.25-1.6e-4 -2.9164 1.6666-5.2081 5-6.875 3.7498-2.0831 7.0833-3.1247 10-3.125 5.4166 3.1e-4 11.042 1.4578 16.875 4.375l2.5 0.625 1.25-0.625-3.125-3.75-11.25-3.75-7.5-0.625-3.75 1.25m83.75 6.25c-9.5834 3.3336-17.083 8.5419-22.5 15.625-2.5002 6.2502-3.5419 10.209-3.125 11.875l0.625 6.875-0.625 8.75c4.1666 1.6e-4 7.0831-0.83281 8.75-2.5 1.6666 7.9169 6.6666 11.875 15 11.875 4.5831 1.6e-4 8.7498-1.6666 12.5-5 4.1664-3.7498 6.2498-7.9164 6.25-12.5-1.6e-4 -3.3331-0.83281-5.2081-2.5-5.625l-0.625 3.125-2.5 7.5c-3.3336 2.5002-6.0419 3.7502-8.125 3.75-0.83437 1.6e-4 -1.6669 1.6e-4 -2.5 0-0.83437-0.41563-2.0836-0.83281-3.75-1.25l-1.875-1.875-3.125-2.5-2.5-2.5c-2.5002-4.1664-3.7502-7.2914-3.75-9.375-1.6e-4 -6.6664 4.3748-13.125 13.125-19.375 1.6664-1.6664 3.3331-2.4998 5-2.5l18.125-3.75c0.41719 1.6e-4 0.625-0.41719 0.625-1.25-1.6e-4 -2.0831-1.4578-3.1247-4.375-3.125l-1.875 0.625c-2.0836 3.1e-4 -3.5419 0.20937-4.375 0.625-2.0836 0.41719-4.1669 0.83437-6.25 1.25-2.0836 0.41719-3.9586 0.83437-5.625 1.25m132.5 16.875 1.875 1.25v0.625c-3.1e-4 0.83281 1.0422 1.6669 3.125 2.5-1.667-3.3331-2.5003-6.4581-2.5-9.375-3.1e-4 -5.4164 1.8747-8.1248 5.625-8.125 1.6664 1.6e-4 3.333 0.83437 5 2.5-0.83437-4.9998-3.1253-7.4998-6.875-7.5-5.417 1.6e-4 -8.1253 3.9586-8.125 11.875-3.1e-4 1.25 0.625 3.3336 1.875 6.25m203.75-16.25-1.875 2.5c-1.25 3.3336-1.8755 5.8336-1.875 7.5-4.7e-4 6.6669 2.4995 10 7.5 10 2.9161 1.6e-4 4.3745-1.6664 4.375-5v-0.625l-0.625-3.125-5-5-2.5-6.25m-420.62 0.625c-1.6667 2.9169-2.5002 5.4169-2.5 7.5-1.6e-4 4.1669 0.20781 6.8752 0.625 8.125l1.25 6.875c0.41719 3.7502 1.25 5.6252 2.5 5.625 1.6666 1.6e-4 2.4998-0.83281 2.5-2.5v-0.625l-3.125-13.125c-1.6e-4 -1.25 0.20781-2.7081 0.625-4.375 0.41719-2.0831 0.625-3.5414 0.625-4.375-1.6e-4 -1.6664-0.83281-2.7081-2.5-3.125m10 11.25c-2.0834 0.83437-3.1252 1.8752-3.125 3.125-1.6e-4 1.25 0.625 1.8752 1.875 1.875 7.4998 1.6e-4 15.833-4.5831 25-13.75l-1.25-1.25-1.875 0.625c-1.25 0.41719-3.3334 1.8752-6.25 4.375-2.5002 2.5002-7.2917 4.1669-14.375 5m77.5-3.125h-0.625c-0.41719 2.0836-0.83281 3.7502-1.25 5-1.6e-4 1.25-1.6e-4 2.0836 0 2.5-1.6e-4 4.1669 2.0831 6.2502 6.25 6.25 1.25-0.41719 2.7081-1.0406 4.375-1.875-2.5002-2.4998-3.7502-4.9998-3.75-7.5-1.6e-4 -3.7498 1.25-6.0414 3.75-6.875l6.875-1.875-1.875-1.25c-0.41719-0.41563-1.25-0.625-2.5-0.625-2.0836 1.6e-4 -5.8336 2.0836-11.25 6.25m-50 3.125 2.5 3.125 1.25 1.25c5.8331 8.3336 8.7498 16.25 8.75 23.75-1.6e-4 15.417-5.2084 23.125-15.625 23.125-4.1669 1.6e-4 -8.1252-2.2916-11.875-6.875-0.41719 1.25-0.83281 2.2919-1.25 3.125-1.6e-4 0.41719-1.6e-4 0.625 0 0.625-1.6e-4 0.83281 1.6666 2.2919 5 4.375 3.7498 2.0834 7.2916 3.1252 10.625 3.125 11.25 1.6e-4 16.875-8.7498 16.875-26.25-1.6e-4 -8.3331-3.1252-17.916-9.375-28.75-2.9169-4.1664-5.0002-6.2498-6.25-6.25-1.6669 1.6e-4 -2.5002 0.83281-2.5 2.5-1.6e-4 0.83437 0.625 1.8752 1.875 3.125m117.5-0.625-9.375 3.125c-5.0003 2.9169-8.3336 6.8752-10 11.875l1.25 10.625c4.5831 7.0836 9.5831 10.625 15 10.625 1.25 1.6e-4 4.5831-1.0422 10-3.125v-1.25c-11.25 1.6e-4 -16.875-3.7498-16.875-11.25-3.1e-4 -9.5831 6.6664-14.375 20-14.375 5.4164 1.6e-4 11.458 2.0836 18.125 6.25 0.41719 0.41719 1.0406 0.83437 1.875 1.25 0.83281 0.41719 1.8747 1.0422 3.125 1.875l10 8.75 0.625-0.625v-0.625c-0.83437-1.25-2.7086-3.1248-5.625-5.625l-6.25-5.625c-0.41719-0.41719-3.3336-2.2914-8.75-5.625l-6.875-3.75-7.5-1.875-5-0.625h-3.75m238.75 4.375c0.83281 0.83437 1.6661 1.25 2.5 1.25 1.25 1.6e-4 1.8745-1.0406 1.875-3.125-4.7e-4 -1.25-0.83437-1.8748-2.5-1.875-1.25 1.6e-4 -1.8755 0.625-1.875 1.875v1.875m-160.62 1.875-3.75 4.375-2.5 4.375-3.125-1.25-5.625-1.875c-0.41719 1.25-0.625 2.7086-0.625 4.375v2.5l-2.5 8.125v3.125c-3.1e-4 3.7502 0.20781 6.2502 0.625 7.5l3.75 7.5h0.625v1.875l3.125 3.75 5.625 8.125c1.25 1.25 2.083 2.7084 2.5 4.375 0.41719 1.6669 1.0422 2.5002 1.875 2.5 1.25 1.6e-4 2.708-1.6666 4.375-5 1.6662-3.3331 3.958-7.0831 6.875-11.25-0.41719-0.83281-0.625-1.8748-0.625-3.125-3.1e-4 -1.6666-0.20937-2.7081-0.625-3.125l-2.5-11.875-0.625-3.125c-0.83437-5.4164 1.0406-9.7914 5.625-13.125l1.25-0.625 10.625-0.625-2.5-7.5-5.625-3.75v-0.625h-3.125l-3.75-0.625c-2.917 1.6e-4 -6.042 1.6669-9.375 5m-200.62-4.375c-6.2502 4.5836-11.042 9.1669-14.375 13.75-2.0834 2.9169-4.3752 6.0419-6.875 9.375-2.0834 3.3336-4.5834 6.8752-7.5 10.625-12.917 24.167-19.375 49.375-19.375 75.625-1.6e-4 2.0834-1.6e-4 4.5834 0 7.5 0.41719 2.5002 0.83281 5.2084 1.25 8.125l1.25 8.125c1.25 11.25 2.7083 18.75 4.375 22.5l1.875 6.25c0.83281 2.9167 2.0833 7.2917 3.75 13.125 2.0833 5.4167 3.1248 9.375 3.125 11.875-1.6e-4 6.25-2.2917 9.375-6.875 9.375-2.5002 0-3.7502-0.83281-3.75-2.5l0.625-1.875 3.75-6.25 0.625-0.625c-1.6e-4 -6.25-2.5002-10.417-7.5-12.5l1.875 5.625-1.25 5-2.5 3.75-0.625 1.875h-0.625c-0.41719 0.83281-0.625 2.7084-0.625 5.625-1.6e-4 1.25 0.20781 2.0833 0.625 2.5 2.9166 3.75 6.2498 5.625 10 5.625h3.125c1.25-0.41719 2.9166-0.83281 5-1.25l2.5-1.25c3.7498-2.5 6.4583-9.5833 8.125-21.25l4.375 1.875c-1.6e-4 -2.0833-0.20781-4.1666-0.625-6.25-1.6e-4 -2.5-0.20781-4.7916-0.625-6.875l-4.375-7.5v-0.625l-1.875-3.125-3.75-3.75c-2.9167-2.5-4.3752-5.2083-4.375-8.125-1.6e-4 -0.83281 0.83281-1.4578 2.5-1.875 0.83281 0.41719 1.25 0.83281 1.25 1.25h0.625v1.875c-1.6e-4 2.0834 0.83281 3.9584 2.5 5.625 2.0833 2.5 3.5416 4.375 4.375 5.625 1.25 0.83281 2.0833 1.6667 2.5 2.5 0.83281 0.41719 1.4578 1.25 1.875 2.5 0.41719 1.25 1.0422 3.3334 1.875 6.25 2.9166 10 11.875 15 26.875 15 4.9998 0 9.1666-1.25 12.5-3.75 3.7498-2.9166 5.6248-4.7916 5.625-5.625-1.6e-4 -0.83281-1.8752-2.2916-5.625-4.375v-1.875h3.75c3.7498 0 7.0831-2.5 10-7.5 3.3331-5.4166 4.9998-10.208 5-14.375-1.6e-4 -13.75-6.6669-20.625-20-20.625-2.0834 1.6e-4 -4.5834 1.0422-7.5 3.125-2.5002 2.0834-3.7502 4.1667-3.75 6.25-1.6e-4 1.25 0.20781 2.0834 0.625 2.5l2.5 4.375v1.875c-1.6e-4 3.75-2.0834 5.625-6.25 5.625-2.9169 0-5.0002-0.20781-6.25-0.625-5.0002-2.5-7.5002-7.0833-7.5-13.75v-1.875c-2.5002 4.5834-3.7502 8.75-3.75 12.5l1.875 4.375c5.8331 5.8334 11.458 8.75 16.875 8.75 9.5831 0 14.167-5 13.75-15l-0.625-6.25c4.1666-0.83281 6.2498-1.25 6.25-1.25 1.25 1.6e-4 2.2916 1.0422 3.125 3.125v10.625l-0.625 0.625c-4.1669 5.4167-10 8.9584-17.5 10.625h1.25-4.375c-7.9169 0.41719-15-2.5-21.25-8.75l-5-5c-12.917-12.917-19.375-31.25-19.375-55-1.6e-4 -40.417 12.5-69.166 37.5-86.25-1.6e-4 -2.0831-1.4578-3.9581-4.375-5.625m386.88 6.875c-3.3339-2.4998-6.8755-3.7498-10.625-3.75-7.5005 1.6e-4 -11.459 1.4578-11.875 4.375-4.7e-4 1.6669 0.625 2.5002 1.875 2.5h0.625l11.875-2.5 5.625 0.625 2.5-1.25m-30-1.875h-0.625c-2.5005 1.6e-4 -3.7505 1.25-3.75 3.75-4.7e-4 2.9169 1.25 4.3752 3.75 4.375 2.0828 1.6e-4 3.1245-1.6664 3.125-5-4.7e-4 -2.0831-0.83437-3.1248-2.5-3.125m38.125 3.75 0.625 6.875c0.41563 1.25 0.625 3.3336 0.625 6.25-4.7e-4 5.4169-3.1255 10.209-9.375 14.375-6.2505 4.1669-13.125 6.2502-20.625 6.25h-1.25l-0.625 1.875h1.875c1.6661 1.6669 3.7495 2.5002 6.25 2.5 6.2495 1.6e-4 14.375-5.4166 24.375-16.25 2.9161-2.9164 4.3745-7.7081 4.375-14.375v-2.5l-1.875-3.75-0.625-1.875-3.125-0.625-0.625 1.25m-392.5 1.25-6.25 6.25c-16.25 15.834-24.375 36.458-24.375 61.875-1.6e-4 16.667 8.1248 25.625 24.375 26.875l-1.875-9.375h3.125c6.2498 0.83281 9.3748-2.0833 9.375-8.75-1.25 0.41719-3.7502 0.625-7.5 0.625-12.5 1.6e-4 -18.75-8.1248-18.75-24.375-1.6e-4 -13.333 2.2916-23.542 6.875-30.625l10.625-15 9.375-7.5v-0.625c-1.6e-4 -1.25-0.625-1.8748-1.875-1.875h-0.625l-2.5 2.5m307.5-0.625c6.2495 16.25 9.3745 32.917 9.375 50-4.7e-4 2.0834-0.20937 3.3334-0.625 3.75l-1.25 5.625-0.625 6.25 4.375 1.25 0.625-6.25c1.25-7.4998 1.8745-12.917 1.875-16.25-4.7e-4 -16.667-3.7505-30-11.25-40l-0.625-3.75-1.875-0.625m69.375 10c1.25-0.41563 2.0828-0.625 2.5-0.625 0.83281-0.41719 1.25-0.625 1.25-0.625-4.7e-4 1.6e-4 1.25 0.41719 3.75 1.25 3.7495-1.6664 5.6245-3.5414 5.625-5.625-4.7e-4 -3.3331-2.0839-4.9998-6.25-5-3.7505 1.6e-4 -6.0422 3.5419-6.875 10.625m-393.75-10.625-11.875 8.75c-2.9167 2.9169-5.6252 4.3752-8.125 4.375-1.6667 1.6e-4 -3.9584-0.625-6.875-1.875l-3.75-3.75c-0.83281-2.0831-1.6667-3.1248-2.5-3.125-0.83281 1.6e-4 -1.25 0.41719-1.25 1.25-1.6e-4 0.41719 0.20781 1.6669 0.625 3.75 0.41719 2.0836 0.625 3.9586 0.625 5.625l1.875 3.125c2.4998 2.5002 4.9998 3.7502 7.5 3.75 4.5833 1.6e-4 11.042-5.4164 19.375-16.25 0.41719-0.83281 1.0422-1.6664 1.875-2.5 0.83281-0.83281 1.6666-1.8748 2.5-3.125m245 19.375-5.625 8.125-5 5-3.125 4.375c-11.25 15.833-16.875 29.583-16.875 41.25-3.1e-4 4.5834 0.625 6.8752 1.875 6.875 0.83281 1.6e-4 1.6662-1.0422 2.5-3.125l5.625-16.25c2.4997-8.7498 7.708-15.208 15.625-19.375 10.416-6.6666 18.541-9.9998 24.375-10 2.4997 1.6e-4 6.458 1.4578 11.875 4.375l2.5 2.5v0.625l1.25 2.5v3.125c0.41563 2.9169-1.8755 5.4169-6.875 7.5 1.6662 1.25 3.5412 1.8752 5.625 1.875 2.4995 1.6e-4 5.208-1.4578 8.125-4.375 2.9162-3.3331 4.3745-6.4581 4.375-9.375-4.7e-4 -2.4998-1.8755-5.4166-5.625-8.75l-2.5-1.875c3.7495-0.41719 5.6245-1.25 5.625-2.5-4.7e-4 -1.25-1.4594-3.3331-4.375-6.25-2.917-2.9164-7.292-4.5831-13.125-5-1.667 0.41719-3.3338 0.83281-5 1.25-1.667 0.41719-3.542 1.0422-5.625 1.875l-4.375 1.875-6.25 6.875-3.75 1.875-4.375 1.875-0.625-2.5 0.625-0.625c0.83281-0.41719 2.708-1.25 5.625-2.5 3.333-1.6666 6.458-5.8331 9.375-12.5 0.83281-3.3331 1.25-4.9998 1.25-5-3.1e-4 -4.5831-3.7503-8.5414-11.25-11.875 1.6662 3.3336 2.4997 6.0419 2.5 8.125-3.1e-4 1.25-1.4594 4.5836-4.375 10m131.88-15c-1.6672 0.41719-2.5005 1.6669-2.5 3.75-4.7e-4 2.5002 1.25 3.7502 3.75 3.75 2.9161 1.6e-4 4.3745-1.4578 4.375-4.375-4.7e-4 -2.4998-1.4594-3.7498-4.375-3.75l-1.25 0.625m-35 6.25-5.625 1.25v1.875c0.41563 3.3336 2.2912 5.4169 5.625 6.25 3.7495 0.83437 7.2912 1.4578 10.625 1.875l5-8.125-13.75-2.5-1.875-0.625m-79.375 1.875-0.625 4.375c4.1662-0.41719 6.2497-1.6664 6.25-3.75-3.1e-4 -0.41719-0.20937-0.83281-0.625-1.25l-2.5-0.625-2.5 1.25m91.875 16.25v1.875l2.5 3.75 1.25-0.625c1.25-7.9164 5.6245-13.958 13.125-18.125-0.41719-2.9164-1.6672-4.3748-3.75-4.375-3.7505 1.6e-4 -6.8755 2.0836-9.375 6.25-2.5005 4.1669-3.7505 7.9169-3.75 11.25m-203.75-10c3.7497 1.6669 6.0414 3.9586 6.875 6.875l-2.5 0.625c-4.1669-0.83281-6.2503-1.25-6.25-1.25-2.5003 1.6e-4 -5.2086 1.4578-8.125 4.375l-7.5 7.5-3.75 8.75c-0.83437 4.1669-1.25 6.4584-1.25 6.875v3.75c-3.1e-4 2.5002 0.20781 4.3752 0.625 5.625 5.4164 12.5 12.291 18.75 20.625 18.75 3.3331 1.6e-4 5.6247-0.625 6.875-1.875l9.375-7.5c2.9164-2.4998 6.2497-3.7498 10-3.75 2.9164 1.6e-4 5.833 2.0834 8.75 6.25 1.25 2.5002 1.8747 4.5834 1.875 6.25-3.1e-4 1.25-2.292 4.7917-6.875 10.625 9.1664-1.25 13.75-6.0416 13.75-14.375-3.1e-4 -4.5831-2.5003-9.3748-7.5-14.375-4.5836-3.3331-8.3336-4.9998-11.25-5-3.7503 1.6e-4 -6.2503 0.83281-7.5 2.5l-6.25 10c-2.5003 3.7502-6.2503 5.6252-11.25 5.625-9.1669 1.6e-4 -13.75-4.7916-13.75-14.375-3.1e-4 -11.667 8.9581-17.5 26.875-17.5 5.833 1.6e-4 10.625 1.25 14.375 3.75l10.625 7.5 1.875 1.25 3.75 5 3.125 5.625 0.625 1.875 2.5 6.25 0.625 6.25 1.875 6.875 0.625 5.625 0.625 9.375c2.083-2.0833 3.1247-4.1666 3.125-6.25-3.1e-4 -2.9166-0.20937-4.7916-0.625-5.625l2.5-0.625v8.75c0.83281-0.41719 2.4997-0.625 5-0.625 1.25 1.6e-4 2.083 1.4578 2.5 4.375 2.4997-4.1666 4.583-6.8748 6.25-8.125 4.1662-2.9166 6.2497-5.2083 6.25-6.875-3.1e-4 1.6667-0.625-2.4998-1.875-12.5l3.125-0.625c1.6662 9.1667 2.9162 13.75 3.75 13.75 0.83281-0.83281 1.25-1.4578 1.25-1.875-3.1e-4 -1.6666-0.41719-3.5416-1.25-5.625-0.41719-2.4998-0.625-4.3748-0.625-5.625l-0.625-8.125-1.875-6.875-3.75 7.5-1.25 4.375-1.875 6.875-0.625 5.625-1.875 3.125c-0.41719 1.6667-1.667 2.5002-3.75 2.5h-2.5c-2.917-2.4998-4.3753-5.2083-4.375-8.125l0.625-2.5 3.125-18.75c-3.1e-4 -1.25-1.8753-4.7916-5.625-10.625-1.25-1.6666-2.5003-3.3331-3.75-5-0.83281-1.6666-1.667-3.3331-2.5-5-10-17.916-21.667-26.875-35-26.875-0.83437 1.6e-4 -2.5003 0.41719-5 1.25l-11.25 4.375m-47.5-3.125c-2.9169 0.41719-5.2086 1.25-6.875 2.5l-3.75 6.875-5-1.875-5 6.25c-0.83437 4.1669-1.25 6.0419-1.25 5.625-1.6e-4 2.0834 2.2914 3.7502 6.875 5l2.5 2.5 5.625 7.5c-1.6e-4 1.6669 1.4578 3.1252 4.375 4.375 3.3331 0.83281 5.2081 1.25 5.625 1.25l6.25 3.75v1.25l2.5 0.625 1.875 2.5 2.5 1.25 0.625 1.875h-2.5c-3.3336-3.3331-9.5836-6.8748-18.75-10.625l0.625 4.375c0.41563 5.0002 1.8748 8.1252 4.375 9.375 2.9164 0.83281 6.0414 1.8752 9.375 3.125l3.125 2.5 4.375 5c7.4997 7.5002 11.25 16.458 11.25 26.875v9.375l6.875 4.375c1.25-4.9998 1.8747-9.5833 1.875-13.75-3.1e-4 -19.167-6.2503-35-18.75-47.5l-15-15c-2.5002-2.9166-3.7502-6.0416-3.75-9.375-1.6e-4 -6.6666 4.9998-10.625 15-11.875-3.3336-5.8331-7.7086-8.7498-13.125-8.75h-1.25l-0.625 0.625m169.38 0.625-1.25-1.25c-2.917 1.6e-4 -4.3753 0.625-4.375 1.875l-0.625 1.25h6.875l-0.625-1.875m92.5 6.875c-2.9172 5.4169-4.3755 10-4.375 13.75-4.7e-4 1.25 1.0406 5.0002 3.125 11.25l4.375 6.25 4.375 4.375 8.75 11.875 4.375 4.375 2.5 5c0.83281 1.6667 1.4578 3.1252 1.875 4.375 0.41563 0.83281 0.83281 1.6667 1.25 2.5l2.5 7.5c1.6661 6.2502 2.2911 10.833 1.875 13.75l-1.875 8.75-1.875 9.375-4.375 7.5c-5.8339 4.5834-9.7922 6.875-11.875 6.875-3.7505 0-5.6255-2.0833-5.625-6.25-4.7e-4 -4.1666 1.6662-6.2498 5-6.25 1.6661 1.6e-4 3.7495 0.625 6.25 1.875-4.7e-4 -3.3333-1.8755-4.9998-5.625-5-8.3338 1.6e-4 -12.5 4.1667-12.5 12.5-4.7e-4 0.83281-4.7e-4 2.0834 0 3.75 0.41563 1.6667 0.83281 3.5417 1.25 5.625 2.4995 4.5834 5.2078 6.875 8.125 6.875 2.0828 0 5.8328-1.0422 11.25-3.125v10c12.083-3.3333 18.125-8.5416 18.125-15.625-4.7e-4 -0.41719-0.625-2.2916-1.875-5.625l-2.5-3.125-2.5-6.25v-1.875c-4.7e-4 -2.4998 0.83281-3.7498 2.5-3.75l0.625 0.625h0.625l0.625 6.25 1.25 2.5c1.6661 2.9167 3.9578 4.7917 6.875 5.625l0.625-9.375h1.25c1.6661-0.41719 2.4995 1.0422 2.5 4.375l8.125 6.25c2.0828-6.25 3.1245-10.625 3.125-13.125-4.7e-4 -4.1666-1.25-7.7083-3.75-10.625-2.0839-3.3333-3.1255-5.4166-3.125-6.25-4.7e-4 -0.83281 1.8745-1.8748 5.625-3.125l0.625-4.375-1.25 0.625c-0.83437-8.3333-6.6672-14.583-17.5-18.75-2.9172-0.41719-4.7922-1.4578-5.625-3.125v-1.25c-4.7e-4 -2.0831 0.625-3.1248 1.875-3.125 1.6661 1.6e-4 2.7078 0.20781 3.125 0.625l3.125 1.25 1.25 0.625c2.4995 1.6e-4 3.7495-0.83281 3.75-2.5v-1.25l-3.75-3.75 2.5-1.25h3.125c1.6661 1.6e-4 2.9161-0.41719 3.75-1.25 2.0828-2.9166 3.7495-4.9998 5-6.25 1.25-1.6666 1.8745-2.4998 1.875-2.5-4.7e-4 -2.0831-2.0839-4.5831-6.25-7.5l-3.125-0.625-9.375-1.25-0.625-1.25 6.25-3.75-7.5-3.75-5.625-2.5-18.75 0.625-1.875-1.25-0.625-0.625-1.875-1.25c-0.41719-0.83281-0.625-2.0831-0.625-3.75-4.7e-4 -2.9166 1.4578-4.3748 4.375-4.375l7.5 1.25 8.125-2.5v-2.5l-3.125-2.5-5.625-3.125c-2.9172-1.6664-6.2505-2.4998-10-2.5-4.1672 1.6e-4 -7.5005 1.6669-10 5m45.625 21.25-2.5-3.125c-3.3339-3.7498-5.2089-5.6248-5.625-5.625l-3.125 0.625v2.5l3.75 1.25 6.25 5 1.25-0.625m-365-1.875c-4.5834 1.6e-4 -8.3334-0.83281-11.25-2.5l-1.25 0.625c-0.83281 4.1669-1.25 6.2502-1.25 6.25-1.6e-4 2.0834 0.83281 3.9584 2.5 5.625l0.625 3.125v-1.25c-7.0834 5.0002-10.625 11.25-10.625 18.75v1.25l1.25 5v3.75c-1.6e-4 2.5002 0.20781 4.3752 0.625 5.625v1.875c-1.6e-4 0.83281-0.20781 1.8752-0.625 3.125-1.6e-4 1.25-0.20781 2.9167-0.625 5l-3.125 10c1.25 0.41719 2.7081 0.625 4.375 0.625h3.75c14.167 1.6e-4 22.292-6.0416 24.375-18.125 0.83281 1.6e-4 1.6666 1.0422 2.5 3.125 2.4998 3.3334 4.9998 5.0002 7.5 5 2.0831 1.6e-4 4.9998-1.25 8.75-3.75v-2.5c-3.3336-3.3333-5.0002-6.4583-5-9.375-1.6e-4 -1.6666 0.20781-2.7083 0.625-3.125l5-10c-1.6e-4 -2.9166-0.83437-7.9166-2.5-15-3.3336 0.83281-6.4586 2.0834-9.375 3.75-2.9169 1.25-5.8334 2.7084-8.75 4.375l1.875-0.625-6.875 6.25 1.875-2.5c-0.83281 1.25-1.4578 1.8752-1.875 1.875-1.25 1.6e-4 -1.8752-0.83281-1.875-2.5-1.6e-4 -0.83281 1.4578-2.0831 4.375-3.75l6.875-4.375 13.75-5.625 1.25-6.875 4.375-6.25-6.25-1.875-3.75-0.625c-2.5002 1.6e-4 -6.4584 1.0422-11.875 3.125-5.0002 1.6669-8.1252 2.5002-9.375 2.5m118.12 115.62-17.5-2.5h-3.125l-5.625-1.875-17.5-5c-3.7503-0.41719-6.8753-0.625-9.375-0.625-2.5002-0.41719-4.1669-0.625-5-0.625h-2.5l-14.375 3.75c-1.6e-4 3.3334 1.8748 5 5.625 5 1.25 0 3.5414-0.625 6.875-1.875 3.3331-1.25 5.8331-1.875 7.5-1.875 0.83281 0 3.3331 0.41719 7.5 1.25 15.416 3.3334 26.875 6.0417 34.375 8.125 7.4997 1.6667 11.25 2.5 11.25 2.5 1.25 0 1.8747-0.83281 1.875-2.5v-3.75m10-20c-24.167-5-43.959-14.167-59.375-27.5-15.417-13.75-24.584-30.625-27.5-50.625-1.25-10.833-3.3336-16.25-6.25-16.25-2.5002 1.6e-4 -3.7502 4.1669-3.75 12.5-1.6e-4 2.0834-1.6e-4 4.5834 0 7.5 0.41563 2.5002 0.83281 5.2084 1.25 8.125l1.875 18.125 1.875 23.125 0.625 23.125 0.625 8.125 0.625 1.25 0.625 1.875 1.875 1.25 7.5-1.25 11.25-3.75 8.125 1.25 30.625 7.5 15 1.875c0.83281 0.41719 2.2914 0.625 4.375 0.625 2.083 0 4.3747-3.3333 6.875-10 0.41719-0.41719 1.6664-2.7083 3.75-6.875m-86.25-91.875 0.625 5.625c0.41719 1.6669 0.83281 3.5419 1.25 5.625 0.41563 1.6669 1.0406 3.9584 1.875 6.875l2.5 6.875 3.75 8.125 1.25 3.75 5.625 9.375c0.83281 2.5002 1.25 4.1667 1.25 5l3.125 0.625c-7.9169-13.333-12.5-24.583-13.75-33.75-0.83281-5.4166-1.6669-8.7498-2.5-10-0.41719-1.6666-2.0836-4.3748-5-8.125m324.38 0.625c-0.41719 0.41719-0.625 1.0422-0.625 1.875-4.7e-4 1.25 0.41563 1.8752 1.25 1.875 1.25 1.6e-4 1.8745-0.41719 1.875-1.25-4.7e-4 -1.6666-0.83437-2.4998-2.5-2.5m-61.25 11.25v0.625c-4.7e-4 1.25 0.625 2.0834 1.875 2.5 2.0828-3.3331 3.7495-4.5831 5-3.75h3.75v5c-4.7e-4 4.1669-3.3338 6.2502-10 6.25-0.83437 1.6e-4 -1.8755 1.6e-4 -3.125 0-1.25-0.41719-2.9172-0.83281-5-1.25 5.8328 5.8334 9.1662 8.7502 10 8.75 9.9995 1.6e-4 15-4.5831 15-13.75-4.7e-4 -7.4998-3.5422-11.25-10.625-11.25-2.5005 1.6e-4 -4.7922 2.2919-6.875 6.875m-115.62 18.125 1.25 11.875 0.625 5.625 1.25-19.375c0.83281-9.5831 4.3747-14.375 10.625-14.375 3.333 1.6e-4 5.6247 1.4578 6.875 4.375 0.41563-0.83281 0.625-2.4998 0.625-5-3.1e-4 -4.5831-3.1253-6.8748-9.375-6.875-8.7503 1.6e-4 -12.709 6.2502-11.875 18.75v5m28.125-5c2.9162-2.9166 5.6247-4.3748 8.125-4.375 1.6662 1.6e-4 3.7495 0.625 6.25 1.875 0.83281 4.1669 1.25 6.2502 1.25 6.25-4.7e-4 1.25-1.4594 4.5834-4.375 10-1.667 3.7502-2.917 7.2917-3.75 10.625 2.4995-3.7498 4.1662-6.0416 5-6.875 6.2495-7.4998 9.3745-12.917 9.375-16.25-4.7e-4 -7.9166-3.542-11.875-10.625-11.875-5.0005 1.6e-4 -8.7503 3.5419-11.25 10.625m58.125-3.125c-20.417 0.41719-33.542 5.8334-39.375 16.25l-3.125 5-3.75 5c-4.5838 11.667-6.8753 19.583-6.875 23.75v1.25c3.7495-2.0833 5.833-3.7498 6.25-5 0.83281-1.6666 1.8745-5.2083 3.125-10.625 1.6662-7.0833 6.458-13.542 14.375-19.375 8.333-5.8331 16.458-8.7498 24.375-8.75 9.9995 1.6e-4 18.75 3.7502 26.25 11.25l3.125 4.375-9.375 1.875c-4.1672 3.7502-6.2505 7.7084-6.25 11.875l-1.25 14.375c-0.41719 5.8334-3.9588 12.083-10.625 18.75 1.6662 1.25 2.9162 1.875 3.75 1.875 11.25 0 17.083-6.4583 17.5-19.375h2.5v3.125c-4.7e-4 1.6667 0.625 2.7084 1.875 3.125 3.3328 2.0834 4.9995 3.1252 5 3.125l6.875-8.75c1.6662-1.25 2.2912-3.1248 1.875-5.625l-0.625-0.625-5.625-7.5c-1.25-1.6666-1.8755-3.5416-1.875-5.625-4.7e-4 -2.9166 1.6662-4.3748 5-4.375h2.5l3.75 4.375 2.5 3.125 2.5 1.875 11.875 3.75v-8.75l5 1.875 1.875 0.625c2.9161 1.6e-4 5.2078-2.7083 6.875-8.125l-8.125-1.25-4.375-5-3.125-4.375c-3.3338-1.6666-6.4588-4.1666-9.375-7.5h1.875-4.375l-5 3.125-0.625 4.375-3.75-0.625 0.625-1.25c-2.0838-1.6666-4.1672-3.1248-6.25-4.375-2.0838-1.6666-4.1672-3.3331-6.25-5l-12.5-5-8.75-1.25m100.62-0.625-1.25 2.5-1.875 4.375-3.125-1.875-1.875 1.25 0.625 7.5c-0.41719 0.83281-0.625 2.2917-0.625 4.375l0.625 1.25c0.83281 0.83281 1.8745 2.2917 3.125 4.375 1.25 1.6667 2.7078 3.5417 4.375 5.625l2.5 3.75 0.625-21.875-3.125-11.25m-103.75 13.75h-16.25c-6.667 15.833-13.75 27.5-21.25 35-7.5005 7.5002-18.125 13.333-31.875 17.5h-0.625c-2.917 0-4.3753 1.6667-4.375 5l0.625 1.875c-3.1e-4 2.0834-0.83437 4.5834-2.5 7.5-1.25 2.5-1.8753 3.9584-1.875 4.375-3.1e-4 1.6667 0.625 2.5 1.875 2.5-1.25 0 5.4162-1.875 20-5.625 28.333-7.0833 49.375-30.417 63.125-70l-6.875 1.875m-35 60-5.625 3.125-10 5-13.75 5-5.625 1.25-9.375 1.875-2.5 5.625c35.833-1.25 64.791-21.667 86.875-61.25 0.83281-1.25 1.8745-3.1248 3.125-5.625 1.25-2.9166 2.7078-7.7083 4.375-14.375-4.7e-4 -0.83281-0.625-1.25-1.875-1.25-1.25 1.6e-4 -2.0838 0.41719-2.5 1.25-0.41719 0.83281-1.6672 5.0002-3.75 12.5-0.41719 1.6667-1.4594 3.7502-3.125 6.25-1.25 2.0834-2.917 4.7917-5 8.125l-6.875 10.625c-4.5838 7.0834-12.709 14.375-24.375 21.875m125.62-59.375 0.625 0.625v3.125h0.625c1.25 1.6e-4 1.8745-0.625 1.875-1.875-4.7e-4 -1.25-1.0422-1.8748-3.125-1.875m-162.5 7.5-5 4.375-2.5 5-0.625 3.125-0.625-1.25h-2.5l-0.625-5-3.75-5c-8.3338 6.2502-12.5 12.083-12.5 17.5l0.625 2.5c0.41563 1.6667 0.625 3.3334 0.625 5-3.1e-4 1.25-3.1e-4 2.2917 0 3.125v1.875c-3.1e-4 7.0834-1.667 12.917-5 17.5-2.917 4.1667-4.5836 6.4584-5 6.875v6.25c-3.1e-4 5.4167-2.0836 7.9167-6.25 7.5h-1.875c-0.83281-3.3333-1.25-5-1.25-5-3.1e-4 -1.6666 0.83281-3.3333 2.5-5l7.5-9.375c4.1664-5.4166 6.2497-12.083 6.25-20-3.1e-4 -1.6666-0.41719-4.5833-1.25-8.75l-1.875-3.75-1.25-6.25-5.625 1.875 0.625 0.625c-3.3336 1.25-5.2086 3.7502-5.625 7.5l-1.875 1.25-1.25-0.625c-0.83437-4.1666-2.7086-7.2916-5.625-9.375l-0.625-1.25-3.75-1.25-5.625-0.625-3.75-1.875c-0.41719 0.41719-0.625 1.25-0.625 2.5-3.1e-4 1.25 0.625 2.7084 1.875 4.375l1.875 1.25-1.875 1.875-3.125-2.5-11.25-0.625-4.375 4.375c-2.0836 3.3334-3.1253 5.8334-3.125 7.5v2.5c0.41719 0.83281 1.25 1.8752 2.5 3.125 2.9164-4.1666 5.4164-6.2498 7.5-6.25 3.7497 1.6e-4 7.708 1.4578 11.875 4.375 1.25 2.5002 1.8747 4.3752 1.875 5.625-3.1e-4 7.0834-1.0422 12.083-3.125 15-1.667 2.5-2.917 4.375-3.75 5.625-4.5836 8.3334-6.8753 13.958-6.875 16.875-3.1e-4 1.6667 0.83281 4.375 2.5 8.125 2.083 3.3334 4.9997 5.2084 8.75 5.625v0.625c-3.1e-4 2.0834-1.25 3.75-3.75 5l-7.5 9.375 7.5 0.625h9.375c2.4997 0 4.583-0.83281 6.25-2.5 2.083-2.0833 3.5414-3.75 4.375-5 0.83281-1.25 1.4578-2.0833 1.875-2.5l10 1.875 8.125-3.75 5-2.5c7.9162-4.1666 15.416-22.083 22.5-53.75 3.7497-15.833 11.458-25.833 23.125-30-3.3338-4.5833-7.5003-6.8748-12.5-6.875h-2.5l-5 2.5m-133.75 2.5 0.625 4.375 3.75-4.375c1.25 0.83281 3.9581 2.0834 8.125 3.75-2.0836-5.8333-4.3753-8.7498-6.875-8.75-2.9169 1.6e-4 -4.7919 1.6667-5.625 5m35 2.5c-2.5003 5.0002-4.1669 12.708-5 23.125l-0.625 5.625 3.125 1.25 1.875-7.5 1.25-7.5c2.0831-7.0833 4.7914-10.625 8.125-10.625l6.25 1.875-1.25-4.375c-0.41719-2.9166-2.9169-4.3748-7.5-4.375h-1.25l-5 2.5m208.12 6.25c2.9162 8.7502 4.3745 15.208 4.375 19.375-4.7e-4 4.1667-1.8755 9.5834-5.625 16.25-0.83437 1.25-1.6672 2.2917-2.5 3.125-0.41719 0.83281-1.0422 1.6667-1.875 2.5l-7.5 6.875v1.25c-4.7e-4 1.6667 0.83281 2.5 2.5 2.5 1.6662 0 3.5412-1.25 5.625-3.75l8.125-10.625c2.4995-2.9166 3.7495-8.1248 3.75-15.625-4.7e-4 -2.9166-0.625-7.2916-1.875-13.125l-5-8.75m66.25 10v1.875l-0.625 1.875c-4.7e-4 0.83281 0.625 1.25 1.875 1.25 1.6661 1.6e-4 2.4994-0.625 2.5-1.875-6.2e-4 -1.25-0.20937-2.0833-0.625-2.5l-3.125-0.625m-85 32.5c0.41563 0.41719 0.83281 0.83281 1.25 1.25 0.41563 0 0.83281 0.20781 1.25 0.625 2.0828 0 3.1245-1.4578 3.125-4.375-4.7e-4 -2.5-1.0422-3.75-3.125-3.75-2.0838 0-3.1255 1.6667-3.125 5l0.625 1.25m70-0.625-1.875-0.625-4.375 13.75c0.83281 2.5 1.25 3.5417 1.25 3.125-4.7e-4 1.25-0.41719 3.5417-1.25 6.875-0.83437 2.9167-1.25 5.2084-1.25 6.875-1.6672-1.6666-2.5005-2.9166-2.5-3.75-4.7e-4 -1.6666 0.83281-5 2.5-10l-4.375 1.875h-1.25c-1.25 3.3334-1.8755 6.4584-1.875 9.375-4.7e-4 1.6667 0.625 3.5417 1.875 5.625 1.6661 2.0834 2.7078 3.9584 3.125 5.625 2.9161-1.6666 4.7911-3.9583 5.625-6.875h1.25c0.83281 0.83281 1.25 1.6667 1.25 2.5-4.7e-4 0.83281-0.41719 2.2917-1.25 4.375-0.83437 1.6667-1.25 2.9167-1.25 3.75-4.7e-4 5.4167 3.3328 8.125 10 8.125 2.4995 0 5.2078-2.0833 8.125-6.25l-3.75-1.25-5-3.75-1.25-8.75 2.5-7.5 1.875-8.125 3.125-8.125v-6.875l-5-3.125 0.625-0.625h-2.5l-1.25 3.75h-3.125m-86.25 34.375 13.125 3.125 2.5-1.25-1.875-0.625-3.125-0.625-7.5-1.875-4.375-1.25-6.25-3.125-4.375-1.875-2.5-2.5c-3.7505-4.1666-5.6255-7.9166-5.625-11.25-4.7e-4 -3.75 1.6662-5.625 5-5.625 2.9162 0 4.7912 0.20781 5.625 0.625 0.83281-3.3333 1.25-5.2083 1.25-5.625-4.7e-4 -2.9166-2.7088-4.375-8.125-4.375-7.917 0-11.875 5-11.875 15-4.7e-4 10.417 9.3745 17.5 28.125 21.25m-261.88-26.25v6.25l3.75-5c1.25-1.6666 2.7081-2.5 4.375-2.5 3.3331 0 6.2498 1.4578 8.75 4.375 1.25 1.25 1.8748 2.9167 1.875 5-1.6e-4 2.9167-1.8752 5.8334-5.625 8.75-3.3336 2.9167-6.2502 4.375-8.75 4.375h-18.125c-1.6669 0-2.5002 0.83281-2.5 2.5 0.41719 0.41719 0.625 0.83281 0.625 1.25l0.625 0.625h3.75l11.875 1.25h6.875l1.875-0.625 6.25-2.5c7.0831-3.3333 10.625-8.125 10.625-14.375-1.6e-4 -11.667-4.7919-17.5-14.375-17.5-5.4169 0-9.3752 2.7084-11.875 8.125m270-6.875c-1.6672 0.41719-2.5005 1.25-2.5 2.5-4.7e-4 1.6667 0.83281 2.5 2.5 2.5 2.4995 0 3.7495-1.0422 3.75-3.125-4.7e-4 -1.6666-1.0422-2.5-3.125-2.5l-0.625 0.625m-11.25 8.75h1.875c1.25 0 2.7078-0.83281 4.375-2.5-0.41719-2.9166-1.6672-4.375-3.75-4.375-2.0838 0-3.1255 1.6667-3.125 5l0.625 1.875m18.125-3.125c-2.0838 0.83281-3.1255 2.5-3.125 5-4.7e-4 2.0834 1.0406 3.125 3.125 3.125 2.9162 0 4.3745-1.4578 4.375-4.375-4.7e-4 -2.5-1.25-3.75-3.75-3.75h-0.625m21.875 2.5-3.125 2.5c-1.25 2.5-1.8755 5.625-1.875 9.375v3.125c2.4995 5.4167 7.0828 8.125 13.75 8.125 4.9995 0 12.083-3.9583 21.25-11.875l-0.625-0.625c-2.0839 1.25-3.3339 1.875-3.75 1.875-0.83437-0.83281-1.8755-1.4578-3.125-1.875v-1.25l-3.125 4.375c-3.3339 1.25-6.0422 1.875-8.125 1.875 0.41563 0-1.4594-0.41719-5.625-1.25l-3.125-7.5 3.125-5.625-5.625-1.25m-72.5 17.5c14.583 13.333 33.333 20 56.25 20 14.583 0 25.625-2.5 33.125-7.5l5-3.125 9.375-6.875 0.625-0.625-0.625-3.75-5.625 2.5-10 6.25c-5.4172 4.1667-16.042 6.25-31.875 6.25h-4.375l-8.75-0.625c-1.25-0.41719-3.1255-0.83281-5.625-1.25-2.0838-0.83281-4.792-1.6666-8.125-2.5l-6.875-2.5-3.75-1.875h-1.25v-0.625l-5-3.125-1.25-0.625-4.375-4.375c-7.0838-7.0833-11.042-10.625-11.875-10.625-2.917 0-4.3755 1.25-4.375 3.75-4.7e-4 1.25 1.8745 3.75 5.625 7.5l3.75 3.75m39.375-14.375c-1.25 2.0834-1.8755 3.75-1.875 5-4.7e-4 2.0834 1.25 3.125 3.75 3.125 1.6662 0 2.4995-2.0833 2.5-6.25-0.83437-1.25-1.8755-1.875-3.125-1.875h-1.25m21.875 1.875c-1.6672 0-2.5005 1.0422-2.5 3.125-4.7e-4 2.0834 1.0406 3.125 3.125 3.125 2.4995 0 3.7495-1.25 3.75-3.75-4.7e-4 -1.6666-1.4594-2.5-4.375-2.5m-234.38 0.625-8.125 8.125-10.625 5.625c-10.834 5.4167-23.542 8.125-38.125 8.125-4.5834 0-7.0834-0.20781-7.5-0.625l-9.375-1.875-8.75 1.875c10.417 5 20.208 7.5 29.375 7.5 14.166 0 26.875-2.5 38.125-7.5 7.9164-3.3333 12.708-6.25 14.375-8.75l3.125-3.125 5-4.375 0.625 0.625 1.25-4.375-9.375-1.25m208.12 3.125c-0.41719-1.6666-1.4594-2.5-3.125-2.5-2.5005 0-3.7505 1.25-3.75 3.75-4.7e-4 2.5 1.0406 3.75 3.125 3.75 1.6662 0 2.9162-1.6666 3.75-5m15.625 0.625c-2.9172 1.6667-4.3755 3.125-4.375 4.375-4.7e-4 2.5 1.25 3.75 3.75 3.75 1.25 0 2.2912-0.625 3.125-1.875 0.83281-1.25 1.4578-2.2916 1.875-3.125l-0.625-0.625c-4.7e-4 -0.41719-0.20937-0.83281-0.625-1.25l-3.125-1.25m-203.75 1.875-7.5 1.875c-3.3336 0.83281-7.0836 2.9167-11.25 6.25l-5 4.375-11.25 5.625 5-1.25 25-10c0.83281-0.41719 2.9164-0.625 6.25-0.625 10.833 0 16.25 3.5417 16.25 10.625-3.1e-4 5.8333-2.9169 8.75-8.75 8.75-0.83437 0-3.9586-1.0422-9.375-3.125 1.6664 5 5.6247 7.5 11.875 7.5 10.833 0 16.25-4.5833 16.25-13.75-3.1e-4 -3.75-1.4578-7.0833-4.375-10l-3.75-3.125c-2.5003-0.83281-3.9586-1.25-4.375-1.25h-1.25l-13.75-1.875m133.75 3.75c-1.25-0.41719-4.3753-0.625-9.375-0.625-4.167 0-7.7088 1.4578-10.625 4.375-2.917 4.1667-4.3753 7.5-4.375 10-3.1e-4 8.3333 4.583 12.708 13.75 13.125-3.3338-5.8333-5.0003-9.375-5-10.625-3.1e-4 -5.4166 3.958-8.125 11.875-8.125 3.7497 0 7.2912 0.625 10.625 1.875l27.5 10 12.5 2.5c1.25 0 2.9162-0.625 5-1.875l-3.125-0.625-6.25-1.875-4.375-1.25-1.25-0.625-1.875-0.625-3.75-1.875-5.625-1.875-6.25-3.125-3.75-2.5-5-1.875-6.875-3.125-3.75-1.25m-260 6.25c2.9166 4.1667 4.3748 7.2917 4.375 9.375-1.6e-4 2.5-0.83281 5.4167-2.5 8.75 6.2498-0.41719 9.3748-2.7083 9.375-6.875-1.6e-4 -5.4166-3.7502-9.1666-11.25-11.25m383.75 1.875-3.125 2.5-5.625 7.5v1.25c-4.7e-4 2.0833 2.0828 4.5833 6.25 7.5l-0.625-5c-4.7e-4 -2.5 0.625-4.375 1.875-5.625l4.375-4.375 0.625-1.25c-4.7e-4 -1.6666-1.25-2.5-3.75-2.5m-93.125 13.75-1.25-0.625 1.25 0.625m-223.12-445-1.25 0.625c-0.41719-0.83281-0.625-2.2912-0.625-4.375-1.6e-4 -2.4995 0.83281-3.7495 2.5-3.75h0.625l1.875 0.625-1.875 3.75v3.75l-1.25-0.625m-5-5.625 1.875 3.125-2.5 1.875-1.875-2.5 0.625-3.125 1.875 0.625m-5.625-0.625 0.625 4.375c-1.6e-4 1.25-0.41719 1.8755-1.25 1.875-1.6669 4.7e-4 -2.5002-0.83281-2.5-2.5-1.6e-4 -0.83281 0.20781-1.4578 0.625-1.875l2.5-1.875m-6.875 1.25 3.125 5-4.375-0.625 1.25-4.375m54.375 1.875 5.625 0.625 12.5 4.375 9.375 8.75-5-1.875-5.625-5.625-16.875-4.375v-1.875m-115 31.875v3.125l-0.625 3.125-3.125 8.75-8.75 20.625c-1.6e-4 4.7e-4 0.20781-1.0406 0.625-3.125 0.83281-2.4995 1.8748-6.0412 3.125-10.625-1.6e-4 -2.9162 0.83281-4.583 2.5-5l1.25-3.75 1.25-6.875 3.125-5.625 0.625-0.625m76.25 8.75 2.5 7.5-3.125-6.25 0.625-1.25m-15.625 25.625v-3.75h1.875c-2.5002 0.83438-1.8752 1.25 1.875 1.25-1.6e-4 1.25 0.41719 1.8755 1.25 1.875l-5 0.625m7.5 17.5 8.125-13.75c-0.83437 5.417-2.5002 10.209-5 14.375l-3.125-0.625m-5.625-12.5v5.625c-1.25 6.2503-3.5419 11.042-6.875 14.375l1.25-0.625-2.5 0.625c0.83281-1.25 1.4578-2.708 1.875-4.375 0.83281-2.083 1.6666-4.1662 2.5-6.25v-6.25c0.83281-2.083 2.0831-3.1245 3.75-3.125m99.375 0 4.375 0.625 1.875 3.125h-3.125c-0.83437 4.7e-4 -2.0836-0.625-3.75-1.875l0.625-1.875m3.125 5.625c2.9164 1.667 3.9581 3.7503 3.125 6.25v1.25h-0.625l-3.125-5-5.625 0.625 2.5-3.125h3.75m63.125 5 1.875-3.75 3.125 5.625-1.875 1.25h-1.875l-1.25-3.125m47.5 3.75-0.625 4.375-3.125 5-1.875 2.5c-2.5003 2.917-4.5838 4.3753-6.25 4.375v-1.25c-3.1e-4 3.1e-4 1.0406-0.83281 3.125-2.5 2.4997-2.083 3.958-4.1662 4.375-6.25 0.83281-3.7497 1.4578-5.833 1.875-6.25h2.5m-238.75 3.125 1.25-0.625 1.25-1.25c2.9166-0.41562 4.3748 0.41719 4.375 2.5-1.6e-4 1.25-0.625 1.8753-1.875 1.875-1.6669 3.1e-4 -3.3334-0.83281-5-2.5m23.125 7.5 3.125 1.25 4.375-0.625 0.625 1.25-2.5 2.5h-3.125c-1.25 0.41719-2.9169-0.41562-5-2.5-1.6e-4 -0.41562-0.625-0.625-1.875-0.625-0.83281-0.41562-1.25-0.83281-1.25-1.25-1.25 3.1e-4 -0.20781-0.41562 3.125-1.25-1.6e-4 3.1e-4 0.20781 0.20938 0.625 0.625 0.41719 3.1e-4 1.0422 0.20938 1.875 0.625m25-0.625 0.625-6.25-3.75 4.375c-2.0836 3.7503-4.7919 5.6253-8.125 5.625l-0.625 3.125 11.875-6.875m81.875-0.625h1.875c-1.6669 5.8338-3.1253 10.834-4.375 15-1.25 4.167-2.7086 7.292-4.375 9.375l-1.875-0.625 8.75-23.75m-72.5-0.625-5 5.625-3.125 1.25-6.875 3.75-8.125 1.875 0.625-1.875 6.25-2.5 8.75-5 7.5-3.125m-30 9.375 1.875 0.625-5.625 2.5-2.5-0.625-2.5-2.5v-1.875c-1.6e-4 -0.83281 1.25-0.41562 3.75 1.25 0.83281-0.41562 2.4998-0.20781 5 0.625m195.62 5.625 3.125 0.625 3.125 3.75-6.25-0.625c-3.3338-4.583-5.0003-6.6662-5-6.25l1.25-3.125 1.875-1.25 1.875 6.875m-53.75 3.125 11.25-4.375 0.625 1.25-3.125 0.625v0.625l-1.875 0.625-0.625 1.25-2.5 1.25-2.5 0.625-1.25-1.875m43.75-4.375c0.41563 1.667 3.333 4.5838 8.75 8.75-2.0838-0.41562-3.542-0.625-4.375-0.625-0.83437 3.1e-4 -1.25 3.1e-4 -1.25 0l-3.75-3.125 0.625-5m26.25 9.375c-0.83437 1.667-1.667 3.1253-2.5 4.375-0.41719 1.25-3.7503 2.292-10 3.125-4.5838 0.83438-6.8753-0.41562-6.875-3.75l-3.125-1.875 10 2.5c2.9162 0.41719 4.9997 0.20938 6.25-0.625 1.6662-0.83281 3.7497-2.083 6.25-3.75m-280 1.25 1.25-1.25c1.6666 3.1e-4 1.6666 0.83438 0 2.5-1.6667 1.667-4.5834 2.917-8.75 3.75h-1.875l-0.625-2.5h3.125l3.75-2.5h3.125m-3.75 8.125h2.5c1.6666 3.1e-4 2.4998 0.41719 2.5 1.25-0.41719 1.25-3.5417 2.292-9.375 3.125v-1.875l4.375-2.5m210.62 5.625h5l-1.25-1.875-0.625-1.875-3.125 0.625v3.125m-206.25 2.5-3.125 4.375-3.125-3.75 4.375-1.25 1.875 0.625m211.25 3.75 1.875 1.25 11.875 5c-7.917-0.41562-13.125-2.4997-15.625-6.25h1.875m37.5 3.75-4.375-1.875-4.375 1.25-1.875-0.625-5.625 3.125 16.25-1.875m-3.75 5.625-13.125 3.125 5.625-3.75 11.25-2.5c-3.1e-4 1.667-2.0838 3.3336-6.25 5 0.41563-0.41719 0.83281-0.625 1.25-0.625 0.41563-0.41719 0.83281-0.83281 1.25-1.25m185 3.125-1.25 1.25-2.5 0.625-0.625-5 4.375 3.125m-1.875 5.625v3.125c-4.7e-4 -0.41719-0.625-0.625-1.875-0.625-0.83437 3.1e-4 -1.25-1.25-1.25-3.75l3.125 1.25m-1.875 5.625c1.6661 3.1e-4 2.4995 0.625 2.5 1.875-4.7e-4 2.917-0.20937 4.3753-0.625 4.375-0.83437-0.41719-2.0839-1.0422-3.75-1.875l1.875-4.375m-73.75 16.25c-4.7e-4 3.1e-4 0.20781 0.41719 0.625 1.25 0.41563 0.41719 1.0406 1.25 1.875 2.5-4.7e-4 2.0836-0.20937 3.1253-0.625 3.125l-3.75-1.875-0.625-5 1.875-1.25 0.625 1.25m-6.875-0.625v4.375l4.375 3.75h-6.875l-1.875-3.125c0.83281 3.3336 1.25 1.8753 1.25-4.375-4.7e-4 -0.83281 0.41563-0.83281 1.25 0 0.83281 3.1e-4 1.4578-0.20781 1.875-0.625m-31.875 3.125 7.5 5c2.9162 1.6669 6.0412 3.1253 9.375 4.375 3.3328 0.83438 6.8745 1.4578 10.625 1.875h0.625l7.5-0.625c4.9995 3.1e-4 7.7078 0.20938 8.125 0.625-4.7e-4 3.1e-4 -0.20937 0.20938-0.625 0.625h-1.875c-4.7e-4 1.6669-2.0838 2.5003-6.25 2.5h-9.375l-3.125-0.625-5.625-1.25-16.25-8.75-0.625-3.75m22.5-3.75 0.625 5 3.125 4.375-3.75 1.25-3.75-2.5v-3.125l3.75-5m35 12.5 6.875-0.625-5 2.5-1.875-1.875m-8.125 5.625-1.875-0.625 3.75-5c-4.7e-4 0.83438 0.625 2.0836 1.875 3.75 0.41563 1.25 0.41563 1.8753 0 1.875h-3.75m-23.75 5.625 3.75 1.25v5l-0.625 1.25-1.875-0.625h-3.75l-2.5-2.5v-2.5c1.25 3.1e-4 2.9162-0.625 5-1.875m10 1.25 6.25-0.625-3.75 3.125v5l-3.125-1.25c0.83281 3.1e-4 0.625-1.4578-0.625-4.375l1.25-1.875m-231.88 0.625 15.625 7.5-9.375-2.5-4.375-3.125-1.875-1.875m-3.125 5.625 11.25 4.375v0.625l0.625-0.625v1.875c-5.4169-1.6664-9.3752-3.7497-11.875-6.25m50.625 21.25c0.41563 0.83438 0.625 2.5003 0.625 5-3.1e-4 2.9169-0.625 4.5836-1.875 5h-2.5l-1.875 0.625 1.25-2.5 2.5-1.875v-5.625h1.875v-0.625m-39.375 4.375-5 0.625-0.625 1.25-2.5 0.625c-2.0836 0.83438-3.5419 1.8752-4.375 3.125l-3.125 2.5-1.25 3.125-1.875 1.875-1.25-0.625c2.4998-7.4998 7.7081-11.875 15.625-13.125l1.875 1.25-0.625-1.875 3.125 1.25m43.75 0.625c1.25 2.0836 1.8747 3.3336 1.875 3.75-3.1e-4 0.41719 0.41719 1.0422 1.25 1.875 0.41719 0.41719 0.41719 0.83438 0 1.25-0.83281 0.83281-2.7086 1.4578-5.625 1.875l2.5-8.75m5.625 5 1.875 1.875c-0.83437 2.0836-2.292 3.3336-4.375 3.75l2.5-5.625m35.625 35 0.625 3.125 1.25 9.375 1.875 4.375c-4.167-0.41719-6.2503-5.6248-6.25-15.625 0.83281-0.83281 1.6664-1.25 2.5-1.25m5.625 3.75 2.5 13.75 1.25-1.25-2.5 0.625c-2.5003-9.9998-3.7503-13.958-3.75-11.875-3.1e-4 -0.41719 0.83281-0.83281 2.5-1.25m160 5.625c-4.7e-4 2.5002-1.0422 4.1669-3.125 5l1.875-5.625v0.625h1.25m-101.88 0.625 11.25 1.875 5 1.25-5 1.25 1.25-0.625-3.125-0.625c-3.7505-1.25-6.4588-1.8748-8.125-1.875h-3.125l1.875-1.25m106.25 0.625 1.25 0.625c-1.25 1.25-2.2922 2.7084-3.125 4.375-0.41719 1.6669-1.0422 2.5002-1.875 2.5-0.83437 1.6e-4 -1.25-0.41719-1.25-1.25-4.7e-4 -2.0831 1.6662-4.1666 5-6.25m-275.62 11.875 2.5 1.875 1.875 3.125c2.4998 1.6e-4 4.1664 0.20781 5 0.625-0.41719 0.41719-1.0422 0.83281-1.875 1.25l-1.875 1.875-3.75-3.75-6.25-6.875 1.25-1.25 3.125 3.125m137.5 0 1.875-0.625 3.125 2.5-1.25 1.25-0.625 1.25-3.125-1.25v-3.125m131.88 1.25 6.25 5 1.875 0.625 2.5 2.5c0.83281 0.83281 8.7495 3.9584 23.75 9.375l-10 0.625-6.875-3.75-2.5-0.625-0.625-1.25-6.25-3.75-3.75-3.75-4.375-5m-189.38 0.625c2.9164 0.83281 8.5414 4.5834 16.875 11.25 4.9997 3.3334 7.4997 5.0002 7.5 5-3.1e-4 0.41719-3.1e-4 1.25 0 2.5 0.41719 0.83281 0.83281 2.2919 1.25 4.375 0.41719 2.0834 0.625 3.5419 0.625 4.375-3.1e-4 0.83281-3.1e-4 1.25 0 1.25l-1.25-1.25-3.125-5-1.25-2.5c-1.667-3.3331-5.0003-7.4998-10-12.5l-3.125-1.25c-1.667-0.83281-3.1253-1.8748-4.375-3.125-1.25-1.25-2.292-2.2916-3.125-3.125m54.375 3.125 5 3.125-6.25-0.625-0.625-3.125 1.875 0.625m135.62 2.5 8.75 6.875 7.5 3.75-3.125 1.25-6.25-3.125-6.25-6.25-0.625-2.5m-138.75 0.625 3.125 3.75-6.25 1.875 3.125-5.625m-160 28.75-1.875 0.625c-6.2502-1.6666-9.3752-2.7081-9.375-3.125 1.25-0.41719 3.1248-1.0422 5.625-1.875 3.7498 1.25 5.6248 2.7084 5.625 4.375m321.25-5.625-0.625 3.125 1.25-3.125-1.25 3.75h-4.375l5-3.75m-346.88 3.75c-0.41719 1.6e-4 0.625 0.41719 3.125 1.25-1.6e-4 2.0834-0.41719 3.5419-1.25 4.375l-3.125-0.625-2.5-1.25c0.83281-1.6666 2.0831-2.7081 3.75-3.125v-0.625m16.25 3.75c4.9998 2.0834 6.4581 3.5417 4.375 4.375-1.25-0.41719-2.9169-0.625-5-0.625h-1.875l-2.5-0.625 0.625-3.125h4.375m340.62-3.75-6.25 7.5h-1.875c0.41563-4.1666 1.4578-6.2498 3.125-6.25l5-1.25m19.375 1.875 0.625 7.5-1.25 0.625-1.25-6.875 1.875-1.25m-362.5 8.75 5.625 1.25v3.125c-0.83281-0.83281-1.8752-0.83281-3.125 0-4.5834-0.83281-7.0834-1.0422-7.5-0.625l-1.25-1.875c0.41719 1.6e-4 1.25-0.625 2.5-1.875h3.75m-17.5-2.5 2.5 1.875-0.625 0.625c-1.6e-4 0.41719-0.41719 1.0422-1.25 1.875-0.83281-0.83281-1.6669-1.25-2.5-1.25-0.83281 1.6e-4 -1.25-0.20781-1.25-0.625-1.6e-4 -1.6666 0.41719-2.4998 1.25-2.5h1.875m310 6.875 0.625 1.875h-5l4.375-1.875m-314.38-0.625 3.75 1.25-0.625 3.125-3.75-0.625 0.625-3.75m323.12 3.125-2.5 2.5h0.625c-3.7505 0.41719-6.2505 2.0834-7.5 5h-1.875 1.25l-1.875-0.625c1.6662-4.1666 3.9578-6.2498 6.875-6.25h1.25l3.75-0.625m-140 3.125 0.625 0.625-2.5 1.875c-2.5003 1.6e-4 -3.7503-1.0422-3.75-3.125-3.1e-4 -0.83281 0.41719-1.25 1.25-1.25l4.375 1.875m-185 6.25c0.41719-3.7498 1.0422-5.6248 1.875-5.625 1.25 1.6e-4 1.8748 0.83281 1.875 2.5-1.6e-4 0.83281-0.41719 1.25-1.25 1.25l-1.875 1.875c-0.41719 1.6e-4 -0.625 1.6e-4 -0.625 0m330-1.875h2.5l8.125 3.125-3.125 2.5h-3.125l-3.75-3.75-0.625-1.875m36.875 0.625h2.5c1.25 4.5834 4.9995 10.833 11.25 18.75l-3.125 1.875c-2.0839 1.6e-4 -3.9589-1.8748-5.625-5.625-1.25-4.1666-2.9172-9.1666-5-15m-52.5 11.875c2.0828 1.6e-4 3.1245 1.25 3.125 3.75-4.7e-4 1.6e-4 0.41563 0.625 1.25 1.875 0.83281 1.25 1.25 2.2917 1.25 3.125l-4.375 0.625-1.25-9.375m-370 0.625 0.625 1.25-4.375 1.875c0.41719-2.9166 0.83281-4.5833 1.25-5l1.25 1.875h1.25m231.25 19.375-3.125 0.625 3.125-8.75v-6.875l1.875 0.625v-0.625l0.625 8.75-2.5 6.25m-225.62-13.125-8.125 1.875c0.41719-2.4998 1.4578-3.7498 3.125-3.75l5 1.875m1.25 3.75 1.25 1.875h-6.25l-3.75 6.25-1.25-5c0.41719-0.83281 1.0422-1.6666 1.875-2.5 1.25-0.83281 2.0833-1.4578 2.5-1.875-1.6e-4 1.6e-4 0.83281 0.20781 2.5 0.625 2.0833 1.6e-4 3.1248 0.20781 3.125 0.625m430.62 2.5-0.625 2.5 1.25 1.875h-3.125l2.5-4.375m-427.5 6.25-1.875-0.625-6.875 2.5 5-5h1.875c0.41719 0.41719 1.0422 1.4578 1.875 3.125m430 2.5h1.875v2.5h-2.5 1.25l-1.25-1.25 0.625-1.25m-20.625 8.75 1.875 0.625-3.75 8.125c-1.25 2.5-2.9172 3.75-5 3.75h-1.25l8.125-12.5m-175 25.625 1.875-0.625h-1.875l-0.625-1.875c0.83281-0.83281 1.6662-1.875 2.5-3.125 1.25-1.6666 2.2912-3.3333 3.125-5 1.6662-8.75 3.5412-13.125 5.625-13.125 0.41563 0 0.625 0.625 0.625 1.875-3.1e-4 2.0834-1.25 6.4584-3.75 13.125-2.5003 6.25-4.5838 9.1667-6.25 8.75h-1.25m-40.625-23.125 1.875 0.625 1.25 3.125c-5.417 5.4167-8.1253 12.083-8.125 20-2.5003-0.41719-3.7503-1.4578-3.75-3.125-3.1e-4 -4.1666 2.9164-11.042 8.75-20.625m5 5.625 1.25 3.75c-2.917 2.9167-4.5836 7.0834-5 12.5h-3.125c-3.1e-4 -4.1666 1.25-7.9166 3.75-11.25v-3.75l3.125-1.25m-169.38 13.75 14.375 2.5 5-3.125h-7.5l-11.875 0.625m179.38-1.875 0.625 1.875 1.25 1.875c1.6664 1.25 3.1247 1.875 4.375 1.875-1.25 0 0.20781-0.41719 4.375-1.25-0.83281 2.5-1.667 3.75-2.5 3.75-2.5003 0-5.2086-0.625-8.125-1.875l-1.25-2.5c-0.41719-0.41719-0.625-1.25-0.625-2.5-3.1e-4 0-3.1e-4 0 0 0 0.41719-0.41719 1.0422-0.83281 1.875-1.25m-183.75 4.375c4.5831 1.6667 9.1666 2.5 13.75 2.5h0.625c0.83281 0 1.4578 0.20781 1.875 0.625 1.6666 0.41719 3.1248 0.41719 4.375 0l-0.625 1.25h-6.875c-2.9169 0-7.0834-0.625-12.5-1.875l-0.625-2.5m187.5 8.125v-0.625 1.875l-5 0.625 2.5-0.625-4.375-0.625c-1.25-0.41719-1.8753-1.25-1.875-2.5-3.1e-4 -0.41719 0.20781-0.83281 0.625-1.25l8.125 3.125m-10 3.125 1.875 1.25 4.375 1.875-1.875 0.625 0.625-0.625-2.5 0.625c-1.25 0-2.0836-1.25-2.5-3.75"
         fill="#8f0005"
         id="path13" />
    </g>
  </g>
</svg>
