<?xml version="1.0" encoding="UTF-8" standalone="no"?>
<svg
   xmlns:dc="http://purl.org/dc/elements/1.1/"
   xmlns:cc="http://creativecommons.org/ns#"
   xmlns:rdf="http://www.w3.org/1999/02/22-rdf-syntax-ns#"
   xmlns:svg="http://www.w3.org/2000/svg"
   xmlns="http://www.w3.org/2000/svg"
   xmlns:sodipodi="http://sodipodi.sourceforge.net/DTD/sodipodi-0.dtd"
   xmlns:inkscape="http://www.inkscape.org/namespaces/inkscape"
   version="1.1"
   viewBox="0 0 500 500"
   id="svg21"
   sodipodi:docname="william-morris-letter-e.svg"
   inkscape:version="1.0.2 (1.0.2+r75+1)">
  <metadata
     id="metadata25">
    <rdf:RDF>
      <cc:Work
         rdf:about="">
        <dc:format>image/svg+xml</dc:format>
        <dc:type
           rdf:resource="http://purl.org/dc/dcmitype/StillImage" />
      </cc:Work>
    </rdf:RDF>
  </metadata>
  <sodipodi:namedview
     pagecolor="#ffffff"
     bordercolor="#666666"
     borderopacity="1"
     objecttolerance="10"
     gridtolerance="10"
     guidetolerance="10"
     inkscape:pageopacity="0"
     inkscape:pageshadow="2"
     inkscape:window-width="1920"
     inkscape:window-height="1016"
     id="namedview23"
     showgrid="false"
     inkscape:zoom="1.192182"
     inkscape:cx="206.20737"
     inkscape:cy="249.07234"
     inkscape:window-x="0"
     inkscape:window-y="27"
     inkscape:window-maximized="1"
     inkscape:current-layer="svg21" />
  <defs
     id="defs7">
    <linearGradient
       id="linearGradient847"
       x1="500"
       x2="0"
       y1="500"
       y2="-4.2633e-14"
       gradientTransform="translate(1.4597e-6)"
       gradientUnits="userSpaceOnUse">
      <stop
         stop-color="#ff6700"
         offset="0"
         id="stop2" />
      <stop
         stop-color="#ffd700"
         offset="1"
         id="stop4" />
    </linearGradient>
  </defs>
  <path
     d="m 76.121,37.117 c 0,0 -15.728,11.534 -16.986,13.002 -1.2582,1.4679 3.7754,10.693 3.7754,10.693 0,0 53.893,13.001 57.668,17.195 3.7746,4.194 6.709,9.8561 6.709,11.953 0,0.90694 0.69432,16.822 1.4512,33.943 7.4598,2.8709 17.213,6.3184 17.213,6.3184 l 17.615,-3.5645 14.834,-8.7578 -1.0566,-43.168 c 0,0 3.8727,-0.0382 5.0742,-0.05078 l 0.85547,-2.1719 31.436,-0.59375 c 0,0 0.17628,1.0675 0.39649,2.4707 31.462,-0.2649 74.781,-0.55699 104.06,-0.39844 0.28605,-6.9631 1.2539,-15.482 1.2539,-15.482 l -3.4277,-15.73 c -2.3843,0.13568 -4.152,0.30654 -5.0117,0.52148 -7.1174,1.7794 -172,1.1875 -172,1.1875 l -58.719,-4.1523 -5.1367,-3.2148 z m 262.45,5.2109 c -4.0604,0.01643 -7.8956,0.05603 -11.396,0.11914 0.34373,0.79143 0.58985,1.3809 0.58985,1.3809 l 1.2578,27.68 -0.45313,2.5547 c 10.838,0.11626 18.216,0.32455 19.598,0.66992 7.1174,1.7794 20.758,11.27 21.352,13.643 0.59312,2.3725 3.5586,20.76 3.5586,20.76 0,0 10.083,10.082 13.049,10.082 2.966,0 8.8965,-10.082 8.8965,-10.082 l -8.8965,-66.43 c 0,0 -26.181,-0.46345 -47.555,-0.37695 z m -159.63,97.535 -9.7129,8.3945 -25.162,15.518 -13.297,5.6484 c 0.004,0.0878 0.084,1.9004 0.084,1.9004 0,0 -1.0481,233.19 -1.2578,235.28 -0.2097,2.097 -19.291,18.453 -20.34,18.453 -1.049,0 -34.602,10.275 -34.602,10.275 l 6.7109,14.051 289.6,5.4512 9.8242,-2.8809 27.283,-36.773 11.27,-43.891 c 0,0 -14.827,2.373 -17.793,2.373 -2.966,0 -33.809,33.215 -33.809,33.215 l -55.178,13.672 c -9.3864,0.27976 -22.065,0.66423 -29.881,0.94336 l 0.32617,1.1914 -87.271,-3.9453 -11.27,-16.014 -5.9316,-144.72 3.5586,-7.1172 c 0,0 11.452,-0.12297 14.838,-0.16015 0.30222,-0.93592 1.2402,-1.8164 1.2402,-1.8164 l 19.66,-30.625 -36.924,1.7578 -1.9629,-80.184 z m 172.83,24.619 c -3.7984,1.9345 -8.9194,2.0025 -11.469,1.9004 l -9.3359,20.449 c 0,0 -10.084,18.388 -13.643,23.133 -3.559,4.745 -11.861,4.1524 -11.861,4.1524 l -35.01,1.666 -0.35352,3.3535 -42.359,2.9356 -17.406,25.373 7.0352,3.0664 c 32.109,-0.35141 73.431,-0.80856 75.045,-0.8086 2.3725,0 27.877,4.1524 27.877,4.1524 l 25.504,42.705 11.861,4.7441 -4.1504,-69.988 4.1504,-24.91 -1.1856,-39.146 -4.6992,-2.7774 z"
     fill="#f4eee6"
     id="path11" />
  <g
     id="g19">
    <g
       transform="translate(-146.86,-119.79)"
       id="g17">
      <path
         d="m146.86 619.79v-500h500v500h-500m7.5-7.5h485v-485h-485v485m7.5-7.5v-469.38h469.38v469.38h-469.38m271.88-448.12 0.625-1.875c0.41719 0.41719 1.25 0.625 2.5 0.625 1.6664 4.7e-4 3.958-1.4578 6.875-4.375l-6.875 1.25-5.625 2.5c-3.3336 1.25-6.2503 1.8755-8.75 1.875h-3.75c-1.6669 4.7e-4 -3.1253-0.20781-4.375-0.625l-0.625-1.875h6.875c5.833 4.7e-4 8.7497-2.0828 8.75-6.25-3.1e-4 -5.4162-5.0003-8.1245-15-8.125-7.0836 4.7e-4 -11.459 1.25-13.125 3.75l-4.375 5.625-3.125 4.375 0.625 1.875 10.625-10c1.6664-1.6662 4.5831-2.4995 8.75-2.5 6.6664 4.7e-4 9.9997 1.6672 10 5-3.1e-4 1.6672-1.0422 2.5005-3.125 2.5h-10.625c-1.6669 4.7e-4 -2.5003 0.83437-2.5 2.5-3.1e-4 5.8338 3.3331 8.7505 10 8.75 0.83281 4.7e-4 6.2497-1.6662 16.25-5m43.75-4.375 2.5 3.125c1.6662-6.2495 4.3747-9.3745 8.125-9.375 7.4997 4.7e-4 11.041 3.9588 10.625 11.875v2.5l5 0.625c6.6662 0.41719 9.9997-2.7078 10-9.375-3.1e-4 -0.83281-0.83438-2.7078-2.5-5.625-1.25-3.3328-1.667-4.9995-1.25-5h-2.5l-1.875 3.75h-1.875l-4.375-3.75c-0.41719-0.41563-2.5003-0.625-6.25-0.625-10.417 4.7e-4 -15.625 3.5422-15.625 10.625v1.25m-281.88 21.875 5-4.375 3.75-5.625 3.75-1.25c0.83281-0.41563 1.6666-1.0406 2.5-1.875 0.83281-0.83281 2.0833-1.6662 3.75-2.5 9.9998-8.7495 24.375-13.125 43.125-13.125 7.4998 4.7e-4 14.792 1.4594 21.875 4.375 1.25-2.9162 1.8748-4.7912 1.875-5.625-1.6e-4 -1.6662-5.2084-2.7078-15.625-3.125l-12.5-0.625c-7.5002-0.83281-19.167 2.2922-35 9.375-1.6667 0.83437-3.1252 1.6672-4.375 2.5-1.25 0.41719-2.2917 1.0422-3.125 1.875l-8.75 6.875c-4.5834 3.3338-6.875 6.0422-6.875 8.125l0.625 5m377.5-33.125c1.25 0.41719 2.4995 0.625 3.75 0.625 1.6662 4.7e-4 2.7078 0.20937 3.125 0.625 7.0828 0.83437 11.25 1.4594 12.5 1.875l20 6.875c4.1662 0.83437 6.4578 1.25 6.875 1.25 4.5828 4.7e-4 6.8745-2.2912 6.875-6.875-4.7e-4 -1.25-1.0422-2.2912-3.125-3.125l1.25 1.25-1.875-0.625c-1.25 1.6672-2.5005 2.5005-3.75 2.5l-4.375-0.625c-1.6672 4.7e-4 -3.5422 4.7e-4 -5.625 0-1.6672-0.41563-3.5422-0.83281-5.625-1.25-4.5838-0.83281-8.1255-1.4578-10.625-1.875-2.5005-0.83281-3.7505-1.25-3.75-1.25l-15.625 0.625m-273.75 8.75c1.25-1.25 2.2916-1.8745 3.125-1.875 0.41719 4.7e-4 1.6666 0.41719 3.75 1.25 2.0831 0.41719 3.7498 0.625 5 0.625 2.4998 4.7e-4 6.8748-1.25 13.125-3.75-5.4169-0.83281-8.9584-1.4578-10.625-1.875-4.1669-0.83281-7.2919-1.4578-9.375-1.875-2.0834-0.83281-3.5419-1.25-4.375-1.25-6.6669 4.7e-4 -10 2.7088-10 8.125-1.6e-4 1.25 0.41719 2.2922 1.25 3.125l3.75 3.75 1.875 4.375 1.875 0.625c2.9166 4.7e-4 4.3748-1.4578 4.375-4.375-1.6e-4 -2.0828-1.25-4.3745-3.75-6.875m-101.88-8.75c1.6666 1.6672 2.5 4.1672 2.5 7.5 0 5.0005-1.25 8.3338-3.75 10-2.0834 1.6672-3.125 2.7088-3.125 3.125v1.25c7.0833-6.2495 10.625-11.25 10.625-15 0-4.1662-2.0834-6.4578-6.25-6.875m130 9.375c6.2498 6.6672 15.833 10 28.75 10 5.8331 4.7e-4 12.916-3.5412 21.25-10.625 1.25-0.41563 2.9164-1.6662 5-3.75-1.25-0.41563-2.2919-0.625-3.125-0.625-0.41719-0.41563-0.625-0.625-0.625-0.625-1.6669 4.7e-4 -3.9586 0.625-6.875 1.875-2.0836-3.7495-4.5836-5.6245-7.5-5.625h-1.875l-3.75 1.875 3.75 4.375v1.25c-1.6e-4 5.4172-5.6252 8.1255-16.875 8.125-2.0836 4.7e-4 -6.2502-1.25-12.5-3.75-0.83281-0.41563-1.6669-0.625-2.5-0.625-0.83438-0.41563-1.8752-1.0406-3.125-1.875m200.62-9.375v1.875l-15 16.875h3.125c1.25-2.0828 3.958-4.5828 8.125-7.5 3.7495-2.0828 5.833-5.4162 6.25-10l-2.5-1.25m-238.75 0.625h-0.625l-1.25-0.625c-3.3334 4.7e-4 -5.0002 2.5005-5 7.5-1.6e-4 2.9172 1.0422 4.3755 3.125 4.375 0.41719 4.7e-4 1.0422-0.41563 1.875-1.25v-6.25l1.875-3.75m300 59.375c-2.5005-6.6662-6.6672-9.9995-12.5-10-7.917 4.7e-4 -12.917 6.042-15 18.125-2.0838-0.83281-3.1255-2.4995-3.125-5v-2.5c0.41562-2.083 0.625-3.7495 0.625-5 0.41562-1.6662 0.625-2.9162 0.625-3.75-4.7e-4 -16.25-4.792-24.375-14.375-24.375-2.0838 4.7e-4 -3.1255 0.83437-3.125 2.5-4.7e-4 4.7e-4 0.625 1.25 1.875 3.75 1.6662 2.5005 2.4995 5.0005 2.5 7.5v1.25l-1.875 20c-0.41719 10.834 3.1245 19.792 10.625 26.875 7.9162 7.0838 17.916 10.625 30 10.625 12.5 3.1e-4 22.5-3.958 30-11.875 7.9162-7.9162 11.875-18.125 11.875-30.625-4.7e-4 -15.416-6.0422-28.333-18.125-38.75-12.084-10.833-26.875-16.25-44.375-16.25-15 4.7e-4 -28.334 3.9588-40 11.875-2.5003 2.0838-3.7503 3.5422-3.75 4.375-3.1e-4 1.25 0.83281 1.6672 2.5 1.25h0.625c2.4995 4.7e-4 3.958-0.20781 4.375-0.625l13.125-6.875c4.1662-2.4995 11.875-3.7495 23.125-3.75 16.666 4.7e-4 30 4.3755 40 13.125 10.416 8.3338 15.625 19.584 15.625 33.75-4.7e-4 8.7505-3.3338 16.667-10 23.75-6.6672 6.667-14.375 10-23.125 10-10.417 3.1e-4 -15.625-4.9995-15.625-15-4.7e-4 -9.583 5.2078-14.375 15.625-14.375h1.875m-423.12-51.875c6.25 2.9172 8.9583 7.5005 8.125 13.75l-6.875 63.125 1.25 11.25c2.9166 27.5 13.75 50 32.5 67.5l13.75 12.5c4.1666 3.7503 7.0833 5.6253 8.75 5.625 0.83281 3.1e-4 1.6666 3.1e-4 2.5 0 0.83281-0.41719 2.0833-0.83281 3.75-1.25l-5-5-10.625-9.375-3.75-4.375c-19.167-19.166-28.333-39.166-27.5-60v-1.25l1.25-18.75c0.41719-2.083 1.0422-4.3745 1.875-6.875 1.25-2.4995 2.7083-5.208 4.375-8.125l3.75-5.625c5-8.333 11.667-12.083 20-11.25h0.625c0.83281 4.7e-4 1.6666 0.20937 2.5 0.625 1.25 4.7e-4 2.7083 0.20937 4.375 0.625-2.5002-5.4162-5.8334-8.1245-10-8.125h-5c-1.6667 4.7e-4 -2.7084-0.625-3.125-1.875l2.5-5.625c-11.25 2.5005-18.125 7.917-20.625 16.25l-3.75 11.25c-0.83281 0.83437-1.4578 1.25-1.875 1.25-1.25 4.7e-4 -1.875-0.625-1.875-1.875 0 4.7e-4 0.41719-1.25 1.25-3.75l8.75-23.125c0.83281-3.3328 1.25-5.2078 1.25-5.625 0-2.0828-0.20781-3.3328-0.625-3.75l-1.25-6.875-3.75 4.375-2.5-1.25v-9.375c0-5.4162-3.5417-8.1245-10.625-8.125l-1.25 0.625-3.125 2.5m73.75 2.5c6.2498 4.7e-4 9.9998 1.0422 11.25 3.125l2.5 4.375 1.25 0.625c2.0833 4.7e-4 3.1248-1.25 3.125-3.75-1.6e-4 -4.5828-3.3334-6.8745-10-6.875-1.6667 4.7e-4 -2.7084 0.20937-3.125 0.625l-5 1.875m216.25-0.625c7.083 4.1672 11.666 11.25 13.75 21.25-3.1e-4 0.83437-3.1e-4 1.8755 0 3.125 0.41562 0.83437 0.83281 2.0838 1.25 3.75v6.875c-0.41719 2.0838-0.83438 3.9588-1.25 5.625-3.1e-4 1.25-3.1e-4 2.0838 0 2.5-3.1e-4 1.25 0.83281 1.8755 2.5 1.875 1.6662 4.7e-4 2.4997-1.25 2.5-3.75v-0.625l-0.625-11.875c-0.41719-12.5-4.3753-21.666-11.875-27.5-1.25-1.25-2.7086-1.8745-4.375-1.875l-1.875 0.625m-138.12 3.125c2.9164 4.1672 5.6248 6.2505 8.125 6.25 1.25 4.7e-4 1.8748-0.41563 1.875-1.25-1.6e-4 -0.83281-0.20938-1.25-0.625-1.25l-3.125-3.75-2.5-1.25-3.75 1.25m244.38-0.625 4.375 1.25 8.75 1.25 5.625 3.125c5.8328 2.0838 8.9578 6.2505 9.375 12.5-1.25 4.5838-3.1255 6.8755-5.625 6.875-2.9172 4.7e-4 -5.2088-2.4995-6.875-7.5-1.6672 1.6672-2.5005 3.542-2.5 5.625-4.7e-4 7.917 4.1662 11.875 12.5 11.875 2.9162 4.7e-4 4.7912-0.41563 5.625-1.25l6.25-6.25 4.375 5.625c0.83281-0.83281 1.25-2.9162 1.25-6.25l1.875-5.625c-5.4172-15.416-18.542-22.708-39.375-21.875h-0.625l-5 0.625m-252.5 1.25c2.0831 3.3338 5.2081 5.0005 9.375 5-2.0836-3.7495-3.9584-5.6245-5.625-5.625h-1.875l-1.875 0.625m-30 86.875c0.41719 3.7503 4.9998 5.6253 13.75 5.625 13.75 3.1e-4 20.625-2.083 20.625-6.25-1.6e-4 -2.4997-0.20781-4.3747-0.625-5.625l-0.625-3.75 0.625-16.875v-6.875c-0.41719-2.083-0.625-3.958-0.625-5.625-1.6e-4 -1.6662-1.6e-4 -2.9162 0-3.75v-1.875c-1.6e-4 -10.416 4.1664-15.625 12.5-15.625l141.25-0.625-3.125-15h-200.62c-0.41719 0.41719-3.5417 0.20937-9.375-0.625l-9.375-0.625-18.125-0.625c-7.5002-0.41563-11.25 1.0422-11.25 4.375-1.6e-4 2.5005 4.5833 4.3755 13.75 5.625 27.083 3.7505 42.5 13.542 46.25 29.375l1.875 9.375 1.875 4.375c0.41719 0.41719 0.625 4.167 0.625 11.25v5.625c-1.6e-4 0.83437-1.6e-4 2.0838 0 3.75-1.6e-4 1.25 0.20781 2.7088 0.625 4.375m231.25-76.25-3.75 0.625h-31.875l3.125 16.25c16.25 0.83437 27.5 5.2088 33.75 13.125 5.4162 5.417 9.9997 17.5 13.75 36.25 4.1662-0.83281 5.833-3.7497 5-8.75v-5.625c-0.41719-3.333-1.0422-7.708-1.875-13.125-0.83438-5.833-2.292-12.708-4.375-20.625-1.25-3.333-1.667-6.458-1.25-9.375v-1.875c-0.41719-1.25-1.0422-3.5412-1.875-6.875h-10.625m14.375 0c2.083 17.917 3.958 31.042 5.625 39.375 2.083 8.3338 3.1245 14.584 3.125 18.75-4.7e-4 4.167-2.292 7.917-6.875 11.25 3.333 0.83437 4.7912 1.25 4.375 1.25 4.583 3.1e-4 6.8745-4.583 6.875-13.75-4.7e-4 -2.4995-0.20938-4.1662-0.625-5l-6.25-28.125-1.875-15.625c-0.41719-3.7495-1.8755-6.4578-4.375-8.125m-313.75 5c0.83281 3.7505 2.4998 6.2505 5 7.5 2.4998 1.25 9.1666 2.917 20 5 11.667 1.667 21.458 5.8338 29.375 12.5-0.83281-1.6662-4.5834-5.208-11.25-10.625-5.4167-1.25-11.667-3.1245-18.75-5.625-7.0834-2.4995-15.208-5.4162-24.375-8.75m355 10c-1.25 4.7e-4 -2.0838 0.83437-2.5 2.5l-0.625 1.25c-4.7e-4 2.5005 1.6662 3.7505 5 3.75 2.4995 4.7e-4 3.7495-1.0406 3.75-3.125-4.7e-4 -2.9162-1.8755-4.3745-5.625-4.375m-141.88 2.5-92.5 0.625c-8.7502 4.7e-4 -13.75 2.292-15 6.875-0.41719 0.83438-0.625 3.7505-0.625 8.75v31.25l1.25 10 4.375-4.375-0.625-10v-18.75c-0.41719-7.4995-1.6e-4 -12.291 1.25-14.375 1.6664-2.4995 4.3748-3.7495 8.125-3.75h135.62v-6.25h-41.875m53.75 2.5v3.125c-3.1e-4 1.25 3.7497 1.8755 11.25 1.875 1.6662 0.41719 3.5412 0.83438 5.625 1.25 2.4997 0.41719 5.4162 0.83438 8.75 1.25-5.417-4.1662-13.959-6.6662-25.625-7.5m-138.75 7.5c2.4998 7.0838 3.7498 13.125 3.75 18.125-1.6e-4 1.667-0.41719 4.167-1.25 7.5l-13.125 43.75c-0.41719 0.83438-0.625 2.5003-0.625 5-1.6e-4 8.7503 4.3748 14.375 13.125 16.875l12.5 3.75-0.625-5c1.25 0.41719 3.3331 0.625 6.25 0.625 6.6664 3.1e-4 11.666-4.3747 15-13.125 0.41562-1.25 0.83281-2.2912 1.25-3.125 0.41562-1.25 0.83281-2.2912 1.25-3.125h-5c0.41719-0.83281 0.625-2.4997 0.625-5-3.1e-4 -8.333-3.9586-12.5-11.875-12.5-5.4169 3.1e-4 -9.7919 4.792-13.125 14.375l-3.75 1.875c1.25 3.3338 2.7081 5.0003 4.375 5 2.9164 3.1e-4 4.7914-4.7912 5.625-14.375 1.6664-2.4997 3.5414-3.7497 5.625-3.75 2.0831 3.1e-4 3.9581 1.667 5.625 5 1.6664 2.917 2.4997 5.8338 2.5 8.75-3.1e-4 9.167-4.7919 13.75-14.375 13.75-10.417 3.1e-4 -15.625-4.7912-15.625-14.375-1.6e-4 -5.4162 1.8748-16.666 5.625-33.75 0.41562-2.083 0.625-3.958 0.625-5.625 0.41562-1.6662 0.625-2.9162 0.625-3.75v-3.125c-0.41719-1.25-0.625-3.1245-0.625-5.625-1.6e-4 -1.25-1.6e-4 -2.4995 0-3.75-1.6e-4 -1.6662-0.20938-3.333-0.625-5-1.6e-4 -4.1662-1.25-7.2912-3.75-9.375m-7.5 0.625c1.25 9.5838 1.8748 15 1.875 16.25-1.6e-4 0.41719-0.625 5.2088-1.875 14.375 4.5831-7.083 6.8748-13.75 6.875-20-1.6e-4 -7.083-1.25-10.625-3.75-10.625h-3.125m12.5 0.625c6.6664 27.917 16.041 43.75 28.125 47.5l13.125 4.375-3.125 6.875 1.25 1.875v2.5c-3.1e-4 0.83437 1.6664 2.292 5 4.375l19.375 8.75c4.9997 2.0838 7.4997 5.6253 7.5 10.625-3.1e-4 3.7503-0.20937 6.2503-0.625 7.5l3.125 0.625c4.1664 3.1e-4 6.2497-2.083 6.25-6.25-3.1e-4 -0.83281-0.20937-1.4578-0.625-1.875l-2.5-6.25 8.125-2.5c1.6664-0.41563 1.25-2.9162-1.25-7.5l-0.625-1.25c-2.0836-3.333-3.9586-4.9997-5.625-5l-18.125-0.625c-2.5003 3.1e-4 -3.7503-1.0406-3.75-3.125v-0.625l2.5-1.875 0.625-3.125 6.875-0.625 4.375-2.5h1.25c1.6664 3.1e-4 2.4997 0.41719 2.5 1.25-3.1e-4 0.83437-0.20937 1.25-0.625 1.25l-10.625 3.125 2.5 2.5c0.83281 0.83437 1.6664 1.25 2.5 1.25 1.6664 3.1e-4 2.9164-0.625 3.75-1.875l3.125-4.375c0.41719-0.41563 0.83281-0.625 1.25-0.625 0.83281 3.1e-4 1.25 0.41719 1.25 1.25v1.875l13.125-13.125c-3.7503-8.7497-9.5836-13.125-17.5-13.125-1.25 4.7e-4 -3.5419 0.625-6.875 1.875-2.9169 1.25-5.0003 1.8753-6.25 1.875-1.6669 3.1e-4 -2.5003-0.83281-2.5-2.5-3.1e-4 -2.083 0.625-3.1245 1.875-3.125l11.875-0.625 7.5-3.75c0.83281-0.41563 1.4578-0.625 1.875-0.625l0.625-0.625c-3.1e-4 -0.83281-0.625-1.6662-1.875-2.5l-4.375-1.875 3.75-6.25c0.41563-0.41563 0.625-1.8745 0.625-4.375-3.1e-4 -2.083-1.8753-4.7912-5.625-8.125-2.0836 7.0838-4.7919 11.25-8.125 12.5l-15.625 6.25c-7.0836 3.3338-10.625 7.917-10.625 13.75-3.1e-4 1.25 1.6664 4.167 5 8.75l-1.25 2.5-1.875 0.625h-0.625c-8.3336 3.1e-4 -15.209-3.333-20.625-10-9.5836-10.416-14.584-20.416-15-30-1.6e-4 -3.7495-0.625-5.6245-1.875-5.625l-2.5 0.625m30 0.625c0.41562 0.83438 0.625 2.7088 0.625 5.625-3.1e-4 4.5838-2.7086 6.8755-8.125 6.875-4.5836 4.7e-4 -7.5002-1.25-8.75-3.75-3.3336-5.4162-5.2086-8.5412-5.625-9.375l-1.875-0.625 1.875 8.125c2.4998 10.834 8.7498 16.25 18.75 16.25 8.3331 4.7e-4 12.5-4.583 12.5-13.75-3.1e-4 -4.1662-3.1253-7.2912-9.375-9.375m110.62 1.25c-1.25 2.5005-1.8753 4.5838-1.875 6.25v6.25l0.625 13.125c0.41563 1.25 0.625 2.7088 0.625 4.375-3.1e-4 1.25 0.20781 2.0838 0.625 2.5 0.83281 5.8338 2.708 9.3753 5.625 10.625-0.83437-2.083-1.4594-4.1662-1.875-6.25-0.41719-2.4997-0.83437-4.9997-1.25-7.5l-0.625-5.625v-16.25c1.25-1.6662 1.8747-3.333 1.875-5-3.1e-4 -0.83281-1.25-1.6662-3.75-2.5m130.62-0.625c-3.3338 10.834-8.3338 16.25-15 16.25-2.0838 4.7e-4 -4.3755-1.6662-6.875-5-5.0005 1.25-7.5005 3.3338-7.5 6.25-4.7e-4 5.0005 3.3328 7.5005 10 7.5 4.1662 4.7e-4 8.5412-2.2912 13.125-6.875 4.5828-4.9995 6.6662-9.3745 6.25-13.125v-5m-117.5 2.5c-2.0838-1.25-3.7503-1.8745-5-1.875-1.25 4.7e-4 -1.8753 0.41719-1.875 1.25l-1.25 5.625v11.875c-0.83437 20.834 1.8747 31.25 8.125 31.25 0.83281 3.1e-4 1.4578-0.20781 1.875-0.625l0.625-3.125-3.75-15c-0.41719-0.83281-0.625-2.708-0.625-5.625v-4.375c-3.1e-4 -2.4995 0.20781-4.3745 0.625-5.625l1.25-13.75m-31.875 1.875c-2.0836 0.83437-3.1253 1.667-3.125 2.5-3.1e-4 2.917 1.4578 4.3755 4.375 4.375 2.083 4.7e-4 3.1247-1.0406 3.125-3.125v-0.625l-0.625-0.625c-3.1e-4 -0.41563-0.20937-0.83281-0.625-1.25l-3.125-1.25m-14.375 3.125c-2.0836 2.0838-3.1253 3.3338-3.125 3.75-3.1e-4 2.0838 1.25 3.1255 3.75 3.125 2.9164 4.7e-4 4.3747-1.4578 4.375-4.375-3.1e-4 -0.83281-0.41719-1.6662-1.25-2.5l-2.5-1.875-1.25 1.875m-247.5 1.875 5 5.625 1.25 11.875 3.75 8.125-8.125 1.875c5.8333 11.25 12.917 18.542 21.25 21.875l13.125 5c3.3333 1.25 4.9998 2.7088 5 4.375-1.6e-4 2.5003-0.83281 3.9588-2.5 4.375l-1.25 0.625-1.875-1.25-10.625-8.125c-1.6667-1.6662-3.9584-2.4997-6.875-2.5h-8.125l1.875 5-1.25 1.875c-4.1667-0.83281-6.25-1.25-6.25-1.25-2.0834 3.1e-4 -4.375 2.0838-6.875 6.25l6.875 2.5 10 8.75 9.375 1.875-5 5c-0.41719 0.41719-0.625 1.0422-0.625 1.875v0.625c0.41719 0.41719 0.625 0.83437 0.625 1.25 0.41719 0.41719 0.83281 0.83437 1.25 1.25h1.875l8.125-3.125 19.375 1.25c16.667 0.41719 33.75-4.7914 51.25-15.625 16.25-11.666 25.833-24.583 28.75-38.75-10.834 22.084-29.583 35.625-56.25 40.625-4.5834 0.83437-7.0834 1.4594-7.5 1.875-3.3334 0.83281-4.7919 1.25-4.375 1.25-2.0834 3.1e-4 -3.1252-0.83281-3.125-2.5-1.6e-4 -1.6662 1.4578-2.2912 4.375-1.875h1.875c2.9166 3.1e-4 9.7916-1.8747 20.625-5.625h-5c-4.5834 3.1e-4 -9.5834-1.0406-15-3.125l-17.5-10.625c-2.5002-1.25-3.7502-2.2912-3.75-3.125-1.6e-4 -1.6662 0.625-2.4997 1.875-2.5h1.25l8.125 6.875c0.83281 0.83438 2.4998 1.4594 5 1.875 7.0831 3.3338 11.458 5.417 13.125 6.25 2.0831 0.41719 4.9998 0.625 8.75 0.625 22.083 3.1e-4 37.916-12.291 47.5-36.875-0.83281 1.25-1.6669 2.292-2.5 3.125-0.83281 0.83437-1.4578 1.667-1.875 2.5-9.5836 12.5-21.458 18.75-35.625 18.75-15.417 3.1e-4 -23.125-6.2497-23.125-18.75-1.6e-4 -3.7497 0.20781-6.2497 0.625-7.5l-8.75 3.125c0.41719-2.083 0.625-3.7495 0.625-5 0.41719-1.25 0.625-2.2912 0.625-3.125-1.6e-4 -3.7495-0.83281-7.083-2.5-10-1.25-2.083-2.2917-3.1245-3.125-3.125-6.6667 4.7e-4 -9.7917 4.5838-9.375 13.75v4.375l-4.375-1.25-2.5-11.875c-1.25-5.833-3.7502-8.7495-7.5-8.75-0.83281 0.83438-1.4578 2.7088-1.875 5.625-3.3334 0.83438-4.3752 1.25-3.125 1.25-0.83281 4.7e-4 -2.2917-1.4578-4.375-4.375-2.0834-3.333-5.4167-4.9995-10-5-1.6667 4.7e-4 -2.7084 0.20938-3.125 0.625l-7.5 1.875m268.75 4.375c-1.667 0.41719-2.5003 1.667-2.5 3.75-3.1e-4 2.917 1.0406 4.3755 3.125 4.375 3.7497 4.7e-4 5.6247-1.6662 5.625-5-3.1e-4 -2.083-1.667-3.1245-5-3.125h-1.25m-12.5 0c-1.25 1.25-2.0836 2.5005-2.5 3.75l-0.625 1.25c-3.1e-4 3.3338 1.6664 5.0005 5 5 2.9164 4.7e-4 4.3747-1.4578 4.375-4.375-3.1e-4 -3.7495-1.8753-5.6245-5.625-5.625h-0.625m41.875 30.625 1.25-1.25c-1.25-3.7497-1.8753-6.458-1.875-8.125-3.1e-4 -4.583 1.8747-7.9162 5.625-10l0.625-0.625 0.625 0.625 5 2.5c1.25 4.7e-4 1.8747-0.625 1.875-1.875-3.1e-4 -5.833-2.292-8.7495-6.875-8.75-5.8338 4.7e-4 -8.7503 4.3755-8.75 13.125-3.1e-4 5.0003 0.83281 9.792 2.5 14.375m-53.75-25c-2.5003 4.7e-4 -3.7503 1.4594-3.75 4.375-3.1e-4 3.7505 1.8747 5.6255 5.625 5.625 2.9164 4.7e-4 4.3747-1.8745 4.375-5.625-3.1e-4 -2.9162-2.0836-4.3745-6.25-4.375m-15 5c2.9164 2.917 4.3747 5.417 4.375 7.5-3.1e-4 1.25-0.625 3.3338-1.875 6.25 3.333-4.583 4.9997-8.1245 5-10.625-3.1e-4 -2.9162-1.4594-4.3745-4.375-4.375h-0.625l-2.5 1.25m36.875 10c1.25-1.6662 1.8747-3.333 1.875-5-3.1e-4 -2.4995-1.667-3.7495-5-3.75-2.5003 4.7e-4 -3.7503 1.25-3.75 3.75-3.1e-4 2.5003 2.2914 4.167 6.875 5m-35.625 15.625c6.2497-1.25 12.083-3.7497 17.5-7.5 4.1664-2.9162 6.2497-5.208 6.25-6.875v-0.625c-0.41719-1.6662-1.0422-2.4997-1.875-2.5-3.3336 3.1e-4 -6.4586 1.8753-9.375 5.625-3.7503 5.0003-6.2503 7.917-7.5 8.75-1.25 0.83437-2.917 1.8753-5 3.125m130.62 61.25h1.25v3.125c-4.7e-4 2.5003 0.83281 4.5836 2.5 6.25 1.6662-1.25 2.4995-2.4997 2.5-3.75-4.7e-4 -0.41719-0.83437-2.2914-2.5-5.625-1.25-3.7497-1.8755-6.8747-1.875-9.375-4.7e-4 -6.2497 1.8745-14.166 5.625-23.75 4.5828-9.583 8.5412-14.375 11.875-14.375l10.625-6.25 16.25-13.75 6.25-6.875 0.625-3.75-9.375 9.375-26.875 17.5c-12.5 8.3338-18.75 20.625-18.75 36.875-4.7e-4 2.917 0.625 7.7086 1.875 14.375m-21.25-75.625-3.75 3.125c0.41563 2.917 1.6662 5.0003 3.75 6.25-4.7e-4 -4.583 2.708-7.083 8.125-7.5l-8.125-1.875m-81.875 18.125 1.875 1.25 3.125-2.5c0.83281-0.83281 1.4578-1.25 1.875-1.25 2.9162 3.1e-4 5.4162 1.0422 7.5 3.125l18.125 25c2.9162 3.7503 6.6662 5.6253 11.25 5.625 7.9162 3.1e-4 11.875-3.5412 11.875-10.625-3.1e-4 -2.9162-0.20937-4.7912-0.625-5.625l-5-10.625v-1.875c-3.1e-4 -2.083 1.8747-4.7912 5.625-8.125l7.5 3.125c0.83281-0.83281 1.25-1.6662 1.25-2.5-4.7e-4 -4.1662-2.917-6.2497-8.75-6.25-3.7503 3.1e-4 -7.5003 1.667-11.25 5-3.3338 3.3338-5.0003 7.0838-5 11.25v2.5l3.125 5-1.25 1.875c-3.1e-4 1.25-0.41719 1.8753-1.25 1.875-1.667 3.1e-4 -2.7088-2.083-3.125-6.25-1.25-7.083-6.042-12.916-14.375-17.5-2.917-1.6662-6.2503-2.4997-10-2.5-7.917 3.1e-4 -12.084 3.3338-12.5 10m98.125-8.75c-1.25 0.83438-1.8755 1.667-1.875 2.5-4.7e-4 1.25 1.0406 1.8753 3.125 1.875 1.6662 3.1e-4 2.4995-0.83281 2.5-2.5-4.7e-4 -1.25-1.0422-1.8747-3.125-1.875h-0.625m33.125 1.875-2.5 0.625-10 1.875-12.5 1.25c-1.667 3.1e-4 -2.5005 0.41719-2.5 1.25-4.7e-4 2.0838 1.4578 3.1253 4.375 3.125 2.4995 3.1e-4 3.958-0.20781 4.375-0.625l14.375-5.625 3.75-0.625 0.625-1.25m-39.375 3.75-2.5 6.25h8.75l-6.25-6.25m-125 5.625c1.25-0.41562 3.5414-0.625 6.875-0.625 12.916 3.1e-4 19.375 4.5838 19.375 13.75-3.1e-4 5.417-2.5003 8.1253-7.5 8.125-2.917 3.1e-4 -5.0003-2.2912-6.25-6.875l-0.625 5c-0.83437 5.0003 1.6664 7.5003 7.5 7.5 9.1664 3.1e-4 13.75-5.208 13.75-15.625-3.1e-4 -3.7497-1.8753-7.083-5.625-10-3.7503-3.333-7.7086-4.9997-11.875-5-1.25 3.1e-4 -3.1253 0.20938-5.625 0.625-2.0836 0.41719-3.542 0.625-4.375 0.625h-4.375c-3.1e-4 3.1e-4 -0.20937 0.20938-0.625 0.625-3.1e-4 0.41719-0.20781 1.0422-0.625 1.875m137.5 1.875-2.5-1.25h-0.625c-1.25 3.1e-4 -2.0838 0.83438-2.5 2.5l-0.625 1.25c-4.7e-4 2.917 1.25 4.3753 3.75 4.375 2.4995 3.1e-4 3.7495-1.4578 3.75-4.375-4.7e-4 -0.83281-0.41719-1.6662-1.25-2.5m38.125 1.875c-11.25 4.5838-16.875 12.709-16.875 24.375-4.7e-4 10.834 5.6245 20.625 16.875 29.375 1.6662-1.6664 2.4995-2.9164 2.5-3.75-4.7e-4 -1.25-0.20937-2.083-0.625-2.5l-8.75-9.375c-2.9172-2.9164-4.3755-8.1247-4.375-15.625-4.7e-4 -4.9997 0.41563-7.9162 1.25-8.75l3.125-3.75 3.125-3.125c0.41563-1.25 1.8745-1.8747 4.375-1.875 10.416 3.1e-4 15.625 5.8338 15.625 17.5-4.7e-4 5.0003-1.25 10.834-3.75 17.5-4.7e-4 3.1e-4 -0.83437 1.667-2.5 5-1.6672 2.917-4.1672 7.5003-7.5 13.75-4.7e-4 0.83281 0.83281 1.4578 2.5 1.875l3.125-5h1.875l7.5-15c2.9162-4.1664 4.3745-10.416 4.375-18.75-4.7e-4 -14.583-7.2922-21.875-21.875-21.875m-58.75 5c-11.25 5.8338-16.875 12.5-16.875 20-4.7e-4 11.25 4.7912 22.917 14.375 35l24.375 30c0.41563 0.83281 1.4578 2.5003 3.125 5 1.6662 2.0836 4.1662 5.2086 7.5 9.375 0.41563 2.0836 1.6662 3.9586 3.75 5.625l-3.125-6.875-20-26.875c-12.5-16.666-18.75-30.208-18.75-40.625-4.7e-4 -8.333 2.9162-12.5 8.75-12.5 2.9162 3.1e-4 5.6245 2.7086 8.125 8.125 2.4995-2.4997 3.7495-4.7914 3.75-6.875-4.7e-4 -7.9162-3.542-11.458-10.625-10.625l-5 0.625 0.625-9.375m-224.38 80v-53.75l1.25-6.25-1.875-14.375-4.375 4.375 1.25 36.25-1.25 21.875c-1.6e-4 4.5836 1.6664 8.5419 5 11.875m65.625-38.75v2.5c-2.9169 1.25-4.7919 3.542-5.625 6.875l6.875 1.875 8.75 3.125 6.25 0.625 4.375 0.625 6.875-1.25 5.625-3.125c0.83281-0.41719 2.2914-0.625 4.375-0.625 2.4997 3.1e-4 3.7497 1.25 3.75 3.75-3.1e-4 2.0836-1.0422 3.1253-3.125 3.125h-13.75c-3.1e-4 3.1e-4 -1.0422 0.41719-3.125 1.25-1.6669 0.41719-4.5836 1.25-8.75 2.5 2.9164 0.41719 4.5831 1.8753 5 4.375-3.3336 2.5003-5.0003 5.0003-5 7.5-3.1e-4 2.5003 0.83281 3.7503 2.5 3.75l7.5-5.625 21.875-4.375c6.2497-0.41719 9.3747-6.0414 9.375-16.875-3.1e-4 -2.083-1.25-4.3747-3.75-6.875-2.0836-2.4997-4.167-3.958-6.25-4.375l-36.25-2.5c-1.6669 3.1e-4 -3.9586-1.4578-6.875-4.375-2.9169-3.333-4.3753-6.6664-4.375-10-3.1e-4 -5.4162 2.2914-8.1247 6.875-8.125 2.4997 3.1e-4 5.2081 1.4594 8.125 4.375l0.625-1.25c-0.83281-5.833-4.1669-8.7497-10-8.75-4.1669 3.1e-4 -8.1253 1.8753-11.875 5.625-3.7503 3.7503-5.6253 7.7086-5.625 11.875-3.1e-4 7.917 5.2081 12.709 15.625 14.375m98.125-17.5 1.25-0.625c2.9162-1.25 4.3747-2.4997 4.375-3.75-3.1e-4 -5.833-3.3338-8.7497-10-8.75-7.0838 3.1e-4 -10.625 3.7503-10.625 11.25-3.1e-4 3.3336 0.83281 6.667 2.5 10 2.083 3.3336 4.1662 5.0003 6.25 5 2.083 3.1e-4 3.1247-0.83281 3.125-2.5-3.1e-4 -1.25-1.0422-3.1247-3.125-5.625-1.667-2.9164-2.5003-5.208-2.5-6.875-3.1e-4 -2.9164 1.6662-4.3747 5-4.375 2.4997 3.1e-4 3.7497 1.0422 3.75 3.125v3.125m-171.88-10-5.625 3.125c-5.4169 2.917-10.625 5.417-15.625 7.5-4.5834 2.0836-8.9584 3.9586-13.125 5.625v223.75c-1.6e-4 19.167-9.3752 30.833-28.125 35l-21.25 5c-2.9167 0.41719-4.3752 1.6667-4.375 3.75-1.6e-4 1.25 0.20781 2.0834 0.625 2.5l288.75 3.125 5.625-4.375 31.875-52.5c1.25-1.6666 1.8745-3.1248 1.875-4.375-4.7e-4 -1.25-0.625-1.8748-1.875-1.875-1.25 1.6e-4 -4.3755 2.5002-9.375 7.5-1.667 1.6667-3.1255 3.3334-4.375 5-1.25 1.25-2.7088 2.7084-4.375 4.375-7.0838 6.6667-16.459 11.875-28.125 15.625-5.0003 2.9167-9.792 4.5834-14.375 5h-5l-20 3.75c-0.41719 0.41719-3.542 0.625-9.375 0.625h-9.375c-3.7503 0-7.917 0.20781-12.5 0.625h-16.875l-5 0.625h-0.625l-2.5-0.625h-8.75l-72.5-0.625c-0.83281-1.6666-1.8752-3.5416-3.125-5.625-1.25-2.0833-2.5002-4.1666-3.75-6.25-0.83281-1.25-1.4578-2.4998-1.875-3.75-0.41719-1.25-0.83281-2.2916-1.25-3.125l-1.25-6.25-1.875-7.5-1.25-55.625-0.625-70c-0.41719-1.6664-0.625-3.1247-0.625-4.375-1.6e-4 -1.6664-1.6e-4 -3.1247 0-4.375v-5.625c-1.6e-4 -7.4997 2.0831-11.25 6.25-11.25l26.875 0.625c0.83281-1.6664 1.6664-3.3331 2.5-5 1.25-1.6664 2.4998-3.5414 3.75-5.625 0.83281-0.83281 1.4578-1.6664 1.875-2.5l2.5-2.5-13.75 0.625h-6.25c-15.834 3.1e-4 -23.75-3.9581-23.75-11.875v-58.125m206.88 0.625c-0.83437 0.83438-2.5003 2.292-5 4.375-2.0838 1.667-5.0003 3.542-8.75 5.625l1.875 3.125h1.25c2.083 3.1e-4 4.583-1.0406 7.5-3.125 3.333-2.4997 4.9997-4.7914 5-6.875-3.1e-4 -0.83281-0.625-1.8747-1.875-3.125m-303.12 9.375c-1.6667-1.6664-3.5417-2.4997-5.625-2.5-4.1667 3.1e-4 -6.25 2.292-6.25 6.875 0-0.41719 0.41719 1.0422 1.25 4.375 1.25 5.0003 2.9166 7.5003 5 7.5l17.5 16.875 0.625-1.875-11.25-11.25c-3.3334-3.333-5.0002-7.9164-5-13.75-1.6e-4 -1.6664 1.25-3.7497 3.75-6.25m302.5 1.875-5.625 3.75 3.75 5 13.75 16.875 9.375 13.75 28.75 33.75 18.125 27.5 1.25-3.125-5.625-9.375-2.5-6.25-36.875-48.125-24.375-33.75m-60.625 22.5c1.25 0.83438 1.8747 1.4578 1.875 1.875-3.1e-4 1.25-2.0836 1.8753-6.25 1.875h-0.625c-3.7503 3.1e-4 -7.5003 2.917-11.25 8.75l10.625-1.875-4.375 1.875c-4.167 1.25-6.2503 2.917-6.25 5-3.1e-4 5.0003 3.333 7.5003 10 7.5 4.1664 3.1e-4 8.333-2.0831 12.5-6.25-5.417-0.41562-8.1253-1.6664-8.125-3.75-3.1e-4 -0.83281 2.4997-2.9164 7.5-6.25 2.9164-1.6664 5.4164-5.208 7.5-10.625-10.417-4.583-14.167-6.8747-11.25-6.875l-4.375 0.625-1.875-1.875 5.625-5.625c0.83281-0.83281 1.25-1.4578 1.25-1.875l0.625-1.875c-3.1e-4 -0.83281-0.625-1.25-1.875-1.25h-1.875l-11.875-1.25c-4.5836-0.83281-6.8753 2.0836-6.875 8.75-3.1e-4 5.0003 1.4578 7.7086 4.375 8.125h8.125v1.875l-6.25 0.625c-0.41719 0.41719-0.625 0.83438-0.625 1.25v0.625c0.41719 1.25 1.8747 1.8753 4.375 1.875 1.25 3.1e-4 2.4997 3.1e-4 3.75 0 1.6664-0.41562 3.5414-0.83281 5.625-1.25m-286.25-1.875c-1.25-2.4997-1.875-4.583-1.875-6.25 0-2.4997 1.4578-3.7497 4.375-3.75 5 3.1e-4 9.5833 2.0836 13.75 6.25 5.4166 4.5836 9.5833 8.1253 12.5 10.625 2.9166 2.5003 4.5833 3.9586 5 4.375l6.25 3.75 5.625 4.375-6.875-6.875-6.25-4.375-4.375-4.375-8.75-9.375-5.625-6.875-3.75-2.5-3.125-3.125c-0.83281-0.83281-2.2917-1.25-4.375-1.25-6.6667 3.1e-4 -10 3.3336-10 10 0 4.5836 2.5 7.7086 7.5 9.375m211.88 10c-1.25-0.41562-3.7503-0.625-7.5-0.625-6.6669-0.41719-10.834 0.20938-12.5 1.875l-12.5-1.875-6.25-1.875c-5.0002-1.25-7.5002-5.4164-7.5-12.5-1.6e-4 -4.1664 1.8748-6.2497 5.625-6.25 1.6664 3.1e-4 3.9581 0.83281 6.875 2.5-1.6e-4 -6.2497-3.5419-9.3747-10.625-9.375-8.7502 3.1e-4 -13.125 4.5836-13.125 13.75-1.6e-4 5.417 2.7081 10.209 8.125 14.375 5.4164 4.167 11.666 6.2503 18.75 6.25 6.2498 3.1e-4 13.958-1.4578 23.125-4.375 1.6664-0.41562 4.1664-1.0406 7.5-1.875m63.75 25-65 1.875c-4.5836 3.1e-4 -7.5003 0.41719-8.75 1.25-1.25 0.41719-3.5419 3.1253-6.875 8.125l-1.875 1.875c-0.41719 0.83438-1.25 1.8753-2.5 3.125h76.25c6.6664 3.1e-4 13.958 1.8753 21.875 5.625 7.9164 3.7503 12.708 8.3336 14.375 13.75l10.625 30c0.41563 1.25 1.4578 1.8752 3.125 1.875l0.625-0.625c2.4997-0.83281 3.333-1.6664 2.5-2.5l-3.75-56.875 1.875-13.75 0.625-11.25 1.25-5c0.83281-4.1664 1.25-6.8747 1.25-8.125-3.1e-4 -11.666-1.667-17.5-5-17.5-2.5003 3.1e-4 -3.9588 1.25-4.375 3.75l-5.625 18.75c-2.917 7.5003-6.2503 12.917-10 16.25-3.3336 3.3336-8.1253 5.8336-14.375 7.5-1.667 0.41719-3.7503 1.0422-6.25 1.875m47.5-44.375c0.41563 2.0836 0.625 4.5836 0.625 7.5v11.25c-3.1e-4 2.5003-0.20937 4.3753-0.625 5.625l-2.5 18.75-0.625 8.125v5.625l0.625 8.125v6.25l2.5 36.875c0.41563 3.3336-1.4594 5.8336-5.625 7.5l0.625 1.875h3.75c4.1662 0.41719 6.2497-1.8748 6.25-6.875v-2.5c-0.41719-0.83281-0.625-2.7081-0.625-5.625l-0.625-10-0.625-6.25-0.625-18.125-1.25-16.25c-3.1e-4 -1.25 0.625-6.8747 1.875-16.875 1.25-10.416 1.8747-17.291 1.875-20.625-3.1e-4 -4.9997-1.667-9.7914-5-14.375m-261.25 11.875 1.25 11.875 16.25 5.625c1.25 0.83281 1.8748 1.8753 1.875 3.125-1.6e-4 2.5003-1.6667 3.7503-5 3.75h-1.25l-11.875-5.625c-2.0834-1.25-4.1667-1.8747-6.25-1.875-4.5834 3.1e-4 -7.7084 1.25-9.375 3.75l5.625 5c-7.0834 0.83438-10.208 3.5419-9.375 8.125v1.875l5.625-1.875 28.125-1.25c3.3333-0.41719 6.6666-3.1247 10-8.125 1.6666-1.6664 2.4998-3.958 2.5-6.875-1.6e-4 0.41719-0.41719-0.625-1.25-3.125-6.2502-8.333-9.5834-13.333-10-15l-1.25-1.875v-1.25l1.25-7.5c-0.83281-0.83281-1.6667-1.25-2.5-1.25-4.1667 3.1e-4 -6.2502 2.292-6.25 6.875l1.25 8.125-2.5 0.625-3.125-1.875-3.75-1.25m352.5-4.375c4.1662 3.7503 6.2495 7.917 6.25 12.5l-0.625 1.875-5.625 9.375c-4.7e-4 1.667 0.625 2.5003 1.875 2.5 1.6662 3.1e-4 3.3328-1.4578 5-4.375 1.6662-2.9164 2.4995-6.2497 2.5-10-4.7e-4 -5.833-3.1255-9.7914-9.375-11.875m-81.25 6.875-1.25 4.375 21.25 8.75c-0.41719-0.41719-1.667-1.25-3.75-2.5-2.0838-1.25-5.2088-3.333-9.375-6.25-0.83437-0.83281-1.8753-1.4578-3.125-1.875-0.83437-0.83281-2.0838-1.6664-3.75-2.5m66.875 26.25 1.25-3.75c-2.0838-2.0831-3.1255-3.7497-3.125-5-4.7e-4 -4.1664 5.6245-7.9164 16.875-11.25l0.625-5h-1.875l-6.875 2.5c-9.167 2.917-13.75 7.7086-13.75 14.375-4.7e-4 2.9169 2.2912 5.6253 6.875 8.125m-397.5-3.75v3.75c0 0.41719-0.83281 1.25-2.5 2.5-1.25 1.25-1.875 2.5003-1.875 3.75 0 1.25 0.625 1.8753 1.875 1.875l1.25-0.625 3.125-5 1.875-3.75 1.25-3.125-0.625-0.625v-0.625l-3.75-5.625v-1.875c0-4.583 2.5-6.8747 7.5-6.875 4.1666 3.1e-4 6.25 1.0422 6.25 3.125l0.625 2.5-3.125 5 1.875 2.5 5-8.125c0-0.41719-0.41719-1.8747-1.25-4.375-2.0834-3.333-5-4.9997-8.75-5-2.9167 3.1e-4 -6.0417 1.4578-9.375 4.375-2.9167 2.5003-4.375 5.2086-4.375 8.125 0 2.0836 1.6666 4.7919 5 8.125m440-15.625c5.4162 5.0003 8.1245 10.417 8.125 16.25-4.7e-4 1.6669-1.6672 4.1669-5 7.5l-3.75 2.5c-2.0838 2.0836-4.5838 2.7086-7.5 1.875h-6.25c-0.41719 0.83437-0.625 1.8753-0.625 3.125-4.7e-4 0.83437 1.0406 1.25 3.125 1.25 16.25 3.1e-4 24.375-6.6664 24.375-20-4.7e-4 -10.833-3.1255-16.25-9.375-16.25-0.41719 3.1e-4 -0.83437 0.20937-1.25 0.625l-1.875 3.125m-13.75-1.25 0.625 3.75c0.41563 0.83281 1.0406 1.667 1.875 2.5 1.25 0.83437 2.7078 2.0836 4.375 3.75 1.25 1.25 3.7495 5.0003 7.5 11.25 1.25-1.6664 1.8745-3.1247 1.875-4.375-4.7e-4 -2.4997-2.0838-5.833-6.25-10-2.9172-2.9164-6.2505-5.208-10-6.875m-273.75 18.75 7.5-0.625c1.25-0.41719 2.9164-0.625 5-0.625h3.125l8.75-2.5 8.125-1.25c1.6664-0.41719 4.7914-1.25 9.375-2.5 4.5831-1.6664 10.625-3.7497 18.125-6.25 1.6664-0.41719 3.7497-1.0406 6.25-1.875-1.6669-1.6664-3.3336-2.4997-5-2.5-2.5003 3.1e-4 -7.0836 1.25-13.75 3.75-6.2503 2.0836-10.625 3.3336-13.125 3.75l-20 3.125-3.75-0.625-7.5 1.875-3.125-0.625v6.875m178.12-16.875-0.625 10.625c2.4997 0.83281 4.9997 1.6669 7.5 2.5 2.9162 0.41719 5.833 1.0422 8.75 1.875l5 3.75 17.5 10c1.6662 0.83438 6.0412 4.5836 13.125 11.25 1.25 1.25 3.1245 3.5419 5.625 6.875 4.1662 5.8336 6.458 8.7503 6.875 8.75l9.375 6.25 5.625 7.5-3.125-5.625-3.125-3.75-8.75-15-3.125-2.5-3.125-5-6.25-5.625-4.375-4.375-20.625-13.75-4.375-3.75-7.5-3.125-2.5-1.25h-2.5v-1.875c-2.5003-0.41719-5.6253-1.6664-9.375-3.75m-166.88 62.5c-5.0002 14.584-7.5002 29.167-7.5 43.75-1.6e-4 6.2502 0.83281 12.292 2.5 18.125 1.6664 5.8334 3.5414 13.125 5.625 21.875v3.75c-4.5836 0.83281-6.8752 2.9169-6.875 6.25v2.5c3.3331 10 4.9998 16.458 5 19.375-1.6e-4 2.5002-1.4578 5.2084-4.375 8.125 9.1664-0.41719 13.75-5.4166 13.75-15-1.6e-4 -1.6666-0.41719-3.7498-1.25-6.25-0.83281-2.9166-1.25-4.9998-1.25-6.25-1.6e-4 -0.83281 0.625-1.25 1.875-1.25h0.625l3.125 4.375c0.83281 1.6669 3.9581 2.7084 9.375 3.125 1.25 1.6e-4 3.3331-0.83281 6.25-2.5-4.5836-2.0831-7.7086-6.6666-9.375-13.75-1.25-5.4166-3.3336-8.1248-6.25-8.125-1.25 1.6e-4 -2.7086 0.83281-4.375 2.5-5.8336-10.833-8.7502-24.375-8.75-40.625-1.6e-4 -21.25 5.8331-40.208 17.5-56.875l6.25-9.375 15-16.25 20-13.75-3.125-2.5h-1.25c-0.83281 0.41719-1.8753 0.83281-3.125 1.25-0.83281 0.41719-2.0836 1.0422-3.75 1.875l-9.375 5.625c-7.5003 5.4169-14.375 13.125-20.625 23.125l-8.75 14.375c-2.5002 4.1669-3.9586 6.8753-4.375 8.125-1.6e-4 0.83437-0.83281 2.2919-2.5 4.375m-80-41.875c6.6666-0.41719 9.9998-4.3747 10-11.875-1.6e-4 -2.083-1.0422-3.1247-3.125-3.125-0.41719 3.1e-4 -0.83281 2.0836-1.25 6.25-0.83281 2.0836-2.7084 5.0003-5.625 8.75m319.38-13.75c-1.6672 0.41719-2.5005 1.25-2.5 2.5v1.25c1.25 2.5003 2.2912 3.7503 3.125 3.75l3.125 4.375 5 5 0.625-4.375-4.375-3.125-1.25-3.75-3.75-5.625m22.5 0.625c-6.6672 10.417-10 18.334-10 23.75-4.7e-4 8.7503 2.0828 16.875 6.25 24.375 4.1662 7.0836 8.7495 10.625 13.75 10.625 9.1662 1.6e-4 13.75-6.8747 13.75-20.625l-1.875-14.375-2.5 1.875 1.25 14.375-1.25 3.75c-2.0838 7.0836-5.2088 10.625-9.375 10.625-4.1672 3.1e-4 -7.9172-3.3331-11.25-10-2.9172-6.6664-4.3755-12.5-4.375-17.5-4.7e-4 -4.9997 1.25-10.208 3.75-15.625 2.4995-5.8331 3.7495-8.7497 3.75-8.75-4.7e-4 -0.83281-0.625-1.6664-1.875-2.5m-329.38 2.5-3.125 9.375h5.625l-0.625-6.875-1.875-2.5m237.5 30.625c-0.83437-4.1664-1.25-6.2497-1.25-6.25-3.1e-4 -6.2497 3.958-9.3747 11.875-9.375 3.333 3.1e-4 7.2912 1.0422 11.875 3.125 4.9995 1.6669 8.1245 2.9169 9.375 3.75l6.25 5.625 7.5 6.25c1.25 0.41719 4.1662 4.1669 8.75 11.25l0.625-0.625c-4.7e-4 -0.41719-4.7e-4 -0.625 0-0.625v-0.625c-1.667-1.6664-3.3338-3.3331-5-5-1.25-2.0831-2.917-4.1664-5-6.25-1.25-1.6664-2.5005-2.9164-3.75-3.75-0.83437-1.25-1.667-2.2914-2.5-3.125l-11.25-7.5c-7.0838-4.9997-15-7.4997-23.75-7.5-2.0838 3.1e-4 -3.542 0.41719-4.375 1.25l-0.625 1.875-3.125 1.25c-2.0838 0.83281-3.1253 3.5419-3.125 8.125-3.1e-4 3.7503 2.4997 6.4586 7.5 8.125m-328.75-11.875c0 2.0836 1.0422 3.1253 3.125 3.125 2.5 3.1e-4 3.75-1.25 3.75-3.75 0-2.0831-0.83281-3.1247-2.5-3.125l-1.25 0.625c-2.0834 0.83437-3.125 1.8753-3.125 3.125m12.5 2.5c-1.6667 3.1e-4 -2.9167 1.0422-3.75 3.125l-0.625 1.25c0 2.9169 1.4578 4.3753 4.375 4.375 3.3333 3.1e-4 5-1.25 5-3.75 0-3.3331-1.6667-4.9997-5-5m-20 0.625c-2.5 3.1e-4 -3.75 0.83281-3.75 2.5 0 1.6669 1.25 2.5003 3.75 2.5 1.6666 3.1e-4 2.5-0.83281 2.5-2.5 0-1.25-0.83281-2.0831-2.5-2.5m92.5 51.875c-0.41719-7.0831-1.0422-12.291-1.875-15.625-1.6667-7.0831-2.9167-12.5-3.75-16.25-0.83281-3.7497-1.25-6.0414-1.25-6.875-1.6e-4 -3.3331 1.25-5.4164 3.75-6.25l9.375-2.5-3.75-3.125c-0.83281-0.83281-2.0834-1.25-3.75-1.25-7.0834 3.1e-4 -10.625 5.2086-10.625 15.625-1.6e-4 5.0003 0.625 8.3336 1.875 10l3.125 7.5c0.41719 0.83437 1.0422 2.5002 1.875 5 0.83281 2.0836 1.6666 4.7919 2.5 8.125 0.41719 0.83437 0.625 1.6669 0.625 2.5 0.41719 0.83437 1.0422 1.8752 1.875 3.125m269.38-47.5-8.75 0.625 0.625 1.875h-1.25c-0.83437 3.1e-4 -1.667 0.41719-2.5 1.25v1.25l0.625 13.125-5.625-1.875c-0.41719 0.41719-0.625 1.0422-0.625 1.875-3.1e-4 2.0836 1.0406 5.6253 3.125 10.625l4.375 5 7.5 6.25c4.9995 4.5836 7.4995 8.1252 7.5 10.625-0.41719 0.41719-0.83437 0.83281-1.25 1.25-0.41719 1.6e-4 -0.83437 0.20937-1.25 0.625-4.5838-7.4998-10.625-12.5-18.125-15 1.25 2.0836 1.8747 3.5419 1.875 4.375-3.1e-4 0.83437-0.625 1.4578-1.875 1.875l-5.625-3.125-2.5 1.25-1.875-1.875-5 1.875c0.83281 2.0836 1.6662 3.9586 2.5 5.625 1.25 1.6669 2.2912 3.3336 3.125 5l7.5 5.625v1.875l-6.25 1.875 2.5 5.625 3.125 3.75h1.875l2.5 1.875 4.375-0.625c-0.41719 0.41719-0.625 1.25-0.625 2.5-4.7e-4 0.83281 1.0406 1.8752 3.125 3.125 7.083 4.5834 10.625 11.042 10.625 19.375v4.375c-4.7e-4 2.0834-0.20937 3.7502-0.625 5l-1.25 6.875h1.25c1.6662-7.4998 2.9162-11.25 3.75-11.25 0.83281 0.83281 1.25 1.4578 1.25 1.875-4.7e-4 1.6e-4 -0.20937 1.0422-0.625 3.125-0.41719 2.0834-1.0422 5.2084-1.875 9.375 2.4995-0.41719 3.7495-2.7081 3.75-6.875-4.7e-4 -2.0831 0.20781-3.3331 0.625-3.75 1.6662 1.6669 2.708 2.9169 3.125 3.75 3.333-12.083 4.583-23.125 3.75-33.125v-6.25c-4.7e-4 -0.41562-0.41719-1.6664-1.25-3.75-0.41719-2.4998-1.0422-6.0414-1.875-10.625l-2.5-9.375-9.375-18.75-3.125-8.75-1.875-1.25v-5l-0.625-8.125 3.75-5m-355 8.125 2.5-1.875c0.83281-0.83281 1.25-1.6664 1.25-2.5 0-2.0831-0.83281-3.1247-2.5-3.125-1.25 3.1e-4 -2.2917 1.0422-3.125 3.125l-0.625 0.625c0 2.5003 0.83281 3.7503 2.5 3.75m53.75-3.75c-2.0834 3.3336-3.1252 5.6253-3.125 6.875-1.6e-4 5.0003 4.1666 11.042 12.5 18.125-10 1.6669-16.042 6.6669-18.125 15 1.25-0.41563 3.3333-0.625 6.25-0.625 9.1666-1.25 13.75-3.1248 13.75-5.625-1.6e-4 -1.6664-0.20781-2.7081-0.625-3.125 0.83281-0.41719 1.4578-0.625 1.875-0.625 0.41719-0.41563 0.625-0.625 0.625-0.625 2.9166 1.6e-4 6.0416 2.2919 9.375 6.875 1.6666 2.9169 2.4998 6.2502 2.5 10-1.6e-4 7.5002-3.5417 16.667-10.625 27.5-2.5002 3.3334-4.7917 5.6252-6.875 6.875l-15.625 10.625 10-5 5-3.75 6.25-6.25 6.875-5.625c5.4166-4.1664 8.1248-12.083 8.125-23.75-1.6e-4 -12.916-5.4167-21.041-16.25-24.375-0.41719-0.41719-0.625-1.6664-0.625-3.75v-0.625c1.6666-1.6664 2.7083-2.9164 3.125-3.75-1.6e-4 -1.6664-1.6667-3.3331-5-5-3.3334-1.6664-6.4584-4.7914-9.375-9.375m-8.75 15.625c-5.4167-2.9164-8.1252-6.0414-8.125-9.375-1.6e-4 -0.83281 1.6666-2.2914 5-4.375l-0.625-1.25h-2.5c-3.7502 3.1e-4 -5.6252 2.0836-5.625 6.25-1.6e-4 2.0836 1.0422 4.3753 3.125 6.875 2.0833 2.0836 4.1666 3.1253 6.25 3.125 0.83281 3.1e-4 1.6666-0.41719 2.5-1.25m-23.125-14.375c-2.5 3.1e-4 -3.9584 0.83281-4.375 2.5v1.25c0 2.9169 1.25 4.3753 3.75 4.375 2.9166 3.1e-4 4.375-1.4578 4.375-4.375 0-2.4997-1.25-3.7497-3.75-3.75m158.12 4.375 86.25 0.625 20 4.375c-9.5836-5.8331-19.167-8.7497-28.75-8.75l-30.625-0.625h-43.75l-3.125 4.375m-25 173.75c-0.83281-2.0833-1.8752-4.1666-3.125-6.25-1.25-2.0833-2.5002-4.1666-3.75-6.25l-1.875-10-1.875-6.25-1.25-136.25c-1.6e-4 -5.4164 2.7081-8.1247 8.125-8.125h0.625c2.9164 3.1e-4 5.4164 0.20938 7.5 0.625h2.5c1.6664 3.1e-4 2.7081-1.4578 3.125-4.375-0.41719-0.41719-1.25-0.625-2.5-0.625h-0.625l-5.625 0.625-9.375-0.625c-3.7502 3.1e-4 -6.2502 0.625-7.5 1.875-1.25 0.83438-1.8752 2.5003-1.875 5l0.625 4.375c0.41719 2.0836 0.625 4.1669 0.625 6.25-1.6e-4 1.6669-1.6e-4 3.1253 0 4.375v5l-0.625 14.375 0.625 84.375 2.5 26.25c-1.6e-4 4.1667 0.20781 6.4584 0.625 6.875l6.25 13.125c1.6664 3.7502 3.5414 5.625 5.625 5.625h1.25m-147.5-175c-0.41719 0.41719-0.83281 0.83438-1.25 1.25-0.41719 0.41719-0.83281 1.0422-1.25 1.875v1.25c0 2.0836 1.25 3.1253 3.75 3.125 2.9166 3.1e-4 4.375-1.25 4.375-3.75 0-2.4997-1.4578-3.7497-4.375-3.75h-1.25m-10 3.75c-3.3334 3.1e-4 -5 2.0836-5 6.25 0 2.0836 1.4578 3.1253 4.375 3.125 2.5 3.1e-4 3.75-1.6664 3.75-5 0-2.9164-1.0422-4.3747-3.125-4.375m180 1.875c-6.2502 11.25-9.3752 23.334-9.375 36.25v4.375c-1.6e-4 2.5002 0.20781 4.3752 0.625 5.625l7.5 13.75 1.875-1.25 1.875-6.25 7.5 3.125h0.625c6.2497 1.6e-4 9.1664-3.7498 8.75-11.25v-2.5c-3.3336 2.0836-6.2503 3.1252-8.75 3.125-8.7502 1.6e-4 -13.125-7.0831-13.125-21.25-1.6e-4 -6.6664 2.4998-14.166 7.5-22.5l-5-1.25m146.88 1.875c-3.1e-4 4.5836 0.41563 7.2919 1.25 8.125l5.625 3.75 4.375 3.75h2.5c-1.667-3.3331-3.7503-6.2497-6.25-8.75-2.0838-2.4997-4.5838-4.7914-7.5-6.875m-63.125 22.5c0.41563-7.4998 4.3747-13.958 11.875-19.375-2.0836-1.25-3.3336-1.8747-3.75-1.875-3.3336 3.1e-4 -6.2503 1.6669-8.75 5-2.5003 2.9169-3.7503 6.0419-3.75 9.375-3.1e-4 2.0836 1.4578 4.3752 4.375 6.875m-245.62-20c0.83281 7.0836 7.9166 10.625 21.25 10.625 0.83281 1.6e-4 1.6666 1.6e-4 2.5 0 0.83281-0.41719 2.0833-0.83281 3.75-1.25-10-0.83281-16.667-2.7081-20-5.625-2.9167-2.9164-5-4.3747-6.25-4.375l-1.25 0.625m133.12 2.5v2.5l4.375 1.25 2.5-1.875-6.875-1.875m228.75-1.25-1.25 4.375 1.875 3.125-0.625 1.25-5 1.25c-2.0838 0.83281-3.1255 2.2919-3.125 4.375-4.7e-4 2.9169 0.625 6.2502 1.875 10 4.1662-3.7498 7.708-5.6248 10.625-5.625 8.333 1.6e-4 15.208 6.4586 20.625 19.375l4.375 9.375 2.5 4.375 4.375 13.125 7.5 37.5 2.5 7.5v-0.625c-4.7e-4 -4.9998 0.83281-7.4998 2.5-7.5h2.5l-1.25-6.25-2.5-18.125c-5.8338-44.166-19.584-69.166-41.25-75-0.83437-0.41719-1.667-0.625-2.5-0.625-0.83437-0.41562-2.0838-1.0406-3.75-1.875m-173.75 0.625c-2.5003 4.5836-3.7503 8.1252-3.75 10.625-3.1e-4 4.5836 2.0831 8.5419 6.25 11.875 4.1664 3.3336 6.2497 5.4169 6.25 6.25v0.625c-0.83438 0.83438-1.4594 1.25-1.875 1.25-0.41719 1.6e-4 -1.4594-0.20781-3.125-0.625-1.6669-0.83281-2.9169-1.25-3.75-1.25-1.6669 1.6e-4 -2.5003 0.41719-2.5 1.25-3.1e-4 2.5002 0.20781 3.9586 0.625 4.375l3.75 16.25c0.83281 4.1669 3.9581 7.9169 9.375 11.25 5.8331 3.3334 11.25 5.0002 16.25 5l1.25 0.625c1.25 1.6e-4 2.2914-1.0422 3.125-3.125-4.1669-1.25-7.2919-2.0831-9.375-2.5-1.6669-0.83281-2.5003-1.25-2.5-1.25-3.1e-4 -1.6666 0.20781-2.7081 0.625-3.125 2.0831 0.83438 4.1664 1.6669 6.25 2.5 2.4997 0.83281 5.2081 1.6669 8.125 2.5 1.6664 1.6e-4 2.4997-0.83281 2.5-2.5-3.1e-4 -0.83281-2.7086-2.4998-8.125-5-0.83281-0.83281-1.25-1.4578-1.25-1.875-3.1e-4 -0.41719 0.41719-0.625 1.25-0.625 2.0831 1.6e-4 5.4164 1.6669 10 5-2.0836-4.1664-5.4169-7.9164-10-11.25-3.1e-4 -2.0831 0.41563-3.1248 1.25-3.125 1.25 1.6e-4 2.2914 0.625 3.125 1.875l2.5 2.5 2.5 1.875-1.875-5-6.25-6.25 3.125-1.875 10 6.875-3.125-2.5-0.625-1.875 0.625-1.25c5.833 3.3336 9.9997 5.0002 12.5 5 0.83281 1.6e-4 1.6664-0.41719 2.5-1.25l-0.625-1.25-4.375-3.75c-0.41719-0.41562-0.625-0.83281-0.625-1.25-3.1e-4 -0.83281 0.41719-1.25 1.25-1.25 1.6664 1.6e-4 3.5414 1.25 5.625 3.75l-2.5-5-6.875-4.375v-0.625c-3.1e-4 -1.6664 0.625-2.4998 1.875-2.5 0.83281 1.6e-4 2.2914 1.0422 4.375 3.125l4.375 4.375c-1.25-4.9998-4.5836-8.7498-10-11.25l0.625-1.875 8.75 5.625-15.625-20-1.25 6.25-1.875 1.875-5-5-3.125-1.25-5.625-3.125h-14.375c-3.3336-0.83281-6.8753-2.0831-10.625-3.75m-195.62 1.25c-0.41719 0.41719-0.83281 0.83437-1.25 1.25 0 0.41719-0.20781 0.83281-0.625 1.25l-0.625 1.25c0 2.0836 1.25 3.1252 3.75 3.125 1.6666 1.6e-4 2.5-0.83281 2.5-2.5 0-0.83281-1.25-2.2914-3.75-4.375m408.75 6.25c-4.1672 1.6669-6.2505 4.3752-6.25 8.125-4.7e-4 2.0836 0.20781 3.3336 0.625 3.75l5.625 13.125c2.0828 5.8336 4.3745 13.75 6.875 23.75 2.4995 9.5834 4.9995 21.042 7.5 34.375l3.75-10-1.25-13.125c-4.7e-4 -0.83281-0.625-4.1666-1.875-10l-1.875-6.875-13.125-43.125m-389.38 13.125c0.41719 2.9169 1.4578 4.3752 3.125 4.375 1.6666 1.6e-4 3.3333-0.83281 5-2.5-2.0834-2.0831-3.1252-3.9581-3.125-5.625-1.6e-4 -2.4998 1.4578-3.7498 4.375-3.75h0.625c1.6666 1.6e-4 3.5416-0.625 5.625-1.875h-2.5c-8.7502 1.6e-4 -13.125 2.0836-13.125 6.25v3.125m3.125 30.625c-2.9167-4.9998-6.875-8.1248-11.875-9.375l-15-3.75c-2.9167-0.41562-5.4167-2.4998-7.5-6.25-0.41719-0.41719-0.625-1.8748-0.625-4.375 0-4.9998 2.7083-7.4998 8.125-7.5 3.75 1.6e-4 6.4583 2.7086 8.125 8.125 1.25-2.4998 1.875-4.5831 1.875-6.25 0-4.9998-4.1667-7.4998-12.5-7.5-8.3334 1.6e-4 -12.5 4.1669-12.5 12.5 0 8.3336 4.375 13.334 13.125 15l23.75 5 5 4.375m135.62-36.875c-3.3336 10.834-5.0002 19.375-5 25.625-1.6e-4 21.25 5.2081 31.875 15.625 31.875 6.2498 1.6e-4 9.3748-2.0831 9.375-6.25-1.6e-4 -1.6666-0.625-3.7498-1.875-6.25-2.0836 3.7502-4.1669 5.6252-6.25 5.625-9.5836 1.6e-4 -14.375-9.1664-14.375-27.5-1.6e-4 -1.6664-1.6e-4 -3.7498 0-6.25 0.41562-2.4998 0.83281-5.4164 1.25-8.75 0.41719-0.41562 0.625-1.4578 0.625-3.125-1.6e-4 -2.0831 0.20781-3.7498 0.625-5m101.25 11.25c1.6664-1.6664 3.7497-2.4998 6.25-2.5 1.25 1.6e-4 1.8747 0.41719 1.875 1.25-3.1e-4 0.83438-0.20937 1.4578-0.625 1.875l-3.125 0.625c-0.83281 1.6e-4 -2.0836 0.625-3.75 1.875v3.125c4.9997-2.0831 7.4997-3.1248 7.5-3.125 2.083 1.6e-4 3.1247 0.83281 3.125 2.5l-0.625 0.625-8.125 1.875c-2.917 0.41719-4.3753 1.8752-4.375 4.375-3.1e-4 1.25 0.625 1.8752 1.875 1.875 1.25 1.6e-4 3.1247-0.625 5.625-1.875 2.9164-1.25 5.208-1.8748 6.875-1.875 3.333 1.6e-4 4.9997 0.83438 5 2.5-3.1e-4 2.0836-1.0422 2.7086-3.125 1.875h-1.25c-0.41719 1.6e-4 -1.25 0.20938-2.5 0.625-0.83281 1.6e-4 -2.292 0.20938-4.375 0.625 3.333 2.0836 5.4164 2.9169 6.25 2.5h1.875c2.9164 1.6e-4 4.3747 0.41719 4.375 1.25-3.1e-4 0.83281-1.0422 1.6669-3.125 2.5 1.6664 3.7502 4.7914 5.6252 9.375 5.625 0.83281 1.6e-4 2.9162-0.41562 6.25-1.25l4.375-1.25-3.125-3.75v-3.125c2.9162 2.0836 5.4162 2.7086 7.5 1.875l4.375-2.5-6.25-5.625-6.25-7.5c-0.41719-1.6664-3.3338-2.4998-8.75-2.5l-1.25-1.875c2.9162-1.6664 4.7912-3.7498 5.625-6.25-7.5003-2.0831-11.875-3.1248-13.125-3.125-2.917 1.6e-4 -6.042 0.625-9.375 1.875-3.3336 1.25-5.0003 2.2919-5 3.125v3.75m169.38 51.25c1.6662-0.41719 2.4995-1.0422 2.5-1.875-4.7e-4 -0.83281-0.41719-3.7498-1.25-8.75-0.83437-4.9998-1.25-8.3331-1.25-10l-1.25-13.75c-0.83437-3.3331 0.20781-4.9998 3.125-5 1.25 1.6e-4 2.9162 0.625 5 1.875l1.25-3.75c-0.41719-5.4164-2.2922-8.1248-5.625-8.125-5.4172 1.6e-4 -8.1255 3.9586-8.125 11.875-4.7e-4 4.5836 0.625 8.1252 1.875 10.625l1.875 4.375 0.625 6.875 1.875 9.375-0.625 6.25m-380.62-40c4.1666 2.9169 6.2498 6.0419 6.25 9.375-1.6e-4 4.1669-2.9167 10.417-8.75 18.75 9.1666-6.2498 13.75-12.708 13.75-19.375-1.6e-4 -6.6664-2.0834-9.9998-6.25-10h-1.25l-3.75 1.25m316.25 60.625c0.83281-2.4998 1.6662-5.2081 2.5-8.125 0.83281-3.3331 1.4578-7.0831 1.875-11.25 0.41563-16.25 4.9995-24.375 13.75-24.375 6.2495 1.6e-4 9.3745 2.7086 9.375 8.125-4.7e-4 2.5002-0.625 5.2084-1.875 8.125 6.2495-2.9166 9.3745-6.0416 9.375-9.375-4.7e-4 -1.25-0.20937-2.0831-0.625-2.5l-1.875-3.75-1.25-3.125-8.75-6.25 1.875-6.25c-0.83437-0.83281-2.0838-1.25-3.75-1.25-12.084 1.6e-4 -18.334 13.75-18.75 41.25-4.7e-4 2.5002-0.83437 5.8334-2.5 10-1.25 3.7502-1.8755 6.0419-1.875 6.875-4.7e-4 0.83281 0.83281 1.4578 2.5 1.875m-111.25-51.25c-1.667 1.25-2.5003 2.2919-2.5 3.125-3.1e-4 2.0836 1.0422 3.1252 3.125 3.125 1.25 1.6e-4 2.2914-0.625 3.125-1.875v-2.5l-3.75-1.875m9.375 1.25c-0.41719 1.6e-4 -0.625 0.41719-0.625 1.25l-0.625 0.625c-3.1e-4 1.25 0.625 1.8752 1.875 1.875 1.6664 1.6e-4 2.4997-0.83281 2.5-2.5-3.1e-4 -1.25-0.83281-1.8748-2.5-1.875l-0.625 0.625m-265.62 39.375c1.6666-0.41719 2.9166-2.0831 3.75-5-0.83281-4.1666-2.0834-7.7081-3.75-10.625l8.125-2.5 1.875-4.375h-1.25c-5 1.6e-4 -7.5-1.8748-7.5-5.625 0-3.7498 2.7083-5.6248 8.125-5.625 9.1666 1.6e-4 13.75 4.3752 13.75 13.125 0 8.7502-3.3334 16.458-10 23.125-8.3334 9.5834-12.708 15-13.125 16.25-0.41719 0.41719-0.625 1.25-0.625 2.5s-0.20781 2.2919-0.625 3.125l4.375-6.875 6.875-6.875 4.375-3.125 5.625-8.125 1.875-2.5c3.75-4.1666 5.6248-9.9998 5.625-17.5-1.6e-4 -12.5-7.0834-18.75-21.25-18.75-13.75 1.6e-4 -20.625 6.4586-20.625 19.375 0 2.9169 0.625 5.0002 1.875 6.25l10.625 10 1.875 3.75m273.12-35.625c0.41563 1.25 0.83281 1.8752 1.25 1.875 1.25 1.6e-4 1.8747-0.41719 1.875-1.25-3.1e-4 -0.83281-0.41719-1.25-1.25-1.25l-1.875 0.625m-27.5 1.25c-1.667 1.6e-4 -2.7086 0.83438-3.125 2.5v1.25c-3.1e-4 2.0836 1.0422 3.1252 3.125 3.125 2.4997 1.6e-4 3.7497-1.25 3.75-3.75-3.1e-4 -2.0831-1.25-3.1248-3.75-3.125m20 56.25 16.25 23.125c4.1664 5.4167 7.083 12.292 8.75 20.625l0.625 6.25 5-0.625h1.25c1.6662 1.6e-4 2.4997-0.83281 2.5-2.5v-3.125l-3.75-17.5c-0.83281-2.4998-2.0838-5.2083-3.75-8.125-1.667-3.3333-3.3338-6.4583-5-9.375-1.25-3.3333-2.5003-6.0416-3.75-8.125-1.25-2.4998-1.8753-3.9581-1.875-4.375v-1.25c0.41563-0.41719 0.83281-0.625 1.25-0.625h2.5l2.5 5 3.125 3.75 1.875 6.875 5.625 11.875 2.5 10.625 2.5 6.25c0.83281 5.0002 1.4578 7.7084 1.875 8.125h3.75c2.4997-0.41719 3.7497-2.2916 3.75-5.625v-1.875l-0.625-20.625c-0.41719-5.8333-1.25-11.042-2.5-15.625-0.83437-4.5831-2.0838-8.5416-3.75-11.875l-3.125-5.625-3.75-10c-2.5003-7.4998-7.292-14.167-14.375-20-6.667-5.8331-13.125-8.7498-19.375-8.75-12.917 1.6e-4 -19.375 6.6669-19.375 20-3.1e-4 7.0834 1.6664 12.917 5 17.5l14.375 15.625m28.75-53.125-5.625 0.625 2.5 5h-2.5l-3.125-1.25 5 5 4.375 5.625c1.25 1.25 3.5412 1.8752 6.875 1.875 2.083 1.6e-4 3.1247-0.83281 3.125-2.5-3.1e-4 0.41719-1.667-1.6666-5-6.25 0.41563-0.83281 1.8747-2.0831 4.375-3.75l-10-4.375m-213.75 6.25 1.25 1.25-2.5 1.875c3.7498 3.3334 5.6248 5.8334 5.625 7.5-1.6e-4 4.5834-2.0834 7.5002-6.25 8.75l-4.375 1.25-23.125-0.625-10 1.875h17.5l7.5 1.875 5.625-1.25v1.25c12.5 1.6e-4 18.75-4.7916 18.75-14.375-1.6e-4 -2.4998-1.4578-5.2081-4.375-8.125l-5.625-1.25m254.38 9.375h3.75c4.9995 1.6e-4 7.708 5.2084 8.125 15.625v7.5c2.083-9.1666 3.1245-15 3.125-17.5-4.7e-4 -9.5831-2.917-14.375-8.75-14.375-4.167 1.6e-4 -6.2503 1.8752-6.25 5.625v3.125m-95.625-7.5c-1.25 1.6e-4 -1.8753 0.625-1.875 1.875-3.1e-4 1.6669 0.83281 2.5002 2.5 2.5 2.083 1.6e-4 3.1247-1.0422 3.125-3.125-3.1e-4 -0.83281-1.0422-1.25-3.125-1.25h-0.625m-53.75 13.125 8.125 3.125-1.25 3.125-3.75 5c-1.6669 1.6669-2.5003 3.9584-2.5 6.875v0.625c-3.1e-4 10.417 0.41719 16.042 1.25 16.875l1.25 0.625c5.8331 1.6e-4 9.5831-2.0833 11.25-6.25l5-10 2.5 1.25-1.25 5c-3.1e-4 2.0834 0.625 3.3334 1.875 3.75l5-1.875 8.125-5c5.4164-2.9166 8.7497-10.417 10-22.5l-3.75 6.25-1.875 1.25-3.125 4.375h-1.25c-0.83281 1.6e-4 -1.25-0.41719-1.25-1.25 0.83281-1.25 1.8747-2.7081 3.125-4.375 1.6664-2.0831 3.3331-4.3748 5-6.875-1.6669 0.83281-2.9169 1.6669-3.75 2.5-4.1669 4.1669-7.5003 6.2502-10 6.25-1.25 1.6e-4 -1.8753-0.625-1.875-1.875-3.1e-4 -0.83281 3.1247-3.5416 9.375-8.125 1.6664-0.83281 3.3331-2.7081 5-5.625-7.0836 3.7502-11.875 5.6252-14.375 5.625-1.25 1.6e-4 -1.8753-0.41719-1.875-1.25-3.1e-4 -0.41719 2.0831-1.4578 6.25-3.125 0.41562-0.41719 0.83281-0.625 1.25-0.625l1.25-1.25c-8.7503-3.7498-13.334-5.6248-13.75-5.625-5.4169 1.6e-4 -10.834 3.1252-16.25 9.375l-3.75 3.75m-147.5-6.25-5 2.5-1.25 1.25 1.25 0.625 5-4.375m280 1.875 0.625 5h-2.5c-7.0838-0.83281-10.625 1.0422-10.625 5.625v0.625l3.125 8.125 2.5-5 1.25-0.625h1.25c8.333 1.6e-4 12.5 5.8334 12.5 17.5-3.1e-4 0.83281-0.41719 2.9169-1.25 6.25l-7.5 13.125v24.375c11.666-6.6666 19.375-13.125 23.125-19.375 0.83281-0.83281 1.6662-1.4578 2.5-1.875l1.875-1.875c2.083-2.9166 4.583-6.0416 7.5-9.375 2.9162-3.3333 6.458-6.6666 10.625-10 0.83281-0.41719 2.9162-0.625 6.25-0.625-3.3338-3.7498-5.8338-5.6248-7.5-5.625-3.3338 1.6e-4 -6.4588 0.83281-9.375 2.5-0.41719 0.41719-0.83437 0.83281-1.25 1.25-0.41719 1.6e-4 -0.83437 0.20781-1.25 0.625l-8.75 11.875-0.625 0.625c-1.667 1.6e-4 -2.5003-0.625-2.5-1.875v-0.625l5.625-11.875v-7.5c-4.7e-4 -3.3331-0.20937-5.6248-0.625-6.875l-7.5 3.75c-1.25-9.5831-7.0838-15.625-17.5-18.125m-80.625 2.5c-3.1e-4 1.25-0.20937 2.0834-0.625 2.5l-0.625 1.25c-3.1e-4 1.6669 1.0406 2.5002 3.125 2.5 1.6664 1.6e-4 2.4997-1.0422 2.5-3.125-3.1e-4 -2.0831-1.25-3.1248-3.75-3.125h-0.625m-208.75 7.5c1.6666-0.83281 3.1248-1.6666 4.375-2.5 1.6666-0.83281 3.3333-1.6666 5-2.5v-1.875l-5.625 3.125-3.75 1.875v1.875m394.38 21.875c-1.6672 5.4169-2.5005 11.25-2.5 17.5-4.7e-4 2.9167 0.20781 4.7917 0.625 5.625l4.375 12.5 0.625 6.25v13.75c-0.83437 3.3334-2.2922 5-4.375 5l-0.625-0.625-1.875-1.25c1.6662-1.25 2.4995-3.5416 2.5-6.875l1.25-8.75-2.5-10.625-3.125-3.75-3.125-5.625-3.125 8.75-2.5-0.625c-2.5005-6.2498-6.6672-9.3748-12.5-9.375-4.1672 1.6e-4 -8.542 1.6667-13.125 5-4.5838 3.3334-6.667 7.0834-6.25 11.25l0.625 4.375-0.625 4.375c1.6662 3.7502 2.9162 8.3334 3.75 13.75 1.25 5 2.2912 10.833 3.125 17.5v4.375c-3.3338 9.5834-10 15-20 16.25 1.6662 2.9167 3.5412 4.375 5.625 4.375h0.625l3.125-1.875 5-1.875 5.625-5.625c4.583-4.5833 6.6662-8.75 6.25-12.5v-0.625l-4.375-28.125c-0.41719-0.83281-0.625-2.7083-0.625-5.625-4.7e-4 -5.8333 2.083-8.7498 6.25-8.75 7.0828 1.6e-4 10.625 4.7917 10.625 14.375-4.7e-4 7.0834-2.0838 15-6.25 23.75l-0.625 10.625 6.875 2.5v1.875l-1.25 2.5-0.625 1.875-1.875 1.25-3.125 5.625-3.125 3.75-2.5 3.75-3.75 4.375v0.625c-4.7e-4 2.9167 3.1245 4.375 9.375 4.375h0.625l6.25-3.125c0.83281-0.41719 1.4578-0.83281 1.875-1.25 0.41563-0.41719 0.83281-0.83281 1.25-1.25l9.375-6.875c1.6662-1.6666 4.5828-2.5 8.75-2.5 4.9995 0 7.4995 1.875 7.5 5.625-4.7e-4 1.25-0.83437 3.3333-2.5 6.25l6.25 1.875 1.875-1.875 3.75-1.25c0.83281-0.83281 1.25-2.2917 1.25-4.375-4.7e-4 -1.25-0.41719-2.9166-1.25-5-0.83437-2.5-1.25-3.9583-1.25-4.375-4.7e-4 -0.83281 0.625-1.875 1.875-3.125-5.8338-2.5-10-3.75-12.5-3.75-7.9172 0-14.792 3.5417-20.625 10.625-2.0838 2.0834-3.3338 3.125-3.75 3.125l-2.5-0.625c2.0828-2.0833 3.3328-3.75 3.75-5 4.1662-4.1666 6.4578-7.2916 6.875-9.375 0.41563-4.1666 1.6662-6.25 3.75-6.25h1.25l1.25 2.5c0.83281 0.83281 1.6662 1.25 2.5 1.25 4.9995 0 9.1662-4.1666 12.5-12.5 3.3328-8.3333 4.7912-18.542 4.375-30.625v-0.625l-1.25-37.5v-5l-1.25-15.625c-4.7e-4 -0.83281-4.7e-4 -1.8748 0-3.125 0.41563-1.6666 0.83281-3.5416 1.25-5.625l2.5-7.5-3.75 2.5c-3.7505 2.0834-5.8338 6.8752-6.25 14.375l-0.625 1.875 0.625 6.875c0.41563 2.5002-0.41719 3.7502-2.5 3.75-0.83437 1.6e-4 -1.8755-0.625-3.125-1.875m-179.38-20-3.75 5 2.5 1.25 1.25-6.25m-250.62 50.625c-2.5 8.7502-3.75 15.208-3.75 19.375 0 15.417 5 28.333 15 38.75-8.3334-14.583-12.5-28.125-12.5-40.625 0-16.667 5.4166-31.042 16.25-43.125 10.417-12.5 23.125-18.75 38.125-18.75 10.417 1.6e-4 18.75 2.9169 25 8.75 6.6666 5.4169 9.9998 12.5 10 21.25-1.6e-4 7.9167-2.7084 14.583-8.125 20-5.4167 5.4167-11.875 8.1252-19.375 8.125-9.5834 1.6e-4 -14.375-3.9583-14.375-11.875-1.6e-4 -7.0833 2.9166-10.625 8.75-10.625 3.3333 1.6e-4 7.2916 2.5002 11.875 7.5 0.41719-2.0833 0.625-3.7498 0.625-5 0.41719-1.25 0.625-2.0833 0.625-2.5-1.6e-4 -2.4998-1.6667-4.7916-5-6.875l-4.375-3.125 3.125-4.375v-3.125c-1.25-0.41719-3.3334-0.625-6.25-0.625h-3.75c-5.4167 1.6e-4 -10.208 2.2919-14.375 6.875-4.1667 4.5834-6.25 10-6.25 16.25 0 6.6667 2.9166 12.708 8.75 18.125 5.8333 5.0002 12.5 7.5002 20 7.5 9.5833 1.6e-4 17.708-3.5416 24.375-10.625 6.6666-7.0833 9.9998-15.417 10-25-1.6e-4 -9.9998-4.1669-18.125-12.5-24.375-8.3334-6.6666-18.75-9.9998-31.25-10-2.0834 1.6e-4 -4.7917 0.41719-8.125 1.25l-8.125 3.125-5.625 1.25-3.75 3.125-10 7.5c-2.0834 1.25-3.9584 3.9584-5.625 8.125-4.5834 7.0834-7.2917 12.917-8.125 17.5 0 1.6e-4 -0.20781 0.625-0.625 1.875 0 0.83281-0.20781 2.2917-0.625 4.375m239.38-36.25c-2.0836 1.6e-4 -3.1253-0.41719-3.125-1.25l0.625-2.5c-4.1669 4.1669-6.2503 7.9169-6.25 11.25v5c1.6664-2.9166 3.1247-4.3748 4.375-4.375 1.25 1.6e-4 2.0831 0.20781 2.5 0.625 0.41563 3.7502 2.4997 7.5002 6.25 11.25 2.9164-2.9166 4.583-6.6666 5-11.25l8.125 2.5v-2.5c-3.1e-4 -4.1666-1.667-7.2916-5-9.375l0.625 1.875-2.5 1.25c-0.41719-3.7498-1.8753-6.0416-4.375-6.875 0.83281 3.3334 1.25 5.4169 1.25 6.25-3.1e-4 2.0834-1.0422 3.1252-3.125 3.125-0.83281 1.6e-4 -1.25-0.20781-1.25-0.625v-3.125l-1.875-5-1.25 3.75m178.12 25.625c2.4995-1.6666 3.7495-3.3333 3.75-5-4.7e-4 -4.1666-2.0838-10.208-6.25-18.125-4.1672-7.9166-11.459-11.875-21.875-11.875-7.5005 1.6e-4 -11.25 4.1669-11.25 12.5-4.7e-4 5.8334 1.8745 9.3752 5.625 10.625l3.75 0.625-3.125-5v-2.5c-4.7e-4 -4.9998 2.2912-7.4998 6.875-7.5 8.7495 1.6e-4 15.416 6.6669 20 20 0.41563 1.25 0.83281 2.5002 1.25 3.75 0.41563 0.83281 0.83281 1.6667 1.25 2.5m-61.25-25c2.4995-1.25 3.7495-2.4998 3.75-3.75-4.7e-4 -1.25-0.41719-1.8748-1.25-1.875l-0.625 0.625-1.875 5m-325 0 6.25-0.625 3.75-2.5 3.125 0.625h10.625c9.5833 0.83281 14.375 3.9584 14.375 9.375-1.6e-4 3.3334-0.20781 5.4167-0.625 6.25 4.9998-0.41719 7.4998-2.2916 7.5-5.625-1.6e-4 -8.3331-8.1252-12.5-24.375-12.5-4.5834 1.6e-4 -11.458 1.6669-20.625 5m-40.625 1.875 1.875-0.625c4.5833 1.6e-4 6.875 1.8752 6.875 5.625l-2.5 15v6.25l0.625 1.25 0.625-6.875 3.75-10c0.83281-4.1666 1.25-6.8748 1.25-8.125 0-5.8331-2.2917-8.7498-6.875-8.75-3.3334 1.6e-4 -5.2084 2.0834-5.625 6.25m184.38 8.125c18.75 27.5 44.583 41.25 77.5 41.25 6.6664 1.6e-4 13.958-2.0833 21.875-6.25l-8.125-2.5c1.25-2.9166 1.8747-5.8333 1.875-8.75-3.1e-4 -7.0833-4.167-10.625-12.5-10.625-2.5003 1.6e-4 -3.9586 1.25-4.375 3.75 4.1664 2.9167 6.2497 5.6252 6.25 8.125-3.1e-4 2.5002-1.667 4.7917-5 6.875-3.3336 1.6667-6.4586 2.5002-9.375 2.5h-0.625l-14.375-1.25h-7.5v-1.875c-14.584-4.5833-25.834-11.042-33.75-19.375l-6.875-8.125-5-3.75m6.875 1.25c9.1664 11.25 18.125 16.875 26.875 16.875 5.8331 1.6e-4 8.7497-2.7083 8.75-8.125-3.1e-4 -1.6666-1.6669-3.7498-5-6.25-2.0836 6.2502-5.0003 9.3752-8.75 9.375-5.4169 1.6e-4 -12.709-3.9583-21.875-11.875m-10 1.25v2.5c-1.6e-4 3.3334 1.0406 6.0417 3.125 8.125 2.4998 2.0834 3.9581 3.1252 4.375 3.125l0.625 3.125c0.83281 0.83281 2.0831 2.0834 3.75 3.75 2.0831 1.25 4.1664 2.9167 6.25 5 12.916 15.417 36.666 23.125 71.25 23.125h14.375c4.9997 1.6e-4 8.1247-0.20781 9.375-0.625 0.83281-0.41719 1.6664-0.625 2.5-0.625 1.25-0.41719 2.9164-1.0422 5-1.875l-1.875-8.75c-13.75 4.1667-24.584 6.2502-32.5 6.25-16.25 1.6e-4 -31.875-3.1248-46.875-9.375-15-6.6666-25.834-15-32.5-25l-2.5-3.75-4.375-5m-3.125 15 0.625 5.625c0.41562 2.0834 0.625 4.1667 0.625 6.25-1.6e-4 1.6667-1.6e-4 3.1252 0 4.375v2.5l-1.875 15 4.375 0.625c1.6664 1.6e-4 2.4998-1.8748 2.5-5.625v-1.875l-0.625-5c-1.6e-4 -4.9998-0.20938-7.9166-0.625-8.75l-1.875-7.5c-0.41719-2.0833-1.4594-3.9583-3.125-5.625m210.62 1.875-33.75 56.25c-2.0838 3.75-5.6253 5.625-10.625 5.625h-0.625l-26.875-1.25-78.75-1.875h-179.38l7.5 4.375 278.75 3.125c0.83281 0.41719 2.2912 0.625 4.375 0.625 4.9997 0 9.7912-4.7916 14.375-14.375 0.41563-1.6666 1.0406-2.9166 1.875-3.75l10.625-20.625 7.5-10.625 3.75-8.75c1.25-2.9166 1.8745-4.7916 1.875-5.625-4.7e-4 -1.6666-0.20937-2.7083-0.625-3.125m-202.5 1.25 3.125 5.625 9.375 9.375 8.125 6.875c1.6664 1.25 2.4997 3.9584 2.5 8.125v1.875c3.7497-1.25 5.6247-3.1248 5.625-5.625-3.1e-4 -3.7498-3.9586-7.7083-11.875-11.875-1.6669-0.41719-3.7503-1.6666-6.25-3.75l-10.625-10.625m-166.25 51.25c-2.9167-7.0833-4.375-13.75-4.375-20 0-11.667 4.1666-17.5 12.5-17.5 2.5 1.6e-4 5.625 1.25 9.375 3.75 0.41719-0.83281 0.625-2.2916 0.625-4.375 0-1.25-1.25-2.9166-3.75-5-0.83281-1.6666-1.6667-2.9166-2.5-3.75h-2.5c-11.25-0.41719-16.875 7.7084-16.875 24.375 0 0.83281 1.25 6.25 3.75 16.25 0.41719 0.83281 0.83281 1.6667 1.25 2.5 0.83281 0.83281 1.6666 2.0834 2.5 3.75m155.62-44.375c-1.25 6.2502-3.5419 9.3752-6.875 9.375h-2.5c0.83281 2.0834 2.0831 3.1252 3.75 3.125l2.5-0.625c2.9164-0.41719 4.1664-2.9166 3.75-7.5l-0.625-4.375m-83.125 13.75-3.75 2.5-16.875 9.375c-2.0834 1.25-3.1252 3.3334-3.125 6.25v1.25l3.125-4.375 15-8.75 5.625-6.25m-66.25 19.375c-0.83281 5.8334-1.4578 10.208-1.875 13.125-0.41719 2.5-0.625 3.3334-0.625 2.5 0 9.5834 3.9583 15.625 11.875 18.125 7.9166 2.0834 12.292 3.5417 13.125 4.375v0.625c0.41719 0.41719 0.625 0.83281 0.625 1.25-1.6e-4 2.9167-1.4578 4.375-4.375 4.375l-1.875-0.625h-1.25l-3.125-2.5-4.375-1.25v-3.125c-0.41719-0.83281-2.7084-1.875-6.875-3.125-3.75-1.6666-6.4584-2.5-8.125-2.5-3.3334 0-8.125 1.875-14.375 5.625l3.75 3.75-5 5.625v0.625l-0.625 0.625c0 2.0833 2.9166 3.5417 8.75 4.375-0.41719-0.41719-0.625-1.875-0.625-4.375 0-3.75 2.7083-5.625 8.125-5.625 2.5 0 5.4166 0.41719 8.75 1.25l22.5 5.625 12.5 1.875 6.875 0.625 1.25-0.625-0.625-1.875 2.5-1.875c0.83281 3.3333 2.2916 5 4.375 5h2.5l6.25-0.625 16.25 0.625c9.9998 0 20.625-2.2917 31.875-6.875 11.25-5 19.375-10.833 24.375-17.5h-3.75l-3.75 0.625c-0.83281 0.41719-2.5002 1.6667-5 3.75-2.0834 1.6667-5.0002 3.5417-8.75 5.625-3.7502 1.6667-8.5419 3.3334-14.375 5-5.8334 1.25-12.708 1.875-20.625 1.875-8.7502 0-16.875-0.83281-24.375-2.5-7.5002-1.6666-14.167-3.9583-20-6.875-5.4167-3.3333-9.7917-6.875-13.125-10.625-3.3334-3.75-5-7.9166-5-12.5 0-9.5833 4.1666-13.958 12.5-13.125h5c-3.7502-5.4166-7.5002-8.1248-11.25-8.125-6.25 1.6e-4 -10.417 2.2917-12.5 6.875l-1.875 5c-0.41719 0.41719-1.25 0.625-2.5 0.625-1.25-0.41719-2.2917-1.4578-3.125-3.125m355.62 17.5c-2.917 0.41719-4.3755 2.0834-4.375 5-4.7e-4 3.3334 1.6662 5 5 5 4.1662 0 6.2495-1.875 6.25-5.625-4.7e-4 -2.9166-2.0838-4.375-6.25-4.375h-0.625m-19.375 6.875h-1.25c-0.41719 0.41719-0.625 1.6667-0.625 3.75-4.7e-4 3.75 2.2912 5.625 6.875 5.625 4.583 0 6.8745-2.2916 6.875-6.875-4.7e-4 -4.1666-2.292-6.25-6.875-6.25-3.3338 0-5.0005 1.25-5 3.75m-362.5 3.75c2.9166-2.5 5.4166-3.75 7.5-3.75 2.5 0 4.1666 0.20781 5 0.625-2.5-2.5-4.5834-3.75-6.25-3.75-4.5834 0-6.875 1.25-6.875 3.75l0.625 3.125m191.88 15.625c0.83281 2.5 1.25 3.5417 1.25 3.125-1.6e-4 1.6667-1.6669 2.5-5 2.5h-1.875l-14.375-5.625c-3.3336-0.83281-5.4169-1.25-6.25-1.25-3.3336 0-5.0002 1.0422-5 3.125v0.625l0.625 3.125 3.75-3.75c0.41719-0.41719 0.83281-0.625 1.25-0.625 0.41562 0 0.83281-0.20781 1.25-0.625h1.875l8.125 3.75h3.125c4.5831 3.3333 7.2914 5 8.125 5 6.6664 0 9.9997-2.9167 10-8.75-3.1e-4 -0.83281-0.20781-1.25-0.625-1.25l-16.875-3.125c-1.6669-0.41719-2.5002-1.875-2.5-4.375-1.6e-4 -4.5833 3.7498-6.875 11.25-6.875 1.6664 0 3.7498 0.625 6.25 1.875 2.4997 0.83281 4.1664 1.25 5 1.25l0.625-0.625c0.41562 0 0.83281-0.20781 1.25-0.625-5.8336-2.5-10.625-3.75-14.375-3.75-9.5836 0-14.375 3.125-14.375 9.375-1.6e-4 3.3334 0.83281 5.2084 2.5 5.625 3.7498 0 8.7498 0.625 15 1.875m43.75-13.125h-1.25v-1.25c-3.1e-4 -1.6666-1.0422-2.5-3.125-2.5-2.9169 0-4.3753 1.25-4.375 3.75-3.1e-4 2.9167 1.4578 4.375 4.375 4.375 1.6664 0 3.1247-1.4578 4.375-4.375m-116.88 8.125c-5.0002-1.6666-8.1252-5.2083-9.375-10.625l-1.25-0.625c-4.1669 0-6.2502 2.2917-6.25 6.875-1.6e-4 3.3334 3.1248 5 9.375 5 3.7498 0 6.2498-0.20781 7.5-0.625m151.88-11.25c-3.3336 2.0834-5.0003 3.5417-5 4.375-3.1e-4 1.25 0.20781 2.0834 0.625 2.5l0.625 1.875 3.75 4.375v0.625c-3.1e-4 0.83281-1.0422 1.6667-3.125 2.5h10.625l11.875-5.625 3.75-1.25c2.083-0.83281 2.9164-2.7083 2.5-5.625v-3.75c-7.0836 5-12.084 7.5-15 7.5-5.417 0-8.9586-2.5-10.625-7.5m36.25 1.25 3.75 5c2.083-2.0833 3.1247-3.5416 3.125-4.375-3.1e-4 -0.83281-0.625-1.25-1.875-1.25h-0.625l-4.375 0.625m26.875 5c-0.83437-1.25-1.4594-1.875-1.875-1.875-10.417 0-15.625 3.75-15.625 11.25-3.1e-4 2.5 1.4578 4.7917 4.375 6.875 3.333 1.6667 6.2497 2.5 8.75 2.5h0.625l6.25-1.25 6.25 0.625c4.583 0 6.8747-2.7083 6.875-8.125-3.1e-4 -1.25-0.83437-2.5-2.5-3.75-1.25-1.25-1.8753-2.2916-1.875-3.125-3.1e-4 -0.83281 0.20781-1.4578 0.625-1.875l8.75-2.5c0.41563 0 0.625-0.20781 0.625-0.625-4.7e-4 -1.6666-1.0422-2.5-3.125-2.5-8.7503 0-13.125 2.9167-13.125 8.75v0.625l3.125 5 0.625 0.625c-3.1e-4 3.75-3.3338 5.625-10 5.625-7.5003 0-11.25-2.2917-11.25-6.875-3.1e-4 -1.6666 4.1662-4.7916 12.5-9.375m-122.5 1.25 3.75 1.875h1.25c1.6664 0 2.4997-1.25 2.5-3.75-3.1e-4 -2.0833-1.25-3.125-3.75-3.125-2.5003 0-3.7503 1.25-3.75 3.75v1.25m28.75 6.25 4.375-3.75c-2.0836-2.0833-3.3336-3.125-3.75-3.125-2.9169 0-4.3753 1.4578-4.375 4.375-3.1e-4 1.25 1.25 2.0834 3.75 2.5m-81.25-6.25c-1.6669 2.0834-3.1252 3.9584-4.375 5.625-1.25 1.25-2.2919 2.2917-3.125 3.125-2.9169 2.5-4.3752 4.1667-4.375 5-1.6e-4 1.6667 1.8748 3.3333 5.625 5v-1.25c-0.83281-4.5833 0.41719-8.5416 3.75-11.875l3.75-5-1.25-0.625m135.62 18.125c1.25-2.5 5.6247-8.125 13.125-16.875-2.5003-0.83281-3.7503-1.25-3.75-1.25-2.5003 0-5.6253 1.4578-9.375 4.375-3.7503 2.5-5.6253 5-5.625 7.5-3.1e-4 2.5 1.8747 4.5833 5.625 6.25m-90-13.75c-3.1e-4 0.83281 0.20781 1.4578 0.625 1.875 2.0831 0 3.1247-0.625 3.125-1.875-3.1e-4 -1.6666-0.625-2.5-1.875-2.5l-1.25 0.625-0.625 1.875m175-0.625c-0.41719-1.6666-1.4594-2.5-3.125-2.5-4.167 0-6.2505 1.875-6.25 5.625-4.7e-4 3.3333 1.6662 5 5 5 3.333 0 4.7912-1.875 4.375-5.625v-2.5m-155.62 0c-2.0836 0-3.1253 0.83281-3.125 2.5-3.1e-4 2.0834 1.25 3.125 3.75 3.125 1.6664 0 2.4997-0.625 2.5-1.875-3.1e-4 -0.83281-0.41719-1.6666-1.25-2.5-0.83438-0.83281-1.4594-1.25-1.875-1.25m-9.375 6.25-2.5-1.875c-2.0836 0-3.1253 1.4578-3.125 4.375-3.1e-4 2.0833 1.0422 3.125 3.125 3.125 2.4997 0 3.7497-1.25 3.75-3.75-3.1e-4 -0.41719-0.41719-1.0422-1.25-1.875m51.25 5.625 10-1.875 6.875-3.125-16.875 5m-35-1.25v1.875c0.83281 0.83281 2.0831 1.25 3.75 1.25 2.4997 0 3.7497-1.25 3.75-3.75-3.1e-4 -1.6667-1.4578-2.5-4.375-2.5-2.0836 0-3.1253 0.83281-3.125 2.5v0.625m-7.5-1.25c-1.25 0-1.8753 0.625-1.875 1.875-3.1e-4 1.6667 0.625 2.5 1.875 2.5 1.6664 0 2.4997-0.83281 2.5-2.5-3.1e-4 -1.25-0.83438-1.875-2.5-1.875m41.25 3.125-13.75-0.625-0.625 1.25c-2.5003-2.5-4.3753-3.75-5.625-3.75-0.83281 0-1.25 0.20781-1.25 0.625-3.1e-4 1.6667 2.9164 2.9167 8.75 3.75h6.25l6.25-1.25m-255.62-384.38 3.75 1.875c0 2.0838-0.20781 3.1255-0.625 3.125-0.41719 4.7e-4 -1.875-0.41562-4.375-1.25-2.0834-1.25-3.125-2.2912-3.125-3.125l0.625-2.5 3.75 1.875m-5 6.875v-1.875c0-0.83281 0.41719-1.25 1.25-1.25h0.625l3.125 2.5h1.875l0.625 4.375-1.25-1.875h-0.625c-2.0834 4.7e-4 -3.9584-0.625-5.625-1.875m394.38 0.625c-4.7e-4 1.25-1.667 1.8755-5 1.875-2.5005 4.7e-4 -3.7505-0.41562-3.75-1.25l-0.625-2.5 5 0.625 1.875-1.25 2.5 2.5m-169.38 5.625c-3.1e-4 1.25 0.625 2.5003 1.875 3.75-0.41719 0.83438-0.83281 1.4594-1.25 1.875-3.1e-4 3.1e-4 -3.1e-4 3.1e-4 0 0-3.1e-4 3.1e-4 -0.625-1.0406-1.875-3.125-1.25-2.083-1.8753-2.708-1.875-1.875l1.25-1.25c-3.1e-4 -0.41562 0.625-0.625 1.875-0.625v1.25m-140.62-0.625 3.75-0.625c-1.6e-4 0.41719-0.41719 0.625-1.25 0.625-1.25-1.25-1.6667-2.083-1.25-2.5l-1.25 2.5m-85-1.875 7.5 3.75 0.625 1.875c-0.41719 1.25-1.0422 1.4594-1.875 0.625-0.41719-0.83281-0.83281-1.25-1.25-1.25v-0.625c0 3.1e-4 -1.6667-0.41562-5-1.25v-3.125m50 2.5h5c-1.25 1.667-2.2917 2.5003-3.125 2.5-0.41719-0.41562-0.83281-0.83281-1.25-1.25-1.6e-4 -0.41562-0.20781-0.83281-0.625-1.25m338.75 0.625 6.875-1.875c-0.83437 2.0838-1.8755 3.1253-3.125 3.125-4.7e-4 3.1e-4 -0.41719 3.1e-4 -1.25 0-0.41719-0.41562-1.25-0.83281-2.5-1.25m-169.38 1.25 7.5 6.875c-3.1e-4 3.1e-4 -0.41719 3.1e-4 -1.25 0-0.41719-0.41562-1.25-0.83281-2.5-1.25-2.9169-1.6662-4.5836-2.4997-5-2.5-3.1e-4 3.1e-4 -0.41719-0.41562-1.25-1.25v-1.25l0.625-1.875 1.875 1.25m-129.38 5.625-2.5 1.25c-1.6e-4 -1.25-0.20781-2.083-0.625-2.5v-1.25c-1.6e-4 -1.25 0.20781-1.8747 0.625-1.875 1.25 3.1e-4 1.8748 0.83438 1.875 2.5l0.625 1.875m309.38-3.75c-1.25 2.0838-2.7088 3.1253-4.375 3.125h-1.25c-0.41719 3.1e-4 -0.625-0.20781-0.625-0.625l3.125-3.125 3.75-1.25-0.625 1.875m-341.25 1.875c-0.41719-0.41562-1.25-0.625-2.5-0.625-0.83281 3.1e-4 -1.4578-0.20781-1.875-0.625-1.6e-4 -1.25 1.0422-1.8747 3.125-1.875 0.83281 3.1e-4 1.25 0.41719 1.25 1.25v1.875m184.38-1.875 5.625 1.875-16.875 2.5 11.25-4.375m-238.12 1.875 4.375 4.375c0 0.41719-0.83281 0.20938-2.5-0.625-1.6667-1.25-2.7084-1.8747-3.125-1.875-1.6667 3.1e-4 -2.5-0.625-2.5-1.875 0-0.83281 0.41719-1.25 1.25-1.25l2.5 1.25m406.88 2.5-10 0.625h1.25c1.6662 3.1e-4 3.1245-0.20781 4.375-0.625 1.6662-0.41562 3.1245-0.41562 4.375 0-4.7e-4 0.41719-3.3338 0.625-10 0.625-0.83437 3.1e-4 -1.25-0.41562-1.25-1.25-4.7e-4 -0.83281 1.6662-0.83281 5 0 1.25 0.41719 2.7078 0.625 4.375 0.625h1.875m-328.75-0.625c-1.6e-4 1.25-2.5002 3.1253-7.5 5.625l-2.5-3.125 5.625-1.875 1.875-1.875 2.5 1.25m-21.25 1.875c-1.6e-4 1.667-0.41719 2.5003-1.25 2.5-1.6667 3.1e-4 -2.5002-0.83281-2.5-2.5-1.6e-4 -1.25 0.625-1.8747 1.875-1.875l1.875 1.875m29.375 2.5c4.9998 13.75 12.708 20.417 23.125 20h6.25l0.625 1.875v0.625c-1.25 0.41719-3.7502 0.625-7.5 0.625-2.5002 3.1e-4 -4.5834-0.625-6.25-1.875l-12.5-6.25-3.75-6.25-2.5-6.875 0.625-2.5 1.875 0.625m166.25 0c-3.1e-4 0.41719-2.7086 1.4594-8.125 3.125-0.41719 0.41719-1.8753 1.0422-4.375 1.875l-5 1.875c-3.3336 0.83438-5.8336 1.25-7.5 1.25-1.25 3.1e-4 -2.5003-0.20781-3.75-0.625-1.25-0.41562-1.8753-0.625-1.875-0.625l-3.125-3.75 14.375 1.25 11.25-3.125 8.125-1.25m-185.62 6.875 3.125 3.125c-1.6667 3.1e-4 -3.9584-0.625-6.875-1.875-2.9167-1.6662-4.3752-3.1247-4.375-4.375-1.6e-4 -1.6662 0.625-2.4997 1.875-2.5 2.0833 3.1e-4 4.1666 1.8753 6.25 5.625m10-5c1.25-0.41562 1.8748 3.1e-4 1.875 1.25-1.6e-4 1.25 1.25 3.3338 3.75 6.25 2.9166 2.917 4.1666 4.3753 3.75 4.375-2.0834 3.1e-4 -6.4584-2.708-13.125-8.125-0.41719-0.41562-0.625-1.0406-0.625-1.875-1.6e-4 -1.25 1.4578-1.8747 4.375-1.875m143.12 18.125c-0.41719 0.41719-1.0422 0.625-1.875 0.625-1.25 3.1e-4 -1.8753-0.625-1.875-1.875l1.875-5 1.875 6.25m-148.12 11.875 1.875-5h0.625c1.6666 3.1e-4 2.4998 0.83438 2.5 2.5-1.6e-4 4.167-1.6667 6.2503-5 6.25-1.6e-4 3.1e-4 -0.20781-0.20781-0.625-0.625-1.6e-4 -0.41562-0.20781-1.0406-0.625-1.875l1.25-1.25m9.375 0h2.5c-0.41719 0.41719-0.625 0.83438-0.625 1.25-1.6e-4 0.41719-0.20781 0.83438-0.625 1.25h-1.25c-1.25 3.1e-4 -1.8752-0.625-1.875-1.875v-1.25c0.83281 3.1e-4 1.4578 0.20938 1.875 0.625m246.25 4.375 4.375-0.625 0.625-2.5c-3.1e-4 3.1e-4 0.41563-0.41562 1.25-1.25 1.25-0.83281 1.8747-1.0406 1.875-0.625 0.83281 3.1e-4 0.83281 0.41719 0 1.25-3.1e-4 0.83438-0.20937 1.4594-0.625 1.875-3.1e-4 2.917-1.4594 4.3753-4.375 4.375l-1.875-0.625-1.25-1.875m-265.62 0.625 0.625 2.5c-1.6e-4 0.83438-0.83281 1.25-2.5 1.25-2.0834 3.1e-4 -3.1252-0.83281-3.125-2.5-1.6e-4 -1.25 0.625-1.8747 1.875-1.875h0.625l2.5 0.625m5 1.25c1.25 3.1e-4 1.8748 0.41719 1.875 1.25-1.6e-4 1.25-0.83281 2.0836-2.5 2.5l-2.5-2.5c0.83281-0.83281 1.8748-1.25 3.125-1.25m6.25 5v-4.375 0.625c-1.6e-4 0.83438-0.20781 1.4578-0.625 1.875 0.41719 0.41719 0.625 1.0422 0.625 1.875 0.83281-1.25 0.83281-2.2914 0-3.125v3.125m8.75-2.5c-0.41719 3.1e-4 -1.6e-4 1.0422 1.25 3.125 1.25 2.0836 1.8748 2.917 1.875 2.5l-8.125-6.875c0.41719-0.41562 1.0422-0.625 1.875-0.625l3.125 1.875m138.12 31.25 6.875 1.25h5c2.4997-0.83281 3.9581 3.1e-4 4.375 2.5-3.1e-4 0.41719-1.8753 0.625-5.625 0.625-6.6669 3.1e-4 -10.209-1.4578-10.625-4.375m33.75-3.125 3.125 3.75 1.875 7.5-2.5 1.25-2.5-12.5m-9.375 21.875h-3.125c-1.6669 1.667-5.2086 3.3336-10.625 5l-1.25-1.25c-3.1e-4 -1.6664 0.625-2.4997 1.875-2.5l8.75-3.125 4.375 1.875m-188.12 9.375 9.375 1.25-3.75 1.25h-6.875l-2.5 0.625c-0.41719-0.41562-0.83281-0.625-1.25-0.625l-0.625-0.625 5.625-1.875m346.25 52.5-1.25 1.875c-2.0838-1.25-3.9588-2.4998-5.625-3.75-1.667-1.25-3.3338-2.4998-5-3.75-4.7e-4 -1.25 0.83281-1.8748 2.5-1.875 1.6662 1.6e-4 4.7912 2.5002 9.375 7.5m-180-6.25h1.25c7.4997-0.41562 11.25 0.41719 11.25 2.5-0.83281 1.6e-4 -1.8753 0.625-3.125 1.875-2.5003-1.25-4.5836-1.6664-6.25-1.25l-5.625-0.625-0.625-2.5h3.125m6.25 15 2.5 3.125c1.6664 1.6e-4 2.4997 0.83438 2.5 2.5-3.1e-4 2.0836-1.0422 3.1252-3.125 3.125l-1.25-1.25-1.25-4.375-3.125-0.625 1.25-2.5h2.5m5 8.125h0.625c1.25 1.6e-4 1.8747 0.41719 1.875 1.25v2.5c-2.5003 1.6e-4 -3.7503-0.625-3.75-1.875-3.1e-4 -0.41719 0.41563-1.0406 1.25-1.875m115 1.875 1.25 2.5c-1.25 1.25-2.292 1.8752-3.125 1.875 0.83281-1.6664 1.25-2.7081 1.25-3.125 0.41563-0.83281 0.625-1.25 0.625-1.25m3.125 4.375c1.25 1.6e-4 1.8745 0.625 1.875 1.875-4.7e-4 1.25-0.625 1.8752-1.875 1.875-1.25 1.6e-4 -1.8755-0.41562-1.875-1.25-4.7e-4 -1.6664 0.625-2.4998 1.875-2.5m-58.75 0h1.875c0.83281 0.83281 1.25 1.4578 1.25 1.875 0.41563 0.41719 0.83281 0.83438 1.25 1.25-3.1e-4 0.83281-1.4594 1.25-4.375 1.25v-4.375m65 4.375-1.25 1.25v0.625c-4.7e-4 1.25-0.41719 1.8752-1.25 1.875-1.25 1.6e-4 -1.8755-0.20781-1.875-0.625-4.7e-4 -2.0831 0.20781-3.1248 0.625-3.125h3.75m13.125 3.125c-4.7e-4 0.83438 0.41563 1.25 1.25 1.25h-5.625c-4.7e-4 -1.6664 0.625-2.4998 1.875-2.5h0.625l0.625 0.625 1.25 0.625m0 26.875 0.625 5.625-1.875 0.625-0.625-3.125-1.875-0.625c-0.41719-9.1666-2.5005-16.25-6.25-21.25 0.83281 1.25 1.4578 2.2919 1.875 3.125 0.41563 0.41719 0.625 0.625 0.625 0.625-0.83437-0.83281-1.8755-1.6664-3.125-2.5-0.83437-1.25-1.667-2.7081-2.5-4.375-4.7e-4 0.41719 0.20781 0.20938 0.625-0.625 0.41563-1.25 0.625-1.8748 0.625-1.875 1.25 1.6e-4 2.9162 1.6669 5 5l5 11.875 1.875 7.5m-76.25 4.375-6.25-8.125c-3.1e-4 -1.25 0.41719-1.8748 1.25-1.875h1.25l3.125 3.125c0.83281 2.0834 2.083 4.5834 3.75 7.5 2.083 2.5002 4.1662 5.8334 6.25 10 1.6662 1.6669 2.4997 2.9169 2.5 3.75v0.625c-3.1e-4 1.6e-4 -3.1e-4 0.625 0 1.875 0.41719 1.25 1.0422 2.9169 1.875 5 0.41563 4.1669 0.41563 6.2502 0 6.25l-2.5-8.125-1.875-5-9.375-15m-88.125-4.375-1.875 1.875c-0.83438 1.6e-4 -1.4594 0.20781-1.875 0.625-0.83281 1.6e-4 -1.25-0.41719-1.25-1.25-3.1e-4 -0.83281 1.0422-1.8748 3.125-3.125l4.375-3.125h0.625c1.25 1.6e-4 1.8747 0.625 1.875 1.875l-0.625 0.625-4.375 2.5m88.75 16.875-1.25-1.25-3.75-5.625-4.375-5.625c-0.41719-0.41719-0.625-0.83281-0.625-1.25-3.1e-4 -1.25 0.625-1.8748 1.875-1.875 1.6664 1.6e-4 3.7497 2.5002 6.25 7.5-3.1e-4 1.6669 0.625 4.3752 1.875 8.125m-33.125-6.875 2.5 5c-3.1e-4 -1.25-0.20937-1.6666-0.625-1.25-2.5003 1.6e-4 -3.9586-0.625-4.375-1.875l-1.875-5.625c-3.1e-4 -0.83281 0.41719-1.25 1.25-1.25 0.83281 1.6e-4 1.4578 0.20781 1.875 0.625l1.25 4.375m11.25 6.875v0.625c-0.83281 1.6e-4 -2.0836-1.8748-3.75-5.625-0.83281-1.25-2.0836-2.4998-3.75-3.75-1.667-1.25-2.5003-2.0831-2.5-2.5-3.1e-4 -0.83281 0.20781-1.25 0.625-1.25 1.25 1.6e-4 3.1247 2.2919 5.625 6.875 0.41563 2.0834 1.6664 3.9584 3.75 5.625m-58.125-2.5c-0.83281-2.4998-1.25-1.0422-1.25 4.375-3.1e-4 1.25-0.41719 1.8752-1.25 1.875-1.6669 1.6e-4 -2.5003-0.83281-2.5-2.5l0.625-0.625c-3.1e-4 -0.41719 0.20781-0.83281 0.625-1.25l3.75-1.875m-6.875 5c1.6664 1.6e-4 2.4997 0.83281 2.5 2.5-3.1e-4 1.6669-1.0422 2.5002-3.125 2.5-1.25 1.6e-4 -1.8753-0.625-1.875-1.875-3.1e-4 -1.6666 0.83281-2.7081 2.5-3.125m-4.375 5h0.625c0.83281 1.6e-4 1.25 0.41719 1.25 1.25-3.1e-4 1.6669-0.41719 2.5002-1.25 2.5-1.25 1.6e-4 -1.8753-0.41719-1.875-1.25-3.1e-4 -0.83281 0.41562-1.6666 1.25-2.5m142.5 1.25c2.083 2.0834 3.1245 3.5419 3.125 4.375-4.7e-4 3.7502-0.83437 6.4584-2.5 8.125h-3.75l3.125-12.5m89.375 17.5c-0.41719 2.0834-0.625 4.1667-0.625 6.25 0.41563 1.6667 0.83281 3.1252 1.25 4.375 0.41563 0.83281 1.0406 1.8752 1.875 3.125 0.83281 1.25 1.25 2.0834 1.25 2.5-4.7e-4 1.6e-4 -0.41719 0.41719-1.25 1.25-0.41719 0.41719-1.4594 1.0422-3.125 1.875l-1.875-6.875v-4.375l1.25-8.125h1.25m-104.38 15.625 3.125 3.75v1.875c-3.1e-4 0.83281-0.41719 1.25-1.25 1.25-2.0838 1.6e-4 -3.3338-0.625-3.75-1.875v-5h1.875m82.5 38.75-3.125 13.125c-4.7e-4 1.25-0.41719 1.875-1.25 1.875-1.25 0-1.8755-1.0422-1.875-3.125h-0.625c2.9162-6.6666 4.1662-10.833 3.75-12.5l2.5-5.625v-5c1.25 1.6e-4 1.8745 1.4578 1.875 4.375-4.7e-4 0.41719-0.20937 1.25-0.625 2.5-4.7e-4 0.83281-0.20937 2.2917-0.625 4.375m3.125-1.25 1.875-8.125c0.83281 1.6e-4 1.25 1.0422 1.25 3.125l-0.625 8.125c-0.41719 2.0834-0.83437 3.75-1.25 5-4.7e-4 0.83281-4.7e-4 1.0422 0 0.625-0.83437 5-2.0838 7.5-3.75 7.5-0.83437 0-1.25-1.0422-1.25-3.125 1.25-4.1666 1.8745-6.6666 1.875-7.5 0.41563-2.9166 1.0406-4.7916 1.875-5.625m16.875 1.25c-1.6672 1.6667-3.3338 2.7084-5 3.125-4.1672 0-6.2505-0.625-6.25-1.875 0.41563-1.25 0.83281-1.875 1.25-1.875h0.625l9.375 0.625m-11.25 5.625 1.875 0.625c4.5828 0.83281 6.8745 0.83281 6.875 0-0.83437 0.41719-1.6672 0.83281-2.5 1.25-0.83437 0.41719-1.6672 0.83281-2.5 1.25-1.25 0-2.0838-0.20781-2.5-0.625-4.7e-4 0-0.20937 0.20781-0.625 0.625-4.7e-4 0-0.41719 0.20781-1.25 0.625v-1.875l0.625-1.875m0.625 5.625v3.125c-1.25 0-1.8755-0.41719-1.875-1.25-4.7e-4 -0.41719 0.41563-1.0422 1.25-1.875h0.625m-400.62 1.25 1.25 6.25v4.375c-0.83281 0.83281-1.4578 1.25-1.875 1.25-1.6667 0-2.5-1.0422-2.5-3.125v-8.125l1.875-1.25 1.25 0.625m21.875 28.125 2.5-0.625c1.6666 0 2.4998 1.0422 2.5 3.125-1.6e-4 2.9167-1.4578 4.375-4.375 4.375-0.83281 0-1.4578-0.625-1.875-1.875l2.5-1.875-1.25-3.125m8.125 0.625c1.6666 0 2.4998 1.0422 2.5 3.125-1.6e-4 3.3333-0.83281 5-2.5 5-1.6667 0-2.5002-0.83281-2.5-2.5l0.625-3.125c0.41719-0.41719 0.625-0.83281 0.625-1.25l1.25-1.25m6.25 2.5c1.25 0 1.8748 1.0422 1.875 3.125-1.6e-4 2.0833-0.83281 3.125-2.5 3.125-0.83281 0-1.25-0.41719-1.25-1.25v-0.625c0.83281-2.5 1.4578-3.9583 1.875-4.375"
         fill="#8f0005"
         id="path15" />
    </g>
  </g>
</svg>
