<?xml version="1.0" encoding="UTF-8" standalone="no"?>
<svg
   xmlns:dc="http://purl.org/dc/elements/1.1/"
   xmlns:cc="http://creativecommons.org/ns#"
   xmlns:rdf="http://www.w3.org/1999/02/22-rdf-syntax-ns#"
   xmlns:svg="http://www.w3.org/2000/svg"
   xmlns="http://www.w3.org/2000/svg"
   xmlns:sodipodi="http://sodipodi.sourceforge.net/DTD/sodipodi-0.dtd"
   xmlns:inkscape="http://www.inkscape.org/namespaces/inkscape"
   version="1.1"
   viewBox="0 0 500 500"
   id="svg19"
   sodipodi:docname="william-morris-letter-j.svg"
   inkscape:version="1.0.2 (1.0.2+r75+1)">
  <metadata
     id="metadata23">
    <rdf:RDF>
      <cc:Work
         rdf:about="">
        <dc:format>image/svg+xml</dc:format>
        <dc:type
           rdf:resource="http://purl.org/dc/dcmitype/StillImage" />
      </cc:Work>
    </rdf:RDF>
  </metadata>
  <sodipodi:namedview
     pagecolor="#ffffff"
     bordercolor="#666666"
     borderopacity="1"
     objecttolerance="10"
     gridtolerance="10"
     guidetolerance="10"
     inkscape:pageopacity="0"
     inkscape:pageshadow="2"
     inkscape:window-width="1920"
     inkscape:window-height="1016"
     id="namedview21"
     showgrid="false"
     inkscape:zoom="1.686"
     inkscape:cx="255.33808"
     inkscape:cy="250"
     inkscape:window-x="0"
     inkscape:window-y="27"
     inkscape:window-maximized="1"
     inkscape:current-layer="svg19" />
  <defs
     id="defs7">
    <linearGradient
       id="linearGradient847"
       x1="500"
       x2="0"
       y1="500"
       y2="-4.2633e-14"
       gradientTransform="translate(149.38,38.745)"
       gradientUnits="userSpaceOnUse">
      <stop
         stop-color="#ff6700"
         offset="0"
         id="stop2" />
      <stop
         stop-color="#ffd700"
         offset="1"
         id="stop4" />
    </linearGradient>
  </defs>
  <path
     d="m324.62 48.23s-33.762 3.3558-39.844 4.4043c-6.0813 1.0485-83.04-2.3059-84.928-2.5156l-10.275-1.2598 8.5977 24.326 28.52 1.4668 13.211 4.1953 6.9199 44.455 1.0488 77.799-1.2578 163.98-5.2441 32.084 8.3887 19.084 9.2266 3.5644 9.4375 9.8555 3.5644 1.2578 12.582-19.082 6.7109-20.34 5.8711-14.68 1.4668-33.342-2.5156-227.11 7.5488-27.68 17.406-16.357s7.1287-19.291 7.7578-20.34-4.1934-3.7754-4.1934-3.7754zm-94.188 350.64-1.7793 19.869-25.506 19.869-16.902-5.041-39.74-24.613-8.0059-8.6016c-3.5587-0.29656-13.346 9.7871-13.346 9.7871l16.904 42.705 17.199 25.207 43.891 1.1855s49.822-27.283 49.822-28.766-5.6348-17.201-5.6348-17.201l-5.3379-8.5996z"
     fill="#f4eee6"
     id="path11" />
  <g
     id="g17">
    <g
       transform="translate(-146.86,-119.79)"
       id="g15">
      <path
         d="m146.86 619.79v-500h500v500h-500m7.5-7.5h485v-485h-485v485m7.5-7.5v-469.38h469.38v469.38h-469.38m443.75-464.38 6.25 2.5c1.25 2.5005 1.8745 4.3755 1.875 5.625-4.7e-4 3.3338-2.9172 6.2505-8.75 8.75l-8.75 0.625-23.75-6.875c-5.8338-1.25-13.125-1.8745-21.875-1.875-15 4.7e-4 -27.709 3.3338-38.125 10-7.917 5.0005-11.875 7.9172-11.875 8.75-4.7e-4 1.25 0.20781 1.8755 0.625 1.875l18.125-5.625 12.5-0.625 21.25-0.625c8.7495 4.7e-4 16.458 4.5838 23.125 13.75 2.9161 2.917 4.3745 7.0838 4.375 12.5-4.7e-4 5.8338-3.1255 10-9.375 12.5-6.2505-0.41563-8.9588-3.7495-8.125-10v-5.625c-3.7505 4.5838-5.6255 7.917-5.625 10-4.7e-4 3.3338 0.20781 5.6255 0.625 6.875 4.5828 7.0838 9.5828 10.625 15 10.625 6.6661 4.7e-4 10.833-2.083 12.5-6.25l3.75-6.875 6.25 3.125c1.25 4.7e-4 1.8745-2.708 1.875-8.125-4.7e-4 -16.25-8.1255-27.291-24.375-33.125 0.83281-2.0828 1.8745-3.1245 3.125-3.125l13.125 3.75 13.125 6.25c2.4995 1.25 5.2078 1.8755 8.125 1.875h1.875c5.8328-0.41563 9.3745-1.25 10.625-2.5-4.7e-4 -0.83281-1.8755-2.9162-5.625-6.25 3.7495-3.7495 6.0411-7.9162 6.875-12.5-0.83438-6.2495-3.3339-9.9995-7.5-11.25l-5-1.25h-1.25l-0.625 0.625-4.375 2.5m-101.25 3.75c1.6662 1.6672 2.4995 3.5422 2.5 5.625v1.875c-2.917 2.9172-5.0005 6.2505-6.25 10 1.6662-1.25 4.1662-3.1245 7.5-5.625 3.7495-2.9162 5.6245-5.6245 5.625-8.125-4.7e-4 -5.8328-2.917-8.7495-8.75-8.75-4.167 4.7e-4 -6.2505 1.4594-6.25 4.375 0.41562 0.41719 1.0406 0.625 1.875 0.625h3.75m-145.62 20.625c-8.7503-0.41563-13.125-3.5412-13.125-9.375-3.1e-4 -7.0828 3.7497-10.625 11.25-10.625 4.5831 4.7e-4 8.5414 1.6672 11.875 5l9.375 10.625c2.9164 3.7505 6.2497 5.6255 10 5.625 3.7497 4.7e-4 8.7497-1.8745 15-5.625 0.41719-1.6662 0.625-3.5412 0.625-5.625 0.41562-2.0828 1.0406-4.1662 1.875-6.25 0.83281-0.83281 2.2914-1.25 4.375-1.25-3.1e-4 4.7e-4 5.208 2.2922 15.625 6.875-1.25-6.6662-3.1253-9.9995-5.625-10l-14.375-1.875c-2.5003-0.41563-4.3753 0.83437-5.625 3.75l-3.125 10.625c-0.83438 1.25-2.917 1.8755-6.25 1.875-1.667 4.7e-4 -4.167-0.41563-7.5-1.25l-3.125-2.5-8.125-10-3.125-1.25-8.125-3.125-1.25-0.625c-13.334 4.7e-4 -20 5.2088-20 15.625-3.1e-4 9.1672 3.7497 13.75 11.25 13.75 2.4997 4.7e-4 5.2081-1.4578 8.125-4.375m-186.25-21.25c-2.5002 1.25-3.7502 3.5422-3.75 6.875-1.6e-4 1.25 0.41719 3.1255 1.25 5.625 1.25 2.5005 2.4998 5.0005 3.75 7.5 1.6666 2.0838 3.3333 3.9588 5 5.625 1.6666 1.6672 3.1248 2.5005 4.375 2.5 0.41719-0.41563 0.625-0.83281 0.625-1.25-1.6e-4 -0.83281-1.4578-2.7078-4.375-5.625-2.9167-2.9162-4.3752-6.6662-4.375-11.25-1.6e-4 -0.41563 0.41719-1.6662 1.25-3.75 0.83281-2.4995 1.25-4.1662 1.25-5-1.6e-4 -1.25-1.0422-1.8745-3.125-1.875l-1.875 0.625m93.75 10.625-2.5 7.5-1.25 8.125-1.25 0.625 1.25-0.625c-8.3334-4.1662-11.875-6.2495-10.625-6.25-0.41719 0.41719-0.83281 0.83437-1.25 1.25-0.41719 4.7e-4 -0.83281 0.20937-1.25 0.625l-1.875 3.125c-1.6669 2.9172-2.5002 5.4172-2.5 7.5l0.625 4.375 0.625 8.125 2.5 5 0.625 0.625 5.625 6.875c2.4998 1.667 4.9998 3.3338 7.5 5 2.9164 1.667 4.3748 3.3338 4.375 5-1.6e-4 -0.41563-0.41719 1.0422-1.25 4.375l-6.875-0.625-2.5-2.5-1.25-1.875-3.75-2.5-9.375-17.5-4.375-3.75-3.75-3.75c-3.3334-0.83281-5.0002-1.25-5-1.25-1.25 4.7e-4 -1.8752 0.625-1.875 1.875v8.75c-0.83281 0.83437-1.8752 1.25-3.125 1.25-1.25 4.7e-4 -2.7084-1.4578-4.375-4.375-1.6669-2.9162-3.1252-4.583-4.375-5-4.5834-2.9162-9.5834-4.7912-15-5.625 0.41719 2.0838 0.625 4.167 0.625 6.25 0.41719 1.667 0.625 2.917 0.625 3.75-1.6e-4 2.917-0.83281 5.8338-2.5 8.75v1.875c-0.41719 1.25-0.625 3.9588-0.625 8.125-1.6e-4 2.917 0.20781 5.0005 0.625 6.25l0.625 1.875 1.25 3.125 0.625 0.625v1.875l-2.5 2.5c-3.3334-2.4995-6.2502-3.7495-8.75-3.75h-1.875v5.625c-0.41719 6.667 3.3333 11.875 11.25 15.625h2.5c-3.3334-1.25-5.6252-2.9162-6.875-5l0.625-1.25 5 1.25c1.6666 2.5003 4.3748 3.7503 8.125 3.75l2.5 2.5c-1.25 0.83437-1.8752 1.667-1.875 2.5-1.6e-4 1.25 1.0422 1.8753 3.125 1.875l16.25-0.625c3.7498 3.1e-4 5.6248 1.0422 5.625 3.125-1.6e-4 2.917-2.0834 4.3753-6.25 4.375-2.9169 3.1e-4 -8.9584-1.0406-18.125-3.125l-1.25-0.625c-8.3334-2.4997-13.542-3.7497-15.625-3.75-11.667 3.1e-4 -19.792 6.042-24.375 18.125 4.1666 1.667 7.2916 2.917 9.375 3.75 2.0833 0.41719 3.1248 0.625 3.125 0.625-0.41719 0.41719-0.625 0.83437-0.625 1.25-1.6e-4 0.83437-0.20781 1.4594-0.625 1.875-6.6667 4.167-10 10.209-10 18.125-1.6e-4 1.25 0.20781 2.0836 0.625 2.5l3.125 5 1.25 3.75 5 2.5 5.625 2.5 1.25 0.625h0.625c5.8333 3.1e-4 9.5833-1.4578 11.25-4.375l3.125-5-8.75-0.625-5-2.5c-2.5002-4.1664-3.7502-7.4997-3.75-10-1.6e-4 -5.4164 4.1666-10.416 12.5-15 4.9998-2.083 8.3333-3.1247 10-3.125h3.125l6.25 2.5 7.5 0.625v-2.5h8.75c2.0831 3.1e-4 6.0416-0.625 11.875-1.875l-0.625 3.125c14.583-3.7497 26.458-11.458 35.625-23.125 9.5831-11.666 14.375-24.791 14.375-39.375-1.6e-4 -4.9995-0.83438-9.1662-2.5-12.5l-11.875-22.5c-0.83438-3.3328-1.25-5.2078-1.25-5.625-1.6e-4 -7.0828 3.3331-10.625 10-10.625 2.4998 4.7e-4 5.2081 1.4594 8.125 4.375l1.25 2.5 0.625 6.875c4.1664-1.6662 6.2498-4.1662 6.25-7.5-1.6e-4 -11.666-6.2502-17.5-18.75-17.5-6.2502 4.7e-4 -12.709 3.7505-19.375 11.25m177.5 5v0.625c-3.1e-4 1.6672 0.625 2.7088 1.875 3.125 3.333 3.3338 6.6662 5.0005 10 5 0.83281 4.7e-4 1.4578-0.20781 1.875-0.625l3.75-2.5c2.083-1.25 3.1247-2.0828 3.125-2.5l1.875-7.5c0.41562-1.6662 2.2912-2.4995 5.625-2.5h4.375c2.9162 4.1672 4.3745 7.9172 4.375 11.25-4.7e-4 2.9172-0.625 6.0422-1.875 9.375-0.83438 2.917-1.4594 5.0005-1.875 6.25l-3.125 4.375-5 10.625-3.125 5.625c-3.3338 6.2505-5.2088 9.792-5.625 10.625l-1.25 6.25-3.125 11.25c-0.41719 2.0838-0.83438 4.792-1.25 8.125-3.1e-4 2.917-3.1e-4 6.042 0 9.375v7.5c-3.1e-4 2.917 0.20781 5.0003 0.625 6.25l2.5 14.375 1.875 6.25 5.625 13.75 3.125 5c2.4995 4.5836 6.8745 10.834 13.125 18.75l0.625-5.625-11.875-18.75c-2.0838-4.9997-3.1253-10.208-3.125-15.625-3.1e-4 -10.416 3.7495-19.375 11.25-26.875l1.25 2.5 0.625-0.625-6.875 8.125-3.125 15v6.25c-4.7e-4 4.167 0.83281 6.2503 2.5 6.25l3.125-3.125c-0.41719 1.25-0.625 3.542-0.625 6.875-4.7e-4 3.3336 1.25 6.4586 3.75 9.375l2.5 4.375 2.5 0.625-1.875-6.875c-0.41719-0.83281-0.625-2.708-0.625-5.625v-1.875l2.5-5.625 1.25-3.75 13.125-13.75 2.5-4.375-5-0.625 3.75-5 4.375-5.625c4.9995-5.4162 7.4995-13.125 7.5-23.125-4.7e-4 -5.833-0.625-8.7495-1.875-8.75-0.83438 4.7e-4 -2.917 1.667-6.25 5-4.5838 0.83437-9.3755 2.0838-14.375 3.75-0.83438 2.0838-1.4594 3.3338-1.875 3.75h-1.25c-0.83438 3.1e-4 -1.25-0.41563-1.25-1.25-4.7e-4 -0.83281 0.20781-1.4578 0.625-1.875-4.7e-4 0.41719-0.41719-1.0406-1.25-4.375l-0.625-5-0.625 1.25-5.625 4.375h-1.25c-5.417 4.167-8.1253 7.292-8.125 9.375l-1.25 13.75c-0.83438 2.0838-2.0838 3.1253-3.75 3.125-1.667 3.1e-4 -2.5003-1.25-2.5-3.75-3.1e-4 -6.6662 0.83281-10.833 2.5-12.5l10-13.125 5.625-13.125c7.4995-17.5 19.791-26.25 36.875-26.25 6.2495 4.7e-4 12.083 2.0838 17.5 6.25 2.9162 4.167 4.3745 7.292 4.375 9.375-4.7e-4 5.8338-3.1255 8.7505-9.375 8.75-2.0838 4.7e-4 -3.5422-0.41563-4.375-1.25l-9.375-8.125c-2.5005-2.4995-6.2505-3.7495-11.25-3.75-7.5005 4.7e-4 -11.25 3.542-11.25 10.625-4.7e-4 3.7505 2.9162 6.667 8.75 8.75-1.25-2.9162-1.8755-5.208-1.875-6.875-4.7e-4 -4.1662 2.708-6.2495 8.125-6.25 2.9162 4.7e-4 5.208 0.83437 6.875 2.5l4.375 5.625c1.6662 2.5005 4.7912 3.7505 9.375 3.75 4.9995 4.7e-4 9.3745-1.8745 13.125-5.625 4.1662-3.7495 6.2495-8.1245 6.25-13.125-4.7e-4 -4.9995-3.7505-9.7912-11.25-14.375l-0.625-1.25 3.125-1.875 3.75-1.875c1.6662-0.41563 2.4995-1.25 2.5-2.5-4.7e-4 -0.41563-0.83438-1.0406-2.5-1.875-1.6672-0.83281-3.5422-1.4578-5.625-1.875-2.0838-0.41563-4.1672-0.83281-6.25-1.25-2.0838-0.41563-3.7505-0.625-5-0.625-10.417 4.7e-4 -22.292 5.4172-35.625 16.25-2.0838 1.25-3.542 1.8755-4.375 1.875h-1.25v-1.875l10.625-11.875c1.6662-1.6662 2.4995-4.3745 2.5-8.125-4.7e-4 -2.4995-1.667-6.0412-5-10.625l-2.5 1.25h1.875-1.875c-4.5838-7.0828-9.5838-10.625-15-10.625-5.0003 4.7e-4 -8.7503 1.4594-11.25 4.375l-0.625 1.25-0.625 8.75c-0.83438 3.7505-3.3338 5.6255-7.5 5.625-2.5003 4.7e-4 -5.8338-1.4578-10-4.375m-10-15.625c-1.25 0.41719-2.292 1.4594-3.125 3.125l-0.625 1.875c-3.1e-4 4.1672 2.2912 6.2505 6.875 6.25 2.083 4.7e-4 3.1247-1.25 3.125-3.75-3.1e-4 -4.9995-2.0838-7.4995-6.25-7.5m-238.12 28.125-1.25-6.25-1.875-6.25v-1.875c-1.6e-4 -3.3328 1.8748-4.9995 5.625-5 1.25 4.7e-4 3.3333 0.83437 6.25 2.5-1.6e-4 -6.6662-2.5002-9.9995-7.5-10-7.5002 4.7e-4 -11.25 3.9588-11.25 11.875-1.6e-4 7.0838 3.3333 12.084 10 15m253.12-25c-1.667 4.7e-4 -2.917 1.0422-3.75 3.125l-0.625 1.25c-3.1e-4 3.3338 1.6662 5.0005 5 5 2.4997 4.7e-4 3.7497-1.4578 3.75-4.375-3.1e-4 -3.3328-1.4594-4.9995-4.375-5m-197.5 9.375c1.25 2.9172 2.9166 4.3755 5 4.375 2.9166 4.7e-4 4.3748-1.4578 4.375-4.375-1.6e-4 -4.1662-2.0834-6.2495-6.25-6.25-2.5002 4.7e-4 -3.7502 1.25-3.75 3.75l0.625 2.5m-11.875-6.25c-1.25 0.41719-2.0834 1.25-2.5 2.5l-0.625 1.25v0.625c-1.6e-4 5.0005 2.7081 7.5005 8.125 7.5 1.6666 4.7e-4 2.4998-1.0406 2.5-3.125-1.6e-4 -5.8328-2.5002-8.7495-7.5-8.75m86.875 0.625c-2.9169 1.6672-5.6253 3.5422-8.125 5.625-2.5003 2.0838-5.2086 4.5838-8.125 7.5-2.0836 2.5005-4.5836 7.5005-7.5 15l-2.5 15 2.5 0.625c-1.6669 4.167-2.9169 8.3338-3.75 12.5h1.25c0.83281-1.6662 1.6664-3.1245 2.5-4.375 1.25-1.6662 2.4998-3.333 3.75-5 0.41562-0.41563 1.6664-1.0406 3.75-1.875v3.125l-3.125 4.375-1.25 1.875-4.375 9.375 1.25 1.875c-1.6669 2.5005-2.9169 5.417-3.75 8.75l1.875-0.625c0.83281-1.6662 2.0831-2.708 3.75-3.125v1.875c-1.6e-4 1.25 1.0406 1.8755 3.125 1.875 4.5831 4.7e-4 9.7914-1.6662 15.625-5 5.8331-3.7495 9.3747-7.9162 10.625-12.5 1.25-4.583 2.0831-7.083 2.5-7.5v-0.625c-3.1e-4 -4.583-0.20938-7.083-0.625-7.5-1.25 4.7e-4 -2.0836 0.20937-2.5 0.625l-8.125 5 1.25-4.375 3.125-8.75v-3.125c-3.1e-4 -0.83281-0.20781-1.6662-0.625-2.5-3.1e-4 -1.25-0.20781-2.9162-0.625-5l-2.5-9.375 0.625-6.875v-6.875m-101.25 0.625-1.875 1.25-1.25 1.25c-1.6e-4 2.9172 1.6666 4.3755 5 4.375 2.0831 4.7e-4 3.1248-0.83281 3.125-2.5-1.6e-4 -2.9162-1.4578-4.3745-4.375-4.375h-0.625m-13.125 5.625c-1.6669 4.7e-4 -2.5002 1.25-2.5 3.75-1.6e-4 4.1672 2.2916 6.2505 6.875 6.25 1.6666 4.7e-4 2.4998-1.0406 2.5-3.125-1.6e-4 -4.5828-2.2919-6.8745-6.875-6.875m220 1.875c-2.5003 4.7e-4 -3.7503 1.25-3.75 3.75-3.1e-4 3.7505 2.083 5.6255 6.25 5.625 2.4997 4.7e-4 3.7497-1.4578 3.75-4.375-3.1e-4 -3.3328-2.0838-4.9995-6.25-5m-199.38 5c-2.0834 0.83437-3.1252 2.5005-3.125 5-1.6e-4 5.0005 2.4998 7.5005 7.5 7.5 1.6666 4.7e-4 2.4998-1.25 2.5-3.75-1.6e-4 -5.8328-2.0834-8.7495-6.25-8.75h-0.625m-28.125 3.75c-1.25 4.7e-4 -1.8752 0.625-1.875 1.875-1.6e-4 2.5005 1.4578 3.9588 4.375 4.375l2.5 0.625c0.83281 4.7e-4 1.25-0.41563 1.25-1.25-1.6e-4 -3.7495-2.0834-5.6245-6.25-5.625m-26.875 13.75c-0.83281-8.7495-3.7502-13.125-8.75-13.125-0.83281 0.41719-1.6667 0.83437-2.5 1.25-0.41719 4.7e-4 -0.625 4.7e-4 -0.625 0l-1.25 4.375 6.25-0.625c1.6666 4.7e-4 3.9583 2.7088 6.875 8.125m416.25-11.875 1.25 4.375 1.25 3.125c1.6661 5.0005 4.1661 9.167 7.5 12.5l1.25 1.875 1.25 3.125 0.625 1.875 0.625 1.25 3.125 7.5c0.41562-2.083 0.625-3.958 0.625-5.625 0.41562-2.083 0.625-3.958 0.625-5.625-4.7e-4 -9.1662-3.9589-16.25-11.875-21.25l-3.125-1.875-3.125-1.25m-374.38 0.625c-0.83281 0.83437-1.25 2.5005-1.25 5-1.6e-4 2.917 1.4578 4.3755 4.375 4.375 2.4998 4.7e-4 3.7498-1.25 3.75-3.75-1.6e-4 -3.7495-2.2919-5.6245-6.875-5.625m163.75 21.25 1.875 1.875 1.875 2.5 1.25 0.625 5.625 7.5c0.83281 2.917 1.4578 5.6255 1.875 8.125 0.83281 2.5005 1.0422 5.0005 0.625 7.5l-0.625 7.5v22.5c-0.41719 1.25-0.625 3.3338-0.625 6.25v28.125c-3.1e-4 2.0836 0.20781 3.7503 0.625 5v31.25l0.625 22.5-0.625 150.62-4.375 28.75c1.25 3.3334 3.1247 7.0834 5.625 11.25 1.25 0.83281 2.4997 1.6667 3.75 2.5 1.6664 0.41719 3.5414 1.0422 5.625 1.875l3.75 3.125 1.25 1.25 1.25 0.625c10.416-15.417 16.666-30.625 18.75-45.625l2.5-15v-68.75l-1.875-179.38c-0.83438-23.75 4.7912-39.375 16.875-46.875 10.416-6.6662 15.625-10.416 15.625-11.25-3.1e-4 -2.4995-1.667-3.7495-5-3.75-5.417 4.7e-4 -12.292 0.83437-20.625 2.5-1.25 0.41719-3.7503 0.625-7.5 0.625h-15c-12.084 4.7e-4 -23.125 4.7e-4 -33.125 0-9.5836-0.41563-18.125-0.83281-25.625-1.25l-3.75-0.625c-7.5003-0.41563-11.25 1.0422-11.25 4.375-3.1e-4 1.25 1.0406 2.292 3.125 3.125l25.625 5c0.83281 4.7e-4 4.7914 1.8755 11.875 5.625m82.5-13.125-5.625 4.375-7.5 3.75c-3.7503 2.0838-7.7088 6.2505-11.875 12.5-3.7503 5.8338-5.6253 10.834-5.625 15l1.25 265.62c-3.1e-4 7.5002-2.5003 19.583-7.5 36.25-2.917 8.7502-7.0838 17.083-12.5 25-1.25 2.0834-1.8753 3.75-1.875 5-3.1e-4 1.6667 0.41719 2.5 1.25 2.5h1.875c1.25 0 4.1662-4.375 8.75-13.125l3.125-5 8.75-25.625 3.125-19.375v-266.25c-3.1e-4 -14.166 7.2912-24.375 21.875-30.625 4.1662-1.6662 6.8745-5.208 8.125-10.625l-1.25-3.75-4.375-1.25v5.625m-273.75-1.25c-1.25 4.7e-4 -1.8752 1.4594-1.875 4.375-1.6e-4 2.5005 1.25 3.7505 3.75 3.75 2.0833 4.7e-4 3.1248-1.25 3.125-3.75-1.6e-4 -2.9162-1.6667-4.3745-5-4.375m-8.75 0.625c-0.83281 0.83437-1.25 1.667-1.25 2.5-1.6e-4 2.0838 1.0422 3.1255 3.125 3.125 1.25 4.7e-4 1.8748-0.625 1.875-1.875-1.6e-4 -2.4995-1.25-3.7495-3.75-3.75m160 5.625c3.7497 7.0838 16.875 10.834 39.375 11.25-2.5003-2.4995-4.5836-4.1662-6.25-5l-6.25-2.5-3.125-0.625-23.75-3.125m257.5 43.75-4.375 2.5c-3.3339 0.83437-5.0005 1.25-5 1.25-4.7e-4 3.1e-4 -2.9172-1.6662-8.75-5-2.0839 3.3338-3.1255 5.8338-3.125 7.5-4.7e-4 3.7503 0.20781 6.042 0.625 6.875 2.0828 3.7503 4.9995 6.667 8.75 8.75l-6.25 0.625-5-0.625c-0.83438 3.1e-4 -1.6672 0.20937-2.5 0.625-0.83438 3.1e-4 -2.0838 0.20937-3.75 0.625l-2.5 1.875-7.5 3.75-3.75 3.125-2.5 1.875-3.75 4.375-7.5 3.125-3.75 2.5h-10c-1.6672 0.41719-4.3755 3.1e-4 -8.125-1.25v6.25l1.25 1.875 1.875 5.625 3.75 5.625 1.875 3.125 5.625 5 5.625 3.75c-4.1672 4.167-6.2505 8.9586-6.25 14.375-4.7e-4 4.167 2.2912 7.917 6.875 11.25 4.5828-9.9997 11.666-15.625 21.25-16.875h5l7.5-1.875c4.9995-2.083 8.3328-3.7497 10-5 1.6661-1.25 4.3745-3.333 8.125-6.25l-0.625 1.25c-4.7e-4 3.3336 1.0406 5.8336 3.125 7.5 2.4995 1.667 4.5828 2.5003 6.25 2.5 1.6661 3.1e-4 2.7078-0.83281 3.125-2.5v-7.5l14.375-18.125c1.25-2.9162 3.1245-7.2912 5.625-13.125h-3.125l-3.125 6.25h-1.875l1.875-5 3.75-5c2.9161-5.4162 4.7911-10.416 5.625-15-6.2e-4 -1.6662-0.20937-2.9162-0.625-3.75l-4.375 10-3.75 1.875 3.125-8.75 1.875-5c2.4994-4.9997 3.7494-10.416 3.75-16.25-6.2e-4 -2.9162-0.83438-5.208-2.5-6.875l-0.625 9.375c-6.2e-4 3.3338-1.25 8.3338-3.75 15l-9.375 16.875-2.5 0.625-6.25 8.125-11.25 8.75 1.25-0.625-1.875 1.25-3.125-1.25 7.5-6.25 6.875-6.25c13.75-14.166 20.625-30.416 20.625-48.75-4.7e-4 -3.7495-0.625-8.1245-1.875-13.125l-2.5 11.25-0.625 1.875-1.875-0.625c0.83281-5.833 1.25-10.208 1.25-13.125 0.41563-2.9162 0.625-4.3745 0.625-4.375-4.7e-4 -4.1662-1.6672-7.4995-5-10l-2.5-1.875 1.875 11.25c0.41563 1.25 0.625 3.3338 0.625 6.25-4.7e-4 10.417-4.5839 18.334-13.75 23.75m-426.88-39.375c-0.83281 0.83437-1.4578 2.0838-1.875 3.75l-0.625 1.25c-1.6e-4 3.7505 2.0833 5.6255 6.25 5.625 1.6666 4.7e-4 2.4998-1.6662 2.5-5-1.6e-4 -3.7495-2.0834-5.6245-6.25-5.625m13.125 1.875c-2.0834-0.83281-3.1252 4.7e-4 -3.125 2.5-1.6e-4 4.167 2.2916 6.2505 6.875 6.25 1.6666 4.7e-4 2.4998-1.25 2.5-3.75-1.6e-4 -3.333-2.0834-4.9995-6.25-5m173.12 36.875c-2.0836 4.5838-5.0003 6.8753-8.75 6.875-4.1669 3.1e-4 -6.4586-0.625-6.875-1.875l-6.25-7.5-6.875-1.25 1.25 1.875 3.75 2.5 10.625 10.625c0.83281 0.83437 2.2914 1.25 4.375 1.25 8.7497 3.1e-4 13.125-4.9997 13.125-15-3.1e-4 -4.1662-1.0422-6.6662-3.125-7.5-2.0836-0.83281-5.6253-2.083-10.625-3.75-1.25-0.41563-1.8753-1.6662-1.875-3.75-3.1e-4 -5.833 4.7914-8.7495 14.375-8.75 12.916 4.7e-4 19.375 7.0838 19.375 21.25v1.25c-3.3336 12.5-10.625 18.75-21.875 18.75l-1.25 1.25c1.25 1.667 2.2914 2.5003 3.125 2.5 16.666 3.1e-4 25-8.333 25-25-3.1e-4 -16.666-8.542-25-25.625-25-8.7503 4.7e-4 -14.375 1.4594-16.875 4.375-1.25 1.25-1.8753 4.5838-1.875 10-3.1e-4 3.7505 1.0422 6.042 3.125 6.875l10.625 4.375 3.125 5.625m-173.12-25.625c-2.5002 1.25-3.7502 2.7088-3.75 4.375-1.6e-4 3.7505 1.6666 5.6255 5 5.625 2.4998 4.7e-4 3.7498-1.4578 3.75-4.375-1.6e-4 -1.6662-1.6667-3.5412-5-5.625m-13.75 1.875c-2.0834 4.7e-4 -3.1252 1.4594-3.125 4.375-1.6e-4 3.3338 2.2916 5.0005 6.875 5 1.6666 4.7e-4 2.4998-1.0406 2.5-3.125-1.6e-4 -4.1662-2.0834-6.2495-6.25-6.25m375.62 1.25-11.875 11.875c-0.83437 1.25-2.9172 2.917-6.25 5-2.9172 1.667-4.3755 2.7088-4.375 3.125-4.7e-4 1.25 0.41563 1.8755 1.25 1.875 0.83281-0.41563 1.6662-0.625 2.5-0.625 0.83281-0.41563 2.0828-1.0406 3.75-1.875l5.625-0.625-7.5 3.75v1.25c-4.1672 0.83437-7.0838 2.0838-8.75 3.75l-4.375 3.75c-3.3338 5.8338-5.0005 10-5 12.5-4.7e-4 2.917 0.20781 4.792 0.625 5.625l3.75 7.5 0.625-1.875h2.5l0.625 2.5c0.41563 4.167 2.9162 6.2503 7.5 6.25h1.25c-4.5838-7.083-6.8755-12.916-6.875-17.5-4.7e-4 -7.9162 3.1245-11.875 9.375-11.875 2.9162 3.1e-4 4.7912 0.20937 5.625 0.625l1.875 1.25c2.0828 2.0838 3.1245 4.3753 3.125 6.875l-0.625 3.75-1.875 3.75c5.4162-0.41563 9.1662-2.2912 11.25-5.625l3.75-6.875 9.375-4.375c3.7495-1.25 6.4578-5.833 8.125-13.75h-3.75c-2.9172 4.7e-4 -4.5838-0.20781-5-0.625-1.6672-0.83281-3.7505-1.8745-6.25-3.125-2.5005-1.6662-5.4172-3.333-8.75-5l-1.25-11.25m-375 17.5c-1.6e-4 4.5838 1.6666 6.8753 5 6.875 2.9166 3.1e-4 4.3748-1.25 4.375-3.75-1.6e-4 -1.25-0.41719-2.2912-1.25-3.125-1.25-2.9162-2.7084-4.3745-4.375-4.375-2.5002 4.7e-4 -3.7502 1.4594-3.75 4.375m126.88 8.75-2.5 1.875c1.6664 0.41719 2.4998 1.0422 2.5 1.875l-0.625 1.25h-3.75c0.41719 3.1e-4 -1.0422 0.41719-4.375 1.25v1.875l5 1.25-7.5 1.875 1.25 3.125 9.375 6.875-1.25 1.875 1.25 0.625c2.4998 2.5003 3.9581 4.792 4.375 6.875-2.0836-1.6662-4.3752-3.1247-6.875-4.375-2.0836-1.25-4.1669-2.708-6.25-4.375-0.83437-0.41563-2.0836-0.625-3.75-0.625-2.0836 3.1e-4 -5.0002 1.25-8.75 3.75l1.25 1.25-0.625 3.125-4.375-3.75c-0.83437 0.83437-1.25 1.4594-1.25 1.875-1.6e-4 0.83437 1.0406 2.292 3.125 4.375v1.875l-1.875 1.875-3.125-5-1.875 2.5 0.625 1.25 2.5 3.125 1.875 2.5-2.5 0.625-3.75-3.75c-1.25 3.1e-4 -1.8752 1.8753-1.875 5.625-1.6e-4 1.667 0.625 4.5838 1.875 8.75l1.875 3.75 1.875 1.875c2.4998 1.667 7.9164 3.542 16.25 5.625l0.625-10 1.875-0.625 4.375 1.875c1.6664 1.667 3.3331 2.5003 5 2.5l16.25-1.875 8.75 1.875c4.5831 3.1e-4 6.8747-4.7914 6.875-14.375-3.1e-4 -5.833-2.0836-12.708-6.25-20.625l3.75 0.625c1.25 3.1e-4 1.8747-1.25 1.875-3.75v-1.875c-2.9169-12.916-10.417-18.75-22.5-17.5h-0.625l-8.125 1.25m-124.38 4.375c-0.41719 0.41719-1.0422 0.83437-1.875 1.25l-1.875 1.875v1.25c-1.6e-4 4.167 2.0833 6.2503 6.25 6.25 2.0833 3.1e-4 3.1248-1.6662 3.125-5-1.6e-4 -3.7497-1.8752-5.6247-5.625-5.625m173.12 10.625c-2.0836 0.83437-3.1253 1.4594-3.125 1.875-3.1e-4 4.5838 1.6664 6.8753 5 6.875 3.7497 3.1e-4 5.6247-1.4578 5.625-4.375-3.1e-4 -0.83281-0.41719-1.6662-1.25-2.5l-6.25-1.875m17.5 6.875c-2.5003 3.1e-4 -3.7503 1.667-3.75 5-3.1e-4 3.7503 2.0831 5.6253 6.25 5.625 3.7497 3.1e-4 5.6247-2.083 5.625-6.25-3.1e-4 -3.333-2.292-4.9997-6.875-5l-1.25 0.625m-21.875 6.875 0.625-1.875c-3.1e-4 -2.4997-1.25-3.7497-3.75-3.75-3.7503 3.1e-4 -5.6253 2.0838-5.625 6.25-3.1e-4 4.167 1.4578 6.2503 4.375 6.25 1.25 3.1e-4 2.2914-0.41563 3.125-1.25l0.625-1.25 0.625-4.375m8.125-1.875h-1.25c-2.5003 3.1e-4 -3.7503 2.0838-3.75 6.25-3.1e-4 3.3338 1.6664 5.0003 5 5 3.7497 3.1e-4 5.6247-2.083 5.625-6.25-3.1e-4 -3.333-1.8753-4.9997-5.625-5m23.75 31.25 4.375 8.125 3.75 5.625 2.5 6.25c1.25-0.41563 1.8747-1.25 1.875-2.5-3.1e-4 3.1e-4 -0.41719-1.6664-1.25-5l-6.875-14.375c-1.25-2.9164-1.8753-5.208-1.875-6.875-3.1e-4 -3.333 2.083-4.9997 6.25-5 1.6664 3.1e-4 2.4997 1.0422 2.5 3.125l1.25 1.875c2.083-0.83281 3.1247-1.8747 3.125-3.125-3.1e-4 -7.083-3.1253-10.625-9.375-10.625-6.667 3.1e-4 -10 4.167-10 12.5-3.1e-4 2.5003 1.25 5.8336 3.75 10m128.12-18.75-8.125 7.5-5 9.375h-2.5c-0.83438 3.1e-4 -1.25 0.41719-1.25 1.25l0.625 3.75 0.625 6.25 3.125 7.5c2.9162 7.0836 4.3745 10.625 4.375 10.625-4.7e-4 1.667-0.20938 2.917-0.625 3.75-2.0838 0.83437-3.1255 2.5003-3.125 5l-1.25 2.5c1.6662 4.5836 5.4162 7.7086 11.25 9.375l8.75 5.625 66.25 30 12.5 9.375 6.875 6.875 2.5-1.25 4.375 0.625 0.625-9.375-1.875-1.25c-13.75-11.666-20.625-22.291-20.625-31.875-4.7e-4 -14.166 6.6661-21.25 20-21.25 10.833 3.1e-4 16.25 3.9586 16.25 11.875-4.7e-4 6.6669-2.0839 10-6.25 10-1.25 3.1e-4 -4.5839-1.0422-10-3.125-4.1672 0.41719-6.8755 2.0836-8.125 5l-2.5 1.25h2.5c-0.83438 3.3336-1.25 5.4169-1.25 6.25-4.7e-4 2.0836 1.8745 4.5836 5.625 7.5-0.41719-0.83281-0.625-2.7081-0.625-5.625-4.7e-4 -4.1664 1.6661-6.2497 5-6.25l1.875 0.625 10 5c8.3328 3.1e-4 12.499-5.4164 12.5-16.25-6.3e-4 -0.41719-0.20938-1.25-0.625-2.5-6.3e-4 -1.25-0.20938-2.9164-0.625-5l-3.125-5.625c2.9161-0.41719 4.3744-1.25 4.375-2.5-6.3e-4 -8.7497-7.0839-13.125-21.25-13.125h-1.875l-10.625 4.375-1.875-4.375-6.875 6.875c-7.0839 8.3336-10.625 16.25-10.625 23.75-4.7e-4 6.6669 3.3328 13.334 10 20l1.25 1.25 1.875 2.5 6.875 6.25 0.625 1.875-10-7.5-3.75-3.125-8.75-4.375-6.875-4.375-2.5-1.25-3.125-1.875-6.875-4.375-3.125-1.25-3.75-2.5c-1.6672-1.25-5.0005-2.9164-10-5l-7.5-6.25c-4.7e-4 1.6669 1.8745 4.5836 5.625 8.75l1.875 2.5-1.875 0.625c-8.7505-9.5831-12.917-17.083-12.5-22.5v-3.125l3.75-17.5v-2.5c-4.7e-4 -1.6664-1.0422-4.1664-3.125-7.5l-6.25 6.25-2.5-0.625c1.25-4.9997 1.8745-8.958 1.875-11.875-4.7e-4 -6.6662-1.25-11.041-3.75-13.125l-5.625-4.375-1.25 2.5m-140-1.875c-2.5003 0.83437-3.7503 2.917-3.75 6.25-3.1e-4 2.917 0.83281 4.3753 2.5 4.375 4.583 3.1e-4 6.8747-2.083 6.875-6.25-3.1e-4 -2.9162-1.667-4.3747-5-4.375h-0.625m-104.38 1.25-1.25 1.875c-0.83281 1.667-1.8752 3.3338-3.125 5-0.83281 1.25-1.8752 2.917-3.125 5-0.41719 0.41719-0.83281 0.625-1.25 0.625-0.83281 3.1e-4 -1.4578 0.20937-1.875 0.625l6.25-12.5c-3.7502 0.41719-6.6669 2.292-8.75 5.625-2.0834 2.917-3.9584 6.042-5.625 9.375l-1.875-1.25 6.25-9.375c-3.3334 0.41719-5.8334 2.0838-7.5 5-1.25 2.5003-3.1252 5.0003-5.625 7.5-1.25 3.1e-4 -2.0834-0.20781-2.5-0.625l5-6.875c-11.667 7.0836-20.208 17.5-25.625 31.25 3.3331 0.83437 4.7916 1.25 4.375 1.25 7.9166 3.1e-4 12.708-2.708 14.375-8.125l3.125-1.25 1.25 3.75c-0.83281 3.3336-1.25 5.6253-1.25 6.875-1.6e-4 2.917 1.0422 4.3753 3.125 4.375 3.3331 3.1e-4 7.0831-1.4578 11.25-4.375l-4.375-0.625 0.625-2.5c3.7498-1.6664 6.4581-3.1247 8.125-4.375 1.6666-1.6664 2.9166-3.1247 3.75-4.375 1.25-1.25 2.0831-2.083 2.5-2.5 0.83281-0.83281 1.8748-1.25 3.125-1.25h-1.875c-1.6669 4.5836-5.2084 9.3753-10.625 14.375 10.833-4.583 16.25-11.25 16.25-20v-1.875c-0.83438-2.4997-1.4578-6.2497-1.875-11.25-2.0834 4.5836-4.3752 7.292-6.875 8.125h1.25l-1.875-0.625 2.5-4.375 4.375-6.25 1.25-2.5v-1.25c-1.6e-4 -0.83281-0.625-1.6662-1.875-2.5m78.75 1.875c-0.41719 0.41719-0.625 1.4594-0.625 3.125-3.1e-4 3.7503 2.2914 5.6253 6.875 5.625 1.25 3.1e-4 1.8747-0.20781 1.875-0.625l1.25-2.5v-0.625l-0.625-3.75-3.75-2.5h-3.125l-1.875 1.25m36.25 33.75 3.125 6.25c0.83281 3.3336 1.25 5.2086 1.25 5.625-3.1e-4 9.167-6.042 18.542-18.125 28.125-5.0003 3.7503-13.959 5.6253-26.875 5.625-2.0836 3.1e-4 -4.7919-0.20781-8.125-0.625-2.9169-0.83281-5.0003-1.25-6.25-1.25 0.41719 3.1e-4 -1.4578 0.41719-5.625 1.25l-1.25-1.875 4.375-4.375c3.7497-3.7497 5.6247-6.8747 5.625-9.375-3.1e-4 -0.41719-0.20938-1.0422-0.625-1.875-3.1e-4 -1.25-0.20781-2.9164-0.625-5-3.3336 3.3336-5.8336 5.2086-7.5 5.625-6.6669 2.5003-10.209 3.9586-10.625 4.375l-0.625 1.25 0.625 4.375 1.875 3.75c-2.0836 0.41719-4.1669 0.83437-6.25 1.25-1.6669 3.1e-4 -3.1252 3.1e-4 -4.375 0-3.7502 0.41719-6.6669 0.83281-8.75 1.25-1.6669 3.1e-4 -2.5002 3.1e-4 -2.5 0l-5 0.625-9.375 2.5-14.375 5.625c-2.0834 0.83437-4.3752 1.8753-6.875 3.125-2.5002 0.83437-5.2084 2.0836-8.125 3.75-4.1669 0.41719-7.5002 2.2919-10 5.625l-5.625 3.125c-2.5002 1.6669-4.3752 3.5419-5.625 5.625-1.25 1.6669-5.2084 4.7919-11.875 9.375l-5.625 5c-1.6667 2.0836-3.1252 4.3752-4.375 6.875-0.83281 2.0836-1.6667 4.3752-2.5 6.875v1.875l3.75-3.75 14.375-16.25c9.9998-10.416 23.125-19.166 39.375-26.25 16.666-7.0831 32.708-10.625 48.125-10.625h4.375c1.25 3.1e-4 2.2914 0.625 3.125 1.875-1.25 1.25-1.8752 2.2919-1.875 3.125-1.6e-4 3.7503 5.8331 5.8336 17.5 6.25-0.41719-2.9164-2.0836-5.2081-5-6.875-1.6669-0.41719-2.5003-1.0422-2.5-1.875-3.1e-4 -1.25 0.83281-1.8747 2.5-1.875 0.83281 3.1e-4 3.5414 0.625 8.125 1.875h20.625c9.9997 3.1e-4 18.75-3.7497 26.25-11.25 7.9164-7.4997 11.875-16.041 11.875-25.625-3.1e-4 -3.333-1.0422-6.6664-3.125-10l-6.25-9.375-15.625-13.75c-2.0836-1.6664-3.3336-3.5414-3.75-5.625-0.41719-2.083-0.83438-3.5412-1.25-4.375-3.1e-4 -0.83281-3.1e-4 -1.25 0-1.25-1.6669 3.1e-4 -2.5003 1.0422-2.5 3.125-3.1e-4 6.2503 3.5414 12.292 10.625 18.125l5.625 3.75 6.25 6.25m-66.25 4.375-6.875 8.125c-2.9169 4.167-7.2919 7.5003-13.125 10l-16.875 15c9.1664-2.9164 20.833-11.25 35-25 12.916-12.5 22.708-18.75 29.375-18.75 2.0831 3.1e-4 4.7914 1.0422 8.125 3.125l1.25 1.25 0.625 2.5c0.41719 1.25 0.625 2.292 0.625 3.125l0.625 0.625c-3.1e-4 0.41719-1.0422 2.292-3.125 5.625-3.3336 2.5003-6.0419 3.7503-8.125 3.75l-6.25-0.625c2.9164 5.417 6.0414 8.1253 9.375 8.125 10.416 3.1e-4 15.625-6.2497 15.625-18.75-3.1e-4 -11.666-5.8336-17.5-17.5-17.5-7.5003 3.1e-4 -17.084 6.4586-28.75 19.375m-5-18.75-3.75 0.625-0.625 5-1.875 4.375-1.25 3.75-3.125 5c-0.83438 1.25-2.0836 2.917-3.75 5-1.25 1.667-2.9169 3.7503-5 6.25l-1.875 1.875c-0.41719 0.83438-1.4578 1.667-3.125 2.5l-1.25 1.25-5 3.75-6.25 4.375c-1.25 1.25-5.6252 3.5419-13.125 6.875-6.6669 3.3336-13.75 7.7086-21.25 13.125-7.5002 5.0003-15.417 11.042-23.75 18.125-3.7502 2.5003-6.0417 6.6669-6.875 12.5h1.875c1.25 1.6e-4 2.4998-1.0406 3.75-3.125 1.6666-2.0831 2.9166-3.1247 3.75-3.125l16.25-15 58.75-37.5c11.25-7.9164 18.333-19.791 21.25-35.625h-3.75m156.25 4.375c-1.667 2.0836-3.1253 3.9586-4.375 5.625-0.83438 1.667-1.667 3.542-2.5 5.625-4.5838 10.417-6.8753 19.167-6.875 26.25-3.1e-4 15.417 4.9997 26.459 15 33.125l5 3.75c3.333 2.5003 5.833 4.1669 7.5 5 2.083 0.83281 6.8745 1.25 14.375 1.25l6.25 0.625c4.1662 0.41719 6.2495-0.83281 6.25-3.75-4.7e-4 -1.6664-0.83438-2.4997-2.5-2.5-4.7e-4 3.1e-4 -0.625 0.20938-1.875 0.625-0.83438 3.1e-4 -2.292 0.20938-4.375 0.625h-1.875c-22.5 3.1e-4 -35.209-11.875-38.125-35.625l-1.25-5.625c0.83281-0.83281 1.4578-3.1247 1.875-6.875l2.5-10.625c-3.1e-4 -0.83281 2.4997-4.9997 7.5-12.5-3.1e-4 -1.6664-0.83438-3.333-2.5-5m-196.25 11.875c1.6664-1.25 3.1248-1.8747 4.375-1.875 0.41719 3.1e-4 2.2914 0.41719 5.625 1.25 0.83281 4.167 1.25 6.4586 1.25 6.875-1.6e-4 3.3336-2.5002 6.4586-7.5 9.375-6.6669 4.5836-12.292 9.7919-16.875 15.625 1.6666-0.83281 3.5416-1.6664 5.625-2.5 2.0831-0.83281 4.1666-1.8747 6.25-3.125l5.625-5 6.875-5c5.4164-2.9164 8.1248-7.708 8.125-14.375-1.6e-4 -6.6664-3.1252-9.9997-9.375-10-7.0836 3.1e-4 -10.625 2.0836-10.625 6.25l0.625 2.5m223.75-0.625-3.75 15v3.75l3.75 2.5c1.6662-3.7497 2.4995-7.4997 2.5-11.25-4.7e-4 -3.333-0.83438-6.6664-2.5-10m-158.75 40.625h8.75c22.916 3.1e-4 34.375-7.0831 34.375-21.25-3.1e-4 -7.083-3.3336-10.625-10-10.625-5.4169 3.1e-4 -8.1253 2.917-8.125 8.75v1.875l5.625-2.5 0.625-0.625c3.3331 3.1e-4 4.9997 1.8753 5 5.625-3.1e-4 4.1669-2.9169 8.1253-8.75 11.875-5.4169 3.3336-11.667 4.7919-18.75 4.375h-1.875c-2.9169 3.1e-4 -5.2086 0.83281-6.875 2.5m-123.12 5c4.1666-0.41719 6.2498-2.2914 6.25-5.625-1.6e-4 -2.9164-0.83281-4.5831-2.5-5-4.5834-2.4997-6.8752-4.9997-6.875-7.5-1.6e-4 -7.4997 3.9583-11.25 11.875-11.25 10.417 3.1e-4 15.625 3.9586 15.625 11.875-1.6e-4 7.0836-5.2084 15.209-15.625 24.375 15-6.6664 22.5-14.791 22.5-24.375-1.6e-4 -11.666-6.6669-17.5-20-17.5-13.75 3.1e-4 -20.625 5.417-20.625 16.25-1.6e-4 0.83437 0.41719 2.5003 1.25 5l7.5 6.875 0.625 6.875m356.88-2.5 1.875 1.25 5 0.625c-1.6672-2.9164-3.7505-5.6247-6.25-8.125-2.5005-2.9164-3.7505-4.9997-3.75-6.25-4.7e-4 -3.3331 1.0406-6.0414 3.125-8.125h0.625c3.7495-0.41719 5.8328-1.25 6.25-2.5-4.7e-4 -1.6664-1.25-3.1247-3.75-4.375h-1.25c-8.7505 3.1e-4 -13.125 4.3753-13.125 13.125-4.7e-4 5.4169 3.7495 10.209 11.25 14.375m-102.5-17.5-0.625 5.625c-3.1e-4 5.4169 1.8747 9.3753 5.625 11.875l2.5-6.25-2.5-7.5 1.25-1.25 1.875-3.75c0.41562-0.41719 1.4578-0.625 3.125-0.625 3.333 3.1e-4 7.708 2.0836 13.125 6.25l12.5 15.625c-4.7e-4 1.6669 0.625 2.5003 1.875 2.5 2.083 3.1e-4 3.1245-0.83281 3.125-2.5-0.41719-0.41719-0.625-1.0422-0.625-1.875l-1.875-3.75-2.5-4.375-3.125-3.75-3.125-4.375-3.75-2.5-9.375-5.625c-2.5005-0.83281-5.6255-1.25-9.375-1.25-3.7503 3.1e-4 -6.4588 2.5003-8.125 7.5m-291.25-6.875c1.6666 3.3336 2.7083 6.4586 3.125 9.375 0.83281 2.5003 1.4578 4.5836 1.875 6.25-1.6e-4 2.0836 0.20781 3.5419 0.625 4.375l3.125 20.625c0.41719 2.0836 0.20781 5.0003-0.625 8.75-0.41719 3.3336-1.0422 7.9169-1.875 13.75-1.6667 8.3336-3.1252 16.667-4.375 25-1.25 8.3336-2.2917 13.959-3.125 16.875-1.6667 6.2502-2.5002 11.042-2.5 14.375v16.25h-0.625v0.625c-0.41719 2.0834-0.83281 4.3752-1.25 6.875-1.6e-4 2.0834-1.6e-4 4.1669 0 6.25-1.6e-4 17.5 1.8748 34.375 5.625 50.625 4.1666 16.25 8.7498 25.833 13.75 28.75l5.625 3.125 1.25 4.375 2.5 6.875 1.25 2.5 1.25 1.25 2.5 3.75c3.3333 4.5834 8.3333 9.1667 15 13.75 10.417 6.6667 17.083 10 20 10 2.9166 0 4.3748-1.4578 4.375-4.375-1.6e-4 -2.5-3.1252-5-9.375-7.5-2.0834-0.41719-4.5834-1.6666-7.5-3.75l-6.25-4.375-7.5-8.75c-2.9167-2.9166-4.3752-7.2916-4.375-13.125v-2.5c7.4998-3.75 11.25-9.5833 11.25-17.5v-3.75l-11.25-34.375c-0.41719-2.0833-0.83281-3.9583-1.25-5.625-1.6e-4 -2.0833-1.6e-4 -3.9583 0-5.625-1.6e-4 -18.333 6.6666-28.125 20-29.375 0.41719-3.3331 0.625-5.6248 0.625-6.875 0.41719-1.6666 0.625-2.2916 0.625-1.875-1.6e-4 -2.4998-1.6669-3.7498-5-3.75-3.3334 1.6e-4 -6.6669 0.83281-10 2.5l-5 5c-0.83281-0.83281-1.25-1.4578-1.25-1.875-1.6e-4 1.6e-4 0.625-1.25 1.875-3.75 1.6666-2.4998 2.4998-5.4166 2.5-8.75-1.6e-4 0.41719-0.41719-1.4578-1.25-5.625-4.5834 0.83438-7.5002 2.5002-8.75 5l-1.25 2.5-5 5-1.875 3.75-1.25 1.875c-1.6667 2.9169-2.5002 5.6252-2.5 8.125v5l-1.875 16.25 0.625 4.375-0.625-1.25v7.5-7.5l1.25 17.5 6.25 21.25c1.25 2.0834 1.8748 3.7502 1.875 5-1.6e-4 1.25-0.625 1.4578-1.875 0.625h-3.75c-5.4167-10.417-8.1252-25.833-8.125-46.25-1.6e-4 -25.833 2.4998-45.625 7.5-59.375l16.875-47.5c0.83281-3.3331 1.25-5.2081 1.25-5.625-1.6e-4 -1.25-0.20781-2.4997-0.625-3.75-1.6e-4 -1.6664-0.20781-3.5414-0.625-5.625-1.6667 0.83281-3.1252 2.0836-4.375 3.75-1.25 1.25-2.5002 2.7086-3.75 4.375l-1.875-1.875c-1.6e-4 -0.41719-0.20781-0.83281-0.625-1.25l1.25-7.5v-1.25c0.41719-9.5831-4.1667-18.541-13.75-26.875-1.6667-1.25-4.5834-2.9164-8.75-5m311.25 11.875-4.375 4.375-5.625 6.875-5.625 7.5c0.41562 1.6669 1.0406 2.5003 1.875 2.5l1.25-0.625c0.41562-0.41563 0.83281-0.625 1.25-0.625l5.625-6.25 6.875-6.875 0.625-5.625-1.875-1.25m-96.875 5.625c-2.917 1.6669-5.417 3.9586-7.5 6.875l2.5-0.625 4.375-1.25h3.125c0.41562 3.1e-4 1.0406 0.41719 1.875 1.25 1.25 0.83438 2.083 1.25 2.5 1.25 0.41719 3.1e-4 0.625-0.41719 0.625-1.25-3.1e-4 -4.1664-1.25-6.2497-3.75-6.25l-3.75-0.625v0.625m93.125 10.625-2.5 3.75c7.083 4.5836 12.708 6.8753 16.875 6.875 12.916 3.1e-4 19.375-2.4997 19.375-7.5-4.7e-4 -1.25-0.625-1.8747-1.875-1.875-1.25 3.1e-4 -3.7505 0.625-7.5 1.875-3.7505 0.83438-6.667 1.25-8.75 1.25-5.0005 3.1e-4 -10.209-1.4578-15.625-4.375m-110 1.25c-4.1669 0.41719-6.2503 2.0836-6.25 5-3.1e-4 2.0836 1.4578 3.1253 4.375 3.125 4.1664 3.1e-4 6.2497-1.8747 6.25-5.625-3.1e-4 -1.6664-1.25-2.4997-3.75-2.5h-0.625m-33.75 4.375c2.9164 0.83281 5.4164 1.4578 7.5 1.875 5.8331 0.83281 8.7497 1.8753 8.75 3.125l-1.25 8.125h5c1.25-1.25 2.2914-2.9164 3.125-5-3.1e-4 -4.1664-1.6669-6.6664-5-7.5l-3.125-0.625-5.625 0.625-5-1.25-4.375 0.625m51.25 9.375 2.5 4.375c0.41719 1.25 0.625 3.5419 0.625 6.875-3.1e-4 4.1669-3.542 10.417-10.625 18.75l-5.625 3.75-1.25 2.5c1.6664 0.83438 2.708 1.0422 3.125 0.625l3.125-1.875 4.375-3.75c7.4997-6.2498 11.25-14.166 11.25-23.75-3.1e-4 -9.5831-4.167-14.375-12.5-14.375-4.167 3.1e-4 -6.2503 1.4578-6.25 4.375-3.1e-4 1.25 0.41719 1.8753 1.25 1.875 0.41719 3.1e-4 1.0422-0.20781 1.875-0.625 1.25-0.41719 2.2914-0.625 3.125-0.625 0.83281 3.1e-4 2.4997 0.625 5 1.875m-126.25 1.875-6.875 1.875v0.625c-4.5834 1.6669-8.7502 3.5419-12.5 5.625-3.3334 2.0836-6.6669 4.1669-10 6.25l-16.25 11.25-6.875 7.5-7.5 9.375-3.125 4.375c-2.9167 4.5836-5.4167 9.1669-7.5 13.75-2.0834 4.1669-3.5417 8.5419-4.375 13.125 5.4166-4.1666 9.1666-7.9166 11.25-11.25l10-16.875 7.5-8.125 10-9.375c15.417-15.416 35.833-23.125 61.25-23.125 22.916 3.1e-4 43.333 7.0836 61.25 21.25l3.75 3.75 5.625 8.125 1.875 2.5 2.5 6.25 1.875 5.625 1.875 6.875c0.41719 0.41719 0.625 2.2919 0.625 5.625-3.1e-4 7.0834-1.8753 14.583-5.625 22.5l-1.25 1.25c-5.8336 10-12.292 14.583-19.375 13.75l-3.75-0.625h-7.5v1.875c-0.41719 6.6669 3.3331 10 11.25 10 2.9164 1.6e-4 5.8331-1.4578 8.75-4.375h1.875c0.41719 2.5002 1.0422 3.7502 1.875 3.75 2.9164 1.6e-4 5.8331-1.4578 8.75-4.375l8.125-8.125c0.41719-0.83281 0.83281-1.4578 1.25-1.875 0.41562-1.6666 0.625-2.7081 0.625-3.125 0.41719-0.83281 0.625-1.25 0.625-1.25l-0.625-6.25c-3.1e-4 -1.25 0.625-1.8748 1.875-1.875l0.625 0.625 5 3.75 2.5-4.375 0.625-2.5c0.41719-2.0831 0.625-3.9581 0.625-5.625 0.41719-1.6666 0.625-3.1248 0.625-4.375-3.1e-4 -9.9998-2.917-20.416-8.75-31.25-0.83438-0.83281-1.8753-1.8748-3.125-3.125-0.83438-1.25-2.0836-2.9164-3.75-5v-3.75c5.4164-0.41562 8.1247-1.8748 8.125-4.375-3.1e-4 -1.25-2.292-3.5414-6.875-6.875-1.25-0.41719-3.1253-1.6664-5.625-3.75l-3.125-3.125c-2.0836-2.0831-5.0003-3.9581-8.75-5.625l-6.25-2.5-2.5-1.875c-1.25-0.41719-3.5419-1.0422-6.875-1.875-2.0836-0.83281-5.0003-1.6664-8.75-2.5-3.3336-0.83281-7.7086-1.6664-13.125-2.5-7.0836-0.41719-12.084-0.625-15-0.625-2.5002-0.41719-3.3336-0.625-2.5-0.625l-20.625 2.5c-1.6669 0.41719-3.7502 0.83438-6.25 1.25-2.0836 0.41719-4.5834 1.0422-7.5 1.875m246.88 10c0.41562 0.41719 1.25 0.625 2.5 0.625 1.6662 3.1e-4 2.4995-0.83281 2.5-2.5l-1.25-6.25c-0.83438-4.5831-1.8755-6.8747-3.125-6.875-1.667 3.1e-4 -2.5005 1.0422-2.5 3.125-4.7e-4 0.41719-4.7e-4 1.25 0 2.5 0.41562 1.25 0.83281 3.3336 1.25 6.25l0.625 3.125m5.625-11.875c0.41562 4.1669 1.8745 6.2503 4.375 6.25 2.4995 3.1e-4 6.8745-0.625 13.125-1.875h13.125l20.625 3.75 15.625 4.375 7.5 1.25 1.25-0.625-2.5-1.25c-13.334-8.7497-26.459-13.125-39.375-13.125h-6.875l-8.125-0.625h-1.25l-8.125 0.625-9.375 1.25m-57.5 19.375c-3.1e-4 7.0836 1.6662 12.917 5 17.5l6.25 8.125 5.625 3.125c1.6662 1.25 2.9162 1.8752 3.75 1.875h1.25l10.625-0.625 6.25 0.625c2.4995 1.6e-4 6.2495-2.7081 11.25-8.125 2.4995-3.3331 4.583-7.7081 6.25-13.125h-1.875c-2.0838 1.6e-4 -3.542 1.0422-4.375 3.125-6.2505 10-12.709 15-19.375 15-7.917 1.6e-4 -14.375-3.5414-19.375-10.625-1.25-1.25-1.8753-2.2914-1.875-3.125v-1.25c-0.83438-0.83281-1.4594-1.25-1.875-1.25l-1.25-5-0.625-5.625-0.625-2.5c-3.1e-4 -1.6664 0.20781-2.9164 0.625-3.75l2.5-10c0.41562-1.25 0.20781-2.2914-0.625-3.125l-2.5-0.625-1.875 4.375-2.5 5.625-0.625 9.375m-90-18.125-1.875 2.5c-0.83438 2.5003-1.25 3.5419-1.25 3.125-3.1e-4 2.9169 1.6664 4.3753 5 4.375 2.4997 3.1e-4 3.7497-1.4578 3.75-4.375-3.1e-4 -0.83281-0.20938-1.4578-0.625-1.875l-1.25-3.125-3.75-0.625m13.125 1.25c-1.667 3.1e-4 -2.5003 1.25-2.5 3.75-3.1e-4 3.3336 1.4578 5.0003 4.375 5 3.333 3.1e-4 4.9997-1.25 5-3.75-3.1e-4 -3.3331-2.0836-4.9997-6.25-5h-0.625m234.38 7.5c-1.6672 2.9169-2.5005 5.8336-2.5 8.75-4.7e-4 2.9169 0.20781 5.0002 0.625 6.25h-3.125c-3.3339 1.6e-4 -5.0005 1.25-5 3.75-4.7e-4 2.0836 0.20781 3.5419 0.625 4.375l1.875 8.125 3.75 5 0.625 2.5 3.75 3.125 1.25 4.375 4.375 5.625c0.41562 0.41719 0.625 1.6669 0.625 3.75-4.7e-4 1.6669-1.0422 2.5002-3.125 2.5l-2.5-3.125-3.125-8.125-4.375-3.125-0.625 4.375c-0.83438-0.41719-2.2922-0.625-4.375-0.625-1.25 1.6e-4 -2.7089 0.83438-4.375 2.5v2.5c2.4995 2.5002 4.5828 5.6252 6.25 9.375l5.625 5.625c2.9161 1.25 5.2078 1.8752 6.875 1.875 7.9161 1.6e-4 11.875-5.8331 11.875-17.5-4.7e-4 -4.1664-1.4594-11.875-4.375-23.125-1.25-4.1664-1.8755-8.5414-1.875-13.125v-5.625l5-17.5c-0.83438-0.41719-2.0839-0.625-3.75-0.625-2.9172 3.1e-4 -6.2505 2.7086-10 8.125m-333.12 3.125 5 0.625 15.625 0.625c11.25 0.83438 21.25 5.2086 30 13.125 3.3331 4.5836 4.9997 7.9169 5 10-3.1e-4 4.1669-3.3336 6.8752-10 8.125l2.5 3.125 5 0.625 2.5 0.625c1.6664 1.6e-4 3.1247-1.25 4.375-3.75 1.6664-2.4998 2.4997-4.9998 2.5-7.5-3.1e-4 -12.916-13.334-22.083-40-27.5-2.0836-0.41719-3.9586-0.625-5.625-0.625-1.25-0.41719-2.2919-0.625-3.125-0.625l-1.875 0.625-11.875 2.5m192.5-1.25c-1.25 3.3336-1.8753 5.6252-1.875 6.875-3.1e-4 3.7502 2.708 5.6252 8.125 5.625 3.333 1.6e-4 7.9162-1.6664 13.75-5 1.25-0.41719 3.1245-1.6664 5.625-3.75-1.667 1.6e-4 -4.3755 0.625-8.125 1.875-3.7505 0.83438-6.042 1.25-6.875 1.25-3.3338 1.6e-4 -6.8755-2.2914-10.625-6.875m97.5 6.875-3.125-2.5h-3.75l-3.125-2.5h-5l-4.375-0.625-8.75 0.625-1.875-1.25-5.625 0.625-5-0.625-9.375 1.875-3.125 1.875-8.75 1.875-8.125 3.75-12.5 5.625-6.875 5-5 3.125c-0.83438 0.83281-1.25 1.4578-1.25 1.875-4.7e-4 2.5002 1.4578 3.7502 4.375 3.75 1.6662 1.6e-4 4.1662-1.4578 7.5-4.375 3.333-3.3331 6.0412-4.9998 8.125-5l12.5-5 7.5-3.125 24.375-3.125c1.25-0.41562 3.5412-0.625 6.875-0.625 3.3328 1.6e-4 5.4162 0.20938 6.25 0.625l11.25 1.25c1.25 1.6e-4 3.5412-1.0422 6.875-3.125m-309.38 1.25c-0.41719 10-2.7084 17.917-6.875 23.75-2.0834 3.3336-5.0002 6.8752-8.75 10.625-1.25 1.6669-2.7084 3.5419-4.375 5.625-1.25 2.0836-2.7084 4.5836-4.375 7.5l-3.125 6.25c-2.0834 3.3334-3.5419 10.833-4.375 22.5l3.75-5c11.667-16.667 25.417-24.791 41.25-24.375h0.625l11.25 0.625c2.4998 1.6e-4 3.7498 0.625 3.75 1.875-1.6e-4 0.83281-0.625 1.25-1.875 1.25-0.41719 1.6e-4 -1.25 1.6e-4 -2.5 0-0.83281-0.41719-2.2919-0.83281-4.375-1.25h-1.875c0.41719 1.6e-4 -0.20781 0.20781-1.875 0.625-1.6669 1.6e-4 -4.5836 0.20781-8.75 0.625l-7.5 1.25-2.5 0.625-0.625 1.25c-9.1669 4.1669-16.875 11.667-23.125 22.5l-1.25 5c-0.83281 2.0834-1.4578 3.9584-1.875 5.625-1.6e-4 1.6669-0.20781 3.3334-0.625 5-1.6e-4 2.5002 1.6666 4.1669 5 5 1.25-15.833 9.1666-23.75 23.75-23.75 2.9166 1.6e-4 7.9164 2.2919 15 6.875l1.875 6.875 1.25 3.75-0.625 5.625c-2.0836 3.3334-5.2086 6.4584-9.375 9.375 2.4998 2.5002 4.7914 3.7502 6.875 3.75 12.916 1.6e-4 18.958-5.4166 18.125-16.25v-5h3.75l0.625 3.75 3.75 0.625c1.6664-3.7498 2.4998-7.2916 2.5-10.625-1.6e-4 -4.5831-1.6669-7.9166-5-10l-1.25-1.25c-2.5002-1.25-3.7502-2.4998-3.75-3.75-1.6e-4 -1.25 0.625-1.8748 1.875-1.875 1.25 1.6e-4 2.0831 0.83281 2.5 2.5 7.4998 6.2502 15.833 9.3752 25 9.375 2.0831 1.6e-4 3.3331-0.20781 3.75-0.625l3.125-1.875-4.375-5v-0.625c-3.1e-4 -1.6666 3.3331-2.7081 10-3.125h1.25c-3.1e-4 1.6e-4 0.625-0.41719 1.875-1.25 1.6664-1.25 4.1664-2.9166 7.5-5l5-3.125c1.6664-1.6666 2.9164-4.1666 3.75-7.5l1.25-8.125-13.125 1.25h-2.5l-6.875-3.75-5.625-3.125c-2.5003-0.83281-5.2086-1.6664-8.125-2.5-2.5003-0.83281-5.2086-1.4578-8.125-1.875l-4.375-2.5c3.3331-5.8331 4.9998-10.833 5-15v-1.25c-1.25 0.83281-2.9169 1.6669-5 2.5-1.6669 0.41719-3.5419 1.0422-5.625 1.875l-11.25 2.5c-2.0836 0.41719-5.4169 2.2919-10 5.625l-7.5 7.5c-1.25 2.0836-2.2919 3.1252-3.125 3.125-1.6669 1.6e-4 -2.5002-0.625-2.5-1.875-1.6e-4 -0.83281 1.8748-3.1248 5.625-6.875 1.6664-1.25 2.9164-2.9164 3.75-5l1.25-10-5 2.5-1.25-1.25-5-9.375-5.625-3.125m327.5 0-3.75 1.25-5.625 0.625c-14.584 3.3336-24.167 9.3752-28.75 18.125l-3.75-5-8.125 6.875c-4.1672 5.4169-6.2505 10.417-6.25 15v5c-4.7e-4 2.5002 0.20781 4.3752 0.625 5.625l2.5 6.25 2.5 1.25 0.625-3.125 1.875 0.625-0.625 6.875h1.875l1.875 2.5 1.25-4.375 1.875 0.625v-1.25c-0.41719 1.25-0.625 3.1252-0.625 5.625-4.7e-4 1.6e-4 0.41562 2.0834 1.25 6.25l1.875 0.625 1.25-5 3.75-13.125 3.125-7.5h1.875v1.875l0.625-1.875c-2.0838 5.0002-3.7505 10-5 15-0.83438 5.0002-1.4594 9.7919-1.875 14.375l1.25 0.625 3.125-7.5 2.5-0.625-1.875 5.625c17.5-3.3331 27.708-9.5831 30.625-18.75l4.375-12.5c0.41562-1.6664 0.625-2.9164 0.625-3.75 0.41562-0.83281 0.625-1.6664 0.625-2.5-4.7e-4 -1.25-0.625-2.2914-1.875-3.125l-10.625 4.375-3.125 1.25 3.75-6.25 1.875-15.625c-4.7e-4 -2.0831 0.83281-4.5831 2.5-7.5 1.6661-2.9164 2.4995-4.3748 2.5-4.375-0.41719-0.41563-0.625-1.25-0.625-2.5m-41.25 1.875-18.75 1.875-7.5 4.375-2.5 3.125c-2.0838 3.3336-3.1255 5.6252-3.125 6.875-4.7e-4 1.6669 1.25 3.7502 3.75 6.25 2.4995 2.0836 4.583 3.1252 6.25 3.125 1.6662 1.6e-4 3.7495-1.8748 6.25-5.625-4.1672-1.25-6.2505-3.1248-6.25-5.625-4.7e-4 -6.2498 6.4578-9.9998 19.375-11.25 1.25 1.6e-4 2.7078 1.6e-4 4.375 0 1.6662-0.41719 3.5412-0.83281 5.625-1.25l-7.5-1.875m45 15 8.75 8.125c0.41562 1.6669 1.0406 2.5002 1.875 2.5 0.83281 1.6e-4 1.25-0.41719 1.25-1.25l-1.875-5.625-1.25-5.625-5-3.75-1.875-1.875c-1.25-0.41563-2.2922-1.0406-3.125-1.875l-0.625 0.625h-1.875c-1.25 1.6e-4 -1.8755 1.0422-1.875 3.125-4.7e-4 2.5002 1.8745 4.3752 5.625 5.625m-368.75 0.625-3.75 4.375-6.875 5.625-3.75 6.25-3.75 4.375 3.75-1.25c0.83281-0.83281 1.6666-2.0831 2.5-3.75 0.83281-1.6664 2.0831-3.5414 3.75-5.625 6.2498-6.2498 11.667-9.3748 16.25-9.375 1.6666 1.6e-4 3.7498 0.625 6.25 1.875 0.83281 3.3336 1.25 5.0002 1.25 5-1.6e-4 3.3336-2.5002 7.0836-7.5 11.25 9.1666-2.9164 13.75-7.9164 13.75-15-1.6e-4 -5.8331-2.9169-8.7498-8.75-8.75-5.4169 1.6e-4 -9.7919 1.6669-13.125 5m160.62 1.25h-1.875c-3.1e-4 1.6e-4 -1.25 0.41719-3.75 1.25v2.5c3.333 2.0836 5.833 3.1252 7.5 3.125 4.9997 1.6e-4 7.4997-2.4998 7.5-7.5-3.1e-4 -1.6664-0.83438-2.4998-2.5-2.5-1.25 1.6e-4 -3.542 1.0422-6.875 3.125m78.125 14.375c0.83281 0.41719 2.708 0.625 5.625 0.625 1.25 1.6e-4 1.8747-0.41563 1.875-1.25-3.1e-4 -3.3331-1.4594-4.9998-4.375-5-1.667 1.6e-4 -2.7088 1.8752-3.125 5.625m-79.375-5c0.41719 5.4169 2.9164 8.1252 7.5 8.125 1.25 1.6e-4 2.4997-1.25 3.75-3.75-2.0836-0.83281-3.9586-1.6664-5.625-2.5-1.667-0.83281-3.542-1.4578-5.625-1.875m123.75 0c-1.25 2.0836-1.8755 3.9586-1.875 5.625-4.7e-4 2.9169 0.20781 4.7919 0.625 5.625l-5 1.25h0.625l-3.75-3.125c-3.3338-2.4998-6.4588-3.7498-9.375-3.75h-4.375l-7.5 1.25-6.25 2.5c-0.41719 0.41719-1.25 0.625-2.5 0.625-1.667 1.6e-4 -4.3753-0.625-8.125-1.875-0.41719 1.25-0.625 3.7502-0.625 7.5-3.1e-4 2.9169 0.83281 5.8334 2.5 8.75 0.41562 0.83281 0.83281 1.6669 1.25 2.5 0.41562 0.83281 0.83281 1.6669 1.25 2.5 2.083 3.7502 5.6247 8.1252 10.625 13.125 1.6662 0.83281 3.333 1.8752 5 3.125-4.7e-4 0.41719-1.4594 1.0422-4.375 1.875-2.5003 0.83281-3.7503 1.6669-3.75 2.5-3.1e-4 5.0002 5.6245 9.5834 16.875 13.75 7.083 2.0834 10.625 3.1252 10.625 3.125h0.625c0.83281-0.41719 1.6662-0.83281 2.5-1.25 1.25-0.41719 2.708-1.0422 4.375-1.875l-1.25-3.75 5.625 1.25c2.4995 1.6e-4 3.7495-0.83281 3.75-2.5-0.41719-0.41719-1.0422-0.625-1.875-0.625h-1.25l-5-4.375 6.25 3.125c1.6662 0.41719 2.9162 0.83281 3.75 1.25 0.83281 1.6e-4 1.25 1.6e-4 1.25 0 2.083 1.6e-4 3.958-0.83281 5.625-2.5l-10-4.375-10.625-10 1.875-0.625 2.5 2.5v-1.25l6.875 6.25 8.75 4.375c2.9162 1.25 4.5828 2.0834 5 2.5 2.0828 1.6e-4 3.1245-0.83281 3.125-2.5-4.7e-4 -2.0831-1.4594-3.9581-4.375-5.625l-3.125-1.875-3.75-2.5 0.625-1.875 10 6.25v-3.125c-4.7e-4 -1.25-0.625-2.9166-1.875-5l2.5 0.625c-4.7e-4 -4.1666-1.6672-7.2916-5-9.375l-0.625-1.25h1.25c1.6662 2.5002 3.1245 3.7502 4.375 3.75h1.25l-1.875-5.625-2.5-3.125c2.4995 1.6e-4 3.7495-0.41719 3.75-1.25-4.7e-4 -5.8331-3.7505-11.666-11.25-17.5-1.667-0.83281-3.542-1.6664-5.625-2.5-1.667-0.83281-3.7505-1.4578-6.25-1.875l-1.25-0.625m-123.12 9.375 1.875 9.375v13.75l-1.25 6.875c-1.667 3.7502-2.7086 9.3752-3.125 16.875-0.41719 0.41719-0.625 1.4578-0.625 3.125-3.1e-4 1.25-0.20781 2.2919-0.625 3.125-1.25 7.5002-1.8753 12.083-1.875 13.75l0.625 4.375 1.875 20 6.25 15 5.625 9.375 2.5 4.375c7.083 13.333 20.625 25.625 40.625 36.875 20.833 10.833 39.791 15.625 56.875 14.375h3.125c4.1662-0.41719 7.2912-0.625 9.375-0.625 2.4995-0.41719 3.958-0.625 4.375-0.625 2.4995 0 4.7912 1.6667 6.875 5 1.25 0.41719 3.1245 0.625 5.625 0.625h6.875c2.0828 0 3.7495-0.20781 5-0.625l16.875-3.75c1.25-0.41719 2.7078-0.625 4.375-0.625h4.375c3.3328 0 8.7495 0.625 16.25 1.875-0.41719-4.1667-5.2088-7.2916-14.375-9.375l-4.375-0.625c-1.6672-0.41719-4.3755 0-8.125 1.25-2.5005 0.83281-5.6255 1.4578-9.375 1.875-3.7505 0-7.9172 0.20781-12.5 0.625l-1.25-0.625c-0.41719-0.41719-0.625-1.4578-0.625-3.125-4.7e-4 -0.83281 0.625-1.6666 1.875-2.5l11.25-2.5 4.375-4.375c0.83281-0.83281 1.25-2.2916 1.25-4.375-4.7e-4 -2.9166-0.83438-5.2083-2.5-6.875-4.5838 5-10.417 7.5-17.5 7.5l-9.375 4.375c-0.83438 6.25-5.417 9.375-13.75 9.375h-13.75c-6.667-0.83281-11.875-1.4578-15.625-1.875-3.7503-0.41719-6.2503-0.83281-7.5-1.25-2.0838-0.41719-4.3753-0.83281-6.875-1.25-2.0838-0.83281-4.792-2.0833-8.125-3.75l-11.875-5.625-3.125-1.875-7.5-4.375-4.375-3.125-2.5-2.5-3.125-3.75-10.625-11.25-0.625-1.875-1.25-1.875-0.625-0.625-2.5-3.125-10.625-18.75-1.25-5.625-3.125-18.75 4.375-41.25-0.625-15c-0.41719-7.4998-1.0422-11.666-1.875-12.5-0.83437-1.25-2.0836-2.2914-3.75-3.125m71.25 11.25c-1.667 7.0834-2.5003 14.167-2.5 21.25-3.1e-4 2.9169 1.0406 8.9584 3.125 18.125v1.875l3.125 7.5 4.375 13.75h1.25c2.9162 1.6e-4 5.208 1.4578 6.875 4.375l1.25 0.625c9.1662 9.1667 20.416 13.75 33.75 13.75 6.2495 1.6e-4 12.083-0.83281 17.5-2.5 5.8328-2.0833 10.833-4.5833 15-7.5 4.5828-2.9166 8.1245-6.2498 10.625-10 2.9162-4.1666 4.3745-8.3333 4.375-12.5-4.7e-4 -2.4998-1.4594-5.2081-4.375-8.125l-4.375-1.25-3.75 6.25-1.875-0.625v-2.5c-4.7e-4 -2.9166 2.7078-5.6248 8.125-8.125-1.6672-10.417-5.2088-17.917-10.625-22.5h-1.25c-0.41719 1.25-0.83437 3.7502-1.25 7.5-0.41719 3.7502-0.625 6.6669-0.625 8.75-4.7e-4 0.83281 0.41563 2.2919 1.25 4.375 1.25 2.0834 1.8745 3.5419 1.875 4.375v0.625c-0.41719 0.41719-0.83437 0.83281-1.25 1.25-4.7e-4 0.41719-0.20937 0.83281-0.625 1.25h-10.625c-1.25 1.6e-4 -4.792 1.6669-10.625 5l-5 1.875c8.7495 3.3334 13.333 5.0002 13.75 5h4.375l6.25-0.625-1.875 10.625 2.5-1.25 3.75-5.625c0.41563-0.41719 1.0406-0.625 1.875-0.625 0.41563 1.6e-4 0.625 0.41719 0.625 1.25-4.7e-4 11.25-11.25 17.083-33.75 17.5h-6.25c0.41563 1.6e-4 -1.4594-0.41719-5.625-1.25l-3.75-0.625-9.375-6.25-4.375-3.125-4.375-5-2.5-3.75-5-8.125c-3.3338-5.8331-5.0003-12.917-5-21.25v-6.25l-0.625-7.5c-3.1e-4 -1.25-1.4594-4.5831-4.375-10m173.75 6.25-1.25 1.25-3.125 2.5c-0.83438 0.41719-2.9172 1.25-6.25 2.5-2.9172 1.25-4.3755 2.0834-4.375 2.5-4.7e-4 1.6669 1.25 2.5002 3.75 2.5 1.25 1.6e-4 3.1245-0.625 5.625-1.875l3.75-1.875 1.875-7.5m-35.625 9.375h-0.625l-7.5 1.25c-2.0839 0.83281-3.9589 4.1669-5.625 10l5.625 0.625-3.125 1.25-5.625 1.875 1.25 0.625-1.875 3.125h3.75l-1.25 3.125c-2.9172 1.6e-4 -4.5838 0.625-5 1.875l-2.5 3.75 10-1.875 1.25 0.625v-1.875 2.5l-4.375 1.25 3.75-0.625-17.5 3.125v1.875h19.375c-5.8339 2.5002-10.625 3.7502-14.375 3.75h-3.75c1.25 2.5002 2.7078 3.7502 4.375 3.75h3.125l0.625 1.25h-4.375l5 0.625h-4.375v1.875c-0.83437 2.5002-0.41719 3.7502 1.25 3.75l3.75-0.625 1.25 1.25-4.375 0.625h4.375l0.625-1.875-0.625 1.875h-4.375l-0.625 2.5 3.75 3.75c4.1661 5.4167 9.5828 8.1252 16.25 8.125 0.83281 1.6e-4 2.4995-0.41719 5-1.25l5-1.875 6.25-2.5c1.6661-1.6666 2.7078-2.9166 3.125-3.75l2.5-3.75v-1.875c-4.7e-4 -0.83281-0.83437-1.25-2.5-1.25h-0.625l-3.125-0.625v-1.25c0.41563-0.41719 3.3328-1.8748 8.75-4.375l1.25-1.875c0.41563-0.41719 0.83281-0.625 1.25-0.625 0.41563-0.41719 0.83281-0.83281 1.25-1.25l3.125-3.125c2.4995-4.1666 5.4161-7.2916 8.75-9.375l0.625-10.625c-1.25 0.41719-3.3339 0.625-6.25 0.625-4.7e-4 1.6e-4 -1.6672-0.41719-5-1.25l-9.375-3.125-5.625 0.625v-4.375l1.25-6.25h-13.125m26.875 5v1.875c-4.7e-4 3.3334 1.0406 5.0002 3.125 5 4.1661 1.6e-4 6.2494-1.6666 6.25-5-6.2e-4 -1.6666-0.625-2.9166-1.875-3.75l-1.25-0.625-6.25 2.5m-43.75 0.625-5.625 1.875c-0.83437 0.41719-2.5005 1.0422-5 1.875-2.0838 0.41719-4.7922 1.25-8.125 2.5-3.7505 1.6669-6.2505 4.3752-7.5 8.125 1.25 2.0834 2.2912 3.1252 3.125 3.125-2.5005 1.6e-4 1.4578-2.2916 11.875-6.875-2.0838 3.7502-4.1672 6.0419-6.25 6.875h-2.5v2.5c-4.7e-4 2.0834 0.20781 3.3334 0.625 3.75 8.3328 1.6e-4 14.791-7.9166 19.375-23.75m-201.88 6.875c-0.83437 4.1669-2.0836 7.9169-3.75 11.25-1.25 2.9169-2.7086 5.4169-4.375 7.5v1.875l-5 6.25-2.5 4.375-6.25 6.25-9.375 8.125-4.375 3.125-9.375 4.375-16.25 3.125-5.625 1.875h-13.75l2.5 2.5c2.9164 2.9167 4.9998 4.3752 6.25 4.375 1.6664 1.6e-4 3.9581 1.6e-4 6.875 0 3.3331-0.41719 7.4997-0.83281 12.5-1.25h5.625l13.125-8.125 4.375-3.75 3.75-3.75 9.375-8.75 14.375-18.125c3.333-9.1666 4.9997-15.208 5-18.125-3.1e-4 -1.25-1.0422-2.2916-3.125-3.125m96.25 12.5-5.625-2.5c2.9162 7.5002 6.6662 11.25 11.25 11.25 2.4995 1.6e-4 3.7495-1.0422 3.75-3.125l-0.625-3.125-8.75-2.5m-220.62-1.25 0.625 3.75c-1.6e-4 4.5834-2.2919 7.5002-6.875 8.75l-3.75 0.625-16.25-1.25c-4.5834-0.83281-8.1252 2.0834-10.625 8.75-0.41719 0.41719-0.625 1.8752-0.625 4.375-1.6e-4 5.4167 1.6666 9.3752 5 11.875 3.7498 2.5002 6.4581 3.7502 8.125 3.75 3.3331 1.6e-4 6.2498-2.7083 8.75-8.125-5.0002 2.0834-7.2919 3.1252-6.875 3.125h-1.25l-0.625-0.625-3.125-2.5-1.875-1.25c-1.25-0.41719-1.8752-2.4998-1.875-6.25-1.6e-4 -5.4166 3.3331-8.1248 10-8.125h0.625l16.25 1.25c3.3331 1.6e-4 6.2498-1.6666 8.75-5 2.4998-3.3331 3.7498-6.8748 3.75-10.625-1.6e-4 -5.8331-1.4578-9.5831-4.375-11.25h-1.25c-2.0834 1.6e-4 -3.1252 1.4578-3.125 4.375-1.6e-4 2.0834 0.20781 3.5419 0.625 4.375m-8.125-3.75-1.25 3.75c-1.6669 2.9169-2.5002 5.0002-2.5 6.25-1.6e-4 1.6669 0.83281 2.5002 2.5 2.5 1.6666 1.6e-4 2.4998-1.0422 2.5-3.125v-1.875c-0.41719-0.41719-0.625-1.4578-0.625-3.125-1.6e-4 -1.6666-0.20781-3.1248-0.625-4.375m66.25 11.875-3.75 4.375c-0.83437 4.1667-1.25 6.2502-1.25 6.25-1.6e-4 4.5834 2.0831 8.5417 6.25 11.875 4.1664 2.9167 8.5414 4.3752 13.125 4.375 16.25 1.6e-4 29.375-9.1666 39.375-27.5l-4.375 1.25-9.375 11.25c-4.1669 5.4167-9.7919 8.1252-16.875 8.125-2.0836 1.6e-4 -5.2086-1.25-9.375-3.75-4.1669-2.9166-6.2502-5.2083-6.25-6.875-1.6e-4 -4.9998 2.7081-7.2916 8.125-6.875h5c-0.83437-4.9998-3.7503-7.4998-8.75-7.5l-1.875 0.625-5 1.25c-1.25 1.6e-4 -2.9169 1.0422-5 3.125m170 8.125-0.625 1.875c0.41563 0.41719 0.625 0.83281 0.625 1.25 0.41563 0.41719 1.0406 0.83281 1.875 1.25 8.333 7.0834 17.291 10.625 26.875 10.625 2.4995-0.83281 5.208-2.9166 8.125-6.25 3.333-3.7498 5.6245-5.6248 6.875-5.625v-2.5l-3.125 1.875-7.5 3.125c-0.83437 2.0834-1.8755 3.1252-3.125 3.125h-1.25l9.375-10.625-3.125-1.25-5.625 4.375-1.875 1.25h-2.5l8.125-6.875c-4.167-0.83281-6.042-1.25-5.625-1.25-0.83437 1.6e-4 -2.5005 0.625-5 1.875-2.5005 3.3334-4.792 5.0002-6.875 5l-1.25-0.625 6.875-5.625-1.25-1.25-1.875 0.625h-5c-2.0838 0.83281-6.4588 2.7084-13.125 5.625m145.62-3.75h-1.875l0.625 0.625-6.25 15.625-1.25 5.625-2.5 4.375-3.75 11.875-3.125 5.625c-1.6672 2.0834-3.3339 4.3752-5 6.875-1.6672 2.0834-3.3339 4.7917-5 8.125l-1.25 1.875-11.25 11.25c-3.3339 3.3334-4.5839 5.8334-3.75 7.5v3.75l6.25-3.75 3.75-4.375 9.375-8.125 11.25-18.125c5.4161-8.3333 9.1661-15.625 11.25-21.875-4.7e-4 -2.4998 0.625-6.0416 1.875-10.625l3.125-7.5-0.625-3.125c-0.41719-0.41719-0.625-1.25-0.625-2.5-4.7e-4 -1.6666-0.20937-2.9166-0.625-3.75l-0.625 0.625m-68.125 5 3.75 3.125h-3.75l-1.25-1.25c-0.83438 3.3334-1.25 4.7917-1.25 4.375-4.7e-4 1.25 1.25 2.7084 3.75 4.375 2.9162 2.9167 7.2912 4.3752 13.125 4.375-3.3338-12.5-6.6672-18.958-10-19.375l-3.125-0.625-1.25 5m-183.75-1.875-3.75 3.75-1.25 3.75-3.125 2.5v1.25l-1.25-0.625-23.125 23.125c-4.5836 4.5834-6.8753 9.1667-6.875 13.75v2.5l1.25 5.625c4.1664 5 8.9581 7.5 14.375 7.5 9.1664 0 14.791-5.625 16.875-16.875l-3.125 2.5-2.5 3.125-10 1.875c-4.1669-1.6666-6.2503-4.375-6.25-8.125-3.1e-4 -5.4166 2.7081-10.833 8.125-16.25l15-15.625c2.4997-2.9166 4.3747-7.4998 5.625-13.75m85 0.625c-1.25 13.75-5.417 20.208-12.5 19.375h-0.625c-3.1e-4 3.7502 1.25 5.6252 3.75 5.625 5.4162 1.6e-4 9.1662-6.2498 11.25-18.75l-1.875-6.25m58.75 13.125c8.7495-1.6666 13.125-3.7498 13.125-6.25-4.7e-4 -1.25-1.0422-1.8748-3.125-1.875-5.0005 1.6e-4 -8.3338 2.7084-10 8.125m-267.5-8.125-9.375 1.25 4.375 8.75 6.25 5 2.5 2.5 17.5 8.75c1.25 0.83281 1.8748 1.6667 1.875 2.5-0.83437 0.83281-1.4578 1.25-1.875 1.25-1.25 1.6e-4 -3.9586-0.625-8.125-1.875-3.7502-1.6666-6.8752-2.4998-9.375-2.5-3.3334 1.6e-4 -7.7084 1.0422-13.125 3.125-5.0002 1.6667-8.7502 4.5834-11.25 8.75l-1.25 1.25v1.25c-2.0834 3.3334-3.1252 6.25-3.125 8.75-1.6e-4 3.75 0.20781 6.0417 0.625 6.875l2.5 8.125 3.75 5.625h1.875l1.875-5c4.9998 5.8334 10.625 8.75 16.875 8.75 6.6666 0 9.9998-1.875 10-5.625-1.6e-4 -2.0833-1.25-3.125-3.75-3.125l-3.125 0.625-6.875-0.625-1.875-1.875-4.375-3.125-2.5-3.75c-0.41719-2.0833-0.83281-3.75-1.25-5-1.6e-4 -1.6666-1.6e-4 -2.9166 0-3.75-1.6e-4 -9.1666 6.4581-13.75 19.375-13.75 4.9998 1.6e-4 11.041 1.25 18.125 3.75l-1.25-8.75 8.75-5.625-13.75-6.875-20-15.625m31.875 11.875c2.0831 3.7502 6.0414 6.6667 11.875 8.75l5.625 1.875c3.3331 0.83281 5.2081 1.25 5.625 1.25 2.4998 1.6e-4 5.4164-1.25 8.75-3.75l-6.25-1.25-11.25-1.25-4.375-3.125-2.5-5.625 4.375-5.625c-1.6e-4 -1.25-0.83437-1.8748-2.5-1.875-6.6669 1.6e-4 -9.7919 2.7084-9.375 8.125v2.5m186.25-5c-3.3338 4.5834-5.0003 7.2917-5 8.125-3.1e-4 0.83281 1.4578 1.8752 4.375 3.125l5.625 1.25-2.5 6.875c-1.667 3.3334-2.5003 6.6667-2.5 10-3.1e-4 2.5002 1.0406 7.9167 3.125 16.25l3.125 4.375c1.25 3.3334 2.708 5 4.375 5l6.25-8.125 13.75-9.375 3.75-6.25 3.125-1.25 0.625 8.125h1.25c3.7495 0.41719 8.1245-1.875 13.125-6.875 4.9995-5.4166 7.9162-11.042 8.75-16.875h-0.625c-4.5838 1.6e-4 -7.0838 2.5002-7.5 7.5l-2.5-0.625v-6.25l-6.25 1.875-2.5 3.75-3.125-3.75-1.25-0.625c-2.5005 1.6e-4 -4.167 1.6667-5 5l-1.875-0.625 0.625-3.125c-4.7e-4 -1.6666-0.625-2.4998-1.875-2.5l-3.125 0.625-3.125 5h-0.625v-0.625c0.41563-0.83281 0.625-2.4998 0.625-5-4.7e-4 1.6e-4 -0.83437-0.41719-2.5-1.25-1.25-1.25-3.542-2.9166-6.875-5l-7.5-5-4.375-3.125-1.875-0.625m81.875 1.875-3.125 1.875-8.125 5.625c-0.41719 0.41719-1.4594 0.625-3.125 0.625v1.875c-4.7e-4 2.0834 1.0406 3.1252 3.125 3.125 3.7495 1.6e-4 7.4995-4.3748 11.25-13.125m5 0v11.25c-4.7e-4 3.7502 1.6662 11.042 5 21.875h-1.875l1.875-0.625v-1.25l-1.875 1.25-4.375-11.25-3.75-16.875-1.25 4.375c-0.41719 0.83281-0.83437 1.4578-1.25 1.875-4.7e-4 0.41719-4.7e-4 0.625 0 0.625v10.625h-1.875c-4.7e-4 -5.4166-0.83437-8.1248-2.5-8.125-1.6672 1.6e-4 -2.5005 1.6667-2.5 5-4.7e-4 2.0834 0.20781 3.3334 0.625 3.75l-1.25 1.25 0.625-1.875-1.875 0.625c-4.7e-4 -4.1666-1.25-6.8748-3.75-8.125l0.625-0.625c-0.41719-0.41719-1.0422-0.625-1.875-0.625-2.0838 1.6e-4 -3.3338 2.7084-3.75 8.125l-1.875 9.375v2.5c-4.7e-4 2.9167 1.4578 6.4584 4.375 10.625l0.625 2.5 4.375 3.75 3.75-7.5 1.875-0.625 1.25 3.125h-0.625c1.6662 5.8334 4.7912 10.208 9.375 13.125 6.6662 5 11.875 7.5 15.625 7.5h1.25l7.5-0.625v-11.875l5-15-1.875-8.75c2.9161 1.25 5.6245 1.8752 8.125 1.875h3.75c-0.41719-6.2498-2.2922-11.667-5.625-16.25l-3.125-4.375-5.625-2.5-1.875-1.25-7.5-0.625 3.75 9.375-4.375-2.5-1.875-3.125-1.875-1.875v-2.5l-4.375-1.875 3.75 9.375-4.375-1.25-4.375-11.875m-269.38 18.75-1.25 1.25 3.75 3.75 10.625 8.125 5 3.125 3.125 3.125c8.3331 8.75 18.541 13.75 30.625 15l0.625-1.25-1.25-0.625-3.75-2.5c-3.7503-1.6666-6.8753-3.5416-9.375-5.625l-2.5-1.25c-0.83437-0.41719-1.6669-1.0422-2.5-1.875-0.83281-0.83281-2.0836-1.6666-3.75-2.5-1.6669-1.6666-6.8752-5.4166-15.625-11.25-0.83437-0.83281-2.0836-1.6666-3.75-2.5-1.25-0.83281-2.7086-2.0833-4.375-3.75l-5.625-1.25m167.5 8.75c-1.25 1.25-2.292 1.8752-3.125 1.875-0.83437 1.6e-4 -2.292-0.20781-4.375-0.625-1.667-0.83281-2.917-1.25-3.75-1.25-1.25 1.6e-4 -2.7088 0.83281-4.375 2.5l-1.875 1.25-2.5 5v9.375c4.1662-5 7.708-7.5 10.625-7.5 1.6662 0 4.1662 0.625 7.5 1.875l2.5 1.875c1.25 3.3334 1.8747 5.4167 1.875 6.25-3.1e-4 0.83281-0.20937 1.6667-0.625 2.5-3.1e-4 0.83281-0.20937 2.0834-0.625 3.75-2.917 2.9167-6.2503 4.375-10 4.375-5.0003 0-12.084-2.7083-21.25-8.125l-1.25-2.5c-1.25-1.6666-2.917-3.3333-5-5-1.667-2.0833-3.542-4.375-5.625-6.875-0.83438-0.41719-2.0836-1.0422-3.75-1.875l2.5 5 2.5 1.875c0.83281 2.9167 2.4997 5.2084 5 6.875l5.625 5.625c7.9162 9.1667 16.25 13.75 25 13.75 12.916 0 19.375-7.2916 19.375-21.875-3.1e-4 -0.83281-0.41719-2.9166-1.25-6.25l-4.375-13.125v-6.25h-1.25c-2.0838 1.6e-4 -4.5838 2.5002-7.5 7.5m-56.875 16.25-1.25-1.875-7.5-12.5-3.75 8.75-1.25 1.25c-2.0836 2.0834-4.5836 4.1667-7.5 6.25-2.917 2.0834-6.4586 4.5834-10.625 7.5-0.41719 0.41719-1.25 0.625-2.5 0.625s-2.2919 0.20781-3.125 0.625c-5.0003 1.25-8.3336 1.875-10 1.875h-5c-2.5003 0-4.3753-0.20781-5.625-0.625-9.5836-1.25-18.542-4.7916-26.875-10.625l-13.125-11.25-2.5-1.25-1.25-1.25-6.25-5.625c-3.3336-2.0833-5.4169-3.1248-6.25-3.125-0.83438 1.6e-4 -1.25 0.20781-1.25 0.625-1.6e-4 1.6e-4 0.41719 1.6667 1.25 5l1.875 4.375c0.41562 1.6667 1.0406 3.9584 1.875 6.875 1.25 2.5 2.9164 5.625 5 9.375l3.75 8.75c0.41719 0.83281 0.83281 1.875 1.25 3.125 0.41562 0.83281 0.83281 1.6667 1.25 2.5 4.5831 13.333 9.7914 20 15.625 20h8.75c1.6664 0 3.3331-0.20781 5-0.625 5.8331-0.41719 10.416-0.83281 13.75-1.25 3.7497-0.41719 6.2497-0.83281 7.5-1.25l8.75-3.125 5.625-0.625c2.4997-1.25 5.2081-2.5 8.125-3.75 3.333-1.6666 7.083-3.3333 11.25-5 11.25-5 16.875-10 16.875-15-3.1e-4 -2.0833-0.625-5-1.875-8.75m223.12-15.625-0.625 1.25-7.5 14.375-0.625 3.125 7.5-5.625c7.9161-6.25 11.875-11.25 11.875-15-4.7e-4 -2.4998-1.25-3.7498-3.75-3.75-0.41719 0.41719-0.83437 0.625-1.25 0.625l-0.625 0.625-5 4.375m-342.5 18.75 5 1.25c0.83281-0.83281 1.25-1.6666 1.25-2.5-1.6e-4 -4.1666-2.2919-6.25-6.875-6.25h-0.625c-2.9169 0.83281-4.5836 1.875-5 3.125v0.625c-1.6e-4 2.5 1.25 3.75 3.75 3.75h2.5m-35-3.75c1.25 3.3334 3.1248 4.7917 5.625 4.375h2.5l3.125-0.625c0.83281 0 2.2916 0.625 4.375 1.875l1.25 1.875 3.125 1.25 3.125 3.75c2.4998 2.0834 3.7498 3.9584 3.75 5.625-1.6e-4 0.41719-0.41719 2.7084-1.25 6.875l-5 3.125c-4.1669 2.9167-6.2502 6.0417-6.25 9.375-1.6e-4 9.5833 5.2081 14.375 15.625 14.375 6.6664 0 11.875-2.9167 15.625-8.75 1.25-1.6666 1.8748-3.5416 1.875-5.625-0.41719-1.6666-1.8752-3.75-4.375-6.25v2.5c0.83281 8.3334-2.9169 12.5-11.25 12.5-7.5002 0-11.25-2.7083-11.25-8.125l0.625-1.25 11.875-14.375 1.25-7.5c-1.6e-4 0-0.41719-0.41719-1.25-1.25-0.41719-0.83281-1.0422-2.0833-1.875-3.75-0.83437-1.25-1.4578-2.0833-1.875-2.5-0.41719-0.83281-0.625-1.25-0.625-1.25l-2.5-1.25-6.875-5c-1.6669-1.6666-7.0834-2.5-16.25-2.5-1.6669 0-2.7084 0.83281-3.125 2.5m261.88 0.625h1.25c-2.917 0-6.667 3.5417-11.25 10.625-3.3338 6.6667-7.5005 9.5834-12.5 8.75l-5-0.625c0.83281 4.5834 3.1245 6.4584 6.875 5.625h3.125l5-3.75 8.125-9.375c1.25-1.25 3.333-1.875 6.25-1.875 3.7495 0 5.6245 1.875 5.625 5.625-4.7e-4 10.833-12.084 16.25-36.25 16.25 0.83281 0-4.5838-1.25-16.25-3.75l-6.25-0.625 7.5 3.125 13.75 3.125 4.375 1.25 2.5 0.625c27.916 0 41.875-7.2916 41.875-21.875-4.7e-4 -2.0833-0.625-5.4166-1.875-10-2.917-2.9166-6.4588-4.375-10.625-4.375l-4.375 0.625-1.875 0.625m107.5 8.75c-9.5839 3.3334-16.875 7.5-21.875 12.5-1.6672 0.83281-3.5422 1.875-5.625 3.125-2.0839 1.25-4.1672 2.7084-6.25 4.375-2.5005 0.83281-3.7505 1.6667-3.75 2.5-4.7e-4 0.83281 0.20781 1.25 0.625 1.25 0.83281 0 2.9162-0.625 6.25-1.875l6.875-2.5 17.5-8.125c0.41563-0.41719 2.0828-0.625 5-0.625 7.9161 0 12.708 2.0834 14.375 6.25 0.83281 3.3334 1.25 4.7917 1.25 4.375-4.7e-4 1.25-1.0422 2.9167-3.125 5-1.6672 1.6667-2.9172 2.5-3.75 2.5h-0.625l-12.5-2.5c-0.41719-0.41719-1.8755-0.625-4.375-0.625-6.2505 0-9.1672 2.7084-8.75 8.125v3.75l2.5 3.125c0.41562-6.25 2.7078-9.375 6.875-9.375 1.25 0 2.0828 0.20781 2.5 0.625l9.375 3.125c3.3328 0.83281 4.9995 1.25 5 1.25 3.7495 0 7.2911-1.25 10.625-3.75 3.7494-2.9166 5.6244-6.25 5.625-10-6.3e-4 -2.0833-0.20937-3.3333-0.625-3.75l-5.625-10 3.125-1.25c0.41562-0.41719 0.625-0.83281 0.625-1.25-6.3e-4 -2.0833-2.5005-4.1666-7.5-6.25-2.9172-1.6666-5.4172-2.5-7.5-2.5-4.7e-4 0-1.25 0.41719-3.75 1.25l-2.5 1.25m-389.38 0c-1.25 3.3334-1.8752 6.0417-1.875 8.125v3.75l1.25 3.125 3.125 4.375 3.75 0.625-3.125-5v-9.375l-3.125-5.625m180-1.875 2.5 8.125 1.25 1.875 6.25 7.5c1.25 3.3334 1.8747 5.4167 1.875 6.25-3.1e-4 8.3334-3.7503 12.5-11.25 12.5l-15-5c-0.41719-0.41719-1.667-0.625-3.75-0.625-6.667 0-10 2.7084-10 8.125-3.1e-4 1.25 1.25 2.7083 3.75 4.375 0.41563-5.4167 2.083-8.125 5-8.125h1.25l16.875 7.5c0.83281 0.41719 2.4997 0.625 5 0.625 10.416 0 15.625-5.625 15.625-16.875-3.1e-4 -2.9166-1.8753-6.6666-5.625-11.25l-8.75-8.75-5-6.25m-7.5 11.875c-2.0836 1.6667-3.9586 2.7084-5.625 3.125-2.5003 1.6667-4.5836 2.9167-6.25 3.75-1.25 0.41719-2.0836 0.83281-2.5 1.25l-5 1.875-6.875 3.125-6.25 1.875c-2.9169 1.25-6.4586 2.5-10.625 3.75-3.7503 0.83281-7.5003 1.6667-11.25 2.5-3.7503 0.41719-7.0836 0.83281-10 1.25h-11.875l-6.875 1.25c3.3331 1.6667 7.9164 2.5 13.75 2.5 16.666 0 38.958-6.6666 66.875-20 6.2497-2.9166 9.3747-5.2083 9.375-6.875-3.1e-4 -2.0833-0.625-3.125-1.875-3.125l-5 3.75m-221.88 6.25-1.25 2.5-0.625 5.625v0.625c0.83281 2.9167 3.3333 5.2084 7.5 6.875l1.875-1.25c-2.0834-3.3333-3.1252-5.4166-3.125-6.25-1.6e-4 -4.5833 2.2916-6.875 6.875-6.875 2.0833 0 4.5833 0.83281 7.5 2.5l24.375 17.5 5.625 1.875-6.875-5-8.125-6.875c-5.8334-5-8.9584-8.125-9.375-9.375-2.0834-3.75-3.3334-5.625-3.75-5.625h-2.5l-5-3.125c-0.41719-0.41719-1.25-0.625-2.5-0.625-3.3334 0-6.8752 2.5-10.625 7.5m382.5 2.5c-2.0838 0.41719-3.9588 1.0422-5.625 1.875-1.6672 0.83281-3.3338 1.6667-5 2.5-0.41719 1.6667-4.5838 3.125-12.5 4.375h1.875c-0.83437 0-2.2922 1.0422-4.375 3.125v0.625l7.5-0.625 16.25-5c2.4995 0 4.3745-0.20781 5.625-0.625 5.4162-1.25 10.416-4.1666 15-8.75h-1.875l-4.375-1.25h-1.875c-2.0838 0-5.6255 1.25-10.625 3.75m3.75-420.62c-4.7e-4 1.6672-0.83437 2.5005-2.5 2.5-0.41719-0.41563-0.83437-0.625-1.25-0.625l-0.625-0.625v-1.25c-4.7e-4 -1.6662 0.83281-2.4995 2.5-2.5l1.875 2.5m6.875-3.125 2.5 3.125c-4.7e-4 1.25-0.83437 1.8755-2.5 1.875-1.25-1.25-1.8755-2.7078-1.875-4.375l1.875-0.625m11.875 2.5-5.625 1.875-1.25-3.125c0.83281 0.83437 1.4578 1.4594 1.875 1.875 0.41563 4.7e-4 0.83281 0.20937 1.25 0.625l-3.75-1.875 0.625-0.625h1.875l5 1.25m-265.62 23.125 3.125 3.75c-2.5002 4.7e-4 -3.7502-0.41563-3.75-1.25 0.41562-0.41563 0.625-1.25 0.625-2.5m-53.75 2.5 2.5-1.25 1.25 4.375c-0.41719 4.7e-4 -1.6669-1.0406-3.75-3.125m53.125 3.75h0.625c0.41719 4.7e-4 1.6664 0.625 3.75 1.875 2.0831 1.25 3.1247 2.0838 3.125 2.5-3.1e-4 0.41719-2.7086 0.625-8.125 0.625-0.41719 4.7e-4 -1.0422-0.41563-1.875-1.25l-0.625-1.25 0.625-1.25 0.625-0.625 1.875-0.625m-53.125 4.375-3.125-1.875 3.75 8.125 7.5 5.625 3.125 2.5-3.75-8.125c-0.83281 4.7e-4 -2.0834-1.4578-3.75-4.375l-3.75-1.875m230.62 3.75-5.625 1.875c-2.0838-2.083-3.1255-3.333-3.125-3.75-4.7e-4 -0.83281 0.20781-1.4578 0.625-1.875 0.41562 4.7e-4 1.4578 0.625 3.125 1.875 2.083 0.83437 3.7495 1.4594 5 1.875m-198.12-0.625 2.5 2.5 2.5 3.125c0.83281 3.3338 1.25 4.792 1.25 4.375-1.6e-4 0.83437-0.20781 1.4594-0.625 1.875h-1.875c-0.83438-2.083-1.4578-3.7495-1.875-5-0.41719-1.6662-1.0422-3.333-1.875-5v-1.875m193.75 6.875-4.375 0.625-2.5-0.625 0.625-1.875 6.25 1.875m-235.62 5.625 8.75 11.875-6.25-8.125 2.5 1.25-6.25-7.5 10 14.375-4.375-6.25c-3.7502-4.9995-5.8334-7.4995-6.25-7.5v0.625c0.41719 0.83437 1.8748 3.542 4.375 8.125 0.83281 0.83437 1.6666 1.667 2.5 2.5 1.25 0.83437 2.4998 1.667 3.75 2.5l-3.125-5-6.875-9.375 1.25 2.5m225-3.125 5.625 0.625-5.625 3.75v-4.375m-255.62 3.125-1.25-1.875 1.875 3.125h-1.875l1.875-1.25-1.875 0.625c4.1666 2.5005 7.4998 3.7505 10 3.75-2.0834-0.83281-3.9584-1.8745-5.625-3.125-1.25-1.25-2.7084-2.2912-4.375-3.125l0.625 0.625 0.625 1.25m116.88 0c-0.83438 0.83437-1.8753 1.667-3.125 2.5-1.25 0.41719-2.2919 1.0422-3.125 1.875-5.8336 5.0005-9.3753 7.292-10.625 6.875 1.25 0.41719 3.3331 0.41719 6.25 0l1.25 0.625 9.375-11.875m-105 11.25-1.25-0.625 0.625 2.5c-1.6e-4 1.25-0.41719 1.8755-1.25 1.875-2.0834 4.7e-4 -3.1252-0.20781-3.125-0.625-1.6e-4 -2.9162 0.625-4.3745 1.875-4.375l3.125 1.25m43.75 5.625-1.25-1.25-1.25-0.625 3.125-1.875 1.25-2.5 0.625-0.625c0.41719 4.7e-4 0.625 1.8755 0.625 5.625-1.6e-4 4.7e-4 -0.41719 0.20937-1.25 0.625-0.41719 4.7e-4 -1.0422 0.20937-1.875 0.625m15.625 6.875-3.75 7.5v-5.625c-1.6e-4 -2.9162 0.20781-4.9995 0.625-6.25-1.6e-4 4.7e-4 0.20781-1.0406 0.625-3.125 0.83281-2.083 1.6664-5.4162 2.5-10 0.41719-2.9162 0.83281-4.3745 1.25-4.375 1.25 4.7e-4 1.8748 3.7505 1.875 11.25-1.6e-4 2.0838-1.0422 5.6255-3.125 10.625m-57.5-1.875c-1.6e-4 -0.41563 0.625-0.625 1.875-0.625 1.25 4.7e-4 1.8748-1.25 1.875-3.75-1.6e-4 -1.25-0.625-1.8745-1.875-1.875-3.3334 4.7e-4 -5.0002 1.4594-5 4.375 0.41719 0.41719 1.0422 0.625 1.875 0.625 0.83281 4.7e-4 1.25 0.41719 1.25 1.25m5 4.375c9.1666 6.667 17.5 10 25 10 1.6666 3.1e-4 6.2498-1.0406 13.75-3.125 4.1664 0.83437 7.7081 1.25 10.625 1.25-1.25 1.667-3.1252 2.7088-5.625 3.125-2.5002 0.41719-5.2086 0.625-8.125 0.625-0.83438 0.83437-2.2919 1.4594-4.375 1.875h1.875l-21.25-2.5-1.875-1.25-1.875-1.875-6.25-5-1.875-3.125m-14.375 8.125-3.125 0.625c-2.0834 3.1e-4 -4.3752-0.83281-6.875-2.5-2.0834-1.6662-3.1252-2.2912-3.125-1.875-0.83281-1.6662-1.6667-3.1247-2.5-4.375-0.83281-1.25-1.6667-2.708-2.5-4.375l11.25 9.375 10.625 3.125h-3.75m291.25 1.25-3.125 1.25c-4.7e-4 -1.25-0.41719-1.25-1.25 0-0.41719 0.83437-1.25 2.0838-2.5 3.75-0.83438 1.25-1.667 2.917-2.5 5-0.41719 1.667-0.625 2.7088-0.625 3.125v0.625c0.41562 3.1e-4 1.0406-0.625 1.875-1.875l-1.25 1.25 9.375-13.125m-271.25 17.5 2.5-1.875 25.625-3.125c-0.41719-1.6662-1.0422-2.4997-1.875-2.5-1.6669 3.1e-4 -8.9584 2.0838-21.875 6.25-2.0834 0.83437-4.1669 1.4594-6.25 1.875-1.6669 3.1e-4 -2.9169 0.20937-3.75 0.625-0.83281 3.1e-4 0.41719-0.20781 3.75-0.625 3.3331-0.83281 7.0831-1.6662 11.25-2.5 4.1666-0.83281 8.1248-1.4578 11.875-1.875 4.1664-0.83281 6.4581-1.25 6.875-1.25l-23.75 5-1.875-1.875 1.25 1.25c-0.41719 0.41719-1.6669 0.625-3.75 0.625m-39.375-5-20 4.375 1.875-2.5 5.625-3.75 5-1.875 7.5 3.75m377.5 1.875h-1.875l-0.625 0.625 0.625-0.625-6.875 3.75-1.25 0.625-4.375 5-1.875-0.625 3.75-4.375 3.125-2.5 5-3.125 4.375 1.25m-389.38 5.625c0.41719-1.25-1.6e-4 -1.6662-1.25-1.25-0.83281 1.25-1.6667 1.8753-2.5 1.875l3.75-0.625m274.38-2.5 8.125 1.25c-3.1e-4 0.83437-1.8753 1.25-5.625 1.25-1.667 3.1e-4 -2.5003-0.41563-2.5-1.25v-1.25m-135.62 0.625c2.9164 4.167 4.3747 6.8753 4.375 8.125-3.1e-4 4.5838-0.41719 6.8753-1.25 6.875-0.83438 3.1e-4 -1.25-1.0406-1.25-3.125v-1.875c-3.1e-4 -0.41563-0.41719-2.2912-1.25-5.625l-0.625-4.375m245 0.625-2.5 6.25h-1.25l1.875-0.625 5-5-3.125-0.625m-108.12 3.125 5.625 1.875h-3.75l-1.875-1.875m-139.38 5 1.875 5c-0.83438-0.41563-1.4578-0.83281-1.875-1.25-0.41719-0.41563-1.0422-0.83281-1.875-1.25 0.41719-0.41563 0.625-0.83281 0.625-1.25 0.41719-0.41563 0.83281-0.83281 1.25-1.25m190.62 16.25 0.625 4.375h-2.5 0.625l-1.875-3.75-0.625-3.75-0.625-2.5 1.25-1.875 3.125 7.5m16.875-3.125 18.125 5h-8.75c-1.6672 3.1e-4 -3.9588-0.83281-6.875-2.5l-2.5-2.5m50.625 1.25-3.75 2.5-3.125 0.625 4.375-3.125h2.5m-77.5 33.75 5 10 2.5 4.375c2.4995 3.3336 4.3745 5.0003 5.625 5-4.7e-4 3.1e-4 0.20781 3.1e-4 0.625 0 0.41562-0.41719 1.0406-0.83281 1.875-1.25l7.5 10 8.125 3.75-5-0.625c-2.5005-1.6664-4.5838-2.7081-6.25-3.125l-3.75-1.875c-1.25-0.83281-2.7088-1.8747-4.375-3.125-1.25-1.25-2.917-2.9164-5-5-6.667-11.666-10-17.291-10-16.875 0.83281-0.83281 1.8745-1.25 3.125-1.25m38.75-7.5 5.625 1.25-5.625 5.625v-6.875m-43.125 20-1.875-1.25-0.625-2.5 1.25-1.875 1.25 2.5v3.125m73.125 66.25v1.875l-4.375 0.625-7.5 4.375-0.625 1.875-2.5-0.625c4.5828-5.8331 8.3328-8.5414 11.25-8.125h3.75m-6.25 6.25 3.75 0.625-8.125 5.625 2.5-1.875-3.125 1.25 5-5.625m-255 21.875 15.625 5 4.375 3.75-1.25 0.625-0.625-1.875-1.25 1.25-2.5-1.25c-0.83438-0.41563-2.2919-1.0406-4.375-1.875-2.0836-0.83281-4.7919-1.6664-8.125-2.5l-1.875-3.125m-53.125 1.25 1.875 4.375c1.6666 0.41719 2.4998 1.25 2.5 2.5-1.6e-4 0.83281-0.625 1.25-1.875 1.25-2.0834 1.6e-4 -3.5419-2.2914-4.375-6.875l1.875-1.25m-8.125 3.125 1.875 0.625 3.125 6.25h-2.5l-1.875-1.25c-0.83281-2.4998-1.25-3.5414-1.25-3.125-1.6e-4 -1.25 0.20781-2.0831 0.625-2.5m-5.625 4.375 3.75 2.5-1.25-1.25 1.875 2.5-1.875 1.25 1.25-0.625h-3.125l-0.625-4.375m338.75 0.625v3.125c-4.7e-4 3.3334-2.0839 7.0834-6.25 11.25l-1.25-1.25 7.5-13.125m-119.38 11.875-0.625-8.125c0.41562 3.7502 2.9162 7.2919 7.5 10.625l2.5 3.75 2.5 0.625-4.375 1.875h3.125v-1.875l-1.25 1.25-9.375-8.125m3.75-6.25 1.875-0.625c1.25 1.6e-4 2.083 0.83281 2.5 2.5 3.7495 2.5002 5.6245 3.9584 5.625 4.375v3.125c-4.167-1.6666-7.5003-4.7916-10-9.375m-166.25 0 0.625 2.5c-0.41719 1.6669-1.25 2.5002-2.5 2.5-1.6669 1.6e-4 -2.5002-0.83281-2.5-2.5-1.6e-4 -0.41719 0.41719-1.0422 1.25-1.875l0.625-0.625h2.5m318.12 0 0.625 0.625c-0.83438 2.5002-1.6672 3.7502-2.5 3.75-1.6672 1.6e-4 -2.5005-0.41719-2.5-1.25 0.41562-1.25 1.8745-2.2916 4.375-3.125m-310.62 3.125 1.875 2.5-2.5 1.25 0.625-0.625h-2.5l0.625-2.5 2.5 0.625-0.625-1.25m-43.75 5 1.875 2.5v-2.5c0.41719 0.83281 0.625 2.5002 0.625 5-1.6e-4 1.6669-0.625 2.5002-1.875 2.5-1.6669 1.6e-4 -2.5002-1.0422-2.5-3.125-1.6e-4 -0.83281 0.625-2.2916 1.875-4.375m10.625 0.625-1.25 6.875c-0.41719 0.41719-1.0422 0.625-1.875 0.625-1.25 1.6e-4 -1.8752-0.83281-1.875-2.5-1.6e-4 -2.0831 1.6664-3.7498 5-5m243.75 3.125 5.625 5.625c-3.7505-1.25-5.6255-3.1248-5.625-5.625m-331.25 18.125-1.25 20h-1.25l-0.625-11.875v-6.25c-1.6e-4 -7.4998 0.83281-12.083 2.5-13.75l1.875-1.875-1.25 13.75m348.12-7.5 5 2.5c0.41562 0.41719 0.625 1.6669 0.625 3.75-4.7e-4 0.83281-0.83438 1.25-2.5 1.25l1.25-0.625c-2.5005-0.41719-3.9588-2.7081-4.375-6.875m-345 3.125 3.125 1.25-1.875 11.25h-1.875l0.625-12.5m421.88 4.375 4.375 1.875h-4.375v-1.875m-85 15.625h-7.5l-0.625-2.5c0.41562-0.41719 0.83281-0.625 1.25-0.625 3.7495 1.6e-4 6.0412 1.0422 6.875 3.125m-56.25 42.5c-2.0838 3.7502-2.7088 6.2502-1.875 7.5v4.375c-2.0838-0.83281-3.1253-1.8748-3.125-3.125v-0.625l0.625-2.5 3.125-6.25 1.25 0.625m3.75-0.625 0.625 4.375-2.5 3.75v-6.875l1.875-1.25m-280 6.25c-1.25 5.4167-3.7502 8.125-7.5 8.125l-2.5-0.625-1.25-1.875 6.25-0.625 2.5-5h2.5m2.5 12.5c-1.6667 2.9167-3.3334 4.375-5 4.375-1.25 0-2.0834-0.83281-2.5-2.5l5-1.875h2.5m345.62 6.875 9.375 7.5c1.25 0.83281 1.8745 1.4578 1.875 1.875-4.7e-4 1.25-0.41719 1.875-1.25 1.875-1.25 0-2.5005-0.83281-3.75-2.5l-3.125-3.125-3.125-5.625"
         fill="#8f0005"
         id="path13" />
    </g>
  </g>
</svg>
