<?xml version="1.0" encoding="UTF-8" standalone="no"?>
<svg
   version="1.1"
   viewBox="0 0 500 500"
   id="svg19"
   sodipodi:docname="william-morris-letter-l.svg"
   inkscape:version="1.4 (e7c3feb1, 2024-10-09)"
   xmlns:inkscape="http://www.inkscape.org/namespaces/inkscape"
   xmlns:sodipodi="http://sodipodi.sourceforge.net/DTD/sodipodi-0.dtd"
   xmlns="http://www.w3.org/2000/svg"
   xmlns:svg="http://www.w3.org/2000/svg"
   xmlns:rdf="http://www.w3.org/1999/02/22-rdf-syntax-ns#"
   xmlns:cc="http://creativecommons.org/ns#"
   xmlns:dc="http://purl.org/dc/elements/1.1/">
  <metadata
     id="metadata23">
    <rdf:RDF>
      <cc:Work
         rdf:about="">
        <dc:format>image/svg+xml</dc:format>
        <dc:type
           rdf:resource="http://purl.org/dc/dcmitype/StillImage" />
      </cc:Work>
    </rdf:RDF>
  </metadata>
  <sodipodi:namedview
     pagecolor="#ffffff"
     bordercolor="#666666"
     borderopacity="1"
     objecttolerance="10"
     gridtolerance="10"
     guidetolerance="10"
     inkscape:pageopacity="0"
     inkscape:pageshadow="2"
     inkscape:window-width="1920"
     inkscape:window-height="1027"
     id="namedview21"
     showgrid="false"
     inkscape:zoom="1.686"
     inkscape:cx="255.63464"
     inkscape:cy="250.29656"
     inkscape:window-x="1080"
     inkscape:window-y="25"
     inkscape:window-maximized="1"
     inkscape:current-layer="svg19"
     inkscape:showpageshadow="2"
     inkscape:pagecheckerboard="0"
     inkscape:deskcolor="#d1d1d1" />
  <defs
     id="defs7">
    <linearGradient
       id="linearGradient847"
       x1="500"
       x2="0"
       y1="500"
       y2="-4.2633e-14"
       gradientTransform="translate(1.1924e-5)"
       gradientUnits="userSpaceOnUse">
      <stop
         stop-color="#ff6700"
         offset="0"
         id="stop2" />
      <stop
         stop-color="#ffd700"
         offset="1"
         id="stop4" />
    </linearGradient>
  </defs>
  <path
     d="m91.043 42.408s-0.8883 14.235-2.3711 18.09c-1.4828 3.8553 16.014 9.1934 16.014 9.1934l33.809 10.084 5.041 14.828 0.02539 6.418c10.892-2.4098 21.92-5.7064 23.105-5.2324 1.4828 0.59312 21.354-1.7793 21.354-1.7793s1.5183-0.13279 3.377-0.1582l1.3672-12.297c0-1e-6 45.077-20.76 46.264-20.76s0-11.27 0-11.27-11.269-7.1169-12.752-6.8203-87.781 4.1523-87.781 4.1523-38.258-4.1527-47.451-4.4492zm86.004 64.65-33.438 6.2695 0.75 188.45c4.881 0.88966 36.838 7.5352 36.838 7.5352l11.717 4.3164-1.0391-22.703-0.82031-178.27-14.008-5.6016zm-32.652 203.57 0.32617 82.012-5.9297 21.057-21.057 13.643-20.463 13.641 11.566 10.676 184.74-0.1875-3.6894-5.5957-11.713-5.4863-8.1562-10.973 8.1562-9.0449 4.5859-0.69336-42.844 1.4355-29.062-3.5586-13.641-10.084-3.6719-80.17-18.867-11.467-30.279-5.2031zm277.42 55.572c-0.26174-0.00434-0.49729 0.0098-0.70118 0.04687-3.2622 0.59312-30.25 39.738-30.25 39.738l-44.779 11.566-22.215 0.74414 1.9004 14.529-4.4258 18.615 80.197-0.08203s14.531-26.393 16.311-29.062c1.7794-2.669 11.564-21.648 11.564-21.648l6.2285-29.953s-9.9041-4.4291-13.83-4.4941z"
     fill="#f4eee6"
     id="path11" />
  <g
     id="g17"
     style="fill:#790000;fill-opacity:1">
    <g
       transform="translate(-146.86,-119.79)"
       id="g15"
       style="fill:#790000;fill-opacity:1">
      <path
         d="m146.86 619.79v-500h500v500h-500m7.5-7.5h485v-485h-485v485m7.5-7.5v-469.38h469.38v469.38h-469.38m380.62-448.75 3.125 3.125c0.41562 0.83438 0.625 2.5005 0.625 5-4.7e-4 3.7505-2.0838 5.6255-6.25 5.625-5.8338 4.7e-4 -8.9588-2.0828-9.375-6.25l-0.625-11.25c-0.41719-5.4162-5.0005-8.1245-13.75-8.125-5.8338 4.7e-4 -10.417 1.8755-13.75 5.625-2.917 3.3338-5.0005 5.0005-6.25 5-4.167 4.7e-4 -6.2505-1.25-6.25-3.75-4.7e-4 -1.6662 1.25-3.7495 3.75-6.25-2.5005-1.25-4.5838-1.8745-6.25-1.875-3.7505 4.7e-4 -5.6255 2.2922-5.625 6.875-4.7e-4 7.5005 4.1662 11.25 12.5 11.25l1.875-0.625 1.25-0.625 17.5-11.875c2.083 4.7e-4 4.9995 1.25 8.75 3.75l0.625 16.25c5.4162 6.2505 11.458 9.3755 18.125 9.375 0.41562 4.7e-4 1.6662-0.625 3.75-1.875l0.625-1.875 3.125-3.75c0.83281-0.83281 1.25-2.0828 1.25-3.75-4.7e-4 -3.3328-1.25-7.9162-3.75-13.75 1.6662-4.1662 4.1662-6.2495 7.5-6.25 2.0828 4.7e-4 3.3328 0.20938 3.75 0.625l3.125 2.5 1.875 0.625c1.25 4.7e-4 1.8745-0.625 1.875-1.875-4.7e-4 -6.2495-4.5838-9.3745-13.75-9.375-7.0838 4.7e-4 -10.625 4.3755-10.625 13.125-4.7e-4 -0.41562 0.41562 1.0422 1.25 4.375m-131.88-5.625c2.4997-2.9162 4.3747-4.3745 5.625-4.375 1.6662 4.7e-4 4.1662 0.83438 7.5 2.5 3.333 1.25 5.6247 1.8755 6.875 1.875 2.083 4.7e-4 4.1662-1.25 6.25-3.75l-10-0.625-7.5-3.75c-2.0836-1.25-3.9586-1.8745-5.625-1.875-7.917 4.7e-4 -11.667 3.9588-11.25 11.875v2.5c4.1664 5.0005 10.416 7.5005 18.75 7.5 11.25 4.7e-4 18.541-1.8745 21.875-5.625l11.25-10.625c1.25-1.25 2.9162-1.8745 5-1.875 4.1662 4.7e-4 6.2497 1.8755 6.25 5.625-3.1e-4 2.5005-2.292 5.6255-6.875 9.375-6.2503 2.0838-10.209 3.3338-11.875 3.75-1.25 0.41719-3.542 1.0422-6.875 1.875l-51.25 3.75v4.375c-3.1e-4 5.8338-3.7503 12.084-11.25 18.75h6.875c6.6664 0.41719 12.5 0.83438 17.5 1.25 5.4164 0.41719 9.7914 1.0422 13.125 1.875 12.5 2.5005 21.666 6.8755 27.5 13.125 0.41562 0.41719 0.83281 1.0422 1.25 1.875 0.83281 0.83438 1.8747 1.8755 3.125 3.125l1.875 3.125v1.875c0.83281 3.3338 1.25 5.0005 1.25 5-3.1e-4 2.0838-0.83438 3.9588-2.5 5.625-3.3338 2.5003-5.6253 3.7503-6.875 3.75-2.0838 3.1e-4 -3.3338-0.20781-3.75-0.625-4.5838-2.083-7.0838-4.7912-7.5-8.125l-5-15.625-3.125-5-1.25 1.875 1.875 14.375 1.25 5c1.6662 8.7503 7.708 13.125 18.125 13.125 4.583 3.1e-4 8.5412-1.6662 11.875-5 2.083-2.083 3.333-3.1247 3.75-3.125 0.83281 3.1e-4 1.6662 0.41719 2.5 1.25l2.5 4.375c7.4997-0.41562 11.666-1.4578 12.5-3.125v-3.125c-4.7e-4 -1.25-4.7e-4 -2.708 0-4.375-4.7e-4 -2.083-0.20937-4.583-0.625-7.5v-4.375l7.5-0.625c-2.0838-4.9995-5.0005-9.583-8.75-13.75l-5.625-3.75-3.125-1.875h-6.25l-3.125-4.375c-9.5838-2.4995-16.042-3.7495-19.375-3.75h-0.625l-21.875 1.875c-4.167 4.7e-4 -6.2503-1.4578-6.25-4.375-3.1e-4 -2.9162 1.4578-4.3745 4.375-4.375l28.75 3.125 13.125-1.25 10-2.5c2.9162-1.25 4.3747-2.083 4.375-2.5-3.1e-4 -1.25-0.625-2.4995-1.875-3.75l0.625-2.5c7.4995-2.4995 11.25-7.2912 11.25-14.375-4.7e-4 -9.1662-5.417-13.75-16.25-13.75-3.3338 4.7e-4 -6.042 1.0422-8.125 3.125l-15 11.875-3.75 1.25-4.375 1.875-3.75 0.625c-10 0.83438-15-1.4578-15-6.875v-1.25m-244.38-11.25c-0.83281 0.83438-1.25 1.4594-1.25 1.875-1.6e-4 1.6672 0.625 2.5005 1.875 2.5 2.0833 4.7e-4 3.1248-0.83281 3.125-2.5-1.6e-4 -1.25-1.25-1.8745-3.75-1.875m169.38 20 3.125 2.5 7.5-0.625-2.5-3.75c-0.41719-0.41562-0.625-1.25-0.625-2.5-3.1e-4 -4.9995 3.9581-7.4995 11.875-7.5 8.3331 4.7e-4 14.166 4.3755 17.5 13.125l4.375 1.25c-3.7503-14.583-12.292-21.875-25.625-21.875-3.7503 4.7e-4 -7.5003 1.4594-11.25 4.375-3.7503 2.5005-5.6253 5.4172-5.625 8.75-3.1e-4 4.7e-4 0.41719 2.0838 1.25 6.25m-88.125-3.125c9.9998-6.2495 15.625-9.3745 16.875-9.375 4.5831 4.7e-4 6.8748 1.0422 6.875 3.125l-1.875 10c-1.6e-4 3.3338 3.9581 5.0005 11.875 5 4.1664 4.7e-4 8.3331-1.4578 12.5-4.375l-3.125-7.5c2.4998-4.1662 6.6664-6.2495 12.5-6.25 4.5831 4.7e-4 8.5414 1.8755 11.875 5.625 0.83281 3.3338 1.25 4.7922 1.25 4.375-3.1e-4 4.7e-4 -0.41719 2.0838-1.25 6.25 5.4164-2.4995 8.1247-4.9995 8.125-7.5-3.1e-4 -9.9995-6.4586-15-19.375-15-10.417 4.7e-4 -15.625 2.9172-15.625 8.75-1.6e-4 2.5005 0.20781 4.1672 0.625 5-0.83438 3.7505-2.5002 5.2088-5 4.375h-2.5c-2.5002-1.6662-3.7502-3.3328-3.75-5-1.6e-4 4.7e-4 0.41719-1.6662 1.25-5-1.6e-4 -5.8328-3.3336-8.7495-10-8.75-10.833 4.7e-4 -17.917 5.4172-21.25 16.25m335-1.25c2.4995 4.7e-4 3.7495-1.4578 3.75-4.375-4.7e-4 -4.1662-1.6672-6.2495-5-6.25-2.5005 4.7e-4 -3.7505 1.0422-3.75 3.125-4.7e-4 1.6672 0.625 3.3338 1.875 5 1.25 1.6672 2.2911 2.5005 3.125 2.5m-403.12-11.875c-0.41719 0.41719-0.625 1.0422-0.625 1.875l0.625 1.25c1.25 2.0838 2.7083 3.1255 4.375 3.125 1.6666 4.7e-4 2.4998-0.625 2.5-1.875-1.6e-4 -2.0828-0.83281-3.1245-2.5-3.125l-4.375-1.25m203.75 20.625c0.41719-7.9162 2.708-11.875 6.875-11.875 3.333 4.7e-4 5.4164 0.20938 6.25 0.625-1.667-5.4162-4.3753-8.1245-8.125-8.125-6.2503 4.7e-4 -9.3753 5.0005-9.375 15-3.1e-4 2.5005 1.4578 3.9588 4.375 4.375m-185.62 0.625 1.25 2.5c1.6666 2.0838 3.9583 6.4588 6.875 13.125v-7.5l-1.875-5.625c-0.83281-2.4995-1.25-3.9578-1.25-4.375-1.6e-4 -7.0828 4.1666-11.041 12.5-11.875-2.9169-4.1662-5.6252-6.2495-8.125-6.25-7.0834 4.7e-4 -10.208 4.7922-9.375 14.375v5.625m398.75-8.125c-2.0839 7.0838-2.7089 11.667-1.875 13.75-4.7e-4 0.83438-4.7e-4 1.8755 0 3.125 0.41562 0.83438 0.83281 2.0838 1.25 3.75l5-1.25c-0.41719-2.0828-0.83438-3.7495-1.25-5-4.7e-4 -1.6662-4.7e-4 -2.9162 0-3.75-4.7e-4 -5.8328 2.4995-8.7495 7.5-8.75 1.25 4.7e-4 3.5411 1.0422 6.875 3.125l0.625 3.75-1.875 7.5c-10.417 4.5838-18.334 9.5838-23.75 15l-2.5 3.125c-0.41719 0.83438-0.625 2.5005-0.625 5-4.7e-4 0.83438 0.41562 2.0838 1.25 3.75 0.83281 1.667 2.0828 2.5005 3.75 2.5 4.9995 4.7e-4 7.4995-1.0406 7.5-3.125-4.7e-4 -1.25-0.41719-1.8745-1.25-1.875l-5-1.875 1.25-5c0.83281-2.083 3.7495-4.1662 8.75-6.25 9.1661-2.9162 14.791-5.4162 16.875-7.5 2.0828-2.4995 3.1245-6.8745 3.125-13.125-4.7e-4 -9.9995-4.3755-15-13.125-15-2.9172 4.7e-4 -7.0839 2.7088-12.5 8.125m-425-8.125c-2.0834 4.7e-4 -3.1252 0.625-3.125 1.875-1.6e-4 3.3338 2.4998 5.0005 7.5 5 2.0833 4.7e-4 3.1248-0.83281 3.125-2.5-1.6e-4 -2.9162-2.5002-4.3745-7.5-4.375m402.5 11.875c2.4995 4.7e-4 3.7495-1.25 3.75-3.75-4.7e-4 -2.9162-1.8755-4.3745-5.625-4.375-2.9172 4.7e-4 -4.3755 0.625-4.375 1.875-4.7e-4 4.1672 2.0828 6.2505 6.25 6.25m-356.25 3.125h0.625l0.625 10h-3.125l-3.75-1.25-1.875 5v2.5l1.25 4.375 3.125 3.75 3.125 2.5c0.83281 3.3338 1.25 4.792 1.25 4.375-1.6e-4 2.5005-2.5002 3.9588-7.5 4.375-2.0834-3.333-4.7917-5.208-8.125-5.625v8.125l-3.75-0.625c-5.8334-0.83281-8.7502 1.0422-8.75 5.625-1.6e-4 2.0838 0.625 4.5838 1.875 7.5 2.4998-4.9995 4.9998-7.4995 7.5-7.5 1.25 4.7e-4 4.1666 1.25 8.75 3.75 2.9166 1.25 4.9998 1.8755 6.25 1.875 4.1666 4.7e-4 6.8748-3.333 8.125-10l1.875 1.875 3.125 2.5 3.125 6.875c1.25 7.0838 1.8748 12.292 1.875 15.625-1.6e-4 3.7503-1.6669 8.542-5 14.375-0.83281 3.3338-2.5002 6.8753-5 10.625-5.4169 7.5003-8.9584 15.209-10.625 23.125 1.6666 3.1e-4 2.9166-1.6662 3.75-5 0.41719-1.6662 4.9998-9.583 13.75-23.75 5.8331-9.583 8.7498-20 8.75-31.25-1.6e-4 -6.6662-2.5002-13.541-7.5-20.625 1.25-2.9162 1.8748-5.208 1.875-6.875-1.6e-4 -2.4995-1.6669-6.0412-5-10.625-2.9169-4.5828-4.3752-8.3328-4.375-11.25-1.6e-4 -7.0828 3.3331-10.625 10-10.625 2.9166 4.7e-4 4.9998 0.20938 6.25 0.625-2.0834-4.5828-4.7919-6.8745-8.125-6.875-8.7502 4.7e-4 -13.542 4.1672-14.375 12.5m342.5-10c-2.5005 1.25-3.7505 2.5005-3.75 3.75v3.125c2.4995 1.25 4.7912 1.8755 6.875 1.875 2.0828 4.7e-4 3.1245-0.625 3.125-1.875-4.7e-4 -0.83281-0.20938-1.4578-0.625-1.875l-0.625-1.875c-0.83438-0.83281-2.5005-1.8745-5-3.125m-373.12 1.25h-1.25c-2.9167 4.7e-4 -4.3752 1.6672-4.375 5-1.6e-4 2.5005 1.4578 3.7505 4.375 3.75 3.3333 4.7e-4 4.9998-1.8745 5-5.625-1.6e-4 -2.0828-1.25-3.1245-3.75-3.125m395.62 5.625-0.625 2.5c1.6661 2.5005 3.3328 3.7505 5 3.75 2.0828 4.7e-4 3.1245-1.0406 3.125-3.125-4.7e-4 -3.3328-1.6672-4.9995-5-5h-0.625l-1.875 1.875m-415.62 4.375 0.625 1.25h2.5c2.9166 4.7e-4 4.3748-1.0406 4.375-3.125-1.6e-4 -2.4995-1.25-3.7495-3.75-3.75-2.5002 4.7e-4 -3.7502 1.8755-3.75 5.625m404.38 8.75v-7.5c-1.25-1.6662-2.5005-2.4995-3.75-2.5-4.1672 4.7e-4 -6.2505 1.4594-6.25 4.375-4.7e-4 4.5838 2.0828 6.6672 6.25 6.25l3.75-0.625m7.5 3.75-1.25 4.375c-3.3339 13.75-16.25 20.834-38.75 21.25l-1.25 1.875c3.7495 1.667 7.2912 2.5005 10.625 2.5 12.916 4.7e-4 23.125-5.833 30.625-17.5h0.625c2.4995-6.2495 3.7495-10.833 3.75-13.75-4.7e-4 -7.9162-2.0839-11.875-6.25-11.875-1.25 4.7e-4 -1.8755 1.25-1.875 3.75-4.7e-4 0.83438 0.20781 1.4594 0.625 1.875l1.875 3.75 1.25 3.75m-252.5-9.375-18.75 0.625c-3.3336 4.7e-4 -7.0836 0.20938-11.25 0.625-4.1669 0.41719-7.0836 0.625-8.75 0.625-1.25 4.7e-4 -3.1252 4.7e-4 -5.625 0-2.5002-0.41562-5.4169-0.83281-8.75-1.25-2.0836-0.41562-4.1669-0.625-6.25-0.625-1.6669 4.7e-4 -3.3336 4.7e-4 -5 0-4.1669 4.7e-4 -7.0834-0.20781-8.75-0.625h-1.875c-6.2502-0.41562-9.3752 0.83438-9.375 3.75-1.6e-4 2.5005 1.4578 3.9588 4.375 4.375l25.625 7.5c2.9164 0.83438 7.4998 4.3755 13.75 10.625l2.5 3.125 1.25 1.25v1.875c1.25 2.0838 1.8748 3.542 1.875 4.375l0.625 8.75 0.625 6.875c11.666-3.7495 21.666-5.6245 30-5.625h4.375c3.3331-12.083 8.5414-20.208 15.625-24.375 1.25-0.83281 3.9581-1.8745 8.125-3.125 4.5831-1.6662 10.625-3.958 18.125-6.875 7.083-3.333 10.625-6.6662 10.625-10-3.1e-4 -2.9162-4.3753-4.1662-13.125-3.75h-3.125l-36.875 1.875m-142.5 0.625c-2.0834-2.0828-3.5417-3.1245-4.375-3.125-2.9167 4.7e-4 -4.3752 1.25-4.375 3.75-1.6e-4 3.3338 2.7083 5.0005 8.125 5 0.83281 4.7e-4 1.25-0.41562 1.25-1.25-1.6e-4 -2.0828-0.20781-3.5412-0.625-4.375m6.875-2.5c-1.25 0.83438-1.8752 1.6672-1.875 2.5-1.6e-4 3.3338 1.8748 5.0005 5.625 5v-0.625c-1.6e-4 4.7e-4 -1.6e-4 -0.20781 0-0.625 0.41719-0.41562 0.83281-1.0406 1.25-1.875v-1.25c-1.6e-4 -2.0828-1.25-3.1245-3.75-3.125h-1.25m190.62 3.75-1.25 3.125-0.625 2.5c-3.1e-4 1.25-0.625 2.0838-1.875 2.5l-9.375 3.75-10.625 4.375-6.875 1.875c-12.084 5.8338-18.75 14.375-20 25.625 0.41719 0.41719 1.4578 0.625 3.125 0.625 0.41719 4.7e-4 1.0406-0.41562 1.875-1.25 0.83281-7.083 2.9164-12.083 6.25-15 3.7497-2.9162 10.416-5.6245 20-8.125 1.6664-0.83281 3.5414-1.4578 5.625-1.875 2.083-0.83281 4.3747-1.6662 6.875-2.5 7.083-4.583 10.625-8.1245 10.625-10.625-3.1e-4 -2.0828-1.25-3.7495-3.75-5m92.5 1.875-0.625 1.25c0.41562 1.25 1.0406 2.292 1.875 3.125-0.83438 0.83438-2.0838 1.667-3.75 2.5l-9.375 4.375 16.25 3.75 12.5 3.75 16.875 7.5 3.75 1.875c1.6662 0.83438 5.4162 2.7088 11.25 5.625-4.7e-4 4.7e-4 0.41562 0.41719 1.25 1.25 0.83281 0.41719 2.0828 1.25 3.75 2.5l9.375 8.75 1.25 1.875 3.75 5 1.25 3.75c2.4995 3.3338 3.7495 6.667 3.75 10l-0.625 2.5c-2.0838 3.3338-4.3755 5.0003-6.875 5-3.7505 3.1e-4 -5.6255-2.083-5.625-6.25h-1.875c-1.25 2.5003-1.8755 4.3753-1.875 5.625-4.7e-4 1.667 0.83281 3.9588 2.5 6.875 4.1662 3.7503 8.1245 5.6253 11.875 5.625 3.3328 3.1e-4 6.4578-1.6662 9.375-5 2.9162-3.333 4.1662-6.6662 3.75-10l-0.625-5 6.25 1.875 1.875-4.375c-0.83438-7.083-2.9172-12.916-6.25-17.5l-3.125-3.125c-0.83438-1.25-1.6672-2.083-2.5-2.5-0.83438-0.83281-1.4594-1.4578-1.875-1.875-1.25 4.7e-4 -3.1255-0.20781-5.625-0.625-2.5005-0.83281-5.0005-1.6662-7.5-2.5-2.5005-0.83281-4.5838-1.6662-6.25-2.5-1.6672-1.25-2.5005-2.4995-2.5-3.75-4.7e-4 -2.083 0.625-3.1245 1.875-3.125h21.875l6.875-3.125-18.75-8.75c-3.7505-1.6662-8.1255-3.1245-13.125-4.375-5.0005-1.6662-10.417-2.9162-16.25-3.75-3.3338-1.25-5.6255-1.8745-6.875-1.875-1.667-0.41562-3.9588-0.83281-6.875-1.25-2.5005-0.41562-5.6255-0.83281-9.375-1.25l-11.25-1.875h-3.75m-300 4.375c-2.5002 4.7e-4 -3.7502 1.0422-3.75 3.125-1.6e-4 3.3338 1.6666 5.0005 5 5 2.4998 4.7e-4 3.9583-0.83281 4.375-2.5l0.625-1.25c-1.6e-4 -2.9162-2.0834-4.3745-6.25-4.375m13.125 0c-0.41719 0.41719-0.625 0.83438-0.625 1.25-1.6e-4 0.41719-0.20781 0.83438-0.625 1.25-1.6e-4 1.667 4.1666 4.3755 12.5 8.125l11.25 5.625c0.41719 1.25 1.25 1.8755 2.5 1.875 0.83281-0.83281 1.25-1.6662 1.25-2.5-1.6e-4 4.7e-4 -1.25-0.625-3.75-1.875-2.5002-1.6662-6.0417-3.958-10.625-6.875l-6.25-3.75-5.625-3.125m55 0.625c-1.6e-4 3.7505 5.8331 7.0838 17.5 10 8.3331 2.0838 16.666 5.6255 25 10.625l-4.375-6.25c-5.0002-3.7495-11.042-6.8745-18.125-9.375l-20-5m367.5 16.875c0.41563-0.41562 1.6661-0.625 3.75-0.625 0.41563 4.7e-4 1.6661 0.625 3.75 1.875l1.875 5.625c2.9161-1.6662 4.3745-3.333 4.375-5-4.7e-4 -5.4162-2.9172-8.1245-8.75-8.125-4.5839 4.7e-4 -6.8755 0.83438-6.875 2.5-4.7e-4 1.25 0.625 2.5005 1.875 3.75m-9.375-3.75-0.625 3.125c0.41563 0.83438 1.0406 1.8755 1.875 3.125 0.83281 1.25 1.6661 2.7088 2.5 4.375l3.75 5c1.6661 1.667 2.4995 3.7505 2.5 6.25v0.625c-1.25 2.5005-4.7922 3.7505-10.625 3.75-0.83437 4.7e-4 -5.2089-1.6662-13.125-5l-2.5-1.875-10-6.875-15.625 6.25-3.125 0.625 3.125 2.5 7.5 5.625 5.625 3.75 2.5 3.125 9.375 7.5 8.125 3.75 10 0.625h3.125l-0.625-4.375 1.25-1.875c8.3328-4.583 12.5-9.583 12.5-15-4.7e-4 -4.583-1.25-8.1245-3.75-10.625l-5.625-4.375-3.125-5c-0.41719-4.1662-1.6672-6.2495-3.75-6.25l-1.25 1.25m-434.38 5c-0.41719 0.83438-0.625 2.5005-0.625 5-1.6e-4 1.667 0.625 3.3338 1.875 5 1.25 1.667 3.1248 2.5005 5.625 2.5 4.1666 4.7e-4 6.2498-1.8745 6.25-5.625-1.6e-4 -0.41562-0.20781-0.625-0.625-0.625-2.5002 4.7e-4 -4.1667 0.20938-5 0.625-1.25-0.41562-1.8752-1.25-1.875-2.5 0.41719-0.41562 0.625-0.83281 0.625-1.25-1.6e-4 -0.83281 0.20781-1.4578 0.625-1.875 2.0833-3.333 6.6666-4.9995 13.75-5 1.6666 4.7e-4 3.5416 0.41719 5.625 1.25 2.4998 0.41719 4.1666 0.625 5 0.625 0.41719 4.7e-4 1.0422-0.41562 1.875-1.25l-3.125-1.875c-4.5834-1.6662-8.7502-2.4995-12.5-2.5-7.5002 4.7e-4 -13.333 2.5005-17.5 7.5m302.5-4.375 6.875 2.5 7.5 2.5c6.2495 2.0838 12.291 6.2505 18.125 12.5 1.6662 2.917 2.4995 5.2088 2.5 6.875-4.7e-4 8.3338-4.167 12.5-12.5 12.5-2.917 3.1e-4 -4.792-0.20781-5.625-0.625 4.1662 5.0003 8.1245 7.5003 11.875 7.5 9.9995 3.1e-4 15-5.4162 15-16.25-4.7e-4 -5.4162-2.917-10.625-8.75-15.625-2.917-2.9162-5.417-4.583-7.5-5l-16.25-6.25-10-1.875-1.25 1.25m-223.75 13.125-1.875 7.5 1.875 13.75 1.875-5.625 1.25-10c0.41719-4.9995 3.3331-7.4995 8.75-7.5 0.83281 4.7e-4 1.8748 0.20938 3.125 0.625 1.6666 4.7e-4 3.5414 0.20938 5.625 0.625-1.6669-5.4162-4.5834-8.1245-8.75-8.125-4.1669 4.7e-4 -8.1252 2.917-11.875 8.75m95.625 8.125v1.875c-3.1e-4 0.83438 1.0406 1.667 3.125 2.5l5.625-0.625 5-0.625c7.0831-1.25 13.541-4.7912 19.375-10.625l6.25-7.5-3.75-1.25c-0.83437 4.7e-4 -3.542 2.292-8.125 6.875-4.1669 4.167-11.042 7.0838-20.625 8.75l-5 0.625h-1.875m58.125 1.25 1.875 3.125c4.1664 7.5005 10.208 12.084 18.125 13.75l-1.875-2.5-3.75-1.875c-6.667-3.7495-10-8.333-10-13.75-3.1e-4 -5.4162 3.333-8.1245 10-8.125h1.25c-1.667-2.9162-3.3336-4.3745-5-4.375-7.917 4.7e-4 -11.875 2.5005-11.875 7.5-3.1e-4 0.83438 0.41719 2.917 1.25 6.25m-135-1.875c-6.2502 5.0005-11.042 10.417-14.375 16.25-0.41719 0.83438-1.0422 1.667-1.875 2.5-0.83281 0.83438-1.6669 1.8753-2.5 3.125l5.625-4.375 20.625-18.125 7.5-5 4.375-3.125c-2.0836-0.41562-3.3336-1.0406-3.75-1.875 1.6664 4.7e-4 -3.5419 3.542-15.625 10.625m8.75 5-8.125 6.875-20.625 18.75-6.25 6.875c-3.3334 4.5838-6.6669 9.5838-10 15-3.3334 5.417-6.6669 11.042-10 16.875-1.25 2.5003-2.5002 5.0003-3.75 7.5-0.83281 2.5003-1.6669 5.0003-2.5 7.5l-4.375 16.25c1.25 2.5003 1.8748 5.0003 1.875 7.5l-0.625 5.625 2.5-5.625 8.75-28.125 8.125-15.625 23.75-29.375 31.875-26.25c4.1664-2.4995 6.2498-4.7912 6.25-6.875v-1.25l-0.625-1.25-2.5-3.75-13.75 9.375m-92.5-6.875c-1.6667 2.917-2.5002 5.2088-2.5 6.875v3.75c-6.6667 2.917-10 6.2505-10 10l0.625 3.125 5 0.625h3.125l0.625 1.25v-1.25 4.375l-1.875 3.75 1.25 4.375 6.25-7.5c0.41719-1.25 2.9166-1.8747 7.5-1.875 4.1666 3.1e-4 8.1248 1.8753 11.875 5.625l3.75 5v-1.25c0.83281-5.4162-1.4578-8.958-6.875-10.625l-0.625-1.875 3.75-0.625c-1.6e-4 -2.9162-1.4578-4.583-4.375-5l-5-0.625v-0.625l-0.625-2.5 3.75-0.625v-1.25l-3.125-3.125-2.5-1.875-1.25-1.25-8.75-6.875m205.62 28.125-1.25-9.375c2.4997-2.4995 4.583-3.7495 6.25-3.75 6.6664 4.7e-4 9.9997 3.3338 10 10-3.1e-4 0.41719-0.20937 1.25-0.625 2.5-3.1e-4 0.83438-0.20781 2.292-0.625 4.375-0.83437 5.0003-3.542 10.209-8.125 15.625-2.5003 1.25-3.7503 2.7088-3.75 4.375-3.1e-4 0.83438 0.625 1.25 1.875 1.25l3.75-3.125 5-3.75c4.9997-3.7497 7.4997-10.208 7.5-19.375-3.1e-4 -12.916-5.417-19.375-16.25-19.375-8.3336 4.7e-4 -12.5 3.7505-12.5 11.25-3.1e-4 4.167 2.9164 7.292 8.75 9.375m-80-16.25c-10.834 2.0838-18.75 4.5838-23.75 7.5l-5.625 3.75-20 13.75-3.75 5-5.625 3.75-2.5 4.375c4.1666-1.25 6.8748-2.2912 8.125-3.125 1.25-1.25 3.9581-4.1662 8.125-8.75 2.0831-2.4997 5.2081-4.7912 9.375-6.875 4.1664-2.4997 8.7498-4.583 13.75-6.25 5.4164-2.083 10.833-3.7497 16.25-5 5.4164-1.25 10.416-1.8747 15-1.875 16.25 3.1e-4 29.166 4.167 38.75 12.5l1.25 0.625 1.875 1.25c2.4997 3.3338 3.7497 6.8753 3.75 10.625-0.83437 7.0838-3.9586 10.209-9.375 9.375h-5.625c-0.41719-0.83281-0.83281-1.6662-1.25-2.5-0.41719-1.25-0.83437-2.9162-1.25-5h-1.25l-1.25 4.375 0.625 5 0.625 1.875 2.5 4.375 3.75 3.125c2.9164 1.25 5.2081 1.8753 6.875 1.875 9.9997 3.1e-4 15.625-3.5412 16.875-10.625l1.25-5.625h11.25c0.83281 3.1e-4 1.25-0.625 1.25-1.875-3.1e-4 -7.083-2.7086-13.333-8.125-18.75-4.167-4.9997-8.7503-8.333-13.75-10l-4.375-2.5-3.125-1.25-6.875-2.5-4.375-0.625c-0.41719-0.41562-1.0422-0.625-1.875-0.625-1.25 4.7e-4 -2.0836-0.20781-2.5-0.625-5.0003-1.6662-9.5836-2.4995-13.75-2.5l-2.5 0.625-18.75 3.125m-98.75 10 3.125 3.125c0.83281-4.583 2.4998-6.8747 5-6.875l3.75 0.625c1.6666 3.3338 2.4998 6.4588 2.5 9.375-1.6e-4 5.8338-0.83281 11.042-2.5 15.625 4.9998-5.4162 7.4998-12.708 7.5-21.875-1.6e-4 -8.7495-3.1252-13.125-9.375-13.125-7.5002 4.7e-4 -10.833 2.917-10 8.75v4.375m360.62-10 0.625 3.125v1.25l5 4.375 3.125 1.875 3.75 3.75 15 20 4.375 5.625 1.875 1.25c4.5828 3.3338 8.1245 5.0003 10.625 5 3.3328 3.1e-4 7.0828-2.083 11.25-6.25-11.25-3.7497-18.75-9.3747-22.5-16.875-2.0839-3.7497-4.5839-5.6247-7.5-5.625h-1.25l-1.875-0.625-3.125-1.25-3.125-1.875-10.625-8.75-3.75-3.75-1.875-1.25m-48.125 8.125 0.625 2.5c-4.7e-4 2.917-1.25 5.2088-3.75 6.875-5.0005 2.5003-8.7505 3.7503-11.25 3.75-2.917 3.1e-4 -6.667-0.625-11.25-1.875-4.5838-1.25-8.1255-1.8747-10.625-1.875-0.83437 3.1e-4 -2.0838 0.20938-3.75 0.625-1.667 3.1e-4 -3.542 0.20938-5.625 0.625l6.875 1.25c5.4162 0.41719 9.3745 1.0422 11.875 1.875l15.625 4.375c0.83281 0.41719 2.708 0.625 5.625 0.625 7.4995 3.1e-4 11.25-3.1247 11.25-9.375-4.7e-4 -2.9162-1.8755-6.0412-5.625-9.375m50.625 1.875c0.41563 2.5003 0.20781 5.2088-0.625 8.125-0.83437 2.5003-1.25 3.9588-1.25 4.375-4.7e-4 -0.41562 0.41563 0.625 1.25 3.125l5 6.875 4.375 13.125-0.625 8.75v5.625l-2.5 9.375-1.25 3.75-3.125 5c0.41563 0.41719 0.83281 0.83281 1.25 1.25 0.41563 3.1e-4 0.83281 0.20938 1.25 0.625 4.1661 3.1e-4 7.9161-2.4997 11.25-7.5 1.25-1.6664 1.8745-3.958 1.875-6.875l1.25-12.5c-4.7e-4 -0.83281 0.41563-1.25 1.25-1.25l3.125 0.625v-6.875c-4.7e-4 -6.6662-5.4172-16.666-16.25-30l-6.25-5.625m-271.25 1.875-5.625 1.875v34.375l1.25 151.88 6.875 1.25c2.0831 0.41719 3.7498 0.83281 5 1.25 1.25 1.6e-4 2.0831 1.6e-4 2.5 0 1.25 0.41719 2.9164 0.625 5 0.625l11.25 3.125 4.375 0.625-0.625-193.12c-3.1e-4 -1.6662-0.625-2.708-1.875-3.125-1.25-0.83281-3.7503-1.0406-7.5-0.625h-3.125l-9.375 0.625-8.125 1.25m321.88 0.625v1.25c-4.7e-4 5.417-2.9172 7.7088-8.75 6.875h-5.625l-1.25 0.625 8.125 4.375h2.5c5.4161 3.1e-4 8.1245-2.083 8.125-6.25-4.7e-4 -1.25-1.0422-3.5412-3.125-6.875m-289.38-0.625v11.25l0.625 183.75c0.41719 2.5002 2.2914 3.7502 5.625 3.75l-1.25-193.75c-0.41719-2.9162-2.0836-4.583-5-5m-140 5-0.625 0.625h-3.75l3.125 35-0.625 6.875v2.5l0.625 1.25-0.625 11.875-1.875 3.75-3.125 18.75-6.875 29.375-1.25 10-1.875 6.25-3.125 23.75h1.25l3.75-6.875 2.5 1.25-5.625 8.75-1.875 4.375-0.625 10 2.5-3.75 1.875 1.25-1.875 4.375c-2.5002 3.3336-3.7502 6.4586-3.75 9.375l0.625 4.375 0.625 0.625 2.5-4.375 1.875 1.875-1.875 4.375-3.125 5.625 0.625 8.75 2.5-4.375 1.875 2.5-3.125 8.75-0.625 1.25 0.625 6.875 1.875-1.875 1.25-3.125 1.875 1.875-0.625 1.875-1.25 3.125-1.25 4.375-0.625 3.125 1.25 7.5c0.83281-3.7498 2.2916-6.0416 4.375-6.875v1.875l-3.125 11.25 1.875 10.625 1.875-6.25 2.5 1.25c-1.6667 2.9169-2.5002 6.2502-2.5 10-1.6e-4 2.5002 1.0422 6.4584 3.125 11.875l1.25 0.625v-8.125l2.5-0.625-0.625 16.875 1.875 4.375 1.25-6.875 2.5 0.625-0.625 14.375c1.25-0.41719 3.5416-0.625 6.875-0.625h3.75c4.1666 1.6e-4 6.4583-0.20781 6.875-0.625 0.83281-0.83281 2.0831-3.7498 3.75-8.75 0.41719-2.9166 2.2916-6.0416 5.625-9.375l13.75-14.375c-0.83281 0.83281-1.4578 1.25-1.875 1.25-1.25 1.6e-4 -1.6e-4 -3.9583 3.75-11.875 0.83281-1.25 1.6666-2.4998 2.5-3.75 0.83281-1.25 1.6666-2.4998 2.5-3.75l-3.75 1.875h-2.5l2.5-6.25 3.125-6.25c2.0831-4.9998 3.1248-10.208 3.125-15.625-1.6e-4 -3.3331-1.0422-9.1666-3.125-17.5 0.41719 1.25 0.20781 2.0836-0.625 2.5-0.83281 0.41719-2.2919 0.83438-4.375 1.25-1.6669 0.41719-3.7502 1.4578-6.25 3.125-2.0834 1.25-4.3752 3.3334-6.875 6.25-2.0834 2.5002-3.7502 3.7502-5 3.75l-2.5-4.375c-12.083 12.083-18.333 21.458-18.75 28.125-1.6e-4 4.5834-0.625 6.8752-1.875 6.875-1.6667 1.6e-4 -2.5002-0.83281-2.5-2.5l0.625-3.125c0.41719-4.1666 0.625-7.2916 0.625-9.375 0.41719-2.0831 0.625-3.1248 0.625-3.125 2.4998-3.3331 3.9583-5.2081 4.375-5.625l16.875-28.75c1.25-1.25 2.2916-5.6248 3.125-13.125l-6.875 1.25v-2.5c0.83281-0.83281 2.2916-2.0831 4.375-3.75 2.0831-1.6664 4.5831-4.1664 7.5-7.5 1.6666-1.6664 2.4998-3.3331 2.5-5v-11.25l0.625-2.5-9.375 1.25-8.125 8.125-2.5-0.625-0.625-7.5-6.875 3.75c-7.0834 10-11.25 17.709-12.5 23.125l-2.5-7.5c1.25-10.833 5.8333-22.083 13.75-33.75 7.9166-12.916 11.875-24.166 11.875-33.75-1.6e-4 -2.9164-0.625-6.0414-1.875-9.375l0.625-3.125c-1.6e-4 -2.083-1.0422-3.1247-3.125-3.125l-5.625 9.375c-0.41719 0.41719-0.83281 0.625-1.25 0.625-1.25 3.1e-4 -1.8752-0.625-1.875-1.875-1.6e-4 -1.6664 1.0422-3.5414 3.125-5.625 2.0833-2.083 4.9998-7.4997 8.75-16.25l1.25-6.875c0.41719-2.083 0.625-3.7497 0.625-5 0.41719-1.6664 0.625-2.9164 0.625-3.75l-0.625-5.625-3.125-12.5c-0.83281 0.83438-1.6667 2.5003-2.5 5-0.83281 2.5003-1.6667 3.7503-2.5 3.75-0.83281 3.1e-4 -1.25-0.41562-1.25-1.25-1.6e-4 -0.83281 0.41719-2.083 1.25-3.75 0.83281-2.083 1.25-3.7497 1.25-5-1.6e-4 3.1e-4 -0.41719-2.083-1.25-6.25l-3.125-11.875-1.25-6.25-3.125-6.25m258.12 4.375c1.6662 0.83438 2.9162 1.4594 3.75 1.875 1.25 0.41719 2.2912 0.83438 3.125 1.25 4.1662 1.667 9.583 5.0003 16.25 10-4.5838-2.4997-8.7503-4.583-12.5-6.25-3.7503-2.083-10.417-3.958-20-5.625l-14.375 2.5-1.875 1.25h8.125c8.333 3.1e-4 14.583 1.4594 18.75 4.375-8.3338-2.083-15-3.1247-20-3.125-6.2503 3.1e-4 -11.25 0.83438-15 2.5-9.5836 2.5003-16.459 5.8338-20.625 10l-1.25 0.625-1.875 2.5-3.125 0.625 0.625 1.25-10 5.625-5 5-5 4.375-3.125 5 1.875 0.625-1.25 0.625-1.875 3.125-6.25 4.375-3.125 6.875 15-6.25 21.875-6.25c-0.83281 1.667-1.4578 2.7086-1.875 3.125l-6.25 0.625-15 4.375c-4.1669 0.83281-7.5003 2.5003-10 5l-8.75 5.625 1.875-0.625c-2.5003 3.7503-4.1669 8.1253-5 13.125l5.625-5 4.375-3.125 3.75-3.125 6.875-2.5 0.625 1.875-5 2.5c3.333-0.83281 4.9997-1.6664 5-2.5l-0.625-1.875c0.41719 0.41719 0.625 1.0422 0.625 1.875-3.1e-4 2.0836-2.0836 3.3336-6.25 3.75l-3.75 2.5c-11.25 9.5836-16.875 21.042-16.875 34.375 1.6664-2.0831 2.7081-3.9581 3.125-5.625 9.9997-18.333 21.875-27.5 35.625-27.5 2.9164 3.1e-4 4.7914 0.20938 5.625 0.625l23.125 7.5c2.083 0.41719 3.958 0.83438 5.625 1.25 1.6664 3.1e-4 3.5412 3.1e-4 5.625 0 6.2497 3.1e-4 9.3747-1.25 9.375-3.75-3.1e-4 -2.4997-1.4594-5.208-4.375-8.125l6.875 1.875 3.125 3.75c1.6662 1.667 7.083 3.1253 16.25 4.375 1.6662 3.1e-4 3.5412 0.20938 5.625 0.625 2.083 3.1e-4 4.583 0.20938 7.5 0.625-0.41719 0.41719-0.625-3.7497-0.625-12.5-3.1e-4 -12.5-2.7088-20.833-8.125-25-1.25-1.25-2.7088-2.2914-4.375-3.125-1.25-1.25-2.7088-2.2914-4.375-3.125h1.25l-1.25-1.875 3.75-5.625-8.125-5-8.125-1.25c-1.25-0.41563-2.917-0.625-5-0.625h-3.125c-3.7503 3.1e-4 -8.1253 0.83437-13.125 2.5h-4.375 2.5c-8.3336 1.25-11.875 1.8753-10.625 1.875-1.25 3.1e-4 -1.8753-0.41563-1.875-1.25-3.1e-4 -1.25 1.6664-2.9162 5-5 11.666-4.583 20.833-6.8747 27.5-6.875 7.9162 3.1e-4 16.041 2.292 24.375 6.875 1.6662 0.41719 3.5412 1.4594 5.625 3.125l4.375 3.125 3.125 3.125-3.75-10-10.625-10.625c3.7497 1.25 6.458 3.3338 8.125 6.25l5 5c0.83281 1.25 1.4578 2.917 1.875 5 0.83281 1.667 1.6662 3.542 2.5 5.625v3.125c-4.7e-4 1.667 0.20781 3.1253 0.625 4.375-4.7e-4 1.667 0.625 5.2086 1.875 10.625l0.625 2.5 1.875 5.625 3.125 5.625c0.41563 3.7503 1.6662 5.6253 3.75 5.625 2.083 3.1e-4 4.1662-1.6664 6.25-5 2.083-3.333 3.333-4.9997 3.75-5 0.83281 3.1e-4 1.6662 0.41719 2.5 1.25 0.41563 0.83438 0.625 2.292 0.625 4.375-4.7e-4 0.83438-1.25 5.0003-3.75 12.5-0.83437 3.3336-1.25 5.2086-1.25 5.625-4.7e-4 4.167 2.2912 9.7919 6.875 16.875l3.75 5.625 1.875 7.5c18.333-8.3331 28.333-20.416 30-36.25 5.8328 3.1e-4 8.7495-0.83281 8.75-2.5-4.7e-4 -1.6664-0.20937-2.9164-0.625-3.75l-0.625-6.875v-3.75c0.83281-11.25-3.3338-20.833-12.5-28.75l-5-5.625-1.875-3.75 5 2.5 9.375 8.125 7.5 10.625 3.125 6.25 1.875 6.25 1.875 7.5c1.25 4.5836 1.8745 10.417 1.875 17.5-4.7e-4 7.0836-0.625 12.084-1.875 15l-1.875 6.875-1.875 7.5c4.1662-2.9164 7.0828-9.5831 8.75-20h1.875l0.625 5 1.875-4.375 0.625-9.375 1.875-1.25v-4.375l0.625-7.5v-3.125c0.41563-4.1664-3.5422-11.041-11.875-20.625l-2.5-5-5.625-5-3.125-4.375-4.375-3.125-5-5-3.75-2.5-3.75-3.125-3.125-2.5c-3.3338-2.4997-7.292-4.1662-11.875-5l-1.875-1.25v-0.625l-3.75-0.625-2.5-1.25v3.75c-1.667 3.1e-4 -2.917-0.20781-3.75-0.625-0.41719-0.83281-1.0422-1.4578-1.875-1.875-0.41719-0.83281-1.25-1.6662-2.5-2.5-1.25-0.83281-3.1255-1.4578-5.625-1.875l-6.875-0.625 3.75 3.75 1.875 0.625 6.875 5 1.875 1.875 4.375 6.25 1.875 3.125-6.25-3.75c-1.667-1.6662-3.542-3.333-5.625-5-2.0838-1.6662-4.167-3.5412-6.25-5.625l-3.125-1.875-1.875-1.875-6.25-3.125-5-1.875-13.75-0.625-3.75 0.625m-251.88 3.125 1.875 1.875-0.625-5.625-2.5-0.625 1.25 4.375m68.75 1.25-3.125 3.125-1.25 0.625v1.875c5.8331-3.333 9.7914-4.9997 11.875-5 1.6664 3.1e-4 4.1664 1.0422 7.5 3.125l0.625 2.5v0.625c-1.6e-4 1.667 0.41719 2.5003 1.25 2.5 2.9164 3.1e-4 4.3748-2.083 4.375-6.25-1.6e-4 -4.1662-1.6669-6.6662-5-7.5-0.83437-0.41563-2.0836-0.625-3.75-0.625-2.5002 3.1e-4 -6.6669 1.667-12.5 5m-63.75 0.625-0.625 3.125-0.625 14.375 0.625 3.75 2.5-1.875 1.875 2.5h1.25l-0.625-9.375c-1.6e-4 -2.9162-1.4578-7.083-4.375-12.5m322.5 7.5 15 13.125 10 10.625c4.1662 2.917 7.9162 4.3753 11.25 4.375 7.9162 3.1e-4 11.875-3.333 11.875-10-4.7e-4 -4.583-3.1255-7.9162-9.375-10 1.6662 1.667 2.4995 3.3338 2.5 5-4.7e-4 0.83437-1.0422 2.917-3.125 6.25l-4.375 0.625c-2.9172 3.1e-4 -8.5422-3.5412-16.875-10.625l-2.5-1.25c-4.5838-4.583-9.3755-7.2912-14.375-8.125m-265 3.75h-4.375l-17.5 11.25-4.375 6.25-4.375 3.125-7.5 14.375-3.125 5.625-0.625 6.25-0.625 1.875 2.5-0.625c0.41719-1.25 1.0422-2.708 1.875-4.375 0.83281-2.083 1.6666-4.1664 2.5-6.25l6.875-10c7.0831-9.583 16.875-14.375 29.375-14.375 4.9998 3.1e-4 9.5831 2.0838 13.75 6.25h1.25l-0.625 1.25c1.25 0.83437 1.8748 2.0836 1.875 3.75v2.5c-1.6669 5.417-5.4169 8.1253-11.25 8.125-1.6669 3.1e-4 -2.9169-0.41719-3.75-1.25l-11.875-5.625h-1.875c-5.0002 3.1e-4 -7.5002 2.292-7.5 6.875-1.6e-4 2.5003 1.4578 3.9586 4.375 4.375 0.83281-4.583 2.4998-6.8747 5-6.875 0.41719 3.1e-4 3.5416 1.667 9.375 5 5.4164 2.917 9.7914 4.3753 13.125 4.375 4.1664 3.1e-4 7.7081-1.6664 10.625-5 3.3331-3.333 4.9998-7.2914 5-11.875-1.6e-4 -2.4997-0.83437-5.208-2.5-8.125l-4.375-3.75-1.25-1.875c3.3331-1.25 4.9998-2.4997 5-3.75-1.6e-4 -2.4997-2.5002-4.3747-7.5-5.625-0.41719-0.41563-1.25-0.625-2.5-0.625-1.25 3.1e-4 -2.0836-0.20781-2.5-0.625-7.0836-1.6662-11.042-2.083-11.875-1.25l-0.625 0.625m336.88 5.625v3.75l1.875 3.75 4.375 11.25 1.875 5.625c0.41563 0.83437 0.83281 3.3336 1.25 7.5 0.83281 4.167 2.0828 9.792 3.75 16.875l0.625 3.75 0.625 10v8.75c0.41563 9.5836-0.83437 19.584-3.75 30l-1.25 3.75c-4.7e-4 3.3336-0.20937 5.6253-0.625 6.875 7.0828 2.9169 11.041 4.3753 11.875 4.375 0.83281 3.1e-4 1.25-1.6664 1.25-5 0.41563-1.6664 1.0406-5.4164 1.875-11.25 1.25-6.2497 1.6661-12.291 1.25-18.125v-7.5c-2.5005-41.666-10.834-66.458-25-74.375m15 6.875v4.375c2.9161 6.2503 6.0411 9.3753 9.375 9.375 4.1661 3.1e-4 6.2494-2.4997 6.25-7.5l-0.625-1.875c-2.9172 1.667-5.0005 2.5003-6.25 2.5-2.0839 3.1e-4 -4.5839-2.083-7.5-6.25l-1.25-0.625m-16.25 5v9.375c4.1661 10 6.2495 18.542 6.25 25.625-4.7e-4 12.084-3.1255 19.584-9.375 22.5l-6.25 0.625-4.375-1.875c-2.0839-5.4164-3.1255-8.7497-3.125-10-4.7e-4 -3.7497 2.7078-5.6247 8.125-5.625 2.0828 3.1e-4 4.1661 1.667 6.25 5 0.41563-1.6664 0.625-2.9164 0.625-3.75 0.41563-1.25 0.625-2.2914 0.625-3.125-4.7e-4 -3.7497-1.4594-5.6247-4.375-5.625-11.667 0.83437-17.084 6.2503-16.25 16.25l0.625 8.125 2.5 6.875c1.6661 2.5003 4.1661 3.7503 7.5 3.75h1.875v9.375l-0.625 1.875c-4.7e-4 1.6669 0.83281 2.5003 2.5 2.5l1.875-0.625 1.875-1.875c1.25-0.83281 2.7078-2.0831 4.375-3.75l7.5-6.875c2.4995-2.9164 3.7495-9.1664 3.75-18.75-4.7e-4 -17.916-3.9589-34.583-11.875-50m-427.5 5.625v1.875l-1.25 1.25-0.625 1.25 0.625 9.375c-1.6e-4 3.7503 1.0422 6.042 3.125 6.875v-6.875c-0.83281-7.083 1.25-10.625 6.25-10.625 2.0833 3.1e-4 3.7498 1.4578 5 4.375v5.625c-1.6e-4 8.3336-1.4578 18.542-4.375 30.625-0.83281 4.167-1.25 6.0419-1.25 5.625l-2.5 14.375-1.25 4.375 0.625 9.375 1.25 0.625 8.75-46.875 2.5-8.75c0.83281-4.1664 1.25-7.083 1.25-8.75v-6.875c-1.6e-4 -9.1664-3.1252-13.75-9.375-13.75h-1.25l-7.5 6.875m176.88 0.625-3.125 2.5v3.75c1.6664-1.25 3.1247-1.8747 4.375-1.875 1.25 3.1e-4 2.0831 0.20937 2.5 0.625 1.25 3.3336 1.8747 5.417 1.875 6.25-3.1e-4 -2.083-0.41719-2.083-1.25 0-0.41719 1.667-1.0422 5.417-1.875 11.25h-0.625l-3.125 11.875v7.5l2.5-6.25 1.875-5.625 8.75-20c0.41719-0.41719 0.625-1.4578 0.625-3.125-3.1e-4 -6.2497-2.5003-9.3747-7.5-9.375-2.0836 3.1e-4 -3.7503 0.83437-5 2.5m124.38 13.125-0.625 0.625v3.125l2.5 2.5c0.41563-1.25 0.625-2.083 0.625-2.5 0.41563-0.83281 0.625-1.25 0.625-1.25-4.7e-4 -0.83281-1.0422-1.6664-3.125-2.5m-238.75 1.25c-2.5002 1.25-4.3752 3.542-5.625 6.875 3.3331-1.25 5.8331-2.083 7.5-2.5 2.0831-0.83281 3.1248-1.25 3.125-1.25-1.6e-4 -2.083-1.6669-3.1247-5-3.125m-5 11.25c-1.6669 0.83281-3.3334 1.8753-5 3.125-1.6669 1.25-3.3334 2.917-5 5l-1.25 5c10.833-9.583 20.625-14.375 29.375-14.375 4.1666 3.1e-4 9.7916 2.917 16.875 8.75-1.6669-7.9164-7.9169-11.875-18.75-11.875-5.4169 3.1e-4 -10.833 1.4594-16.25 4.375m245-1.25v3.75c2.4995 0.83438 3.5412 1.25 3.125 1.25 2.083 3.1e-4 3.1245-1.0422 3.125-3.125-4.7e-4 -2.4997-1.4594-3.7497-4.375-3.75h-0.625l-1.25 1.875m-199.38 0c-3.7502 2.0836-5.6252 3.9586-5.625 5.625-1.6e-4 3.7503 1.8748 5.6253 5.625 5.625 3.3331 3.1e-4 4.9998-2.083 5-6.25-1.6e-4 -2.4997-1.6669-4.1664-5-5m-36.875 5.625-5.625 1.25c-0.41719 0.83281-0.625 2.292-0.625 4.375-1.6e-4 1.25 0.83281 1.8753 2.5 1.875 1.6666 3.1e-4 2.9166-2.4997 3.75-7.5m331.25 2.5c0.41563 1.25 0.625 3.3336 0.625 6.25-4.7e-4 12.917-4.7922 23.542-14.375 31.875-7.9172 4.1669-14.584 6.2503-20 6.25h-6.875l-8.125-0.625h-3.125c-0.83437 3.1e-4 -1.25 0.625-1.25 1.875-4.7e-4 2.9169 0.20781 4.7919 0.625 5.625-0.83437 0.41719-1.4594 0.83437-1.875 1.25-0.41719 3.1e-4 -0.625 3.1e-4 -0.625 0-0.83437-0.41719-1.667-0.83281-2.5-1.25-0.83437-0.83281-2.0838-1.6664-3.75-2.5-1.25-0.41719-5.6255-1.0422-13.125-1.875-0.83437-0.41719-2.7088-0.625-5.625-0.625-2.0838 3.1e-4 -3.1255 0.625-3.125 1.875-4.7e-4 0.41719 0.41563 1.0422 1.25 1.875l3.75 8.125 1.875 3.75c0.41563 2.0836 1.0406 3.7503 1.875 5 1.25 1.25 3.5412 3.9586 6.875 8.125 2.4995 1.25 4.1662 3.5419 5 6.875-8.3338 0.83281-12.5 1.8752-12.5 3.125-4.7e-4 1.25 0.83281 2.7086 2.5 4.375 2.083 1.25 4.3745 2.5002 6.875 3.75 2.9162 0.83438 5.6245 1.6669 8.125 2.5 2.9162 0.41719 5.4162 0.625 7.5 0.625 4.1662 1.6e-4 9.3745-0.625 15.625-1.875l1.25 0.625-1.875 0.625h0.625l-3.125 0.625c-2.0838 0.83437-3.9588 1.6669-5.625 2.5-1.667 0.83437-3.542 1.6669-5.625 2.5l-15.625 1.875c4.9995 2.5002 9.7912 3.7502 14.375 3.75 13.75 1.6e-4 26.875-9.1664 39.375-27.5l-2.5-1.25 2.5-10 5-3.125c2.9162-1.6664 4.3745-5.4164 4.375-11.25l-2.5 3.125-5.625 4.375-4.375 4.375-6.875 3.125-9.375 3.75h-2.5l0.625-0.625v-1.875c10.833-4.5831 18.125-8.1247 21.875-10.625 7.9162-5.4164 12.291-11.458 13.125-18.125-1.6672 0.83437-3.1255 1.4578-4.375 1.875-1.25 3.1e-4 -2.2922 0.20938-3.125 0.625v-1.25c6.2495-3.7497 9.3745-7.7081 9.375-11.875v-1.25l-1.875 0.625c-0.41719 2.9169-1.4594 4.3753-3.125 4.375-0.83437 3.1e-4 -1.4594-0.625-1.875-1.875-4.7e-4 -0.83281 1.4578-2.4997 4.375-5 1.6662-1.25 2.4995-3.1247 2.5-5.625-4.7e-4 -5.4164-1.6672-12.708-5-21.875m-94.375 0-1.25 1.25c-0.41719 0.83437-0.625 2.5003-0.625 5-3.1e-4 2.5003 1.0406 3.7503 3.125 3.75h1.25l1.25-3.75c0.41563-0.41563 0.625-1.0406 0.625-1.875-4.7e-4 -1.6664-1.4594-3.1247-4.375-4.375m-220.62 1.875c-1.6e-4 2.5003 0.625 3.7503 1.875 3.75 2.0831 3.1e-4 3.1248-1.0422 3.125-3.125-1.6e-4 -0.83281-0.20781-1.25-0.625-1.25l-3.75-1.25-0.625 1.875m233.75 1.25c-0.83437 3.3336-1.25 4.792-1.25 4.375-4.7e-4 2.0836 0.83281 3.1253 2.5 3.125 1.25 3.1e-4 1.8745-0.625 1.875-1.875v-6.875h-2.5l-0.625 1.25m-263.75 1.25c-0.83281 2.5003-2.0834 4.3753-3.75 5.625l-0.625 5c1.25-2.9164 2.9166-4.7914 5-5.625 2.4998-1.25 4.1666-2.2914 5-3.125v-1.25c-1.6e-4 -1.6664-0.625-2.4997-1.875-2.5l-0.625 0.625-3.125 1.25m37.5 5-1.25 2.5c2.9166 1.667 5.6248 2.5003 8.125 2.5 2.9164 3.1e-4 4.3748-1.4578 4.375-4.375-1.6e-4 -4.1664-2.0836-6.2497-6.25-6.25-4.1669 3.1e-4 -5.8334 1.25-5 3.75v1.875m113.12-4.375h-1.25l-4.375 1.875c-2.9169 0.41719-4.3753 2.0836-4.375 5-0.83281 4.5836-2.2919 6.8753-4.375 6.875-0.83437 3.1e-4 -1.25-1.25-1.25-3.75v-0.625l-3.75 6.25c-7.5003 12.084-11.25 24.375-11.25 36.875-3.1e-4 4.5836 0.20781 7.5003 0.625 8.75l1.25 4.375 1.25 6.875 0.625 2.5 1.875 5.625-0.625 1.875 1.875 0.625 2.5-8.75 1.875 1.25v-1.25l-2.5 8.75-0.625 7.5 3.75 5.625 0.625-11.25 3.125-0.625-1.875 20 4.375 5 0.625-6.875-0.625-15.625 1.875-5 3.75-10.625c0.83281-1.6664 1.6664-3.3331 2.5-5 1.25-2.0831 2.708-4.5831 4.375-7.5 1.25-2.4997 2.708-3.7497 4.375-3.75h0.625l-3.75 5.625 4.375-6.25-3.125 5.625c-1.667 2.0836-2.917 3.9586-3.75 5.625-0.41719 1.6669-0.83437 2.9169-1.25 3.75l-3.75 10.625c-0.83281 4.1669-1.25 6.2502-1.25 6.25-3.1e-4 -0.41563 0.41719 0.625 1.25 3.125l0.625-1.25-0.625 4.375-3.125 10 0.625 9.375-0.625 3.125c-3.1e-4 1.6669 1.0406 2.9169 3.125 3.75l1.25-2.5c-1.25-1.6664-1.8753-2.9164-1.875-3.75v-0.625l0.625-3.75c0.83281-2.9164 1.4578-4.5831 1.875-5l1.25-0.625-0.625 9.375c-0.83437 4.1669-1.25 6.2502-1.25 6.25-3.1e-4 1.6e-4 -3.1e-4 0.41719 0 1.25 0.41719 0.83281 0.83281 2.0834 1.25 3.75l2.5 2.5 0.625-11.25h2.5v11.25c-0.83437 2.5002-3.1e-4 4.5834 2.5 6.25l1.25 1.875-0.625-6.25v-7.5c-3.1e-4 -9.5831 3.1247-17.5 9.375-23.75l13.125-11.25c8.333-8.3331 12.5-16.25 12.5-23.75l-1.25-2.5-8.125-1.875 4.375-5 10-11.25 5.625-11.25c1.25-2.9164 1.8747-5.8331 1.875-8.75-3.1e-4 -2.0831-3.542-3.5414-10.625-4.375-2.0836 3.1e-4 -3.9586-0.625-5.625-1.875l-7.5-1.875-3.75 1.25h-1.875l-3.75 5h-1.875l3.125-2.5-3.125 1.25-1.25-5.625c-0.83437-2.4997-1.667-3.7497-2.5-3.75-2.5003 3.1e-4 -7.7086 4.5836-15.625 13.75l0.625-0.625c-3.3336 3.3336-5.8336 7.7086-7.5 13.125l-2.5 6.25-0.625 6.25-1.25 5.625-2.5 1.25c1.25-0.41719 2.2914-1.4578 3.125-3.125l-3.125 1.875c-0.41719-1.25-0.625-3.7497-0.625-7.5-3.1e-4 -10.416 5.4164-25.416 16.25-45m-135.62 2.5c-6.6669 1.667-12.083 4.792-16.25 9.375-3.7502 4.1669-6.4584 7.5003-8.125 10-0.83281 0.83438-1.6667 2.2919-2.5 4.375-0.83281 1.6669-2.0834 3.9586-3.75 6.875l-20 35 1.875 1.875c5.4166-7.0831 11.667-11.041 18.75-11.875l0.625 5.625c2.9166-16.666 8.5416-27.916 16.875-33.75l6.875-5c1.25-1.25 4.1666-1.8747 8.75-1.875 4.5831 3.1e-4 8.7498 2.2919 12.5 6.875 2.9166-0.41719 4.3748-1.8747 4.375-4.375v-0.625c-1.6e-4 -2.0831-0.625-4.9997-1.875-8.75l-3.125-1.875-5.625-1.875-1.25 3.125h-0.625l-0.625-0.625c2.9166-5.833 4.3748-9.9997 4.375-12.5-1.6e-4 -1.25-1.0422-1.8747-3.125-1.875l-2.5 0.625-5.625 1.25m36.875 6.25c4.1664 3.1e-4 6.2498-1.6664 6.25-5l-1.25-1.25-3.75-0.625-1.25 6.875m160-3.125h-1.25c-0.41719 0.83281-0.625 2.0836-0.625 3.75-3.1e-4 2.0836 1.25 3.1253 3.75 3.125 3.7497 3.1e-4 5.6247-1.25 5.625-3.75-3.1e-4 -2.083-1.4594-3.1247-4.375-3.125h-3.125m-182.5 3.75c2.4998 0.83281 3.5416 1.25 3.125 1.25 1.6666 3.1e-4 2.4998-0.83281 2.5-2.5-1.6e-4 -2.083-1.0422-3.1247-3.125-3.125-2.0834 3.1e-4 -2.9169 0.83438-2.5 2.5v1.875m229.38-2.5c-1.667 3.1e-4 -2.5005 1.0422-2.5 3.125-4.7e-4 4.5836 1.8745 6.8753 5.625 6.875 1.25 3.1e-4 1.8745-0.83281 1.875-2.5-4.7e-4 -5.4164-1.4594-7.9164-4.375-7.5h-0.625m-26.25 5c1.6662 1.6669 2.9162 2.5003 3.75 2.5 2.083 3.1e-4 3.1247-1.0422 3.125-3.125-3.1e-4 -2.083-1.25-3.1247-3.75-3.125-2.0838 3.1e-4 -3.1253 0.83438-3.125 2.5v1.25m91.25-2.5h-0.625c-0.83437 3.1e-4 -1.6672 0.41719-2.5 1.25v1.25h-0.625c-4.7e-4 4.1669 1.4578 6.2503 4.375 6.25 2.0828 3.1e-4 3.1245-1.8747 3.125-5.625-4.7e-4 -2.083-1.25-3.1247-3.75-3.125m-125.62-0.625-0.625 1.25 0.625 3.125 1.25 0.625 1.875 0.625 1.875-0.625h2.5v-1.25c-3.1e-4 -1.6664-2.5003-2.9164-7.5-3.75m47.5 0.625c-1.667 3.1e-4 -2.5003 1.0422-2.5 3.125-3.1e-4 2.9169 1.6662 4.3753 5 4.375 2.9162 3.1e-4 4.3745-1.0406 4.375-3.125-4.7e-4 -2.9164-2.0838-4.3747-6.25-4.375h-0.625m-21.875 2.5c-1.25 2.0836-1.8753 3.3336-1.875 3.75-3.1e-4 2.9169 1.6662 4.3753 5 4.375 1.6662 3.1e-4 2.4997-1.4578 2.5-4.375-3.1e-4 -3.3331-1.0422-4.9997-3.125-5h-0.625l-1.875 1.25m-185.62 0-1.25 3.125c0.41719 0.41719 1.4578 0.625 3.125 0.625 0.83281 3.1e-4 1.25-0.41719 1.25-1.25-1.6e-4 -0.83281-1.0422-1.6664-3.125-2.5m6.25 3.125c-1.6e-4 2.5003 1.0406 3.7503 3.125 3.75 1.6664 3.1e-4 2.4998-0.625 2.5-1.875-1.6e-4 -3.3331-0.83437-4.9997-2.5-5-0.83437 3.1e-4 -1.6669 0.41719-2.5 1.25l-0.625 1.875m166.88 3.125c-0.41719 0.41719-0.625 1.6669-0.625 3.75-3.1e-4 2.5003 1.4578 3.7503 4.375 3.75 3.333 3.1e-4 4.9997-1.4578 5-4.375-3.1e-4 -3.3331-1.667-4.9997-5-5h-1.25l-1.25 0.625-1.25 1.25m-156.88-1.875c-3.3336 12.084-5.0002 16.667-5 13.75-1.6e-4 3.1e-4 -1.6e-4 0.41719 0 1.25 0.41719 0.83438 0.83281 2.0836 1.25 3.75 1.25 5.0003 4.1664 7.5003 8.75 7.5 4.1664 3.1e-4 7.2914-2.9164 9.375-8.75l-1.25-1.25c-2.5002 2.9169-4.7919 4.3753-6.875 4.375-3.7502 3.1e-4 -5.6252-3.1247-5.625-9.375v-6.25c-1.6e-4 -2.0831-0.20937-3.7497-0.625-5m260.62 1.25c-2.0838 2.0836-3.1255 3.5419-3.125 4.375-4.7e-4 0.83438 0.20781 1.8753 0.625 3.125 0.83281 1.25 1.6662 1.8753 2.5 1.875 3.3328 3.1e-4 4.9995-2.0831 5-6.25-4.7e-4 -1.25-1.6672-2.2914-5-3.125m-46.875 1.25 1.25 0.625h-0.625c-2.5005-0.41719-3.7505 0.83281-3.75 3.75-4.7e-4 3.3336 1.6662 5.0003 5 5 2.083 3.1e-4 3.1245-1.0422 3.125-3.125-4.7e-4 -2.0831-1.667-4.1664-5-6.25m-21.25 1.25c-0.41719 0.41719-0.625 1.25-0.625 2.5-3.1e-4 1.6669 0.83281 2.5003 2.5 2.5 2.083 3.1e-4 3.1245-1.0422 3.125-3.125-4.7e-4 -0.41562-1.667-1.0406-5-1.875m-12.5 0-0.625 0.625c-0.41719 0.41719-0.625 1.6669-0.625 3.75-3.1e-4 1.25 1.0406 1.8753 3.125 1.875 2.9162 3.1e-4 4.3747-1.0422 4.375-3.125-3.1e-4 -2.0831-1.25-3.1247-3.75-3.125h-2.5m-7.5 5h0.625l-4.375 1.875c-2.0838 0.83438-6.4588 3.9586-13.125 9.375l-5.625 8.75 2.5 1.25-1.875 1.875-2.5 4.375-1.875 0.625c-0.41719 1.6669-0.83437 3.5419-1.25 5.625-0.41719 2.0836-0.83437 4.3753-1.25 6.875l13.75-11.875c-0.83437 0.83438-1.667 1.6669-2.5 2.5-0.41719 0.83281-0.83437 1.4578-1.25 1.875-5.417 5.4169-8.3338 10.625-8.75 15.625l0.625 3.75 5-8.125 1.25 0.625c-2.5003 6.2502-3.7503 10.209-3.75 11.875-3.1e-4 2.0836 2.4997 5.6252 7.5 10.625-1.25-4.1664-1.8753-7.7081-1.875-10.625-3.1e-4 -8.7498 4.7912-14.791 14.375-18.125l20.625-5.625 3.125-3.75c1.25-1.25 1.8747-2.2914 1.875-3.125-3.1e-4 -1.25-2.292-2.2914-6.875-3.125 2.083-0.83281 3.7497-1.4578 5-1.875 1.25-0.83281 2.2912-1.4578 3.125-1.875l4.375-5.625c1.6662-1.6664 2.4995-2.9164 2.5-3.75l2.5-9.375h-2.5l-5 1.25-13.125 1.875-5.625 5 0.625-1.875h-1.875l-2.5-5-1.875-1.875m-18.75 1.25-1.875 1.875c0.41563 2.9169 1.0406 4.3753 1.875 4.375 1.6662 3.1e-4 2.4997-1.0406 2.5-3.125l-0.625-2.5-1.875-0.625m144.38 0.625 0.625 1.875c-0.41719 3.3336-0.83438 6.4586-1.25 9.375-0.41719 2.5003-0.83438 4.5836-1.25 6.25l-5.625 20.625c-0.83438 3.3336-1.25 5.2086-1.25 5.625-4.7e-4 6.6669 3.7495 10 11.25 10 4.1661 1.6e-4 7.9161-2.2914 11.25-6.875 1.25-2.4998 1.8745-4.7914 1.875-6.875-4.7e-4 -1.6664-0.20938-2.7081-0.625-3.125l-1.25-1.25-3.125 5.625c-3.3339 1.25-5.4172 1.8752-6.25 1.875-0.83438 1.6e-4 -2.2922-1.0422-4.375-3.125-0.41719-3.3331-0.83438-5.8331-1.25-7.5-4.7e-4 -1.6664-4.7e-4 -2.9164 0-3.75-4.7e-4 -2.9164 0.625-6.8747 1.875-11.875 1.6661-5.4164 2.4995-9.3747 2.5-11.875-4.7e-4 -1.25-1.0422-2.9164-3.125-5m-45.625 1.875c-1.6672 3.1e-4 -2.9172 1.0422-3.75 3.125v0.625c-4.7e-4 2.0836 1.0406 3.1253 3.125 3.125 2.4995 3.1e-4 3.7495-1.25 3.75-3.75-4.7e-4 -2.0831-1.0422-3.1247-3.125-3.125m10 0.625h-0.625c-1.25 0.83438-1.8755 1.4578-1.875 1.875-4.7e-4 2.5003 1.25 3.7503 3.75 3.75 2.0828 3.1e-4 3.1245-1.0422 3.125-3.125-4.7e-4 -1.6664-1.4594-2.4997-4.375-2.5m-45.625 6.25 0.625 1.25c1.25 0.41719 2.083 0.83281 2.5 1.25 0.83281 3.1e-4 1.25 3.1e-4 1.25 0 1.6662 3.1e-4 2.4995-1.0406 2.5-3.125-4.7e-4 -2.9164-1.4594-4.3747-4.375-4.375-2.5005 3.1e-4 -3.3338 1.25-2.5 3.75v1.25m-8.75-3.75c-1.667 0.41719-2.5005 1.8753-2.5 4.375-4.7e-4 1.6669 0.83281 2.5003 2.5 2.5 2.9162 3.1e-4 4.3745-1.4578 4.375-4.375-4.7e-4 -1.6664-1.25-2.4997-3.75-2.5h-0.625m-60 2.5c-1.25 2.0836-1.8753 3.3336-1.875 3.75-3.1e-4 1.25 0.41562 1.8753 1.25 1.875 2.083 3.1e-4 3.1247-0.83281 3.125-2.5-3.1e-4 -2.0831-0.83438-3.1247-2.5-3.125m-194.38 19.375 3.75 12.5 1.875 1.875c0.83281 0.41719 1.4578 0.83281 1.875 1.25 1.6666-1.6664 2.7081-2.9164 3.125-3.75-4.1669-6.6664-6.2502-11.041-6.25-13.125l0.625-1.25v-1.25l0.625-0.625 5.625-7.5c0.41719-0.41719 1.6666-0.625 3.75-0.625 9.9998 3.1e-4 18.958 5.2086 26.875 15.625l3.75 6.875 1.875 4.375 1.875 5 1.25 2.5 1.25 1.25c2.0831 1.6e-4 3.1248-0.83281 3.125-2.5v-2.5l-1.25-3.125-3.125-8.125c-2.5002-7.4997-7.5002-13.541-15-18.125-7.0834-4.5831-13.333-6.8747-18.75-6.875-11.25 3.1e-4 -16.875 6.0419-16.875 18.125m246.88-10 1.875 0.625c-2.917 0.41719-4.3755 2.5003-4.375 6.25v0.625c1.6662 1.25 3.333 1.8753 5 1.875h0.625c1.6662-1.6664 2.4995-2.9164 2.5-3.75-4.7e-4 -2.9164-1.4594-4.5831-4.375-5l-1.25-0.625m-63.125 6.875h1.875c-1.25 3.1e-4 -2.5003 0.625-3.75 1.875 0.41719 2.9169 1.4578 4.3753 3.125 4.375 2.4997 3.1e-4 3.7497-1.25 3.75-3.75-3.1e-4 -2.0831-0.83438-3.1247-2.5-3.125h-0.625l-1.875 0.625m60 3.125c-0.83438 1.6669-1.667 2.9169-2.5 3.75-0.41719 0.83281-0.625 1.25-0.625 1.25-3.1e-4 1.6669 1.0406 2.5003 3.125 2.5 1.6662 3.1e-4 2.4995-0.625 2.5-1.875-4.7e-4 -2.0831-0.83438-3.9581-2.5-5.625m10 1.875-1.875 2.5c-0.41719 0.41719-0.625 1.25-0.625 2.5-4.7e-4 0.83437 0.625 2.0836 1.875 3.75 3.333 1.6e-4 4.9995-0.625 5-1.875-4.7e-4 3.1e-4 -0.41719-1.6664-1.25-5l-3.125-1.875m114.38 10h4.375c5.4161 1.6e-4 11.666 3.1252 18.75 9.375-2.5005-9.5831-7.9172-14.375-16.25-14.375-3.7505 3.1e-4 -6.0422 1.6669-6.875 5m-133.12-3.125c-3.3338 2.0836-5.0003 3.7502-5 5-3.1e-4 2.5002 1.25 3.9586 3.75 4.375 3.333-2.0831 4.9997-3.9581 5-5.625-3.1e-4 -2.9164-0.83438-4.3747-2.5-4.375l-0.625 0.625h-0.625m97.5 0.625-4.375 1.875 0.625 4.375 3.75-6.25m-333.12 19.375c-0.41719 2.0836-0.83281 3.7502-1.25 5-1.6e-4 1.25-1.6e-4 2.0836 0 2.5-1.6e-4 7.9169 4.7916 11.875 14.375 11.875 1.6666 1.6e-4 2.7081-0.20781 3.125-0.625l15-3.75 8.125 0.625 0.625-1.875c0.41719-0.41563 0.625-1.0406 0.625-1.875-1.6e-4 -2.4998-1.8752-3.7498-5.625-3.75l-21.25 5.625-1.875-1.25-5-1.25c-2.0834-0.83281-3.1252-2.2914-3.125-4.375-1.6e-4 -5.4164 3.9581-9.9998 11.875-13.75 7.9166-4.1664 17.292-6.2498 28.125-6.25-1.6e-4 -4.1664-1.4578-6.2497-4.375-6.25h-0.625l-11.25 1.875c-4.5834 0.83437-7.0834 1.4594-7.5 1.875l-6.25 4.375-4.375 1.875c-2.5002 0.83281-5.6252 3.9586-9.375 9.375m222.5-17.5c-0.83438 3.3336-1.25 4.7919-1.25 4.375-3.1e-4 1.6669 1.0406 2.5002 3.125 2.5 2.4997 1.6e-4 3.7497-1.25 3.75-3.75l-0.625-0.625c-3.1e-4 -0.41719-3.1e-4 -0.625 0-0.625v-0.625l-3.125-1.875-1.875 0.625m21.875 6.25c2.083 2.0836 3.5412 3.1252 4.375 3.125 2.9162 1.6e-4 4.3745-1.4578 4.375-4.375-4.7e-4 -3.3331-1.4594-4.9998-4.375-5-2.917 1.6e-4 -4.3755 2.0836-4.375 6.25m-186.25-6.875-0.625 2.5v0.625c-1.6e-4 2.9169 0.83281 4.3752 2.5 4.375 2.0831 1.6e-4 3.1248-1.0422 3.125-3.125-1.6e-4 -1.6664-1.6669-3.1248-5-4.375m203.12 3.75-2.5 0.625v1.875c-4.7e-4 2.9169 0.83281 4.3752 2.5 4.375 2.9162 1.6e-4 4.3745-1.4578 4.375-4.375l-0.625-0.625-0.625-1.25-3.125-0.625m110.62 1.25-6.25 3.75-5 6.25-8.125 23.125c-2.0839 5.4169-6.2505 8.9586-12.5 10.625h-1.875c-7.5005 1.6e-4 -11.25-3.9581-11.25-11.875-4.7e-4 -2.9164 2.2912-6.6664 6.875-11.25h-4.375c-6.6672-0.41719-10 4.1669-10 13.75-4.7e-4 11.25 5.4162 16.875 16.25 16.875 2.0828 1.6e-4 3.3328-0.20781 3.75-0.625l6.875-3.125v6.25c10.416-2.9166 17.291-9.7914 20.625-20.625l3.75-11.875c0.41563-2.9164 2.4995-4.3748 6.25-4.375 2.4995 1.6e-4 3.7495 1.6669 3.75 5-4.7e-4 4.5836-3.7505 10.625-11.25 18.125l-4.375 5-3.75 5-5.625 12.5c-0.41719 0.41719-0.625 1.25-0.625 2.5-4.7e-4 1.25 1.0406 1.8752 3.125 1.875 2.0828 1.6e-4 3.5411-0.20781 4.375-0.625-0.83437 2.9169-1.4594 4.5834-1.875 5-2.0839 7.0834-3.1255 10.833-3.125 11.25-4.7e-4 14.583 6.4578 21.875 19.375 21.875 7.9161 1.6e-4 13.541-4.1666 16.875-12.5l0.625-1.25v-5.625c-4.7e-4 -2.0831-2.0839-6.4581-6.25-13.125-1.25-1.6666-1.8755-3.5416-1.875-5.625-4.7e-4 -1.25 0.41563-2.2916 1.25-3.125l10 0.625-1.25-3.125-3.125-3.125c-0.83437-0.41719-2.2922-0.625-4.375-0.625-5.0005 1.6e-4 -7.5005 2.9169-7.5 8.75-4.7e-4 2.5002 0.83281 5.2084 2.5 8.125l3.125 11.25v5.625l-0.625 1.875-0.625 0.625-5 0.625-6.25-1.25c-0.83437-1.6666-1.6672-3.3331-2.5-5-0.83437-1.6666-1.4594-3.5416-1.875-5.625 0.41563-3.7498 1.0406-6.8748 1.875-9.375 0.83281-2.4998 1.6661-4.5831 2.5-6.25l8.75-13.75c5.8328-9.5831 8.7495-19.791 8.75-30.625-4.7e-4 -5.4164-2.0839-10.833-6.25-16.25-2.0839-2.4998-4.7922-4.1664-8.125-5l-5.625-0.625m-158.75 10.625v-1.875c2.9162-1.6664 4.3747-3.3331 4.375-5-3.1e-4 -2.4998-1.0422-3.7498-3.125-3.75-3.3338 1.6e-4 -5.0003 1.8752-5 5.625-3.1e-4 1.6669 1.25 3.3336 3.75 5m16.25-6.25 0.625 8.125 0.625 1.25 2.5 4.375 1.25 3.125-0.625-1.875c-0.83437 0.83281-1.4594 1.25-1.875 1.25-0.41719 1.6e-4 -1.667-1.0406-3.75-3.125l-3.125-1.875-15-3.75-5.625-3.125c-0.41719 0.83437-0.625 2.2919-0.625 4.375-3.1e-4 2.0836 0.625 3.9586 1.875 5.625v1.25l1.25 3.125 1.875 3.75h-2.5l0.625 0.625c-3.7503 0.83437-6.4588 2.7086-8.125 5.625l3.125 1.25c0.83281 0.41719 1.6662 0.83437 2.5 1.25 0.83281 1.6e-4 2.083 0.41719 3.75 1.25 8.7497 3.3336 13.333 5.2086 13.75 5.625 1.6662 0.41719 3.5412 0.83437 5.625 1.25 2.4997 0.41719 5.208 1.0422 8.125 1.875l0.625-3.125c4.9997 2.5002 9.3745 3.7502 13.125 3.75 0.41563 1.6e-4 1.25 1.6e-4 2.5 0 1.25-0.41563 2.9162-0.83281 5-1.25l-10-3.125-1.25-0.625-6.875-3.125-2.5-1.875h-1.25l-3.125-2.5 1.25 0.625-1.25-1.25 1.25-0.625c2.9162 1.6669 5.4162 3.1252 7.5 4.375 2.083 0.83281 4.1662 1.4578 6.25 1.875 11.666 3.7502 18.958 5.6252 21.875 5.625 2.083 1.6e-4 5.4162-0.625 10-1.875l1.25-1.25-8.75-1.25-7.5-3.125-0.625-2.5c7.083 2.9169 13.75 4.3752 20 4.375 3.7495 1.6e-4 7.9162-1.6664 12.5-5l-8.125 0.625c-2.0838 1.6e-4 -6.667-1.0406-13.75-3.125l-4.375-1.875-3.125-0.625-8.125-5-3.125-3.125-2.5-1.875v-1.25l-4.375-5-3.75-3.125c-2.5003-1.25-6.042-2.2914-10.625-3.125l-1.25-0.625-3.125-1.25m-7.5 1.875c-0.83437 1.6e-4 -1.4594 0.625-1.875 1.875v0.625c-3.1e-4 1.25 0.83281 1.8752 2.5 1.875 1.25 1.6e-4 1.8747-0.83281 1.875-2.5-3.1e-4 -1.25-0.625-1.8748-1.875-1.875h-0.625m31.25 0.625h-0.625c-0.41719 1.6e-4 -0.83437 0.625-1.25 1.875l-0.625 1.25c-4.7e-4 1.6669 0.83281 2.5002 2.5 2.5 2.4995 1.6e-4 3.7495-1.25 3.75-3.75-4.7e-4 -1.25-1.25-1.8748-3.75-1.875m-235 3.75c10.417 4.5836 17.291 6.8752 20.625 6.875 15.833 1.6e-4 23.75-2.0831 23.75-6.25-1.6e-4 -1.6664-0.625-2.4998-1.875-2.5h-0.625c-1.25 0.41719-3.5419 1.25-6.875 2.5-3.3336 1.25-6.2502 1.8752-8.75 1.875-2.5002 1.6e-4 -4.1669-0.20781-5-0.625l-18.75-5.625c-1.6669 1.6e-4 -2.5002 0.625-2.5 1.875v1.875m240 4.375c-0.41719 0.41719-0.625 1.4594-0.625 3.125-4.7e-4 1.6669 0.83281 2.5002 2.5 2.5 1.6662 1.6e-4 2.4995-0.83281 2.5-2.5v-1.875l-4.375-1.25m-206.88 18.125-3.125 8.125c-0.83437 1.25-1.8752 2.7086-3.125 4.375-0.83281 1.25-1.6669 2.7084-2.5 4.375l-3.125 5-6.875 11.25-2.5 3.125v0.625c-1.6e-4 2.0834 1.25 3.1252 3.75 3.125h0.625l6.875-12.5 10.625-15.625c0.83281-2.0831 1.8748-4.5831 3.125-7.5 1.25-2.9164 2.2914-6.4581 3.125-10.625l1.25-6.875-1.25-0.625c-2.5002 1.6e-4 -4.1669 1.6669-5 5-0.41719 2.9169-1.0422 5.8336-1.875 8.75m121.88-6.25c-3.3336 2.0836-6.042 4.7919-8.125 8.125l-0.625 11.25h-3.125c-0.83437 1.6e-4 -1.667 1.0422-2.5 3.125-0.41719 2.0834-0.625 3.7502-0.625 5-3.1e-4 1.25 0.625 3.1252 1.875 5.625l0.625 1.875 3.75 8.75 1.25 1.875 1.875 2.5 5.625 6.875c7.9164 7.5002 13.958 11.25 18.125 11.25l2.5-0.625 13.125-1.875c-3.1e-4 1.6e-4 3.7497 1.6669 11.25 5l1.25 1.875c0.41563 1.25 0.625 2.2917 0.625 3.125 0.41563 0.41719 0.625 0.625 0.625 0.625-3.1e-4 2.0834-1.4594 3.1252-4.375 3.125h-0.625l-8.125-1.25h-5 3.125-5c-1.667-0.41719-4.3753 0.41719-8.125 2.5-3.7503 1.6667-5.6253 3.3334-5.625 5-3.1e-4 2.0834 4.1662 3.1252 12.5 3.125h1.25c2.4997 1.6e-4 8.7497 0.625 18.75 1.875 1.25 0.41719 5.208 0.625 11.875 0.625 20 1.6e-4 38.541-3.3333 55.625-10l16.25-6.25 3.75-1.25 9.375-4.375 13.125-7.5c11.666-5.8331 18.958-15.833 21.875-30-2.9172 0.83281-5.2088 2.0834-6.875 3.75l-13.75 11.25-7.5 4.375c-1.6672 0.83281-3.7505 1.8752-6.25 3.125-2.5005 1.25-5.8338 2.7084-10 4.375-3.3338 1.25-7.0838 2.5002-11.25 3.75-10.834 3.7502-24.167 5.6252-40 5.625-17.084 1.6e-4 -30.834-2.4998-41.25-7.5l-10.625-5.625-0.625-1.25-4.375-2.5-1.25-0.625-14.375-13.125-3.125-4.375c-1.25-2.9166-1.8753-5.6248-1.875-8.125-3.1e-4 -5.4164 2.2914-8.1248 6.875-8.125 2.083 1.6e-4 4.583 0.83281 7.5 2.5l3.125 3.125h1.25v-5c0.41563-11.25-5.2088-16.875-16.875-16.875l-1.875 0.625-5 0.625m-55.625 4.375-0.625 1.25c-1.6669 2.9169-2.5003 5.4169-2.5 7.5-3.1e-4 3.3336 2.7081 6.8752 8.125 10.625 1.6664 1.6669 3.9581 2.5002 6.875 2.5h0.625c-1.25-1.6666-2.5003-3.3331-3.75-5-1.25-1.6666-2.7086-3.5414-4.375-5.625-0.41719-0.41563-0.625-1.6664-0.625-3.75v-6.875l-3.75-0.625m-58.75 8.75c21.666 0.41719 43.125 7.2919 64.375 20.625 1.25 0.83281 2.4997 1.6669 3.75 2.5 1.25 0.41719 2.2914 1.0422 3.125 1.875 7.0831 5.8334 12.5 10.208 16.25 13.125 4.1664 2.5002 6.6664 3.9584 7.5 4.375 0.83281 1.6e-4 1.4578 0.20781 1.875 0.625 2.4997 1.6e-4 4.1664-0.625 5-1.875l-6.875-5-12.5-8.75-3.125-3.125-11.25-7.5-10.625-6.25-6.25-3.125-5.625-2.5-6.25-2.5-5.625-2.5-6.25-1.25-6.25-1.875-13.125-1.875h-6.25l-1.875 5m-41.875 24.375 1.25 5c2.9166 9.1669 8.5416 13.75 16.875 13.75h2.5c0.41719-0.41719 1.6664-0.625 3.75-0.625 2.4998 1.6e-4 4.3748-0.20781 5.625-0.625l8.125 5c2.0831 3.3334 3.1248 6.0419 3.125 8.125-1.6e-4 14.583-4.7919 21.875-14.375 21.875-7.0836 1.6e-4 -12.5-4.9998-16.25-15l-0.625-3.125-0.625-1.25v-0.625c-1.6e-4 -1.6666 0.41719-3.3331 1.25-5 0.83281-2.0831 1.25-3.7498 1.25-5-1.6e-4 -1.6666-0.83281-2.4998-2.5-2.5-2.9169 1.6e-4 -4.3752 3.5419-4.375 10.625-1.6e-4 6.6667 1.4578 12.083 4.375 16.25 4.9998 7.9167 10.208 11.875 15.625 11.875 0.83281 1.6e-4 1.8748-0.41719 3.125-1.25 1.25-1.25 2.0831-1.8748 2.5-1.875l4.375-1.25 3.75-3.125c4.9998-6.2498 7.4998-12.917 7.5-20-1.6e-4 -15-4.5836-22.5-13.75-22.5-1.6669 1.6e-4 -2.7086 0.20781-3.125 0.625l-9.375 3.125c-0.41719 0.41719-1.4578 0.625-3.125 0.625-7.9169 1.6e-4 -11.875-4.3748-11.875-13.125-1.6e-4 -11.25 7.0831-18.75 21.25-22.5 2.4998-1.6664 3.7498-3.3331 3.75-5-1.6e-4 -0.83281-0.83437-1.25-2.5-1.25-1.25 1.6e-4 -3.1252 0.625-5.625 1.875-0.41719 1.6e-4 -1.8752 0.625-4.375 1.875-10 4.1669-15.833 12.5-17.5 25m136.88-26.875-3.125 10v10l1.875 6.25 1.25 1.875 1.875 3.75 5 5.625c2.4997 2.5002 4.3747 3.9584 5.625 4.375l-3.75-5.625-1.875-4.375-5-11.25v-16.25l-1.875-4.375m184.38 18.75-0.625-1.25-5.625 1.25-9.375 3.75c-2.5005 0.83281-4.1672 1.25-5 1.25-6.6672 1.6e-4 -10-2.2916-10-6.875-4.7e-4 -2.9166 2.0828-5.8331 6.25-8.75-1.6672-1.6664-3.3338-2.4998-5-2.5-5.8338 1.6e-4 -8.7505 2.9169-8.75 8.75-4.7e-4 9.1669 4.7912 13.75 14.375 13.75 6.2495 1.6e-4 14.166-3.1248 23.75-9.375m-271.25-12.5v77.5c-1.6e-4 11.667-0.83437 18.958-2.5 21.875-2.0836 5.8334-7.5002 10.833-16.25 15-6.6669 4.1667-11.667 6.4584-15 6.875-5.8334 2.0834-8.7502 4.1667-8.75 6.25-1.6e-4 1.6667 4.5831 2.5 13.75 2.5l156.88-0.625-1.25-2.5-5-7.5v-3.125c-3.1e-4 -1.6666 1.25-3.75 3.75-6.25l-63.75 0.625-8.75-3.75-2.5-1.25c-7.9169-4.1666-12.917-9.9998-15-17.5-0.41719-2.0833-0.83437-4.9998-1.25-8.75-3.1e-4 -4.1666-3.1e-4 -9.3748 0-15.625l0.625-14.375v-40l-1.875-1.25-5.625-1.875-2.5-0.625-25-5.625m195.62 21.875-9.375-2.5c1.6662 6.2502 4.7912 11.667 9.375 16.25l3.75 3.125c5.4162 2.9169 10.833 4.3752 16.25 4.375 20.833 1.6e-4 40.416-9.3748 58.75-28.125l-10 5.625-5 3.75-13.125 6.875c-5.8338 2.5002-11.667 3.7502-17.5 3.75-4.167 1.6e-4 -8.9588-0.83281-14.375-2.5l-3.75-0.625c-4.5838-4.5831-6.8755-8.3331-6.875-11.25-4.7e-4 -7.0831 3.1245-10.625 9.375-10.625l1.25 0.625 10 3.75-2.5-5.625-8.75-4.375h-4.375c-10 1.6e-4 -14.584 4.1669-13.75 12.5l0.625 5m-282.5-18.75-1.875 3.125-3.125 5.625h1.875c3.3333-2.0831 4.9998-3.5416 5-4.375-1.6e-4 -0.83281-0.625-2.2916-1.875-4.375m228.75 10.625c-2.0838 5.0002-3.1253 7.7084-3.125 8.125-3.1e-4 12.5 6.458 18.75 19.375 18.75 6.2497 1.6e-4 10.833-2.7081 13.75-8.125 0.41563-0.41719 0.625-1.0422 0.625-1.875l-1.25-1.25c-3.3338 2.5002-5.8338 3.7502-7.5 3.75-2.0838 1.6e-4 -4.792-0.83281-8.125-2.5-3.3338-1.6666-5.0003-4.3748-5-8.125-3.1e-4 -5.8331 4.1662-9.3748 12.5-10.625l28.75-4.375 3.75-2.5h-7.5l-5 0.625-26.25-0.625c-4.167-0.41719-9.167 2.5002-15 8.75m-104.38-3.125 0.625 34.375v3.75c-3.1e-4 2.5002-0.20781 4.3752-0.625 5.625v10c-3.1e-4 10.833 0.83281 19.375 2.5 25.625l3.125 6.25 2.5 1.875 1.25-0.625c-3.3336-7.4998-5.0003-14.167-5-20v-0.625l0.625-11.875v-8.125l0.625-6.875-0.625-36.875-5-2.5m247.5 15.625c-2.9172 1.6669-6.0422 5.2084-9.375 10.625l-5 4.375-7.5 7.5c-8.7505 5.4169-16.042 13.75-21.875 25-5.0005 8.7502-7.5005 15-7.5 18.75-4.7e-4 1.25 0.41563 1.8752 1.25 1.875 1.6662 1.6e-4 2.7078-0.41719 3.125-1.25 0.83281-1.25 2.2912-4.9998 4.375-11.25 0.83281-0.83281 2.2912-3.3333 4.375-7.5l5-8.125c0.41563-0.41719 2.2912-2.0833 5.625-5 3.7495-3.3333 9.1662-8.1248 16.25-14.375 1.6662-1.6666 3.1245-3.1248 4.375-4.375 1.25-1.25 2.2911-2.7081 3.125-4.375l3.125-3.75 3.75-5v-1.875c-4.7e-4 -0.83281-0.625-1.25-1.875-1.25h-1.25m-237.5 13.125c1.6664 2.9169 4.1664 4.3752 7.5 4.375-0.83437-3.3331-1.25-5.4166-1.25-6.25-3.1e-4 -2.9166 2.0831-4.3748 6.25-4.375h1.875l8.125 3.125h5.625l-5-3.125-5-3.75c-3.3336-2.0831-6.8753-3.1248-10.625-3.125-5.8336 1.6e-4 -8.5419 2.7084-8.125 8.125l0.625 5m39.375 1.875-9.375 1.25c-5.0003 0.83281-9.3753 2.7084-13.125 5.625-3.7503 2.5002-5.6253 4.1669-5.625 5-3.1e-4 2.5002 3.1247 3.7502 9.375 3.75l0.625 1.875 0.625-1.25-0.625 1.875c-4.1669 0.41719-7.2919 2.0834-9.375 5l-1.875 3.125c-1.25 3.3334-1.8753 5.8334-1.875 7.5v3.125c2.0831 7.0834 7.4997 11.458 16.25 13.125-0.41719-2.0833-0.83281-3.7498-1.25-5-3.1e-4 -1.6666-3.1e-4 -2.9166 0-3.75-3.1e-4 -3.3333 1.0406-6.6666 3.125-10 4.583-5.4166 9.1664-8.3333 13.75-8.75l13.125-1.25 10-6.875 5-3.125v-1.875h-0.625l-0.625-0.625-1.25-0.625-3.125-0.625-1.875-1.875-5-1.875-6.25-2.5-3.75-0.625-6.25-0.625m167.5 9.375-8.125 4.375-30 12.5-9.375 2.5-3.75 1.875-5 1.25c-5.8338 5.0002-8.7505 9.5834-8.75 13.75-4.7e-4 8.3334 4.583 12.5 13.75 12.5 4.583 1.6e-4 7.083-1.4578 7.5-4.375-6.667-1.25-10-4.5833-10-10-4.7e-4 -4.5833 4.3745-8.5416 13.125-11.875 8.333-3.3333 15-5.8333 20-7.5 4.9995-2.0833 7.9162-3.3333 8.75-3.75 0.83281-0.83281 2.2912-1.8748 4.375-3.125 2.0828-1.6666 4.7912-3.9583 8.125-6.875l-0.625-1.25m-136.25 6.25c-2.917 0.83281-6.4586 2.7084-10.625 5.625l-4.375 3.125-11.875 13.75 0.625 0.625c-2.0836 2.5002-3.3336 5.8334-3.75 10-3.1e-4 1.25-0.41719 3.5417-1.25 6.875-0.83437 2.9167-1.25 5.2084-1.25 6.875-3.1e-4 1.25 0.20781 1.8752 0.625 1.875l3.75 1.25 4.375-20.625 4.375-7.5c0.83281-2.0833 3.5414-4.7916 8.125-8.125l-4.375 6.25v1.25c-2.917 4.1667-4.3753 8.5417-4.375 13.125-3.1e-4 1.6667 0.83281 2.7084 2.5 3.125 2.9164 5.0002 6.2497 7.5002 10 7.5 7.9164 1.6e-4 11.875-3.7498 11.875-11.25-3.1e-4 -2.0833-1.25-4.1666-3.75-6.25-0.41719 5.0002-3.3336 7.7084-8.75 8.125l-2.5-0.625c-1.667-1.6666-2.5003-3.5416-2.5-5.625-3.1e-4 -6.2498 3.7497-12.917 11.25-20l-1.25-1.875-3.75 3.125-1.875 1.875v-1.875c-3.1e-4 -0.41719 0.41563-1.0422 1.25-1.875l5.625-1.875 11.875-6.25c3.333-0.83281 5.6247-1.25 6.875-1.25h10.625c0.83281 1.6e-4 1.25-0.625 1.25-1.875-3.1e-4 -2.0831-3.3338-3.1248-10-3.125-5.8338 1.6e-4 -12.084 1.8752-18.75 5.625m143.12 20c-3.7505 6.2502-9.3755 11.667-16.875 16.25-2.5005 2.0834-4.5838 3.3334-6.25 3.75-12.5 7.5002-29.792 11.875-51.875 13.125h-4.375v19.375h6.25l33.75-1.25c-1.25 0-0.625 0.20781 1.875 0.625 2.9162 0 7.9162 0.20781 15 0.625h2.5c6.2495 0.83281 9.9995-2.9166 11.25-11.25 1.25-6.6666 2.7078-10 4.375-10l6.875-12.5 11.875-25.625c1.6662-2.9166 2.4995-5.2083 2.5-6.875-4.7e-4 -2.4998-1.0422-3.7498-3.125-3.75-1.6672 1.6e-4 -3.1255 1.0422-4.375 3.125l-3.125 6.25c-1.6672 1.6667-3.7505 4.3752-6.25 8.125m18.75-14.375c-0.41719 2.5002-2.0838 7.2917-5 14.375-2.9172 7.0834-7.2922 16.667-13.125 28.75-2.5005 4.1667-3.9588 7.0834-4.375 8.75-2.0838 5-3.7505 8.75-5 11.25-1.25 2.5-2.2922 4.375-3.125 5.625-0.41719 0.83281-1.0422 1.25-1.875 1.25-0.41719-0.41719-1.25-0.625-2.5-0.625h-7.5l-57.5-0.625-2.5 5.625 75-0.625 28.125-58.75c1.6661-2.9166 2.4995-5.8333 2.5-8.75-4.7e-4 -0.83281-1.0422-2.9166-3.125-6.25m11.875 8.75c-0.41719 0.83281-0.625 2.2917-0.625 4.375-2.5005 7.5002-3.7505 11.875-3.75 13.125-4.7e-4 2.0834 0.20781 3.7502 0.625 5v6.875-1.25h-2.5c-3.3339 1.6e-4 -6.4588 1.4578-9.375 4.375v0.625l-3.75 10c3.3328-0.83281 4.9995-1.25 5-1.25 0.41563 0 3.5411 1.6667 9.375 5l3.125 3.75c1.6661 2.9167 2.4995 6.25 2.5 10-4.7e-4 5.8334-4.1672 11.667-12.5 17.5l8.125-2.5 4.375-5.625c0.41563-1.25 1.25-1.875 2.5-1.875l1.25 1.25c-4.7e-4 1.25-0.83437 2.7084-2.5 4.375l1.875 0.625c2.9161-3.75 4.7911-8.5416 5.625-14.375h3.125l-1.25 10c3.7495-1.6666 5.6245-5.8333 5.625-12.5-4.7e-4 -8.3333-1.4594-15.417-4.375-21.25h2.5l3.75 5.625v3.125c1.25 4.5834 1.8745 7.7084 1.875 9.375-4.7e-4 0.41719-0.20937 1.25-0.625 2.5-4.7e-4 1.25-0.20937 2.9167-0.625 5l1.25 1.875c2.4995-2.9166 3.7495-5.8333 3.75-8.75-4.7e-4 -0.41719-0.20937-1.25-0.625-2.5-4.7e-4 -1.25-0.20937-2.9166-0.625-5h2.5v1.25l1.875 3.125c1.25-2.9166 1.8745-5.2083 1.875-6.875-4.7e-4 -1.6666-1.25-4.7916-3.75-9.375l3.125-0.625 1.875 3.125c0.41563-2.5 0.625-4.5833 0.625-6.25 0.41563-2.0833 0.625-3.7498 0.625-5-4.7e-4 -2.0833-0.20937-3.7498-0.625-5v-1.875c-4.7e-4 -0.41719 1.25-4.9998 3.75-13.75h-3.125c-2.0839 1.6e-4 -4.5839 0.83281-7.5 2.5-0.83437 2.0834-1.8755 3.7502-3.125 5-0.83437 1.6e-4 -3.1255-1.8748-6.875-5.625-3.3339-3.7498-5.0005-6.4583-5-8.125-0.83437-4.5833-1.6672-6.8748-2.5-6.875h-0.625l-6.25 6.875m-358.12-1.875c-5.0002 3.7502-9.7919 9.1667-14.375 16.25l1.875 3.75 1.875 2.5 3.125 6.875 1.25 5.625c-1.25 2.5-2.5002 3.75-3.75 3.75-2.0834 0-3.3334-0.20781-3.75-0.625-2.5002-2.9166-5.2084-4.3748-8.125-4.375h-8.125l-0.625 1.25c0.83281 2.0834 1.6666 4.1667 2.5 6.25 1.25 1.6667 2.4998 3.5417 3.75 5.625l6.25 5.625 1.25 2.5 5.625 2.5 1.25-2.5 2.5 1.25c0.83281 0.83281 1.4578 1.25 1.875 1.25 0.41719-0.41719 0.83281-0.625 1.25-0.625l1.25-1.25-1.25-3.125c3.3331 0.83281 4.7916 1.25 4.375 1.25 1.25 0 1.6666-1.25 1.25-3.75v-2.5l3.75-0.625c0.41719-1.25 1.0422-3.5416 1.875-6.875l0.625-1.875c0.41719-1.25 0.625-3.1248 0.625-5.625v-6.25l-1.25-6.25v-5l-2.5-8.125c-1.25-4.5833-2.7084-6.8748-4.375-6.875m201.25 4.375c-4.5838 5.8334-6.8753 10.417-6.875 13.75-3.1e-4 0.83281-3.1e-4 1.8752 0 3.125 0.41563 1.25 0.83281 2.9167 1.25 5h0.625l0.625 5.625 1.875 3.125 4.375 5-0.625 1.25-0.625-2.5-0.625 3.125c-3.3338 0.41719-5.6253 1.6667-6.875 3.75-1.25 1.6667-1.8753 2.9167-1.875 3.75-3.1e-4 0.83281 0.625 1.875 1.875 3.125 2.083 3.3334 5.4162 5.8334 10 7.5 4.9997 1.6667 8.958 4.1667 11.875 7.5 1.6662 2.9167 2.4997 5.2084 2.5 6.875-3.1e-4 1.6667-1.667 4.1667-5 7.5h0.625c4.1662 0.41719 6.8747-2.0833 8.125-7.5 0.41563-2.5 1.6662-3.75 3.75-3.75l-1.875 8.75c4.583-3.3333 6.8747-8.3333 6.875-15-3.1e-4 -4.5833-1.4594-8.9583-4.375-13.125l3.125-0.625-0.625-0.625c3.333 5.8334 4.9997 10.833 5 15v6.25l3.125-3.125-0.625-7.5c0.41563-0.41719 1.4578-0.625 3.125-0.625 0.41563 0.41719 0.625 1.25 0.625 2.5l1.25-4.375-1.25-8.125 2.5 0.625v-5c0.41563-2.5-1.0422-6.25-4.375-11.25l-1.25-3.125c-4.5838-4.5833-6.8753-8.7498-6.875-12.5l0.625-4.375c-5.8338 0.83281-9.3753 5.2084-10.625 13.125l-3.75-6.25-5.625-6.25-10-10.625m-75.625 17.5-1.25 3.125c-3.1e-4 5.8334 3.7497 8.7502 11.25 8.75 7.4997 1.6e-4 12.5-3.9583 15-11.875 1.6664-5.4166 3.1247-8.7498 4.375-10 2.083-3.3333 3.1247-4.9998 3.125-5l-1.25-1.25h-0.625c-1.667 1.6e-4 -3.3336 1.8752-5 5.625-4.5836 11.25-10.209 16.875-16.875 16.875-2.9169 1.6e-4 -5.8336-2.0833-8.75-6.25m-100-1.875c-1.6669 1.25-3.1252 2.5002-4.375 3.75-0.83281 1.25-1.6669 2.2917-2.5 3.125l-0.625 1.25c-1.25 4.5834-1.8752 9.5834-1.875 15l1.875 11.875c2.0831-2.0833 3.1248-3.3333 3.125-3.75v-0.625c-1.6e-4 -2.0833-0.20781-4.1666-0.625-6.25l-0.625-1.875c0.83281-8.3333 2.7081-12.5 5.625-12.5 1.6666 1.6e-4 2.7081 0.20781 3.125 0.625l5 2.5 5.625 1.25c1.6664 0.41719 2.4998 1.4578 2.5 3.125v2.5c4.1664-2.9166 6.2498-6.2498 6.25-10-1.6e-4 -9.1666-4.7919-13.75-14.375-13.75-4.1669 1.6e-4 -6.8752 1.25-8.125 3.75m-63.125 41.25-7.5-5c-3.3334-2.0833-5.0002-5.8333-5-11.25-1.6e-4 -3.75 2.9166-7.5 8.75-11.25 4.1666-2.9166 7.7083-4.3748 10.625-4.375 1.6666 1.6e-4 4.1666 0.41719 7.5 1.25 3.3333 0.41719 5.8331 0.625 7.5 0.625h0.625c2.0831 0.83281 3.1248 1.6e-4 3.125-2.5-1.6e-4 -2.0833-4.7919-3.1248-14.375-3.125h-3.75c-6.6667 1.6e-4 -12.5 2.0834-17.5 6.25-5.0002 3.7502-7.5002 8.3334-7.5 13.75-1.6e-4 3.75 1.4578 8.125 4.375 13.125 2.9166 4.5834 6.4583 6.875 10.625 6.875 2.0833 0 3.1248-0.83281 3.125-2.5-1.6e-4 -0.83281-0.20781-1.4578-0.625-1.875m6.875-9.375c-2.5002 0.83281-3.7502 2.9167-3.75 6.25-1.6e-4 3.3334 1.6666 5 5 5 3.3333 0 4.9998-2.2916 5-6.875-1.6e-4 -2.9166-1.8752-4.375-5.625-4.375h-0.625m38.125 6.25c2.4998-1.25 3.7498-2.2916 3.75-3.125-1.6e-4 -1.6666-0.83281-2.5-2.5-2.5-2.0834 0-3.1252 1.0422-3.125 3.125 0.41719 0.41719 0.625 0.83281 0.625 1.25l1.25 1.25m-6.25 1.25c-2.0834 0-3.1252 0.83281-3.125 2.5-1.6e-4 2.0834 0.83281 3.125 2.5 3.125 1.25 0 2.2916-0.625 3.125-1.875l0.625-1.25c-1.6e-4 -1.6666-1.0422-2.5-3.125-2.5m28.75 3.75c-1.6669 0.41719-4.1669 0-7.5-1.25l8.75 6.25 180-0.625c-4.5838-3.75-8.7503-5.4166-12.5-5h-5l-163.75 0.625m-18.75-3.125-2.5 5c-1.6669 0.83281-3.3334 1.6667-5 2.5-1.6669 0.83281-3.3334 1.6667-5 2.5-1.6e-4 2.9167 3.9581 6.875 11.875 11.875 3.3331 2.0834 6.4581 3.9584 9.375 5.625 2.9166 1.25 5.4166 2.2917 7.5 3.125 1.6666 0.41719 3.7498 0.83281 6.25 1.25 2.4998 0.41719 5.4164 1.0422 8.75 1.875 2.0831 0.41719 3.7498 0.83281 5 1.25h6.25l9.375-1.25c3.3331-2.5 4.9998-4.5833 5-6.25-1.6e-4 -2.9166-4.3752-4.375-13.125-4.375h-8.75l-3.75-0.625-2.5-0.625-3.125-0.625-3.125-1.25-1.875-0.625-6.875-5-9.375-8.125-4.375-6.25m-19.375 2.5c-0.83281 0-1.25 0.625-1.25 1.875-1.6e-4 2.0834 1.0422 3.125 3.125 3.125 1.25 0 1.8748-0.83281 1.875-2.5-1.6e-4 -1.6666-1.25-2.5-3.75-2.5m-8.75 0 0.625 3.75 3.125-3.125-3.75-0.625m-5.625 3.125c-1.6667 0-2.5002 0.83281-2.5 2.5-1.6e-4 1.25 0.625 1.875 1.875 1.875 1.6666 0 2.4998-0.83281 2.5-2.5-1.6e-4 -1.25-0.625-1.875-1.875-1.875m375.62 2.5-10.625 5-1.875 0.625h-1.25l-18.75-2.5c-2.0838-0.83281-3.1255-0.20781-3.125 1.875-4.7e-4 0.41719 4.3745 2.5 13.125 6.25 3.3328 0.83281 4.7912 1.25 4.375 1.25 3.3328 0 7.7078-1.4578 13.125-4.375 3.7495-1.6666 5.6245-3.5416 5.625-5.625v-0.625l-0.625-1.875m-385.62-0.625c-2.5002 0.83281-3.7502 1.875-3.75 3.125-1.6e-4 2.9167 1.25 4.375 3.75 4.375 2.4998 0 3.7498-1.4578 3.75-4.375-1.6e-4 -2.0833-1.0422-3.125-3.125-3.125h-0.625m-20 5.625c-1.6e-4 3.75 1.6666 5.625 5 5.625 3.3333 0 4.9998-1.875 5-5.625-1.6e-4 -2.9166-1.8752-4.375-5.625-4.375-2.9167 0-4.3752 1.4578-4.375 4.375m362.5-1.875v2.5c2.0828 3.3334 3.1245 5.2084 3.125 5.625-4.7e-4 1.25-0.83437 3.125-2.5 5.625-1.25 2.0834-2.5005 3.125-3.75 3.125-1.25 0-3.1255-0.625-5.625-1.875l-2.5-1.875-1.25-8.75c-3.7505 3.3334-5.6255 6.0417-5.625 8.125-4.7e-4 4.1667 2.4995 8.125 7.5 11.875 3.3328 0.83281 4.7912 1.25 4.375 1.25 0.83281 0 2.4995-1.25 5-3.75 2.4995-2.5 4.1662-3.5417 5-3.125l5.625 2.5-1.25-11.25-6.875-10h-1.25m-50 0-2.5 0.625h3.125c-5.417 0-10.834 1.0422-16.25 3.125l-21.25 9.375c-5.8338 2.5-13.75 4.375-23.75 5.625 4.9997 0 7.9162 0.20781 8.75 0.625h4.375l43.125-13.125c0.41563-0.41719 1.4578-0.625 3.125-0.625 2.4995 0 5.4162 1.25 8.75 3.75 1.6662 2.9167 2.4995 5.4167 2.5 7.5-4.7e-4 1.6667-0.625 3.75-1.875 6.25h1.875c4.583 0.83281 6.8745-2.7083 6.875-10.625-4.7e-4 -2.5-1.25-5.4166-3.75-8.75-3.7505-1.6666-8.1255-2.9166-13.125-3.75m-91.875 1.875c2.9164 2.9167 7.083 5.625 12.5 8.125l8.125 2.5 5.625 0.625 12.5-1.25c3.7497-1.25 6.6662-4.1666 8.75-8.75h-1.25c-5.8338 3.3334-11.875 5-18.125 5-6.667 0-12.709-1.4578-18.125-4.375-1.667-2.9166-3.7503-4.375-6.25-4.375-1.25 0-2.0836 0.20781-2.5 0.625l-1.25 1.875m-18.75-0.625c-3.1e-4 12.5-5.417 18.75-16.25 18.75l-3.125-0.625-1.875-0.625-11.25-13.75c-1.6669-2.9166-6.0419-4.375-13.125-4.375-12.917 0-18.959 3.75-18.125 11.25v1.875l3.125 3.75c0.41719-9.1666 4.7914-13.75 13.125-13.75 5.8331 0 10.416 2.2917 13.75 6.875l4.375 6.875c3.3331 4.5833 8.1247 6.875 14.375 6.875 5.833 0 9.583-1.4578 11.25-4.375l1.875-3.125 3.75-4.375c1.6664-1.6666 2.4997-5 2.5-10-3.1e-4 -1.6666-0.625-2.5-1.875-2.5l-2.5 1.25m-118.12-0.625c5.4164 5.4167 12.708 8.125 21.875 8.125 3.7498 0 6.2498-0.20781 7.5-0.625l-29.375-7.5m130 1.25c1.25 4.1667 3.958 7.7084 8.125 10.625v1.25c-3.1e-4 4.5833-1.4578 6.875-4.375 6.875-0.83437 0-2.7086-0.625-5.625-1.875 1.6664 5.4167 3.958 8.125 6.875 8.125 5.833 0 8.7497-2.9167 8.75-8.75-3.1e-4 -3.3333-3.1253-7.5-9.375-12.5-0.41719-0.41719-1.0422-0.83281-1.875-1.25-0.83281-0.83281-1.667-1.6666-2.5-2.5m219.38 0.625-25 8.75h5c1.6661 0.41719 4.1661 0.20781 7.5-0.625 3.3328-1.25 6.0411-1.875 8.125-1.875 0.41563 0 4.1661 1.0422 11.25 3.125 1.6661 1.6667 2.4995 3.3334 2.5 5-0.41719 0.41719-0.625 1.6667-0.625 3.75h1.875c1.6661 0 2.7078-2.0833 3.125-6.25l0.625-4.375c-4.7e-4 -2.0833-1.8755-4.1666-5.625-6.25l-8.75-1.25m-408.12 7.5c4.5833-2.0833 6.8748-3.75 6.875-5-1.6e-4 -1.6666-0.625-2.5-1.875-2.5-1.6667 0-3.3334 2.5-5 7.5m-15 1.25c1.6666 1.6667 3.1248 2.5 4.375 2.5 2.0833 0 3.1248-1.0422 3.125-3.125-1.6e-4 -2.0833-0.83281-3.3333-2.5-3.75h-0.625l-4.375 4.375m25.625 15c-1.6e-4 -7.5 2.9166-11.25 8.75-11.25 3.7498 0 7.0831 0.83281 10 2.5l11.875 5 6.875 0.625v-1.875c-3.7502-1.25-6.2502-2.0833-7.5-2.5-1.25-0.83281-3.7502-2.2916-7.5-4.375-5.4169-2.9166-10.625-4.375-15.625-4.375-8.7502 0-13.125 3.125-13.125 9.375-1.6e-4 2.9167 2.0833 5.2083 6.25 6.875m-34.375-18.125-0.625 6.25 2.5-3.125-1.875-3.125m152.5 4.375h-0.625c-0.83437 0-1.25 0.625-1.25 1.875-3.1e-4 1.6667 1.0422 2.5 3.125 2.5 1.25 0 1.8747-0.83281 1.875-2.5-3.1e-4 -1.25-1.0422-1.875-3.125-1.875m-150 1.25c-2.5002 2.0834-3.7502 3.5417-3.75 4.375-1.6e-4 3.75 1.8748 5.625 5.625 5.625 3.3333 0 4.9998-1.4578 5-4.375-1.6e-4 -2.9166-2.2917-4.7916-6.875-5.625m159.38 0.625v4.375c2.0831 0 3.1247-0.625 3.125-1.875-3.1e-4 -0.83281-1.0422-1.6666-3.125-2.5m-143.75 3.125c-2.9167 0-4.3752 1.25-4.375 3.75-1.6e-4 2.9167 1.4578 4.375 4.375 4.375 2.9166 0 4.3748-1.6667 4.375-5-1.6e-4 -2.0833-1.4578-3.125-4.375-3.125m121.88 3.75c0.41719 2.5 2.4997 3.75 6.25 3.75 2.9164 0 6.0414-0.83281 9.375-2.5-0.83437-0.83281-1.6669-1.25-2.5-1.25h-1.25c-1.6669 0.41719-2.9169 0.83281-3.75 1.25h-4.375c-0.83437-0.41719-2.0836-0.83281-3.75-1.25m25 1.25c-2.5003 0-3.7503 1.0422-3.75 3.125-3.1e-4 1.25 1.0406 1.875 3.125 1.875 1.25 0 2.2914-0.625 3.125-1.875v-1.25c-3.1e-4 -1.25-0.83437-1.875-2.5-1.875m61.25-420.62c-0.41719 0.83438-0.625 2.7088-0.625 5.625v1.25c-3.1e-4 0.83438 0.20781 1.667 0.625 2.5l1.875 3.125-1.875 0.625c-2.917-2.9162-4.3753-4.583-4.375-5-3.1e-4 -3.7495 1.4578-6.458 4.375-8.125m-6.875 1.25-0.625 5.625 1.25 5-3.75-1.25c-1.25 4.7e-4 -1.8753-1.0406-1.875-3.125-3.1e-4 -3.7495 1.25-5.6245 3.75-5.625l1.25-0.625m125.62 7.5 3.125 1.25c-3.3338 1.667-5.6255 2.5005-6.875 2.5l-5.625 6.875v-0.625c-4.7e-4 -3.7495 0.20781-6.0412 0.625-6.875 0.83281-0.83281 3.7495-1.8745 8.75-3.125m-53.75 16.25-0.625 2.5-17.5-8.125-11.875-4.375 3.125-0.625c5.833 4.7e-4 14.791 3.542 26.875 10.625m60.625-11.25c-2.0838 1.25-3.9588 2.7088-5.625 4.375-1.667 1.25-3.1255 2.5005-4.375 3.75l1.25-0.625h-1.875v-1.25c-4.7e-4 -3.333 3.5412-5.4162 10.625-6.25m-306.25 5.625v-9.375l2.5 5.625c-1.6e-4 2.917-0.625 4.5838-1.875 5l-5 5 4.375-6.25m310.62-0.625c0.83281-2.083 0.625-3.1245-0.625-3.125-1.6672 4.7e-4 -3.9588 1.25-6.875 3.75-2.5005 2.0838-2.9172 3.1255-1.25 3.125 0.41563 1.667 1.0406 2.0838 1.875 1.25-4.7e-4 -1.6662 0.83281-2.4995 2.5-2.5 1.6662-0.83281 2.7078-1.4578 3.125-1.875 0.83281-0.41562 1.25-0.625 1.25-0.625m-87.5 2.5 7.5 3.75 5.625 1.875 2.5 3.125-15.625-6.25v-2.5m104.38 19.375 0.625-1.875c1.25 0.41719 2.7078 1.0422 4.375 1.875 4.1662 4.5838 6.4578 11.25 6.875 20l-5-13.75-6.875-6.25m-81.875 3.125c-0.41719 4.7e-4 -0.41719-0.83281 0-2.5 0.41563-1.6662 1.0406-2.4995 1.875-2.5 1.25 4.7e-4 1.8745 2.292 1.875 6.875l-4.375 8.75c0.41563 3.1e-4 0.625-3.5412 0.625-10.625m111.88 5.625 8.125 3.75 12.5 1.25h-14.375l-5-3.125-1.25-1.875m-213.12 11.875c-3.3336-2.9162-7.0836-4.583-11.25-5 0.83281 3.1e-4 1.4578 0.20938 1.875 0.625-4.5836-2.083-6.8753-3.5412-6.875-4.375-3.1e-4 -0.41562 0.41719-0.625 1.25-0.625 1.6664 3.1e-4 3.7497 0.625 6.25 1.875 2.9164 0.83438 5.6247 2.0838 8.125 3.75 2.9164 1.667 5.208 3.542 6.875 5.625 2.083 2.0838 3.1247 4.3753 3.125 6.875l2.5 7.5-6.25-11.875-3.125-2.5-2.5-1.875m205.62 10c0.83281 0.83438 2.4995 2.5003 5 5 2.4995 2.0838 4.5828 8.7503 6.25 20l-1.875 1.875-3.125-14.375c-0.83437-2.083-1.8755-4.1662-3.125-6.25-1.25-2.083-2.2922-4.1662-3.125-6.25m-174.38 28.125 8.75-0.625-6.25 2.5h-1.875c-0.83437 3.1e-4 -2.5003-1.25-5-3.75-3.1e-4 -2.083 0.41719-3.1247 1.25-3.125l3.125 5m121.88-3.125 3.75 1.25 9.375 10.625 5.625 13.75-0.625 5.625c-4.7e-4 3.1e-4 -0.41719-0.625-1.25-1.875-0.41719-1.25-1.0422-3.333-1.875-6.25-0.83437-0.41562-1.6672-1.8747-2.5-4.375-1.25-5.833-3.7505-10.625-7.5-14.375l-5-4.375m-15-1.875h2.5c2.083-0.83281 3.1245-0.20781 3.125 1.875-4.7e-4 2.5003-1.25 3.7503-3.75 3.75-2.0838 3.1e-4 -2.917-0.20781-2.5-0.625-4.7e-4 -2.4997 0.20781-4.1662 0.625-5m6.25 8.125 2.5 1.875-0.625 2.5-3.75-0.625 1.875-3.75m-26.875 2.5c2.083 3.3336 3.1245 5.6253 3.125 6.875v4.375l0.625 6.25c-2.917 3.1e-4 -4.3755-3.958-4.375-11.875v-3.75l0.625-1.875m-4.375-0.625 1.25 9.375 1.875 6.25v5.625l-3.75-8.125c-2.0838-4.9997-3.1255-7.708-3.125-8.125 0.83281-2.083 1.4578-3.1247 1.875-3.125l1.875-1.875m-278.12 25-7.5 13.125 1.875-8.125c2.0833-3.333 3.1248-6.2497 3.125-8.75-1.6e-4 0.41719 0.20781-0.625 0.625-3.125 0.41719-2.4997 1.0422-6.0414 1.875-10.625v-2.5c0.41719-1.25 1.0422 0.41719 1.875 5l-1.875 15m202.5-16.875 1.875 1.875-0.625 1.875h-5.625l-1.25-1.875 2.5-2.5 3.125 0.625m45 2.5 4.375 1.25 2.5 5 2.5 5.625 1.25 3.125-1.25-3.125-4.375-5-5-6.875m-40.625 3.125v-3.75h0.625l2.5-0.625c0.83281 3.1e-4 1.25 0.41719 1.25 1.25-3.1e-4 1.667-1.4578 2.7086-4.375 3.125m11.875-3.75c0.41563 3.1e-4 0.625 1.25 0.625 3.75-3.1e-4 0.41719-1.25 0.83438-3.75 1.25l-1.25-3.125 1.25-1.25 1.875-0.625h1.25m8.125 5-1.875-3.75-1.875-0.625-1.25 3.125c-3.1e-4 1.25 0.41563 1.8753 1.25 1.875 2.4997 2.5003 3.7497 2.292 3.75-0.625m18.75 0.625 8.125 8.125c2.083 3.3336 3.1247 5.8336 3.125 7.5-3.1e-4 -1.25 0.41563-0.83281 1.25 1.25 0.83281 2.0836 1.25 3.7503 1.25 5-0.41719 1.667-1.25 2.292-2.5 1.875l-3.75-10.625c-0.83437 3.1e-4 -2.0838-2.4997-3.75-7.5-0.83437-1.6664-2.0838-3.5414-3.75-5.625m-16.25 2.5 4.375-1.875-3.75-3.75-0.625 5.625m87.5 28.75 5-8.125-0.625 1.875c2.4995-7.083 4.9995-10.625 7.5-10.625-5.0005 10.834-7.5005 15.417-7.5 13.75-4.7e-4 6.2503-1.4594 9.3753-4.375 9.375l-1.875-1.875 1.875-4.375m13.125-4.375-5 1.875c-0.83437 2.5003-3.3338 7.5003-7.5 15l0.625-0.625 11.875-16.25m-329.38 10.625v10.625l-1.25 1.875-3.125 7.5 1.25-6.25 1.25-3.75 1.875-10m31.25 1.875-8.75 1.875-6.875 6.25 15.625-8.125m-5 6.25 7.5-5.625c-2.9169 2.0836-6.2502 4.5836-10 7.5-3.7502 2.5003-7.9169 5.8336-12.5 10 3.7498-4.9997 8.7498-8.9581 15-11.875m154.38-7.5c-3.1e-4 2.5003-1.25 4.5836-3.75 6.25-2.0836 1.6669-6.2503 7.5003-12.5 17.5l-0.625 1.25-4.375 9.375c0.41719-9.1664 4.3747-17.5 11.875-25l9.375-9.375m213.75 10c1.6661-6.2497 3.3328-10.208 5-11.875 0.41563 3.1e-4 0.625 0.20938 0.625 0.625-4.7e-4 9.5836-3.9589 16.459-11.875 20.625 0.83281-0.83281 2.9161-3.9581 6.25-9.375m-403.12 9.375 1.875-7.5c-4.5834-0.83281-6.8752 4.7919-6.875 16.875-1.6e-4 -0.41562-1.0422 1.4594-3.125 5.625-2.0834 4.1669-3.5417 8.5419-4.375 13.125l8.75-16.875 3.75-11.25m202.5 4.375-1.875 4.375c-0.83437 3.1e-4 -1.25-0.41719-1.25-1.25-3.1e-4 -1.25 0.625-1.8747 1.875-1.875l1.25-1.25m61.25 0.625 3.125 2.5-2.5 3.125-1.875-2.5-0.625-1.25 1.875-1.875m-64.375 6.25-1.25 1.875-1.25-0.625h-1.25c-1.667 3.1e-4 -2.5003-0.83281-2.5-2.5-3.1e-4 -1.25 0.83281-1.8747 2.5-1.875 1.6664 3.1e-4 2.4997 0.625 2.5 1.875-3.1e-4 0.83438 0.41719 1.25 1.25 1.25m56.875-4.375 1.25 6.875-4.375-3.125 3.125-3.75m78.75 3.75 16.25-2.5c-2.0838 0.41719-4.5838 1.4578-7.5 3.125-2.5005 1.25-3.9588 1.8753-4.375 1.875-1.6672 3.1e-4 -3.1255-0.83281-4.375-2.5m-88.125 3.75 2.5 2.5c-2.917 3.1e-4 -3.9588-1.25-3.125-3.75l0.625-1.875 3.125 1.25-0.625 4.375-2.5-2.5m-58.125 0 2.5 0.625-0.625 3.75-5.625-1.25 1.25-1.25 2.5-1.875m130 11.875-0.625 1.875-1.25 2.5-2.5-2.5c-4.7e-4 -0.41719 0.20781-0.625 0.625-0.625l0.625-0.625c2.4995 3.1e-4 3.5412-0.20781 3.125-0.625m-163.75-5.625 6.25 1.25c-0.41719 0.41719 0.41563 1.0422 2.5 1.875 2.0831 0.41719 3.1247 0.625 3.125 0.625-5.0003 3.1e-4 -7.2919 0.20938-6.875 0.625l-5-4.375m170 7.5-1.25 5-3.125-1.25 1.25-3.75h3.125m8.125 1.875-0.625 4.375h-3.125c-4.7e-4 1.6e-4 -4.7e-4 -0.20781 0-0.625 0.41563-0.83281 1.0406-2.0831 1.875-3.75-4.7e-4 0.83281 0.625 0.83281 1.875 0m-178.75-3.75 6.25 1.875h8.75c-1.6669 0.83281-2.9169 1.6669-3.75 2.5-0.83437 0.41719-1.25 0.625-1.25 0.625-2.0836 1.6e-4 -3.3336 0.20938-3.75 0.625-2.0836-0.41562-4.1669-2.2914-6.25-5.625m56.875 11.25c-2.0836 5.8336-8.9586 12.709-20.625 20.625l-4.375 5 4.375-5.625c2.083-2.9164 6.0414-6.6664 11.875-11.25l3.75-5 5-3.75m-1.25-3.75c-2.0836 2.0836-4.3753 4.3752-6.875 6.875-2.5003 2.5002-5.0003 4.7919-7.5 6.875l-2.5 0.625 2.5-3.75 2.5-2.5 11.875-8.125m141.25 8.75 4.375-1.25-3.125 5.625-1.875-2.5 0.625-1.875m60 1.25-3.75-5 7.5 2.5 3.75 5.625-7.5-3.125m-65.625 0.625 5.625 5h-3.75l-1.875-5m-335 3.125v-4.375l4.375-1.875 0.625 1.25-5 5m396.25 3.125 6.25 0.625 3.125 2.5h3.75l-4.375-4.375-5.625-0.625-3.125 1.875m-65-1.875 2.5 3.125h-5.625l3.125-3.125m-334.38-1.25-6.25 15.625c-5.8334 7.9169-8.5417 17.292-8.125 28.125v3.75l-1.25 0.625c-1.25-2.9166-1.8752-4.9998-1.875-6.25 0.83281-1.25 1.4578-3.9581 1.875-8.125l1.25-5.625c0.41719-1.25 0.83281-2.7081 1.25-4.375 0.41719-2.0831 1.0422-4.3748 1.875-6.875-0.41719 0.41719-0.625 1.0422-0.625 1.875v0.625c2.4998-3.3331 4.5833-6.6664 6.25-10 2.0833-3.3331 3.9583-6.4581 5.625-9.375m391.25 6.875-3.125 5.625-1.875 5.625c-0.83438 2.0836-1.6672 3.1252-2.5 3.125-0.41719 1.6e-4 -0.625-0.20781-0.625-0.625-4.7e-4 -0.83281 0.41563-2.9164 1.25-6.25 1.25-3.7498 3.5411-6.2498 6.875-7.5m-408.12 5c1.6666-3.3331 3.3333-5.4164 5-6.25 1.6666 1.6e-4 1.25 0.83438-1.25 2.5-2.0834 1.6669-4.3752 2.0836-6.875 1.25l-3.75-3.125 2.5 5.625c1.6666 1.25 2.9166 1.4578 3.75 0.625l0.625-0.625m271.25 4.375c0.83281 0.83438 0.83281 1.6669 0 2.5-1.667-0.41719-2.5003-0.83281-2.5-1.25-3.1e-4 -2.4998 0.20781-3.7498 0.625-3.75l1.875 2.5m-244.38-1.25c-0.83281 2.5002-1.4578 4.3752-1.875 5.625-0.41719 1.25-1.0422 2.7086-1.875 4.375-0.41719 1.25-1.25 2.9169-2.5 5-0.83281 1.6669-2.2917 4.1669-4.375 7.5-3.7502 4.1669-6.0417 6.2502-6.875 6.25l8.75-14.375-3.75 5.625-0.625 2.5c-1.6e-4 -0.41719 0.20781-0.625 0.625-0.625l-0.625 0.625v-0.625c0.41719-0.83281 1.25-2.2914 2.5-4.375 1.6666-2.0831 2.7083-3.5414 3.125-4.375-0.83281 1.6669-1.6667 2.9169-2.5 3.75l5-10 5-6.875m-28.75 3.75-2.5 1.25-1.875-1.875-1.25-5.625 5 4.375 1.25-0.625c-1.6e-4 1.25 1.4578 1.0422 4.375-0.625-0.41719 0.83438-2.0834 2.7086-5 5.625 0.41719-1.25 0.41719-2.0831 0-2.5m18.75 1.875c-1.6e-4 2.5002-1.25 5.4169-3.75 8.75-2.5002 2.9169-4.1667 4.3752-5 4.375v-0.625c0.41719-1.25 2.2916-3.5414 5.625-6.875l1.25-3.125 1.25-1.875 0.625-0.625m398.12 10.625-2.5 4.375c-4.7e-4 1.25-0.625 2.7084-1.875 4.375l-5.625 8.75-1.25-0.625c0.41562-5.4166 4.1661-11.042 11.25-16.875m-0.625 8.75-0.625 3.125c-4.7e-4 0.41719-1.0422 2.2919-3.125 5.625l-2.5-0.625c1.25-4.9998 3.3328-7.7081 6.25-8.125m-384.38 25.625 1.25 0.625 2.5-1.25h0.625-0.625c1.6666 1.6e-4 1.8748-1.0422 0.625-3.125-1.25-1.6666-2.0834-2.2916-2.5-1.875-0.41719 1.6669-1.4578 2.5002-3.125 2.5-0.41719 1.6e-4 -1.6e-4 1.0422 1.25 3.125m197.5-0.625c0.41719 0.41719 2.708 1.6669 6.875 3.75 0.83281 0.83281 1.6662 1.6669 2.5 2.5 1.25 0.83281 2.2912 1.6669 3.125 2.5h1.25l0.625 3.125-6.875-5-3.75-2.5-3.125-2.5-0.625-1.875m-6.25 1.875 6.25 3.75c0.41719 0.41719 1.25 1.0422 2.5 1.875 1.6664 0.83281 3.5412 2.0834 5.625 3.75l-0.625 3.75-7.5-5-3.125-3.75-3.125-4.375m-191.88 3.75c-8.7502 16.25-14.375 31.667-16.875 46.25v1.875c-1.6e-4 0.41719-0.20781 0.625-0.625 0.625-0.83281 1.6e-4 -1.25-0.20781-1.25-0.625v-6.25c-1.6e-4 -15.417 6.2498-30 18.75-43.75v1.875m168.12 7.5-10.625 3.125c1.6664-1.25 6.0414-1.25 13.125 0 3.7497 0.83281 6.0414 1.0422 6.875 0.625 0.83281-0.41719 0.83281-0.83281 0-1.25-0.83437-0.41719-2.292-0.83281-4.375-1.25-1.667-0.83281-3.3336-1.25-5-1.25m-192.5 5.625c-2.5002-0.41719-3.7502-2.4998-3.75-6.25l4.375 1.875h3.75c2.0833-2.0831 3.1248-2.0831 3.125 0-1.6e-4 1.25-1.8752 2.5002-5.625 3.75l-1.875 0.625m25.625 5.625 5.625-6.25c-1.6e-4 -0.41719-2.9169 1.8752-8.75 6.875l-0.625 1.875 3.75-2.5m16.25-10.625-2.5 5c-1.6e-4 0.41719-1.4578 2.2919-4.375 5.625-2.5002 3.3334-3.7502 5.0002-3.75 5v0.625l0.625-0.625c0.41719 1.6e-4 0.83281-0.20781 1.25-0.625-0.83281 0.83281-1.6669 1.4578-2.5 1.875l-0.625 0.625 1.25-1.25 0.625 0.625c-0.83281 0.83281-2.2919 1.25-4.375 1.25v-2.5l3.125-2.5 6.875-7.5 4.375-5.625m-40.625 6.875h5.625c-0.83281 1.25-2.5002 2.2917-5 3.125h-3.125l-3.125-3.125h5.625m263.75-0.625 4.375 5c-0.83437 1.6e-4 -1.25-0.625-1.25-1.875 0.41563 6.6667-1.25 10-5 10 0.41563-0.41719 0.625-1.0422 0.625-1.875v-1.25c0.41563-3.3333 0.625-5.6248 0.625-6.875 0.41563-1.6666 0.625-2.7081 0.625-3.125m7.5 0h1.25c0.83281 0.83281 1.6662 2.0834 2.5 3.75 0.83281 0.83281-0.41719 3.7502-3.75 8.75v-12.5m11.875 6.25c-1.667 0.83281-2.7088 1.6667-3.125 2.5-4.7e-4 0.83281-0.20937 1.6667-0.625 2.5-1.25 1.6e-4 -1.8753-1.0422-1.875-3.125-3.1e-4 -2.9166 0.83281-4.3748 2.5-4.375 1.6662 0.41719 2.4995 0.41719 2.5 0l0.625 2.5m-288.75 0.625 5 3.125c1.25-0.41719 2.7083-1.0422 4.375-1.875 2.0833-0.83281 2.0833-1.25 0-1.25-5.8334-0.41719-8.9584-0.41719-9.375 0m170 12.5 11.875-6.875-6.875 5.625-5 1.25m-126.88 6.25 2.5 3.125 1.25 2.5c0.41719 2.0834 0.625 3.9584 0.625 5.625 0.41719 1.25 0.625 2.2917 0.625 3.125-1.6e-4 2.0834-0.625 3.1252-1.875 3.125l1.875-0.625-2.5 0.625-2.5-17.5m-25 3.125-0.625 3.125h-3.125l4.375-8.75-0.625 5.625m395 21.25-1.875 0.625c-0.41719-0.41719-0.83437-0.625-1.25-0.625-0.41719-0.41719-0.83437-0.83281-1.25-1.25-4.7e-4 -0.41719 0.83281-0.625 2.5-0.625h0.625l1.25 1.875m-371.25-0.625 1.25 8.125c-1.6e-4 2.5-0.20781 3.9584-0.625 4.375l-1.25 1.25c-3.3334 0.83281-5.0002 1.25-5 1.25-1.25 0-3.9584-0.41719-8.125-1.25l-1.25-3.75 9.375 1.875 3.125-1.875 2.5-10m-5.625-81.25 3.125-4.375v7.5h-4.375l1.25-3.125"
         fill="#8f0005"
         id="path13"
         style="fill:#790000;fill-opacity:1" />
    </g>
  </g>
</svg>
