<?xml version="1.0" encoding="UTF-8" standalone="no"?>
<svg
   xmlns:dc="http://purl.org/dc/elements/1.1/"
   xmlns:cc="http://creativecommons.org/ns#"
   xmlns:rdf="http://www.w3.org/1999/02/22-rdf-syntax-ns#"
   xmlns:svg="http://www.w3.org/2000/svg"
   xmlns="http://www.w3.org/2000/svg"
   xmlns:sodipodi="http://sodipodi.sourceforge.net/DTD/sodipodi-0.dtd"
   xmlns:inkscape="http://www.inkscape.org/namespaces/inkscape"
   version="1.1"
   viewBox="0 0 500 500"
   id="svg19"
   sodipodi:docname="william-morris-letter-u.svg"
   inkscape:version="1.0.2 (1.0.2+r75+1)">
  <metadata
     id="metadata23">
    <rdf:RDF>
      <cc:Work
         rdf:about="">
        <dc:format>image/svg+xml</dc:format>
        <dc:type
           rdf:resource="http://purl.org/dc/dcmitype/StillImage" />
      </cc:Work>
    </rdf:RDF>
  </metadata>
  <sodipodi:namedview
     pagecolor="#ffffff"
     bordercolor="#666666"
     borderopacity="1"
     objecttolerance="10"
     gridtolerance="10"
     guidetolerance="10"
     inkscape:pageopacity="0"
     inkscape:pageshadow="2"
     inkscape:window-width="1920"
     inkscape:window-height="1016"
     id="namedview21"
     showgrid="false"
     inkscape:zoom="1.686"
     inkscape:cx="255.33808"
     inkscape:cy="250"
     inkscape:window-x="0"
     inkscape:window-y="27"
     inkscape:window-maximized="1"
     inkscape:current-layer="svg19" />
  <defs
     id="defs7">
    <linearGradient
       id="linearGradient847"
       x1="500"
       x2="0"
       y1="500"
       y2="-4.2633e-14"
       gradientTransform="translate(103.20284,62.8707)"
       gradientUnits="userSpaceOnUse">
      <stop
         stop-color="#ff6700"
         offset="0"
         id="stop2" />
      <stop
         stop-color="#ffd700"
         offset="1"
         id="stop4" />
    </linearGradient>
  </defs>
  <path
     d="m153.91 45.373s-21.351 3.8555-24.316 3.8555-89.563-1.7793-89.563-1.7793h-5.9316c-1.4828 0-2.9648 7.7109-2.9648 7.7109l13.643 13.643 12.752 4.7441 17.496 9.7871 1.1875 51.008-0.59375 31.732 32.324 21.945 18.684 3.8555-2.668-106.17 8.8965-11.564 18.979-7.1172 11.566-12.16-9.4902-9.4902zm198.99 2.6699-11.566 1.4824s13.048 19.869 14.531 21.352c1.4828 1.4828 13.049 2.0762 13.049 2.0762l18.98 8.3047 2.6699 3.8555s2.0742 89.857 2.0742 91.34c0 1.4828 5.043-4.1523 5.043-4.1523l13.938-11.27 7.1172-14.531 4.1523-13.641-1.1856-46.264 8.8965-10.379 26.986-8.3047 2.0762-10.082-7.1172-7.4141s-68.209 1.4824-70.285 1.4824c-2.0759 0-29.359-3.8555-29.359-3.8555zm69.988 115.36-7.1172 7.4141-6.5254 7.1172-18.979 11.863 2.668 48.043 0.29687 22.834v61.686l-9.7871 30.545-14.828 30.842-23.725 16.904-21.352 12.752-18.09 4.7461-42.408 7.1172-13.939-2.0762 1.1875 9.4902s-2.3731 8.0062-0.59376 8.3027c1.7794 0.29655 6.5254 12.158 6.5254 12.158l19.275 3.2637 66.133-18.387 43.002-27.283 17.793-24.912 15.422-44.484 5.3379-45.67-0.29688-132.27zm-347.87 80.072 0.29688 67.021 6.2285 35.291 3.5586 27.283 29.951 38.256 66.727 37.664 51.602 7.7109 5.041-3.2637-10.082-28.469-3.2617-0.59375-24.021-3.5586-30.547-13.346-17.793-13.938-18.09-26.395-8.3047-16.904-1.1855-8.8965-0.29688-36.773-6.8203-14.234 2.0762-9.4902-0.29687-5.041-12.752-6.2285-32.029-26.096z"
     fill="#f4eee6"
     id="path11" />
  <g
     id="g17">
    <g
       transform="translate(-146.86,-119.79)"
       id="g15">
      <path
         d="m146.86 619.79v-500h500v500h-500m7.5-7.5h485v-485h-485v485m7.5-7.5v-469.38h469.38v469.38h-469.38m41.25-466.25-6.875-1.25-4.375 1.25-3.125 5.625 6.875-1.25 3.75 1.875c0.41719 1.6672 0.625 2.9172 0.625 3.75 0.41719 0.83437 0.625 1.25 0.625 1.25-1.6e-4 2.0838-1.25 5.2088-3.75 9.375 5.8333-3.3328 8.7498-7.4995 8.75-12.5-1.6e-4 -2.4995-0.83281-5.2078-2.5-8.125m113.75 25 7.5 10c2.4997 8.7505 3.7497 15.417 3.75 20-3.1e-4 5.417-1.4578 10.834-4.375 16.25l-1.875 1.25c-2.0836 2.5005-7.5003 6.4588-16.25 11.875l-3.75 0.625v-0.625c-0.41719-2.4995-1.4578-4.9995-3.125-7.5h-0.625l-2.5 0.625-5 1.875c-0.41719 0.41719-1.25 0.625-2.5 0.625-5.0002 4.7e-4 -8.7502-2.9162-11.25-8.75-1.6669 1.667-2.5002 3.3338-2.5 5-1.6e-4 2.5005 0.20781 4.3755 0.625 5.625 3.7498 6.2503 10.416 9.3753 20 9.375h4.375l-2.5 10c2.4998 8.7503 7.0831 13.75 13.75 15-2.5002-3.7497-3.7502-6.8747-3.75-9.375-1.6e-4 -2.4997 0.625-4.3747 1.875-5.625l4.375-3.75 0.625-1.25c0.41562-0.41562 0.625-0.83281 0.625-1.25-3.1e-4 -1.6662-2.0836-2.708-6.25-3.125l-1.25-1.25c17.916-9.1662 26.875-21.875 26.875-38.125-3.1e-4 -14.583-7.0836-27.5-21.25-38.75-13.75-11.25-29.167-16.25-46.25-15l-6.875 0.625c-13.75 0.83437-24.167 3.5422-31.25 8.125l-21.25 11.875c-4.5834 3.3338-6.8752 5.8338-6.875 7.5-1.6e-4 0.83437 0.83281 1.25 2.5 1.25 1.6666-0.41563 2.7083-0.625 3.125-0.625 0.83281-0.41563 1.25-0.625 1.25-0.625l12.5-9.375 8.125-3.75 9.375-5c7.0831-2.0828 17.5-3.1245 31.25-3.125 19.583 4.7e-4 35.833 6.4588 48.75 19.375m161.88-19.375-10.625 1.25-15.625 10c-1.667 1.6672-7.292 3.1255-16.875 4.375-2.0838 0.41719-3.9588 0.83437-5.625 1.25-1.25 4.7e-4 -2.292 4.7e-4 -3.125 0-8.7503 4.7e-4 -13.125-3.1245-13.125-9.375-3.1e-4 -6.6662 3.7497-9.9995 11.25-10 1.25 4.7e-4 3.5412 1.0422 6.875 3.125l8.125 5 1.875 0.625c0.41562 0.41719 1.0406 0.625 1.875 0.625 4.583 4.7e-4 7.2912-1.25 8.125-3.75-0.41719-0.41563-0.625-0.83281-0.625-1.25-3.1e-4 -0.83281-0.20938-1.4578-0.625-1.875l-10 1.875-12.5-6.25c-2.5003-0.83281-3.7503-1.25-3.75-1.25-9.5836 4.7e-4 -14.375 4.5838-14.375 13.75-3.1e-4 9.1672 5.833 13.75 17.5 13.75 11.25 4.7e-4 23.958-4.5828 38.125-13.75l6.875-4.375 6.25-3.75m-40.625 40-3.125 5.625-5.625 13.125-1.25 5.625-2.5 23.125h-2.5c-2.0838-1.25-3.542-1.8747-4.375-1.875-3.3336 3.1e-4 -4.792 3.3338-4.375 10v3.75l0.625 13.75c-3.1e-4 3.3338-0.20938 5.6253-0.625 6.875l-5.625 22.5h-1.875c-2.0836 5.417-5.0003 9.167-8.75 11.25 1.25 0.41719 3.5414 0.625 6.875 0.625 10.833 3.1e-4 17.5-4.7914 20-14.375 0.41562-2.9164 1.25-4.3747 2.5-4.375h1.875c0.41562 4.167 1.4578 6.2503 3.125 6.25 2.9162 3.1e-4 4.3747-3.958 4.375-11.875-3.1e-4 -8.7497-0.83438-13.958-2.5-15.625l-7.5-9.375c-0.41719-0.41563-0.625-1.25-0.625-2.5-3.1e-4 -3.333 1.4578-4.9997 4.375-5 1.6662 3.1e-4 3.5412 0.625 5.625 1.875l2.5 6.25 1.25 5.625c0.41562 5.417 4.3747 8.1253 11.875 8.125 1.25 3.1e-4 1.8747-0.41563 1.875-1.25-3.1e-4 -1.25-0.625-2.9162-1.875-5 9.1662-0.41563 15-3.5412 17.5-9.375-4.5838 1.667-8.1253 2.5003-10.625 2.5-6.2503 3.1e-4 -10-3.7497-11.25-11.25l-2.5-18.75c-0.41719-1.6662-1.4594-2.4995-3.125-2.5-0.83438 4.7e-4 -2.917 1.0422-6.25 3.125-3.1e-4 2.5005-0.41719 3.7505-1.25 3.75-1.25 4.7e-4 -1.8753-0.625-1.875-1.875-3.1e-4 -0.83281-3.1e-4 -1.8745 0-3.125 0.41562-1.25 0.83281-2.9162 1.25-5l1.875-8.125 3.125-8.125 1.25-5c0.83281-3.333 4.1662-8.333 10-15 20-21.25 42.916-31.875 68.75-31.875 20.833 4.7e-4 35.833 2.7088 45 8.125l21.875 13.75 10 1.25v-1.875c-4.7e-4 4.7e-4 -1.4594-0.83281-4.375-2.5-2.9172-2.0828-7.2922-5.2078-13.125-9.375-2.0839-1.6662-3.7505-2.7078-5-3.125-1.25-0.83281-2.0838-1.4578-2.5-1.875-9.1672-4.5828-20.834-8.1245-35-10.625-2.0838-0.41563-4.1672-0.625-6.25-0.625-1.6672-0.41563-3.3338-0.625-5-0.625-36.25 4.7e-4 -65 15-86.25 45m-93.75-15c0.41719-1.25 0.625-2.0828 0.625-2.5 0.41562-0.83281 0.625-1.25 0.625-1.25-3.1e-4 0.41719-0.41719-0.625-1.25-3.125l-3.125-4.375v-1.875c-3.1e-4 -7.4995 5.2081-11.25 15.625-11.25 2.0831 4.7e-4 4.1664 0.625 6.25 1.875 2.4997 0.83437 3.958 1.25 4.375 1.25l9.375 8.125h1.875c1.6664 4.7e-4 2.4997-0.625 2.5-1.875-3.1e-4 -1.25-1.0422-2.4995-3.125-3.75-1.667-1.6662-3.7503-3.3328-6.25-5-2.5003-1.6662-5.2086-2.9162-8.125-3.75-2.9169-1.25-5.4169-1.8745-7.5-1.875-13.334 4.7e-4 -20 5.4172-20 16.25-3.1e-4 4.5838 2.7081 8.9588 8.125 13.125m31.875-25c15.833 3.3338 23.75 8.3338 23.75 15v11.875l2.5 4.375c2.083-7.0828 3.1247-11.041 3.125-11.875-3.1e-4 -6.2495-2.5003-11.666-7.5-16.25-5.0003-4.9995-10.625-7.4995-16.875-7.5-4.5836 4.7e-4 -6.8753 0.625-6.875 1.875 0.41562 0.41719 0.625 0.83437 0.625 1.25 0.41719 0.41719 0.83281 0.83437 1.25 1.25m-208.12-4.375 0.625 3.75 3.125 5.625 1.875 6.875 0.625 11.25-1.25 6.875v3.125l-1.875 10-1.25 3.75 0.625 1.875-1.25 7.5-0.625 6.25c-0.41719 3.3338-0.83281 6.042-1.25 8.125-1.6e-4 1.667-1.6e-4 2.917 0 3.75v15l0.625 10 1.25 3.75 0.625 5.625 0.625 3.75 0.625 3.125 2.5 7.5 3.125 10 1.25 1.875-0.625 2.5 3.75 6.25 2.5 3.125 3.75 5 8.125 4.375-2.5-6.875-9.375-24.375c-3.7502-9.1662-5.6252-19.375-5.625-30.625-1.6e-4 -8.333 1.6666-15.416 5-21.25 3.7498-5.833 8.1248-8.7495 13.125-8.75 4.5833 4.7e-4 8.3333 2.0838 11.25 6.25 0.41719-2.083 0.625-3.7495 0.625-5 0.41719-1.6662 0.625-3.1245 0.625-4.375-1.6e-4 -1.6662-1.6667-4.7912-5-9.375-3.3334-2.083-5.8334-3.1245-7.5-3.125-5.0002 4.7e-4 -10 2.7088-15 8.125l-0.625 1.875-1.875 3.125-0.625 3.125-2.5 1.875c-1.25-1.25-1.8752-2.2912-1.875-3.125-1.6e-4 4.7e-4 0.41719-1.6662 1.25-5l2.5-5.625 5-9.375-1.25-5c-3.3334-4.583-5.0002-7.708-5-9.375-1.6e-4 -4.9995 4.7916-7.9162 14.375-8.75l-0.625-3.75-1.25-1.25-3.125 1.25h1.875-2.5c-1.6e-4 4.7e-4 -0.20781-0.41563-0.625-1.25-1.6e-4 -0.83281-0.20781-2.2912-0.625-4.375-1.6e-4 -4.9995-2.7084-8.9578-8.125-11.875l-1.875-1.875-5.625-1.875m428.12 23.75-1.875-5.625-2.5-4.375c-0.41719-0.41563-0.625-1.6662-0.625-3.75-4.7e-4 -2.9162 1.6661-4.9995 5-6.25v-1.25c-2.5005-0.83281-3.5422-1.25-3.125-1.25-4.5839 4.7e-4 -6.8755 2.7088-6.875 8.125-4.7e-4 5.4172 3.3328 10.209 10 14.375m15-20.625c-6.2505 3.3338-9.3755 8.9588-9.375 16.875-4.7e-4 4.5838 0.83281 8.3338 2.5 11.25l5 6.25-0.625 6.875-1.875 3.125 1.875 12.5-10-3.125c0.41562 2.5005 1.0406 4.792 1.875 6.875 0.83281 2.0838 1.6661 4.167 2.5 6.25l0.625 1.25 2.5 3.75 8.75 11.875c1.6661 6.2503 2.4995 12.084 2.5 17.5-4.7e-4 5.417-0.83438 8.1253-2.5 8.125-4.7e-4 3.1e-4 -0.20938 3.1e-4 -0.625 0-0.41719-0.41563-1.0422-0.83281-1.875-1.25l-0.625-9.375 0.625-6.875c0.41562-4.1662-1.6672-7.9162-6.25-11.25-4.1672-3.333-8.9589-4.9995-14.375-5h-2.5l1.25 5.625 2.5 3.125 2.5 5-5-0.625c-1.6672 3.1e-4 -4.7922 1.667-9.375 5-0.41719 2.0838-0.83438 3.7503-1.25 5-4.7e-4 0.83437-4.7e-4 1.4594 0 1.875-4.7e-4 6.667 0.83281 10 2.5 10l3.125 3.125 5.625-8.125c0.41562-0.41563 1.25-0.625 2.5-0.625 4.9995 3.1e-4 8.7495 3.542 11.25 10.625v0.625c0.41562 2.0838 0.625 3.9588 0.625 5.625 0.41562 1.667 0.625 3.3338 0.625 5-4.7e-4 8.7503-3.1255 19.375-9.375 31.875l-14.375 21.875-4.375 3.125-3.75 4.375-1.875 1.25-0.625 2.5v8.75c13.333-7.4997 25.208-20.833 35.625-40 11.25-19.166 16.875-37.083 16.875-53.75l1.25-30.625-0.625-8.75-3.75-14.375c-0.83438-4.583-1.6672-7.9162-2.5-10-0.41719-2.083-0.625-3.1245-0.625-3.125l-6.25-15c-1.25-2.9162-1.8755-5.8328-1.875-8.75-4.7e-4 -7.4995 2.2911-10.833 6.875-10 2.0828 4.7e-4 4.1661 1.6672 6.25 5v-5c0.41562-5.4162-1.6672-8.1245-6.25-8.125h-1.25l-4.375 1.875m-345.62 4.375c10.416 2.9172 15.625 5.6255 15.625 8.125-1.6e-4 2.5005-0.83281 4.5838-2.5 6.25 4.9998-0.41563 7.4998-2.2912 7.5-5.625-1.6e-4 -7.0828-5.8336-10.625-17.5-10.625-0.83438 4.7e-4 -1.6669 0.41719-2.5 1.25l-0.625 0.625m86.875 38.125v-4.375c-3.1e-4 -10.416 2.2914-17.916 6.875-22.5 1.6664-2.0828 2.9164-3.5412 3.75-4.375 0.83281-1.25 1.25-1.8745 1.25-1.875-3.1e-4 -2.0828-1.25-3.1245-3.75-3.125-4.1669 4.7e-4 -7.5003 5.0005-10 15-2.0836 9.1672-3.1253 15.834-3.125 20-3.1e-4 2.0838 0.41562 4.792 1.25 8.125l3.125 8.125c1.25 2.5005 2.2914 3.7505 3.125 3.75 1.6664 4.7e-4 2.4997-1.0406 2.5-3.125-3.1e-4 0.83437-1.6669-4.3745-5-15.625m-36.25-35.625 16.25 18.75 1.875 3.75c2.4997 6.2505 3.7497 12.084 3.75 17.5-3.1e-4 9.167-2.5003 17.709-7.5 25.625-2.5003 7.5005-3.7503 12.084-3.75 13.75-3.1e-4 3.3338 0.625 5.2088 1.875 5.625l1.875 1.25 1.875-3.125c0.41719-0.41563 0.83281-0.625 1.25-0.625 1.25 3.1e-4 2.2914 1.8753 3.125 5.625 1.25 3.3338 3.7497 5.0003 7.5 5 2.4997 3.1e-4 3.7497-0.625 3.75-1.875v-1.875c-6.2503-6.2497-9.3753-11.041-9.375-14.375v-1.25l2.5-20.625v-5c0.83281-11.25-1.25-21.458-6.25-30.625-5.0003-9.5828-11.25-15.416-18.75-17.5m-66.875 15.625c3.3331-1.25 4.9998-2.9162 5-5-1.6e-4 -7.0828-3.9584-10.625-11.875-10.625-1.25 4.7e-4 -3.1252 0.41719-5.625 1.25l-6.25 2.5-1.875 0.625 1.25 1.875 7.5-2.5h1.875c7.0831 4.7e-4 10.625 3.1255 10.625 9.375l-0.625 2.5m267.5-1.875c3.333 4.5838 6.8745 6.6672 10.625 6.25h3.75l20.625-3.75 9.375 1.875c-1.25-3.3328-3.9588-4.9995-8.125-5l-18.75 3.75c-4.5838 4.7e-4 -6.8755-2.0828-6.875-6.25-4.7e-4 -4.5828 3.5412-6.8745 10.625-6.875 6.6662 4.7e-4 18.541 4.3755 35.625 13.125 0.41562 0.41719 1.0406 0.83437 1.875 1.25 0.83281 0.41719 1.8745 1.0422 3.125 1.875l0.625-1.875c-21.25-11.25-37.084-16.875-47.5-16.875-10.834 4.7e-4 -15.834 3.5422-15 10.625v1.875m-132.5-13.125c-1.667 12.917-7.292 19.375-16.875 19.375-7.0836 4.7e-4 -10.625 0.83437-10.625 2.5-3.1e-4 1.6672 1.8747 2.5005 5.625 2.5 6.6664 4.7e-4 12.5-1.6662 17.5-5 4.9997-3.3328 7.4997-7.2912 7.5-11.875-3.1e-4 -1.6662-1.0422-4.1662-3.125-7.5m116.88 6.25-0.625-1.25 0.625 1.25c-4.5838 2.0838-6.8755 4.5838-6.875 7.5v1.25c4.9995-0.41563 9.7912-3.3328 14.375-8.75 1.6662-0.41563 2.4995-1.0406 2.5-1.875-4.7e-4 -0.83281-0.20938-1.4578-0.625-1.875l-9.375 3.75m-201.25-0.625c11.666 10.417 17.5 21.042 17.5 31.875-3.1e-4 9.5838-3.5419 14.375-10.625 14.375-7.5002 4.7e-4 -11.25-3.333-11.25-10-1.6e-4 -1.6662 0.20781-2.9162 0.625-3.75-5.0002 2.5005-7.5002 5.6255-7.5 9.375-1.6e-4 9.167 5.2081 13.75 15.625 13.75 12.916 4.7e-4 19.375-7.9162 19.375-23.75-3.1e-4 -12.916-7.9169-23.541-23.75-31.875m153.12 25-0.625 1.25c-2.0838 2.0838-4.167 5.0005-6.25 8.75-0.83438 3.3338-1.25 5.8338-1.25 7.5l0.625 3.125c1.6662 7.5005 6.2497 11.25 13.75 11.25 3.7497 4.7e-4 6.458-0.83281 8.125-2.5 1.25-0.41563 1.8747-1.0406 1.875-1.875v-8.125l-5.625 3.125c-0.41719 0.41719-1.4594 0.625-3.125 0.625-5.417 4.7e-4 -8.1253-3.1245-8.125-9.375-3.1e-4 -7.4995 3.5412-14.166 10.625-20 2.083-2.0828 4.3747-4.1662 6.875-6.25 2.4995-2.0828 5.4162-4.1662 8.75-6.25 3.333-0.83281 4.9995-1.6662 5-2.5v-1.25l-5 1.875c-5.417 1.6672-10 4.7922-13.75 9.375l-7.5 7.5-4.375 3.75m-240-16.25c3.3331 4.7e-4 4.9998-0.83281 5-2.5l-1.25-1.25c-0.41719 4.7e-4 -0.625 0.20937-0.625 0.625l-3.125 3.125m176.88-1.25c-1.667 1.6672-2.5003 3.1255-2.5 4.375 0.41562 1.6672 1.8747 3.9588 4.375 6.875 1.6664 1.667 2.9164 3.7505 3.75 6.25l8.125 22.5c2.4997-1.6662 3.7497-3.5412 3.75-5.625-3.1e-4 -0.41563-1.0422-3.7495-3.125-10l-4.375-9.375c-0.41719-0.83281-1.0422-1.6662-1.875-2.5-0.41719-1.25-1.25-2.7078-2.5-4.375l-5.625-8.125m90 5.625c-3.3338 1.25-6.042 3.3338-8.125 6.25-1.667 2.917-2.292 5.0005-1.875 6.25v3.75l0.625 3.75c3.333 6.2505 8.7495 10.417 16.25 12.5l0.625 1.25-3.125 1.875-6.25 1.25-2.5 2.5c-2.917 4.167-4.3755 8.3338-4.375 12.5-4.7e-4 -0.83281 0.20781 0.41719 0.625 3.75 0.41562 2.917 1.0406 7.917 1.875 15 1.6662 6.2503 2.4995 10.625 2.5 13.125v0.625c-0.83438 2.917-2.0838 5.8338-3.75 8.75-2.917 1.667-4.3753 3.7503-4.375 6.25-3.1e-4 1.667 2.9162 2.5003 8.75 2.5 12.916 3.1e-4 21.041-6.0412 24.375-18.125l3.125-13.125c0.41562-1.6662 2.4995-3.5412 6.25-5.625l0.625 1.875v-1.875l0.625 1.875c-3.3338 5.8338-5.0005 9.3753-5 10.625-4.7e-4 2.5003 0.625 5.2088 1.875 8.125 3.7495 5.417 7.4995 8.1253 11.25 8.125 8.3328 3.1e-4 14.166-3.1247 17.5-9.375l-7.5-2.5c-4.1672-4.1662-6.2505-7.9162-6.25-11.25-4.7e-4 -5.833 3.3328-9.3747 10-10.625 2.4995-0.41563 3.7495-2.083 3.75-5l-0.625-1.25h-6.25v-1.875l6.25-2.5-0.625-1.875c-2.0838 0.41719-4.1672 0.83437-6.25 1.25-1.6672 4.7e-4 -3.5422 0.20937-5.625 0.625 0.41562-0.83281 0.83281-1.4578 1.25-1.875 0.41562-0.41563 0.83281-0.83281 1.25-1.25h2.5c0.83281-0.41563 1.8745-0.625 3.125-0.625 1.25-0.41563 2.4995-1.0406 3.75-1.875-1.25-2.083-2.5005-3.1245-3.75-3.125-2.0838 4.7e-4 -3.9588 0.625-5.625 1.875l-10 3.75-5 3.75-1.875 2.5c-1.25-1.25-1.8755-2.2912-1.875-3.125 1.6662-1.6662 2.9162-2.708 3.75-3.125l5.625-3.75c3.333-2.083 6.2495-3.1245 8.75-3.125 5.4162 4.7e-4 8.1245-0.83281 8.125-2.5-4.7e-4 -0.83281-0.41719-1.25-1.25-1.25h-0.625c-0.83438 4.7e-4 -2.2922 0.20937-4.375 0.625-1.6672 0.41719-2.9172 0.625-3.75 0.625-1.25 4.7e-4 -2.0838-0.20781-2.5-0.625l7.5-3.75c-1.25-1.6662-2.2922-2.4995-3.125-2.5-0.41719 4.7e-4 -1.25 0.20937-2.5 0.625-1.25 0.41719-2.7088 0.83437-4.375 1.25-4.5838 2.5005-6.4588 3.7505-5.625 3.75-1.25 4.7e-4 -1.8755-0.625-1.875-1.875-4.7e-4 -0.83281 1.0406-1.6662 3.125-2.5 2.4995-1.25 4.1662-2.4995 5-3.75l-16.875-3.125-5-2.5-4.375-1.25-6.875-4.375-6.875-16.25m-231.88 3.125-60-2.5c-4.1667 4.7e-4 -6.2502 1.25-6.25 3.75-1.6e-4 2.5005 3.7498 4.3755 11.25 5.625 11.25 2.5005 19.167 6.042 23.75 10.625 4.5831 4.5838 7.4998 12.084 8.75 22.5l-0.625 56.875v15l1.25 2.5 6.25 4.375 9.375 5.625c3.3331 2.0836 6.4581 3.9586 9.375 5.625 3.3331 1.667 6.0416 2.917 8.125 3.75v-98.125c-1.6e-4 -3.333 1.0422-6.6662 3.125-10l7.5-8.125c2.9164-3.7495 5.8331-5.833 8.75-6.25 2.4998-0.83281 5.2081-1.6662 8.125-2.5 2.9164-1.25 6.0414-2.708 9.375-4.375 1.25-0.41563 1.8748-1.6662 1.875-3.75-1.6e-4 -2.4995-1.6669-3.7495-5-3.75l-1.875 0.625h-3.75l-39.375 2.5m116.88 41.875c5.833 3.3338 11.875 5.0005 18.125 5 15.833 4.7e-4 27.5-6.8745 35-20.625 7.4997-13.75 11.666-21.041 12.5-21.875 3.7497-2.9162 5.6247-4.9995 5.625-6.25-3.1e-4 -0.41563-0.41719-0.625-1.25-0.625-2.5003 4.7e-4 -4.792 1.6672-6.875 5l-14.375 21.875c-8.3336 12.084-18.334 18.125-30 18.125-3.3336 4.7e-4 -6.8753-0.625-10.625-1.875-3.7503-1.6662-5.8336-2.4995-6.25-2.5-0.83438 0.83437-1.4594 2.0838-1.875 3.75m-63.75-42.5c-0.83281 4.5838-2.2919 7.292-4.375 8.125l-7.5 2.5-2.5 1.25-5 0.625-3.75 1.875v0.625c-10.834 4.5838-16.25 16.25-16.25 35v71.875c-0.41719 1.25-0.625 2.917-0.625 5v2.5c-1.6e-4 2.917 0.41719 4.792 1.25 5.625l4.375 1.25v-94.375c0.41562-12.916 5.4164-21.041 15-24.375l16.25-5.625c2.9164-1.25 4.3748-3.333 4.375-6.25-1.6e-4 -0.41563-0.41719-2.2912-1.25-5.625m235.62 23.125c2.9162 4.167 4.3745 9.3755 4.375 15.625l0.625 16.875-0.625 65 4.375-2.5 6.25-6.25 4.375-3.75c3.3328-3.333 4.9995-7.2912 5-11.875l-0.625-8.125-0.625-20.625v-2.5c-4.7e-4 -2.083-0.20937-3.7497-0.625-5v-8.125c-4.7e-4 -21.25 5.6245-33.75 16.875-37.5l21.25-5.625c2.0828-0.83281 3.1245-2.2912 3.125-4.375-4.7e-4 -1.25-1.8755-2.2912-5.625-3.125l-11.875-0.625-8.75 1.25-49.375-0.625c-7.5005-1.25-12.292-1.8745-14.375-1.875-9.167 4.7e-4 -13.75 1.8755-13.75 5.625-4.7e-4 1.25 1.4578 2.0838 4.375 2.5l19.375 5.625c3.3328 0.83438 8.7495 4.167 16.25 10m66.25-19.375c-0.41719 4.167-2.9172 6.8755-7.5 8.125l-9.375 1.875c-7.9172 1.667-14.167 5.8338-18.75 12.5-2.9172 4.167-4.5838 9.3755-5 15.625h0.625l-0.625 6.25v5.625l0.625 11.875-0.625 11.25 1.25 18.75 3.75-10v-43.125c-4.7e-4 -12.083 4.3745-19.375 13.125-21.875l19.375-5 1.875-2.5c1.6661-1.6662 2.4995-3.333 2.5-5-4.7e-4 0.41719-0.41719-1.0406-1.25-4.375m-245 71.25c6.2497 11.667 14.166 17.5 23.75 17.5 8.333 3.1e-4 15-3.333 20-10 5.4164-6.6662 8.1247-15.416 8.125-26.25v-7.5c-3.1e-4 -4.1662-0.83281-6.2495-2.5-6.25-2.917 4.7e-4 -3.9586 1.8755-3.125 5.625v15l-0.625 4.375c-3.3336 13.334-10.417 20-21.25 20-6.2503 3.1e-4 -11.667-3.1247-16.25-9.375-4.5836-6.6662-6.8753-14.166-6.875-22.5-3.1e-4 -9.1662 2.7081-17.708 8.125-25.625 5.4164-7.9162 11.666-12.5 18.75-13.75 4.583-0.83281 6.8747-1.8745 6.875-3.125-3.1e-4 -2.4995-1.25-3.7495-3.75-3.75-2.0836 4.7e-4 -5.2086 1.25-9.375 3.75-7.5003 4.5838-13.75 10.209-18.75 16.875-5.0003 6.667-7.5003 15.625-7.5 26.875v0.625c0.41563 2.0838 1.0406 4.792 1.875 8.125 0.83281 2.917 1.6664 6.042 2.5 9.375m-170-66.25c2.4998 2.5005 4.3748 4.3755 5.625 5.625 1.6666 0.83437 3.1248 1.667 4.375 2.5 1.6666 0.41719 3.7498 1.0422 6.25 1.875 2.9166 0.83437 6.8748 2.292 11.875 4.375l-4.375-4.375-6.25-3.125-1.875-1.25-15.625-5.625m312.5 1.25c2.9162 6.2505 9.7912 10 20.625 11.25 0.83281 0.41719 2.4995 1.25 5 2.5 2.9162 1.25 6.4578 3.1255 10.625 5.625l-2.5-5c-4.1672-3.7495-8.7505-6.6662-13.75-8.75l-1.25-0.625-18.75-5m70 35.625c-4.7e-4 2.917 0.20781 7.7088 0.625 14.375 0.41563 6.667 0.625 11.875 0.625 15.625-4.7e-4 7.917-2.0838 16.042-6.25 24.375-0.83437 1.25-1.4594 2.292-1.875 3.125-0.41719 0.83437-0.83437 1.4594-1.25 1.875-6.2505 9.167-13.542 16.042-21.875 20.625l-10 5c-12.084 3.3336-21.042 5.0003-26.875 5-28.75 3.1e-4 -49.375-13.125-61.875-39.375-0.41719 2.0838-0.83437 3.7503-1.25 5-3.1e-4 1.25-3.1e-4 2.0838 0 2.5-3.1e-4 4.5836 1.4578 8.3336 4.375 11.25 12.916 17.917 33.125 26.875 60.625 26.875 32.5 3.1e-4 55.208-14.583 68.125-43.75 3.3328-7.9162 4.9995-12.916 5-15v-1.25l-2.5-11.875 2.5-11.25c-4.7e-4 -0.83281-2.7089-5.208-8.125-13.125m-203.75 23.125 3.75 3.125c4.1664 3.7503 7.9164 5.6253 11.25 5.625 7.083 3.1e-4 10.625-4.3747 10.625-13.125-3.1e-4 -2.083-0.83281-3.333-2.5-3.75-4.5836 5.0003-8.3336 7.5003-11.25 7.5-7.5003 3.1e-4 -11.459-3.958-11.875-11.875-3.1e-4 -5.833-0.625-8.7495-1.875-8.75-0.83281 0.83437-1.25 2.292-1.25 4.375v11.25c0.41719 1.667 1.4578 3.542 3.125 5.625m-171.88-5.625-1.25 11.875 1.875 5 0.625 3.125-2.5 0.625-1.875-1.875-2.5-1.875 0.625 13.75 0.625 3.125c0.83281 4.5838 2.0833 9.3753 3.75 14.375 1.6666 5.0003 3.7498 9.792 6.25 14.375l4.375 8.75 3.75 6.25 6.875 10 1.875 3.75c2.4998 2.5003 5.6248 6.2503 9.375 11.25l3.125 3.125 11.875 8.75v0.625c-0.83281 1.25-2.0834 1.6669-3.75 1.25h-1.875l-5.625-5.625-14.375-13.125-15.625-20c-4.1667-7.9164-9.7917-11.875-16.875-11.875-2.9167 3.1e-4 -5.0002 0.20937-6.25 0.625-7.0834 3.3336-10.833 7.7086-11.25 13.125l-0.625 10 0.625 1.875c2.0833 7.5003 5.6248 11.459 10.625 11.875l13.125 1.875 6.875 2.5 1.875-1.875c-0.83281-0.83281-1.8752-1.8747-3.125-3.125-0.83281-1.25-1.8752-2.2914-3.125-3.125l-12.5-1.25c-4.5834-0.83281-6.8752-3.333-6.875-7.5-1.6e-4 -5.833 2.7083-8.7497 8.125-8.75 4.9998 3.1e-4 10.625 4.3753 16.875 13.125l13.125 16.875c4.1666 5.0003 12.917 13.75 26.25 26.25l4.375 1.875-4.375-5-5-4.375c-0.41719-0.41563-1.4578-1.4578-3.125-3.125-1.6669-2.0831-3.9584-4.7914-6.875-8.125l-3.125-3.125c4.5831 0.83281 8.9581 4.3753 13.125 10.625 1.25 1.6669 3.5416 3.7503 6.875 6.25l11.875 8.75 4.375 4.375 6.875 4.375 0.625 0.625 5 3.125-6.25-0.625c3.7498 4.5836 7.0831 6.8752 10 6.875 2.4998 1.6e-4 3.7498-0.83281 3.75-2.5-1.6e-4 -1.25-0.83437-2.7081-2.5-4.375 1.6664-0.83281 3.3331-1.6664 5-2.5 2.0831-0.83281 4.5831-1.4578 7.5-1.875-1.25-1.6664-2.5002-3.1247-3.75-4.375-1.25-1.6664-2.7086-3.5414-4.375-5.625l-0.625-2.5 7.5-3.125c-3.3336-2.0831-5.6252-4.7914-6.875-8.125-1.25-3.7497-5.0002-9.5831-11.25-17.5-0.41719-0.41563-0.625-1.25-0.625-2.5-1.6e-4 -2.4997 3.9581-3.7497 11.875-3.75 2.0831 3.1e-4 5.8331 1.0422 11.25 3.125l-0.625-7.5c3.7498-0.83281 5.8331-1.4578 6.25-1.875-1.6e-4 -0.83281-1.6669-2.4997-5-5-3.3336-2.4997-9.5836-5.833-18.75-10l-9.375-3.125-23.75-11.875-11.25-7.5-7.5-8.125c-11.25-11.25-16.875-22.708-16.875-34.375-1.6e-4 -11.25 3.5416-16.875 10.625-16.875-1.6e-4 3.1e-4 1.6666 0.41719 5 1.25v2.5l-2.5 4.375-5 3.125c-1.25 0.41719-2.0834 2.5003-2.5 6.25v4.375l1.25 5.625c1.6666 2.5003 3.3331 3.7503 5 3.75-0.41719 3.1e-4 1.4578-0.41563 5.625-1.25-5.4169-1.25-8.1252-4.1662-8.125-8.75-1.6e-4 -1.25 0.41719-2.2912 1.25-3.125l6.25-7.5c1.25-1.25 1.8748-3.5412 1.875-6.875-1.6e-4 -9.9997-4.1669-15-12.5-15-5.4167 4.7e-4 -9.7917 4.167-13.125 12.5m80 26.875v6.875c4.1664 17.5 13.958 26.25 29.375 26.25 5.8331 3.1e-4 11.041-1.4578 15.625-4.375 4.5831-3.333 6.8747-6.8747 6.875-10.625-3.1e-4 -2.9162-1.25-4.1662-3.75-3.75h-1.25c-2.5003 10-8.5419 15-18.125 15-6.6669 3.1e-4 -12.5-2.4997-17.5-7.5-5.0002-4.9997-7.5002-10.833-7.5-17.5v-11.25c-1.6e-4 -7.4997 3.3331-12.708 10-15.625 2.4998-1.6662 3.9581-3.333 4.375-5-0.41719-0.41563-1.25-0.625-2.5-0.625-4.1669 3.1e-4 -8.1252 3.3338-11.875 10-2.9169 4.167-4.3752 8.542-4.375 13.125l0.625 5m49.375-20.625c-1.25 3.1e-4 -2.0836 0.83437-2.5 2.5v1.875c-3.1e-4 3.3338 1.6664 5.0003 5 5 3.3331 3.1e-4 4.9997-1.8747 5-5.625-3.1e-4 -2.4997-2.5003-3.7497-7.5-3.75m-33.75 2.5c-3.7502 4.5838-5.6252 9.167-5.625 13.75-1.6e-4 10 4.7914 15 14.375 15 4.5831 3.1e-4 7.4998-2.083 8.75-6.25l-3.75 0.625c-10 0.83437-15-3.333-15-12.5-1.6e-4 -2.4997 0.83281-5.4162 2.5-8.75l-1.25-1.875m58.125 3.125c-2.9169 3.1e-4 -4.3753 1.25-4.375 3.75-3.1e-4 3.3338 1.4578 5.0003 4.375 5 3.3331 3.1e-4 4.9997-1.6662 5-5-3.1e-4 -2.9162-1.4594-4.1662-4.375-3.75h-0.625m-12.5 6.25c-2.0836 3.1e-4 -3.1253 1.0422-3.125 3.125-3.1e-4 4.5838 1.4578 6.8753 4.375 6.875 2.4997 3.1e-4 3.7497-2.083 3.75-6.25-3.1e-4 -2.4997-1.6669-3.7497-5-3.75m-12.5 1.25c-2.5003 3.1e-4 -3.7503 0.83437-3.75 2.5-3.1e-4 4.5838 2.0831 6.8753 6.25 6.875 2.0831 3.1e-4 3.1247-1.25 3.125-3.75-3.1e-4 -3.7497-1.8753-5.6247-5.625-5.625m40 10.625c1.6664 1.25 3.333 2.7088 5 4.375 1.6664 1.25 3.5414 2.7088 5.625 4.375l5 2.5 5 4.375c1.25 2.0836 1.8747 3.7503 1.875 5-3.1e-4 1.667-0.625 3.9586-1.875 6.875-3.3336 2.0836-5.6253 3.1253-6.875 3.125-7.917 3.1e-4 -11.667-3.333-11.25-10l0.625-5c-3.3336 0.83437-5.0003 3.7503-5 8.75-3.1e-4 9.167 5.4164 13.75 16.25 13.75 10.833 3.1e-4 16.25-5.4164 16.25-16.25-3.1e-4 -7.083-2.917-11.875-8.75-14.375l-6.25-2.5-15-6.25-0.625 1.25m-20.625 3.75-0.625 2.5c-3.1e-4 1.25 1.4578 1.8753 4.375 1.875 3.3331 0.83437 4.9997-0.625 5-4.375-3.1e-4 -2.9162-1.6669-4.3747-5-4.375-2.9169 3.1e-4 -4.3753 0.83437-4.375 2.5l0.625 1.875m-28.125-4.375c-1.6669 0.41719-2.5002 2.0838-2.5 5-1.6e-4 2.917 1.4578 4.3753 4.375 4.375 3.7497 3.1e-4 5.6247-1.8747 5.625-5.625-3.1e-4 -2.4997-2.0836-3.7497-6.25-3.75h-1.25m14.375 10c0.83281 3.3338 2.2914 5.0003 4.375 5 1.25 3.1e-4 2.2914-0.625 3.125-1.875 0.83281-1.6662 1.25-3.1247 1.25-4.375-3.1e-4 -3.7497-1.8753-5.6247-5.625-5.625-2.5003 3.1e-4 -3.7503 1.25-3.75 3.75l0.625 3.125m262.5-5c-0.41719 0.83437-0.83438 1.667-1.25 2.5-0.41719 0.83437-0.83438 1.8753-1.25 3.125v1.875c-2.0839 3.1e-4 -3.5422-0.20781-4.375-0.625l-3.125 0.625c-5.4172 0.41719-8.1255 4.792-8.125 13.125-4.7e-4 2.5003 1.8745 5.8336 5.625 10 0.83281-8.333 2.9161-12.5 6.25-12.5h2.5c2.0828 3.3336 3.1245 5.2086 3.125 5.625-4.7e-4 3.3336-0.83438 5.8336-2.5 7.5l-5.625 10-5.625 8.125-5.625 6.25-0.625 2.5c3.7495-2.4997 8.3328-6.8747 13.75-13.125l5-6.875c5.4161-6.6664 8.1245-15.208 8.125-25.625-4.7e-4 -4.1662-2.0839-8.333-6.25-12.5m-76.875 31.25c6.2495-0.41719 11.458-2.2914 15.625-5.625 4.5828-3.333 6.8745-7.2914 6.875-11.875-4.7e-4 -8.333-3.3338-12.5-10-12.5-3.3338 3.1e-4 -5.0005 0.625-5 1.875l0.625 0.625 6.25 6.875c1.25 0.83281 1.8745 2.0836 1.875 3.75-4.7e-4 3.3336-1.6672 6.2503-5 8.75l-6.25 4.375-5 3.75m-44.375-20c2.083 5.8336 5.208 8.7503 9.375 8.75 1.25 3.1e-4 3.1245-0.41563 5.625-1.25l15-9.375 3.75 1.25c3.7495 2.0836 5.6245 3.9586 5.625 5.625-4.7e-4 8.3336-6.2505 12.5-18.75 12.5-4.5838 3.1e-4 -9.3755-0.83281-14.375-2.5-0.41719-0.41719-1.4594-0.625-3.125-0.625-1.25 3.1e-4 -2.5005-0.20781-3.75-0.625 7.9162 5.0003 15.833 7.5003 23.75 7.5 16.25 3.1e-4 24.375-6.0414 24.375-18.125-4.7e-4 -8.333-4.5838-12.5-13.75-12.5-2.0838 3.1e-4 -4.792 0.41719-8.125 1.25l-9.375 8.75c-1.667 1.667-4.167 2.5003-7.5 2.5-0.83438 3.1e-4 -3.7505-1.0406-8.75-3.125m-141.88 35.625v14.375c-3.1e-4 5.0003 1.25 8.3336 3.75 10-3.1e-4 -3.7497 0.625-5.6247 1.875-5.625 1.25 3.1e-4 2.0831 0.20937 2.5 0.625-1.25 3.3336-1.8753 5.6253-1.875 6.875-3.1e-4 2.0836 0.20781 3.5419 0.625 4.375l1.875 1.875c1.6664-12.916 4.3747-19.375 8.125-19.375l-5.625 26.25h1.25c0.83281-3.3331 1.8747-4.9997 3.125-5-0.41719 3.1e-4 0.625 0.41719 3.125 1.25l-5.625 6.25-1.875 5.625 10-10-1.875 6.25c2.9164-1.25 5.2081-1.8747 6.875-1.875 7.9164-1.6664 13.333-3.7497 16.25-6.25 2.9164-2.4997 4.3747-7.4997 4.375-15-3.1e-4 -6.6664-3.7503-14.791-11.25-24.375l-6.25-10.625-1.25 1.875c-1.25 3.3336-2.7086 5.0003-4.375 5h-1.25l-1.25-4.375-1.875-9.375 1.875-7.5c-3.1e-4 -2.083-0.625-3.1247-1.875-3.125-7.5003 3.1e-4 -13.959 10.625-19.375 31.875m-50-30c4.1664 7.917 6.2498 13.334 6.25 16.25-1.6e-4 2.5003-1.6669 3.7503-5 3.75-2.9169 3.1e-4 -4.7919-0.20781-5.625-0.625 1.25 5.0003 3.5414 7.5003 6.875 7.5 6.6664 3.1e-4 9.9998-3.958 10-11.875-1.6e-4 -2.4997-2.2919-5.6247-6.875-9.375-1.25-0.41719-3.1252-2.2914-5.625-5.625m288.75 1.875-3.125 3.125c-1.25 2.5003-1.8755 4.5836-1.875 6.25v1.25l0.625 10v14.375l0.625 103.12c-0.41719 12.5-2.5005 25.208-6.25 38.125-3.3338 12.5-8.3338 25.208-15 38.125-7.0838 13.333-16.042 23.333-26.875 30l-3.125 1.875-16.25 10.625-4.375 2.5c-2.0838 0.83281-4.792 2.0834-8.125 3.75-2.917 1.25-6.667 2.9167-11.25 5l-21.875 6.875c-5.417 1.6667-11.459 2.9167-18.125 3.75-6.667 0.41719-13.959 0.83281-21.875 1.25l-7.5 0.625c0.83281 3.3334 2.4997 5 5 5h1.875l10.625-1.25c38.333-3.3333 68.125-13.333 89.375-30l7.5-6.25 7.5-5 9.375-9.375 4.375-6.25 4.375-5 3.75-8.125 5.625-10.625 1.875-6.25 4.375-9.375 1.25-3.75 3.75-13.75 1.875-9.375 2.5-15.625-0.625-1.25 1.25-6.875v-136.25l-1.25-1.25m-6.875 8.75-8.75 5.625-3.125 1.875-7.5 4.375 1.25 57.5-0.625 57.5c-0.83438 80.417-49.167 121.46-145 123.12l1.875 15.625c1.25 2.9167 3.1247 4.375 5.625 4.375-1.667 0 4.7914-0.625 19.375-1.875 92.5-9.1666 138.33-61.667 137.5-157.5l-0.625-110.62m-130.62 0 0.625 3.75c-3.1e-4 0.83281-0.41719 1.25-1.25 1.25-0.83438 3.1e-4 -2.0838 3.1e-4 -3.75 0-1.25-0.41719-2.917-0.83281-5-1.25l-3.75-0.625c-21.667 3.1e-4 -32.084 10-31.25 30v2.5c3.333 9.5836 9.9997 14.375 20 14.375 2.9164 3.1e-4 4.583-0.20781 5-0.625l13.75-4.375h1.875c3.333 3.1e-4 6.458 1.4578 9.375 4.375l2.5 1.875 0.625 2.5c0.41562 0.83437 0.625 2.0836 0.625 3.75-3.1e-4 -0.41719-0.41719 1.0422-1.25 4.375-3.7503 3.7503-7.5003 5.6253-11.25 5.625-1.25 3.1e-4 -2.0838-0.20781-2.5-0.625l-16.25-5.625h-3.75c-7.917 3.1e-4 -11.875 3.1253-11.875 9.375-3.1e-4 3.7503 1.25 5.6253 3.75 5.625h0.625l3.75-7.5c1.25-1.6664 3.7497-2.4997 7.5-2.5h1.25l1.875 0.625 15.625 5.625c0.41562 0.41719 1.25 0.625 2.5 0.625 2.083 3.1e-4 4.1662-0.625 6.25-1.875 6.6662-4.1664 9.9997-9.9997 10-17.5-3.1e-4 -7.4997-4.792-13.125-14.375-16.875l-8.75-0.625-11.875 4.375h-1.875c-2.917 3.1e-4 -5.6253-1.25-8.125-3.75-2.5003-2.4997-3.7503-4.7914-3.75-6.875-3.1e-4 -11.666 7.4997-17.5 22.5-17.5 9.9997 3.1e-4 18.333 3.3336 25 10l1.875 1.875 2.5 3.125 3.75 8.125c1.6662 4.5836 2.4997 8.5419 2.5 11.875-3.1e-4 11.667-6.042 21.875-18.125 30.625l-8.125 8.75c-1.25 0.83281-5.2088 5.6252-11.875 14.375l-0.625 1.875-11.25 15-7.5 12.5-2.5 5-3.75 11.875-5 11.25c-0.41719 1.6669-0.83281 3.5419-1.25 5.625-3.1e-4 1.6669-3.1e-4 3.7502 0 6.25v3.125l2.5 5.625 9.375-11.875 1.875-6.25 3.125-9.375c1.25-3.3331 3.333-6.4581 6.25-9.375 8.333-14.166 17.291-23.958 26.875-29.375 11.666-7.4998 22.708-11.25 33.125-11.25 4.1662 1.6e-4 11.25 1.6669 21.25 5l6.25 3.75 5.625 5 1.875 11.25 0.625 3.125c-4.7e-4 6.2502-3.1255 9.3752-9.375 9.375-6.2505 1.6e-4 -11.25-4.7914-15-14.375-5.417-9.1664-12.5-13.75-21.25-13.75-11.25 1.6e-4 -16.875 4.7919-16.875 14.375-3.1e-4 2.0836 2.2912 4.1669 6.875 6.25l-0.625-3.75c-0.83438-4.9998 1.6662-7.4998 7.5-7.5-3.1e-4 1.6e-4 2.083 0.41719 6.25 1.25l4.375 2.5 6.25 5.625c0.83281 1.6669 1.6662 3.3336 2.5 5 1.25 1.25 2.4995 2.7086 3.75 4.375l3.75 1.875 6.875 3.75c3.333 0.83281 4.9995 1.25 5 1.25 6.6662 1.6e-4 12.291-2.2916 16.875-6.875 4.9995-4.9998 7.4995-10.833 7.5-17.5-4.7e-4 -6.2498-2.917-11.666-8.75-16.25l-1.25-1.875 0.625-2.5 4.375-3.125-5.625-6.25-6.25-3.75c-4.5838-2.9164-11.459-4.9997-20.625-6.25l-10.625 1.25-5.625 2.5-3.75 1.875-13.125 10.625c-2.0838 2.0836-3.7503 3.1252-5 3.125-1.667 1.6e-4 -2.917-0.20781-3.75-0.625v-3.125c-3.1e-4 -2.4998 2.4997-4.9998 7.5-7.5l10.625-5c1.6662-0.83281 3.5412-1.8747 5.625-3.125 2.4997-1.6664 5.208-3.5414 8.125-5.625l-0.625-1.875-5.625 3.75-1.875-0.625c1.6662-1.6664 3.1247-3.1247 4.375-4.375 1.25-1.6664 2.708-3.5414 4.375-5.625l2.5-8.75h3.125v1.875l0.625 0.625c-4.7e-4 1.6669-1.4594 4.5836-4.375 8.75l-1.25 3.125 3.75-3.125 3.125-5.625 1.875-3.125 0.625-13.75h-4.375c-1.667 0.41719-3.1255 1.6669-4.375 3.75l-2.5-0.625-0.625-2.5 1.25-15c-4.7e-4 -3.333-1.667-7.9164-5-13.75l-6.25-7.5v1.25l-1.875 0.625-1.875 3.75h-1.25c-0.83438-1.6664-2.0838-3.333-3.75-5-1.25-1.6664-2.7088-3.5414-4.375-5.625-0.41719-0.41719-3.7503-1.8747-10-4.375-0.83438-0.41563-1.667-0.625-2.5-0.625-0.83438-0.41719-2.0838-1.0422-3.75-1.875m191.25 3.75-1.875-0.625h-5c-2.0839 2.5003-3.3339 4.3753-3.75 5.625l-3.75 5.625v0.625l-0.625 0.625-5 8.125-4.375 5.625h-1.875l-14.375 15.625c-5.8339 3.7503-8.7505 6.2503-8.75 7.5 0.83281 0.83281 1.4578 1.25 1.875 1.25l1.875-0.625 9.375-7.5 1.25-2.5 6.25-4.375 3.75-5 6.875-7.5 5.625-8.75c2.4995-4.1664 5.8328-6.2497 10-6.25 0.83281 3.1e-4 2.2911 0.625 4.375 1.875 1.25-1.6664 1.8745-3.333 1.875-5-4.7e-4 -0.83281-1.25-2.2914-3.75-4.375m-325.62 15.625 0.625 6.25 1.25 5 4.375 6.875c-1.6e-4 1.25 0.83281 2.5003 2.5 3.75 2.0831 1.25 4.1664 2.5003 6.25 3.75 2.4998 0.83437 4.7914 2.0836 6.875 3.75 2.0831 1.25 3.5414 2.9169 4.375 5-3.1e-4 3.7503-0.625 5.6253-1.875 5.625-2.5003 3.1e-4 -4.1669-0.20781-5-0.625l-1.875-1.25-10-13.75c-3.7502-3.7497-7.2919-5.6247-10.625-5.625-0.83281 3.1e-4 -1.25 0.20937-1.25 0.625-1.6e-4 1.25 0.625 3.3336 1.875 6.25v3.75c-3.3336-2.0831-8.5419-3.7497-15.625-5l-1.875-0.625-2.5 0.625-1.25 2.5 8.75 17.5 5.625 6.25 4.375 3.75-8.75 2.5h1.25l-1.875 1.875 1.25 1.25 4.375 5.625 15.625 2.5c5.4164 1.25 8.1248 3.7502 8.125 7.5-1.6e-4 2.9169-1.6669 4.3752-5 4.375-1.6669 1.6e-4 -3.9586-0.83281-6.875-2.5l-6.25-4.375c-2.0836-0.83281-3.9586-1.25-5.625-1.25-1.25-0.41563-2.7086-0.83281-4.375-1.25l-2.5 0.625c-0.41719 0.41719-0.83438 0.83281-1.25 1.25-0.41719 1.6e-4 -0.83281 0.20937-1.25 0.625l0.625 1.875 5 3.75-6.875 1.25h3.125l-3.75 1.25c-5.0002 0.83437-7.9169 3.7502-8.75 8.75l0.625 5.625h1.25c3.3331-4.5831 7.0831-6.8748 11.25-6.875 1.6664 1.6e-4 2.7081 0.20937 3.125 0.625l15.625 5 5 0.625 0.625 1.25 0.625-1.25c20.416-1.25 30.625-15.208 30.625-41.875-3.1e-4 -12.083-5.6253-24.791-16.875-38.125-5.4169-6.6664-8.1252-12.5-8.125-17.5-1.6e-4 -4.1664 2.0831-8.333 6.25-12.5-0.83281-0.41563-2.0836-0.625-3.75-0.625-5.8336 3.1e-4 -9.3752 2.292-10.625 6.875l-0.625 3.75 0.625 7.5h-4.375l-2.5-2.5m173.75-5.625 5.625 4.375 8.125 2.5 3.125 1.25 22.5 2.5c7.4995 0.83281 11.666 4.167 12.5 10-2.917 5.4169-6.2505 8.1253-10 8.125-2.917 3.1e-4 -5.2088-0.83281-6.875-2.5l-8.75-6.875c-0.83438-1.25-2.0838-1.8747-3.75-1.875-5.0005 3.1e-4 -7.5005 2.5003-7.5 7.5-4.7e-4 2.9169 1.25 4.5836 3.75 5 0.41562-3.7497 1.8745-5.6247 4.375-5.625 2.083 3.1e-4 3.958 0.83437 5.625 2.5 5.4162 4.1669 8.5412 6.2503 9.375 6.25l4.375 0.625h2.5l6.875-0.625c0.41562-0.41719 1.0406-1.0406 1.875-1.875 0.83281-1.25 2.0828-2.7081 3.75-4.375l2.5-7.5 4.375 3.125h0.625c1.25 3.1e-4 1.8745-1.25 1.875-3.75-4.7e-4 -1.6664-1.8755-4.7914-5.625-9.375-4.5838-2.4997-8.1255-3.7497-10.625-3.75l-26.25-0.625c-1.667 3.1e-4 -7.7088-1.25-18.125-3.75-0.41719-0.41563-1.25-0.625-2.5-0.625-1.25 3.1e-4 -2.5005-0.20781-3.75-0.625m150 8.125v0.625h-1.25c-1.25 3.1e-4 -1.8755 0.83437-1.875 2.5-4.7e-4 2.917 1.25 4.3753 3.75 4.375 3.7495 3.1e-4 5.6245-1.25 5.625-3.75v-0.625l-0.625-0.625v-0.625l-5.625-1.875m-15.625 17.5c-4.7e-4 2.5003 2.0828 3.7503 6.25 3.75-0.41719 3.1e-4 1.4578-0.41719 5.625-1.25 0.41562-0.83281 0.625-2.7081 0.625-5.625-4.7e-4 -2.4997-2.7089-3.7497-8.125-3.75-1.6672 3.1e-4 -2.9172 0.83437-3.75 2.5-0.41719 1.6669-0.625 3.1253-0.625 4.375m18.75-6.25 0.625 1.875-3.75 3.75v1.25c-4.7e-4 1.6669 1.25 2.7086 3.75 3.125 1.6661-1.6664 2.4995-3.5414 2.5-5.625-4.7e-4 -0.83281-1.0422-2.2914-3.125-4.375m-6.25 12.5 1.25 0.625h-1.25c-2.0839 3.1e-4 -2.9172 0.83437-2.5 2.5v4.375l-0.625 5c-4.7e-4 2.0836 1.6661 3.1253 5 3.125 4.9995 3.1e-4 7.4995-2.7081 7.5-8.125-4.7e-4 -4.1664-3.1255-6.6664-9.375-7.5m-7.5 1.25c-2.5005-0.83281-3.7505-1.25-3.75-1.25-5.8339 3.1e-4 -8.7505 2.0836-8.75 6.25-4.7e-4 4.5836 2.2911 6.8753 6.875 6.875 2.4995 3.1e-4 3.7495-1.6664 3.75-5v-1.25c-4.7e-4 -1.25 0.625-3.1247 1.875-5.625m-428.75 2.5c-2.0834 0.83437-3.1252 1.8753-3.125 3.125-1.6e-4 3.3336 1.6666 5.0003 5 5 2.4998 3.1e-4 3.7498-1.25 3.75-3.75-0.41719-0.83281-0.83281-1.25-1.25-1.25-1.6e-4 -0.41719-1.6e-4 -0.625 0-0.625l-4.375-2.5m343.12 1.25-6.25 3.125-6.25 1.875-8.75 3.125c-1.667 0.41719-3.542 0.83437-5.625 1.25-2.0838 3.1e-4 -4.167 0.20937-6.25 0.625l-4.375 0.625-1.25 1.875 6.875 0.625c8.7495 0.41719 16.666-0.625 23.75-3.125 7.4995-2.9164 11.25-6.0414 11.25-9.375-4.7e-4 -1.25-0.41719-1.8747-1.25-1.875h-0.625l-1.25 1.25m8.75 5.625-19.375 6.875-7.5 0.625-4.375 1.25h-8.125l-3.125 0.625c-3.3338-0.83281-4.792-1.25-4.375-1.25-2.0838 3.1e-4 -3.7505 2.5003-5 7.5h6.875c6.6662-0.41563 14.166-1.0406 22.5-1.875l10-1.875c12.916-2.4997 19.375-5.6247 19.375-9.375-4.7e-4 -2.4997-0.83438-3.7497-2.5-3.75l-4.375 1.25m-340.62 1.875c-3.7502 3.1e-4 -5.6252 1.6669-5.625 5-1.6e-4 2.9169 1.6666 4.3753 5 4.375 4.1666 3.1e-4 6.2498-1.8747 6.25-5.625-1.6e-4 -2.4997-1.8752-3.7497-5.625-3.75m396.88 0c-2.9172 3.1e-4 -4.3755 1.8753-4.375 5.625-4.7e-4 5.0003 2.9161 7.5003 8.75 7.5 3.3328 3.1e-4 4.9995-1.8747 5-5.625-4.7e-4 -5.8331-2.9172-8.3331-8.75-7.5h-0.625m-410.62 1.25c-0.41719-0.41719-1.25-0.625-2.5-0.625-3.7502 3.1e-4 -5.6252 1.25-5.625 3.75-1.6e-4 1.6669 1.0422 2.9169 3.125 3.75 0.83281 0.83281 2.0833 1.25 3.75 1.25 3.3333 3.1e-4 4.9998-0.625 5-1.875-1.6e-4 -1.6664-1.25-3.7497-3.75-6.25m430.62 1.875-0.625 1.25c-3.3339 4.5836-5.0005 7.9169-5 10-4.7e-4 2.5003 2.4995 3.7503 7.5 3.75 3.7495 3.1e-4 5.6245-1.8747 5.625-5.625-4.7e-4 -4.9997-2.5005-8.1247-7.5-9.375m16.25 3.125h-2.5c-2.0839-0.83281-3.1255 1.0422-3.125 5.625-4.7e-4 2.0836 1.0406 3.1253 3.125 3.125 2.4995 3.1e-4 3.7495-1.6664 3.75-5-4.7e-4 3.1e-4 -0.20938-0.20781-0.625-0.625-4.7e-4 -0.83281-0.20938-1.8747-0.625-3.125m-276.88 3.75h-1.25c-5.8336 5.0003-8.7503 12.709-8.75 23.125 0.41719 1.25 1.6664 2.2919 3.75 3.125l2.5 3.125 4.375 3.125 0.625 0.625 8.75 3.75v2.5l-8.75-2.5-11.875-8.125-0.625-0.625-3.75 5c-1.25 2.5002-2.2919 4.1669-3.125 5l-7.5 10c-0.83281 2.5002-1.0422 4.1669-0.625 5v4.375l1.25 6.875 0.625 1.25 3.75 3.75-2.5-8.75 3.125-0.625 0.625 3.125c2.0831 4.1669 5.2081 7.7084 9.375 10.625l1.875 2.5c-5.0003 1.6e-4 -8.5419-1.6666-10.625-5l-1.25-0.625v2.5l3.125 3.125 2.5 3.125 1.875 0.625 10.625 3.75c0.41562 0.41719 1.6664 0.625 3.75 0.625 1.6664 1.6e-4 2.4997-1.4578 2.5-4.375-3.1e-4 -2.0831-1.25-6.0416-3.75-11.875l6.25 2.5 13.125 1.25 5.625 1.25c1.6664 1.6e-4 3.7497-3.3331 6.25-10 2.4997-6.6664 3.7497-11.666 3.75-15v-0.625c0.41562-9.1664-1.4594-13.958-5.625-14.375l-2.5-3.125h-1.25v-4.375l8.125 3.125 6.25-1.25c-3.1e-4 -6.6664-2.5003-13.125-7.5-19.375-5.0003-6.2497-10.417-9.5831-16.25-10l-9.375-0.625h-2.5l-5 2.5m-145-1.25-3.125 0.625c-2.9167 0.41719-4.3752 1.6669-4.375 3.75-1.6e-4 2.5003 1.6666 3.7503 5 3.75 4.9998 3.1e-4 7.4998-1.4578 7.5-4.375-1.6e-4 -2.4997-1.4578-3.7497-4.375-3.75h-0.625m-19.375 3.125c-3.3334 3.1e-4 -5.0002 1.4578-5 4.375-1.6e-4 3.7503 2.0833 5.6253 6.25 5.625 3.3333 3.1e-4 4.9998-1.4578 5-4.375-1.6e-4 -3.7497-2.0834-5.6247-6.25-5.625m-8.75 9.375v-3.125c0.41719-3.7497-0.41719-5.6247-2.5-5.625-2.5002 3.1e-4 -3.7502 1.6669-3.75 5-1.6e-4 2.9169 1.0422 4.3753 3.125 4.375 1.6666 3.1e-4 2.7083-0.20781 3.125-0.625m51.25-8.125-1.25 21.25c-0.41719 2.0836-0.625 3.9586-0.625 5.625-1.6e-4 1.6669-1.6e-4 3.1252 0 4.375v5c-1.6e-4 18.75 0.83281 31.25 2.5 37.5l2.5 15 1.25 6.875 0.625 1.25 1.25 7.5 4.375 12.5c6.2498 21.667 21.458 40.208 45.625 55.625 23.75 15 50.416 22.917 80 23.75l8.125 0.625 8.75 0.625-2.5-6.875-3.125-11.875-7.5-1.875c-32.084-2.5-58.125-14.792-78.125-36.875-19.584-22.083-29.375-49.792-29.375-83.125-1.6e-4 -2.9164 0.41719-7.0831 1.25-12.5 0.83281-5.8331 1.25-10.208 1.25-13.125-1.6e-4 -2.4998-0.20781-4.3748-0.625-5.625l-3.125-1.875-5-2.5-2.5-1.875-11.875-9.375-3.125-3.125-8.75-6.875m275 3.125h-7.5l-5.625 0.625 0.625 1.25h25l23.125 1.25c0.83281-0.83281 1.25-1.6664 1.25-2.5-4.7e-4 -1.6664-0.625-2.4997-1.875-2.5l-12.5 0.625-22.5 1.25m-88.75 0.625h-1.25c-3.7503 3.1e-4 -5.6253 1.25-5.625 3.75-3.1e-4 4.1669 2.083 6.2503 6.25 6.25 4.583 3.1e-4 6.8747-2.0831 6.875-6.25-3.1e-4 -2.4997-2.0836-3.7497-6.25-3.75m71.25 0-6.875 1.25 11.25-0.625-4.375-0.625m89.375 1.875v5c0.83281 0.41719 2.0828 0.625 3.75 0.625 2.4995 3.1e-4 4.3745 0.20938 5.625 0.625h3.125c8.3328 0.83438 12.5-1.25 12.5-6.25-0.83438-1.25-1.6672-1.8747-2.5-1.875l-1.875 0.625c-5.8339 1.25-10 1.8753-12.5 1.875l-8.125-0.625m40 3.125c-0.83438 3.3336-1.25 4.7919-1.25 4.375-4.7e-4 3.7502 2.0828 5.6252 6.25 5.625 4.1661 1.6e-4 6.2495-2.0831 6.25-6.25v-1.875c-4.7e-4 -0.83281-0.20938-1.4578-0.625-1.875l-4.375-3.75-1.875 2.5-4.375 1.25m-418.12 4.375h3.75c2.9166-0.41562 6.0416 0.625 9.375 3.125 1.6666 3.7502 2.2916 6.2502 1.875 7.5v1.25l-2.5 6.25c-0.41719 0.41719-0.625 0.83281-0.625 1.25l-9.375 8.125-3.125 6.25 0.625 1.875h0.625c1.25 1.6e-4 2.7083-1.25 4.375-3.75 1.6666-2.9164 2.9166-4.7914 3.75-5.625l6.875-4.375c2.9166-1.6664 4.3748-5.6248 4.375-11.875-1.6e-4 -10.416-5.2084-15.625-15.625-15.625-3.7502 3.1e-4 -5.6252 0.625-5.625 1.875-1.6e-4 3.1e-4 -1.6e-4 0.41719 0 1.25 0.41719 0.41719 0.83281 1.25 1.25 2.5m298.75-5 15 8.125c6.6662 0.83438 16.666 2.7086 30 5.625 0.41562-0.83281 0.625-2.7081 0.625-5.625-4.7e-4 -1.25-0.83438-2.4997-2.5-3.75h-1.25l-5.625-1.875-5.625-0.625-12.5-2.5-7.5 0.625h-10.625m108.75 0h-0.625c-2.9172 3.1e-4 -4.3755 1.8753-4.375 5.625-4.7e-4 4.5836 1.6661 6.8752 5 6.875 3.7495 1.6e-4 5.6245-2.2914 5.625-6.875-4.7e-4 -3.7497-1.8755-5.6247-5.625-5.625m-210 8.75c1.6664 1.6669 3.333 2.5002 5 2.5 2.083 1.6e-4 3.333-1.4578 3.75-4.375l0.625-2.5c-3.1e-4 -2.4997-1.4594-3.7497-4.375-3.75-3.7503 3.1e-4 -5.6253 1.6669-5.625 5-3.1e-4 1.6669 0.20781 2.7086 0.625 3.125m-218.12 0.625c-1.6e-4 2.9169 1.6666 4.3752 5 4.375 3.7498 1.6e-4 5.6248-1.6664 5.625-5-1.6e-4 -3.3331-1.8752-4.9997-5.625-5-2.5002 3.1e-4 -3.9584 1.25-4.375 3.75l-0.625 1.875m75.625-5.625 0.625 2.5 10.625 6.875-11.25-9.375m-56.25 4.375c-3.3334 0.83438-5.0002 2.5002-5 5-1.6e-4 2.5002 1.4578 3.7502 4.375 3.75 2.4998 1.6e-4 3.7498-0.83281 3.75-2.5-1.6e-4 -0.83281-1.0422-2.9164-3.125-6.25m209.38 9.375-0.625 3.125c-3.1e-4 2.9169 1.0422 4.3752 3.125 4.375 4.9997 1.6e-4 7.4997-2.0831 7.5-6.25-3.1e-4 -3.7498-1.8753-5.6248-5.625-5.625h-1.25l-3.125 4.375m126.88 4.375 0.625 2.5c1.25 2.5002 1.8745 4.3752 1.875 5.625-4.7e-4 1.25-1.6672 3.1252-5 5.625l0.625 1.25h6.25l0.625-1.875 3.125-2.5c0.41562-0.41562 0.625-1.4578 0.625-3.125-4.7e-4 -4.1664-2.2922-7.7081-6.875-10.625-4.1672-3.3331-8.3338-5.2081-12.5-5.625-0.83438 1.6e-4 -1.4594 0.20938-1.875 0.625l-0.625 1.875 10 3.75 3.125 2.5m88.75-5 1.25 3.125c0.41562 0.83281 0.625 2.2919 0.625 4.375-4.7e-4 0.83438-0.625 1.8752-1.875 3.125l-11.25 1.25-10-6.875c-2.5005-0.83281-3.9589-1.25-4.375-1.25-2.9172 1.6e-4 -4.3755 0.625-4.375 1.875l-0.625 6.25h-1.875c-1.25 1.6e-4 -2.9172-0.83281-5-2.5-1.6672-2.0831-4.3755-4.1664-8.125-6.25v9.375c0.83281 2.0836 2.2911 3.5419 4.375 4.375 2.0828 0.41719 3.1245 0.83281 3.125 1.25l0.625 3.125-2.5 0.625h1.875c-2.9172 0.41719-4.3755 1.4578-4.375 3.125-4.7e-4 2.5002 0.20781 4.1669 0.625 5l3.75 5.625 8.125 10c0.41562 1.6669 0.625 3.1252 0.625 4.375 0.41562 0.83281 0.625 1.6669 0.625 2.5-4.7e-4 5.4169-2.2922 8.1252-6.875 8.125-1.6672 1.6e-4 -3.7505-0.625-6.25-1.875l-2.5-5c-1.25 3.3334-1.8755 5.6252-1.875 6.875-4.7e-4 5.8334 3.5411 8.7502 10.625 8.75 8.7495 1.6e-4 12.916-4.5831 12.5-13.75l-0.625-7.5 3.75-1.875 1.25 1.875c1.6661 1.6669 3.3328 2.5002 5 2.5 1.6661 1.6e-4 2.4995-1.4578 2.5-4.375-4.7e-4 -3.7498-1.6672-7.9164-5-12.5l-8.75-5.625c-4.7e-4 -4.1664 0.625-6.2498 1.875-6.25 1.25 1.6e-4 3.5411 1.25 6.875 3.75 3.3328 2.5002 6.4578 3.7502 9.375 3.75 0.83281 1.6e-4 2.4995-0.41719 5-1.25l4.375-3.125-5-6.875 6.875-3.125c2.0828-3.3331 3.1245-5.4164 3.125-6.25-4.7e-4 -0.41562-1.0422-3.1248-3.125-8.125l-4.375-0.625m-218.12 5-0.625-3.125c-0.83281-0.83281-1.667-1.25-2.5-1.25-3.7503 1.6e-4 -5.6253 2.2919-5.625 6.875-3.1e-4 2.9169 1.4578 4.3752 4.375 4.375 3.7497 1.6e-4 5.6247-1.25 5.625-3.75l-1.25-3.125m-136.25 0v1.875l1.875-0.625-1.875-2.5v1.25m-91.25 3.75 6.25 3.75 1.25 1.875 1.875 3.75-1.875 0.625-1.25 3.75-0.625 3.125c-1.6e-4 1.6669 2.4998 2.7086 7.5 3.125 0.41719 0.41719 0.625 1.0422 0.625 1.875-1.6e-4 0.41719-0.41719 1.0422-1.25 1.875-2.9167 2.9169-4.3752 6.0419-4.375 9.375-1.6e-4 0.83281-1.6e-4 1.8752 0 3.125 0.41719 1.25 0.83281 2.9169 1.25 5 3.7498 8.7502 9.1666 13.125 16.25 13.125l20-1.875c4.1666-0.41719 6.2498-1.0422 6.25-1.875-0.41719-0.41719-0.625-1.0422-0.625-1.875-1.6e-4 -0.41719-0.20781-0.83281-0.625-1.25h-6.25l-15 2.5c-10.833 1.6e-4 -16.25-4.9998-16.25-15-1.6e-4 -4.9998 1.25-7.4998 3.75-7.5 0.41719 0.41719 1.25 0.625 2.5 0.625l6.25 3.75h0.625c1.25 1.6e-4 2.2916-0.41719 3.125-1.25 2.9166-2.4998 4.9998-4.3748 6.25-5.625 1.6666-1.25 2.7081-2.0831 3.125-2.5h1.25c1.6666 1.6e-4 3.9581 0.83438 6.875 2.5 0.41719-1.6664 0.625-2.9164 0.625-3.75 0.41719-1.25 0.625-2.2914 0.625-3.125-1.6e-4 -1.6664-0.83281-3.3331-2.5-5-3.3334-2.0831-5.6252-3.1248-6.875-3.125-2.5002 1.6e-4 -4.1667 0.20938-5 0.625l-3.125 2.5-2.5 5-6.875 1.875-4.375-4.375 2.5-10.625-1.25-5.625c-2.9167-1.6664-6.0417-2.4998-9.375-2.5-2.5002 1.6e-4 -5.4167 1.0422-8.75 3.125m221.25 6.875c-0.83438 0.83438-1.4594 1.8752-1.875 3.125v1.25c-3.1e-4 2.5002 1.25 3.7502 3.75 3.75 2.9164 1.6e-4 4.3747-1.4578 4.375-4.375-3.1e-4 -2.4998-1.8753-3.7498-5.625-3.75h-0.625m-130.62 3.125-1.25 22.5 0.625 8.125c-1.6e-4 4.1669 1.25 12.708 3.75 25.625l2.5 6.25 1.875 5.625 3.75 7.5 3.75 6.25 1.875 2.5 1.875 1.875c-5.4169-12.083-9.5836-22.917-12.5-32.5-2.5002-9.9998-3.5419-18.958-3.125-26.875v-11.875l-0.625-11.25-2.5-3.75m49.375 2.5h-3.75l-1.25 0.625-3.125 3.125v-3.75l-6.875 4.375c-2.5002 1.25-6.2502 4.3752-11.25 9.375l-8.125 11.875c-1.6669 4.5834-2.5002 8.3334-2.5 11.25v4.375l1.25 2.5 1.25 3.75 5.625-3.125 6.25-1.875 6.875-3.75v8.75l11.875-1.25c9.1664-5.4166 13.75-12.292 13.75-20.625-3.1e-4 -2.0831-1.25-5.4164-3.75-10l-0.625 2.5-1.25 1.25-1.25-4.375 0.625-8.75c-3.1e-4 3.7502-0.83281 6.4586-2.5 8.125l-1.875-0.625 0.625-8.75-2.5 0.625 0.625 1.875-5.625 6.875c0.83281-5.8331 3.3331-10.625 7.5-14.375m218.12 6.25c-3.3338 1.6e-4 -5.0005 1.4578-5 4.375-4.7e-4 2.9169 1.25 4.3752 3.75 4.375 3.3328 1.6e-4 4.9995-1.6664 5-5-4.7e-4 -2.4998-1.25-3.7498-3.75-3.75m92.5 5-0.625 3.75-4.375 2.5-8.125-3.125 1.25 3.75c0.41562 2.5002 2.9161 4.3752 7.5 5.625h1.25c0.83281 1.6e-4 1.8745-0.83281 3.125-2.5 1.6661-1.6664 2.7078-2.9164 3.125-3.75l-1.25-3.125v-2.5l-1.875-0.625m-240.62 4.375-6.25 15 5 10c3.333-4.5831 4.9997-8.5416 5-11.875-3.1e-4 -2.9166-1.25-7.2916-3.75-13.125m131.88 8.125c0.41562 1.25 1.25 1.8752 2.5 1.875 2.4995 1.6e-4 3.7495-1.8748 3.75-5.625-4.7e-4 -2.0831-1.0422-3.1248-3.125-3.125-2.5005 1.6e-4 -3.542 1.4594-3.125 4.375v2.5m-69.375-4.375-4.375 1.25 1.875 2.5v8.75l-1.875 0.625-1.875 2.5c-0.83438 0.83281-1.8753 1.25-3.125 1.25-7.917 1.6e-4 -11.875-2.2916-11.875-6.875v-4.375c-3.7503 2.0834-5.6253 4.3752-5.625 6.875-3.1e-4 7.5002 6.0412 11.25 18.125 11.25 3.333 1.6e-4 5.208-0.20781 5.625-0.625l8.125-3.125 6.25-1.25v1.25c-3.7503 2.0834-5.6253 4.3752-5.625 6.875l0.625 3.125c0.41562 1.6669 1.8747 3.3334 4.375 5 0.83281-2.4998 1.25-3.5416 1.25-3.125-3.1e-4 0.41719-0.41719-0.625-1.25-3.125 2.9162-2.9166 5.4162-4.3748 7.5-4.375 4.1662 1.6e-4 6.2497 2.2919 6.25 6.875-3.1e-4 2.0834-0.20938 3.3334-0.625 3.75l-5.625 11.25-1.875 7.5-1.875 3.75c-1.25 2.5002-2.917 7.2917-5 14.375-1.667 6.6667-2.5003 12.292-2.5 16.875-3.1e-4 0.83281-3.1e-4 2.0834 0 3.75 0.41562 1.25 0.83281 2.9167 1.25 5 0.83281-19.167 4.9997-34.375 12.5-45.625l7.5-10.625c2.4995-4.1666 3.7495-10.208 3.75-18.125-4.7e-4 -7.9166-7.0838-15.208-21.25-21.875l-0.625-0.625-10-0.625m82.5 7.5c0.41562 2.0834 1.25 3.5419 2.5 4.375 2.9162 1.6e-4 4.3745-1.8748 4.375-5.625-4.7e-4 -3.3331-1.25-4.9998-3.75-5-2.9172 1.6e-4 -3.9588 1.8752-3.125 5.625v0.625m-360.62 1.875c-1.6667 1.6669-2.5002 3.9584-2.5 6.875l0.625 4.375 0.625 2.5c1.25 2.0834 3.1248 3.9584 5.625 5.625l1.875 3.125c-2.5002 1.6669-4.7917 2.9169-6.875 3.75h-0.625c2.9166 7.5002 9.3748 11.25 19.375 11.25 2.4998 1.6e-4 4.1666-0.41719 5-1.25l12.5-8.75c0.41719-0.41719 0.83281-0.625 1.25-0.625 2.9166 1.6e-4 4.1666 1.25 3.75 3.75-1.6e-4 2.0834-0.83281 3.9584-2.5 5.625l-11.25 6.25c-2.5002 3.7502-4.5834 8.9584-6.25 15.625l0.625 9.375h3.125c1.6666-2.9166 2.9166-4.3748 3.75-4.375l1.25 1.25c0.41719 1.6e-4 1.0422 0.41719 1.875 1.25l0.625 1.25c0.83281 3.3334 2.4998 6.0417 5 8.125 2.9166 5.4167 8.1248 8.1252 15.625 8.125 10.833 1.6e-4 16.25-5.2083 16.25-15.625-1.6e-4 -5.8333-3.7502-9.7916-11.25-11.875 2.9166 2.9167 4.3748 5.8334 4.375 8.75-1.6e-4 5.8334-2.5002 8.7502-7.5 8.75-2.0834 1.6e-4 -3.5419-0.20781-4.375-0.625l-2.5-1.25c-5.4167-4.1666-8.1252-9.3748-8.125-15.625-1.6e-4 -2.9166 1.4578-7.0833 4.375-12.5 2.9166-5.4166 5.6248-8.7498 8.125-10 5.8331-2.4998 8.7498-4.3748 8.75-5.625l-0.625-6.875v-1.25c-1.6e-4 -2.9166-1.25-4.3748-3.75-4.375-1.6669 1.6e-4 -5.2084 0.83281-10.625 2.5-5.0002 1.6669-8.9584 2.5002-11.875 2.5-1.6667 1.6e-4 -2.9167-0.20781-3.75-0.625l-15-3.75c-6.6667-1.25-9.7917-7.0831-9.375-17.5v-3.75h-1.25c-2.5002 1.6669-3.9584 3.5419-4.375 5.625m443.12-3.75c-1.6672 4.5834-2.5005 7.5002-2.5 8.75-4.7e-4 1.6669 0.83281 3.3334 2.5 5 0.83281 2.0834 1.8745 4.7919 3.125 8.125 1.25 2.9169 2.4995 6.4584 3.75 10.625l2.5 13.75 0.625 9.375-1.25-1.25c0.41562 2.0834 0.625 3.9584 0.625 5.625-4.7e-4 1.6667-4.7e-4 3.3334 0 5v6.25c-4.7e-4 7.9167-2.5005 18.333-7.5 31.25l-3.125 3.75-0.625 3.125-8.75 10-1.25 3.125-9.375 9.375-11.25 7.5c-0.83438 0.41719-1.8755 0.83281-3.125 1.25-0.83438 0.41719-1.8755 0.83281-3.125 1.25l-5 2.5c-1.25 0.41719-3.9588 1.0422-8.125 1.875-6.2505 1.25-10.834 1.875-13.75 1.875-15 0-22.5-4.375-22.5-13.125-4.7e-4 -3.3333 2.4995-5 7.5-5 2.9162 0 4.9995 0.625 6.25 1.875l8.75 7.5c1.6662 1.6667 4.9995 2.5 10 2.5 3.7495 0 6.8745-2.2916 9.375-6.875-5.0005 1.25-8.1255 1.875-9.375 1.875-5.0005 0-9.7922-2.2916-14.375-6.875-0.83438-0.83281-2.7088-2.2916-5.625-4.375-2.5005-2.5-5.8338-3.75-10-3.75h-7.5l-3.75 1.25-1.875 1.875-2.5 3.125-1.875 4.375-3.75-1.25c-0.83438-2.0833-1.8755-3.125-3.125-3.125-1.25 0-1.8755 0.83281-1.875 2.5v4.375c-4.7e-4 2.5 0.20781 4.7917 0.625 6.875 4.1662 6.25 8.5412 9.375 13.125 9.375h1.25c2.4995 0 3.7495 0.41719 3.75 1.25-4.7e-4 1.6667-0.625 2.5-1.875 2.5-1.667 0-2.7088-0.20781-3.125-0.625-2.0838-0.41719-4.5838-1.0422-7.5-1.875-2.917-0.83281-6.2505-1.6666-10-2.5l-8.75-5.625-7.5-5c-3.7505-1.6666-7.5005-2.5-11.25-2.5l-5.625 0.625 1.25 6.875-2.5 0.625c-0.83438-0.41719-2.5003-1.25-5-2.5-2.0838-1.6666-5.417-2.5-10-2.5-10 0-15 3.5417-15 10.625-3.1e-4 6.25 3.5412 9.375 10.625 9.375 1.25 0 2.2912-0.625 3.125-1.875-4.5838-2.0833-6.8753-4.1667-6.875-6.25-3.1e-4 -3.3333 1.8747-5 5.625-5l28.75 9.375 20 5c5.4162 0.41719 9.9995 0.83281 13.75 1.25h10c31.666 0 57.916-8.125 78.75-24.375 21.25-16.667 31.875-37.5 31.875-62.5v-13.75l0.625-11.25c0.83281-22.083-4.5839-38.958-16.25-50.625m-128.75 27.5 5.625-3.125 5.625-2.5 6.25-3.75 5.625-1.25 1.875-1.25 9.375-5c3.333-2.0831 4.9995-3.9581 5-5.625-4.7e-4 -0.83281-0.41719-1.25-1.25-1.25-2.5005 1.6e-4 -6.4588 2.5002-11.875 7.5-4.7e-4 1.6e-4 -1.4594 0.625-4.375 1.875-2.917 0.83281-7.292 2.2919-13.125 4.375-2.917 0.83281-5.8338 4.1669-8.75 10m124.38 24.375c-6.6672 1.6e-4 -10-3.9583-10-11.875-4.7e-4 -1.6666 0.20781-2.7081 0.625-3.125l4.375-8.125 1.25-5.625h-1.875l-4.375 5 0.625 1.875c-2.9172 4.1669-4.3755 7.2919-4.375 9.375-4.7e-4 0.83281-4.7e-4 1.6669 0 2.5 0.41562 0.83281 0.83281 2.0834 1.25 3.75l1.875 3.125c2.9161 7.9167 6.4578 11.875 10.625 11.875 2.9161 1.6e-4 6.4578-3.3333 10.625-10-0.41719-1.25-0.625-3.3331-0.625-6.25-1.25-10.417-3.5422-18.958-6.875-25.625l-2.5-5-1.25-3.75c-0.41719-0.41719-1.0422-0.625-1.875-0.625-0.41719 1.6e-4 -0.625 0.41719-0.625 1.25-4.7e-4 1.25 0.20781 2.0834 0.625 2.5l3.75 8.75 1.875 8.75c1.25 4.5834 1.8745 7.5002 1.875 8.75-4.7e-4 1.6669-0.625 4.1669-1.875 7.5-0.83438 3.3334-1.8755 5.0002-3.125 5m-276.25-29.375c-1.6669 1.6669-2.5003 3.7502-2.5 6.25v3.75l2.5 6.875 15.625 11.25 1.25 3.125c0.41719 2.9167 1.0422 4.3752 1.875 4.375 2.4997 1.6e-4 3.7497-1.6666 3.75-5-3.1e-4 -2.9166-1.4594-5.2083-4.375-6.875l-10-7.5c-1.25-0.41719-1.8753-1.4578-1.875-3.125-3.1e-4 -4.1666 2.2914-6.2498 6.875-6.25 4.9997 1.6e-4 9.3747 3.1252 13.125 9.375 3.7497 5.8334 5.6247 12.5 5.625 20v8.125c-0.41719 4.5834-0.20938 8.9584 0.625 13.125 0.83281 4.1667 2.0831 8.3334 3.75 12.5 1.6664 3.7502 4.9997 5.8334 10 6.25 0.41719 2.0834 0.83281 3.9584 1.25 5.625 0.41562 1.25 0.83281 2.2917 1.25 3.125 1.6664 7.0834 3.5414 12.708 5.625 16.875l3.125 6.25 1.875 5.625 4.375 5.625c1.6664 1.6667 3.958 3.9584 6.875 6.875 3.333 2.5 7.4997 5.8333 12.5 10 2.4997 0.83281 3.5414 1.25 3.125 1.25 2.083 0 3.1247-1.0422 3.125-3.125v-0.625l-0.625-1.875-14.375-15c-0.83281-1.6666-1.8753-3.3333-3.125-5-0.83438-2.0833-1.8753-4.1666-3.125-6.25-3.3336-9.1666-5.0003-15.417-5-18.75-3.1e-4 -1.25 1.0422-5.4166 3.125-12.5h1.25c6.2497 1.6e-4 9.583-8.9583 10-26.875 0.83281-24.583 7.9164-36.458 21.25-35.625h3.125l1.875 0.625 2.5 3.125-1.25 8.75-10 5c-2.0838 0.83281-3.1253 3.3334-3.125 7.5-3.1e-4 7.5002 4.7912 11.25 14.375 11.25 9.9997 1.6e-4 15-4.3748 15-13.125l-1.875-1.875c-2.917 5.0002-7.0838 7.9167-12.5 8.75l-2.5-0.625c-2.5003-1.6666-3.7503-3.5416-3.75-5.625-3.1e-4 -2.0833 1.25-3.7498 3.75-5l8.125-5c3.333-2.0831 4.9997-5.8331 5-11.25-3.1e-4 -3.7498-2.292-7.9166-6.875-12.5l-6.875-1.875-7.5 0.625-12.5 6.25 1.25-11.875h-2.5c-0.83281 1.6e-4 -2.917 1.6669-6.25 5l-10 10.625c-0.83281 0.83281-2.0836 3.3334-3.75 7.5l-2.5 8.75c-1.25 3.3334-1.8753 6.6667-1.875 10v5.625c-3.1e-4 12.5-1.8753 18.75-5.625 18.75-2.917 1.6e-4 -4.3753-1.6666-4.375-5-3.1e-4 0.41719 0.41719-1.0422 1.25-4.375l5-12.5c1.25-2.9166 1.8747-6.6666 1.875-11.25-3.1e-4 -5.4166-1.0422-10.833-3.125-16.25l-3.75-8.125c-1.667-4.1666-3.542-6.2498-5.625-6.25-0.83281 1.6e-4 -1.667 0.41719-2.5 1.25l-3.125 6.875h-0.625c-7.0836-8.7498-14.792-13.125-23.125-13.125-4.5836 1.6e-4 -9.3753 2.5002-14.375 7.5m203.12-6.875h-7.5c-12.917 0.41719-24.375 4.1669-34.375 11.25l-6.25 3.125c-1.25 0.83281-2.7088 2.2919-4.375 4.375-1.25 1.6669-2.917 3.5419-5 5.625l-4.375 5.625-5.625 8.75c-5.0003 8.3334-7.5003 19.583-7.5 33.75v4.375c-3.1e-4 1.25 0.20781 2.5002 0.625 3.75 4.583-0.83281 6.8747-1.8748 6.875-3.125l-0.625-4.375-0.625-5c-0.83437-5.4166 1.0406-12.917 5.625-22.5 1.6662-4.1666 2.708-6.4583 3.125-6.875l7.5-7.5 2.5-3.75c0.83281-0.83281 2.083-1.8748 3.75-3.125 2.083-1.6666 4.583-3.3331 7.5-5 2.083-1.25 4.583-2.4998 7.5-3.75 3.333-1.25 7.083-2.7081 11.25-4.375 7.9162-0.83281 13.958-1.4578 18.125-1.875 1.25-0.41719 1.8745-3.5416 1.875-9.375m-220.62 21.875 0.625 2.5 1.25 1.875 0.625 1.25c-3.7502-2.4998-6.2502-3.7498-7.5-3.75-0.41719 0.41719-0.625 0.83281-0.625 1.25l-0.625 0.625c-1.6e-4 1.6669 0.625 4.1669 1.875 7.5 1.6664 2.9167 2.9164 4.7917 3.75 5.625 1.6664 0.83281 3.7497 2.0834 6.25 3.75 2.4997 1.25 5.8331 2.9167 10 5-3.1e-4 1.6e-4 0.41563 0.20781 1.25 0.625 0.83281 0.41719 2.0831 1.0422 3.75 1.875v0.625l0.625 1.875c0.41719 0.41719 0.625 1.25 0.625 2.5-3.1e-4 0.83281-1.0422 1.6667-3.125 2.5l-5-1.875-5.625-5c-3.3336-6.2498-8.5419-9.3748-15.625-9.375-4.1669 1.6e-4 -6.8752 3.1252-8.125 9.375h4.375c7.9164-0.41719 14.791 4.7917 20.625 15.625 2.9164 2.9167 5.2081 4.3752 6.875 4.375h1.875l5.625-4.375 1.875 0.625c0.41719 0.83281 1.0422 1.6667 1.875 2.5 0.83281 0.83281 1.8747 2.0834 3.125 3.75l1.875 1.875c3.3331 4.5834 5.6247 7.5002 6.875 8.75 1.25 0.83281 2.9164 1.0422 5 0.625h2.5c-2.0836-4.9998-3.7503-8.3333-5-10l-4.375-6.875-3.125-4.375-4.375-6.25c2.4997-2.9166 3.7497-5.6248 3.75-8.125-3.1e-4 -0.41719-0.20937-0.83281-0.625-1.25l-2.5-3.75c-1.6669-0.83281-3.3336-1.6666-5-2.5-1.6669-1.25-3.3336-2.4998-5-3.75l-2.5-2.5-7.5-6.875c-4.1669-4.1666-6.2503-9.1666-6.25-15l0.625-5.625h-1.25c-1.6669 1.6e-4 -2.9169 1.0422-3.75 3.125-0.83281 1.6669-1.25 2.9169-1.25 3.75-1.6e-4 1.6669 0.41719 4.1669 1.25 7.5m258.12-3.125 4.375 7.5c1.6661 2.9169 2.4995 5.4169 2.5 7.5-4.7e-4 7.9167-2.5005 13.958-7.5 18.125l-3.75 0.625-1.875 1.875h-6.875c-2.5005-1.25-4.3755-1.8748-5.625-1.875-1.6672 1.6e-4 -2.5005 2.5002-2.5 7.5-4.7e-4 2.5002 2.4995 5.2084 7.5 8.125-4.7e-4 1.25-0.83437 1.8752-2.5 1.875l0.625 0.625-5 0.625-13.75 5.625-6.875 5.625-4.375 3.125-5 4.375c-2.917 2.9167-4.5838 5.8334-5 8.75 5.4162-1.25 8.9578-1.875 10.625-1.875 1.25 0 2.0828 0.20781 2.5 0.625l18.125 8.125 10 1.875c1.25 0.41719 3.3328 0.625 6.25 0.625 11.666 0 20.625-7.2916 26.875-21.875 6.2495 2.0834 9.9995 3.125 11.25 3.125 2.4995 0 4.7911-1.875 6.875-5.625-5.4172-2.4998-7.9172-5.2083-7.5-8.125v-1.875l0.625-4.375-3.75 0.625 5-10.625-1.25-2.5 0.625-2.5-1.875-5.625-1.25 7.5c-3.3339 8.7502-5.4172 13.125-6.25 13.125h-1.875c3.7495-7.9166 5.6245-15.625 5.625-23.125v-3.75c-4.7e-4 -2.9166-0.20937-4.9998-0.625-6.25l-3.75-3.125c0.41563 2.9167 0.625 5.2084 0.625 6.875 0.41563 1.6667 0.625 2.9167 0.625 3.75-4.7e-4 12.083-4.5839 22.5-13.75 31.25h-1.875l2.5-6.25 5.625-10.625c2.4995-3.7498 3.7495-9.9998 3.75-18.75-4.7e-4 -6.2498-2.5005-12.917-7.5-20 2.4995 10.833 3.7495 15.417 3.75 13.75-4.7e-4 2.0834-0.20937 3.7502-0.625 5l-1.875 1.25c-2.0839-19.583-6.8755-29.375-14.375-29.375-2.0838 1.6e-4 -3.1255 1.0422-3.125 3.125-4.7e-4 2.5002 1.8745 4.3752 5.625 5.625m-295-4.375 0.625 1.875 1.875 6.25 9.375 1.875c1.6664 0.83281 3.7498 2.0834 6.25 3.75 2.4998 1.25 5.4164 2.7084 8.75 4.375v-3.125c0.83281-3.3331-1.8752-6.6666-8.125-10l-10-4.375-8.125-2.5-0.625 1.875m295 13.125 3.125 5.625c0.41563 1.6e-4 0.625-0.20781 0.625-0.625l0.625-1.25c-4.7e-4 -2.0831-1.25-4.7916-3.75-8.125-2.0838-3.7498-3.9588-5.6248-5.625-5.625-1.25 1.6e-4 -1.8755 1.0422-1.875 3.125-4.7e-4 2.5002 2.2912 4.7919 6.875 6.875m-67.5-3.75-10 4.375-7.5 4.375-1.25 1.875-4.375 3.125-3.75 5c-2.917 2.9167-4.3755 5.8334-4.375 8.75-2.0838 9.1667-3.1253 15-3.125 17.5v8.125c1.25-0.41719 1.8745-0.83281 1.875-1.25l0.625-3.75-0.625-4.375c-4.7e-4 -2.9166 0.83281-6.2498 2.5-10 1.6662-3.7498 3.7495-7.0833 6.25-10 2.9162-2.9166 6.0412-5.4166 9.375-7.5 3.333-2.0833 6.458-3.1248 9.375-3.125 1.25 1.6e-4 2.4995 1.0422 3.75 3.125l0.625 6.875-1.875 1.875c-5.0005 6.2502-11.459 9.5834-19.375 10l-3.75 6.25 0.625 4.375c2.9162-3.7498 4.9995-6.0416 6.25-6.875l14.375-5.625c10.833-4.5833 16.25-10.625 16.25-18.125-4.7e-4 -1.6666-1.0422-4.1666-3.125-7.5l-7.5-1.25 1.875-6.25h-3.125m-318.12 13.75c-7.5002 9.5834-12.292 17.917-14.375 25-1.6667 7.0834-2.5002 15-2.5 23.75-1.6e-4 2.5 0.20781 4.375 0.625 5.625l1.25 5 3.75 14.375 1.25 0.625c10.833 22.083 28.125 33.125 51.875 33.125 12.917 0 24.167-3.9583 33.75-11.875 9.9998-7.9166 15-17.5 15-28.75-1.6e-4 -13.333-6.6669-23.542-20-30.625-2.5002-1.25-5.4169-1.8748-8.75-1.875-6.2502 1.6e-4 -11.042 1.6667-14.375 5l-3.125 4.375-1.875-0.625c-1.25-2.9166-2.7084-4.5833-4.375-5l-5.625 3.125-4.375 3.125c-3.3334 2.0834-7.9167 3.125-13.75 3.125-3.7502 0-8.5417-2.2916-14.375-6.875-1.25 1.25-1.8752 2.5002-1.875 3.75-1.6e-4 1.25 1.0422 3.5417 3.125 6.875l1.25 1.875 4.375 2.5-1.25 2.5c-1.6667 1.25-2.5002 2.2917-2.5 3.125-1.6e-4 2.9167 3.1248 4.375 9.375 4.375 4.9998 0 8.3333-1.0422 10-3.125 2.0833-2.5 3.9581-4.7916 5.625-6.875h1.875v5.625l-4.375 5c-2.0834 0.83281-3.9584 1.875-5.625 3.125-1.6667 0.83281-3.3334 2.0834-5 3.75l3.125 3.125c-0.41719 2.0834-0.83281 4.1667-1.25 6.25-1.6e-4 1.6667-1.6e-4 2.9167 0 3.75-1.6e-4 3.3334 1.0422 5 3.125 5 2.9166 0 6.2498-1.875 10-5.625l1.875 0.625 1.25 5 3.125-5 2.5-16.875c0.41719-2.5 1.6666-3.75 3.75-3.75l1.25 0.625-3.125 14.375 1.25 7.5 1.875 5 3.75-1.875 5.625 3.75c0.41719 0.41719 1.0422 0.625 1.875 0.625 2.0831 0 4.3748-1.4578 6.875-4.375h-2.5c-2.9169 0.41719-6.0419-1.0422-9.375-4.375-0.41719-1.6666-0.83281-2.9166-1.25-3.75-1.6e-4 -0.83281-1.6e-4 -1.25 0-1.25-1.6e-4 -3.3333 2.7081-8.9583 8.125-16.875 0.41719-1.6666 1.4578-3.75 3.125-6.25l-3.125-7.5-4.375 1.25h-0.625c-2.0834 0-3.1252-0.83281-3.125-2.5l0.625-1.25c2.0831-4.5833 7.0831-6.8748 15-6.875 4.5831 1.6e-4 8.7498 2.0834 12.5 6.25 5.8331 5.8334 8.7498 12.917 8.75 21.25-1.6e-4 8.75-4.3752 16.458-13.125 23.125-8.7502 6.25-19.167 9.375-31.25 9.375-7.9169 0-15-1.4578-21.25-4.375l-9.375-3.75-11.875-12.5c-0.83281-2.0833-1.8752-4.1666-3.125-6.25-0.83281-2.0833-1.8752-4.5833-3.125-7.5l-1.875-6.25-1.875-8.125c-0.41719-0.83281-0.625-2.9166-0.625-6.25-1.6e-4 -1.6666-1.6e-4 -3.9583 0-6.875 0.41719-3.3333 0.83281-7.2916 1.25-11.875l2.5-6.25 1.875-4.375 5.625-9.375 0.625-8.125m98.75 5-0.625 1.875 3.75 1.875-3.125-3.75m-99.375 13.125c-1.6667 2.9167-2.5002 5.0002-2.5 6.25v0.625c0.41719 9.1667 3.7498 13.75 10 13.75 3.3333 1.6e-4 5.4166-1.6666 6.25-5v-3.125h-10l-0.625-0.625-2.5-4.375 0.625-6.25-1.25-1.25m244.38 2.5-5.625 2.5c-4.167 1.6667-7.0836 3.7502-8.75 6.25l-1.875 1.25c-5.417 6.6667-8.1253 13.125-8.125 19.375-3.1e-4 1.25 0.625 1.875 1.875 1.875 0.83281 0 2.4997-2.9166 5-8.75 2.4997-5.8333 7.708-8.7498 15.625-8.75 3.333 1.6e-4 6.458 2.0834 9.375 6.25l-0.625 5.625c7.4997-1.25 11.25-4.7916 11.25-10.625-3.1e-4 -0.41719-0.20937-1.0422-0.625-1.875-3.1e-4 -1.25-0.20937-2.9166-0.625-5-2.0838-3.3333-4.3753-5.2083-6.875-5.625l-10-2.5m194.38 28.125-6.875 14.375-3.75 7.5-1.875 4.375-3.125 5.625-3.75 8.75-0.625 7.5 1.875 5.625-1.25 0.625h-0.625c-4.7e-4 0.83281 0.625 1.4578 1.875 1.875l1.25-0.625 3.75 0.625v1.875c0.83281 0.41719 2.9161 0.625 6.25 0.625 4.5828 0 7.0828-1.4578 7.5-4.375l0.625-3.125-0.625-5.625-3.75 3.75-2.5 0.625 1.25 0.625h-3.75c-4.1672 0-5.8339-1.875-5-5.625-4.7e-4 -2.0833 0.625-5.4166 1.875-10l1.25-6.25 4.375-10 2.5-8.125 3.125-6.25v-4.375m-376.88 22.5 1.875 1.25c3.3331-2.0833 5.4166-3.125 6.25-3.125 0.41719 0 2.2916 1.0422 5.625 3.125l-1.875 0.625c0.41719 0.83281 0.625 2.5 0.625 5-1.6e-4 1.6667-1.0422 4.1667-3.125 7.5h1.875c1.25 0 2.2916-1.6666 3.125-5l1.875-5c0.41563-1.25 0.625-2.0833 0.625-2.5 0.41563-0.83281 0.625-1.25 0.625-1.25-1.6e-4 -0.83281-1.0422-3.75-3.125-8.75-1.6669-1.6666-3.7502-2.5-6.25-2.5-6.2502 0-8.9584 3.125-8.125 9.375v1.25m66.25-5.625c2.9164 1.6667 4.9997 2.7084 6.25 3.125 1.25 0.41719 4.5831 1.4578 10 3.125l10.625 3.125 32.5 5 6.875 0.625h3.125c-0.83281-3.3333-1.667-5-2.5-5h-10l-11.875-1.25-15.625-2.5-13.75-3.125-5.625-0.625-10-2.5m263.75 5.625c-1.6672 2.9167-2.5005 5-2.5 6.25-4.7e-4 2.0834 2.2911 3.125 6.875 3.125 1.6661 0 2.7078-0.20781 3.125-0.625l4.375-4.375 5.625-5 2.5-4.375-7.5 6.875c-1.6672 1.6667-3.5422 2.5-5.625 2.5-2.9172 0-5.2089-1.4578-6.875-4.375m-95 10.625 1.875 1.875 13.125 8.75-3.125-8.75-6.25-5-5.625-6.875c0.41563 0-0.625-0.41719-3.125-1.25-2.5005 0-3.7505 1.0422-3.75 3.125-4.7e-4 1.6667 2.2912 4.375 6.875 8.125m-222.5 21.875c2.4998-1.6667 4.5831-2.7083 6.25-3.125 2.9164-1.6667 5.2081-2.9166 6.875-3.75 1.6664-0.83281 2.9164-1.6666 3.75-2.5l3.75-3.75c1.6664-1.6666 4.3748-2.5 8.125-2.5 3.7498 0 7.2914 0.83281 10.625 2.5 0.41719 0.83281 0.625 2.5 0.625 5-1.6e-4 2.0834-2.2919 4.1667-6.875 6.25 2.0831 2.0833 3.7498 3.125 5 3.125 4.9998 0 7.4998-1.25 7.5-3.75l0.625-2.5-1.25-5.625 3.75 0.625 1.25 6.875 3.125 3.75c4.9997 2.0833 7.9164 3.125 8.75 3.125h2.5c1.25-0.41719 2.7081-0.83281 4.375-1.25l5.625-5.625-11.875-0.625-0.625-0.625c-2.5003-1.6666-3.7503-4.375-3.75-8.125v-0.625c8.3331-0.41719 12.916-2.5 13.75-6.25l-10-2.5-2.5-2.5-4.375-1.875c-3.7502-2.5-7.5002-3.75-11.25-3.75-6.2502 0-11.042 1.6667-14.375 5l-19.375 16.875-5 3.125-5 5m135-5.625 1.875-0.625c-1.667-2.0833-3.3336-3.9583-5-5.625-1.667-2.0833-3.542-4.1666-5.625-6.25l-6.25-0.625 6.875 7.5c0.83281 0.83281 1.8747 1.6667 3.125 2.5 1.6664 0.83281 3.333 1.875 5 3.125m16.25-11.875 3.75 4.375 5.625 7.5-3.125-6.875-3.125-3.75-2.5-2.5-0.625 1.25m190.62-1.25-1.25 0.625-5.625 5c-3.3339 2.0834-5.8339 4.5834-7.5 7.5-1.6672 2.9167-2.5005 4.7917-2.5 5.625-4.7e-4 2.9167 1.25 4.375 3.75 4.375l7.5-0.625-1.25-1.875-1.25-6.25 5.625-8.75 2.5-5.625m-238.12 20c-5.4169-1.6667-8.1253-4.375-8.125-8.125-3.1e-4 -3.75 2.2914-5.625 6.875-5.625 1.6664 0 4.1664 0.41719 7.5 1.25l20 11.875 8.125 0.625-7.5-4.375-12.5-8.75c-7.0836-4.5833-12.917-6.875-17.5-6.875-9.5836 0-14.375 4.1667-14.375 12.5-3.1e-4 7.5 3.9581 11.25 11.875 11.25 2.9164 0 4.7914-1.25 5.625-3.75m-188.12-20v3.75c-1.6e-4 2.0834 1.0422 4.7917 3.125 8.125-1.6e-4 3.75-2.0834 5.8333-6.25 6.25l-4.375-1.875c1.25 4.5833 2.7083 6.875 4.375 6.875 1.6666 0 4.1666-0.625 7.5-1.875 1.25-3.75 1.8748-6.6667 1.875-8.75-1.6e-4 -4.1666-2.0834-8.3333-6.25-12.5m29.375-373.75-5.625-2.5-6.875-1.25-2.5 1.25-1.25-1.25c1.25-2.4995 3.1248-3.7495 5.625-3.75 8.3333 4.7e-4 11.875 2.5005 10.625 7.5m407.5 0.625c-0.41719 0.41719 0.41563 3.3338 2.5 8.75l3.75 5c-6.2505-0.41562-9.3755-4.1662-9.375-11.25-4.7e-4 -0.83281 0.41563-1.6662 1.25-2.5h1.875m-130 10-1.875 6.875 1.25-2.5c0.83281-0.83281 1.4578-1.25 1.875-1.25 1.25 4.7e-4 1.8745 0.41719 1.875 1.25-4.7e-4 2.0838-0.20937 3.9588-0.625 5.625-0.41719 1.667-4.7e-4 4.3753 1.25 8.125h-3.75l-2.5-11.25 1.25 13.125h-3.125c-0.41719-0.41562-0.625-1.25-0.625-2.5-4.7e-4 -1.25-0.20937-2.2912-0.625-3.125v-6.875l1.875-5.625 1.25-2.5 2.5 0.625m-308.12 2.5 1.875-3.125 3.75 0.625 0.625 3.125-6.25-0.625m426.25 6.875c4.5828 1.25 7.4995 3.542 8.75 6.875l3.125 7.5h-0.625c-0.41719 3.1e-4 -0.625 1.4594-0.625 4.375v4.375c-0.83437-6.2497-2.5005-12.083-5-17.5-1.6672 3.1e-4 -3.3339-1.25-5-3.75l-0.625-1.875m-422.5 2.5c-1.6e-4 2.5003-1.0422 3.7503-3.125 3.75l-1.875-0.625c-0.41719-0.41562-0.625-1.0406-0.625-1.875-1.6e-4 -0.83281 0.625-1.25 1.875-1.25h3.75m323.75 1.25c0.83281 0.83438 1.25 2.292 1.25 4.375-4.7e-4 0.83438-0.83437 1.4594-2.5 1.875h-1.875c-1.25 3.1e-4 -1.8755-0.83281-1.875-2.5-4.7e-4 -2.9162 0.83281-4.3747 2.5-4.375l2.5 0.625m-325.62 8.75v2.5l-0.625 1.875-1.875-0.625-0.625-2.5v-2.5l3.125 1.25m255 0h3.75c2.4997 0.83438 3.7497 1.4594 3.75 1.875v3.125c-0.83437 3.1e-4 -2.0838-0.20781-3.75-0.625-1.25-0.83281-2.292-1.25-3.125-1.25-0.41719 0.41719-1.25 0.625-2.5 0.625-1.25 3.1e-4 -2.0838 0.20938-2.5 0.625-3.1e-4 -3.333 1.4578-4.7912 4.375-4.375m62.5 5v-3.75h0.625v-0.625h1.25v-0.625h0.625c0.41563 3.1e-4 1.0406 0.41719 1.875 1.25v1.875c0.41563 1.25-1.0422 1.8753-4.375 1.875m-3.75 5.625h2.5l2.5 2.5-4.375 0.625-0.625-0.625v-2.5m123.75 12.5 4.375-1.875 3.125 4.375c-2.5005 1.25-4.1672 1.8753-5 1.875-1.25 3.1e-4 -2.0839-1.4578-2.5-4.375m-177.5 15-1.875-3.125-1.25-5-1.875-4.375 0.625-1.25 5 5.625-0.625 8.125m183.12-8.75 0.625 1.25c-4.7e-4 2.0838-1.0422 3.1253-3.125 3.125-2.5005 3.1e-4 -3.7505-1.0406-3.75-3.125 0.83281-1.6662 1.6661-2.083 2.5-1.25h3.75m-6.25 6.875 5.625-0.625c-4.7e-4 2.0838-0.20937 3.1253-0.625 3.125-5.8339 3.1e-4 -7.0839 0.41719-3.75 1.25l-1.25-3.75m-197.5 16.875h-0.625c-0.41719 3.1e-4 -1.0422-0.41562-1.875-1.25 0.83281-2.083 1.8747-4.1664 3.125-6.25 1.6664-2.4997 2.2914-6.0412 1.875-10.625 0.41563-6.6662 0.83281-10.208 1.25-10.625 0.41563 2.0838 0.625 4.3753 0.625 6.875 0.41563 2.5003 0.625 5.417 0.625 8.75-3.1e-4 -0.41562-0.41719 1.0422-1.25 4.375l-1.25 3.75-2.5 5m196.88-11.25 5 1.25c-0.83437 2.0836-2.0839 3.1253-3.75 3.125l-1.875-0.625 0.625-3.75m-276.25 33.75-1.25 5.625c-0.41719 0.41719-0.625 1.667-0.625 3.75v1.25c0.83281 2.0836 0.625 3.1253-0.625 3.125-1.25 3.1e-4 -1.8753-0.625-1.875-1.875l0.625-2.5 1.875-8.75 1.25-6.25 0.625 5.625m-100-8.75 12.5 7.5c1.6666 0.41719 4.3748 1.8753 8.125 4.375 4.1666 2.0836 6.2498 3.542 6.25 4.375l-10-3.75c-0.41719 0.41719-4.7919-1.8747-13.125-6.875l-3.75-5.625m40.625 21.25-6.875-2.5 1.875 0.625-1.875-0.625 0.625-1.875 5.625 1.875c2.4998 0.83438 3.5414 1.25 3.125 1.25 2.0831 0.41719 4.1664 1.667 6.25 3.75-0.41719 3.1e-4 -1.0422 3.1e-4 -1.875 0-0.83281-0.41719-2.2919-0.83281-4.375-1.25-0.83437 3.1e-4 -1.6669-0.41562-2.5-1.25m96.25 9.375c1.25 2.0836 1.8747 3.5419 1.875 4.375-0.83281 1.25-1.4578 3.3336-1.875 6.25l-0.625 2.5c-0.83281 0.83438-1.8753 1.8753-3.125 3.125-1.25 1.25-2.7086 2.5003-4.375 3.75l-0.625-1.875c5.4164-3.7497 8.1247-7.9164 8.125-12.5-3.1e-4 -0.41562-0.41719-2.2914-1.25-5.625h1.875m-10.625 14.375 1.25-2.5 2.5-3.125 0.625-5.625c0.41563-1.25 1.4578-1.8747 3.125-1.875l-1.25 0.625c0.83281 0.83281 1.25 1.6669 1.25 2.5-3.1e-4 0.83438-0.625 2.5003-1.875 5l-1.25 3.125-1.25 1.25c-0.41719 0.41719-1.0422 0.625-1.875 0.625h-1.25m-35 10 3.75-3.75-2.5 7.5-6.25 0.625-0.625-2.5 5.625-1.875m-75.625 2.5c-2.5002-0.41719-3.7502-1.25-3.75-2.5-1.6e-4 -1.6664 1.25-2.4997 3.75-2.5 2.0831 3.1e-4 3.1248 0.83438 3.125 2.5-1.6e-4 0.83281-1.0422 1.6669-3.125 2.5m219.38-0.625 1.25 3.75-3.75 1.25-1.875 3.75h-0.625c-1.25 3.1e-4 -1.8753-0.41562-1.875-1.25-3.1e-4 -1.25 1.0406-2.7081 3.125-4.375 2.083-2.0831 2.708-3.1247 1.875-3.125h1.875m-141.88 5 4.375-3.125 0.625 1.25c-2.0836 3.3336-3.7503 5.0003-5 5-0.83281-0.41719-1.6669-0.625-2.5-0.625-0.83281-0.41562-1.6669-1.0406-2.5-1.875l5-0.625m-71.25-3.75h5v3.125c-1.6e-4 1.25-1.4578 1.8753-4.375 1.875h1.875-3.125l0.625-5m41.875 0.625 1.875 1.25 1.25 2.5 6.25 5c3.7498 3.3336 9.1664 6.0419 16.25 8.125l-1.875 2.5-8.125-2.5-10-5.625c-0.41719-0.41719-1.0422-0.83281-1.875-1.25-0.41719-0.83281-1.0422-2.0831-1.875-3.75l-2.5-2.5-1.25-5 1.875 1.25m-59.375 0 8.75 5c3.3331 2.0836 4.9998 4.1669 5 6.25v1.875l-5-3.75-3.75-3.125-5-4.375v-1.875m129.38 9.375c-0.41719-0.41719-1.4578-0.625-3.125-0.625-1.25 3.1e-4 -2.0836-0.20781-2.5-0.625-4.5836-1.25-5.2086-1.8747-1.875-1.875-0.41719 3.1e-4 -1.25 0.20938-2.5 0.625-1.25 3.1e-4 -2.9169 0.20938-5 0.625l-1.25-2.5c3.3331-0.83281 5.2081-1.25 5.625-1.25 7.9164 3.1e-4 11.458 1.0422 10.625 3.125v2.5m-99.375 0.625-3.75-0.625c-0.83281-0.83281-1.25-1.6664-1.25-2.5-1.6e-4 -1.25 1.4578-1.8747 4.375-1.875 1.25 3.1e-4 1.8748 0.625 1.875 1.875-1.6e-4 1.25-0.41719 2.2919-1.25 3.125m64.375-3.75v2.5l-2.5 4.375-1.875-0.625h-1.875l6.25-6.25m24.375 3.125 6.25 1.25-1.25 1.875-7.5-1.25v-0.625l2.5-1.25m117.5 11.875 13.75 1.875 0.625 0.625 6.875 2.5-1.875 1.875-11.875-3.125-6.875-0.625-4.375 1.875-3.75-0.625 7.5-4.375m-160 6.875 3.75 1.25v1.25c-3.1e-4 4.5836-1.25 7.5002-3.75 8.75l-2.5-0.625c2.9164-1.6664 4.3747-3.3331 4.375-5l-0.625-3.125-1.25-2.5m118.75 3.75c-0.41719 0.83438-0.625 2.9169-0.625 6.25-3.1e-4 1.6669 1.8747 2.5002 5.625 2.5h1.875l0.625 1.25c-3.1e-4 1.6669-2.0838 2.5002-6.25 2.5-4.5838 1.6e-4 -6.8753-2.2914-6.875-6.875-3.1e-4 -4.1664 1.4578-6.2498 4.375-6.25l1.25 0.625m-111.25-1.875 1.25 2.5v1.875c0.83281 2.5002-0.41719 4.7919-3.75 6.875h-1.875c2.4997-1.6664 3.7497-4.3748 3.75-8.125l0.625-3.125m101.25 10c-3.1e-4 1.25 1.6662 2.9169 5 5l3.125 1.25v1.25c-2.5003 1.25-4.5838 1.8752-6.25 1.875-3.3338 1.6e-4 -5.0003-2.2914-5-6.875-3.1e-4 -0.83281 1.0406-1.6664 3.125-2.5m174.38 3.125 12.5 2.5-2.5 1.875-4.375-0.625-5.625-3.75m-15 8.125c0.41563-2.9164 1.25-4.3748 2.5-4.375 1.25 1.6e-4 1.8745 0.625 1.875 1.875-4.7e-4 1.25-1.4594 2.0836-4.375 2.5m-165-3.125c-3.1e-4 2.0836 1.4578 3.3336 4.375 3.75h0.625c-1.25 2.0836-2.5003 3.1252-3.75 3.125-2.917 1.6e-4 -4.3753-0.83281-4.375-2.5v-0.625l1.25-4.375 1.875 0.625m-42.5 13.75c0.41719-2.9164 1.0422-4.9998 1.875-6.25l-1.25-6.875c0.41563-2.9164 1.0406-4.3748 1.875-4.375 1.6664 1.6e-4 2.2914 1.4578 1.875 4.375l-0.625 10c-3.1e-4 2.5002-0.625 3.7502-1.875 3.75-0.83281 1.6e-4 -1.4578-0.20781-1.875-0.625m-5-13.125 2.5 0.625c0.41719 1.25 0.41719 2.9169 0 5-3.1e-4 1.6669-0.20937 3.7502-0.625 6.25l-1.875-1.875v-10m223.12 1.875c-2.9172 1.6669-4.3755 3.3336-4.375 5l0.625 3.125-1.25 0.625c-1.6672 1.6e-4 -2.5005-1.0406-2.5-3.125v-4.375c-4.7e-4 -1.6664 1.4578-2.4998 4.375-2.5l3.125 1.25m-291.25 4.375-3.125 6.25-6.875 2.5 10-8.75m113.75 3.125c-0.41719 1.6669-1.0422 2.5002-1.875 2.5-2.5003 1.6e-4 -3.7503-1.0422-3.75-3.125-3.1e-4 -0.41562 0.20781-0.83281 0.625-1.25l1.25 1.25 3.75 0.625m-115 13.125 3.125-1.875v3.75l-2.5 3.75-6.875 10.625 6.25-16.25m293.12-8.125 5.625 5.625c1.6661 1.6669 2.2911 3.3336 1.875 5l0.625 0.625-2.5 0.625-2.5-6.25-1.25-0.625-1.875-5m-1.875 5v5h3.75l-1.25-1.25-2.5-3.75m-273.75 11.25-1.875 6.875c-0.41719 2.5002-3.1253 5.4169-8.125 8.75l-1.25-1.875 5-6.25c2.4997-0.83281 4.5831-3.3331 6.25-7.5m-104.38 22.5 2.5 0.625c1.25 0.41719 2.4998 2.7084 3.75 6.875v2.5l-3.75 0.625-2.5-10.625m-6.875 2.5c4.9998 1.6e-4 7.4998 2.7084 7.5 8.125v0.625c-1.6e-4 1.6669-0.83281 2.7084-2.5 3.125l-1.25-0.625 0.625-4.375c-1.6e-4 -1.6666-1.4578-3.9581-4.375-6.875m166.25 4.375 2.5 0.625c2.9164 5.4169 4.3747 9.1669 4.375 11.25-0.41719 0.83281-0.625 2.0834-0.625 3.75-3.1e-4 1.25-0.20781 2.0834-0.625 2.5l-1.875-8.125-3.75-10m30.625 2.5c-5.417 7.0834-8.542 12.5-9.375 16.25-0.83281 3.7502-1.25 6.0417-1.25 6.875-3.1e-4 0.41719-0.20937 0.83281-0.625 1.25-1.25-0.41719-1.8753-1.25-1.875-2.5-3.1e-4 -1.6666 0.20781-2.9166 0.625-3.75l1.25-5.625 1.875-5 7.5-9.375 1.875 1.875m-38.75 15 1.875 6.25c1.25 7.0834 1.8747 12.708 1.875 16.875-3.1e-4 3.3334-0.625 7.0834-1.875 11.25-1.667-0.41719-2.5003-1.4578-2.5-3.125v-5.625c-3.1e-4 -4.5833 0.20781-7.2916 0.625-8.125v-3.125c-3.1e-4 -4.5833-0.83281-9.1666-2.5-13.75l2.5-0.625m5 5 2.5 2.5v6.875c-3.1e-4 2.9167-0.625 4.5834-1.875 5l-0.625-14.375m-38.75 25v-1.875l1.875-1.875 3.75-6.25 1.25 5.625-6.875 4.375m46.25 9.375 7.5 0.625 5.625-3.125 0.625-0.625c1.25 1.6e-4 1.8747 0.625 1.875 1.875-3.1e-4 3.3334-2.5003 5.2084-7.5 5.625h-2.5l-0.625 0.625c-1.25 1.6e-4 -2.917-1.6666-5-5m188.75 11.25c-2.0838-1.25-3.1255-2.2916-3.125-3.125 1.25-1.6666 2.7078-2.4998 4.375-2.5 1.6662 1.6e-4 2.4995 0.625 2.5 1.875-4.7e-4 1.25 0.20781 1.8752 0.625 1.875-1.25 1.6e-4 -2.7088 0.625-4.375 1.875m-176.88 0.625c-0.83281 0.83281-1.4594 0.83281-1.875 0-0.83281-0.83281-1.4578-1.25-1.875-1.25l-1.25-1.25h-3.125 1.25l-0.625-2.5h2.5l2.5 1.875 2.5 3.125m172.5-3.125c0.41563 0.83281 0.20781 2.5002-0.625 5h-4.375v-4.375l5-0.625m-343.12 3.125 3.125 0.625 1.25 1.875-0.625 1.875-3.125 1.875-3.125-1.25v-2.5l0.625-1.875 1.875-0.625m330.62 0.625 1.875 0.625 3.125 2.5-5 0.625v-3.75m-323.75 9.375c-0.83281 0.83281-3.9584 5-9.375 12.5-0.83281 3.3334-1.6669 5-2.5 5h-1.875c-1.6e-4 -7.0833 2.7081-13.333 8.125-18.75 2.9166-2.9166 5.2081-4.375 6.875-4.375 1.25 0 1.8748 0.625 1.875 1.875-1.6e-4 1.6667-1.0422 2.9167-3.125 3.75m345.62-3.125 1.25 1.25-2.5 3.125c-1.6672 1.6667-3.3338 2.5-5 2.5l-3.125-0.625 9.375-6.25m7.5 2.5c-4.1672 5.4167-9.3755 9.375-15.625 11.875h-5l-0.625-3.125 9.375-0.625c2.0828-0.83281 3.7495-2.0833 5-3.75 1.6661-3.75 3.3328-5.625 5-5.625l1.875 1.25m-346.25 2.5h1.875l-1.25 4.375-3.125 0.625c-1.25 0-1.8752-0.83281-1.875-2.5-1.6e-4 -1.6666 0.41719-2.5 1.25-2.5h3.125m73.125 18.125 13.125 10.625-9.375-4.375-6.875-3.125h-8.125l1.25-2.5 10-0.625m202.5 5.625 7.5 2.5 1.875 3.75-2.5 0.625h2.5-8.125l-1.875-1.875 0.625-5"
         fill="#8f0005"
         id="path13" />
    </g>
  </g>
</svg>
