<?xml version="1.0" encoding="UTF-8" standalone="no"?>
<svg
   xmlns:dc="http://purl.org/dc/elements/1.1/"
   xmlns:cc="http://creativecommons.org/ns#"
   xmlns:rdf="http://www.w3.org/1999/02/22-rdf-syntax-ns#"
   xmlns:svg="http://www.w3.org/2000/svg"
   xmlns="http://www.w3.org/2000/svg"
   xmlns:sodipodi="http://sodipodi.sourceforge.net/DTD/sodipodi-0.dtd"
   xmlns:inkscape="http://www.inkscape.org/namespaces/inkscape"
   version="1.1"
   viewBox="0 0 500 500"
   id="svg19"
   sodipodi:docname="william-morris-letter-v.svg"
   inkscape:version="1.0.2 (1.0.2+r75+1)">
  <metadata
     id="metadata23">
    <rdf:RDF>
      <cc:Work
         rdf:about="">
        <dc:format>image/svg+xml</dc:format>
        <dc:type
           rdf:resource="http://purl.org/dc/dcmitype/StillImage" />
      </cc:Work>
    </rdf:RDF>
  </metadata>
  <sodipodi:namedview
     pagecolor="#ffffff"
     bordercolor="#666666"
     borderopacity="1"
     objecttolerance="10"
     gridtolerance="10"
     guidetolerance="10"
     inkscape:pageopacity="0"
     inkscape:pageshadow="2"
     inkscape:window-width="1920"
     inkscape:window-height="1016"
     id="namedview21"
     showgrid="false"
     inkscape:zoom="1.686"
     inkscape:cx="255.33808"
     inkscape:cy="250"
     inkscape:window-x="0"
     inkscape:window-y="27"
     inkscape:window-maximized="1"
     inkscape:current-layer="svg19" />
  <defs
     id="defs7">
    <linearGradient
       id="linearGradient847"
       x1="500"
       x2="0"
       y1="500"
       y2="-4.2633e-14"
       gradientTransform="translate(141.16251,102.60973)"
       gradientUnits="userSpaceOnUse">
      <stop
         stop-color="#ff6700"
         offset="0"
         id="stop2" />
      <stop
         stop-color="#ffd700"
         offset="1"
         id="stop4" />
    </linearGradient>
  </defs>
  <path
     d="m32.922 47.811-10.064 7.3398 2.5156 9.2266 11.324 6.9199 25.373 9.0176 13.422 16.566 21.809 55.57 27.051 69.83 6.082-1.2578 24.953-14.051 11.533-8.5977-0.20898-9.0156-27.471-60.395-2.7266-15.309-0.6289-7.5488-7.5488-1.8867-2.3066 2.0977 0.20898 4.6133 5.2441 3.1445-1.6777 3.1465-6.502 3.9844-7.5488-5.2441-6.291 3.1465-6.0801-3.1465-0.63086-12.162 5.873-7.9687 15.744-7.082 0.61133-10.113 9.8555-6.709 14.471-7.5508 5.0312-14.889-14.678-1.4668-55.781 1.8867s-47.812-2.0977-50.957-2.0977zm328.88 0.5293-12.158 3.8555 9.4902 19.275 34.104 9.7871-5.6348 28.766 2.9668 10.676 9.7852 13.049 12.455 5.6348 14.236-41.814 18.09-19.869s27.283-10.974 29.062-11.863c1.7794-0.88968 2.0762-13.938 2.0762-13.938l-36.773 1.1855-77.699-4.7441zm8.3047 110.91-27.283 68.209-30.547 65.244-26.395 51.305s10.677 15.716 11.863 15.42c1.1862-0.29656 13.346 3.5605 13.346 3.5605l69.395-145.61s23.131-51.898 21.352-51.898-22.834-6.2285-22.834-6.2285h-8.8965zm-196.92 49.23-17.498 13.047-28.766 11.863 3.8555 2.0762 24.613 52.787 12.754-0.29688 5.9297-4.7441 5.043-5.041 0.29492-2.9668h1.7793l8.8984 14.236 2.668 8.5996-0.88867 14.531-5.043 9.1934 8.6016 6.2285 4.4473 6.8203 0.89062 5.9316-4.1523 2.9648-2.0762 0.89063-9.1934-2.9668-2.0762 7.4141s53.382 100.24 54.568 101.72 10.082 9.4902 10.082 9.4902l8.5996-0.59375s24.911-40.035 25.801-42.111 18.98-28.471 18.98-28.471l-1.1856-10.082-15.125-8.6016-8.0078-8.3027-15.42 28.174-29.359-52.195-32.918-69.098-26.098-60.498z"
     fill="#f4eee6"
     id="path11" />
  <g
     id="g17">
    <g
       transform="translate(-146.86,-119.79)"
       id="g15">
      <path
         d="m146.86 619.79v-500h500v500h-500m7.5-7.5h485v-485h-485v485m7.5-7.5v-469.38h469.38v469.38h-469.38m153.75-455 0.625 2.5c1.25 1.6672 2.7081 3.3338 4.375 5 2.0831 1.6672 4.5831 3.3338 7.5 5v-2.5c-0.41719-0.41562-1.8753-1.6662-4.375-3.75-2.5003-2.0828-3.7503-4.3745-3.75-6.875-3.1e-4 -3.7495 1.8747-5.6245 5.625-5.625-0.41719 4.7e-4 1.4578 0.41719 5.625 1.25v-0.625c-3.1e-4 -4.1662-2.7086-6.2495-8.125-6.25-6.2503 4.7e-4 -8.9586 2.9172-8.125 8.75l0.625 3.125m69.375-10.625h-0.625c-2.917 4.7e-4 -4.3753 0.83438-4.375 2.5-3.1e-4 1.6672 2.083 2.5005 6.25 2.5 3.333 4.7e-4 4.9997-0.625 5-1.875v-1.25l-1.25-1.25-5-0.625m-198.75 9.375-18.75-2.5 3.75 6.875 8.125 3.125-3.125 5.625c-1.6e-4 0.83438 1.25 1.25 3.75 1.25 7.4998 4.7e-4 13.958-2.7078 19.375-8.125 3.3333-2.0828 4.9998-3.1245 5-3.125l2.5 0.625v1.875l-6.25 3.125-5 4.375-3.75 1.875c-0.83281 0.83438-1.25 1.6672-1.25 2.5-1.6e-4 0.83438 0.83281 1.25 2.5 1.25 2.0833 4.7e-4 5.2083-2.0828 9.375-6.25 0.83281-0.83281 6.4583-3.7495 16.875-8.75l7.5-3.75h1.875l4.375 0.625v1.875h-3.125l-4.375 1.25-7.5 3.125v1.25c3.7498 4.7e-4 5.6248 0.625 5.625 1.875-1.6e-4 4.7e-4 -0.20781 0.20938-0.625 0.625-1.6e-4 0.41719-0.20781 1.0422-0.625 1.875l0.625 0.625-0.625 2.5c-1.6e-4 2.5005 2.9166 3.7505 8.75 3.75h1.875c0.83281-0.41562 1.8748-0.625 3.125-0.625 1.6666 4.7e-4 2.7081-0.20781 3.125-0.625l11.875-3.75h6.875c-3.3334-2.0828-5.6252-3.1245-6.875-3.125-1.25 4.7e-4 -3.3334 0.625-6.25 1.875-2.5002 0.83438-4.1669 1.25-5 1.25-2.9169-0.41562-4.3752-1.6662-4.375-3.75-1.6e-4 -5.8328 8.5416-8.7495 25.625-8.75 16.666 4.7e-4 31.041 3.5422 43.125 10.625l9.375 5.625 5.625 3.125c2.0831-2.0828 3.1247-3.5412 3.125-4.375-1.6669-1.6662-2.9169-2.7078-3.75-3.125l-11.875-7.5-9.375-5c-18.334-6.6662-33.959-9.9995-46.875-10h-5c-2.9169 0.41719-5.4169 0.625-7.5 0.625-2.0834 4.7e-4 -3.9584 4.7e-4 -5.625 0-3.3334 4.7e-4 -5.2084 0.20938-5.625 0.625l-22.5 6.25c-3.7502 1.25-7.2917 1.8755-10.625 1.875l-7.5-0.625m294.38-2.5c2.083-0.41562 4.7912 4.7e-4 8.125 1.25v4.375l-4.375 8.125c0.83281-0.83281 2.083-1.6662 3.75-2.5 1.6662-1.25 3.5412-2.7078 5.625-4.375 1.6662-1.6662 2.4995-3.5412 2.5-5.625-4.7e-4 -4.9995-2.5005-7.4995-7.5-7.5-5.0005 4.7e-4 -7.7088 2.0838-8.125 6.25m-43.75 1.25c3.7497-0.41562 5.6247-1.6662 5.625-3.75-3.1e-4 -2.0828-1.4594-3.1245-4.375-3.125-2.0838 4.7e-4 -3.1253 0.83438-3.125 2.5-3.1e-4 1.25 0.625 2.7088 1.875 4.375m-26.875-5c-3.1e-4 2.5005 1.25 3.7505 3.75 3.75 3.333 4.7e-4 4.9997-1.4578 5-4.375-3.1e-4 -1.25-1.0422-1.8745-3.125-1.875-3.7503 4.7e-4 -5.6253 0.83438-5.625 2.5m-55.625 0.625c-3.1e-4 2.9172 1.4578 4.3755 4.375 4.375 2.4997 4.7e-4 3.7497-1.25 3.75-3.75-3.1e-4 -1.6662-1.6669-2.4995-5-2.5-1.6669 4.7e-4 -2.7086 0.625-3.125 1.875m45-1.875c-2.5003 4.7e-4 -3.7503 1.25-3.75 3.75-3.1e-4 4.5838 1.8747 6.8755 5.625 6.875 3.333 4.7e-4 4.9997-1.8745 5-5.625-3.1e-4 -3.3328-2.292-4.9995-6.875-5m130 2.5-7.5 1.875-8.125 3.125-5.625 1.875c-3.3338 0.83438-6.667 2.5005-10 5-3.3338 2.5005-7.0838 5.4172-11.25 8.75-0.83437 0.83438-2.292 2.5005-4.375 5-2.0838 2.0838-4.5838 4.7922-7.5 8.125-2.0838 2.917-3.7505 5.417-5 7.5-0.83437 2.0838-1.8753 4.792-3.125 8.125l6.875 1.25c11.666-28.75 34.583-42.708 68.75-41.875h3.75c-0.41719-0.41562-0.625-1.6662-0.625-3.75-4.7e-4 -2.0828 1.25-3.1245 3.75-3.125 2.4995 4.7e-4 3.7495 1.25 3.75 3.75-4.7e-4 1.6672-1.6672 3.1255-5 4.375 12.916 1.6672 19.375 4.3755 19.375 8.125-4.7e-4 3.3338-1.8755 5.0005-5.625 5-0.41719 4.7e-4 -5.2088-2.2912-14.375-6.875-2.5005-1.25-4.7922-1.8745-6.875-1.875-5.4172 4.7e-4 -8.1255 2.5005-8.125 7.5v0.625c4.1662-2.4995 7.4995-3.7495 10-3.75 1.6662 4.7e-4 2.7078 0.20938 3.125 0.625l13.125 5.625c1.6662 1.25 3.9578 1.8755 6.875 1.875 5.8328 4.7e-4 9.1661-2.9162 10-8.75l5.625 1.25c-1.25-4.1662-2.9172-7.0828-5-8.75-2.0839-1.6662-3.5422-2.4995-4.375-2.5-5.0005-1.25-7.5005-2.4995-7.5-3.75-4.7e-4 -0.41562 0.41563-0.625 1.25-0.625-1.6672 4.7e-4 1.8745 1.25 10.625 3.75l1.875 0.625c7.0828 5.8338 12.5 8.7505 16.25 8.75 7.9161 4.7e-4 11.875-1.0406 11.875-3.125-4.7e-4 -0.83281-0.41719-1.6662-1.25-2.5 7.0828-0.41562 12.291-3.5412 15.625-9.375l-0.625-1.25c-7.5005 2.5005-13.125 3.7505-16.875 3.75-5.4172 4.7e-4 -13.959-1.25-25.625-3.75-10.834-2.4995-20-3.3328-27.5-2.5l-20.625 1.875m-161.88 6.25c0.83281 3.3338 2.083 5.0005 3.75 5 4.583 4.7e-4 6.8747-2.2912 6.875-6.875-3.1e-4 -3.7495-1.8753-5.6245-5.625-5.625-2.917 4.7e-4 -4.5836 2.5005-5 7.5m104.38-7.5-5 3.125h-9.375c-4.5838 4.7e-4 -10.209 2.7088-16.875 8.125-8.7503 6.2505-13.125 12.709-13.125 19.375-3.1e-4 3.3338-1.25 5.2088-3.75 5.625l-3.125-5.625-1.875-5.625c-0.41719-1.6662-1.25-2.4995-2.5-2.5h-0.625c-2.0836 0.83438-3.7503 1.8755-5 3.125l-1.875 3.75c-3.3336 4.167-5.417 10.417-6.25 18.75-3.1e-4 2.5005-0.20937 4.3755-0.625 5.625l0.625 11.875 3.125 19.375c0.41719 2.0838 0.625 4.167 0.625 6.25 0.41719 2.0838 0.625 4.5838 0.625 7.5-3.1e-4 9.167-1.667 13.75-5 13.75-2.0836 3.1e-4 -3.3336-3.7497-3.75-11.25l-0.625-11.25 1.25-3.125v-1.25l-0.625-5.625v-16.875l-3.125-19.375-3.75-8.75c-0.83437-1.6662-1.4578-2.9162-1.875-3.75-3.1e-4 -1.25-0.41719-2.2912-1.25-3.125-0.41719-1.25-1.667-2.7078-3.75-4.375-1.667-1.6662-4.3753-3.9578-8.125-6.875l-3.125 8.75h-3.125l0.625-0.625c-3.1e-4 -0.41562-1.0422-2.2912-3.125-5.625l-3.125-5c-1.6669-1.25-5.8336-3.5412-12.5-6.875l-8.125-5.625c-1.6669 1.6672-2.5003 3.7505-2.5 6.25-3.1e-4 1.25 0.625 3.1255 1.875 5.625 1.25 2.0838 2.0831 4.3755 2.5 6.875-10 4.7e-4 -17.917 4.1672-23.75 12.5l-2.5 5.625-4.375 11.875c-2.5002 7.0838-7.0836 10.625-13.75 10.625-3.3336 4.7e-4 -5.0002-1.25-5-3.75-1.6e-4 4.7e-4 0.41719-1.25 1.25-3.75-0.41719-0.41562-0.83437-0.625-1.25-0.625l-0.625-0.625c-2.9169 4.7e-4 -4.3752 2.5005-4.375 7.5-1.6e-4 5.8338 3.5414 8.7505 10.625 8.75 5.4164 4.7e-4 9.5831-2.708 12.5-8.125l11.25-19.375c3.7497-5.833 9.7914-8.7495 18.125-8.75 4.5831 4.7e-4 9.1664 1.667 13.75 5l3.125 3.75 3.125 5.625 1.25 5.625 1.25 2.5 1.25 6.25c1.25 7.0838 1.8747 12.5 1.875 16.25v6.25c-3.1e-4 1.25-3.1e-4 2.7088 0 4.375-3.1e-4 1.667-0.20937 3.542-0.625 5.625v6.25l0.625 15 1.25 5 1.875 2.5 3.125 5c7.4997 7.917 14.375 11.875 20.625 11.875 10.833 3.1e-4 20-4.7912 27.5-14.375 7.4997-9.583 11.458-21.875 11.875-36.875l1.25-28.125c-3.1e-4 -2.4995 0.83281-5.4162 2.5-8.75 1.6662-3.7495 3.5412-7.083 5.625-10 2.4997-3.333 5.208-6.0412 8.125-8.125 2.9162-2.0828 5.6247-3.1245 8.125-3.125h11.875l3.75-5 1.875-5.625-6.875-3.75c-0.41719-0.41562-4.7e-4 -2.2912 1.25-5.625 1.25-3.3328 1.8745-5.4162 1.875-6.25-4.7e-4 -1.6662-1.0422-2.9162-3.125-3.75m-47.5 16.25 5-0.625c1.6662-2.9162 2.4997-5.6245 2.5-8.125-3.1e-4 -3.3328-1.8753-4.9995-5.625-5-2.0838 4.7e-4 -3.1253 0.625-3.125 1.875-3.1e-4 -0.41562 0.41563 1.0422 1.25 4.375v7.5m-38.125-8.75c-3.3336 4.7e-4 -5.0003 1.0422-5 3.125-3.1e-4 4.1672 1.8747 6.2505 5.625 6.25 4.1664 4.7e-4 6.2497-1.8745 6.25-5.625-3.1e-4 -2.9162-1.8753-4.1662-5.625-3.75h-1.25m28.75 1.875c-3.3336 4.7e-4 -5.8336 1.4594-7.5 4.375v1.25c-3.1e-4 2.0838 2.083 3.1255 6.25 3.125 4.583 4.7e-4 6.8747-1.8745 6.875-5.625-3.1e-4 -2.0828-1.8753-3.1245-5.625-3.125m-133.75 5-8.125 4.375-0.625 1.25c-1.6e-4 2.9172 1.4578 4.3755 4.375 4.375h1.25c0.41719-0.41562 0.625-0.83281 0.625-1.25l1.875-2.5c0.83281-0.83281 1.8748-1.25 3.125-1.25 5.4164 4.7e-4 16.041 4.1672 31.875 12.5-5.0002-4.9995-15-10.208-30-15.625-1.25-0.41562-2.7086-1.0406-4.375-1.875m118.75 2.5v-0.625h-1.875c-3.7503-0.41562-5.6253 1.4594-5.625 5.625-3.1e-4 4.1672 2.083 6.2505 6.25 6.25 4.583 4.7e-4 6.8747-2.0828 6.875-6.25-3.1e-4 -2.4995-1.8753-4.1662-5.625-5m96.875 10c1.25 4.7e-4 3.5412-0.20781 6.875-0.625 3.333-0.83281 5.4162-1.25 6.25-1.25l8.125 0.625c0.41563 4.7e-4 0.625-0.625 0.625-1.875 0.41563-1.6662-1.0422-2.4995-4.375-2.5-2.5005 4.7e-4 -5.0005 0.625-7.5 1.875l-10 3.75m103.75-4.375c-1.6672 4.7e-4 -2.5005 0.41719-2.5 1.25-4.7e-4 2.0838 1.25 3.1255 3.75 3.125 0.83281 4.7e-4 1.6661-0.41562 2.5-1.25l0.625-1.25c-4.7e-4 -1.25-1.4594-1.8745-4.375-1.875m-394.38 7.5-19.375-0.625-4.375-0.625c-4.5834 4.7e-4 -7.0834 0.83438-7.5 2.5-1.6e-4 2.917 2.0833 5.2088 6.25 6.875l19.375 6.875 13.75 11.875 4.375 4.375 10 19.375 26.25 69.375 17.5 42.5c0.41719 2.5003 1.4578 3.7503 3.125 3.75 0.83281 3.1e-4 1.6664-0.41719 2.5-1.25l4.375-1.875 6.25-2.5 16.25-10c0.83281-0.83281 1.25-1.6664 1.25-2.5-1.6e-4 -1.25-1.25-3.5414-3.75-6.875l-28.125-70.625-5.625 0.625-4.375-2.5-10.625 0.625-3.75-3.125c-2.0834-5.4162-3.1252-9.1662-3.125-11.25-1.6e-4 -5.833 2.4998-9.9995 7.5-12.5l9.375-5 0.625-9.375c0.41719-6.6662 4.5831-12.291 12.5-16.875 7.9164-4.1662 11.875-7.083 11.875-8.75-1.6e-4 -2.9162-2.5002-4.3745-7.5-4.375-2.5002 4.7e-4 -4.3752 0.20938-5.625 0.625-3.3336 0.41719-7.9169 0.83438-13.75 1.25-5.4169 4.7e-4 -12.083 4.7e-4 -20 0h-35.625m330 16.25 5 5.625c2.4995 5.8338 3.7495 10.417 3.75 13.75-4.7e-4 3.3338-1.25 8.1255-3.75 14.375-2.5005 6.2503-3.7505 10.625-3.75 13.125-4.7e-4 -0.41562 0.41563 1.0422 1.25 4.375l3.75 6.875c1.6662 3.3338 4.1662 5.417 7.5 6.25 0.83281-1.6662 1.25-2.9162 1.25-3.75 0.41563-0.83281 0.83281-1.6662 1.25-2.5 7.9162-21.666 14.166-36.041 18.75-43.125 4.1661-7.4995 10.416-12.916 18.75-16.25l22.5-8.75c0.83281-0.83281 1.25-1.6662 1.25-2.5v-1.25l-1.25-1.25-65 1.25-31.875-2.5c-7.0838-0.83281-10.625 0.20938-10.625 3.125-4.7e-4 2.917 6.2495 5.6255 18.75 8.125 1.6662 0.41719 3.5412 1.0422 5.625 1.875 2.0828 0.41719 4.3745 1.4594 6.875 3.125m-244.38-14.375-1.25 3.125c-2.9169 3.7505-6.2502 5.8338-10 6.25-8.3336 5.8338-13.125 14.167-14.375 25h5v-4.375c-0.83437-2.9162 1.0406-6.6662 5.625-11.25 0.41563-0.83281 0.83281-1.25 1.25-1.25 0.41719-0.41562 0.83281-0.83281 1.25-1.25l10-5c3.3331-2.083 4.9998-4.583 5-7.5-1.6e-4 -1.25-0.83437-2.4995-2.5-3.75m105.62 5.625 2.5 1.25v-1.875c0.41563-2.9162-0.20937-4.3745-1.875-4.375-0.83437 4.7e-4 -1.25 0.83438-1.25 2.5-3.1e-4 1.25 0.20781 2.0838 0.625 2.5m218.75-5-1.875 3.75-0.625 1.875-6.25 3.125c-1.6672 0.83438-3.5422 1.667-5.625 2.5-1.6672 0.83438-3.9589 1.667-6.875 2.5-9.5839 3.3338-15.834 7.7088-18.75 13.125l-0.625 1.25-7.5 11.875-3.125 5.625-5 14.375-6.875 19.375 3.75 3.125 1.875-6.25 8.75-21.875 2.5-6.875 5-8.75 1.875-3.75c0.83281-0.83281 2.0828-2.083 3.75-3.75 1.6661-2.083 3.9578-4.7912 6.875-8.125 1.25-1.25 2.7078-2.2912 4.375-3.125l23.125-8.75c2.4995-0.41562 3.7495-1.8745 3.75-4.375-4.7e-4 -1.6662-0.83437-3.958-2.5-6.875m-126.25 1.25-1.875 2.5-2.5 4.375 0.625 6.25-0.625 2.5-1.875 3.75c-2.0838 2.0838-5.2088 2.917-9.375 2.5l-13.125-1.25-3.75 1.25-6.875 2.5c-3.7503 1.25-5.6253 5.6255-5.625 13.125-3.1e-4 4.167 1.8747 6.4588 5.625 6.875-0.83437-4.1662-1.25-6.2495-1.25-6.25-3.1e-4 -7.083 4.583-10.625 13.75-10.625l20 0.625c2.9162 4.7e-4 5.4162-2.083 7.5-6.25 2.4995-4.1662 3.7495-7.9162 3.75-11.25-4.7e-4 -2.9162-1.4594-6.458-4.375-10.625m13.125 2.5c2.4995 5.417 6.2495 8.7505 11.25 10l13.125 3.125 8.75 3.125v-0.625c-4.7e-4 -1.25-2.0838-3.1245-6.25-5.625l-26.875-10m-327.5 1.875c1.6666 3.7505 3.9583 6.2505 6.875 7.5 3.3333 1.25 9.3748 3.3338 18.125 6.25 0.83281 0.41719 1.6666 0.83438 2.5 1.25 0.83281 0.41719 1.8748 0.83438 3.125 1.25-3.7502-4.583-8.3334-7.708-13.75-9.375l-8.75-3.125-8.125-3.75m161.88 11.875 3.125 6.875 1.25 3.125 2.5 6.875 1.25 3.125c1.6664 5.417 2.7081 11.042 3.125 16.875 0.83281 5.8338 1.4578 12.084 1.875 18.75-0.41719 1.25-0.83281 2.292-1.25 3.125-3.1e-4 0.41719-3.1e-4 0.625 0 0.625-3.1e-4 0.83438 1.4578 1.25 4.375 1.25h1.875l0.625-10c0.41719-17.916-4.1669-36.666-13.75-56.25-2.0836-3.7495-3.9586-5.6245-5.625-5.625-2.5003 4.7e-4 -3.7503 1.0422-3.75 3.125-3.1e-4 2.5005 1.4578 5.2088 4.375 8.125m276.25-0.625 0.625 7.5c-4.7e-4 0.41719-4.7e-4 1.667 0 3.75 0.41563 1.667 0.83281 4.167 1.25 7.5 0.41563 1.25 0.625 3.1255 0.625 5.625-4.7e-4 2.917-1.25 9.5838-3.75 20-0.83437 3.3338-1.4594 5.6253-1.875 6.875 2.4995 3.3338 4.1661 5.0003 5 5 2.4995 3.1e-4 4.7911-6.2497 6.875-18.75 0.41563-2.083 0.625-4.1662 0.625-6.25 0.41563-2.4995 0.625-4.9995 0.625-7.5-4.7e-4 -4.9995-0.41719-9.1662-1.25-12.5-1.25-5.4162-1.8755-8.7495-1.875-10v-0.625c-4.7e-4 -2.083-0.625-3.1245-1.875-3.125-0.83438 4.7e-4 -1.4594 0.20938-1.875 0.625l-3.125 1.875m-445 18.75v3.125c-0.41719 2.0838-0.83281 4.167-1.25 6.25-1.6e-4 1.667-1.6e-4 3.1255 0 4.375v4.375c-1.6e-4 2.917 0.20781 5.417 0.625 7.5l-0.625-2.5 1.875 13.125 1.25 5 2.5 8.125c1.6666 1.667 2.4998 3.1253 2.5 4.375-1.6e-4 0.41719-0.41719 1.0422-1.25 1.875-2.0834 1.25-3.1252 2.7088-3.125 4.375-1.6e-4 2.917 1.6666 6.667 5 11.25 5.4166 5.417 8.1248 10.417 8.125 15-1.6e-4 0.41719-0.41719 1.0422-1.25 1.875l-3.125 3.75-9.375-0.625-4.375-5v8.125c4.1666 4.167 8.3333 6.2503 12.5 6.25 4.5833 3.1e-4 7.4998-1.25 8.75-3.75l3.75-10 3.125 1.25 0.625 1.25c0.41719 1.667 1.25 2.5003 2.5 2.5 1.6666 3.1e-4 2.4998-1.8747 2.5-5.625-1.6e-4 -4.9997-2.0834-9.3747-6.25-13.125l-1.875-1.25c-3.7502-2.9164-5.6252-5.833-5.625-8.75-1.6e-4 -1.6662 1.0422-2.4997 3.125-2.5 2.0833 3.1e-4 4.3748 0.625 6.875 1.875l5 4.375 3.125 2.5c4.1666 4.167 9.3748 6.042 15.625 5.625h6.25l1.875-4.375 5-1.875c4.1666-1.6662 6.2498-5.6247 6.25-11.875-1.6e-4 -9.583-4.5834-14.375-13.75-14.375h-1.875c4.5831 3.3338 6.8748 7.292 6.875 11.875l-0.625 3.125c-3.3334 2.5003-5.8334 3.7503-7.5 3.75-0.83281 3.1e-4 -2.0834 3.1e-4 -3.75 0-1.25-0.41562-2.9169-0.83281-5-1.25l-8.75-6.25-4.375-5.625-3.75-3.125-6.875-1.25c-1.25 3.3338-2.5002 5.0003-3.75 5h-1.875l-1.25-0.625c-7.0834-9.583-10.625-20.208-10.625-31.875-1.6e-4 -10.416 1.25-18.333 3.75-23.75 2.4998-5.833 3.7498-9.1662 3.75-10-1.6e-4 -2.083-1.0422-3.1245-3.125-3.125l-1.25 1.25c-5.4167 5.8338-7.7084 12.292-6.875 19.375m433.12 16.25c-5.4172 4.167-11.459 6.2503-18.125 6.25-2.5005-1.6662-3.7505-3.333-3.75-5-4.7e-4 -1.25 0.20781-2.083 0.625-2.5 2.0828-4.583 4.3745-7.083 6.875-7.5l8.125-3.75c2.9161-1.25 4.3745-2.9162 4.375-5l-1.25-7.5-4.375 7.5-5 3.75c-5.0005 2.0838-9.3755 5.2088-13.125 9.375-1.25 3.7505-1.8755 7.7088-1.875 11.875-3.3338 3.3338-4.7922 6.2503-4.375 8.75v4.375l6.25-3.125c1.6661-0.83281 2.9161-1.25 3.75-1.25 0.83281-0.41562 1.6661-0.83281 2.5-1.25l14.375-2.5c10.416-1.6662 15.625-12.291 15.625-31.875-4.7e-4 -1.25-0.41719-3.5412-1.25-6.875l-3.125-6.25-1.25 1.875 2.5 8.125v2.5c-4.7e-4 7.0838-2.5005 13.75-7.5 20m-416.25-32.5-3.125 12.5-0.625 5c0.41719 9.167 2.9166 17.084 7.5 23.75 4.9998 6.2503 10.625 9.3753 16.875 9.375 2.0833 3.1e-4 5.4166-0.625 10-1.875v-5l5-6.875v-1.875l0.625-1.875c-1.6e-4 -2.4995-1.25-5.4162-3.75-8.75-2.0834-3.333-4.3752-4.9995-6.875-5-2.0834 4.7e-4 -4.3752 0.625-6.875 1.875 6.2498 2.0838 9.3748 4.792 9.375 8.125-1.6e-4 6.2503-2.9169 8.9588-8.75 8.125h-3.75l-6.25-3.75c-6.2502-6.2495-9.3752-13.125-9.375-20.625-1.6e-4 -2.083 0.20781-3.5412 0.625-4.375l1.25-6.875-1.875-1.875m306.88 11.875-5 3.125-4.375 5.625 11.875 3.75 3.125 5.625c1.25 3.3338 1.8745 5.6253 1.875 6.875-4.7e-4 0.83438-0.20938 2.0838-0.625 3.75-4.7e-4 1.667-0.20938 3.542-0.625 5.625v9.375l4.375 6.875 2.5 5-3.125 1.875c-2.917 1.667-4.3755 5.6253-4.375 11.875-4.7e-4 2.917 0.20781 5.0003 0.625 6.25l1.875 4.375 1.875 0.625c4.1662-6.6664 10.208-9.9997 18.125-10h2.5l12.5 4.375 9.375 1.25v-1.25l-4.375-1.875 0.625-4.375c7.9162 5.417 15.625 8.1253 23.125 8.125 2.9162 3.1e-4 4.5828-0.83281 5-2.5-3.3338-0.41562-6.4588-0.83281-9.375-1.25-2.5005-0.41719-4.7922-1.0406-6.875-1.875l-8.125-3.125-5.625-2.5-10.625-8.75-1.875-3.75 2.5-0.625 13.125 10.625c6.6662 5.417 17.708 8.1253 33.125 8.125 10.416 3.1e-4 18.333-2.708 23.75-8.125l-4.375 0.625-5 1.875c-3.3339 0.83438-5.8339 1.25-7.5 1.25-6.6672 3.1e-4 -14.584-1.4578-23.75-4.375l-9.375-4.375-8.75-7.5-0.625-1.25c-6.2505-7.9162-9.3755-17.708-9.375-29.375-4.7e-4 -4.1662 0.625-7.2912 1.875-9.375 3.3328-5.833 4.9995-9.1662 5-10-4.7e-4 -1.25-1.4594-1.8745-4.375-1.875-2.5005 4.7e-4 -5.2088 0.83438-8.125 2.5-2.9172 2.917-4.3755 5.6255-4.375 8.125v2.5c0.41562 0.41719 0.625 1.25 0.625 2.5-4.7e-4 1.25 0.20781 2.5005 0.625 3.75h-1.25v-1.875l-1.875 2.5c-0.41719-0.41562-0.625-1.25-0.625-2.5-4.7e-4 -0.83281-0.20938-1.4578-0.625-1.875-1.25-6.2495-3.7505-10.625-7.5-13.125-3.3338-2.4995-6.4588-3.7495-9.375-3.75-1.667 4.7e-4 -2.7088 0.20938-3.125 0.625l-5 1.875m-172.5 3.75 0.625 1.875c-2.5003 0.41719-4.7919 4.3755-6.875 11.875v3.75c3.3331 5.8338 5.8331 8.7503 7.5 8.75 2.0831 3.1e-4 4.3747-0.625 6.875-1.875-6.2503-1.6662-9.3753-5.208-9.375-10.625-3.1e-4 -5.4162 2.9164-8.1245 8.75-8.125 2.4997 4.7e-4 5.8331 2.0838 10 6.25 1.6664 3.7505 2.9164 8.1253 3.75 13.125 1.25 5.0003 2.0831 10.417 2.5 16.25 1.25-3.7497 1.8747-6.6662 1.875-8.75-3.1e-4 -25-7.5003-37.5-22.5-37.5-2.9169 4.7e-4 -4.3753 0.625-4.375 1.875-3.1e-4 -0.41562 0.41719 0.625 1.25 3.125m147.5-1.25h-4.375 1.875l-3.125 0.625c-2.0838 5.417-3.1253 10-3.125 13.75-3.1e-4 6.667 0.83281 13.125 2.5 19.375 3.7497-1.25 5.4162-3.333 5-6.25v-13.125l0.625-6.875 0.625-7.5m-192.5 3.125-3.75 0.625-11.875 4.375c-5.0002 4.5838-7.5002 9.167-7.5 13.75-1.6e-4 4.5838 1.6666 6.8753 5 6.875h1.25l3.125-3.125h3.125c3.3331 3.3338 5.8331 5.0003 7.5 5 1.25 3.1e-4 2.7081-1.4578 4.375-4.375l-3.125-1.25-1.25-2.5c-0.83438-2.4997-1.25-3.5412-1.25-3.125-1.6e-4 -4.583 3.1248-6.8745 9.375-6.875 4.1664 4.7e-4 8.3331 2.0838 12.5 6.25l3.75 4.375 1.25 4.375 1.875 10.625-3.125 16.25v3.75l2.5 5.625h1.25c2.9164-5.833 4.3748-10.416 4.375-13.75-1.6e-4 -2.083-0.625-4.583-1.875-7.5-0.83438-2.9162-1.25-5.208-1.25-6.875-1.6e-4 -1.25 1.6664-2.2912 5-3.125-4.1669-18.75-14.584-28.541-31.25-29.375m3.75 19.375-3.75-4.375v1.875c-1.6e-4 0.83438 1.0406 1.667 3.125 2.5h0.625m208.75-3.125-6.875 8.125-4.375 2.5c-2.5005 2.5003-5.2088 4.167-8.125 5-2.5003 0.83438-6.2503 2.5003-11.25 5l-4.375 1.25c-7.0838 2.0838-12.917 5.417-17.5 10l15.625-5-0.625 1.25-8.125 5 7.5 1.25c2.9162 0.83438 5.4162 1.4594 7.5 1.875l6.875 3.125c0.41562 0.41719 1.8747 0.625 4.375 0.625 3.7495 3.1e-4 8.5412-3.1247 14.375-9.375 2.9162-2.9162 4.3745-4.9997 4.375-6.25-0.83438-0.83281-1.8755-1.25-3.125-1.25l-3.125 0.625v-1.875c5.4162-5.4162 8.1245-9.9997 8.125-13.75-4.7e-4 -0.83281-0.20938-1.8747-0.625-3.125-4.7e-4 -1.25-0.20938-2.9162-0.625-5m-46.875 10c4.1662-0.83281 6.2497-1.25 6.25-1.25 2.4997 3.1e-4 4.7912 1.667 6.875 5l1.875 3.125c1.25-0.41562 1.8747-1.25 1.875-2.5-3.1e-4 -4.9997-2.292-8.7497-6.875-11.25-0.83438-0.83281-2.292-1.25-4.375-1.25-3.3338 3.1e-4 -5.2088 2.7088-5.625 8.125m-160 0-1.25 1.25-2.5 3.75 20.625 53.125 10.625 22.5 3.75-2.5-25-61.25-2.5-8.125-3.75-8.75m315.62 5.625c-8.3339 2.0838-13.125 6.8753-14.375 14.375h4.375c2.0828-5.833 6.0411-8.7497 11.875-8.75 6.2495 3.1e-4 11.25 3.1253 15 9.375l0.625 1.875 3.75 15.625c-0.41719 5.417-2.0839 10.209-5 14.375l-0.625 2.5 3.75 3.125c4.1661-7.9164 6.2495-15.208 6.25-21.875-4.7e-4 -9.1662-2.5005-16.666-7.5-22.5l-2.5-2.5-6.875-4.375-8.75-1.25m-289.38 2.5 0.625 6.25c3.7498 6.2503 7.4997 10 11.25 11.25l1.25 1.25-7.5 3.75c-2.5002 1.25-3.7502 2.5003-3.75 3.75-1.6e-4 2.917 3.9581 4.3753 11.875 4.375 2.9164 3.1e-4 5.4164-0.625 7.5-1.875l16.25-7.5c0.41719-0.41562 2.7081-0.625 6.875-0.625l14.375 0.625c-0.83438-1.25-1.8753-1.8747-3.125-1.875h-1.875l-8.125-3.75 10 1.875 0.625-1.875c-3.1e-4 -0.83281-2.9169-2.083-8.75-3.75-5.8336-2.083-10.625-3.1247-14.375-3.125h-6.875l-15.625-3.75-10.625-5m235 6.25 1.25 1.875c0.83281 2.0838 2.4995 4.167 5 6.25 10.416 6.667 20.833 10 31.25 10 1.6661 3.1e-4 9.9995-2.2912 25-6.875 1.6661-0.41562 2.9161-1.0406 3.75-1.875-4.7e-4 -3.7497-1.0422-6.0412-3.125-6.875l-0.625-0.625c-2.5005 3.1e-4 -5.0005 1.25-7.5 3.75-7.0839 2.0838-12.5 3.542-16.25 4.375-3.7505 0.83438-5.6255 1.25-5.625 1.25h-6.875c-11.25-1.6662-20-5.4162-26.25-11.25m-57.5 26.25 1.875 3.125c0.41562 2.917 1.6662 4.3753 3.75 4.375h1.25c-3.7505-7.9162-5.6255-13.125-5.625-15.625-4.7e-4 -3.7497 2.9162-6.0412 8.75-6.875l0.625-1.875-3.75-1.25c-6.2505 3.1e-4 -9.3755 2.917-9.375 8.75-4.7e-4 2.917 0.83281 6.042 2.5 9.375m-41.875-13.125-5.625 0.625v3.125l-7.5-0.625-0.625 2.5 13.125 3.125 0.625 2.5-12.5-2.5h-6.25v1.875h0.625c3.333-0.83281 4.9997 3.1e-4 5 2.5-3.1e-4 0.83438-0.83438 1.25-2.5 1.25l-1.875-0.625c1.6662 2.917 2.708 5.417 3.125 7.5 0.83281 1.667 1.4578 2.917 1.875 3.75l3.125 13.75 1.875 1.25 2.5 4.375c1.25 2.0836 5.208 3.1253 11.875 3.125 8.333 3.1e-4 12.5-2.2914 12.5-6.875-3.1e-4 -0.41562-0.41719-2.2914-1.25-5.625 3.333 0.41719 5.833 0.83281 7.5 1.25 2.083 3.1e-4 3.5412 3.1e-4 4.375 0 9.583 3.1e-4 15.416-3.5414 17.5-10.625-7.5005 3.1e-4 -15.209-2.4997-23.125-7.5l-3.75-2.5-2.5-3.125 0.625-1.875c2.083-1.25 3.1247-2.2912 3.125-3.125-0.83438-0.83281-2.0838-1.6662-3.75-2.5l-6.25-3.125h-2.5l-9.375-1.875m136.88 17.5c-5.8338 2.0836-8.7505 5.0003-8.75 8.75-4.7e-4 4.167 2.9162 6.2503 8.75 6.25 3.3328 3.1e-4 4.9995-0.625 5-1.875-4.7e-4 -0.83281-0.83438-1.8747-2.5-3.125-1.25-1.25-1.8755-2.4997-1.875-3.75-4.7e-4 -1.25 0.625-2.2914 1.875-3.125l13.75-8.125 5-3.125c2.0828-2.083 3.1245-3.333 3.125-3.75v-1.875l-6.25 4.375c-3.7505 2.917-9.7922 6.042-18.125 9.375m-106.25-11.875-3.125 0.625 3.125 8.125 1.25 2.5c2.083 2.0836 5.208 3.542 9.375 4.375-0.41719-0.83281-1.0422-1.8747-1.875-3.125-0.41719-1.6664-1.0422-3.5414-1.875-5.625l-3.75-6.875-2.5-1.875-0.625 1.875m-135 3.75c-3.3336 1.25-5.8336 3.1253-7.5 5.625l3.125 2.5 2.5 0.625 1.25 1.25-1.875 3.125-6.25 0.625-5.625 1.25c-3.3336 0.83281-5.4169 1.25-6.25 1.25-4.1669 3.1e-4 -6.8752-0.20781-8.125-0.625l0.625 2.5c2.0831 2.917 5.6247 5.8336 10.625 8.75 4.9997 2.5003 9.9997 3.7503 15 3.75h8.75v3.125l-2.5 5 5 1.25h1.25c4.5831 3.1e-4 8.1247-3.1247 10.625-9.375l5.625-13.75c0.83281-2.4997 4.1664-6.0414 10-10.625l-1.875-1.25c-3.7503 0.41719-9.7919 3.542-18.125 9.375l-2.5-1.875 5.625-4.375 8.75-4.375 7.5-1.875-1.875-2.5c-5.8336-2.4997-12.292-3.7497-19.375-3.75-4.1669 3.1e-4 -8.9586 1.4594-14.375 4.375m79.375 9.375v1.25l-0.625 3.125c-2.0836-1.25-3.7503-3.5414-5-6.875l-1.25 0.625 0.625 4.375v1.875l0.625 4.375h-0.625c-1.667-4.1664-3.1253-6.8747-4.375-8.125-3.1e-4 3.1e-4 -0.20781 3.1e-4 -0.625 0-0.41719-0.41719-1.0422-0.83281-1.875-1.25v3.125c0.41719 0.83281 0.83281 2.292 1.25 4.375 0.83281 1.667 1.6664 3.7503 2.5 6.25v6.25c-3.1e-4 0.83438-3.1e-4 2.0836 0 3.75-3.1e-4 1.667-0.20938 3.542-0.625 5.625l-0.625 0.625-1.875-0.625-1.25-0.625v-9.375c0.41562-4.9997-0.625-10.416-3.125-16.25l-3.125-2.5c0.41719 1.25 0.625 3.3336 0.625 6.25v6.25l-1.875-0.625c-0.83438-4.1664-2.917-7.9164-6.25-11.25l4.375-0.625-6.25-0.625-5-0.625c-0.41719-0.41719-1.4578-0.625-3.125-0.625-7.5003 3.1e-4 -11.25 7.0836-11.25 21.25l1.875 5.625c1.25 1.25 2.083 1.8753 2.5 1.875-3.1e-4 3.1e-4 0.625-0.41719 1.875-1.25 1.6664-1.25 2.9164-1.8747 3.75-1.875 1.25 3.1e-4 1.8747 0.41719 1.875 1.25-3.1e-4 -0.41719-0.41719 1.0422-1.25 4.375l1.875 7.5 2.5 2.5 8.75 5 3.75 4.375 1.25 0.625 1.25 3.125 1.25 5.625c13.333-3.3331 20-11.458 20-24.375-3.1e-4 -1.6664-0.20938-2.9164-0.625-3.75l-1.25-8.125 3.75 3.125 1.875 1.875 3.125 2.5c1.25-2.9164 1.8747-5.4164 1.875-7.5v-0.625c-0.83438-9.9997-3.3338-17.708-7.5-23.125-2.0838-2.083-3.3338-3.1247-3.75-3.125-1.25 3.1e-4 -1.8753 0.625-1.875 1.875-3.1e-4 0.83281 0.625 1.8753 1.875 3.125m19.375 182.5 5 5c2.9162 4.1669 5.4162 6.2502 7.5 6.25l0.625-0.625 3.75-8.125 25.625-53.75c3.333-7.0831 7.4995-15.833 12.5-26.25 5.4162-10.416 11.458-22.708 18.125-36.875l10-23.125 17.5-44.375-3.75-1.25c-2.0838-0.83281-4.3755-1.4578-6.875-1.875-2.0838-0.41719-4.5838-0.83281-7.5-1.25-32.917 82.917-59.375 140.21-79.375 171.88-2.5003 4.5834-3.7503 7.7084-3.75 9.375-3.1e-4 2.5002 0.20781 4.1669 0.625 5m157.5-180.62 6.25 7.5 2.5 3.125 5.625 5.625 1.875 3.125c3.7495 6.2503 5.6245 11.667 5.625 16.25-4.7e-4 7.0836-2.7089 12.084-8.125 15l-3.125 0.625-6.875 0.625-0.625 0.625c-0.83438 0.83281-1.25 1.6669-1.25 2.5-4.7e-4 1.6669 1.6661 2.5003 5 2.5h3.75c4.1661 3.1e-4 7.7078-2.0831 10.625-6.25 3.3328-4.5831 4.9995-9.7914 5-15.625-4.7e-4 -9.1664-3.7505-17.916-11.25-26.25l-3.75-4.375c-5.0005-5.4164-7.7089-8.1247-8.125-8.125-1.25 3.1e-4 -2.2922 1.0422-3.125 3.125m-73.75 49.375-68.75 145c0.41562 0.41719 1.4578 0.625 3.125 0.625 0.83281 1.6e-4 1.6662-1.0422 2.5-3.125 2.083-3.7498 4.3747-8.3331 6.875-13.75 2.9162-5.4166 6.0412-11.667 9.375-18.75l3.125-8.125 8.125-15 23.75-50c1.6662-2.9164 3.333-6.4581 5-10.625 2.083-4.5831 4.583-9.7914 7.5-15.625 3.3328-8.3331 6.6662-17.083 10-26.25 3.7495-9.1664 7.7078-18.958 11.875-29.375 0.83281-2.4997 1.25-3.5414 1.25-3.125v-1.25c-0.41719-0.41719-0.83438-0.625-1.25-0.625l-0.625-0.625-1.25 0.625-1.25 1.25-19.375 48.75m-314.38-46.875c10.833 7.0836 23.542 10.625 38.125 10.625h2.5c1.6666 3.1e-4 3.1248-0.20781 4.375-0.625l-1.25-5.625h-7.5c-3.3334 0.83438-6.8752 0.83438-10.625 0-4.5834-1.6664-8.1252-2.4997-10.625-2.5h-6.25c-0.83281-0.41562-2.0834-0.83281-3.75-1.25-1.25-0.41562-2.7084-0.83281-4.375-1.25l-0.625 0.625m288.75 3.75 0.625 4.375 7.5 6.25 1.25 1.875c0.41562-0.83281 0.625-1.4578 0.625-1.875l0.625-0.625c-1.667-1.6664-3.3338-3.1247-5-4.375-1.667-1.6664-3.542-3.5414-5.625-5.625m60 45.625 15 18.75 5.625 6.875 4.375 6.875 1.25 2.5 1.875 4.375 0.625-5.625c-1.25-5.4164-4.1672-11.041-8.75-16.875-0.41719-0.41562-1.0422-1.0406-1.875-1.875-0.41719-0.83281-1.0422-1.6664-1.875-2.5l-9.375-11.875c-0.83438-1.6664-2.0838-3.3331-3.75-5-6.2505-6.6664-9.3755-14.583-9.375-23.75-4.7e-4 -5.833 3.5412-8.7497 10.625-8.75 4.9995 3.1e-4 9.9995 2.5003 15 7.5 1.6661-1.6664 2.4995-3.1247 2.5-4.375-4.7e-4 -0.83281-1.4594-2.083-4.375-3.75-5.8338-3.333-10.625-4.9997-14.375-5-10 3.1e-4 -15 5.2086-15 15.625v1.25l1.875 10.625 10 15m-346.25-42.5 3.75 3.125 16.875 8.125c5.4166 2.5003 8.1248 7.917 8.125 16.25-1.6e-4 10.834-4.3752 15.834-13.125 15l-4.375-0.625-1.875 1.875c4.9998 2.0836 7.7081 3.1253 8.125 3.125 9.9998 3.1e-4 15-6.2497 15-18.75-1.6e-4 -8.333-2.2919-14.375-6.875-18.125-1.25-0.83281-3.5419-1.8747-6.875-3.125-2.9169-1.6664-7.0834-3.333-12.5-5-1.25-0.83281-3.3334-1.4578-6.25-1.875m283.75 1.875c-3.3338 2.5003-5.0005 4.167-5 5-4.7e-4 2.0836 3.1245 5.2086 9.375 9.375 1.6662 1.25 2.9162 1.8753 3.75 1.875h0.625c1.25-2.9164 1.8745-4.583 1.875-5-4.7e-4 -1.6664-1.4594-3.333-4.375-5-0.41719-0.41719-1.0422-0.83281-1.875-1.25-0.83438-0.83281-1.8755-1.8747-3.125-3.125l-1.25-1.875m86.875 7.5c-1.6672 3.3336-2.5005 7.917-2.5 13.75-4.7e-4 3.7503 0.20781 5.8336 0.625 6.25l0.625 0.625c0.41562 0.83438 0.625 1.667 0.625 2.5 0.41562 0.83281 1.0406 1.8753 1.875 3.125l2.5 1.875 3.75-1.875-4.375-10.625v-6.25c-4.7e-4 -4.9997 3.5411-8.5414 10.625-10.625l3.125-1.875c-3.3339-2.083-5.6255-3.1247-6.875-3.125-2.9172 3.1e-4 -6.2505 2.0836-10 6.25m9.375 3.125-1.25 5c12.5-0.41719 18.75-2.708 18.75-6.875-4.7e-4 -2.083-0.83438-3.1247-2.5-3.125h-1.25c-0.83438 0.41719-2.5005 1.4594-5 3.125-2.0839 1.25-4.5839 1.8753-7.5 1.875h-1.25m-123.75 1.875-2.5 3.125-5.625 3.125v5.625l0.625 1.25-5 1.25 0.625 3.75c4.1662 10.417 14.791 15.625 31.875 15.625 2.083 3.1e-4 3.1245-0.625 3.125-1.875-4.7e-4 -1.25-2.917-2.2914-8.75-3.125-3.7505 3.1e-4 -7.5005-1.6664-11.25-5-3.3338-3.7497-5.0003-7.4997-5-11.25-3.1e-4 -6.6664 3.5412-9.9997 10.625-10 0.41562 3.1e-4 3.333 1.0422 8.75 3.125 1.6662 2.917 2.4995 5.2086 2.5 6.875l-0.625 3.75c3.333-2.4997 4.9995-4.9997 5-7.5-4.7e-4 -8.7497-5.6255-12.916-16.875-12.5l-4.375 0.625-3.125 3.125m-140-0.625-3.125 3.75-5 5c-3.7502 3.7503-7.7086 7.0836-11.875 10-3.7502 2.9169-7.7086 5.4169-11.875 7.5-1.6669 0.41719-3.7502 1.4578-6.25 3.125l-14.375 6.25c-15.833 7.5003-28.958 16.25-39.375 26.25l-5 4.375c-1.6669 2.9169-2.9169 5.4169-3.75 7.5-0.83281 1.6669-1.6669 2.9169-2.5 3.75-5.0002 7.5002-8.5419 14.792-10.625 21.875l5 1.25 3.125-6.25c7.4998-16.25 14.792-27.291 21.875-33.125l8.125-6.25c4.9998-4.5831 8.3331-7.0831 10-7.5l18.125-6.25c26.25-9.9997 44.375-23.333 54.375-40l-6.875-1.25m-115.62 1.25c-0.41719 0.41719-0.83281 0.83438-1.25 1.25-1.6e-4 0.41719-0.20781 0.83438-0.625 1.25l-0.625 1.25c-1.6e-4 3.3336 1.6666 5.0003 5 5 2.4998 3.1e-4 3.7498-1.0406 3.75-3.125-1.6e-4 -3.7497-1.8752-5.6247-5.625-5.625h-0.625m389.38 3.75v4.375c-4.7e-4 2.917-1.25 6.4586-3.75 10.625-4.5839 5.0003-8.3339 7.5003-11.25 7.5-5.4172 3.1e-4 -10.625-3.1247-15.625-9.375l-5.625-9.375v5c-0.41719 2.917 0.20781 5.8336 1.875 8.75 4.1662 6.6669 9.9995 10 17.5 10 7.4995 3.1e-4 13.75-4.1664 18.75-12.5 2.0828-4.9997 3.1245-8.333 3.125-10-4.7e-4 -3.7497-0.83438-5.6247-2.5-5.625l-2.5 0.625m-395 5-3.75-3.125-0.625-0.625h-1.25c-2.9167 3.1e-4 -4.3752 1.667-4.375 5-1.6e-4 3.7503 1.25 5.6253 3.75 5.625 1.6666 3.1e-4 3.7498-2.2914 6.25-6.875m-36.25 3.125c-1.25 2.5003-1.8752 4.5836-1.875 6.25-1.6e-4 1.667 0.625 2.5003 1.875 2.5h1.25-1.875l2.5 0.625 1.875-6.25c0.41719-1.25 2.0833-1.8747 5-1.875 2.9166 3.1e-4 4.9998 1.8753 6.25 5.625l2.5 6.25v3.75c-1.6e-4 6.6669-1.4578 12.709-4.375 18.125l-1.25 4.375c3.3333 3.1e-4 5.2083-2.0831 5.625-6.25l3.75-14.375 0.625-3.125c-1.6e-4 -13.333-4.7917-20-14.375-20-2.0834 3.1e-4 -4.5834 1.4578-7.5 4.375m269.38-3.125v1.875c-3.1e-4 4.5836-1.667 8.1253-5 10.625-2.917 2.0836-6.042 3.9586-9.375 5.625-2.5003 2.5003-4.167 6.0419-5 10.625l-0.625 1.875c-3.1e-4 1.25 0.625 2.5003 1.875 3.75 1.6662 2.5003 4.1662 3.9586 7.5 4.375l-2.5 6.25 2.5 0.625c4.1662 0.83281 6.2497 1.25 6.25 1.25 2.083 3.1e-4 4.1662-0.625 6.25-1.875l7.5-6.875c1.25-1.25 2.708-1.8747 4.375-1.875 2.9162 3.1e-4 4.3747 1.4578 4.375 4.375-3.1e-4 2.9169-3.1253 5.2086-9.375 6.875-3.7503 2.0836-6.2503 5.2086-7.5 9.375l3.75 0.625c-1.25 4.5836-1.8753 7.5002-1.875 8.75-3.1e-4 6.2502 3.7497 9.5836 11.25 10-2.5003-4.1664-3.7503-7.2914-3.75-9.375-3.1e-4 -5.4164 2.708-9.5831 8.125-12.5l9.375-6.875c1.25-0.41719 1.8747-1.6664 1.875-3.75v-5.625l16.875-4.375 1.875-5-16.25 1.875-8.75 1.25c1.25-1.6664 1.8747-3.1247 1.875-4.375-3.1e-4 -2.9164-2.292-4.3747-6.875-4.375-2.917 3.1e-4 -6.667 1.6669-11.25 5-5.417 4.1669-9.3753 6.2503-11.875 6.25-5.8338 3.1e-4 -8.7503-2.7081-8.75-8.125-3.1e-4 -4.1664 1.8747-6.8747 5.625-8.125l8.75-1.875c3.333-0.83281 4.9997-3.9581 5-9.375-3.1e-4 -2.083-2.0838-4.3747-6.25-6.875m-103.12 8.75c0.83281 4.1669 4.5831 7.7086 11.25 10.625l1.875 0.625 1.875-0.625 1.25-1.25 6.25-5 5.625-6.25 5-2.5c-0.83438-0.83281-1.4578-1.25-1.875-1.25-2.5003 3.1e-4 -3.9586 0.625-4.375 1.875l-5 4.375c-1.25 1.667-3.9586 2.5003-8.125 2.5-2.5003 3.1e-4 -4.1669-0.41719-5-1.25l-4.375-6.875h-0.625c-1.6669 3.1e-4 -2.9169 1.667-3.75 5m-115-3.75c0.83281 4.5836 2.0831 6.8753 3.75 6.875 1.6666 3.1e-4 2.4998-1.0406 2.5-3.125-1.6e-4 -3.333-1.8752-4.9997-5.625-5l-0.625 1.25m28.75 5c0.41719-0.41719 1.6666-0.625 3.75-0.625 1.25 3.1e-4 2.9166 1.0422 5 3.125l0.625 1.875c-1.6e-4 6.2503-3.7502 12.5-11.25 18.75-1.6669 1.25-3.3334 2.5003-5 3.75-1.25 1.25-2.7084 2.7086-4.375 4.375 2.0831-1.6664 3.9581-2.7081 5.625-3.125 14.167-9.1664 21.25-17.708 21.25-25.625-1.6e-4 -5.833-2.9169-8.7497-8.75-8.75-3.3334 3.1e-4 -5.6252 2.0836-6.875 6.25m121.88-6.25c0.41719 1.25 0.625 3.1253 0.625 5.625-3.1e-4 2.5003-0.20781 4.1669-0.625 5-0.83438 1.6669-1.8753 3.1253-3.125 4.375l-3.75 3.75c-5.8336 2.9169-12.5 4.3753-20 4.375h-5.625l-7.5 0.625 6.875 16.875c1.6664 2.0836 4.7914 3.3336 9.375 3.75 2.0831 0.83438 5.2081 2.5003 9.375 5l1.875 0.625 5.625 7.5 3.125 5v3.125c0.83281 4.5836-0.625 6.8752-4.375 6.875-4.1669 1.6e-4 -6.8753-4.1664-8.125-12.5l-1.25-1.25 1.25 5-0.625 5 0.625 6.25c0.41562 3.7502 2.7081 5.6252 6.875 5.625 3.7497 1.6e-4 6.2497-0.83281 7.5-2.5l0.625-1.25v-11.25l5.625 0.625c0.83281 1.6e-4 1.25-0.625 1.25-1.875l-0.625-3.125-0.625-5.625-5-5.625-0.625-1.25h6.25c-2.917-8.7497-8.3336-12.916-16.25-12.5h-2.5c-1.25 0.41719-3.9586 1.0422-8.125 1.875l-0.625 0.625c-2.0836 3.1e-4 -3.1253-1.25-3.125-3.75-3.1e-4 -4.1664 2.4997-6.0414 7.5-5.625l14.375 3.125h2.5c2.083 3.1e-4 4.583-0.83281 7.5-2.5 3.333-1.6664 4.9997-3.3331 5-5-3.1e-4 -1.25-2.7086-1.8747-8.125-1.875v-1.875c3.7497-3.7497 5.6247-7.2914 5.625-10.625-3.1e-4 -4.583-2.917-8.1247-8.75-10.625m-160 1.25c-3.3334 3.1e-4 -5.0002 1.8753-5 5.625-1.6e-4 3.3336 1.8748 5.0003 5.625 5 3.3331 3.1e-4 4.9998-1.4578 5-4.375-1.6e-4 -4.1664-1.8752-6.2497-5.625-6.25m322.5 5.625c-1.25 2.5003-1.8755 4.3753-1.875 5.625-4.7e-4 -0.41719 3.3328 2.0836 10 7.5l6.25 5 4.375 4.375 4.375 3.75 10.625 10.625 7.5 9.375 1.875 3.125 1.25 0.625c0.83281 3.3336 1.8745 5.0002 3.125 5 1.6661 1.6e-4 2.4995-0.625 2.5-1.875v-1.25c-0.41719-0.41719-0.83438-1.0406-1.25-1.875-0.41719-0.83281-1.0422-1.8747-1.875-3.125-4.7e-4 1.25-0.41719 0.20938-1.25-3.125-3.3339-5.4164-7.2922-10.416-11.875-15l-4.375-4.375-9.375-8.75-2.5-1.875-9.375-8.125-8.125-5.625m-333.12 2.5c-1.6667 0.41719-2.5002 1.4594-2.5 3.125-1.6e-4 3.3336 1.25 5.0003 3.75 5 2.0833 3.1e-4 3.1248-1.0422 3.125-3.125-1.6e-4 -0.41562-0.20781-0.83281-0.625-1.25l-3.75-3.75m118.12 0c-1.25 1.25-1.8753 2.2919-1.875 3.125-3.1e-4 -0.41719 0.41719 0.625 1.25 3.125l1.25 3.125 6.875 16.25c0.83281 1.6669 1.6664 3.3336 2.5 5 0.83281 1.6669 1.4578 3.5419 1.875 5.625l5.625 11.875 5 10 0.625 2.5 11.875 25 6.875 13.75 3.75 6.875 6.25 13.125 2.5 3.75 3.125 6.875 5 8.75c0.83281 1.25 1.6664 3.1252 2.5 5.625 1.25 2.0834 2.708 4.7919 4.375 8.125l4.375 8.75 1.25 1.25 9.375 17.5 3.125 3.75 1.875-4.375-1.25-0.625-35-66.875-53.125-111.88m-5 3.75c-5.0002 3.3336-10.209 6.4586-15.625 9.375-5.4169 2.9169-11.042 5.8336-16.875 8.75 1.6664 2.0836 3.3331 4.7919 5 8.125 1.6664 3.3336 3.5414 7.5003 5.625 12.5l3.125 8.125 8.125 18.125c1.6664 3.7502 3.3331 5.6252 5 5.625 0.41562 1.6e-4 2.4998-0.41719 6.25-1.25 4.1664-1.25 6.4581-1.8748 6.875-1.875-3.1e-4 1.6e-4 0.20781-0.625 0.625-1.875 0.83281-1.25 1.6664-3.1248 2.5-5.625 1.25-3.3331 2.4997-4.9998 3.75-5 1.25 1.6e-4 3.1247 1.4578 5.625 4.375l2.5 3.125 3.125 5.625c2.9164 5.4169 4.3747 12.292 4.375 20.625-3.1e-4 2.5002-0.83438 5.8336-2.5 10-1.25 3.7502-1.8753 6.0419-1.875 6.875 1.25 0.83281 2.4997 1.8752 3.75 3.125 1.6664 0.83281 3.5414 1.8752 5.625 3.125 2.0831 5.4169 3.1247 8.7502 3.125 10-3.1e-4 2.9169-1.8753 6.4584-5.625 10.625l-2.5 0.625c-0.83438 1.6e-4 -1.8753-1.25-3.125-3.75l-3.75-1.25-1.25 2.5 53.75 100.62c1.6664 4.1667 3.333 6.25 5 6.25 1.6664 0 4.7914-3.5416 9.375-10.625l37.5-64.375-1.25-2.5-5-3.125-8.125-7.5c-0.83438 2.0834-1.667 4.1667-2.5 6.25-0.83438 1.6667-1.667 3.1252-2.5 4.375-5.417 11.25-9.167 18.333-11.25 21.25-1.667 1.6667-2.917 2.7084-3.75 3.125-0.83438-0.41719-1.667-0.83281-2.5-1.25-0.41719-0.41719-1.0422-0.83281-1.875-1.25l-3.75-7.5-10-17.5-28.75-56.25-8.75-18.125-16.875-34.375-20.625-48.125m-145.62 16.875v5c-0.41719 3.7503 0.625 6.8753 3.125 9.375l8.75 8.125 3.125 5c1.25 3.3336 1.8748 5.8336 1.875 7.5-1.6e-4 1.6e-4 -0.20781 0.41719-0.625 1.25-1.6e-4 0.83281-0.20781 2.0836-0.625 3.75v4.375l-3.75 10v4.375c2.0833-0.83281 3.7498-3.1248 5-6.875l3.125-8.75c0.41719-1.6664 0.625-3.3331 0.625-5 0.41719-1.6664 0.625-3.5414 0.625-5.625v-5.625c-1.6e-4 -4.5831-2.0834-8.1247-6.25-10.625-4.1667-2.9164-7.2917-6.6664-9.375-11.25l0.625-6.25 8.125-5.625-0.625-7.5h-1.875c-3.7502 3.1e-4 -6.8752 3.3336-9.375 10-0.41719 0.41719-1.25 1.8753-2.5 4.375m44.375-13.125c-2.9167 0.41719-4.3752 1.8753-4.375 4.375-1.6e-4 2.9169 1.4578 4.3753 4.375 4.375 2.4998 3.1e-4 3.7498-1.6664 3.75-5-1.6e-4 -2.9164-1.0422-4.3747-3.125-4.375l-0.625 0.625m-17.5 2.5-2.5 11.875 0.625 1.875 0.625 1.25 3.125 10.625-1.25 20.625-3.75 16.875-4.375 21.875-3.75 33.125v14.375l5-4.375v6.25c-1.6e-4 12.083 1.8748 22.083 5.625 30l1.875 5-3.75 0.625h-0.625l0.625 2.5 3.125 6.875 7.5 10.625c3.3333 3.3334 6.0416 6.6667 8.125 10 2.4998 2.9167 6.0416 4.375 10.625 4.375 0.41719 0 6.6666 5 18.75 15l5 5.625c5.4166 6.25 13.125 9.7917 23.125 10.625 3.3331 0.41719 5.4164 2.0834 6.25 5l0.625-0.625c-2.0836 1.25-3.9586 1.875-5.625 1.875 0.41719 0-1.4578-0.41719-5.625-1.25l-3.125-1.25-6.25-3.125-7.5-4.375-6.875-6.875-3.125-4.375-8.75-8.125-1.875-2.5-7.5-3.75c-1.25 0-3.5419-0.20781-6.875-0.625-2.9167-0.83281-5.2084-1.25-6.875-1.25 0.41719 0-1.0422 0.41719-4.375 1.25 2.4998 3.3334 3.9583 6.6667 4.375 10l-4.375-1.875c-7.5002-2.5-12.5-3.75-15-3.75-7.5002 0-12.5 2.0834-15 6.25v0.625c2.0833 2.0834 3.9583 5 5.625 8.75-3.3334 2.0834-5.2084 4.5834-5.625 7.5l-1.25 4.375v3.75c2.4998 0.83281 3.7498 1.875 3.75 3.125v1.25c-0.41719 1.25-0.83281 2.2917-1.25 3.125-1.6e-4 0.41719-1.6e-4 0.625 0 0.625-1.6e-4 0.41719 3.3333 2.7083 10 6.875h6.25c2.9166 0.83281 5.4166 0.20781 7.5-1.875l13.125-8.125c1.6666-1.25 3.9581-1.875 6.875-1.875 4.9998 0 10.417 1.25 16.25 3.75v1.25c-0.41719 0.83281-1.25 1.875-2.5 3.125l-10.625-1.875-5 2.5 6.875 0.625 7.5 3.125h7.5c2.4998-0.41719 3.7498-1.6667 3.75-3.75-1.6e-4 -2.9167-2.9169-5.625-8.75-8.125-7.5002-2.5-13.75-3.75-18.75-3.75-1.25 0-2.7084 0.41719-4.375 1.25-1.6667 0.83281-5.2084 2.2917-10.625 4.375l-2.5 1.25h-8.75c-2.9167-1.6666-3.9584-3.75-3.125-6.25v-3.125c0.83281-1.25 1.8748-2.2916 3.125-3.125 1.6666-1.25 3.3333-2.2916 5-3.125l7.5-1.875c3.3333-0.83281 5.2083-1.25 5.625-1.25h1.25l8.125 3.75 6.875 2.5 16.875 7.5 19.375 6.25c5.4166 1.6667 12.708 2.5 21.875 2.5h1.875l28.75-1.875c1.25-0.41719 1.8748 0 1.875 1.25l-0.625 3.125 6.875-2.5 5-3.125c1.25-0.83281 6.4581-2.0833 15.625-3.75 5.4164-1.25 9.9997-1.875 13.75-1.875h5c6.6664 0.41719 11.25 0.83281 13.75 1.25h7.5c-5.0003-7.9166-11.25-11.875-18.75-11.875-1.6669 0-4.1669 1.0422-7.5 3.125l-0.625 0.625 16.875 1.25 0.625 1.875-11.25 0.625c-2.0836-0.41719-4.5836-0.625-7.5-0.625h-5.625c-4.1669 0-9.5836 0.625-16.25 1.875l0.625-1.875c27.083-5.4166 40.416-15.625 40-30.625v-5.625c-1.6669-7.9166-5.4169-11.875-11.25-11.875-10.834 1.6e-4 -16.25 3.9584-16.25 11.875-3.1e-4 1.6667 0.20781 2.7084 0.625 3.125 1.6664-4.1666 4.1664-6.25 7.5-6.25 7.0831 0 10.625 2.9167 10.625 8.75-3.1e-4 1.6667-0.83438 3.9584-2.5 6.875-6.2503 7.0834-12.292 11.875-18.125 14.375l-2.5 0.625-6.25 2.5c-0.41719 0.41719-1.4578 0.625-3.125 0.625-1.6669 0-2.5003-0.625-2.5-1.875-3.1e-4 -0.83281 2.0831-2.0833 6.25-3.75 2.9164-1.25 4.3747-3.3333 4.375-6.25-3.1e-4 -2.9166-2.0836-4.1666-6.25-3.75h-4.375l-2.5 0.625c-1.25 7.5-4.5836 11.458-10 11.875-2.0836-0.83281-3.1252-1.4578-3.125-1.875-1.6e-4 0 0.20781-0.20781 0.625-0.625 0.41562-0.83281 1.0406-1.875 1.875-3.125h-19.375l-1.25-2.5 12.5-0.625 6.25-1.25c13.333-2.5 20-7.0833 20-13.75-3.1e-4 -3.3333-3.1253-6.0416-9.375-8.125l-10.625-3.75-1.875-1.25-6.25-2.5-8.125-3.75-4.375-3.75c-3.7502-5.4166-5.6252-10.625-5.625-15.625-1.6e-4 -7.4998 3.1248-11.25 9.375-11.25 0.41719 1.6e-4 1.25 0.20781 2.5 0.625 1.25 1.6e-4 2.9164 0.20781 5 0.625 2.4998 3.7502 3.7498 6.6667 3.75 8.75-0.41719 2.9167-2.0836 5.4167-5 7.5v1.875c9.1664-3.7498 13.75-9.5833 13.75-17.5-1.6e-4 -3.7498-2.2919-7.0833-6.875-10-4.1669-3.3333-8.3336-4.9998-12.5-5-1.25 1.6e-4 -4.5836 1.0422-10 3.125-4.5836 5.8334-6.8752 9.7917-6.875 11.875l0.625 5-3.125 1.25-9.375-4.375v11.25l1.875 5.625 3.125 6.25 1.875 1.875-0.625 1.875c-1.25-0.41719-3.1252-0.625-5.625-0.625-0.83438 1.6e-4 -1.25 0.20781-1.25 0.625 0.41719 0.83281 0.625 1.6667 0.625 2.5 0.41562 0.83281 1.0406 1.6667 1.875 2.5l0.625 1.875c5.8331 7.0834 11.666 10.417 17.5 10h0.625l10.625-1.875h3.125c2.4998-0.41719 3.7498 0.41719 3.75 2.5-1.6e-4 2.5-1.8752 3.9584-5.625 4.375-3.3336 0.41719-5.8336 0.625-7.5 0.625h-4.375l-5.625-1.875-6.25-0.625-6.875-2.5-13.75-6.875-5-3.75-11.25-10c-9.5834-15.833-14.375-28.958-14.375-39.375-1.6e-4 -9.5831 2.7081-17.5 8.125-23.75 5.4166-6.6666 11.875-9.9998 19.375-10 2.9166 1.6e-4 4.9998 0.20781 6.25 0.625 3.7498 3.3334 5.6248 6.2502 5.625 8.75-1.6e-4 0.83281-1.0422 2.9169-3.125 6.25l-3.75 5.625-10.625 3.125-3.75 3.75-4.375 5.625c-2.0834 5.0002-3.1252 8.1252-3.125 9.375v4.375c-1.6e-4 1.6667 0.20781 3.1252 0.625 4.375l0.625 2.5c3.3331 8.3334 8.7498 12.708 16.25 13.125 5.4166-2.9166 8.1248-6.0416 8.125-9.375-1.6e-4 -2.4998-1.4578-4.5833-4.375-6.25 0.41719 0.83281 0.625 2.0834 0.625 3.75-1.6e-4 0.83281-0.41719 1.8752-1.25 3.125-0.83281 1.25-2.2919 1.8752-4.375 1.875-5.4169-1.6666-8.1252-5.4166-8.125-11.25-1.6e-4 -9.9998 3.3331-14.792 10-14.375h10c4.5831 1.6e-4 7.4998-3.3331 8.75-10l5-1.25v3.75c1.6664-0.41719 2.9164-2.2916 3.75-5.625l0.625-8.75c0.41719-4.1666-1.6669-8.5416-6.25-13.125l-5.625-4.375v-2.5c3.7498-2.4998 5.6248-5.6248 5.625-9.375v-0.625l-9.375-0.625-6.875-2.5c-0.41719-0.41719-1.0422-0.625-1.875-0.625h-0.625c-3.7502 1.6e-4 -5.8334 0.20938-6.25 0.625-2.5002 2.5002-5.4169 4.5834-8.75 6.25l-0.625-0.625c0.41719-1.25 0.625-3.1248 0.625-5.625v-3.75c-1.6e-4 -5.8331-1.25-9.1664-3.75-10l-7.5 4.375c-6.2502 5.8336-11.25 17.708-15 35.625l-1.875 8.75c-2.0834 7.0834-4.1667 10.625-6.25 10.625-1.6e-4 1.6e-4 -1.25-0.41719-3.75-1.25v-6.25l10-23.75c2.9166-5.8331 4.3748-14.375 4.375-25.625l-0.625-3.125c-0.41719-2.0831-0.83281-3.5414-1.25-4.375-1.6e-4 -0.83281-1.6e-4 -1.25 0-1.25h-1.25c-2.5002 2.0836-3.9584 4.7919-4.375 8.125-0.41719 2.9169-1.25 4.3752-2.5 4.375-1.6667 1.6e-4 -2.7084-0.20781-3.125-0.625-0.41719-1.25-0.625-3.1248-0.625-5.625-1.6e-4 -0.41719 0.41719-2.2914 1.25-5.625l11.875-20.625 1.875-6.875c1.25-4.1664 1.8748-8.1247 1.875-11.875-1.6e-4 -4.9997-1.8752-10.625-5.625-16.875-1.25 5.4169-2.9167 8.1253-5 8.125h-0.625c-1.6667-0.41719-2.5002-1.0406-2.5-1.875l-4.375-15-5.625-6.875m203.12 3.75 2.5 65.625c-3.1e-4 1.6669 1.6664 2.5002 5 2.5 2.083 1.6e-4 3.1247-0.20781 3.125-0.625v-67.5l-1.875-0.625-4.375 1.875-4.375-1.25m129.38-0.625-1.25 3.125 20.625 9.375h1.25l-8.75-6.875-1.875-0.625-4.375-2.5-5.625-2.5m-304.38 1.875h-0.625l-0.625 1.25c-1.6e-4 4.5836 1.6666 6.8753 5 6.875 2.4998 3.1e-4 3.7498-1.8747 3.75-5.625-1.6e-4 -1.6664-2.5002-2.4997-7.5-2.5m393.12 146.25c-2.5005 3.7502-3.7505 6.4584-3.75 8.125 0.41562 0.41719 0.625 1.0422 0.625 1.875-4.7e-4 0.83281 0.20781 1.4578 0.625 1.875l3.75-5 6.875-12.5c1.25-1.6666 1.8745-2.9166 1.875-3.75-4.7e-4 -1.6666-1.0422-2.4998-3.125-2.5-4.1672 1.6e-4 -6.4589 3.9584-6.875 11.875m0-133.75c0.41562 1.25 0.625 3.3336 0.625 6.25-4.7e-4 2.5003-0.83438 5.6253-2.5 9.375-2.9172 8.3336-4.3755 16.042-4.375 23.125-4.7e-4 2.9169 0.625 6.4586 1.875 10.625l3.75 6.25c2.4995 2.5002 4.5828 3.7502 6.25 3.75 4.5828 1.6e-4 6.8744-3.3331 6.875-10-6.3e-4 -2.4998-0.20938-3.9581-0.625-4.375l-1.875-3.75-2.5-6.875-1.25 5.625 0.625 3.125c1.25 2.0836 1.8745 3.7502 1.875 5-4.7e-4 1.25-0.625 2.0836-1.875 2.5l-1.25 0.625c-5.8339-0.83281-8.7505-5.2081-8.75-13.125-4.7e-4 -2.0831-4.7e-4 -3.9581 0-5.625 0.41562-2.0831 0.83281-4.1664 1.25-6.25 1.25-2.9164 4.3745-11.041 9.375-24.375 0.41562-0.41562 0.625-1.25 0.625-2.5-4.7e-4 -3.7497-2.2922-7.2914-6.875-10.625l-12.5 0.625c-0.83438 1.6669-1.8755 3.1253-3.125 4.375-1.25 1.25-2.2922 2.5003-3.125 3.75-4.7e-4 3.1e-4 -1.25-0.41719-3.75-1.25l-1.25-0.625-0.625 1.25c-2.5005 3.3336-3.7505 7.5003-3.75 12.5-4.7e-4 1.6669-4.7e-4 3.3336 0 5 0.41562 1.6669 0.83281 3.5419 1.25 5.625l1.875 7.5-3.125 0.625-1.875-1.25c-3.3339 4.5836-5.0005 9.7919-5 15.625-4.7e-4 5.4169 1.25 11.459 3.75 18.125l5.625 11.25 1.875 3.125v2.5c2.9161 2.9169 4.3745 7.2919 4.375 13.125-1.6672 5.4169-4.1672 8.1252-7.5 8.125-1.25 1.6e-4 -1.8755-0.625-1.875-1.875l0.625-12.5-3.125-6.25c-1.6672-3.3331-3.9589-6.0414-6.875-8.125-2.5005-2.0831-5.4172-4.7914-8.75-8.125l-5-7.5-1.875 1.25c-1.25 2.5002-1.8755 4.5836-1.875 6.25l0.625 4.375c-0.83438 1.25-1.4594 1.8752-1.875 1.875-0.83438-0.83281-1.8755-1.4578-3.125-1.875l-3.75-1.25-1.25-0.625-4.375-0.625 1.875 4.375c1.6662 5.4169 2.4995 10.208 2.5 14.375v10c1.6662 1.6669 3.5412 3.5419 5.625 5.625 2.4995 2.0834 5.4162 4.5834 8.75 7.5l2.5 3.125c3.3328 7.9169 4.9995 14.167 5 18.75-4.7e-4 7.0834-2.2922 14.167-6.875 21.25l-11.875 16.875-16.25 12.5-6.875 3.125c-3.3338 1.6667-6.0422 3.125-8.125 4.375-2.0838 0.83281-3.9588 1.4578-5.625 1.875l-12.5 3.125c-4.5838 1.25-7.7088 1.875-9.375 1.875-2.0838 0-3.1255-1.6666-3.125-5 1.6662-0.83281 3.1245-1.25 4.375-1.25 1.6662-0.41719 2.9162-0.83281 3.75-1.25 10.833-2.0833 16.875-4.7916 18.125-8.125l2.5-6.875-2.5 1.25-5.625 1.25v-1.875c4.583-5.8333 7.4995-11.458 8.75-16.875l-0.625-6.875c-0.41719-0.83281-1.4594-2.0833-3.125-3.75-1.25 1.6e-4 -2.7088 1.4578-4.375 4.375l-8.75-5c-2.917-1.6666-6.2505-2.4998-10-2.5-2.5005 1.6e-4 -5.8338 1.4578-10 4.375-2.917 4.1667-4.3755 7.5002-4.375 10-4.7e-4 5.4167 3.333 8.3334 10 8.75-2.0838-4.1666-3.3338-6.4583-3.75-6.875-4.7e-4 -6.6666 3.1245-9.9998 9.375-10 0.83281 1.6e-4 3.7495 1.0422 8.75 3.125l1.875 6.25c-0.83438 5.0002-3.542 9.7917-8.125 14.375h-1.25c-0.83438 0.83281-1.667 1.4578-2.5 1.875-0.83438 1.6e-4 -1.667 0.20781-2.5 0.625-2.0838 0.83281-4.5838 1.6667-7.5 2.5-2.5005 0.83281-5.2088 1.4578-8.125 1.875-2.917 1.6667-5.6255 3.75-8.125 6.25-2.5003 2.5-3.542 4.7917-3.125 6.875v5.625c2.9162 6.25 8.5412 9.375 16.875 9.375 0.83281 0 3.333-0.41719 7.5-1.25l5-1.25 8.125-0.625v1.25l-8.75 5-7.5 1.25-0.625 5.625h-4.375l-6.25-1.25-1.25-3.75v-3.75l-5.625-1.875-1.25-1.875-2.5-1.25h-1.25c-2.5003 0-3.3338 1.875-2.5 5.625v4.375l1.25 0.625c-0.41719-0.83281-0.625-2.5-0.625-5-3.1e-4 -1.25 1.6662-2.2916 5-3.125l-1.875 10.625h-6.875l-10.625-3.125-5-3.75-2.5-3.75c-2.917-4.1666-4.3753-7.2916-4.375-9.375-3.1e-4 -4.5833 1.8747-6.875 5.625-6.875 2.083 0 4.7912 1.0422 8.125 3.125l1.25 6.875c2.4997-1.6666 3.7497-3.3333 3.75-5-3.1e-4 -10.417-4.3753-15.625-13.125-15.625-10 1.6e-4 -15 5.4167-15 16.25-3.1e-4 16.667 13.541 26.042 40.625 28.125h3.125c2.083 0 3.7495 0.20781 5 0.625l0.625 1.875h-3.125l-13.125-0.625-5.625-1.25c-3.1e-4 0.41719-3.9588 0.83281-11.875 1.25l-6.875 0.625c3.333-2.5 6.6662-3.9583 10-4.375l-6.25-2.5c-7.917 0.41719-14.375 4.375-19.375 11.875l18.75-0.625c15-0.41719 29.375 2.9167 43.125 10l1.25-5.625 30.625-1.875c2.083-0.41719 3.5412-0.625 4.375-0.625 1.25-0.41719 2.083-0.625 2.5-0.625 5.4162-0.83281 9.5828-1.6666 12.5-2.5 3.3328-0.83281 5.8328-1.4578 7.5-1.875l19.375-7.5c7.0828-2.9166 14.791-4.375 23.125-4.375 5.8328 0 12.291 1.4578 19.375 4.375 2.4995 3.3334 3.7495 5.8334 3.75 7.5-4.7e-4 3.3334-2.9172 5-8.75 5-1.6672 0-3.7505-0.625-6.25-1.875l-3.125-1.875-1.875-1.25c-3.3339-4.5833-6.2505-6.875-8.75-6.875 0.41562 0-1.4594 0.41719-5.625 1.25l4.375 6.875c9.1661 7.9167 16.25 11.875 21.25 11.875 3.3328 0 7.9161-1.875 13.75-5.625 0.41562-3.3333 1.8745-5.8333 4.375-7.5l6.25 5h1.875c0.41562-1.25 0.625-3.125 0.625-5.625-4.7e-4 -2.0833-1.0422-5-3.125-8.75-2.0839-3.75-5.0005-6.875-8.75-9.375v-0.625l0.625-2.5c-4.7e-4 0 1.0406-0.625 3.125-1.875 2.4995-1.6666 3.7495-2.9166 3.75-3.75-4.7e-4 -0.83281-1.4594-2.0833-4.375-3.75l-9.375-5h-5c0.41562 0-1.0422 0.41719-4.375 1.25l-6.25 1.875-4.375 3.125-1.875-0.625v-3.125c-4.7e-4 -1.6666-0.20938-2.9166-0.625-3.75-3.3339-0.83281-4.7922-1.25-4.375-1.25-1.25 0-2.9172 0.20781-5 0.625-1.6672 0.41719-2.5005 1.875-2.5 4.375l3.75 1.25-0.625 1.875-6.25 1.875 1.875 0.625-3.75 1.875-5.625-1.875c-2.9172 2.9167-4.5838 4.7917-5 5.625-9.5838 7.0834-16.459 10.625-20.625 10.625-2.5005 0-3.7505-1.0422-3.75-3.125-4.7e-4 -1.6666 10.416-7.9166 31.25-18.75 0.83281-0.41719 1.8745-1.4578 3.125-3.125 1.6662-1.6666 3.3328-3.3333 5-5 1.6662-2.0833 3.3328-3.75 5-5 2.0828-1.6666 3.7495-2.4998 5-2.5 0.41562 0.41719 1.25 0.625 2.5 0.625l-5 6.875h3.125l6.875-7.5 6.25-8.75c8.7495-11.667 14.375-24.583 16.875-38.75l0.625-4.375 1.25-11.875 1.25-5.625v-3.75c-4.7e-4 -15-2.0839-29.583-6.25-43.75l-6.875-25c-1.25-4.1664-1.8755-8.7498-1.875-13.75-4.7e-4 -14.583 3.5411-21.875 10.625-21.875 1.25 3.1e-4 2.9161 0.625 5 1.875m-69.375 8.125 3.75 1.875 9.375 6.875 5 5.625 9.375 12.5v1.25c0.83281 0.83281 1.6661 1.4578 2.5 1.875 0.83281 0.41719 1.4578 0.83281 1.875 1.25 0.83281-0.83281 1.25-2.4998 1.25-5l-0.625-3.125-12.5-16.25-8.125-6.875c-3.3338-2.0831-6.4588-3.9581-9.375-5.625-2.9172-1.6664-5.8338-3.3331-8.75-5l-5-1.875-3.75-2.5c-2.5005-1.25-4.3755-1.8747-5.625-1.875-2.5005 3.1e-4 -3.7505 1.4578-3.75 4.375-4.7e-4 1.6669 4.5828 3.9586 13.75 6.875 2.9162 0.83437 6.4578 2.7086 10.625 5.625m-307.5 14.375c-3.7502 2.5002-6.6669 6.6669-8.75 12.5l-7.5 18.125c-1.6669 3.3336-2.5002 6.0419-2.5 8.125-1.6e-4 1.25 0.41719 1.8752 1.25 1.875 1.25 1.6e-4 2.2916-0.625 3.125-1.875l3.75-2.5c-0.41719-0.41719-0.625-1.25-0.625-2.5-1.6e-4 -2.0831 1.25-5.4164 3.75-10l6.875-10c3.3331-4.9998 6.4581-9.1664 9.375-12.5 2.9166-3.3331 5.8331-6.0414 8.75-8.125 3.3331-2.4997 6.8748-4.3747 10.625-5.625 4.1664-1.25 9.1664-2.4997 15-3.75-1.25-5.8331-3.1252-8.7497-5.625-8.75-0.83438 3.1e-4 -2.5002 0.625-5 1.875l-8.125 3.125c-9.5834 4.1669-17.708 10.834-24.375 20m151.25-25v0.625c-3.1e-4 5.0003-1.8753 7.5003-5.625 7.5-2.0836 3.1e-4 -4.5836-0.83281-7.5-2.5 1.25 3.7503 3.1247 6.6669 5.625 8.75 0.83281 0.41719 2.083 0.625 3.75 0.625 4.9997 3.1e-4 7.4997-2.7081 7.5-8.125-3.1e-4 -2.0831-1.25-4.3747-3.75-6.875m-155 5-6.25 6.875 3.125-2.5 3.75-3.75-0.625-0.625m176.88 8.75c1.25 3.7503 2.9164 5.6253 5 5.625 1.6664 3.1e-4 4.1662-0.625 7.5-1.875l2.5-3.75-9.375 0.625c-1.25 3.1e-4 -2.0836-1.25-2.5-3.75-3.1e-4 -2.4997-0.41719-3.7497-1.25-3.75l-0.625 0.625-1.25 6.25m62.5-2.5-3.75 3.125c-3.7503 2.0836-6.8753 6.8753-9.375 14.375h1.25c3.7497 1.6e-4 7.2912-4.1664 10.625-12.5-4.7e-4 3.1e-4 0.41562-1.6664 1.25-5m36.875 13.125-0.625 2.5 5.625 1.25-1.25 6.875 1.875 3.75c3.7495 5.0002 8.1245 7.5002 13.125 7.5 0.83281 1.6e-4 3.7495-1.25 8.75-3.75 4.1662-0.83281 7.2912-1.25 9.375-1.25 3.3328 1.6e-4 6.0412 1.25 8.125 3.75-4.7e-4 7.5002-2.5005 11.25-7.5 11.25h-2.5c1.25 2.0836 2.9162 3.1252 5 3.125 7.9162 1.6e-4 11.875-3.5414 11.875-10.625-4.7e-4 -8.7498-4.5838-13.125-13.75-13.125-1.6672 1.6e-4 -4.7922 0.83437-9.375 2.5-4.1672 1.25-7.2922 1.8752-9.375 1.875-5.4172 1.6e-4 -8.1255-3.1248-8.125-9.375-4.7e-4 -5.8331 4.5828-8.7497 13.75-8.75 7.0828 3.1e-4 15.416 3.5419 25 10.625l3.75 4.375 1.25 1.875 2.5 3.125 3.75 5 2.5 4.375 3.75 3.75c-4.7e-4 -3.3331-1.25-6.2498-3.75-8.75-9.1672-16.666-19.167-26.875-30-30.625-5.4172-2.0831-10-3.1247-13.75-3.125-4.1672 3.1e-4 -8.3338 1.0422-12.5 3.125-3.7505 2.0836-6.2505 5.0003-7.5 8.75m-76.875-10-5.625 6.25-1.25 1.25c-0.41719 0.41719-1.25 1.4594-2.5 3.125-3.3338 4.1669-5.417 7.7086-6.25 10.625l-5 19.375h3.75c1.6662 1.6e-4 2.4997-0.83281 2.5-2.5v-1.875c-3.1e-4 -2.0831 0.83281-4.7914 2.5-8.125l3.75-8.75 8.125-12.5v-6.875m-171.25 8.125c-5.0002 2.0836-10 5.2086-15 9.375l-5 6.25-7.5 11.25-4.375 9.375c1.25-0.41719 2.0831-0.625 2.5-0.625 0.83281-0.41562 1.25-0.625 1.25-0.625l1.25-3.75c2.9166-6.2498 8.7498-13.125 17.5-20.625 4.1666-4.1664 8.7498-6.2498 13.75-6.25 2.9164 1.6e-4 6.0414 0.83438 9.375 2.5 2.9164 4.1669 4.3748 7.5002 4.375 10-1.6e-4 5.8336-3.1252 8.9586-9.375 9.375l-18.125 0.625c-5.0002 1.6e-4 -7.0834 2.5002-6.25 7.5v5c0.41719 1.6669 2.2916 3.1252 5.625 4.375l-0.625-3.75c-0.41719-5.4164 2.4998-8.5414 8.75-9.375l16.875-1.25c9.1664-0.41719 13.75-5.6248 13.75-15.625-1.6e-4 -7.9164-3.7502-13.125-11.25-15.625l-6.25-2.5-1.875 0.625-9.375 3.75m-90-3.125c-2.5002 7.0836-3.7502 13.334-3.75 18.75 2.0833 8.7502 3.7498 16.042 5 21.875 1.25 5.8336 2.2916 10.209 3.125 13.125 0.41719 1.25 0.625 3.1252 0.625 5.625-1.6e-4 3.3334-1.8752 5.2084-5.625 5.625l-1.25 0.625-1.25-1.25c-1.6e-4 -0.41719-0.20781-0.83281-0.625-1.25l-0.625-4.375 0.625-2.5 1.875-10.625-1.875 0.625-0.625 3.125-1.25 5v5l-0.625-1.875v4.375l0.625 5c1.25 4.1669 3.1248 6.2502 5.625 6.25 4.9998 1.6e-4 7.4998-4.7916 7.5-14.375-1.6e-4 -2.9164-0.20781-4.7914-0.625-5.625l-6.25-23.75c-1.25-3.7498-1.8752-7.4998-1.875-11.25-1.6e-4 -4.9998 1.25-10.625 3.75-16.875l-2.5-1.25m206.88 6.25v8.75l2.5 4.375 2.5 5c0.83281 2.5002 1.6664 5.0002 2.5 7.5 1.25 2.0836 3.5414 3.3336 6.875 3.75-0.83438-10.833-5.6253-20.625-14.375-29.375m33.75 6.875-1.25 3.75 3.125-2.5-1.875-1.25m-20.625 1.25c-0.83281 1.6e-4 -1.25 0.625-1.25 1.875-3.1e-4 1.25 0.83281 1.8752 2.5 1.875 1.25 1.6e-4 1.8747-0.625 1.875-1.875-3.1e-4 -1.25-0.83438-1.8748-2.5-1.875h-0.625m36.25 4.375c-1.25 2.5002-1.8753 4.3752-1.875 5.625-3.1e-4 0.83281 0.41562 2.0836 1.25 3.75 0.83281 1.6669 1.25 3.1252 1.25 4.375-3.1e-4 1.6669-1.4594 3.3336-4.375 5-4.5838 2.5002-10.417 3.7502-17.5 3.75-5.0003 1.6e-4 -7.917-0.20781-8.75-0.625l-10-1.875-3.75-1.25-3.125-3.125-1.875-1.25c-0.83438-0.41719-1.4578-1.6664-1.875-3.75-3.1e-4 -0.83281 0.20781-1.8748 0.625-3.125 0.83281-1.6664 1.25-2.7081 1.25-3.125-3.1e-4 -1.25-0.625-1.8748-1.875-1.875-1.25 1.6e-4 -2.0836 0.20938-2.5 0.625-2.5003 3.3336-3.7503 7.0836-3.75 11.25 5.4164 8.7502 15.416 13.125 30 13.125 25 1.6e-4 37.5-5.4164 37.5-16.25-3.1e-4 -4.1664-3.542-7.9164-10.625-11.25m-100.62 1.875c-3.3336 6.2502-8.1253 10.417-14.375 12.5-5.0002 1.6e-4 -9.7919 2.2919-14.375 6.875l-1.875 4.375 0.625-0.625-8.125-1.875c-2.0836-0.41719-3.9586-0.625-5.625-0.625-1.25-0.41719-2.2919-0.625-3.125-0.625-5.0002 1.6e-4 -7.5002 1.4594-7.5 4.375-1.6e-4 1.25 1.4578 2.5002 4.375 3.75l3.125 8.75 1.25 6.875 0.625 11.875c-1.6e-4 3.7502 1.0422 6.6669 3.125 8.75l3.75-1.25v4.375c-1.6e-4 2.0834 1.0406 4.7919 3.125 8.125l1.875 1.25-1.875-6.875 3.75-0.625 1.875 5.625c0.83281 2.9169 2.0831 5.2084 3.75 6.875l0.625 2.5 5.625 4.375c-5.4169-10.833-8.1252-19.167-8.125-25-1.6e-4 -4.1666 1.25-8.1248 3.75-11.875l1.875 2.5-2.5 10.625c0.41719 2.5002 1.0406 5.4169 1.875 8.75 1.25 2.9169 2.7081 6.0419 4.375 9.375 2.0831 2.9169 4.1664 5.6252 6.25 8.125 2.4997 2.0834 5.4164 3.3334 8.75 3.75l11.25 2.5 2.5 0.625 5-1.875c-0.41719-1.6666-1.25-2.4998-2.5-2.5h-3.75c-1.25 0.83281-3.7503 0.20781-7.5-1.875l-3.75-1.25-8.125-5.625-2.5-3.75h2.5c0.41719 0.41719 2.4997 1.8752 6.25 4.375 1.6664 1.6669 6.6664 3.1252 15 4.375l-1.875-5.625-6.25-1.875-4.375-4.375c-0.83438-4.1666-1.25-6.4581-1.25-6.875-3.1e-4 -5.4166 2.9164-8.1248 8.75-8.125 2.0831 1.6e-4 4.7914 0.625 8.125 1.875 2.4997-0.41719 3.7497-1.6666 3.75-3.75-3.1e-4 -3.7498-3.1253-7.9166-9.375-12.5h-0.625l-8.125 1.875h1.875-3.125v-1.875c-3.1e-4 -0.41719 1.25-1.6666 3.75-3.75 4.9997-3.7498 7.4997-10.416 7.5-20-3.1e-4 -8.7498-3.3336-17.083-10-25m123.12 3.75c0.83281 4.1669 1.25 6.2502 1.25 6.25-3.1e-4 2.0836-0.83438 4.5836-2.5 7.5l-9.375 4.375c1.6662 0.41719 2.9162 0.83437 3.75 1.25 1.25 1.6e-4 2.2912 1.6e-4 3.125 0 3.333 1.6e-4 5.833-1.8748 7.5-5.625 1.6662-3.7498 2.4997-6.4581 2.5-8.125-3.1e-4 -2.4998-2.0838-4.3748-6.25-5.625m59.375 0.625-8.75 1.25c-2.917 2.9169-4.3755 5.6252-4.375 8.125-4.7e-4 -0.41719 0.41562 1.0422 1.25 4.375l1.25 3.125-1.875 1.25 1.25-0.625c-2.5005 2.0836-4.3755 3.3336-5.625 3.75-5.417 2.9169-8.1255 7.7086-8.125 14.375-4.7e-4 2.9169 0.83281 6.0419 2.5 9.375l3.75 4.375c1.6662 1.6669 3.7495 2.5002 6.25 2.5 2.4995 1.6e-4 4.3745-0.20781 5.625-0.625-2.917-5.8331-4.3755-10.417-4.375-13.75-4.7e-4 -11.666 6.0412-17.5 18.125-17.5 3.333 1.6e-4 7.2912 1.25 11.875 3.75l3.125 3.75c3.7495 5.8334 5.6245 11.667 5.625 17.5-4.7e-4 3.3334-1.8755 8.7502-5.625 16.25l-3.125 5.625v0.625c-4.7e-4 2.5002 0.83281 3.7502 2.5 3.75 2.9162 1.6e-4 5.6245-2.4998 8.125-7.5 4.5828-10.417 6.8745-18.125 6.875-23.125-4.7e-4 -11.666-3.7505-21.041-11.25-28.125l-8.125-5.625-8.75-5-6.875-1.25-1.25-0.625m-128.12 21.875 1.875 4.375-3.75 4.375c-0.83281 2.0836-1.667 2.7084-2.5 1.875l-2.5-0.625-3.75-5-1.25-1.25v6.875c2.4997 4.5834 5.208 6.8752 8.125 6.875 3.7497 1.6e-4 5.6247-3.3331 5.625-10v-5.625c-3.1e-4 -0.41719-0.625-1.0422-1.875-1.875m43.125 20 1.25 1.25c2.9162 2.9169 5.4162 4.3752 7.5 4.375 4.583 1.6e-4 6.8747-1.8748 6.875-5.625-3.1e-4 -2.0831-0.20938-3.5416-0.625-4.375-2.5003 2.5002-4.5838 3.7502-6.25 3.75-5.0003 1.6e-4 -7.7088-2.4998-8.125-7.5-0.83438-7.4998-1.667-11.25-2.5-11.25-1.25 1.6e-4 -1.8753 1.6669-1.875 5-3.1e-4 3.3336 0.41562 6.2502 1.25 8.75 0.83281 2.0834 1.6662 3.9584 2.5 5.625m-35.625-17.5-1.25 19.375c-1.667 3.7502-2.917 6.6669-3.75 8.75-0.41719 1.6669-0.625 2.5002-0.625 2.5l0.625 3.75 1.25 1.25 1.25 0.625 3.125-5.625c3.333-9.1666 4.9997-17.5 5-25-3.1e-4 -4.1664-0.83438-6.0414-2.5-5.625h-3.125m25.625 0h-1.25c-1.25 1.6e-4 -1.8753 0.625-1.875 1.875-3.1e-4 1.25-3.1e-4 3.1252 0 5.625 0.41719 2.0834 0.83281 4.7919 1.25 8.125 0.41719 5.0002 4.1664 13.125 11.25 24.375v0.625l3.125 4.375v0.625l5.625 6.875 2.5 3.125c11.666 10.417 26.458 15.625 44.375 15.625 6.6662 1.6e-4 15.416-1.25 26.25-3.75l10.625-6.25c-2.0838-3.3331-3.7505-4.9998-5-5h-1.875l-3.75 2.5c-9.5838 4.1667-18.542 6.2502-26.875 6.25-8.3338 1.6e-4 -18.125-2.4998-29.375-7.5l-1.875-0.625-5.625-5-1.875-1.25-3.125-2.5c-0.83438-1.25-1.8753-2.7081-3.125-4.375-1.25-2.0831-2.7088-4.1666-4.375-6.25l-3.125-3.75c-4.5838-5.4166-7.0838-11.667-7.5-18.75l-1.25-8.75-0.625-6.25h-2.5m-13.125 0.625-0.625 68.125 5.625 8.125 0.625-4.375-0.625-71.25-5-0.625m121.88 0-1.875 1.25 3.125-1.25c-10 4.5836-15.834 11.458-17.5 20.625l7.5-1.25 1.25 1.875-0.625-1.875c0.41562 0.41719 0.625 1.0422 0.625 1.875-4.7e-4 0.83281-0.83438 1.8752-2.5 3.125-4.167 4.1669-6.2505 8.7502-6.25 13.75-4.7e-4 3.7502 0.83281 7.0834 2.5 10l5 5.625 6.875 3.75c-4.7e-4 -2.4998 0.41562-3.7498 1.25-3.75l2.5 0.625 8.75 3.75 13.75-7.5 6.875 1.25c1.6662 1.6669 2.4995 3.1252 2.5 4.375l-0.625 3.125-1.25 2.5-3.75 3.75-5 3.75c-2.0838 1.6667-3.9588 3.3334-5.625 5-1.6672 1.6667-3.3338 3.3334-5 5-4.1672 4.1667-6.2505 8.7502-6.25 13.75-4.7e-4 5.0002 1.8745 7.5002 5.625 7.5 2.0828 1.6e-4 4.5828-0.83281 7.5-2.5-5.8338-1.25-8.7505-3.7498-8.75-7.5-4.7e-4 -3.7498 1.6662-6.6666 5-8.75l17.5-11.875c4.1662-2.9166 6.6662-7.7083 7.5-14.375v-1.25c-4.7e-4 -0.83281-1.0422-3.7498-3.125-8.75l-3.75-3.125c-1.6672-0.41719-3.1255-0.625-4.375-0.625-0.83438-0.41719-1.6672-0.625-2.5-0.625-0.41719 1.6e-4 -2.2922 1.0422-5.625 3.125l-2.5 3.75c-3.3338 2.0834-6.4588 3.1252-9.375 3.125l-8.125-5.625c-2.9172-4.1666-4.3755-7.2916-4.375-9.375-4.7e-4 -5.8331 3.9578-10.208 11.875-13.125l0.625-6.25c0.41562-5.4166-2.0838-10.416-7.5-15l-1.875-1.875m95 11.25 3.125 0.625 0.625-1.875c-4.7e-4 -0.83281-0.625-1.25-1.875-1.25h-0.625l-1.25 2.5m2.5 11.875c-1.6672 1.6e-4 -2.5005 1.25-2.5 3.75-4.7e-4 1.6669 0.83281 2.5002 2.5 2.5 2.0828 1.6e-4 3.1245-0.83281 3.125-2.5l-0.625-1.25c-0.41719-1.6666-1.25-2.4998-2.5-2.5m-205 8.125c-3.1e-4 1.6e-4 1.0406 3.5419 3.125 10.625l1.875 3.125 8.125 11.25 5.625 6.25 9.375 6.25 9.375 6.875 4.375 3.75c4.1662 4.1667 6.0412 8.3334 5.625 12.5v4.375l-5 5c-5.8338-0.83281-8.7503-3.5416-8.75-8.125l0.625-3.75-4.375 2.5c-0.41719 1.6667-0.83438 2.9167-1.25 3.75-3.1e-4 0.83281-3.1e-4 1.6667 0 2.5-3.1e-4 1.6667 1.4578 4.3752 4.375 8.125 2.9162 3.3334 5.6247 5.0002 8.125 5 4.9997 1.6e-4 9.1662-4.1666 12.5-12.5l3.125 1.25 1.25 1.25c0.41562-2.0833 0.625-3.7498 0.625-5 0.41562-1.25 0.625-2.0833 0.625-2.5-4.7e-4 -3.7498-1.4594-7.7083-4.375-11.875l-11.875-10-10-5.625-7.5-3.75-6.875-5-0.625-1.25-18.125-25m73.75 1.25-5 2.5-4.375 1.875-1.25 0.625-1.875 0.625c-2.0838 1.6e-4 -3.7505-1.8748-5-5.625-2.0838 2.0834-3.1253 4.1669-3.125 6.25v1.25c1.25 2.5002 2.708 3.9584 4.375 4.375l5.625-0.625 3.75-2.5c2.4995-0.83281 3.958-1.25 4.375-1.25 4.9995 1.6e-4 7.4995 1.6669 7.5 5-4.7e-4 1.6669-1.25 3.9584-3.75 6.875-5.8338 3.3334-10.209 5.0002-13.125 5-0.83438 1.6e-4 -6.4588-1.0422-16.875-3.125l-0.625 3.125c8.333 1.6669 15 2.5002 20 2.5 15 1.6e-4 22.5-5.6248 22.5-16.875-4.7e-4 -1.6666-1.0422-3.7498-3.125-6.25-2.0838-2.9166-4.167-4.3748-6.25-4.375l-3.75 0.625m130.62 7.5c-1.6672 1.25-2.5005 2.5002-2.5 3.75-4.7e-4 2.0834 0.83281 3.7502 2.5 5h1.25c2.4995 1.6e-4 3.7495-2.0831 3.75-6.25l-0.625-1.25-4.375-1.25m-444.38 4.375c-1.6667 2.9169-2.5002 6.0419-2.5 9.375-1.6e-4 0.83281-1.6e-4 1.8752 0 3.125 0.41719 1.25 0.83281 2.9169 1.25 5l-6.25 3.75c-2.0834 3.3334-3.1252 5.6252-3.125 6.875v4.375l2.5 5.625 10 16.875v3.125c-1.6e-4 4.5834-1.6667 6.8752-5 6.875-0.41719 1.6e-4 -2.2917-0.41719-5.625-1.25l-0.625 1.25c-1.6e-4 2.9167 2.0833 4.375 6.25 4.375 4.9998 0 7.4998-2.0833 7.5-6.25v-1.875c-1.6e-4 -1.6666-0.20781-3.1248-0.625-4.375l-0.625-5.625c-1.6e-4 -0.83281-0.41719-2.0833-1.25-3.75-0.83281-2.0833-1.8752-3.9583-3.125-5.625-1.25-2.0833-2.2917-3.9583-3.125-5.625-0.83281-1.6666-1.25-2.7083-1.25-3.125-1.6e-4 -0.41719 0.41719-1.0422 1.25-1.875l1.25-0.625c2.0833 0.41719 4.1666 2.2917 6.25 5.625l2.5 7.5 5.625 10.625c3.3333 5.8334 7.4998 10 12.5 12.5l-3.75-5c-2.9167-4.1666-5.8334-8.7498-8.75-13.75-2.5002-5.4166-4.7917-11.667-6.875-18.75-2.0834-7.0833-3.1252-11.042-3.125-11.875l0.625-1.25v-10.625c-1.6e-4 -2.4998-0.625-4.3748-1.875-5.625m6.25 5v12.5l1.25 6.875 2.5 8.125 1.25 4.375 2.5 1.875c-0.41719-1.6666-0.83281-2.9166-1.25-3.75-1.6e-4 -0.83281-1.6e-4 -1.6666 0-2.5-0.83281-3.3333-1.6667-6.6666-2.5-10-0.83281-3.3333-1.6667-6.6666-2.5-10l-1.25-7.5m327.5 20.625c1.6662 1.6e-4 3.958-0.41719 6.875-1.25 3.333-0.83281 5.8328-1.25 7.5-1.25-0.41719 1.6e-4 1.0406 0.41719 4.375 1.25l0.625 1.25c0.41562 0.83281 0.625 2.0834 0.625 3.75-4.7e-4 -1.25-0.41719-0.20781-1.25 3.125 5.4162-0.41719 8.1245-2.7083 8.125-6.875-4.7e-4 -5.4166-3.1255-8.1248-9.375-8.125-5.0005 1.6e-4 -10.834 2.7084-17.5 8.125m-168.75 22.5c-2.9169 2.9167-5.8336 4.3752-8.75 4.375-5.8336 1.6e-4 -8.7503-2.4998-8.75-7.5-3.1e-4 -7.9166 6.8747-13.125 20.625-15.625l0.625-1.875h-3.75c-5.0003 0.41719-10.417 2.0834-16.25 5-5.8336 2.9167-8.7503 7.2917-8.75 13.125-3.1e-4 9.5834 4.5831 14.375 13.75 14.375 6.2497 1.6e-4 9.9997-3.9583 11.25-11.875m101.25-19.375-7.5 13.125-33.125 55-6.875 8.125c1.6664 1.25 2.9164 1.875 3.75 1.875 1.25 0 4.9997-5 11.25-15l3.75-5 8.75-15.625 21.25-35.625c0.41562-1.25 0.625-2.0833 0.625-2.5 0.41562-0.83281 0.625-1.25 0.625-1.25l-0.625-2.5-1.875-0.625m166.88 14.375-1.875 1.25-21.25 29.375 7.5-6.25 9.375-10.625c3.3328-3.3333 5.8328-4.9998 7.5-5 1.25 1.6e-4 2.4995 0.83281 3.75 2.5 1.6661 1.6667 2.4995 2.9167 2.5 3.75-4.7e-4 2.5002-1.6672 5.4167-5 8.75v1.875c8.7495-2.9166 12.708-8.9583 11.875-18.125v-3.125c-2.0839-4.5833-4.3755-6.8748-6.875-6.875l-2.5 0.625-5 1.875m-211.88 68.75-0.625 3.75c-0.83438 1.6667-2.0836 2.7084-3.75 3.125l-10.625 3.125c-0.83438 0.83281-1.25 1.6667-1.25 2.5-3.1e-4 2.5 2.083 3.75 6.25 3.75h1.875l6.875-3.75c0.83281-0.41719 1.4578-0.625 1.875-0.625 0.41562-0.41719 0.625-0.625 0.625-0.625l3.125-6.875c1.25-1.6666 1.8747-2.9166 1.875-3.75l-1.875-1.875-1.25-0.625c-1.667 0-2.7086 0.625-3.125 1.875m134.38 7.5-6.875 1.875v1.25c4.1662 4.1667 9.1662 6.25 15 6.25 4.5828 0 7.7078-0.83281 9.375-2.5 7.0828-4.5833 11.25-6.4583 12.5-5.625l5 2.5v3.75h1.25c1.6662 0 2.4995-1.25 2.5-3.75-4.7e-4 -4.5833-3.5422-6.875-10.625-6.875-2.5005 0-5.8338 1.0422-10 3.125-4.1672 2.0833-6.8755 3.125-8.125 3.125-1.25 0-2.5005-0.625-3.75-1.875-1.25-1.25-2.2922-1.875-3.125-1.875-0.41719 0.41719-1.4594 0.625-3.125 0.625m-270-445.62c-0.41719 0.83437-0.625 1.8755-0.625 3.125v0.625c-2.5002 4.7e-4 -3.7502-1.0406-3.75-3.125v-1.875l4.375 1.25m8.75 1.25-2.5 1.875c-1.25-0.83281-2.2919-1.8745-3.125-3.125-1.6e-4 -0.83281 0.625-1.25 1.875-1.25 2.0831 4.7e-4 3.3331 0.83437 3.75 2.5m-23.75-1.25c0.41719-0.41563 1.6666-0.625 3.75-0.625 1.6666 4.7e-4 2.4998 0.83437 2.5 2.5-1.6e-4 1.25-0.625 1.8755-1.875 1.875 1.25 4.7e-4 0.41719-0.625-2.5-1.875l-1.875-1.875m-2.5 3.75-4.375 3.75-2.5-2.5 1.25-2.5c-1.6e-4 -1.25 0.625-1.8745 1.875-1.875l3.75 3.125m313.75-2.5c-4.7e-4 4.7e-4 -4.7e-4 0.20938 0 0.625 0.41562 0.41719 0.83281 1.0422 1.25 1.875-4.7e-4 0.83437-1.0422 1.25-3.125 1.25-1.25 4.7e-4 -1.8755-0.625-1.875-1.875-4.7e-4 -1.6662 0.625-2.4995 1.875-2.5l1.875 0.625m-22.5 0.625h0.625c1.25 4.7e-4 1.8745 0.41719 1.875 1.25-4.7e-4 1.25-0.41719 1.8755-1.25 1.875l-1.875-0.625 0.625-2.5m6.25 0h3.125v3.125h-3.75l0.625-3.125m-78.125 3.125c-1.25 1.6672-4.167 2.9172-8.75 3.75l-7.5 1.25c1.6662-3.7495 4.7912-5.6245 9.375-5.625h0.625l1.875 0.625h4.375m-280 10v-1.25c0.83281-0.41562 1.6666-0.625 2.5-0.625 0.83281-0.41562 2.0833-1.0406 3.75-1.875-1.6e-4 4.7e-4 -1.6e-4 4.7e-4 0 0 0.41719 4.7e-4 1.0422-0.20781 1.875-0.625 0.41719-0.41562 0.83281-0.625 1.25-0.625 0.41719 4.7e-4 0.625 0.20938 0.625 0.625-1.6e-4 2.5005-3.3334 3.9588-10 4.375m200 14.375 3.125 0.625 1.875 3.75 0.625 2.5 1.875 3.125 3.75 13.75 1.25 14.375v1.25c-0.83438-0.41562-1.667-0.625-2.5-0.625-0.41719-0.41562-0.625-0.625-0.625-0.625v-7.5l-1.875-8.75-4.375-15.625-3.125-6.25m28.75 0-3.125 8.125-1.875 8.125 3.125-5.625 2.5 0.625v6.875l-0.625 6.25 1.25 5 2.5 16.25-3.75-10.625c-0.83438-2.083-1.667-4.583-2.5-7.5-0.83438-3.333-1.4578-6.8745-1.875-10.625v17.5l0.625 1.875 0.625 2.5h-2.5l-3.125-5.625 0.625-6.25-0.625-11.875c-3.1e-4 -5.4162 2.9164-10.416 8.75-15m99.375 66.25-1.875-2.5 2.5-3.125 1.25-0.625 1.875 1.25v4.375l-3.75 0.625m-86.875-6.25 0.625 9.375h1.875v-6.25l1.875-0.625c0.41562 1.25 0.625 3.3338 0.625 6.25-3.1e-4 5.8338-2.7088 13.334-8.125 22.5-1.25-0.41562-1.8753-1.25-1.875-2.5-3.1e-4 -0.41562 0.83281-2.083 2.5-5 1.6662-2.9162 2.708-5.208 3.125-6.875l0.625-5-1.25 0.625c-3.1e-4 5.8338-1.8753 9.3753-5.625 10.625-0.41719-0.41562-0.625-1.25-0.625-2.5-3.1e-4 -0.41562 0.625-2.2912 1.875-5.625 1.6662-3.7497 2.2912-7.9162 1.875-12.5l2.5-2.5m93.75 8.75 3.125 0.625c0.41562 1.667 0.20781 2.917-0.625 3.75-1.25 0.83438-3.3338 0.625-6.25-0.625l1.25-3.75h2.5m-143.75-5 0.625 10.625 1.875 5 11.25 17.5-13.75-11.875c-2.5003-6.2497-3.7503-11.666-3.75-16.25-3.1e-4 -3.333 0.625-4.9997 1.875-5h1.875m145.62 14.375c1.6662 0.83438 2.7078 1.4594 3.125 1.875 0.83281 3.1e-4 1.25 3.1e-4 1.25 0-4.7e-4 -0.41562 0.20781-0.41562 0.625 0l-0.625 2.5-1.875 1.25h-1.25c-0.41719-0.41562-0.83438-0.625-1.25-0.625-4.7e-4 3.1e-4 -0.20938 3.1e-4 -0.625 0-4.7e-4 -0.41562-0.41719-0.83281-1.25-1.25v-1.875c-4.7e-4 -1.6662 0.625-2.2912 1.875-1.875m-121.25 11.25-1.875-0.625c-1.25-0.41562-1.8753-1.25-1.875-2.5-3.1e-4 -0.83281 0.20781-1.4578 0.625-1.875l8.125 1.25 7.5-4.375v2.5c-3.1e-4 4.5838-2.917 6.4588-8.75 5.625h-3.75m11.875 2.5c2.4997 0.83438 0.20781 2.292-6.875 4.375-3.3336 2.0838-5.417 1.25-6.25-2.5l-1.875-1.875 8.75 1.25 3.125-1.25h3.125m-214.38 3.125-6.875-1.25h-3.125l-3.125 5-1.875 1.875h1.875c-1.6667-0.41562-2.5002-1.25-2.5-2.5-1.6e-4 -1.25 1.25-3.1247 3.75-5.625 0.83281-0.83281 1.4578-1.25 1.875-1.25l10 3.75m145 81.875v1.875l-0.625 2.5c-3.1e-4 4.1669 0.20781 6.2503 0.625 6.25-3.3336 3.1e-4 -5.0003-1.6664-5-5-3.1e-4 -3.7497 1.0406-5.6247 3.125-5.625h1.875m113.75 3.125 2.5 1.875c0.41562 0.83281 0.625 3.3336 0.625 7.5-3.1e-4 -7.4997 1.0406-10.208 3.125-8.125-3.7503-3.7497-7.5003-4.7914-11.25-3.125l5 1.875m-87.5 11.25-2.5 0.625-3.125 0.625c-2.0836-1.25-3.3336-1.8747-3.75-1.875h-3.125l-7.5-0.625c-3.1e-4 -1.25 3.1247-1.8747 9.375-1.875l10.625 3.125m-158.75 22.5c1.25-2.9164 1.8748-4.9998 1.875-6.25v-4.375c-1.6e-4 -4.9997 0.41719-7.4997 1.25-7.5 1.25 3.1e-4 1.8748 1.6669 1.875 5v1.875l-0.625 6.25c-1.6e-4 3.3336-1.4578 5.0002-4.375 5m378.75 13.125c1.25 1.6e-4 2.0828 0.20938 2.5 0.625l0.625 3.75c-4.7e-4 0.41719 0.41562 1.8752 1.25 4.375l9.375 12.5c-4.1672-3.3331-7.5005-6.4581-10-9.375-2.5005-3.3331-3.7505-7.2914-3.75-11.875m-3.75 8.75 3.75 4.375 3.125 7.5 0.625 1.875 5.625 6.875 6.25 11.25c-1.25 5.8334-2.0839 8.7502-2.5 8.75-0.41719-0.41719-0.625-3.3331-0.625-8.75-0.83438-1.25-1.4594-2.0831-1.875-2.5-0.41719-0.83281-0.625-1.25-0.625-1.25l-2.5-2.5-1.25-1.875v-1.875l-2.5-2.5c-0.83438-1.6664-2.0839-3.9581-3.75-6.875l-2.5-6.25-1.25-6.25m-260.62 8.75 2.5 3.125-3.75 4.375v-3.125l1.25-4.375m-128.75 10 6.25 1.25c0.83281-0.41562 1.8748-0.625 3.125-0.625 2.4998 1.6e-4 3.7498 0.20938 3.75 0.625 0.83281 1.25-0.83281 2.7086-5 4.375-0.41719 0.41719-2.5002-0.41719-6.25-2.5l-1.875-3.125m125.62 0.625-1.25 5.625-3.125-4.375 4.375-1.25m-4.375 5c-0.41719 1.25-0.625 2.7084-0.625 4.375v1.25c-2.5002 1.6e-4 -3.7502-1.4578-3.75-4.375-1.6e-4 -1.25 0.625-1.8748 1.875-1.875l2.5 0.625m199.38 4.375 3.75-4.375 4.375-1.25-2.5 5-5.625 0.625m-314.38 0 6.25-2.5c-0.83281 3.3334-1.8752 5.0002-3.125 5-1.6667 0.41719-2.9167 0.83281-3.75 1.25-0.41719 1.6e-4 -0.83281 1.6e-4 -1.25 0l-2.5-3.125c-0.83281 1.6e-4 -1.25-1.25-1.25-3.75l5.625 3.125m106.88 2.5h0.625c1.6664 1.6e-4 2.4998 0.625 2.5 1.875-1.6e-4 2.9169-0.20781 4.3752-0.625 4.375-1.6669 1.6e-4 -2.9169-1.6666-3.75-5l1.25-1.25m-82.5-12.5c0.41719 0.41719-0.41719 5.6252-2.5 15.625-0.41719 0.83281-1.0422 2.0834-1.875 3.75-0.41719 1.25-1.25 3.3334-2.5 6.25v-6.875c0.41719-4.1666 0.83281-6.2498 1.25-6.25l5.625-12.5m344.38 21.875 1.875 3.125-0.625 1.875-3.75-0.625 1.875 2.5 2.5 3.125c-0.83438 1.25-1.4594 1.8752-1.875 1.875-1.25 1.6e-4 -2.7088-1.25-4.375-3.75l-1.25-1.25-3.125-2.5-4.375-3.125 1.25-1.25 3.125 0.625 10 3.75-3.125-0.625-5-3.75-1.25-1.25c-4.7e-4 -4.1666-0.20938-6.4581-0.625-6.875 4.5828 5.8334 7.4995 8.5419 8.75 8.125m-330-0.625 11.25-1.25c0.41719-0.41719-2.2919-0.625-8.125-0.625-4.5834 1.6e-4 -8.9584 1.8752-13.125 5.625-1.25 0.83281-2.7084 2.2919-4.375 4.375-1.6669 2.0834-3.3334 3.9584-5 5.625h-0.625l-4.375 6.25 5.625-1.25 6.25-11.25c-1.6e-4 1.25 4.1666-1.25 12.5-7.5m360 6.875c2.0828-0.83281 1.0406 2.5002-3.125 10-0.41719 0.41719-1.8755 0.625-4.375 0.625-1.25 1.6e-4 -2.7089-0.625-4.375-1.875l-1.875-2.5 4.375 0.625c2.0828 1.6e-4 4.5828-2.0831 7.5-6.25l1.875-0.625m1.875 11.875c-4.7e-4 0.83281-0.83438 2.0834-2.5 3.75l-5 1.25-2.5-3.125 10-1.875m0 7.5-1.875 1.25c-2.0839 2.0834-3.5422 3.1252-4.375 3.125-4.7e-4 1.6e-4 -0.20938 1.6e-4 -0.625 0-0.41719-0.41719-1.0422-0.83281-1.875-1.25 2.4995-2.4998 4.5828-3.7498 6.25-3.75 0.41562 0.41719 1.25 0.625 2.5 0.625m-403.12 5 0.625 1.25c0.83281 0.83281 1.6666 1.25 2.5 1.25h2.5l1.875-2.5v-1.875l2.5 0.625c0.41719 1.6e-4 0.625 0.41719 0.625 1.25-1.6e-4 4.1669-2.5002 6.2502-7.5 6.25-3.7502 1.6e-4 -5.6252-1.6666-5.625-5-1.6e-4 -0.83281 0.20781-1.25 0.625-1.25h1.875m11.875 9.375 0.625 1.875-2.5 2.5-2.5 1.25h-4.375l-0.625-0.625-3.125-3.75 1.875-1.25 4.375 1.25h2.5l3.75-1.25m367.5 7.5-6.25 11.875-5 6.875-3.75 3.75-6.25 8.75-3.125-0.625c9.1662-9.9998 14.583-17.083 16.25-21.25l2.5-6.25 3.125-6.25 1.25-12.5 1.25 15.625m-384.38-1.875h1.25l0.625 2.5 1.25 2.5 1.875 1.875v3.125l2.5 10.625c-5.4167-5.4166-7.9167-11.875-7.5-19.375v-1.25m380.62 17.5v1.25c-2.9172 7.9167-5.8338 11.875-8.75 11.875 0.41562 1.6e-4 0.625-0.625 0.625-1.875l1.875-2.5 0.625-3.125 3.125-6.875 2.5 1.25m-346.88 6.875 1.25 3.125h0.625l2.5 3.125 2.5 1.875c1.25 0.83281 2.2916 1.8752 3.125 3.125l-5-0.625-4.375-5 3.125 4.375-0.625 1.875-0.625 0.625-2.5-3.75-4.375-3.125c0.83281-0.41719 1.4578-0.625 1.875-0.625l0.625-0.625c0.41719 1.6e-4 1.0422 0.625 1.875 1.875v-2.5c-1.6669-0.41719-2.5002-0.83281-2.5-1.25-1.6e-4 -1.6666 0.20781-2.4998 0.625-2.5h1.875m79.375 24.375 2.5 3.75c-2.5002 3.3334-3.9586 4.7917-4.375 4.375-0.83438 0-0.83438-1.0422 0-3.125v-1.875c-1.6e-4 -2.0833 0.41719-3.125 1.25-3.125h0.625m15 0.625h1.875c1.25 0.83281 1.8747 1.6667 1.875 2.5-0.41719 0.41719-0.83438 1.0422-1.25 1.875-0.41719 0.41719-1.0422 1.25-1.875 2.5v1.25l-0.625-8.125m148.12 0 0.625 6.875 1.25 1.25 0.625 2.5-3.125-0.625 1.875 0.625-3.125-1.25c-0.83438-4.1666-1.25-6.25-1.25-6.25-3.1e-4 -2.0833 0.83281-3.125 2.5-3.125h0.625m-153.12 0 2.5-0.625-0.625 5.625v1.875c-0.41719-0.41719-1.0422-0.625-1.875-0.625h1.875l-1.875-0.625v-5.625m171.88 1.25 1.25 4.375-1.25 2.5 0.625-1.25-4.375-1.875v-1.25l-0.625-0.625c-4.7e-4 -1.25 0.83281-1.875 2.5-1.875h1.875m-11.875 1.25-0.625 3.75 1.25 3.125-0.625-0.625-3.75-0.625-0.625-2.5c-4.7e-4 -2.5 0.625-3.75 1.875-3.75l2.5 0.625m-262.5 4.375c5.8331 1.6667 11.875 5.2084 18.125 10.625l-3.75 1.875-1.25-0.625-2.5-1.875 1.25 7.5-4.375-4.375c-4.5834-2.0833-6.8752-3.9583-6.875-5.625 0.41719-0.41719 0.625-0.83281 0.625-1.25l1.25-1.25c-2.0834-1.25-3.1252-2.2916-3.125-3.125l0.625-1.875m-24.375 6.25-10.625-0.625c0.41719-2.5 2.0833-3.75 5-3.75 4.1666 0 6.2498 1.0422 6.25 3.125-0.41719 0.41719-0.625 0.83281-0.625 1.25h-1.875 1.875m136.25 3.75c3.7497 0.83281 5.6247 2.0834 5.625 3.75-3.1e-4 1.25-1.0422 1.875-3.125 1.875-0.41719 0-1.0422-1.0422-1.875-3.125l-0.625-2.5m201.25 7.5c0.83281 3.3334 1.25 5 1.25 5-4.7e-4 0.83281-0.20938 1.25-0.625 1.25l-3.125-0.625-0.625-3.75 0.625-0.625h1.875l0.625-0.625v-0.625m-6.875 3.125 0.625 3.75 1.25 1.25v0.625c-3.3338-0.83281-5.0005-1.6666-5-2.5l0.625-1.875 2.5-1.25m-243.12 10.625 0.625-3.125 2.5-0.625h1.875l1.25 1.25c-1.6e-4 2.5-0.625 3.75-1.875 3.75l-0.625 1.875h-3.125l-0.625-3.125m8.75 0 2.5 1.875-5 4.375 2.5-6.25"
         fill="#8f0005"
         id="path13" />
    </g>
  </g>
</svg>
