<?xml version="1.0" encoding="UTF-8" standalone="no"?>
<svg
   xmlns:dc="http://purl.org/dc/elements/1.1/"
   xmlns:cc="http://creativecommons.org/ns#"
   xmlns:rdf="http://www.w3.org/1999/02/22-rdf-syntax-ns#"
   xmlns:svg="http://www.w3.org/2000/svg"
   xmlns="http://www.w3.org/2000/svg"
   xmlns:sodipodi="http://sodipodi.sourceforge.net/DTD/sodipodi-0.dtd"
   xmlns:inkscape="http://www.inkscape.org/namespaces/inkscape"
   version="1.1"
   viewBox="0 0 500 500"
   id="svg19"
   sodipodi:docname="william-morris-letter-h.svg"
   inkscape:version="1.0.2 (1.0.2+r75+1)">
  <metadata
     id="metadata23">
    <rdf:RDF>
      <cc:Work
         rdf:about="">
        <dc:format>image/svg+xml</dc:format>
        <dc:type
           rdf:resource="http://purl.org/dc/dcmitype/StillImage" />
      </cc:Work>
    </rdf:RDF>
  </metadata>
  <sodipodi:namedview
     pagecolor="#ffffff"
     bordercolor="#666666"
     borderopacity="1"
     objecttolerance="10"
     gridtolerance="10"
     guidetolerance="10"
     inkscape:pageopacity="0"
     inkscape:pageshadow="2"
     inkscape:window-width="1920"
     inkscape:window-height="1016"
     id="namedview21"
     showgrid="false"
     inkscape:zoom="1.686"
     inkscape:cx="255.33808"
     inkscape:cy="250"
     inkscape:window-x="0"
     inkscape:window-y="27"
     inkscape:window-maximized="1"
     inkscape:current-layer="svg19" />
  <defs
     id="defs7">
    <linearGradient
       id="linearGradient847"
       x1="500"
       x2="0"
       y1="500"
       y2="-4.2633e-14"
       gradientTransform="translate(-1.165e-5)"
       gradientUnits="userSpaceOnUse">
      <stop
         stop-color="#ff6700"
         offset="0"
         id="stop2" />
      <stop
         stop-color="#ffd700"
         offset="1"
         id="stop4" />
    </linearGradient>
  </defs>
  <path
     d="m149.84 38.133c-4.4833-0.055348-48.764 8.2109-48.764 8.2109l-71.717-4.4043-5.2422 2.3066 11.115 18.453 15.307 3.3555 10.904 5.2422 14.471 19.922 1.2578 97.092-5.6621 15.098 23.277-7.3398 16.355-1.0469 13.84-1.0488s8.5e-4 -85.138 1.4688-90.59c1.4679-5.4522 3.3555-31.666 3.3555-31.666s20.968-0.62891 22.227-0.62891 15.099-24.535 16.986-28.1c1.8873-3.5649-16.986-4.1932-18.873-4.8223-0.05898-0.01966-0.16202-0.031418-0.30664-0.033204zm200.54 3.9297c-0.72576 0.016218-1.2875 0.12328-1.6211 0.3457-2.669 1.7794-22.461 5.4023-22.461 5.4023l-5.873 8.3887 13.842 15.098 7.5488-3.3535 29.357 14.26 0.41992 128.34s-32.714 6.291-35.23 6.291-27.68-0.41992-27.68-0.41992l4.6133 7.9688-1.6777 24.324 58.297 4.1953-1.6777 101.07s15.833-5.7672 17.301-4.7188c1.4679 1.0485 16.881 9.2266 16.881 9.2266l-0.52539 2.2031 2.6211 4.5078-0.73243 3.5644-2.623 1.2598 1.3633 14.469-7.1289 8.5976-9.9609 1.5723-2.5156-3.041 6.3945-4.7168 0.73438-10.801-2.3066-4.8223-10.59-2.6211-5.9766 3.459 0.10547 28.939-9.9609 20.131-16.672 9.0176-15.162 5.1504-12.16 8.3047s-3.5586 13.344 5.6348 13.938c9.1934 0.59312 69.1-4.1524 69.1-4.1524s69.988 3.2634 71.471 2.9668 8.3027-15.125 8.3027-15.125l-25.504-8.3047-15.717-7.1172-9.4902-26.689-0.29687-156.88-0.59375-119.22 2.0762-40.629 16.016-16.607 16.014-7.7109-3.2617-8.5996-4.7461-3.2617-25.801-2.373-13.346 3.5586-38.553-1.1855s-13.168-4.3147-18.248-4.2012zm-226.44 164.07-16.146 2.9355-23.066 8.5977-9.2266 8.1777 1.0488 57.459 0.62891 54.941 19.291 11.533 14.051-1.0488 2.5156-3.7754 5.0332-14.678-0.62891-9.0176 3.1465 1.4688 5.8711-10.695-1.8887-61.023 5.873-3.1445 151.82 1.8867 1.6777-8.8066-7.3398-28.311-7.3398 5.6621-145.32 1.6777v-13.84zm-47.602 148.68 0.21094 47.182-7.9688 18.873-25.584 11.324-18.453 3.7734 14.049 18.453 13.002 0.83984 43.199-1.6777 21.598 2.3066 56.199 0.83789 9.6465-14.258-39.213-11.535-16.357-15.936-2.5156-20.762 0.6289-28.309-20.342-1.0488-13.629-2.9355-14.471-7.1289z"
     fill="#f4eee6"
     id="path11" />
  <g
     id="g17">
    <g
       transform="translate(-146.86,-119.79)"
       id="g15">
      <path
         d="m146.86 619.79v-500h500v500h-500m7.5-7.5h485v-485h-485v485m7.5-7.5v-469.38h469.38v469.38h-469.38m94.375-467.5-10 1.25c-7.0834 0.83438-14.375 2.2922-21.875 4.375-7.5002 2.0838-15 4.5838-22.5 7.5h-13.75l3.125-1.25-0.625-3.125 8.75-0.625 5-6.25-12.5-1.25 1.25-0.625h-3.125l-3.125 1.25c-4.1667 1.6672-6.4584 5.2088-6.875 10.625 4.5833 7.0838 9.1666 10.625 13.75 10.625-1.6e-4 4.7e-4 5.6248-1.6662 16.875-5v1.875c-1.6e-4 0.41719-1.0422 1.0422-3.125 1.875l-3.75 3.125c12.5 0.41719 18.333 1.0422 17.5 1.875l18.75-10.625 6.25-1.875c9.1666-2.9162 17.708-4.3745 25.625-4.375h6.25c2.9164 4.7e-4 5.2081 0.20938 6.875 0.625l15 1.875c1.25 0.41719 3.7498 1.25 7.5 2.5 3.7498 0.83438 8.7497 2.2922 15 4.375 1.6664 4.7e-4 3.7497-1.6662 6.25-5l-3.75-3.125-16.25-4.375-3.75-1.875-4.375-0.625-12.5-1.875h-7.5l-4.375-1.25-20-0.625m120.62 22.5c2.083 4.7e-4 3.5414-0.20781 4.375-0.625-1.667-3.3328-2.5003-6.4578-2.5-9.375-3.1e-4 -5.4162 2.2914-8.1245 6.875-8.125 1.6664 4.7e-4 4.1664 0.625 7.5 1.875-3.3336-3.7495-6.4586-5.6245-9.375-5.625-7.917 4.7e-4 -11.875 3.3338-11.875 10-3.1e-4 7.9172 1.6664 11.875 5 11.875m167.5-19.375-23.125-1.25h-1.25l-11.875 1.875c-14.584 2.0838-29.584 8.9588-45 20.625l-1.875 1.25-0.625 1.875h-1.25l-1.25 1.875-1.875 1.25-6.25 8.75-2.5 1.875c-0.83438 4.7e-4 -3.9588 5.2088-9.375 15.625v1.25c-3.1e-4 1.667 1.4578 3.3338 4.375 5 2.9162-7.083 5.208-11.458 6.875-13.125l8.75-10 2.5-3.75 6.875-5.625 18.75-11.875c1.25-1.25 11.666-4.1662 31.25-8.75 2.083-0.41562 3.7495-0.625 5-0.625 1.25-0.41562 2.0828-0.625 2.5-0.625h1.875l12.5 1.25c9.5828 0.41719 15.208 1.4594 16.875 3.125 4.1662 3.3338 6.8745 4.3755 8.125 3.125l3.125-4.375c1.25-1.25 1.8745-2.0828 1.875-2.5-4.7e-4 -0.83281-1.8755-1.6662-5.625-2.5-6.6672-2.9162-11.459-4.1662-14.375-3.75h-5m-100 32.5-3.75 9.375 4.375-5.625 4.375-6.25c0.41562-1.25 4.7912-5.4162 13.125-12.5 6.2497-5.4162 9.3745-9.9995 9.375-13.75-4.7e-4 -3.3328-2.0838-4.9995-6.25-5-2.0838 4.7e-4 -3.1253 0.41719-3.125 1.25l1.25 7.5-0.625 0.625c-0.41719 0.41719-1.4594 1.6672-3.125 3.75-1.667 2.0838-4.167 5.0005-7.5 8.75-1.25 1.25-3.9588 5.2088-8.125 11.875m176.25-32.5-8.75 6.875 4.375-1.25c-6.2505 2.0838-10.209 3.1255-11.875 3.125-1.6672 4.7e-4 -4.1672-0.20781-7.5-0.625-2.9172-0.83281-5.0005-1.25-6.25-1.25 0.41563 4.7e-4 -1.0422 0.41719-4.375 1.25-6.2505 4.5838-9.3755 8.9588-9.375 13.125-4.7e-4 0.83438 0.20781 1.4594 0.625 1.875 3.7495 4.7e-4 9.1661 0.625 16.25 1.875 1.6661 0.41719 4.3745 2.2922 8.125 5.625 0.83281 4.167 1.25 6.2505 1.25 6.25-4.7e-4 2.5005-1.4594 4.5838-4.375 6.25l-1.25 0.625v1.875c4.1661 3.7505 6.2495 7.0838 6.25 10-4.7e-4 0.41719-0.20937 1.667-0.625 3.75-4.7e-4 2.0838-0.20937 5.2088-0.625 9.375-2.0839 2.0838-3.5422 3.1255-4.375 3.125h-0.625c-1.6672 4.7e-4 -2.5005-0.83281-2.5-2.5-4.7e-4 -0.41562 0.625-2.083 1.875-5 1.6661-2.9162 2.2911-6.0412 1.875-9.375l-1.875-3.125c-1.6672-1.6662-3.5422-2.4995-5.625-2.5-3.3339 4.7e-4 -6.6672 2.292-10 6.875 2.9161-1.25 5.2078-1.8745 6.875-1.875 0.83281 4.7e-4 1.25 0.41719 1.25 1.25-4.7e-4 2.0838-0.20937 3.542-0.625 4.375l1.25-0.625-0.625 6.25-1.25 4.375 0.625 5.625c2.4995 4.167 5.6245 6.2505 9.375 6.25 9.5828 4.7e-4 14.375-7.083 14.375-21.25-4.7e-4 -1.6662-1.25-6.0412-3.75-13.125l7.5 0.625c-1.6672-4.1662-3.7505-7.9162-6.25-11.25-2.5005-3.7495-4.7922-6.8745-6.875-9.375-2.0839-2.4995-3.9589-4.1662-5.625-5-1.6672-1.25-2.5005-1.6662-2.5-1.25-4.7e-4 -1.6662 1.25-2.4995 3.75-2.5h1.875l10 5.625h3.125l3.125-1.875 2.5-0.625c0.41562-0.41562 0.625-0.83281 0.625-1.25v-1.25l-4.375-5 6.875-3.75c1.6661-0.41562 2.4995-2.9162 2.5-7.5-4.7e-4 -1.6662-1.4594-2.7078-4.375-3.125m-220.62 31.875 4.375 1.875c1.25-6.2495 4.1664-13.125 8.75-20.625 6.2497-4.9995 12.5-7.4995 18.75-7.5 6.6662 4.7e-4 9.9997 2.2922 10 6.875-3.1e-4 1.6672-0.20938 2.7088-0.625 3.125l-13.125 10-5 10.625 6.875-1.25 5.625-6.875 13.125-10 0.625-4.375 0.625-2.5c-3.1e-4 -2.9162-1.0422-5.4162-3.125-7.5-5.0003-2.0828-8.7503-3.1245-11.25-3.125-20 4.7e-4 -31.875 10.417-35.625 31.25m-74.375-8.75 8.125-1.25 9.375-10c1.6664-0.83281 3.5414-1.4578 5.625-1.875 2.0831-0.83281 4.1664-1.6662 6.25-2.5 2.4997-1.25 4.5831-1.8745 6.25-1.875l1.875 0.625h3.125c2.083 4.7e-4 3.1247-0.83281 3.125-2.5-3.1e-4 -1.25-1.0422-1.8745-3.125-1.875-24.167 4.7e-4 -37.709 7.0838-40.625 21.25m56.875-17.5v1.875c4.1664 0.83438 6.2497 1.25 6.25 1.25 6.6664 1.6672 11.041 2.9172 13.125 3.75 2.4997 0.83438 2.9164 1.25 1.25 1.25 0.83281 4.7e-4 1.6664-1.0406 2.5-3.125l-6.875-3.125-9.375-2.5-4.375-1.25-2.5 1.875m188.75 3.125c-2.9172 2.9172-4.3755 5.6255-4.375 8.125-4.7e-4 2.5005 1.25 3.7505 3.75 3.75 0.83281 4.7e-4 1.25-0.20781 1.25-0.625l4.375-8.125 3.125-5-4.375-1.875-3.75 3.75m-86.25 10.625c10.833-4.1662 19.791-6.2495 26.875-6.25 9.1662 4.7e-4 13.75 2.2922 13.75 6.875-4.7e-4 2.0838-0.20937 3.5422-0.625 4.375 0.83281 0.41719 2.2912 0.625 4.375 0.625 4.9995 4.7e-4 7.4995-2.4995 7.5-7.5-4.7e-4 -3.3328-3.1255-6.0412-9.375-8.125v-0.625c-1.25-0.41562-3.5422-0.625-6.875-0.625-12.084 4.7e-4 -23.959 3.7505-35.625 11.25m-115-5.625c-0.41719-0.41562-1.25-0.625-2.5-0.625-1.667 4.7e-4 -2.5003 2.0838-2.5 6.25-3.1e-4 7.0838 3.958 10.625 11.875 10.625 11.25 4.7e-4 17.083-3.3328 17.5-10 0.41719-2.9162 0.83281-4.5828 1.25-5l-5-2.5-2.5 6.25c-0.41719 1.25-2.5003 2.7088-6.25 4.375-0.41719 0.41719-1.667 0.625-3.75 0.625-6.2503 4.7e-4 -9.3753-2.2912-9.375-6.875-3.1e-4 0.41719 0.41563-0.625 1.25-3.125m-30 7.5v1.25l12.5 7.5 14.375 11.875 8.75 8.125 3.125 2.5 2.5-0.625 3.125-1.25v-1.875l-4.375-4.375-18.125-16.875-17.5-11.25-4.375 5m45.625 11.875c-3.1e-4 1.667 1.6664 3.1255 5 4.375 7.9164 3.3338 12.916 5.0005 15 5 9.1664 4.7e-4 13.75-3.7495 13.75-11.25-3.1e-4 -7.0828-1.8753-11.041-5.625-11.875-1.667 4.7e-4 -2.5003 0.83437-2.5 2.5v1.875l0.625 0.625 2.5 3.125c0.41719 0.41719 0.625 1.25 0.625 2.5-3.1e-4 4.5838-3.1253 6.8755-9.375 6.875-3.7503 4.7e-4 -7.0836-1.0406-10-3.125-2.917-2.4995-4.3753-3.7495-4.375-3.75-0.83438 0.41719-1.8753 0.83437-3.125 1.25-1.25 0.41719-2.0836 1.0422-2.5 1.875m-170 10 3.75 3.75 3.125 5.625 1.25 3.75 3.75 16.875-0.625 11.25-0.625 94.375c4.5831-1.6664 9.7916-2.9164 15.625-3.75 6.2498-1.25 13.125-2.2914 20.625-3.125l-1.25-91.875c-0.41719-23.75 4.1664-36.875 13.75-39.375l23.75-5.625c2.9164-0.41563 4.3748-1.6662 4.375-3.75-1.6e-4 -4.1662-6.0419-6.2495-18.125-6.25h-1.875c-5.4169 0.41719-12.709 1.0422-21.875 1.875l-8.125 0.625h-16.25c-0.41719 4.7e-4 -4.5834-0.20781-12.5-0.625-7.5002-0.41563-19.167-1.0406-35-1.875h-2.5c-5.4167 4.7e-4 -8.1252 1.25-8.125 3.75-1.6e-4 3.7505 3.3333 5.8338 10 6.25 11.25 1.25 20.208 3.9588 26.875 8.125m355.62-15.625-42.5 1.875c-8.7505 4.7e-4 -19.584-0.625-32.5-1.875-2.0838-0.41563-4.3755-0.625-6.875-0.625h-2.5c-9.167 4.7e-4 -13.75 1.6672-13.75 5-4.7e-4 2.0838 1.25 3.3338 3.75 3.75l19.375 4.375c0.83281 0.41719 2.4995 1.25 5 2.5 2.4995 0.83438 5.4162 2.292 8.75 4.375l6.25 7.5c2.9162 4.167 4.3745 7.5005 4.375 10l0.625 5 0.625 6.25v33.75l-0.625 82.5c-4.7e-4 3.3336-1.667 6.0419-5 8.125l-12.5 0.625-42.5-0.625 0.625 11.875v7.5l58.75 0.625-0.625 108.75h6.875l5.625-0.625c5.8328 1.6e-4 12.291 2.9169 19.375 8.75l1.25 1.875-1.875 1.875c1.25 2.0834 1.8745 3.7502 1.875 5-4.7e-4 0.83281-0.83438 2.0834-2.5 3.75 0.41563 2.0834 0.625 4.1667 0.625 6.25 0.41563 1.6667 0.625 2.9167 0.625 3.75-4.7e-4 3.3334-1.4594 7.0834-4.375 11.25l-4.375 3.75-11.875 1.25c-2.9172-0.41719-5.0005-2.0833-6.25-5 7.0828-2.4998 10.625-5.6248 10.625-9.375-4.7e-4 -6.6666-1.6672-9.9998-5-10-0.41719 0.41719-1.25 0.625-2.5 0.625l-7.5-0.625-0.625 8.75v15.625c-0.41719 21.667-12.917 35-37.5 40-8.3338 1.6667-12.917 3.75-13.75 6.25 5.833 3.3334 12.083 5 18.75 5h1.25l62.5-3.125 22.5 1.875h5.625l6.875 0.625 16.25-0.625c3.3328 0 5.6245-1.6666 6.875-5l-5-2.5-3.125-1.25-13.75-3.75c-7.9172-2.0833-15-6.4583-21.25-13.125-5.8338-7.0833-8.7505-13.958-8.75-20.625l-0.625-287.5c0.41563-2.9162 0.625-5.208 0.625-6.875 0.41563-2.083 0.625-3.958 0.625-5.625 0.41563-13.333 1.6662-22.291 3.75-26.875 2.0828-4.583 6.0412-8.1245 11.875-10.625 13.333-5.4162 20.625-8.1245 21.875-8.125l1.25-1.25v-1.25c-4.7e-4 -0.83281-1.0422-1.6662-3.125-2.5-4.5839-1.6662-9.1672-2.4995-13.75-2.5l-3.75 0.625-5 0.625m-260.62 24.375 7.5-4.375c-0.41719 0.83437-0.625 2.5005-0.625 5-3.1e-4 5.0005 2.2914 7.5005 6.875 7.5-3.1e-4 4.7e-4 2.0831-0.41563 6.25-1.25-3.7503-3.7495-5.6253-7.083-5.625-10-3.1e-4 -8.333 5.2081-12.5 15.625-12.5 10.833 4.7e-4 19.791 4.3755 26.875 13.125 2.083 2.0838 3.5414 3.1255 4.375 3.125 1.25 4.7e-4 2.083-0.20781 2.5-0.625-10-11.25-21.667-19.166-35-23.75l-2.5-0.625c-0.83437-0.41563-2.0836-0.625-3.75-0.625-5.4169 4.7e-4 -10.625 2.2922-15.625 6.875-5.0002 4.167-7.2919 8.7505-6.875 13.75v4.375m297.5-23.75 4.375 8.125 1.875 1.25 3.125 1.875c2.4995 0.83437 3.7495 1.25 3.75 1.25 2.0828 4.7e-4 3.5411-1.0406 4.375-3.125v-8.125l-1.25 0.625-1.25 1.875-5.625 1.25-5-1.875-4.375-3.125m-303.75 5-4.375 3.125c-4.5836 0.83438-13.125 3.3338-25.625 7.5-5.0002 1.667-8.5419 9.167-10.625 22.5l0.625 9.375 0.625 7.5v86.875c-1.6e-4 2.0836 0.83281 3.1253 2.5 3.125 1.25 3.1e-4 2.0831-0.83281 2.5-2.5l-1.25-88.75c-1.6e-4 -21.666 3.3331-33.333 10-35l24.375-6.875c2.0831-0.83281 3.1248-1.8745 3.125-3.125-1.6e-4 -0.41562-0.625-1.6662-1.875-3.75m293.75-0.625-3.125 3.75c-2.5005 0.83438-4.3755 1.4594-5.625 1.875-7.0839 2.0838-11.459 3.7505-13.125 5-1.25 0.83438-3.3338 2.5005-6.25 5-7.0838 5.8338-10.417 20.834-10 45l0.625 15v38.75l-0.625 231.25c0.41562 1.6667 1.0406 3.7502 1.875 6.25 1.25 2.5002 2.7078 5.4167 4.375 8.75l2.5 4.375c0.83281 1.25 1.6662 2.5 2.5 3.75 0.83281 0.83281 1.6662 1.6667 2.5 2.5h1.25l-10-25v-290c-4.7e-4 -24.166 3.7495-37.916 11.25-41.25l22.5-9.375c0.83281-0.83281 1.25-1.4578 1.25-1.875-4.7e-4 -0.41562-0.625-1.6662-1.875-3.75m-418.12 2.5c3.3333 3.7505 6.2498 6.042 8.75 6.875l14.375 3.125c2.9166 0.83438 7.9166 3.3338 15 7.5l1.25-0.625-4.375-6.25c-2.9169-1.6662-5.6252-2.9162-8.125-3.75-2.5002-1.25-5.0002-2.2912-7.5-3.125l-19.375-3.75m294.38 1.25c0.83281 4.167 3.333 6.8755 7.5 8.125 4.583 0.83438 11.041 2.292 19.375 4.375 1.6662 4.7e-4 4.1662 0.625 7.5 1.875l-6.875-5.625-12.5-3.75-3.75-1.875-5-0.625-6.25-2.5m-62.5 11.875 0.625 0.625 6.875-1.875c2.9162-0.83281 5.6247-1.6662 8.125-2.5 2.4997-0.83281 5.208-1.4578 8.125-1.875l2.5-4.375h-0.625l-1.875-0.625-12.5 1.25-6.875 3.75c-1.667 0.83438-2.917 1.4594-3.75 1.875l-1.25 0.625c-3.1e-4 1.667 0.20781 2.7088 0.625 3.125m-244.38-10.625c-1.25 2.5005-1.8752 4.3755-1.875 5.625-1.6e-4 1.667 0.20781 2.7088 0.625 3.125 2.4998 2.5005 4.5833 3.7505 6.25 3.75 1.25 4.7e-4 3.9583-2.083 8.125-6.25l-0.625-3.125c-2.9167 1.667-5.4167 2.5005-7.5 2.5h-3.125l-1.875-5.625m291.25 7.5 9.375 5c2.9162 1.667 4.3745 4.3755 4.375 8.125-4.7e-4 6.667-4.792 10-14.375 10-11.667 4.7e-4 -19.584-3.333-23.75-10-4.5838-7.083-7.5003-10.625-8.75-10.625-1.25 4.7e-4 -1.8753 0.625-1.875 1.875-3.1e-4 2.5005 1.6662 6.042 5 10.625 3.7497 4.5838 6.8747 7.5005 9.375 8.75 4.9997 2.5005 10.416 3.7505 16.25 3.75 17.083 4.7e-4 25.625-4.7912 25.625-14.375-4.7e-4 -4.1662-2.0838-8.1245-6.25-11.875-4.167-3.7495-8.3338-5.6245-12.5-5.625-2.5003 4.7e-4 -3.7503 0.83438-3.75 2.5-3.1e-4 0.41719 0.41562 1.0422 1.25 1.875m-123.75-4.375c-2.9169 1.667-4.3753 3.3338-4.375 5-3.1e-4 2.917 4.7914 6.8755 14.375 11.875 5.8331 2.917 12.916 4.3755 21.25 4.375 6.6664 4.7e-4 14.791-1.8745 24.375-5.625 1.25-0.41562 3.5414-1.0406 6.875-1.875 0.41719-0.83281 0.625-1.4578 0.625-1.875l0.625-0.625c-3.1e-4 0.41719-0.41719-0.625-1.25-3.125-10.417 5.417-19.584 8.1255-27.5 8.125-15.834 4.7e-4 -27.5-5.4162-35-16.25m71.25 3.75c-4.167 0.41719-6.2503 1.4594-6.25 3.125-3.1e-4 -4.1662 2.2914 0.625 6.875 14.375l1.875 3.125 2.5 4.375 8.75 16.25 5 10.625 9.375 31.875c1.6662-1.6662 2.4997-3.5412 2.5-5.625v-0.625l-3.75-15c-0.83438-4.1662-1.667-7.2912-2.5-9.375-0.41719-2.083-0.625-3.1247-0.625-3.125l-20-40-1.25-4.375-2.5-5.625m-223.12 28.125 0.625 2.5 1.25 2.5 1.25-0.625 1.25-3.75h2.5l0.625 5.625 3.125 3.75c4.1666 5.0003 8.7498 7.5003 13.75 7.5 6.2498 3.1e-4 10.208-2.708 11.875-8.125h-9.375c-6.6667-4.1662-10-9.3745-10-15.625-1.6e-4 -5.833 0.83281-11.458 2.5-16.875l-4.375-0.625-11.25-3.125c-2.0834 4.7e-4 -3.1252 1.25-3.125 3.75l-0.625 5-1.875 3.75 0.625 3.75-0.625 6.25 1.875 4.375m299.38-18.75 0.625 3.125c4.583 1.25 6.8745 3.3338 6.875 6.25-4.7e-4 1.667-1.667 6.8755-5 15.625-0.83438 3.3338-1.4594 5.6255-1.875 6.875 8.7495-10.416 13.125-19.583 13.125-27.5-4.7e-4 -0.83281-0.41719-2.4995-1.25-5l-3.75-3.125c-0.83438-0.83281-1.4594-1.0406-1.875-0.625l-1.875 0.625-5 3.75m133.12-1.25h-1.875l0.625 10.625v15.625c-4.7e-4 0.83438-4.7e-4 1.8755 0 3.125-4.7e-4 0.83438 0.20781 2.0838 0.625 3.75l0.625 6.875-1.875 5.625-3.125 4.375c-1.6672 2.0838-4.7922 4.792-9.375 8.125l-6.25 1.875c-4.1672 2.917-8.1255 4.3753-11.875 4.375-2.0839 3.1e-4 -3.9589-0.83281-5.625-2.5l-1.875 1.25c-0.41719 2.0838-0.83438 3.7503-1.25 5-4.7e-4 1.25-4.7e-4 2.0838 0 2.5-4.7e-4 -0.41562 0.41562 1.4594 1.25 5.625l0.625-0.625 4.375 2.5h1.875l-1.875 2.5-2.5 0.625-1.875 0.625 1.875 1.25-0.625 0.625c2.9161 1.667 5.8328 2.5003 8.75 2.5 2.9161 3.1e-4 5.2078-0.83281 6.875-2.5 8.7495-5.833 13.333-9.3747 13.75-10.625l3.125-6.875c0.41562-0.41562 1.25-0.625 2.5-0.625 2.0828 3.1e-4 3.1245 0.83438 3.125 2.5l-1.875 3.75-9.375 11.25-5 4.375h2.5l-7.5 4.375-8.75 8.75-4.375 1.25-6.25 5.625-4.375 13.125-0.625 4.375h3.125l5-3.125 3.75-1.25-1.25 6.25-1.875-1.25-3.125 5.625c-2.9172 5.417-4.3755 9.5836-4.375 12.5l0.625 1.875 3.125 15 0.625 9.375c2.0828-1.25 3.3328-3.3331 3.75-6.25l1.875 0.625c3.3328 8.3336 7.7078 12.5 13.125 12.5 8.3328 3.1e-4 13.75-1.25 16.25-3.75l2.5-3.75 3.75-3.125 1.25-3.125 2.5-7.5v-2.5c-4.7e-4 -9.9997-3.3339-18.333-10-25-1.25-2.9164-1.8755-5.208-1.875-6.875l0.625-1.25c0.41562-0.41719 3.9578-1.6664 10.625-3.75 3.7495-1.25 5.6245-3.7497 5.625-7.5-4.7e-4 -3.333-0.83438-6.6664-2.5-10h-0.625v-1.25 3.125c0.41562 4.167-0.83438 6.8753-3.75 8.125l-13.125 4.375-6.25 4.375c-0.41719 2.0836-0.83438 3.7503-1.25 5-4.7e-4 1.25-4.7e-4 2.292 0 3.125-4.7e-4 2.0836 1.0406 4.792 3.125 8.125l0.625 1.875h1.875c7.0828 8.3336 10.625 14.167 10.625 17.5-4.7e-4 5.4169-2.9172 10.417-8.75 15h-10.625l-0.625-1.875c-6.6672-4.1664-10-10.208-10-18.125-4.7e-4 -11.25 4.7911-24.166 14.375-38.75l22.5-31.25c4.5828-7.083 6.8744-20.625 6.875-40.625-6.3e-4 -13.333-2.5005-25.416-7.5-36.25-0.41719-1.6662-1.4594-2.4995-3.125-2.5l-1.875 1.25m-436.25 0c-4.1667 12.5-6.2502 21.042-6.25 25.625l0.625 2.5c-1.6e-4 2.917 0.625 6.8753 1.875 11.875-0.41719 0.41719-0.625 1.4594-0.625 3.125-1.6e-4 0.83437 0.625 1.4594 1.875 1.875l1.25 7.5c0.41719 2.917 3.3333 9.3753 8.75 19.375l2.5 4.375 4.375 5.625c0.41719 3.1e-4 1.25 1.0422 2.5 3.125 1.6666 1.667 2.7083 2.7086 3.125 3.125 1.25 3.1e-4 1.8748-0.625 1.875-1.875l-1.25-1.25c0.41719 0.41719 1.0422 0.625 1.875 0.625 0.83281 3.1e-4 -1.6e-4 -1.25-2.5-3.75-2.5002-2.9162-4.1667-4.3747-5-4.375-1.6e-4 3.1e-4 -1.6e-4 0.20937 0 0.625 0.41719 0.41719 0.83281 1.0422 1.25 1.875l-1.25-3.125 4.375 3.125 1.875 3.125 4.375 3.125c3.7498 3.7503 8.7498 6.667 15 8.75v-5c-17.083-5.4162-27.708-14.791-31.875-28.125l-5-14.375c-3.3334-8.7497-4.1667-13.125-2.5-13.125l0.625-12.5-2.5-12.5 0.625-9.375m207.5 9.375 0.625 1.25 5 6.25 10.625 16.25 16.875 30.625 1.25 5 2.5 6.25 3.125 10.625 1.25 5c2.4997-3.7497 3.7497-6.8747 3.75-9.375l-0.625-1.875-6.25-19.375c-2.0838-4.1662-4.792-9.1662-8.125-15-2.917-6.2497-6.667-13.333-11.25-21.25-6.2503-12.083-10.417-17.708-12.5-16.875l-6.25 2.5m-106.88 1.25c-0.41719 1.25-0.625 3.3338-0.625 6.25v8.125c-1.6e-4 2.5005 0.20781 4.3755 0.625 5.625l7.5 10-8.125-2.5c-0.41719 1.25-0.625 3.542-0.625 6.875v1.875c0.83281 1.667 1.6664 3.7503 2.5 6.25 0.83281 2.0838 1.6664 4.792 2.5 8.125l0.625 5.625c-1.6e-4 2.5003-1.6669 6.667-5 12.5-1.25 1.667-2.9169 2.917-5 3.75l-0.625 26.875c5.4164-0.41563 9.9998-0.83281 13.75-1.25 4.1664-0.41719 7.9164-1.0406 11.25-1.875 0.83281-0.83281 6.2498-2.708 16.25-5.625 7.0831-2.083 12.083-3.1247 15-3.125 3.7497 3.1e-4 7.7081 1.4578 11.875 4.375 2.4997-3.7497 3.7497-6.458 3.75-8.125-3.1e-4 -2.083-1.6669-4.1664-5-6.25-3.3336-2.083-5.8336-3.1247-7.5-3.125-0.41719 3.1e-4 -4.1669 1.0422-11.25 3.125-1.6669 1.667-3.1253 2.5003-4.375 2.5-1.6669 3.1e-4 -2.5003-0.625-2.5-1.875-3.1e-4 -0.83281 0.625-1.6664 1.875-2.5l0.625-0.625 19.375-3.75c2.4997-0.41563 4.9997-1.6662 7.5-3.75 2.4997-2.083 4.7914-4.583 6.875-7.5 2.0831-2.9162 3.7497-6.0412 5-9.375 1.25-3.333 1.8747-6.2497 1.875-8.75v-4.375l-8.75 2.5-1.875-1.875c4.9997-4.9997 7.7081-10.416 8.125-16.25v-8.125c0.41719-0.83281 0.83281-2.083 1.25-3.75 0.83281-2.083 2.0831-4.3745 3.75-6.875-4.5836-1.25-8.1253-1.8745-10.625-1.875-8.3336 4.7e-4 -15.209 3.3338-20.625 10l-1.875 1.875c-0.41719 0.83437-1.25 1.8755-2.5 3.125l-1.875-0.625v-5c0.41719-5.4162-0.83438-8.1245-3.75-8.125-0.83281 4.7e-4 -1.8753 1.667-3.125 5-3.3336 4.5838-5.2086 14.167-5.625 28.75-0.83438 8.7503-2.5002 13.125-5 13.125-1.6669 3.1e-4 -2.5002-1.0406-2.5-3.125-1.6e-4 -0.83281 0.20781-1.4578 0.625-1.875l3.125-7.5 1.25-11.875 0.625-11.875c-0.41719-1.6662-2.5002-4.3745-6.25-8.125l-0.625 11.875c-1.6669-0.41563-3.5419-3.333-5.625-8.75-0.41719-2.9162-2.0836-4.9995-5-6.25l-10.625-4.375-0.625 2.5m228.12 3.125-4.375 1.25-0.625 1.25c-1.667 0.83438-3.542 2.292-5.625 4.375-1.667 1.667-3.9588 3.7505-6.875 6.25-2.0838 2.917-4.167 5.8338-6.25 8.75-1.667 2.5003-2.917 6.042-3.75 10.625-4.7e-4 2.5003-0.20938 4.3753-0.625 5.625l0.625 15 4.375 13.125 8.125 10.625 5.625 3.75 6.25 6.25c1.6662 1.667 4.7912 3.3336 9.375 5 0.41562-0.83281 0.625-2.708 0.625-5.625-4.7e-4 -1.6664-0.83438-2.708-2.5-3.125-1.667-0.41719-5.417-3.7497-11.25-10l-5.625-6.875c-3.7505-4.1662-5.6255-11.875-5.625-23.125-4.7e-4 -13.333 4.1662-21.25 12.5-23.75 7.9162-2.9162 12.291-4.7912 13.125-5.625l-0.625-3.75-1.25-10.625-1.875-1.25-3.75 1.875m60.625 43.125c10.416-0.41563 15.625-3.958 15.625-10.625-4.7e-4 -1.25-0.20938-2.083-0.625-2.5-3.3339-2.4997-5.0005-4.7912-5-6.875-4.7e-4 -0.83281 0.41562-1.6662 1.25-2.5 4.1661-2.9162 6.2495-5.4162 6.25-7.5-4.7e-4 -1.25-0.625-2.9162-1.875-5l-3.75-4.375-6.875-3.75-1.875-1.875-1.875 10v12.5l2.5 8.75v1.25c-4.7e-4 3.3338-1.25 7.5003-3.75 12.5m-188.75-40.625c-5.8336 3.3338-8.7503 6.667-8.75 10-3.1e-4 2.5005 1.25 3.9588 3.75 4.375 0.41719-5.4162 2.708-8.1245 6.875-8.125 5.4164 4.7e-4 11.458 4.5838 18.125 13.75l1.875 1.875h1.875l-3.75-5-4.375-6.25c-1.667-2.083-3.9586-3.958-6.875-5.625-2.5003-1.6662-5.417-3.333-8.75-5m55.625 2.5-1.875 5c-0.41719 3.3338-0.625 6.2505-0.625 8.75-3.1e-4 2.0838-3.1e-4 3.9588 0 5.625v6.875l3.75 16.25 1.25 6.875 2.5 6.25h1.875l-0.625-13.125-3.125-16.25 0.625-8.125v-8.125l1.25-8.125c-0.41719-0.41563-2.0838-1.0406-5-1.875m23.75 3.75c-3.3338 4.7e-4 -5.2088 0.83437-5.625 2.5l-5 4.375-3.125 6.25-1.875 2.5v3.75l-1.25 8.75-0.625 3.125c-3.1e-4 3.7503 1.0406 5.6253 3.125 5.625 0.83281-0.83281 1.25-1.8747 1.25-3.125l-0.625-1.25v-4.375c-0.41719-4.9997 1.0406-9.1662 4.375-12.5 3.7497-3.7497 6.8747-5.6245 9.375-5.625 7.4997 4.7e-4 11.25 2.292 11.25 6.875-4.7e-4 0.83437-0.20938 1.4594-0.625 1.875l-3.125 5.625 3.125 0.625 1.875-1.25 4.375-7.5c0.41562-0.41563 0.625-1.25 0.625-2.5-4.7e-4 -9.1662-5.8338-13.75-17.5-13.75m-271.88 16.875 0.625 5.625c2.9166 7.5003 6.2498 11.25 10 11.25l1.875-0.625c-6.6667-9.1662-10-14.791-10-16.875v-0.625l0.625-0.625v-1.25l-1.25-3.75-3.125-1.875 1.25 8.75m397.5-6.875-1.875 6.875c1.6661 1.25 3.1245 1.8753 4.375 1.875 2.4995 3.1e-4 3.7495-1.25 3.75-3.75-4.7e-4 -2.083-2.0839-3.7497-6.25-5m-413.75 2.5v5c-0.41719 11.25 3.1248 22.292 10.625 33.125l3.125 6.875 4.375 6.25 3.125 5 5.625 8.75c4.5833 7.0836 6.8748 12.709 6.875 16.875-1.6e-4 2.5003-2.0834 5.6253-6.25 9.375h-1.25c-3.7502 0.41719-6.2502-1.25-7.5-5-2.0834 0.83281-3.1252 2.0836-3.125 3.75-1.6e-4 5.8336 3.9583 8.7503 11.875 8.75 9.9998 3.1e-4 15-5.4164 15-16.25-1.6e-4 -2.9164-0.83281-5.833-2.5-8.75l-5-8.75-19.375-23.75c-6.2502-7.4997-10.417-16.458-12.5-26.875l-1.25-7.5-1.875-6.875m206.25 0-10.625 3.75 5.625 5.625c-2.917 1.25-5.2086 3.3338-6.875 6.25-1.25 4.5838-1.8753 7.917-1.875 10-3.1e-4 2.0838 0.625 5.0003 1.875 8.75 4.9997 6.2503 10.833 9.3753 17.5 9.375 4.1664 3.1e-4 8.1247-1.8747 11.875-5.625l-0.625-1.25c-1.25 0.41719-3.3336 0.625-6.25 0.625-0.83438 3.1e-4 -3.7503-1.0406-8.75-3.125-3.3336-4.583-5.0003-7.9162-5-10-3.1e-4 -7.083 4.1664-10.625 12.5-10.625 4.583 3.1e-4 9.7914 1.667 15.625 5l8.75 8.75 2.5 5 4.375 8.125 1.875 6.25 5 4.375-6.25-19.375c-2.917-8.7497-8.1253-16.25-15.625-22.5-7.0836-6.6662-14.167-9.7912-21.25-9.375h-4.375m-173.75 5.625c-2.9167 2.5003-4.3752 4.5838-4.375 6.25-1.6e-4 3.7503 2.0833 5.6253 6.25 5.625 3.7498 3.1e-4 5.6248-2.2912 5.625-6.875-1.6e-4 -2.4997-2.5002-4.1662-7.5-5m10.625 23.125h2.5c0.83281 3.1e-4 1.25-0.83281 1.25-2.5-1.6e-4 -4.9997-1.6669-7.4997-5-7.5-3.3334 3.1e-4 -5.0002 1.8753-5 5.625-1.6e-4 4.167 1.4578 6.2503 4.375 6.25l1.875-1.875m283.75-1.875c-1.25 8.3338-1.8755 12.084-1.875 11.25-4.7e-4 7.5003 4.3745 13.959 13.125 19.375l5.625 2.5c-8.7505-6.6664-13.125-13.541-13.125-20.625-4.7e-4 -7.083 2.4995-10.625 7.5-10.625 2.083 3.1e-4 3.5412 0.20937 4.375 0.625-1.25-5.833-3.542-8.7497-6.875-8.75-0.83438 3.1e-4 -1.667 0.41719-2.5 1.25l-6.25 5m-51.875 19.375h-1.875c-2.5003-1.25-4.3753-1.8747-5.625-1.875-3.7503 3.1e-4 -5.6253 5.2088-5.625 15.625-3.1e-4 5.417 0.83281 9.792 2.5 13.125l6.25 19.375c0.41562 0.41719 1.25 5.417 2.5 15l-1.875 1.25 1.25-1.25h-2.5c-2.917-32.916-14.375-53.75-34.375-62.5l-1.25 9.375 1.25 2.5c-2.5003-0.83281-4.792-2.2914-6.875-4.375l-6.875-1.875c-0.83438-0.41563-2.7086-0.625-5.625-0.625-3.7503 3.1e-4 -6.2503 0.20937-7.5 0.625 0.41719 4.167 1.8747 7.7086 4.375 10.625-9.5836 6.2503-13.959 12.292-13.125 18.125v2.5c0.83281 9.5836 6.0414 14.375 15.625 14.375l1.875-0.625 8.125-3.125h6.25l0.625-1.25c-3.3336-1.6664-5.2086-2.9164-5.625-3.75h-13.75c-2.5003-0.41719-3.7503-2.2914-3.75-5.625-3.1e-4 -6.6664 4.7914-9.9997 14.375-10 3.7497 3.1e-4 9.7914 2.917 18.125 8.75l5 8.125 5 7.5 6.25 20c0.41562 1.6669 0.83281 3.5419 1.25 5.625 0.41562 2.0836 1.0406 4.7919 1.875 8.125v12.5l10-0.625 10 1.875c2.4997 3.1e-4 3.7497-1.4578 3.75-4.375l0.625-9.375 0.625-7.5c-3.1e-4 -3.3331-0.625-9.1664-1.875-17.5-2.5003-15.416-3.7503-28.125-3.75-38.125-3.1e-4 -20 5.6247-32.5 16.875-37.5-2.917-4.1662-6.042-6.2497-9.375-6.25-9.5838 3.1e-4 -14.375 4.3753-14.375 13.125-3.1e-4 0.83437-3.1e-4 2.0838 0 3.75 0.41562 1.667 0.83281 3.7503 1.25 6.25m-246.25-10c3.7498 3.1e-4 5.6248-2.083 5.625-6.25-1.6e-4 -3.333-1.6667-4.9997-5-5-3.7502 3.1e-4 -5.6252 1.25-5.625 3.75-1.6e-4 5.0003 1.6666 7.5003 5 7.5m280 2.5c-1.25-1.6662-2.7088-2.4997-4.375-2.5-3.3338 3.1e-4 -5.0005 1.4594-5 4.375-4.7e-4 2.917 1.6662 4.3753 5 4.375 2.4995 3.1e-4 3.958-2.083 4.375-6.25m-303.75-1.25v5l0.625 8.125c-1.6e-4 4.5836-2.9167 7.917-8.75 10 1.6666 2.917 3.5416 4.3753 5.625 4.375-0.41719 3.1e-4 1.0422-0.41719 4.375-1.25 3.7498-2.4997 5.6248-5.6247 5.625-9.375-1.6e-4 -3.7497-2.5002-9.3747-7.5-16.875m285 6.25v1.875c-3.1e-4 3.3338 1.0406 5.0003 3.125 5 3.333 3.1e-4 4.9997-1.4578 5-4.375-3.1e-4 -3.333-1.25-4.9997-3.75-5l-1.25 0.625-3.125 1.875m108.12 3.75v5c-0.83438 3.7503 0.20781 5.6253 3.125 5.625-4.7e-4 3.1e-4 2.4995-1.0406 7.5-3.125l-6.25-2.5-4.375-5m-95 0.625c-0.41719 0.41719-0.625 1.667-0.625 3.75-4.7e-4 2.0836 4.7912 4.167 14.375 6.25 1.25 0.41719 2.2912 0.83437 3.125 1.25 1.25 0.41719 2.2912 0.83437 3.125 1.25-5.0005-7.083-11.667-11.25-20-12.5m105 10.625c-6.2505 0.83281-9.3755 2.5003-9.375 5-4.7e-4 0.41719 0.41562 2.292 1.25 5.625 6.6661-2.4997 11.875-5.6247 15.625-9.375 1.6661-1.6664 3.1245-2.9164 4.375-3.75 1.6661-0.83281 2.7078-1.4578 3.125-1.875l1.875-3.125-16.875 7.5m-109.38 3.125c1.25-2.4997 1.8745-4.3747 1.875-5.625-4.7e-4 -1.6664-1.4594-2.4997-4.375-2.5-3.3338 3.1e-4 -5.0003 1.4578-5 4.375-3.1e-4 2.917 1.4578 4.3753 4.375 4.375 1.6662 3.1e-4 2.708-0.20781 3.125-0.625m-263.12-5.625v2.5l13.75 8.125v-4.375l-13.75-6.25m261.88 8.125-0.625 1.875h-3.125l-1.875 1.875-3.125 1.25-0.625 2.5c4.583 0.83437 6.8747 1.667 6.875 2.5-3.1e-4 1.25-1.4594 3.1253-4.375 5.625l-2.5 5.625 1.875 9.375c4.9997 5.417 10.208 8.1253 15.625 8.125 6.2495 3.1e-4 10.208-1.4578 11.875-4.375l10.625-13.125c0.83281-0.83281 1.8745-1.25 3.125-1.25 0.83281 3.1e-4 2.2912 0.625 4.375 1.875v6.875l3.125-6.25c-4.7e-4 -2.083-1.8755-4.1664-5.625-6.25l-1.875-0.625c-5.417 3.1e-4 -9.3755 3.1253-11.875 9.375-3.7505 3.7503-6.667 5.6253-8.75 5.625-7.0838 3.1e-4 -10.625-3.333-10.625-10-4.7e-4 -8.333 6.458-12.5 19.375-12.5 7.9162 3.1e-4 13.75 1.25 17.5 3.75 1.6662 1.667 3.1245 2.5003 4.375 2.5 0.83281 3.1e-4 1.6662-0.41719 2.5-1.25v-2.5c-4.7e-4 -1.6664-1.0422-2.9164-3.125-3.75-4.5838-2.083-6.8755-3.1247-6.875-3.125l-12.5-5.625-5-0.625c-1.667-0.41719-3.7505-0.625-6.25-0.625h-2.5c-1.667 3.1e-4 -5.0005 1.0422-10 3.125m-123.12 32.5c1.6664 0.83281 3.7497 2.292 6.25 4.375 2.4997 1.6669 5.4164 3.5419 8.75 5.625-2.9169-4.1664-6.0419-8.333-9.375-12.5-2.9169-4.583-4.3753-8.958-4.375-13.125-3.1e-4 -7.083 2.4997-10.625 7.5-10.625 1.25 3.1e-4 3.1247 0.625 5.625 1.875v8.125c4.1664-2.4997 6.2497-4.7914 6.25-6.875-3.1e-4 -5.833-3.7503-8.7497-11.25-8.75-5.0003 3.1e-4 -9.1669 2.917-12.5 8.75-2.0836 5.0003-3.1253 8.542-3.125 10.625-3.1e-4 1.667 0.83281 3.9586 2.5 6.875 1.6664 2.917 2.9164 4.792 3.75 5.625m-165.62-25c-2.9167 0.41719-7.2917 4.3753-13.125 11.875-0.41719 5.417-0.83281 9.167-1.25 11.25-1.6e-4 1.667-1.6e-4 1.667 0 0-1.6e-4 -0.41719 0.41719 1.0422 1.25 4.375l4.375 6.25 8.125 1.875v1.875l-10.625 1.25c-1.25 3.1e-4 -1.8752 0.625-1.875 1.875-1.6e-4 1.25 0.625 2.0836 1.875 2.5 4.1666 2.9169 7.2916 4.3753 9.375 4.375h3.125l8.75-0.625 6.875-2.5 13.75-10c6.6666-4.9997 16.042-9.3747 28.125-13.125l14.375-4.375h-7.5c-10 1.667-20.417 5.417-31.25 11.25l-6.875 1.875-8.125 3.75-5.625 0.625c-2.5002 0.83437-6.6667-0.41563-12.5-3.75-3.3334-4.583-5.0002-8.1247-5-10.625-1.6e-4 -9.1664 4.5833-13.541 13.75-13.125h1.875c-2.0834-3.7497-6.0417-6.0414-11.875-6.875m130 2.5c-5.4169 1.25-8.1252 3.1253-8.125 5.625-1.6e-4 3.3336 2.2914 5.417 6.875 6.25l14.375 3.75 12.5 3.75-4.375-3.75-17.5-8.75-1.875-5.625-1.875-1.25m-46.25 15.625c-15.833 2.5003-26.875 5.6253-33.125 9.375l-17.5 10.625-10.625 7.5-6.25 5.625-8.125 7.5c-2.0834 2.0836-3.9584 4.7919-5.625 8.125-2.9167 5.4169-5.2084 9.5836-6.875 12.5-1.25 2.9169-2.0834 4.5836-2.5 5l-1.875 7.5-1.875 6.25-3.75 24.375v-7.5l0.625 7.5-1.25 26.25v5c0.41719 8.3334 1.6666 15.833 3.75 22.5l1.25 6.25c0.41719 1.6669 1.0422 3.9584 1.875 6.875 1.25 2.5002 2.7083 5.6252 4.375 9.375l4.375 15 1.875 4.375c0.41719 1.25 0.625 3.7502 0.625 7.5-1.6e-4 9.1667-5.2084 15.625-15.625 19.375 2.4998 1.6667 4.7916 2.9167 6.875 3.75 2.9166 0 6.4583-1.4578 10.625-4.375 3.7498-5.4166 5.6248-9.5833 5.625-12.5-1.6e-4 -1.6666-0.625-4.1666-1.875-7.5l3.75 3.125 1.875 0.625 1.25-6.25v-3.125c0.41719-1.25 0.20781-3.5416-0.625-6.875l-2.5-5c-1.25-2.9166-2.0834-4.5833-2.5-5-0.41719-0.83281-3.3334-3.7498-8.75-8.75-0.83281-1.25-1.6667-2.4998-2.5-3.75-0.83281-1.6666-1.6667-3.3331-2.5-5l-3.75-8.75c-1.25-2.4998-1.8752-3.9581-1.875-4.375 0.41719-1.25 1.0422-1.8748 1.875-1.875 1.6666 1.6e-4 2.4998 1.6669 2.5 5v0.625l3.75 8.75 1.875 3.75 5 6.25v-7.5l1.25-1.875c4.1666 5.0002 8.3333 7.5002 12.5 7.5 3.3333 1.6e-4 4.9998-0.625 5-1.875l-3.125-8.75-3.125-9.375-6.25-5.625 0.625-2.5h5c-0.83281-4.1666-3.9584-8.5416-9.375-13.125-1.25-0.41719-2.9167-1.6666-5-3.75-5.0002-3.7498-7.7084-8.9581-8.125-15.625l3.125-0.625 1.875 7.5 3.125 2.5 1.25 1.875c1.25 2.0834 2.9166 3.1252 5 3.125 1.25 1.6e-4 2.4998-0.83281 3.75-2.5l-0.625-5h5l3.125-3.75 1.25-5.625h-5c-9.1667 0.41719-13.75-6.2498-13.75-20-1.6e-4 -17.916 5.8333-33.333 17.5-46.25 1.6666-2.4997 2.9166-4.3747 3.75-5.625 1.25-1.25 5.2081-4.3747 11.875-9.375l15.625-11.25c1.25-1.25 4.7916-2.9164 10.625-5l7.5-2.5c7.0831-2.9164 21.25-4.3747 42.5-4.375 11.666 3.1e-4 23.75 2.292 36.25 6.875l10.625 4.375h13.75l-13.75-7.5c-12.084-6.2497-26.667-9.7914-43.75-10.625l-14.375-0.625-5.625-0.625-11.875 1.875m1.25 16.25 1.875 3.125 1.875 0.625v-5.625c0.41562-0.41563 0.625-1.25 0.625-2.5-1.6e-4 -0.83281-0.625-1.6664-1.875-2.5-0.83438 3.1e-4 -1.25 0.20937-1.25 0.625l-1.25 6.25m-6.875-5-21.25 9.375-3.75 1.25c-5.0002 2.0836-7.5002 5.6253-7.5 10.625v3.125l0.625 38.125-0.625 64.375 3.125 4.375 3.125 1.875c7.0831 4.5834 13.333 6.8752 18.75 6.875 7.0831 1.6e-4 10.625-3.7498 10.625-11.25v-88.125c1.25-6.6664 3.5414-9.9997 6.875-10h160v-2.5c-3.1e-4 -5.4164-1.4594-11.041-4.375-16.875l-148.12 0.625-9.375-1.875c-2.9169-2.4997-4.3752-5.8331-4.375-10h-3.75m-41.875 20c-14.167 11.25-21.25 22.5-21.25 33.75-1.6e-4 3.7502 0.20781 6.2502 0.625 7.5 2.9166 3.7502 6.2498 6.6669 10 8.75v-5c4.1666 0.83281 6.4581 1.25 6.875 1.25 6.6666 1.6e-4 9.9998-3.7498 10-11.25-1.6e-4 -5.4164-2.0834-8.1247-6.25-8.125-1.6669 3.1e-4 -2.5002 0.625-2.5 1.875-1.6e-4 1.25 0.83281 2.0836 2.5 2.5-1.6e-4 4.5836-1.8752 6.8752-5.625 6.875-4.5834 1.6e-4 -6.8752-2.7081-6.875-8.125-1.6e-4 -10.416 3.3333-18.333 10-23.75 2.0831-2.0831 3.1248-3.5414 3.125-4.375-1.6e-4 -0.83281-0.20781-1.4578-0.625-1.875m281.88 12.5-26.875 0.625-8.75-0.625-1.875 6.25 57.5 0.625v-5.625l-20-1.25m-233.75 16.25v5l0.625 8.125-0.625 19.375 0.625 6.875v11.875l-0.625 10.625c0.41719 0.41719 1.25 0.625 2.5 0.625 1.25 1.6e-4 1.8748-0.41719 1.875-1.25l0.625-1.875 0.625-66.875 1.875-3.125h153.12c2.9162 3.1e-4 4.3747-1.0406 4.375-3.125-3.1e-4 -1.25-0.625-1.8747-1.875-1.875h-144.38c-9.1669 3.1e-4 -14.375 0.41719-15.625 1.25-1.25 0.83437-1.8752 2.7086-1.875 5.625v1.875c-1.6e-4 0.83437-0.20938 1.8753-0.625 3.125-1.6e-4 0.83437-0.20938 2.0836-0.625 3.75m11.25-6.875-2.5 5h5.625c17.916 3.1e-4 35.416 6.2503 52.5 18.75v-1.25c2.9164-1.6664 4.3747-3.5414 4.375-5.625-3.1e-4 -2.0831-3.1253-4.3748-9.375-6.875l-15.625-6.875c-0.41719-0.41563-3.3336-1.25-8.75-2.5l-26.25-0.625m117.5 0-8.125 0.625 5.625 6.25 10.625 15.625 1.875 4.375 3.75 8.125 1.875 3.75c2.083 5.8336 3.5414 11.042 4.375 15.625 1.25 4.5836 2.083 8.5419 2.5 11.875l0.625 6.875v13.75c-3.1e-4 7.0834-1.0422 16.458-3.125 28.125 6.2497-1.25 9.583-5.8331 10-13.75l0.625-16.25c0.41562-36.25-9.792-64.583-30.625-85m48.75 1.875c-20.834 0.83437-31.25 3.9586-31.25 9.375-3.1e-4 2.0836 0.83281 3.1252 2.5 3.125 0.83281-0.41719 2.4997-0.83281 5-1.25 2.4997-0.83281 5.833-1.8747 10-3.125 4.1662-0.83281 8.7497-1.25 13.75-1.25 5.833 3.1e-4 9.9997 0.625 12.5 1.875 10.416 5.4169 16.25 8.1252 17.5 8.125 0.83281 1.6e-4 1.25-0.83281 1.25-2.5-4.7e-4 -6.2497-6.042-10.416-18.125-12.5l-13.125-1.875m-85.625 5.625c-1.6669 2.9169-2.5003 5.2086-2.5 6.875-3.1e-4 7.0836 1.6664 14.584 5 22.5 0.83281 1.25 1.4578 3.1252 1.875 5.625 0.83281 2.0836 1.6664 3.1252 2.5 3.125 1.25 1.6e-4 1.8747-0.83281 1.875-2.5-3.1e-4 -2.0831-0.83438-5.6248-2.5-10.625-1.6669-4.9998-2.5003-8.5414-2.5-10.625-3.1e-4 -6.6664 2.9164-9.9998 8.75-10 0.41562 1.6e-4 1.25 0.20937 2.5 0.625 1.25 1.6e-4 2.9164 0.20937 5 0.625l-2.5-8.125-1.25-0.625-7.5-1.875h-1.25l-0.625 0.625-6.875 4.375m234.38-4.375-11.25 5-2.5 1.25c-3.7505 2.9169-6.0422 6.2502-6.875 10v7.5l0.625 6.25 4.375 2.5c0.83281-1.25 1.8745-2.4998 3.125-3.75 1.25-1.25 2.2911-2.2914 3.125-3.125h1.875l2.5 6.25c2.9161 3.7502 6.2495 5.6252 10 5.625 1.25 1.6e-4 4.5828-2.0831 10-6.25 0.83281-0.83281 2.9161-2.2914 6.25-4.375-3.3339-2.4998-6.4589-3.7498-9.375-3.75-3.7505 1.6e-4 -6.2505 0.20937-7.5 0.625-3.3339-3.3331-5.0005-5.8331-5-7.5-4.7e-4 -4.9998 3.3328-7.4998 10-7.5 1.6661 1.6e-4 5.2078 1.0422 10.625 3.125l3.125 3.125 2.5 3.125c2.0828 5.4169 3.1245 9.1669 3.125 11.25-4.7e-4 6.6669-3.7505 14.375-11.25 23.125l-5 2.5c-4.1672 0.41719-6.2505 1.4578-6.25 3.125-4.7e-4 1.25 0.625 2.7084 1.875 4.375 17.916-4.1664 26.875-15.416 26.875-33.75-4.7e-4 -13.75-7.5005-22.916-22.5-27.5l-12.5-1.25m-249.38-0.625v6.25c0.41562 8.3336-4.5836 15.834-15 22.5l-4.375 4.375-11.875 7.5c-8.3336 5.8336-12.5 14.167-12.5 25-1.6e-4 0.83281-1.6e-4 2.0834 0 3.75 0.41719 1.25 0.83281 2.9169 1.25 5l0.625 3.75c2.4998 8.3334 7.9164 12.5 16.25 12.5 2.0831 1.6e-4 4.7914-0.41719 8.125-1.25l5.625-3.125 5.625-1.875c0.83281 0.83281 1.25 1.4578 1.25 1.875-3.1e-4 1.6669-1.6669 2.9169-5 3.75l-3.125 0.625-8.75 3.125h-5.625c-2.0836-1.25-3.7502-1.8748-5-1.875-0.83438 1.6e-4 -1.4578 0.20781-1.875 0.625 9.1664 10 20.208 15 33.125 15l16.875-0.625c3.3331 1.6e-4 7.4997 0.83281 12.5 2.5 4.1664 1.6669 6.6664 5.2084 7.5 10.625h3.125c0.41719-0.41719 1.25-1.4578 2.5-3.125 1.6664-2.0833 2.4997-4.9998 2.5-8.75l-1.875-6.25-5.625-3.75c1.25-1.6666 1.8747-3.1248 1.875-4.375-3.1e-4 -3.3331-3.542-5.4166-10.625-6.25l-8.125 2.5h1.25l-5 1.25-11.875 5c-0.41719 0.41719-1.4578 0.625-3.125 0.625-2.5003 1.6e-4 -3.7503-1.0422-3.75-3.125-3.1e-4 -1.25 1.25-1.8748 3.75-1.875l6.875-0.625c2.9164 1.6e-4 5.8331-1.0422 8.75-3.125 3.3331-2.4998 4.9997-4.9998 5-7.5-3.1e-4 -1.6666-1.25-2.4998-3.75-2.5h-1.875c7.0831-4.9998 10.625-10.417 10.625-16.25v-3.125c-3.1e-4 -2.0831-0.20938-3.7498-0.625-5-3.3336 3.3336-7.0836 5.4169-11.25 6.25h-12.5c-1.25 4.1669-3.5419 6.2502-6.875 6.25l3.125-8.125-5.625 0.625-6.25 5.625-4.375 8.125c-1.25 2.0834-2.7086 3.1252-4.375 3.125-1.6669 1.6e-4 -2.7086-0.20781-3.125-0.625-0.83281-3.3331-1.25-4.9998-1.25-5-3.1e-4 -3.7498 6.2497-8.1248 18.75-13.125 6.6664-2.4998 11.041-5.4164 13.125-8.75 2.0831-3.3331 3.7497-9.3748 5-18.125-2.9169 1.6e-4 -5.0003 1.0422-6.25 3.125l-2.5-1.875c5.8331-7.0831 8.7497-12.708 8.75-16.875-3.1e-4 -4.5831-3.3336-9.3747-10-14.375m159.38 1.875c-4.167 0.41719-6.667 1.8753-7.5 4.375v4.375c-1.25-0.41563-2.917-0.625-5-0.625h-3.125c-4.5838 1.6e-4 -8.7505 2.5002-12.5 7.5h-1.25c-5.0003 1.6e-4 -7.5003 4.1669-7.5 12.5-3.1e-4 5.4169 1.6662 8.7502 5 10l10 4.375 1.25 1.875h0.625c1.25 1.6e-4 1.8745-1.0406 1.875-3.125v-1.875c-0.41719-0.41719-1.0422-1.0406-1.875-1.875-0.41719-1.25-1.4594-2.7081-3.125-4.375-2.0838-2.0831-3.1255-4.5831-3.125-7.5-4.7e-4 -6.6664 4.3745-9.9998 13.125-10 4.9995 1.6e-4 9.3745 2.5002 13.125 7.5 1.25 3.7502 1.8745 6.6669 1.875 8.75-4.7e-4 0.83437-1.0422 3.7502-3.125 8.75l-1.875 3.125-7.5 6.25-13.125 9.375-3.125 3.125-2.5 0.625-6.875 7.5-4.375 3.75-6.25 8.125-6.875 11.25 5-5 13.125-15 4.375-3.75 30.625-17.5c7.4995-4.1664 11.25-11.875 11.25-23.125-4.7e-4 -2.9164-0.20938-4.5831-0.625-5l-8.75-16.25 0.625-7.5-1.875-0.625m-216.25 5.625c-5.0002 2.0836-7.5002 5.0002-7.5 8.75-1.6e-4 4.5836 2.7081 6.6669 8.125 6.25h0.625v-1.25c-0.41719-6.6664 4.9998-9.9998 16.25-10 2.0831 1.6e-4 6.0414 0.625 11.875 1.875-12.084-4.5831-19.792-6.6664-23.125-6.25h-3.125l-3.125 0.625m133.12 7.5c0.83281 2.0836 1.4578 3.1252 1.875 3.125 0.83281-0.41719 2.4997-1.0406 5-1.875 2.4997-0.83281 5.4162-1.8748 8.75-3.125 0.41562-0.41719 2.9162-0.625 7.5-0.625 7.4997 1.6e-4 14.583 2.0836 21.25 6.25 0.83281-2.4998 1.25-3.5414 1.25-3.125-3.1e-4 -2.9164-4.5838-5.2081-13.75-6.875-0.83438-0.41719-3.9588-0.625-9.375-0.625-5.417 3.1e-4 -10.625 0.625-15.625 1.875-4.5838 0.83281-6.8753 2.5002-6.875 5m-32.5 14.375c-2.5003-1.6664-3.7503-3.5414-3.75-5.625-3.1e-4 -4.1664 2.083-6.2498 6.25-6.25 2.9164 1.6e-4 6.458 1.4578 10.625 4.375-3.7503-7.0831-7.917-10.625-12.5-10.625-7.5003 1.6e-4 -11.25 3.1252-11.25 9.375-3.1e-4 6.2502 2.708 9.3752 8.125 9.375l2.5-0.625m56.875-14.375-6.875 1.25 1.25 3.75-1.25 0.625c-2.0838-3.3331-3.542-4.9998-4.375-5 0.41562 1.6e-4 -1.0422 0.41719-4.375 1.25l3.125 6.25 1.875 1.25 0.625 3.125 8.75-1.25 10 2.5 4.375-6.25 2.5-3.125-4.375-2.5c-0.83438 3.3336-1.667 5.0002-2.5 5h-1.875c1.25-1.6664 1.8747-3.1248 1.875-4.375-3.1e-4 -0.41719-0.625-0.83281-1.875-1.25-1.25-0.83281-2.0838-1.25-2.5-1.25-0.83438 1.6e-4 -1.25 1.4578-1.25 4.375h-3.125v-4.375m-141.88 0-3.75 2.5-3.125 5-3.75 4.375-3.125 5.625-0.625-11.25-1.875 9.375-4.375-3.125-3.75 9.375c-0.41719 2.0836-0.83438 3.7502-1.25 5-1.6e-4 1.25-1.6e-4 2.0836 0 2.5-1.6e-4 2.0836 1.25 4.7919 3.75 8.125 2.9164 3.3336 6.8748 5.8336 11.875 7.5-1.6669-2.9164-2.5002-5.4164-2.5-7.5-1.6e-4 -1.6664 0.83281-2.4998 2.5-2.5 1.25 1.6e-4 1.8748 1.6669 1.875 5v1.25c0.83281-3.7498 1.0406-5.8331 0.625-6.25v-3.125c-1.6e-4 -3.3331 0.83281-4.9998 2.5-5 0.83281 1.6e-4 1.25 0.41719 1.25 1.25-1.6e-4 2.5002-0.20781 4.3752-0.625 5.625l0.625 3.75c2.9164-3.3331 5.4164-7.2914 7.5-11.875 0.83281-3.3331 1.25-6.4581 1.25-9.375-1.6e-4 -4.9998-1.6669-10.416-5-16.25m-95.625 44.375 1.25 0.625c-0.41719 0.83437-0.625 2.5002-0.625 5-1.6e-4 0.41719-1.6e-4 1.25 0 2.5 0.41719 0.83281 0.83281 2.2919 1.25 4.375l2.5 7.5c6.6666 13.75 15.625 22.292 26.875 25.625l10 2.5 5 0.625v-0.625c-1.6e-4 1.25-1.8752-0.41719-5.625-5l3.75-3.125c-3.3334-0.41719-6.4584-1.0422-9.375-1.875-2.5002-1.25-5.2084-2.7081-8.125-4.375l-5-3.75c-8.3334-8.3331-12.5-18.75-12.5-31.25-1.6e-4 -4.1664 0.625-7.9164 1.875-11.25l6.25-13.125-0.625-5-0.625-5.625-5.625 9.375-3.75 6.875-3.125 5.625-0.625 3.75-2.5 6.25-0.625 4.375m223.75-20.625 1.875 2.5 1.25 0.625c2.4997-3.7498 6.2497-5.6248 11.25-5.625 2.4997 1.6e-4 4.7912 0.625 6.875 1.875l5 5c1.6662 1.6e-4 2.4997-1.4578 2.5-4.375-3.1e-4 -4.9998-3.1253-8.1248-9.375-9.375l-3.75-0.625 0.625-0.625h-1.875v-0.625h-0.625v0.625l-6.25 0.625c-4.5838 1.6e-4 -7.0838 3.3336-7.5 10m-236.25-9.375c-1.6667 1.6669-2.5002 3.9586-2.5 6.875-1.6e-4 1.6e-4 -1.6e-4 0.20937 0 0.625 0.41719 0.41719 0.83281 1.0422 1.25 1.875 1.6666 3.7502 4.1666 5.6252 7.5 5.625 4.9998 1.6e-4 8.7498-3.9581 11.25-11.875-4.5834 3.3336-8.1252 5.0002-10.625 5-4.1667 1.6e-4 -6.4584-2.7081-6.875-8.125m191.88 3.75c-2.0836 0.83281-3.1253 2.0836-3.125 3.75-3.1e-4 2.9169 1.8747 4.3752 5.625 4.375 3.333 1.6e-4 4.9997-1.4578 5-4.375-3.1e-4 -2.4998-2.0836-3.7498-6.25-3.75h-1.25m-30.625 1.25v4.375l-2.5 6.875 3.125 6.25c4.1664-1.25 6.2497-2.7081 6.25-4.375-3.1e-4 -4.1664-2.2919-8.5414-6.875-13.125m43.75 5c1.6664 2.5002 3.5414 3.7502 5.625 3.75 1.6664 1.6e-4 2.4997-1.0422 2.5-3.125-3.1e-4 -3.3331-1.0422-4.9998-3.125-5l-4.375-0.625-0.625 5m43.125-0.625c-4.167 0.41719-6.2503 2.2919-6.25 5.625v2.5c3.7497-1.25 6.458-1.8748 8.125-1.875 2.9162 1.6e-4 5.833 0.83281 8.75 2.5 0.41562-1.25 0.625-2.0831 0.625-2.5 0.41562-0.83281 0.625-1.25 0.625-1.25-3.1e-4 -3.7498-3.3338-5.6248-10-5.625h-1.25l-0.625 0.625m-46.25 3.125c-1.667 0.41719-2.5003 1.8752-2.5 4.375-3.1e-4 3.7502 1.4578 5.6252 4.375 5.625 2.9164 1.6e-4 4.3747-1.4578 4.375-4.375-3.1e-4 -3.7498-1.8753-5.6248-5.625-5.625h-0.625m-34.375 8.75-5 4.375 2.5 1.25c4.9997-3.7498 8.7497-6.0414 11.25-6.875 2.4997-0.83281 6.0414-1.25 10.625-1.25h8.75c-0.83438-3.7498-2.917-5.6248-6.25-5.625-7.917 1.6e-4 -15.209 2.7086-21.875 8.125m231.88-6.875c-0.41719 3.7502-2.7089 6.6669-6.875 8.75-3.7505 2.0836-7.0839 3.1252-10 3.125l-4.375-0.625v11.25h5l8.125 2.5h1.25c6.2495 1.6e-4 9.3745-2.0831 9.375-6.25l-0.625-0.625-1.875-3.75 6.875-3.75c0.41562-0.41563 0.625-0.83281 0.625-1.25-4.7e-4 -0.83281 0.20781-1.4578 0.625-1.875-4.7e-4 -3.3331-2.7089-5.8331-8.125-7.5m-188.75 9.375c1.6664 1.25 2.9164 1.8752 3.75 1.875 1.6664 1.6e-4 2.4997-1.4578 2.5-4.375-3.1e-4 -2.9164-1.0422-4.3748-3.125-4.375-2.0836 1.6e-4 -3.1253 1.6669-3.125 5v1.875m33.125-3.125-0.625 8.75-5.625 32.5c-0.41719 0.83281-1.4594 3.7502-3.125 8.75-1.25 5.0002-1.8753 8.1252-1.875 9.375-3.1e-4 1.25 0.625 3.3334 1.875 6.25l3.125 2.5 1.875-5 3.75-11.875 4.375-13.125 6.875-34.375c0.41562-0.41719 0.625-1.4578 0.625-3.125-3.1e-4 -1.6664-1.0422-2.4998-3.125-2.5l-1.875 0.625-6.25 1.25m-51.25 1.25c-3.7503 1.6e-4 -5.6253 1.4578-5.625 4.375-3.1e-4 2.0836 1.8747 3.1252 5.625 3.125 3.333 1.6e-4 4.9997-1.6664 5-5-3.1e-4 -2.0831-1.4578-3.1248-4.375-3.125l-0.625 0.625m61.25 28.75c4.9997-13.333 10.625-20 16.875-20 0.83281 1.6e-4 1.8747 0.83437 3.125 2.5 1.25-1.25 1.8747-2.4998 1.875-3.75-3.1e-4 -3.3331-2.0838-4.9998-6.25-5-2.917 1.6e-4 -5.2088 1.4578-6.875 4.375l-4.375 6.25-1.875 2.5v3.125l-1.875 4.375-0.625 5.625m33.125-10.625-6.25 3.125-3.125 2.5-8.75 9.375-10.625 11.875-6.25 10-4.375 6.25-5 8.75-1.25 3.75-1.875 1.875v14.375l3.75-6.25 6.25-13.75 8.125-12.5 13.125-16.25 10.625-11.25 15-10c4.583-3.3331 9.583-4.9998 15-5 8.333-0.83281 12.291-2.7081 11.875-5.625v-6.875h-1.25l-6.875 1.875-15.625 5.625-4.375 3.125-4.375 1.25-3.75 3.75m-83.75-13.75c-1.25 0.41719-2.5003 1.25-3.75 2.5v1.25c-3.1e-4 2.5002 1.25 3.7502 3.75 3.75 4.1664 1.6e-4 6.2497-1.4578 6.25-4.375-3.1e-4 -2.0831-1.8753-3.1248-5.625-3.125h-0.625m221.88 3.75c-2.5005 0.83437-3.7505 1.8752-3.75 3.125-4.7e-4 2.9169 1.25 4.3752 3.75 4.375 2.4995 1.6e-4 3.7495-1.25 3.75-3.75-4.7e-4 -1.6666-1.25-2.9164-3.75-3.75m-348.12 15.625c1.25 1.6669 3.1248 2.5002 5.625 2.5h1.25l0.625 1.875c-5.0002 1.6e-4 -8.5419 1.6669-10.625 5-1.6669 3.3334-2.9169 5.8334-3.75 7.5-0.41719 1.6669-0.625 2.5002-0.625 2.5l-10 9.375 2.5 1.875c2.9166 2.9169 6.8748 4.3752 11.875 4.375 4.1664 1.6e-4 9.1664-1.6666 15-5h2.5c-1.25 4.1669-3.5419 7.9169-6.875 11.25l9.375 1.875c12.5-2.9166 18.75-9.9998 18.75-21.25v-1.25c-2.0836-4.5831-5.4169-6.8748-10-6.875h-1.875l-9.375 3.125 1.25-0.625-2.5 0.625v-0.625c-1.6e-4 -1.6666 1.6664-2.9166 5-3.75 5.4164-1.25 8.1248-4.9998 8.125-11.25-1.6e-4 -2.9166-2.5002-4.7916-7.5-5.625v-1.25l5-1.25-3.75-5-3.125-1.25v-0.625l-3.75 0.625-5 1.25-1.875 1.25-2.5 1.875-1.875 2.5-3.125 2.5 1.25 3.75m353.75-8.125c-2.0839 2.0834-3.1255 3.7502-3.125 5-4.7e-4 2.0834 1.25 3.1252 3.75 3.125l3.125-1.25 1.875-3.75-0.625-0.625-1.25-2.5h-3.75m-52.5 1.25-0.625 8.125c3.7495 2.0834 9.3745 6.4584 16.875 13.125 3.7495 4.5834 5.6245 8.7502 5.625 12.5-4.7e-4 5.4169-2.0839 10.208-6.25 14.375-4.1672 0.83281-6.0422 1.25-5.625 1.25-2.5005 1.6e-4 -3.7505-1.0422-3.75-3.125l8.125-8.125c0.41562-0.41719 0.625-1.4578 0.625-3.125-4.7e-4 -4.9998-2.0839-7.4998-6.25-7.5-0.41719 1.6e-4 -2.2922 0.41719-5.625 1.25 2.4995 2.0834 3.7495 3.9584 3.75 5.625-4.7e-4 2.5002-1.8755 5.8334-5.625 10v3.75c-0.41719 6.6667 3.3328 10 11.25 10 4.5828 1.6e-4 8.3328-2.7083 11.25-8.125l1.25-8.125h0.625c2.4995 1.6e-4 4.1661-0.41719 5-1.25l0.625-3.75v-3.125l-0.625-11.875c-0.41719-7.9166-6.2505-13.542-17.5-16.875l1.25-1.25-5.625-1.25-8.75-2.5m-180.62 0.625c0.41719 2.9169 1.8747 5.2084 4.375 6.875v0.625c-8.7503 0.83281-13.125 5.4169-13.125 13.75-3.1e-4 2.9169 1.8747 5.6252 5.625 8.125 1.25 1.25 2.2914 1.8752 3.125 1.875 0.41719 1.6e-4 1.0406-0.41719 1.875-1.25-0.83438-0.83281-1.667-2.0831-2.5-3.75-0.41719-1.6666-0.625-2.4998-0.625-2.5-3.1e-4 -4.1666 2.708-6.2498 8.125-6.25 3.7497 1.6e-4 7.083 2.7084 10 8.125 1.6664 3.3334 2.4997 6.4584 2.5 9.375-3.1e-4 3.3334-0.83438 6.8752-2.5 10.625v1.875c4.1664-1.25 6.2497-7.4998 6.25-18.75-3.1e-4 -15.417-7.7086-25-23.125-28.75m201.88 3.125 0.625 1.25c5.4161 0.83281 9.3745 1.6669 11.875 2.5 2.9161 0.41719 4.3745 0.625 4.375 0.625 4.1661 1.6e-4 6.2495-1.4578 6.25-4.375-4.7e-4 -1.6666-1.25-2.4998-3.75-2.5l-5.625 0.625-13.75 1.875m-225 0.625-3.125 3.125c1.6664 1.6669 2.4997 3.3334 2.5 5-3.1e-4 0.41719-1.0422 2.2919-3.125 5.625 3.333 1.6e-4 4.9997-1.0422 5-3.125v-2.5c-0.41719-0.41719-0.625-1.4578-0.625-3.125-3.1e-4 -2.0831-0.20938-3.7498-0.625-5m121.25 3.125-11.25 5.625c10.416-1.25 15.208-1.8748 14.375-1.875 8.333 1.6e-4 12.5 3.3334 12.5 10-4.7e-4 6.6669-2.917 9.5834-8.75 8.75h-3.75v1.25c-4.7e-4 1.6669 2.4995 2.5002 7.5 2.5 7.4995 1.6e-4 11.25-4.3748 11.25-13.125-4.7e-4 -9.9998-5.417-14.583-16.25-13.75l-5.625 0.625m125.62 5.625c1.6661 2.5002 3.3328 3.7502 5 3.75 2.0828 1.6e-4 3.1245-1.25 3.125-3.75-4.7e-4 -3.3331-1.25-4.9998-3.75-5-2.0839 1.6e-4 -3.5422 1.6669-4.375 5m-16.25-2.5 8.75 11.25c5.8328 4.5834 9.7911 6.8752 11.875 6.875 4.1661 1.6e-4 6.6661-1.25 7.5-3.75v-2.5l-7.5 1.25-5.625-1.875-3.125-1.875c-1.6672-1.6666-3.5422-3.1248-5.625-4.375-2.0839-1.6666-4.1672-3.3331-6.25-5m8.125 11.875 5 20c2.9161 6.2502 4.3745 11.875 4.375 16.875-4.7e-4 5.8334-1.0422 11.25-3.125 16.25l-4.375 8.125-1.25 2.5-3.125 2.5-1.25 2.5-3.75 2.5-5.625 5-8.125 3.125c-0.83438 0.83281-1.25 1.4578-1.25 1.875-4.7e-4 0.83281 1.0406 1.6667 3.125 2.5l4.375 2.5h1.25c3.7495 0 7.0828-2.0833 10-6.25 0.83281-1.25 1.6661-2.2916 2.5-3.125l1.875-1.875c2.0828-1.6666 3.5411-2.9166 4.375-3.75 1.25-1.25 2.0828-2.0833 2.5-2.5l0.625-3.125 6.25-13.75c1.25-1.6666 1.8745-7.2916 1.875-16.875-4.7e-4 -10.833-3.7505-20.625-11.25-29.375l-5-5.625m-126.88 5.625-0.625 5c-2.0838-0.41719-3.7505-0.625-5-0.625-1.25-0.41719-2.292-0.625-3.125-0.625-6.2503 1.6e-4 -10.209 4.5834-11.875 13.75 0.83281 5.0002 3.5412 8.5417 8.125 10.625-1.25-2.9166-1.8753-5.2083-1.875-6.875-3.1e-4 -6.6666 3.7497-9.9998 11.25-10 2.083 1.6e-4 4.7912 1.0422 8.125 3.125 3.7495 4.5834 5.6245 9.7917 5.625 15.625v9.375l1.875-6.25 3.125-8.75c0.41562-0.83281 0.625-2.9166 0.625-6.25-4.7e-4 -9.9998-5.417-16.042-16.25-18.125m13.75 56.25c2.083 5.4167 5.208 10.833 9.375 16.25 3.333-0.83281 4.9995-2.2916 5-4.375l-0.625-0.625c-1.25-1.6666-3.1255-4.3748-5.625-8.125-2.0838-4.1666-3.1255-8.7498-3.125-13.75-4.7e-4 -7.4998 2.708-13.958 8.125-19.375 5.833-5.8333 12.5-8.7498 20-8.75 9.9995 1.6e-4 15 5.0002 15 15-4.7e-4 2.5002-1.4594 5.2084-4.375 8.125l-1.875 0.625c0.41562 1.25 1.0406 1.8752 1.875 1.875 3.7495 1.6e-4 7.2912-2.2916 10.625-6.875 1.25-2.4998 1.8745-5.4166 1.875-8.75-4.7e-4 -4.1666-2.5005-8.5416-7.5-13.125l-0.625-1.875c4.5828-2.0831 6.8745-3.3331 6.875-3.75-4.7e-4 -1.25-2.2922-2.4998-6.875-3.75-4.5838-1.6666-7.7088-2.4998-9.375-2.5-11.25 1.6e-4 -20.834 4.5834-28.75 13.75-7.917 8.7502-11.875 19.375-11.875 31.875-4.7e-4 2.5002 0.625 5.2084 1.875 8.125m-181.25-50.625 2.5 6.875 1.25 2.5-2.5 1.25c-0.83281-1.6666-1.4578-2.9166-1.875-3.75-0.41719-0.83281-0.83438-1.6666-1.25-2.5-2.0836 1.6e-4 -3.1252 2.7084-3.125 8.125-1.6e-4 1.25-1.6e-4 2.5002 0 3.75 0.41719 1.25 0.83281 2.7084 1.25 4.375 2.0831 2.5002 5.4164 4.7917 10 6.875l0.625-5.625 5 3.75c3.7497 1.25 6.6664 1.8752 8.75 1.875 4.5831 1.6e-4 6.4581-1.0422 5.625-3.125-3.1e-4 -2.9166-1.4578-5.8333-4.375-8.75-4.1669-4.9998-6.6669-7.9166-7.5-8.75-0.83438-0.83281-3.3336-2.2916-7.5-4.375 0.41719 2.0834 1.6664 4.5834 3.75 7.5-3.1e-4 1.25-0.41719 1.8752-1.25 1.875-0.83438 1.6e-4 -1.25-0.20781-1.25-0.625l-5-8.125-3.125-3.125m-85 1.875 0.625 34.375v5.625c-3.7502 21.667-15.417 34.167-35 37.5l-8.125 1.25c-2.9167 0.41719-4.3752 1.4578-4.375 3.125-1.6e-4 2.5 3.3333 4.375 10 5.625 2.0833 0.41719 3.9583 0.83281 5.625 1.25h4.375l43.75-2.5 28.125 2.5 22.5 1.25 10.625 0.625c4.9998-0.41719 7.4998-2.5 7.5-6.25-1.6e-4 -1.6666-0.41719-2.5-1.25-2.5l-19.375-4.375c-0.83438-0.41719-2.2919-0.83281-4.375-1.25-2.0836-0.83281-4.7919-1.6666-8.125-2.5l-6.25-6.875-2.5-3.125c-5.8336-11.25-8.5419-19.792-8.125-25.625v-6.25c0.41719-1.25 0.625-3.1248 0.625-5.625v-16.25h-5.625l-11.25-0.625-8.125-3.125c-4.5834-1.25-8.3334-3.3331-11.25-6.25m379.38 3.75 1.25 16.25c0.41562 1.6667 0.625 3.1252 0.625 4.375-4.7e-4 0.83281-4.7e-4 1.6667 0 2.5v1.25c-4.7e-4 6.6667-3.5422 12.292-10.625 16.875-2.0839 1.25-4.7922 1.8752-8.125 1.875-7.5005 1.6e-4 -11.25-2.9166-11.25-8.75-4.7e-4 -2.0833 2.4995-5.4166 7.5-10h-1.875c-3.3339 1.6e-4 -6.6672 1.6667-10 5-1.25 2.0834-1.8755 4.5834-1.875 7.5-4.7e-4 10 5.4161 15 16.25 15 6.6661 1.6e-4 12.291-3.1248 16.875-9.375 4.9995-6.2498 7.4995-13.75 7.5-22.5-4.7e-4 -7.9166-2.0839-14.583-6.25-20m-56.875 0.625-3.75 2.5 3.125 3.75h1.875c0.41562-0.41719 0.625-1.0422 0.625-1.875-4.7e-4 -0.83281-0.625-2.2916-1.875-4.375m-333.75 13.125c-2.5002 2.5002-4.7919 3.7502-6.875 3.75 0.41719 1.6e-4 -2.9167-1.0422-10-3.125h-2.5c-0.41719 1.6e-4 -0.625 0.20781-0.625 0.625-1.6e-4 1.6667 1.4578 3.3334 4.375 5l5.625 3.75 6.875-0.625 3.125 0.625c4.5831-0.83281 6.8748-4.9998 6.875-12.5-1.6e-4 -6.2498-1.6669-9.3748-5-9.375h-1.875l1.25 8.125-1.25 3.75m138.75-10.625-1.875 5.625-9.375 12.5-6.875 6.875c2.9164 1.6667 5.4164 2.5002 7.5 2.5 1.6664 1.6e-4 3.5414-1.6666 5.625-5 1.25-1.6666 3.7497-4.7916 7.5-9.375 3.7497-4.9998 5.6247-9.1666 5.625-12.5-3.1e-4 -0.83281-0.83438-1.25-2.5-1.25-2.9169 1.6e-4 -4.7919 0.20781-5.625 0.625m-88.125 3.125 0.625 36.875 3.75 11.25 2.5 3.75 3.125 4.375 2.5 2.5 5 3.75v-1.25c-1.6e-4 -0.83281-1.25-2.2916-3.75-4.375-6.6669-5-10-15.833-10-32.5-1.6e-4 -3.3333-1.6e-4 -6.8748 0-10.625 0.41562-4.1666 0.83281-8.5416 1.25-13.125l-5-0.625m133.12 15.625c-0.83438 1.25-1.8753 3.5417-3.125 6.875-1.25 3.3334-2.0836 5.0002-2.5 5-1.25 1.6e-4 -1.8753-0.20781-1.875-0.625l-1.875-10.625-5 2.5c-6.2503 5.8334-10 18.333-11.25 37.5-3.1e-4 2.5-1.0422 4.375-3.125 5.625l1.25-1.25-3.125-0.625 0.625-5 0.625-6.25v-3.125c-3.1e-4 -6.2498-2.0836-11.458-6.25-15.625-1.25-2.4998-3.9586-3.7498-8.125-3.75l-4.375-0.625-0.625 3.125c-3.1e-4 0.83281 0.83281 2.0834 2.5 3.75v1.25c-3.1e-4 1.25-0.625 1.8752-1.875 1.875l-1.875-2.5-4.375-3.125-2.5-3.125-4.375-0.625-9.375-0.625-5 2.5-3.75 0.625v2.5l1.875 3.75 5.625 3.125-1.25 1.875c-1.25 1.6e-4 -2.0836-0.20781-2.5-0.625h-3.75l-4.375-0.625c-7.5002 1.6e-4 -11.25 3.9584-11.25 11.875-1.6e-4 0.41719-1.6e-4 1.25 0 2.5 0.41719 1.25 0.83281 2.9167 1.25 5l2.5 1.875c3.3331-5.8333 6.8747-8.7498 10.625-8.75 7.4997 1.6e-4 13.75 3.75 18.75 11.25 0.41719 1.25 1.6664 2.9167 3.75 5l2.5 5c0.83281 3.3334 3.1247 8.125 6.875 14.375l1.875 2.5 3.75 3.125c4.1664 3.75 7.7081 5.625 10.625 5.625 7.4997 0 12.291-1.25 14.375-3.75l3.125-4.375 5-6.25c0.41562-0.41719 1.6664-3.5416 3.75-9.375 2.083-4.5833 3.7497-6.875 5-6.875 0.83281 0 1.25 0.625 1.25 1.875-0.41719 1.6667-1.0422 3.9584-1.875 6.875-0.83438 2.9167-3.3336 7.7084-7.5 14.375-2.5003 2.5-3.7503 4.375-3.75 5.625-3.1e-4 1.6667 1.6664 2.5 5 2.5-3.1e-4 0 1.6664-0.41719 5-1.25l-4.375-1.875v-2.5l8.125 2.5 0.625 1.875h-3.75l5.625 0.625c7.9164 0 14.166-2.2916 18.75-6.875l10.625-9.375 3.125-1.875 20.625-22.5c4.1662-5.4166 9.7912-8.1248 16.875-8.125 4.1662 1.6e-4 6.2495 2.2917 6.25 6.875l-0.625 4.375c-1.667 0.41719-2.917 0.83281-3.75 1.25-0.83438 0.41719-1.667 0.83281-2.5 1.25-10.834 3.75-19.167 9.1667-25 16.25-3.3338 7.9167-5.0003 14.375-5 19.375-3.1e-4 4.5834 2.708 8.75 8.125 12.5 1.25 1.25 2.2912 1.875 3.125 1.875l9.375 1.875-1.875-3.125v-1.875l6.25 2.5c2.9162 1.25 6.0412 1.875 9.375 1.875 2.4995 0 4.7912-0.625 6.875-1.875l20-13.125c3.333-2.0833 6.6662-3.125 10-3.125 4.9995 0 7.4995 1.875 7.5 5.625h-0.625l-1.25 2.5v6.25c2.4995 2.9167 4.7912 4.375 6.875 4.375 2.0828 0 4.7912-0.625 8.125-1.875l1.25 0.625 3.75-5.625c4.1662-6.25 8.5412-9.375 13.125-9.375 0.83281 0 1.25 0.20781 1.25 0.625l3.125 5h1.25c0.83281 0 1.25-0.41719 1.25-1.25v-0.625l-1.25-6.25h-0.625c-2.9172-1.6666-5.4172-2.5-7.5-2.5-3.7505 0-6.2505 0.83281-7.5 2.5l-9.375 10.625c-1.25 1.6667-2.7088 2.5-4.375 2.5-1.6672 0-2.7088-0.625-3.125-1.875l-0.625-1.25v-10.625l-5.625-3.125-11.25 0.625-20.625 11.25c-2.917 1.6667-5.8338 2.5-8.75 2.5-2.917 0-6.4588-0.625-10.625-1.875l-5-2.5c-3.7503-5-5.6253-9.1666-5.625-12.5-3.1e-4 -8.3333 2.2912-13.75 6.875-16.25l17.5-10c1.25-1.6666 2.4995-3.3333 3.75-5 1.25-1.6666 2.708-3.5416 4.375-5.625l-0.625-8.125-0.625-2.5-4.375-5.625c-2.917-1.6666-6.042-2.4998-9.375-2.5-0.41719 1.6e-4 -3.7503 1.25-10 3.75l-3.75-0.625 3.75-6.25v-4.375c-1.25-0.41719-3.7503-0.625-7.5-0.625-2.5003 1.6e-4 -5.8338 1.4578-10 4.375l-1.875 1.25v1.25l-4.375 5.625-10.625 23.75-4.375 5c-2.917 4.1667-5.2088 6.25-6.875 6.25h-1.25c-0.41719-0.41719-1.25-0.83281-2.5-1.25l3.75-5.625 6.25-5.625 3.125-5.625 2.5-5c2.4997-5.8333 3.7497-9.1666 3.75-10 0.41562-1.25 0.83281-3.5416 1.25-6.875h-1.875c-2.0838 1.6e-4 -4.167 2.2917-6.25 6.875h-1.25l1.25-0.625-2.5 0.625c2.083-8.3333 3.1247-13.75 3.125-16.25-3.1e-4 -15.417-2.5003-23.125-7.5-23.125-0.83438 1.6e-4 -4.167 1.6667-10 5l-6.875 4.375-4.375 5m-23.125-10-6.25 0.625c-4.5836 2.0834-8.5419 4.7917-11.875 8.125-0.83438 0.83281-1.6669 1.8752-2.5 3.125-0.83438 1.25-1.6669 2.5002-2.5 3.75-3.1e-4 1.25 1.0406 1.8752 3.125 1.875 1.25 1.6e-4 3.1247-1.6666 5.625-5 2.9164-3.7498 6.0414-5.4166 9.375-5h2.5l1.25 7.5c2.9164-2.9166 4.3747-5.8333 4.375-8.75-3.1e-4 -1.6666-1.4578-2.4998-4.375-2.5l1.25-3.75m-87.5 0.625-8.75 5.625c-2.5002 3.3334-3.7502 6.4584-3.75 9.375-1.6e-4 6.2502 2.2914 9.3752 6.875 9.375l4.375-0.625 1.25-1.875c-4.1669-1.25-6.2502-3.1248-6.25-5.625-1.6e-4 -4.1666 2.2914-6.2498 6.875-6.25-0.41719 1.6e-4 1.4578 0.41719 5.625 1.25 2.4998 3.3334 3.7498 5.8334 3.75 7.5-1.6e-4 9.1667-7.5002 13.75-22.5 13.75-1.6e-4 3.3334 1.0406 4.5834 3.125 3.75h2.5l8.75-0.625 10.625-5 4.375-3.75v-3.125h2.5c1.25-0.41719 1.8748-2.7083 1.875-6.875-1.6e-4 -6.2498-2.7086-11.25-8.125-15l-1.875 5.625c-1.25-2.4998-3.1252-4.3748-5.625-5.625l-5.625-1.875m150.62 23.75c6.6662-9.9998 12.916-15 18.75-15 1.25 1.6e-4 3.1247 1.25 5.625 3.75-1.25-6.2498-3.7503-9.3748-7.5-9.375-2.917 1.6e-4 -5.6253 1.4578-8.125 4.375l-3.125 4.375c-1.667 2.0834-2.917 3.7502-3.75 5-0.83438 0.83281-1.4594 1.4578-1.875 1.875v5m-241.25-11.875 3.125 10c1.6666 1.25 2.9166 2.2917 3.75 3.125 1.25 0.83281 2.2916 1.6667 3.125 2.5 4.1666 3.7502 7.2916 5.6252 9.375 5.625 3.3331 1.6e-4 4.9998-1.6666 5-5-1.6e-4 -0.83281-2.2919-2.2916-6.875-4.375-0.41719-0.41719-1.25-0.83281-2.5-1.25-0.83281-0.83281-2.2919-2.0833-4.375-3.75l-10.625-6.875m3.125 15.625-0.625 3.125c-1.6e-4 5.0002 2.7083 7.5002 8.125 7.5l6.25 3.75 2.5-3.75-16.25-10.625m418.75 0-5 11.875-5.625 8.75-4.375 3.75-3.75 3.75-3.75 3.125c2.4995 1.25 4.5828 1.875 6.25 1.875 1.6661 0 3.5411-1.6666 5.625-5 2.9161-5.4166 5.2078-9.7916 6.875-13.125 1.6661-3.3333 2.7078-5.8333 3.125-7.5 0.41562-0.41719 0.625-2.9166 0.625-7.5m-341.25 11.25v1.875c-1.6e-4 1.25 0.625 2.5002 1.875 3.75l0.625 1.875 20.625-3.125 2.5-5.625 1.875-4.375-4.375 1.875-10 1.25-5 1.875-8.125 0.625m-30 35-10.625-0.625c-1.6669-0.41719-3.7502-0.41719-6.25 0-2.5002 0-5.4169 0.20781-8.75 0.625-5.8334 0.41719-10.625 0.83281-14.375 1.25h-7.5c-1.25 0-3.5417-0.20781-6.875-0.625-2.9167-0.83281-7.0834-1.6666-12.5-2.5 7.4998 5.8334 15.208 8.5417 23.125 8.125l51.25-1.875c2.4998 0 11.875 0.625 28.125 1.875 3.3331 0.41719 6.4581 0.83281 9.375 1.25h8.75c9.9998 0 15-2.5 15-7.5-3.1e-4 -2.9166-0.625-4.375-1.875-4.375v1.25c-3.1e-4 0.83281-1.0422 1.875-3.125 3.125-2.0836 1.25-6.6669 1.875-13.75 1.875h-5l-38.125-2.5-6.875 0.625m222.5-1.875c0.41562 5.4167 6.2495 8.125 17.5 8.125h1.25l30-0.625 20-1.25 13.125-0.625c1.25 0 3.7495 0.20781 7.5 0.625 3.7495 0 8.5412 0.20781 14.375 0.625 4.5828 0.41719 8.3328 0.83281 11.25 1.25h6.875c8.7495 0 13.75-2.2916 15-6.875-4.5839 1.25-7.9172 1.875-10 1.875h-12.5l-18.75-0.625-27.5-0.625-60 1.875-8.125-3.75m-302.5 11.25-1.25 6.25 1.25 1.875c2.0833-4.5833 3.9583-6.875 5.625-6.875 2.0833 0 4.1666 1.875 6.25 5.625l1.25 1.25 5 0.625c-1.6667-9.1666-5.6252-13.75-11.875-13.75-3.3334 0-5.4167 1.6667-6.25 5m51.25 10v6.25c-3.3334 2.0833-5.8334 3.125-7.5 3.125-2.9167 0-4.7917-1.6667-5.625-5-0.83281-3.75-1.4578-7.0833-1.875-10-4.5834-2.5-8.9584-3.75-13.125-3.75h-2.5v1.25c7.9166 0.41719 11.875 2.7084 11.875 6.875v11.25c-1.6e-4 2.0833 3.3333 3.125 10 3.125 7.0831 0 11.875-2.5 14.375-7.5v-1.25l-0.625-8.125c-1.6e-4 -2.5 3.1248-3.75 9.375-3.75 1.25 0 2.4998 1.25 3.75 3.75-2.0834 2.0834-3.1252 3.9584-3.125 5.625-1.6e-4 3.3333 1.25 5.2083 3.75 5.625l6.875 1.875-3.125 3.75v1.25c2.4998 0.41719 4.5831 0.83281 6.25 1.25h5c14.166 0 21.25-5.8333 21.25-17.5-1.6e-4 -3.75-0.20938-6.25-0.625-7.5l-7.5 1.875v2.5c0.83281 4.5834-1.8752 7.9167-8.125 10h-10.625c-2.5002-1.25-3.7502-2.5-3.75-3.75v-0.625l0.625-0.625v-1.25l1.875-3.125c0.41719-0.41719 0.625-1.0422 0.625-1.875-1.6e-4 -3.3333-6.0419-5-18.125-5-6.6669 0-10 2.2917-10 6.875-1.6e-4 2.0834 0.20781 3.5417 0.625 4.375m358.75-9.375c-2.0839 3.3334-3.1255 6.6667-3.125 10-4.7e-4 5 1.8745 8.75 5.625 11.25 0.83281 2.0833 2.2911 3.125 4.375 3.125l1.875-8.125c6.2495 6.25 12.083 9.375 17.5 9.375 9.9995 0 15-4.7917 15-14.375-4.7e-4 -4.1666-1.4594-7.0833-4.375-8.75h-1.25c-1.6672 0-2.5005 0.625-2.5 1.875l1.25 5-1.25 1.25-0.625 3.125-3.125 2.5-3.75 0.625h3.75l-9.375-0.625-5-3.75-4.375-12.5h-10.625m-286.88 2.5-0.625 1.875c-1.6e-4 2.0834 0.625 3.125 1.875 3.125-0.41719 0 1.0406-0.41719 4.375-1.25 3.3331 2.0834 4.9998 4.1667 5 6.25-1.6e-4 3.75-3.1252 5.625-9.375 5.625-6.2502 0-11.042-4.1667-14.375-12.5h-1.875l1.25 0.625-0.625 5.625 3.125 7.5c3.7498 3.75 7.9164 5.625 12.5 5.625 9.5831 0 14.375-4.5833 14.375-13.75-1.6e-4 -5-2.5002-7.5-7.5-7.5-3.3336 0-5.6252 0.20781-6.875 0.625l-1.25-1.875m73.125 10.625-17.5-1.25 3.75-1.875c2.9164-0.41719 4.3747-1.25 4.375-2.5-3.1e-4 -0.83281-1.8753-1.6666-5.625-2.5l-8.125-1.25c-3.3336-0.83281-7.0836 0-11.25 2.5l-9.375 5c0.41562 1.25 2.2914 2.9167 5.625 5 5.4164 2.5 11.25 3.75 17.5 3.75 9.9997 0 16.875-2.2917 20.625-6.875m-190-8.125c-2.9167 4.5834-3.9584 8.5417-3.125 11.875v4.375c3.3333 2.0833 5.4166 3.125 6.25 3.125 1.6666 0 3.9583-0.83281 6.875-2.5l-1.875-1.25h-2.5l-1.25-0.625-1.875 0.625h-0.625c-1.25 0-1.8752-1.6667-1.875-5-1.6e-4 -2.9166 0.83281-5.8333 2.5-8.75l-2.5-1.875m4.375 6.25c-1.6e-4 4.5833 1.6666 6.875 5 6.875 8.3333 0 12.5-3.3333 12.5-10-1.6e-4 -1.6666-0.83281-2.5-2.5-2.5-0.41719 0-1.25 1.25-2.5 3.75-1.25 2.0834-3.3334 3.125-6.25 3.125-1.6e-4 0-2.0834-0.41719-6.25-1.25m205-0.625h-1.875l-1.25-0.625h-0.625c-3.3336 0-5.6253 1.0422-6.875 3.125v0.625c-3.1e-4 1.6667 1.6664 2.5 5 2.5 4.1664 0 6.2497-1.0422 6.25-3.125-3.1e-4 -1.25-0.20781-2.0833-0.625-2.5m180.62 0.625-2.5 1.25v0.625l-0.625 0.625v1.25c-4.7e-4 2.0833 0.83281 3.125 2.5 3.125 2.9162 0 4.3745-1.4578 4.375-4.375-4.7e-4 -2.0833-0.83437-3.125-2.5-3.125h-1.25v0.625m-165 1.25h3.125l-13.75 1.875c2.9164 0 5.4164 1.25 7.5 3.75-0.83281-0.41719-2.7086-0.625-5.625-0.625-2.0836 0-3.9586 0.83281-5.625 2.5 7.4997 2.0833 13.541 3.125 18.125 3.125h5.625c2.083 0 3.7497-0.20781 5-0.625l11.25-2.5 6.25-0.625c-5.417-5.4167-13.334-8.125-23.75-8.125-3.3336 0-5.417 0.20781-6.25 0.625l-1.875 0.625m148.12 0.625c-1.6672 1.6667-2.5005 2.9167-2.5 3.75-4.7e-4 2.0833 0.83281 3.125 2.5 3.125 2.4995 0 3.7495-1.25 3.75-3.75-4.7e-4 -2.0833-1.0422-3.125-3.125-3.125h-0.625m-178.12 4.375-2.5 3.125-6.25 3.125 1.25 1.25c0.83281 0.83281 2.4997 1.25 5 1.25 5.833 0 10.208-2.0833 13.125-6.25l-10.625-2.5m186.25 0c-2.0838 2.0833-3.1255 3.3333-3.125 3.75-4.7e-4 2.0833 1.0406 3.125 3.125 3.125 2.9162 0 4.3745-1.0422 4.375-3.125-4.7e-4 -1.25-0.20938-1.875-0.625-1.875l-3.75-1.875m-201.25-375.62-13.75 8.125c-1.6669 3.1e-4 -2.5003-0.625-2.5-1.875 0.83281-0.83281 1.4578-1.25 1.875-1.25l0.625 0.625 13.75-5.625m-60 5.625 5.625 12.5v7.5l-0.625 5.625-1.25 5c-2.0836-0.83281-3.1252-2.083-3.125-3.75-1.6e-4 -0.83281 0.20781-2.4997 0.625-5 0.83281-2.4997 1.25-4.583 1.25-6.25-1.6e-4 -2.083-1.0422-6.8747-3.125-14.375l0.625-1.25m44.375 5c1.6664-0.41562 3.1247-0.83281 4.375-1.25 1.6664-0.41562 3.3331-0.83281 5-1.25-0.41719 3.1e-4 -2.7086 0.83438-6.875 2.5-3.7503 1.25-5.6253 1.667-5.625 1.25 0.83281-0.83281 1.8747-1.25 3.125-1.25m7.5 2.5-12.5 6.25-1.25-0.625 2.5-1.875 11.25-3.75m-6.25 4.375-8.125 6.25v1.875-2.5l-3.125 1.25 1.875 2.5 1.25-1.25-1.875 0.625 10-8.75m278.12 10h4.375l0.625 1.25h-5.625l0.625-1.25m-276.88-1.25c-1.6669 3.3338-5.0003 7.5003-10 12.5-4.5836 5.0003-11.042 10.417-19.375 16.25l-5 4.375-8.125 5-6.25 4.375-4.375 1.25-3.75 1.25-1.25 1.25-1.25 0.625c-0.83438 3.1e-4 -1.25-0.41563-1.25-1.25-1.6e-4 -0.83281 1.8748-2.083 5.625-3.75 4.1664-1.6664 6.4581-2.708 6.875-3.125l5.625-3.75 12.5-9.375 5-5 6.875-8.125 3.75-8.125h1.25l13.125-4.375m272.5 6.875h1.875c3.7495-0.41563 6.2495 0.20937 7.5 1.875l-1.25 0.625-0.625 1.875c-0.83438-0.83281-2.0839-1.25-3.75-1.25l-2.5-1.875-1.25-1.25m-300 4.375 1.25-1.25c-3.1e-4 0.83437 0.20781 1.4594 0.625 1.875l1.25 2.5-8.125-1.25c5.4164 3.1e-4 8.3331 0.20937 8.75 0.625-10.417 1.25-15.625 3.1e-4 -15.625-3.75l1.875 1.875 10-0.625m-23.125-14.375 0.625 15v11.875c-1.6669 1.667-3.1252 2.7088-4.375 3.125-0.41719-1.25-1.6e-4 -3.5412 1.25-6.875v-6.25l2.5-16.875m63.125 5.625c-3.1e-4 3.1e-4 -1.0422 0.83437-3.125 2.5-1.6669 1.667-4.1669 4.167-7.5 7.5l-1.875 1.875c-0.41719 0.83437-1.0422 1.667-1.875 2.5l-4.375 3.75-3.75 1.25-0.625-1.875 23.125-17.5m-5 10-1.25 3.75-1.25 0.625-1.875 3.75-1.875 0.625-6.25 4.375-7.5 2.5v-0.625c-3.1e-4 -1.6662 1.4578-2.708 4.375-3.125 2.9164-0.41563 4.9997-1.4578 6.25-3.125l3.125-3.75 2.5-1.875 2.5-3.125h1.25m-47.5 2.5c2.9164 1.25 4.3748 2.0838 4.375 2.5-1.6e-4 0.83437-0.20938 1.25-0.625 1.25h-2.5l-1.875 0.625-1.25-2.5 1.875-1.875m293.12 3.75 16.875-8.125c-3.3339 3.3338-8.3339 6.4588-15 9.375-0.41719-0.41563-0.83438-0.625-1.25-0.625l-0.625-0.625m-298.12 3.125c2.9164 3.1e-4 4.7914 0.41719 5.625 1.25v1.875c-2.5002 3.1e-4 -4.1669-0.20781-5-0.625l-0.625-2.5m-8.125 6.875 7.5-1.25v2.5l-6.875 3.75-1.25 1.25 0.625-6.25m44.375 11.25-12.5 1.25-3.125 1.25 14.375-1.875 1.25-0.625m116.88-2.5v1.25l0.625 16.25-1.25 13.125-1.25-30 1.875-0.625m-132.5 5c0.83281 0.41719 1.25 0.83438 1.25 1.25 0.41719 3.1e-4 0.625 3.1e-4 0.625 0-3.1e-4 0.41719-0.625 0.625-1.875 0.625-1.25 0.83281-1.8753 0.625-1.875-0.625l0.625-0.625c0.41719 3.1e-4 0.83281-0.20781 1.25-0.625l4.375-2.5-1.25 1.25c0.83281 0.83281 1.25 0.41719 1.25-1.25l-4.375 2.5m-16.875 1.875c2.4998-1.6664 5.2081-2.708 8.125-3.125l-5.625 8.125c-1.25-1.6664-2.0836-3.333-2.5-5m118.12-4.375 8.75 10c1.6662 4.167 2.9162 8.3336 3.75 12.5v2.5c-1.25-0.41719-1.8753-2.083-1.875-5l-10.625-20m168.12 11.875-1.25 3.125-5 5c-0.83438 2.5003-1.4594 3.7503-1.875 3.75-1.25 3.1e-4 -1.8755-0.41719-1.875-1.25-4.7e-4 -2.9164 0.83281-4.3747 2.5-4.375l15-11.25-13.75 15c1.6661-2.083 3.1245-4.1664 4.375-6.25 1.6661-2.083 3.3328-4.1664 5-6.25-4.7e-4 0.41719-1.0422 1.25-3.125 2.5m-0.625 14.375 21.25-27.5-18.125 28.75-3.125-1.25m-413.12 100.62 1.875-2.5h2.5l1.25 0.625c1.25 1.25 1.0422 1.8752-0.625 1.875h-5m156.25 8.125h-0.625l1.875-1.875c1.25-0.83281 4.3747-2.9164 9.375-6.25-0.83438-1.6664-1.25-1.25-1.25 1.25-3.1e-4 2.0836-3.1253 4.3752-9.375 6.875m-49.375-4.375h1.875l11.25-3.125-7.5 11.875c-3.7502-0.41719-5.6252-3.3331-5.625-8.75m47.5 13.125-1.875-1.875c2.0831-0.83281 4.3747-1.8748 6.875-3.125 2.4997-1.25 4.9997-2.9164 7.5-5 1.25-2.0831 2.2914-3.1248 3.125-3.125 0.41719 0.41719 0.625 1.0422 0.625 1.875-3.1e-4 4.1669-5.4169 7.9169-16.25 11.25m-151.88-12.5 1.875-5.625 1.875 8.125-6.875 1.25 3.125-3.75m-3.125 12.5c-1.6e-4 -4.9998 1.6666-7.4998 5-7.5l1.25-5.625c0.41719 0.83438 0.83281 1.8752 1.25 3.125 0.41719 1.25 0.83281 2.7086 1.25 4.375l-0.625 3.125-4.375-1.875-1.875 4.375h-1.875m147.5-11.875-8.125 10.625c-0.83438 0.83438-2.2919 2.9169-4.375 6.25-1.6669 3.3334-2.7086 5.0002-3.125 5-1.25 1.6e-4 -1.8752-0.83281-1.875-2.5-1.6e-4 -0.83281 0.20781-1.4578 0.625-1.875l1.875-2.5 5-6.25 10-8.75m-151.25 16.25c1.25 3.3334 2.2916 6.6669 3.125 10 1.25 2.9169 2.4998 6.6669 3.75 11.25l1.875 3.75c1.6666 1.25 2.4998 2.5002 2.5 3.75-1.6e-4 0.83281-0.20781 1.25-0.625 1.25h-2.5c-0.83281-1.25-1.4578-2.2916-1.875-3.125-1.6e-4 -0.83281-0.20781-1.6666-0.625-2.5-1.6667-3.3331-2.9167-5.8331-3.75-7.5-0.41719-2.0831-0.625-3.1248-0.625-3.125-2.0834-4.9998-3.1252-7.9166-3.125-8.75-1.6e-4 -1.6666 0.625-2.4998 1.875-2.5 1.25 1.6e-4 1.8748 0.625 1.875 1.875l-1.875-4.375m140.62 16.25 7.5 5 15-4.375c-4.1669 2.5002-8.3336 4.5834-12.5 6.25h-1.25c-3.7502 1.6e-4 -6.6669-2.2916-8.75-6.875m-5 2.5 6.875 4.375 1.25 1.875h-3.125c-2.9169-1.25-4.5836-3.3331-5-6.25m45-5-6.25 8.125-1.875 1.25-0.625-3.125 8.75-6.25m-180.62 5 3.75 9.375-3.125 0.625-0.625-10m3.125 5.625 1.875 7.5h-3.125l0.625-1.875 0.625-5.625m169.38 7.5-6.875 6.875-0.625-1.875v-3.75l1.875-1.25h5.625m-10.625 8.75-1.875-1.875c-0.41719-0.83281-0.83281-1.4578-1.25-1.875-3.1e-4 -1.25 0.41719-1.8748 1.25-1.875 1.25 1.6e-4 1.8747 1.0422 1.875 3.125v2.5m-6.875-5 1.25 5h-1.875l0.625-5m-23.125-5c1.6664 3.7502 2.4998 7.9169 2.5 12.5-1.6e-4 1.6669-1.25 3.7502-3.75 6.25l-1.25-2.5 2.5-16.25m-5.625 1.25c0.41719 1.6669 0.625 3.3334 0.625 5 0.41562 1.25 0.83281 2.9169 1.25 5-1.6e-4 1.25-1.25 2.7084-3.75 4.375l-0.625-1.875 2.5-12.5m52.5 11.875 15-2.5-0.625 2.5-9.375-0.625-5 0.625m15-9.375 5.625 7.5c-0.41719 1.6669-1.0422 2.5002-1.875 2.5-1.6669 1.6e-4 -2.5003-0.83281-2.5-2.5l-1.25-7.5m57.5 26.875c-7.0836 3.3334-10.625 5.8334-10.625 7.5l-3.125 3.75 2.5-2.5-11.25 13.125-1.875-0.625c3.7497-4.9998 6.458-8.5416 8.125-10.625 2.083-2.4998 3.333-3.9583 3.75-4.375 2.4997-4.1666 5.6247-6.2498 9.375-6.25h3.125m-5.625 6.875-14.375 16.875 5-1.25h-3.125c1.25-3.3333 4.583-7.0833 10-11.25l2.5-4.375m0 20h-1.875l-1.875-0.625-0.625-1.875 1.25-0.625c1.6664 1.6e-4 2.708 0.625 3.125 1.875 0.41719 0.83281 0.41719 1.25 0 1.25m40.625-0.625-4.375 3.125-0.625 1.875-5.625 6.25-1.875-1.25 1.25-0.625 3.75-5.625 3.75-3.125 2.5-1.25 1.25 0.625m-96.25-3.75 4.375 6.25-1.25-0.625 1.875 3.75 1.875 6.25c0.41719 0.41719 0.625 1.4578 0.625 3.125-2.5003-3.7498-4.1669-5.6248-5-5.625l3.75 6.25h-2.5l-3.75-19.375m52.5 6.25 1.25 1.875-1.25 1.25h1.25l-3.125-0.625c-0.41719 1.6e-4 -0.625-0.41719-0.625-1.25-3.1e-4 -0.83281 0.83281-1.25 2.5-1.25m36.25 10 6.25-4.375-5 4.375h1.875-3.125m-41.875-3.75c-1.667 1.6e-4 -2.0836-0.41719-1.25-1.25 0.83281-0.83281 1.8747-1.25 3.125-1.25 2.083 1.6e-4 3.1247 1.25 3.125 3.75-3.1e-4 1.25-1.25 1.8752-3.75 1.875l-0.625 0.625 0.625-0.625-1.25-3.125m-5 13.75 3.125 0.625-2.5 2.5 1.875-1.25-1.25 0.625c-1.25 0-1.8753-0.41719-1.875-1.25l1.25-1.25 0.625 0.625-1.25-0.625m-0.625 8.125 1.875 1.25h-1.25l0.625-1.875c-2.5003 0.83281-3.542 1.25-3.125 1.25-0.41719 0-0.625-0.41719-0.625-1.25-3.1e-4 -0.41719 0.41719-0.625 1.25-0.625h1.25v1.25m-36.875-1.25c3.3331 2.0834 4.3747 3.125 3.125 3.125 5.4164 0 6.458 0.41719 3.125 1.25l5 5.625-11.25-10 8.75 6.25 1.875 1.875c-3.1e-4 2.9167-0.41719 4.375-1.25 4.375-0.41719 0-1.25-1.0422-2.5-3.125-0.83438-2.0833-1.4594-2.9166-1.875-2.5l-1.875-1.25-2.5-1.875-0.625-3.75m-20.625 1.25 3.125 1.25 5.625 13.125 2.5 3.75 4.375 6.25 5 5c-3.1e-4 0.83281-0.41719 1.25-1.25 1.25l-1.875-0.625-4.375-4.375-3.125-6.25-3.125-4.375c-1.6669-2.5-3.1253-5-4.375-7.5-0.83438-2.5-1.6669-5-2.5-7.5m25.625 9.375 1.25 1.25c-3.7503 1.25-4.7919 1.875-3.125 1.875-0.41719 0-1.25-0.41719-2.5-1.25-0.83281-0.83281-1.6669-1.4578-2.5-1.875-2.5003-3.75-3.7503-7.0833-3.75-10 0.41719 0 1.8747 2.0834 4.375 6.25l6.25 3.75m-11.875 1.875 1.25 3.125 1.25 2.5 1.875 5c-2.0836-0.83281-3.9586-2.9166-5.625-6.25l-3.125-5v-1.25c-3.1e-4 -1.25 0.41719-1.875 1.25-1.875 1.25 0 2.2914 1.25 3.125 3.75m51.875-1.25 5 3.125 1.25 1.25h6.875l0.625 1.875v-1.875l0.625 1.875c-4.167 0.83281-6.4586 1.25-6.875 1.25-2.5003 0-5.0003-2.5-7.5-7.5m-49.375-1.875 3.125 4.375 1.875 3.125 1.25 3.125-3.75-3.75-2.5-6.875m44.375 6.875 5.625 4.375 4.375 3.125h-5.625l-2.5-1.875 1.25-3.125-1.25 1.875-1.875-4.375m3.125 10 2.5 1.25-3.125 0.625-4.375 2.5h-1.875l-1.25-0.625-2.5-0.625 1.25-2.5 2.5 1.25 1.25-1.25 2.5-1.25 3.125 0.625"
         fill="#8f0005"
         id="path13" />
    </g>
  </g>
</svg>
