<?xml version="1.0" encoding="UTF-8" standalone="no"?>
<svg
   xmlns:dc="http://purl.org/dc/elements/1.1/"
   xmlns:cc="http://creativecommons.org/ns#"
   xmlns:rdf="http://www.w3.org/1999/02/22-rdf-syntax-ns#"
   xmlns:svg="http://www.w3.org/2000/svg"
   xmlns="http://www.w3.org/2000/svg"
   xmlns:sodipodi="http://sodipodi.sourceforge.net/DTD/sodipodi-0.dtd"
   xmlns:inkscape="http://www.inkscape.org/namespaces/inkscape"
   version="1.1"
   viewBox="0 0 500 500"
   id="svg19"
   sodipodi:docname="william-morris-letter-c.svg"
   inkscape:version="1.0.2 (1.0.2+r75+1)">
  <metadata
     id="metadata23">
    <rdf:RDF>
      <cc:Work
         rdf:about="">
        <dc:format>image/svg+xml</dc:format>
        <dc:type
           rdf:resource="http://purl.org/dc/dcmitype/StillImage" />
      </cc:Work>
    </rdf:RDF>
  </metadata>
  <sodipodi:namedview
     pagecolor="#ffffff"
     bordercolor="#666666"
     borderopacity="1"
     objecttolerance="10"
     gridtolerance="10"
     guidetolerance="10"
     inkscape:pageopacity="0"
     inkscape:pageshadow="2"
     inkscape:window-width="1920"
     inkscape:window-height="1016"
     id="namedview21"
     showgrid="false"
     inkscape:zoom="1.686"
     inkscape:cx="255.33808"
     inkscape:cy="250"
     inkscape:window-x="0"
     inkscape:window-y="27"
     inkscape:window-maximized="1"
     inkscape:current-layer="svg19" />
  <defs
     id="defs7">
    <linearGradient
       id="linearGradient847"
       x1="500"
       x2="0"
       y1="500"
       y2="-4.2633e-14"
       gradientUnits="userSpaceOnUse">
      <stop
         stop-color="#ff6700"
         offset="0"
         id="stop2" />
      <stop
         stop-color="#ffd700"
         offset="1"
         id="stop4" />
    </linearGradient>
  </defs>
  <path
     d="M 261.4,41.52 157.81,56.2 94.9,109.884 l -32.293,59.135 -2.4961,9.0137 0.49414,0.42383 19.082,13 3.7754,14.051 -6.9199,15.518 c 0,0 -2.7269,-2.9356 -3.7754,-2.9356 -1.0485,0 -1.6767,1.8865 -7.1289,2.5156 -5.0537,0.58311 -13.742,-1.8102 -15.033,-2.1758 l -0.48438,2.0645 -0.89062,37.516 8.8965,51.008 10.52,21.865 6.6816,-7.334 28.766,-18.684 v -29.359 c 0,0 5.2573,-3.7542 11.273,-8.0137 l -0.89257,-2.3652 -18.395,-34.877 3.8633,-15.836 c 0,0 -1.2324,-2.1739 -3.0137,-4.916 a 159.87,172.62 0 0 1 156.01,-134.92 159.87,172.62 0 0 1 41.084,5.7988 c 11.05,-1.2697 21.062,-2.3691 21.062,-2.3691 l 67.943,24.744 c 0,0 3.1684,7.8204 4.1465,10.242 l 29.824,30.439 10.066,41.102 12.582,-12.162 0.83789,-42.359 -7.5488,-9.2266 -6.709,-54.104 -4.6836,-2.4219 0.9082,-0.93164 c 0,0 -1.2228,0.4829 -1.5352,0.60742 l -6.8535,-3.5449 -7.6973,8.4668 c -5.3678,3.28e-4 -20.402,-0.91602 -20.402,-0.91602 l -51.166,-19.293 -73.395,-7.1309 z m -203.21,147.53 -8.9121,7.1289 6.3398,8.832 c 0,0 3.831,4.2741 4.9844,4.3789 1.1534,0.1048 5.2422,-0.31446 5.2422,-0.31446 l 3.25,-6.5 -3.459,-9.9609 -7.4453,-3.5645 z m 359.37,133.61 -20.166,48.043 -21.352,26.691 -36.182,14.828 -42.75,7.6953 4.4941,5.7969 c 0,0 14.796,18.256 21.15,25.264 l 54.473,-18.59 44.484,-27.877 10.082,-71.174 -14.234,-10.678 z m -304.14,27.846 c -2.7108,0.0139 -5.1013,0.10571 -6.6582,0.32813 -4.8245,0.68922 -17.243,8.5256 -22.701,12.09 l 4.3145,8.9668 68.209,55.752 69.988,27.285 75.92,2.9648 1.0625,-0.36328 c -0.60256,-2.2688 -0.61914,-4.9746 -0.61914,-4.9746 l -17.418,-30.551 -4.9727,0.89453 -6.5234,2.373 c 0,0 -60.435,7.9277 -105.35,-31.371 a 159.87,172.62 0 0 1 -7.6934,-5.4902 l -1.2012,-3.1856 c -6.9481,-7.5215 -13.344,-16.401 -18.852,-26.895 -4.4634,-3.2224 -8.3672,-7.1992 -8.3672,-7.1992 0,0 -11.01,-0.66661 -19.143,-0.625 z"
     fill="#f4eee6"
     id="path11" />
  <g
     transform="translate(-146.8581,-119.79)"
     fill="#8f0005"
     id="g15">
    <path
       d="m 146.86,619.79 v -500 h 500 v 500 h -500 m 7.5,-7.5 h 485 v -485 h -485 v 485 m 7.5,-7.5 V 135.41 H 631.24 V 604.79 H 161.86 M 374.98,262.91 c -0.83438,-0.41563 -1.667,-0.83281 -2.5,-1.25 -0.41719,-0.41563 -1.0422,-0.83281 -1.875,-1.25 -1.667,3.1e-4 -2.5003,0.41719 -2.5,1.25 -3.1e-4,0.83437 1.0406,1.667 3.125,2.5 l 0.625,0.625 c 2.083,3.1e-4 3.1247,-0.625 3.125,-1.875 m -2.5,5.625 c -1.667,3.1e-4 -2.5003,1.0422 -2.5,3.125 -3.1e-4,2.5003 1.25,3.7503 3.75,3.75 2.4997,3.1e-4 3.7497,-1.0406 3.75,-3.125 -3.1e-4,-2.4997 -1.667,-3.7497 -5,-3.75 m -1.875,10 c -4.5836,3.1e-4 -6.8753,1.4594 -6.875,4.375 -3.1e-4,2.0836 2.083,3.1253 6.25,3.125 3.7497,3.1e-4 5.6247,-1.4578 5.625,-4.375 -3.1e-4,-2.083 -1.667,-3.1247 -5,-3.125 m 10,0.625 c -1.25,3.1e-4 -1.8753,0.625 -1.875,1.875 -3.1e-4,1.667 0.83281,2.5003 2.5,2.5 1.25,3.1e-4 1.8747,-0.625 1.875,-1.875 -3.1e-4,-2.083 -0.83438,-2.9164 -2.5,-2.5 m 3.75,5.625 c -2.5003,3.1e-4 -3.7503,1.25 -3.75,3.75 -3.1e-4,2.0836 1.4578,3.1253 4.375,3.125 2.4997,3.1e-4 3.7497,-1.0422 3.75,-3.125 -3.1e-4,-2.4997 -1.4578,-3.7497 -4.375,-3.75 m -10,3.75 c -5.8336,3.1e-4 -8.7503,2.5003 -8.75,7.5 -3.1e-4,2.5003 1.6664,3.7503 5,3.75 5.4164,3.1e-4 8.1247,-2.4997 8.125,-7.5 -3.1e-4,-2.4997 -1.4578,-3.7497 -4.375,-3.75 m 17.5,4.375 c -1.25,0.83437 -1.8753,1.8753 -1.875,3.125 l 0.625,1.25 c 1.25,1.667 2.2914,2.5003 3.125,2.5 0.41719,3.1e-4 0.625,-0.625 0.625,-1.875 v -1.25 c -0.83438,-2.4997 -1.667,-3.7497 -2.5,-3.75 m -6.875,3.125 c -5.417,3.1e-4 -8.1253,2.917 -8.125,8.75 -3.1e-4,2.5003 1.0406,3.7503 3.125,3.75 5.4164,3.1e-4 8.1247,-2.708 8.125,-8.125 -3.1e-4,-2.9164 -1.0422,-4.3747 -3.125,-4.375 m -16.875,6.875 c -2.0836,0.83437 -3.1253,2.7086 -3.125,5.625 -3.1e-4,2.917 1.8747,4.3753 5.625,4.375 2.4997,3.1e-4 3.7497,-1.4578 3.75,-4.375 -3.1e-4,-3.7497 -1.8753,-5.6247 -5.625,-5.625 h -0.625 m 26.25,1.25 c -5.0003,3.1e-4 -7.5003,2.292 -7.5,6.875 -3.1e-4,4.5836 2.083,6.8753 6.25,6.875 4.583,3.1e-4 6.8747,-2.2914 6.875,-6.875 -3.1e-4,-4.583 -1.8753,-6.8747 -5.625,-6.875 m -15,8.125 -3.75,2.5 c -2.5003,1.25 -3.7503,2.5003 -3.75,3.75 -3.1e-4,3.3336 2.708,5.0003 8.125,5 3.7497,3.1e-4 5.6247,-1.4578 5.625,-4.375 -3.1e-4,-4.583 -2.0836,-6.8747 -6.25,-6.875 M 348.73,322.91 c -5.0003,3.1e-4 -7.5003,1.667 -7.5,5 -3.1e-4,2.9169 1.8747,3.9586 5.625,3.125 h 1.25 c 3.7497,3.1e-4 5.6247,-1.6664 5.625,-5 -3.1e-4,-2.083 -1.6669,-3.1247 -5,-3.125 m 15.625,0 c -4.1669,3.1e-4 -6.2503,1.0422 -6.25,3.125 -3.1e-4,2.5003 1.8747,3.7503 5.625,3.75 3.7497,3.1e-4 5.6247,-1.25 5.625,-3.75 -3.1e-4,-2.083 -1.667,-3.1247 -5,-3.125 m 11.875,3.75 c -3.7503,3.1e-4 -5.6253,1.25 -5.625,3.75 -3.1e-4,1.6669 1.25,2.5003 3.75,2.5 h 1.25 c 2.9164,-1.25 4.7914,-2.2914 5.625,-3.125 -3.1e-4,-2.083 -1.667,-3.1247 -5,-3.125 m 15,-5 c -4.167,0.41719 -6.2503,2.292 -6.25,5.625 -3.1e-4,1.667 1.4578,2.5003 4.375,2.5 h 1.875 c 4.1664,-1.6664 6.2497,-3.333 6.25,-5 -3.1e-4,-2.083 -2.0836,-3.1247 -6.25,-3.125 m 42.5,-56.25 c -4.167,3.1e-4 -6.2503,1.0422 -6.25,3.125 -3.1e-4,2.5003 2.083,3.7503 6.25,3.75 4.583,3.1e-4 6.8747,-1.25 6.875,-3.75 -3.1e-4,-2.083 -2.292,-3.1247 -6.875,-3.125 m 13.75,1.25 c -2.0838,3.1e-4 -3.1253,0.625 -3.125,1.875 -3.1e-4,2.5003 1.4578,3.7503 4.375,3.75 1.25,3.1e-4 1.8747,-1.0406 1.875,-3.125 -3.1e-4,-1.6662 -1.0422,-2.4997 -3.125,-2.5 m 1.875,14.375 c -3.1e-4,-5.4162 -2.0838,-8.1247 -6.25,-8.125 h -0.625 c -1.667,0.41719 -2.5003,1.4594 -2.5,3.125 -3.1e-4,3.7503 2.9162,5.6253 8.75,5.625 0.41563,3.1e-4 0.625,-0.20781 0.625,-0.625 m -19.375,-6.25 c -4.167,3.1e-4 -6.2503,1.667 -6.25,5 -3.1e-4,2.5003 1.0406,3.7503 3.125,3.75 4.9997,3.1e-4 7.4997,-1.8747 7.5,-5.625 -3.1e-4,-2.083 -1.4594,-3.1247 -4.375,-3.125 m 8.125,6.875 c -3.7503,3.1e-4 -5.6253,1.8753 -5.625,5.625 -3.1e-4,2.917 2.2912,4.3753 6.875,4.375 3.333,3.1e-4 4.9997,-1.25 5,-3.75 -3.1e-4,-4.1664 -2.0838,-6.2497 -6.25,-6.25 m -16.875,6.25 c -3.7503,3.1e-4 -5.6253,1.667 -5.625,5 -3.1e-4,3.3336 2.083,5.0003 6.25,5 3.7497,3.1e-4 5.6247,-2.083 5.625,-6.25 -3.1e-4,-2.9164 -2.0838,-4.1664 -6.25,-3.75 m 16.25,6.875 c -4.5838,3.1e-4 -6.8753,1.4578 -6.875,4.375 -3.1e-4,4.5836 2.083,6.8753 6.25,6.875 4.1662,3.1e-4 6.2497,-2.2914 6.25,-6.875 -3.1e-4,-2.9164 -1.8753,-4.3747 -5.625,-4.375 m -28.125,1.25 c -4.167,3.1e-4 -6.2503,2.5003 -6.25,7.5 -3.1e-4,3.7503 1.8747,5.6253 5.625,5.625 4.1664,3.1e-4 6.2497,-2.083 6.25,-6.25 -3.1e-4,-4.583 -1.8753,-6.8747 -5.625,-6.875 m 14.375,5 c -4.167,3.1e-4 -6.2503,1.8753 -6.25,5.625 -3.1e-4,3.3336 1.6662,5.0003 5,5 4.1662,3.1e-4 6.2497,-2.083 6.25,-6.25 -3.1e-4,-2.9164 -1.667,-4.3747 -5,-4.375 m 11.875,8.125 c -1.25,0.83281 -1.8753,1.8753 -1.875,3.125 -3.1e-4,4.167 2.708,6.2503 8.125,6.25 1.6662,3.1e-4 2.4997,-0.83281 2.5,-2.5 -3.1e-4,-4.9997 -2.292,-7.4997 -6.875,-7.5 l -1.875,0.625 m -25,3.125 c -5.0003,0.83281 -7.5003,2.0836 -7.5,3.75 -3.1e-4,2.917 2.4997,4.3753 7.5,4.375 4.1664,3.1e-4 6.2497,-1.8747 6.25,-5.625 -3.1e-4,-1.6664 -2.0836,-2.4997 -6.25,-2.5 m 16.875,1.875 c -0.83437,3.1e-4 -1.25,0.625 -1.25,1.875 -3.1e-4,2.917 1.6662,4.3753 5,4.375 0.83281,3.1e-4 1.25,-0.625 1.25,-1.875 -3.1e-4,-3.333 -1.4594,-4.9997 -4.375,-5 l -0.625,0.625 m -20,9.375 c -4.5836,3.1e-4 -6.8753,1.4594 -6.875,4.375 -3.1e-4,3.3336 2.2914,5.0003 6.875,5 3.333,3.1e-4 4.9997,-1.6664 5,-5 -3.1e-4,-2.9164 -1.667,-4.3747 -5,-4.375 m 14.375,-2.5 c -3.7503,3.1e-4 -5.6253,1.8753 -5.625,5.625 -3.1e-4,3.7503 1.8747,5.6253 5.625,5.625 4.1662,3.1e-4 6.2497,-2.083 6.25,-6.25 -3.1e-4,-3.7497 -2.0838,-5.4164 -6.25,-5 m 16.25,0.625 c -4.5838,0.83438 -6.8753,2.917 -6.875,6.25 -3.1e-4,2.5003 2.083,3.7503 6.25,3.75 h 0.625 c 4.1662,-0.41719 6.2497,-2.4997 6.25,-6.25 -3.1e-4,-2.4997 -1.8753,-3.7497 -5.625,-3.75 h -0.625 m -11.875,17.5 -1.875,4.375 c -3.1e-4,1.6669 1.8747,2.5003 5.625,2.5 6.2497,3.1e-4 9.3747,-2.4997 9.375,-7.5 -3.1e-4,-2.9164 -2.0838,-4.3747 -6.25,-4.375 -2.5003,3.1e-4 -4.792,1.6669 -6.875,5 m 17.5,-5 c -0.83438,3.1e-4 -1.25,0.83438 -1.25,2.5 -3.1e-4,1.6669 0.41562,2.5003 1.25,2.5 1.25,3.1e-4 1.8747,-0.83281 1.875,-2.5 -3.1e-4,-1.6664 -0.625,-2.4997 -1.875,-2.5 m 1.875,7.5 c -2.0838,3.1e-4 -3.1253,0.83438 -3.125,2.5 -3.1e-4,2.9169 1.8747,4.3753 5.625,4.375 0.83281,3.1e-4 1.25,-1.0406 1.25,-3.125 -3.1e-4,-2.4997 -1.25,-3.7497 -3.75,-3.75 m -20,7.5 c -2.917,3.1e-4 -4.3753,1.25 -4.375,3.75 -3.1e-4,2.0836 1.6662,3.1253 5,3.125 3.333,3.1e-4 4.9997,-1.25 5,-3.75 -3.1e-4,-2.4997 -1.8753,-3.5414 -5.625,-3.125 m -4.375,9.375 c -3.3338,3.1e-4 -5.0003,0.83438 -5,2.5 -3.1e-4,1.25 1.0406,1.8753 3.125,1.875 h 1.25 c 0.83281,-0.41719 1.4578,-0.83281 1.875,-1.25 0.83281,-0.41563 1.6662,-0.83281 2.5,-1.25 -3.1e-4,-1.25 -1.25,-1.8747 -3.75,-1.875 m -100,-208.75 c -3.3336,4.7e-4 -5.0003,1.8755 -5,5.625 -3.1e-4,2.9172 1.6664,4.3755 5,4.375 3.3331,4.7e-4 4.9997,-1.6662 5,-5 -3.1e-4,-3.3328 -1.6669,-4.9995 -5,-5 m 11.25,-5.625 c -2.9169,4.7e-4 -4.3753,1.6672 -4.375,5 -3.1e-4,2.9172 1.4578,4.3755 4.375,4.375 2.9164,4.7e-4 4.3747,-1.4578 4.375,-4.375 -3.1e-4,-3.3328 -1.4578,-4.9995 -4.375,-5 m 1.25,13.125 c -2.5003,4.7e-4 -3.7503,1.6672 -3.75,5 -3.1e-4,2.5005 1.4578,3.7505 4.375,3.75 2.4997,4.7e-4 3.7497,-1.4578 3.75,-4.375 -3.1e-4,-2.9162 -1.4578,-4.3745 -4.375,-4.375 m 267.5,5.625 c -1.25,0.83437 -1.8755,1.6672 -1.875,2.5 -4.7e-4,2.5005 1.4578,3.7505 4.375,3.75 2.0828,4.7e-4 3.1245,-0.83281 3.125,-2.5 -4.7e-4,-2.4995 -1.8755,-3.7495 -5.625,-3.75 m -2.5,8.75 c -2.9172,4.7e-4 -4.3755,1.4594 -4.375,4.375 -4.7e-4,2.0838 1.4578,3.1255 4.375,3.125 2.0828,4.7e-4 3.1245,-1.4578 3.125,-4.375 -4.7e-4,-2.0828 -1.0422,-3.1245 -3.125,-3.125 m -10,-2.5 c -2.0839,0.83437 -3.1255,2.0838 -3.125,3.75 l 0.625,0.625 c 0.41563,1.25 1.25,1.8755 2.5,1.875 2.4995,4.7e-4 3.7495,-1.0406 3.75,-3.125 -4.7e-4,-2.0828 -1.25,-3.1245 -3.75,-3.125 m -35,135.62 c -2.5005,3.1e-4 -3.7505,1.4578 -3.75,4.375 -4.7e-4,2.5003 1.0406,3.7503 3.125,3.75 3.3328,3.1e-4 4.9995,-1.4578 5,-4.375 -4.7e-4,-2.4997 -1.4594,-3.7497 -4.375,-3.75 m 11.25,0 c -3.3338,3.1e-4 -5.0005,1.8753 -5,5.625 -4.7e-4,3.3336 1.6662,5.0003 5,5 3.3328,3.1e-4 4.9995,-1.6664 5,-5 -4.7e-4,-3.7497 -1.6672,-5.6247 -5,-5.625 m -0.625,13.125 c -2.0838,0.83281 -3.1255,2.292 -3.125,4.375 -4.7e-4,2.0836 1.25,3.1253 3.75,3.125 2.4995,3.1e-4 3.7495,-1.25 3.75,-3.75 -4.7e-4,-2.4997 -1.25,-3.7497 -3.75,-3.75 h -0.625 M 333.105,222.28 c -5.8336,4.167 -13.334,8.9588 -22.5,14.375 -8.7502,5.0003 -19.167,11.042 -31.25,18.125 l -3.75,6.25 c 5.8331,-2.083 11.041,-4.3747 15.625,-6.875 4.5831,-2.9162 8.5414,-5.833 11.875,-8.75 l 16.875,-13.75 c 2.9164,-2.083 6.2497,-3.958 10,-5.625 l 3.125,-3.75 m -2.5,5.625 c -22.084,13.75 -38.125,32.5 -48.125,56.25 l -10.625,24.375 c -2.0836,5.417 -5.4169,11.042 -10,16.875 -4.1669,5.8336 -9.1669,12.292 -15,19.375 l -0.625,4.375 c 13.333,-11.25 22.5,-22.916 27.5,-35 l 12.5,-28.125 c 4.9998,-12.916 14.583,-26.666 28.75,-41.25 l 15.625,-16.875 M 291.23,262.28 c -4.5836,5.0003 -9.5836,11.667 -15,20 -5.8336,10 -10.417,15 -13.75,15 -2.5002,3.1e-4 -3.9584,-1.25 -4.375,-3.75 -1.25,2.5003 -1.8752,4.3753 -1.875,5.625 -1.6e-4,3.7503 1.6666,5.6253 5,5.625 4.5831,3.1e-4 10.416,-6.8747 17.5,-20.625 0.83281,-1.25 1.8748,-3.1247 3.125,-5.625 1.6664,-2.9162 3.7498,-6.458 6.25,-10.625 l 3.125,-5.625 m -21.25,64.375 c -6.6669,5.4169 -10,11.667 -10,18.75 -1.6e-4,3.7503 1.0422,5.6253 3.125,5.625 4.9998,3.1e-4 7.4998,-1.8747 7.5,-5.625 v -1.875 c -2.0836,2.0836 -3.5419,3.1253 -4.375,3.125 -1.6669,3.1e-4 -2.5002,-1.25 -2.5,-3.75 -1.6e-4,-2.4997 2.0831,-7.9164 6.25,-16.25 m 26.875,-40.625 c -2.9169,3.7503 -5.0002,9.792 -6.25,18.125 l -2.5,16.875 c -1.6669,11.667 -4.5836,17.5 -8.75,17.5 -1.6669,3.1e-4 -2.7086,-0.20781 -3.125,-0.625 l 0.625,2.5 c 0.83281,2.0836 2.2914,3.1253 4.375,3.125 5.4164,3.1e-4 9.1664,-4.9997 11.25,-15 0.41562,-3.7497 0.625,-7.4997 0.625,-11.25 0.41719,-3.7497 0.83281,-7.2914 1.25,-10.625 0.41562,-2.083 0.625,-4.7914 0.625,-8.125 0.41719,-3.7497 1.0406,-7.9164 1.875,-12.5 m 13.75,141.88 c 2.0831,0.41719 3.7497,0.625 5,0.625 1.6664,1.6e-4 2.9164,1.6e-4 3.75,0 h 5 c 17.916,1.6e-4 26.875,-5.2081 26.875,-15.625 -3.1e-4,-7.9164 -3.7503,-11.875 -11.25,-11.875 -2.5003,1.6e-4 -5.2086,1.25 -8.125,3.75 h 2.5 c 5.8331,-0.83281 8.7497,2.0836 8.75,8.75 -3.1e-4,5.4169 -3.9586,8.7502 -11.875,10 l -11.25,1.875 -9.375,2.5 m 43.75,-23.125 c 5.8331,4.1669 11.875,7.5002 18.125,10 6.6664,2.0836 9.9997,5.0002 10,8.75 -3.1e-4,3.7502 -2.292,5.6252 -6.875,5.625 h -1.875 c 3.333,2.0836 5.833,3.1252 7.5,3.125 6.2497,1.6e-4 9.3747,-2.7081 9.375,-8.125 -3.1e-4,-3.3331 -1.25,-5.6248 -3.75,-6.875 -2.5003,-1.6664 -9.5836,-4.3748 -21.25,-8.125 -1.25,-0.41719 -2.9169,-1.0406 -5,-1.875 -1.6669,-0.83281 -3.7503,-1.6664 -6.25,-2.5 m 34.375,29.375 c 1.6664,0.41719 3.1247,0.625 4.375,0.625 1.6664,1.6e-4 3.1247,1.6e-4 4.375,0 h 7.5 c 31.666,1.6e-4 47.5,-6.2498 47.5,-18.75 -3.1e-4,-6.6664 -3.1253,-9.9998 -9.375,-10 -1.25,1.6e-4 -4.167,1.6669 -8.75,5 l 3.125,-0.625 c 5.4162,1.6e-4 8.1247,2.5002 8.125,7.5 -3.1e-4,7.0836 -9.5838,11.459 -28.75,13.125 -4.5836,0.41719 -9.3753,0.83437 -14.375,1.25 -4.5836,0.41719 -9.167,1.0422 -13.75,1.875 m 81.25,-13.75 10,-5 c 11.666,-10.416 17.5,-19.583 17.5,-27.5 -4.7e-4,-8.7497 -3.7505,-13.125 -11.25,-13.125 -7.0838,3.1e-4 -10.625,3.5419 -10.625,10.625 -4.7e-4,4.1669 1.6662,6.2502 5,6.25 0.41562,-0.41719 1.4578,-0.625 3.125,-0.625 -2.5005,-1.6664 -3.7505,-3.7498 -3.75,-6.25 -4.7e-4,-3.3331 1.8745,-4.9997 5.625,-5 4.583,3.1e-4 6.8745,3.5419 6.875,10.625 -4.7e-4,7.0836 -7.5005,17.084 -22.5,30 m 28.75,-20.625 c 16.666,-16.666 25,-36.25 25,-58.75 -4.7e-4,-0.83281 -0.41719,-2.9164 -1.25,-6.25 l -5,-16.25 -1.875,-8.75 c -2.5005,3.3336 -3.7505,5.6253 -3.75,6.875 v 1.25 l 1.25,3.75 0.625,1.25 c -4.7e-4,1.25 -0.83438,1.8753 -2.5,1.875 h -1.875 c -7.5005,-0.41719 -11.25,2.7086 -11.25,9.375 -4.7e-4,6.2503 2.708,9.3753 8.125,9.375 2.083,3.1e-4 3.7495,-1.8747 5,-5.625 -1.667,1.6669 -2.917,2.5003 -3.75,2.5 -3.7505,3.1e-4 -5.6255,-1.6664 -5.625,-5 -4.7e-4,-3.3331 1.8745,-4.9997 5.625,-5 7.083,3.1e-4 10.625,5.0003 10.625,15 -4.7e-4,14.167 -3.1255,26.459 -9.375,36.875 l -4.375,7.5 -5.625,10 m -76.25,106.88 5.625,8.125 8.75,13.125 c 2.9162,5.0002 6.8747,7.5002 11.875,7.5 4.583,1.6e-4 6.8747,-2.2916 6.875,-6.875 -3.1e-4,-2.9166 -2.5003,-4.7916 -7.5,-5.625 2.083,2.0834 3.1247,3.7502 3.125,5 -3.1e-4,2.5002 -1.4594,3.7502 -4.375,3.75 -2.917,-0.41719 -5.417,-2.0833 -7.5,-5 l -8.75,-12.5 -8.125,-7.5 m -6.25,9.375 c 4.1662,8.7502 6.2497,15.417 6.25,20 -3.1e-4,1.6667 -0.625,3.9584 -1.875,6.875 4.583,-0.83281 6.8747,-2.7083 6.875,-5.625 -3.1e-4,-2.9166 -3.7503,-9.9998 -11.25,-21.25 m -5.625,20.625 v 6.875 h 2.5 c -0.41719,-1.6666 -0.83281,-2.9166 -1.25,-3.75 -0.41719,-1.25 -0.83438,-2.2916 -1.25,-3.125 m -77.5,-82.5 -1.875,3.75 c 13.75,5.0002 25,10.208 33.75,15.625 9.1664,5.4169 16.458,11.458 21.875,18.125 5.833,6.2502 9.7914,13.75 11.875,22.5 2.4997,8.3334 3.7497,18.125 3.75,29.375 l 5,1.25 v -8.75 c 0.83281,-38.333 -23.959,-65.625 -74.375,-81.875 m -4.375,6.25 15.625,8.125 c 12.5,7.0834 18.75,13.542 18.75,19.375 -3.1e-4,5.8334 -2.9169,8.7502 -8.75,8.75 -5.4169,1.6e-4 -8.3336,-3.1248 -8.75,-9.375 -1.25,2.0834 -1.8753,3.5417 -1.875,4.375 -3.1e-4,6.2502 3.3331,9.5834 10,10 l 1.875,0.625 c 9.5831,0.83281 14.375,-3.9583 14.375,-14.375 -3.1e-4,-10.833 -13.75,-20 -41.25,-27.5 m -9.375,53.125 c 1.6664,-1.6666 3.3331,-3.1248 5,-4.375 1.6664,-1.25 3.3331,-2.2916 5,-3.125 6.6664,-5.4166 9.9997,-11.042 10,-16.875 -3.1e-4,-8.3331 -3.5419,-12.5 -10.625,-12.5 -5.0003,1.6e-4 -7.9169,1.6669 -8.75,5 0.83281,-0.41719 2.7081,-0.625 5.625,-0.625 5.4164,1.6e-4 8.1247,2.9169 8.125,8.75 -3.1e-4,3.7502 -4.7919,11.667 -14.375,23.75 m 2.5,2.5 3.125,1.875 c 6.6664,-5.4166 13.125,-8.1248 19.375,-8.125 13.333,1.6e-4 20,5.4167 20,16.25 -3.1e-4,3.7502 -2.2919,6.6667 -6.875,8.75 2.0831,2.0834 3.9581,3.1252 5.625,3.125 0.83281,1.6e-4 1.8747,-0.20781 3.125,-0.625 1.6664,-0.41719 2.708,-0.625 3.125,-0.625 0.41719,1.6e-4 1.4578,0.83281 3.125,2.5 1.6664,1.25 3.333,2.0834 5,2.5 0.41719,-2.0833 1.0406,-3.9583 1.875,-5.625 0.83281,-1.6666 1.6664,-3.3333 2.5,-5 l 2.5,-1.25 2.5,-1.875 -6.25,-4.375 -6.25,-6.875 c -7.0836,-7.4998 -16.459,-11.25 -28.125,-11.25 -7.9169,1.6e-4 -16.042,3.5417 -24.375,10.625 m 22.5,13.125 c 3.7497,1.6e-4 5.6247,-1.6666 5.625,-5 -3.1e-4,-5.8333 -3.5419,-8.7498 -10.625,-8.75 -7.0836,1.6e-4 -10.625,1.8752 -10.625,5.625 -3.1e-4,0.83281 0.625,1.25 1.875,1.25 0.41719,1.6e-4 1.25,-0.41719 2.5,-1.25 1.25,-0.83281 2.4997,-1.25 3.75,-1.25 4.1664,1.6e-4 6.6664,3.1252 7.5,9.375 m 38.75,-38.125 c 3.7497,9.5834 5.6247,15 5.625,16.25 -3.1e-4,4.5834 -1.8753,6.8752 -5.625,6.875 -1.667,1.6e-4 -2.7086,-0.20781 -3.125,-0.625 1.6664,3.7502 3.7497,5.6252 6.25,5.625 4.1664,1.6e-4 6.2497,-3.1248 6.25,-9.375 -3.1e-4,-4.1666 -3.1253,-10.417 -9.375,-18.75 m -173.75,-237.5 c -5.4167,-4.1662 -10.833,-6.2497 -16.25,-6.25 -12.083,3.1e-4 -18.125,5.417 -18.125,16.25 -1.6e-4,10.834 4.5833,16.25 13.75,16.25 1.6666,3.1e-4 4.7916,-1.6662 9.375,-5 -1.25,0.41719 -3.3334,0.625 -6.25,0.625 -8.3334,3.1e-4 -12.5,-3.958 -12.5,-11.875 -1.6e-4,-8.333 4.9998,-12.5 15,-12.5 4.9998,3.1e-4 9.9998,0.83437 15,2.5 m -15.625,101.88 0.625,-3.75 c -10.833,-6.2497 -16.25,-14.791 -16.25,-25.625 -1.6e-4,-5.833 2.0833,-10.625 6.25,-14.375 4.1666,-4.1664 9.1666,-6.2497 15,-6.25 12.5,3.1e-4 18.75,5.417 18.75,16.25 -1.6e-4,6.667 -3.5419,10 -10.625,10 -4.1667,3.1e-4 -7.5002,-2.708 -10,-8.125 -0.41719,0.83437 -0.625,2.5003 -0.625,5 -1.6e-4,6.2503 3.9583,9.3753 11.875,9.375 2.4998,3.1e-4 4.7916,-0.625 6.875,-1.875 2.4998,-1.6664 3.7498,-2.4997 3.75,-2.5 1.25,3.1e-4 2.2916,1.0422 3.125,3.125 3.3331,-4.5831 4.9998,-8.333 5,-11.25 -1.6e-4,-6.6664 -2.9169,-12.5 -8.75,-17.5 -5.8334,-5.4164 -12.292,-8.1247 -19.375,-8.125 -16.667,3.1e-4 -25,9.167 -25,27.5 -1.6e-4,12.084 6.4583,21.459 19.375,28.125 m 12.5,-43.75 c -2.0834,5.0003 -3.3334,9.3753 -3.75,13.125 2.4998,1.25 4.3748,1.8753 5.625,1.875 3.7498,3.1e-4 5.6248,-1.8747 5.625,-5.625 -1.6e-4,-2.9164 -2.5002,-6.0414 -7.5,-9.375 m -11.25,36.875 v -1.875 c -3.3334,-2.4997 -5.0002,-5.4164 -5,-8.75 -1.6e-4,-1.25 0.625,-3.5414 1.875,-6.875 -3.7502,3.3336 -5.6252,6.0419 -5.625,8.125 -1.6e-4,3.7503 2.9166,6.8753 8.75,9.375 M 174.355,312.92 c 0.83281,-1.25 1.6666,-2.2914 2.5,-3.125 0.83281,-1.25 1.6666,-2.2914 2.5,-3.125 0.41719,-1.6664 1.0422,-2.9164 1.875,-3.75 4.5833,-7.083 6.8748,-10.833 6.875,-11.25 -1.6e-4,-4.583 -2.5002,-6.6664 -7.5,-6.25 h -1.875 c 3.3333,2.0836 4.9998,3.9586 5,5.625 -1.6e-4,2.0836 -0.83281,3.9586 -2.5,5.625 -2.9167,3.7503 -5.2084,9.167 -6.875,16.25 m 20,46.25 -5.625,-0.625 c -5.0002,3.1e-4 -9.3752,1.8753 -13.125,5.625 -3.7502,3.3336 -5.6252,7.2919 -5.625,11.875 -1.6e-4,10 4.9998,15 15,15 2.0833,1.6e-4 5.4166,-1.6664 10,-5 -0.83281,0.41719 -2.5002,0.625 -5,0.625 -8.7502,1.6e-4 -13.125,-3.5414 -13.125,-10.625 -1.6e-4,-7.4997 5.6248,-12.291 16.875,-14.375 l 0.625,-2.5 m 1.25,229.38 c 6.6666,6.25 13.542,9.375 20.625,9.375 3.3331,0 4.9998,-0.625 5,-1.875 -1.6e-4,0.41719 -2.2919,-1.6667 -6.875,-6.25 -0.83281,-0.41719 -1.4578,-1.6666 -1.875,-3.75 -5.4167,2.0834 -8.9584,3.125 -10.625,3.125 -2.9167,0 -5.0002,-0.20781 -6.25,-0.625 m 96.25,8.125 c -3.3336,-5.8333 -5.0002,-8.9583 -5,-9.375 -1.6e-4,-5 2.7081,-7.5 8.125,-7.5 2.0831,0 4.7914,0.625 8.125,1.875 l 16.25,8.75 c 9.5831,5.8333 18.541,8.3333 26.875,7.5 l 9.375,-0.625 c -17.917,-0.41719 -33.75,-6.6666 -47.5,-18.75 -6.6669,-5.4166 -11.667,-8.125 -15,-8.125 -8.7502,0 -13.125,3.9584 -13.125,11.875 -1.6e-4,5.8334 3.9581,10.625 11.875,14.375 m 15,-43.75 c 4.5831,28.333 21.041,42.5 49.375,42.5 12.5,0 24.791,-5 36.875,-15 l 0.625,-3.75 h -3.75 c -8.7503,9.1667 -20.209,13.75 -34.375,13.75 -22.5,0 -36.875,-11.667 -43.125,-35 l -5.625,-2.5 m 22.5,24.375 c -0.41719,-0.83281 -0.625,-2.5 -0.625,-5 -3.1e-4,-2.9166 1.8747,-4.375 5.625,-4.375 -2.0836,-3.75 -4.1669,-5.625 -6.25,-5.625 -3.3336,0 -5.0003,1.6667 -5,5 -3.1e-4,3.75 2.0831,7.0834 6.25,10 m 22.5,-6.875 c -2.0836,2.0834 -3.1253,3.75 -3.125,5 -3.1e-4,7.5 4.7914,11.25 14.375,11.25 9.1664,0 16.875,-3.3333 23.125,-10 h -2.5 c -6.667,4.1667 -12.292,6.25 -16.875,6.25 -7.9169,0 -12.917,-4.1666 -15,-12.5 m 46.875,6.875 c -3.3336,7.5 -5.0003,11.875 -5,13.125 -3.1e-4,4.1667 2.708,6.4583 8.125,6.875 -2.0836,-5 -3.1253,-8.125 -3.125,-9.375 -3.1e-4,-1.25 1.0406,-4.5833 3.125,-10 L 398.73,577.3 m 3.75,4.375 c -0.41719,1.25 -0.625,2.9167 -0.625,5 v 3.125 c -3.1e-4,4.5833 1.0406,6.875 3.125,6.875 0.41719,-0.41719 0.625,-1.0422 0.625,-1.875 -3.1e-4,-0.83281 -0.41719,-2.7083 -1.25,-5.625 -0.83438,-2.9166 -1.4578,-5.4166 -1.875,-7.5 m 3.125,-3.75 v 1.875 c -3.1e-4,0.83281 -3.1e-4,1.875 0,3.125 0.41719,1.25 0.83281,2.9167 1.25,5 1.25,7.0833 3.333,10.625 6.25,10.625 h 0.625 l 1.875,-1.25 h 3.125 l 4.375,0.625 2.5,0.625 c 4.1662,0 7.708,-1.25 10.625,-3.75 3.333,-2.5 4.9997,-5.2083 5,-8.125 -3.1e-4,-5.8333 -3.3338,-8.5416 -10,-8.125 h -0.625 c 2.9162,2.9167 4.3747,5.4167 4.375,7.5 -3.1e-4,5.8333 -3.3338,8.75 -10,8.75 -6.667,0 -12.084,-5.8333 -16.25,-17.5 l -3.125,0.625 m 66.25,-6.25 c 11.666,8.75 23.541,13.125 35.625,13.125 11.666,0 17.5,-5.4166 17.5,-16.25 -4.7e-4,-5.8333 -4.167,-9.1666 -12.5,-10 l -4.375,2.5 h 1.875 c 5.4162,0 8.1245,2.2917 8.125,6.875 -4.7e-4,8.75 -5.417,13.125 -16.25,13.125 -5.8338,0 -15,-3.125 -27.5,-9.375 h -2.5 m 117.5,-243.12 c 9.1661,1.667 14.375,5.2086 15.625,10.625 l 3.125,-3.125 c -4.7e-4,-5.4164 -5.2089,-7.9164 -15.625,-7.5 h -3.125 m 35.625,-116.25 c -4.5839,8.3338 -11.875,16.25 -21.875,23.75 -10.834,7.5003 -16.25,15.209 -16.25,23.125 -4.7e-4,10.417 5.4161,17.292 16.25,20.625 -4.7e-4,-2.083 0.41562,-3.1247 1.25,-3.125 l 6.875,0.625 c 9.5828,0.83437 14.375,-4.3747 14.375,-15.625 -4.7e-4,-2.9162 -2.5005,-6.0412 -7.5,-9.375 1.25,3.3338 1.8745,6.042 1.875,8.125 -4.7e-4,7.5003 -4.3755,11.25 -13.125,11.25 -9.5839,3.1e-4 -14.375,-4.1662 -14.375,-12.5 -4.7e-4,-5.833 3.9578,-11.875 11.875,-18.125 10.833,-8.7497 17.708,-18.333 20.625,-28.75 m -128.75,241.25 c -1.25,1.6e-4 -1.8755,0.83281 -1.875,2.5 -4.7e-4,0.83281 0.83281,1.25 2.5,1.25 0.83281,1.6e-4 1.25,-0.625 1.25,-1.875 v -0.625 c -0.83438,-0.83281 -1.4594,-1.25 -1.875,-1.25 m -1.875,-7.5 c -1.25,1.6e-4 -1.8755,0.83281 -1.875,2.5 -4.7e-4,1.6669 0.83281,2.5002 2.5,2.5 1.6662,1.6e-4 2.4995,-0.625 2.5,-1.875 -4.7e-4,-2.0831 -1.0422,-3.1248 -3.125,-3.125 m 10,3.125 c -1.667,0.41719 -2.5005,1.6669 -2.5,3.75 -4.7e-4,2.5002 1.25,3.7502 3.75,3.75 2.083,1.6e-4 3.1245,-1.4578 3.125,-4.375 -4.7e-4,-2.0831 -1.4594,-3.1248 -4.375,-3.125 m -3.75,-10.625 c -1.667,1.6e-4 -2.5005,1.25 -2.5,3.75 -4.7e-4,2.5002 0.83281,3.7502 2.5,3.75 1.25,1.6e-4 1.8745,-1.25 1.875,-3.75 -4.7e-4,-2.4998 -0.625,-3.7498 -1.875,-3.75 m 8.125,1.25 c -1.667,1.6e-4 -2.5005,1.0422 -2.5,3.125 v 0.625 c 0.41562,1.25 1.25,1.8752 2.5,1.875 1.25,1.6e-4 1.8745,-1.0422 1.875,-3.125 -4.7e-4,-1.6666 -0.625,-2.4998 -1.875,-2.5 m -329.38,130 c -1.25,0 -1.8752,0.83281 -1.875,2.5 -1.6e-4,1.6667 0.83281,2.5 2.5,2.5 1.25,0 1.8748,-0.625 1.875,-1.875 -1.6e-4,-2.0833 -0.83281,-3.125 -2.5,-3.125 m 5.625,6.25 c -1.25,0.83281 -1.8752,1.875 -1.875,3.125 0.41719,1.25 1.25,1.875 2.5,1.875 1.6666,0 2.4998,-0.83281 2.5,-2.5 -1.6e-4,-1.6666 -1.0422,-2.5 -3.125,-2.5 m 10,2.5 c -2.0834,0 -3.1252,1.0422 -3.125,3.125 -1.6e-4,2.5 1.0422,3.75 3.125,3.75 2.0833,0 3.1248,-1.0422 3.125,-3.125 -1.6e-4,-2.5 -1.0422,-3.75 -3.125,-3.75 m 10.625,0 c -2.0834,0.83281 -3.1252,1.875 -3.125,3.125 -1.6e-4,2.0834 1.0422,3.125 3.125,3.125 2.9166,0 4.3748,-1.25 4.375,-3.75 -1.6e-4,-1.6666 -1.4578,-2.5 -4.375,-2.5 m 7.5,-5.625 c -1.25,0 -1.8752,0.625 -1.875,1.875 -1.6e-4,1.25 0.625,1.875 1.875,1.875 1.6666,0 2.4998,-0.625 2.5,-1.875 -1.6e-4,-1.6666 -0.83281,-2.2916 -2.5,-1.875 m 3.75,-7.5 -1.875,1.875 c 0.83281,0.83281 1.4578,1.25 1.875,1.25 1.25,0 1.8748,-0.625 1.875,-1.875 -0.83281,-0.83281 -1.4578,-1.25 -1.875,-1.25 m 51.25,-5.625 c -2.9169,0 -4.3752,1.875 -4.375,5.625 -1.6e-4,2.5 1.4578,3.75 4.375,3.75 2.4998,0 3.7498,-1.4578 3.75,-4.375 -1.6e-4,-3.3333 -1.25,-5 -3.75,-5 m 9.375,-4.375 c -2.5002,0 -3.7502,1.4578 -3.75,4.375 -1.6e-4,2.9167 1.25,4.375 3.75,4.375 2.9164,0 4.3748,-1.4578 4.375,-4.375 -1.6e-4,-2.9166 -1.4578,-4.375 -4.375,-4.375 m 10,-1.25 c -1.6669,0.41719 -2.5002,1.6667 -2.5,3.75 -1.6e-4,2.0834 0.83281,3.125 2.5,3.125 2.4998,0 3.7498,-1.25 3.75,-3.75 -1.6e-4,-2.0833 -1.25,-3.125 -3.75,-3.125 m 10.625,1.875 c -2.0836,0 -3.1252,1.0422 -3.125,3.125 -1.6e-4,1.6667 1.0406,2.5 3.125,2.5 2.4998,0 3.7498,-1.0422 3.75,-3.125 -1.6e-4,-1.6666 -1.25,-2.5 -3.75,-2.5 m 296.88,-411.88 8.125,3.75 5,2.5 c 2.9161,1.6672 5.6245,2.5005 8.125,2.5 5.4161,4.7e-4 8.1245,-2.2912 8.125,-6.875 -4.7e-4,-0.41563 -0.625,-1.6662 -1.875,-3.75 -2.0839,3.7505 -4.5839,5.6255 -7.5,5.625 -2.0839,4.7e-4 -5.6255,-0.41563 -10.625,-1.25 -4.5839,-1.25 -7.7089,-2.0828 -9.375,-2.5 m -23.125,9.375 c 9.1661,4.5838 14.583,7.5005 16.25,8.75 l 3.75,3.75 c 0.83281,0.83437 1.6661,1.25 2.5,1.25 1.6661,4.7e-4 2.4995,-0.83281 2.5,-2.5 -0.41719,-1.6662 -1.8755,-3.1245 -4.375,-4.375 l -10,-6.25 -10.625,-0.625 m -42.5,30.625 1.875,0.625 c 8.7495,-15.416 19.166,-23.125 31.25,-23.125 8.7495,4.7e-4 13.125,3.5422 13.125,10.625 -4.7e-4,5.417 -2.7088,7.917 -8.125,7.5 h -3.125 c 4.1662,2.5005 7.4995,3.7505 10,3.75 5.8328,4.7e-4 8.7495,-3.5412 8.75,-10.625 -4.7e-4,-10.416 -6.4589,-15.625 -19.375,-15.625 -12.917,4.7e-4 -24.375,8.9588 -34.375,26.875 m 3.75,1.25 1.875,1.25 c 1.6662,-6.2495 4.7912,-9.3745 9.375,-9.375 5.4162,4.7e-4 8.3328,2.7088 8.75,8.125 2.0828,-2.083 3.1245,-3.7495 3.125,-5 -4.7e-4,-4.9995 -2.7088,-7.4995 -8.125,-7.5 -5.4172,4.7e-4 -10.417,4.167 -15,12.5 m 41.875,3.75 c 1.25,2.0838 1.8745,3.7505 1.875,5 2.9161,-1.25 4.9995,-1.8745 6.25,-1.875 4.9995,4.7e-4 7.4995,2.7088 7.5,8.125 -4.7e-4,2.917 -2.2922,5.417 -6.875,7.5 2.9161,1.25 5.4161,1.8755 7.5,1.875 7.0828,4.7e-4 10.625,-3.958 10.625,-11.875 -4.7e-4,-5.833 -3.5422,-10.625 -10.625,-14.375 l -1.875,1.875 h -7.5 l -6.875,3.75 m 23.125,21.875 c -1.6672,1.667 -2.5005,3.1255 -2.5,4.375 -4.7e-4,3.3338 2.0828,5.0005 6.25,5 3.3328,4.7e-4 6.8745,-2.708 10.625,-8.125 -3.7505,2.5005 -6.6672,3.7505 -8.75,3.75 -2.5005,4.7e-4 -4.3755,-1.6662 -5.625,-5 m -66.25,-51.875 c 6.6662,-6.6662 9.9995,-11.25 10,-13.75 -4.7e-4,-2.9162 -1.4594,-4.3745 -4.375,-4.375 -1.6672,4.7e-4 -3.3338,0.83438 -5,2.5 v 2.5 c 1.6662,-1.6662 3.1245,-2.4995 4.375,-2.5 0.83281,0.83438 1.25,1.6672 1.25,2.5 -4.7e-4,2.5005 -2.0838,5.8338 -6.25,10 v 3.125 m -13.75,20 1.875,1.25 2.5,-6.875 3.125,-6.875 c 1.6662,-2.9162 2.4995,-6.4578 2.5,-10.625 -4.7e-4,-10.833 -6.0422,-16.25 -18.125,-16.25 -8.3338,4.7e-4 -15.834,3.3338 -22.5,10 2.4995,0.83438 3.958,1.4594 4.375,1.875 -4.7e-4,0.41719 -0.20938,1.4594 -0.625,3.125 -0.41719,1.25 -0.625,2.2922 -0.625,3.125 -4.7e-4,8.3338 4.1662,12.5 12.5,12.5 1.6662,4.7e-4 4.1662,-1.0406 7.5,-3.125 l -3.75,0.625 c -5.8338,0.83437 -8.7505,-2.2912 -8.75,-9.375 -4.7e-4,-8.7495 4.3745,-13.125 13.125,-13.125 8.333,4.7e-4 12.5,4.3755 12.5,13.125 -4.7e-4,3.7505 -1.8755,10.625 -5.625,20.625 m -83.75,-18.125 10.625,1.25 c 0.83281,-10.833 4.7912,-16.25 11.875,-16.25 6.2497,4.7e-4 9.3747,2.9172 9.375,8.75 -3.1e-4,2.5005 -0.20938,4.1672 -0.625,5 4.9995,-2.4995 7.4995,-5.4162 7.5,-8.75 -4.7e-4,-7.9162 -4.792,-11.875 -14.375,-11.875 -5.417,4.7e-4 -9.792,1.6672 -13.125,5 -1.25,1.25 -2.0838,1.8755 -2.5,1.875 -0.41719,4.7e-4 -1.0422,-0.625 -1.875,-1.875 -0.83438,-1.25 -1.667,-1.8745 -2.5,-1.875 -1.25,4.7e-4 -2.292,1.0422 -3.125,3.125 -0.83438,2.0838 -1.4594,4.3755 -1.875,6.875 v 1.25 c -0.41719,0.41719 -0.20938,2.9172 0.625,7.5 m -75.625,3.75 8.125,-1.875 c 0.41562,-12.5 4.7914,-18.75 13.125,-18.75 7.083,4.7e-4 10.625,2.9172 10.625,8.75 -3.1e-4,1.6672 -0.625,3.9588 -1.875,6.875 4.9997,-1.6662 7.4997,-4.5828 7.5,-8.75 -3.1e-4,-7.9162 -5.8336,-11.875 -17.5,-11.875 -14.167,4.7e-4 -20.834,7.2922 -20,21.875 v 3.75 m -65.625,-1.875 c 5.4164,5.4172 12.083,8.1255 20,8.125 9.5831,4.7e-4 14.375,-2.0828 14.375,-6.25 -3.1e-4,-1.6662 -1.4578,-2.4995 -4.375,-2.5 -0.83438,4.7e-4 -3.1253,0.83438 -6.875,2.5 -3.7502,1.25 -6.6669,1.8755 -8.75,1.875 -4.1669,4.7e-4 -8.9586,-1.25 -14.375,-3.75 m -35.625,-11.25 0.625,3.75 c 3.3331,-0.41562 6.0414,-0.625 8.125,-0.625 2.0831,-0.41562 3.5414,-0.625 4.375,-0.625 6.2498,4.7e-4 9.3748,1.25 9.375,3.75 l -1.25,5.625 c -1.6e-4,0.83438 1.25,2.5005 3.75,5 2.4998,2.5005 3.7498,5.2088 3.75,8.125 -1.6e-4,1.667 -1.25,3.7505 -3.75,6.25 5.8331,-1.25 8.7498,-5.208 8.75,-11.875 -1.6e-4,-2.9162 -0.41719,-4.7912 -1.25,-5.625 l -3.125,-4.375 c -0.41719,-0.41562 -0.625,-1.25 -0.625,-2.5 -1.6e-4,-0.41562 0.41719,-0.625 1.25,-0.625 h 1.875 l 4.375,1.25 c 0.41719,0.41719 1.6664,0.625 3.75,0.625 7.0831,4.7e-4 10.625,-2.9162 10.625,-8.75 -1.6e-4,-2.4995 -0.20938,-4.1662 -0.625,-5 -1.25,4.1672 -4.1669,6.2505 -8.75,6.25 -2.5002,4.7e-4 -4.1669,-0.20781 -5,-0.625 -3.3336,-1.25 -5.2086,-1.8745 -5.625,-1.875 h -2.5 c -1.25,4.7e-4 -2.0836,0.20938 -2.5,0.625 l -1.875,1.875 -3.75,-0.625 c -3.3336,-0.83281 -5.8336,-1.25 -7.5,-1.25 -0.83438,4.7e-4 -2.2919,0.20938 -4.375,0.625 -2.0836,4.7e-4 -4.7919,0.20938 -8.125,0.625 m -16.875,-3.75 c 4.5831,4.7e-4 6.8748,-1.8745 6.875,-5.625 -1.6e-4,-0.83281 -0.41719,-1.6662 -1.25,-2.5 l -3.125,-0.625 v 4.375 l -2.5,4.375 m 17.5,17.5 c 7.4998,0.83438 11.25,3.3338 11.25,7.5 -1.6e-4,2.917 -1.8752,5.0005 -5.625,6.25 l 5,3.125 c 3.7498,-2.9162 5.6248,-5.6245 5.625,-8.125 -1.6e-4,-6.2495 -3.5419,-9.3745 -10.625,-9.375 -2.9169,4.7e-4 -4.7919,0.20938 -5.625,0.625 m -31.25,84.375 c -3.3334,-14.166 -5.0002,-19.166 -5,-15 -1.6e-4,-5.833 2.7081,-8.7495 8.125,-8.75 3.7498,4.7e-4 6.2498,2.917 7.5,8.75 0.83281,-3.333 1.25,-4.7912 1.25,-4.375 -1.6e-4,-5.4162 -3.3334,-8.1245 -10,-8.125 -7.0834,4.7e-4 -10.625,3.9588 -10.625,11.875 -1.6e-4,4.5838 2.9166,9.792 8.75,15.625 m -55,-21.875 -0.625,-3.75 c -1.6e-4,-4.1662 2.0833,-6.2495 6.25,-6.25 4.1666,4.7e-4 9.1666,4.792 15,14.375 5.4166,9.5838 15.417,18.542 30,26.875 l 0.625,-1.25 c -12.917,-7.9162 -22.5,-18.541 -28.75,-31.875 -5.4167,-10.416 -11.25,-15.625 -17.5,-15.625 -6.2502,4.7e-4 -9.3752,3.3338 -9.375,10 -1.6e-4,2.0838 1.4578,4.5838 4.375,7.5 m 286.25,310 c 3.333,-0.83281 5.6247,-3.7498 6.875,-8.75 0.41562,-1.6666 1.0406,-2.4998 1.875,-2.5 l 1.875,1.25 1.875,-1.25 c -0.83438,-4.5833 -2.917,-8.1248 -6.25,-10.625 -3.3338,-2.9166 -5.0003,-5.2083 -5,-6.875 -3.1e-4,-1.6666 1.0406,-2.4998 3.125,-2.5 1.25,1.6e-4 2.2912,0.625 3.125,1.875 l 3.75,6.25 c 1.6662,2.5002 3.7495,3.7502 6.25,3.75 1.6662,1.6e-4 4.7912,-3.5416 9.375,-10.625 4.9995,-8.7498 7.4995,-12.5 7.5,-11.25 -4.7e-4,-3.7498 -2.292,-5.6248 -6.875,-5.625 h -6.875 c -3.7505,-0.41719 -5.6255,-2.0833 -5.625,-5 -4.7e-4,-1.25 1.0406,-1.8748 3.125,-1.875 -4.7e-4,1.6e-4 0.625,0.41719 1.875,1.25 1.25,0.41719 3.333,1.0422 6.25,1.875 0.83281,0.41719 2.4995,0.625 5,0.625 1.6662,1.6e-4 3.1245,-1.0422 4.375,-3.125 l -1.25,-1.25 1.25,-1.25 c 3.7495,-2.9166 5.6245,-5.2081 5.625,-6.875 -0.83438,-0.83281 -1.4594,-1.8748 -1.875,-3.125 -3.3338,3.3334 -6.667,5.0002 -10,5 -3.3338,1.6e-4 -7.7088,-0.83281 -13.125,-2.5 -4.167,-0.83281 -6.2503,-1.25 -6.25,-1.25 -2.5003,1.6e-4 -5.6253,1.25 -9.375,3.75 1.6662,0.41719 2.4997,1.25 2.5,2.5 -3.1e-4,0.41719 -0.20938,0.625 -0.625,0.625 h -3.75 l -1.25,2.5 c 1.6662,0.83281 3.1247,1.4578 4.375,1.875 -0.41719,0.41719 -1.8753,1.25 -4.375,2.5 l 1.875,2.5 3.125,1.875 c 0.41562,0.41719 0.625,1.0422 0.625,1.875 -3.1e-4,0.83281 -0.625,1.25 -1.875,1.25 h -0.625 l -3.125,-1.25 -4.375,0.625 c 1.25,2.0834 1.8747,3.5417 1.875,4.375 -3.1e-4,0.41719 -0.20938,0.625 -0.625,0.625 -0.83438,1.6e-4 -2.292,-1.0422 -4.375,-3.125 -1.25,0.83281 -1.8753,1.6667 -1.875,2.5 l 0.625,1.25 c 1.6662,0.41719 2.4997,1.25 2.5,2.5 -3.1e-4,1.25 -0.41719,1.8752 -1.25,1.875 -0.41719,-0.41719 -1.0422,-0.625 -1.875,-0.625 -0.41719,1.6e-4 -0.83438,-0.20781 -1.25,-0.625 0.41562,4.1667 2.4997,8.3334 6.25,12.5 6.2497,7.0834 9.3747,12.292 9.375,15.625 -3.1e-4,1.6667 -0.83438,3.9584 -2.5,6.875 m 26.875,-21.25 2.5,3.75 3.75,0.625 c 2.083,0.83281 3.1245,2.9167 3.125,6.25 l 3.75,-1.875 v -1.25 c 0.41562,-1.6666 -3.9588,-4.1666 -13.125,-7.5 m 4.375,-6.25 -1.25,3.125 c 5.4162,1.6667 11.25,2.5002 17.5,2.5 18.333,1.6e-4 27.5,-9.9998 27.5,-30 -4.7e-4,-5.4166 -0.83438,-8.9581 -2.5,-10.625 L 516.23,464.8 l -1.25,-1.25 c -4.7e-4,1.6e-4 0.625,-0.625 1.875,-1.875 1.6662,-1.6666 2.4995,-3.1248 2.5,-4.375 l -0.625,-3.75 c -0.41719,-1.25 -0.625,-2.9166 -0.625,-5 v -2.5 c -4.7e-4,-2.0831 0.20781,-3.7498 0.625,-5 -5.0005,3.3334 -7.5005,6.8752 -7.5,10.625 v 1.25 c 0.41562,0.41719 0.625,1.8752 0.625,4.375 -4.7e-4,2.0834 -0.83438,3.1252 -2.5,3.125 -0.83438,1.6e-4 -2.292,-0.20781 -4.375,-0.625 -2.0838,-0.41719 -3.7505,-0.625 -5,-0.625 -4.5838,1.6e-4 -7.7088,1.8752 -9.375,5.625 l 5,-0.625 c 1.6662,1.6e-4 3.5412,0.625 5.625,1.875 2.4995,1.25 3.958,1.8752 4.375,1.875 0.41562,1.6e-4 1.25,-0.41719 2.5,-1.25 1.25,-0.83281 2.083,-1.25 2.5,-1.25 0.83281,0.41719 1.6662,1.0422 2.5,1.875 1.25,0.83281 2.708,1.6669 4.375,2.5 8.7495,4.5834 13.125,10.833 13.125,18.75 -4.7e-4,6.6667 -2.5005,12.5 -7.5,17.5 -5.0005,4.5834 -11.042,6.8752 -18.125,6.875 -5.8338,1.6e-4 -11.042,-0.83281 -15.625,-2.5 m 1.875,-2.5 c 2.083,0.41719 3.958,0.83281 5.625,1.25 1.6662,1.6e-4 3.1245,1.6e-4 4.375,0 11.666,1.6e-4 17.5,-4.7916 17.5,-14.375 -4.7e-4,-8.3331 -4.167,-12.5 -12.5,-12.5 -2.0838,1.6e-4 -4.792,1.6669 -8.125,5 l 5,-0.625 c 6.2495,1.6e-4 9.3745,2.7084 9.375,8.125 -4.7e-4,7.9167 -4.3755,11.458 -13.125,10.625 h -6.875 l -1.25,2.5 m 43.75,-10 4.375,-8.75 3.75,-15.625 c 1.25,-5.8331 5.2078,-9.5831 11.875,-11.25 h -2.5 c -6.2505,1.6e-4 -10.209,2.0834 -11.875,6.25 -0.41719,0.83281 -0.83438,2.5002 -1.25,5 -0.41719,2.5002 -0.83438,5.8334 -1.25,10 -0.41719,1.6669 -0.83438,3.7502 -1.25,6.25 -0.41719,2.0834 -1.0422,4.7917 -1.875,8.125 m 55,69.375 v 3.75 c 7.4995,-4.1666 11.25,-6.875 11.25,-8.125 v -1.25 l -1.25,-1.25 c -4.7e-4,-0.41719 0.20781,-1.0422 0.625,-1.875 0.41562,-1.25 0.625,-2.0833 0.625,-2.5 -4.7e-4,0.41719 -0.41719,-0.625 -1.25,-3.125 -2.0839,5 -5.4172,9.7917 -10,14.375 m -0.625,-7.5 0.625,4.375 c 4.1661,-4.1666 6.2495,-8.3333 6.25,-12.5 -4.7e-4,-7.5 -3.5422,-11.25 -10.625,-11.25 -3.3339,0 -5.2089,2.0834 -5.625,6.25 2.0828,-2.0833 3.7495,-3.125 5,-3.125 4.5828,0 6.8745,2.7084 6.875,8.125 -4.7e-4,2.5 -0.83438,5.2084 -2.5,8.125 m 18.75,5 3.125,1.25 c 2.9161,-2.5 5.4161,-3.75 7.5,-3.75 2.0828,0 3.5411,1.25 4.375,3.75 l 0.625,1.875 c -4.7e-4,1.25 -1.0422,2.9167 -3.125,5 h 2.5 c 2.9161,0.41719 4.3744,-1.25 4.375,-5 -6.3e-4,-6.25 -3.3339,-9.375 -10,-9.375 -2.5005,0 -5.6255,2.0834 -9.375,6.25 m -26.25,-110 c 2.0828,3.3334 3.1245,6.4584 3.125,9.375 -4.7e-4,3.3334 -1.25,4.5834 -3.75,3.75 h -1.875 c 1.25,3.7502 2.9161,5.6252 5,5.625 4.1661,1.6e-4 6.2495,-2.4998 6.25,-7.5 -4.7e-4,-4.1666 -2.9172,-7.9166 -8.75,-11.25 m 39.375,-6.25 -10,1.875 -5.625,5 h 4.375 c -4.7e-4,1.6669 -1.4594,2.7084 -4.375,3.125 v 3.75 c 2.4995,-1.25 4.5828,-1.8748 6.25,-1.875 2.4995,1.6e-4 4.7911,1.6669 6.875,5 0.83281,-0.83281 1.8745,-2.7081 3.125,-5.625 1.25,1.6e-4 3.1245,-0.625 5.625,-1.875 l -3.125,-3.125 -4.375,-1.875 c -0.41719,-0.41719 -0.625,-1.0422 -0.625,-1.875 -4.7e-4,-0.83281 0.625,-1.6666 1.875,-2.5 m -48.75,-54.375 -1.875,-1.875 c -5.0005,8.3336 -7.5005,15.834 -7.5,22.5 -4.7e-4,10.834 2.7078,20.208 8.125,28.125 5.8328,7.5002 12.708,11.25 20.625,11.25 12.916,1.6e-4 19.375,-6.4581 19.375,-19.375 -4.7e-4,-9.5831 -6.6672,-19.166 -20,-28.75 l -1.25,2.5 c 11.666,8.7502 17.5,16.875 17.5,24.375 -4.7e-4,11.667 -5.4172,17.5 -16.25,17.5 -6.2505,1.6e-4 -11.875,-3.7498 -16.875,-11.25 -5.0005,-7.4998 -7.5005,-16.041 -7.5,-25.625 -4.7e-4,-5.4164 1.8745,-11.875 5.625,-19.375 m 25,-3.125 c -13.334,9.5836 -20,18.75 -20,27.5 -4.7e-4,11.667 4.1661,17.5 12.5,17.5 3.7495,1.6e-4 7.9161,-2.4998 12.5,-7.5 l -2.5,-2.5 c -2.9172,4.1669 -5.8339,6.2502 -8.75,6.25 -6.6672,1.6e-4 -10,-4.5831 -10,-13.75 -4.7e-4,-7.9164 5.8328,-16.25 17.5,-25 l -1.25,-2.5 m -0.625,-9.375 c 5.4161,9.1669 8.1245,16.459 8.125,21.875 -4.7e-4,3.7502 -0.20938,6.2502 -0.625,7.5 l 3.125,3.75 c 0.41562,-2.0831 0.625,-3.9581 0.625,-5.625 0.41562,-2.0831 0.625,-3.7498 0.625,-5 -4.7e-4,-6.2498 -3.1255,-14.166 -9.375,-23.75 l -2.5,1.25 m -26.875,-10 c 0.41562,10.417 3.7495,18.959 10,25.625 l 2.5,-1.875 c -5.4172,-6.6664 -8.7505,-14.583 -10,-23.75 h -2.5 m 10.625,11.875 7.5,-3.125 12.5,-5.625 7.5,-2.5 -1.25,-2.5 c -8.3339,2.0836 -17.5,5.8336 -27.5,11.25 l 1.25,2.5 m 8.125,-13.75 c -10,-3.3331 -16.667,-4.9997 -20,-5 -10.417,3.1e-4 -15.625,4.1669 -15.625,12.5 -4.7e-4,5.8336 2.2912,8.7502 6.875,8.75 2.0828,1.6e-4 3.5412,-0.20781 4.375,-0.625 -5.0005,-2.4998 -7.5005,-5.8331 -7.5,-10 -4.7e-4,-4.9997 4.3745,-7.4997 13.125,-7.5 3.3328,3.1e-4 8.5411,1.25 15.625,3.75 l 3.125,-1.875 m -18.75,-10 h 3.125 c 3.7495,-9.9997 9.5828,-15 17.5,-15 5.8328,3.1e-4 10.833,2.2919 15,6.875 4.1661,4.1669 6.2495,9.3753 6.25,15.625 -4.7e-4,5.0003 -1.4594,10.209 -4.375,15.625 l 1.875,3.125 c 4.1661,-6.6664 6.2495,-12.708 6.25,-18.125 -4.7e-4,-17.916 -7.9172,-26.875 -23.75,-26.875 -11.667,3.1e-4 -18.959,6.2503 -21.875,18.75 m 14.375,-40.625 10,-1.25 h 13.75 c 13.75,-0.83281 20.208,-7.2914 19.375,-19.375 v -1.25 c -0.83438,-6.2497 -2.5005,-10.416 -5,-12.5 l -3.125,-3.125 c -0.41719,-0.41719 -0.83438,-0.625 -1.25,-0.625 l -0.625,-0.625 c -4.7e-4,3.1e-4 -0.41719,0.83438 -1.25,2.5 -0.41719,1.25 -1.0422,1.8753 -1.875,1.875 -1.6672,3.1e-4 -2.7089,-0.20781 -3.125,-0.625 l -3.125,-0.625 c -8.7505,3.1e-4 -13.125,4.3753 -13.125,13.125 -4.7e-4,6.667 2.2911,9.5836 6.875,8.75 h 3.75 c -2.9172,-2.4997 -4.3755,-4.9997 -4.375,-7.5 -4.7e-4,-6.2497 3.1245,-9.3747 9.375,-9.375 7.4995,3.1e-4 11.25,3.9586 11.25,11.875 -4.7e-4,7.5003 -7.9172,12.5 -23.75,15 -4.1672,0.41719 -8.7505,1.667 -13.75,3.75 m -197.5,-122.5 c 9.1664,2.0838 17.291,3.3338 24.375,3.75 8.333,0.83438 15,1.4594 20,1.875 4.9997,0.41719 8.1247,0.83438 9.375,1.25 2.4997,0.83438 5.6247,1.667 9.375,2.5 3.7497,0.83438 8.1247,2.0838 13.125,3.75 -7.5003,-2.9162 -15.417,-5.4162 -23.75,-7.5 -8.3338,-2.083 -17.292,-3.5412 -26.875,-4.375 -3.7503,-0.41562 -9.3753,-1.0406 -16.875,-1.875 l -8.75,0.625 m 161.88,96.875 c 0.41562,-1.25 0.625,-3.1247 0.625,-5.625 -4.7e-4,-2.4997 0.20781,-4.1664 0.625,-5 0.41562,-9.9997 2.4995,-15 6.25,-15 1.25,3.1e-4 2.7078,0.83438 4.375,2.5 -4.7e-4,-5.4162 -2.0838,-8.1247 -6.25,-8.125 -5.0005,3.1e-4 -7.5005,3.9588 -7.5,11.875 -4.7e-4,2.917 0.625,9.3753 1.875,19.375 m -27.5,-112.5 5.625,2.5 c 10.416,-22.5 26.25,-33.75 47.5,-33.75 12.5,4.7e-4 23.125,4.1672 31.875,12.5 8.7495,7.9172 13.125,18.125 13.125,30.625 -4.7e-4,11.667 -3.1255,21.042 -9.375,28.125 -6.2505,7.0838 -14.584,10.417 -25,10 h -5 l 1.25,5.625 c 30,-0.41562 44.999,-15 45,-43.75 -6.3e-4,-14.583 -5.0005,-26.458 -15,-35.625 -10,-9.1662 -22.709,-13.75 -38.125,-13.75 -22.084,4.7e-4 -39.375,12.5 -51.875,37.5 m -297.5,75 2.5,-3.75 c -16.667,-15.416 -25,-28.333 -25,-38.75 -1.6e-4,-7.9162 2.7083,-13.958 8.125,-18.125 2.4998,-0.83281 3.5416,-1.25 3.125,-1.25 0.41719,4.7e-4 1.25,0.625 2.5,1.875 1.6666,0.83438 2.9166,1.25 3.75,1.25 1.6666,4.7e-4 2.4998,-0.83281 2.5,-2.5 -1.6e-4,-3.333 -2.5002,-7.2912 -7.5,-11.875 -3.3334,-2.083 -5.2084,-3.1245 -5.625,-3.125 -2.0834,4.7e-4 -3.1252,0.83438 -3.125,2.5 v 0.625 l 1.25,3.125 v 1.25 c -1.6e-4,1.25 -0.20781,2.0838 -0.625,2.5 -6.2502,7.0838 -9.3752,14.167 -9.375,21.25 -1.6e-4,17.917 9.1666,32.917 27.5,45 m -23.125,-68.125 2.5,-2.5 c -0.41719,-0.83281 -0.625,-2.083 -0.625,-3.75 -1.6e-4,-3.333 1.8748,-4.9995 5.625,-5 3.3331,4.7e-4 6.6666,2.0838 10,6.25 3.7498,3.7505 5.6248,7.5005 5.625,11.25 -1.6e-4,3.7505 -1.6669,5.6255 -5,5.625 -2.0834,4.7e-4 -3.9584,-0.625 -5.625,-1.875 l -3.75,2.5 c 4.5831,3.3338 8.1248,5.0005 10.625,5 5.8331,4.7e-4 8.7498,-3.333 8.75,-10 -1.6e-4,-4.9995 -1.8752,-9.3745 -5.625,-13.125 -6.6669,-6.6662 -13.125,-9.9995 -19.375,-10 -4.5834,4.7e-4 -6.8752,2.292 -6.875,6.875 -1.6e-4,2.0838 1.25,5.0005 3.75,8.75 m -3.125,5 -0.625,-3.75 -1.25,0.625 c -2.5002,4.7e-4 -3.7502,-0.625 -3.75,-1.875 0.83281,-0.83281 2.2916,-1.25 4.375,-1.25 l -2.5,-2.5 c -3.3334,-0.83281 -5.0002,-1.25 -5,-1.25 -2.5002,4.7e-4 -5.0002,1.4594 -7.5,4.375 4.9998,2.5005 10.417,4.3755 16.25,5.625 M 193.11,177.3 c -2.5002,-0.41563 -3.7502,-1.4578 -3.75,-3.125 -1.6e-4,-0.41563 0.20781,-0.625 0.625,-0.625 -1.6e-4,4.7e-4 1.25,0.41719 3.75,1.25 0.41719,-0.41563 0.625,-1.0406 0.625,-1.875 -1.6e-4,-0.83281 -0.41719,-1.6662 -1.25,-2.5 l -3.125,-3.125 -4.375,-5.625 c -0.83281,-0.83281 -4.5834,-1.6662 -11.25,-2.5 2.4998,3.7505 4.1666,7.0838 5,10 2.4998,7.0838 6.4583,10.625 11.875,10.625 0.41719,-0.41563 0.625,-0.83281 0.625,-1.25 0.41719,-0.41563 0.83281,-0.83281 1.25,-1.25 m 6.25,-9.375 c -2.0834,-2.0828 -3.1252,-3.7495 -3.125,-5 -1.6e-4,-1.25 0.41719,-1.8745 1.25,-1.875 0.41719,4.7e-4 1.0422,0.625 1.875,1.875 l 3.75,4.375 4.375,0.625 c -0.41719,-1.6662 -0.83281,-2.9162 -1.25,-3.75 -1.6e-4,-1.25 -1.6e-4,-2.2912 0,-3.125 -1.6e-4,-4.5828 2.7083,-8.7495 8.125,-12.5 l -2.5,-1.875 1.25,-3.125 -1.875,-3.125 -6.25,3.75 -10.625,3.75 c -3.3334,1.25 -5.0002,4.1672 -5,8.75 -1.6e-4,7.5005 3.3333,11.25 10,11.25 m 11.875,-3.125 c 1.25,-2.0828 2.7081,-3.1245 4.375,-3.125 0.41719,4.7e-4 0.625,0.20937 0.625,0.625 -1.6e-4,0.83437 -0.20781,1.4594 -0.625,1.875 l -1.875,3.75 c -1.6e-4,1.25 1.6666,2.5005 5,3.75 0.41719,-2.9162 1.25,-4.3745 2.5,-4.375 0.83281,0.83437 1.25,1.4594 1.25,1.875 -1.6e-4,4.7e-4 -0.41719,1.25 -1.25,3.75 l 5.625,1.25 3.125,-2.5 1.25,-0.625 c 0.83281,4.7e-4 1.25,0.41719 1.25,1.25 -1.6e-4,1.25 -0.20781,2.0838 -0.625,2.5 l -3.125,2.5 v 5 l 2.5,-0.625 c 2.0831,4.7e-4 3.1248,0.41719 3.125,1.25 -1.6e-4,1.667 -1.4578,2.5005 -4.375,2.5 l 3.75,3.75 c 2.9166,-1.6662 5.2081,-2.4995 6.875,-2.5 0.41719,4.7e-4 0.625,0.20937 0.625,0.625 -1.6e-4,2.0838 -1.25,3.3338 -3.75,3.75 h 2.5 c 10.833,4.7e-4 16.25,-4.7912 16.25,-14.375 -1.6e-4,-3.3328 -0.20781,-5.4162 -0.625,-6.25 -0.41719,0.41719 -1.25,0.625 -2.5,0.625 -0.83281,4.7e-4 -1.6669,-0.41563 -2.5,-1.25 -1.6e-4,-0.41563 0.625,-1.4578 1.875,-3.125 1.25,-2.0828 1.8748,-3.9578 1.875,-5.625 -1.6e-4,-2.0828 -0.625,-5.4162 -1.875,-10 -1.6669,0.41719 -3.1252,0.83437 -4.375,1.25 -0.83281,4.7e-4 -1.6669,4.7e-4 -2.5,0 h -5 c -7.0834,-1.25 -11.458,-1.8745 -13.125,-1.875 -11.25,4.7e-4 -16.875,3.5422 -16.875,10.625 -1.6e-4,1.6672 0.20781,2.9172 0.625,3.75 m 21.875,30 v 3.125 c 1.25,1.667 3.1248,2.5005 5.625,2.5 2.0831,4.7e-4 3.9581,0.41719 5.625,1.25 -0.83281,0.83437 -2.0834,1.25 -3.75,1.25 -0.41719,4.7e-4 -2.2919,-0.41563 -5.625,-1.25 2.9166,5.0005 7.0831,7.5005 12.5,7.5 10.417,4.7e-4 18.125,-6.8745 23.125,-20.625 -3.7502,-0.41563 -6.6669,4.7e-4 -8.75,1.25 -1.6669,0.83437 -3.1252,1.25 -4.375,1.25 -1.6669,4.7e-4 -2.7084,-0.20781 -3.125,-0.625 -5.8334,3.3338 -10.208,5.0005 -13.125,5 h -3.75 c -1.6669,4.7e-4 -3.1252,-0.20781 -4.375,-0.625 m 10.625,16.875 -4.375,-0.625 -2.5,-0.625 -0.625,2.5 -1.25,-1.25 -2.5,-3.75 -2.5,-3.125 c -1.25,2.5005 -1.8752,4.3755 -1.875,5.625 -1.6e-4,2.5005 1.0422,4.3755 3.125,5.625 2.4998,1.25 6.0416,3.1255 10.625,5.625 1.25,-2.9162 1.8748,-6.2495 1.875,-10 m -20,-2.5 h -4.375 v 0.625 c -1.6e-4,0.83437 -0.20781,1.25 -0.625,1.25 -0.41719,4.7e-4 -0.625,-0.41563 -0.625,-1.25 v -0.625 l -5.625,-1.25 c 0.41719,2.5005 2.9166,6.2505 7.5,11.25 2.9166,-2.4995 4.3748,-4.7912 4.375,-6.875 l -0.625,-3.125 m 232.5,232.5 c 13.333,1.6e-4 26.458,-3.3331 39.375,-10 17.916,-8.3331 29.583,-12.5 35,-12.5 12.916,1.6e-4 19.375,5.0002 19.375,15 -4.7e-4,10 -4.7922,15 -14.375,15 -0.41719,1.6e-4 -3.1255,-1.0422 -8.125,-3.125 2.4995,6.6669 6.6662,10 12.5,10 2.4995,1.6e-4 4.5828,-0.625 6.25,-1.875 2.0828,-1.6666 3.3328,-2.4998 3.75,-2.5 0.83281,1.6e-4 2.2912,0.625 4.375,1.875 4.5828,-8.3331 6.8745,-14.167 6.875,-17.5 -4.7e-4,-1.25 -0.41719,-2.7081 -1.25,-4.375 -0.83438,-2.0831 -1.25,-3.3331 -1.25,-3.75 -4.7e-4,-0.83281 1.0406,-1.6664 3.125,-2.5 -6.2505,-9.5831 -14.167,-14.375 -23.75,-14.375 -11.25,1.6e-4 -21.459,2.7086 -30.625,8.125 l -33.125,16.875 -18.125,5.625 m -71.875,5 c 7.4997,0.83281 13.958,1.6669 19.375,2.5 5.833,0.41719 10.625,0.625 14.375,0.625 h 3.75 c 2.083,1.6e-4 4.583,1.6e-4 7.5,0 2.9162,1.6e-4 6.458,-0.20781 10.625,-0.625 h 2.5 c 15,-0.41719 22.5,3.5419 22.5,11.875 -3.1e-4,5.0002 -2.292,7.5002 -6.875,7.5 h -4.375 c 2.9162,1.6669 5.6247,2.5002 8.125,2.5 5.833,1.6e-4 8.7495,-3.3331 8.75,-10 -4.7e-4,-10.833 -8.9588,-16.042 -26.875,-15.625 h -3.75 l -36.25,2.5 -19.375,-1.25 m -70,-6.25 1.875,1.875 c 11.666,1.25 21.458,2.5002 29.375,3.75 7.9164,0.83281 15.416,2.5002 22.5,5 7.083,2.5002 14.791,5.8334 23.125,10 8.333,4.1669 19.166,10 32.5,17.5 l 5.625,-1.25 c -27.5,-15.417 -46.667,-24.792 -57.5,-28.125 -5.8336,-2.0831 -13.542,-3.7498 -23.125,-5 -9.5836,-1.6666 -21.042,-2.9166 -34.375,-3.75 M 416.24,494.8 c 3.333,-2.0833 5.833,-3.1248 7.5,-3.125 1.6662,1.6e-4 4.1662,0.625 7.5,1.875 3.7497,1.25 6.6662,1.8752 8.75,1.875 7.083,1.6e-4 10.625,-3.7498 10.625,-11.25 -3.1e-4,-5.4166 -2.5003,-9.9998 -7.5,-13.75 -6.2503,-5.4166 -9.3753,-9.3748 -9.375,-11.875 -3.1e-4,1.6e-4 0.41562,-1.6666 1.25,-5 -5.0003,3.3334 -7.5003,6.6669 -7.5,10 -3.1e-4,3.3334 1.0406,6.4584 3.125,9.375 2.4997,2.9169 4.7912,5.2084 6.875,6.875 2.083,1.25 3.333,2.0834 3.75,2.5 -3.1e-4,0.41719 -0.625,0.625 -1.875,0.625 -2.5003,1.6e-4 -4.3753,-0.20781 -5.625,-0.625 l -3.125,-0.625 c -9.167,1.6e-4 -13.959,4.3752 -14.375,13.125 m -51.25,-88.75 13.75,3.125 c 15,-4.1664 21.666,-6.2498 20,-6.25 h 0.625 c -3.1e-4,0.83281 -4.792,3.1252 -14.375,6.875 l 8.125,1.25 c 4.583,-2.0831 8.5414,-3.9581 11.875,-5.625 3.333,-1.6664 5.833,-3.3331 7.5,-5 l 5.625,-5.625 c 0.83281,-0.83281 1.6662,-1.25 2.5,-1.25 0.41562,1.6e-4 0.625,0.41719 0.625,1.25 -3.1e-4,2.0836 -1.8753,4.3752 -5.625,6.875 l -8.125,5.625 -7.5,4.375 h 7.5 c 2.083,-1.6664 3.958,-2.9164 5.625,-3.75 1.6664,-0.83281 2.9164,-1.6664 3.75,-2.5 l 0.625,0.625 c -3.1e-4,1.6669 -0.83438,3.1252 -2.5,4.375 l 5,0.625 c 8.7497,-5.8331 16.25,-12.291 22.5,-19.375 7.9162,-9.1664 11.875,-15.833 11.875,-20 -3.1e-4,-0.83281 -0.20938,-1.8747 -0.625,-3.125 -3.1e-4,-1.6664 -0.20938,-3.5414 -0.625,-5.625 -1.667,1.6669 -3.1253,2.5003 -4.375,2.5 -0.83438,-0.83281 -1.25,-1.4578 -1.25,-1.875 l -1.875,-8.125 -5.625,-7.5 c -7.5003,8.3336 -11.25,14.167 -11.25,17.5 -3.1e-4,2.0836 -0.20938,3.1253 -0.625,3.125 -0.41719,3.1e-4 -1.25,-0.41562 -2.5,-1.25 -1.25,-0.83281 -2.0838,-1.25 -2.5,-1.25 -2.5003,3.1e-4 -4.3753,1.8753 -5.625,5.625 l -5.625,14.375 c -4.167,11.25 -19.792,17.917 -46.875,20 m 66.25,0.625 c 8.7497,-3.3331 15.416,-6.4581 20,-9.375 7.4997,-11.25 11.666,-19.166 12.5,-23.75 l 1.25,-10.625 c 0.41562,-1.6664 0.83281,-2.4997 1.25,-2.5 0.83281,3.1e-4 1.25,1.0422 1.25,3.125 -3.1e-4,2.0836 -0.20938,3.5419 -0.625,4.375 l -4.375,16.875 -5,8.75 c 1.6662,-0.83281 3.1247,-1.6664 4.375,-2.5 1.6662,-1.25 2.9162,-2.7081 3.75,-4.375 l 5,-15 0.625,-13.125 c -4.7e-4,-2.0831 0.41562,-3.1247 1.25,-3.125 1.25,3.1e-4 1.8745,2.2919 1.875,6.875 -4.7e-4,0.41719 -0.41719,2.2919 -1.25,5.625 -0.41719,2.9169 -1.0422,7.2919 -1.875,13.125 l 4.375,-3.75 c 4.1662,-12.916 6.2495,-22.083 6.25,-27.5 l -0.625,-3.75 -1.875,-19.375 c -0.41719,-1.25 -0.20938,-2.2914 0.625,-3.125 2.9162,3.1e-4 4.3745,5.2086 4.375,15.625 v 8.125 l -3.75,22.5 c 11.25,-15.416 16.875,-34.375 16.875,-56.875 -4.7e-4,-3.7497 -0.83438,-9.3747 -2.5,-16.875 -1.25,-7.4997 -1.8755,-12.916 -1.875,-16.25 -4.7e-4,-0.83281 -4.7e-4,-1.6662 0,-2.5 0.41562,-1.25 0.83281,-2.9162 1.25,-5 -2.0838,0.41719 -3.7505,1.667 -5,3.75 -1.25,2.0838 -2.292,3.1253 -3.125,3.125 -0.41719,-0.41719 -0.83438,-0.625 -1.25,-0.625 -0.41719,-0.41562 -0.83438,-0.83281 -1.25,-1.25 l -3.125,-3.75 c -0.41719,-0.41562 -1.0422,-1.0406 -1.875,-1.875 -0.83438,-0.83281 -2.0838,-1.8747 -3.75,-3.125 -5.0005,-4.9997 -8.542,-10.208 -10.625,-15.625 -7.5003,7.0838 -11.25,13.75 -11.25,20 -3.1e-4,1.25 0.41562,3.542 1.25,6.875 l 3.125,8.125 v 1.875 c -3.1e-4,1.25 -0.20938,2.0836 -0.625,2.5 -0.83438,3.1e-4 -1.4594,-0.20781 -1.875,-0.625 l -6.25,-2.5 c -1.667,5.0003 -2.5003,10 -2.5,15 -3.1e-4,5.417 1.25,10.209 3.75,14.375 l 4.375,7.5 c 0.41562,0.41719 0.625,1.4578 0.625,3.125 -3.1e-4,0.83438 -0.20938,1.25 -0.625,1.25 -1.667,3.1e-4 -3.9588,-1.25 -6.875,-3.75 l 1.875,10 8.125,13.125 c 1.6662,2.9169 2.4997,7.2919 2.5,13.125 -3.1e-4,15.417 -9.5838,30 -28.75,43.75 m 171.88,156.25 4.375,-3.75 -0.625,-8.75 -1.875,-6.25 -0.625,-1.875 c -4.7e-4,-0.83281 0.20781,-1.25 0.625,-1.25 2.0828,0 3.5411,2.2917 4.375,6.875 l 1.25,7.5 2.5,-3.75 -1.25,-6.25 -2.5,-5 v -1.875 c -4.7e-4,-0.41719 0.20781,-0.625 0.625,-0.625 1.6661,1.6e-4 2.9161,2.2917 3.75,6.875 0.41562,0.41719 0.625,1.0422 0.625,1.875 -4.7e-4,1.25 0.20781,2.0834 0.625,2.5 v -10 c 0.41562,-7.0833 -1.0422,-13.75 -4.375,-20 -2.5005,-3.7498 -3.7505,-6.6666 -3.75,-8.75 -4.7e-4,-0.83281 0.41562,-1.6666 1.25,-2.5 0.83281,0.41719 1.4578,0.83281 1.875,1.25 0.41562,0.41719 0.83281,0.83281 1.25,1.25 2.4995,4.1667 4.1661,9.3752 5,15.625 0.41562,1.25 0.625,3.1252 0.625,5.625 0.41562,2.0834 1.0406,4.7917 1.875,8.125 l 3.125,-10 c -2.9172,-8.3333 -4.3755,-11.667 -4.375,-10 -4.7e-4,-1.25 0.41562,-1.8748 1.25,-1.875 1.25,1.6e-4 2.4995,1.8752 3.75,5.625 l 0.625,-6.25 -1.25,-3.75 -2.5,-5 c -0.41719,-0.41719 -0.625,-1.4578 -0.625,-3.125 -4.7e-4,-0.41719 0.41562,-0.625 1.25,-0.625 1.6661,1.6e-4 2.9161,1.8752 3.75,5.625 0.41562,-1.25 0.625,-3.7498 0.625,-7.5 -4.7e-4,-3.3333 -1.25,-11.042 -3.75,-23.125 -1.25,1.25 -2.5005,2.5002 -3.75,3.75 -1.25,1.25 -2.2922,2.5002 -3.125,3.75 -1.6672,1.6e-4 -2.7089,-2.0831 -3.125,-6.25 -0.83438,-2.0831 -2.5005,-5.2081 -5,-9.375 -2.0839,-4.9998 -3.1255,-8.3331 -3.125,-10 -4.7e-4,-0.41719 -4.7e-4,-1.25 0,-2.5 0.41562,-1.25 0.83281,-2.9166 1.25,-5 l -5,3.75 v 6.875 c 0.41562,1.25 0.20781,1.8752 -0.625,1.875 -0.83438,1.6e-4 -1.25,-0.625 -1.25,-1.875 l -0.625,-3.75 -3.75,9.375 -1.25,11.875 -1.25,1.25 c -0.83438,1.6e-4 -1.4594,-0.20781 -1.875,-0.625 l -2.5,-2.5 -4.375,13.125 3.75,10.625 v 1.25 c -4.7e-4,1.25 -0.625,1.8752 -1.875,1.875 l -3.125,-2.5 c -0.41719,2.0834 -0.83438,3.9584 -1.25,5.625 -4.7e-4,1.25 -4.7e-4,2.7084 0,4.375 -4.7e-4,3.7502 0.83281,6.4584 2.5,8.125 l 15,15.625 c 4.9995,5.8334 7.4995,11.25 7.5,16.25 -4.7e-4,4.1667 -0.20938,6.875 -0.625,8.125 M 168.74,454.805 c 1.25,3.3334 3.1248,5.0002 5.625,5 7.9166,1.6e-4 11.875,-5.4166 11.875,-16.25 -1.6e-4,-5.8331 -3.5417,-12.916 -10.625,-21.25 -2.9167,-2.9164 -4.3752,-5.4164 -4.375,-7.5 -1.6e-4,-2.9164 1.8748,-4.3748 5.625,-4.375 4.1666,1.6e-4 7.7083,2.7086 10.625,8.125 2.9166,5.4169 4.3748,11.875 4.375,19.375 -1.6e-4,6.2502 -1.6667,16.042 -5,29.375 l -9.375,30 c -2.9167,8.7502 -4.3752,19.375 -4.375,31.875 -1.6e-4,30.417 8.7498,45.625 26.25,45.625 8.3333,0 12.292,-3.9583 11.875,-11.875 l -0.625,-20.625 c -0.41719,-6.2498 1.25,-11.875 5,-16.875 3.7498,-5.4166 7.9166,-8.1248 12.5,-8.125 9.9998,1.6e-4 15,4.7917 15,14.375 -1.6e-4,4.1667 -1.4578,7.0834 -4.375,8.75 l -11.25,8.75 c -2.5002,2.0834 -3.7502,5.625 -3.75,10.625 -1.6e-4,12.5 5.8331,18.75 17.5,18.75 0.83281,0 2.0831,-0.20781 3.75,-0.625 2.0831,-0.83281 3.5416,-1.25 4.375,-1.25 0.41719,0 1.25,0.625 2.5,1.875 1.25,1.25 2.4998,1.875 3.75,1.875 l 0.625,-0.625 5,-1.25 h 1.25 c 3.7498,0 5.6248,2.0834 5.625,6.25 -1.6e-4,1.6667 -1.0422,3.5417 -3.125,5.625 5.8331,-0.83281 8.7498,-3.5416 8.75,-8.125 -1.6e-4,-6.25 -4.3752,-10 -13.125,-11.25 -2.0834,-0.83281 -3.1252,-1.4578 -3.125,-1.875 v -1.875 l 1.875,-5 c 1.25,-2.5 1.8748,-4.7916 1.875,-6.875 -1.6e-4,-2.9166 -2.0834,-5.8333 -6.25,-8.75 0.83281,4.1667 1.25,6.25 1.25,6.25 -1.6e-4,1.25 -1.8752,3.3334 -5.625,6.25 -3.3334,2.5 -5.0002,4.7917 -5,6.875 -1.6e-4,0.83281 0.41719,1.875 1.25,3.125 0.83281,1.25 1.25,2.0834 1.25,2.5 -1.6e-4,1.6667 -1.8752,2.5 -5.625,2.5 -9.5834,0 -14.375,-4.1666 -14.375,-12.5 -1.6e-4,-3.3333 2.9166,-6.6666 8.75,-10 l 12.5,-6.25 c 4.5831,-2.0833 6.8748,-6.8748 6.875,-14.375 -1.6e-4,-5.4166 -2.2919,-11.042 -6.875,-16.875 -1.25,-1.6666 -5.4169,-4.1666 -12.5,-7.5 -0.83281,1.6e-4 -1.25,-0.41719 -1.25,-1.25 l 0.625,-2.5 1.25,-3.125 -5,-0.625 c -10.417,1.6e-4 -19.583,4.5834 -27.5,13.75 -7.5002,9.1667 -10.833,20 -10,32.5 v 8.75 c 0.41719,4.1667 -0.20781,6.25 -1.875,6.25 -2.9167,0 -4.3752,-2.9166 -4.375,-8.75 -1.6e-4,-10 2.7083,-20.208 8.125,-30.625 5.4166,-10.417 7.9166,-19.375 7.5,-26.875 v -8.75 l -5,1.875 -5.625,5 c -1.25,1.25 -2.2917,1.8752 -3.125,1.875 -0.41719,-0.41719 -0.625,-0.83281 -0.625,-1.25 -1.6e-4,-1.25 2.4998,-4.1666 7.5,-8.75 6.6666,-4.1666 9.9998,-15.208 10,-33.125 -1.6e-4,-9.5831 -2.2917,-17.291 -6.875,-23.125 -0.41719,2.9169 -1.25,4.3752 -2.5,4.375 -0.83281,-0.83281 -1.25,-1.6664 -1.25,-2.5 -3.3334,-16.25 -9.7917,-24.375 -19.375,-24.375 -6.6667,1.6e-4 -10,2.9169 -10,8.75 -1.6e-4,4.1669 2.0833,9.1669 6.25,15 4.5833,5.4169 6.8748,10.625 6.875,15.625 -1.6e-4,7.0834 -2.7084,10.417 -8.125,10 h -3.75 m 40.625,46.875 c 17.5,-23.333 37.708,-35 60.625,-35 9.1664,1.6e-4 16.875,1.8752 23.125,5.625 6.6664,3.7502 9.9998,8.3334 10,13.75 v 4.375 c -1.6e-4,1.6667 -0.20781,3.1252 -0.625,4.375 3.7498,-0.83281 6.0414,-2.2916 6.875,-4.375 0.83281,-2.0833 1.6664,-4.1666 2.5,-6.25 -1.6e-4,-0.83281 0.625,-1.25 1.875,-1.25 h 1.875 c -1.6669,-4.5831 -4.1669,-8.5416 -7.5,-11.875 -13.75,-1.25 -20.625,-3.5416 -20.625,-6.875 l 1.25,-1.25 c 1.25,1.6e-4 2.2914,0.41719 3.125,1.25 l 3.125,1.875 c 1.6664,1.25 4.1664,1.8752 7.5,1.875 0.83281,1.6e-4 1.8748,1.6e-4 3.125,0 1.6664,-0.41719 3.5414,-0.83281 5.625,-1.25 -2.0836,-1.25 -3.1252,-2.4998 -3.125,-3.75 0.83281,-0.83281 1.6664,-1.25 2.5,-1.25 h 2.5 c 3.3331,1.6e-4 7.9164,-2.2916 13.75,-6.875 l -11.25,-5 -6.875,-8.75 c -4.5836,-5.8331 -6.8752,-7.7081 -6.875,-5.625 l 1.25,-1.25 3.75,-1.875 c -7.5002,-3.7498 -13.542,-5.6248 -18.125,-5.625 -0.41719,1.6e-4 -2.2919,0.41719 -5.625,1.25 l -11.25,3.75 c -2.0836,1.6e-4 -3.1252,-0.625 -3.125,-1.875 -1.6e-4,-2.9164 4.1664,-4.7914 12.5,-5.625 12.916,-1.25 21.875,-4.3748 26.875,-9.375 4.9998,-5.4164 8.1247,-14.791 9.375,-28.125 l -7.5,3.75 c -0.41719,-0.41719 -0.625,-1.0406 -0.625,-1.875 v -5.625 c -1.6e-4,-4.5831 -2.5002,-9.7914 -7.5,-15.625 -4.5836,-5.8331 -9.3752,-9.1664 -14.375,-10 -3.3336,-0.41719 -5.2086,-1.0406 -5.625,-1.875 l -4.375,-4.375 -3.125,-1.25 v 5 c -9.1669,4.1669 -13.75,9.5836 -13.75,16.25 -1.6e-4,2.5003 0.625,5.2086 1.875,8.125 1.6664,2.9169 3.3331,5.6252 5,8.125 2.0831,2.5002 3.9581,5.0002 5.625,7.5 1.6664,2.0836 2.4998,3.7502 2.5,5 -1.6e-4,6.6669 -2.9169,10 -8.75,10 -4.1669,1.6e-4 -6.2502,-2.0831 -6.25,-6.25 -1.6e-4,-3.7498 1.4578,-5.6248 4.375,-5.625 1.6664,1.6e-4 2.7081,0.20938 3.125,0.625 -1.6669,-2.9164 -3.7502,-4.3748 -6.25,-4.375 -5.8334,1.6e-4 -8.7502,2.9169 -8.75,8.75 -1.6e-4,6.6669 3.9581,10 11.875,10 9.9998,1.6e-4 15,-4.5831 15,-13.75 -1.6e-4,-4.1664 -1.8752,-8.9581 -5.625,-14.375 -3.7502,-5.8331 -5.6252,-9.5831 -5.625,-11.25 -1.6e-4,-6.6664 3.9581,-9.9997 11.875,-10 9.9998,3.1e-4 15,6.4586 15,19.375 -1.6e-4,14.584 -7.2919,25.417 -21.875,32.5 l -19.375,10 c -25.417,12.917 -39.792,25.833 -43.125,38.75 l 2.5,-1.875 h 1.25 c 0.83281,1.6e-4 1.25,0.20781 1.25,0.625 -1.6e-4,1.25 -2.5002,4.3752 -7.5,9.375 l -2.5,5.625 3.125,2.5 c 14.167,-14.167 25,-22.708 32.5,-25.625 l 21.25,-8.125 c 3.7498,-1.25 6.8748,-1.8748 9.375,-1.875 3.3331,1.6e-4 4.9998,0.625 5,1.875 -1.6e-4,2.0834 -4.3752,3.3334 -13.125,3.75 -15.833,1.6669 -34.167,12.917 -55,33.75 v 5 c 4.1666,-4.1666 6.6666,-6.2498 7.5,-6.25 0.41719,1.6e-4 0.625,0.20781 0.625,0.625 -1.6e-4,0.83281 -2.7084,3.9584 -8.125,9.375 v 8.75 m 88.125,-187.5 1.875,13.75 c 5.8331,7.9169 10.833,12.709 15,14.375 l 7.5,3.125 c 0.83281,0.41719 1.25,0.83281 1.25,1.25 0.41719,0.41719 0.83281,0.83438 1.25,1.25 -0.83437,0.83438 -1.6669,1.25 -2.5,1.25 -2.0836,3.1e-4 -3.9586,-0.83281 -5.625,-2.5 l -8.75,-6.875 -7.5,-6.875 1.875,9.375 10,7.5 9.375,4.375 c 1.6664,0.41719 2.4997,1.25 2.5,2.5 -0.41719,0.41719 -1.25,0.625 -2.5,0.625 -2.9169,3.1e-4 -5.8336,-1.0406 -8.75,-3.125 -2.5002,-2.4997 -5.4169,-4.9997 -8.75,-7.5 l 5,10.625 c 15.416,8.3336 25.416,12.292 30,11.875 l 3.125,-0.625 c 2.4997,3.1e-4 4.9997,-0.20781 7.5,-0.625 2.9164,-0.41719 4.5831,-0.625 5,-0.625 2.4997,3.1e-4 3.7497,0.625 3.75,1.875 -3.1e-4,2.5003 -3.9586,3.7503 -11.875,3.75 -0.83438,3.1e-4 -2.0836,3.1e-4 -3.75,0 -1.6669,-0.41719 -3.5419,-0.83281 -5.625,-1.25 l -13.125,-3.125 -13.75,-7.5 3.75,7.5 c 4.9997,2.9169 8.9581,4.7919 11.875,5.625 5.8331,1.25 9.1664,2.0836 10,2.5 1.25,3.1e-4 1.8747,0.41719 1.875,1.25 -3.1e-4,1.25 -1.0422,1.8753 -3.125,1.875 3.3331,3.1e-4 -1.6669,-1.6664 -15,-5 l 7.5,7.5 10.625,2.5 h 10 c 0.83281,1.6e-4 1.6664,0.41719 2.5,1.25 -3.1e-4,1.6669 -1.4578,2.5002 -4.375,2.5 l -3.125,-0.625 c -0.83438,-0.41562 -2.5003,-0.625 -5,-0.625 -2.5003,1.6e-4 -4.7919,-0.20781 -6.875,-0.625 l 7.5,5 5,0.625 h 3.75 c 2.4997,1.6e-4 3.7497,0.625 3.75,1.875 -3.1e-4,1.25 -1.25,1.8752 -3.75,1.875 h -2.5 c 7.9164,5.4169 15.833,7.9169 23.75,7.5 h 3.125 c -0.41719,-0.41562 -0.83438,-0.83281 -1.25,-1.25 -3.1e-4,-0.41719 -0.20781,-0.83281 -0.625,-1.25 0.41719,-0.41719 1.4578,-0.625 3.125,-0.625 h 5.625 c 6.2497,0.41719 13.125,-1.6664 20.625,-6.25 -2.917,0.41719 -5.8336,0.83281 -8.75,1.25 -2.5003,0.41719 -5.417,1.0422 -8.75,1.875 -0.83438,0.41719 -2.917,0.625 -6.25,0.625 -7.5003,1.6e-4 -11.25,-1.6664 -11.25,-5 -3.1e-4,-1.6664 1.25,-2.4998 3.75,-2.5 h 0.625 l 9.375,1.25 c 4.583,1.6e-4 12.916,-5.4164 25,-16.25 -3.3336,-0.83281 -5.0003,-1.4578 -5,-1.875 -3.1e-4,-1.25 0.83281,-2.4997 2.5,-3.75 l 9.375,-6.875 c 2.4997,-1.25 5.4164,-6.6664 8.75,-16.25 0.41562,-0.83281 0.83281,-2.2914 1.25,-4.375 0.83281,-2.0831 2.083,-4.5831 3.75,-7.5 -5.8336,1.25 -10.625,1.8753 -14.375,1.875 h -5.625 c -2.0836,-0.41719 -4.167,-0.20781 -6.25,0.625 -1.667,0.83438 -2.7086,1.25 -3.125,1.25 -0.41719,3.1e-4 -0.625,-0.625 -0.625,-1.875 -3.1e-4,3.1e-4 0.41719,-1.6664 1.25,-5 l -8.125,1.25 c -5.8336,0.83438 -9.5836,1.8753 -11.25,3.125 -1.667,0.83438 -4.167,2.5003 -7.5,5 -1.25,0.41719 -2.2919,1.0422 -3.125,1.875 -0.41719,-0.41562 -0.625,-1.0406 -0.625,-1.875 -3.1e-4,-2.0831 0.83281,-4.5831 2.5,-7.5 h -8.125 l -19.375,8.125 c -3.3336,0.83438 -5.2086,1.25 -5.625,1.25 -13.334,3.1e-4 -25.209,-9.5831 -35.625,-28.75 m 140.62,234.38 8.75,16.875 11.875,13.125 c 2.9162,2.9167 4.3747,6.25 4.375,10 -3.1e-4,3.75 -1.8753,5.625 -5.625,5.625 l -4.375,-0.625 c 3.333,3.3333 6.0412,5 8.125,5 5.4162,0 8.1247,-2.7083 8.125,-8.125 -3.1e-4,-3.75 -1.4594,-7.0833 -4.375,-10 L 451.235,567.31 438.11,548.56 m 40,-328.75 -11.25,-5 c -7.0838,0.83438 -13.75,2.7088 -20,5.625 -0.83438,0.41719 -2.0838,0.625 -3.75,0.625 -3.1e-4,-3.333 3.1247,-5.4162 9.375,-6.25 2.083,4.7e-4 5.4162,-0.625 10,-1.875 l -5.625,-2.5 c -2.917,0.41719 -5.417,0.83438 -7.5,1.25 -1.667,0.41719 -2.917,0.83438 -3.75,1.25 -0.83438,4.7e-4 -4.5838,2.0838 -11.25,6.25 -1.667,0.83438 -2.7088,1.4594 -3.125,1.875 l -0.625,-0.625 c -3.1e-4,-4.1662 6.8747,-7.9162 20.625,-11.25 l -10,-1.875 c -12.084,6.2505 -19.584,11.25 -22.5,15 -5.0003,6.2503 -8.1253,9.3753 -9.375,9.375 -0.41719,3.1e-4 -0.625,-0.41562 -0.625,-1.25 -3.1e-4,-2.083 2.2914,-5.4162 6.875,-10 l 10,-8.75 10,-5.625 -4.375,-1.25 c -1.667,0.83438 -4.792,2.917 -9.375,6.25 -4.167,3.3338 -6.8753,5.0005 -8.125,5 -0.41719,4.7e-4 -0.625,-0.20781 -0.625,-0.625 -3.1e-4,-2.083 2.083,-4.3745 6.25,-6.875 0.83281,-0.41562 1.6662,-1.0406 2.5,-1.875 0.83281,-0.83281 2.083,-1.6662 3.75,-2.5 h -6.875 l -5.625,3.75 -0.625,-1.875 1.875,-1.875 -11.25,-0.625 c -12.5,4.7e-4 -30.209,4.792 -53.125,14.375 -1.6669,2.5005 -3.5419,5.417 -5.625,8.75 -2.0836,3.3338 -4.1669,7.292 -6.25,11.875 l -1.25,8.125 c -0.41719,0.83438 -0.83438,1.667 -1.25,2.5 -3.1e-4,0.41719 -3.1e-4,0.625 0,0.625 -1.25,-0.41562 -1.8753,-1.8747 -1.875,-4.375 -3.1e-4,-2.9162 3.1247,-10.625 9.375,-23.125 -2.5003,2.0838 -5.0003,4.3753 -7.5,6.875 -2.5003,2.0838 -4.7919,4.167 -6.875,6.25 -3.3336,9.167 -5.0003,15.625 -5,19.375 -3.1e-4,5.0003 0.83281,8.9588 2.5,11.875 l 4.375,11.25 0.625,1.875 c -3.1e-4,0.83281 -0.41719,1.25 -1.25,1.25 -1.25,3.1e-4 -2.5003,-1.8747 -3.75,-5.625 l -4.375,-11.25 c -0.83438,-4.1662 -1.25,-6.6662 -1.25,-7.5 -3.1e-4,-2.083 1.0406,-7.2912 3.125,-15.625 -2.0836,1.667 -3.7503,3.3338 -5,5 -1.25,1.667 -2.2919,3.3338 -3.125,5 v 6.875 l 0.625,3.75 v 0.625 c -3.1e-4,1.25 -0.20938,2.0838 -0.625,2.5 -2.0836,3.1e-4 -3.1252,-2.9162 -3.125,-8.75 l 0.625,-1.25 c -2.5002,2.5003 -4.1669,5.6253 -5,9.375 l 0.625,3.75 1.25,3.75 0.625,2.5 -0.625,0.625 c -2.5002,3.1e-4 -3.7502,-2.2912 -3.75,-6.875 l -2.5,6.875 c 0.83281,3.3338 1.25,5.2086 1.25,5.625 -1.6e-4,2.0836 -0.41719,3.1253 -1.25,3.125 -0.41719,3.1e-4 -1.0422,-0.41562 -1.875,-1.25 -2.9169,9.167 -4.3752,15.834 -4.375,20 -1.6e-4,2.917 1.25,6.8753 3.75,11.875 l 0.625,-5.625 3.75,15 5.625,6.25 c -3.7502,-11.666 -5.6252,-20 -5.625,-25 -1.6e-4,-6.6664 0.83281,-9.9997 2.5,-10 2.0831,3.1e-4 3.5414,1.25 4.375,3.75 l 5.625,15.625 c 1.6664,5.417 5.4164,8.1253 11.25,8.125 l 1.875,-0.625 7.5,-1.875 -0.625,-3.125 v -1.25 c -3.1e-4,-1.6664 0.41719,-2.4997 1.25,-2.5 -3.1e-4,3.1e-4 1.25,0.41719 3.75,1.25 7.4997,3.3336 12.083,5.0003 13.75,5 h 5.625 c 2.0831,3.1e-4 3.7497,-0.20781 5,-0.625 -5.0003,-7.083 -7.2919,-13.125 -6.875,-18.125 v -5 c 0.41719,-2.083 0.625,-3.7497 0.625,-5 -3.1e-4,-1.25 -3.1e-4,-2.2914 0,-3.125 v -1.25 c -3.1e-4,-2.4997 -1.4578,-6.458 -4.375,-11.875 -0.83438,-2.4997 -1.25,-3.5412 -1.25,-3.125 -3.1e-4,-0.41562 0.625,-0.625 1.875,-0.625 1.6664,3.1e-4 4.1664,1.0422 7.5,3.125 0.41719,-2.083 0.625,-3.5412 0.625,-4.375 0.41719,-1.25 0.625,-2.083 0.625,-2.5 -3.1e-4,-1.25 -0.83281,-2.9162 -2.5,-5 -1.6669,-2.4997 -3.5419,-5.208 -5.625,-8.125 -1.6669,-3.333 -3.3336,-6.458 -5,-9.375 -1.25,-3.333 -1.8753,-6.6662 -1.875,-10 -3.1e-4,-9.1662 4.7914,-15.416 14.375,-18.75 -7.5003,5.417 -11.459,12.709 -11.875,21.875 12.916,-17.5 24.791,-26.25 35.625,-26.25 2.4997,4.7e-4 3.7497,0.83438 3.75,2.5 -3.1e-4,2.0838 -2.0836,3.7505 -6.25,5 -4.167,1.25 -8.1253,4.5838 -11.875,10 -3.3336,5.8338 -5.0003,10.625 -5,14.375 -3.1e-4,1.25 1.0406,5.417 3.125,12.5 2.9164,-2.9162 4.9997,-4.3747 6.25,-4.375 0.83281,0.83438 1.25,1.8753 1.25,3.125 l -0.625,1.25 v 6.25 c -0.41719,0.41719 -0.625,1.25 -0.625,2.5 v 0.625 c -3.1e-4,3.7503 1.8747,7.7088 5.625,11.875 l 10,12.5 5,9.375 8.75,-8.75 11.25,-9.375 c 2.9162,-2.4997 4.3747,-6.458 4.375,-11.875 -3.1e-4,-1.6662 -0.20938,-3.333 -0.625,-5 -3.1e-4,-2.083 -0.20938,-4.1662 -0.625,-6.25 l -0.625,-2.5 c -3.1e-4,-0.83281 0.20781,-1.25 0.625,-1.25 0.41562,0.41719 0.83281,0.625 1.25,0.625 0.41562,3.1e-4 0.83281,0.20938 1.25,0.625 l 4.375,3.75 5.625,3.125 c 2.083,-3.333 3.1247,-5.208 3.125,-5.625 l 0.625,-5.625 v -6.25 c -0.41719,-16.666 8.958,-25 28.125,-25 h 5 c 2.4995,4.7e-4 4.3745,0.20938 5.625,0.625 m -166.25,211.25 -1.875,5 30,2.5 58.125,6.25 c 1.25,0.41719 4.1664,0.625 8.75,0.625 37.5,1.6e-4 68.333,-12.083 92.5,-36.25 25.416,-24.166 38.125,-53.541 38.125,-88.125 -4.7e-4,-33.333 -11.875,-61.041 -35.625,-83.125 -12.084,-11.25 -22.5,-16.875 -31.25,-16.875 -4.167,4.7e-4 -10.834,1.667 -20,5 11.666,0.41719 22.291,3.1253 31.875,8.125 9.9995,4.5838 18.333,10.834 25,18.75 7.083,7.917 12.5,17.5 16.25,28.75 4.1662,10.834 6.2495,22.709 6.25,35.625 -4.7e-4,35.834 -11.25,65 -33.75,87.5 -22.5,22.5 -51.875,33.75 -88.125,33.75 -8.7503,1.6e-4 -18.959,-0.625 -30.625,-1.875 l -36.25,-4.375 c -1.6669,-0.41719 -3.5419,-0.625 -5.625,-0.625 -2.0836,1.6e-4 -4.3753,1.6e-4 -6.875,0 -2.0836,1.6e-4 -4.5836,1.6e-4 -7.5,0 -2.9169,1.6e-4 -6.0419,-0.20781 -9.375,-0.625 m 193.12,-22.5 c 7.9162,-8.7498 14.583,-16.875 20,-24.375 5.4162,-7.4997 9.7912,-15 13.125,-22.5 3.3328,-7.9164 5.6245,-16.041 6.875,-24.375 1.6662,-8.7497 2.4995,-18.541 2.5,-29.375 -4.7e-4,-23.333 -7.0838,-51.25 -21.25,-83.75 l -8.125,-4.375 c 15.416,38.334 23.125,68.75 23.125,91.25 -4.7e-4,37.084 -12.084,69.584 -36.25,97.5 m -50.625,30.625 c 24.583,-8.7498 42.5,-17.5 53.75,-26.25 10.833,-9.1664 21.458,-23.125 31.875,-41.875 11.25,-19.583 19.583,-31.875 25,-36.875 7.0828,-5.833 15.833,-8.7497 26.25,-8.75 8.7495,3.1e-4 16.25,2.7086 22.5,8.125 6.6661,5.0003 9.9995,10.834 10,17.5 -4.7e-4,3.3336 -1.6672,7.9169 -5,13.75 l 1.25,3.75 c 4.9995,-7.4997 7.4994,-13.541 7.5,-18.125 -6.3e-4,-7.4997 -3.7505,-14.166 -11.25,-20 -7.0839,-5.833 -15.417,-8.7497 -25,-8.75 -11.25,3.1e-4 -20.417,3.1253 -27.5,9.375 -7.0838,5.8336 -14.792,17.084 -23.125,33.75 -10,19.167 -21.042,34.167 -33.125,45 -11.667,10.417 -29.375,20.209 -53.125,29.375 m 83.125,-144.38 -2.5,-18.75 c -7.0838,-15.416 -14.167,-27.291 -21.25,-35.625 -3.7505,-4.583 -9.3755,-9.9997 -16.875,-16.25 -7.5005,-6.6662 -17.084,-14.166 -28.75,-22.5 l -5.625,-1.25 c 12.916,9.5838 23.541,18.334 31.875,26.25 8.333,7.5003 14.791,14.167 19.375,20 4.583,5.417 8.7495,12.084 12.5,20 4.1662,7.917 7.9162,17.292 11.25,28.125 m 8.75,50 4.375,-11.875 5.625,-10.625 c 0.83281,-2.4997 1.25,-3.7497 1.25,-3.75 -4.7e-4,-0.83281 -0.41719,-1.25 -1.25,-1.25 -5.0005,3.1e-4 -7.7088,3.7503 -8.125,11.25 -4.7e-4,4.1669 -0.625,9.5836 -1.875,16.25 m 0.625,19.375 c 5.8328,-7.0831 10.416,-10.625 13.75,-10.625 1.6662,3.1e-4 2.7078,0.83438 3.125,2.5 1.25,-1.6664 1.8745,-2.9164 1.875,-3.75 -4.7e-4,-2.0831 -1.4594,-3.1247 -4.375,-3.125 -5.8338,3.1e-4 -10.625,5.0003 -14.375,15 m -20,-49.375 c -4.7e-4,-7.9164 -1.0422,-15.416 -3.125,-22.5 -1.6672,-7.4997 -4.167,-13.958 -7.5,-19.375 -3.3338,-5.4162 -7.0838,-9.7912 -11.25,-13.125 -4.167,-3.333 -8.542,-4.9997 -13.125,-5 -7.0838,3.1e-4 -10.625,2.917 -10.625,8.75 -4.7e-4,1.25 1.25,3.1253 3.75,5.625 1.25,-4.9997 3.7495,-7.4997 7.5,-7.5 15,3.1e-4 26.458,17.709 34.375,53.125 m -206.25,131.88 8.75,4.375 c 24.583,5.4169 42.916,13.125 55,23.125 12.5,9.5834 27.5,28.333 45,56.25 16.25,27.083 31.458,45.208 45.625,54.375 14.166,9.1667 33.75,13.75 58.75,13.75 16.25,0 35.416,-2.9167 57.5,-8.75 4.9995,-1.6666 10.833,-2.5 17.5,-2.5 9.5828,0 14.166,2.7084 13.75,8.125 v 1.875 c 2.9161,-2.9167 4.3744,-5.625 4.375,-8.125 -6.3e-4,-6.25 -3.9589,-9.375 -11.875,-9.375 -1.6672,0 -2.9172,-0.41719 -3.75,-1.25 -4.7e-4,-0.41719 1.25,-1.6666 3.75,-3.75 -2.9172,-2.9166 -6.2505,-4.375 -10,-4.375 -6.2505,0 -12.709,2.7084 -19.375,8.125 -10.417,9.1667 -18.959,13.75 -25.625,13.75 -3.7505,0 -5.6255,-0.625 -5.625,-1.875 -4.7e-4,-0.83281 0.83281,-1.4578 2.5,-1.875 1.6662,-0.41719 5.2078,-1.0422 10.625,-1.875 11.666,-1.6666 17.5,-8.3333 17.5,-20 v -3.125 c -4.7e-4,-2.0833 -0.20938,-3.75 -0.625,-5 l -5.625,0.625 c -2.9172,-14.167 -10.417,-21.25 -22.5,-21.25 -12.917,1.6e-4 -19.375,5.4167 -19.375,16.25 -4.7e-4,7.5 3.5412,11.25 10.625,11.25 2.4995,0 5.6245,-2.0833 9.375,-6.25 l -3.75,0.625 c -4.1672,0 -6.2505,-1.6666 -6.25,-5 -4.7e-4,-5.8333 2.9162,-8.75 8.75,-8.75 9.1662,0 13.75,5.2084 13.75,15.625 -4.7e-4,8.3334 -4.7922,15.208 -14.375,20.625 -9.1672,5.4167 -20.417,8.125 -33.75,8.125 -21.667,0 -38.125,-4.375 -49.375,-13.125 -10,-7.5 -25.209,-27.917 -45.625,-61.25 -25.417,-41.667 -60.625,-64.792 -105.62,-69.375 m -52.5,25 c -8.7502,1.25 -19.375,4.7919 -31.875,10.625 25,30 50.625,51.458 76.875,64.375 25.833,12.917 58.125,19.375 96.875,19.375 h 12.5 c 5.4162,-0.41719 11.666,-0.83281 18.75,-1.25 -1.667,-2.9166 -3.3338,-5.625 -5,-8.125 -1.667,-2.9166 -3.3338,-5.8333 -5,-8.75 h -16.25 c -30.834,0.83281 -56.042,-3.9583 -75.625,-14.375 -18.75,-9.9998 -42.5,-30.625 -71.25,-61.875 m 174.38,95.625 c -7.0838,0.41719 -13.542,0.83281 -19.375,1.25 h -13.75 c -30.417,0 -66.459,-8.5416 -108.12,-25.625 40.416,20 75.208,30 104.38,30 11.25,0 24.791,-0.625 40.625,-1.875 l -3.75,-3.75 m 8.125,-22.5 c 2.083,2.9167 3.958,5.8334 5.625,8.75 2.083,2.5 4.1662,5.2084 6.25,8.125 26.666,-7.0833 45.208,-13.333 55.625,-18.75 5.8328,-2.9166 11.875,-6.6666 18.125,-11.25 6.6662,-4.5833 13.958,-9.7916 21.875,-15.625 l 13.125,-60.625 c -4.7e-4,-1.6666 -0.83438,-3.9581 -2.5,-6.875 -13.75,32.917 -27.709,55.208 -41.875,66.875 -13.75,11.25 -39.167,21.042 -76.25,29.375 m 121.25,-95.625 c 0.83281,4.1669 1.25,6.2502 1.25,6.25 L 572.5,457.31 560,517.935 c -10,7.5002 -18.542,13.542 -25.625,18.125 -6.6672,4.5834 -13.334,8.3334 -20,11.25 -6.667,2.9167 -13.75,5.625 -21.25,8.125 -7.5005,2.5 -17.084,5.2084 -28.75,8.125 l 3.75,4.375 c 25.416,-7.0833 42.916,-12.917 52.5,-17.5 5.8328,-2.9166 12.5,-6.6666 20,-11.25 7.4995,-4.9998 15.833,-11.042 25,-18.125 L 577.5,456.685 c -4.7e-4,-2.9166 -1.8755,-5.4166 -5.625,-7.5 m -355.62,-2.5 c 4.1666,-4.5831 8.5416,-8.5416 13.125,-11.875 4.9998,-3.7498 10.208,-7.0831 15.625,-10 -8.3334,-30.833 -12.5,-53.541 -12.5,-68.125 -1.6e-4,-51.25 16.667,-92.916 50,-125 34.583,-32.083 78.75,-48.125 132.5,-48.125 35.416,4.7e-4 66.041,6.667 91.875,20 25.833,12.917 44.166,30.834 55,53.75 l 10.625,22.5 3.75,5 c 1.25,-4.1664 1.8745,-7.4997 1.875,-10 -4.7e-4,-1.6662 -0.20938,-3.333 -0.625,-5 -4.7e-4,-1.6662 -0.20938,-3.5412 -0.625,-5.625 l -10,-36.875 c -1.25,-4.9995 -1.6672,-13.958 -1.25,-26.875 v -3.125 c -4.7e-4,-6.6662 -0.83438,-9.9995 -2.5,-10 -1.25,4.7e-4 -2.0838,0.625 -2.5,1.875 l -1.25,2.5 c -1.6672,2.917 -4.7922,4.3755 -9.375,4.375 -0.83438,4.7e-4 -2.0838,4.7e-4 -3.75,0 -1.6672,-0.41563 -3.5422,-0.83281 -5.625,-1.25 l -23.125,-9.375 c -33.334,-12.916 -66.667,-19.375 -100,-19.375 -53.334,4.7e-4 -96.459,10.417 -129.38,31.25 -32.5,20.417 -58.542,53.542 -78.125,99.375 14.167,7.5003 21.25,16.25 21.25,26.25 -1.6e-4,5.8336 -1.6669,11.667 -5,17.5 -1.25,2.0836 -2.2919,3.1253 -3.125,3.125 -1.25,3.1e-4 -2.9169,-1.0406 -5,-3.125 -3.3334,1.6669 -6.6669,2.5003 -10,2.5 -2.5002,3.1e-4 -5.2084,-0.625 -8.125,-1.875 -0.41719,5.8336 -0.83281,11.042 -1.25,15.625 -1.6e-4,4.1669 -1.6e-4,7.7086 0,10.625 -1.6e-4,24.584 5.8333,51.042 17.5,79.375 m 31.25,-23.125 3.125,-1.875 c -6.2502,-26.666 -9.3752,-47.708 -9.375,-63.125 -1.6e-4,-50 16.25,-90.416 48.75,-121.25 32.5,-31.25 75.416,-46.875 128.75,-46.875 30.416,4.7e-4 63.125,7.5005 98.125,22.5 -20.834,-10.416 -37.709,-17.291 -50.625,-20.625 -6.667,-1.6662 -14.375,-2.9162 -23.125,-3.75 -8.7503,-0.83281 -18.75,-1.25 -30,-1.25 -52.917,4.7e-4 -95.834,15.625 -128.75,46.875 -32.5,30.834 -48.75,71.459 -48.75,121.88 -1.6e-4,17.084 3.9581,39.584 11.875,67.5 m 25.625,48.75 c 2.4998,3.3334 5.2081,6.8752 8.125,10.625 3.3331,3.7502 7.0831,7.5002 11.25,11.25 -3.3336,-4.1666 -6.4586,-8.1248 -9.375,-11.875 -2.5002,-3.7498 -4.7919,-7.2916 -6.875,-10.625 l -3.125,0.625 m 294.38,-283.12 0.625,4.375 v 13.125 c 0.41562,7.0838 1.25,14.167 2.5,21.25 1.6662,7.0838 3.5411,14.584 5.625,22.5 3.3328,12.084 4.9995,20 5,23.75 -4.7e-4,4.167 -0.83438,7.917 -2.5,11.25 2.4995,0.83437 3.5411,1.25 3.125,1.25 2.4995,3.1e-4 3.7495,-2.708 3.75,-8.125 -4.7e-4,-8.7497 -3.3339,-25.833 -10,-51.25 -2.5005,-10.416 -3.5422,-18.541 -3.125,-24.375 v -6.25 c 0.41562,-2.9162 -1.25,-5.4162 -5,-7.5 m -112.5,111.88 1.875,7.5 2.5,6.25 1.875,10 c -4.5838,-5.833 -6.8753,-11.25 -6.875,-16.25 -3.1e-4,-3.7497 0.20781,-6.2497 0.625,-7.5 m 14.375,-18.75 c 2.9162,6.2503 4.7912,11.042 5.625,14.375 1.6662,8.3336 2.9162,12.917 3.75,13.75 1.25,2.5003 1.8745,5.6253 1.875,9.375 -4.7e-4,-0.41719 -0.41719,-0.625 -1.25,-0.625 -2.0838,3.1e-4 -3.1255,-2.708 -3.125,-8.125 -4.7e-4,-1.25 -1.25,-5.6247 -3.75,-13.125 -1.25,-2.9164 -2.292,-8.1247 -3.125,-15.625 m 20,13.125 c 2.4995,5.8336 3.7495,10.209 3.75,13.125 -4.7e-4,2.5003 -0.625,5.8336 -1.875,10 -1.25,-4.1664 -1.8755,-8.958 -1.875,-14.375 v -8.75 m -91.25,58.75 -9.375,6.875 -11.25,5.625 c -5.417,2.9169 -10,4.3753 -13.75,4.375 -1.6669,3.1e-4 -2.5003,-0.625 -2.5,-1.875 -3.1e-4,-2.0831 4.9997,-4.1664 15,-6.25 -3.1e-4,3.1e-4 1.8747,-0.625 5.625,-1.875 3.7497,-1.6664 9.1664,-3.9581 16.25,-6.875 m -26.875,-4.375 c 4.1664,-4.9997 8.5414,-7.4997 13.125,-7.5 h 3.75 l -5.625,2.5 -4.375,1.875 -6.875,3.125 M 356.88,392.95 v -2.5 c -3.1e-4,-2.9164 2.0831,-5.6248 6.25,-8.125 -1.25,4.1669 -3.3336,7.7086 -6.25,10.625 M 532.5,594.83 c 6.6662,-0.83281 11.25,-1.4578 13.75,-1.875 2.9162,-0.83281 3.5412,-1.25 1.875,-1.25 1.6662,0 2.7078,0.83281 3.125,2.5 -4.7e-4,1.25 -2.0838,1.6667 -6.25,1.25 h -5.625 c -2.5005,0 -4.7922,-0.20781 -6.875,-0.625 M 600,479.21 c 0.83281,7.9167 2.2911,13.542 4.375,16.875 2.4995,2.9167 3.7495,5.2084 3.75,6.875 -4.7e-4,0.41719 -0.625,0.625 -1.875,0.625 -2.9172,1.6e-4 -4.5839,-3.9583 -5,-11.875 -4.7e-4,-1.6666 -0.20938,-3.3333 -0.625,-5 -4.7e-4,-2.0831 -0.20937,-4.5831 -0.625,-7.5 m -20.625,88.75 0.625,3.75 c 0.83281,4.5834 -2.0839,7.5 -8.75,8.75 3.3328,-2.9166 5.2078,-4.7916 5.625,-5.625 0.83281,-1.25 1.6661,-3.5416 2.5,-6.875 m 6.875,-51.875 c 6.6661,5.8334 11.041,11.458 13.125,16.875 -7.0839,-2.4998 -11.459,-8.1248 -13.125,-16.875 m -275.62,-60 -9.375,-1.875 -8.75,-2.5 -8.125,-1.875 c -0.83281,1.6e-4 -1.6669,-0.41719 -2.5,-1.25 -1.6e-4,-1.25 0.625,-1.8748 1.875,-1.875 l 16.875,3.75 10,5.625 m -53.125,5.625 c 3.3331,-1.6666 6.6664,-2.4998 10,-2.5 11.25,1.6e-4 16.875,1.25 16.875,3.75 -1.6e-4,0.41719 -1.25,0.625 -3.75,0.625 -0.41719,1.6e-4 -1.25,1.6e-4 -2.5,0 -0.83438,-0.41719 -2.2919,-0.83281 -4.375,-1.25 l -6.875,-0.625 h -9.375 m -17.5,-17.5 5.625,-6.25 6.25,-3.75 c 2.9166,-1.6664 4.7916,-2.9164 5.625,-3.75 l 1.875,-0.625 c 3.3331,1.6e-4 4.9998,1.25 5,3.75 -1.6e-4,2.0834 -3.7502,3.9584 -11.25,5.625 -1.6669,0.41719 -3.5419,1.0422 -5.625,1.875 -2.0834,0.41719 -4.5834,1.4578 -7.5,3.125 m -57.5,100 c 0.41719,-10.417 3.1248,-19.375 8.125,-26.875 -1.25,11.667 -3.9584,20.625 -8.125,26.875 m 48.125,-390 h 5 c 0.41719,4.7e-4 1.25,0.83437 2.5,2.5 1.6666,1.25 3.1248,2.0838 4.375,2.5 -0.83281,0.41719 -1.8752,0.20937 -3.125,-0.625 -0.83281,-1.25 -1.4578,-1.8745 -1.875,-1.875 -1.6669,4.7e-4 -3.9584,-0.83281 -6.875,-2.5 m 73.75,137.5 c 2.0831,-2.083 3.5414,-3.1247 4.375,-3.125 0.41719,1.667 1.4578,2.917 3.125,3.75 h -4.375 c -1.6669,3.1e-4 -2.7086,-0.20781 -3.125,-0.625 m 13.75,10.625 c 0.83281,2.0836 2.0831,4.3753 3.75,6.875 2.0831,2.5003 4.1664,5.417 6.25,8.75 -6.6669,-2.4997 -10,-7.708 -10,-15.625 m 30.625,7.5 c -11.667,-7.4997 -17.5,-15.208 -17.5,-23.125 -3.1e-4,-1.25 0.625,-1.8747 1.875,-1.875 1.25,3.1e-4 2.9164,2.5003 5,7.5 0.41719,0.41719 1.0406,1.25 1.875,2.5 0.83281,1.25 2.2914,2.917 4.375,5 0.41719,0.83437 1.0406,2.292 1.875,4.375 0.83281,1.667 1.6664,3.542 2.5,5.625 m 5,-25.625 c 2.4997,3.3336 3.7497,5.8336 3.75,7.5 -3.1e-4,2.917 -1.0422,7.5003 -3.125,13.75 l -0.625,-9.375 0.625,-6.25 -0.625,-5.625 m 22.5,-40 c -0.83281,-4.1662 -1.25,-6.2497 -1.25,-6.25 -3.1e-4,3.1e-4 0.20781,-0.41563 0.625,-1.25 0.83281,-0.83281 1.8747,-2.083 3.125,-3.75 3.7497,-4.9997 7.4997,-8.333 11.25,-10 -7.0836,5.8338 -11.667,12.917 -13.75,21.25 m 23.75,20 v -11.875 l 1.875,-7.5 c 0.83281,-0.83281 1.4578,-1.8747 1.875,-3.125 0.83281,-1.25 1.6664,-2.708 2.5,-4.375 h 0.625 c 1.25,0.83437 1.8747,1.667 1.875,2.5 -0.41719,1.667 -1.4578,3.7503 -3.125,6.25 -0.83281,2.0838 -1.667,4.792 -2.5,8.125 -0.83437,2.917 -1.8753,6.2503 -3.125,10 m 17.5,-4.375 c 1.6662,2.917 2.4997,5.8338 2.5,8.75 -3.1e-4,3.7503 -2.7086,8.1253 -8.125,13.125 0.83281,-1.25 1.25,-2.2914 1.25,-3.125 0.41719,-0.83281 0.83281,-1.6662 1.25,-2.5 l 3.125,-5.625 0.625,-3.125 c -3.1e-4,-3.7497 -0.20937,-6.2497 -0.625,-7.5 m -209.38,288.12 c -1.6667,-5.4166 -2.5002,-9.1666 -2.5,-11.25 -1.6e-4,-5.8333 3.3333,-11.875 10,-18.125 -3.7502,5.8334 -6.2502,12.5 -7.5,20 v 9.375 m -6.25,-100 c 1.6666,2.9169 2.4998,5.2084 2.5,6.875 -1.6e-4,3.7502 -0.625,6.4584 -1.875,8.125 l -1.25,-5 0.625,-5 v -5"
       fill="#8f0005"
       id="path13" />
  </g>
</svg>
