<?xml version="1.0" encoding="UTF-8" standalone="no"?>
<svg
   xmlns:dc="http://purl.org/dc/elements/1.1/"
   xmlns:cc="http://creativecommons.org/ns#"
   xmlns:rdf="http://www.w3.org/1999/02/22-rdf-syntax-ns#"
   xmlns:svg="http://www.w3.org/2000/svg"
   xmlns="http://www.w3.org/2000/svg"
   xmlns:sodipodi="http://sodipodi.sourceforge.net/DTD/sodipodi-0.dtd"
   xmlns:inkscape="http://www.inkscape.org/namespaces/inkscape"
   version="1.1"
   viewBox="0 0 500 500"
   id="svg17"
   sodipodi:docname="william-morris-letter-a.svg"
   inkscape:version="1.0.2 (1.0.2+r75+1)">
  <metadata
     id="metadata21">
    <rdf:RDF>
      <cc:Work
         rdf:about="">
        <dc:format>image/svg+xml</dc:format>
        <dc:type
           rdf:resource="http://purl.org/dc/dcmitype/StillImage" />
      </cc:Work>
    </rdf:RDF>
  </metadata>
  <sodipodi:namedview
     pagecolor="#ffffff"
     bordercolor="#666666"
     borderopacity="1"
     objecttolerance="10"
     gridtolerance="10"
     guidetolerance="10"
     inkscape:pageopacity="0"
     inkscape:pageshadow="2"
     inkscape:window-width="1920"
     inkscape:window-height="1016"
     id="namedview19"
     showgrid="false"
     inkscape:zoom="0.843"
     inkscape:cx="275.28612"
     inkscape:cy="174.52807"
     inkscape:window-x="0"
     inkscape:window-y="27"
     inkscape:window-maximized="1"
     inkscape:current-layer="svg17" />
  <defs
     id="defs7">
    <linearGradient
       id="linearGradient847"
       x1="500"
       x2="0"
       y1="500"
       y2="-4.2633e-14"
       gradientUnits="userSpaceOnUse">
      <stop
         stop-color="#ff6700"
         offset="0"
         id="stop2" />
      <stop
         stop-color="#ffd700"
         offset="1"
         id="stop4" />
    </linearGradient>
  </defs>
  <path
     d="m246.14 43.891-119.81 230.13 36.922 20.76 36.797-4.1387 121.63 2.5176 20.551 55.361 33.881-1.1016-2.5938 12.232-1.7793 2.2988 5.3379 8.748-0.8164 10.529-8.5254 14.754 4.8926 21.723-27.877 14.234-9.0449 3.2617-0.18555 4.748 8.7871 11.119 42.703-2.373 92.527 3.5586 1.1856-18.98-38.848-7.4141-25.209-41.518-54.566-118.33-96.383-217.67-19.572-4.4492zm-3.2617 87.486 24.021 40.627 21.945 53.381s3.2627 26.098 2.373 29.656-57.533 6.8223-57.533 6.8223l-41.223-11.566 0.63281-24.072 7.5391-13.49-0.68945-6.4942s3.9231-3.1936 6.627-5.0644l28.299-67.131 8.0078-2.668zm-137.31 198.1-6.8223 20.758-30.545 63.168-19.572 14.234-28.768 4.1524 5.041 18.09 63.762-1.7793s57.828 3.5595 59.607 4.4492 2.373-20.463 2.373-20.463l-36.773-8.0078-2.6699-21.352 21.354-31.732-5.707-20.4-5.6152-7.5 7.1699-13.617-7.1699 3.6172-15.664-3.6172z"
     fill="#f4eee6"
     id="path11" />
  <g
     transform="translate(-146.86 -119.79)"
     fill="#8f0005"
     id="g15">
    <path
       d="m146.86 619.79v-500h500v500h-500m7.5-7.5h485v-485h-485v485m7.5-7.5v-469.38h469.38v469.38h-469.38m52.5-257.5c-1.6669 3.1e-4 -2.5002 1.25-2.5 3.75v1.25c0.83281 2.0836 1.8748 3.1253 3.125 3.125 1.6666 3.1e-4 2.4998-1.25 2.5-3.75v-1.25c-0.83281-2.0831-1.8752-3.1247-3.125-3.125m339.38-8.75c-1.6672 3.1e-4 -2.5005 0.83281-2.5 2.5 0.83281 0.83438 1.4578 1.25 1.875 1.25 1.25 3.1e-4 1.8745-0.625 1.875-1.875-4.7e-4 -1.25-0.41719-1.8747-1.25-1.875m-2.5 8.125c-2.5005-0.83281-3.7505-1.25-3.75-1.25h-1.25c-4.7e-4 1.25 0.83281 1.8753 2.5 1.875 1.25 3.1e-4 2.0828-0.20781 2.5-0.625m9.375-2.5-3.125 1.25c-0.83438 0.83281-1.25 1.4578-1.25 1.875-4.7e-4 0.83281 0.41562 1.25 1.25 1.25 0.83281 3.1e-4 1.25-0.20781 1.25-0.625l1.875-3.75m58.75 11.875c-1.6672 3.1e-4 -2.5005 1.0422-2.5 3.125-4.7e-4 1.25 0.625 1.8753 1.875 1.875 1.25 3.1e-4 1.8745-0.83281 1.875-2.5-4.7e-4 -0.83281-0.41719-1.6664-1.25-2.5m4.375 6.875c-2.0839 3.1e-4 -3.1255 1.25-3.125 3.75-4.7e-4 1.25 0.83281 1.8753 2.5 1.875 1.6661 3.1e-4 2.4995-0.83281 2.5-2.5-4.7e-4 -1.25-0.625-2.2914-1.875-3.125m-8.75 2.5c-2.0839 3.1e-4 -3.1255 1.0422-3.125 3.125-4.7e-4 2.5003 0.83281 3.7503 2.5 3.75 2.4995 3.1e-4 3.7495-1.25 3.75-3.75-4.7e-4 -2.0831-1.0422-3.1247-3.125-3.125m8.75 6.875c-2.0839 3.1e-4 -3.1255 0.83438-3.125 2.5-4.7e-4 1.25 0.83281 1.8753 2.5 1.875 2.0828 3.1e-4 3.1244-0.625 3.125-1.875-6.3e-4 -1.6664-0.83438-2.4997-2.5-2.5m-10 3.75c-2.5005 3.1e-4 -3.7505 1.25-3.75 3.75-4.7e-4 1.6669 1.25 2.5003 3.75 2.5 2.4995 3.1e-4 3.7495-0.83281 3.75-2.5-4.7e-4 -2.4997-1.25-3.7497-3.75-3.75m9.375 5c-2.5005 3.1e-4 -3.7505 1.25-3.75 3.75-4.7e-4 1.6669 1.0406 2.5002 3.125 2.5 2.0828 1.6e-4 3.1245-1.0422 3.125-3.125-4.7e-4 -2.0831-0.83438-3.1247-2.5-3.125m-10 5.625c-3.3339 1.6e-4 -5.0005 1.8752-5 5.625-4.7e-4 2.9169 1.25 4.3752 3.75 4.375 3.3328 1.6e-4 4.9995-1.4578 5-4.375-4.7e-4 -3.7498-1.25-5.6248-3.75-5.625m10.625 7.5-2.5 2.5 2.5 4.375 0.625 2.5c-4.7e-4 7.0836-5.6255 10.625-16.875 10.625l-2.5-0.625c-0.83438-0.41719-2.5005-0.625-5-0.625-0.83438 1.6e-4 -1.25 0.41719-1.25 1.25-4.7e-4 2.0836 2.7078 3.1252 8.125 3.125 4.1661 1.6e-4 8.7495-1.25 13.75-3.75 4.9995-2.4998 7.4994-5.6248 7.5-9.375l-0.625-1.875-3.75-8.125m-55-161.88c2.0828 2.0838 3.1245 4.167 3.125 6.25v0.625c-1.25 3.1e-4 -3.3338-2.083-6.25-6.25h-1.875c3.7495 7.0838 6.8745 12.709 9.375 16.875l2.5 0.625h2.5c2.4995 3.1e-4 3.7495-0.625 3.75-1.875-4.7e-4 -1.25-0.83438-3.333-2.5-6.25l-1.875-5c-0.41719-0.41562-0.625-0.625-0.625-0.625-4.7e-4 -0.41562-4.7e-4 -0.625 0-0.625v-0.625c0.41562-0.41562 1.8745-1.25 4.375-2.5l-5-5c-4.7e-4 3.1e-4 -0.625 0.41719-1.875 1.25-1.25 0.41719-3.1255 1.4594-5.625 3.125m-370.62 263.12c-2.0834 0.83281-3.1252 2.5002-3.125 5-1.6e-4 2.9167 1.25 4.3752 3.75 4.375 2.4998 1.6e-4 3.7498-1.4578 3.75-4.375-1.6e-4 -3.3333-1.4578-4.9998-4.375-5m64.375-251.25c-1.25 0.83438-1.8752 1.8753-1.875 3.125-1.6e-4 0.83438 1.0422 1.25 3.125 1.25h1.25c0.41719-0.41562 1.0406-0.625 1.875-0.625 1.25 3.1e-4 2.0831-0.20781 2.5-0.625-1.6e-4 -2.083-1.6669-3.1247-5-3.125h-1.875m-7.5 15c-1.25 0.83438-1.8752 2.0838-1.875 3.75-1.6e-4 2.5003 1.0422 3.7503 3.125 3.75 2.0831 3.1e-4 3.1248-1.0406 3.125-3.125-1.6e-4 -2.9162-1.4578-4.3747-4.375-4.375m8.125 8.75c-2.0834 3.1e-4 -3.1252 1.0422-3.125 3.125-1.6e-4 2.0838 1.25 3.1253 3.75 3.125 1.6664 3.1e-4 2.7081-0.83281 3.125-2.5-1.6e-4 -2.4997-1.25-3.7497-3.75-3.75m-10.625 1.25c-1.25 3.1e-4 -1.8752 0.83438-1.875 2.5-1.6e-4 2.0838 0.83281 3.1253 2.5 3.125 1.6666 3.1e-4 2.4998-0.83281 2.5-2.5-1.6e-4 -2.083-1.0422-3.1247-3.125-3.125m-1.875 8.75c-0.41719 0.41719-0.83281 1.4578-1.25 3.125l-0.625 0.625c-1.6e-4 2.0836 0.83281 3.1253 2.5 3.125 2.0831 3.1e-4 3.1248-1.25 3.125-3.75-1.6e-4 -2.083-1.25-3.1247-3.75-3.125m20-1.25c-2.0836 3.1e-4 -3.1252 1.25-3.125 3.75-1.6e-4 2.0836 1.25 3.3336 3.75 3.75 2.4998 3.1e-4 3.7498-0.83281 3.75-2.5-1.6e-4 -3.333-1.4578-4.9997-4.375-5m-8.75 5c-2.5002 0.83281-3.7502 2.0836-3.75 3.75-1.6e-4 2.5003 1.25 3.7503 3.75 3.75 2.9164 3.1e-4 4.3748-1.0406 4.375-3.125-1.6e-4 -2.9164-1.4578-4.3747-4.375-4.375m8.75 6.25c-0.83438 0.83438-1.25 1.4578-1.25 1.875-1.6e-4 1.25 0.625 1.8753 1.875 1.875 1.25 3.1e-4 2.2914-0.41719 3.125-1.25-1.6e-4 -1.6664-1.25-2.4997-3.75-2.5m-44.375 31.25c-4.1669 3.1e-4 -6.2502 1.8753-6.25 5.625-1.6e-4 1.667 1.25 2.5003 3.75 2.5 4.1666 3.1e-4 6.2498-1.4578 6.25-4.375-1.6e-4 -2.4997-1.25-3.7497-3.75-3.75m-8.75 9.375c-1.6669 3.1e-4 -2.5002 0.83281-2.5 2.5-1.6e-4 1.25 0.625 1.8753 1.875 1.875 1.6666 3.1e-4 2.4998-0.625 2.5-1.875-1.6e-4 -1.6664-0.625-2.4997-1.875-2.5m-1.875 8.75c-0.83281 3.1e-4 -1.25 1.0422-1.25 3.125-1.6e-4 1.25 0.625 1.8753 1.875 1.875 1.6666 3.1e-4 2.4998-0.625 2.5-1.875-1.6e-4 -2.0831-1.0422-3.1247-3.125-3.125m6.25 6.875c-0.83281 3.1e-4 -1.25 0.83281-1.25 2.5-1.6e-4 2.5003 1.0422 3.7503 3.125 3.75 2.9166 3.1e-4 4.3748-0.83281 4.375-2.5-1.6e-4 -2.4997-2.0834-3.7497-6.25-3.75m-0.625 10c-1.6e-4 2.0836 0.83281 3.1253 2.5 3.125 1.25 3.1e-4 2.4998-1.0406 3.75-3.125h-6.25m11.25-4.375c1.25 1.6669 2.0831 2.5003 2.5 2.5 0.41719-0.41719 1.0422-1.4578 1.875-3.125l-4.375 0.625m3.125-8.75-3.75 2.5c0.41719 1.6669 1.0422 2.5003 1.875 2.5 1.6666 3.1e-4 2.4998-0.83281 2.5-2.5-1.6e-4 -1.25-0.20781-2.0831-0.625-2.5m6.25 0.625-2.5 3.125 1.25 2.5c0.83281-0.41719 1.8748-1.25 3.125-2.5-0.41719-1.25-1.0422-2.2914-1.875-3.125m-2.5-11.875c-2.0834 3.1e-4 -3.1252 1.4578-3.125 4.375-1.6e-4 2.5003 1.0422 3.7503 3.125 3.75 2.4998 3.1e-4 3.7498-1.25 3.75-3.75-1.6e-4 -2.9164-1.25-4.3747-3.75-4.375m-36.875 158.75c0.83281 5.8334 2.9166 8.7502 6.25 8.75 0.83281 1.6e-4 1.25-0.83281 1.25-2.5-1.6e-4 -2.9166-2.5002-4.9998-7.5-6.25m0 27.5c-1.6667-2.4998-2.9167-4.3748-3.75-5.625-0.83281-1.25-1.25-1.8748-1.25-1.875-0.41719 0.41719-1.25 0.625-2.5 0.625 0.41719 3.7502 2.9166 6.0417 7.5 6.875m9.375 2.5h-4.375c-2.0834 1.6e-4 -3.1252 0.41719-3.125 1.25-1.6e-4 2.9167 1.6666 4.3752 5 4.375h0.625c2.4998-0.41719 3.7498-1.25 3.75-2.5-0.83281-0.83281-1.4578-1.8748-1.875-3.125m8.75-6.875c-2.5002 3.3334-3.7502 5.2084-3.75 5.625-1.6e-4 1.6667 0.41719 2.5002 1.25 2.5 1.6666 1.6e-4 2.9166-1.0422 3.75-3.125l0.625-1.875c-1.6e-4 -2.0833-0.625-3.1248-1.875-3.125m3.125-11.25c-2.9169 1.6e-4 -4.3752 1.6667-4.375 5-1.6e-4 1.6667 1.0422 2.5002 3.125 2.5 2.4998 1.6e-4 3.7498-1.25 3.75-3.75-1.6e-4 -2.0833-0.83281-3.3333-2.5-3.75m-10-11.25 1.25 5.625v5l0.625 0.625c3.7498 1.6e-4 5.6248-2.0833 5.625-6.25-1.6e-4 -2.4998-0.41719-3.7498-1.25-3.75l-6.25-1.25m183.12 90.625c-3.7503 0-5.6253 1.4578-5.625 4.375-3.1e-4 2.0834 1.6664 3.125 5 3.125 3.7497 0 5.6247-1.25 5.625-3.75-3.1e-4 -2.5-1.667-3.75-5-3.75m193.75-116.88c-2.5005 1.6e-4 -3.7505 1.4578-3.75 4.375-4.7e-4 2.9169 0.625 4.3752 1.875 4.375 3.3328 1.6e-4 4.9995-2.0831 5-6.25-4.7e-4 -1.6666-1.0422-2.4998-3.125-2.5m-10 6.25c-2.5005 0.41719-4.1672 1.6669-5 3.75h0.625c2.0828 1.6e-4 3.5411-1.25 4.375-3.75m-3.125 8.75c-1.25 1.25-1.8755 2.2919-1.875 3.125-4.7e-4 1.25 1.0406 2.2919 3.125 3.125h0.625c1.25 1.6e-4 2.2911-0.41719 3.125-1.25-4.7e-4 -1.25-1.6672-2.9166-5-5m6.25-3.75v0.625c-4.7e-4 3.3334 0.83281 5.0002 2.5 5 2.4995 1.6e-4 4.3745-1.8748 5.625-5.625h-8.125m3.75 9.375c-2.0839 1.6e-4 -3.1255 0.83281-3.125 2.5 0.83281 0.83281 1.6661 1.25 2.5 1.25 1.6661 1.6e-4 2.4995-0.625 2.5-1.875-4.7e-4 -1.25-0.625-1.8748-1.875-1.875m9.375-6.25c-2.5005 0.83281-3.7505 2.0834-3.75 3.75l0.625 0.625c0.41562 0.41719 0.83281 0.625 1.25 0.625h0.625c2.4995 1.6e-4 3.7495-0.83281 3.75-2.5-4.7e-4 -1.6666-0.83438-2.4998-2.5-2.5m-30-61.875 3.75 4.375c5.8328 2.0836 11.25 4.7919 16.25 8.125 5.4161 2.9169 10.416 6.2502 15 10l13.75 11.25c3.3328 2.0834 5.4161 3.1252 6.25 3.125 1.6661 1.6e-4 2.9161-0.20781 3.75-0.625l-0.625-4.375c2.0828-3.3331 3.1244-5.6248 3.125-6.875-6.3e-4 -2.0831-1.25-4.3748-3.75-6.875v1.25c-4.7e-4 5.0002-2.0839 7.5002-6.25 7.5-3.3339 1.6e-4 -7.2922-1.6666-11.875-5l-12.5-9.375c-5.8339-4.1664-14.792-8.3331-26.875-12.5m-5-6.875c4.5828 0.83438 8.7495 1.6669 12.5 2.5 4.1661 0.83438 8.3328 1.6669 12.5 2.5 0.41562 1.25 0.625 2.2919 0.625 3.125 0.41562 0.41719 0.625 0.625 0.625 0.625v2.5l8.125 4.375 3.125 5c1.25-1.6664 1.8745-3.3331 1.875-5-4.7e-4 -2.9164-1.6672-4.9998-5-6.25-2.9172-1.25-4.3755-3.1248-4.375-5.625-4.7e-4 -1.6664 0.83281-2.4998 2.5-2.5l4.375-0.625c2.9161 1.6e-4 4.3745-2.7081 4.375-8.125-4.7e-4 -2.0831-1.6672-4.7914-5-8.125v1.25c0.83281 6.2502-2.0839 9.5836-8.75 10-0.83438 1.6e-4 -1.25 0.20938-1.25 0.625l-1.25 3.75h-5.625l-10.625-1.875h-5l-3.75 1.875m26.875-231.88-1.25-4.375c-4.5839-3.3328-7.9172-4.9995-10-5-3.3339 4.7e-4 -5.0005 1.6672-5 5-4.7e-4 1.25 1.0406 2.917 3.125 5v-1.875c-4.7e-4 -1.6662 0.83281-2.4995 2.5-2.5 0.83281 4.7e-4 2.4995 0.625 5 1.875 2.9161 0.83438 4.7911 1.4594 5.625 1.875m-21.25-3.75-0.625-3.125c-5.0005-3.7495-7.5005-6.6662-7.5-8.75-4.7e-4 -1.25 1.0406-2.4995 3.125-3.75-5.0005 4.7e-4 -7.5005 1.4594-7.5 4.375-4.7e-4 2.5005 0.83281 4.5838 2.5 6.25l10 5m-31.25-8.125c-2.0838-2.0828-3.1255-3.9578-3.125-5.625-4.7e-4 -5.8328 3.7495-8.7495 11.25-8.75 2.0828 4.7e-4 4.5828 0.20938 7.5 0.625 2.9162 4.7e-4 6.0412 0.20938 9.375 0.625-7.5005-2.9162-13.75-4.3745-18.75-4.375-10.417 4.7e-4 -15.625 3.5422-15.625 10.625-4.7e-4 4.5838 1.6662 6.8755 5 6.875h4.375m-10.625-16.25c-15 0.83438-22.5 4.7922-22.5 11.875-4.7e-4 4.5838 2.083 6.8755 6.25 6.875 2.4995 4.7e-4 4.9995-1.6662 7.5-5h-1.25c-2.917 4.7e-4 -4.3755-1.25-4.375-3.75-4.7e-4 -3.3328 4.7912-6.6662 14.375-10m-33.75-5.625h-1.25c-4.167 4.7e-4 -7.7088-0.625-10.625-1.875-0.41719-0.41562-1.0422-0.625-1.875-0.625-0.41719 4.7e-4 -0.625 0.20938-0.625 0.625-4.7e-4 2.5005 1.6662 3.7505 5 3.75 1.25 4.7e-4 4.3745-0.625 9.375-1.875m97.5 9.375c-0.41719-1.25-0.625-3.3328-0.625-6.25-4.7e-4 -2.4995 0.20781-4.3745 0.625-5.625-2.5005 2.0838-3.7505 3.7505-3.75 5-4.7e-4 2.0838 1.25 4.3755 3.75 6.875m-174.38-9.375c-2.0836 4.7e-4 -3.1253 1.25-3.125 3.75-3.1e-4 2.5005 1.0422 3.7505 3.125 3.75 2.9162 4.7e-4 4.3747-1.25 4.375-3.75-3.1e-4 -2.4995-1.4594-3.7495-4.375-3.75m-10-2.5c-3.3336 4.7e-4 -5.0003 0.83438-5 2.5-3.1e-4 2.0838 1.4578 3.1255 4.375 3.125 2.083 4.7e-4 3.1247-0.83281 3.125-2.5-3.1e-4 -1.6662-0.83438-2.7078-2.5-3.125m-11.25 5.625c-2.5003 4.7e-4 -3.7503 1.25-3.75 3.75-3.1e-4 2.5005 1.25 3.7505 3.75 3.75 2.4997 4.7e-4 3.7497-1.0406 3.75-3.125-3.1e-4 -2.9162-1.25-4.3745-3.75-4.375m11.875 3.125c-2.5003 4.7e-4 -3.7503 1.4594-3.75 4.375-3.1e-4 2.5005 1.25 3.7505 3.75 3.75 3.333 4.7e-4 4.9997-1.0406 5-3.125-3.1e-4 -3.3328-1.667-4.9995-5-5m-5 8.75c-2.0836 4.7e-4 -3.1253 1.0422-3.125 3.125-3.1e-4 2.5005 1.4578 3.7505 4.375 3.75 2.4997 4.7e-4 3.7497-0.83281 3.75-2.5-3.1e-4 -2.9162-1.667-4.3745-5-4.375m12.5 0.625c-2.0836 0.83438-3.1253 2.2922-3.125 4.375-3.1e-4 1.6672 1.0422 2.5005 3.125 2.5 2.9164 4.7e-4 4.3747-1.0406 4.375-3.125-3.1e-4 -2.4995-1.4578-3.7495-4.375-3.75m-61.25 32.5c1.6664 12.5 5.2081 18.75 10.625 18.75 2.0831 4.7e-4 3.7497-1.8745 5-5.625-0.83438 0.41719-2.0836 0.625-3.75 0.625-2.5003 4.7e-4 -6.4586-4.583-11.875-13.75m-78.125 27.5c-2.5002 4.7e-4 -3.7502 0.83438-3.75 2.5-1.6e-4 1.25 1.0406 1.8755 3.125 1.875 2.0831 4.7e-4 3.1248-0.625 3.125-1.875-1.6e-4 -1.25-0.83281-2.083-2.5-2.5m-14.375-1.875c-2.0834 4.7e-4 -3.1252 1.0422-3.125 3.125-1.6e-4 2.5005 1.6666 3.7505 5 3.75 2.9164 4.7e-4 4.3748-1.0406 4.375-3.125-1.6e-4 -2.4995-2.0836-3.7495-6.25-3.75m-10.625-2.5c-1.6669 4.7e-4 -2.5002 0.625-2.5 1.875 0.83281 0.83438 1.4578 1.25 1.875 1.25 1.6666 4.7e-4 2.4998-0.41562 2.5-1.25-1.6e-4 -1.25-0.625-1.8745-1.875-1.875m-10.625-3.75c-2.9169-0.41562-4.3752 0.83438-4.375 3.75-1.6e-4 2.5005 1.25 3.7505 3.75 3.75 2.9166 4.7e-4 4.3748-1.0406 4.375-3.125-1.6e-4 -2.9162-1.25-4.3745-3.75-4.375m-9.375 5c-2.0834 4.7e-4 -3.1252 1.0422-3.125 3.125-1.6e-4 2.0838 0.625 3.1255 1.875 3.125 2.0831 4.7e-4 3.1248-1.0406 3.125-3.125-1.6e-4 -2.083-0.625-3.1245-1.875-3.125m46.875 10c-2.9169 4.7e-4 -4.3752 1.4594-4.375 4.375-1.6e-4 2.5003 1.4578 3.7503 4.375 3.75 2.9164 3.1e-4 4.3748-1.0406 4.375-3.125-1.6e-4 -3.333-1.4578-4.9995-4.375-5m-19.375 0.625c-2.9169 4.7e-4 -4.3752 1.25-4.375 3.75-1.6e-4 1.667 1.25 2.5003 3.75 2.5h0.625c3.3331-0.83281 4.9998-1.8747 5-3.125-1.6e-4 -2.083-1.6669-3.1245-5-3.125m6.875 10-1.25 2.5c-1.6e-4 1.25 1.0406 1.8753 3.125 1.875 2.9164 3.1e-4 4.3748-1.25 4.375-3.75-1.6e-4 -2.4997-1.4578-3.7497-4.375-3.75-0.41719 3.1e-4 -1.0422 0.41719-1.875 1.25v1.875m-8.125 0.625c-1.6669 3.1e-4 -2.5002 1.0422-2.5 3.125-1.6e-4 1.25 0.625 1.8753 1.875 1.875 2.0831 3.1e-4 3.1248-0.83281 3.125-2.5-1.6e-4 -1.6662-0.83281-2.4997-2.5-2.5m51.875-1.25c-2.0836 3.1e-4 -3.1252 0.625-3.125 1.875-1.6e-4 1.667 1.0406 2.5003 3.125 2.5 2.4998 3.1e-4 3.7498-0.83281 3.75-2.5-1.6e-4 -1.25-1.25-1.8747-3.75-1.875m-13.75-1.875c-1.6669 3.1e-4 -2.5002 0.625-2.5 1.875-1.6e-4 1.25 1.4578 1.8753 4.375 1.875 1.6664 0.41719 2.4998 3.1e-4 2.5-1.25-1.6e-4 -1.6662-1.4578-2.4997-4.375-2.5m-7.5 2.5c-2.5002 3.1e-4 -3.7502 1.0422-3.75 3.125-1.6e-4 1.667 0.83281 2.5003 2.5 2.5 2.4998 3.1e-4 3.7498-1.0406 3.75-3.125-1.6e-4 -1.6662-0.83438-2.4997-2.5-2.5m-10 1.875c-2.5002 3.1e-4 -3.7502 1.25-3.75 3.75-1.6e-4 1.667 1.0406 2.5003 3.125 2.5 2.0831 3.1e-4 3.1248-1.0406 3.125-3.125-1.6e-4 -2.083-0.83281-3.1247-2.5-3.125m-20 7.5c-2.5002 3.1e-4 -3.7502 1.25-3.75 3.75-1.6e-4 1.667 0.625 2.5003 1.875 2.5 2.4998 3.1e-4 3.7498-1.0406 3.75-3.125-1.6e-4 -1.25-0.625-2.2912-1.875-3.125m320.62 192.5c13.75 12.083 20.625 20.833 20.625 26.25-4.7e-4 2.5002-0.83438 5.2084-2.5 8.125 3.7495-1.6666 5.6245-4.1666 5.625-7.5-4.7e-4 -8.7498-6.8755-17.917-20.625-27.5l-3.125 0.625m-184.38 158.12 7.5-0.625 0.625-5-4.375 1.25-3.75-0.625c-0.41719 0.41719-0.625 1.0422-0.625 1.875l0.625 3.125m231.25-10c-8.7505 0-13.75-4.5833-15-13.75l-11.25 0.625 0.625 5c0.83281 2.0834 1.4578 3.125 1.875 3.125h1.875c0.83281-0.83281 1.6661-0.20781 2.5 1.875 4.1661 5 7.9161 7.5 11.25 7.5 2.4995 0 5.2078-1.4578 8.125-4.375m-31.875-14.375c-4.5839 4.5834-6.8755 8.5417-6.875 11.875-4.7e-4 2.9167 1.25 5.2084 3.75 6.875 0.41562-2.0833 1.0406-3.9583 1.875-5.625 0.83281-1.6666 1.6661-3.3333 2.5-5l-1.25-8.125m-41.875 11.875c2.0828-0.41719 4.3745-0.625 6.875-0.625h5c8.7495-0.83281 15.833-3.3333 21.25-7.5 1.25-1.25 1.8745-2.2916 1.875-3.125-4.7e-4 -0.83281-0.41719-1.25-1.25-1.25l-3.125 0.625-15.625 5-2.5 0.625c-3.7505 0-8.5422-2.2916-14.375-6.875l-1.875 3.75 0.625 0.625 1.25 2.5 2.5 2.5-0.625 3.75m-8.75 2.5c-9.5838-0.83281-14.375-3.3333-14.375-7.5-4.7e-4 -4.5833 2.2912-6.4583 6.875-5.625h3.75c-3.3338-1.25-6.2505-1.875-8.75-1.875-5.4172 0-8.1255 1.875-8.125 5.625-4.7e-4 7.0834 4.7912 10.625 14.375 10.625h2.5c0.83281-0.41719 2.0828-0.83281 3.75-1.25m-190-43.125c-0.83438-3.3333-1.25-5.2083-1.25-5.625-3.1e-4 -2.9166 1.25-4.3748 3.75-4.375 2.9164 1.6e-4 5.2081 1.4578 6.875 4.375 0.41719 0.83281 0.83281 2.0834 1.25 3.75 0.83281 1.6667 1.6664 3.9584 2.5 6.875 0.41719 3.3334 2.2914 5.8334 5.625 7.5v-3.125l-5-6.25c-0.41719-1.25-0.625-3.125-0.625-5.625-3.1e-4 -2.0833-0.20938-3.7498-0.625-5-1.25-5.8333-3.9586-8.7498-8.125-8.75-6.6669 1.6e-4 -10 2.9167-10 8.75-3.1e-4 5 1.8747 7.5 5.625 7.5m-151.25 28.75c5.4166 4.1667 10.625 6.4584 15.625 6.875 0.41719-1.25 1.0422-1.875 1.875-1.875 2.0831 0 3.3331 0.20781 3.75 0.625l1.875 0.625c3.7498 0 6.4581-1.4578 8.125-4.375h-6.875l-7.5-2.5c-0.41719-0.41719-2.0834-0.625-5-0.625-1.25 0-2.9167 0.20781-5 0.625-1.6667 0-3.9584 0.20781-6.875 0.625m-14.375 1.875c-0.83281 7.5-4.1667 14.583-10 21.25h3.75c4.1666 0.83281 6.6666-1.0422 7.5-5.625l0.625-6.25c-1.6e-4 -1.25 0.83281-1.875 2.5-1.875 1.6666 0 2.4998 1.25 2.5 3.75v0.625c2.4998-1.25 3.7498-3.3333 3.75-6.25-1.6e-4 -2.9166-0.20781-5-0.625-6.25l-10 0.625m41.25 9.375c7.4998 2.5 14.167 3.75 20 3.75 12.5 0 18.75-2.9166 18.75-8.75-1.6e-4 -2.0833-2.2919-4.1666-6.875-6.25 0.41719 1.25 0.625 2.2917 0.625 3.125l0.625 0.625c-1.6e-4 6.6667-4.5834 10-13.75 10-6.6669 0-13.125-0.83281-19.375-2.5m70 8.125c2.9164-1.6666 6.4581-2.5 10.625-2.5 3.3331 0 4.9998 1.0422 5 3.125l-0.625 2.5c2.4997-0.41719 3.7497-1.4578 3.75-3.125-3.1e-4 -2.9166-1.6669-4.375-5-4.375-5.0002 0-9.5836 1.4578-13.75 4.375m125-6.25c6.2497 1.25 9.3747 3.5417 9.375 6.875v0.625c-0.83438 0-3.3338-1.0422-7.5-3.125-4.167-2.5-7.917-3.75-11.25-3.75-3.1e-4 0-1.667 0.41719-5 1.25-3.1e-4 0.41719 0.20781 1.0422 0.625 1.875 0.83281 0.41719 2.9164 1.25 6.25 2.5 7.9162 3.75 15 5.625 21.25 5.625 5.4162 0 10.416-0.83281 15-2.5-11.25-5-20.834-8.125-28.75-9.375m-76.875 9.375c7.9164 1.25 13.958 1.875 18.125 1.875 6.6664 0 14.166-2.5 22.5-7.5 1.25-0.41719 1.8747-0.83281 1.875-1.25-3.1e-4 -1.25-1.8753-1.875-5.625-1.875-2.0836 0-3.3336 0.20781-3.75 0.625l-6.875 3.125-5.625 1.875 1.25-2.5 3.125-2.5c-2.5003 0.41719-5.2086 1.0422-8.125 1.875-2.5003 0.41719-5.4169 1.4578-8.75 3.125l-8.125 3.125m153.12-0.625c-2.917-1.25-5.6255-2.0833-8.125-2.5-2.0838-0.83281-3.9588-1.4578-5.625-1.875h-1.25c-3.3338-0.83281-5.0005 0.20781-5 3.125-4.7e-4 2.0833 0.625 3.125 1.875 3.125l0.625-0.625 4.375-2.5c0.41562-0.41719 1.4578-0.625 3.125-0.625 2.083 0 5.4162 0.625 10 1.875m-145-84.375c1.25 2.0834 2.7081 3.1252 4.375 3.125-2.0836 1.6e-4 0.41719-0.625 7.5-1.875l1.875-0.625 3.125 0.625c-0.83438-3.3333-2.7086-4.9998-5.625-5h-1.25l-5.625 4.375-4.375-0.625m30.625 6.875c-0.41719-12.083-3.3336-20.625-8.75-25.625-5.417-5.4166-15.209-9.1666-29.375-11.25l1.25 4.375 2.5 1.25v1.875l-4.375 6.875c-0.83281 2.5002-1.25 3.9584-1.25 4.375-3.1e-4 4.1667 2.0831 7.7084 6.25 10.625-0.41719-2.0833-0.83281-3.7498-1.25-5-3.1e-4 -1.25-3.1e-4 -2.0833 0-2.5-3.1e-4 -6.6666 3.7497-9.9998 11.25-10 10.416 1.6e-4 18.333 8.3334 23.75 25m43.75 31.25 3.75-7.5-1.25-13.75c-3.1e-4 -4.5833 1.4578-6.8748 4.375-6.875 1.6662 1.6e-4 2.4997 0.83281 2.5 2.5-3.1e-4 0.41719-0.41719 1.8752-1.25 4.375-0.83438 2.0834-1.25 3.7502-1.25 5-3.1e-4 6.2502 2.9162 9.375 8.75 9.375 1.25 0 1.8747-0.625 1.875-1.875-3.1e-4 -0.41719-0.20938-0.83281-0.625-1.25l-3.75-4.375-0.625-5.625 3.125-6.875 0.625-1.875c-3.1e-4 -5.4166-2.292-8.1248-6.875-8.125-2.917 1.6e-4 -5.6253 1.6667-8.125 5-2.0838 2.9167-3.1253 5.6252-3.125 8.125v1.25l2.5 11.25-0.625 11.25m-26.25-53.125c-4.167-14.583-7.5003-28.542-10-41.875-2.5003-13.333-4.5836-26.458-6.25-39.375l-3.75 0.625c4.1664 30.417 9.7914 56.875 16.875 79.375l3.125 1.25m5.625-9.375c3.333-9.9998 6.458-17.083 9.375-21.25 2.083-3.3331 4.3747-6.4581 6.875-9.375 2.4997-3.3331 4.9997-6.6666 7.5-10 6.2497-7.9166 9.3747-15 9.375-21.25-3.1e-4 -2.0831-0.625-3.5414-1.875-4.375l-1.875-1.875-1.25 1.25-2.5-0.625-8.75-3.75-11.875-0.625-1.875-0.625h-1.875l-1.875 2.5 1.875 1.25-1.875 1.875c-2.5003 3.3336-3.7503 7.9169-3.75 13.75-3.1e-4 2.5002 1.8747 5.0002 5.625 7.5 2.4997 2.0834 3.7497 3.7502 3.75 5-3.1e-4 2.5002-1.8753 4.3752-5.625 5.625v1.875c6.2497-1.6666 9.3747-5.4166 9.375-11.25l-0.625-0.625c-4.167-4.1666-6.2503-7.2914-6.25-9.375-3.1e-4 -7.0831 3.333-10.625 10-10.625 7.083 1.6e-4 10.625 3.7502 10.625 11.25-3.1e-4 3.3336-0.625 5.8334-1.875 7.5l-11.875 19.375-8.75 26.875m5.625 30c15.833-38.333 31.458-57.5 46.875-57.5 4.583 1.6e-4 6.8747 2.7084 6.875 8.125-3.1e-4 4.5834-3.1253 6.8752-9.375 6.875 2.083 2.0834 3.7497 3.1252 5 3.125 3.7497 1.6e-4 7.083-2.0831 10-6.25 0.83281-0.83281 1.4578-1.25 1.875-1.25l3.75 0.625c2.083 1.6e-4 3.1245-1.4578 3.125-4.375-4.7e-4 -1.6666-0.625-2.9166-1.875-3.75l-2.5-2.5c-0.41719-0.41719-0.625-0.83281-0.625-1.25-4.7e-4 1.6e-4 0.83281-0.625 2.5-1.875 2.083-1.25 3.1245-2.9166 3.125-5-4.7e-4 -0.41719-0.41719-0.625-1.25-0.625h-3.125l-12.5-0.625c-7.917-0.41719-18.959 7.7084-33.125 24.375-8.3338 10-14.584 23.958-18.75 41.875m46.25 41.875c-4.5838-15.833-6.8753-26.25-6.875-31.25-3.1e-4 -4.1666 0.20781-6.8748 0.625-8.125l3.75-18.75 0.625-3.75c-3.1e-4 -4.1666-0.83438-8.7498-2.5-13.75l-4.375 1.875-6.25-4.375h-5l-1.875 3.75c-0.41719 0.83281-2.0838 2.5002-5 5-2.917 2.5002-4.3753 5.0002-4.375 7.5-3.1e-4 2.9167 1.6662 5.0002 5 6.25 1.25-6.2498 3.958-9.3748 8.125-9.375 6.2497 1.6e-4 9.1662 7.0834 8.75 21.25l-0.625 10.625c-3.1e-4 9.5834 3.1247 20.208 9.375 31.875l0.625 1.25m-171.88-344.38c-0.83438-0.83281-1.8752-1.8745-3.125-3.125-1.25-1.6662-2.7086-3.5412-4.375-5.625l-2.5-8.75c-0.83281-1.6662-2.0836-2.9162-3.75-3.75-3.3336-0.83281-5.0002-1.8745-5-3.125-1.6e-4 -0.83281 0.20781-1.4578 0.625-1.875l1.875-0.625c0.41719-0.41562 0.625-0.83281 0.625-1.25l-1.25-0.625c-1.25-0.83281-3.9586-1.4578-8.125-1.875-3.7502-0.83281-8.3334-0.625-13.75 0.625-1.25 0.41719-3.9584 1.0422-8.125 1.875 0.83281 0.83438 1.25 1.4594 1.25 1.875-1.6e-4 0.83438-0.625 1.25-1.875 1.25h-5.625c-2.9169-0.41562-6.4584 1.4594-10.625 5.625 4.9998-1.25 9.3748-1.8745 13.125-1.875 9.5831 4.7e-4 14.375 1.0422 14.375 3.125-0.83281 1.25-1.4578 1.8755-1.875 1.875-1.25 4.7e-4 -4.5834-0.625-10-1.875h-2.5c-10.417 4.7e-4 -17.708 2.7088-21.875 8.125 3.3331-1.6662 6.0416-2.4995 8.125-2.5 1.25 4.7e-4 1.8748 0.20938 1.875 0.625-0.83281 0.83438-1.4578 1.25-1.875 1.25l-8.75 4.375c-3.7502 2.0838-5.6252 4.167-5.625 6.25-1.6e-4 0.83438 0.20781 1.25 0.625 1.25 1.6666-0.41562 2.9166-1.4578 3.75-3.125 5.8331-4.583 12.292-6.8745 19.375-6.875 4.1666 4.7e-4 8.3331 1.25 12.5 3.75 4.1666 2.5005 6.6666 3.7505 7.5 3.75l5.625 0.625h1.25l0.625-1.25c0.41719-0.41562 0.83281-0.625 1.25-0.625 0.41719 4.7e-4 2.4998 1.0422 6.25 3.125 4.1664 2.0838 8.1248 3.1255 11.875 3.125 0.83281 4.7e-4 3.5414-1.25 8.125-3.75m-78.125-54.375c7.0831-4.5828 10.625-8.5412 10.625-11.875-1.6e-4 -3.7495-2.0834-5.6245-6.25-5.625-2.5002 4.7e-4 -4.1667 1.6672-5 5 2.4998-0.83281 3.5416-1.25 3.125-1.25 2.4998 4.7e-4 3.7498 1.0422 3.75 3.125-0.41719 0.41719-0.625 1.25-0.625 2.5l-0.625 1.25-5 6.875m175 13.125c1.25-4.1662 1.8747-8.1245 1.875-11.875-3.1e-4 -10.833-5.8336-16.25-17.5-16.25-4.1669 4.7e-4 -6.8753 0.20938-8.125 0.625 0.83281 0.83438 1.25 1.4594 1.25 1.875-3.1e-4 0.83438-0.20938 1.25-0.625 1.25-5.8336 0.83438-10.209 1.6672-13.125 2.5-2.5003 0.41719-3.7503 0.625-3.75 0.625-0.83438-0.41562-1.4578-0.625-1.875-0.625-0.41719-0.41562-0.625-0.625-0.625-0.625h-0.625c-0.41719 4.7e-4 -1.0422 0.41719-1.875 1.25 0.41719 0.41719 0.625 0.83438 0.625 1.25 0.41719 0.41719 1.0422 0.83438 1.875 1.25l3.75 3.75c3.3331 2.9172 7.2914 3.9588 11.875 3.125l0.625-0.625 0.625 0.625c-3.1e-4 1.25-0.83438 2.7088-2.5 4.375 2.9164 1.6672 6.0414 2.5005 9.375 2.5 2.4997 4.7e-4 4.1664-0.625 5-1.875l1.25-3.125c0.83281-2.0828 2.4997-3.1245 5-3.125 4.9997 4.7e-4 7.4997 4.1672 7.5 12.5v0.625m-3.125-6.25c-2.5003 7.9172-8.1253 11.875-16.875 11.875-6.6669 4.7e-4 -12.709-2.4995-18.125-7.5l-15-12.5-28.125-13.75 22.5 13.125c6.6664 3.3338 12.083 8.3338 16.25 15 7.9164 11.667 15.208 17.5 21.875 17.5 8.333 4.7e-4 12.5-1.4578 12.5-4.375l-1.25-0.625v-2.5l4.375-4.375c2.083-2.083 3.1247-4.3745 3.125-6.875-3.1e-4 4.7e-4 -0.41719-1.6662-1.25-5m80 53.125c-3.1e-4 15.417 3.5412 23.125 10.625 23.125 3.7495 3.1e-4 5.6245-1.6662 5.625-5-4.7e-4 -1.25-0.20938-2.083-0.625-2.5-2.0838 2.5003-3.542 3.7503-4.375 3.75-5.8338 3.1e-4 -9.5838-6.458-11.25-19.375m-8.75-6.875c5.833 53.334 28.75 80 68.75 80 6.2495 3.1e-4 15.416-1.8747 27.5-5.625l-0.625-3.75c-16.667 3.3336-26.042 5.0003-28.125 5-4.5838 3.1e-4 -9.5838-1.0422-15-3.125-1.25-0.41562-1.8755-1.25-1.875-2.5 0.41562 3.1e-4 0.83281-0.20781 1.25-0.625l5-3.125c1.25-0.41562 1.8745-1.6662 1.875-3.75-4.7e-4 3.1e-4 -0.20938-0.41562-0.625-1.25-4.7e-4 -0.83281-0.20938-2.083-0.625-3.75l-0.625-1.875c-2.0838 6.2503-6.2505 9.3753-12.5 9.375-20.834 3.1e-4 -34.167-21.041-40-63.125l-4.375-1.875m-271.25 242.5 1.875-1.25-0.625-3.125h-2.5l1.25 4.375m8.75-18.125c-0.83281 0.83281-1.25 1.4578-1.25 1.875-1.6e-4 1.25 0.83281 2.7084 2.5 4.375l2.5-1.875c-2.0834-2.0831-3.3334-3.5416-3.75-4.375m22.5 66.25c-3.7502 1.6e-4 -5.6252 2.2917-5.625 6.875-1.6e-4 4.5834 1.6666 6.8752 5 6.875 3.3331 1.6e-4 4.9998-2.0833 5-6.25-1.6e-4 -4.9998-1.4578-7.4998-4.375-7.5m18.125-56.875c-3.3334 4.5834-5.0002 8.1252-5 10.625-1.6e-4 2.5002 1.0422 5.4169 3.125 8.75 2.0831 3.3334 4.3748 5.0002 6.875 5 0.41719 1.6e-4 1.0422-0.41719 1.875-1.25l0.625-0.625 5-0.625c2.4998 1.6e-4 3.7498-2.0831 3.75-6.25v-1.25c-0.83281-2.0831-1.6669-3.1248-2.5-3.125h-0.625l-0.625 5c-1.6e-4 1.6669-1.4578 2.5002-4.375 2.5-5.0002 1.6e-4 -7.5002-2.9166-7.5-8.75-1.6e-4 -2.4998 0.625-5.6248 1.875-9.375l-2.5-0.625m-14.375 6.875c3.7498 7.5002 5.6248 13.125 5.625 16.875-1.6e-4 9.1669-4.1669 13.75-12.5 13.75-4.5834 1.6e-4 -10-3.7498-16.25-11.25l-1.25 3.125c6.6666 6.6669 12.917 10 18.75 10 9.9998 1.6e-4 15-5.2081 15-15.625-1.6e-4 -1.6666-0.20781-2.7081-0.625-3.125l-6.25-15.625-2.5 1.875m-43.125-21.875c-1.6667 1.6669-2.5002 3.7502-2.5 6.25-1.6e-4 5.4169 3.3333 8.1252 10 8.125l5-0.625v-1.25c-8.3334-0.83281-12.5-2.4998-12.5-5-1.6e-4 1.6e-4 0.41719-1.6666 1.25-5l-1.25-2.5m15-6.25h1.875c0.41719-0.41719 1.0422-0.625 1.875-0.625 0.41719 1.6e-4 0.83281-0.20781 1.25-0.625 2.9166 1.6e-4 4.3748 1.8752 4.375 5.625-1.6e-4 1.6669-0.83281 3.9586-2.5 6.875l2.5 1.25c1.6666-3.3331 2.4998-6.6664 2.5-10-1.6e-4 -4.5831-2.0834-6.8748-6.25-6.875-2.0834 1.6e-4 -3.9584 1.4594-5.625 4.375m21.25 8.75 5 3.75c9.1666-4.9998 18.958-9.5831 29.375-13.75l-3.75-3.75c-11.667 3.7502-21.875 8.3336-30.625 13.75m-23.125-5-0.625 2.5 6.25 0.625 1.25-1.25-6.875-1.875m13.125-90-3.125-8.125-0.625 0.625 3.75 7.5m35 93.125c-22.5 13.333-33.75 26.875-33.75 40.625-1.6e-4 1.25 0.625 2.7084 1.875 4.375 0.41719-4.9998 1.0422-9.1666 1.875-12.5 1.25-3.3331 2.9166-6.4581 5-9.375 2.0831-3.3331 4.9998-6.4581 8.75-9.375 3.7498-2.9166 8.5416-6.4581 14.375-10.625l1.875-3.125m-28.75 13.75-6.25-3.125c-7.0834 5.8334-11.667 10.833-13.75 15-2.9167 6.6669-6.8752 10-11.875 10h-1.875v3.75l1.875 0.625 1.875-1.25 2.5 1.875-3.75 10.625-3.125 22.5 1.25 17.5 1.875-0.625c0.83281 1.6e-4 2.2916 4.3752 4.375 13.125 0.41719 1.6667 1.0422 3.3334 1.875 5 0.83281 1.6667 1.6666 3.5417 2.5 5.625 1.6666-1.6666 3.1248-2.5 4.375-2.5h0.625l3.75 1.25 6.25-0.625h2.5v-3.125c0.41719-2.4998-1.6e-4 -4.1666-1.25-5-1.25-1.25-2.5002-2.2916-3.75-3.125v-1.25c-1.6e-4 -1.25 0.625-1.8748 1.875-1.875l2.5 0.625c0.41719-2.4998 0.20781-4.1666-0.625-5l-3.75-3.75 0.625-1.25-3.125-0.625-5-5.625-5-19.375c-0.41719-0.41719-0.625-1.6666-0.625-3.75-1.6e-4 -13.75 7.7083-28.958 23.125-45.625m4.375-1.875 1.875-1.875-8.75-6.25-1.875 1.25 8.75 6.875m-19.375-41.25c8.7498 2.5002 17.5 4.5836 26.25 6.25 8.7498 1.6669 17.5 2.9169 26.25 3.75-9.5834-2.0831-18.75-4.1664-27.5-6.25-8.3334-2.0831-16.458-4.5831-24.375-7.5l-0.625 3.75m49.375 5c-10.417-7.9164-22.5-20.625-36.25-38.125-5.8334-4.9997-10.625-7.4997-14.375-7.5-4.5834 3.1e-4 -6.8752 2.5003-6.875 7.5-1.6e-4 2.9169 1.25 5.2086 3.75 6.875 0.41719-5.4164 2.9166-8.1247 7.5-8.125 3.3333 3.1e-4 7.4998 3.1253 12.5 9.375 5.4166 6.2503 14.375 15 26.875 26.25l6.875 3.75m-46.25-32.5c-10.833 24.584-16.042 41.875-15.625 51.875v11.25l3.125 0.625v-6.875c-0.41719-15 5.2083-33.958 16.875-56.875h-4.375m123.75-79.375-23.75 10c-16.25 7.0836-24.375 14.584-24.375 22.5-1.6e-4 3.3336 0.625 5.0003 1.875 5h0.625c2.4998 7.9169 7.0831 11.875 13.75 11.875 4.1664 3.1e-4 6.4581-0.83281 6.875-2.5l4.375-9.375c1.25-2.4997 2.9164-3.7497 5-3.75h1.25c-0.41719-1.6664-1.25-2.4997-2.5-2.5-1.25 3.1e-4 -2.7086 0.625-4.375 1.875l-2.5 2.5-3.125 4.375c-0.41719 0.41719-1.25 0.625-2.5 0.625-5.8336 3.1e-4 -8.7502-2.9164-8.75-8.75-1.6e-4 -6.6664 6.4581-13.125 19.375-19.375 2.9164-1.6664 5.8331-3.5414 8.75-5.625 3.3331-2.083 6.6664-4.3747 10-6.875m-83.125 69.375-3.125-0.625c-4.1669 3.1e-4 -6.2502 2.2919-6.25 6.875-1.6e-4 4.5836 4.1666 10.625 12.5 18.125v-2.5c-6.2502-6.6664-9.3752-11.875-9.375-15.625-1.6e-4 -2.9164 2.0831-4.9997 6.25-6.25m-42.5-31.875-3.75 2.5c5.4166 9.5836 9.9998 17.709 13.75 24.375 4.1666 6.2503 7.9166 11.25 11.25 15 3.3331 4.1669 7.7081 8.9586 13.125 14.375 5.8331 5.4169 12.708 11.667 20.625 18.75l4.375-1.25c-23.75-21.666-43.542-46.25-59.375-73.75m16.25 19.375c2.9166-5.8331 4.3748-11.666 4.375-17.5-1.6e-4 -8.333-3.9584-12.5-11.875-12.5-8.3334 3.1e-4 -15.417 4.3753-21.25 13.125-5.8334 8.7503-8.7502 19.167-8.75 31.25-1.6e-4 10 2.9166 19.167 8.75 27.5l2.5-1.875c-6.2502-7.9164-9.3752-16.666-9.375-26.25-1.6e-4 -10.833 2.7083-20.416 8.125-28.75 5.4166-8.333 11.875-12.5 19.375-12.5 6.2498 3.1e-4 9.3748 3.1253 9.375 9.375-1.6e-4 3.7503-1.0422 9.7919-3.125 18.125h1.875m29.375 63.75h-3.125l-18.125 5.625h-1.875c-4.1667 1.6e-4 -6.2502-1.4578-6.25-4.375-1.6e-4 -1.25 0.41719-2.2914 1.25-3.125h-1.875c-2.0834 1.6e-4 -3.1252 0.625-3.125 1.875l-0.625 3.75-1.25 1.25c0.41719 2.9169 3.5416 4.3752 9.375 4.375h3.125c0.83281-0.41562 2.2916-1.0406 4.375-1.875 2.4998-1.25 5.6248-2.7081 9.375-4.375 0.83281-0.41719 1.8748-0.83281 3.125-1.25 1.6666-0.41719 3.5416-1.0422 5.625-1.875m-38.125-76.875c-0.83281-1.25-1.6667-2.4997-2.5-3.75-0.41719-1.25-1.0422-2.7081-1.875-4.375l1.25-0.625 3.75 10.625-0.625-1.875m-24.375-118.12c-1.6667 9.167-2.9167 17.292-3.75 24.375-0.83281 6.667-1.25 12.709-1.25 18.125-1.6e-4 10 2.0833 22.084 6.25 36.25 2.4998 7.5003 3.7498 13.75 3.75 18.75v2.5c-5.8334 3.1e-4 -8.3334 1.0422-7.5 3.125v1.875c1.25-1.25 2.4998-1.8747 3.75-1.875 1.25 3.1e-4 2.9166 0.625 5 1.875l4.375-2.5 0.625-2.5c-1.6e-4 -7.4997-2.9167-18.958-8.75-34.375l-0.625-44.375 4.375-19.375-6.25-1.875m53.75 110c-3.7502 3.1e-4 -5.6252 1.8753-5.625 5.625-1.6e-4 3.3336 1.4578 5.0003 4.375 5 3.7498 3.1e-4 5.6248-1.6664 5.625-5-1.6e-4 -3.7497-1.4578-5.6247-4.375-5.625m49.375-23.125c-28.75 6.2503-43.125 12.709-43.125 19.375l1.25 1.25c1.25 3.1e-4 2.2916-0.41562 3.125-1.25l5-5.625 5.625-3.125 22.5-8.125 5.625-2.5m-88.125 12.5v-5.625c-0.41719-12.916 3.5416-19.375 11.875-19.375 3.3333 3.1e-4 6.4583 2.0836 9.375 6.25 2.0831-0.83281 3.1248-2.083 3.125-3.75-1.6e-4 -1.25-0.625-2.9164-1.875-5l-5.625-5 1.25-3.75-6.875-1.875-6.25 4.375h-2.5l-0.625-1.875-1.25-0.625c-3.7502 3.1e-4 -5.6252 5.2086-5.625 15.625-1.6e-4 5.417 1.4578 12.292 4.375 20.625h0.625m5.625-86.25v-0.625c-1.6e-4 -4.583-1.8752-6.8745-5.625-6.875-5.0002 4.7e-4 -7.9167 4.167-8.75 12.5l-1.875 13.75 3.75-13.75c1.6666-4.1662 4.5833-6.2497 8.75-6.25-1.6e-4 3.1e-4 0.20781 0.20938 0.625 0.625 0.83281 3.1e-4 1.8748 0.20938 3.125 0.625m51.875 67.5c-7.0834-3.333-12.708-6.2497-16.875-8.75-3.7502-2.4997-6.0419-4.1664-6.875-5l-21.25-27.5c-4.5834-6.2497-9.1667-9.3747-13.75-9.375-2.0834 3.1e-4 -3.1252 1.0422-3.125 3.125v1.875c-3.3334 0.41719-5.4167 1.8753-6.25 4.375v1.25c-1.6e-4 3.3338 0.83281 5.0003 2.5 5 0.83281 3.1e-4 1.25-0.20781 1.25-0.625v-3.125c-1.6e-4 -2.083 1.6666-3.1247 5-3.125 4.1666 3.1e-4 9.1666 3.1253 15 9.375l14.375 16.875c5.4166 7.0836 15.417 12.292 30 15.625m183.12-127.5c0.41562-5.4162 3.333-8.7495 8.75-10 11.666-2.4995 17.5-6.0412 17.5-10.625-3.1e-4 -7.9162-5.0003-11.875-15-11.875-5.417 4.7e-4 -9.167 1.0422-11.25 3.125l-5 5.625-7.5 3.75c-0.41719 0.41719-0.625 1.0422-0.625 1.875-3.1e-4 0.83438 1.0406 1.25 3.125 1.25 2.9162 4.7e-4 5.4162-1.25 7.5-3.75l5.625-6.875c0.41562-1.6662 2.9162-2.4995 7.5-2.5h1.25c5.833-0.83281 8.7497 1.8755 8.75 8.125v1.25c-0.83438 3.7505-2.5003 5.6255-5 5.625h-7.5c-2.5003 4.7e-4 -5.0003 1.25-7.5 3.75-2.0838 2.5005-3.1253 4.7922-3.125 6.875-3.1e-4 1.25 0.83281 2.7088 2.5 4.375m-256.25 34.375c-0.41719 0.41719-0.625 1.4594-0.625 3.125-1.6e-4 4.167 3.7498 6.2505 11.25 6.25 1.6666 4.7e-4 2.4998-0.625 2.5-1.875-1.6e-4 -0.41562-2.5002-1.6662-7.5-3.75-2.0834-0.41562-3.9584-1.6662-5.625-3.75m351.88 208.12 4.375 11.25c9.9995 1.6669 18.125 5.8336 24.375 12.5 6.6662 6.2502 9.9995 13.125 10 20.625-4.7e-4 7.9169-3.1255 13.75-9.375 17.5 0.83281 0.41719 2.4995 0.625 5 0.625 7.4995 1.6e-4 11.666-4.1666 12.5-12.5-4.7e-4 -2.4998 0.41562-3.7498 1.25-3.75 0.41562 1.6e-4 1.4578 0.625 3.125 1.875 1.6661 0.83281 2.9161 1.25 3.75 1.25 1.6661 1.6e-4 2.4995-0.83281 2.5-2.5l-0.625-2.5-1.875-8.75c-2.5005-9.9998-7.7088-15.208-15.625-15.625 0.41562-0.41719 1.25-0.625 2.5-0.625 7.0828-0.83281 10.625-1.6664 10.625-2.5-0.41719-0.41719-0.83438-0.83281-1.25-1.25-4.7e-4 -0.41562-0.20938-0.83281-0.625-1.25l-3.75-5c-6.2505-7.4998-16.667-11.25-31.25-11.25-3.7505 1.6e-4 -8.9588 0.625-15.625 1.875m-6.875-14.375 5.625 10.625 8.125-0.625c11.25-0.83281 18.541-1.8748 21.875-3.125 3.3328-1.25 6.6662-4.3748 10-9.375l-2.5-0.625h-1.875c-1.25 1.6e-4 -1.8755-0.41719-1.875-1.25-4.7e-4 -0.41562 0.41562-1.0406 1.25-1.875l1.875-1.25c2.9162-1.25 6.0412-4.9998 9.375-11.25 0.41562-0.41719 0.625-1.25 0.625-2.5-4.7e-4 -0.41719-0.625-0.625-1.875-0.625l-4.375 0.625c-0.41719 3.1e-4 -0.625-0.20781-0.625-0.625v-1.875c0.41562-2.0831 0.625-3.7497 0.625-5 0.41562-1.25 0.625-2.2914 0.625-3.125-4.7e-4 -8.3331-3.5422-12.916-10.625-13.75h-1.25c-1.6672 3.1e-4 -2.9172 0.20938-3.75 0.625 4.9995 3.3336 7.4995 7.2919 7.5 11.875-4.7e-4 14.584-12.917 25.625-38.75 33.125m50-1.875c17.083-5.4164 31.666-19.791 43.75-43.125 6.2495-11.25 11.666-16.875 16.25-16.875-0.83438-3.7497-2.5005-5.6247-5-5.625-3.3339 3.1e-4 -5.8339 2.5003-7.5 7.5-10.417 23.75-26.25 43.125-47.5 58.125m-18.125-46.25c-4.1672-0.83281-6.2505-1.25-6.25-1.25-3.3338 3.1e-4 -5.6255 2.0836-6.875 6.25-0.41719 1.6669-0.83438 2.5003-1.25 2.5-0.83438 3.1e-4 -1.25-0.41719-1.25-1.25l0.625-1.875c-4.7e-4 -0.83281-0.20938-1.25-0.625-1.25-2.5005 3.1e-4 -3.7505 1.8753-3.75 5.625-4.7e-4 2.0836 0.625 4.5836 1.875 7.5 1.6662 2.9169 2.4995 5.0003 2.5 6.25-4.7e-4 5.0003-2.9172 7.5002-8.75 7.5-5.417 1.6e-4 -8.1255-3.1247-8.125-9.375-4.7e-4 -2.4997 0.625-5.6247 1.875-9.375 1.6662-3.7497 2.4995-6.2497 2.5-7.5-4.7e-4 -2.0831-1.4594-4.1664-4.375-6.25-2.5005-2.0831-4.792-3.1247-6.875-3.125-2.0838 3.1e-4 -4.792 1.6669-8.125 5 2.4995-1.25 4.3745-1.8747 5.625-1.875 5.4162 3.1e-4 8.1245 2.7086 8.125 8.125l-0.625 2.5-1.875 6.875c-0.41719 0.41719-0.625 1.8753-0.625 4.375-4.7e-4 10 4.1662 15 12.5 15 3.7495 1.6e-4 6.8745-1.0422 9.375-3.125 2.9162-2.4997 4.3745-3.7497 4.375-3.75 0.83281 3.1e-4 1.4578 0.20938 1.875 0.625 2.0828-3.3331 3.1245-5.6247 3.125-6.875-4.7e-4 -1.25-0.20938-2.0831-0.625-2.5l-2.5-3.75c-0.83438-2.4997-1.25-4.1664-1.25-5-4.7e-4 -5.4164 3.1245-8.7497 9.375-10m69.375-33.125c6.2495-21.666 9.1661-37.916 8.75-48.75l-0.625-26.875c-6.3e-4 -16.666-3.3339-27.5-10-32.5l-3.125-1.875c-0.83438-0.83281-1.25-1.6662-1.25-2.5-4.7e-4 -0.83281 0.41562-1.25 1.25-1.25 0.83281 0.41719 1.4578 0.83438 1.875 1.25 0.41562 0.41719 0.83281 0.83438 1.25 1.25l3.75 3.75 3.125 5c-2.0839-9.583-5.6255-16.458-10.625-20.625-4.5839-4.583-6.8755-7.2912-6.875-8.125-4.7e-4 -0.41562 0.41562-0.625 1.25-0.625-1.25 4.7e-4 1.6661 2.292 8.75 6.875l-3.125-6.875-5-8.75c-2.0839-4.9995-3.1255-10.208-3.125-15.625-4.7e-4 -12.083 3.9578-18.125 11.875-18.125 3.7495 4.7e-4 5.6245 1.6672 5.625 5-4.7e-4 1.25-1.25 3.3338-3.75 6.25-2.5005 2.9172-3.7505 5.4172-3.75 7.5-4.7e-4 5.4172 3.3328 8.7505 10 10-2.9172-4.1662-4.3755-7.7078-4.375-10.625-4.7e-4 -0.83281 1.0406-3.9578 3.125-9.375 1.25-1.6662 1.8744-3.5412 1.875-5.625-6.3e-4 -4.9995-3.3339-7.4995-10-7.5-3.7505 4.7e-4 -6.4589 1.0422-8.125 3.125-1.6672 1.6672-3.1255 3.3338-4.375 5h-2.5c-3.7505 0.83438-5.6255 4.7922-5.625 11.875-4.7e-4 4.5838 1.25 7.7088 3.75 9.375l3.125 2.5c0.41562 0.41719 0.625 1.0422 0.625 1.875-4.7e-4 0.41719-0.20938 0.83438-0.625 1.25-0.83438-0.41562-1.8755-1.0406-3.125-1.875-1.25-1.25-2.9172-1.8745-5-1.875h-1.875l1.25 5 0.625 6.875c-4.7e-4 3.3338 1.4578 5.8338 4.375 7.5l5 3.125c1.25 0.83438 1.8745 1.667 1.875 2.5-0.41719 0.41719-1.0422 0.625-1.875 0.625h-3.125c-0.41719 4.7e-4 -0.625 0.41719-0.625 1.25-4.7e-4 5.417 3.1245 10 9.375 13.75 4.9995 2.917 9.1661 8.3338 12.5 16.25 0.83281 3.3338 1.25 4.792 1.25 4.375-4.7e-4 1.667-0.41719 2.5003-1.25 2.5-1.25 3.1e-4 -2.5005-2.083-3.75-6.25-3.7505-10.416-8.9589-15.625-15.625-15.625-2.5005 4.7e-4 -4.1672 0.41719-5 1.25-4.7e-4 2.5005 1.4578 4.5838 4.375 6.25 2.9161 1.25 4.3745 2.292 4.375 3.125-4.7e-4 4.7e-4 -1.4594 0.625-4.375 1.875-2.9172 1.25-4.3755 3.1253-4.375 5.625 0.41562 1.25 1.6661 2.917 3.75 5 1.25-2.4997 2.9161-3.7497 5-3.75 10.833 3.1e-4 16.25 12.917 16.25 38.75-4.7e-4 12.5-1.8755 25-5.625 37.5 0.83281 1.667 1.25 3.3336 1.25 5 0.41562 1.667 0.83281 3.3336 1.25 5m-110.62 263.75c-5.0005-2.0833-8.3338-3.75-10-5-15-7.9166-22.5-17.917-22.5-30-4.7e-4 -9.1666 3.958-13.75 11.875-13.75 4.9995 1.6e-4 7.4995 2.7084 7.5 8.125v1.875c3.7495-2.9166 5.6245-5.8333 5.625-8.75-4.7e-4 -5.8333-2.0838-8.7498-6.25-8.75l-5 0.625h-3.125c-0.83438 1.6e-4 -1.25-1.0422-1.25-3.125v-0.625c-4.7e-4 -2.4998-0.625-3.7498-1.875-3.75-2.0838 1.6e-4 -5.417 2.9167-10 8.75-2.917 2.9167-4.3753 7.7084-4.375 14.375-3.1e-4 20 13.125 33.333 39.375 40m108.12-33.75c7.0828-15.417 10.624-30.833 10.625-46.25-6.3e-4 -16.667-4.5839-32.083-13.75-46.25-8.7505-14.583-20.209-25-34.375-31.25 2.9161 2.9169 4.3745 5.0002 4.375 6.25l0.625 2.5c-4.7e-4 2.0834 1.6661 4.1669 5 6.25 3.7495 1.6669 6.0411 2.9169 6.875 3.75 2.0828 2.5002 3.9578 4.7919 5.625 6.875 1.6661 2.0834 3.1245 4.1669 4.375 6.25 6.2495 10 9.3745 22.083 9.375 36.25-4.7e-4 8.3334-2.2922 15.833-6.875 22.5-4.1672 6.6667-8.9589 10-14.375 10-6.2505 1.6e-4 -10.209-2.7083-11.875-8.125v-1.875c-4.7e-4 -2.4998 1.4578-4.9998 4.375-7.5l6.25-4.375c2.0828-1.25 3.1245-3.1248 3.125-5.625 0.83281-4.5833-1.25-6.8748-6.25-6.875 0.41562 1.6e-4 -0.625 0.41719-3.125 1.25 1.6661 1.25 2.4995 2.5002 2.5 3.75-4.7e-4 2.5002-1.4594 4.5834-4.375 6.25-5.8339 3.7502-8.7505 8.1252-8.75 13.125-4.7e-4 3.7502 0.83281 6.8752 2.5 9.375 2.0828 2.0834 4.1661 3.7502 6.25 5 2.4995 1.25 4.5828 2.0834 6.25 2.5 1.6661 0.41719 2.4995 0.625 2.5 0.625l-0.625 2.5c-4.7e-4 0.83281 0.83281 1.25 2.5 1.25h7.5c7.9161-0.41719 12.291-4.7916 13.125-13.125-4.7e-4 -4.1666 1.0406-6.2498 3.125-6.25 1.25 1.6e-4 1.8745 1.25 1.875 3.75-4.7e-4 2.0834-0.625 3.9584-1.875 5.625l-6.875 11.25-5.625 8.125 10 2.5m-3.125-247.5 0.625 1.875c2.0828-6.2497 3.1245-10.416 3.125-12.5-4.7e-4 -13.75-6.2505-20.625-18.75-20.625-10.417 3.1e-4 -15.625 5.0003-15.625 15-4.7e-4 4.167 2.4995 7.7086 7.5 10.625-1.6672-2.9164-2.5005-5.4164-2.5-7.5-4.7e-4 -8.7497 4.5828-13.125 13.75-13.125 8.7495 3.1e-4 13.125 5.417 13.125 16.25-4.7e-4 1.25-0.20938 2.7086-0.625 4.375-4.7e-4 1.667-0.20938 3.542-0.625 5.625m-26.875-54.375c3.7495-9.1662 5.6245-16.875 5.625-23.125-4.7e-4 -5.4162-0.83438-10.833-2.5-16.25l-4.375 5.625c0.41562 2.5005 0.625 4.792 0.625 6.875 0.41562 2.0838 0.625 4.167 0.625 6.25-4.7e-4 6.2503-0.83438 11.042-2.5 14.375l2.5 6.25m-28.125-21.875c4.1662 0.83438 6.0412 1.25 5.625 1.25 2.0828 3.1e-4 5.2078-1.25 9.375-3.75 4.1661-2.4995 6.2495-4.583 6.25-6.25-4.7e-4 -0.41562-0.625-1.0406-1.875-1.875-1.25-0.83281-1.8755-1.4578-1.875-1.875-4.7e-4 -0.41562 0.41562-1.0406 1.25-1.875l5-1.875c2.4995-0.83281 4.7911-4.7912 6.875-11.875-6.6672-2.083-11.042-3.5412-13.125-4.375-2.0839-0.83281-3.5422-1.25-4.375-1.25-1.6672 4.7e-4 -3.1255 0.20938-4.375 0.625h-0.625c-0.41719 4.7e-4 -0.83438-0.625-1.25-1.875v-3.125c-1.25-0.41562-3.1255-0.625-5.625-0.625-3.7505 4.7e-4 -7.2922 2.292-10.625 6.875l1.25 1.25c-0.83438 0.83438-1.4594 1.8755-1.875 3.125 0.41562 0.41719 0.83281 0.83438 1.25 1.25 0.41562 4.7e-4 0.83281 0.20938 1.25 0.625-1.6672 1.667-2.7088 2.917-3.125 3.75l1.875-0.625c1.25 4.7e-4 2.2912 0.625 3.125 1.875-4.7e-4 1.25-1.6672 1.8755-5 1.875l-1.875 1.875h3.75l3.125-0.625h0.625c0.83281 4.7e-4 1.25 0.20938 1.25 0.625-4.7e-4 2.5005-2.5005 3.7505-7.5 3.75l-3.125-0.625-1.25 1.25c1.6662 1.25 3.3328 1.8755 5 1.875 2.4995 4.7e-4 5.4162-1.0406 8.75-3.125 3.7495-2.083 6.0412-3.1245 6.875-3.125 0.83281 4.7e-4 1.25 0.41719 1.25 1.25-4.7e-4 0.83438-0.20938 1.4594-0.625 1.875l-3.75 1.875-5.625 3.125-6.25 0.625 1.25 1.875c3.3328-0.41562 5.6245-0.625 6.875-0.625 1.25-0.41562 1.25-0.625 0-0.625 1.25 4.7e-4 1.8745 0.20938 1.875 0.625-4.7e-4 2.0838-1.4594 3.3338-4.375 3.75l0.625 1.25c0.41562-0.41562 1.0406-0.625 1.875-0.625 0.83281 4.7e-4 1.4578 0.83438 1.875 2.5m-21.875-13.125c5.4162-2.9162 8.1245-8.1245 8.125-15.625-4.7e-4 -4.9995-1.25-8.7495-3.75-11.25l-5.625-4.375c-0.83438-0.83281-1.8755-2.083-3.125-3.75-1.25-1.6662-2.9172-3.5412-5-5.625l-3.75 2.5-1.25 2.5c-0.83438 1.25-1.4594 1.8755-1.875 1.875-0.41719 4.7e-4 -1.25-0.41562-2.5-1.25-1.25-1.25-5.0005-2.2912-11.25-3.125-5.8338-0.83281-10.625-3.7495-14.375-8.75-2.917 4.1672-4.3755 8.542-4.375 13.125-4.7e-4 5.417 1.6662 10.417 5 15 0.83281 0.83438 1.25 1.4594 1.25 1.875-0.83438 0.83438-1.4594 1.25-1.875 1.25h-0.625c-1.25 4.7e-4 -2.0838-0.20781-2.5-0.625h-1.875c-1.25 4.7e-4 -1.8755 0.41719-1.875 1.25-4.7e-4 4.5838 2.083 9.5838 6.25 15 5.833 7.0838 11.458 10.625 16.875 10.625-0.41719 4.7e-4 1.0406-0.41562 4.375-1.25-2.917-1.25-4.3755-2.4995-4.375-3.75 0.41562-0.41562 1.0406-0.625 1.875-0.625-0.41719 4.7e-4 1.0406 0.41719 4.375 1.25l1.25-0.625c-2.5005-1.6662-3.7505-3.7495-3.75-6.25-4.7e-4 -0.41562 0.20781-0.625 0.625-0.625 2.083 4.7e-4 3.958 1.4594 5.625 4.375l1.875-1.25-3.75-3.125-3.125-5.625-2.5-2.5-0.625-1.25c-4.7e-4 -1.6662 0.625-2.4995 1.875-2.5 0.83281 4.7e-4 2.083 1.8755 3.75 5.625 2.083 3.3338 5.6245 5.6255 10.625 6.875-0.41719-0.41562-0.625-1.25-0.625-2.5-4.7e-4 -1.25 0.41563-1.8745 1.25-1.875 1.6662 4.7e-4 2.4995 1.4594 2.5 4.375h3.125c-0.41719-0.41562-0.625-1.0406-0.625-1.875-4.7e-4 -0.41562 0.41563-1.0406 1.25-1.875 1.6662 4.7e-4 2.7078 1.4594 3.125 4.375m-28.75 13.75c-6.2505-2.9162-11.667-4.3745-16.25-4.375-5.8338 4.7e-4 -9.792 3.542-11.875 10.625l-1.25 6.25c-4.7e-4 2.0838 0.83281 3.1253 2.5 3.125 0.83281 3.1e-4 1.6662-0.20781 2.5-0.625 1.25-0.41562 2.2912-0.625 3.125-0.625 2.083 3.1e-4 3.1245 0.625 3.125 1.875-4.7e-4 0.41719-2.0838 1.25-6.25 2.5-4.167 1.25-6.2505 4.3753-6.25 9.375-4.7e-4 2.0838 0.20781 3.542 0.625 4.375h14.375c2.4995 3.1e-4 4.3745-0.20781 5.625-0.625 0.83281 1.667 1.4578 2.917 1.875 3.75 0.41563 0.41719 0.625 0.625 0.625 0.625 0.83281 3.1e-4 1.4578-0.20781 1.875-0.625l3.125-3.75 6.25-5.625c1.6662-1.6662 2.708-5.6247 3.125-11.875-1.25 0.41719-2.292 0.83438-3.125 1.25-0.41719 3.1e-4 -0.625 3.1e-4 -0.625 0v-0.625c-4.7e-4 -0.83281 0.625-2.2912 1.875-4.375v-2.5l-4.375 4.375c-4.167 4.167-7.5005 6.2503-10 6.25-0.83437 3.1e-4 -1.25-0.41562-1.25-1.25-4.7e-4 -0.83281 0.41563-1.6662 1.25-2.5l4.375-1.875 6.875-5.625c1.6662-1.6662 2.4995-3.1247 2.5-4.375l-0.625-1.875-3.125 3.125c-1.667 1.667-3.3338 2.5003-5 2.5-1.25 3.1e-4 -1.8755-0.41562-1.875-1.25-4.7e-4 -2.083 2.083-3.958 6.25-5.625m5.625 29.375c-1.667 1.667-2.5005 3.1253-2.5 4.375-4.7e-4 3.3338 1.6662 6.042 5 8.125h3.125l2.5-1.25 7.5 5.625c1.6662-3.333 2.4995-6.458 2.5-9.375v-1.875c-1.6672-1.25-3.7505-3.333-6.25-6.25v1.25c-4.7e-4 2.5003-0.83437 3.7503-2.5 3.75 0.83281 3.1e-4 -0.20937-3.1247-3.125-9.375-0.83437-1.6662-1.4594-2.708-1.875-3.125-1.25 0.83438-1.8755 1.8753-1.875 3.125v0.625l0.625 3.125v0.625c-4.7e-4 1.25-0.20937 2.0838-0.625 2.5-0.41719-0.41562-0.83437-0.625-1.25-0.625-0.41719-0.41562-0.83437-0.83281-1.25-1.25m77.5-97.5c-17.917-12.916-36.459-19.375-55.625-19.375-21.667 4.7e-4 -38.334 4.3755-50 13.125l2.5 2.5c14.166-7.4995 29.375-11.25 45.625-11.25 18.333 4.7e-4 37.5 6.8755 57.5 20.625v-5.625m-106.25 8.75c0.83281-3.3328 1.25-4.9995 1.25-5-4.7e-4 -7.0828-3.3338-10.416-10-10h-0.625c-1.667 0.83438-2.7088 1.4594-3.125 1.875-4.7e-4 4.7e-4 1.4578 1.25 4.375 3.75 3.333 2.0838 4.9995 3.9588 5 5.625l-0.625 1.875 3.75 1.875m-58.75 5.625v1.875c-3.1e-4 9.5838 4.583 14.375 13.75 14.375h2.5l0.625 3.125c9.1662-0.83281 14.583-5.833 16.25-15 0.41563-6.2495 2.083-9.3745 5-9.375 1.6662 4.7e-4 2.4997 0.83438 2.5 2.5-3.1e-4 2.0838-1.4594 4.5838-4.375 7.5-1.25 5.417-3.1253 10-5.625 13.75-2.0838 3.7505-3.1253 6.8755-3.125 9.375-3.1e-4 2.0838 0.625 4.5838 1.875 7.5 1.6662-1.6662 2.9162-2.4995 3.75-2.5 1.25 0.83438 1.8747 1.4594 1.875 1.875l0.625 5.625c0.83281 5.8338 4.9997 8.7505 12.5 8.75 6.2495 4.7e-4 9.7912-1.8745 10.625-5.625v-1.875c-0.83437 0.41719-2.292 1.0422-4.375 1.875-1.667 0.83438-2.917 1.25-3.75 1.25-6.667 4.7e-4 -10-4.1662-10-12.5-3.1e-4 -3.7495 2.9162-11.875 8.75-24.375 2.4995-4.1662 3.7495-7.4995 3.75-10-4.7e-4 -8.3328-4.167-12.5-12.5-12.5-4.5838 4.7e-4 -8.9588 3.3338-13.125 10-5.417 9.167-10.209 13.75-14.375 13.75-3.3338 4.7e-4 -7.7088-3.1245-13.125-9.375m-192.5 7.5c2.9166-1.25 4.3748-2.9162 4.375-5-1.6e-4 -6.6662-4.3752-9.9995-13.125-10-2.0834 4.7e-4 -3.3334 0.20938-3.75 0.625l-2.5 1.25h-0.625c-1.25 4.7e-4 -1.8752-0.83281-1.875-2.5v-2.5c-7.0834 0.83438-10.833 2.7088-11.25 5.625l-2.5 6.25c-0.83281 0.83438-1.6667 2.0838-2.5 3.75-0.83281 1.25-2.0834 2.7088-3.75 4.375-1.6e-4 1.667-1.4578 4.5838-4.375 8.75-0.83281 0.83438-1.6667 1.25-2.5 1.25-1.25 4.7e-4 -1.8752-0.83281-1.875-2.5-1.6e-4 -0.83281 0.625-2.2912 1.875-4.375l3.75-6.25 6.875-8.125c2.0833-3.3328 3.1248-7.9162 3.125-13.75-1.6e-4 -0.83281-0.20781-1.8745-0.625-3.125-1.6e-4 -1.25-0.20781-2.9162-0.625-5-2.0834 2.0838-3.5417 3.1255-4.375 3.125-0.41719-0.41562-1.0422-1.4578-1.875-3.125-2.5002-6.2495-7.0834-9.3745-13.75-9.375-8.7502 4.7e-4 -13.125 4.5838-13.125 13.75-1.6e-4 3.7505 0.83281 6.4588 2.5 8.125l3.125 5c0.41719 0.41719 0.625 1.6672 0.625 3.75-1.6e-4 2.0838-1.0422 3.5422-3.125 4.375 0.41719 1.25 1.0422 1.8755 1.875 1.875 3.3333 4.7e-4 5.4166-2.2912 6.25-6.875v-1.875c-1.6e-4 -1.6662-1.0422-3.9578-3.125-6.875-2.0834-2.9162-3.1252-5.6245-3.125-8.125-1.6e-4 -5.4162 2.7083-8.1245 8.125-8.125 5.8333 4.7e-4 8.7498 3.9588 8.75 11.875-1.6e-4 3.7505-2.2917 9.7922-6.875 18.125-5.8334 9.5838-8.7502 16.875-8.75 21.875-1.6e-4 8.3338 3.5416 12.5 10.625 12.5 6.2498 4.7e-4 11.458-3.958 15.625-11.875 9.5831-15.833 17.5-23.75 23.75-23.75 3.7498 4.7e-4 6.6666 2.292 8.75 6.875m349.38 74.375c-4.5839 0.83438-6.8755 1.8753-6.875 3.125-4.7e-4 3.1e-4 -4.7e-4 0.41719 0 1.25 0.41563 0.83438 0.83281 2.0838 1.25 3.75l5.625-8.125m-360-93.75 4.375 0.625c12.917-5.8328 22.917-8.7495 30-8.75 21.25 4.7e-4 31.875 6.2505 31.875 18.75-1.6e-4 4.167-2.0836 6.2505-6.25 6.25-3.3336 4.7e-4 -5.8336-2.083-7.5-6.25l-4.375-6.875c-2.0836-3.7495-5.6252-5.6245-10.625-5.625-7.0834 4.7e-4 -10.625 2.9172-10.625 8.75-1.6e-4 3.3338 1.6666 5.0005 5 5l-0.625-5c-1.6e-4 -2.9162 2.0831-4.3745 6.25-4.375 4.9998 4.7e-4 8.5414 4.1672 10.625 12.5 2.0831 8.3338 6.8748 12.5 14.375 12.5l1.875-0.625 3.125-1.25c0.41719-0.41562 1.0422-0.625 1.875-0.625-1.6e-4 4.7e-4 0.20781 0.41719 0.625 1.25 0.83281 0.83438 1.6664 2.292 2.5 4.375 3.7498-3.7495 5.6248-7.083 5.625-10-1.6e-4 -1.6662-0.41719-3.7495-1.25-6.25-0.83437-2.4995-1.25-3.7495-1.25-3.75 0.41563-0.41562 1.0406-0.625 1.875-0.625 1.6664 4.7e-4 2.7081 0.20938 3.125 0.625-0.83437-15-13.959-22.5-39.375-22.5-13.333 4.7e-4 -27.083 3.9588-41.25 11.875m-22.5 416.88-1.25 6.25c1.25 1.25 2.7083 3.9584 4.375 8.125 1.6666-1.6666 2.4998-3.125 2.5-4.375l-0.625-4.375c-1.6e-4 -0.83281 0.41719-1.25 1.25-1.25s1.4578 0.20781 1.875 0.625c12.917 8.75 27.5 13.125 43.75 13.125 21.25 0 39.583-4.7917 55-14.375 15.416-10 25.833-23.333 31.25-40 1.6664-3.7498 2.4997-6.4583 2.5-8.125 0.41719-0.41719 2.9164-4.1666 7.5-11.25h-3.125l-2.5 1.25c-0.41719 0.41719-0.83437 0.625-1.25 0.625-1.25-0.41719-1.8753-1.0422-1.875-1.875 0.41563-1.25 1.0406-3.5416 1.875-6.875 0.41563-0.41719-0.41719-5.6248-2.5-15.625-3.1e-4 -0.41719-0.20937-1.25-0.625-2.5-3.1e-4 -1.25-0.20781-2.9166-0.625-5l-0.625-4.375c-3.1e-4 -1.6666-0.20937-2.4998-0.625-2.5-0.83437 1.6e-4 -1.6669 0.41719-2.5 1.25l-1.25 1.875h-0.625c-3.1e-4 1.6e-4 -0.625-0.83281-1.875-2.5-1.25-2.0831-3.3336-5.2081-6.25-9.375-1.6669-2.9166-3.3336-5.6248-5-8.125-1.25-2.9166-2.7086-6.0416-4.375-9.375-8.3336 9.5834-12.5 17.5-12.5 23.75-1.6e-4 2.0834 0.41719 4.5834 1.25 7.5 1.25 2.9167 1.8748 4.7917 1.875 5.625-1.6e-4 0.41719-0.20937 0.625-0.625 0.625-1.6e-4 1.6e-4 -0.625 1.6e-4 -1.875 0-0.83437-0.41719-2.2919-1.0422-4.375-1.875-0.41719 2.0834-0.83437 3.7502-1.25 5-1.6e-4 1.25-1.6e-4 2.0834 0 2.5-1.6e-4 3.3334 4.1664 9.7917 12.5 19.375 5.8331 5.8334 8.7497 10.208 8.75 13.125-3.1e-4 1.6667-0.625 2.5002-1.875 2.5h-1.875c-1.6669-0.41719-2.5002-1.0422-2.5-1.875l-3.75-8.125-8.75-10.625c-5.8336-8.3333-11.667-12.083-17.5-11.25h-3.125c2.0831 3.3334 3.1248 5.2084 3.125 5.625h-0.625c-0.83281 1.6e-4 -2.9169 0.625-6.25 1.875-2.9169 0.83281-7.7086 3.9584-14.375 9.375 2.9164 1.6667 5.6248 4.3752 8.125 8.125 2.4998 3.3334 4.7914 4.7917 6.875 4.375h3.125c0.41563 1.6e-4 0.625 0.41719 0.625 1.25-1.6e-4 0.41719-0.20937 1.25-0.625 2.5-1.6e-4 1.25-0.20937 2.9167-0.625 5 2.0831-0.41719 3.9581-0.625 5.625-0.625 1.6664-0.41719 2.9164-0.625 3.75-0.625 9.9998 0 15 5.4167 15 16.25-1.6e-4 4.1667-1.4578 8.3334-4.375 12.5-2.9169 3.75-6.6669 7.0834-11.25 10-4.5836 2.9167-10 5.4167-16.25 7.5-5.8336 1.6667-11.875 2.5-18.125 2.5-13.75 0-26.042-2.9166-36.875-8.75-2.5002-0.41719-5.0002-1.0422-7.5-1.875-2.5002-0.83281-5.2084-1.6666-8.125-2.5m381.25 3.125c-20 7.0834-37.084 10.625-51.25 10.625-20 0-36.667-5.8333-50-17.5-12.917-12.083-19.375-27.5-19.375-46.25-3.1e-4 -13.333 6.2497-24.167 18.75-32.5l-2.5-0.625c-2.5005 2.0834-4.3755 3.3334-5.625 3.75l-3.75 3.125-1.875 1.25 1.25-3.125 4.375-5-3.75 1.875c-0.41719 0.41719-1.667 1.8752-3.75 4.375-2.0838 2.0834-3.3338 3.1252-3.75 3.125-3.1e-4 -2.0833 1.6662-4.5833 5-7.5 3.333-3.3333 6.6662-4.9998 10-5 7.9162 1.6e-4 12.291 3.7502 13.125 11.25 0.83281 5.8334 2.2912 8.7502 4.375 8.75 0.83281 1.6e-4 1.8745-0.625 3.125-1.875 1.6662-1.6666 2.9162-2.4998 3.75-2.5 0.41563 1.6e-4 1.0406 1.0422 1.875 3.125 0.83281 3.7502 3.1245 6.2502 6.875 7.5 0.83281-1.6666 1.6662-2.9166 2.5-3.75 0.83281-1.25 1.4578-2.2916 1.875-3.125 5.833-7.0833 8.7495-12.5 8.75-16.25-4.7e-4 -4.1666-1.4594-7.4998-4.375-10-1.25-0.41719-1.8755-1.25-1.875-2.5-4.7e-4 -1.25 0.41563-2.2916 1.25-3.125l2.5-3.125 0.625-5.625h-16.875c-8.7505-0.83281-15.209 0.83281-19.375 5 13.75 1.25 20.625 4.3752 20.625 9.375-4.7e-4 0.83281-0.41719 1.25-1.25 1.25-2.917-0.83281-5.6255-2.4998-8.125-5-2.5005-2.4998-5.2088-3.3331-8.125-2.5-6.2505 1.6e-4 -11.459 1.8752-15.625 5.625h5.625c0.41563-0.41719 1.4578-0.625 3.125-0.625 1.6662 1.6e-4 2.4995 0.41719 2.5 1.25-4.7e-4 1.25-1.0422 1.8752-3.125 1.875l-3.75-0.625c-5.8338 1.6e-4 -10.834 3.9584-15 11.875-4.167 7.5002-6.2503 16.875-6.25 28.125-3.1e-4 21.25 7.083 38.333 21.25 51.25 14.583 12.5 34.375 18.75 59.375 18.75 12.916 0 28.333-3.5417 46.25-10.625l0.625-4.375m-14.375-184.38c31.666-25.416 47.5-50.208 47.5-74.375-4.7e-4 -5.833-0.83437-10.208-2.5-13.125l-4.375-6.25c-0.41719-0.83281-1.0422-2.4997-1.875-5-0.41719-2.4997-0.83437-3.7497-1.25-3.75-1.6672 3.1e-4 -3.5422 2.917-5.625 8.75l-0.625 1.875v0.625l1.25 2.5-1.875 0.625-5-0.625h-1.25c-3.3339-0.41562-6.6672 1.0422-10 4.375-2.9172 2.917-4.3755 5.8336-4.375 8.75-4.7e-4 1.25 1.0406 2.917 3.125 5-4.7e-4 -5.833 3.1245-8.7497 9.375-8.75 8.7495 3.1e-4 13.125 5.417 13.125 16.25-4.7e-4 16.667-12.292 36.667-36.875 60l1.25 3.125m-100.62 197.5c-0.41719-0.41719-0.625-1.0422-0.625-1.875 0.41563-0.41719 0.625-0.83281 0.625-1.25 0.41563-0.41719 0.83281-0.83281 1.25-1.25 2.4995-2.9166 3.7495-5.4166 3.75-7.5-4.7e-4 -5-3.7503-8.5416-11.25-10.625-1.25-0.41719-1.8753-0.83281-1.875-1.25-3.1e-4 -1.6666 0.83281-3.3333 2.5-5l-5-3.75c-1.667-1.6666-3.542-2.5-5.625-2.5h-6.875l-1.875 1.875c-0.41719 0.41719-1.0422 0.625-1.875 0.625-0.41719 0-0.625-0.625-0.625-1.875-3.1e-4 -1.25 0.625-3.125 1.875-5.625-3.3338-1.25-5.6253-1.875-6.875-1.875-3.3338 0-7.917 2.9167-13.75 8.75-2.0838 2.0834-3.7503 3.125-5 3.125-2.917 0-4.3753-1.4578-4.375-4.375-3.1e-4 -0.83281 1.0406-2.2916 3.125-4.375 6.6662-4.1666 9.9997-9.375 10-15.625l-0.625-3.125-1.25-5c-0.83437-2.4998-1.4594-3.7498-1.875-3.75-1.25 1.6e-4 -2.7088 1.0422-4.375 3.125-1.667 2.0834-2.917 3.1252-3.75 3.125-1.25 1.6e-4 -1.8753-0.83281-1.875-2.5 0.41719-0.41719 0.625-1.6666 0.625-3.75v-2.5c0.41563-1.6666-0.83437-5.4166-3.75-11.25l-3.75-8.75-5-6.25-5 6.25-3.75 6.875c-2.917 4.1667-4.3753 6.8752-4.375 8.125l-0.625 8.125c-0.83437 5.0002-1.667 7.5002-2.5 7.5-1.25 1.6e-4 -2.0836-0.83281-2.5-2.5l-0.625-3.125-1.875-1.875c-0.83281-0.83281-2.292-2.0833-4.375-3.75-3.3336 7.9167-5.0003 12.708-5 14.375-3.1e-4 3.3334 1.0406 6.6667 3.125 10l4.375 5.625c1.25 2.0834 1.8747 3.5417 1.875 4.375-3.1e-4 2.9167-1.667 4.375-5 4.375-1.667 0-3.3336-1.4578-5-4.375-5.0003-5.8333-10.625-8.75-16.875-8.75-2.0836 0-4.5836 0.625-7.5 1.875l5.625 9.375c-3.1e-4 1.25-1.0422 1.875-3.125 1.875h-5.625c-3.7503 0-8.3336 2.5-13.75 7.5 1.6664 0.41719 2.4997 1.4578 2.5 3.125-3.1e-4 0.41719-1.25 1.875-3.75 4.375-2.5003 2.5-3.7503 5-3.75 7.5-3.1e-4 2.0834 1.6664 4.7917 5 8.125 1.25-9.5833 10.833-14.167 28.75-13.75h13.125c1.6664 0 3.333 0.20781 5 0.625 15.833 0 23.541-7.5 23.125-22.5v-2.5c-3.1e-4 -1.25 0.41719-1.875 1.25-1.875 1.6664 0 2.4997 1.4578 2.5 4.375v1.25l-0.625 6.25c-0.41719 1.25-0.625 3.125-0.625 5.625-3.1e-4 5.4167 11.041 8.125 33.125 8.125h11.25c2.4997 0 5.4162-0.20781 8.75-0.625h1.875c6.6662 0 9.9997 2.0834 10 6.25-3.1e-4 1.25-0.41719 2.7084-1.25 4.375-0.41719 1.25-0.625 2.0833-0.625 2.5-3.1e-4 1.6667 1.4578 2.5 4.375 2.5l0.625-0.625m46.25-295c-4.5838 4.5836-6.8755 10.417-6.875 17.5l0.625 1.875 1.25 3.125 0.625 1.875c-4.7e-4 0.41719-0.20937 0.625-0.625 0.625h-6.25c5.833 12.084 12.916 17.917 21.25 17.5h5.625c1.25-0.41719 1.8745-0.20781 1.875 0.625-4.7e-4 0.41719-0.41719 1.25-1.25 2.5-0.41719 1.25-0.625 2.0836-0.625 2.5 0.83281 0.83281 1.4578 1.25 1.875 1.25 0.83281 3.1e-4 2.4995-0.625 5-1.875l15-10.625c9.1662-6.2497 13.75-20.208 13.75-41.875-4.7e-4 -3.7497-0.83437-7.9164-2.5-12.5-1.25-4.9997-1.8755-8.1247-1.875-9.375-4.7e-4 -1.6662 0.41563-2.4997 1.25-2.5 1.6662 3.1e-4 2.9162 1.8753 3.75 5.625l1.875 9.375c0.83281 4.167 1.25 7.5003 1.25 10-4.7e-4 8.7503-1.0422 16.25-3.125 22.5l-5 11.25-0.625 3.75-1.25 2.5c-4.7e-4 1.25 0.41563 1.8753 1.25 1.875l1.875 0.625 1.875 3.75c0.41563 1.6669 2.0828 2.5003 5 2.5 1.6662 3.1e-4 2.4995-0.625 2.5-1.875-4.7e-4 -0.83281-0.20937-1.4578-0.625-1.875l-2.5-1.875c-0.83437-0.83281-1.25-2.4997-1.25-5-4.7e-4 -3.333 0.83281-6.458 2.5-9.375 4.9995-10.416 7.4995-22.083 7.5-35-4.7e-4 -22.5-6.8755-41.25-20.625-56.25-9.5838-9.9995-17.5-15-23.75-15-10 4.7e-4 -15 5.0005-15 15-4.7e-4 5.417 4.1662 12.292 12.5 20.625 18.333 17.5 27.5 33.125 27.5 46.875-4.7e-4 9.167-2.5005 17.084-7.5 23.75-5.0005 6.2503-11.25 9.3753-18.75 9.375-11.667 3.1e-4 -17.5-4.7914-17.5-14.375-4.7e-4 -8.333 3.333-12.5 10-12.5h0.625c-1.25 3.1e-4 -0.20937 0.41719 3.125 1.25h2.5c0.41563 3.1e-4 0.625-0.20781 0.625-0.625-4.7e-4 -3.333-2.5005-4.9997-7.5-5-2.0838 3.1e-4 -3.3338 0.20938-3.75 0.625l-3.125 3.125c-0.41719-1.25-0.83437-2.2914-1.25-3.125-0.41719-1.25-0.83437-2.2914-1.25-3.125m-103.75 211.88c4.583-18.75 11.875-33.542 21.875-44.375 10.416-11.25 25.833-21.458 46.25-30.625l-8.125-15.625c-20 12.084-34.375 23.333-43.125 33.75-8.7503 10-16.042 25.417-21.875 46.25 2.4997 2.5002 4.1664 6.0417 5 10.625m-15.625-13.75v-4.375c0.41563-7.9166-7.0836-22.708-22.5-44.375-7.5003-10.417-11.25-17.5-11.25-21.25-3.1e-4 -4.9998 2.7081-7.7081 8.125-8.125 2.083 1.6e-4 3.333-0.20781 3.75-0.625-3.1e-4 -2.4998-1.667-4.3748-5-5.625-0.41719-0.41719-1.6669-0.625-3.75-0.625-3.3336 1.6e-4 -6.0419 1.0422-8.125 3.125-2.0836 2.0836-2.9169 3.1252-2.5 3.125-0.83437-0.41719-1.6669-0.83281-2.5-1.25-0.41719-0.41562-1.0422-0.83281-1.875-1.25-0.41719 1.6e-4 -0.83437-0.20781-1.25-0.625-1.6669 1.6e-4 -2.5003 2.0836-2.5 6.25-3.1e-4 3.7502 4.5831 10.209 13.75 19.375 15.416 17.083 27.291 35.833 35.625 56.25m-175-341.25c1.25 0.83438 1.8748 1.8755 1.875 3.125 16.667-9.1662 32.5-13.75 47.5-13.75 20.416 4.7e-4 39.791 9.1672 58.125 27.5-2.5003-5.4162-3.7503-7.9162-3.75-7.5v-1.25l3.125 1.25 3.75 3.75c6.6664 7.917 9.9997 15 10 21.25-3.1e-4 6.667-1.6669 11.667-5 15-5.0003 5.8338-7.7086 9.167-8.125 10-0.41719 0.41719-1.6669 0.625-3.75 0.625-1.25 4.7e-4 -1.8753-0.41562-1.875-1.25-3.1e-4 -1.25 1.6664-2.9162 5-5 7.0831-3.7495 10.625-9.7912 10.625-18.125-3.1e-4 -3.333-0.20937-5.6245-0.625-6.875-0.83281 6.2505-2.5003 9.3755-5 9.375-0.41719-0.41562-0.625-0.83281-0.625-1.25l0.625-1.875 2.5-6.875c0.41563-0.41562 0.625-1.25 0.625-2.5-3.1e-4 -3.333-2.0836-7.083-6.25-11.25 0.41719 2.0838 0.625 3.7505 0.625 5 0.41563 1.25 0.625 2.0838 0.625 2.5-3.1e-4 11.667-3.7503 17.709-11.25 18.125l-9.375 1.25c-2.0836 4.7e-4 -5.2086 1.0422-9.375 3.125-3.7502 1.667-5.6252 3.3338-5.625 5-1.6e-4 0.41719 0.83281 1.0422 2.5 1.875 1.6664 0.41719 2.4998 1.0422 2.5 1.875-1.6e-4 0.41719-1.4578 1.4594-4.375 3.125-5.0002 2.917-7.7086 6.8755-8.125 11.875v3.125c-0.41719 0.41719-0.625 0.83438-0.625 1.25-1.6e-4 0.83438-0.20937 1.4594-0.625 1.875 1.25-0.41562 3.5414-0.625 6.875-0.625h3.125l4.375 1.25 11.25 1.25 3.125-1.25 1.875-0.625c1.25 3.1e-4 1.8747 0.83438 1.875 2.5-3.1e-4 1.25-0.625 2.7088-1.875 4.375h3.75c6.2497 0.41719 12.083-3.333 17.5-11.25 2.0831-3.7495 3.3331-6.0412 3.75-6.875l1.875-5c0.83281-2.083 1.6664-3.1245 2.5-3.125 1.6664 4.7e-4 2.4997 1.4594 2.5 4.375-3.1e-4 3.7505-2.5003 12.084-7.5 25 4.1664-3.333 7.2914-8.1247 9.375-14.375 0.41563-1.25 0.83281-1.8745 1.25-1.875 0.41719 0.41719 0.625 1.0422 0.625 1.875-3.1e-4 5.8338-2.5003 11.042-7.5 15.625-4.5836 4.167-10 6.2503-16.25 6.25-4.5836 3.1e-4 -8.7503-0.625-12.5-1.875l-8.125-3.125-8.75-0.625-6.25 1.25-2.5 1.25-1.875 1.875c-1.6e-4 0.83438 0.20781 1.4594 0.625 1.875l1.875 1.25 0.625 0.625c-1.6e-4 1.25-1.0422 1.8753-3.125 1.875-2.0836 3.1e-4 -5.0002-0.20781-8.75-0.625-3.7502-0.83281-6.4586-1.25-8.125-1.25-3.3336 3.1e-4 -7.2919 1.667-11.875 5 2.9166 1.667 5.4164 4.3753 7.5 8.125 4.5831 7.0838 9.5831 11.25 15 12.5 1.6664 3.1e-4 2.4998 0.20938 2.5 0.625-1.6e-4 -0.41562-0.41719 0.625-1.25 3.125l-2.5 3.75c-0.41719 0.41719-0.625 1.0422-0.625 1.875-1.6e-4 2.0836 1.6664 3.1253 5 3.125h8.75l6.25 0.625c1.6664 3.1e-4 4.9998-1.0406 10-3.125 3.3331-0.83281 4.9997-1.25 5-1.25 1.25 3.1e-4 2.0831 0.20938 2.5 0.625-3.1e-4 2.0836-2.5003 3.9586-7.5 5.625-12.084 3.7503-21.042 5.6253-26.875 5.625-11.667 3.1e-4 -22.708-3.333-33.125-10 1.6666 3.7503 4.5831 6.667 8.75 8.75 1.6666 1.25 2.4998 2.0836 2.5 2.5-1.6e-4 0.41719-0.41719 0.625-1.25 0.625-2.0834 3.1e-4 -4.1669-1.0422-6.25-3.125-6.2502-5.4164-9.3752-9.9997-9.375-13.75-1.6e-4 -2.083 0.83281-5.4162 2.5-10 2.0831-4.583 3.1248-7.708 3.125-9.375-1.6e-4 -2.083-0.20781-3.5412-0.625-4.375-2.5002 3.1e-4 -3.7502-0.83281-3.75-2.5-1.6e-4 -1.25 0.625-2.9162 1.875-5 1.6666-2.083 2.4998-3.7497 2.5-5l-0.625-6.875c-1.6e-4 -3.333 1.25-9.3747 3.75-18.125-10.833 0.83438-18.333 3.542-22.5 8.125-2.0834 2.0838-3.3334 3.1253-3.75 3.125-1.6669 3.1e-4 -2.5002-1.0406-2.5-3.125l0.625-2.5h-3.125c-5.0002 1.25-7.5002 6.4588-7.5 15.625-1.6e-4 2.5003 0.625 5.6253 1.875 9.375 1.6666 3.3338 2.4998 5.8338 2.5 7.5-1.6e-4 2.5003-1.0422 3.7503-3.125 3.75-4.1669 3.1e-4 -6.2502-4.9997-6.25-15-1.6e-4 -13.333 7.4998-26.666 22.5-40-0.41719-0.41562-1.4578-0.625-3.125-0.625-4.1669 4.7e-4 -8.3334 3.7505-12.5 11.25-2.0834 3.3338-3.7502 5.0005-5 5-0.41719 4.7e-4 -0.625-0.625-0.625-1.875-1.6e-4 -1.6662 1.0422-3.5412 3.125-5.625-7.9167 2.5005-11.875 10.209-11.875 23.125-1.6e-4 7.0838 2.4998 15.209 7.5 24.375 2.9166 5.8338 5.4166 9.5838 7.5 11.25l12.5 11.875-2.5-8.75c-0.41719-1.25-0.625-4.3747-0.625-9.375-1.6e-4 -13.75 1.8748-20.625 5.625-20.625 0.41719 0.41719 0.625 1.25 0.625 2.5v2.5l-2.5 8.125c-0.41719 0.83438-0.625 2.7088-0.625 5.625-1.6e-4 7.5003 2.2916 15.417 6.875 23.75l6.25 5.625-5-8.125-1.25-8.75c-1.6e-4 -2.4997 0.625-3.7497 1.875-3.75-1.6e-4 3.1e-4 -1.6e-4 0.41719 0 1.25 0.41719 0.41719 0.83281 1.25 1.25 2.5 1.6666 16.25 13.75 24.375 36.25 24.375 30 3.1e-4 52.5-14.791 67.5-44.375-3.3336 2.5003-5.8336 4.3753-7.5 5.625-5.0003 3.3338-8.9586 5.2088-11.875 5.625l-18.125 1.25c-2.9169 3.1e-4 -4.3752-0.83281-4.375-2.5-1.6e-4 -1.25 1.8748-1.8747 5.625-1.875h5c16.666 0.41719 29.791-7.9162 39.375-25 1.6664-6.2497 2.4997-12.291 2.5-18.125-3.1e-4 -23.333-7.9169-42.916-23.75-58.75-15.834-15.833-35.834-23.75-60-23.75-17.917 4.7e-4 -34.583 5.0005-50 15m167.5 353.12c0.83281-1.6666 1.6664-3.1248 2.5-4.375 0.83281-1.25 1.6664-2.2916 2.5-3.125-3.3336-9.9998-6.8753-18.542-10.625-25.625-3.7503-7.4998-8.3336-14.167-13.75-20-5.0003-6.2498-11.25-11.667-18.75-16.25-7.0836-4.9998-15.625-9.9998-25.625-15-45.834-22.5-68.75-41.041-68.75-55.625-1.6e-4 -4.1664 1.0422-7.7081 3.125-10.625 2.4998-2.9164 4.3748-4.3747 5.625-4.375 0.41719 3.1e-4 0.625 0.41719 0.625 1.25l-1.25 1.25c1.6664 0.41719 2.4998 1.0422 2.5 1.875-1.6e-4 -0.41562-1.25 3.1e-4 -3.75 1.25-2.0834 1.25-3.3334 2.2919-3.75 3.125l0.625 1.25c2.4998-0.83281 3.5416-1.25 3.125-1.25 1.6664 3.1e-4 4.7914 1.8753 9.375 5.625 1.6664 1.6669 3.1248 2.5003 4.375 2.5 0.83281 3.1e-4 2.9164-1.0406 6.25-3.125-0.41719-0.83281-0.83437-1.4578-1.25-1.875-0.41719-0.83281-0.83437-1.6664-1.25-2.5-1.6e-4 -0.41562 0.20781-0.83281 0.625-1.25l3.125-1.25c2.0831-1.25 3.1248-3.5414 3.125-6.875-1.6e-4 -2.9164-0.83281-4.3747-2.5-4.375-0.41719 3.1e-4 -1.25 0.41719-2.5 1.25s-2.7086 1.25-4.375 1.25h-1.25l-11.875-1.25c-10.417-0.41719-15.625 6.8753-15.625 21.875-3.3334-0.83281-5.0002-1.25-5-1.25h-2.5l-1.875 1.875c0.41719 0.83281 0.83281 2.0836 1.25 3.75 0.41719 1.25 0.83281 2.9169 1.25 5 1.6666 12.917 8.7498 21.042 21.25 24.375 5.8331 1.25 8.7498 3.5419 8.75 6.875-1.6e-4 2.5002-1.0422 3.7502-3.125 3.75-1.25 1.6e-4 -2.9169-1.0406-5-3.125-2.0834-2.0831-4.1669-3.1248-6.25-3.125-0.83281 1.6e-4 -5.2084 1.6669-13.125 5l1.875 2.5 3.125 2.5c0.83281 0.83438 1.25 1.4578 1.25 1.875-1.6e-4 0.83438-0.625 1.4578-1.875 1.875l-3.125 1.25c-0.83281 0.83438-4.5834 5.8336-11.25 15 7.0831 2.9169 12.5 4.3752 16.25 4.375 1.6666 1.6e-4 3.7498-0.41719 6.25-1.25 2.4998-1.25 4.1666-1.8748 5-1.875 1.6664 1.6e-4 2.4998 0.83281 2.5 2.5-1.6e-4 1.6669-0.20937 2.7084-0.625 3.125l4.375 0.625c2.0831 1.6e-4 5.8331-1.4578 11.25-4.375l16.25-8.125c2.9164-1.6664 6.0414-2.4998 9.375-2.5 2.0831 1.6e-4 3.1248 0.625 3.125 1.875-1.6e-4 1.6669-2.0836 3.1252-6.25 4.375l-8.75 2.5c-10.834 3.3334-16.875 10.208-18.125 20.625l4.375 0.625c0.83281 12.083 4.9998 18.125 12.5 18.125 2.9164 1.6e-4 5.8331-1.4578 8.75-4.375-6.2502-1.6666-9.3752-5.2081-9.375-10.625-1.6e-4 -12.083 9.3748-18.125 28.125-18.125 15 1.6e-4 28.75 5.6252 41.25 16.875 12.916 11.25 22.083 25.833 27.5 43.75m-105-111.88 16.25 8.75c4.5831-3.3331 8.9581-4.9998 13.125-5h143.12c8.333 1.6e-4 14.166 3.5419 17.5 10.625l24.375 53.75 5-1.25 7.5 0.625 6.875-0.625 4.375-0.625 1.875-0.625c2.4995 1.6e-4 3.7495 2.0834 3.75 6.25-4.7e-4 4.1669-1.25 8.1252-3.75 11.875 3.7495 4.5834 5.6245 9.3752 5.625 14.375-4.7e-4 5.0002-3.1255 11.25-9.375 18.75 3.7495 7.0834 5.6245 14.792 5.625 23.125-4.7e-4 7.9167-8.3338 13.333-25 16.25l-7.5 1.25c-3.3338 0.83281-5.0005 1.875-5 3.125-4.7e-4 1.6667 2.083 2.5 6.25 2.5l16.25 0.625h6.25c2.9162-0.41719 6.458-0.83281 10.625-1.25 5.8328-0.41719 11.041-0.625 15.625-0.625 4.5828-0.41719 8.3328-0.625 11.25-0.625l13.75 0.625 32.5 1.875h10.625c7.9161 0.41719 11.875-0.41719 11.875-2.5-4.7e-4 -2.9166-6.2505-5-18.75-6.25-19.584-2.0833-34.167-13.75-43.75-35l-155.62-340c-3.3336-6.2495-6.042-9.3745-8.125-9.375-2.5003 4.7e-4 -5.2086 3.3338-8.125 10l-105 219.38m-24.375 53.75-26.875 59.375c-6.2502 13.75-12.708 23.542-19.375 29.375-6.2502 5.8334-15.833 10.625-28.75 14.375l-5.625 1.875c-2.5002 0.83281-3.7502 1.6667-3.75 2.5-1.6e-4 2.0834 3.3333 3.125 10 3.125 2.4998 0 8.5416-0.625 18.125-1.875 6.2498-0.83281 11.875-1.25 16.875-1.25 4.9998-0.41719 9.3748-0.41719 13.125 0h13.125l30 2.5c4.1664 0 9.1664-1.25 15-3.75-1.6669-0.83281-3.7502-1.6666-6.25-2.5-2.5002-0.83281-5.8336-1.4578-10-1.875-19.167-1.25-28.75-8.9583-28.75-23.125-1.6e-4 -9.1666 8.5416-29.792 25.625-61.875-0.41719-2.0831-0.83281-3.7498-1.25-5-1.6e-4 -1.25-1.6e-4 -2.0831 0-2.5-1.6e-4 -1.6666 0.83281-3.9581 2.5-6.875l-2.5-0.625-3.125 0.625-0.625 0.625c-1.6e-4 1.6e-4 -2.5002-1.0422-7.5-3.125m208.12-43.125c-2.5003-2.4998-5.6253-3.7498-9.375-3.75h-141.88c-5.0002 1.6e-4 -8.9586 1.25-11.875 3.75l2.5 1.25 2.5-1.25h158.12m115 132.5c-2.0839-3.3333-4.1672-6.6666-6.25-10-2.0838-3.7498-4.1672-7.7083-6.25-11.875l-159.38-346.25-6.875-2.5c2.083 2.9172 3.333 5.0005 3.75 6.25 0.83281 1.25 2.2914 4.3755 4.375 9.375l151.88 330c5.4162 12.083 11.666 20.417 18.75 25m-305.62-66.25-0.625-3.75-0.625-1.875-3.125 3.75-15.625 32.5c-5.0002 10.833-7.5002 18.958-7.5 24.375-1.6e-4 4.1667 2.4998 8.9584 7.5 14.375-1.6669-4.5833-2.5002-8.9583-2.5-13.125-1.6e-4 -4.1666 1.0422-8.9583 3.125-14.375l19.375-41.875m348.75 86.875c-5.8339 2.5-10.209 3.75-13.125 3.75h-5c-2.0839-0.41719-4.7922-0.83281-8.125-1.25-1.25-0.41719-6.6672-0.625-16.25-0.625l-35.625-0.625h-16.25c-2.0838 0-4.7922 0.20781-8.125 0.625-4.167 0.41719-7.917 0.83281-11.25 1.25h-8.75c-5.417 0-10.209-0.625-14.375-1.875 1.6662 3.75 4.9995 5.625 10 5.625h8.75c1.6662 0 3.333-0.20781 5-0.625 18.75-1.25 31.458-1.875 38.125-1.875h15c2.9162 0 6.4578 0.20781 10.625 0.625l23.125 1.25c2.0828 0.41719 3.9578 0.625 5.625 0.625h8.75c7.0828 0 11.041-1.25 11.875-3.75l0.625-0.625-0.625-2.5m-332.5-1.875c-2.9169 2.9167-8.9586 4.375-18.125 4.375h-10.625c-4.1669-0.41719-8.7502-0.625-13.75-0.625-4.5834-0.41719-9.1669-0.625-13.75-0.625-4.1669-0.41719-7.5002-0.625-10-0.625h-8.125c-3.3334 0-5.6252 0.20781-6.875 0.625l-20 1.875h-11.25c-1.6667-0.41719-3.9584-0.83281-6.875-1.25 2.0833 3.3334 6.6666 5 13.75 5h7.5l8.125-1.25c0.83281-0.41719 2.9166-0.625 6.25-0.625h5.625c2.0831 0 4.1666-0.20781 6.25-0.625h18.75l19.375 1.875 13.75 0.625 6.875-0.625 8.75-1.25c4.1664-0.41719 6.2498-1.875 6.25-4.375-1.6e-4 -0.83281-0.625-1.6666-1.875-2.5m333.12-311.25c1.6661 3.7503 1.8745 5.6253 0.625 5.625-0.41719-0.41562-0.83437-0.83281-1.25-1.25-4.7e-4 -0.41562-0.20937-0.83281-0.625-1.25 0.83281 2.5003 1.25 1.4594 1.25-3.125-4.7e-4 1.25-0.41719 1.8753-1.25 1.875-0.83437 3.1e-4 -1.4594-0.83281-1.875-2.5-0.83437-1.6662-0.83437-2.9162 0-3.75 2.0828-1.25 3.1245 0.20938 3.125 4.375m-51.875-29.375c-0.83437 2.0838-1.0422 3.542-0.625 4.375-0.41719 4.7e-4 -0.83437 0.20938-1.25 0.625h-6.875c1.6662-0.83281 3.1245-1.6662 4.375-2.5 1.25-0.83281 2.7078-1.6662 4.375-2.5m-13.75 47.5-7.5-8.75-6.25-10-5.625-7.5-3.75-6.875c10.416 9.167 18.125 20.209 23.125 33.125m-13.75-34.375c-5.4172-2.083-10-3.1247-13.75-3.125-2.9172 3.1e-4 -5.8338 0.625-8.75 1.875 1.6662-5.4162 4.5828-8.1245 8.75-8.125 4.5828 4.7e-4 9.1662 3.1255 13.75 9.375m-78.125-41.875c0.41563-4.9995 1.6662-7.4995 3.75-7.5 0.41563 4.7e-4 0.625 0.41719 0.625 1.25-4.7e-4 2.5005-2.7088 8.3338-8.125 17.5v-3.75c-3.1e-4 -1.6662 1.25-4.1662 3.75-7.5m5-20.625c-0.83437-0.41562-0.20937-1.6662 1.875-3.75-4.7e-4 4.7e-4 -0.83437 4.7e-4 -2.5 0-1.667-0.41562-4.167-0.83281-7.5-1.25 0.83281-0.41562 2.4997-0.625 5-0.625 1.25 4.7e-4 2.2912 1.8755 3.125 5.625m-16.875 10c-3.1e-4 2.5005 1.25 4.3755 3.75 5.625-0.41719 0.41719-3.9588 1.25-10.625 2.5 1.25-1.25 2.4997-2.4995 3.75-3.75 1.25-1.25 2.2912-2.708 3.125-4.375m-111.25 11.875c-3.1e-4 1.25 0.83281 3.9588 2.5 8.125 1.6664 4.167 2.4997 6.667 2.5 7.5-3.1e-4 1.667-0.625 2.5005-1.875 2.5-3.7503 4.7e-4 -5.6253-0.83281-5.625-2.5-3.1e-4 -1.6662 0.20781-2.9162 0.625-3.75l0.625-5c0.41563-0.41562 0.625-1.4578 0.625-3.125-3.1e-4 -1.6662 0.20781-2.9162 0.625-3.75m-50.625 31.875c1.25-0.41562 2.9164-0.625 5-0.625 2.9164 4.7e-4 6.0414 0.83438 9.375 2.5-1.25 0.41719-3.3336 0.625-6.25 0.625-2.5002 4.7e-4 -5.2086-0.83281-8.125-2.5m-16.875-13.125c-0.83438 0.41719-2.7086 0.625-5.625 0.625-2.5002 4.7e-4 -4.5836-1.8745-6.25-5.625 2.9164 0.41719 4.9998 0.83438 6.25 1.25 1.6664 4.7e-4 2.4998 4.7e-4 2.5 0 0.41562 0.41719 0.83281 1.0422 1.25 1.875 0.41719 0.41719 1.0406 1.0422 1.875 1.875m266.25-13.125c-3.3338-1.6662-7.0838-5.208-11.25-10.625 2.4995 1.25 4.9995 2.7088 7.5 4.375 2.4995 1.667 3.7495 3.7505 3.75 6.25m-53.125 30c-0.41719 0.41719-1.0422 1.4594-1.875 3.125-0.41719 1.25-1.4594 3.1253-3.125 5.625-0.41719-0.83281-0.625-2.2912-0.625-4.375-4.7e-4 -1.6662 1.8745-3.1247 5.625-4.375m-300-25c-1.6667 0.83438-2.9167 1.4594-3.75 1.875l-0.625 0.625c-3.3334 4.7e-4 -5.2084-2.4995-5.625-7.5 3.3333 2.0838 6.6666 3.7505 10 5m133.75 50.625c-0.83438 0.83438-1.25 1.4594-1.25 1.875 0.41562 0.41719 0.625 0.83438 0.625 1.25h-5.625c-1.6669 3.1e-4 -3.9586-1.8747-6.875-5.625 3.3331 1.667 7.7081 2.5003 13.125 2.5m19.375-6.25c0.41562 0.83438 0.625 2.917 0.625 6.25-3.1e-4 0.83438-3.1253 1.4594-9.375 1.875 3.3331-3.7497 6.2497-6.458 8.75-8.125m-38.75 34.375c-3.7502 3.7503-6.6669 5.6253-8.75 5.625-0.41719 3.1e-4 -3.1252-1.0406-8.125-3.125 4.5831-1.6664 10.208-2.4997 16.875-2.5m-18.125-10.625h-5.625c-4.5836-0.83281-6.8752-3.1247-6.875-6.875l0.625-2.5c1.25 0.83438 2.7081 2.0838 4.375 3.75 2.0831 1.667 4.5831 3.542 7.5 5.625m43.75 1.875c-3.1e-4 3.7503-0.20938 6.2503-0.625 7.5-3.1e-4 3.1e-4 -1.0422 0.41719-3.125 1.25-1.6669 0.41719-4.1669 1.25-7.5 2.5 2.4997-4.1664 6.2497-7.9162 11.25-11.25m-85-43.75c1.25 3.3338 1.8748 5.417 1.875 6.25-1.6e-4 3.3338-1.6e-4 5.417 0 6.25 0.41719 0.83438 0.83281 1.0422 1.25 0.625 0.41719-0.41562 0.625-1.0406 0.625-1.875 0.41719-1.25 0.625-2.2912 0.625-3.125-1.6e-4 -4.1662-1.6669-2.2912-5 5.625-0.41719-1.6662-0.83281-2.9162-1.25-3.75-1.6e-4 -0.83281-1.6e-4 -1.6662 0-2.5-1.6e-4 -1.6662 0.625-4.1662 1.875-7.5m-16.875 50c-3.7502-2.4997-7.2919-6.0412-10.625-10.625 7.0831 4.5838 10.625 8.1253 10.625 10.625m15 159.38c12.083-9.5831 21.458-14.791 28.125-15.625l14.375-2.5c1.25-0.41562 3.5414-0.625 6.875-0.625 3.7498 1.6e-4 5.6248 0.625 5.625 1.875-1.6e-4 2.0836-5.8336 3.3336-17.5 3.75-5.0002 1.6e-4 -14.584 3.1252-28.75 9.375l-8.75 3.75m43.75-21.25c-1.6669 0.41719-3.3336 0.83438-5 1.25-1.6669 1.6e-4 -3.5419 1.6e-4 -5.625 0-2.0836 1.6e-4 -3.1252-0.83281-3.125-2.5-1.6e-4 -1.25 0.625-1.8748 1.875-1.875 0.83281 1.6e-4 2.0831 0.41719 3.75 1.25 2.0831 0.41719 4.7914 1.0422 8.125 1.875m51.25 23.125-12.5 0.625-6.875-0.625h-5.625c-1.6669 1.6e-4 -2.5002-1.0422-2.5-3.125-1.6e-4 -1.6664 1.0422-2.4998 3.125-2.5l13.125 2.5 11.25 3.125m-161.88 61.25c0.83281 2.0834 1.8748 5.0002 3.125 8.75 1.6666 3.3334 3.3333 7.2917 5 11.875 1.6666 1.25 3.5416 3.5417 5.625 6.875-9.5834-12.083-14.375-19.167-14.375-21.25l0.625-6.25m137.5-31.875c1.25 5.4169 2.4997 10.417 3.75 15 1.25 4.5834 2.7081 8.7502 4.375 12.5 4.5831 12.917 6.8747 22.708 6.875 29.375-3.1e-4 31.667-11.042 51.667-33.125 60l4.375-4.375 8.75-6.875c11.25-10 16.875-26.042 16.875-48.125-3.1e-4 -9.1666-2.0836-18.333-6.25-27.5-3.7503-9.1666-5.6252-17.708-5.625-25.625v-4.375m-0.625 91.875c0.41719-1.25 0.625-2.9166 0.625-5v-4.375l-0.625-5c-1.6e-4 -1.25 0.83281-2.2916 2.5-3.125 2.0831-1.25 2.4997-1.875 1.25-1.875 1.6664 0 2.4997 1.25 2.5 3.75-3.1e-4 2.5-2.0836 7.7084-6.25 15.625m-5.625-13.125c-2.0836-0.41719-4.7919-2.2916-8.125-5.625 2.4998 0.83281 5.2081 2.7084 8.125 5.625m-3.75-14.375-6.25-3.125-6.875-3.75-5.625-2.5h1.25c8.3331 1.6e-4 14.166 3.1252 17.5 9.375m6.25-20.625v-2.5c-4.1669-3.7498-6.2502-4.9998-6.25-3.75l0.625-3.125 5.625 9.375m30 15c-0.41719 1.6667-1.25 3.5417-2.5 5.625-0.83438 2.0834-2.0836 4.5834-3.75 7.5-3.1e-4 -5.8333 2.0831-10.208 6.25-13.125m83.125 45.625c5.4162-1.6666 9.9997-2.5 13.75-2.5 0.83281 0 1.8747 0.20781 3.125 0.625 1.6662 0 3.5412 0.20781 5.625 0.625-1.667 0.41719-3.3338 0.83281-5 1.25-1.25 0.41719-2.917 1.0422-5 1.875-2.917 0-7.0838-0.625-12.5-1.875m-11.875-3.125v0.625c-4.167 0-6.2503-2.2916-6.25-6.875 0.83281 0.41719 1.6664 1.25 2.5 2.5 0.83281 0.83281 2.083 2.0834 3.75 3.75m-35 1.25c1.25-1.6666 2.4997-3.125 3.75-4.375 1.25-1.6666 2.708-3.3333 4.375-5-1.25 4.5834-3.9586 7.7084-8.125 9.375m43.125-35.625c1.25 2.5002 1.8747 4.1667 1.875 5-3.1e-4 0 0.41562 1.25 1.25 3.75 0.83281 1.25 0.625 2.7084-0.625 4.375-0.41719-0.83281-0.83438-2.2916-1.25-4.375-0.41719-2.5-0.83438-5.4166-1.25-8.75m-43.75-0.625c0.83281 1.25 1.8747 2.9167 3.125 5 1.25 1.6667 2.2914 3.9584 3.125 6.875-0.83281-1.25-2.292-2.5-4.375-3.75-2.0836-1.25-3.1253-2.0833-3.125-2.5-3.1e-4 0.41719 0.41562-1.4578 1.25-5.625m17.5-7.5c-0.41719-0.83281-0.625-2.7083-0.625-5.625-3.1e-4 1.6e-4 0.83281-0.625 2.5-1.875 1.6664-1.6666 4.1664-4.1666 7.5-7.5-2.5003 3.3334-5.6253 8.3334-9.375 15m50-75.625c0.41562-2.0831 2.708-5.6248 6.875-10.625 2.083-1.6666 3.958-2.9166 5.625-3.75 1.6662-1.25 2.9162-2.2916 3.75-3.125 4.1662-3.7498 7.4997-5.6248 10-5.625 0.83281 1.6e-4 1.25 0.20938 1.25 0.625-3.1e-4 1.25-2.0838 2.7086-6.25 4.375-2.0838 0.83438-6.4588 3.9584-13.125 9.375-0.41719 0.41719-1.25 1.4578-2.5 3.125-1.25 1.25-3.1253 3.1252-5.625 5.625m64.375 43.75 0.625-0.625c-4.7e-4 -0.41719 0.20781-0.83281 0.625-1.25 0.83281 0.83281 1.8745 2.7084 3.125 5.625 1.25 2.5002 1.8745 4.1667 1.875 5-1.25-0.41719-3.1255-2.9166-5.625-7.5-2.0838-3.3333-3.1255-5.4166-3.125-6.25-4.7e-4 -1.25 0.20781-1.8748 0.625-1.875 2.9162 1.6e-4 4.3745 2.5002 4.375 7.5-4.7e-4 2.0834-0.41719 1.8752-1.25-0.625-0.83438-0.83281-1.25-0.83281-1.25 0m8.75 2.5c-0.41719-0.41719-0.625-1.6666-0.625-3.75-4.7e-4 -2.4998-0.20938-4.5833-0.625-6.25 1.6662 1.6667 2.4995 3.3334 2.5 5-4.7e-4 1.6e-4 -0.41719 1.6667-1.25 5m45-71.875c-2.0838-0.83281-4.1672-1.6664-6.25-2.5-1.6672-1.25-3.5422-2.2914-5.625-3.125 4.1662-0.83281 6.0412-1.25 5.625-1.25 4.9995 1.6e-4 7.4995 0.41719 7.5 1.25-4.7e-4 1.6e-4 -0.20938 0.20938-0.625 0.625-4.7e-4 0.41719-0.20938 1.0422-0.625 1.875-0.83438 0.83438-0.83438 1.8752 0 3.125m61.875 67.5c0.41562 3.3334 1.0406 7.0834 1.875 11.25v2.5c0.41562 3.7502-0.83438 5.6252-3.75 5.625 2.0828 1.6e-4 3.1245-0.83281 3.125-2.5-4.7e-4 1.6e-4 -0.625-0.83281-1.875-2.5-1.25-2.0833-1.4594-3.9583-0.625-5.625 0.83281-3.3333 1.25-6.2498 1.25-8.75m-70-93.75-3.75 5.625-10.625-1.875c4.9995-0.41562 9.7912-1.6664 14.375-3.75m-153.75-150 54.375 121.25c1.25 2.5003 1.8747 4.1669 1.875 5-3.1e-4 5.0003-3.542 7.5002-10.625 7.5l-120.62-0.625c-6.2503 1.6e-4 -9.3753-2.0831-9.375-6.25-3.1e-4 3.1e-4 0.41719-1.6664 1.25-5l58.75-123.75c3.333-7.083 6.8747-10.625 10.625-10.625 4.583 3.1e-4 9.1664 4.167 13.75 12.5m-8.125 18.75c-1.25 3.1e-4 -1.8753 1.0422-1.875 3.125-3.1e-4 1.667 0.83281 2.5003 2.5 2.5 2.083 3.1e-4 3.1247-0.83281 3.125-2.5-3.1e-4 -2.083-1.25-3.1247-3.75-3.125m-7.5 0c-0.83281 0.83438-1.25 1.4594-1.25 1.875-3.1e-4 1.25 0.41719 1.8753 1.25 1.875 0.41719 3.1e-4 1.0422-0.41562 1.875-1.25-3.1e-4 -1.6662-0.625-2.4997-1.875-2.5m-2.5 6.875c-1.25 3.1e-4 -1.8753 0.625-1.875 1.875-3.1e-4 1.25 0.625 1.8753 1.875 1.875 1.6664 3.1e-4 2.4997-0.41719 2.5-1.25-3.1e-4 -1.6662-0.83281-2.4997-2.5-2.5m-6.875 2.5c-1.25 3.1e-4 -1.8753 0.625-1.875 1.875-3.1e-4 0.83281 0.41562 1.25 1.25 1.25 1.25 3.1e-4 1.8747-0.41719 1.875-1.25-3.1e-4 -1.25-0.41719-1.8747-1.25-1.875m5 3.75c-1.25 3.1e-4 -1.8753 0.625-1.875 1.875 0.83281 0.83438 1.4578 1.25 1.875 1.25 1.25 3.1e-4 1.8747-0.41719 1.875-1.25-3.1e-4 -1.25-0.625-1.8747-1.875-1.875m6.875 3.125c-1.667 3.1e-4 -2.5003 1.0422-2.5 3.125-3.1e-4 1.667 0.625 2.5003 1.875 2.5 1.6664 3.1e-4 2.4997-1.0406 2.5-3.125-3.1e-4 -1.6664-0.625-2.4997-1.875-2.5m-13.125 16.875c0.41719-4.9997 2.4997-7.4997 6.25-7.5 3.7497 3.1e-4 5.6247 3.1253 5.625 9.375-3.1e-4 2.917-0.20938 4.792-0.625 5.625 2.9164-1.25 4.3747-3.7497 4.375-7.5-3.1e-4 -7.4997-3.1253-11.25-9.375-11.25-5.8336 3.1e-4 -8.7503 2.0836-8.75 6.25-3.1e-4 1.667 0.83281 3.3336 2.5 5m-16.25 40c-3.1e-4 -6.6664-1.25-12.291-3.75-16.875l-1.25 1.25-0.625 4.375-0.625 1.875-1.25 0.625c-0.83438 0.83438-1.25 1.6669-1.25 2.5-3.1e-4 2.9169 1.6664 5.0003 5 6.25 0.41719-1.25 1.0406-1.8747 1.875-1.875 0.41719 3.1e-4 1.0406 0.625 1.875 1.875m45-38.125c3.7497-3.7497 6.8747-5.6247 9.375-5.625 2.4997 3.1e-4 3.7497 1.25 3.75 3.75-3.1e-4 0.83438-1.0422 2.292-3.125 4.375 3.333-0.83281 4.9997-2.708 5-5.625-3.1e-4 -4.1664-2.0836-6.2497-6.25-6.25-2.917 3.1e-4 -5.8336 3.1253-8.75 9.375m14.375 37.5-1.25 3.75 2.5 0.625 3.125-3.125c0.41562 3.1e-4 0.625 0.41719 0.625 1.25l-0.625 1.25c0.41562 0.41719 0.625 0.83438 0.625 1.25 0.83281-0.41562 2.083-0.83281 3.75-1.25 1.6662-0.41719 2.4997-1.0406 2.5-1.875v-1.875l-2.5-2.5c-3.1e-4 -0.83281 0.625-1.8747 1.875-3.125 1.25-1.6664 1.8747-2.9164 1.875-3.75-3.1e-4 -0.83281-0.20938-1.25-0.625-1.25-6.2503 3.1e-4 -9.792 2.2919-10.625 6.875l-1.25 3.75m-25-29.375c5.4164 3.1e-4 8.1247-5.6247 8.125-16.875-3.1e-4 -11.25-2.917-16.875-8.75-16.875-1.25 3.1e-4 -1.8753 0.625-1.875 1.875-3.1e-4 0.83281 0.20781 1.4578 0.625 1.875l3.75 1.25c2.083 0.83281 3.1247 4.3753 3.125 10.625-3.1e-4 4.167-1.667 10.209-5 18.125m30.625 2.5c-3.3336-1.25-5.6253-1.8747-6.875-1.875-2.917 3.1e-4 -6.042 2.917-9.375 8.75-0.41719 1.667-1.25 2.5003-2.5 2.5-3.1e-4 3.1e-4 -0.20938-0.41562-0.625-1.25-3.1e-4 -0.83281-0.41719-2.083-1.25-3.75-0.41719-1.6664-1.667-2.4997-3.75-2.5-5.417 3.1e-4 -8.1253 4.792-8.125 14.375-3.1e-4 0.83438-3.1e-4 1.8753 0 3.125 0.41719 1.25 0.83281 2.9169 1.25 5l0.625 4.375c-3.1e-4 4.1669-1.4578 6.2503-4.375 6.25-2.917 3.1e-4 -4.3753-1.25-4.375-3.75-3.1e-4 -1.6664 0.625-3.7497 1.875-6.25 1.25-2.9164 1.8747-4.9997 1.875-6.25l-0.625-1.25-1.875-1.25v-2.5l2.5-4.375c0.83281-2.4997 1.25-3.958 1.25-4.375-3.1e-4 -2.4997-0.20938-4.1664-0.625-5h-2.5l-2.5 1.25-2.5-0.625c-0.41719 3.1e-4 -1.25 0.20938-2.5 0.625-0.83281 0.41719-1.4578 0.625-1.875 0.625-1.25 3.1e-4 -2.0836-1.25-2.5-3.75-0.41719-4.1664-2.5003-6.8747-6.25-8.125h-4.375c2.9164 4.167 4.3747 7.5003 4.375 10-3.1e-4 2.0836-1.0422 5.6253-3.125 10.625-1.6669 5.0003-2.5003 8.9586-2.5 11.875-3.1e-4 5.8336 2.2914 11.042 6.875 15.625 4.9997 4.1669 10.833 6.2503 17.5 6.25 18.75 3.1e-4 28.125-8.5414 28.125-25.625-3.1e-4 -7.9164 2.9164-14.166 8.75-18.75m-9.375 35c0.41562 0.41719 0.625 1.25 0.625 2.5-3.1e-4 1.6669-1.0422 2.5003-3.125 2.5h-1.25c1.25 0.83281 1.8747 1.6669 1.875 2.5-3.1e-4 1.25-0.41719 1.8753-1.25 1.875h-0.625l-2.5-0.625-2.5 1.25c2.083 6.2503 5.4164 8.9586 10 8.125h3.75c2.9162-0.83281 4.583-1.4578 5-1.875l1.25-1.875-2.5-1.25c-0.41719-0.41719-0.625-1.0406-0.625-1.875 2.083-1.6664 4.3747-3.5414 6.875-5.625l7.5-6.25-7.5 0.625h-15m-11.25 22.5c0.83281-3.3331 1.25-4.7914 1.25-4.375-3.1e-4 -2.9164-2.0836-4.9997-6.25-6.25-0.83438 2.0836-1.667 3.1253-2.5 3.125-0.41719 3.1e-4 -1.25-0.41719-2.5-1.25-0.83438-0.83281-1.4578-1.25-1.875-1.25-0.41719 0.41719-0.625 0.83438-0.625 1.25l-0.625 0.625-0.625 1.25v0.625l1.25 3.125-1.25 1.25-1.25-1.25c-3.1e-4 -0.41562-0.20938-0.83281-0.625-1.25l-0.625-2.5c-0.41719-1.6664-1.8753-2.4997-4.375-2.5-3.1e-4 1.6669-0.625 2.5003-1.875 2.5l-0.625-0.625-2.5-3.125c-0.83438-0.83281-1.4578-1.25-1.875-1.25-3.7503 3.1e-4 -5.6253 2.7086-5.625 8.125-3.1e-4 4.5836 1.8747 6.8753 5.625 6.875h1.25l1.25-1.25c0.83281 0.83281 1.8747 1.6669 3.125 2.5 1.25 0.41719 2.708 1.0422 4.375 1.875 0.41719 0.41719 1.6664 0.625 3.75 0.625 4.1664 3.1e-4 6.6664-1.6664 7.5-5l0.625-1.875c0.41719-0.41719 1.0422-0.625 1.875-0.625 2.083 3.1e-4 3.333 0.20938 3.75 0.625m-33.125-13.75-1.875 0.625c-2.0836 3.1e-4 -3.1253-0.41562-3.125-1.25-3.1e-4 -0.83281 0.20781-1.4578 0.625-1.875-2.5003-0.83281-3.7503-1.25-3.75-1.25h-1.875c-0.83438 3.1e-4 -1.25-0.41719-1.25-1.25 0.41562-0.41562 1.8747-1.0406 4.375-1.875-2.0836-2.4997-5.4169-4.1664-10-5l-6.875-1.875-3.125 1.875 3.125 3.125 0.625 3.75c0.41562 0.83438 1.0406 1.6669 1.875 2.5 1.25 0.41719 1.8747 0.83438 1.875 1.25-3.1e-4 0.83438-0.41719 1.25-1.25 1.25l-2.5 1.875c-3.1e-4 3.7503 1.8747 5.8336 5.625 6.25h1.875c9.1664 3.1e-4 14.375-2.7081 15.625-8.125m18.125-116.88c-3.3336 0.83438-5.8336 2.7088-7.5 5.625l-60 125.62c-0.41719 0.41719-0.625 1.6669-0.625 3.75-3.1e-4 2.5003 1.25 3.7503 3.75 3.75h0.625v-2.5c-3.1e-4 0.41719 0.41562-1.0406 1.25-4.375l62.5-131.88m16.25 94.375 5 3.125c-3.1e-4 10.834-4.167 15.834-12.5 15l-2.5-0.625c4.583-4.5831 7.9164-10.416 10-17.5m-11.25 17.5c-2.0836 1.25-5.0003 1.8753-8.75 1.875-1.25 3.1e-4 -2.5003-0.625-3.75-1.875 0.83281-0.41562 2.083-0.625 3.75-0.625 4.9997 3.1e-4 7.9164 0.20938 8.75 0.625m-11.875-1.875c-8.7503 3.1e-4 -13.125-3.9581-13.125-11.875-3.1e-4 -1.6664 1.0422-4.1664 3.125-7.5v6.875c-3.1e-4 1.6669 1.0406 3.5419 3.125 5.625l6.875 6.875"
       fill="#8f0005"
       id="path13" />
  </g>
</svg>
