<?xml version="1.0" encoding="UTF-8" standalone="no"?>
<svg
   xmlns:dc="http://purl.org/dc/elements/1.1/"
   xmlns:cc="http://creativecommons.org/ns#"
   xmlns:rdf="http://www.w3.org/1999/02/22-rdf-syntax-ns#"
   xmlns:svg="http://www.w3.org/2000/svg"
   xmlns="http://www.w3.org/2000/svg"
   xmlns:sodipodi="http://sodipodi.sourceforge.net/DTD/sodipodi-0.dtd"
   xmlns:inkscape="http://www.inkscape.org/namespaces/inkscape"
   version="1.1"
   viewBox="0 0 500 500"
   id="svg19"
   sodipodi:docname="william-morris-letter-x.svg"
   inkscape:version="1.0.2 (1.0.2+r75+1)">
  <metadata
     id="metadata23">
    <rdf:RDF>
      <cc:Work
         rdf:about="">
        <dc:format>image/svg+xml</dc:format>
        <dc:type
           rdf:resource="http://purl.org/dc/dcmitype/StillImage" />
      </cc:Work>
    </rdf:RDF>
  </metadata>
  <sodipodi:namedview
     pagecolor="#ffffff"
     bordercolor="#666666"
     borderopacity="1"
     objecttolerance="10"
     gridtolerance="10"
     guidetolerance="10"
     inkscape:pageopacity="0"
     inkscape:pageshadow="2"
     inkscape:window-width="1920"
     inkscape:window-height="1016"
     id="namedview21"
     showgrid="false"
     inkscape:zoom="1.686"
     inkscape:cx="255.33808"
     inkscape:cy="250"
     inkscape:window-x="0"
     inkscape:window-y="27"
     inkscape:window-maximized="1"
     inkscape:current-layer="svg19" />
  <defs
     id="defs7">
    <linearGradient
       id="linearGradient847"
       x1="500"
       x2="0"
       y1="500"
       y2="-4.2633e-14"
       gradientTransform="translate(166.24999,85.62)"
       gradientUnits="userSpaceOnUse">
      <stop
         stop-color="#ff6700"
         offset="0"
         id="stop2" />
      <stop
         stop-color="#ffd700"
         offset="1"
         id="stop4" />
    </linearGradient>
  </defs>
  <path
     d="m159.01 44.418c-2.396 0.19583-13.271 5.9102-13.271 5.9102l-20.76-1.2578-54.521-0.83984-12.373 3.5645-3.7734-0.20898s-1.0485 8.5971 0 10.484c1.0485 1.8873 7.9688 5.4531 7.9688 5.4531l22.646 7.1289 39.424 41.521 102.75 127.5-19.504 23.068-18.453 16.775-6.5 10.904 5.4512 12.582 5.2441 22.648 5.6602-9.2285 47.184-54.73 13.211 16.146 15.938-41.102-2.3066-6.9199 53.893-59.764 15.727-15.518-10.904-5.6621-4.1934-3.5644-10.904-10.066-56.41 66.895-42.359-47.812-63.957-82.201 13.211-10.904 2.7266-12.791s-9.2281-7.3397-10.486-7.9688c-0.07863-0.039318-0.19964-0.052117-0.35937-0.039062zm260.18 2.7637-15.938 1.2598-24.324 1.6777-36.697-1.0488-1.2598 5.8711 2.0977 11.324 11.113 6.5 10.486 9.4375-41.102 49.068 2.3066 3.7754 22.438 11.533 10.275-5.4531s14.679-20.549 16.146-20.969c1.4679-0.4194 41.102-47.393 41.102-47.393l18.453-11.324 1.4688-6.5-16.566-7.7598zm-134.79 191.85-5.3379 23.725-12.158 29.359 57.828 69.098s40.927 51.898 43.596 53.381c2.669 1.4828-0.29687 10.678-0.29687 10.678s-12.705 4.8061-18.082 6.7578c-0.1029-0.21957-0.45313-0.97461-0.45313-0.97461l-2.2852 1.9551c-0.30514 0.11309-0.81096 0.56647-1.4141 1.209-0.00146 0.00156-0.00245 0.00431-0.00391 0.00586l-10.68 9.1367 11.416 13.492s10.232-5.3379 11.418-5.3379c0.16279 0 0.10806-0.41117-0.08399-1.0762 14.587 0.64306 80.748 3.3008 80.748 3.3008l23.133 0.29687 7.1172-10.676-13.643-12.455-11.27-4.1523-51.896-57.533-93.121-113.88-14.531-16.311zm-126.33 77.105-2.9648 8.8965-64.65 76.514-23.428 22.834-9.4902 0.89063-21.057 10.082 1.1875 16.014 65.836 1.7793s25.8-0.29529 28.766 1.1875c2.9656 1.4828 6.8203-4.4492 6.8203-4.4492l-0.5918-19.572-21.354-2.373-4.1504-8.8965 34.992-41.518 30.25-31.436-0.88867-14.531-6.8223-9.1934-12.455-6.2285z"
     fill="#f4eee6"
     id="path11" />
  <g
     id="g17">
    <g
       transform="translate(-146.86,-119.79)"
       id="g15">
      <path
         d="m146.86 619.79v-500h500v500h-500m7.5-7.5h485v-485h-485v485m7.5-7.5v-469.38h469.38v469.38h-469.38m6.25-439.38-0.625 6.25 3.125-0.625c1.25-2.9162 1.8748-5.2078 1.875-6.875-1.6e-4 -1.25-0.625-3.3328-1.875-6.25-0.83281-2.9162-1.25-5.2078-1.25-6.875-1.6e-4 -2.9162 1.6666-4.3745 5-4.375 4.5833 4.7e-4 6.4583 2.2922 5.625 6.875v4.375c-1.6e-4 3.7505-0.625 7.0838-1.875 10l-3.125 9.375c-0.83281 1.667-1.6667 4.167-2.5 7.5-0.83281 3.3338-2.0834 7.5005-3.75 12.5l-1.875 42.5 0.625 3.75 0.625 5 1.25 6.25 2.5 8.75 1.875 5 5 10.625 2.5 4.375 3.75 6.25 9.375 11.25 10.625 10.625c22.083 17.084 40 25.625 53.75 25.625 2.0831 3.1e-4 3.7498-0.20781 5-0.625-2.9169-3.7497-5.0002-5.8331-6.25-6.25-1.25-0.83281-3.9584-1.6664-8.125-2.5-0.83281-0.41719-2.5002-1.0406-5-1.875-2.5002-1.25-5.8334-2.9164-10-5l-5-3.125-21.875-17.5c-14.167-16.666-21.25-35-21.25-55-1.6e-4 -26.666 13.958-40.833 41.875-42.5-2.5002-4.9995-7.0834-7.4995-13.75-7.5l-9.375 1.875v-6.875c-2.5002 0.83437-6.8752 3.542-13.125 8.125l-5 5-1.25 0.625-5.625 9.375-2.5 11.875 0.625 4.375c0.41719 0.41719 0.625 1.25 0.625 2.5-1.6e-4 0.83437-0.83281 1.25-2.5 1.25l1.875-0.625c-3.7502 3.1e-4 -5.2084-1.6662-4.375-5v-1.875l0.625-6.25 6.875-21.875 3.75-6.25c0.83281-2.083 1.8748-4.1662 3.125-6.25 1.25-2.4995 2.7083-5.208 4.375-8.125l4.375-3.75c0.41719-0.41563 0.625-1.4578 0.625-3.125-1.6e-4 -2.4995-0.625-5.4162-1.875-8.75l-1.25-0.625c-0.41719 1.25-2.0834 3.3338-5 6.25-0.83281-3.3328-1.25-5.4162-1.25-6.25v-6.875c0.83281-9.5828-2.5002-14.375-10-14.375-7.9167 4.7e-4 -11.875 3.7505-11.875 11.25-1.6e-4 2.0838 0.20781 4.5838 0.625 7.5 0.83281 2.9172 1.25 5.2088 1.25 6.875m28.125-21.875v1.25c4.1666 4.7e-4 6.8748 2.0838 8.125 6.25l-0.625 3.75-3.125 5.625v3.125l7.5-9.375c0.83281-2.4995 1.25-4.3745 1.25-5.625-1.6e-4 -5.4162-2.7084-8.1245-8.125-8.125h-0.625l-0.625 0.625-3.75 2.5m68.75-2.5-12.5 1.875c-18.333 2.5005-33.958 10.834-46.875 25l10-0.625 15-10c4.5831-2.0828 12.292-4.5828 23.125-7.5 2.4998-0.41562 4.9998-0.625 7.5-0.625 2.4998-0.41562 4.9998-0.625 7.5-0.625 17.5 4.7e-4 33.958 5.2088 49.375 15.625l1.875 2.5-1.25 8.125 2.5 5 1.25 1.875 3.125 3.125 2.5 3.125 3.125 5c1.6664 2.917 2.4997 6.2505 2.5 10-3.1e-4 3.7505-2.0836 5.6255-6.25 5.625-6.2503 4.7e-4 -9.3753-4.3745-9.375-13.125-3.3336 3.3338-5.0002 5.8338-5 7.5-1.6e-4 0.41719-1.6e-4 1.25 0 2.5 0.41719 1.25 0.83281 2.917 1.25 5l0.625 1.25c3.7497 6.667 8.7497 10 15 10 7.9164 4.7e-4 13.541-4.3745 16.875-13.125l1.875 0.625c-3.1e-4 2.5005 0.83281 3.9588 2.5 4.375 3.7497-4.1662 5.6247-8.5412 5.625-13.125-3.1e-4 -3.333-0.83438-6.0412-2.5-8.125-1.6669-2.4995-3.5419-4.583-5.625-6.25-1.6669-2.083-3.3336-3.7495-5-5-1.6669-1.25-2.5003-2.4995-2.5-3.75-3.1e-4 -2.4995 1.25-3.7495 3.75-3.75 1.25 4.7e-4 3.3331 0.83438 6.25 2.5l3.125 4.375c3.3331 4.5838 9.1664 6.8755 17.5 6.875h2.5v-3.75c-3.1e-4 -0.83281-1.0422-2.9162-3.125-6.25 10.833-4.5828 16.25-10.833 16.25-18.75-3.1e-4 -12.083-6.042-18.125-18.125-18.125-2.0836 4.7e-4 -5.4169 1.6672-10 5 10.416 0.41719 15.625 3.5422 15.625 9.375-3.1e-4 2.9172-1.0422 4.7922-3.125 5.625l-5 1.25h2.5l-5 0.625c-2.5003 4.7e-4 -5.4169-0.83281-8.75-2.5l-1.875-1.25-10-7.5c-3.3336-1.25-5.6253-1.8745-6.875-1.875-1.25 4.7e-4 -3.5419 1.0422-6.875 3.125l-1.25 5-6.25-1.875-5-3.75c-0.83281-0.83281-3.1253-1.8745-6.875-3.125l-15.625-5c-0.41719-0.41562-1.25-0.625-2.5-0.625-1.25 4.7e-4 -2.5002-0.20781-3.75-0.625v-0.625l-22.5-1.25-1.25 0.625m130.62 21.875 1.25 3.75 1.875 1.875c6.2497 5.0005 11.875 7.917 16.875 8.75-0.83438 2.0838-2.292 3.1255-4.375 3.125l-10 5c4.1664 6.2505 10.833 9.3755 20 9.375 4.1662 4.7e-4 7.708-0.83281 10.625-2.5h0.625c5.4162 4.7e-4 10.416-2.2912 15-6.875l9.375-10.625 6.25-3.75-5 11.25c-0.83438 3.3338-1.25 5.2088-1.25 5.625-3.1e-4 4.5838 0.83281 9.167 2.5 13.75l3.75 5.625 3.125 4.375 5 1.875 3.125-7.5 5.625 4.375c1.6662 1.25 3.333 1.8755 5 1.875 7.9162 4.7e-4 12.083-3.958 12.5-11.875v-0.625l-2.5-3.75-2.5 1.875-6.25 1.25-2.5-0.625c-5.0005-4.1662-7.5005-8.7495-7.5-13.75-4.7e-4 -9.9995 5.4162-18.541 16.25-25.625 10.833-7.4995 23.541-11.25 38.125-11.25 12.916 4.7e-4 27.291 4.3755 43.125 13.125l17.5 13.125c-0.41719-2.0828-0.83438-3.9578-1.25-5.625-0.41719-1.6662-0.83438-3.5412-1.25-5.625-0.41719-0.41562-1.25-1.0406-2.5-1.875-0.83438-0.83281-2.2922-2.0828-4.375-3.75l-16.25-9.375c-7.5005-4.1662-18.542-6.6662-33.125-7.5h-11.875c-14.584-0.83281-31.459 3.7505-50.625 13.75l-25 12.5c-7.917 4.1672-14.375 6.2505-19.375 6.25-2.917 4.7e-4 -6.8753-1.25-11.875-3.75-4.5836-2.4995-6.8753-5.6245-6.875-9.375-3.1e-4 -6.2495 1.8747-9.3745 5.625-9.375 2.083 4.7e-4 3.5414 0.20938 4.375 0.625v6.875c-3.1e-4 4.5838 4.3747 6.8755 13.125 6.875 11.25 4.7e-4 17.083-5.2078 17.5-15.625-3.1e-4 -2.0828-0.83438-3.7495-2.5-5-2.0838 10.834-6.8753 16.25-14.375 16.25-3.7503 4.7e-4 -5.6253-1.25-5.625-3.75v-0.625l1.25-7.5c-3.1e-4 -5.8328-3.9588-8.7495-11.875-8.75-13.334 4.7e-4 -20 5.2088-20 15.625-3.1e-4 0.83438 0.41719 3.3338 1.25 7.5m191.88-22.5c-2.9172 2.9172-4.3755 5.6255-4.375 8.125-4.7e-4 1.6672 1.25 3.7505 3.75 6.25l3.125 5 1.875-1.25c-3.3339-4.5828-5.0005-7.4995-5-8.75-4.7e-4 -3.3328 1.4578-4.9995 4.375-5 2.0828 4.7e-4 4.7911 0.625 8.125 1.875-0.41719-5.4162-3.3339-8.1245-8.75-8.125l-1.25 0.625-1.875 1.25m26.25 3.125c-3.3339 4.7e-4 -5.6255 1.0422-6.875 3.125l-1.875 4.375v10.625l-7.5-3.75c-2.0839 4.7e-4 -3.1255 2.5005-3.125 7.5-4.7e-4 3.7505 0.20781 6.2505 0.625 7.5l4.375 8.75 2.5 3.75c4.1661 1.667 7.7078 5.0005 10.625 10 1.25 3.3338 1.8745 5.6255 1.875 6.875v3.75c-1.6672-1.25-3.1255-3.7495-4.375-7.5-0.83437-4.1662-3.5422-8.1245-8.125-11.875-2.5005-2.4995-6.4589-4.1662-11.875-5l-5-0.625v6.25h-1.25l-0.625 0.625-3.75 1.25-1.875 1.875 0.625 9.375h1.25c3.7495-2.4995 6.4578-3.7495 8.125-3.75 4.9995 4.7e-4 9.9995 3.3338 15 10l3.125 5c3.3328 8.7505 4.9995 19.167 5 31.25-4.7e-4 5.417-1.0422 11.667-3.125 18.75l-6.25 18.125c-0.41719 0.41719-0.625 2.5003-0.625 6.25-4.7e-4 0.41719-4.7e-4 1.25 0 2.5 0.41563 1.25 0.83281 2.917 1.25 5v2.5c2.9161-2.9164 5.8328-6.8747 8.75-11.875 2.9161-4.9997 5.4161-9.9997 7.5-15 2.4995-5.4162 4.1661-10.833 5-16.25 1.25-5.4162 1.6661-9.9997 1.25-13.75l-1.25-29.375-5-21.875-4.375-22.5c-0.41719-2.4995-0.83437-4.3745-1.25-5.625-4.7e-4 -1.6662-4.7e-4 -2.7078 0-3.125-4.7e-4 -2.0828 1.6661-3.1245 5-3.125h0.625l3.125 1.25c0.83281 2.0838 1.4578 3.1255 1.875 3.125 1.25 4.7e-4 1.8745-1.0406 1.875-3.125-4.7e-4 -4.1662-0.41719-6.6662-1.25-7.5l-3.125-3.125-1.875-1.25h-5v0.625m-366.25 10-1.25 2.5c6.6666-1.25 11.458-1.8745 14.375-1.875 11.666 4.7e-4 18.333 2.7088 20 8.125l-3.75 2.5h-5.625l4.375 2.5c2.4998 0.83438 4.1664 1.25 5 1.25 8.7498 4.7e-4 13.125-2.2912 13.125-6.875-1.6e-4 -1.25-1.25-3.1245-3.75-5.625l-1.875-0.625c-8.3336-3.3328-13.75-4.7912-16.25-4.375h-1.875l-22.5 2.5m275.62-3.125c-8.7505 4.5838-13.125 7.9172-13.125 10-4.7e-4 5.0005 4.9995 7.5005 15 7.5h2.5l14.375-3.125c0.83281-0.41563 2.0828-0.625 3.75-0.625 0.83281 4.7e-4 2.0828 0.41719 3.75 1.25 2.0828 0.41719 3.5412 0.625 4.375 0.625 0.83281 4.7e-4 1.25-0.41563 1.25-1.25-4.7e-4 -0.83281-0.41719-1.6662-1.25-2.5l-3.75-0.625-20 1.875c-2.9172 0.41719-4.3755-0.83281-4.375-3.75-4.7e-4 -2.9162 3.3328-4.3745 10-4.375 11.25 4.7e-4 20.416 2.2922 27.5 6.875 4.1662 2.9172 7.2912 4.3755 9.375 4.375l11.25 8.125 5.625 3.125 0.625-1.875c-4.7e-4 -1.25-0.83438-2.0828-2.5-2.5-3.3339-2.9162-7.7089-5.8328-13.125-8.75-5.0005-2.9162-11.25-6.0412-18.75-9.375-10.417-3.7495-17.709-5.4162-21.875-5h-10.625m-283.12 15.625c1.6666-0.41562 3.5416-0.83281 5.625-1.25 2.4998-0.41562 5.4166-0.83281 8.75-1.25h3.125l8.75 0.625c-4.5836-1.6662-9.7919-2.4995-15.625-2.5-4.5834 4.7e-4 -8.1252 1.4594-10.625 4.375m-8.125 21.25 13.125 15 5.625 6.875 3.125 3.125 3.125 4.375 15 18.125 24.375 28.75 3.125 4.375 8.125 10 1.25 1.875 10.625 13.125 9.375 10.625 5.625 5.625 11.875 15.625 12.5 15.625 8.125 10c4.1664 4.1669 7.2914 8.3336 9.375 12.5v1.25c-0.83281 0.41719-1.667 1.0422-2.5 1.875-0.41719 0.83438-1.0422 1.6669-1.875 2.5l-36.25 41.875-1.25 0.625-1.25 2.5-0.625 2.5c3.7497 3.7502 5.6247 10 5.625 18.75l36.25-39.375 5-6.875c2.4997-3.7498 6.0414-7.2914 10.625-10.625l3.125 3.75-1.25-1.875 1.875 2.5 5 7.5 3.125 3.75 1.875 1.875 1.875 1.25 1.875-5.625 8.75-23.75 3.125-6.25v-1.875c-0.83438-1.6664-2.0836-3.3331-3.75-5l-3.125-3.75 21.875-27.5 38.75-43.75c2.4995-2.9162 3.7495-4.7912 3.75-5.625-4.7e-4 -0.83281-0.625-1.6662-1.875-2.5l-3.125-1.875-8.125-6.875-8.75 9.375-25.625 30.625-8.125 8.125c-10.834 13.334-16.875 20.209-18.125 20.625l-1.875 1.875c-0.41719 3.1e-4 -0.83438 0.20938-1.25 0.625l-102.5-122.5c-5.0002-7.4995-7.5002-12.5-7.5-15-1.6e-4 -7.9162 2.0831-12.708 6.25-14.375l11.25-5.625c0.83281-0.83281 1.25-1.4578 1.25-1.875-1.6e-4 -2.4995-1.8752-3.7495-5.625-3.75h-3.125c-2.0836 4.7e-4 -3.9586 0.20937-5.625 0.625l-43.75 1.25-16.25-0.625h-7.5c-1.25 4.7e-4 -2.7084 4.7e-4 -4.375 0-1.25 4.7e-4 -2.7084-0.20781-4.375-0.625h-1.875c-6.2502 4.7e-4 -9.7917 1.0422-10.625 3.125-1.6e-4 2.0838 1.6666 3.542 5 4.375l14.375 4.375 6.875 4.375m320-16.25h3.125l-41.25 0.625h-13.125l-3.125-0.625c-4.167 4.7e-4 -6.2505 1.0422-6.25 3.125l0.625 0.625v0.625c0.41562 1.25 1.0406 1.8755 1.875 1.875l12.5 5 7.5 5c2.4995 2.5005 3.7495 5.0005 3.75 7.5-4.7e-4 3.3338-2.0838 7.7088-6.25 13.125l-13.125 17.5-16.25 16.875-8.75 11.25 15 8.75 53.125-61.25 8.75-8.75c4.5828-4.9995 8.1245-7.9162 10.625-8.75 7.4995-2.9162 11.25-6.0412 11.25-9.375-4.7e-4 -2.9162-2.2922-4.3745-6.875-4.375h-3.75c-2.0838 4.7e-4 -4.1672 0.20938-6.25 0.625l-3.125 0.625m-241.25 1.875 0.625 2.5c-1.6669 2.917-4.7919 5.0005-9.375 6.25-5.8336 2.5005-8.7502 6.667-8.75 12.5-1.6e-4 1.25 1.0406 4.5838 3.125 10l10 13.75 2.5 3.125 1.875 1.25 5.625 6.875 4.375 6.875 4.375 4.375 2.5 3.125 15 18.125c1.25 1.25 2.9164 3.1253 5 5.625 2.0831 2.5003 4.5831 5.6253 7.5 9.375l12.5 15.625 20.625 23.125 12.5 15.625c1.6664 3.1e-4 2.4997-1.0406 2.5-3.125l-3.125-6.25-5-6.25-3.125-4.375-6.875-8.125-29.375-32.5-13.75-17.5-30-36.875c-1.25-1.6662-2.2919-2.9162-3.125-3.75-0.83438-0.83281-1.4578-1.6662-1.875-2.5-5.8336-7.083-8.7502-11.875-8.75-14.375-1.6e-4 -3.7495 1.0422-6.2495 3.125-7.5l9.375-4.375 3.75-7.5c-0.83438-1.6662-2.0836-2.7078-3.75-3.125m263.75-0.625v1.875c0.41562 2.917-1.0422 5.0005-4.375 6.25l-8.125 3.75v0.625l-10.625 9.375-2.5 3.125-30 33.125-3.75 5-16.875 18.75c-2.0838 2.917-3.7505 5.0003-5 6.25-1.25 1.25-1.8755 1.8753-1.875 1.875 0.41562 1.25 1.4578 1.8753 3.125 1.875 2.4995 3.1e-4 4.7912-1.25 6.875-3.75l51.875-61.25 8.75-8.125 10-5c4.9995-2.4995 7.4995-5.6245 7.5-9.375-4.7e-4 -1.6662-1.6672-3.1245-5-4.375m-377.5 5-5 3.75 1.875-1.25-3.125 5.625-1.25 2.5 8.125-5.625-0.625-5m8.125 1.25c2.0833 4.5838 5.2081 7.5005 9.375 8.75l15.625 3.75v-1.875c-1.6e-4 -2.4995-3.3334-4.3745-10-5.625l-3.75-1.25-4.375-1.25-6.875-2.5m286.25 0c2.4995 4.5838 6.2495 8.1255 11.25 10.625 1.25 0.83438 2.4995 1.667 3.75 2.5 1.25 0.83438 2.708 1.667 4.375 2.5l1.25 1.875 1.875 3.125 0.625-4.375c-4.7e-4 -2.4995-1.4594-4.9995-4.375-7.5l-5.625-3.75-3.125-1.25-6.25-3.125-3.75-0.625m-114.38 29.375-1.25 2.5-1.875 5.625c-1.667 3.3338-2.5003 6.667-2.5 10-3.1e-4 2.917 0.83281 6.2503 2.5 10l1.875 3.75c-3.1e-4 -8.333 0.20781-12.916 0.625-13.75 0.41719-0.83281 1.25-2.4995 2.5-5 1.25-2.9162 2.9164-6.6662 5-11.25l-2.5-0.625-1.25-1.25 3.125-4.375 1.25-5.625 2.5-0.625c0.41719 0.83438 0.625 2.292 0.625 4.375-3.1e-4 1.667-0.83438 3.3338-2.5 5 2.083 4.7e-4 3.1247 0.625 3.125 1.875-3.1e-4 1.667-1.4594 3.9588-4.375 6.875-3.7503 5.8338-5.417 11.875-5 18.125v4.375c0.83281 3.3338 2.9164 5.6253 6.25 6.875l-3.75-8.75 1.875-1.25-1.25-5.625 2.5-0.625 0.625-6.25 3.75-0.625v-4.375l2.5-0.625c1.25 1.25 1.8747 3.542 1.875 6.875 0.41719 1.25 0.83281 1.8755 1.25 1.875h1.25l-0.625-5.625 0.625-1.25 2.5 3.75 3.125 6.25c-0.41719-0.41562-0.625-1.6662-0.625-3.75-3.1e-4 -1.25 0.41719-1.8745 1.25-1.875 1.6664 4.7e-4 2.4997 1.25 2.5 3.75l0.625 1.25 1.875-0.625v-8.75l1.25-9.375c-3.1e-4 -6.2495-2.292-9.7912-6.875-10.625l-1.25 6.25-1.875-0.625 1.875-0.625h-1.875c-3.7503-13.75-7.7086-20.625-11.875-20.625-0.83438 4.7e-4 -1.4594 1.4594-1.875 4.375l-1.25 6.875c-0.83438 1.667-1.8753 3.7505-3.125 6.25-0.83281 2.0838-1.8753 4.5838-3.125 7.5m71.875-16.25c-2.917 7.5005-7.5003 10.834-13.75 10l-5.625-0.625c1.6662 2.917 3.958 4.3755 6.875 4.375 6.6662 4.7e-4 11.041-2.4995 13.125-7.5l1.875-4.375c0.83281-3.333 1.25-4.3745 1.25-3.125-0.83438-0.83281-1.4594-1.25-1.875-1.25l-1.25 0.625-0.625 1.875m-83.75 3.125c2.083 3.3338 3.1247 6.042 3.125 8.125-3.1e-4 1.25-2.7086 2.5005-8.125 3.75-0.41719 0.41719-0.625 1.25-0.625 2.5-3.1e-4 1.667 1.8747 2.5005 5.625 2.5 4.1664 4.7e-4 6.2497-3.333 6.25-10-3.1e-4 -3.333-2.0836-5.6245-6.25-6.875m196.25 2.5c-1.25 6.667-3.3338 11.459-6.25 14.375-4.1672 3.7505-6.6672 6.8755-7.5 9.375-0.83438 2.0838-1.25 3.9588-1.25 5.625-4.7e-4 1.25 1.0406 2.917 3.125 5h-3.125l-5.625-1.25-6.875 1.875c-2.9172 2.917-4.3755 5.8338-4.375 8.75v1.25c2.9162 0.83438 5.6245 1.667 8.125 2.5 2.4995 0.41719 4.1662 1.8753 5 4.375l1.875 8.125-3.125 6.875v3.125l-3.125 3.75c-6.2505 5.0003-11.667 7.917-16.25 8.75v1.25c15.833-2.9162 24.791-8.5412 26.875-16.875 1.25-4.1662 2.2912-6.2497 3.125-6.25 1.25 3.1e-4 1.8745 0.625 1.875 1.875-4.7e-4 -2.9162-1.6672 0.20938-5 9.375l-5 5.625-1.25 1.25-2.5 1.875c14.166-4.9997 22.708-16.875 25.625-35.625h0.625c1.6662 3.1e-4 2.4995 0.625 2.5 1.875l-0.625 1.875-3.125 10c-0.41719 1.25-0.83438 2.292-1.25 3.125-4.7e-4 0.41719-4.7e-4 0.625 0 0.625l-3.75 4.375-1.25 3.75-2.5 2.5-1.25 1.875 1.875 0.625c1.25 3.1e-4 3.3328-1.8747 6.25-5.625 3.3328-4.1662 5.2078-6.8747 5.625-8.125 1.6662-5.4162 3.1245-8.1247 4.375-8.125l1.25 1.25v1.25l-3.125 5.625-0.625 5c10.833-6.6662 17.916-16.666 21.25-30 0.83281-3.333 1.8745-6.458 3.125-9.375 1.25-3.333 2.4995-6.6662 3.75-10h-3.125c-2.9172-0.41562-5.0005 0.625-6.25 3.125h-1.25c-1.25 4.7e-4 -2.7089 1.4594-4.375 4.375l-2.5 3.125v-0.625c-1.6672 4.7e-4 -2.5005-0.20781-2.5-0.625l-0.625-4.375v-3.75c-4.7e-4 -3.7495-2.2922-7.9162-6.875-12.5l-3.125-2.5-6.875-3.75m-106.88 4.375c-0.41719 1.25-0.625 2.7088-0.625 4.375-3.1e-4 1.25-0.20938 2.0838-0.625 2.5-1.25 5.8338-1.8753 9.3755-1.875 10.625v1.25c-3.1e-4 7.917 2.2912 17.084 6.875 27.5l1.25 1.875 1.875 3.75 8.75 10c13.333 10.834 25.625 16.25 36.875 16.25 8.333 3.1e-4 16.458-2.083 24.375-6.25 3.7495-2.083 5.8328-3.958 6.25-5.625l0.625-3.125-5 2.5v-3.125c0.41562-0.41562 2.0828-1.25 5-2.5 2.9162-1.6662 4.3745-3.958 4.375-6.875-4.7e-4 -1.25-0.625-2.2912-1.875-3.125l-0.625 3.125-5.625 6.25-8.125 5-6.25 4.375c-1.667 1.667-5.417 2.5003-11.25 2.5-3.7505 3.1e-4 -6.2505-0.20781-7.5-0.625 2.9162-0.41562 5.6245-1.0406 8.125-1.875 2.4995-0.83281 5.208-1.6662 8.125-2.5l5-3.75c2.9162-2.9162 4.5828-4.583 5-5 0.83281-0.83281 1.25-2.2912 1.25-4.375-4.7e-4 -5.833-2.0838-8.7497-6.25-8.75-1.667 3.1e-4 -3.7505 1.25-6.25 3.75l-0.625 3.125c3.7495 3.1e-4 5.833 1.4594 6.25 4.375-4.5838 7.5003-12.5 11.25-23.75 11.25-3.3338 3.1e-4 -6.667-0.83281-10-2.5l-3.75-1.875-6.875-4.375-3.75-2.5c-11.667-10.416-17.292-22.708-16.875-36.875v-0.625l1.25-11.875-3.75-6.25m-223.75 22.5v3.75l1.25 5 1.25 3.75 4.375 6.875v1.25l2.5 0.625-3.75-8.125c2.4998-0.83281 3.5416-1.25 3.125-1.25 0.83281 3.1e-4 1.25 1.4594 1.25 4.375l0.625 1.875 1.25 1.25 1.875 6.875c-6.2502 0.83438-9.3752 3.1253-9.375 6.875l0.625 2.5 1.875 5 1.25 3.125 3.75 4.375 2.5 1.875 8.75 7.5c8.7498 7.0836 19.166 10.209 31.25 9.375h2.5l13.125-0.625c5.4164-0.41562 8.1248-1.25 8.125-2.5-1.6e-4 -3.7497-1.6669-5.6247-5-5.625-1.25 3.1e-4 -4.5836 0.625-10 1.875-1.25 0.41719-3.3336 0.625-6.25 0.625-3.7502 3.1e-4 -11.667-1.6664-23.75-5l-7.5-3.75-5-3.125c-2.5002-2.083-4.3752-3.7497-5.625-5-0.83281-1.6662-2.2919-4.1662-4.375-7.5l11.875 3.75v1.25h-3.125c-0.83281 3.1e-4 -1.25 0.20938-1.25 0.625-1.6e-4 1.25 3.7498 3.3338 11.25 6.25 3.3331 1.667 6.2498 2.5003 8.75 2.5 1.25 3.1e-4 1.8748-0.625 1.875-1.875l0.625-4.375 1.875-6.25h-2.5l-16.25 0.625-1.25-1.875c-3.7502-0.41562-5.6252-1.6662-5.625-3.75v-1.875c7.9166 1.25 12.917 1.8753 15 1.875 10.416 3.1e-4 15.625-1.6662 15.625-5-0.83438-2.4997-1.25-3.5412-1.25-3.125l-3.75-2.5-3.125-5.625h-3.125c-5.0002 5.8338-9.7919 8.7503-14.375 8.75-4.1669 3.1e-4 -6.2502-1.0406-6.25-3.125 0.41719-0.41562 0.625-0.83281 0.625-1.25 0.41719-0.41562 0.83281-0.83281 1.25-1.25l8.75-3.125c4.1666-1.25 6.2498-4.583 6.25-10-1.6e-4 -0.41562-0.625-1.0406-1.875-1.875l-5-5h-3.125c-0.41719 0.41719-0.83281 0.83438-1.25 1.25-1.6e-4 0.41719-0.20781 0.83438-0.625 1.25l-3.125 3.75-1.875 6.25v0.625c-1.6e-4 2.5003-0.625 3.7503-1.875 3.75-1.25 3.1e-4 -1.8752-0.625-1.875-1.875-1.6e-4 -2.9162 0.41719-6.0412 1.25-9.375l3.75-10c0.41719-0.41562 0.625-1.4578 0.625-3.125-1.6e-4 -0.83281-0.20781-1.4578-0.625-1.875l-5-3.75-6.875-5c-2.0834 4.7e-4 -3.7502 6.042-5 18.125m180.62-3.75-0.625 11.25 1.25 0.625 1.875 0.625c-0.83437-3.333-1.25-5.208-1.25-5.625-3.1e-4 -0.41562 1.0406-1.0406 3.125-1.875l0.625 6.875c2.4997-5.4162 4.583-8.1245 6.25-8.125l5 1.25c0.83281-0.41562 1.6662-2.083 2.5-5 0.83281-3.333 4.7912-6.0412 11.875-8.125l-0.625 2.5c-3.7503 0.83438-6.4588 2.917-8.125 6.25-1.25 2.917-1.8753 5.2088-1.875 6.875l0.625 3.125-0.625 1.25-7.5-3.75c-2.917 2.917-4.3753 6.2503-4.375 10-3.1e-4 2.5003 0.625 5.6253 1.875 9.375l1.875 3.125c1.25 2.5003 1.8747 4.3753 1.875 5.625-3.1e-4 0.83438-1.25 1.4594-3.75 1.875l2.5-0.625-3.75 0.625-0.625-1.25c-1.667-6.6662-6.667-15.625-15-26.875l-0.625 3.75h-1.875 1.875l-12.5-7.5-4.375-1.25-0.625 13.125c-0.41719 2.917 0.41563 5.417 2.5 7.5l1.25 3.75h-3.125l-2.5-1.25-0.625 4.375 5 6.25 4.375 4.375 3.75 2.5c2.4997 3.7503 3.7497 6.2503 3.75 7.5-3.1e-4 1.25-1.667 1.8753-5 1.875l-4.375-5-4.375-8.125-4.375-5.625c-2.0836-2.083-5.0003-3.333-8.75-3.75l-1.25 4.375-6.25-0.625h-2.5c-1.6669 0.41719-2.5003 3.1e-4 -2.5-1.25-3.1e-4 -0.83281 0.20781-1.25 0.625-1.25h6.25l3.75-5 9.375 1.875 0.625-4.375c-3.3336-2.4997-6.042-3.7497-8.125-3.75l-5.625 0.625 0.625 5-4.375 1.25c-3.3336 0.41719-5.8336 1.8753-7.5 4.375-1.25 2.0838-1.8753 3.3338-1.875 3.75 0.41563 0.83438 1.6664 1.667 3.75 2.5 2.4997 0.83438 5.4164 2.5003 8.75 5l10 10 1.25 2.5 5 5c5.833 7.0836 12.083 10.625 18.75 10.625 3.7497 3.1e-4 6.2497-1.25 7.5-3.75l2.5-5 5 3.125 1.875 1.875 3.75 6.25 1.25 4.375c3.333-2.4997 4.9997-5.208 5-8.125-3.1e-4 -4.1664-1.8753-10.625-5.625-19.375l6.25 1.25c2.083 2.0838 3.5412 3.1253 4.375 3.125 3.7497 3.1e-4 6.8747-1.8747 9.375-5.625 2.9162-3.7497 4.1662-7.9162 3.75-12.5l-0.625-3.75-2.5-16.25-0.625-12.5c-3.1e-4 -1.6662 0.41563-4.1662 1.25-7.5 0.83281-3.7495 1.25-6.458 1.25-8.125-3.1e-4 -1.6662-2.0838-2.4995-6.25-2.5-2.917 4.7e-4 -5.8338 0.83438-8.75 2.5-2.0838 2.0838-4.3753 3.3338-6.875 3.75l-0.625-8.75c-6.2503 0.83438-10.417 5.6255-12.5 14.375m-201.25-1.875 1.25 6.25v1.875c1.6666 2.0838 2.9166 3.9588 3.75 5.625l3.75 3.75 4.375 5 5 3.75-5.625-11.25 5.625 1.25-0.625 2.5 3.75 3.75v2.5h-2.5v3.75c-2.0834-0.41562-4.1669-1.0406-6.25-1.875-1.6669-0.83281-3.3334-1.6662-5-2.5l-6.25-6.25c-3.3334-4.9997-6.2502-8.333-8.75-10l-3.125-0.625c-0.41719 0.83438-0.83281 1.8753-1.25 3.125-1.6e-4 1.25-0.20781 2.292-0.625 3.125l-1.875 11.875c1.25 7.0838 10.625 10.625 28.125 10.625 3.3331 3.1e-4 5.4166-0.625 6.25-1.875l2.5-4.375 2.5-2.5-8.125-15.625-1.875-18.125-4.375-1.875-5.625 3.125-5.625-1.25c-0.41719 0.41719-0.83281 0.625-1.25 0.625l-0.625 0.625v1.25c-1.6e-4 2.0838 0.83281 3.3338 2.5 3.75m252.5-6.25c-0.41719 2.0838-0.83437 3.9588-1.25 5.625-3.1e-4 1.667-3.1e-4 2.917 0 3.75-3.1e-4 5.8338 2.9162 11.042 8.75 15.625h5c5.833 0.83438 8.7495-1.8747 8.75-8.125-4.7e-4 -2.083-0.83437-3.7495-2.5-5-1.667 2.917-3.7505 4.3753-6.25 4.375-5.0005 3.1e-4 -8.3338-3.333-10-10-0.41719-0.83281-0.83437-1.6662-1.25-2.5-3.1e-4 -0.83281-0.41719-2.083-1.25-3.75m-108.12 5-1.25 2.5h-3.125l-5 31.25c1.25 2.917 2.9164 4.3753 5 4.375 4.1664-8.333 6.2497-17.916 6.25-28.75v-3.75c-3.1e-4 -2.4995-0.20781-4.3745-0.625-5.625h-1.25m-21.25 11.875h-1.25v5l1.25 1.875c3.3331 2.0838 5.6247 3.1253 6.875 3.125 4.1664 3.1e-4 6.2497-3.7497 6.25-11.25l-0.625-1.875-1.875 0.625 0.625 3.75c-3.1e-4 1.25-1.0422 1.8753-3.125 1.875-2.0836 3.1e-4 -4.7919-1.0406-8.125-3.125m-104.38 26.25v0.625l-5.625 1.25c-7.0834 1.667-12.083 2.5003-15 2.5h-0.625l-10-0.625c-1.6667 3.1e-4 -2.5002 0.625-2.5 1.875 0.41719 0.83438 0.83281 1.4594 1.25 1.875 0.41719 0.41719 0.83281 0.83438 1.25 1.25l1.25 1.875 1.25 5c3.3333 3.3338 6.0416 5.0003 8.125 5 10.417 3.1e-4 17.917-4.7912 22.5-14.375l-3.75 0.625-0.625 1.25-4.375-1.25 10.625-5-3.75-1.875m53.75 5c-4.1669 2.5003-6.2502 5.8338-6.25 10l0.625 3.125c3.7498 5.0003 8.1248 7.5003 13.125 7.5 1.6664 3.1e-4 3.3331 3.1e-4 5 0 2.0831-0.41719 4.1664-0.83281 6.25-1.25v-3.125c-1.25 0.41719-3.7502 0.625-7.5 0.625-6.6669 3.1e-4 -10-2.4997-10-7.5-1.6e-4 -2.4997 1.8748-3.5412 5.625-3.125h1.25c-0.41719-2.9162-3.1252-4.9997-8.125-6.25m319.38-1.25c-7.0839 5.8338-10.417 12.917-10 21.25v5.625l0.625 5.625 0.625 4.375c1.25 7.5003 2.7078 11.25 4.375 11.25 2.4995 3.1e-4 3.7495-1.4578 3.75-4.375-4.7e-4 -1.25-0.83437-3.7497-2.5-7.5-1.25-4.1664-1.8755-7.4997-1.875-10-4.7e-4 -5.833 1.4578-11.875 4.375-18.125l1.875-5.625-1.25-2.5m-365 13.125c-1.6e-4 2.917-1.0422 5.0003-3.125 6.25l-1.25-3.75 1.25-6.25c-1.6e-4 -0.83281-0.41719-1.25-1.25-1.25-0.83281 1.667-1.8752 3.542-3.125 5.625-0.83281 1.667-1.8752 3.542-3.125 5.625-0.83281 0.83438-1.6669 1.4594-2.5 1.875-0.83281 0.41719-1.4578 0.83438-1.875 1.25l-11.875 4.375v2.5l3.125 1.875 5.625 3.75h1.25c6.2498 3.1e-4 11.667-3.1247 16.25-9.375 0.83281-3.333 1.25-5.208 1.25-5.625-1.6e-4 -3.333-0.20781-5.6247-0.625-6.875m338.12-3.125-1.875 0.625-8.125 2.5-18.75 6.875c-9.5838 3.7503-17.084 5.417-22.5 5l-10-1.25v1.25c4.9995 1.667 9.7912 2.5003 14.375 2.5 2.0828 3.1e-4 9.1662-1.6664 21.25-5 4.1662-1.25 7.9162-1.8747 11.25-1.875 2.4995 3.1e-4 6.4578 2.0836 11.875 6.25 2.0828 2.917 2.9161 5.0003 2.5 6.25v2.5c-1.25 2.917-3.3338 5.0003-6.25 6.25h-5c1.25 2.917 3.3328 4.3753 6.25 4.375 9.5828 3.1e-4 14.375-4.9997 14.375-15-4.7e-4 -2.083-1.25-5.4164-3.75-10h3.125c1.6661 3.1e-4 2.4995-0.625 2.5-1.875-4.7e-4 -2.083-1.4594-4.583-4.375-7.5l-6.875-1.875m45 3.125c-1.6672 2.917-2.5005 5.417-2.5 7.5v0.625l1.875 9.375v6.875l0.625 4.375c-4.7e-4 6.2503-1.0422 11.459-3.125 15.625-1.6672 4.167-2.5005 6.667-2.5 7.5-4.7e-4 1.25 0.83281 3.3336 2.5 6.25 5.8328-9.583 8.7495-21.25 8.75-35-4.7e-4 -9.1664-1.8755-16.875-5.625-23.125m-140.62 1.875-20 23.125-10.625 11.25-33.75 40.625 2.5 3.75 63.75-71.25c2.083-2.083 3.1245-3.5412 3.125-4.375-4.7e-4 -1.25-1.667-2.2912-5-3.125m-311.25 7.5-2.5 1.875-0.625 4.375 1.25 7.5 0.625 1.875 11.25 10-0.625-5-4.375-5c-0.83281-0.83281-1.25-1.8747-1.25-3.125-1.6e-4 -1.6664 0.83281-2.4997 2.5-2.5 1.6666 3.1e-4 3.9583 1.4578 6.875 4.375 3.7498 10.417 12.5 18.75 26.25 25v-1.875c-9.5834-7.4997-16.875-14.791-21.875-21.875-5.0002-7.4997-8.3334-11.666-10-12.5-1.25-1.25-3.7502-2.2914-7.5-3.125m76.875-0.625 1.25 4.375c1.25 3.3336 2.4998 5.0003 3.75 5 2.4998 3.1e-4 4.5831-0.83281 6.25-2.5l-11.25-6.875m271.88 31.25c-2.0838-2.083-3.1255-4.3747-3.125-6.875v-0.625c-2.917 0.41719-4.3755 1.8753-4.375 4.375-4.7e-4 6.2503 3.333 9.3753 10 9.375 5.8328 3.1e-4 9.1662-1.6664 10-5-4.7e-4 -2.083 0.20781-3.1247 0.625-3.125l-1.25-12.5c-4.7e-4 -3.7497 2.2912-5.6247 6.875-5.625 0.41563 3.1e-4 2.9162 0.625 7.5 1.875 2.0828 3.3336 3.1245 5.6253 3.125 6.875v2.5l-3.125 7.5-3.75 4.375c-3.7505 3.7503-9.3755 7.0836-16.875 10-0.83437 0.41719-2.292 1.0422-4.375 1.875-2.0838 0.83438-4.792 1.667-8.125 2.5-2.0838 0.83281-3.1255 1.6669-3.125 2.5-4.7e-4 0.83438 0.20781 1.25 0.625 1.25l1.875-0.625 5-1.875 27.5-10c9.5828-3.7497 14.375-10.625 14.375-20.625-4.7e-4 -8.333-5.4172-12.5-16.25-12.5-9.1672 3.1e-4 -14.167 3.542-15 10.625l-1.875 11.25-6.25 2.5m-19.375-22.5-3.75 3.125c-0.83437 1.667-1.4594 2.7086-1.875 3.125l-2.5-0.625-1.875-1.25c-3.3338-0.83281-5.2088-1.25-5.625-1.25-2.5005 3.1e-4 -4.167 0.20938-5 0.625-5.0005 3.3336-7.917 6.2503-8.75 8.75l-0.625 5 0.625 6.25c-3.1e-4 2.917-1.0422 4.3753-3.125 4.375-2.0838 3.1e-4 -3.9588-0.625-5.625-1.875v1.25c1.25 4.5836 3.1247 6.8753 5.625 6.875 5.833 3.1e-4 8.5412-3.333 8.125-10v-0.625l-0.625-5c-4.7e-4 -3.333 2.083-4.9997 6.25-5 1.25 3.1e-4 2.9162 0.625 5 1.875l2.5 1.875 1.875 5c-2.0838 8.7503-5.2088 14.584-9.375 17.5l-11.875 7.5-2.5 1.875-1.875 1.875c-0.83437 0.41719-2.0838 1.4594-3.75 3.125-2.917 5.8336-4.3753 10.417-4.375 13.75-3.1e-4 0.83281-3.1e-4 1.8753 0 3.125 0.41563 0.83281 0.83281 2.0836 1.25 3.75l-8.75 6.25 0.625 3.125 3.75 4.375 0.625 1.25h2.5c2.083-3.3331 4.3747-5.2081 6.875-5.625l2.5 8.125c3.333 2.0836 5.833 3.1252 7.5 3.125 2.4995 1.6e-4 4.9995-0.625 7.5-1.875l22.5-10h1.875c3.333 3.1e-4 7.083 1.4578 11.25 4.375l0.625 1.25 1.25 8.75c7.9162-1.6664 11.875-6.6664 11.875-15-4.7e-4 -2.0831-0.83437-4.5831-2.5-7.5l1.25-2.5h-6.875l-8.75-1.25-0.625-1.25c0.83281-1.6664 1.6662-3.1247 2.5-4.375 0.83281-1.6664 1.4578-3.5414 1.875-5.625l-3.75-1.25-5.625-0.625c-4.5838 3.1e-4 -8.9588 1.25-13.125 3.75l-5.625 3.125-2.5 0.625-5 8.125h-5.625l-1.25-1.25v-2.5c-0.83437-2.9164-4.7e-4 -4.5831 2.5-5l10.625-3.125c9.9995-2.9164 16.25-12.291 18.75-28.125l-2.5-1.25-3.125 1.875h-3.125c3.7495-6.2497 6.0412-12.291 6.875-18.125l-5-16.875m-188.75 3.125-6.875 3.75c-3.3336 5.8336-5.0002 9.792-5 11.875l0.625 4.375 1.875 6.875c4.5831 5.8336 9.3748 8.7503 14.375 8.75 9.9997 3.1e-4 15-4.7914 15-14.375-3.1e-4 -1.6664-1.25-4.3747-3.75-8.125-3.3336-2.083-6.0419-3.1247-8.125-3.125-2.0836 3.1e-4 -3.9586 1.4594-5.625 4.375l7.5 3.125c0.83281 3.3336 1.25 4.792 1.25 4.375-3.1e-4 3.7503-2.0836 5.417-6.25 5h-5l-2.5-2.5c-2.9169-2.9164-4.3752-5.833-4.375-8.75-1.6e-4 -3.333 1.4578-6.2497 4.375-8.75l6.875-6.25-1.25-1.875-3.125 1.25m-80.625 16.25 1.25 3.125 10 6.875c1.25 0.83438 1.8748 1.4578 1.875 1.875h0.625c2.9166 1.667 6.6666 2.5003 11.25 2.5h1.875c-0.41719-2.4997-1.8752-4.1664-4.375-5-9.5834-3.333-14.375-7.708-14.375-13.125-1.6e-4 -4.1664 2.4998-6.2497 7.5-6.25 2.4998 3.1e-4 6.6666 2.292 12.5 6.875-2.0834-8.7497-7.0834-13.125-15-13.125-9.5834 3.1e-4 -14.167 3.9586-13.75 11.875l0.625 4.375m48.75-15.625 1.875 0.625c-7.9169 1.25-11.667 4.5836-11.25 10l0.625 5 1.25 1.875c2.0831 1.25 3.3331 2.7086 3.75 4.375-9.1669 3.1e-4 -13.75 2.0836-13.75 6.25-1.6e-4 1.667 0.625 3.7503 1.875 6.25 2.4998 3.7503 6.2498 6.2503 11.25 7.5v-1.875l-3.75-2.5 18.75 6.25-3.125 0.625c-2.9169 3.1e-4 -6.0419-0.83281-9.375-2.5v1.25l0.625 1.25c0.41719 0.83438 1.6664 1.4578 3.75 1.875l11.875 1.875 14.375 1.875 8.125 3.75c0.41719 0.41719 0.625 1.25 0.625 2.5-3.1e-4 1.25-0.83437 2.0836-2.5 2.5l0.625 0.625-9.375-1.25-5-2.5-6.875-1.875c-5.0002-1.25-9.5836-1.8747-13.75-1.875-1.6669 3.1e-4 -6.6669 1.0422-15 3.125-7.9169 2.5003-13.542 5.4169-16.875 8.75l-5.625 6.875-3.125 2.5v2.5l7.5 1.875 0.625 2.5c-1.25 3.3336-1.8752 5.6253-1.875 6.875-1.6e-4 2.5002 0.20781 4.1669 0.625 5l0.625 3.75c4.5831 7.0836 11.667 10.625 21.25 10.625 8.7498 1.6e-4 14.166-4.1664 16.25-12.5l-1.25-1.875-1.25 3.125c-2.0836 2.5002-3.7502 3.7502-5 3.75-1.6669 1.6e-4 -4.3752-0.625-8.125-1.875-2.5002-2.9164-3.7502-5.6248-3.75-8.125-1.6e-4 -6.2497 3.7498-11.458 11.25-15.625 7.4998-4.1664 17.083-6.2497 28.75-6.25 8.7498 3.1e-4 19.166 2.7086 31.25 8.125l20 14.375c6.6664-6.6664 9.9997-10.833 10-12.5-3.1e-4 -1.25-1.8753-3.7497-5.625-7.5-1.25-0.83281-2.9169-2.0831-5-3.75-1.6669-2.0831-3.9586-4.1664-6.875-6.25l-1.875-1.25-11.875-8.125c-4.1669-2.9164-8.5419-5.2081-13.125-6.875-4.5836-2.0831-9.5836-3.9581-15-5.625l-8.125-4.375-5.625-3.125-8.75-8.125-1.875-11.25 6.25-6.875c-1.6e-4 -3.333-2.2919-4.583-6.875-3.75h-2.5m108.12 3.125c2.083 2.5003 4.9997 4.167 8.75 5v1.875c-3.1e-4 4.5836 1.0422 7.5003 3.125 8.75h1.25l1.875-5c0.83281-0.83281 1.6664-1.25 2.5-1.25 2.9164 3.1e-4 5.833 1.4594 8.75 4.375l1.25 1.875 0.625 1.25 1.25-4.375c-3.7503-5.4164-8.3336-9.3747-13.75-11.875v-1.875l-3.75 0.625-12.5-1.875 0.625 2.5m199.38 5-5.625 5-7.5 5.625c-1.25 0.41719-2.2922 0.83281-3.125 1.25-0.83438 0.41719-1.6672 0.83438-2.5 1.25-3.3338 2.0836-5.8338 3.7503-7.5 5-1.25 0.83281-1.8755 1.25-1.875 1.25-1.6672 0.41719-5.6255 1.667-11.875 3.75l-40 13.75-1.875 3.75v1.875l6.875-0.625 15-5 25-7.5c12.916-3.7497 26.25-10.625 40-20.625 1.6661-1.6664 2.4995-3.1247 2.5-4.375l-0.625-2.5c-0.83438-3.7497-1.6672-5.6247-2.5-5.625l-4.375 3.75m22.5 5.625-5.625 1.875-4.375 2.5-3.75 6.875-1.875 2.5v1.875l-1.25 1.25v2.5l-2.5 1.875v3.75l-1.875 4.375-0.625 4.375h5c4.1661-18.75 9.7911-28.125 16.875-28.125l7.5 1.25 1.25-3.75-1.875-0.625-6.875-2.5m-431.88 17.5-0.625-4.375 0.625-4.375-6.875-2.5-1.875 5c-0.41719 0.41719-0.625 1.4594-0.625 3.125-1.6e-4 2.0836 1.25 3.1253 3.75 3.125h5.625m5 0.625c2.4998 2.917 4.5833 4.3753 6.25 4.375 3.7498 3.1e-4 5.6248-2.4997 5.625-7.5-1.6e-4 -3.333-1.8752-4.9997-5.625-5-4.5834 3.1e-4 -6.8752 1.667-6.875 5l0.625 3.125m424.38-6.25-1.875 3.125 1.875 2.5 1.25 4.375 2.5 5.625v1.25l3.125 7.5c0.41562 2.9169 1.25 4.3753 2.5 4.375 2.4995 3.1e-4 3.7495-1.4578 3.75-4.375-4.7e-4 -1.25-0.20938-2.0831-0.625-2.5l-1.875-3.75-5-11.875-2.5-4.375-0.625-3.125c-0.41719 3.1e-4 -0.83438-0.20781-1.25-0.625l-0.625 0.625-0.625 1.25m-398.75 9.375-2.5-2.5c-6.2502 3.1e-4 -9.3752 1.4578-9.375 4.375-1.6e-4 3.3336 2.0833 5.0003 6.25 5 5.8333 3.1e-4 8.7498-1.25 8.75-3.75-1.6e-4 -0.83281-0.20781-1.4578-0.625-1.875l-2.5-1.25m418.12-3.75c-2.0839 4.5836-3.3339 9.7919-3.75 15.625-0.41719 5.4169-2.0839 9.7919-5 13.125-2.9172 1.6669-5.4172 2.5003-7.5 2.5-1.25 3.1e-4 -3.1255-0.625-5.625-1.875-2.5005-1.6664-4.1672-2.4997-5-2.5-1.6672 3.1e-4 -2.5005 0.83438-2.5 2.5v0.625c0.41562 2.9169 2.2911 4.3753 5.625 4.375l3.125 1.875c2.4995 0.83281 4.3745 1.25 5.625 1.25 11.666 3.1e-4 17.499-10.625 17.5-31.875-6.3e-4 0.41719-0.41719-1.4578-1.25-5.625h-1.25m-190.62 28.125 1.875 1.875v1.25c0.41562 0.41719 0.83281 0.625 1.25 0.625 2.083 3.1e-4 3.333-2.0831 3.75-6.25 2.083-9.9997 5.833-15.208 11.25-15.625h-1.25l3.125 4.375 0.625 3.75c3.7497-1.6664 5.6247-4.1664 5.625-7.5-3.1e-4 -5.4164-3.1253-8.1247-9.375-8.125-3.3338 3.1e-4 -6.042 1.667-8.125 5-3.7503 6.2503-5.6253 10.625-5.625 13.125v1.875l0.625 3.125c-3.1e-4 1.6669-0.41719 2.5003-1.25 2.5h-2.5m-261.88-23.125c-2.9167 0.41719-4.3752 1.25-4.375 2.5-1.6e-4 -0.41562 0.41719 1.0422 1.25 4.375 2.9166 2.5003 5.2083 3.7503 6.875 3.75 2.4998 3.1e-4 3.7498-0.625 3.75-1.875v-7.5h-5.625l-1.875-1.25m392.5 3.125v1.875c2.9162-1.25 5.4162-1.8747 7.5-1.875 2.9161 3.1e-4 5.8328 0.83438 8.75 2.5l1.875 1.25c0.41562-1.25 1.0406-2.2914 1.875-3.125-4.7e-4 -4.1664-4.3755-6.2497-13.125-6.25-4.1672 3.1e-4 -6.4588 1.8753-6.875 5.625m-225 8.75 6.25 6.875 1.875 1.875 3.75 3.125 9.375 8.125 1.875 2.5 5 5c0.41562-0.41719 0.625-1.25 0.625-2.5-3.1e-4 -1.6664-4.5836-6.4581-13.75-14.375l-2.5-2.5c-5.8336-4.5831-8.7503-8.3331-8.75-11.25-3.1e-4 -1.6664 0.625-2.4997 1.875-2.5 0.83281 3.1e-4 2.2914 0.625 4.375 1.875-2.0836-5.8331-4.7919-8.7497-8.125-8.75-3.3336 3.1e-4 -5.0003 1.6669-5 5-3.1e-4 1.6669 1.0406 4.1669 3.125 7.5m-150-6.875-1.875 0.625-3.125 1.25c-1.25 2.0836-1.8752 3.5419-1.875 4.375v2.5l0.625 1.25c0.41719 0.41719 1.4578 0.625 3.125 0.625 4.1666 3.1e-4 6.2498-2.4997 6.25-7.5-1.6e-4 0.41719-0.41719-0.625-1.25-3.125h-1.875m69.375 8.125c-4.5834-0.83281-8.9584-1.4578-13.125-1.875-3.7502-0.83281-7.2919-1.25-10.625-1.25-1.25 3.1e-4 -3.1252 0.20938-5.625 0.625-2.5002 0.41719-5.2084 0.83281-8.125 1.25-2.9169 0.41719-5.6252 0.83438-8.125 1.25-2.0834 0.41719-3.5417 0.625-4.375 0.625-2.5002-0.41719-4.5834-0.625-6.25-0.625-1.6667-0.41562-2.9167-0.625-3.75-0.625-1.25 3.1e-4 -1.8752 0.41719-1.875 1.25-1.6e-4 3.3336 3.9583 4.7919 11.875 4.375l5-0.625 21.875-3.125h8.125l8.125-0.625 3.75 0.625 3.125-1.25m341.25-1.875c-5.4172 2.9169-10.625 4.3753-15.625 4.375-4.1672 3.1e-4 -11.25-1.4578-21.25-4.375-8.3338-2.0831-14.375-3.1247-18.125-3.125-4.7e-4 3.1e-4 -5.2088 1.0422-15.625 3.125l-9.375 1.875h1.25-1.875l-1.875 2.5 3.125 1.25v2.5l20.625-4.375 6.875 1.25h9.375l23.125 5h6.25l10.625-1.875 0.625-0.625c0.41562 3.1e-4 0.83281-0.20781 1.25-0.625l2.5-2.5 3.125-1.25c1.6661-0.41719 2.4995-1.6664 2.5-3.75-4.7e-4 -1.6664-0.83438-2.4997-2.5-2.5l-0.625 0.625-4.375 2.5m-416.88 8.125c-3.3334-3.3331-6.2502-4.9997-8.75-5-2.0834 3.1e-4 -3.1252 1.4578-3.125 4.375-1.6e-4 4.5836 2.4998 6.8753 7.5 6.875 2.4998 3.1e-4 3.9583-2.0831 4.375-6.25m249.38-6.25-1.25 3.125-3.75 2.5-2.5 7.5-24.375 68.75-3.125 21.25v4.375l5-6.25 6.25-25 16.25-40 5.625-19.375c1.6662-4.5831 2.4997-8.5414 2.5-11.875l-0.625-5m-245 11.875c2.0833 2.0836 3.9583 3.1253 5.625 3.125 3.7498 3.1e-4 5.6248-1.6664 5.625-5-1.6e-4 -2.9164-1.4578-4.3747-4.375-4.375-4.5834 3.1e-4 -6.8752 1.4578-6.875 4.375v1.875m60.625-6.25c-14.167 2.5003-29.375 9.5836-45.625 21.25l-3.125 1.875c-5.8334 4.5836-11.458 13.125-16.875 25.625-0.83281 2.0836-2.0834 4.5836-3.75 7.5l-3.75 12.5c-2.5002 14.584-3.5417 25.625-3.125 33.125v6.25c-1.6e-4 5.8334 2.7083 15.417 8.125 28.75l1.875 4.375 2.5 5c-3.7502 0.83281-6.0417 3.5417-6.875 8.125 0.83281 2.5002 1.8748 4.1667 3.125 5l1.875 3.75 3.75 5.625c2.9166 5.8334 4.3748 10.833 4.375 15-1.6e-4 2.0834-1.6667 4.1667-5 6.25h-3.125c-5.8334-2.0833-8.7502-4.9998-8.75-8.75-1.6e-4 -1.6666 0.41719-4.1666 1.25-7.5 1.25-3.7498 1.8748-6.6666 1.875-8.75-1.6e-4 -4.9998-1.8752-7.4998-5.625-7.5l-1.25 1.25c-1.6e-4 0.83281-1.6e-4 1.6667 0 2.5 0.41719 0.83281 0.83281 2.0834 1.25 3.75v6.25l-1.875 8.125c0.41719 12.917 5.2083 19.375 14.375 19.375 10.833 0 16.042-5.2083 15.625-15.625v-3.125c4.5833 3.3334 8.7498 5.0002 12.5 5v-6.875c-0.83281-5.4166-2.0834-8.9583-3.75-10.625l-8.125-6.25c-2.5002-1.6666-3.7502-3.5416-3.75-5.625-1.6e-4 -3.7498 1.8748-5.6248 5.625-5.625 2.9166 1.6e-4 5.8333 1.4578 8.75 4.375 7.0831 7.0834 13.958 10.625 20.625 10.625 6.2498 1.6e-4 11.042-2.2916 14.375-6.875l-1.875-1.25-2.5-0.625h-3.125l0.625-3.125c15.417-1.6666 23.125-7.2916 23.125-16.875-1.6e-4 -0.83281-0.20781-1.8748-0.625-3.125-1.6e-4 -1.6666-0.20781-3.5416-0.625-5.625l-1.875 1.25c-1.6669 5.0002-6.0419 9.1669-13.125 12.5-3.3334 1.6667-6.6669 2.5002-10 2.5l-6.875-0.625h-8.125l-3.125-1.875-5-3.125c-5.4167-4.1666-9.3752-6.2498-11.875-6.25-2.9167 1.6e-4 -5.2084 3.3334-6.875 10l-1.875-0.625c-4.5834-6.2498-7.0834-10.625-7.5-13.125l-4.375-17.5c-0.83281-2.4998-1.4578-4.3748-1.875-5.625-0.41719-1.6666-0.625-3.5416-0.625-5.625v-1.875l1.25-13.75 1.25-11.25 0.625-1.25 3.125-9.375 12.5-25c4.5833-9.1664 12.5-15.833 23.75-20l18.125-7.5c2.0831-0.41719 5.4166-3.5414 10-9.375m281.25 3.75h-9.375l-0.625 5 6.25 0.625h12.5c9.9995 3.1e-4 20 2.5003 30 7.5 1.25 0.41719 2.2912 0.83438 3.125 1.25 1.25 0.41719 2.2912 0.83281 3.125 1.25l5 3.125v-5.625c-4.7e-4 -1.6664-1.0422-3.1247-3.125-4.375-8.3338-3.3331-15.209-5.6247-20.625-6.875l-11.25-2.5h-14.375l-0.625 0.625m53.75 2.5v20l3.125 16.25 0.625 4.375c2.0828 3.3336 7.7078 8.7502 16.875 16.25l-1.875-6.875-6.875-5.625c-2.5005-2.0831-4.7922-10.625-6.875-25.625-0.41719-2.0831-0.83438-3.5414-1.25-4.375-4.7e-4 -1.25-4.7e-4 -2.0831 0-2.5-4.7e-4 0.41719-4.7e-4 0.20938 0-0.625 0.41562-1.25 0.83281-2.9164 1.25-5v-3.75c-4.7e-4 -2.4997-1.0422-3.7497-3.125-3.75h-0.625l-1.25 1.25m-398.12 20c-2.5002 3.3336-4.5834 5.0003-6.25 5l-3.75-0.625c-2.9167-2.4997-4.3752-4.7914-4.375-6.875-1.6e-4 -6.2497 3.9583-9.3747 11.875-9.375-2.0834-2.0831-3.5417-3.1247-4.375-3.125-7.0834 3.1e-4 -10.625 5.4169-10.625 16.25-1.6e-4 6.2503 0.83281 11.042 2.5 14.375l0.625 5-2.5 5.625 1.875-1.875c3.3333-1.25 5.8333-3.3331 7.5-6.25 10.833-16.25 21.25-27.5 31.25-33.75l-0.625-1.25-0.625 0.625-8.125 3.75c-4.1667 1.6669-8.9584 5.8336-14.375 12.5m351.88-14.375-8.125 0.625c1.25 2.5003 3.1245 3.7503 5.625 3.75h2.5l3.75-0.625c4.9995-0.41719 11.458 2.2919 19.375 8.125 2.0828 3.3336 3.1245 5.8336 3.125 7.5-4.7e-4 4.5836-2.7088 6.8752-8.125 6.875-0.83438 1.6e-4 -2.9172-1.0406-6.25-3.125l-3.75-4.375-1.875-6.875-2.5 1.25c-0.41719 0.41719-0.625 1.25-0.625 2.5v1.25c-4.7e-4 2.9169 0.20781 5.0003 0.625 6.25 4.1662 7.9169 9.9995 11.875 17.5 11.875 2.9162 1.6e-4 5.8328-0.83281 8.75-2.5l1.25 11.875c2.9162 3.7502 5.6245 5.6252 8.125 5.625 2.4995 1.6e-4 5.4161-0.83281 8.75-2.5-4.1672-1.6664-6.4589-3.9581-6.875-6.875l-1.875-19.375c-0.41719-0.83281-1.25-2.0831-2.5-3.75-0.83438-1.6664-2.0838-3.7497-3.75-6.25l-2.5-2.5c-1.6672-0.83281-3.3338-1.4578-5-1.875-1.25-0.83281-2.7088-1.6664-4.375-2.5l-1.25-0.625-20-3.75m83.125 1.875c-1.25 0.83438-1.8755 1.6669-1.875 2.5v0.625c0.41562 1.6669 0.83281 4.1669 1.25 7.5 0.83281 3.3336 1.25 6.0419 1.25 8.125-4.7e-4 0.41719-0.20938 1.25-0.625 2.5-4.7e-4 1.25-0.20938 3.3336-0.625 6.25l-0.625 2.5-0.625 3.125 3.75 6.875c2.4995-9.1664 3.7495-16.458 3.75-21.875v-3.75c-4.7e-4 -2.4997-0.20938-4.3747-0.625-5.625-1.6672-6.6664-2.7089-9.9997-3.125-10h-1.25l-0.625 1.25m-186.25 0.625c-0.83438 3.3336-1.25 5.0003-1.25 5-3.1e-4 3.1e-4 -3.1e-4 0.20938 0 0.625 0.41562 0.41719 0.83281 1.0422 1.25 1.875l11.25 14.375 5 6.25c1.6662 2.0836 3.333 4.1669 5 6.25 1.6662 2.0836 3.5412 4.1669 5.625 6.25l6.875 8.125 3.125 3.125 8.75 10.625 20 25 6.25 6.25 1.875 2.5 8.125 10 6.875 8.75 1.875 1.875 3.75 4.375 6.25 7.5 3.125 4.375 1.875 1.25 0.625 0.625 4.375 5.625 3.125 3.125 7.5 8.75 6.25 8.125 10 13.125c0.83281 0.83281 1.6662 1.6667 2.5 2.5 1.25 0.83281 2.7078 1.875 4.375 3.125 2.4995 2.9167 4.5828 4.375 6.25 4.375l3.75-0.625-2.5-1.25-3.75-4.375-23.125-26.875-35-41.25-5-7.5-5-5c-0.83438-1.25-2.0838-2.9166-3.75-5-0.41719-0.41719-0.83438-1.0422-1.25-1.875-0.41719-0.83281-1.0422-1.6666-1.875-2.5l-6.25-6.875-66.875-80.625m-128.75 1.875c-5.4169 0.83281-10.834 4.5836-16.25 11.25-0.83281 4.1669-1.25 6.2503-1.25 6.25-1.6e-4 2.0836 0.20781 3.5419 0.625 4.375l1.25 5c6.6664 7.5002 11.875 12.084 15.625 13.75l17.5 8.75c0.83281 0.83438 1.8747 1.8752 3.125 3.125 1.6664 1.25 3.3331 2.7086 5 4.375l1.25 3.125c0.41719-0.41719 0.625-1.25 0.625-2.5-0.41719-0.41719-0.83438-0.83281-1.25-1.25-0.41719-0.83281-1.0422-1.8748-1.875-3.125l-2.5-3.125c-0.41719-0.41719-1.6669-1.25-3.75-2.5-1.6669-1.6664-4.5836-3.9581-8.75-6.875-10.417-7.4998-15.625-15.416-15.625-23.75-1.6e-4 -6.6664 3.1248-9.9997 9.375-10 7.0831 3.1e-4 10.625 2.2919 10.625 6.875-3.1e-4 2.9169-0.20938 4.7919-0.625 5.625l-1.25 2.5c-2.5003 2.0836-3.5419 3.9586-3.125 5.625v3.75l0.625 2.5 1.25 0.625c0.41719 3.7502 3.3331 5.6252 8.75 5.625 2.0831 1.6e-4 3.9581-0.83281 5.625-2.5l0.625-1.25h-5l-2.5-2.5-1.875-1.25c-0.83438-0.83281-1.25-2.0831-1.25-3.75-3.1e-4 -1.25 0.20781-2.0831 0.625-2.5l3.75-12.5 0.625-1.25c-3.1e-4 -7.0831-3.7503-11.041-11.25-11.875l-8.75-0.625m126.25 6.875-14.375 39.375 1.875 1.875 13.125 15 24.375 29.375 23.125 28.75 2.5 3.125 8.125 9.375 18.125 21.25 9.375 12.5c2.4995 3.3334 3.7495 6.0417 3.75 8.125-4.7e-4 4.5834-4.5838 8.125-13.75 10.625-8.7505 2.5-13.542 5.625-14.375 9.375l8.75 1.25c1.25 0.41719 2.9162 0.625 5 0.625h3.125l53.125-1.25 6.25 1.25c4.1662 1.25 9.1661 1.875 15 1.875 15.416 0 23.125-1.4578 23.125-4.375-4.7e-4 -1.25-0.625-2.5-1.875-3.75l-1.25-0.625-5-1.875-6.875-1.25-6.25-1.25-5.625-3.125-5-4.375-3.125-1.875c-0.83438-1.25-1.6672-2.2916-2.5-3.125-0.83438-0.83281-1.4594-1.4578-1.875-1.875l-5-6.875-131.88-158.12m161.25 8.75 8.125 8.75 8.125 11.25 1.875 2.5 2.5 5.625 1.25 3.125c4.1661 10.417 6.0411 21.875 5.625 34.375l-0.625 3.75-3.75 20.625 0.625 5h-5.625c-2.0839-0.41719-3.9589-0.625-5.625-0.625-1.25-0.41719-2.2922-0.625-3.125-0.625-3.7505 1.6e-4 -7.9172 0.83281-12.5 2.5-0.83438 0.83281-1.4594 1.4578-1.875 1.875-4.7e-4 0.41719-0.20938 0.83281-0.625 1.25-4.7e-4 1.25 0.625 1.8752 1.875 1.875 0.83281 1.6e-4 2.4995-0.41719 5-1.25 2.4995-1.25 4.5828-1.8748 6.25-1.875 3.7495 1.6e-4 7.7078 1.4578 11.875 4.375l1.25-0.625 4.375 5 4.375 3.75v1.25l0.625 2.5c0.83281 4.1667 1.25 7.2917 1.25 9.375-4.7e-4 3.3334-0.83438 6.6667-2.5 10l-1.875 1.875c-1.6672 1.6667-2.5005 2.9167-2.5 3.75-4.7e-4 0.41719 0.41562 1.0422 1.25 1.875h0.625c0.83281 1.6e-4 2.2911-1.0422 4.375-3.125 2.9161-4.1666 4.7911-8.3333 5.625-12.5l0.625-4.375-1.875-11.25-2.5-6.25-1.875-5.625c3.3328-15.417 4.9994-27.292 5-35.625-6.3e-4 -19.583-5.8339-37.083-17.5-52.5-0.83438-0.83281-1.6672-1.6664-2.5-2.5-0.83438-1.25-1.6672-2.4998-2.5-3.75l-3.125-3.75-1.875-1.875c-0.41719-0.83281-1.0422-1.6664-1.875-2.5l-3.75-3.75-3.125-0.625 0.625 8.75m-260-3.75c-2.9169 1.6669-4.3753 3.5419-4.375 5.625-3.1e-4 2.0836 0.83281 4.5836 2.5 7.5h3.125c0.41719-4.9998 1.6664-7.4997 3.75-7.5 2.0831 3.1e-4 4.7914 0.625 8.125 1.875l3.125 3.125 2.5 0.625v-0.625c-3.1e-4 -3.3331-2.0836-5.8331-6.25-7.5l-6.875-3.125-5-0.625-0.625 0.625m-115.62 8.75c-2.5002 3.7502-3.7502 7.5002-3.75 11.25v3.75c-1.6e-4 1.6669 0.20781 3.1252 0.625 4.375l0.625 1.875c2.4998 2.0836 4.3748 3.9586 5.625 5.625l-5 6.875c-1.6669 2.9169-2.5002 5.0002-2.5 6.25v0.625l1.25 10.625v6.25l0.625 3.125c-1.6e-4 4.1669-1.0422 8.7502-3.125 13.75l-3.125 5-6.875 5.625v0.625c-1.6e-4 2.0834 1.4578 3.9584 4.375 5.625 5.4166 2.5002 10.833 3.7502 16.25 3.75 6.2498 1.6e-4 12.708-2.4998 19.375-7.5 7.0831-4.9998 11.25-10.625 12.5-16.875 1.6666-6.6666 2.7081-10.417 3.125-11.25 0.83281-1.25 2.7081-2.9166 5.625-5l1.25 2.5c-0.83438 2.5002-1.6669 4.3752-2.5 5.625-0.41719 1.25-0.625 1.8752-0.625 1.875-1.6e-4 8.3334 6.0414 12.5 18.125 12.5 3.3331 1.6e-4 6.2498-1.6666 8.75-5 2.4998-3.3331 3.7498-5.2081 3.75-5.625-1.6e-4 -1.25-1.4594-2.7081-4.375-4.375-2.5002-1.6666-3.7502-3.1248-3.75-4.375-1.6e-4 -4.5831 2.0831-8.5414 6.25-11.875 4.1664-3.3331 8.9581-4.9998 14.375-5 6.6664 1.6e-4 13.541 2.2919 20.625 6.875l5.625 3.125c-5.0003-7.4998-13.542-12.291-25.625-14.375l2.5-1.875c0.83281 0.41719 2.2914 0.625 4.375 0.625 0.41719 1.6e-4 1.0406-1.0422 1.875-3.125l-4.375-1.875-1.875-0.625-3.125-1.25c-5.4169-1.6664-10.209-2.4998-14.375-2.5l-6.25 0.625h2.5-4.375c-2.0836 1.6e-4 -4.3752 0.41719-6.875 1.25l-4.375 2.5-4.375 1.25-5.625 3.125-1.25 1.875-5.625 5c-0.83281 0.83438-1.4578 2.0836-1.875 3.75-1.25 3.3336-3.1252 5.2084-5.625 5.625l2.5-1.25-3.125 0.625c2.0831-7.4998 7.0831-13.75 15-18.75 7.9164-5.4164 16.666-8.1248 26.25-8.125 16.666 1.6e-4 30 5.4169 40 16.25l4.375 4.375 3.75 5c-1.25-8.7498-8.1253-16.458-20.625-23.125l-2.5-1.25h-2.5c-8.3336-4.1664-18.125-6.2498-29.375-6.25h-1.875c-10.834 1.25-16.875 1.8752-18.125 1.875-5.0002 1.6e-4 -9.1669-0.83281-12.5-2.5l-2.5-0.625-3.125-1.25-7.5-4.375c-3.7502-3.7498-5.8334-6.4581-6.25-8.125-1.25-6.2497-2.0834-9.5831-2.5-10-1.6e-4 -0.41719-0.20781-0.625-0.625-0.625h-0.625l-6.875 7.5m139.38 33.125-13.75 16.25c-1.25 0.83281-1.8753 1.4578-1.875 1.875-3.1e-4 1.25 0.20781 2.0834 0.625 2.5l0.625 4.375 48.125-55c0.41719-0.83281 0.83281-1.6664 1.25-2.5 0.41719-0.83281 0.83281-1.8748 1.25-3.125-1.25-1.25-2.0836-1.8747-2.5-1.875-1.667 0.41719-2.917 1.4594-3.75 3.125-1.667 2.0836-3.3336 4.3752-5 6.875-1.667 2.0836-3.542 4.3752-5.625 6.875l-15 16.25-4.375 4.375m125-31.875 0.625 5-1.25 4.375c-4.5838 2.5002-7.5005 5.4169-8.75 8.75l2.5 0.625 5-2.5 5.625-3.125c2.4995-1.25 3.7495-3.9581 3.75-8.125-4.7e-4 -3.7498-1.667-5.6248-5-5.625l-1.25 0.625h-1.25m-91.25 10.625-0.625 5c0.83281-0.41719 2.708-0.625 5.625-0.625 2.9164 1.6e-4 4.1664 3.3336 3.75 10l-2.5 13.75v8.75c4.1664-9.5831 6.2497-19.791 6.25-30.625-3.1e-4 -6.6664-2.292-9.9998-6.875-10h-1.25l-0.625 0.625-3.75 3.125m103.12 1.875-15.625 8.125c-4.7e-4 2.9169 1.0406 5.0002 3.125 6.25l21.25-10.625c2.9162-1.6664 8.958-2.4998 18.125-2.5 12.5 1.6e-4 23.333 3.3336 32.5 10l5 4.375c0.83281 1.6669 1.8745 3.7502 3.125 6.25 1.25 2.0836 2.2912 4.5836 3.125 7.5l1.875 8.75h5c0.41563-1.6666 0.625-2.9164 0.625-3.75 0.41563-0.83281 0.625-1.6664 0.625-2.5-4.7e-4 -9.1664-5.6255-18.125-16.875-26.875-12.084-7.4998-23.334-11.25-33.75-11.25-10.834 1.6e-4 -20.209 2.0836-28.125 6.25m-118.12 13.125 1.875 3.75c2.9164 3.3336 4.583 7.5002 5 12.5l1.875 5.625 8.75 11.875v-10c-3.1e-4 -5.4164-1.4578-13.75-4.375-25-2.0836-6.2498-3.7503-9.3748-5-9.375l-8.125 10.625m-183.75-8.125-1.25 3.125-3.75 11.25-1.25 15-0.625 11.25c-1.6e-4 3.3334 1.25 6.6669 3.75 10 2.4998 3.3334 4.7916 5.0002 6.875 5 7.9166 1.6e-4 11.875-4.7916 11.875-14.375-1.6e-4 -3.7498-0.20781-6.2498-0.625-7.5h-1.25l-1.25-6.875c-1.25-5.4164-1.8752-9.1664-1.875-11.25-1.6e-4 -3.7498 0.83281-7.4998 2.5-11.25-4.5834 3.3336-6.8752 6.4586-6.875 9.375-1.6e-4 2.5002 0.83281 6.2502 2.5 11.25 1.6666 4.5836 2.4998 8.1252 2.5 10.625-1.6e-4 0.83281-0.41719 1.6669-1.25 2.5l-1.25 1.25-2.5 3.125c-0.41719 0.41719-0.83281 0.625-1.25 0.625-5.4167 1.6e-4 -8.1252-8.1248-8.125-24.375-1.6e-4 -2.4998 0.20781-4.7914 0.625-6.875 0.83281-2.0831 2.0833-5.4164 3.75-10l-1.25-1.875m301.88 5.625c-1.25 0.41719-3.542 2.2919-6.875 5.625l-2.5 0.625 0.625 2.5h3.125l9.375-5h5.625c5.4162-0.41719 11.041 1.25 16.875 5v1.25c2.083 3.3336 3.1245 5.4169 3.125 6.25-4.7e-4 6.6669-3.542 10-10.625 10-4.5838-1.6664-7.917-4.7914-10-9.375-2.0838 1.6e-4 -3.1255 1.0422-3.125 3.125-4.7e-4 2.9169 1.8745 6.8752 5.625 11.875 4.583 3.3334 7.9162 5.0002 10 5 3.333 1.6e-4 6.458-0.83281 9.375-2.5 1.25-0.41719 2.2912-2.2916 3.125-5.625 1.25-3.3331 2.7078-4.9998 4.375-5l-2.5-14.375 8.75 0.625v-1.875c-4.7e-4 -0.83281-1.8755-3.5414-5.625-8.125-1.6672-0.83281-3.5422-1.6664-5.625-2.5-2.0838-0.83281-4.792-1.4578-8.125-1.875l1.875-0.625h-5c-3.7505-0.41719-11.042 1.25-21.875 5m112.5-5.625 2.5 8.75 1.25 5c2.4995 10.834 3.7495 16.875 3.75 18.125-4.7e-4 12.083-2.2922 18.125-6.875 18.125-1.6672 1.6e-4 -2.9172-0.41719-3.75-1.25v-1.875l2.5-18.75c0.83281-7.0831-1.8755-10.625-8.125-10.625-4.7e-4 1.6e-4 -1.6672 0.41719-5 1.25 5.8328 5.8336 8.7495 11.25 8.75 16.25-4.7e-4 0.83281-0.41719 2.9169-1.25 6.25l-5.625 9.375 1.25 6.875c2.0828 2.0834 3.7495 3.1252 5 3.125 10.833 1.6e-4 16.25-8.7498 16.25-26.25-4.7e-4 -0.83281-0.20938-1.8748-0.625-3.125-4.7e-4 -1.25-0.20938-2.9164-0.625-5l-0.625-6.25c-1.25-7.0831-4.1672-13.75-8.75-20m-191.25 13.125c-0.41719 1.25-0.83438 2.7086-1.25 4.375-0.41719 1.25-1.0422 2.9169-1.875 5l-1.875 6.25-1.25 5 8.75-3.125 1.25-5 2.5-8.75-4.375-4.375-1.875 0.625m139.38 3.125v0.625c-5.0005 0.41719-9.5838 3.1252-13.75 8.125-0.41719 1.6669-0.83438 2.9169-1.25 3.75-4.7e-4 0.83438-4.7e-4 1.25 0 1.25-4.7e-4 1.6669 0.625 3.3334 1.875 5 6.6662 8.7502 15.833 13.125 27.5 13.125 15.416 1.6e-4 23.125-4.5831 23.125-13.75-4.7e-4 -5.4164-2.9172-9.7914-8.75-13.125-3.3339-2.0831-5.8339-3.1248-7.5-3.125-1.25 1.6e-4 -1.8755 0.83281-1.875 2.5-4.7e-4 1.6669 0.625 3.1252 1.875 4.375l3.125 5 1.25 2.5c-4.7e-4 1.6669-0.83438 2.7084-2.5 3.125l-3.75 1.25 1.875 0.625c-1.25 0.41719-3.3338 0.625-6.25 0.625-0.83438 1.6e-4 -1.8755 1.6e-4 -3.125 0-0.83438-0.41719-2.0838-0.83281-3.75-1.25-3.3338-2.4998-5.0005-4.5831-5-6.25v-1.25l3.75-4.375-1.25-4.375-0.625-3.125c-0.83438-0.83281-2.0838-1.25-3.75-1.25h-1.25m-256.88 10 12.5 3.125 4.375 2.5 6.25 5 6.25 8.75v1.875c2.9164 5.4169 4.3747 11.25 4.375 17.5-3.1e-4 8.3334-1.8753 15.833-5.625 22.5-1.6669 4.5834-3.5419 7.9167-5.625 10-1.6669 2.0834-3.3336 3.9584-5 5.625-1.6669 1.6667-3.5419 3.5417-5.625 5.625l-5.625 5.625c-1.6669 0.83281-3.5419 1.8752-5.625 3.125-2.0836 1.25-4.1669 2.7084-6.25 4.375-4.5836 1.25-7.0836 1.8752-7.5 1.875l-0.625 1.25-13.75 2.5-1.875 2.5-1.25 1.25c-1.6e-4 0.41719-0.20938 0.83281-0.625 1.25-1.6e-4 1.25 0.41719 1.8752 1.25 1.875h3.75l14.375-2.5c0.83281-0.41719 1.8748-1.0422 3.125-1.875 1.6664-0.83281 3.9581-2.0833 6.875-3.75l13.75-8.125c20-12.5 30-32.292 30-59.375-3.1e-4 -6.2498-2.2919-12.292-6.875-18.125l-6.25-8.125-5.625-3.125-0.625-0.625-6.25-3.125-6.25-0.625-6.875-0.625-3.125 1.875m64.375-0.625c-8.7503 1.25-13.125 8.3334-13.125 21.25-3.1e-4 4.1669 2.4997 7.7084 7.5 10.625 1.6664 1.25 3.5414 1.8752 5.625 1.875 1.25 1.6e-4 2.4997-1.0422 3.75-3.125-6.2503-1.6666-9.3753-4.7916-9.375-9.375-3.1e-4 -3.3331 2.0831-4.9998 6.25-5 5.4164 1.6e-4 8.958 2.0834 10.625 6.25l2.5 7.5 0.625 13.125c0.41719 11.25 1.0406 18.75 1.875 22.5 1.25 8.3334 1.8747 13.333 1.875 15v1.25c-3.1e-4 3.3334 1.8747 5.8334 5.625 7.5l5 5 1.875 4.375c0.41719 2.5002 1.4578 3.7502 3.125 3.75 0.83281 1.6e-4 2.2914-1.25 4.375-3.75l3.75-5.625-1.25-24.375c-0.41719-6.6666 2.708-15.833 9.375-27.5 4.1664-7.4998 9.9997-11.25 17.5-11.25 2.083 1.6e-4 4.583 0.83281 7.5 2.5 2.9162 1.25 4.583 1.8752 5 1.875 0.83281 1.6e-4 1.25-1.4578 1.25-4.375-3.1e-4 -6.2498-3.1253-10.625-9.375-13.125l-9.375 2.5-1.25-0.625-0.625-1.875c2.083-3.3331 3.1247-5.6248 3.125-6.875-3.1e-4 -1.25-1.0422-1.8748-3.125-1.875-2.917 1.6e-4 -7.917 2.2919-15 6.875l-3.75 5c-4.167 6.6669-6.667 13.75-7.5 21.25-0.41719 7.0834-0.83438 14.375-1.25 21.875-3.1e-4 2.0834-0.83281 3.7502-2.5 5l-1.875-1.25c1.25-12.917 1.8747-23.125 1.875-30.625-3.1e-4 -12.5-3.3336-22.083-10-28.75l-1.25 4.375-3.125-0.625c-1.667-7.9164-5.417-11.875-11.25-11.875l-5 0.625m-50.625 10-65 74.375c-12.083 14.583-22.083 25.208-30 31.875l-5 3.75-12.5 2.5-6.875 4.375c-1.6667 0.41719-2.5002 1.25-2.5 2.5-1.6e-4 2.0834 2.4998 3.125 7.5 3.125l4.375 0.625 42.5-2.5c3.3331 0 7.9166 0.41719 13.75 1.25 6.2498 0.83281 10.625 1.25 13.125 1.25 6.6664 0 9.9998-1.6666 10-5-1.6e-4 -1.6666-3.3336-3.125-10-4.375l-10-4.375-3.75-1.875-1.25-2.5c-0.41719-2.0833-0.83281-3.75-1.25-5-1.6e-4 -1.25-1.6e-4 -2.0833 0-2.5-1.6e-4 -2.9166 3.1248-7.9166 9.375-15 0.83281-0.83281 1.6664-1.6666 2.5-2.5 0.83281-1.25 1.8748-2.7083 3.125-4.375l13.75-15c1.6664-2.0833 2.9164-3.5416 3.75-4.375 1.25-1.25 2.0831-2.2916 2.5-3.125l33.125-39.375 0.625-0.625c-3.1e-4 -2.9166-2.0836-5.8331-6.25-8.75l-5.625-4.375m226.88-0.625 1.875 5 4.375 7.5c10.416 4.5834 18.75 6.8752 25 6.875 15.416 1.6e-4 22.916-3.9581 22.5-11.875l-0.625-3.75c-0.83438 3.7502-2.5005 6.0419-5 6.875-3.7505 2.5002-7.0839 3.7502-10 3.75h-1.25l-11.875 0.625-14.375-3.75-1.875-2.5-2.5-1.875-6.25-6.875m-16.25 16.25v6.875c2.9162 4.1669 5.4162 6.2502 7.5 6.25 1.25 1.6e-4 2.7078-0.83281 4.375-2.5-4.1672-1.25-6.2505-2.7081-6.25-4.375-4.7e-4 -3.3331 1.6662-4.9998 5-5 1.6662 1.6e-4 3.7495 0.625 6.25 1.875l3.75-1.875c-5.8338-3.7498-10.417-5.6248-13.75-5.625-2.9172 1.6e-4 -5.2088 1.4578-6.875 4.375m-197.5 0.625-37.5 43.75-7.5 9.375-18.75 21.875c-2.0834 3.3334-3.1252 5.8334-3.125 7.5-1.6e-4 2.5 0.20781 4.375 0.625 5.625l1.875-0.625v-6.875c23.75-30 43.75-52.5 60-67.5 3.3331-3.3331 4.9997-6.0416 5-8.125-3.1e-4 -2.0831-0.20938-3.7498-0.625-5m125.62 0-0.625 16.25 2.5 10.625 3.125 10.625 4.375 5.625 3.125 5.625v0.625l1.25 1.25 1.25 2.5 10 12.5 2.5 1.875c5.4162 5.0002 14.791 8.7502 28.125 11.25l8.125 1.875 0.625-3.125-4.375-4.375-25-8.125-2.5-2.5-12.5-13.125v-0.625c-7.5003-9.5833-11.667-17.292-12.5-23.125l-1.875-20-5.625-5.625m101.25 2.5-6.25 10c-1.6672 2.9169-2.5005 5.8334-2.5 8.75-4.7e-4 1.6669 0.625 4.5834 1.875 8.75l2.5 3.75c2.0828 3.3334 4.7912 5.2084 8.125 5.625l5 1.25c3.3328 0.83281 5.2078 1.0422 5.625 0.625l6.25-1.875 2.5 0.625v1.25c-0.41719 2.9167 1.25 4.3752 5 4.375 4.1661 1.6e-4 6.8745-1.0422 8.125-3.125l2.5-3.125c2.0828-3.3333 6.0411-5.2083 11.875-5.625l-1.25-0.625h1.875l-0.625-1.875c-1.25-0.41719-2.7089-0.625-4.375-0.625-1.25 1.6e-4 -2.0839-0.20781-2.5-0.625h-4.375l-4.375 1.25-2.5 0.625-1.875 1.875-2.5 0.625c3.3328-9.1666 4.9995-14.792 5-16.875-4.7e-4 -2.0831-0.83438-3.1248-2.5-3.125-0.83438 1.6e-4 -1.6672 1.4578-2.5 4.375-0.41719 2.5002-2.7089 4.5834-6.875 6.25-3.7505 1.25-5.6255 3.5419-5.625 6.875v1.25l3.75 1.875-3.125 1.25c-0.83438 0.41719-2.5005 0.625-5 0.625-4.1672 1.6e-4 -8.3338-2.4998-12.5-7.5-1.6672-2.9166-2.5005-6.0416-2.5-9.375-4.7e-4 -2.0831 0.41562-4.1666 1.25-6.25 1.25-2.0831 2.9162-5.4166 5-10l-2.5-1.25m1.875 18.125 0.625 1.875c1.6662 2.5002 3.7495 3.7502 6.25 3.75 4.1662 1.6e-4 6.2495-1.6666 6.25-5-4.7e-4 -0.83281-1.8755-1.6666-5.625-2.5l-1.875-5.625 3.125-5.625c-4.7e-4 -1.25-0.625-1.8748-1.875-1.875-0.41719 0.41719-0.83438 1.0422-1.25 1.875l-1.875 1.875-3.75 5v6.25m-210.62 4.375-12.5 27.5c0.83281-0.83281 1.8747-1.8748 3.125-3.125 1.25-1.6666 2.7081-3.5416 4.375-5.625l7.5-11.875c2.4997-3.7498 5.8331-5.6248 10-5.625 1.25 1.6e-4 3.5414 1.0422 6.875 3.125 0.41719 1.25 0.625 2.2917 0.625 3.125l0.625 0.625c-3.1e-4 0.41719-0.625 1.25-1.875 2.5-1.25 3.3334-3.9586 5.6252-8.125 6.875 1.6664 1.6667 3.5414 2.5002 5.625 2.5 3.3331 1.6e-4 6.4581-1.4578 9.375-4.375 2.9164-2.9166 4.3747-5.8333 4.375-8.75-3.1e-4 -3.7498-1.667-7.2916-5-10.625-2.9169-3.3331-6.2503-4.9998-10-5-4.1669 1.6e-4 -9.1669 2.9169-15 8.75m85.625-7.5-7.5 1.875c-4.167 1.6669-7.292 6.4584-9.375 14.375v1.25c0.41719 8.7502 4.7914 13.125 13.125 13.125 2.9162 1.6e-4 5.6247-2.4998 8.125-7.5l-9.375 1.875c-2.917-2.9166-4.3753-5.2083-4.375-6.875-3.1e-4 -4.9998 3.1247-7.4998 9.375-7.5 4.1662 1.6e-4 9.583 3.3334 16.25 10l5.625 8.75 1.875 1.875 0.625 2.5 5 5.625 8.125 5-3.75-6.25-6.875-9.375-11.25-20.625c-0.41719-0.41719-0.83438-0.83281-1.25-1.25-3.1e-4 -0.41719-0.41719-0.83281-1.25-1.25l-5-3.75c-1.667-1.6666-3.542-2.4998-5.625-2.5l-2.5 0.625m-116.25 13.75-3.125 1.875c-4.1669 2.0834-7.0836 5.0002-8.75 8.75-1.25 3.3334-2.7086 6.8752-4.375 10.625h0.625c1.6664 1.6e-4 3.1248-1.4578 4.375-4.375 1.6664-6.2498 4.1664-9.3748 7.5-9.375 0.83281 1.6e-4 1.6664 0.83281 2.5 2.5 0.83281 1.25 1.25 2.2917 1.25 3.125-1.6e-4 1.25-0.625 2.7084-1.875 4.375l-2.5 3.125-5.625 5.625c-4.5836 3.3334-7.9169 5.2084-10 5.625-3.3336 2.0834-5.0002 3.3334-5 3.75v1.875c21.25-7.9166 31.875-18.75 31.875-32.5-3.1e-4 -4.1666-1.6669-5.8331-5-5h-1.875m298.12-0.625-5 8.125-7.5 7.5-9.375 5.625c-8.3339 1.25-11.667 1.8752-10 1.875-0.83438 1.6e-4 -1.6672 1.6e-4 -2.5 0-0.83438-0.41719-2.0838-0.83281-3.75-1.25-5.8338-3.7498-8.1255-5.6248-6.875-5.625-1.25 1.6e-4 -1.8755 1.0422-1.875 3.125-4.7e-4 0.41719-4.7e-4 1.25 0 2.5 0.41562 1.25 0.83281 2.9167 1.25 5 4.5828 3.3334 8.7495 5.4167 12.5 6.25l-1.875 4.375c2.9161 1.25 5.2078 1.8752 6.875 1.875 1.6661 1.6e-4 3.1245-0.625 4.375-1.875l10.625-8.75c0.41562-0.41719 1.0406-0.625 1.875-0.625 0.83281 1.6e-4 1.25 0.41719 1.25 1.25-4.7e-4 0.83281-0.41719 1.6667-1.25 2.5l-10 11.25-1.875 9.375 1.25 1.25 3.75 3.125 1.875 1.25 1.875-6.25c0.83281-2.4998 1.4578-4.5833 1.875-6.25 0.83281-2.0833 1.6661-3.5416 2.5-4.375l2.5-3.75 2.5-6.25c0.41562-0.83281 1.4578-2.7083 3.125-5.625 1.6661-2.9166 3.9578-6.6666 6.875-11.25 0.41562-1.6666 1.6661-4.1666 3.75-7.5l-0.625-3.75-5-3.75h-3.125v0.625m-140 2.5-1.875 1.25 3.125 11.25 3.125 5 6.25 6.875c4.1662 4.5834 9.1662 7.7084 15 9.375 2.9162 1.6667 5.4162 2.5002 7.5 2.5 0.41562 1.6e-4 1.0406-0.41719 1.875-1.25l-5.625-2.5-4.375-1.25-4.375-2.5-5-3.75-3.75-3.75c-4.167-4.1666-6.2505-7.9166-6.25-11.25-4.7e-4 -1.25 0.41562-1.8748 1.25-1.875 1.25 1.6e-4 2.708 0.83281 4.375 2.5l3.125 3.75c2.083 2.0834 3.5412 3.1252 4.375 3.125h2.5l-7.5-9.375c-3.3338-6.2498-7.5005-9.3748-12.5-9.375l-1.25 1.25m-28.125 17.5h-5l-10.625 5v0.625c-5.8338 2.0834-10.625 5.0002-14.375 8.75l-3.75 4.375-2.5 3.75c-4.5836 6.2502-7.0836 12.083-7.5 17.5v4.375c-3.1e-4 1.6667-0.20781 3.125-0.625 4.375-0.41719 0.41719-1.25 0.625-2.5 0.625-0.83281 0-1.25-1.0422-1.25-3.125-3.1e-4 -5-0.83438-11.042-2.5-18.125l-5-8.125-3.125-3.125-8.125-6.25h-1.875l-0.625-0.625-14.375-6.25c-1.6669-1.6666-3.1253-2.4998-4.375-2.5-0.83438 0.83281-1.4578 2.0834-1.875 3.75-1.25 5.0002-1.8753 7.9167-1.875 8.75-3.1e-4 1.6667 1.25 5.0002 3.75 10l1.875 5-2.5-1.25-3.75-6.25c-1.25-3.3333-3.3336-5.6248-6.25-6.875l-4.375-3.125c-2.0836-0.41719-3.7503-0.625-5-0.625-1.25-0.41719-2.0836-0.625-2.5-0.625-2.5003 1.6e-4 -5.2086 0.625-8.125 1.875-11.25 6.2502-16.875 13.958-16.875 23.125v15l-2.5 5-5 3.75h-6.25l0.625 3.75c0.41719 1.6667 2.2914 3.125 5.625 4.375 0.41719 0.41719 1.6664 0.625 3.75 0.625 4.9998 0 7.9164-2.5 8.75-7.5l0.625-16.875c0.83281-8.3333 4.9997-12.5 12.5-12.5 0.83281 1.6e-4 4.1664 1.25 10 3.75l1.25 0.625 4.375 5.625 2.5 3.125 0.625 0.625 1.875 5.625 0.625 1.25 0.625 3.125 1.875 5 1.25 3.75c6.6664 12.917 14.583 19.375 23.75 19.375 5.4164 0 10.833-2.7083 16.25-8.125l2.5 1.875c-0.83438 3.75-2.5003 7.7084-5 11.875-1.667 1.25-2.5003 2.2917-2.5 3.125-3.1e-4 2.0833 1.6664 3.125 5 3.125 4.583 0 7.2914-0.83281 8.125-2.5 1.25-1.6667 2.083-2.5 2.5-2.5l4.375-9.375 3.75-1.875c0.83281 4.5834 3.1247 6.875 6.875 6.875 2.083 0 4.1662-0.625 6.25-1.875 9.583-3.75 15.833-8.9583 18.75-15.625l15.625-28.75c3.7497-6.6666 11.25-11.875 22.5-15.625l-3.75-3.125c-2.917-2.0833-6.042-3.5416-9.375-4.375-3.3338-0.83281-5.8338-1.25-7.5-1.25-0.83438 1.6e-4 -3.9588 1.0422-9.375 3.125l-8.125 3.125 0.625-6.25 1.25-5v-9.375m-228.12 5.625 1.25 8.125 3.75 5c4.9998 2.5002 7.0831 3.7502 6.25 3.75 4.1666 1.6e-4 6.2498-1.6666 6.25-5-0.41719-0.83281-1.6669-1.4578-3.75-1.875-1.6669-0.83281-5.0002-3.5416-10-8.125l-3.75-1.875m71.25 11.25-4.375 1.875-6.25 1.875 11.25-1.25-0.625-2.5m322.5-1.875h6.25c-5.0005 1.6e-4 -7.5005 1.0422-7.5 3.125-4.7e-4 4.1667 1.25 6.4584 3.75 6.875 2.9161 1.6e-4 4.3745-1.6666 4.375-5-4.7e-4 -2.9166-0.83438-4.5833-2.5-5h-4.375m13.125 2.5 1.875 0.625c-2.5005 0.83281-3.7505 2.0834-3.75 3.75-4.7e-4 2.9167 1.4578 4.3752 4.375 4.375 3.3328 1.6e-4 4.9994-1.6666 5-5-6.3e-4 -1.6666-0.20938-2.9166-0.625-3.75h-6.875m-398.12 10.625v-3.125h-0.625l-3.75-1.875-0.625 2.5c1.25 1.25 2.9166 2.0834 5 2.5m378.12 6.25c0.41562 1.25 1.0406 1.875 1.875 1.875 2.0828 0 3.1245-1.25 3.125-3.75-4.7e-4 -2.9166-0.20938-4.7916-0.625-5.625-2.9172 1.6e-4 -4.3755 2.5002-4.375 7.5m11.25-7.5 1.25 0.625c-2.5005 1.6e-4 -3.7505 1.4578-3.75 4.375-4.7e-4 4.1667 1.8745 6.25 5.625 6.25 3.3328 0 4.9995-1.25 5-3.75-4.7e-4 -1.6666-0.625-3.3333-1.875-5-0.83438-1.6666-1.8755-2.4998-3.125-2.5h-3.125m13.75 2.5c-0.41719 0.83281-0.625 2.5002-0.625 5-4.7e-4 1.25 0.41562 2.2917 1.25 3.125 2.0828 0 3.1244-1.4578 3.125-4.375-6.3e-4 -1.6666-0.625-2.9166-1.875-3.75h-1.875m-361.25 6.875c1.25 0.41719 2.0831 0.83281 2.5 1.25h2.5c2.0831 0 4.1664-0.20781 6.25-0.625h4.375c2.4998-0.41719 7.7081 0.20781 15.625 1.875 0.83281 0.83281 3.1248 1.4578 6.875 1.875v-3.125c0.41719-2.9166-1.6669-4.375-6.25-4.375l-6.25-0.625-4.375 0.625-13.75 1.25h-6.875c-0.41719 0.41719-0.625 1.0422-0.625 1.875m183.75 36.875-3.125 8.75-5 6.25-1.25 0.625 0.625 2.5c9.1662-1.6667 15.416-5.8333 18.75-12.5l2.5-0.625 2.5 5.625 3.75 5c4.583 3.3333 9.3745 5 14.375 5 8.333 0 14.791-2.5 19.375-7.5l8.75-10.625c2.083-2.0833 4.9995-3.125 8.75-3.125 4.1662 0 6.2495 1.6667 6.25 5-4.7e-4 2.0834-2.0838 3.75-6.25 5-2.0838 2.0833-3.1255 3.9583-3.125 5.625-4.7e-4 4.1667 3.958 6.25 11.875 6.25 3.3328 0 6.0412-0.625 8.125-1.875l13.75-9.375c2.9162-2.5 6.4578-3.75 10.625-3.75 0.83281 0.41719 1.6662 0.83281 2.5 1.25 0.83281 0 1.6662 0.41719 2.5 1.25l0.625 3.75c-4.7e-4 0.41719-1.0422 1.6667-3.125 3.75l-1.875 1.25c0.41562 1.6667 1.4578 2.5 3.125 2.5 6.6662 0 9.9995-2.9167 10-8.75-4.7e-4 0-0.41719-1.6666-1.25-5-3.3338-4.5833-6.6672-6.875-10-6.875-2.5005 0-5.2088 0.83281-8.125 2.5l-5 3.125-11.875 9.375-3.75 1.25h-5l-1.875-4.375c7.0828-2.5 10.625-5.4166 10.625-8.75-4.7e-4 -4.5833-4.7922-6.875-14.375-6.875-2.0838 0-3.7505 0.20781-5 0.625h-6.25l-7.5 2.5c-0.41719 0.41719-2.292 1.875-5.625 4.375-5.417 2.9167-10.625 4.375-15.625 4.375h-3.75l-3.125-1.875-1.25-0.625-5.625-5.625-1.875-7.5c2.4997-8.3333 6.8745-15.208 13.125-20.625 6.2495-5.8333 12.916-8.75 20-8.75h1.25l9.375 0.625c3.7495 0 5.6245-0.83281 5.625-2.5-4.7e-4 -2.4998-1.667-3.3333-5-2.5h-1.875l-14.375 1.25h-5l-6.875 1.25-6.25 1.25c-12.084 2.9167-19.792 9.7917-23.125 20.625l-3.125 10.625-2.5 6.875m-130-34.375c-2.0836 5-3.1253 7.7084-3.125 8.125-3.1e-4 1.6667 0.83281 2.7084 2.5 3.125l3.125 5.625c1.6664 1.6667 2.4997 4.375 2.5 8.125-3.1e-4 2.0834-0.20938 4.1667-0.625 6.25-3.1e-4 2.0834-0.20781 4.1667-0.625 6.25l-1.875 3.75-3.75 3.75-1.875 0.625c-3.3336 2.0833-6.0419 3.125-8.125 3.125-5.8336 0-10.209-1.4578-13.125-4.375l-12.5-11.25c-1.25-1.25-2.7086-1.875-4.375-1.875-7.0836 0-11.042 3.5417-11.875 10.625 0.83281 2.5 2.0831 4.5833 3.75 6.25 0.83281-7.0833 3.7498-10.625 8.75-10.625 1.6664 0 2.7081 0.20781 3.125 0.625l15.625 13.125c4.1664 2.9167 8.9581 4.375 14.375 4.375 6.2497 0 11.458-1.6667 15.625-5 4.1664-3.75 6.2497-5.625 6.25-5.625 1.25 0 2.0831 0.20781 2.5 0.625 7.0831 4.5833 12.291 6.875 15.625 6.875 2.4997 0 4.3747-0.20781 5.625-0.625l0.625-1.25-1.875-1.875-5.625-4.375c-4.5836-5.8333-7.2919-9.7916-8.125-11.875l-2.5-9.375c-2.0836-5.4166-4.7919-10-8.125-13.75l-6.875-6.875-5-2.5m288.12-0.625-0.625 4.375c1.6661 1.6667 3.5411 2.5 5.625 2.5 1.6661 0 2.4995-0.83281 2.5-2.5-4.7e-4 -0.41719-0.625-1.0422-1.875-1.875l-5.625-2.5m11.25 5c-4.7e-4 2.0834 0.625 3.125 1.875 3.125 3.3328 0 4.9995-1.25 5-3.75-4.7e-4 -2.0833-1.0422-3.125-3.125-3.125-2.0839 0-3.1255 0.625-3.125 1.875l-0.625 1.875m-131.88 20h1.25c-4.167-0.41719-6.2505-2.2916-6.25-5.625-4.7e-4 -0.41719 2.2912-4.7916 6.875-13.125l-1.25-0.625v0.625l-6.25 4.375c-3.3338 2.0834-5.0005 6.25-5 12.5-4.7e-4 5 2.083 7.5 6.25 7.5 4.9995 0 7.4995-0.83281 7.5-2.5l-3.125-3.125m136.88-12.5c-1.25 0.83281-1.8755 1.875-1.875 3.125-4.7e-4 2.5 1.0406 3.75 3.125 3.75 2.9161 0 4.3744-1.25 4.375-3.75-6.3e-4 -2.5-1.4594-3.75-4.375-3.75l-1.25 0.625m-433.12 5.625-0.625 2.5c-1.6e-4 2.5 2.4998 3.75 7.5 3.75l54.375-0.625c0.83281 0 2.2916 0.20781 4.375 0.625 2.0831 0 5.2081 0.20781 9.375 0.625 0.83281 0.41719 2.7081 0.625 5.625 0.625 8.7498 0 13.125-2.0833 13.125-6.25-1.6e-4 -2.0833-0.83438-3.125-2.5-3.125v0.625l-4.375 3.125-32.5-1.25-41.875 1.875c-2.0834 0-6.2502-0.83281-12.5-2.5m420-2.5-1.25 2.5c-1.25 0.83281-2.2922 1.4578-3.125 1.875l-0.625 0.625h-5l-13.125 0.625-45.625-1.875-30.625 1.25c-3.7505 0-8.7505-0.83281-15-2.5h-1.875c0.83281 4.5834 7.9162 6.875 21.25 6.875h0.625l46.875-1.25 30.625 3.125c13.333 0.83281 20-1.875 20-8.125-4.7e-4 -1.25-1.0422-2.2916-3.125-3.125m-432.5 3.75h-0.625c-4.1667 0-6.2502 2.7084-6.25 8.125-1.6e-4 2.5 1.4578 3.75 4.375 3.75 4.5833 0 6.8748-2.7083 6.875-8.125-1.6e-4 -2.0833-1.4578-3.3333-4.375-3.75m52.5 10c-3.3334 2.5-5.0002 4.375-5 5.625-1.6e-4 0.83281 0.625 3.3334 1.875 7.5h0.625c-6.6669 2.0834-12.083 5.2083-16.25 9.375 0.41719 0 2.9166 0.41719 7.5 1.25 4.5831 0.83281 7.0831 1.0422 7.5 0.625l5-4.375 10 3.125h1.875c8.7498 0 13.125-5.4167 13.125-16.25-1.6e-4 -4.1666-1.25-6.25-3.75-6.25-1.6669 0-2.7084 0.20781-3.125 0.625 1.6666 2.9167 2.4998 5.4167 2.5 7.5-1.6e-4 6.6667-3.5419 9.5833-10.625 8.75h-3.75l-2.5-3.125c1.6666-0.83281 2.7081-2.0833 3.125-3.75-0.41719-0.41719-0.83281-0.625-1.25-0.625l-1.25-1.25c-3.7502-1.6666-5.6252-4.5833-5.625-8.75m-45 7.5 9.375-3.125 4.375-0.625 11.25 2.5 4.375-2.5c-1.6e-4 -0.41719-0.83281-0.83281-2.5-1.25-4.5834-1.25-8.3334-1.875-11.25-1.875h-1.25c-9.1667-0.41719-13.75 1.0422-13.75 4.375l-0.625 2.5m436.25-8.125c0.83281 3.3334 1.25 5.2084 1.25 5.625-4.7e-4 1.6667-1.25 3.5417-3.75 5.625-2.5005 2.0834-4.3755 3.3334-5.625 3.75-6.2505 0-10.834-1.875-13.75-5.625l-3.125-6.25-11.875-1.875c-0.83438-0.41719-2.9172-0.625-6.25-0.625-2.5005 0-3.7505 0.83281-3.75 2.5-4.7e-4 2.0834 1.25 5 3.75 8.75l2.5 3.75 2.5 1.875 1.875-4.375 3.75-2.5 2.5 9.375 1.25 1.25 1.25 0.625 0.625 1.875c1.25 1.25 2.2911 1.875 3.125 1.875 0.41562 0 0.83281-0.20781 1.25-0.625l3.125-5c4.5828 3.3333 8.7495 5 12.5 5 10.416 0 15.624-4.375 15.625-13.125-6.3e-4 -1.6666-1.25-4.1666-3.75-7.5-0.41719-2.5-2.0839-3.9583-5-4.375m-425.62 9.375c-3.3334 2.0834-5.0002 3.9584-5 5.625-1.6e-4 2.5 1.25 3.75 3.75 3.75 4.1666 0 6.2498-2.0833 6.25-6.25l-0.625-0.625-4.375-2.5m-21.25 1.25c-2.0834 2.0834-3.1252 3.75-3.125 5-1.6e-4 3.3333 1.8748 5 5.625 5 3.3333 0 4.9998-1.6667 5-5-1.6e-4 -4.1666-1.4578-6.25-4.375-6.25-0.41719 0-0.83281 0.20781-1.25 0.625l-1.875 0.625m7.5 11.875-1.875 4.375c1.6666 0 2.9166-1.0422 3.75-3.125l1.25-0.625h4.375l-7.5-0.625m314.38-446.88-2.5 3.75-1.25-3.125 3.75-0.625m-5.625 3.75-3.75 3.75c-1.25 4.7e-4 -2.0838-1.25-2.5-3.75 0.41562-1.25 1.4578-1.8745 3.125-1.875l3.125 1.875m-139.38 5 1.25 1.875-0.625-0.625-1.25 1.875c-0.83281-0.83281-3.9586-2.4995-9.375-5-3.1e-4 -1.25 0.83281-1.8745 2.5-1.875l7.5 3.75m125.62 0.625c0.41562-2.4995 1.0406-3.7495 1.875-3.75 2.083 4.7e-4 3.1245 1.0422 3.125 3.125-4.7e-4 1.25-0.83438 1.8755-2.5 1.875-0.83438 4.7e-4 -1.667-0.41562-2.5-1.25m-2.5 5c-4.7e-4 1.6672-1.0422 3.5422-3.125 5.625l-3.75-3.75 1.875-3.75h1.875l3.125 1.875m-143.12 8.125h1.875l-2.5-1.25c1.6664-4.9995 3.5414-7.4995 5.625-7.5 1.25 0.83438 1.8747 1.6672 1.875 2.5-3.1e-4 0.83438-2.2919 2.9172-6.875 6.25m53.125-7.5c-1.25 3.7505-4.3753 5.6255-9.375 5.625 1.25-0.41562 2.2914-0.83281 3.125-1.25 0.83281-0.41562 1.6664-0.83281 2.5-1.25 0.41719-1.6662 0.83281-2.7078 1.25-3.125h2.5m-36.875 3.75-0.625-1.25v1.875c-3.7503 2.0838-6.2503 5.2088-7.5 9.375h-4.375c2.4997-8.3328 5.8331-12.5 10-12.5 1.25 4.7e-4 2.0831 0.83438 2.5 2.5m251.88-3.125 5.625 10.625 1.875 3.75-3.125-1.25c-2.9172-4.1662-4.3755-8.5412-4.375-13.125m-155.62 20.625c-4.167 2.5005-9.167 4.167-15 5l-1.25-2.5c7.083-1.6662 10.416-2.4995 10-2.5l6.875-5-0.625 5m-90 7.5c2.0831 3.3338 3.1247 5.417 3.125 6.25-3.1e-4 4.7e-4 -0.41719 0.20938-1.25 0.625-0.41719 4.7e-4 -1.0422 0.20938-1.875 0.625l-1.875-5.625-1.25-1.25 0.625-1.875 2.5 1.25m-6.25 6.875 2.5 1.25h-1.875l-3.125-6.875 0.625-1.25h-0.625 1.875c0.41719 4.7e-4 1.0422 0.625 1.875 1.875l1.875 5h-3.125m222.5 22.5 1.25 5-3.125-0.625 1.875-4.375m-321.88 18.75c6.6666-4.1662 8.7498-6.2497 6.25-6.25 0.41719 3.1e-4 0.625 0.41719 0.625 1.25-1.6e-4 3.3338-2.2919 5.0003-6.875 5m320.62-7.5-1.25 1.25c-4.7e-4 0.41719-0.20938 0.83438-0.625 1.25-0.41719 3.1e-4 -0.625-0.41562-0.625-1.25v-0.625l1.25-1.25 1.25 0.625m-392.5 5.625h1.875l1.25 2.5-0.625 1.25h-2.5l-1.25-1.875 1.25-1.875m0 6.875c2.0833 2.0838 3.3333 3.542 3.75 4.375h-1.25l-2.5-0.625v-3.75m41.875 1.25c3.3331 0.83438 5.8331 1.667 7.5 2.5 2.0831 0.41719 3.1248 0.625 3.125 0.625-1.6e-4 1.25-0.625 1.8753-1.875 1.875-0.83281 3.1e-4 -2.2919-0.20781-4.375-0.625-1.6669-0.83281-2.9169-1.4578-3.75-1.875l-0.625-2.5m225 1.25h1.25c1.25 5.8338 1.8747 9.792 1.875 11.875-3.1e-4 1.667-0.20938 2.917-0.625 3.75l-3.125 1.875 1.875-11.25-1.25-6.25m-178.12 3.75c-0.41719 1.667-2.0834 2.5003-5 2.5-2.5002 3.1e-4 -4.1669-0.20781-5-0.625h-1.25c-2.0834 3.1e-4 -3.1252-0.41562-3.125-1.25-1.6e-4 -1.25 0.20781-1.8747 0.625-1.875l13.75 1.25m-20.625 0.625 0.625 1.875-1.875 3.125h-2.5c-1.25 3.1e-4 -1.8752-0.625-1.875-1.875-1.6e-4 -2.4997 1.25-3.7497 3.75-3.75l1.875 0.625m196.25 8.125c-0.83438-2.4997-1.25-5.4162-1.25-8.75-3.1e-4 0.83438 0.41562 1.25 1.25 1.25 0.83281 3.1e-4 1.25 0.83438 1.25 2.5-3.1e-4 3.1e-4 -0.41719 1.667-1.25 5m-32.5-4.375 4.375 7.5c1.6664 0.83438 4.1664 2.0838 7.5 3.75l2.5 5-4.375-1.25c-3.1e-4 3.1e-4 -0.625-0.20781-1.875-0.625-0.83438-0.41562-2.0836-1.6662-3.75-3.75l-5-6.25-3.125-5.625-2.5-8.125 6.25 9.375m25-1.875 1.875 4.375c-3.1e-4 0.83438-1.0422 2.292-3.125 4.375l-3.75 0.625h-2.5l-3.75-1.875 5-1.25 3.75-0.625 1.25-2.5 1.25-3.125m-25.625 18.125v1.875c-3.1e-4 3.3338-1.667 5.6253-5 6.875l-3.75-1.25c3.333-1.25 5.6247-3.333 6.875-6.25l1.875-1.25m3.75 8.75 1.875-3.75c0.41719 0.41719 0.625 1.4578 0.625 3.125-3.1e-4 3.3336-1.4578 5.2086-4.375 5.625l-5-0.625 4.375-1.875 1.25-1.875 1.25-0.625m-133.75 46.25 6.25 2.5 1.25-0.625v1.875l-7.5-2.5v-1.25m200.62 11.25-1.875 0.625-4.375 1.875-1.875 1.25-5.625 5.625-1.25 3.75h-1.875l2.5-5.625 1.875-3.75c1.25-0.41562 2.708-1.4578 4.375-3.125l5.625-3.125c1.25-0.83281 2.2912-1.4578 3.125-1.875 0.83281-0.41719 1.6662-0.83281 2.5-1.25 1.6662 1.25 2.2912 2.0836 1.875 2.5-2.0838 0.83438-3.7505 1.8753-5 3.125m-157.5 3.125 5 3.75c0.83281 4.1669 1.25 6.0419 1.25 5.625-3.1e-4 2.9169-2.2919 4.7919-6.875 5.625l-1.25-3.125c1.6664-1.25 2.9164-2.0831 3.75-2.5l1.25-1.25c-3.1e-4 -1.25-0.83438-3.3331-2.5-6.25l-0.625-1.875m145.62 9.375 5.625-5 0.625 0.625-3.125 3.75-3.125 0.625m-135-2.5 3.125 1.25c0.83281 3.3336 1.25 4.7919 1.25 4.375-3.1e-4 2.5003-2.2919 3.7503-6.875 3.75v0.625l-0.625-1.25c2.4997-1.6664 3.7497-3.1247 3.75-4.375-3.1e-4 0.41719-0.41719-0.625-1.25-3.125l0.625-1.25m7.5 4.375h0.625c0.83281 3.1e-4 1.6664 0.625 2.5 1.875-3.1e-4 2.9169-0.83438 4.3753-2.5 4.375l-1.25 0.625 0.625-6.875m163.75 0 2.5-0.625-6.25 0.625-3.125 3.75 6.875-3.75m-225-1.25 1.25 3.75-1.875 1.25-8.75 5-4.375 0.625 13.75-10.625m11.875 6.875c-3.3336 0.41719-6.0419 1.0422-8.125 1.875-2.0836 0.83281-3.9586 1.6669-5.625 2.5l-8.75 6.25-1.25-1.25c3.7498-5.4164 8.9581-8.7497 15.625-10l6.875-1.25 4.375-3.125v3.75c-1.6e-4 0.83281-0.625 1.25-1.875 1.25h-1.25m55.625 5.625-1.25-1.25c-3.1e-4 -3.3331 0.625-4.9997 1.875-5 1.6664 3.1e-4 2.4997 0.83438 2.5 2.5v1.875l-3.125 1.875m123.75-5.625 2.5 6.25 1.25 0.625v1.25l5-0.625v4.375-1.875l0.625 1.875h-8.125l-0.625 1.25c-3.3338-0.41562-5.2088-2.9164-5.625-7.5l0.625 0.625 1.25-0.625 0.625 2.5 0.625 1.25 1.875-0.625-1.25-5 1.25-3.75m101.88 17.5 3.125 1.25 2.5 6.25-2.5-3.75-3.125-3.75m-352.5 24.375h0.625c1.6666 1.6e-4 2.4998 0.41719 2.5 1.25v1.875l5.625 3.125-0.625 1.25v1.25c-4.5834-1.25-7.2919-4.1664-8.125-8.75m3.125 25c-1.25 3.3336-1.8752 5.6252-1.875 6.875-1.6e-4 3.3334 0.20781 5.2084 0.625 5.625l1.875 3.75-1.25 11.25-1.25-6.25-0.625-3.75-2.5-6.875c-0.41719-0.83281-0.625-2.2914-0.625-4.375l0.625-1.875 2.5-5 2.5 0.625m3.75 1.25 0.625 4.375-0.625 3.125 1.25 6.875-3.125-4.375-0.625-0.625v-1.875l1.25-7.5h1.25m15.625 13.125c1.25 1.6e-4 2.2916 1.25 3.125 3.75l-0.625-2.5 0.625 3.75-4.375 0.625c-1.6669-0.83281-2.0834-1.6666-1.25-2.5 1.25-1.25 2.0831-2.2916 2.5-3.125m13.125 7.5c-1.6e-4 10.417-3.7502 17.083-11.25 20l1.25-3.75-0.625 0.625c-1.6e-4 -0.41719 1.25-1.6666 3.75-3.75 2.9166-2.0831 4.3748-4.7916 4.375-8.125-1.6e-4 -3.3331 0.83281-4.9998 2.5-5m-17.5 1.25c0.83281 0.83281 1.4578 1.6669 1.875 2.5l0.625 0.625c-1.6e-4 0.41719-1.0422 1.25-3.125 2.5-2.5002-0.41719-3.7502-1.0422-3.75-1.875-1.6e-4 -0.83281 0.625-2.2916 1.875-4.375l2.5 0.625m34.375 3.75-0.625 0.625 7.5 0.625-8.125 2.5-2.5-5 3.75 1.25m-40 5 1.25-1.25c-1.6e-4 -1.25 0.41719-0.20781 1.25 3.125 0.83281 0.83281 0.625 1.25-0.625 1.25l-3.75 1.25-3.125-2.5 5-1.875m-29.375 33.125 2.5 0.625-0.625 1.25-4.375 1.875-0.625 1.25-2.5 1.875c-1.25 1.6e-4 -1.8752 0.83281-1.875 2.5l-0.625 5.625h-2.5c-1.6e-4 -8.7498 1.6666-13.125 5-13.125l5.625-1.875m192.5 13.125 3.75 0.625-1.25 3.125h-3.125l-1.25-1.875v-1.875h1.875m-171.88 0.625 11.25 4.375h-1.875l-10-3.125 0.625-1.25m381.25 3.75 2.5 1.875h-1.875l-0.625 1.25-2.5-3.125h2.5m-208.12 2.5c0.41719 0.41719 0.625 1.6667 0.625 3.75-3.1e-4 0.83281-0.83281 1.25-2.5 1.25-1.25 1.6e-4 -1.8753-0.625-1.875-1.875-3.1e-4 -0.41719 0.41719-1.0422 1.25-1.875l2.5-1.25m-204.38 4.375 6.875 6.875-2.5 4.375-4.375-11.25m186.88 6.25 1.875 3.125 5 4.375 0.625 1.875 1.875 1.875 1.875 3.75h-3.75l-1.25-3.125-1.875-2.5-3.75-3.75-3.125-2.5-7.5-3.75 0.625 0.625-0.625-2.5 10 2.5m211.88-2.5c-0.41719 1.6667-1.8755 2.7084-4.375 3.125l0.625 0.625h-3.75l7.5-3.75m-163.12 3.125-6.25 3.125h3.125l-4.375 1.875 0.625-1.25-7.5 10c-0.83438 1.25-1.4578 1.8752-1.875 1.875-0.41719 1.6e-4 -1.0422-0.41719-1.875-1.25 0.41719-0.41719 0.625-0.83281 0.625-1.25-3.1e-4 -0.41719 0.20781-0.83281 0.625-1.25l3.125-6.25 3.125-3.125 4.375-2.5 5.625-1.875 0.625 1.875m-51.875 7.5 2.5 1.875 5 6.25-0.625-0.625-3.125 1.875-3.125-5.625-5-3.75 0.625-1.25 3.75 1.25m-26.25 27.5 5.625 6.25 2.5 3.125v-1.25l2.5 6.25 2.5 2.5 1.25 0.625c1.25 0.83281 2.2914 1.6667 3.125 2.5 1.25 0.83281 2.2914 1.6667 3.125 2.5l-6.875-1.25c-2.9169-3.3333-5.2086-5.8333-6.875-7.5-1.6669-1.6666-2.7086-2.7083-3.125-3.125-2.5003-2.9166-3.7503-6.4583-3.75-10.625m95 3.75c-0.83438 5.8334-3.1253 10.417-6.875 13.75l-4.375 5c-1.25 0.83281-2.5003 1.6667-3.75 2.5-1.25 0.83281-2.7088 1.6667-4.375 2.5-0.83438 0-1.667-0.41719-2.5-1.25 0.83281-0.41719 1.6662-1.0422 2.5-1.875 1.25-0.83281 2.4997-1.6666 3.75-2.5 5.4162-5 8.958-8.9583 10.625-11.875l3.125-5.625 1.25 1.875 0.625-2.5m-11.875 3.75 0.625 3.125c-3.1e-4 1.6667-0.83438 3.3334-2.5 5-2.5003 3.3334-4.792 5-6.875 5-1.667 0-2.5003-0.625-2.5-1.875l9.375-10 1.875-0.625v-0.625m20 20.625 1.25-1.875-1.25 0.625c1.25-1.6666 1.8747-3.3333 1.875-5v-1.25c-3.1e-4 -2.0833 0.41562-3.125 1.25-3.125 0.83281 0 1.25 0.625 1.25 1.875-3.1e-4 1.6667-1.4594 4.5834-4.375 8.75m-113.75-9.375 3.125 5.625 1.25 1.25 1.875-1.25-1.875 3.125-1.25 0.625 0.625-0.625h-1.25l-1.875-3.125c-1.6669-1.25-2.5003-2.2916-2.5-3.125 0.41719-0.41719 0.625-0.83281 0.625-1.25l1.25-1.25m283.12 17.5v1.25c-3.3339 0.83281-5.0005 1.25-5 1.25-0.83438 0-1.8755-0.625-3.125-1.875l8.125-0.625"
         fill="#8f0005"
         id="path13" />
    </g>
  </g>
</svg>
