<?xml version="1.0" encoding="UTF-8" standalone="no"?>
<!-- Created with Inkscape (http://www.inkscape.org/) -->

<svg
   width="269.22238"
   height="269.66446"
   id="svg6386"
   version="1.1"
   sodipodi:docname="magnifier-white.svg"
   inkscape:version="1.2.2 (b0a8486541, 2022-12-01)"
   xmlns:inkscape="http://www.inkscape.org/namespaces/inkscape"
   xmlns:sodipodi="http://sodipodi.sourceforge.net/DTD/sodipodi-0.dtd"
   xmlns="http://www.w3.org/2000/svg"
   xmlns:svg="http://www.w3.org/2000/svg"
   xmlns:rdf="http://www.w3.org/1999/02/22-rdf-syntax-ns#"
   xmlns:cc="http://creativecommons.org/ns#"
   xmlns:dc="http://purl.org/dc/elements/1.1/">
  <sodipodi:namedview
     id="namedview3870"
     pagecolor="#ffffff"
     bordercolor="#000000"
     borderopacity="0.25"
     inkscape:showpageshadow="2"
     inkscape:pageopacity="0.0"
     inkscape:pagecheckerboard="0"
     inkscape:deskcolor="#d1d1d1"
     showgrid="false"
     inkscape:zoom="3.218815"
     inkscape:cx="81.241078"
     inkscape:cy="134.98757"
     inkscape:window-width="1920"
     inkscape:window-height="1009"
     inkscape:window-x="1080"
     inkscape:window-y="32"
     inkscape:window-maximized="1"
     inkscape:current-layer="svg6386" />
  <title
     id="title5920">Magnifying glass</title>
  <defs
     id="defs6388" />
  <metadata
     id="metadata6391">
    <rdf:RDF>
      <cc:Work
         rdf:about="">
        <dc:format>image/svg+xml</dc:format>
        <dc:type
           rdf:resource="http://purl.org/dc/dcmitype/StillImage" />
        <dc:title>Magnifying glass</dc:title>
        <dc:date>2017-01-16</dc:date>
        <dc:creator>
          <cc:Agent>
            <dc:title>m1981</dc:title>
          </cc:Agent>
        </dc:creator>
        <dc:rights>
          <cc:Agent>
            <dc:title>Public domain</dc:title>
          </cc:Agent>
        </dc:rights>
        <dc:publisher>
          <cc:Agent>
            <dc:title>Inkscape</dc:title>
          </cc:Agent>
        </dc:publisher>
        <dc:subject>
          <rdf:Bag>
            <rdf:li>icon</rdf:li>
            <rdf:li>find</rdf:li>
            <rdf:li>magnifying glass</rdf:li>
            <rdf:li />
          </rdf:Bag>
        </dc:subject>
      </cc:Work>
    </rdf:RDF>
  </metadata>
  <path
     id="path4142"
     d="m 27.720181,29.23426 c -5.57285,5.70225 -10.508872,12.18968 -14.67243,19.40121 -26.647093,46.15407 -11.208786,105.43724 34.736618,131.9638 35.50219,20.49724 78.844521,15.4309 109.004901,-9.21445 l 9.0819,9.0819 c -1.2454,1.0561 -2.50869,2.09274 -3.8007,3.0936 -2.23492,1.73519 -3.66995,4.468 -3.84489,7.29203 -0.17495,2.82403 0.91313,5.69205 2.91681,7.68979 l 63.44074,63.44074 c 10.14644,10.14644 26.91895,10.2926 37.07894,0.13261 10.15999,-10.15999 10.03696,-26.95364 -0.11048,-37.10107 L 197.93408,161.3969 c -1.88427,-1.88526 -4.56059,-2.97582 -7.22578,-2.93887 -2.6652,0.0369 -5.28406,1.20095 -7.11527,3.13778 -0.25908,0.27323 -0.50268,0.56109 -0.72924,0.86175 -0.95794,1.27552 -1.95054,2.52502 -2.96101,3.75651 l -9.01561,-9.01561 c 3.12219,-3.87436 5.98864,-8.04574 8.55158,-12.48486 C 206.08577,98.5596 190.64753,39.27635 144.70213,12.7498 105.93569,-9.63198 57.813639,-1.55813 27.720146,29.23423 Z M 42.171676,43.15543 C 66.120309,18.5377 104.06123,12.29732 134.73637,30.00766 c 36.35573,20.99001 48.68373,67.63489 27.312,104.6518 -21.37172,37.01692 -67.942491,49.672 -104.298211,28.68199 C 21.394362,142.3515 9.066365,95.70663 30.438158,58.68964 33.777421,52.90581 37.736717,47.7143 42.171676,43.15543 Z m 14.075843,13.54551 a 5.0156286,5.0156286 0 1 0 7.09317,7.09317 c 18.49268,-18.49269 48.351071,-18.51479 66.843721,-0.0221 2.91958,2.91958 5.42643,6.2133 7.49091,9.78901 a 5.0052995,5.0052995 0 0 0 8.66202,-4.9939 C 143.83593,64.23457 140.793,60.23847 137.25548,56.70094 114.94133,34.3868 78.561689,34.38681 56.247519,56.70098 Z m 36.90217,89.18381 a 5.0005001,5.0005001 0 0 0 3.60183,8.55157 c 10.048551,0 19.935491,-2.66548 28.637821,-7.68979 a 5.0005001,5.0005001 0 1 0 -5.01604,-8.63996 c -7.18255,4.14686 -15.32811,6.34189 -23.621781,6.34187 a 5.0005001,5.0005001 0 0 0 -3.60183,1.43631 z m 98.376231,37.38827 55.88354,55.88353 c 2.63632,2.63632 2.60052,6.3267 0.11045,8.81677 -2.49008,2.49008 -6.15731,2.50476 -8.79464,-0.13258 L 182.90802,192.0235 c 3.01272,-2.78104 5.87799,-5.69834 8.61794,-8.75045 z"
     style="color:#000000;font-style:normal;font-variant:normal;font-weight:normal;font-stretch:normal;font-size:medium;line-height:normal;font-family:sans-serif;text-indent:0;text-align:start;text-decoration:none;text-decoration-line:none;letter-spacing:normal;word-spacing:normal;text-transform:none;writing-mode:lr-tb;direction:ltr;baseline-shift:baseline;text-anchor:start;display:inline;overflow:visible;visibility:visible;fill:#eee8dc;fill-opacity:1;fill-rule:evenodd;stroke:none;enable-background:accumulate" />
</svg>
