<?xml version="1.0" encoding="UTF-8" standalone="no"?>
<!-- Created with Inkscape (http://www.inkscape.org/) -->

<svg
   width="92.572998mm"
   height="92.572998mm"
   viewBox="0 0 92.572997 92.572998"
   version="1.1"
   id="svg5"
   xml:space="preserve"
   sodipodi:docname="user.svg"
   inkscape:version="1.4 (e7c3feb1, 2024-10-09)"
   xmlns:inkscape="http://www.inkscape.org/namespaces/inkscape"
   xmlns:sodipodi="http://sodipodi.sourceforge.net/DTD/sodipodi-0.dtd"
   xmlns="http://www.w3.org/2000/svg"
   xmlns:svg="http://www.w3.org/2000/svg"><sodipodi:namedview
     id="namedview1"
     pagecolor="#ffffff"
     bordercolor="#000000"
     borderopacity="0.25"
     inkscape:showpageshadow="2"
     inkscape:pageopacity="0.0"
     inkscape:pagecheckerboard="0"
     inkscape:deskcolor="#d1d1d1"
     inkscape:document-units="mm"
     inkscape:zoom="0.2972429"
     inkscape:cx="-1002.5471"
     inkscape:cy="719.94991"
     inkscape:window-width="1920"
     inkscape:window-height="1027"
     inkscape:window-x="1080"
     inkscape:window-y="25"
     inkscape:window-maximized="1"
     inkscape:current-layer="svg5" /><defs
     id="defs2" /><path
     id="rect356"
     style="fill:#3b2e1f;fill-opacity:1;stroke-width:0.264583"
     d="m 46.178247,0.002315 c -2.89345,-0.03151 -4.91285,0.270706 -7.57887,1.087273 -7.592624,2.325507 -15.12096,9.348765 -19.082042,17.801497 -1.009283,2.153748 -2.628115,6.81457 -2.962093,8.528158 -0.205028,1.05198 -0.262158,1.04703 3.807519,0.31885 6.915252,-1.237355 16.210716,-4.024206 22.957256,-6.883304 1.69596,-0.718729 3.23504,-1.306897 3.42047,-1.306897 0.18542,0 1.31674,0.492941 2.51406,1.095541 6.97152,3.508726 14.88892,6.120261 22.28546,7.35097 3.25356,0.54136 4.69444,0.73226 4.8519,0.64234 0.0491,-0.028 -0.15904,-1.00902 -0.4625,-2.179712 -2.78485,-10.743529 -9.33135,-19.417205 -17.88315,-23.69416 -3.88618,-1.943579 -6.27759,-2.560386 -10.5699,-2.726966 -0.45346,-0.0176 -0.88476,-0.02909 -1.29811,-0.03359 z m 0.55552,23.340695 -3.85403,1.548226 c -8.624465,3.464567 -20.11165,6.476237 -27.645862,7.248137 -0.973407,0.0997 -1.769918,0.22585 -1.769918,0.28008 0,0.0542 0.189953,1.25803 0.422197,2.67529 0.553915,3.38026 0.552652,9.94645 -0.0026,13.35578 -0.230822,1.41725 -0.419613,2.68087 -0.419613,2.80809 0,0.56295 6.70044,3.00229 11.1125,4.04523 4.359139,1.03045 8.7003,1.66009 14.948956,2.16886 2.50433,0.20391 8.74794,0.15225 12.17084,-0.10076 8.05142,-0.59513 16.07648,-2.15311 23.0756,-4.47932 2.09015,-0.69468 3.85913,-1.32181 3.93102,-1.39371 0.0719,-0.0719 -0.10373,-1.0097 -0.39067,-2.08411 -1.27177,-4.76205 -1.3854,-9.85038 -0.32401,-14.52108 0.28108,-1.23692 0.47973,-2.2822 0.44131,-2.32285 -0.0384,-0.0406 -1.12827,-0.19114 -2.42155,-0.33435 -9.58295,-1.06119 -19.47632,-3.93392 -27.45466,-7.972123 z m -2.57814,6.523633 h 1.71979 1.7198 v 12.17083 12.17083 h -1.7198 -1.71979 v -12.17083 z m -11.377086,2.11666 h 1.719791 1.719795 v 9.6573 9.65729 h -1.719795 -1.719791 v -9.65729 z m 22.225006,0 h 1.71979 1.7198 v 9.6573 9.65729 h -1.7198 -1.71979 v -9.65729 z m 10.84792,2.64584 h 1.71979 1.71979 v 7.67291 7.67292 h -1.71979 -1.71979 v -7.67292 z m -43.788551,0.13229 h 1.719791 1.719792 l 0.07028,7.60677 0.07028,7.60677 h -1.860352 -1.860351 l 0.07028,-7.60677 z m 50.757121,22.70559 c -0.37561,0.005 -1.7471,0.27657 -3.31453,0.66301 -1.79137,0.44164 -3.58009,0.87201 -3.97443,0.95653 -0.77255,0.16557 -0.67483,-0.0877 -3.11351,8.08633 -0.45586,1.52797 -0.93517,3.10555 -1.06505,3.50573 -0.12988,0.40018 -0.16381,0.7276 -0.0755,0.7276 0.0883,0 0.76657,-0.45949 1.5074,-1.02113 1.92525,-1.45955 4.76984,-4.3652 6.38204,-6.51949 1.63705,-2.18751 3.97263,-6.16215 3.75119,-6.38359 -0.0107,-0.0107 -0.044,-0.0157 -0.0977,-0.015 z m -52.952853,0.30696 0.535885,1.06143 c 0.945906,1.87473 3.243541,5.24515 4.782137,7.01456 1.334689,1.53492 5.228043,5.09949 5.391402,4.93613 0.03513,-0.0351 -0.683334,-2.55753 -1.596285,-5.60482 l -1.659847,-5.54023 -3.726388,-0.9338 z m 40.843513,2.31769 c -0.0426,-0.0425 -1.61205,0.12802 -3.48764,0.37878 -4.36669,0.5838 -18.89471,0.6693 -23.081292,0.13591 -1.505883,-0.19186 -2.76838,-0.31092 -2.805514,-0.26458 -0.03713,0.0463 0.688659,2.58456 1.613339,5.64048 0.924681,3.05594 1.804979,6.00285 1.955953,6.54844 0.207462,0.74975 0.51627,1.11534 1.264524,1.49707 4.06677,2.0747 11.31064,2.66179 16.45223,1.33376 4.22936,-1.09239 3.73676,-0.42178 6.10402,-8.31732 1.13376,-3.78141 2.02693,-6.90999 1.98438,-6.95254 z m -37.607535,9.39787 c -0.119299,-0.008 -0.211394,0.0345 -0.30334,0.11059 -0.743966,0.61551 -3.740136,4.44264 -5.225521,6.67504 -1.247252,1.8745 -3.581177,6.21212 -3.581177,6.65541 0,0.0841 0.251863,0.0729 0.559656,-0.0248 0.912921,-0.28975 8.457774,-0.18587 10.851534,0.14934 4.485564,0.62815 9.153261,2.05986 12.974403,3.9796 2.08373,1.04687 5.34692,3.33122 6.55619,4.58939 0.50149,0.52178 1.02979,0.94878 1.17409,0.94878 0.1443,0 0.92484,-0.51408 1.73426,-1.14257 7.82472,-6.07566 18.76166,-8.79359 29.86278,-7.42073 l 1.40302,0.17363 -0.98495,-1.69189 c -2.39412,-4.1124 -6.45025,-9.53046 -8.73849,-11.67267 l -0.76843,-0.71985 -1.84588,1.60042 c -6.18168,5.35838 -12.81461,7.94628 -20.36672,7.94628 -7.82447,0 -14.344359,-2.59713 -20.780132,-8.27701 -1.562496,-1.37898 -2.163394,-1.85536 -2.521293,-1.87896 z" /></svg>
