<?xml version="1.0" encoding="UTF-8" standalone="no"?>
<!-- Created with Inkscape (http://www.inkscape.org/) -->

<svg
   width="230.77165mm"
   height="60.227272mm"
   viewBox="0 0 230.77165 60.227272"
   version="1.1"
   id="svg8193"
   inkscape:version="1.2.2 (b0a8486541, 2022-12-01)"
   sodipodi:docname="l2.svg"
   xmlns:inkscape="http://www.inkscape.org/namespaces/inkscape"
   xmlns:sodipodi="http://sodipodi.sourceforge.net/DTD/sodipodi-0.dtd"
   xmlns="http://www.w3.org/2000/svg"
   xmlns:svg="http://www.w3.org/2000/svg">
  <sodipodi:namedview
     id="namedview8195"
     pagecolor="#ffffff"
     bordercolor="#000000"
     borderopacity="0.25"
     inkscape:showpageshadow="2"
     inkscape:pageopacity="0.0"
     inkscape:pagecheckerboard="0"
     inkscape:deskcolor="#d1d1d1"
     inkscape:document-units="mm"
     showgrid="false"
     inkscape:zoom="0.77326038"
     inkscape:cx="202.38978"
     inkscape:cy="369.21586"
     inkscape:window-width="1920"
     inkscape:window-height="1009"
     inkscape:window-x="1080"
     inkscape:window-y="32"
     inkscape:window-maximized="1"
     inkscape:current-layer="layer1" />
  <defs
     id="defs8190" />
  <g
     inkscape:label="Layer 1"
     inkscape:groupmode="layer"
     id="layer1"
     transform="translate(-47.658499,-50.976879)">
    <path
       id="rect8381"
       style="fill:#1d3247;fill-opacity:1;stroke-width:0.166316"
       d="m 54.508954,50.978031 c -0.295595,-0.0052 -0.588307,0.0069 -0.873482,0.04256 -1.324553,0.165567 -4.447986,2.95629 -5.297092,3.894775 -0.238788,0.263923 -0.461358,0.541448 -0.679881,0.822484 v 55.4663 H 98.20907 c 0.02,-0.0317 0.03952,-0.0693 -0.01624,-0.12506 -0.03672,-0.0367 -0.133792,0.047 -0.155921,0 -0.199316,-0.42354 -0.278672,-0.89568 -0.467438,-1.32403 -0.487091,-1.10533 -1.048501,-2.17652 -1.557911,-3.27174 -0.228654,-0.49161 -0.267577,-1.05391 -0.467438,-1.55791 -0.407217,-1.02689 -0.901221,-2.01729 -1.32403,-3.03786 -0.339645,-0.81984 -0.307387,-1.8653 -0.934876,-2.492792 -1.08791,-1.08791 -2.236326,-3.938079 -2.804305,-5.452691 C 90.020933,92.71548 90.292605,92.87734 90.01347,91.7608 c -0.09799,-0.391966 -0.188292,-0.257549 -0.311517,-0.545075 -0.28493,-0.66483 -0.550221,-1.339473 -0.778956,-2.025673 -0.08373,-0.251208 -0.103989,-0.519297 -0.155921,-0.778956 0,-0.155793 0.03778,-0.315971 0,-0.467113 -0.01781,-0.07125 -0.134492,-0.08558 -0.155596,-0.155921 -0.693265,-2.310883 -1.114517,-4.708182 -2.10331,-6.932964 -0.167572,-0.377037 -0.568267,2.275967 -0.934876,1.713832 -0.851526,-1.305674 -1.619321,-2.66686 -2.336866,-4.050698 -0.689627,-1.329995 -1.317979,-2.691172 -1.947389,-4.050698 -0.09724,-0.210041 -0.02233,-0.174353 0.02274,-0.140329 -0.02523,-0.02205 -0.0707,-0.06355 -0.178334,-0.171188 -0.09817,-0.09817 -0.487583,-0.652268 -0.70132,-0.5454 -0.729347,0.364674 -1.383162,1.202788 -2.18127,1.402315 -0.197925,0.04948 -0.597539,-0.28561 -0.856916,-0.155921 -0.167473,0.08374 -0.347243,0.167674 -0.467113,0.311518 -0.171143,0.205371 -0.200445,0.890351 -0.389478,0.701319 -0.337184,-0.337186 -0.130168,-1.772641 -0.778956,-2.259231 -0.04154,-0.03116 -0.137685,-0.04863 -0.15592,0 -0.150365,0.400971 -0.209503,0.830486 -0.311518,1.246394 -0.56986,2.323273 -1.043052,4.842664 -1.791792,7.088885 -0.05159,0.154778 -0.110486,0.307346 -0.174437,0.458342 -0.383165,-1.087554 -0.778783,-2.171151 -1.14959,-3.262971 -0.479523,-1.411927 -1.129754,-2.49339 -1.791467,-3.816817 -0.228735,-0.457468 -0.372065,-0.956516 -0.62336,-1.40199 -0.321984,-0.570792 -0.734165,-1.086064 -1.090797,-1.635872 -3.088383,-4.761258 0.951276,1.480971 -1.246069,-2.18127 -0.133592,-0.222652 -0.351316,-0.391115 -0.467438,-0.623359 -0.146884,-0.293769 -0.180196,-0.633646 -0.311842,-0.934552 -0.23272,-0.531931 -0.553321,-1.0228 -0.778631,-1.557911 -0.191182,-0.454057 -0.27658,-0.948258 -0.467763,-1.402314 -0.378629,-0.899242 -0.837192,-1.762485 -1.246069,-2.648384 -0.02919,-0.06325 -1.720188,-3.578601 -1.791792,-3.738856 -0.664264,-1.486685 -0.6051,-1.629518 -1.246069,-2.804629 -0.379775,-0.696256 -0.839222,-1.346404 -1.246394,-2.025025 -0.520761,-0.867936 -1.611752,-2.815203 -2.726669,-3.038186 -0.83043,-0.166086 -1.74503,-0.33839 -2.631817,-0.354071 z" />
    <path
       id="rect8381-7"
       style="fill:#1d3247;fill-opacity:1;stroke-width:0.166316"
       d="m 268.47558,51.180404 c -0.0309,0.0016 -0.0565,0.0057 -0.0731,0.01397 -0.22661,0.113306 -0.59518,0.264102 -0.80527,0.439177 -0.13065,0.10888 -0.20153,0.390396 -0.29268,0.511941 -0.12419,0.165587 -0.32436,0.267282 -0.43917,0.439503 -0.33169,0.497534 -0.0195,0.07809 -0.14618,0.585028 -0.35168,1.406728 -0.63761,2.800143 -0.87836,4.244625 -0.20424,1.22545 -0.59785,2.371755 -0.87803,3.585859 -0.31446,1.362689 -0.45767,2.727212 -0.73185,4.098124 -0.34845,1.742249 -0.29264,0.868651 -1.02454,2.927093 -0.83094,2.337047 -1.38336,4.848631 -1.97596,7.244805 -0.7689,3.10901 -0.97283,4.070997 -1.82915,7.317894 -0.0345,0.13074 -0.0708,0.261186 -0.1059,0.391752 -0.014,-0.03272 -0.0262,-0.06658 -0.0406,-0.09908 -0.0614,-0.13824 -0.34417,-0.360245 -0.43918,-0.512265 -0.14072,-0.225148 -0.0884,-0.681234 -0.21959,-0.87803 -0.1946,-0.291911 -0.39914,-0.193235 -0.58535,-0.658767 -0.0362,-0.09059 0.0541,-0.21149 0,-0.292677 -0.0605,-0.09077 -0.22723,-0.0589 -0.29268,-0.146175 -0.0926,-0.123422 -0.0775,-0.301188 -0.1465,-0.439178 -0.23887,-0.477731 -0.71035,-0.960665 -0.87803,-1.463709 -0.10538,-0.316127 -0.0304,-1.010084 -0.51227,-1.170706 -0.0926,-0.03085 -0.2001,0.03086 -0.29267,0 -0.1309,-0.04364 -0.16456,-0.241429 -0.29268,-0.292677 -0.81899,-0.327596 -0.8765,0.946196 -1.02453,1.390295 -0.54972,1.64921 -0.0641,-0.355704 -0.58535,1.902887 -0.14278,0.618702 -0.17719,1.459249 -0.43918,2.048737 -0.24548,0.552329 -0.58536,0.660774 -0.58536,1.171032 0,1.279576 -0.30497,2.530499 -0.43917,3.805448 -0.0409,0.388146 0.026,0.78128 0,1.170706 -0.0438,0.656936 -0.18428,1.398647 -0.29268,2.049063 -0.0584,0.350339 -0.24244,0.67293 -0.29268,1.024531 -0.0276,0.193182 0.0242,0.391718 0,0.585354 -0.13518,1.081506 -0.45575,2.317091 -0.73185,3.366273 -0.18078,0.686947 -0.36072,1.375171 -0.58535,2.049056 -0.069,0.206984 -0.24989,0.371732 -0.29268,0.585681 -0.11521,0.576057 -0.0382,1.178653 -0.1465,1.756062 -0.45669,2.435674 -0.97215,4.720614 -1.75639,7.098634 -0.66354,2.01202 -1.01605,2.82457 -1.63035,4.17348 h 31.63638 V 62.912162 c -0.57128,-1.744554 -1.43168,-3.325923 -2.19751,-4.985251 -0.2202,-0.477083 -0.3507,-0.993735 -0.58568,-1.463708 -0.45762,-0.915252 -1.13839,-1.421231 -1.82947,-2.195238 -0.20806,-0.23302 -0.35188,-0.524318 -0.58536,-0.731855 -0.21262,-0.188992 -0.4988,-0.276044 -0.73185,-0.439177 -1.34942,-0.944595 -1.92933,-1.902561 -3.73204,-1.902561 -0.0629,0 -0.20009,-0.01863 -0.29267,-0.01397 z" />
  </g>
</svg>
