<?xml version="1.0" encoding="UTF-8" standalone="no"?>
<svg
   xmlns:dc="http://purl.org/dc/elements/1.1/"
   xmlns:cc="http://creativecommons.org/ns#"
   xmlns:rdf="http://www.w3.org/1999/02/22-rdf-syntax-ns#"
   xmlns:svg="http://www.w3.org/2000/svg"
   xmlns="http://www.w3.org/2000/svg"
   xmlns:sodipodi="http://sodipodi.sourceforge.net/DTD/sodipodi-0.dtd"
   xmlns:inkscape="http://www.inkscape.org/namespaces/inkscape"
   version="1.1"
   viewBox="0 0 500 500"
   id="svg21"
   sodipodi:docname="william-morris-letter-i.svg"
   inkscape:version="1.0.2 (1.0.2+r75+1)">
  <metadata
     id="metadata25">
    <rdf:RDF>
      <cc:Work
         rdf:about="">
        <dc:format>image/svg+xml</dc:format>
        <dc:type
           rdf:resource="http://purl.org/dc/dcmitype/StillImage" />
      </cc:Work>
    </rdf:RDF>
  </metadata>
  <sodipodi:namedview
     pagecolor="#ffffff"
     bordercolor="#666666"
     borderopacity="1"
     objecttolerance="10"
     gridtolerance="10"
     guidetolerance="10"
     inkscape:pageopacity="0"
     inkscape:pageshadow="2"
     inkscape:window-width="1920"
     inkscape:window-height="1016"
     id="namedview23"
     showgrid="false"
     inkscape:zoom="1.686"
     inkscape:cx="255.33808"
     inkscape:cy="250"
     inkscape:window-x="0"
     inkscape:window-y="27"
     inkscape:window-maximized="1"
     inkscape:current-layer="svg21" />
  <defs
     id="defs7">
    <linearGradient
       id="linearGradient847"
       x1="500"
       x2="0"
       y1="500"
       y2="-4.2633e-14"
       gradientTransform="translate(2.9297e-6)"
       gradientUnits="userSpaceOnUse">
      <stop
         stop-color="#ff6700"
         offset="0"
         id="stop2" />
      <stop
         stop-color="#ffd700"
         offset="1"
         id="stop4" />
    </linearGradient>
  </defs>
  <path
     d="m 174.97,41.814 c -1.7794,0.59312 -8.4531,5.6348 -8.4531,5.6348 0,0 2.3728,11.862 4.0039,12.455 1.6311,0.593 32.918,11.566 32.918,11.566 l 20.018,16.014 -0.5918,211.89 v 0.27149 c 5.7128,1.6911 16.579,4.4312 21.5,2.3984 5.1958,-2.1461 19.034,-4.273 25.396,-5.1738 l -0.18945,-203.46 c 0,0 11.566,-16.904 18.387,-20.166 6.821,-3.262 23.725,-8.3027 23.725,-8.3027 0,0 16.609,-23.726 14.533,-22.836 -2.0759,0.88968 -72.065,-0.5928 -74.141,0.29688 -2.0759,0.88968 -32.918,0.88867 -32.918,0.88867 l -44.188,-1.4824 z m 47.873,272.76 -0.12695,87.268 -2.0762,13.643 -13.049,10.676 -29.656,3.5586 -13.641,8.3047 5.041,12.752 c 0,0 22.242,7.4141 23.725,7.4141 1.483,0 33.85,-3.1797 33.85,-3.1797 l 50.67,-2.1582 31.139,4.1504 14.234,-5.041 1.7793,-6.8203 -13.344,-10.381 -41.52,-22.834 -0.0879,-95.148 -2.5801,-1.8262 -25.209,1.1855 -19.148,-1.5625 z"
     fill="#f4eee6"
     id="path11" />
  <g
     id="g19">
    <g
       transform="translate(-146.86,-119.79)"
       id="g17">
      <path
         d="m146.86 619.79v-500h500v500h-500m7.5-7.5h485v-485h-485v485m7.5-7.5v-469.38h469.38v469.38h-469.38m15-467.5-0.625 1.25c-3.3334 0.83438-5.8334 2.9172-7.5 6.25l-1.875 10.625 1.25-0.625v1.25c-1.6e-4 1.6672 1.4578 3.3338 4.375 5-1.25-2.9162-1.8752-5.4162-1.875-7.5-1.6e-4 -7.0828 3.1248-10.625 9.375-10.625 2.0833 4.7e-4 4.7916 1.0422 8.125 3.125l3.125 5v3.125c-1.6e-4 1.25-0.20781 2.9172-0.625 5-1.6e-4 1.6672-0.20781 3.5422-0.625 5.625-7.9167 14.167-11.875 27.709-11.875 40.625v4.375c-1.6e-4 2.5005 0.20781 4.3755 0.625 5.625 1.6666-17.5 4.7916-31.041 9.375-40.625 5.8333-13.75 8.7498-21.041 8.75-21.875-1.6e-4 -2.4995-1.25-6.0412-3.75-10.625-1.25-2.0828-3.3334-3.3328-6.25-3.75l-10-1.25m59.375 1.875-9.375 3.125-5 3.125-3.75 2.5-6.25 3.75-7.5 5.625c-3.3334 3.3338-5.8334 6.4588-7.5 9.375-3.3334 4.5838-5.0002 8.542-5 11.875-2.9167 2.917-5.0002 7.5005-6.25 13.75l-1.25 8.125-1.25 6.25 0.625 11.25c2.0833-0.41562 3.5416-2.4995 4.375-6.25 4.9998-25.833 12.5-43.75 22.5-53.75 9.9998-10.416 25-15.625 45-15.625 15 4.7e-4 26.666 2.2922 35 6.875l12.5 6.875 6.875 3.75-1.25 2.5c2.4998 1.25 4.5831 1.8755 6.25 1.875 2.0831 4.7e-4 3.1247-0.83281 3.125-2.5-0.41719-0.41562-1.0422-1.0406-1.875-1.875-0.41719-0.83281-1.0422-1.6662-1.875-2.5-2.0836-1.6662-4.1669-3.1245-6.25-4.375-2.0836-1.6662-4.1669-3.1245-6.25-4.375l-0.625-0.625c-5.4169-2.9162-10-4.9995-13.75-6.25-3.7502-1.25-6.6669-2.0828-8.75-2.5l-14.375-1.875-10.625-0.625-17.5 2.5m61.25 1.25c9.1664 2.5005 14.583 4.3755 16.25 5.625l26.25 13.125c2.9164 1.6672 6.8747 2.5005 11.875 2.5 12.083 4.7e-4 18.125-4.1662 18.125-12.5-3.1e-4 -3.3328-2.7086-6.4578-8.125-9.375l-1.25-0.625c-1.25-0.41562-3.7503-0.625-7.5-0.625-2.0836 4.7e-4 -4.5836 0.83438-7.5 2.5l-10.625 2.5 3.125 3.125c3.7497 4.7e-4 6.0414-0.20781 6.875-0.625 4.9997-1.6662 8.7497-2.4995 11.25-2.5 1.6664 4.7e-4 3.9581 1.4594 6.875 4.375l0.625 1.25c-2.0836 5.8338-5.4169 8.7505-10 8.75-5.8336 4.7e-4 -12.709-1.6662-20.625-5l-26.875-12.5-9.375-1.875 0.625 1.875m139.38 13.125c3.333 5.8338 7.9162 8.7505 13.75 8.75 6.6662 4.7e-4 16.666-3.1245 30-9.375l0.625 1.25 14.375-10.625c-5.0005 1.6672-8.3338 2.9172-10 3.75l-17.5 8.125c-5.417 2.0838-10.625 3.1255-15.625 3.125-8.3338 4.7e-4 -12.5-3.3328-12.5-10-3.1e-4 -4.1662 1.6662-6.2495 5-6.25 1.25 4.7e-4 2.2912 0.625 3.125 1.875 1.25 0.83438 3.5412 1.8755 6.875 3.125-2.0838-5.8328-5.0003-8.7495-8.75-8.75-7.5003 4.7e-4 -11.25 3.5422-11.25 10.625-3.1e-4 1.25 0.625 2.7088 1.875 4.375m51.875 1.25-7.5 4.375-1.875 1.875-4.375 3.75c-0.41719 1.25-2.0838 3.3338-5 6.25l-5 9.375-2.5 11.25-7.5-2.5h-1.25c-3.3338 4.7e-4 -6.667 2.917-10 8.75-2.917 5.417-4.5838 11.875-5 19.375l-1.25 26.25-1.875 5.625c-2.0838 7.5003-4.167 11.875-6.25 13.125-1.667 1.25-2.5003 2.0838-2.5 2.5-3.1e-4 1.25 1.0406 1.8753 3.125 1.875 2.9162 3.1e-4 5.6247-2.083 8.125-6.25 0.83281-2.083 1.6662-3.1247 2.5-3.125 1.25 3.1e-4 2.4997 0.625 3.75 1.875 3.333-4.583 4.9997-7.708 5-9.375-3.1e-4 -1.6662-0.83438-4.3747-2.5-8.125-1.667-4.1662-2.5003-7.083-2.5-8.75-3.1e-4 -2.083 0.20781-3.5412 0.625-4.375h1.875l1.25 10.625 1.25 0.625 1.25 1.875 1.25 0.625 1.875-3.125 5 3.75 5 5c-3.1e-4 -3.333 0.20781-5.6247 0.625-6.875v-3.125c0.41562-3.333-0.41719-5.833-2.5-7.5-1.667-1.6662-2.5003-2.4997-2.5-2.5-3.1e-4 -1.6662 0.83281-2.4995 2.5-2.5 1.25 4.7e-4 2.083 0.20938 2.5 0.625-0.41719-4.9995-2.7088-9.1662-6.875-12.5-2.5003-1.6662-3.7503-3.1245-3.75-4.375v-2.5l1.875-0.625c1.6662 4.167 3.958 7.292 6.875 9.375l3.125 1.875 1.25 6.875-0.625 5 2.5 4.375 4.375 6.875 4.375 5 3.75 1.25 3.75 3.75c2.083 2.5003 6.6662 4.792 13.75 6.875 5.4162 0.83438 9.583 1.667 12.5 2.5 3.333 0.41719 5.6245 0.625 6.875 0.625 4.5828 3.1e-4 10.625-1.4578 18.125-4.375 7.9162-2.9162 12.916-6.2497 15-10l1.875-2.5 5-7.5-1.25-8.125-1.875-4.375 5 0.625v4.375l1.875 0.625c0.41562-1.6662 0.625-2.9162 0.625-3.75 0.41562-1.25 0.625-2.2912 0.625-3.125-4.7e-4 -3.7495-2.0838-7.708-6.25-11.875l-5.625-2.5c-1.6672 0.41719-3.1255 0.83438-4.375 1.25-0.83438 4.7e-4 -1.6672 4.7e-4 -2.5 0-0.83438 4.7e-4 -2.0838 4.7e-4 -3.75 0-1.25-0.41562-2.9172-0.83281-5-1.25l-5.625-1.25-11.25 1.25-8.125-0.625-5 3.125h-0.625l-2.5-0.625 3.75-3.75-6.25-3.75-6.25 12.5c-0.83438 3.3338-1.25 4.792-1.25 4.375-4.7e-4 1.25 0.41562 1.8755 1.25 1.875h1.25l10.625-5.625 5-1.25-1.25 4.375-2.5 3.125c2.9162 1.667 5.208 2.5005 6.875 2.5 7.083 4.7e-4 12.708-2.083 16.875-6.25h1.875v2.5c-2.0838 2.0838-3.1255 3.542-3.125 4.375-4.7e-4 -0.41562 0.41562 1.0422 1.25 4.375 3.3328-2.083 5.6245-3.1245 6.875-3.125 4.9995 4.7e-4 7.4995 2.917 7.5 8.75-4.7e-4 2.0838-0.83438 4.5838-2.5 7.5-7.5005 8.3338-16.667 12.5-27.5 12.5-6.2505 3.1e-4 -12.5-1.0406-18.75-3.125-5.8338-2.4997-11.042-5.833-15.625-10-4.167-4.1662-7.7088-8.7497-10.625-13.75-2.5003-4.9995-3.7503-10.416-3.75-16.25-3.1e-4 -21.25 6.0412-37.708 18.125-49.375 12.5-12.083 29.375-18.125 50.625-18.125 8.3328 4.7e-4 22.083 3.5422 41.25 10.625l6.25 1.875v-1.25c-4.7e-4 -3.7495-2.0839-6.2495-6.25-7.5-0.83438-0.83281-3.1255-2.0828-6.875-3.75-7.9172-3.3328-19.167-4.9995-33.75-5-17.5 4.7e-4 -31.459 3.9588-41.875 11.875l-5 3.75m96.25-11.25-0.625 3.125c-4.7e-4 2.0838 1.25 3.1255 3.75 3.125 1.25-3.3328 2.4995-4.9995 3.75-5-4.7e-4 4.7e-4 1.6661 1.0422 5 3.125-0.83438-5.8328-2.7089-8.7495-5.625-8.75-3.7505 4.7e-4 -5.8339 1.4594-6.25 4.375m20.625 0v0.625c-2.0839 3.3338-3.1255 6.6672-3.125 10v1.875l-0.625 1.875v-2.5c-0.83438 1.25-1.4594 1.8755-1.875 1.875h-1.25l-6.25-3.75-1.25-0.625h-1.875c-1.6672 4.7e-4 -2.5005 1.0422-2.5 3.125-4.7e-4 1.6672 0.83281 3.9588 2.5 6.875v1.25l1.875-1.25 13.125 17.5-1.25-1.25 1.875 1.875 3.125 11.875h-4.375c-0.41719-1.6662-1.0422-3.5412-1.875-5.625-0.83438-2.083-1.6672-4.583-2.5-7.5-2.0839-2.4995-5.2089-6.2495-9.375-11.25-2.5005-3.7495-5.0005-5.6245-7.5-5.625-2.5005 4.7e-4 -6.4589 0.625-11.875 1.875v1.25c-4.7e-4 1.25 1.0406 2.5005 3.125 3.75-2.0838 0.83438-3.1255 1.4594-3.125 1.875v1.875l-1.25-1.25-4.375 2.5v1.875l-2.5 5.625-0.625 1.875c-4.7e-4 2.0838 1.25 4.5838 3.75 7.5h3.125c8.7495 4.7e-4 13.125 2.7088 13.125 8.125-4.7e-4 2.0838-2.2922 4.167-6.875 6.25 0.83281 0.41719 2.9161 0.625 6.25 0.625 4.1661 4.7e-4 6.2495-2.9162 6.25-8.75-4.7e-4 -5.4162-2.9172-8.1245-8.75-8.125h-8.125c-0.83438-3.333-1.25-4.9995-1.25-5-4.7e-4 -2.9162 2.0828-4.3745 6.25-4.375 3.7495 4.7e-4 8.5411 2.5005 14.375 7.5 0.83281 2.0838 1.6661 3.9588 2.5 5.625 0.83281 1.667 1.6661 3.542 2.5 5.625l1.875 5.625 1.25 6.875c3.7495 3.3338 7.0828 5.417 10 6.25l6.25 5.625c2.0828-7.4995 3.1245-12.5 3.125-15v-1.875c-4.7e-4 -4.583-0.41719-9.7912-1.25-15.625-0.41719-6.2495-1.4594-13.333-3.125-21.25-0.41719-2.0828-0.83438-4.1662-1.25-6.25-4.7e-4 -2.0828-4.7e-4 -3.9578 0-5.625-4.7e-4 -5.4162 1.25-8.1245 3.75-8.125-4.7e-4 4.7e-4 1.6661 0.41719 5 1.25l-1.25 6.25c4.1661-0.41562 6.2495-2.2912 6.25-5.625-4.7e-4 -2.9162-0.83438-5.8328-2.5-8.75-2.9172-2.9162-5.4172-4.3745-7.5-4.375l-1.875 0.625h-1.25l-6.875 4.375m-205.62-0.625h-1.875c-1.25 4.7e-4 -2.292 1.0422-3.125 3.125v1.875c-3.1e-4 3.3338 1.6664 5.0005 5 5 2.9164 4.7e-4 4.3747-1.8745 4.375-5.625-3.1e-4 -2.9162-1.4578-4.3745-4.375-4.375m-175 11.25c5.4166-0.83281 9.3748-1.4578 11.875-1.875 2.4998-0.83281 3.7498-1.25 3.75-1.25h1.875c-1.6e-4 4.7e-4 0.41719 0.20938 1.25 0.625 0.83281 4.7e-4 2.2916 0.20938 4.375 0.625l-1.875 5.625c7.0831-0.83281 10.625-2.7078 10.625-5.625-1.6e-4 -3.7495-3.1252-5.6245-9.375-5.625h-0.625l-5 0.625-4.375 0.625c-3.3334 0.41719-7.5002 2.5005-12.5 6.25m327.5-6.875c-5.4172 0.41719-9.3755 3.3338-11.875 8.75-4.7e-4 4.1672 2.2912 6.8755 6.875 8.125-1.6672-1.6662-2.5005-3.5412-2.5-5.625-4.7e-4 -4.9995 3.5412-7.4995 10.625-7.5-2.5005 4.7e-4 2.9162 1.25 16.25 3.75-4.1672-2.0828-6.4588-3.3328-6.875-3.75-0.83438-0.41562-2.2922-0.83281-4.375-1.25-2.0838-0.83281-4.7922-1.6662-8.125-2.5m-255.62 9.375c0.41719 0.83438 0.625 2.2922 0.625 4.375-1.6e-4 4.1672-1.6669 5.8338-5 5l-3.125-0.625c2.4998 3.3338 4.7914 5.0005 6.875 5 4.1664 4.7e-4 6.2498-1.8745 6.25-5.625-1.6e-4 -2.9162-1.8752-5.6245-5.625-8.125m-17.5 7.5-0.625 1.875-2.5-0.625c1.6664-1.6662 2.4998-3.5412 2.5-5.625-1.6e-4 -1.6662-1.0422-2.4995-3.125-2.5-3.7502 4.7e-4 -5.6252 2.0838-5.625 6.25-1.6e-4 5.0005 2.9164 7.5005 8.75 7.5 3.7498 4.7e-4 5.6248-2.0828 5.625-6.25-1.6e-4 -2.0828-0.83438-3.1245-2.5-3.125-1.25 4.7e-4 -2.0836 0.83438-2.5 2.5m-45.625 8.75c-2.0834 4.167-4.5834 7.0838-7.5 8.75-2.9169 1.25-6.0419 2.7088-9.375 4.375 1.6666 2.5005 3.7498 3.7505 6.25 3.75l3.75-0.625 1.25 3.125c4.1666-1.6662 7.4998-6.458 10-14.375 2.4998-7.9162 7.2916-11.875 14.375-11.875 1.6666 4.7e-4 2.4998 0.625 2.5 1.875l-0.625 1.875c-3.3334 0.83438-7.7084 3.9588-13.125 9.375-1.25 2.5005-1.8752 4.167-1.875 5 0.41719 0.41719 0.625 1.0422 0.625 1.875-1.6e-4 0.83438 0.20781 1.4594 0.625 1.875h3.125l0.625 3.125c-2.5002 5.0005-3.7502 9.5838-3.75 13.75v3.125c-1.6e-4 1.667 1.4578 2.5005 4.375 2.5 3.3331 4.7e-4 6.2498-1.0406 8.75-3.125 2.9166-2.4995 4.5831-3.7495 5-3.75 1.6666 4.7e-4 2.7081 0.20938 3.125 0.625l1.25 1.25c1.25-0.41562 3.7498-2.2912 7.5-5.625l5.625-13.125c0.41562-0.41562 0.83281-0.625 1.25-0.625 1.6664 4.7e-4 2.4998 0.625 2.5 1.875-1.6e-4 1.25-0.41719 2.292-1.25 3.125l-3.75 10.625c-4.5836 2.5005-6.8752 5.2088-6.875 8.125-1.6e-4 2.0838 0.625 5.0005 1.875 8.75 2.0831 0.41719 3.5414 0.83438 4.375 1.25 0.83281 4.7e-4 1.25 4.7e-4 1.25 0l4.375 2.5h0.625c1.6664-0.41562 2.4998-0.83281 2.5-1.25l-1.25-11.875 5.625-15c0.41562-0.41562 0.625-1.6662 0.625-3.75-1.6e-4 -8.333-3.7502-13.541-11.25-15.625h-1.25c-2.5002 4.7e-4 -4.5836 0.83438-6.25 2.5-0.41719 1.667-0.83281 2.5005-1.25 2.5-0.83281 4.7e-4 -1.6669-0.41562-2.5-1.25 0.41719-1.6662 0.625-2.9162 0.625-3.75 0.41719-0.83281 0.625-1.6662 0.625-2.5-1.6e-4 -7.4995-4.3752-11.25-13.125-11.25-6.6669 4.7e-4 -13.333 3.9588-20 11.875m256.25-10-10.625 10.625-3.125 5-2.5 5 0.625 6.875-0.625 1.25 3.125 2.5c0.41562 0.41719 1.0406 0.625 1.875 0.625 2.9162 4.7e-4 4.583-2.708 5-8.125l-3.125 1.25c-1.667-1.6662-2.5005-3.7495-2.5-6.25-4.7e-4 -2.4995 2.4995-6.6662 7.5-12.5l2.5-2.5c0.83281-0.83281 1.8745-2.0828 3.125-3.75h-1.25m-167.5 1.25-6.875 3.75v0.625c-3.1e-4 2.0838 1.25 3.3338 3.75 3.75l23.125 5.625 5.625 2.5c5.8331 1.667 10.416 4.167 13.75 7.5l6.25 9.375 0.625 1.25 2.5 7.5 0.625 3.125 1.25 16.875-0.625 65.625v46.875l-0.625 78.125c7.4997 1.25 13.541 1.8752 18.125 1.875 1.6664 1.6e-4 3.7497 1.6e-4 6.25 0 2.9164-0.41719 6.6664-0.83281 11.25-1.25l-0.625-38.75 0.625-155c-3.1e-4 -12.083 2.2914-22.291 6.875-30.625 4.9997-8.7495 11.25-13.541 18.75-14.375l27.5-4.375c2.9162-0.41562 4.3747-1.8745 4.375-4.375-3.1e-4 -2.4995-4.167-3.7495-12.5-3.75h-4.375l-63.75 1.875-61.875-3.75m189.38 3.125-6.875 2.5-3.75 3.75-5 1.875-1.25 3.125c-0.83438 0.83438-1.667 2.0838-2.5 3.75-0.83438 1.25-1.8755 2.917-3.125 5l-3.125 5-1.25 9.375c0.41562 7.917 2.083 14.375 5 19.375 1.25-5.4162 2.4995-9.1662 3.75-11.25 1.25-2.4995 2.083-4.1662 2.5-5 0.41562-5.4162 1.25-8.1245 2.5-8.125 0.41562 0.41719 0.83281 0.625 1.25 0.625l2.5 3.75 1.875-0.625 3.75-16.875 2.5-4.375c2.4995-3.333 5.208-4.9995 8.125-5 1.25 4.7e-4 1.8745 0.20938 1.875 0.625-4.7e-4 1.25-1.25 2.5005-3.75 3.75-3.7505 2.0838-5.8338 6.2505-6.25 12.5l2.5 0.625-3.75 13.125 11.25 0.625c3.7495 0.41719 6.4578-0.83281 8.125-3.75 2.0828-3.333 3.3328-4.9995 3.75-5-0.41719 4.7e-4 0.625 0.41719 3.125 1.25l-2.5 7.5c1.25 0.41719 2.7078 0.625 4.375 0.625h3.75c12.083 0.83438 18.75 2.5005 20 5l3.125 5.625-0.625-9.375-5.625-5.625c-1.25 4.7e-4 -1.8755-0.41562-1.875-1.25-4.7e-4 -0.83281 0.41562-1.25 1.25-1.25 0.83281 4.7e-4 2.9162 1.25 6.25 3.75-0.83438-7.083-4.7922-10.625-11.875-10.625-0.41719 4.7e-4 -0.83438 0.625-1.25 1.875l-1.25-1.875-3.75-1.25 1.25-1.875 0.625-0.625c2.4995 4.7e-4 6.6662 1.4594 12.5 4.375-1.25-4.583-3.1255-6.8745-5.625-6.875-1.6672 4.7e-4 -2.7088 0.20938-3.125 0.625l1.25-1.875c-2.0838-0.41562-3.9588-0.625-5.625-0.625-1.25-0.41562-2.2922-0.625-3.125-0.625-0.83438 4.7e-4 -3.7505 1.0422-8.75 3.125-0.41719 0.41719-1.4594 0.625-3.125 0.625l-1.25-1.25c-4.7e-4 -3.333 5.2078-4.9995 15.625-5 1.6662 4.7e-4 4.1662 0.625 7.5 1.875-2.5005-4.1662-6.0422-6.6662-10.625-7.5l-0.625-1.25v-1.25c-4.7e-4 -0.83281-1.6672-2.2912-5-4.375l-6.25-2.5h-13.125l-6.25 1.25m-303.75 9.375c-2.0834-1.25-3.3334-1.8745-3.75-1.875-1.6667 4.7e-4 -2.5002 1.8755-2.5 5.625-1.6e-4 5.417 4.9998 8.9588 15 10.625l-3.75-5.625 1.875-13.125v-1.875l-1.25-0.625-3.125-1.875-2.5 8.75m109.38-2.5 4.375 5 21.25 6.25 16.25 6.875c-3.1e-4 -2.9162-2.2919-5.4162-6.875-7.5-0.41719-0.41562-2.2919-1.25-5.625-2.5l-8.75-3.125-9.375-2.5-11.25-2.5m-25 13.75c1.6664 7.917 5.8331 11.875 12.5 11.875 2.0831 4.7e-4 4.7914-1.0406 8.125-3.125l3.75-3.75c0.41719 4.7e-4 1.0422-3.1245 1.875-9.375-3.3336 8.7505-7.9169 13.125-13.75 13.125-6.2502 4.7e-4 -9.3752-3.333-9.375-10-1.6e-4 -3.333 1.25-4.9995 3.75-5-1.6e-4 4.7e-4 1.6664 0.41719 5 1.25l2.5 1.25v-1.25c-1.6e-4 -4.583-1.8752-6.8745-5.625-6.875-5.4169 4.7e-4 -8.3336 3.9588-8.75 11.875m138.75-5-5.625 1.25-1.25 2.5c-6.667 5.0005-11.042 11.667-13.125 20-0.41719 1.25-0.625 4.3755-0.625 9.375v116.88l-0.625 83.125h4.375l1.25-203.12c-3.1e-4 -4.9995 1.8747-10.416 5.625-16.25 3.7497-5.833 7.9162-9.3745 12.5-10.625l20.625-3.75 6.875-5.625c-6.2503 4.7e-4 -16.25 2.0838-30 6.25m-106.88 13.125-0.625 8.125c-3.1e-4 4.167-0.41719 7.5005-1.25 10l-2.5 4.375-5 9.375c-5.8336 12.084-16.667 18.125-32.5 18.125-20.834 3.1e-4 -31.875-10.833-33.125-32.5l-3.75 0.625 0.625 5.625v6.25c-1.6e-4 1.25 1.0422 3.542 3.125 6.875 7.9166 12.5 20.208 18.75 36.875 18.75 5.8331 3.1e-4 10.416-1.25 13.75-3.75l4.375-3.125 6.25-3.75c3.7497-1.6662 7.7081-6.458 11.875-14.375 4.1664-8.333 6.6664-16.875 7.5-25.625v-3.75l-1.25-5.625v-3.75l-5-2.5 0.625 10.625m-158.12-6.25-0.625 1.875 6.875 1.875 2.5 21.25v-19.375c-1.6e-4 -4.9995-1.4578-7.708-4.375-8.125v-0.625h-1.25c-1.6667 4.7e-4 -2.7084 0.625-3.125 1.875v1.25m166.88-2.5v6.875c2.4997 7.0838 5.8331 10.625 10 10.625 1.25 4.7e-4 2.9164-1.0406 5-3.125-5.0003-1.25-8.5419-3.7495-10.625-7.5l-2.5-6.25-1.875-0.625m-139.38 14.375c-1.25 3.3338-1.8752 5.417-1.875 6.25-1.6e-4 4.7e-4 -1.6e-4 0.41719 0 1.25 0.41719 0.41719 0.83281 1.25 1.25 2.5 3.3333-9.583 7.0833-14.375 11.25-14.375 2.0833 4.7e-4 4.3748 1.4594 6.875 4.375v6.875c3.3331-2.4995 4.9998-4.7912 5-6.875-1.6e-4 -2.083-1.4578-4.583-4.375-7.5h-0.625c-2.5002-1.25-4.5834-1.8745-6.25-1.875-4.5834 4.7e-4 -8.3334 3.1255-11.25 9.375m29.375 4.375 6.875 1.25c-2.5002 5.0005-3.7502 10-3.75 15l14.375-3.125 0.625 7.5c1.25-0.41562 1.8748-1.0406 1.875-1.875v-3.125l-1.25-6.25-1.25-0.625-3.125-2.5-3.125 2.5 3.125-7.5c-1.6e-4 -1.25-0.625-1.8745-1.875-1.875h-0.625l-1.25-5.625v-5.625h-0.625l-0.625 0.625-7.5 2.5-1.875 8.75m63.75 15-5 4.375c4.1664 0.83438 6.2498 1.25 6.25 1.25 2.4998 3.1e-4 4.3748-2.4995 5.625-7.5h1.25l1.25 3.125-3.125 3.75c8.3331-3.333 12.5-6.2495 12.5-8.75-1.6e-4 -0.83281-0.625-1.6662-1.875-2.5-1.25-0.83281-1.8752-1.4578-1.875-1.875-1.6e-4 -1.25 0.625-2.9162 1.875-5-0.41719-0.41562-1.25-0.625-2.5-0.625l-1.25 0.625-1.875 0.625-4.375 1.875-3.75-1.875c-1.6669 4.7e-4 -2.5002 1.4594-2.5 4.375l0.625 5c-1.6e-4 -0.41562-0.41719 0.625-1.25 3.125m53.125-12.5c-1.25 0.83438-2.5003 2.0838-3.75 3.75-3.1e-4 2.0838 0.83281 3.1255 2.5 3.125 3.7497 4.7e-4 5.6247-1.6662 5.625-5-3.1e-4 -1.25-1.0422-1.8745-3.125-1.875h-1.25m-85.625 12.5c4.1666-2.4995 7.2914-6.2495 9.375-11.25-3.3334-0.83281-5.0002-1.25-5-1.25-3.3334 4.7e-4 -4.7919 3.3338-4.375 10v2.5m76.875-6.25c-0.83438 4.7e-4 -1.4594 1.25-1.875 3.75l-0.625 2.5c-3.1e-4 0.83438 0.625 1.25 1.875 1.25 1.6664 4.7e-4 2.4997-2.2912 2.5-6.875-3.1e-4 -0.83281-0.41719-1.25-1.25-1.25l-0.625 0.625m13.75 2.5c11.25 0.83438 16.875 5.8338 16.875 15-3.1e-4 7.917-3.5419 15.417-10.625 22.5 0.83281 0.83438 1.4578 1.25 1.875 1.25 1.6664-0.41562 2.9164-1.4578 3.75-3.125l5-6.25c2.4997-2.9162 3.7497-7.083 3.75-12.5-3.1e-4 -13.333-5.2086-20-15.625-20-2.5003 4.7e-4 -4.1669 1.0422-5 3.125m-148.12 1.25-5.625-1.875c-2.5002 2.917-3.9584 6.4588-4.375 10.625l1.25 7.5 1.875 3.75 1.25 3.75-1.25 2.5-1.875 0.625c-2.9167 3.1e-4 -4.3752-2.083-4.375-6.25v-5c0.41719-2.083 0.625-3.5412 0.625-4.375 0.41719-0.83281 0.625-1.4578 0.625-1.875-1.6e-4 -0.41562-0.625-1.6662-1.875-3.75l-3.75-3.75c-3.3334-0.83281-5.0002-1.25-5-1.25-1.25 4.7e-4 -2.7084 0.83438-4.375 2.5l-2.5 4.375 5.625 1.875 3.75 3.75c0.41719 2.0838 0.625 3.9588 0.625 5.625 0.41719 1.25 0.625 2.292 0.625 3.125v3.75c-0.83281 5.8338 2.4998 8.7503 10 8.75 3.3333 3.1e-4 6.4583-1.25 9.375-3.75 3.3333-2.9162 4.9998-6.0412 5-9.375v-1.875l-5-9.375v-1.25c-1.6e-4 -3.333 3.1248-6.0412 9.375-8.125-1.6667-2.9162-3.7502-4.3745-6.25-4.375l-1.25 0.625-2.5 3.125m410 8.75 0.625 1.25 5 7.5 1.875 5.625c1.6661 3.3338 2.4995 6.667 2.5 10v1.25c-0.41719 4.5838-1.4594 9.792-3.125 15.625-1.6672 5.417-2.5005 8.1253-2.5 8.125-4.7e-4 0.83438 0.41562 1.667 1.25 2.5 5.4161-6.6662 8.1245-14.583 8.125-23.75-4.7e-4 -10.416-2.9172-19.583-8.75-27.5-5.8339-8.333-12.292-12.5-19.375-12.5-5.0005 4.7e-4 -9.3755 2.0838-13.125 6.25-3.3339 3.7505-5.0005 8.3338-5 13.75v1.25l0.625 3.75 1.875 10c0.41562-0.41562 0.83281-0.625 1.25-0.625l1.25-1.25v-1.25l-0.625-15.625c-4.7e-4 -7.9162 4.5828-11.875 13.75-11.875 3.7495 4.7e-4 8.5411 2.5005 14.375 7.5m-270-6.875c-1.6669 1.25-2.5003 2.292-2.5 3.125-3.1e-4 2.5005 1.4578 3.7503 4.375 3.75 2.9164 3.1e-4 4.3747-1.6662 4.375-5v-1.875l-1.25-1.25-3.75-0.625-1.25 1.875m136.25 1.875c6.2495 18.75 19.375 28.125 39.375 28.125 9.5828 3.1e-4 14.375-3.7497 14.375-11.25-4.7e-4 -7.4997-3.5422-11.25-10.625-11.25-4.167 3.1e-4 -7.0838 2.7088-8.75 8.125 1.6662-1.6662 3.7495-2.4997 6.25-2.5 1.6662 3.1e-4 3.333 0.83438 5 2.5 0.41562 1.25 0.625 2.292 0.625 3.125 0.41562 0.41719 0.625 0.625 0.625 0.625-4.7e-4 4.5838-3.9588 6.8753-11.875 6.875-10.417 3.1e-4 -20.834-6.458-31.25-19.375l-3.75-5m-125 0.625-3.125 5.625c0.41562 0.41719 1.4578 0.625 3.125 0.625 1.6664 3.1e-4 2.4997-0.83281 2.5-2.5-3.1e-4 -1.25-0.83281-2.4995-2.5-3.75m-15 10-0.625-1.875c-0.83281-3.333-1.6669-4.9995-2.5-5-2.9169 4.7e-4 -4.3753 1.667-4.375 5-3.1e-4 4.167 1.25 6.2503 3.75 6.25 2.4997 3.1e-4 3.7497-1.4578 3.75-4.375m266.25-6.25c-2.9172 11.25-6.2505 19.167-10 23.75l-4.375 4.375-5 6.25c-0.83438 0.83438-5.8339 4.5838-15 11.25l-3.75 2.5-10 4.375-4.375 3.125-4.375 0.625-3.75 1.875-16.875 5c-0.41719 3.1e-4 -4.5838 1.667-12.5 5l-14.375 5.625-9.375 6.25-6.25 3.75-0.625 5.625 23.75-12.5 53.75-18.75c16.25-5.833 31.458-16.458 45.625-31.875 5.4161-5.4162 8.1245-9.7912 8.125-13.125-4.7e-4 -2.4997-2.2922-6.0412-6.875-10.625l-3.75-2.5m-260 3.75c-1.25 3.1e-4 -2.5003 0.83438-3.75 2.5v1.25c-3.1e-4 2.0838 1.0406 3.1253 3.125 3.125 2.9164 3.1e-4 4.3747-1.25 4.375-3.75-3.1e-4 -2.4997-1.25-3.5412-3.75-3.125m245 2.5-1.875 5c3.3328 0.83438 4.9995 2.0838 5 3.75-4.7e-4 -0.83281-2.0839 2.917-6.25 11.25l3.75-3.125 3.75-6.875 3.125-2.5v-3.125c0.83281-4.583-0.625-6.8747-4.375-6.875-1.6672 3.1e-4 -2.7089 0.83438-3.125 2.5m-365 23.75c-0.41719-1.6662-0.83281-3.1247-1.25-4.375-1.6e-4 -1.25-1.6e-4 -2.4997 0-3.75-1.6e-4 -5.833 3.7498-8.7497 11.25-8.75 6.2498 3.1e-4 10.833 0.83438 13.75 2.5l16.25 8.75 8.125 1.875-5.625-3.125-8.75-5.625c-2.0834-0.83281-4.7919-1.8747-8.125-3.125-3.3334-1.6662-7.2919-3.5412-11.875-5.625-3.3334-1.6662-6.4584-2.4997-9.375-2.5-9.5834 3.1e-4 -14.375 4.3753-14.375 13.125-1.6e-4 4.167 3.3331 7.7088 10 10.625m97.5-18.125c-7.5002 7.0838-11.25 12.292-11.25 15.625-1.6e-4 4.5838 1.4578 6.8753 4.375 6.875h0.625l4.375-1.875-4.375-4.375v-0.625c-1.6e-4 -2.9162 2.0831-7.708 6.25-14.375v-1.25m196.25 48.75 5.625-1.25c2.083 3.1e-4 3.5412-1.25 4.375-3.75 0.41562-0.41719 0.625-1.6664 0.625-3.75-4.7e-4 -6.2497-2.917-10.625-8.75-13.125l-28.75-10-17.5-13.75-0.625 1.25c-3.1e-4 1.667 1.0406 3.542 3.125 5.625l6.875 5.625c1.6662 1.667 3.5412 3.1253 5.625 4.375 2.083 0.83438 4.1662 1.667 6.25 2.5 15.416 5.0003 23.75 8.7503 25 11.25l1.875 3.125c0.83281 2.5003 1.25 3.7503 1.25 3.75v0.625l-5 7.5m-198.12-9.375c-0.83281 1.667-1.6669 2.917-2.5 3.75-0.83281 0.41719-1.4578 0.83281-1.875 1.25-7.5002 8.7503-11.25 17.084-11.25 25-1.6e-4 5.8336 1.4578 10.209 4.375 13.125l3.125 5c2.0831 2.0836 4.1664 3.3336 6.25 3.75 0.41719-0.41719 0.625-1.25 0.625-2.5-3.1e-4 -0.83281-1.25-1.8747-3.75-3.125-5.0002-2.9164-7.5002-8.7497-7.5-17.5-1.6e-4 -2.9164 1.25-7.2914 3.75-13.125 1.25-2.9164 2.2914-4.7914 3.125-5.625l3.75-2.5 1.875-2.5h3.125c0.41562 4.167 1.6664 6.2503 3.75 6.25-3.1e-4 3.1e-4 1.0422-0.41562 3.125-1.25 2.0831-0.83281 5.4164-2.083 10-3.75l8.75 4.375 3.75 6.25 5.625-8.75c-3.1e-4 -2.083-1.0422-3.5414-3.125-4.375-1.6669-0.83281-3.1253-1.25-4.375-1.25-2.5003 3.1e-4 -5.2086 0.83438-8.125 2.5-1.6669-0.41719-2.5003-0.83281-2.5-1.25-3.1e-4 -1.6664 0.41719-2.4997 1.25-2.5l8.125-1.25c3.3331-0.83281 4.9997-3.1247 5-6.875h-1.25c-1.25 3.1e-4 -1.8753-0.41562-1.875-1.25-3.1e-4 -1.25 0.83281-2.4997 2.5-3.75 1.6664-1.6662 2.4997-2.708 2.5-3.125-3.1e-4 -2.083-1.0422-3.1247-3.125-3.125h-3.125c-0.41719-0.41562-0.83281-0.83281-1.25-1.25-0.41719-0.41562-0.83281-1.0406-1.25-1.875l-6.25 2.5-1.875 0.625c-2.0836 3.3338-4.7919 5.2088-8.125 5.625l-0.625-3.75c6.6664-3.333 10.208-8.1247 10.625-14.375h-3.75l-1.875-2.5c-0.41719-1.6662-1.6669-2.4997-3.75-2.5-0.41719 0.41719-0.83438 0.625-1.25 0.625l-0.625 0.625c0.83281 0.83438 1.4578 2.917 1.875 6.25v1.875c-3.1e-4 1.25-0.625 2.7088-1.875 4.375l-10.625 11.25c-1.6669 1.667-2.5002 3.9588-2.5 6.875-1.6e-4 1.667 1.0422 2.917 3.125 3.75m153.75-26.25c-1.25 3.3338-1.8753 5.6253-1.875 6.875-3.1e-4 1.25 0.41562 1.8753 1.25 1.875 2.083 3.1e-4 3.1245-1.25 3.125-3.75-0.41719-0.83281-0.83438-1.6662-1.25-2.5-4.7e-4 -0.83281-0.41719-1.6662-1.25-2.5m-273.75 1.25-3.125 1.875 1.875 3.125 1.875 5 3.75 4.375c14.583 21.667 33.333 33.959 56.25 36.875l-3.125-2.5v-2.5c-2.5002-0.41562-6.0419-1.6664-10.625-3.75l-8.75-3.75-8.125-5-16.25-14.375-4.375-5-1.875-4.375-1.875-6.25c-0.83281-2.4997-2.7084-3.7497-5.625-3.75m34.375 18.125c0.83281 13.334 8.5416 20.834 23.125 22.5l-10.625-6.875c-3.7502-5.4164-5.6252-10.208-5.625-14.375-1.6e-4 -7.9162 3.7498-11.875 11.25-11.875 3.3331 3.1e-4 7.9166 2.292 13.75 6.875-1.25-9.583-6.2502-14.375-15-14.375-9.1669 3.1e-4 -14.792 6.042-16.875 18.125m230-16.875c-1.667 3.1e-4 -2.7088 0.83438-3.125 2.5v0.625c0.83281 2.917 1.4578 4.5838 1.875 5h0.625c2.9162 3.1e-4 4.3747-1.25 4.375-3.75-3.1e-4 -2.9162-1.25-4.3747-3.75-4.375m89.375 1.875c4.5828 2.0838 6.8745 5.0003 6.875 8.75-4.7e-4 4.5838-2.7088 8.1253-8.125 10.625l-11.25 5-5 3.75c20.416-4.9997 30.625-12.083 30.625-21.25-4.7e-4 -5.833-3.5422-8.7497-10.625-8.75-1.25 3.1e-4 -1.8755 0.20938-1.875 0.625l-0.625 1.25m52.5 3.125c3.7495 0.83438 6.2495 2.7088 7.5 5.625 2.4995-1.25 3.7495-2.9162 3.75-5-4.7e-4 -3.333-1.8755-4.9997-5.625-5-2.5005 3.1e-4 -4.3755 1.4594-5.625 4.375m-314.38-3.125c-8.7502 1.25-13.75 6.8753-15 16.875l-5.625-0.625c-1.25 3.1e-4 -1.8752 0.83438-1.875 2.5-1.6e-4 7.917 3.1248 13.334 9.375 16.25l0.625-1.25-6.25 3.125v0.625c-0.83281-0.41719-2.2919-0.625-4.375-0.625-4.1669 3.1e-4 -6.2502 0.83438-6.25 2.5l-0.625 1.25 2.5 3.125 4.375 5c1.6664 2.5003 8.9581 4.792 21.875 6.875 1.25 0.41719 2.7081 0.83438 4.375 1.25 2.0831 3.1e-4 4.1664 0.41719 6.25 1.25-0.41719-1.6664-0.83281-2.9164-1.25-3.75-1.6e-4 -1.25-1.6e-4 -2.2914 0-3.125-1.6e-4 -0.41719-1.6e-4 -1.25 0-2.5 0.41719-1.25 0.83281-2.9164 1.25-5l-5-5c-6.2502-5.4164-9.3752-11.25-9.375-17.5-1.6e-4 -4.583 1.8748-7.9162 5.625-10 1.6664-1.25 2.9164-1.8747 3.75-1.875 1.25 3.1e-4 2.0831 0.20938 2.5 0.625l4.375 4.375v-1.25c0.41562-0.83281 0.625-2.4997 0.625-5-1.6e-4 -4.1662-3.9586-6.8747-11.875-8.125m192.5 5.625-3.75-2.5-1.25 1.25c-4.7e-4 0.41719-0.20938 0.83438-0.625 1.25v1.25c-4.7e-4 1.667 1.0406 2.5003 3.125 2.5 2.083 3.1e-4 3.1245-1.0406 3.125-3.125l-0.625-0.625m-12.5 1.875c-1.667 3.1e-4 -2.7088 0.83438-3.125 2.5v1.25c-3.1e-4 2.5003 1.4578 3.7503 4.375 3.75 2.083 3.1e-4 3.1245-1.0406 3.125-3.125-4.7e-4 -2.9162-1.4594-4.3747-4.375-4.375m128.12 6.875 4.375 5c11.666 11.667 17.083 21.875 16.25 30.625v2.5c-4.7e-4 2.0836 1.0406 3.542 3.125 4.375l0.625-6.25c0.41562-13.75-5.2089-25-16.875-33.75l-6.25-4.375-1.25 1.875m-101.25 17.5-2.5 5-4.375 4.375-3.75 5.625c11.25-4.1664 16.875-9.7914 16.875-16.875-4.7e-4 -3.333-1.4594-6.6664-4.375-10-2.917-3.7497-6.042-5.6247-9.375-5.625-6.2505 3.1e-4 -9.3755 3.9588-9.375 11.875-4.7e-4 0.83438 0.20781 1.4578 0.625 1.875 0.41562 3.1e-4 1.25-1.0406 2.5-3.125 1.6662-2.083 2.708-3.1247 3.125-3.125h0.625l5 1.25c3.333 0.83438 4.9995 3.3336 5 7.5v1.25m-50 23.75c-3.7503 2.5003-6.667 3.7503-8.75 3.75-4.5838 3.1e-4 -6.8753-2.2914-6.875-6.875-3.1e-4 -2.083 1.25-4.583 3.75-7.5 2.4997-3.333 3.7497-5.208 3.75-5.625v-0.625c-0.41719-1.25-1.25-2.708-2.5-4.375-0.83438-2.083-1.667-3.1247-2.5-3.125h-3.75c1.6662 1.667 2.4997 3.7503 2.5 6.25-3.1e-4 -0.41719-0.41719 1.4578-1.25 5.625-3.3338 4.5836-5.0003 8.3336-5 11.25-3.1e-4 8.3336 3.7497 12.5 11.25 12.5 2.9162 3.1e-4 6.0412-1.25 9.375-3.75 3.7497-2.9164 5.6247-5.833 5.625-8.75v-1.25c-1.667-3.7497-2.5003-8.958-2.5-15.625-3.1e-4 -9.1664 3.1247-13.75 9.375-13.75h0.625c1.6662 0.83281 3.333 2.7086 5 5.625 1.6662 2.917 2.4997 5.8336 2.5 8.75-3.1e-4 3.3336-1.667 7.917-5 13.75l-9.375 13.75-2.5 3.75c-8.7503 8.3336-13.125 15.417-13.125 21.25-3.1e-4 3.1e-4 0.41562 2.0836 1.25 6.25l1.25 3.125 1.25 1.875c5.4162 4.1669 10.416 6.2503 15 6.25 2.083 3.1e-4 4.7912-1.0406 8.125-3.125l29.375-20c2.9162-2.4997 7.083-3.7497 12.5-3.75 10.416 3.1e-4 15.625 3.9586 15.625 11.875 0.41562 0.41719 1.0406 0.625 1.875 0.625 2.0828 3.1e-4 3.1245-2.4997 3.125-7.5-4.7e-4 -6.6664-4.3755-11.25-13.125-13.75l-10 1.25 5-11.25c-2.0838-0.41562-3.7505-0.625-5-0.625-1.25-0.41719-2.292-0.625-3.125-0.625-7.0838 3.1e-4 -13.542 2.292-19.375 6.875l-11.25 8.125-0.625 1.875-5 4.375-6.875 10-6.875 1.875c-0.41719-0.83281-0.625-2.2914-0.625-4.375-3.1e-4 -0.41562 3.7497-3.5414 11.25-9.375l5-5 8.125-10 3.125-8.75c0.83281-3.333 1.25-4.7914 1.25-4.375-4.7e-4 -0.83281-0.41719-1.6664-1.25-2.5-0.83438 1.25-1.667 1.8753-2.5 1.875-1.25 3.1e-4 -1.8755-0.20781-1.875-0.625l1.875-6.875 0.625-5.625 0.625-8.125c-4.7e-4 -2.4997-2.917-6.2497-8.75-11.25-2.917-1.6662-5.8338-2.4997-8.75-2.5-10 3.1e-4 -14.584 5.0003-13.75 15l0.625 3.75 3.125 11.875-1.875 8.125m-265.62-32.5c1.25 2.917 2.7083 4.3753 4.375 4.375 2.9166 3.1e-4 4.3748-1.6664 4.375-5-1.6e-4 -3.333-1.6667-4.9997-5-5-2.5002 3.1e-4 -3.7502 1.4594-3.75 4.375v1.25m-11.25-3.125v2.5c-1.6e-4 2.5003 1.0422 3.7503 3.125 3.75 2.9166 3.1e-4 4.3748-1.4578 4.375-4.375-1.6e-4 -2.9162-1.4578-4.3747-4.375-4.375-0.41719 0.41719-1.0422 0.625-1.875 0.625l-1.25 1.875m37.5 18.75c0.83281-3.333 2.2916-4.9997 4.375-5-1.6e-4 3.1e-4 0.41719 0.20938 1.25 0.625 1.25 3.1e-4 2.9166 0.41719 5 1.25l5 3.125 6.25 1.875-19.375-11.875c-0.83281-0.83281-1.6667-1.25-2.5-1.25-3.3334 3.1e-4 -5.0002 1.4594-5 4.375-1.6e-4 2.0836 1.6666 4.3753 5 6.875m287.5 19.375 5.625-1.25 27.5-8.75 47.5-4.375 18.75-5 8.125-3.75c3.3328-1.25 4.9995-2.4997 5-3.75-4.7e-4 -1.25-0.83438-1.8747-2.5-1.875-0.83438 0.41719-1.8755 1.0422-3.125 1.875-1.25 0.83438-2.9172 1.8753-5 3.125-0.83438 0.83438-2.5005 1.667-5 2.5-2.0839 0.41719-4.7922 1.0422-8.125 1.875-2.9172 0.41719-6.0422 0.83438-9.375 1.25-2.9172 0.41719-5.4172 0.83438-7.5 1.25l-24.375 2.5c-21.25 1.667-37.084 6.4586-47.5 14.375m-305-7.5c-0.83281-2.4997-1.8752-3.7497-3.125-3.75l-3.75 0.625-1.875-1.875-1.25-2.5-1.875-1.25 1.875-8.75c-0.83281-1.6664-1.4578-2.708-1.875-3.125h-1.25c-2.9167 3.1e-4 -4.3752 2.5003-4.375 7.5-1.6e-4 10 4.1666 14.584 12.5 13.75l5-0.625m-5.625-18.75-0.625 0.625v1.25c-1.6e-4 0.83281 0.20781 1.4578 0.625 1.875l1.25 1.875 1.25-5.625h-2.5m6.875 2.5c-1.6e-4 7.5003 3.1248 12.709 9.375 15.625l-0.625 1.875h-3.125l0.625 1.25c-5.4167 1.667-8.5417 5.6253-9.375 11.875l4.375-3.125 8.75-3.75 2.5-5.625c1.25-1.6664 4.7916-2.4997 10.625-2.5h7.5c4.5831 3.1e-4 8.5416 3.1e-4 11.875 0 3.3331-0.41562 6.4581-0.83281 9.375-1.25-6.2502-1.6664-11.458-2.4997-15.625-2.5-3.3334 3.1e-4 -5.6252 0.20938-6.875 0.625l-6.875 0.625-9.375 0.625c-0.41719-3.7497-2.0834-6.6664-5-8.75l-1.875-0.625-6.25-4.375m419.38 45.625 0.625-3.125-5-5c-1.6672-1.6664-3.1255-4.9997-4.375-10-0.41719-1.6664-0.83438-2.9164-1.25-3.75-4.7e-4 -1.25-4.7e-4 -2.2914 0-3.125-4.7e-4 -1.6664 0.20781-2.708 0.625-3.125l3.125-10-6.25 6.25v5l-0.625 5 0.625 5 1.875 5c1.6661 7.0836 4.5828 11.042 8.75 11.875h1.875m-260 3.75 3.75 5.625 1.875 3.75 8.75 18.75c-0.83281-3.3331-1.4578-6.2497-1.875-8.75-0.41719-2.4997-0.83281-4.5831-1.25-6.25-7.0836-19.166-10.625-29.791-10.625-31.875-3.1e-4 -7.083 2.2914-10.625 6.875-10.625 1.6664 3.1e-4 3.5414 0.625 5.625 1.875l-0.625 2.5c-3.1e-4 2.917 0.625 4.3753 1.875 4.375 3.3331 3.1e-4 4.9997-2.708 5-8.125-3.1e-4 -6.2497-3.3336-9.3747-10-9.375-9.5836 3.1e-4 -14.375 6.667-14.375 20-3.1e-4 3.3336 0.41562 5.417 1.25 6.25l2.5 5.625 1.25 6.25m231.88-36.875c-0.83438 8.3336-6.6672 12.292-17.5 11.875h-3.125c-1.25-0.41562-3.1255-0.625-5.625-0.625h-8.75c9.9995 2.5003 17.916 3.7503 23.75 3.75 9.9995 3.1e-4 15-3.5414 15-10.625-4.7e-4 -0.83281-1.25-2.2914-3.75-4.375m-271.88 3.75v3.125c-0.83281 3.3336 0.41562 6.4586 3.75 9.375 0.41562 1.667 1.8748 2.917 4.375 3.75l2.5 3.125c1.25 2.5003 1.8747 4.3753 1.875 5.625-3.1e-4 1.6669-2.0836 2.2919-6.25 1.875h-3.125l-12.5-12.5c-3.7502-1.6664-6.8752-2.9164-9.375-3.75l-23.125-5-11.25 1.875c-3.7502 0.83281-7.0834 2.0836-10 3.75-2.5002 1.667-3.7502 2.917-3.75 3.75-1.6e-4 1.667 2.9166 3.1253 8.75 4.375l0.625 2.5c-8.3334 0.83281-12.708 3.9586-13.125 9.375l-0.625 6.25 1.875 3.75c6.6666-8.7497 16.875-13.125 30.625-13.125 8.3331 3.1e-4 14.166 0.83438 17.5 2.5l4.375 1.875 6.25 1.875 3.125 2.5 10 4.375 5.625 4.375 5 4.375c15 12.084 26.041 29.792 33.125 53.125l4.375 3.75 9.375 2.5-3.75-28.125c-2.0836-13.333-8.5419-27.916-19.375-43.75-10.834-16.25-23.125-28.75-36.875-37.5m-115.62 27.5c-4.1667 4.1669-9.7917 11.25-16.875 21.25l-1.25 3.125-4.375 10c-3.3334 10.417-4.7917 19.375-4.375 26.875l0.625 11.875 0.625-0.625v7.5c-0.41719 1.25 0.41719 5.0002 2.5 11.25 4.1666-1.6664 6.2498-3.3331 6.25-5-1.6e-4 1.6e-4 -1.0422-3.1248-3.125-9.375-1.25-2.9164-1.8752-8.3331-1.875-16.25-1.6e-4 -25.833 11.042-46.875 33.125-63.125 12.917-9.9997 25-15 36.25-15l10-5 5.625-2.5h-3.125l-1.875-0.625h-3.125c-17.083 3.1e-4 -35.417 8.542-55 25.625m412.5-20.625-0.625 4.375c5.8328 3.1e-4 10.833 2.0836 15 6.25 2.0828 3.3336 3.1245 5.2086 3.125 5.625-4.7e-4 1.6669-0.625 3.7503-1.875 6.25l-0.625 3.75h1.25c2.9161 3.1e-4 4.3745-2.9164 4.375-8.75-4.7e-4 -9.583-6.8755-15.416-20.625-17.5m-34.375 13.125c-15.417-7.9164-29.792-11.25-43.125-10h-3.125l-8.75 1.25c-4.167 0.41719-6.2505 1.4578-6.25 3.125-4.7e-4 2.0836 1.25 3.1253 3.75 3.125h0.625c2.4995 3.1e-4 6.6662-0.625 12.5-1.875l3.125-0.625c0.83281 3.1e-4 1.8745 0.20938 3.125 0.625 1.25 3.1e-4 2.9162 0.20938 5 0.625l16.25 3.75 11.875 4.375h1.875c1.6662 3.1e-4 2.7078-1.4578 3.125-4.375m23.75 32.5c-4.1672 2.9169-7.9172 4.3753-11.25 4.375-9.5838 3.1e-4 -14.375-4.9997-14.375-15-4.7e-4 -3.7497 1.0406-6.6664 3.125-8.75l6.25-8.75 3.75-5 10-6.25-1.25-2.5c-16.667 8.7503-25 19.792-25 33.125-4.7e-4 11.667 4.3745 17.5 13.125 17.5 8.7495 3.1e-4 14.166-1.25 16.25-3.75v-1.25c-4.7e-4 -1.6664-0.20938-2.9164-0.625-3.75m-360-38.125c-17.5 4.167-30.208 11.25-38.125 21.25l-3.125 4.375-5.625 7.5-0.625 3.125-2.5 5-0.625 4.375-1.25 6.25 1.25 6.25 1.25 10.625 1.875 1.25 1.875 3.75c7.0833 7.0836 13.958 10.625 20.625 10.625 2.0831 1.6e-4 3.1248-0.625 3.125-1.875-1.6e-4 -0.83281-1.0422-2.9164-3.125-6.25 12.5-4.1664 18.75-10.833 18.75-20-1.6e-4 -12.083-4.5834-18.125-13.75-18.125-6.2502 3.1e-4 -9.3752 3.3336-9.375 10-1.6e-4 3.3336 1.4578 5.2086 4.375 5.625l-0.625-3.125c-1.6e-4 -2.9164 1.6666-4.3747 5-4.375 2.4998 3.1e-4 4.1666 0.20938 5 0.625 2.0831 3.3336 3.1248 5.2086 3.125 5.625-1.6e-4 2.5003-0.83281 5.4169-2.5 8.75-3.7502 4.1669-7.7084 6.2502-11.875 6.25-2.9167 1.6e-4 -5.0002-0.20781-6.25-0.625l-4.375-3.125c-3.7502-5.4164-5.6252-10.208-5.625-14.375-1.6e-4 -20 14.167-36.041 42.5-48.125l0.625-1.25m285 5.625c2.9162 1.667 5.4162 2.5003 7.5 2.5l5.625-0.625c8.7495 3.1e-4 14.583 3.3336 17.5 10l0.625 3.125c-4.7e-4 3.7503-2.0838 5.6253-6.25 5.625-2.5005 3.1e-4 -5.4172-1.6664-8.75-5 1.25 7.5003 5.6245 11.25 13.125 11.25 0.83281 3.1e-4 1.6662-0.41719 2.5-1.25l2.5-3.75 2.5-1.875c0.83281-0.83281 1.25-1.8747 1.25-3.125-4.7e-4 -12.916-9.1672-18.958-27.5-18.125l-4.375 0.625-6.25 0.625m-351.88-0.625c-1.25 2.5003-1.8752 4.5836-1.875 6.25-1.6e-4 2.5003 0.20781 4.1669 0.625 5l0.625-0.625 1.875 3.125 3.125 1.875c5.4166-0.83281 9.1666-2.2914 11.25-4.375l3.125-2.5 4.375-3.75 4.375-5-14.375 8.75-3.75 0.625c-4.5834 3.1e-4 -7.7084-3.1247-9.375-9.375m448.75 1.25-6.875 16.25 3.125 2.5c2.0828-3.3331 3.9578-8.5414 5.625-15.625 0.83281-0.83281 0.20781-1.8747-1.875-3.125m-397.5 16.875-0.625-6.25 6.875-5.625-1.25-0.625-4.375 1.875-5 3.75c-1.6669 1.25-2.5002 3.1253-2.5 5.625-1.6e-4 4.5836 2.0831 6.8753 6.25 6.875 1.6666 3.1e-4 2.4998-0.625 2.5-1.875-1.6e-4 -1.25-0.625-2.4997-1.875-3.75m14.375 8.75 2.5 3.125-1.25 1.25c-2.0834-1.25-3.9584-3.3331-5.625-6.25 0.41719 11.25 5.4166 16.875 15 16.875 6.2498 3.1e-4 10.208-2.0831 11.875-6.25l4.375-11.25c0.83281-2.0831 2.4998-3.1247 5-3.125 0.41562 3.1e-4 2.2914 0.41719 5.625 1.25l-1.25 7.5 3.125 0.625c2.4998 3.1e-4 3.7498-1.4578 3.75-4.375-1.6e-4 -7.0831-3.3336-10.625-10-10.625-6.6669 3.1e-4 -10.833 1.4578-12.5 4.375l-3.75 4.375-3.75 1.875-8.75-1.875-3.125-6.875 1.25-10-6.25 8.75v1.875c-1.6e-4 2.9169 1.25 5.8336 3.75 8.75m348.75-20c-1.6672 1.6669-2.5005 3.1253-2.5 4.375 1.6661 1.6669 3.5411 3.5419 5.625 5.625 2.0828 1.6669 4.1661 3.5419 6.25 5.625l2.5 2.5 5.625 6.875 1.25 3.75c3.7495 8.3336 5.6245 13.542 5.625 15.625-4.7e-4 3.7503-0.625 8.9586-1.875 15.625-4.5839 5.0002-7.9172 7.5002-10 7.5-2.9172 1.6e-4 -4.7922-0.20781-5.625-0.625 0.41562 5.0002 1.6661 7.5002 3.75 7.5 0.41562 1.6e-4 1.25 1.6e-4 2.5 0 1.25-0.41719 2.9161-0.83281 5-1.25l-0.625 2.5-0.625 6.875 7.5-4.375 3.125-5 2.5-2.5 1.25-6.25 0.625-4.375v-7.5l1.875-1.25 0.625 0.625c0.41562 2.9169 0.625 5.6252 0.625 8.125 0.41562 2.0836 0.625 3.9586 0.625 5.625-4.7e-4 3.7502-1.25 9.5836-3.75 17.5-0.41719 0.83438-0.83438 2.0836-1.25 3.75-0.41719 1.25-0.83438 2.7086-1.25 4.375l-5 11.25c-4.1672 4.1669-6.8755 8.7502-8.125 13.75l0.625 4.375 6.875-3.125c1.25 1.6e-4 1.8745 0.41719 1.875 1.25-4.7e-4 1.6669-1.0422 4.1669-3.125 7.5-0.41719 0.41719-0.625 2.5002-0.625 6.25v6.875c1.6661 10 7.4995 15.417 17.5 16.25-6.2505-6.2498-9.3755-13.75-9.375-22.5-4.7e-4 -3.7498 0.625-7.2916 1.875-10.625l8.125-23.125 3.125-19.375v-0.625c-4.7e-4 -2.0831-0.20938-4.1664-0.625-6.25-1.6672-34.166-15.834-58.541-42.5-73.125m-283.75 31.875c1.6664 1.6669 3.5414 2.7086 5.625 3.125l-1.25-1.875-5-5c-1.25-0.41719-1.8752-1.4578-1.875-3.125-1.6e-4 -0.41719 0.41719-2.7081 1.25-6.875 2.9164 3.1e-4 4.9998-0.625 6.25-1.875-1.6669-1.6664-3.1252-2.4997-4.375-2.5-3.7502 3.1e-4 -5.8336 0.625-6.25 1.875l-1.875 9.375c-1.6e-4 1.6669 2.4998 3.9586 7.5 6.875m308.75-15.625 5.625 8.125c1.6661 4.1669 3.9578 6.2503 6.875 6.25 3.3328 3.1e-4 4.7911-1.4578 4.375-4.375v-1.875c-5.8339-0.83281-11.459-3.5414-16.875-8.125m-174.38 8.125c-2.0838 2.0836-3.1253 3.9586-3.125 5.625-3.1e-4 1.6669 2.083 4.3753 6.25 8.125 2.9162 2.5003 5.833 3.7503 8.75 3.75 0.41562 3.1e-4 0.83281 3.1e-4 1.25 0 0.83281-0.41719 2.083-0.83281 3.75-1.25l1.25-4.375-10-3.75-8.125-8.125m40 3.75c3.333 1.25 4.9995 2.9169 5 5l-0.625 0.625-10 19.375-2.5 3.125 4.375-3.125 3.75-5.625 4.375-5 2.5-5.625 1.875-1.875c0.41562-0.41719 0.625-1.6664 0.625-3.75-4.7e-4 -3.3331-2.0838-4.9997-6.25-5-1.667 3.1e-4 -2.7088 0.625-3.125 1.875m7.5 15.625c-0.83438 0.83281-1.8755 2.0836-3.125 3.75-1.25 1.25-2.7088 2.9169-4.375 5l-3.75 6.875c-1.25 2.9169-2.0838 4.7919-2.5 5.625-0.41719 0.83281-0.625 2.7086-0.625 5.625-2.5003 2.5002-3.9588 5.6252-4.375 9.375 2.9162-0.41719 4.7912-1.8748 5.625-4.375l3.125-12.5 5.625-5.625 3.75-6.875c1.6662-3.3331 7.9162-7.9164 18.75-13.75 5.833-3.3331 11.875-4.9997 18.125-5 16.25 3.1e-4 27.708 5.2086 34.375 15.625 0.83281 1.25 1.6662 2.5002 2.5 3.75 1.25 1.25 2.4995 2.7086 3.75 4.375h1.875c1.25 1.6e-4 1.8745-0.625 1.875-1.875-4.7e-4 -0.83281-0.625-2.2914-1.875-4.375l-3.75-5.625c-7.9172-11.666-18.959-17.5-33.125-17.5l-2.5 0.625h-3.125c-1.25 3.1e-4 -2.5005 0.20781-3.75 0.625l-6.25 0.625-9.375 3.125-5.625 3.75-4.375 1.875-6.875 6.875m68.125-14.375 4.375 2.5 5 1.875 21.25 13.125c4.9995 2.0836 8.5411 3.1252 10.625 3.125 7.0828 1.6e-4 10.625-3.1247 10.625-9.375-4.7e-4 -1.25-0.83438-2.7081-2.5-4.375-0.83438 6.2503-3.5422 9.3753-8.125 9.375-3.7505 3.1e-4 -6.4589-0.625-8.125-1.875l-20-11.25-13.125-4.375v1.25m-307.5 28.75 5.625-3.125 3.75-6.25c4.5831-8.3331 14.375-12.5 29.375-12.5 11.666 3.1e-4 21.25 4.5836 28.75 13.75 7.4997 9.1669 11.25 20.834 11.25 35-3.1e-4 11.25-0.83281 18.333-2.5 21.25l-5 8.75c-2.0836 4.1669-3.3336 6.4584-3.75 6.875l-13.125 11.875c-1.25 0.83281-1.8752 1.8752-1.875 3.125-1.6e-4 1.25 0.41719 2.2919 1.25 3.125-0.41719 1.6e-4 4.5831-4.5831 15-13.75 10.833-9.5831 16.25-23.333 16.25-41.25-3.1e-4 -21.666-8.7503-37.291-26.25-46.875l-7.5-4.375-8.125-2.5h-1.25l-10.625-1.25c-1.6669 3.1e-4 -3.9586 0.625-6.875 1.875l-5 1.875c-10.833 4.1669-17.292 12.292-19.375 24.375m85.625-17.5-3.75 3.125v6.875l5-4.375c0.41562-0.41562 1.25-0.625 2.5-0.625 2.4997 3.1e-4 6.0414 2.9169 10.625 8.75 0.41562 0.41719 0.83281 1.0422 1.25 1.875 0.83281 0.83281 1.8747 1.8752 3.125 3.125-4.5836-11.666-10.834-17.916-18.75-18.75m105.62 0-5 8.75-1.875 4.375-0.625 4.375-2.5 6.875c-1.25 2.0836-1.8753 5.4169-1.875 10l-0.625 6.875 8.125-3.75 3.125-11.875 5.625-15 2.5-6.25-6.875-4.375m65 3.125-5.625 1.25-3.75 4.375-6.25 4.375-1.875 4.375c-3.3338 5.0002-5.6255 9.3752-6.875 13.125l-1.875 5 2.5-0.625 1.25-4.375 4.375-5.625 0.625-4.375h1.875c0.83281 1.6e-4 2.2912-1.0422 4.375-3.125 4.583-5.8331 10.208-8.7497 16.875-8.75 6.2495 3.1e-4 11.041 2.2919 14.375 6.875 0.83281 3.3336 1.25 5.4169 1.25 6.25-4.7e-4 5.0002-3.1255 7.5002-9.375 7.5-4.167 1.6e-4 -7.7088-2.4998-10.625-7.5-0.41719 0.41719-0.625 1.4578-0.625 3.125-4.7e-4 5.4169 4.3745 8.1252 13.125 8.125 9.1662 1.6e-4 13.75-4.9998 13.75-15-4.7e-4 -4.5831-1.8755-8.7498-5.625-12.5-3.7505-3.7497-8.1255-5.6247-13.125-5.625l-1.25 0.625-7.5 2.5m-319.38-0.625c-2.0834 9.1669-3.1252 14.584-3.125 16.25l0.625 5.625v-1.25 1.25l1.25 5.625 1.25 2.5c3.3333 2.0836 5.2083 3.1252 5.625 3.125 2.0833 1.6e-4 3.9583-2.0831 5.625-6.25l-6.25 1.25-3.125-3.125-2.5-10 0.625-8.125v-6.875m121.88 3.75c-3.3336-2.0831-5.8336-3.1247-7.5-3.125-2.5002 3.1e-4 -3.7502 1.6669-3.75 5-1.6e-4 3.3336 1.0422 5.4169 3.125 6.25l2.5 0.625v-4.375l5.625-4.375m149.38-0.625c-4.5838 1.6669-7.917 5.4169-10 11.25l-3.75 8.75c7.9162-8.7498 13.125-13.125 15.625-13.125 2.9162 1.6e-4 4.3747 1.4594 4.375 4.375-3.1e-4 1.6669-0.41719 2.5002-1.25 2.5l-3.75 1.875 1.25 1.875 0.625 0.625c5.833 1.6e-4 8.7497-3.1248 8.75-9.375-3.1e-4 -6.2497-3.3338-9.1664-10-8.75h-1.875m125.62 3.125-4.375 5c-3.7505 2.0836-9.1672 4.1669-16.25 6.25-6.6672 1.6669-11.042 4.5836-13.125 8.75l-2.5-0.625-1.25-5.625c-13.334 5.8336-20 14.167-20 25v1.25l1.875 5-0.625 3.75 1.25 5.625c0.41562 2.5002 1.6662 3.7502 3.75 3.75 2.0828 1.6e-4 2.9162-0.625 2.5-1.875v-10c0.83281-0.83281 1.6662-1.25 2.5-1.25 0.83281 0.83281 1.25 1.4578 1.25 1.875-4.7e-4 1.6e-4 -0.20938 0.41719-0.625 1.25-4.7e-4 0.41719-0.20938 1.25-0.625 2.5l0.625 6.25c2.0828-0.83281 3.1245-1.6666 3.125-2.5v-2.5l2.5-0.625 1.25 1.875 5.625-5 5.625-7.5 6.25-3.75v1.875c0.41562 0.83438-1.0422 2.9169-4.375 6.25-1.6672 1.6669-2.9172 2.7086-3.75 3.125l-4.375 4.375c-1.6672 1.6669-2.5005 3.7502-2.5 6.25-4.7e-4 2.5002 0.83281 3.7502 2.5 3.75 1.25 1.6e-4 4.7912-2.4998 10.625-7.5l1.25 1.25-4.375 5.625-2.5 1.25 8.125-1.25 0.625 1.875c8.7495-1.25 16.041-4.9998 21.875-11.25 5.8328-6.2498 8.5411-13.333 8.125-21.25v-3.75l-6.875 3.125c0.83281-5.8331 1.4578-10.208 1.875-13.125 0.83281-3.3331 1.25-5.2081 1.25-5.625-4.7e-4 -3.7498-2.0839-7.7081-6.25-11.875m-344.38 26.25 1.875 0.625c1.6666 1.6e-4 3.1248-1.25 4.375-3.75l6.25-2.5 14.375-8.125c5.4164-2.9164 12.916-4.3748 22.5-4.375h3.75c2.9164 1.6e-4 4.9998 0.20938 6.25 0.625-4.1669-4.1664-9.1669-6.2498-15-6.25-13.75 1.6e-4 -25.417 4.1669-35 12.5l-8.75 7.5-1.875 1.25c-1.6669 0.41719-2.5002 1.8752-2.5 4.375-1.6e-4 1.6669 0.83281 2.5002 2.5 2.5 1.25 1.6e-4 1.8748-0.625 1.875-1.875-1.6e-4 -1.25-0.20781-2.0831-0.625-2.5m45-15.625-13.75 3.125-8.125 3.125-18.75 11.875-5.625 7.5-3.75 5.625-2.5 5-1.875 10.625 0.625 6.25c1.25 6.6669 7.2916 10 18.125 10 2.4998 1.6e-4 11.458-2.9166 26.875-8.75 2.9164-1.25 4.7914-2.2916 5.625-3.125-1.6e-4 -1.6666-3.9586-4.5831-11.875-8.75l-5-1.25-5 1.25-6.25-1.875v-1.25c-0.41719-0.41719-0.625-1.4578-0.625-3.125-1.6e-4 -3.7498 2.2916-6.8748 6.875-9.375l4.375-2.5 2.5-2.5c1.6666-1.25 4.5831-1.8748 8.75-1.875 2.4998 1.6e-4 4.5831 0.83438 6.25 2.5v2.5c-1.6e-4 1.6669-1.0422 3.5419-3.125 5.625l10 8.125 1.25 1.875 2.5 1.875h3.125c2.9164-1.25 6.2498-6.4581 10-15.625l3.125-6.875c0.41562-0.41719 0.625-1.8748 0.625-4.375-1.6e-4 -11.25-6.0419-16.458-18.125-15.625h-6.25m161.25 13.125-1.25 0.625v2.5c0.83281 2.0836 0.20781 3.7502-1.875 5-7.0838 5.0002-19.792 7.9169-38.125 8.75-1.25 0.41719-3.1253 0.625-5.625 0.625-24.584 1.6e-4 -37.709-4.5831-39.375-13.75-0.41719-1.25-0.83281-2.2914-1.25-3.125-0.41719-1.25-0.83281-2.2914-1.25-3.125-3.7503 3.3336-5.6253 6.2502-5.625 8.75-3.1e-4 14.167 17.291 21.25 51.875 21.25 35 1.6e-4 52.5-8.3331 52.5-25-3.1e-4 -2.0831-0.625-3.5414-1.875-4.375l-5-3.125-3.125 5m47.5 1.25v6.875l-1.25-0.625h-3.75c-5.8338 1.6e-4 -10.417 0.83281-13.75 2.5v1.875c-2.5003 0.83438-4.5838 2.7086-6.25 5.625-2.0838 5.4169-3.1253 8.5419-3.125 9.375l0.625 0.625c1.6662 1.6e-4 2.708-0.20781 3.125-0.625h1.25c7.083 1.6e-4 13.958 3.3334 20.625 10l1.25 1.875c6.2495 6.2502 11.458 9.3752 15.625 9.375 2.4995 1.6e-4 4.1662-1.0422 5-3.125h-0.625c-3.3338 1.6e-4 -5.6255-1.4578-6.875-4.375l4.375 0.625c1.6662 0.41719 2.708 0.83281 3.125 1.25 0.83281 1.6e-4 1.4578 1.6e-4 1.875 0 1.6662 1.6e-4 2.4995-0.625 2.5-1.875-4.7e-4 -1.25-0.20938-2.0831-0.625-2.5l-1.875-1.25-8.125-3.125-6.25-3.75c-1.667-1.6664-2.5005-3.1248-2.5-4.375l3.125-0.625 1.25 2.5c-4.7e-4 1.6e-4 0.20781 0.20938 0.625 0.625 0.83281 0.41719 1.8745 1.0422 3.125 1.875l5.625 3.125c1.6662 1.6669 3.7495 2.5002 6.25 2.5-4.7e-4 1.6e-4 2.083-0.41719 6.25-1.25-3.3338-1.6666-7.0838-3.5416-11.25-5.625v-0.625l-0.625-0.625c-4.7e-4 -0.83281 0.625-1.6664 1.875-2.5 0.41562 1.6e-4 2.083 1.0422 5 3.125 2.9162 2.0834 4.7912 3.1252 5.625 3.125-0.83438-5.8331-3.7505-9.7914-8.75-11.875l-0.625-1.875 6.875 1.875c-0.83438-5.4164-3.3338-9.5831-7.5-12.5l-21.25-5.625m-260 14.375c0.83281-3.3331 1.25-4.9998 1.25-5-1.6e-4 -2.4998-0.625-3.7498-1.875-3.75-0.83281 1.6e-4 -1.25 0.83438-1.25 2.5-1.6e-4 1.25 0.625 3.3336 1.875 6.25m385-6.875-3.125 6.875-5 6.875-7.5 3.125c-1.6672 0.41719-2.5005 1.4578-2.5 3.125 0.83281 0.83281 1.6661 1.25 2.5 1.25 9.1661 1.6e-4 14.375-7.0831 15.625-21.25m-388.75 13.75c1.25-2.4998 1.8748-4.3748 1.875-5.625-1.6e-4 -2.4998-0.83281-3.7498-2.5-3.75-1.25 1.6e-4 -1.8752 1.4594-1.875 4.375-1.6e-4 1.6669 0.83281 3.3336 2.5 5m370.62-7.5c-2.0839 1.6e-4 -3.1255 1.0422-3.125 3.125-4.7e-4 2.0836 1.0406 3.1252 3.125 3.125 1.6661 1.6e-4 2.4995-0.83281 2.5-2.5l-0.625-1.25c-0.41719-1.6664-1.0422-2.4998-1.875-2.5m-293.75 5c-0.41719 1.25-0.83281 2.2919-1.25 3.125-1.6e-4 0.41719-1.6e-4 0.625 0 0.625v1.25c-0.41719 0.41719-0.625 1.4594-0.625 3.125-1.6e-4 1.6e-4 0.41562 1.6669 1.25 5 0.83281-7.0831 3.1248-10.625 6.875-10.625 2.0831 1.6e-4 3.9581 0.83438 5.625 2.5 0.41719 1.25 0.625 3.9584 0.625 8.125-1.6e-4 2.9169-1.6669 6.6669-5 11.25l-10.625 11.25 10.625-8.125c6.6664-4.9998 9.9997-12.083 10-21.25-3.1e-4 -7.4998-2.9169-11.25-8.75-11.25-1.25 1.6e-4 -4.1669 1.6669-8.75 5m-41.875-4.375c-1.6669 1.6669-2.5002 3.1252-2.5 4.375-1.6e-4 1.25 3.1248 3.1252 9.375 5.625 1.6664 0.83438 2.9164 1.6669 3.75 2.5 1.25 0.41719 2.2914 0.83281 3.125 1.25l5 4.375c8.7498 7.0834 13.125 17.5 13.125 31.25-1.6e-4 6.2502-1.0422 11.042-3.125 14.375l-7.5 11.25-0.625 1.875-1.25 0.625c-1.6669 1.6e-4 -2.7086-1.25-3.125-3.75-3.3336-1.25-5.6252-1.8748-6.875-1.875-2.0836 1.6e-4 -4.5834 1.25-7.5 3.75-5.8334 5.0002-9.3752 7.9167-10.625 8.75-0.83281 0.41719-2.7084 0.625-5.625 0.625h-1.875c3.3331 5.8334 7.9166 8.7502 13.75 8.75 3.7498 1.6e-4 7.0831-1.6666 10-5 2.9164-3.3333 4.7914-4.9998 5.625-5 2.9164 1.6e-4 4.3748 1.4578 4.375 4.375v0.625l-5 8.75v3.75c-0.83281 6.2502 2.7081 10.208 10.625 11.875l-0.625-8.125 6.875-20-0.625-1.875-5.625-1.875c-0.41719-0.41719-0.625-0.83281-0.625-1.25-1.6e-4 -2.4998 1.4578-5.2083 4.375-8.125 4.9998-5.4166 7.4998-13.958 7.5-25.625-1.6e-4 -18.75-9.3752-33.125-28.125-43.125l-6.25-3.125m-76.875 3.75c-1.25 0.83281-2.5002 1.8752-3.75 3.125-1.25 0.83438-2.7084 1.8752-4.375 3.125-1.25 1.25-2.0834 3.3334-2.5 6.25l4.375 3.125 6.875-7.5 6.875-3.75 0.625-1.25v-1.25c-1.6e-4 -2.4998-1.25-3.7498-3.75-3.75l-4.375 1.875m37.5 3.75-0.625 5c-1.6e-4 1.6669 0.83281 3.9584 2.5 6.875 0.83281-4.1666 1.25-6.4581 1.25-6.875-1.6e-4 -1.25-1.0422-2.9164-3.125-5m369.38 0c-2.0839 1.25-3.1255 2.7086-3.125 4.375-4.7e-4 2.5002 0.83281 3.7502 2.5 3.75 2.0828 1.6e-4 3.1245-1.25 3.125-3.75l-0.625-1.25-1.875-3.125m-228.12 3.75-1.25 0.625v8.75l-1.875 22.5c-0.83281 5.0002-1.4578 8.3334-1.875 10l-2.5 5.625-1.875 5-13.75 29.375-7.5 9.375c-6.2503 8.7502-15.417 17.083-27.5 25l-9.375 5.625-5 4.375c17.916-1.6666 35.208-13.958 51.875-36.875 3.3331-4.5833 6.6664-9.5833 10-15 3.3331-5.4166 6.4581-11.25 9.375-17.5 9.1664-18.333 13.75-32.292 13.75-41.875-3.1e-4 -0.41719-0.41719-2.2916-1.25-5.625v-0.625l-1.25-6.25-6.25-1.25-3.75-1.25m69.375 43.75 1.25 4.375c1.25 3.3334 2.4997 6.4584 3.75 9.375 1.6662 2.9167 3.333 6.0417 5 9.375l3.125 5 9.375 15.625c2.9162-0.41719 4.3747-1.25 4.375-2.5-3.1e-4 0.83281-3.9588-6.4583-11.875-21.875-5.8338-10.417-8.9588-17.917-9.375-22.5l-1.875-11.25c-1.667-5.4166-2.5003-9.9998-2.5-13.75v-3.75c0.41562-7.4998-0.83438-11.25-3.75-11.25-2.917 1.6e-4 -4.3753 1.6669-4.375 5v0.625c0.41562 7.0834 0.83281 13.333 1.25 18.75 0.83281 5.4169 2.083 10.417 3.75 15 0.41562 0.83281 1.0406 2.0834 1.875 3.75m-248.75-36.875c-3.3334 2.5002-5.0002 5.2084-5 8.125-1.6e-4 0.41719-1.6e-4 1.25 0 2.5 0.41719 1.25 0.83281 2.9169 1.25 5l4.375 8.75 7.5 10 2.5 3.125 1.25 3.75 1.875 3.75c0.83281 3.3334 1.25 5.2084 1.25 5.625-1.6e-4 1.25-0.625 2.7084-1.875 4.375l-1.25 3.75-0.625 1.25-3.75 1.875h0.625c-0.41719 0.41719-1.25 0.625-2.5 0.625-1.6667 1.6e-4 -2.5002-0.625-2.5-1.875l3.75-8.125-1.25-9.375-2.5-2.5c-4.1667-0.83281-6.4584-1.25-6.875-1.25-2.5002 1.6e-4 -5.0002 2.0834-7.5 6.25-0.41719 0.83281-0.625 2.5002-0.625 5-1.6e-4 1.6667 1.6666 3.1252 5 4.375-1.6e-4 -6.2498 1.6666-8.9581 5-8.125h3.125c0.83281 3.3334 1.25 4.7917 1.25 4.375-1.6e-4 1.6667-0.83281 3.3334-2.5 5l-5 8.125 1.25 1.25v2.5c2.9166 1.25 5.4166 1.8752 7.5 1.875 7.4998 1.6e-4 12.083-3.9583 13.75-11.875 0.41719-2.9166 1.4578-5.2083 3.125-6.875-1.6e-4 1.6e-4 0.41719 0.20781 1.25 0.625 0.83281 1.6e-4 2.0833 0.20781 3.75 0.625l1.875 0.625c0.83281 1.6e-4 1.4578-0.83281 1.875-2.5v-5c0.83281-5.8331-0.41719-11.25-3.75-16.25l-1.875-1.25-8.75-5.625c-4.1667-1.6666-6.2502-3.7498-6.25-6.25-1.6e-4 -2.4998 1.6666-3.7498 5-3.75 0.83281 1.6e-4 1.8748 0.625 3.125 1.875l1.25 3.75 1.875 3.75 3.75 1.875 5 3.75h0.625c0.83281 1.6e-4 2.9166-0.41719 6.25-1.25 0.83281-0.83281 1.25-1.4578 1.25-1.875-1.6e-4 -2.0831-0.83281-3.9581-2.5-5.625 3.7498-1.25 6.0416-3.5416 6.875-6.875l-6.875-1.875-3.125-1.875-3.75-1.875-0.625-1.25-4.375-5.625-3.125-1.875-4.375-2.5c-0.41719-0.41562-1.25-0.625-2.5-0.625-3.3334 1.6e-4 -7.5002 1.8752-12.5 5.625m235.62-3.125-2.5 0.625v75c-3.1e-4 11.667 2.708 20.833 8.125 27.5l-3.125-10.625v-88.75c-3.1e-4 -2.0831-0.83281-3.3331-2.5-3.75m-40.625 0v87.5c-3.1e-4 11.25-7.0836 20.208-21.25 26.875l-13.75 2.5h-0.625l-18.75 3.125c-1.25 1.25-1.8753 2.2917-1.875 3.125-3.1e-4 4.5834 7.2914 6.4584 21.875 5.625h1.25l61.875-2.5c3.333-0.41719 6.2497-0.41719 8.75 0 2.9164 0 5.833 0.20781 8.75 0.625l23.125 2.5h9.375c8.333 0 12.5-1.25 12.5-3.75-3.1e-4 -1.6666-0.20938-2.7083-0.625-3.125l-32.5-8.125-4.375-2.5-3.125-1.25c-10.417-5.4166-15.625-13.542-15.625-24.375v-85h-23.125l-5.625-0.625-6.25-0.625m103.12 30.625c0.41562-1.25 0.625-3.3331 0.625-6.25-4.7e-4 0.83281-1.667-2.7081-5-10.625-1.667-3.3331-2.917-6.0416-3.75-8.125-0.41719-2.0831-0.83438-3.5416-1.25-4.375l-0.625-0.625h-3.75v5c0.41562 5.4169 4.9997 13.75 13.75 25m115-27.5c-1.25 1.6e-4 -1.8755 0.625-1.875 1.875-4.7e-4 2.0834 1.0406 3.1252 3.125 3.125 2.0828 1.6e-4 3.1245-0.83281 3.125-2.5-4.7e-4 -2.0831-1.25-2.9166-3.75-2.5h-0.625m-80 10.625-4.375 5.625-1.25 1.875-2.5 4.375-1.25 5-1.875 6.875c-0.41719 0.41719-0.625 1.8752-0.625 4.375-4.7e-4 1.6669-4.7e-4 3.9584 0 6.875 0.41562 2.5002 0.83281 5.4167 1.25 8.75l4.375 15 1.25 2.5c1.25 3.7502 3.1245 6.8752 5.625 9.375l1.25 2.5 7.5 10.625 3.125 2.5 3.75 3.75 7.5 6.875 3.125 5 1.875 3.75 3.75 8.75 3.75-5.625 1.25-5 3.125-2.5 0.625-1.25c-4.7e-4 -1.6666-2.7088-5.2083-8.125-10.625l-1.25-1.875-3.75-2.5-11.25-9.375-3.75-5c-5.8338-9.1666-8.3338-16.667-7.5-22.5v-5.625c0.83281-4.5833 1.6662-6.8748 2.5-6.875l2.5 0.625c-1.667 3.7502-2.5005 7.7084-2.5 11.875-4.7e-4 5.0002 1.8745 11.25 5.625 18.75l3.125 3.125c1.6662 2.9167 3.9578 5.4167 6.875 7.5l3.125 3.125c6.6662 5.0002 13.958 7.5002 21.875 7.5 8.3328 1.6e-4 15.416-2.9166 21.25-8.75l-6.875-1.875c5.8328-4.9998 8.7495-9.1666 8.75-12.5-4.7e-4 -3.7498-0.83438-7.2916-2.5-10.625-3.7505-4.1666-7.0838-6.2498-10-6.25-2.0838 1.6e-4 -4.5838 1.25-7.5 3.75 4.1662 0.41719 7.4995 2.2917 10 5.625v6.25c-4.7e-4 2.5002-1.4594 5.2084-4.375 8.125l-1.25 1.25c-4.1672 2.9167-8.3338 4.3752-12.5 4.375-6.6672 1.6e-4 -11.459-1.8748-14.375-5.625l-4.375-5.625-3.125-2.5c-1.25-1.25-1.8755-4.5833-1.875-10v-2.5c-4.7e-4 -2.0833-0.20938-3.7498-0.625-5-0.83438-7.0833-4.7e-4 -10.625 2.5-10.625l10.625-18.125c0.83281-2.4998 1.25-4.3748 1.25-5.625-4.7e-4 -7.9166-1.8755-12.292-5.625-13.125l-3.125-1.25-1.875-2.5h-2.5l-10-1.25h-1.25c-0.83438 1.6e-4 -3.9588 2.0834-9.375 6.25m83.125 3.75c-5.0005 1.6e-4 -7.7089-2.4998-8.125-7.5h-1.875c-0.41719 1.6669-0.83438 2.9169-1.25 3.75-4.7e-4 0.83281-4.7e-4 1.25 0 1.25-4.7e-4 4.1669 2.0828 6.2502 6.25 6.25 1.25 1.6e-4 2.9161-1.25 5-3.75m-278.12 8.125 2.5-0.625c9.5831-4.1666 14.375-6.2498 14.375-6.25 1.6664 1.6e-4 4.3747 1.25 8.125 3.75l2.5 2.5c0.83281 2.5002 1.25 3.5419 1.25 3.125-3.1e-4 2.5002-1.6669 4.3752-5 5.625-0.41719 0.41719-1.4594 0.625-3.125 0.625l-5.625-1.25 0.625 1.875c0.41719 1.6669 1.25 2.5002 2.5 2.5l5 0.625 2.5 0.625c1.25 1.6e-4 2.2914-1.0422 3.125-3.125l1.25-2.5 3.125-3.75c-3.1e-4 -2.0831 0.20781-3.5416 0.625-4.375v-1.875c0.41719-7.9166-3.9586-11.875-13.125-11.875-3.7503 1.6e-4 -7.2919 1.0422-10.625 3.125-2.9169 1.6669-6.2503 5.4169-10 11.25m248.75-13.125-1.875 1.25v1.875l-5.625-1.25-4.375 0.625 3.125 1.875 1.25 1.875 1.875 1.875 5.625 4.375 1.25 2.5c3.3328 3.3334 4.9995 6.0419 5 8.125l-0.625 2.5v-0.625h-2.5c-1.25-2.0831-2.7088-4.1666-4.375-6.25-1.25-2.4998-2.7088-4.7916-4.375-6.875-2.9172-2.9166-6.6672-5.2081-11.25-6.875-4.7e-4 4.5834 2.0828 7.7084 6.25 9.375l1.25 3.125-4.375-1.25-2.5-1.875c-0.83438 4.1669-1.25 6.0419-1.25 5.625-4.7e-4 2.0834 2.2912 4.1669 6.875 6.25l0.625 1.875h-3.75l-2.5-1.875c-4.7e-4 2.9169 1.0406 5.4169 3.125 7.5 1.6662 3.7502 4.3745 6.0417 8.125 6.875l13.125 3.125 7.5 3.125c0.83281-4.1666 1.4578-7.0833 1.875-8.75 0.83281-2.0831 1.25-3.3331 1.25-3.75-4.7e-4 -0.41719-0.20938-1.25-0.625-2.5-4.7e-4 -1.25-0.20938-2.9166-0.625-5 3.7495 1.6e-4 5.6245-1.4578 5.625-4.375-4.7e-4 -2.9166-1.0422-6.0416-3.125-9.375-4.5839-7.0831-7.9172-10.625-10-10.625-0.83438 1.6e-4 -1.4594 0.625-1.875 1.875l-8.125-4.375m-116.88 21.25c-2.0838-3.3331-3.1253-6.0416-3.125-8.125-3.1e-4 -4.5831 2.708-6.8748 8.125-6.875 2.9162 1.6e-4 7.9162 3.1252 15 9.375 0.83281 0.83281 1.6662 1.6669 2.5 2.5 0.83281 0.83281 2.083 1.6669 3.75 2.5-7.0838-13.75-15-20.625-23.75-20.625-8.3338 1.6e-4 -12.5 3.7502-12.5 11.25-3.1e-4 5.0002 3.333 8.3334 10 10m35-4.375c-0.41719 1.25-0.625 3.5419-0.625 6.875-4.7e-4 1.6e-4 0.41562 2.0834 1.25 6.25l1.25 1.875 0.625 2.5c7.083-2.4998 10.625-4.7916 10.625-6.875l-0.625-6.25 2.5-5.625-1.25-1.875-0.625 2.5-3.125 2.5-1.25-1.875 5-7.5-6.25 0.625-1.25-3.75c-4.7e-4 -0.41719-0.41719-0.625-1.25-0.625-5.0005 1.6e-4 -7.5005 2.9169-7.5 8.75-4.7e-4 1.25 0.83281 2.0834 2.5 2.5m110 5.625c4.9995-2.9166 7.4995-6.2498 7.5-10-0.41719-2.9166-1.0422-4.3748-1.875-4.375-0.41719 0.41719-1.0422 0.83281-1.875 1.25l-4.375 4.375 0.625 8.75m-347.5-13.125c-5.4169 1.6669-8.1252 3.9584-8.125 6.875-1.6e-4 0.83281 0.625 1.8752 1.875 3.125v-1.25c-1.6e-4 -1.6666 1.4578-2.4998 4.375-2.5 5.4166 1.6e-4 8.1248 1.0422 8.125 3.125-1.6e-4 4.1669-3.3334 6.2502-10 6.25-4.5834 1.6e-4 -12.292-1.6666-23.125-5 6.6666 5.4169 15.833 8.1252 27.5 8.125 7.4998 1.6e-4 11.25-3.5416 11.25-10.625-1.6e-4 -4.5831-2.2919-7.2916-6.875-8.125h-5m-34.375 13.75-0.625 3.125c-1.6e-4 2.5002 2.7081 4.5834 8.125 6.25l6.875 2.5c7.9166 2.5002 16.042 3.7502 24.375 3.75 0.83281 1.6e-4 2.0831 1.6e-4 3.75 0 1.6666-0.41719 3.5416-0.83281 5.625-1.25l12.5-2.5c3.7498-0.83281 6.0414-1.4578 6.875-1.875 0.83281-0.41719 1.8748-2.2916 3.125-5.625l-6.875 0.625-8.125 2.5c-2.0836 0.41719-4.7919 0.83281-8.125 1.25-3.3334 1.6e-4 -7.0834 1.6e-4 -11.25 0-10 1.6e-4 -18.125-1.4578-24.375-4.375l-11.875-4.375m384.38 5c-6.6672 6.6669-10 13.542-10 20.625-4.7e-4 13.75 5.8328 20.625 17.5 20.625-0.41719 1.6e-4 1.4578-0.41719 5.625-1.25 6.6661-4.1666 9.9995-9.1666 10-15-4.7e-4 -3.3333-1.4594-5.8333-4.375-7.5v5c0.41562 2.0834-0.625 4.3752-3.125 6.875-2.5005 2.0834-4.7922 3.1252-6.875 3.125-2.5005 1.6e-4 -4.5839-0.625-6.25-1.875-5.8339-3.3333-8.7505-7.7083-8.75-13.125-4.7e-4 -1.25 0.20781-2.0833 0.625-2.5l2.5-8.75 7.5-9.375-1.875-0.625-2.5 3.75m-145 26.875 8.125 15h3.125l-6.25-9.375c-2.5003-3.7498-3.7503-8.9583-3.75-15.625-3.1e-4 -8.7498 3.958-13.125 11.875-13.125 6.6662 1.6e-4 9.9995 2.9169 10 8.75-4.7e-4 3.7502-2.917 6.2502-8.75 7.5 1.6662 1.25 3.333 1.8752 5 1.875 5.833 1.6e-4 8.7495-3.1248 8.75-9.375-4.7e-4 -3.3331-1.667-6.4581-5-9.375-2.917-2.9166-6.042-4.3748-9.375-4.375-10.834 1.6e-4 -16.25 5.8334-16.25 17.5-3.1e-4 3.3334 0.83281 6.8752 2.5 10.625m92.5-26.25c-5.4172 6.6669-8.1255 12.708-8.125 18.125-4.7e-4 3.3334 1.6662 6.0417 5 8.125l1.875 0.625c1.6662 1.6e-4 3.5412-2.9166 5.625-8.75l1.25-1.875 3.125-0.625c0.83281-0.83281 1.25-1.4578 1.25-1.875v-0.625l-4.375-4.375-2.5-5.625-3.125-3.125m-331.88 6.875c3.3331 1.6e-4 5.8331 1.6669 7.5 5 1.6666 3.3334 4.1666 5.8334 7.5 7.5l-1.875 5.625 3.75-1.25c1.25 1.6e-4 1.8748-1.25 1.875-3.75-1.6e-4 -4.1666-0.83281-6.8748-2.5-8.125l-11.875-5.625-3.75-1.25-0.625 1.875m101.88 35 1.875-8.125-5-11.25c-0.83438-2.4998-1.25-3.5416-1.25-3.125-1.6e-4 -4.5833 2.4998-6.8748 7.5-6.875 2.0831 1.6e-4 4.5831 1.4578 7.5 4.375l1.875 2.5c0.41562 2.0834 0.625 3.7502 0.625 5 0.41562 1.25 0.625 2.0834 0.625 2.5-3.1e-4 13.75-10.834 27.708-32.5 41.875 9.9998-4.1666 18.958-11.042 26.875-20.625 7.9164-9.5833 11.875-18.333 11.875-26.25-3.1e-4 -4.1666-1.8753-7.9166-5.625-11.25-3.3336-3.3331-7.5003-4.9998-12.5-5-8.3336 1.6e-4 -12.5 4.7917-12.5 14.375-1.6e-4 3.3334 0.20781 5.2084 0.625 5.625l6.875 10 1.875 5.625 1.25 0.625m158.75-15h-1.875c-1.667 5.0002-2.5003 8.9584-2.5 11.875-3.1e-4 2.0834 0.625 5.0002 1.875 8.75l1.25 1.25-2.5 0.625c-4.5838-3.3333-8.1253-4.9998-10.625-5-1.667 1.6e-4 -2.5003 1.25-2.5 3.75-3.1e-4 1.6667 0.625 3.9584 1.875 6.875l0.625 5 4.375 5.625 3.75 5c7.4995 6.25 16.458 10.833 26.875 13.75 1.6662 0.41719 3.958 1.25 6.875 2.5 2.9162 0.83281 6.6662 2.2917 11.25 4.375l0.625 2.5-3.75 1.25-1.875-1.25-1.875-0.625-10.625-1.875-8.125 0.625h-5l-6.875 2.5-5 1.875-6.25 2.5-7.5 3.125 6.25 3.125c-2.0838 3.3334-3.1253 5.8334-3.125 7.5-3.1e-4 7.0833 3.958 10.625 11.875 10.625 4.1662 0 7.083-1.4578 8.75-4.375h-4.375c-3.7503-1.6667-5.6253-3.5417-5.625-5.625-3.1e-4 -8.75 9.7912-13.125 29.375-13.125h3.75c2.9162 0 4.9995 0.20781 6.25 0.625l46.875 3.75c11.25 0.83281 21.666-0.41719 31.25-3.75 0.83281-0.41719 2.7078-1.0422 5.625-1.875 2.9161-1.25 7.0828-2.9166 12.5-5 1.25-0.83281 3.3328-1.4578 6.25-1.875 2.9161-2.9166 4.5828-5.625 5-8.125-4.7e-4 -2.0833-1.4594-3.125-4.375-3.125-2.0839 0-5.0005 1.25-8.75 3.75-3.3339 2.0834-5.8339 3.3334-7.5 3.75-0.83438 0-4.3755 0.83281-10.625 2.5l-7.5 1.875-6.25 0.625h-14.375c-3.3338-0.41719-6.2505-0.83281-8.75-1.25-2.0838-0.41719-4.1672-0.83281-6.25-1.25-1.6672-0.41719-3.9588-0.83281-6.875-1.25l-1.875-1.25-6.25-1.25c-5.8338-2.9166-11.042-5.4166-15.625-7.5-4.167-2.0833-7.292-3.9583-9.375-5.625l-1.875-2.5-3.75-4.375c-8.3338-10.833-12.5-18.958-12.5-24.375-4.7e-4 -7.4998 2.9162-11.25 8.75-11.25 3.333 1.6e-4 4.9995 1.4578 5 4.375-4.7e-4 2.9167-2.0838 5.2084-6.25 6.875l-0.625 1.25c0.41562 0.41719 1.4578 0.625 3.125 0.625 4.1662 1.6e-4 6.2495-2.9166 6.25-8.75-4.7e-4 -9.9998-5.2088-15-15.625-15-3.7505 1.6e-4 -7.5005 2.0834-11.25 6.25m-266.25 2.5c-0.83281-0.41719-1.8752-0.625-3.125-0.625-2.0834 1.6e-4 -3.1252 0.625-3.125 1.875-1.6e-4 1.25 1.0422 1.8752 3.125 1.875 1.25 1.6e-4 2.2916-1.0422 3.125-3.125m6.25 0.625c-1.6667 1.25-2.5002 2.2917-2.5 3.125-1.6e-4 2.0834 0.83281 3.1252 2.5 3.125 2.4998 1.6e-4 3.7498-1.25 3.75-3.75v-0.625l-3.75-1.875m209.38 8.75c2.9162-1.6666 5.833-2.4998 8.75-2.5 1.25 1.6e-4 2.2912 0.41719 3.125 1.25l16.25 16.25c0.41562 0.41719 0.83281 0.625 1.25 0.625 0.41562 1.6e-4 0.625-0.20781 0.625-0.625-3.1e-4 -1.6666-0.20938-2.7083-0.625-3.125l-2.5-3.125-6.875-10c-3.3338-4.5833-7.7088-6.8748-13.125-6.875-4.167 1.6e-4 -6.4588 2.7084-6.875 8.125m-228.12-6.25c-1.6667 1.6e-4 -2.5002 0.83281-2.5 2.5 0.83281 0.83281 1.6666 1.25 2.5 1.25h0.625c1.6666-0.41719 2.4998-1.25 2.5-2.5-0.83281-1.25-1.6667-1.8748-2.5-1.875l-0.625 0.625m8.125 3.125c-2.9167 0.41719-4.3752 2.2917-4.375 5.625-1.6e-4 4.5834 2.2916 6.8752 6.875 6.875 3.3333 1.6e-4 4.9998-2.2916 5-6.875-1.6e-4 -3.7498-2.0834-5.6248-6.25-5.625h-1.25m9.375 14.375c0.41719 2.5002 2.2916 3.7502 5.625 3.75l11.875 0.625c1.6666 1.6e-4 5.4166-0.625 11.25-1.875l10-2.5c2.0831-1.25 4.1666-2.4998 6.25-3.75 2.0831-1.6666 4.5831-3.3333 7.5-5 0.83281-0.83281 1.25-1.6666 1.25-2.5v-2.5l-12.5 8.75c-5.4169 4.1667-13.333 6.2502-23.75 6.25-2.0834 1.6e-4 -4.7919 1.6e-4 -8.125 0-2.9169-0.41719-6.0419-0.83281-9.375-1.25m5-10.625c-2.0834 0.83281-3.1252 2.0834-3.125 3.75-1.6e-4 2.5002 1.4578 3.7502 4.375 3.75 2.9166 1.6e-4 4.3748-1.4578 4.375-4.375-1.6e-4 -2.4998-1.4578-3.7498-4.375-3.75l-1.25 0.625m-21.875 4.375-0.625-3.125c-0.41719-0.41719-1.0422-0.625-1.875-0.625-1.6667 1.6e-4 -2.7084 0.83281-3.125 2.5v1.25c-1.6e-4 3.7502 1.4578 5.6252 4.375 5.625 2.0833 1.6e-4 3.1248-1.0422 3.125-3.125l-0.625-0.625-1.25-1.875m142.5 7.5c-0.83281 0.41719-2.7086 2.0834-5.625 5-2.5003 2.9167-4.3753 5-5.625 6.25-1.25 1.25-2.0836 2.0834-2.5 2.5l-5 3.125-15 10.625c-0.41719 0.41719-0.625 0.83281-0.625 1.25-1.6e-4 0.83281-0.20938 1.4578-0.625 1.875 2.9164-1.25 8.1248-4.375 15.625-9.375l5-5 9.375-7.5 14.375-11.25c3.3331-0.83281 5.4164-1.25 6.25-1.25 1.25 1.6e-4 3.5414 1.0422 6.875 3.125v1.25c-3.1e-4 2.9167-2.0836 5.0002-6.25 6.25 2.0831 2.0834 3.5414 3.125 4.375 3.125 5.8331 0 8.7497-3.5416 8.75-10.625-3.1e-4 -6.6666-3.9586-9.9998-11.875-10-3.3336 1.6e-4 -6.0419 1.0422-8.125 3.125l-9.375 7.5m265.62-7.5c-2.5005 0.83281-3.7505 1.8752-3.75 3.125-4.7e-4 2.0834 1.0406 3.1252 3.125 3.125 2.4995 1.6e-4 3.7495-0.83281 3.75-2.5l-0.625-1.25-2.5-2.5m10 0c-1.6672 1.6e-4 -2.7089 0.83281-3.125 2.5v1.25c-4.7e-4 1.6667 0.83281 2.5002 2.5 2.5 2.9161 1.6e-4 4.3745-1.4578 4.375-4.375-4.7e-4 -1.25-1.25-1.8748-3.75-1.875m-325.62 25c2.4998-1.6666 4.3748-2.9166 5.625-3.75 6.6664-4.1666 9.9998-7.9166 10-11.25-1.6e-4 -4.1666-1.8752-6.2498-5.625-6.25l-1.875 0.625-1.875 1.875 3.125 3.75c0.41562 0.41719 0.625 1.25 0.625 2.5-1.6e-4 1.25-0.41719 2.2917-1.25 3.125l-6.25 5.625-4.375 2.5 1.875 1.25m135-20v3.125c13.75 2.0834 24.166 6.6667 31.25 13.75l2.5 3.125 4.375 3.125c7.9162 8.75 16.25 13.75 25 15l0.625-1.25-3.75-1.875-5.625-3.125-7.5-4.375-5-3.125c-7.0838-10-15.417-16.667-25-20l-7.5-3.125c-3.3338-1.25-5.6253-1.6666-6.875-1.25h-2.5m166.88 5c-4.7e-4 2.5002 1.25 3.7502 3.75 3.75 3.7495 1.6e-4 5.6245-2.0833 5.625-6.25-4.7e-4 -1.25-0.83438-1.8748-2.5-1.875-4.5839 1.6e-4 -6.8755 1.4578-6.875 4.375m-383.12-1.875c-1.6667-0.41719-2.9167-0.625-3.75-0.625-0.41719-0.41719-0.83281-0.625-1.25-0.625-2.0834 1.6e-4 -3.1252 0.83281-3.125 2.5-1.6e-4 2.9167 1.6666 4.3752 5 4.375 0.83281 1.6e-4 1.8748-1.8748 3.125-5.625m-10.625 6.25c-1.25-4.1666-2.7084-6.2498-4.375-6.25-0.83281 1.6e-4 -1.25 0.625-1.25 1.875h0.625c0.41719 2.0834 2.0833 3.5417 5 4.375m420-6.25c-2.0839 1.25-3.1255 3.1252-3.125 5.625-4.7e-4 2.0834 1.25 3.1252 3.75 3.125 2.4995 1.6e-4 3.7495-1.4578 3.75-4.375-4.7e-4 -2.9166-1.0422-4.3748-3.125-4.375h-1.25m-6.25 6.875 0.625-0.625c0.41562-0.41719 0.625-0.83281 0.625-1.25-4.7e-4 -2.9166-2.0839-4.3748-6.25-4.375-2.5005 1.6e-4 -3.7505 1.8752-3.75 5.625-4.7e-4 2.5002 1.6661 3.75 5 3.75 0.41562 0 0.83281-0.20781 1.25-0.625l2.5-2.5m-104.38 10.625 4.375 5 4.375 3.125 2.5-0.625 1.25 2.5c0.41562 0.41719 4.3745 1.6667 11.875 3.75l-19.375-13.75c-1.667-1.6666-2.5005-3.5416-2.5-5.625-4.7e-4 -2.5 1.25-3.7498 3.75-3.75 2.083 1.6e-4 3.5412 0.20781 4.375 0.625-1.25-4.1666-3.542-6.2498-6.875-6.25-5.0005 1.6e-4 -7.5005 2.2917-7.5 6.875-4.7e-4 2.5 1.25 5.2084 3.75 8.125m-293.75-12.5-2.5 2.5c0.41719 0.41719 1.4578 0.625 3.125 0.625 1.25 1.6e-4 2.2916-1.0422 3.125-3.125h-3.75m343.12 7.5c3.3328 0.83281 6.2495 1.6667 8.75 2.5 2.9162 0.83281 5.8328 1.4578 8.75 1.875h7.5l8.125-2.5 4.375-0.625c1.6661-0.41719 2.4995-2.0833 2.5-5-0.41719-0.41719-1.4594-0.625-3.125-0.625-1.6672 1.6e-4 -3.9589 0.625-6.875 1.875-5.0005 2.5-15 3.3334-30 2.5m-283.75 5c-7.9169 3.3334-15.208 5-21.875 5h-15.625c-2.5002 0-5.8334 1.25-10 3.75l-6.25 6.875-1.875 6.875h-6.875c-0.41719-0.41719-1.8752-0.625-4.375-0.625h-3.75c-1.25 0-2.7084-0.20781-4.375-0.625l-12.5-3.125-6.875-3.125-5.625-0.625c4.5833 6.6667 17.5 11.458 38.75 14.375 2.9166 0 4.9998 0.20781 6.25 0.625l1.25 1.875c4.1666 8.75 14.583 13.125 31.25 13.125h8.125c2.4998-0.41719 4.7916-0.83281 6.875-1.25l34.375-5.625c8.3331-0.83281 16.041 0.41719 23.125 3.75l1.875 1.875c0.41562 0.41719 0.625 1.4578 0.625 3.125-3.1e-4 0.83281-0.41719 1.6667-1.25 2.5l-0.625 0.625c-3.1e-4 0-1.25-0.41719-3.75-1.25-2.5002-0.83281-6.2502-2.0833-11.25-3.75-3.3336-1.25-6.4586-1.875-9.375-1.875-6.2502 0-9.5836 2.5-10 7.5 4.1664-2.5 7.2914-3.75 9.375-3.75h1.25l13.75 5.625c3.3331 0.83281 5.6247 1.25 6.875 1.25 8.7497 0 13.125-3.125 13.125-9.375-3.1e-4 -5-2.0836-9.1666-6.25-12.5-4.1669-3.75-9.1669-5.625-15-5.625l-6.25 0.625 0.625-2.5 3.75-3.75v-1.25c-1.6e-4 -1.25-1.8752-1.875-5.625-1.875l-16.25-0.625-10 1.875-5.625 2.5-6.25 1.875-6.25 1.25-5 1.875c-0.83281 0.41719-3.3334 0.625-7.5 0.625h-3.125c-1.25 0-2.5002-0.20781-3.75-0.625-0.83281-2.5-1.25-3.5416-1.25-3.125-1.6e-4 -1.6666 0.83281-2.5 2.5-2.5 18.333-0.41719 28.541-1.0422 30.625-1.875 1.6664-0.41719 5.4164-3.5416 11.25-9.375v-1.25l-4.375-0.625c0.83281-3.75 1.4578-6.4583 1.875-8.125 0.83281-2.0833 1.25-3.125 1.25-3.125l-3.125-3.125-6.875 7.5m341.25-6.875c-1.6672 0-2.9172 1.0422-3.75 3.125v1.25c-4.7e-4 2.5 1.25 3.75 3.75 3.75 2.9161 0 4.3745-1.4578 4.375-4.375-4.7e-4 -2.5-1.4594-3.75-4.375-3.75m-408.12 10.625-0.625 4.375c-2.5002 3.3334-6.0417 5-10.625 5-5.0002 0-10.208-0.625-15.625-1.875l-1.875 0.625 7.5 3.125c2.9166 1.25 6.4583 1.875 10.625 1.875 10.833 0 16.25-3.75 16.25-11.25-1.6e-4 -7.5-3.9584-11.25-11.875-11.25-4.5834 0-7.0834 1.4578-7.5 4.375l-1.25 5.625 7.5-4.375h1.25c2.0833 0 4.1666 1.25 6.25 3.75m400.62-7.5c-2.0839-1.25-3.3339-1.875-3.75-1.875-2.9172 0-4.3755 1.6667-4.375 5-4.7e-4 2.5 1.0406 3.75 3.125 3.75 2.0828 0 3.7495-2.2916 5-6.875m-42.5 6.25c-2.9172 1.6667-4.3755 4.1667-4.375 7.5-4.7e-4 6.6667 4.3745 10 13.125 10 12.083 0 20.416-2.5 25-7.5-5.4172 1.6667-11.459 2.5-18.125 2.5-4.5838 0-8.3338-1.25-11.25-3.75l-0.625-4.375 1.875-4.375-5-0.625-0.625 0.625m-93.75 13.75-0.625 1.875c-7.0838 2.5-12.084 3.5417-15 3.125h-5c-4.5838-0.41719-10.417-0.83281-17.5-1.25-7.0838-0.41719-15.417-1.0422-25-1.875h-11.25c-2.5003 0-4.792 0.20781-6.875 0.625h-20c-2.9169 0-5.4169 0.20781-7.5 0.625-5.4169 0.41719-10.209 0.83281-14.375 1.25h-10.625c-2.9169 0-7.9169-1.0422-15-3.125 0.83281 1.25 1.6664 2.2917 2.5 3.125l1.875 1.875c2.4997 1.25 8.1247 1.875 16.875 1.875l81.875-0.625 31.25 2.5c12.083 0.83281 18.125-1.0422 18.125-5.625-3.1e-4 -0.83281-1.25-2.2916-3.75-4.375m116.88 18.125c-5.8339 3.3334-8.7505 6.6667-8.75 10-4.7e-4 5 1.6661 7.5 5 7.5-4.7e-4 0 1.6661-0.41719 5-1.25-1.25-1.6667-1.8755-3.125-1.875-4.375-4.7e-4 -5.4166 4.3745-9.375 13.125-11.875 0.41562-0.41719 0.625-0.625 0.625-0.625-4.7e-4 -0.41719-4.7e-4 -0.625 0-0.625v-0.625c2.9161-0.83281 7.2911-3.125 13.125-6.875l0.625-2.5-3.75 2.5-6.25 3.125-1.875 1.25h-3.125c-0.83438 0.41719-2.2922 1.0422-4.375 1.875-1.6672 0.83281-4.1672 1.6667-7.5 2.5m-411.25-10.625c3.7498 3.3334 8.9583 6.25 15.625 8.75 6.6666 2.0834 11.458 3.9584 14.375 5.625 0.83281 4.1667 1.25 6.0417 1.25 5.625-1.6e-4 2.0833-2.2917 3.5417-6.875 4.375 1.6666 2.9167 3.5416 4.375 5.625 4.375 5.8333 0 8.7498-3.125 8.75-9.375-1.6e-4 -6.25-4.5834-10.208-13.75-11.875l-6.875-1.875c-0.41719 0-4.1667-1.0422-11.25-3.125-1.25-0.41719-2.5002-0.83281-3.75-1.25-1.25-0.41719-2.2917-0.83281-3.125-1.25m232.5 10c1.6664-1.6666 3.7497-2.5 6.25-2.5 1.25 0 3.333 0.83281 6.25 2.5 0.83281 2.5 1.25 3.5417 1.25 3.125-3.1e-4 4.1667-3.542 6.25-10.625 6.25-10 0-17.084-3.125-21.25-9.375-1.25-1.6666-2.292-2.9166-3.125-3.75-0.41719-0.83281-0.83438-1.4578-1.25-1.875l-0.625-0.625c-1.25 0-2.0836 0.83281-2.5 2.5 3.7497 14.583 15.625 21.875 35.625 21.875h2.5c1.25-0.41719 2.9162-0.83281 5-1.25v-3.75c4.1662-4.1666 6.2497-7.2916 6.25-9.375-3.1e-4 -6.6666-5.2088-10-15.625-10-3.7503 0-6.4586 2.0834-8.125 6.25m-51.25 7.5v1.875c-0.83281 5.8333 2.9164 8.75 11.25 8.75 8.7497 0 13.125-5 13.125-15-3.1e-4 -3.3333-0.20938-5.625-0.625-6.875-0.83281-0.41719-1.4594-0.83281-1.875-1.25-3.1e-4 -0.41719-0.20938-0.83281-0.625-1.25l-0.625 0.625-1.875 3.125v7.5c-3.1e-4 5.4167-3.1253 8.125-9.375 8.125-2.5003 0-5.6253-1.875-9.375-5.625m164.38 13.125c-4.7e-4 0 1.6662-0.41719 5-1.25-4.167-1.6667-6.2505-3.75-6.25-6.25-4.7e-4 -3.75 1.4578-5.625 4.375-5.625l20-0.625 12.5-0.625c0.83281 0 5.4162-1.0422 13.75-3.125h-6.25l-6.25 1.25-3.75 0.625h-3.75c-2.0838 0-3.9588-0.20781-5.625-0.625l-21.25-1.875c-7.5005 0-11.25 3.3334-11.25 10-4.7e-4 5.4167 2.9162 8.125 8.75 8.125m87.5-428.12c-1.25-1.6662-2.5005-3.1245-3.75-4.375-1.25-1.25-2.2922-2.7078-3.125-4.375 0.41562 4.7e-4 0.83281 0.20938 1.25 0.625 0.41562-0.41562 0.83281-0.41562 1.25 0 2.0828 4.5838 3.3328 7.2922 3.75 8.125 0.83281 0.41719 1.4578 0.83438 1.875 1.25l0.625-0.625c-4.7e-4 -0.41562-0.625-1.4578-1.875-3.125-0.83438-1.6662-2.0839-3.3328-3.75-5-1.25-1.6662-2.5005-3.1245-3.75-4.375-1.25-1.25-2.0839-1.8745-2.5-1.875v1.25c-4.7e-4 4.7e-4 -4.7e-4 0.20938 0 0.625-4.7e-4 4.7e-4 0.20781 0.20938 0.625 0.625l1.25 0.625 8.125 10.625m-0.625-8.75 6.875 6.875-6.875-4.375v-2.5m-344.38 1.875 3.125 6.25-5-4.375 1.875-1.875m267.5 5c0.41562 4.7e-4 0.83281-0.20781 1.25-0.625 1.6662 0.41719 2.4995 1.8755 2.5 4.375l-0.625 0.625c-4.7e-4 4.7e-4 -0.20938 0.41719-0.625 1.25h-2.5v-5.625m9.375 1.875 3.75 4.375-5.625 0.625 1.875-5m-286.25 1.25 1.875 1.875-1.25 1.875-5 5.625-1.25-3.125 5.625-6.25m28.125 4.375 2.5 0.625-0.625 1.875-5 1.25-1.875-0.625 5-3.125m223.12 3.125v3.125-1.25c-4.7e-4 1.25-0.20938 2.0838-0.625 2.5-1.25 4.7e-4 -2.5005-0.83281-3.75-2.5l4.375-1.875m-0.625 7.5v1.25l-0.625 1.875-1.25 0.625-3.75-3.75h5.625m-230.62 5.625c-1.6e-4 4.7e-4 -0.41719 1.0422-1.25 3.125-0.83438 2.0838-1.6669 3.1255-2.5 3.125-1.25 4.7e-4 -1.8752-0.41562-1.875-1.25v-0.625l3.125-4.375 2.5-3.125v3.125m186.88 1.875-5-0.625c-3.1e-4 -1.6662 0.625-2.4995 1.875-2.5 0.83281 4.7e-4 1.25 0.20938 1.25 0.625l1.875 2.5m152.5 0c-0.83438 2.0838-1.4594 3.1255-1.875 3.125-1.25 4.7e-4 -2.7089-0.83281-4.375-2.5l6.25-0.625m-81.875 1.25v-2.5c-0.41719 0.41719-0.83438 0.625-1.25 0.625-0.41719 4.7e-4 -0.83438 0.20938-1.25 0.625-3.3338 2.5005-5.0005 3.7505-5 3.75 0.41562 0.41719 0.625 1.0422 0.625 1.875l6.875-4.375m17.5 3.125-0.625 1.875h-3.125c-1.6672 4.7e-4 -2.5005-0.41562-2.5-1.25-4.7e-4 -1.6662 1.25-2.4995 3.75-2.5l2.5 1.875m-89.375-1.875 2.5 3.75c-2.5003 4.7e-4 -4.3753-0.20781-5.625-0.625-0.83438 4.7e-4 -1.25-0.41562-1.25-1.25-3.1e-4 -1.25 0.625-1.8745 1.875-1.875h2.5m154.38 6.25-1.25 0.625h-1.875l-0.625-0.625-1.25-1.875 2.5-0.625 2.5-1.875v4.375m-161.25 0 3.75 10.625 3.75 6.875-3.125-0.625c-3.1e-4 -0.41562-0.625-1.6662-1.875-3.75l-3.125-5.625-1.25-10 1.875 2.5m158.12 4.375 3.75 0.625c-0.41719 0.41719-1.0422 0.625-1.875 0.625-0.41719 4.7e-4 -1.0422-0.41562-1.875-1.25m-68.125 8.75v1.875c0.83281 0.41719 2.0828 1.0422 3.75 1.875 2.0828 0.83438 3.1245 1.0422 3.125 0.625-4.7e-4 -0.41562-1.25-1.8745-3.75-4.375-2.0838-2.9162-2.9172-4.3745-2.5-4.375l-0.625 4.375m-90.625-1.875h-5l1.875-1.875 3.125 1.875m98.125-0.625-0.625-1.25 1.875 1.875 3.75 1.875c-4.7e-4 -0.41562-1.6672-0.625-5-0.625v-1.875m-103.12 5 4.375-0.625v2.5l-4.375-1.875m-248.12 18.75 1.875 0.625c0.83281 3.3338 1.25 4.792 1.25 4.375-1.6e-4 0.83438-0.625 1.25-1.875 1.25-1.6667 3.1e-4 -2.5002-0.625-2.5-1.875-1.6e-4 0.41719 0.41719-1.0406 1.25-4.375m135.62 33.75-1.875 2.5c-0.41719 0.41719-1.0422 0.625-1.875 0.625-1.25 3.1e-4 -1.8753-0.625-1.875-1.875l0.625-0.625v-0.625l3.75-1.25 1.25-3.125c2.0831-0.83281 3.9581-1.4578 5.625-1.875 2.0831-0.83281 3.5414-1.4578 4.375-1.875-1.6669 0.41719-3.1253 1.667-4.375 3.75l-1.25 1.875-4.375 2.5m-63.75 27.5c2.9164 1.25 5.2081 1.8753 6.875 1.875 4.1664 3.1e-4 6.2498 0.83438 6.25 2.5-1.6e-4 0.83438-0.41719 1.25-1.25 1.25-2.0836 3.1e-4 -5.8336-1.25-11.25-3.75l-1.25-0.625 0.625-1.25m196.88 18.75c1.25 2.0836 3.7497 0.20938 7.5-5.625 0.83281 3.1e-4 -1.8753 3.9586-8.125 11.875l1.25-1.25c-0.83438 1.667-2.292 3.542-4.375 5.625-2.0838 2.0836-3.7503 3.3336-5 3.75-3.1e-4 -0.83281-0.20938-1.4578-0.625-1.875l3.75-1.875 5.625-10.625m28.125 5-11.875 4.375c-2.5005 2.5003-4.167 3.7503-5 3.75-0.83438 3.1e-4 -1.25-0.20781-1.25-0.625-4.7e-4 -2.4997 2.083-4.3747 6.25-5.625 2.9162-0.83281 4.9995-1.8747 6.25-3.125 1.25-1.6664 4.7912-2.2914 10.625-1.875l-5 3.125m-220-0.625 26.25-0.625-13.75 3.125-13.75-0.625 1.25-1.875m51.875 2.5c0.41719 0.41719 1.0422 0.625 1.875 0.625h0.625c-3.1e-4 5.4169-2.9169 9.1669-8.75 11.25l0.625 0.625-3.125-0.625c5.4164-2.4997 8.3331-6.4581 8.75-11.875m156.25 11.875 11.25-2.5-3.125-2.5-6.25 2.5h-1.875c-1.667 3.1e-4 -1.667 0.83281 0 2.5m-193.75-6.875 14.375-1.25-14.375 2.5h-6.875l-6.875-1.25h-5.625c-1.6e-4 -1.6664 0.41562-2.4997 1.25-2.5l18.125 2.5m40.625 1.25 0.625 6.875-0.625 0.625c-2.0836 1.25-3.3336 1.8753-3.75 1.875-3.1e-4 3.1e-4 -0.20938 3.1e-4 -0.625 0-0.41719-0.41562-1.0422-0.83281-1.875-1.25 3.3331-1.6664 5.4164-4.3747 6.25-8.125m5.625 8.125c-2.0836 2.5003-3.3336 3.7503-3.75 3.75-1.6669 3.1e-4 -2.7086-0.20781-3.125-0.625l6.875-3.125m5.625 2.5-0.625 2.5c-3.1e-4 1.25-1.25 1.8753-3.75 1.875-3.1e-4 3.1e-4 -0.20938 3.1e-4 -0.625 0-0.41719-0.41719-1.0422-0.83281-1.875-1.25l6.875-3.125m-3.75 7.5 8.125-5c-0.83438 4.5836-2.5003 6.8753-5 6.875-0.41719 3.1e-4 -1.4578-0.625-3.125-1.875m105.62-3.125h3.125c-3.1e-4 0.41719 1.6662 2.2919 5 5.625l3.75 3.75-5-1.875c-3.7503-0.41719-6.042-2.9164-6.875-7.5m-98.75 8.75c-1.6669 3.1e-4 -2.5003-0.41719-2.5-1.25 0.83281-0.83281 1.8747-1.6664 3.125-2.5l3.125-3.125c-1.6669 5.4169-1.6669 8.1253 0 8.125l-3.75-1.25m270.62 10.625c-4.7e-4 0.83281-1.25 1.25-3.75 1.25-1.25 3.1e-4 -1.8755-0.41719-1.875-1.25-4.7e-4 -1.6664 0.83281-2.4997 2.5-2.5l3.125 2.5m0.625 3.75 1.25 3.75h-5.625l0.625-1.875 3.75-1.875m0.625 5.625 0.625 3.75-0.625 1.875-3.75-1.875 3.75-3.75m-40.625 15.625-10 6.25-8.125 0.625-1.25 1.25-4.375 0.625c0.41562-1.6664 1.6662-2.9164 3.75-3.75 1.25-0.41719 2.7078-0.625 4.375-0.625 1.6662 1.6e-4 2.7078-0.20781 3.125-0.625 2.9162-1.6664 4.7912-2.2914 5.625-1.875l6.875-1.875m-6.25 15c-0.41719-0.41719-2.9172 1.6e-4 -7.5 1.25l-2.5-0.625c-2.5005 1.6e-4 -3.7505-1.0406-3.75-3.125l8.125-0.625c-4.7e-4 1.6669 0.625 2.0836 1.875 1.25l9.375-1.875-5.625 3.75m3.75 25.625-1.25 3.125-4.375 2.5-1.875-2.5c1.6662-0.83281 3.9578-3.1248 6.875-6.875 2.9162-3.7498 4.3745-5.6248 4.375-5.625v1.875c-0.83438 2.5002-1.25 3.5419-1.25 3.125-4.7e-4 0.83281-0.83438 2.2919-2.5 4.375m40.625-2.5 1.875 0.625c-0.41719 1.25-1.25 2.7086-2.5 4.375-0.83438 1.6669-2.0839 3.5419-3.75 5.625h1.25l-2.5-0.625 5.625-10m-417.5 11.875-8.75 1.875-3.75 3.75-1.25-0.625c0.41719-3.7498 1.6666-5.6248 3.75-5.625l10 0.625m-3.125 5.625c-0.83281 0.83281-1.6667 1.6669-2.5 2.5-0.83281 0.83281-2.0834 1.6669-3.75 2.5h-1.875l1.25-3.75 3.125-3.125h1.875l1.875 1.875m348.12 6.25c0.83281 3.3334 0.83281 5.0002 0 5-1.25 1.6e-4 -2.0838-1.25-2.5-3.75-0.41719-1.25-1.6672-2.2916-3.75-3.125l-5.625-1.25-0.625-1.875c0.41562-0.41719 1.6662-0.625 3.75-0.625 3.7495 1.6e-4 6.6662 1.8752 8.75 5.625m-28.75 7.5-5 16.875v5.625c-2.0838-0.83281-3.1255-1.6666-3.125-2.5-4.7e-4 -2.9166 0.20781-4.9998 0.625-6.25l1.25-5.625 3.75-9.375 11.25-10.625-8.75 11.875m21.875-4.375c0.83281 0.83281 1.25 1.4578 1.25 1.875v1.875h-2.5c-1.25-0.41719-2.7088-1.0422-4.375-1.875v-3.125l5.625 1.25m-10-1.25-6.25 6.875-5.625 10.625 8.125-8.75 3.75-8.75m4.375 18.125c3.3328 0.83281 4.1662 1.25 2.5 1.25-4.1672 1.6e-4 -6.0422-0.20781-5.625-0.625-4.7e-4 -0.41719 0.20781-0.83281 0.625-1.25l2.5 0.625m-5 3.125 3.125 1.25-1.25 3.125h-2.5l0.625-4.375m-8.75 38.75 3.75 1.25 12.5 17.5c-3.3338-0.83281-6.2505-2.9166-8.75-6.25-2.5005-3.3333-4.792-6.6666-6.875-10l-0.625-2.5m-52.5 11.875 11.875 15-8.75-1.875-2.5-5.625-1.875-3.75 0.625-3.75h0.625m-226.25 45.625 1.875 4.375h0.625c-0.41719-0.41719-0.83281-0.625-1.25-0.625l-1.25-1.25c-2.5002-2.9166-3.7502-5.2083-3.75-6.875-1.6e-4 -4.1666 1.25-6.25 3.75-6.25v10.625m-6.875 3.75h-1.25c-2.0834-3.3333-3.1252-6.0416-3.125-8.125-1.6e-4 -2.0833 1.0422-3.125 3.125-3.125 0.83281 0 1.25 0.41719 1.25 1.25v0.625l-0.625 4.375 2.5 3.125-1.875 1.875m50-6.875c-4.5836 0.83281-8.3336 1.4578-11.25 1.875 0.41562-2.0833 3.5414-3.5416 9.375-4.375l8.125-1.25c1.25 0 1.8748 0.41719 1.875 1.25-1.6e-4 1.25-0.83438 1.875-2.5 1.875h-1.25l-4.375 0.625m237.5 4.375 0.625-3.75v-3.125l2.5 3.75-3.125 3.125m-295-5 3.125 6.25-3.75-0.625-1.25-5 1.875-0.625m300.62 0 3.75 4.375h-3.125l-0.625-4.375m-251.25 6.25c-1.6e-4 -2.5 2.2914-3.75 6.875-3.75l10-0.625 3.75-0.625c1.6664 0 2.4998 0.625 2.5 1.875-1.6e-4 1.25-0.625 1.875-1.875 1.875-2.5002 0-4.3752-0.20781-5.625-0.625l-1.25-0.625c-1.6669 0-3.7502 0.625-6.25 1.875-2.5002 0.83281-4.3752 1.25-5.625 1.25l-2.5-0.625"
         fill="#8f0005"
         id="path15" />
    </g>
  </g>
</svg>
