<?xml version="1.0" encoding="UTF-8" standalone="no"?>
<svg
   xmlns:dc="http://purl.org/dc/elements/1.1/"
   xmlns:cc="http://creativecommons.org/ns#"
   xmlns:rdf="http://www.w3.org/1999/02/22-rdf-syntax-ns#"
   xmlns:svg="http://www.w3.org/2000/svg"
   xmlns="http://www.w3.org/2000/svg"
   xmlns:sodipodi="http://sodipodi.sourceforge.net/DTD/sodipodi-0.dtd"
   xmlns:inkscape="http://www.inkscape.org/namespaces/inkscape"
   version="1.1"
   viewBox="0 0 500 500"
   id="svg19"
   sodipodi:docname="william-morris-letter-f.svg"
   inkscape:version="1.0.2 (1.0.2+r75+1)">
  <metadata
     id="metadata23">
    <rdf:RDF>
      <cc:Work
         rdf:about="">
        <dc:format>image/svg+xml</dc:format>
        <dc:type
           rdf:resource="http://purl.org/dc/dcmitype/StillImage" />
      </cc:Work>
    </rdf:RDF>
  </metadata>
  <sodipodi:namedview
     pagecolor="#ffffff"
     bordercolor="#666666"
     borderopacity="1"
     objecttolerance="10"
     gridtolerance="10"
     guidetolerance="10"
     inkscape:pageopacity="0"
     inkscape:pageshadow="2"
     inkscape:window-width="1920"
     inkscape:window-height="1016"
     id="namedview21"
     showgrid="false"
     inkscape:zoom="1.686"
     inkscape:cx="255.33808"
     inkscape:cy="250"
     inkscape:window-x="0"
     inkscape:window-y="27"
     inkscape:window-maximized="1"
     inkscape:current-layer="svg19" />
  <defs
     id="defs7">
    <linearGradient
       id="linearGradient847"
       x1="500"
       x2="0"
       y1="500"
       y2="-4.2633e-14"
       gradientTransform="translate(2.6416e-6)"
       gradientUnits="userSpaceOnUse">
      <stop
         stop-color="#ff6700"
         offset="0"
         id="stop2" />
      <stop
         stop-color="#ffd700"
         offset="1"
         id="stop4" />
    </linearGradient>
  </defs>
  <path
     d="m111.56 42.629c-7.5182 0.04557-13.147 0.25093-16.066 0.66797-1e-6 0-2.5944 2.8378-4.6914 5.1445s8.5977 13.42 8.5977 13.42 12.161 6.9199 13 6.9199 38.166 9.4375 38.166 9.4375l3.9844 18.242-1.0449 92.803 12.865-12.068 35.885-26.098v-60.35l6.5234-13.643s29.412 0.15745 59.957 0.31445l0.73046-4.4453 8.8086-24.99-4.252 0.058594s-39.197-1.9091-81.057-3.4629l0.58789 2.3926s-29.567-1.677-33.971-1.8867c-0.94775-0.045132-1.552-0.70419-1.9375-1.6855-14.068-0.40582-27.272-0.69782-37.969-0.76562-2.8957-0.018354-5.6111-0.02105-8.1172-0.00586zm289.98 3.6348-96.32 1.3438c-1.2659 1.1142-11.716 10.305-12.902 10.898-0.73341 0.36671-4.691 10.423-7.9688 18.986 18.895 0.093727 40.909 0.20703 44.83 0.20703 11.269 0 39.738 4.7441 39.738 4.7441l18.98 33.215s17.794 25.504 20.76 25.504 8.3027-36.773 8.3027-36.773l-18.387-43.891 2.9668-14.234zm-199.88 116.7c-1.4828-0.88968-37.218 30.399-40.035 32.326-2.0572 1.4076-6.2257 9.1019-8.3379 13.172l-2.3027 204.44s-14.47 15.728-15.729 15.938-13.63 2.3072-16.146 2.7266c-2.5164 0.4194-21.809 1.4668-21.809 1.4668l-3.5645 11.533 11.533 11.324s20.551 0.62894 22.857 0.6289c2.3067 1e-5 83.25-2.7266 83.25-2.7266l27.65 4.0996 12.455 1.7793s22.008-13.199 29.605-15.324c-11.693-1.4067-61.633-12.553-61.633-12.553l-16.607-14.828 0.59179-160.14 2.9668-5.9297 0.64453 0.00977 13.973-25.264 9.082-7.2988-27.852-0.66211v-54.535c-0.22653-0.02979-0.43161-0.08435-0.59375-0.18164zm79.428 281.38c1.7848 0.21471 2.738 0.21652 2.4238-0.09766-0.327-0.327-1.2093-0.24215-2.4238 0.09766zm86.096-268.2-8.8984 2.2246-1.8203 3.1211-7.7109 32.623-21.945 6.5234-78.979-1.8808-14.225 25.33 2.5781 7.2227 95.963 1.3574s18.387 11.268 20.76 15.42c2.3725 4.1518 9.4902 32.621 9.4902 32.621s13.641 1.1869 16.014 0.59375-1.1856-27.877-1.1856-27.877l0.5918-84.223 4.4551-5.3457-15.088-7.7109z"
     fill="#f4eee6"
     id="path11" />
  <g
     id="g17">
    <g
       transform="translate(-146.86,-119.79)"
       id="g15">
      <path
         d="m146.86 619.79v-500h500v500h-500m7.5-7.5h485v-485h-485v485m7.5-7.5v-469.38h469.38v469.38h-469.38m230-445c2.4997 3.3338 5.6247 5.0005 9.375 5 4.1664 4.7e-4 7.2914-1.25 9.375-3.75l5-8.75c1.6664-2.9162 3.958-4.3745 6.875-4.375 2.9162 4.7e-4 5.208 1.4594 6.875 4.375 0.41562 2.0838 0.625 3.7505 0.625 5 0.41562 1.25 0.625 2.2922 0.625 3.125-3.1e-4 2.5005-1.4594 6.8755-4.375 13.125-0.83438 1.667-1.4594 3.1255-1.875 4.375-0.41719 0.83438-0.83438 1.667-1.25 2.5-2.0838 4.5838-4.5838 13.334-7.5 26.25l2.5-7.5 5.625-15 11.875-19.375c1.6662-1.6662 2.4997-3.5412 2.5-5.625-3.1e-4 -11.25-5.417-16.875-16.25-16.875-5.417 4.7e-4 -8.542 1.6672-9.375 5l-4.375 11.875c-0.83438 2.0838-2.5003 3.1255-5 3.125-4.5836 4.7e-4 -7.292-1.6662-8.125-5l-2.5-13.125c-0.41719-2.9162-3.1253-4.3745-8.125-4.375-2.0836 4.7e-4 -4.3753 0.83438-6.875 2.5-2.0836 1.6672-4.167 3.5422-6.25 5.625-1.667 2.0838-3.3336 3.9588-5 5.625-1.25 1.6672-1.8753 2.5005-1.875 2.5-0.41719-0.41563-0.83438-0.625-1.25-0.625l-0.625-0.625-5-3.125-1.875 1.875c-3.1e-4 2.9172 2.2914 4.3755 6.875 4.375 2.0831 4.7e-4 4.7914-0.83281 8.125-2.5l8.75-10c0.41719-1.25 1.8747-1.8745 4.375-1.875 5.4164 4.7e-4 8.1247 4.3755 8.125 13.125v3.125m55.625 1.25c-1.25 1.25-2.917 2.9172-5 5-1.667 1.6672-3.7503 3.5422-6.25 5.625l-3.75 5.625-8.125 15c-4.167 10.834-6.2503 20.625-6.25 29.375-3.1e-4 1.25-3.1e-4 3.542 0 6.875 0.41562 2.917 0.83281 7.0838 1.25 12.5l2.5 5.625 4.375 10 6.25 5-3.125-6.875c-4.5838-12.5-6.8753-21.458-6.875-26.875 0.41562-42.916 21.875-68.75 64.375-77.5l2.5-0.625 1.25-0.625c0.83281-0.83281 3.333-1.25 7.5-1.25l20 0.625c9.9995 4.7e-4 20.625 3.7505 31.875 11.25l9.375 8.125 7.5 15-2.5 8.125c-2.0838 2.0838-3.7505 3.1255-5 3.125-3.3338 4.7e-4 -5.0005-2.083-5-6.25-4.7e-4 -0.83281 0.20781-1.4578 0.625-1.875l3.75-6.875v-2.5c-4.7e-4 -4.5828-1.4594-6.8745-4.375-6.875h-3.125c1.25 2.5005 1.8745 4.3755 1.875 5.625l-0.625 5c-0.41719 2.0838-0.83438 3.7505-1.25 5-4.7e-4 0.83438-4.7e-4 1.4594 0 1.875v4.375c2.4995 7.0838 6.2495 10.625 11.25 10.625 6.2495 4.7e-4 9.9995-5.208 11.25-15.625l5.625 2.5c2.4995-4.9995 3.7495-8.7495 3.75-11.25-4.7e-4 -11.25-6.4589-18.958-19.375-23.125-1.6672-0.41562-2.5005-1.25-2.5-2.5-4.7e-4 -1.6662 0.625-2.4995 1.875-2.5-0.41719 4.7e-4 2.9162 1.0422 10 3.125 3.3328 3.7505 6.0411 7.7088 8.125 11.875 2.9161 7.9172 8.7495 11.875 17.5 11.875 8.3328 4.7e-4 12.5-1.6662 12.5-5-4.7e-4 0.41719-0.41719-1.0406-1.25-4.375 7.4995-2.4995 11.25-7.7078 11.25-15.625-4.7e-4 -2.0828-0.83438-3.1245-2.5-3.125h-0.625l-13.125 5.625-10-0.625-2.5 0.625h-0.625l-33.125-8.75c-1.6672-0.41562-3.9588-0.83281-6.875-1.25-2.9172-0.41562-6.6672-1.0406-11.25-1.875-2.0838 4.7e-4 -3.5422-0.20781-4.375-0.625l-13.125-0.625-18.75-0.625c-19.584-0.83281-38.542 6.0422-56.875 20.625m-3.75-17.5h1.875c2.083 4.7e-4 3.1247 1.25 3.125 3.75-3.1e-4 2.9172-1.25 5.2088-3.75 6.875-2.0838 1.25-3.1253 2.0838-3.125 2.5-3.1e-4 1.6672 0.20781 2.7088 0.625 3.125 7.9162-4.9995 11.875-9.5828 11.875-13.75-3.1e-4 -3.7495-2.0838-5.6245-6.25-5.625-0.83438 4.7e-4 -1.4594 0.20938-1.875 0.625l-2.5 2.5m-94.375 0c0.83281 3.3338 1.8747 5.0005 3.125 5 2.4997 4.7e-4 3.7497-1.4578 3.75-4.375-3.1e-4 -2.0828-1.0422-3.1245-3.125-3.125-1.25 4.7e-4 -2.5003 0.83438-3.75 2.5m-181.25 11.875c2.9166-6.2495 6.0416-9.3745 9.375-9.375 2.0833 4.7e-4 4.7916 1.25 8.125 3.75l0.625 8.125-8.75 21.25-1.25 7.5 3.125-5.625 11.25-20.625c0.83281-3.3328 1.25-5.6245 1.25-6.875-1.6e-4 -8.3328-3.7502-12.5-11.25-12.5-7.5002 4.7e-4 -11.667 4.7922-12.5 14.375m136.25-13.125c-0.83281 3.3338-1.25 5.0005-1.25 5-1.6e-4 3.7505 2.4998 5.6255 7.5 5.625 2.0831 4.7e-4 3.7497-0.625 5-1.875l7.5-3.75c2.4997-0.83281 3.9581-1.25 4.375-1.25 4.5831 4.7e-4 6.8747 1.6672 6.875 5-3.1e-4 5.4172-5.6253 8.1255-16.875 8.125-4.1669 4.7e-4 -6.6669-0.20781-7.5-0.625l-31.875-10-8.75-0.625c2.4998 0.83438 4.5831 1.4594 6.25 1.875 22.916 9.5838 37.916 14.375 45 14.375 12.083 4.7e-4 18.125-4.5828 18.125-13.75-3.1e-4 -4.9995-4.1669-7.4995-12.5-7.5-3.7503 4.7e-4 -6.4586 0.83438-8.125 2.5l-3.125 2.5-1.25 0.625-2.5 0.625h-0.625c-3.3336 4.7e-4 -5.4169-2.2912-6.25-6.875m59.375 1.25c-1.25 4.7e-4 -2.0836 0.83438-2.5 2.5l-0.625 1.25c-3.1e-4 2.0838 1.25 3.1255 3.75 3.125 2.4997 4.7e-4 3.7497-1.25 3.75-3.75-3.1e-4 -2.0828-1.4594-3.1245-4.375-3.125m-155.62 145 20.625 9.375 4.375 2.5h5l-0.625-5.625-3.125-1.25-5.625-2.5-8.75-2.5c-10.833-3.333-20.625-11.458-29.375-24.375-8.3334-13.333-12.5-27.083-12.5-41.25-1.6e-4 -9.9995 1.6666-19.375 5-28.125 3.3333-8.7495 7.9166-16.25 13.75-22.5 5.8333-6.2495 12.708-11.25 20.625-15 7.9166-3.7495 16.458-5.6245 25.625-5.625 8.7498 4.7e-4 15.833 1.4594 21.25 4.375 7.9164 4.1672 12.708 6.2505 14.375 6.25 3.3331 4.7e-4 5.6248-0.20781 6.875-0.625-1.25-1.6662-2.2919-2.7078-3.125-3.125-0.41719-0.41562-1.8752-1.25-4.375-2.5l-6.25-3.125c-7.9169-4.1662-18.125-6.2495-30.625-6.25-20 4.7e-4 -36.458 7.5005-49.375 22.5-12.917 14.584-19.375 33.125-19.375 55.625-1.6e-4 12.5 3.3333 25 10 37.5 7.0833 12.5 15.625 21.25 25.625 26.25m282.5-134.38 5 1.875 5 6.875c0.41562 0.41719 0.83281 0.625 1.25 0.625 1.25-0.41563 1.8745-2.2912 1.875-5.625-4.7e-4 -3.7495-3.1255-5.6245-9.375-5.625h-0.625l-3.125 1.875m-141.88-1.875c-2.0836 4.7e-4 -3.1253 1.25-3.125 3.75-3.1e-4 2.5005 1.25 3.7505 3.75 3.75 2.4997 4.7e-4 3.7497-1.25 3.75-3.75-3.1e-4 -2.4995-1.4578-3.7495-4.375-3.75m-119.38 4.375-4.375 2.5c0.83281 0.41719 1.6666 0.83437 2.5 1.25 1.25 0.41719 2.7081 1.0422 4.375 1.875l1.875 3.125 1.875-5-5.625-2.5-0.625-1.25m63.125 31.25 6.875 7.5c1.6664 4.167 2.9164 8.542 3.75 13.125 0.83281 4.167 1.0406 8.7505 0.625 13.75v39.375l-0.625 24.375v6.875l-1.25 8.75 0.625 1.25 1.25 1.25 0.625-0.625 18.125-16.875 16.875-11.25c0.83281-0.83281 1.25-1.8747 1.25-3.125l-0.625-3.125c-0.41719-2.083-0.625-4.1662-0.625-6.25-3.1e-4 -2.083-3.1e-4 -4.3747 0-6.875v-46.25c-3.1e-4 -15.416 4.1664-23.125 12.5-23.125l63.75 0.625 8.125-18.75h-28.75l-67.5-0.625-41.875-1.25-5 1.25-6.25-0.625-25-0.625c-3.3334 4.7e-4 -5.0002 1.0422-5 3.125-1.6e-4 2.5005 2.2916 4.3755 6.875 5.625l30.625 8.125 10.625 4.375m-83.125-15.625-3.75 5-4.375 3.125c-2.0834 2.0838-3.1252 6.4588-3.125 13.125v1.25l2.5 3.75c1.6666 3.3338 4.7916 5.2088 9.375 5.625l-0.625-3.125c-4.1667-2.9162-6.6667-6.458-7.5-10.625l3.75-0.625-0.625 1.875c-1.6e-4 1.667 1.25 3.1255 3.75 4.375 0.83281-3.333 1.4578-5.833 1.875-7.5 0.41719-2.083 0.625-3.1245 0.625-3.125l6.875-5v-5c-0.83281-4.9995-2.9169-7.4995-6.25-7.5l-2.5 4.375m245.62-3.125-10 10-6.25 8.75 4.375 0.625 43.125 0.625c13.75 4.7e-4 27.5 6.2505 41.25 18.75l8.125 12.5c0.41563 0.41719 1.8745 4.3755 4.375 11.875 2.4995 7.0838 4.5828 10.625 6.25 10.625 3.3328 3.1e-4 4.9995-2.4997 5-7.5v-5c-0.83437-5.4162-1.6672-9.7912-2.5-13.125-0.83437-3.7495-1.6672-6.458-2.5-8.125l-10.625-26.875v-11.875h-4.375l-76.25-1.25m83.125 1.25-0.625 6.25c-4.7e-4 2.5005 1.25 6.4588 3.75 11.875l3.125 9.375 1.875 3.75 1.875 5 2.5 9.375c0.41563 1.667 0.83281 3.542 1.25 5.625 0.41563 1.667 0.83281 3.542 1.25 5.625v8.125c-4.7e-4 3.7503-1.8755 6.8753-5.625 9.375l2.5 5c5.8328-3.333 8.7495-8.1247 8.75-14.375-4.7e-4 -9.583-1.4594-17.916-4.375-25l-11.25-28.75-0.625-10-4.375-1.25m-310 0.625v0.625c-3.3334 4.7e-4 -5.0002 0.83437-5 2.5-1.6e-4 2.5005 0.20781 4.167 0.625 5 4.9998 4.7e-4 7.2916-1.8745 6.875-5.625v-2.5h-2.5m395 11.25c-2.9172 1.667-5.0005 2.5005-6.25 2.5-1.25 4.7e-4 -4.1672-1.6662-8.75-5 1.6661 6.667 6.4578 10 14.375 10 3.7494 4.7e-4 5.6244-2.2912 5.625-6.875-6.2e-4 -2.9162-0.83437-4.583-2.5-5l-1.875-0.625-0.625 5m-334.38 6.875c-7.0836-2.9162-12.084-4.7912-15-5.625l-16.875-4.375-9.375-1.875v1.875c0.41719 2.5005 3.7498 4.167 10 5l24.375 4.375 6.25 1.875 0.625-1.25m-47.5-10-4.375 2.5-13.125 1.875c-7.0834 1.25-10.417 5.6255-10 13.125v1.25c1.6666 6.667 6.4581 10 14.375 10 1.25 4.7e-4 2.2916-0.41563 3.125-1.25l6.25-9.375c0.83281-0.83281 1.6666-1.25 2.5-1.25 0.83281 4.7e-4 1.25 0.41719 1.25 1.25-1.6e-4 3.7505-2.7084 7.7088-8.125 11.875l1.875 6.875c2.9166 2.917 5.6248 4.3755 8.125 4.375 9.5831 4.7e-4 14.375-5.833 14.375-17.5-1.6e-4 -6.2495-3.9584-12.708-11.875-19.375-0.41719-0.83281-1.0422-1.4578-1.875-1.875-0.83281-0.83281-1.6669-1.6662-2.5-2.5m353.75 1.875-8.125 0.625 2.5 6.25 0.625 11.25c3.7495-4.1662 5.6245-7.9162 5.625-11.25l-0.625-6.875m6.875 0-4.375 0.625c0.41563 1.25 0.625 3.3338 0.625 6.25-4.7e-4 3.3338-2.2922 7.917-6.875 13.75l-1.875 1.875c-2.9172 1.667-6.2505 3.3338-10 5l-6.875 4.375-2.5 4.375c-3.7505 6.2505-5.6255 12.709-5.625 19.375-4.7e-4 2.5003 1.25 3.7503 3.75 3.75 1.25 3.1e-4 3.1245-0.625 5.625-1.875l-1.875 9.375-0.625-3.125c-2.5005 5.0003-3.7505 8.9588-3.75 11.875-4.7e-4 4.167 1.25 9.5838 3.75 16.25l6.25-2.5 1.25 14.375 5.625 6.875c-0.41719-1.25-0.625-3.958-0.625-8.125-4.7e-4 -7.083 2.0828-12.083 6.25-15l8.75-7.5 3.125-5.625c0.41563-0.41563 1.0406-0.625 1.875-0.625 0.41563 0.41719 0.83281 0.83437 1.25 1.25 0.41563 3.1e-4 0.83281 0.41719 1.25 1.25h2.5c4.9995-11.666 7.4995-21.666 7.5-30-4.7e-4 -2.9162-1.0422-7.4995-3.125-13.75l-1.25 8.75h-3.75c3.3328-9.583 4.7911-15 4.375-16.25-4.7e-4 -2.083-1.0422-5.833-3.125-11.25v6.25c0.41563 1.25-0.41719 5.417-2.5 12.5-3.3339 7.5005-5.4172 11.25-6.25 11.25-1.25 4.7e-4 -1.8755-0.83281-1.875-2.5l2.5-3.75 3.75-10 2.5-8.75c0.41563-0.83281 0.625-2.708 0.625-5.625-4.7e-4 -1.6662-1.0422-5.208-3.125-10.625l-3.125 19.375h-2.5l1.25-6.875c0.41563-2.083 0.625-3.958 0.625-5.625 0.41563-1.6662 0.625-2.9162 0.625-3.75v-5.625m-259.38 92.5c3.7497-1.6662 5.6247-3.333 5.625-5l-1.875-6.875v-8.75c-3.1e-4 -1.6662-3.1e-4 -3.7497 0-6.25-3.1e-4 -2.9162 0.20781-6.0412 0.625-9.375v-20l-0.625-10.625c-3.1e-4 -5.833 0.625-9.3745 1.875-10.625 1.6664-1.6662 5.4164-2.4995 11.25-2.5h26.25c3.333 4.7e-4 6.2497 4.7e-4 8.75 0 2.9164 4.7e-4 5.6247 0.20937 8.125 0.625h8.125c2.4997 0.83437 3.7497-0.625 3.75-4.375l-61.25-0.625c-5.0003 4.7e-4 -8.1253 2.292-9.375 6.875v9.375c-3.1e-4 2.917-3.1e-4 6.4588 0 10.625-3.1e-4 4.167-0.20937 9.167-0.625 15l-1.25 35.625 0.625 6.875m92.5-78.75 72.5 0.625c-10.834-3.333-22.084-4.9995-33.75-5h-4.375l-8.125 0.625h-6.875l-15.625-0.625c-2.0838 4.7e-4 -3.3338 1.4594-3.75 4.375m-175.62-1.875c1.6666 5.0005 2.9164 7.5005 3.75 7.5 1.25 4.7e-4 1.8748-0.41563 1.875-1.25v-1.25l-5.625-5m-70.625 1.25v5.625c-0.41719 6.667 1.8748 10 6.875 10 0.83281 4.7e-4 1.6666-1.0406 2.5-3.125l-1.875-0.625 1.875-3.125c-2.0834-4.1662-5.2084-7.083-9.375-8.75m188.12 6.25c-2.0836-2.083-4.167-3.1245-6.25-3.125-3.7503 4.7e-4 -5.6253 1.0422-5.625 3.125-3.1e-4 2.917 2.2914 4.3755 6.875 4.375 2.9164 4.7e-4 4.583-1.4578 5-4.375m16.875 6.875 3.75 5 1.25-0.625-0.625-1.875c-3.1e-4 -3.7495 1.0422-5.6245 3.125-5.625 4.583 4.7e-4 7.708 3.9588 9.375 11.875l4.375 15 0.625-4.375-1.875-5-0.625-7.5c-0.83437-11.25-5.0003-16.875-12.5-16.875-4.5836 4.7e-4 -6.8753 2.0838-6.875 6.25v3.75m-14.375-0.625c0.83281 2.0838 1.8747 3.1255 3.125 3.125 4.583 4.7e-4 6.8747-1.8745 6.875-5.625-3.1e-4 -2.4995-1.4578-3.7495-4.375-3.75-3.3336 4.7e-4 -5.2086 2.0838-5.625 6.25m51.875 36.875c-0.41719-1.25-0.625-3.1247-0.625-5.625v-5.625c-3.1e-4 -6.6662 2.083-12.5 6.25-17.5 4.583-5.4162 9.7912-8.1245 15.625-8.125 9.583 4.7e-4 14.375 3.9588 14.375 11.875-3.1e-4 5.417-2.5003 8.1253-7.5 8.125h-1.25l-11.875-4.375-1.25-0.625-1.25 0.625c-4.5838 2.0838-6.8753 5.417-6.875 10-3.1e-4 5.8338 2.4997 8.7503 7.5 8.75 0.83281 3.1e-4 2.083-0.83281 3.75-2.5-5.0003-1.6662-7.5003-3.958-7.5-6.875-3.1e-4 -3.7497 1.8747-5.6245 5.625-5.625h1.25l10 7.5c1.6662 1.25 3.333 1.8753 5 1.875 3.7497 3.1e-4 7.4995-2.9162 11.25-8.75 0.83281-3.333 1.25-5.6245 1.25-6.875-4.7e-4 -0.83281-0.20937-1.6662-0.625-2.5-4.7e-4 -1.25-0.20937-2.9162-0.625-5l7.5 0.625c-2.5005-7.9162-11.042-11.875-25.625-11.875-8.3338 4.7e-4 -15.209 3.1255-20.625 9.375-5.417 6.2505-8.1253 14.375-8.125 24.375-3.1e-4 5.417 1.4578 8.3338 4.375 8.75m-176.88-22.5 5-0.625v3.125l-3.125 0.625-7.5-0.625c-5.8334-0.83281-8.7502 0.20937-8.75 3.125-1.6e-4 2.5003 2.0831 3.7503 6.25 3.75 17.5 3.1e-4 26.25-6.458 26.25-19.375-1.6e-4 -2.083-0.625-3.5412-1.875-4.375l-1.875-0.625-5-1.875-9.375 16.875m103.75-16.875h-0.625c-3.7503 4.7e-4 -5.6253 1.8755-5.625 5.625-3.1e-4 3.3338 1.4578 5.0005 4.375 5 4.9997 4.7e-4 7.4997-2.2912 7.5-6.875-3.1e-4 -2.4995-1.8753-3.7495-5.625-3.75m-65.625 0c-2.5002 11.667-5.8336 17.5-10 17.5-2.0836 4.7e-4 -3.9586-1.25-5.625-3.75-0.83281 3.3338-1.25 5.0005-1.25 5-1.6e-4 3.7503 1.8748 5.6253 5.625 5.625 7.9164 3.1e-4 11.875-5.6245 11.875-16.875-1.6e-4 -3.7495-0.20937-6.2495-0.625-7.5m5 0.625c-0.41719 2.917-0.83281 5.417-1.25 7.5-1.6e-4 1.667-1.6e-4 3.3338 0 5l-0.625 3.75-2.5 4.375-1.875 5-3.75 2.5-3.75 6.875-6.25 4.375-4.375 4.375c-4.1669 4.167-12.083 6.2503-23.75 6.25-5.8334 3.1e-4 -10.833-1.25-15-3.75l-5.625-3.125-2.5-1.25c-4.5834-2.083-7.0834-6.8747-7.5-14.375v-0.625c-1.6e-4 -0.83281 0.625-2.083 1.875-3.75 1.6666-1.6662 2.9166-2.9162 3.75-3.75-1.6e-4 -0.83281-2.0834-1.8745-6.25-3.125-3.7502-1.6662-6.2502-2.4995-7.5-2.5-2.0834 4.7e-4 -3.1252 0.83437-3.125 2.5v1.25l3.125 5 3.75 14.375c1.6666 4.5838 6.4581 8.7503 14.375 12.5 7.9166 3.7503 16.042 5.6253 24.375 5.625 17.916 3.1e-4 32.5-9.1662 43.75-27.5 1.6664-2.9162 2.4998-6.6662 2.5-11.25-1.6e-4 -3.7495-0.625-9.1662-1.875-16.25m70.625 10c0.41563 1.667 1.4578 2.5005 3.125 2.5 3.7497 4.7e-4 5.6247-1.6662 5.625-5-3.1e-4 -3.333-1.4594-4.9995-4.375-5-3.7503 4.7e-4 -5.2086 1.667-4.375 5v2.5m-141.88 4.375 5 5v3.75c-5.0002 0.83437-7.5002 2.5003-7.5 5-1.6e-4 1.25 0.625 1.8753 1.875 1.875 6.2498 3.1e-4 9.3748-2.4997 9.375-7.5-1.6e-4 -4.583-2.5002-8.7495-7.5-12.5-5.0002-3.7495-10.625-5.6245-16.875-5.625-8.7502 4.7e-4 -13.125 3.3338-13.125 10-1.6e-4 6.2505 2.0833 9.3753 6.25 9.375 0.83281 3.1e-4 1.25-0.20781 1.25-0.625l0.625-1.25c-1.6e-4 -0.83281-0.83281-1.8745-2.5-3.125-1.25-1.25-1.8752-2.2912-1.875-3.125-1.6e-4 -4.583 3.5416-6.8745 10.625-6.875 1.25 4.7e-4 6.0416 1.8755 14.375 5.625m253.12 23.125h-9.375l8.125 19.375 9.375 5c2.9162 1.667 5.4162 3.1253 7.5 4.375 2.083 0.83437 3.5412 1.4594 4.375 1.875l23.125 8.75 5.625 3.125c1.25 0.83281 3.1245 2.0836 5.625 3.75 2.0828 1.667 4.3745 3.3336 6.875 5 2.4995 1.667 4.7912 3.3336 6.875 5v1.25c-0.83437-0.41719-1.8755-0.83281-3.125-1.25-1.25-0.41719-2.5005-1.0422-3.75-1.875-11.667-9.1664-23.75-13.75-36.25-13.75-12.084 3.1e-4 -18.125 2.292-18.125 6.875l4.375 4.375c-8.3338 4.5836-12.084 8.9586-11.25 13.125l0.625 5c3.7495 4.5836 8.5412 6.8753 14.375 6.875h1.875c-1.667-3.333-2.5005-6.8747-2.5-10.625-4.7e-4 -9.583 5.833-14.375 17.5-14.375 6.6662 3.1e-4 14.375 3.1253 23.125 9.375l9.375 5.625 11.875 10.625 7.5 8.125 10.625 12.5 5 8.75c4.1661 6.2503 6.4578 9.3753 6.875 9.375 0.83281 3.1e-4 1.4578-0.20781 1.875-0.625l0.625-1.25c1.25 3.1e-4 2.4995-0.20781 3.75-0.625 1.6661-0.41719 2.4995-2.0831 2.5-5-4.7e-4 -4.5831-6.4589-15.833-19.375-33.75-4.5838-6.6664-8.7505-12.083-12.5-16.25-3.7505-4.1664-7.0838-7.2914-10-9.375l-25-17.5-5-2.5-5.625-3.125v-1.25l-8.125-2.5-5-4.375c-0.41719-0.41563-1.0422-0.83281-1.875-1.25-0.83437-0.41563-1.8755-1.0406-3.125-1.875-8.7505-5.4162-13.125-13.333-13.125-23.75-4.7e-4 -12.5 5.833-18.75 17.5-18.75 4.1662 4.7e-4 8.5412 2.5005 13.125 7.5 0.41563 0.83437 0.625 2.0838 0.625 3.75-4.7e-4 2.5003-0.83437 3.7503-2.5 3.75-11.667 1.667-17.709 3.7503-18.125 6.25l-0.625 1.875 0.625 5v3.125c-4.7e-4 0.41719 2.9162 2.917 8.75 7.5 0.41563 0.41719 1.25 0.625 2.5 0.625-4.7e-4 3.1e-4 0.20781 3.1e-4 0.625 0 0.83281-0.41563 1.8745-0.83281 3.125-1.25l-1.875-2.5c-6.2505-1.25-9.3755-4.3747-9.375-9.375-4.7e-4 -2.4997 1.6662-4.1662 5-5l6.25-0.625 6.875-1.25c2.9162-2.9162 4.3745-6.2497 4.375-10-4.7e-4 -9.1662-5.6255-13.75-16.875-13.75-18.334 4.7e-4 -27.5 7.917-27.5 23.75-4.7e-4 0.83437-4.7e-4 1.8753 0 3.125 0.41563 1.25 0.83281 2.917 1.25 5m-95.625-28.75h-0.625c-3.3336 4.7e-4 -5.0003 2.0838-5 6.25-3.1e-4 1.667 0.83281 2.5005 2.5 2.5 4.1664 4.7e-4 6.2497-2.083 6.25-6.25-3.1e-4 -1.6662-1.0422-2.4995-3.125-2.5m10.625 1.875v1.875l-6.25 3.125-0.625 2.5-2.5 1.875-1.875 13.125-8.125 0.625v5c0.41563 1.25 0.83281 2.292 1.25 3.125 0.41719 0.83437 0.83281 1.667 1.25 2.5l5.625 3.75 13.75 1.25 15.625 6.875 8.75 0.625c1.6662 0.41719 2.4997-0.20781 2.5-1.875-3.1e-4 -0.83281-1.25-2.9162-3.75-6.25-0.41719-0.83281-0.83437-1.8747-1.25-3.125-0.41719-1.25-1.0422-2.708-1.875-4.375-3.1e-4 3.1e-4 -0.83281-0.20781-2.5-0.625-1.25-0.83281-3.542-1.6662-6.875-2.5l-3.125-1.25-6.875-3.75c-2.0836-3.333-3.1253-6.0412-3.125-8.125-3.1e-4 -4.583 2.2914-6.8745 6.875-6.875 1.25 4.7e-4 3.5414 0.625 6.875 1.875v-1.875c0.41563-2.9162-4.167-5.4162-13.75-7.5m-40 25.625c4.1664 9.5838 12.083 14.792 23.75 15.625l-5-3.75-10-5.625c-4.5836-2.4997-6.8753-7.2912-6.875-14.375-3.1e-4 -6.2497 3.1247-10.625 9.375-13.125v-3.125h-1.875c-7.9169 4.7e-4 -11.875 5.2088-11.875 15.625-3.1e-4 2.917 0.83281 5.8338 2.5 8.75m16.25-20c-2.917 4.7e-4 -5.0003 1.667-6.25 5v0.625c-3.1e-4 2.5003 1.6664 3.7503 5 3.75 4.583 3.1e-4 6.8747-1.6662 6.875-5-3.1e-4 -2.9162-1.8753-4.3745-5.625-4.375m-181.25 33.125c1.25 4.5838 3.7498 8.9588 7.5 13.125l5.625 5.625c0.83281 0.83437 1.8748 1.8753 3.125 3.125 1.25 1.25 2.9166 2.292 5 3.125l6.25 4.375 5.625 2.5-5-4.375-6.875-4.375-9.375-8.125c-5.4167-5.4162-8.1252-11.666-8.125-18.75-1.6e-4 -6.2497 2.4998-9.3747 7.5-9.375 2.4998 3.1e-4 5.4166 1.667 8.75 5v-4.375c-1.6e-4 -1.25-1.25-3.5412-3.75-6.875-1.6667-1.6662-3.7502-2.4997-6.25-2.5-7.5002 3.1e-4 -11.25 5.0003-11.25 15-1.6e-4 0.83437-1.6e-4 1.8753 0 3.125 0.41719 0.83437 0.83281 2.0838 1.25 3.75m78.125-13.125c-1.25-4.583-4.1669-6.8747-8.75-6.875-0.83281 3.1e-4 -2.2919 0.20937-4.375 0.625-1.6669 3.1e-4 -3.9584 0.20937-6.875 0.625l0.625 3.125-2.5-0.625c-1.25-3.7497-3.1252-5.6247-5.625-5.625-1.6669 3.1e-4 -2.5002 1.0422-2.5 3.125-1.6e-4 2.0838 1.8748 3.9588 5.625 5.625 5.4166 2.917 9.5831 4.3753 12.5 4.375 2.4998 3.1e-4 6.4581-1.4578 11.875-4.375m30.625-6.875-5 6.875-9.375 10c-1.25 0.83437-2.9169 1.8753-5 3.125-1.6669 1.25-3.5419 2.7088-5.625 4.375l-11.875 6.25c-6.2502 3.3338-9.3752 7.917-9.375 13.75-1.6e-4 7.917 3.1248 11.459 9.375 10.625l3.125-0.625c-3.3334-4.583-5.0002-7.9164-5-10-1.6e-4 -2.4997 5.8331-7.4997 17.5-15 13.75-9.1662 20.833-18.958 21.25-29.375m229.38 27.5h-1.25c-5.8338 3.1e-4 -8.7505-2.4997-8.75-7.5-4.7e-4 -6.2497 1.6662-9.3747 5-9.375h3.125v2.5l-3.125 3.125c-0.83437 0.83437-1.25 1.4594-1.25 1.875-4.7e-4 1.25 0.83281 1.8753 2.5 1.875l6.25-4.375c1.25-2.4997 1.8745-4.583 1.875-6.25-4.7e-4 -2.4997-1.8755-3.7497-5.625-3.75-8.3338 3.1e-4 -12.5 4.5838-12.5 13.75-4.7e-4 7.917 3.333 11.875 10 11.875 2.4995 3.1e-4 3.7495-1.25 3.75-3.75m-91.875-15-3.75 3.75 1.875 3.75 1.875 4.375c2.9162-1.6662 4.9997-2.4997 6.25-2.5 1.25 3.1e-4 2.9162 0.625 5 1.875v0.625c-3.1e-4 5.0003-6.4588 7.5003-19.375 7.5-2.917 3.1e-4 -8.7503-0.625-17.5-1.875-1.25-0.41563-2.5003-0.83281-3.75-1.25-0.83437-0.41563-1.667-0.83281-2.5-1.25-7.0836-2.9162-11.875-4.3747-14.375-4.375-2.5003 3.1e-4 -3.7503 1.4594-3.75 4.375h-5l-10-1.25h-3.75l-3.75 1.875c-2.5003 1.25-3.7503 2.292-3.75 3.125-3.1e-4 1.25 0.83281 2.7088 2.5 4.375l2.5 3.75 5.625 1.875 0.625 1.875c-2.917 0.41719-4.3753 1.4578-4.375 3.125-3.1e-4 2.5003 2.9164 3.7503 8.75 3.75h10c0.83281-0.83281 3.1247-2.4997 6.875-5 0.41719 0.41719 0.625 1.0422 0.625 1.875-3.1e-4 1.25-1.4594 2.0836-4.375 2.5-3.3336 0.83437-6.042 1.667-8.125 2.5-1.667 0.41719-2.5003 0.625-2.5 0.625l-3.75 3.125-4.375 1.25c-0.83437 0.83437-2.0836 2.7086-3.75 5.625l-3.75 6.25 0.625 4.375 6.25-1.25 0.625 11.25c3.333 4.5836 6.0414 6.8753 8.125 6.875h0.625c2.4997-0.41719 5.6247-1.0406 9.375-1.875-2.917-2.9164-4.3753-6.458-4.375-10.625-3.1e-4 -9.583 6.458-17.708 19.375-24.375 12.916-6.6664 28.541-9.9997 46.875-10 11.25 3.1e-4 22.916 1.25 35 3.75 2.4995 0.83281 3.5412 1.25 3.125 1.25 0.41562 3.1e-4 1.6662-0.625 3.75-1.875 2.083-1.25 6.458-1.8747 13.125-1.875l-15-6.25-11.25-6.875-8.75-8.75c-4.167-0.83281-6.8753-1.4578-8.125-1.875-8.7503-2.9162-14.167-4.3747-16.25-4.375-2.0838 3.1e-4 -5.2088-1.25-9.375-3.75m-268.12 20.625h1.25l1.25-3.75h3.75l6.25 3.125-4.375-6.25c-0.83281-0.83281-2.0834-1.25-3.75-1.25-2.9167 3.1e-4 -4.3752 1.667-4.375 5v3.125m35-5.625c0.83281 2.0838 1.8748 3.1253 3.125 3.125h4.375l1.875-0.625c4.5831 3.1e-4 10.417 2.917 17.5 8.75 4.9998 5.8336 7.7081 9.167 8.125 10l4.375 11.25c1.25 3.3336 1.8748 6.667 1.875 10v1.25l-1.875 15.625-1.25 8.125-3.75 10.625 1.875 4.375c5.4166-10.833 8.1248-22.291 8.125-34.375-1.6e-4 -13.75-3.9584-25.416-11.875-35-7.5002-9.583-16.875-14.375-28.125-14.375-0.83281 3.1e-4 -1.4578 0.20937-1.875 0.625l-2.5 0.625m152.5 3.75-3.125 3.75c2.0831-0.83281 3.1247-1.8747 3.125-3.125v-0.625m195.62 8.75c0.41563 4.5836 2.2912 8.9586 5.625 13.125l5.625 8.125c1.25 2.917 3.3328 5.2086 6.25 6.875l5.625 8.125 6.25 10.625 9.375 15v-0.625c-4.7e-4 -4.9997-2.0839-10.833-6.25-17.5l-9.375-13.75-13.75-18.125c-2.0838-3.333-3.1255-5.833-3.125-7.5-4.7e-4 -0.83281-4.7e-4 -1.6662 0-2.5 0.41563-1.25 0.83281-2.708 1.25-4.375l5 1.875 2.5 3.75 1.875-4.375c-2.5005-4.583-5.2088-6.8747-8.125-6.875-5.4172 3.1e-4 -8.3338 2.7088-8.75 8.125m-251.88 8.75-1.25-1.875c-3.3336 1.667-6.8752 2.5003-10.625 2.5-6.6669 3.1e-4 -10-2.2914-10-6.875v-0.625l5-6.25-5-0.625c-1.6669 3.1e-4 -3.1252 1.0422-4.375 3.125-0.83437 1.667-1.25 3.1253-1.25 4.375-1.6e-4 6.667 3.9581 10 11.875 10 2.9164 3.1e-4 8.1248-1.25 15.625-3.75m48.75-7.5-18.125 10.625-14.375 12.5-5.625 4.375-6.25 8.75-5.625 4.375-1.25 3.125-3.75 5c-3.7502 5.8336-8.7502 16.459-15 31.875l-1.25 3.125-0.625 5-5.625 25c-0.41719 1.6669-0.83438 3.5419-1.25 5.625-1.6e-4 2.0836-1.6e-4 4.7919 0 8.125v8.125c4.9998-0.83281 7.0831-2.4998 6.25-5v-3.125c-0.83281-20 4.1664-40.416 15-61.25 10.416-20.833 23.125-36.458 38.125-46.875l18.125-11.875c1.25-0.83281 3.9581-2.083 8.125-3.75 4.1664-1.6662 6.2497-2.708 6.25-3.125-3.1e-4 -2.4997-0.83438-3.958-2.5-4.375l-1.25-0.625h-0.625l-8.75 4.375m-170.62 8.75-0.625 0.625-0.625 7.5c-0.41719 8.3336 2.2916 16.25 8.125 23.75 6.2498 7.0836 13.542 11.667 21.875 13.75l6.875 1.875v-2.5l-6.875-3.125c-17.917-7.9164-26.875-19.791-26.875-35.625-1.6e-4 -3.7497 0.625-6.6664 1.875-8.75 2.4998-3.7497 3.7498-6.2497 3.75-7.5v-0.625c-1.6e-4 -1.25-0.625-1.8747-1.875-1.875-0.41719 3.1e-4 -2.2917 4.167-5.625 12.5m409.38-4.375-0.625 3.125c-4.7e-4 2.5003 1.8745 3.7503 5.625 3.75h5.625v2.5l-8.75-0.625-1.875-1.25c0.83281 6.2503 6.0411 10.209 15.625 11.875 1.6661-2.4997 3.1245-3.7497 4.375-3.75 2.0828 3.1e-4 4.5828 0.83281 7.5 2.5l6.25 7.5c0.41563-1.25 0.625-3.958 0.625-8.125-4.7e-4 -6.2497-1.25-9.7914-3.75-10.625l-6.875-2.5 1.875-8.125c-0.41719-0.41563-1.25-0.625-2.5-0.625-2.0839 3.1e-4 -5.0005 1.0422-8.75 3.125-3.3339 1.667-5.8339 2.5003-7.5 2.5-0.83438 3.1e-4 -1.8755 3.1e-4 -3.125 0-0.83437-0.41719-2.0839-0.83281-3.75-1.25m-233.75 10.625c-0.41719 2.0836-0.83438 3.9586-1.25 5.625-3.1e-4 1.25-3.1e-4 2.292 0 3.125-3.1e-4 2.0836 0.625 4.3753 1.875 6.875l4.375 4.375c-2.0836-7.083-3.1253-11.666-3.125-13.75-3.1e-4 -4.1664 0.83281-7.083 2.5-8.75 3.3331-3.333 4.9997-5.208 5-5.625-3.1e-4 -0.83281-0.41719-1.25-1.25-1.25-1.25 3.1e-4 -3.9586 3.1253-8.125 9.375m110 8.75c-2.0838 2.0836-3.7503 3.1253-5 3.125-1.25 3.1e-4 -3.1253-0.625-5.625-1.875-0.83438-4.1664-1.25-6.2497-1.25-6.25-3.1e-4 -6.2497 6.0412-9.3747 18.125-9.375 1.25 3.1e-4 3.1245 0.41719 5.625 1.25 2.9162 0.83437 4.9995 1.25 6.25 1.25 0.83281 3.1e-4 1.6662-1.0406 2.5-3.125-4.167-0.83281-7.917-1.4578-11.25-1.875-3.3338-0.83281-6.667-1.25-10-1.25-15 3.1e-4 -22.5 4.792-22.5 14.375-3.1e-4 8.7503 4.7912 13.125 14.375 13.125 5.833 3.1e-4 8.7497-3.1247 8.75-9.375m-212.5-0.625 1.875 5 1.875 0.625 10-1.25 15.625-3.125 13.125-5c4.5831-1.25 6.8748-3.1247 6.875-5.625-1.6e-4 -2.083-1.0422-3.1247-3.125-3.125-1.25 3.1e-4 -2.0836 0.625-2.5 1.875l-1.875 2.5c-0.41719 0.41719-1.6669 0.625-3.75 0.625-1.6669 3.1e-4 -6.0419 1.25-13.125 3.75-7.0836 2.5003-13.75 3.7503-20 3.75h-5m165.62-11.25c-3.3336 4.5836-5.0003 7.5003-5 8.75-3.1e-4 1.25 1.0406 4.3753 3.125 9.375l-1.25 1.875h-0.625c-2.5003-0.41719-3.7503 0.41719-3.75 2.5-3.1e-4 3.7503 2.4997 6.8753 7.5 9.375 2.4997 1.25 4.583 1.8753 6.25 1.875l1.875-0.625 15.625-4.375h1.875c2.9162 3.1e-4 4.3747 0.83281 4.375 2.5-3.1e-4 1.667-0.20938 2.7086-0.625 3.125h-8.125c-5.0003 3.1e-4 -10.834 2.7086-17.5 8.125v7.5c6.6662-3.7497 10.625-5.6247 11.875-5.625l23.75 0.625c9.583 0.83437 14.375-2.9164 14.375-11.25-3.1e-4 -6.2497-4.167-9.3747-12.5-9.375l-16.25-3.125-10-3.75c-7.5003-4.583-11.459-8.333-11.875-11.25l-0.625-5c-3.1e-4 3.1e-4 -0.20938 3.1e-4 -0.625 0-0.41719-0.41719-1.0422-0.83281-1.875-1.25m-70 0.625c-2.9169 0.41719-4.3753 1.667-4.375 3.75l0.625 11.875-0.625 6.875 0.625 9.375v16.875l4.375 1.25-0.625-50m-152.5 15.625-0.625-2.5c-1.6e-4 -4.1664 2.0833-6.2497 6.25-6.25h2.5l28.75 9.375 8.75 1.25v-1.875l-26.875-8.125-8.75-4.375c-0.41719-0.41719-2.0834-0.625-5-0.625-6.2502 3.1e-4 -9.3752 2.5003-9.375 7.5-1.6e-4 3.7503 1.4578 5.6253 4.375 5.625m120 10.625-3.75 5-6.25 7.5c-0.83437 0.83281-1.25 2.7086-1.25 5.625v2.5c0.41563 0.41719 0.625 1.8753 0.625 4.375l0.625 17.5-2.5 172.5c-1.6e-4 7.0834-4.5836 13.333-13.75 18.75-8.7502 5.4167-18.542 8.125-29.375 8.125-8.3334 0-12.5 2.0834-12.5 6.25-1.6e-4 3.3334 5.4166 4.5834 16.25 3.75h5.625c17.5-0.83281 30.416-1.4578 38.75-1.875 8.7497-0.41719 13.333-0.625 13.75-0.625l64.375 3.75c9.1664 0 13.75-1.4578 13.75-4.375v-1.875l-1.25-0.625-0.625-0.625-28.125-4.375c-4.5836-0.83281-10-3.5416-16.25-8.125l-2.5-1.875c-7.9169-10.417-11.875-23.542-11.875-39.375v-4.375l0.625-25v-16.875l0.625-76.25v-13.125c0.83281-6.6664 3.1247-10.208 6.875-10.625l13.125-1.25c1.25 3.1e-4 3.7497-3.9581 7.5-11.875 0.41719-1.6664 1.6664-3.5414 3.75-5.625l-26.875-0.625c-3.3336-1.25-4.5836-2.9164-3.75-5v-42.5c-10 7.0836-18.542 14.167-25.625 21.25m-36.25-3.75-8.75 6.875c-1.6e-4 0.83437 0.20781 1.25 0.625 1.25 0.41562 3.1e-4 2.9164-1.25 7.5-3.75l5.625-3.75 12.5-10.625 3.75-1.875v-1.25c-1.6e-4 -1.25-0.41719-1.8747-1.25-1.875-1.6669 3.1e-4 -4.3752 2.0836-8.125 6.25-3.7502 4.167-6.4586 6.667-8.125 7.5l-3.75 1.25m225 17.5-5 7.5c-2.917 2.0836-6.667 3.7503-11.25 5-4.167 0.83281-7.292 1.25-9.375 1.25l-5.625-0.625-18.75 0.625-51.875-1.25c-4.5836-0.83281-9.792 5.6253-15.625 19.375l91.875 1.25c17.916 3.1e-4 27.708 13.334 29.375 40 0.83281 6.6669 3.1245 11.875 6.875 15.625l3.125-4.375-1.875-51.875 1.875-22.5v-19.375l0.625-13.125c0.83281-4.9997-0.20938-7.9164-3.125-8.75-2.5005 3.1e-4 -4.5838 6.2503-6.25 18.75-0.41719 1.667-1.0422 3.542-1.875 5.625-0.41719 2.0836-1.4594 4.3753-3.125 6.875m16.25-29.375v26.25l-1.25 20.625 1.25 64.375-1.875 6.875-0.625 0.625 3.125 0.625c2.9162 1.6e-4 4.3745-1.6664 4.375-5l-1.25-32.5 0.625-5-0.625-18.75 1.25-18.75 0.625-6.25-0.625-20.625v-5c-4.7e-4 -2.9164-1.667-5.4164-5-7.5m-219.38 3.125-3.125 1.875-3.125 3.125c-6.2502 6.2503-9.7919 10.625-10.625 13.125l-2.5 4.375-7.5 11.875-6.25 13.75-16.25 57.5c-2.5002 8.7502-7.9169 16.25-16.25 22.5-7.9169 6.2502-16.25 9.3752-25 9.375-13.333 1.6e-4 -23.333-5.6248-30-16.875-2.5002-3.7498-3.7502-7.7081-3.75-11.875-1.6e-4 -2.0831 0.20781-3.5414 0.625-4.375l5.625-10.625-0.625-3.125-5 6.875c-2.0834 3.3336-3.1252 6.6669-3.125 10-1.6e-4 9.5836 3.3333 17.5 10 23.75 6.6666 6.2502 15.208 9.3752 25.625 9.375 9.5831 1.6e-4 18.542-2.7081 26.875-8.125 8.3331-5.8331 13.75-12.708 16.25-20.625l17.5-60c4.9998-17.916 15-33.541 30-46.875l0.625-5m-30 6.875c-0.83437-1.25-1.6669-1.8747-2.5-1.875-2.5002 3.1e-4 -3.7502 1.0422-3.75 3.125-1.6e-4 1.667 0.83281 2.5003 2.5 2.5 1.6664 3.1e-4 2.9164-1.25 3.75-3.75m-69.375 8.75 4.375-3.125c0.83281-0.83281 2.0833-1.25 3.75-1.25 8.3331 3.1e-4 12.5 3.1253 12.5 9.375-1.6e-4 3.7503-1.6669 8.5419-5 14.375l-2.5 3.75-1.875 1.875c-1.6e-4 1.25 0.625 1.8753 1.875 1.875 2.4998 3.1e-4 4.9998-3.3331 7.5-10 2.0831-7.083 3.1248-11.458 3.125-13.125-1.6e-4 -8.333-4.7919-12.5-14.375-12.5-8.3334 3.1e-4 -12.5 2.5003-12.5 7.5-1.6e-4 0.83281 0.20781 1.25 0.625 1.25h2.5m56.25-5.625c-2.5002 3.1e-4 -3.7502 1.8753-3.75 5.625-1.6e-4 3.7503 1.8748 5.6253 5.625 5.625 3.3331 3.1e-4 4.9998-1.6664 5-5-1.6e-4 -4.1664-2.2919-6.2497-6.875-6.25m96.25 20c4.1664 4.1669 8.9581 6.2503 14.375 6.25 4.1664 3.1e-4 7.708-0.83281 10.625-2.5l2.5-1.875-5.625-0.625-6.25 0.625-1.25 0.625c-6.2503 0.83437-9.3753-1.8747-9.375-8.125-3.1e-4 -1.25 0.625-2.9164 1.875-5 1.6664 1.25 3.3331 1.8753 5 1.875l1.25-1.25c-3.1e-4 -3.333-1.8753-4.9997-5.625-5-5.4169 3.1e-4 -7.9169 3.3336-7.5 10v5m268.12-14.375-11.25 7.5-0.625 1.875-2.5-1.25-1.25-3.125-1.875 0.625-3.75 5-4.375 14.375 3.75 2.5c0.83281 4.1669 1.25 6.2503 1.25 6.25-4.7e-4 1.25-2.0839 4.5836-6.25 10-4.5839 1.25-7.5005 1.8753-8.75 1.875-4.5839 3.1e-4 -7.5005-2.7081-8.75-8.125l-1.875-1.25c-2.0838 0.41719-3.5422 1.0422-4.375 1.875-1.25-0.41719-5.0005-1.0406-11.25-1.875l-3.125-0.625c-0.41719 3.1e-4 -2.2922 0.41719-5.625 1.25l-3.75 2.5-3.125 3.125c0.41562 0.41719 0.625 0.83281 0.625 1.25 0.41562 0.41719 0.83281 0.83281 1.25 1.25l0.625 2.5-7.5 3.75c-4.1672 4.1669-6.2505 7.5003-6.25 10-4.7e-4 2.0836 2.7078 3.1253 8.125 3.125h5l7.5 0.625c-0.83438 3.3336-1.25 4.7919-1.25 4.375-4.7e-4 2.0836 1.25 3.1252 3.75 3.125 8.3328 1.6e-4 15-4.9998 20-15l2.5-1.875 0.625 1.875c-2.5005 5.0003-3.7505 8.7502-3.75 11.25-4.7e-4 3.3336 0.83281 6.6669 2.5 10 1.6661 3.3336 3.3328 5.0002 5 5h1.25c0.41562-2.9164 1.6661-4.3748 3.75-4.375 0.83281 1.6e-4 1.25 0.20937 1.25 0.625l0.625 4.375 0.625 0.625 5 6.25c0.41562 1.25 2.9161 3.1252 7.5 5.625l0.625-4.375 3.125-8.75 8.125-8.75 1.875-5.625 4.375-1.25c-0.41719-15.416-5.8339-23.125-16.25-23.125-2.5005 3.1e-4 -5.6255 2.0836-9.375 6.25l1.25 3.125 2.5 1.875 0.625 1.875c-0.41719 0.41719-0.625 1.4578-0.625 3.125-4.7e-4 2.5003 0.83281 5.2086 2.5 8.125l-3.125 1.875 1.875-0.625-2.5-0.625-1.25-6.875-1.875-6.25c-1.25-3.3331-2.5005-4.9997-3.75-5-1.6672 3.1e-4 -2.5005 0.625-2.5 1.875-4.7e-4 0.83437 0.20781 1.4578 0.625 1.875l-0.625 4.375c-0.41719-0.41563-1.0422-0.625-1.875-0.625l-0.625-2.5c-4.7e-4 0.41719-0.41719-1.0406-1.25-4.375l-6.25-1.25-5.625-5.625-6.25 1.875h-5.625l6.25-3.125c2.9162-0.41563 4.5828-0.625 5-0.625l9.375 5.625c2.4995 0.83281 4.1661 1.25 5 1.25 4.5828 3.1e-4 8.7495-1.8747 12.5-5.625 3.7495-3.7497 5.6245-7.7081 5.625-11.875-4.7e-4 -0.83281-0.20938-1.8747-0.625-3.125-4.7e-4 -1.25-0.20938-2.9164-0.625-5l3.75-5.625 1.875 0.625-2.5 5.625 1.25 6.875-3.125 10c12.083-2.0831 18.125-8.9581 18.125-20.625l-3.75-1.875 1.875-6.875 1.25-11.875c-4.7e-4 -0.41563-0.20938-0.83281-0.625-1.25m-259.38 87.5c3.3331 2.0836 5.4164 3.1252 6.25 3.125 1.6664 1.6e-4 2.4997-1.25 2.5-3.75v-1.25c-3.3336-5.8331-5.0003-11.875-5-18.125-3.1e-4 -13.75 3.1247-24.583 9.375-32.5 6.2497-8.3331 17.916-16.875 35-25.625 1.6664-0.41719 3.7497-1.4578 6.25-3.125-2.0836-2.083-3.542-2.708-4.375-1.875l-10 3.125-27.5 18.75c-3.3336 2.0836-7.0836 8.1253-11.25 18.125-3.3336 8.7503-5.0003 15.834-5 21.25-3.1e-4 4.1669 1.25 11.459 3.75 21.875m121.88-83.125-1.25 5.625c5.4162 2.917 9.1662 4.3753 11.25 4.375 2.083 3.1e-4 3.1245-0.83281 3.125-2.5-4.7e-4 -1.25-4.3755-3.7497-13.125-7.5m-217.5 1.25c-2.0836 0.83281-3.1252 2.292-3.125 4.375-1.6e-4 2.917 1.4578 4.3753 4.375 4.375 2.9164 3.1e-4 4.3748-1.6664 4.375-5-1.6e-4 -2.4997-1.4594-3.7497-4.375-3.75h-1.25m-77.5 2.5-3.125 7.5-2.5 5.625-1.25 3.125v0.625c-1.6e-4 1.25 0.625 1.8753 1.875 1.875l1.25-0.625 4.375-10.625 1.875-4.375-2.5-3.125m-7.5 2.5c-7.9167 2.9169-11.875 6.4586-11.875 10.625-1.6e-4 4.1669 2.4998 7.9169 7.5 11.25 5.4166 2.9169 10.417 4.3753 15 4.375 6.6666 3.1e-4 9.9998-1.25 10-3.75-0.83281-0.83281-1.4578-1.25-1.875-1.25l-11.875 1.25c-9.5834 0.83437-14.375-3.7497-14.375-13.75-1.6e-4 -2.4997 2.4998-4.1664 7.5-5v-3.75m368.12 0.625c-0.41719 1.667-0.83437 2.9169-1.25 3.75-4.7e-4 0.83437-4.7e-4 1.6669 0 2.5-4.7e-4 7.0836 3.1245 11.459 9.375 13.125-1.6672-1.6664-2.5005-3.5414-2.5-5.625-4.7e-4 -2.4997 1.6662-3.7497 5-3.75 2.4995 3.1e-4 4.9995 1.8753 7.5 5.625l4.375 5 1.25-0.625c0.41563-0.41719 0.625-1.0406 0.625-1.875v-1.875l-2.5-2.5c-1.25-1.6664-2.9172-3.5414-5-5.625l-3.125-3.75c-2.9172-2.9164-6.8755-4.3747-11.875-4.375h-1.875m-18.75 13.75 1.25 5 2.5 3.75 4.375 6.25c-4.7e-4 -4.1664-0.625-7.4997-1.875-10-1.25-2.4997-1.8755-4.5831-1.875-6.25-4.7e-4 -2.4997 0.83281-3.7497 2.5-3.75 1.6662 3.1e-4 2.7078 0.20937 3.125 0.625l2.5 3.125 0.625-3.75c-4.7e-4 -4.5831-2.0838-6.8747-6.25-6.875-5.4172 3.1e-4 -8.1255 2.0836-8.125 6.25-4.7e-4 0.41719 0.41563 2.2919 1.25 5.625m-336.88-8.125c8.7498 4.5836 13.125 10.834 13.125 18.75-1.6e-4 8.7503-4.5834 13.334-13.75 13.75 2.9166 1.6669 5.2083 2.5003 6.875 2.5 7.4998 3.1e-4 11.25-4.9997 11.25-15-1.6e-4 -8.7497-3.1252-15-9.375-18.75l-6.875-3.75-1.25 2.5m30.625 4.375c9.5831 7.9169 14.792 21.042 15.625 39.375 2.4998-0.41719 3.7498-1.6664 3.75-3.75-1.6e-4 -7.9164-1.6669-14.791-5-20.625l-4.375-9.375c-3.3334-4.9997-5.8334-7.7081-7.5-8.125h-1.25l-1.25 2.5m72.5-0.625-5.625 12.5c-4.5836 11.667-6.8752 24.167-6.875 37.5-1.6e-4 9.5836 2.9164 14.375 8.75 14.375 1.6664 1.6e-4 3.3331-0.83281 5-2.5-6.2502-2.4998-9.3752-7.7081-9.375-15.625-1.6e-4 -5.8331 0.625-11.875 1.875-18.125l5.625-21.875 0.625-6.25m96.875 0-5 3.75-10.625 10.625-1.875 6.875-1.875 3.75c-0.41719 0.41719-0.625 1.6669-0.625 3.75-3.1e-4 7.9169 3.958 11.875 11.875 11.875 4.1664 3.1e-4 6.2497-1.25 6.25-3.75l-0.625-3.75-5.625 2.5h-0.625c-2.917 3.1e-4 -4.3753-2.9164-4.375-8.75-3.1e-4 -5.8331 4.3747-14.791 13.125-26.875m-129.38 10.625-3.125 6.25-8.75 18.125c-3.3334 7.5003-8.5419 11.25-15.625 11.25-5.0002 1.6e-4 -7.0834-2.2914-6.25-6.875v-3.125c-4.1669 1.6669-6.2502 3.7503-6.25 6.25-1.6e-4 5.8336 3.7498 8.7502 11.25 8.75 2.0831 1.6e-4 5.2081-1.4578 9.375-4.375l5.625-3.125 3.125-5 5-12.5 4.375-10 1.25-5.625m263.75 1.25v5.625c-0.41719 1.25-4.7e-4 3.5419 1.25 6.875l2.5 5.625c3.3328-2.0831 4.9995-3.7497 5-5-4.7e-4 -0.83281-0.625-2.2914-1.875-4.375l-1.875-3.75-5-5m-298.75 3.75c-10.833 14.584-21.458 23.959-31.875 28.125-2.9167 0.41719-4.3752 1.25-4.375 2.5-1.6e-4 1.25 0.20781 2.0836 0.625 2.5 2.0833-0.83281 3.9583-1.6664 5.625-2.5 1.6666-0.83281 3.5416-1.6664 5.625-2.5l3.75-4.375 3.75-1.25 9.375-8.125 3.75-3.125 3.125-5 2.5-2.5-1.875-3.75m-50 2.5c-0.41719 1.25-0.625 3.1253-0.625 5.625v4.375c-1.6e-4 15 6.0416 26.667 18.125 35v1.25c6.2498 3.3336 13.333 5.2086 21.25 5.625l2.5-0.625 3.75-2.5 6.875-2.5 3.125-3.75 3.75-3.75v-0.625c-0.83281-0.83281-1.4578-1.25-1.875-1.25-0.83281 1.6e-4 -1.4578 0.20937-1.875 0.625l-10 8.75c-1.6669 1.6669-5.0002 2.5002-10 2.5-11.25 1.6e-4 -19.792-5.4164-25.625-16.25-4.5834-9.9997-6.8752-17.291-6.875-21.875l0.625-2.5v-3.75c-1.6e-4 -2.0831-1.0422-3.5414-3.125-4.375m205.62 6.875-0.625 4.375 105.62 0.625c-4.5838-3.3331-9.792-4.9997-15.625-5h-89.375m-42.5 154.38c-3.1e-4 6.6667 1.25 12.5 3.75 17.5l3.125 5-1.875-11.875v-152.5c-3.1e-4 -4.9997 3.1247-7.9164 9.375-8.75l1.25-4.375h-3.75c-7.9169-0.41719-11.875 1.25-11.875 5v150m88.75-136.88 1.25-1.875 2.5 0.625c-0.83437-4.9997-2.5003-7.4997-5-7.5-2.5003 3.1e-4 -3.7503 1.4578-3.75 4.375-3.1e-4 0.83437 1.6662 2.2919 5 4.375m15.625-3.75c-6.667 0.41719-10 3.3336-10 8.75-3.1e-4 2.9169 0.625 4.3752 1.875 4.375-0.41719 1.6e-4 0.625-0.41563 3.125-1.25v1.875c-0.41719 1.6669-3.1e-4 2.5002 1.25 2.5 1.6662 1.6e-4 2.9162-0.20781 3.75-0.625v-1.25c-0.83437-1.25-3.1e-4 -1.8748 2.5-1.875v1.875c-3.1e-4 1.25 0.41563 1.8752 1.25 1.875 1.6662 1.6e-4 2.708-1.4578 3.125-4.375h2.5v2.5c2.9162-1.25 4.7912-3.5414 5.625-6.875h1.25v3.75c-3.1e-4 1.6669 0.625 3.3336 1.875 5l4.375-2.5c-0.83437 2.5002-1.25 3.7502-1.25 3.75-3.1e-4 1.6669 0.83281 2.5002 2.5 2.5 0.83281-0.41563 1.4578-0.83281 1.875-1.25 0.41563-0.41719 0.83281-0.83281 1.25-1.25v4.375h3.75l2.5 0.625c2.083 1.6e-4 3.1245-2.0831 3.125-6.25-4.7e-4 -5.4164-1.667-8.7498-5-10l-8.125-3.75-3.75-6.25c-0.83437 3.1e-4 -1.667 0.41719-2.5 1.25-0.41719 0.41719-5.417 1.25-15 2.5h-1.875m-66.875 5c2.9164 2.9169 4.3747 5.8336 4.375 8.75-3.1e-4 2.5002-1.667 5.6252-5 9.375-3.3336 3.3336-5.0003 6.2502-5 8.75-3.1e-4 5.0002 1.4578 7.5002 4.375 7.5h0.625l10-1.875 14.375-0.625c4.1664 1.6e-4 9.7914 0.625 16.875 1.875l1.875-2.5h-3.125l0.625-3.125 3.75 1.875 1.875-1.875-3.125-3.125 0.625-1.875 5 1.25-1.25-4.375-3.125-2.5c-0.83437-0.41719-3.3338-1.0406-7.5-1.875-3.7503-0.83281-5.6253-1.6664-5.625-2.5-3.1e-4 -1.25 0.83281-1.8748 2.5-1.875-0.41719 1.6e-4 1.0422 0.41719 4.375 1.25 4.9997 2.0836 7.708 3.1252 8.125 3.125 0.83281 1.6e-4 1.6662 1.6e-4 2.5 0 1.25-0.41719 2.708-0.83281 4.375-1.25l-5-5.625 5 1.875 1.875 1.25v-0.625c0.41563-4.1664-0.625-6.8748-3.125-8.125-2.0838-1.6664-4.3753-3.1247-6.875-4.375l-3.75-0.625c-2.0836-0.41719-3.7503-0.625-5-0.625-0.83437-0.41563-1.4578-0.625-1.875-0.625-2.0836 3.1e-4 -5.417 0.83281-10 2.5-4.167 1.25-7.292 1.8752-9.375 1.875h-1.25c-0.83437 1.6e-4 -1.8753 1.6e-4 -3.125 0-0.83437 1.6e-4 -2.0836-0.20781-3.75-0.625l-6.25-0.625m163.12 33.75 5.625 0.625v-6.25c-4.7e-4 -3.7498-0.625-8.5414-1.875-14.375-0.41719-1.6664-0.83437-3.1248-1.25-4.375-0.41719-1.6664-0.83437-3.1248-1.25-4.375l-5-1.25 3.75 30m-46.875-28.75-5 0.625 1.25 1.875c-3.7505 2.0836-5.6255 3.9586-5.625 5.625v2.5l6.25-3.125 2.5-3.75 1.25-1.25-0.625-2.5m56.25 29.375 1.875 0.625v-5.625c-0.83437-8.7498 1.8745-13.125 8.125-13.125 3.7495 1.6e-4 5.6245 1.8752 5.625 5.625-4.7e-4 2.0836-1.25 4.3752-3.75 6.875 0.41563 0.41719 1.4578 0.625 3.125 0.625 4.5828 1.6e-4 6.8745-2.9164 6.875-8.75-4.7e-4 -6.2498-3.7505-9.3748-11.25-9.375-7.0838 1.6e-4 -10.625 7.7086-10.625 23.125m-90.625-20.625c-1.25 1.6e-4 -1.8753 0.83437-1.875 2.5-3.1e-4 2.0836 1.0406 3.1252 3.125 3.125 1.25 1.6e-4 1.8747-0.83281 1.875-2.5-3.1e-4 -1.25-1.0422-2.2914-3.125-3.125m-15.625 10c2.083 2.0836 3.5412 3.1252 4.375 3.125 3.333 1.6e-4 5.4162-3.1248 6.25-9.375-3.1e-4 -2.0831-1.667-3.1248-5-3.125-4.5838 1.6e-4 -6.4588 2.2919-5.625 6.875v2.5m81.875-2.5h2.5c3.7495 1.6e-4 6.8745 1.6669 9.375 5-1.25-6.6664-3.7505-9.9998-7.5-10-2.9172 1.6e-4 -4.3755 1.4578-4.375 4.375v0.625m-91.25-5-2.5 1.875c-0.41719 0.41719-0.625 1.0422-0.625 1.875-3.1e-4 4.5836 2.2912 6.8752 6.875 6.875 1.6662 1.6e-4 2.4997-2.0831 2.5-6.25-3.1e-4 -2.0831-0.625-3.1248-1.875-3.125l-4.375-1.25m47.5 2.5c-0.83437 3.3336-1.25 5.4169-1.25 6.25-4.7e-4 1.6669 1.25 3.1252 3.75 4.375v2.5c-4.7e-4 2.0836 1.6662 3.1252 5 3.125l-0.625 5c0.41563 0.41719 1.4578 0.625 3.125 0.625h3.125c0.41563 1.6e-4 0.625 0.20781 0.625 0.625-4.7e-4 0.83437-0.20937 1.25-0.625 1.25l-3.75 0.625v2.5l3.125 3.125c-2.917 1.25-4.3755 2.2919-4.375 3.125 0.41563 0.41719 0.625 0.83437 0.625 1.25 0.41563 0.41719 1.0406 1.0422 1.875 1.875v1.875h-0.625c-1.667 1.6e-4 -2.5005 0.41719-2.5 1.25-4.7e-4 1.6669 1.25 3.9584 3.75 6.875h-1.875v2.5c1.6662 1.6669 3.333 2.5002 5 2.5 1.25 1.6e-4 2.708-1.4578 4.375-4.375 1.6662-2.9166 2.708-5.6248 3.125-8.125l1.875-12.5 1.25-5.625-3.75-3.125-8.125-12.5c-2.5005-3.7498-6.042-5.6248-10.625-5.625h-1.25l-1.25 0.625m-13.125 1.25h-0.625c-2.0838 1.6e-4 -3.1253 2.2919-3.125 6.875-3.1e-4 1.25 0.625 1.8752 1.875 1.875 2.083 1.6e-4 3.333-1.4578 3.75-4.375l0.625-1.875c-4.7e-4 -1.25-0.83437-2.0831-2.5-2.5m-10.625 1.875c-2.5003 0.83437-3.7503 2.9169-3.75 6.25-3.1e-4 2.9169 0.625 4.3752 1.875 4.375 3.333 1.6e-4 4.9997-2.2914 5-6.875-3.1e-4 -2.4998-0.83437-3.7498-2.5-3.75h-0.625m148.75 0.625c-1.6672 3.3336-2.5005 6.8752-2.5 10.625v4.375l-3.75 1.25c1.25 7.5002 1.8745 12.5 1.875 15v20l1.875 5 1.875 3.125 1.25 0.625 1.25-4.375 0.625-6.875 1.25-15c0.41563-9.1664-0.83437-20.416-3.75-33.75m5.625 56.25h0.625c1.25 1.6e-4 2.2911-1.6666 3.125-5l0.625-4.375c0.41563-1.25 0.625-2.7081 0.625-4.375-4.7e-4 -1.6666 0.20781-3.1248 0.625-4.375l-0.625-8.125 0.625-5v-9.375l1.875-5 0.625-3.125 3.75-3.75-1.875-1.25-0.625-0.625c-1.6672 1.6e-4 -3.5422 1.25-5.625 3.75-1.6672 2.5002-2.5005 4.5836-2.5 6.25l-0.625 36.875-0.625 7.5m-135-52.5c-5.0005 2.0836-7.5005 5.0002-7.5 8.75-4.7e-4 2.9169 1.25 4.3752 3.75 4.375 3.333 1.6e-4 4.9995-2.9164 5-8.75-4.7e-4 0.41719-0.41719-1.0406-1.25-4.375m-222.5 0-4.375 12.5-4.375 8.75c-0.83281 3.3336-1.25 5.4169-1.25 6.25-1.6e-4 5.0002 2.4998 7.5002 7.5 7.5 2.0831 1.6e-4 3.5416-1.6666 4.375-5-4.5834-0.83281-6.8752-2.9166-6.875-6.25-1.6e-4 -3.3331 0.83281-6.8748 2.5-10.625 1.6666-3.7498 2.4998-6.8748 2.5-9.375v-3.75m173.75 15c0.83281-2.0831 1.4578-3.9581 1.875-5.625 0.41563-2.0831 0.83281-4.1664 1.25-6.25-3.1e-4 -1.25-0.83437-1.8748-2.5-1.875-1.667 1.6e-4 -2.5003 0.625-2.5 1.875l-1.25 3.125h-1.25l-0.625 6.25c-3.1e-4 1.6669 1.6662 2.5002 5 2.5m143.12 9.375c0.41563-9.9998 3.3328-15 8.75-15-4.7e-4 1.6e-4 1.25 0.41719 3.75 1.25 4.9995 3.3336 7.9161 6.0419 8.75 8.125l3.75 15.625 3.75 6.875-0.625-8.125c-2.0839-20.833-8.5422-31.25-19.375-31.25-8.7505 1.6e-4 -13.125 4.3752-13.125 13.125-4.7e-4 3.3336 1.4578 6.4586 4.375 9.375m-295-13.75 9.375-3.125c-1.6e-4 -3.3331-1.8752-4.9998-5.625-5-2.9169 1.6e-4 -6.0419 1.0422-9.375 3.125-4.5836 3.3336-6.8752 6.2502-6.875 8.75 0.83281 1.25 1.4578 1.6669 1.875 1.25h1.875l8.75-5m78.125-6.875c0.83281 7.0836 3.5414 10.625 8.125 10.625-3.1e-4 1.6e-4 2.083-0.41719 6.25-1.25l-0.625-2.5 3.125-0.625c-3.3336-4.9998-7.292-7.4998-11.875-7.5-1.6669 1.6e-4 -2.7086 0.20937-3.125 0.625l-1.875 0.625m78.75 9.375c0.41563 0.41719 1.4578 0.625 3.125 0.625 3.333 1.6e-4 4.9997-2.4998 5-7.5-3.1e-4 -2.0831-1.0422-3.1248-3.125-3.125-3.7503 1.6e-4 -5.417 2.7086-5 8.125v1.875m14.375-8.125c-1.25 1.6e-4 -2.5003 1.6669-3.75 5-0.41719 0.83437-0.625 2.0836-0.625 3.75-3.1e-4 2.0836 1.0406 3.1252 3.125 3.125 4.1662 1.6e-4 6.2497-2.2914 6.25-6.875-3.1e-4 -3.3331-1.667-4.9998-5-5m16.25 13.75c1.6662-2.9164 2.4997-5.4164 2.5-7.5-3.1e-4 -2.9164-1.0422-4.3748-3.125-4.375-5.0003 1.6e-4 -7.5003 3.3336-7.5 10-3.1e-4 2.0836 1.0406 3.1252 3.125 3.125-3.1e-4 1.6e-4 1.6662-0.41563 5-1.25m-235-1.25c-6.2502 2.0836-10.417 3.1252-12.5 3.125-5.8334 1.6e-4 -9.1667-1.0406-10-3.125v-1.875l0.625-6.875h-1.25c-3.3334 1.6e-4 -5.0002 2.0836-5 6.25-1.6e-4 5.8336 4.1666 8.7502 12.5 8.75 4.9998 1.6e-4 10.208-2.0831 15.625-6.25m170-7.5h-6.25l-1.875 1.25-6.875-0.625-6.25 3.125-4.375 1.25-1.25 2.5-4.375 2.5-2.5 5.625-1.25 9.375c0.83281 7.0834 1.4578 12.083 1.875 15 0.83281 2.5002 1.25 3.1252 1.25 1.875-3.1e-4 2.5002-0.83281 4.5834-2.5 6.25l-8.125 6.875-1.875 4.375c4.1664-1.25 7.4997-1.8748 10-1.875 6.2497 1.6e-4 10.416 3.1252 12.5 9.375l5.625 9.375c6.6664 4.1667 12.916 6.2502 18.75 6.25 10.833 1.6e-4 20.208-6.4583 28.125-19.375 3.333-5.8331 4.9997-10.417 5-13.75-3.1e-4 -1.25-1.25-2.2916-3.75-3.125 2.083-1.25 3.1247-2.2916 3.125-3.125-3.1e-4 -3.3331-1.25-4.9998-3.75-5-1.25 1.6e-4 -2.5003 0.625-3.75 1.875h-1.875l-0.625-1.875c2.083-0.83281 3.5412-1.8748 4.375-3.125l-5.625-1.875-18.125 5-1.25 1.25c-1.667-0.41719-2.5003-1.0422-2.5-1.875-3.1e-4 -2.4998 2.9164-4.3748 8.75-5.625l8.75-1.875h3.75c0.41563-0.41719 0.83281-0.625 1.25-0.625 0.41563-0.41719 0.83281-0.83281 1.25-1.25l-2.5-3.125 4.375-0.625 0.625-4.375h-5l0.625-1.875h0.625c2.083 1.6e-4 3.333-0.83281 3.75-2.5l-1.25-1.875h-5.625v-1.25c2.4997-0.41719 3.7497-1.0406 3.75-1.875-3.1e-4 -1.25-0.20937-2.0831-0.625-2.5-1.25 0.41719-2.292 0.83437-3.125 1.25-0.41719 1.6e-4 -0.625 1.6e-4 -0.625 0-0.83437 1.6e-4 -1.8753-0.625-3.125-1.875l3.125-1.875c-1.667-0.83281-3.1253-1.6664-4.375-2.5-1.25-0.83281-2.7086-1.6664-4.375-2.5l-11.875-0.625m81.875 1.25c-0.83437 0.83437-1.4594 2.0836-1.875 3.75v1.875c-4.7e-4 2.9169 1.25 4.3752 3.75 4.375 2.4995 1.6e-4 3.7495-1.25 3.75-3.75-4.7e-4 -4.1664-1.8755-6.2498-5.625-6.25m33.75 11.875c7.0828-4.5831 15.625-6.8748 25.625-6.875 8.3328 1.6e-4 16.041 2.5002 23.125 7.5v-0.625c0.83281-7.0831-8.3338-10.625-27.5-10.625-14.167 1.6e-4 -21.25 3.5419-21.25 10.625m-233.12-10.625c-11.667 2.9169-18.125 9.7919-19.375 20.625-0.41719 0.83281-0.625 3.5419-0.625 8.125-1.25 20.417-7.0834 30.625-17.5 30.625-6.2502 1.6e-4 -9.3752-2.7081-9.375-8.125-1.6e-4 -2.4998 0.625-4.3748 1.875-5.625l11.25-9.375c0.83281-0.83281 1.25-1.6666 1.25-2.5-1.6e-4 -5.4166-2.7084-8.1248-8.125-8.125-5.4169 1.6e-4 -8.1252 1.4578-8.125 4.375l1.25 2.5c2.9166-2.4998 5.6248-3.7498 8.125-3.75 2.4998 1.6e-4 3.7498 1.4578 3.75 4.375-1.6e-4 2.5002-1.6669 4.3752-5 5.625-9.1669 3.7502-13.75 8.5419-13.75 14.375-1.6e-4 10.833 7.2916 16.667 21.875 17.5 0.41719-3.7498 3.7498-7.2916 10-10.625 1.6664-1.25 3.1248-2.9166 4.375-5 1.25-2.4998 2.0831-3.7498 2.5-3.75 1.25 1.6e-4 2.2914 0.41719 3.125 1.25l3.75 2.5c4.1664-7.9166 6.2498-13.542 6.25-16.875-1.6e-4 -1.6666-1.8752-7.4998-5.625-17.5-0.83281-3.3331-1.25-4.9998-1.25-5-1.6e-4 -2.0831 0.83281-3.1248 2.5-3.125 1.25 1.6e-4 2.0831 0.83437 2.5 2.5l1.25 6.875 1.25 1.875 2.5 5.625c3.3331 3.3334 5.8331 5.0002 7.5 5 4.1664 1.6e-4 6.2498-1.4578 6.25-4.375l-5-6.25-0.625-18.75c-1.6e-4 -2.4998-2.9169-4.1664-8.75-5m190 3.125c-2.0838 1.6e-4 -3.1255 1.6669-3.125 5-4.7e-4 4.5836 1.0406 6.8752 3.125 6.875 3.333 1.6e-4 4.9995-2.2914 5-6.875-4.7e-4 -3.3331-1.667-4.9998-5-5m-41.25 3.125c-0.41719 0.41719-0.625 1.8752-0.625 4.375-3.1e-4 2.5002 1.25 3.7502 3.75 3.75 4.583 1.6e-4 6.8747-1.6664 6.875-5-3.1e-4 -2.9164-0.83437-4.3748-2.5-4.375l-1.875-0.625-5.625 1.875m100.62 8.75c2.4995-1.25 4.3745-1.8748 5.625-1.875 9.5828 1.6e-4 14.375 1.25 14.375 3.75-4.7e-4 1.6669-1.25 2.7084-3.75 3.125l1.25 4.375 9.375-3.125c3.3328-0.83281 4.9995-2.7081 5-5.625-4.7e-4 -2.9164-3.9588-5.8331-11.875-8.75l-4.375-0.625c-1.25-0.41719-3.3338-0.625-6.25-0.625h-4.375c-14.167 1.6e-4 -21.25 3.1252-21.25 9.375-4.7e-4 5.8334 4.583 8.9584 13.75 9.375 2.0828 1.6e-4 3.1245-1.4578 3.125-4.375-4.7e-4 -2.4998-0.20937-4.1666-0.625-5m-87.5-6.25-0.625 3.75c-3.1e-4 3.3334 1.0406 5.0002 3.125 5 3.7497 1.6e-4 5.6247-1.6666 5.625-5-3.1e-4 -1.25-0.20937-2.0831-0.625-2.5l-2.5-2.5c-0.83437-0.83281-1.4594-1.0406-1.875-0.625l-1.875 0.625-1.25 1.25m10.625 10c0.41563 1.6669 1.6662 2.5002 3.75 2.5 4.583 1.6e-4 6.8747-2.4998 6.875-7.5-3.1e-4 -2.9164-1.4594-4.3748-4.375-4.375-4.167 1.6e-4 -6.2503 3.1252-6.25 9.375m26.875-5.625c-2.5005 1.6e-4 -3.7505 1.6669-3.75 5-4.7e-4 2.5002 0.41563 3.7502 1.25 3.75 4.1662 1.6e-4 6.2495-2.0831 6.25-6.25-4.7e-4 -1.6664-1.25-2.4998-3.75-2.5m-298.75 6.875c-1.25-2.9166-4.3752-4.3748-9.375-4.375-5.0002 1.6e-4 -7.5002 2.5002-7.5 7.5-1.6e-4 2.9169 1.0422 4.3752 3.125 4.375l3.75 0.625-2.5-3.75v-1.875c-1.6e-4 -2.4998 1.8748-3.7498 5.625-3.75 0.83281 1.6e-4 1.6666 0.20781 2.5 0.625 1.25 1.6e-4 2.7083 0.20781 4.375 0.625m355-2.5-6.875 23.125-11.875 23.125-5.625 7.5-8.75 11.25-6.875 6.25-4.375 3.125-4.375 3.75c-0.83437 0.83281-2.5005 2.0834-5 3.75-2.0838 1.25-4.792 2.9167-8.125 5-0.83437 0.41719-1.667 0.83281-2.5 1.25-0.83437 0.41719-1.8755 1.0422-3.125 1.875l1.25 1.875c-4.7e-4 2.0834 0.625 3.1252 1.875 3.125 0.83281 1.6e-4 1.4578-0.20781 1.875-0.625l13.75-8.75c10.416-6.2498 20.416-16.042 30-29.375 10.833-16.25 16.875-26.458 18.125-30.625l1.875-8.75 3.75-11.25 0.625-5.625h-5.625m-104.38 0.625c-2.5003 2.5002-3.7503 4.7919-3.75 6.875-3.1e-4 4.1669 1.25 6.2502 3.75 6.25 3.7497 1.6e-4 5.6247-2.9166 5.625-8.75-3.1e-4 -2.9166-1.8753-4.3748-5.625-4.375m145 0.625v5h-9.375c-10.834 0.83281-16.25 4.5834-16.25 11.25-4.7e-4 2.9169 0.625 5.8334 1.875 8.75l4.375 3.125 3.75 0.625-3.125-9.375c-4.7e-4 -3.7498 2.7078-5.6248 8.125-5.625 4.1662 1.6e-4 7.2911 2.5002 9.375 7.5 2.0828 5.0002 3.1245 9.1669 3.125 12.5-4.7e-4 2.9169-0.20937 4.5834-0.625 5l-9.375 24.375c-2.0838 6.2502-3.1255 11.458-3.125 15.625-4.7e-4 3.7502 1.4578 7.0834 4.375 10 5.8328 3.3334 9.7911 5.0002 11.875 5 11.25 1.6e-4 16.875-4.3748 16.875-13.125-4.7e-4 -2.0833-1.8755-3.1248-5.625-3.125l-2.5 0.625c-0.41719 0.41719-1.4594 0.625-3.125 0.625-2.0839 1.6e-4 -3.7505 0.20781-5 0.625-0.41719-0.83281-0.625-2.4998-0.625-5-4.7e-4 -2.0833 0.625-4.3748 1.875-6.875l5-8.125 10.625-18.75v-5l2.5-7.5-8.125-8.75c-4.1672-10.833-9.7922-17.292-16.875-19.375m-115.62 10c1.6662 1.25 2.9162 1.8752 3.75 1.875 3.7495 1.6e-4 5.6245-3.1248 5.625-9.375-4.7e-4 -1.6666-0.83437-2.4998-2.5-2.5-4.167 1.6e-4 -6.4588 3.3334-6.875 10m-233.12-9.375-11.25 5-27.5 1.875c-5.4167 0.41719-10.417 3.3334-15 8.75-4.5834 5.4169-6.8752 11.25-6.875 17.5-1.6e-4 9.1669 2.2916 15.417 6.875 18.75l6.875 5 5 4.375c0.41719 2.5002 1.25 3.7502 2.5 3.75 0.41719-0.41719 0.83281-0.625 1.25-0.625 0.41719 1.6e-4 0.83281-0.20781 1.25-0.625l1.25-6.875 13.125-5.625c4.5831-2.0833 6.8748-6.4581 6.875-13.125-1.6e-4 -8.3331-3.7502-12.5-11.25-12.5-4.1667 1.6e-4 -6.4584 2.5002-6.875 7.5 1.6666-2.4998 3.3333-3.7498 5-3.75 5.4166 1.6e-4 8.1248 3.1252 8.125 9.375-1.6e-4 7.0834-5.0002 10.625-15 10.625-13.333 1.6e-4 -20-6.0416-20-18.125-1.6e-4 -4.9998 2.2916-9.7916 6.875-14.375 4.5833-4.5831 9.3748-6.8748 14.375-6.875l25-3.125c0.83281 1.6e-4 4.3748-1.8748 10.625-5.625l-1.25-1.25m215 0-1.875 4.375 4.375-1.875-2.5-2.5m7.5 6.875c1.25 2.0834 2.2912 3.1252 3.125 3.125 2.083 1.6e-4 3.1247-0.83281 3.125-2.5-0.41719-0.83281-0.83437-1.4578-1.25-1.875-3.1e-4 -0.41719-3.1e-4 -0.625 0-0.625l-4.375-2.5-0.625 4.375m25 0c-4.7e-4 5.4169 1.4578 8.1252 4.375 8.125 2.4995 1.6e-4 3.7495-2.0831 3.75-6.25-4.7e-4 -2.0831-0.83437-3.1248-2.5-3.125h-1.25l-4.375 1.25m-31.25 2.5c-5.0003 1.6e-4 -7.5003 1.8752-7.5 5.625-3.1e-4 3.7502 1.8747 5.6252 5.625 5.625 4.583 1.6e-4 6.8747-2.7081 6.875-8.125-3.1e-4 -2.0831-1.667-3.1248-5-3.125m20 8.75 1.25 0.625v1.25c-3.1e-4 2.9169 0.625 4.3752 1.875 4.375 4.583 1.6e-4 6.8745-3.3331 6.875-10-4.7e-4 -2.0831-1.0422-3.1248-3.125-3.125-2.0838 1.6e-4 -4.3753 2.2919-6.875 6.875m35-4.375v1.875c-4.7e-4 1.6669 1.4578 2.5002 4.375 2.5 1.6662 1.6e-4 4.9995-1.0422 10-3.125-4.167-2.9166-7.292-4.3748-9.375-4.375-0.83437 1.6e-4 -1.667 0.41719-2.5 1.25l-2.5 1.875m-46.875 4.375 1.875 2.5c1.6662 1.25 2.9162 1.8752 3.75 1.875l2.5-0.625v-1.875c-3.1e-4 -4.5831-0.83437-7.0831-2.5-7.5l-4.375-0.625-1.25 6.25m33.75-1.25 1.25 3.75-3.75 2.5 1.875 3.75h-4.375l-1.875 3.75 8.125 4.375c0.41563 0.41719 0.625 0.83281 0.625 1.25-4.7e-4 0.83281-0.41719 1.25-1.25 1.25-0.83437 1.6e-4 -2.292-0.83281-4.375-2.5-2.0838-2.0831-3.7505-3.1248-5-3.125-1.25 1.6e-4 -1.8755 0.83281-1.875 2.5v2.5l-5-1.25c0.41563 2.0834 0.625 3.7502 0.625 5 0.41563 1.25 0.625 2.0834 0.625 2.5l-0.625 9.375 0.625 1.25c0.83281 2.0834 2.9162 3.1252 6.25 3.125 1.6662 1.6e-4 2.708-0.20781 3.125-0.625l8.75-9.375 8.75-0.625c-2.0838-3.3331-3.1255-5.8331-3.125-7.5-4.7e-4 3.3334 0.625-0.625 1.875-11.875v-3.125c0.83281-5.8331-1.4594-8.7498-6.875-8.75-0.41719 0.41719-0.83437 0.625-1.25 0.625-0.41719 1.6e-4 -0.83437 0.20781-1.25 0.625l-1.875 0.625m-9.375 6.875 1.25-0.625c2.083-0.83281 3.1245-1.8748 3.125-3.125-4.7e-4 -1.25-1.0422-1.8748-3.125-1.875-1.667 1.6e-4 -2.0838 1.0422-1.25 3.125v2.5m-194.38-3.125-0.625 4.375 10.625 15.625c0.41563 0.41719 1.0406 0.625 1.875 0.625 0.83281 1.6e-4 1.25-0.625 1.25-1.875-1.6e-4 -2.0831-2.5002-5.6248-7.5-10.625-2.0836-1.25-3.9586-3.9581-5.625-8.125m216.88 4.375h2.5c-0.41719 1.6669-0.83437 2.9169-1.25 3.75-4.7e-4 0.83281-4.7e-4 1.25 0 1.25-4.7e-4 -0.41719 0.41563 1.0422 1.25 4.375h1.875c1.25-3.7498 2.9162-5.6248 5-5.625 1.25 1.6e-4 2.4995 1.4578 3.75 4.375-1.667 12.5-8.7505 23.958-21.25 34.375l-8.125 6.25-3.75 3.75c7.083-2.4998 14.791-8.5416 23.125-18.125 9.9995-11.25 15-20.417 15-27.5-4.7e-4 -6.6666-2.917-9.9998-8.75-10l-9.375 3.125m-56.25 1.875 11.25 1.25v-2.5c0.41563-2.9166-0.83437-4.3748-3.75-4.375l-0.625 0.625h-0.625l-6.25 5m156.25 18.75-2.5 5.625-5 7.5v7.5l10.625 1.25 0.625-5.625c1.6661-11.25 4.3745-19.792 8.125-25.625 5.8328-2.0831 8.7495-4.5831 8.75-7.5-4.7e-4 -2.4998-2.5005-3.7498-7.5-3.75-5.0005 1.6e-4 -7.7089 1.4578-8.125 4.375l-1.25 9.375-3.75 6.875m-126.25-20.625c-1.667 1.25-2.5005 2.2919-2.5 3.125-4.7e-4 0.83281 0.625 1.25 1.875 1.25 1.25 1.6e-4 1.8745-0.41719 1.875-1.25-4.7e-4 0.41719-0.41719-0.625-1.25-3.125m-10.625 1.25c-2.5003 0.83281-3.7503 1.8752-3.75 3.125-3.1e-4 2.5002 1.25 3.7502 3.75 3.75 2.9162 1.6e-4 4.3747-1.4578 4.375-4.375-3.1e-4 -1.6666-1.25-2.4998-3.75-2.5h-0.625m65 19.375-13.75 18.125-5 5c-9.5838 9.5834-15.625 15-18.125 16.25-5.0005 2.0834-7.917 3.7502-8.75 5-0.41719 1.25-0.83437 1.8752-1.25 1.875l-1.875 0.625 1.25 1.25v0.625c2.083 1.6e-4 4.9995-1.6666 8.75-5 4.1662-3.7498 11.25-9.3748 21.25-16.875 0.83281 1.6e-4 3.333-2.7083 7.5-8.125l5.625-6.25c3.7495-3.7498 6.6662-8.1248 8.75-13.125 3.7495-8.3331 7.9162-12.5 12.5-12.5 2.4995 1.6e-4 3.7495 1.4578 3.75 4.375-4.7e-4 1.6669-0.20937 2.9169-0.625 3.75h4.375c1.6662-1.6666 2.4995-3.7498 2.5-6.25-4.7e-4 -4.5831-2.9172-6.8748-8.75-6.875-5.0005 1.6e-4 -11.042 6.0419-18.125 18.125m-247.5-17.5c-0.41719 0.83281-0.625 2.5002-0.625 5-1.6e-4 1.6669 1.25 3.7502 3.75 6.25 1.6664 3.7502 5.2081 8.9584 10.625 15.625h1.25v-8.75l-5-4.375-5.625-8.75-4.375-5m163.75 2.5 0.625 5-2.5-0.625c-3.1e-4 -2.4998-0.625-3.7498-1.875-3.75-0.83437 1.6e-4 -1.667 0.41719-2.5 1.25l-3.75 10-6.25 8.125-13.75 13.75-0.625 3.75c-3.1e-4 5.4167 4.7912 8.1252 14.375 8.125h3.125l2.5 6.25 5-5.625 13.125-5.625c11.25-4.9998 16.875-13.333 16.875-25-4.7e-4 -0.83281-0.20937-1.6666-0.625-2.5-4.7e-4 -1.25-0.20937-2.7081-0.625-4.375l-1.875-1.875v4.375l-2.5-1.25c-0.41719-2.4998-1.667-4.1666-3.75-5-2.0838 8.7502-3.542 13.125-4.375 13.125-1.25 1.6e-4 -1.8753-0.41719-1.875-1.25v-0.625l3.125-5.625c0.41563-0.41719 0.625-1.4578 0.625-3.125-3.1e-4 -1.6666-1.0422-2.9166-3.125-3.75l-1.875-1.25-3.125 5.625c0.41563-0.83281 0.625-2.4998 0.625-5-3.1e-4 -1.25-1.667-2.2916-5-3.125m-176.88 7.5 4.375 16.875 2.5 8.75 3.125 18.125v6.875c-1.6e-4 2.5002-0.83437 5.8334-2.5 10-1.25 3.75-1.8752 6.6667-1.875 8.75-1.6e-4 0.41719 0.41719 0.625 1.25 0.625 3.7498 0 6.0414-4.1666 6.875-12.5l1.25-15c-1.6e-4 -4.9998-1.25-11.042-3.75-18.125-2.5002-7.4998-3.7502-12.5-3.75-15-0.83281-4.1666-3.3336-7.2916-7.5-9.375m-3.125 4.375 1.25 7.5 1.875 8.125c0.41719 2.0834 0.625 3.9584 0.625 5.625 0.41719 1.6667 0.625 2.9167 0.625 3.75-1.6e-4 10-3.9586 15.208-11.875 15.625 0.41719 2.9167 1.6666 4.3752 3.75 4.375 7.4998 1.6e-4 11.25-5.4166 11.25-16.25-1.6e-4 -10.417-1.6669-18.542-5-24.375l-2.5-5v0.625m-5 3.75c1.25 3.7502 1.8748 7.0834 1.875 10-1.6e-4 2.0834-2.2919 3.5417-6.875 4.375-1.6e-4 2.5002 1.0422 3.7502 3.125 3.75 1.6666 1.6e-4 3.7498-1.4578 6.25-4.375l-0.625-9.375-3.125-4.375h-0.625m264.38 16.25-11.875 11.875c0.41563 0.41719 0.83281 0.625 1.25 0.625 0.41563 1.6e-4 0.83281 0.20781 1.25 0.625 1.25 1.6e-4 2.4995-1.25 3.75-3.75 1.6662-4.1666 4.5828-6.2498 8.75-6.25l10-5.625c0.83281-0.83281 2.4995-1.25 5-1.25 3.3328 1.6e-4 6.6662 1.8752 10 5.625 1.25 2.5002 1.8745 4.5834 1.875 6.25-4.7e-4 4.5834-3.1255 7.7084-9.375 9.375-0.41719 0.41719-1.6672 0.625-3.75 0.625-4.1672 1.6e-4 -6.8755-0.20781-8.125-0.625 4.1662 4.1667 7.9162 6.2502 11.25 6.25 4.9995 1.6e-4 9.3745-1.8748 13.125-5.625 4.1662-3.7498 6.2495-7.9166 6.25-12.5-4.7e-4 -2.0833-0.83437-4.5833-2.5-7.5 2.4995-0.41719 3.7495-1.8748 3.75-4.375-5.8338-5.8333-10.834-8.7498-15-8.75-8.3338 1.6e-4 -15.834 3.7502-22.5 11.25l-3.125 3.75m-165.62 0.625c2.9164-2.9166 5.6247-4.3748 8.125-4.375 5.4164 1.6e-4 8.1247 2.7084 8.125 8.125-3.1e-4 7.0834-4.792 10.625-14.375 10.625-3.3336 1.6e-4 -7.2919-0.83281-11.875-2.5-3.1e-4 5.8334 4.5831 8.7502 13.75 8.75 4.9997 1.6e-4 9.3747-1.6666 13.125-5 4.1664-3.3333 6.2497-7.2916 6.25-11.875-3.1e-4 -9.1666-5.0003-13.75-15-13.75-5.4169 1.6e-4 -8.1253 2.7084-8.125 8.125v1.875m114.38-4.375-1.25 3.75h-1.25l-1.25-2.5c-2.5003 3.3334-3.7503 6.4584-3.75 9.375-3.1e-4 3.3334 1.8747 6.4584 5.625 9.375l2.5-6.875 3.125-5c0.41563-0.41719 0.625-1.4578 0.625-3.125-4.7e-4 -2.0833-1.4594-3.7498-4.375-5m-64.375 7.5-7.5 3.75-0.625-2.5 4.375-1.875c-0.83437-0.83281-1.8753-1.25-3.125-1.25-3.7503 1.6e-4 -6.8753 1.6667-9.375 5-1.25 2.0834-1.8753 3.7502-1.875 5-3.1e-4 2.0834 0.625 3.1252 1.875 3.125h1.875l7.5-3.75 6.25-1.875 0.625-5.625m-241.25 10c0.41719-4.1666 2.2916-6.2498 5.625-6.25 4.9998 1.6e-4 7.4998 2.9167 7.5 8.75-1.6e-4 1.25-0.20781 2.0834-0.625 2.5-1.6667 5.4167-2.5002 10.833-2.5 16.25v5c-1.6e-4 2.5 0.20781 4.375 0.625 5.625 0.41719-4.5833 1.0422-9.1666 1.875-13.75 1.25-4.5833 2.7083-9.1666 4.375-13.75 0.83281-3.3333 1.25-4.9998 1.25-5-1.6e-4 -7.0833-3.9584-10.625-11.875-10.625-5.0002 1.6e-4 -7.5002 1.8752-7.5 5.625-1.6e-4 0.41719 0.41719 2.2917 1.25 5.625m52.5-9.375c2.9166 2.0834 5.4166 3.3334 7.5 3.75 6.6666 2.9167 9.9998 5.6252 10 8.125-1.6e-4 1.6667-0.41719 2.5002-1.25 2.5-1.25-0.41719-3.7502-2.2916-7.5-5.625-3.7502-3.7498-9.3752-5.8333-16.875-6.25h-1.875c-10.833-0.83281-18.125 3.7502-21.875 13.75 5.4166-2.9166 10.417-4.3748 15-4.375 4.9998 1.6e-4 9.5831 2.0834 13.75 6.25v3.125l1.875 1.25v5.625l-1.25 1.25-0.625 3.75-3.75 1.875v0.625c-1.6e-4 4.1667 2.2916 6.25 6.875 6.25l7.5 0.625v12.5l8.75 6.25v-6.875c-1.6e-4 -1.6666 0.41719-2.9166 1.25-3.75l11.25-11.875c3.3331-3.3333 4.9998-7.4998 5-12.5v-2.5l-3.75-9.375 3.125-6.25 0.625-5-21.25-0.625c-4.1669-2.0833-7.2919-2.9166-9.375-2.5h-3.125m368.12 6.25c10.416 2.0834 17.708 5.2084 21.875 9.375l1.875 5c-4.1672 1.6e-4 -7.2922 1.25-9.375 3.75-1.6672 2.5002-2.7089 3.7502-3.125 3.75-4.7e-4 1.6e-4 -1.25-0.41719-3.75-1.25 1.25 5.0002 3.1245 7.5 5.625 7.5 2.0828 0 4.9995-1.875 8.75-5.625l3.75 0.625v1.875c-0.83437 3.75 1.4578 6.6667 6.875 8.75l-0.625-8.125 0.625-5.625-2.5-4.375-2.5-1.25c-2.0839-8.3333-5.0005-13.125-8.75-14.375l-8.125-2.5h-8.75l-1.875 2.5m-174.38 3.125-3.125 3.75c-6.667 8.3334-18.542 12.917-35.625 13.75l-10.625-2.5c-1.6669-0.41719-3.1253-0.83281-4.375-1.25-1.25-0.41719-2.7086-1.0422-4.375-1.875l-6.25-3.125c1.6664 10.417 4.9997 16.667 10 18.75 2.9164 0.83281 6.458 1.6667 10.625 2.5 4.1664 0.83281 9.1664 2.0834 15 3.75 5.4164 0.83281 9.3747 1.6667 11.875 2.5 2.9164 0.41719 4.7914 0.625 5.625 0.625l48.125-0.625c12.5 0 21.25 1.4578 26.25 4.375 5.4162 2.9167 8.1245 7.7084 8.125 14.375v1.25l1.25 0.625c4.1662-5.4166 6.2495-9.5833 6.25-12.5-4.7e-4 0.41719-0.41719-1.4578-1.25-5.625l5.625-0.625c-2.0838-11.25-10.209-16.875-24.375-16.875-2.917 1.6e-4 -5.8338 0.83281-8.75 2.5h-1.25c-1.25 0.41719-2.0838-0.20781-2.5-1.875 2.083-1.25 3.958-3.3333 5.625-6.25-3.3338-1.6666-6.8753-2.4998-10.625-2.5-5.417 1.6e-4 -10.209 1.4578-14.375 4.375l-4.375 0.625-4.375 3.75c-4.167 2.9167-10.625 4.7917-19.375 5.625h-5l-1.25-2.5c7.083 0 11.666-3.1248 13.75-9.375h-3.75l-1.25-2.5c2.083-3.3333 3.1247-5.8333 3.125-7.5-3.1e-4 -1.25-1.4594-3.1248-4.375-5.625m73.125 18.75c0.41563 0.41719 1.25 0.625 2.5 0.625 0.41563 1.6e-4 2.083-1.25 5-3.75 2.9162-2.9166 4.7912-4.5833 5.625-5 7.083-3.3333 10.625-5.8333 10.625-7.5-4.7e-4 -1.6666-0.625-2.4998-1.875-2.5-0.41719 1.6e-4 -1.25 0.83281-2.5 2.5-1.667 2.0834-4.167 4.5834-7.5 7.5-2.917 2.5002-6.8755 5.2084-11.875 8.125m-58.125 0.625c9.1662-5.4166 17.916-8.1248 26.25-8.125h2.5c1.6662 1.6e-4 3.1247 0.20781 4.375 0.625-2.5003-3.3333-5.417-4.9998-8.75-5-6.2503 1.6e-4 -11.042 1.0422-14.375 3.125l-6.25 5c-1.25 0.83281-2.292 1.4578-3.125 1.875l-0.625 0.625v1.875m-235-11.25-0.625-0.625-1.25 0.625c-6.6667 6.6667-10 13.542-10 20.625-1.6e-4 12.083 4.3748 22.708 13.125 31.875 9.1666 8.75 20 13.125 32.5 13.125 2.9166 0 9.3748-1.6666 19.375-5 6.2498-1.6666 9.3748-3.5416 9.375-5.625-1.6e-4 -1.6666-0.83281-2.2916-2.5-1.875h-3.125l-17.5 5.625c-1.25 0.41719-3.3334 0.625-6.25 0.625-10.833 0-20.208-3.5416-28.125-10.625-7.9167-7.5-11.875-16.042-11.875-25.625-1.6e-4 -7.0833 2.2916-14.792 6.875-23.125m371.25 3.125c-1.25 2.5002-1.8755 4.5834-1.875 6.25-4.7e-4 1.25 1.0406 2.9167 3.125 5-4.7e-4 -2.4998 1.0406-4.1666 3.125-5v4.375c-0.83437 3.3334 2.4995 5.4167 10 6.25l0.625-2.5h1.875l-0.625 3.125c3.7495-1.25 5.6245-2.9166 5.625-5-4.7e-4 -2.0833-1.8755-3.1248-5.625-3.125h-0.625c-5.8339-1.6666-11.042-4.7916-15.625-9.375m-58.75 1.875-1.25 1.875h1.875c4.1662-0.41719 7.083 1.4578 8.75 5.625 0.41563-0.83281 0.625-2.7083 0.625-5.625-4.7e-4 -2.4998-1.4594-3.7498-4.375-3.75-1.25 1.6e-4 -2.0838 0.20781-2.5 0.625l-3.125 1.25m44.375-1.25c1.25 7.9167 3.3328 11.875 6.25 11.875l3.75-0.625v-2.5l-1.875-1.875 1.25-0.625 0.625-1.875v-0.625c-4.7e-4 -2.9166-3.1255-4.1666-9.375-3.75h-0.625m-48.125 1.875-3.125 4.375 5-2.5-1.875-1.875m30.625 16.25c2.4995 3.3334 3.7495 6.25 3.75 8.75-4.7e-4 7.0834-3.3338 11.875-10 14.375l-16.875 5.625-2.5 3.125c23.333-3.75 35-12.083 35-25-4.7e-4 -10.833-5.6255-16.25-16.875-16.25-7.917 1.6e-4 -11.875 4.5834-11.875 13.75-4.7e-4 6.25 2.4995 9.375 7.5 9.375h0.625c-0.41719-0.41719-1.25-3.5416-2.5-9.375v-1.875c-4.7e-4 -3.75 2.0828-5.625 6.25-5.625 1.6662 0 4.1662 1.0422 7.5 3.125m75.625-5.625 0.625 0.625c-2.9172 0.41719-4.3755 1.875-4.375 4.375-4.7e-4 3.75 1.4578 5.8334 4.375 6.25 2.0828 0 3.1245-1.4578 3.125-4.375-4.7e-4 -3.75-1.25-6.0416-3.75-6.875m-49.375 2.5c-2.0838 2.0834-3.1255 3.9584-3.125 5.625-4.7e-4 0.41719-4.7e-4 1.25 0 2.5 0.41563 1.25 0.83281 2.9167 1.25 5l1.875 5.625h6.875c9.1661 0.41719 13.75-1.875 13.75-6.875-4.7e-4 -2.0833-1.6672-4.1666-5-6.25l-3.75-1.25-2.5 3.125v-4.375l-1.875-1.875-7.5-1.25m-360 23.75c7.9166 8.75 17.5 12.708 28.75 11.875h2.5l3.125-0.625 10.625-3.125c-0.83281-0.83281-1.6669-1.25-2.5-1.25-0.83281 0.41719-1.8752 0.83281-3.125 1.25-0.83281 0-2.0834 0.41719-3.75 1.25h-5.625c-18.75 0-28.125-6.0416-28.125-18.125-1.6e-4 -4.5833 2.9166-6.875 8.75-6.875l1.25 0.625c-2.0834-5-4.5834-7.5-7.5-7.5-6.2502 0-9.3752 3.9584-9.375 11.875-1.6e-4 2.5 1.6666 6.0417 5 10.625m395-21.875-8.125 0.625v3.125l-3.125 1.875c0.41563 3.75 1.8745 5.625 4.375 5.625 2.0828 0 3.3328-0.20781 3.75-0.625 4.5828-2.5 6.8745-5 6.875-7.5-0.41719-1.6666-0.83437-2.5-1.25-2.5l-3.75-1.25 1.25 0.625m-40.625 31.875c-6.6672 2.0834-11.459 4.1667-14.375 6.25-2.9172 1.6667-4.7922 2.5-5.625 2.5l-24.375 5 2.5 1.875 10-0.625h4.375l5.625-1.875 12.5-5 30.625-13.75 10-1.875c2.0828-0.41719 3.5411-0.625 4.375-0.625 1.25-0.41719 1.6661-0.625 1.25-0.625 1.6661 0 4.1661 1.0422 7.5 3.125 2.4995 3.3334 3.7495 6.25 3.75 8.75-4.7e-4 4.1667-2.7089 6.25-8.125 6.25-2.5005 0-6.0422-2.2916-10.625-6.875-2.0839-2.0833-3.5422-3.125-4.375-3.125h-1.25l-3.75 0.625h-4.375c-1.6672 0-3.3338 2.0834-5 6.25-1.25 2.0834-1.8755 4.1667-1.875 6.25-4.7e-4 7.0833 3.3328 10.625 10 10.625 2.4995 0 3.9578-1.4578 4.375-4.375-6.2505 0-9.3755-2.5-9.375-7.5-4.7e-4 -4.1666 2.2912-6.25 6.875-6.25l1.875 0.625 13.75 10c1.6661 1.25 3.7495 1.875 6.25 1.875 4.5828 0 7.2911-0.625 8.125-1.875l5-7.5 5-3.125v-5l-2.5-6.25c-2.5005-6.25-8.9589-9.375-19.375-9.375-6.6672 0-17.917 4.1667-33.75 12.5-0.83437 0.83281-2.5005 1.875-5 3.125m0-15.625c-15.417 11.667-27.709 18.125-36.875 19.375-9.167 1.25-13.75 2.9167-13.75 5-4.7e-4 2.5 1.25 3.75 3.75 3.75 2.083 0 3.5412-0.20781 4.375-0.625l7.5-1.25c3.3328-0.83281 6.2495-1.6666 8.75-2.5 2.9162-0.83281 5.4162-1.6666 7.5-2.5l23.75-12.5 5-4.375-3.125 0.625c-2.5005 0-4.7922-1.6666-6.875-5m-153.75 1.875c-3.3336 4.5834-9.3753 6.875-18.125 6.875h-9.375c-9.1669-0.83281-16.667-1.4578-22.5-1.875-5.4169-0.41719-9.1669-0.625-11.25-0.625l-20-0.625-56.875 1.875c-4.5834 0-10.417-1.0422-17.5-3.125 1.25 5 5.8331 7.5 13.75 7.5l12.5 0.625 27.5-2.5 63.75 1.25 15.625 1.875 4.375 0.625c14.583 0.83281 21.875-1.875 21.875-8.125-3.1e-4 -0.41719-1.25-1.6666-3.75-3.75m71.25 15.625 1.25-2.5c-11.667-7.9166-20.417-11.875-26.25-11.875-10.834 0-16.25 5.8334-16.25 17.5-3.1e-4 4.1667 1.4578 7.9167 4.375 11.25 3.333 3.3333 6.8747 5 10.625 5 8.333 0 13.125-2.9167 14.375-8.75l1.25-8.125v-1.875l-1.875-0.625-1.875 6.875-0.625 1.25-3.125 5-1.875 1.875-1.25 0.625-0.625-0.625-1.875-0.625-6.875-0.625c-4.5838-0.83281-6.8753-4.375-6.875-10.625-3.1e-4 -8.3333 4.7912-12.5 14.375-12.5 1.6662 0 7.4997 2.2917 17.5 6.875 0.83281 0.41719 1.6662 0.83281 2.5 1.25 0.83281 0.41719 1.8745 0.83281 3.125 1.25m-5-11.25 2.5 1.875 5.625 1.875c1.25 0.41719 2.2912 2.0834 3.125 5 0.83281 2.5 1.25 4.375 1.25 5.625-4.7e-4 3.75-3.542 7.2917-10.625 10.625 1.6662 1.25 3.333 1.875 5 1.875 6.2495 0 9.3745-4.1666 9.375-12.5-4.7e-4 -10.417-3.9588-15.625-11.875-15.625h-1.25l-3.125 1.25m-133.12 9.375c-1.6669 1.6667-3.3336 3.3334-5 5-1.6669 1.25-3.3336 2.9167-5 5 0.41563 1.25 1.0406 2.7084 1.875 4.375-2.9169 2.9167-6.2503 4.375-10 4.375-12.5 0-22.084-5-28.75-15-0.83437-2.5-1.8752-3.75-3.125-3.75-1.25 0-1.8752 0.625-1.875 1.875-1.6e-4 0.41719 0.625 1.4578 1.875 3.125l3.75 5.625 3.125 1.875 8.125 5.625 10.625 2.5c4.1664 0.83281 6.4581 1.25 6.875 1.25 1.25 0 2.9164-0.41719 5-1.25 2.0831-0.83281 3.3331-1.25 3.75-1.25-0.41719 0 0.625 0.41719 3.125 1.25l3.75 1.875 10.625-1.875h10v-1.875l-1.25-1.25-3.75-1.875-11.25-3.75 1.25-6.875-3.75-5m-65.625 12.5c-0.41719 5.4167-2.0836 8.125-5 8.125-4.5834 0-6.8752-2.5-6.875-7.5-1.6e-4 -1.25 0.20781-1.875 0.625-1.875l8.125-9.375-1.25-1.25-5 4.375-3.75 5c-1.25 1.25-1.8752 2.9167-1.875 5-1.6e-4 6.25 3.1248 9.375 9.375 9.375 5.4164 0 8.1248-2.9167 8.125-8.75-1.6e-4 -1.6666-0.83281-2.7083-2.5-3.125m-97.5 3.125c1.6666-6.6666 5.4166-10 11.25-10 0.41719 0 2.7083 0.41719 6.875 1.25l15 5 6.875 0.625-5-3.125-5.625-1.25-11.875-5.625c-2.5002-1.25-5.2084-1.875-8.125-1.875-7.0834 0-10.625 2.5-10.625 7.5-1.6e-4 0.41719-1.6e-4 1.25 0 2.5 0.41719 1.25 0.83281 2.9167 1.25 5m143.12-14.375c0.83281 3.3334 1.25 4.7917 1.25 4.375-3.1e-4 3.3334-2.7086 5.625-8.125 6.875 3.3331 0.83281 4.9998 1.25 5 1.25 4.1664 0 6.2497-3.3333 6.25-10-3.1e-4 -1.25-1.4578-2.0833-4.375-2.5m55.625 0-0.625 0.625v0.625c-3.1e-4 2.0834 0.625 3.125 1.875 3.125 2.083 0 3.1247-0.83281 3.125-2.5l-0.625-0.625c-3.1e-4 -0.41719-0.20937-0.83281-0.625-1.25h-3.125m14.375 2.5c-0.83281-0.83281-1.667-1.25-2.5-1.25l-0.625-0.625c-1.667 0-2.5003 1.0422-2.5 3.125-3.1e-4 2.0834 1.0422 3.125 3.125 3.125 1.25 0 2.083-1.4578 2.5-4.375m-41.25 2.5v2.5l6.25-2.5c0.41719-0.41719 1.8747-0.625 4.375-0.625 2.0831 0 6.0414 0.625 11.875 1.875-0.83437-3.75-4.7919-5.625-11.875-5.625l-3.125 0.625-7.5 3.75m51.875 9.375-1.25 1.875 5 1.25 1.875-1.25h3.125l9.375-9.375c1.25-1.25 3.333-1.875 6.25-1.875 2.9162 0 4.3747 1.4578 4.375 4.375-3.1e-4 0.41719-0.41719 2.2917-1.25 5.625l1.875 0.625c2.083 0 3.1247-2.2917 3.125-6.875-3.1e-4 -4.5833-3.1253-6.875-9.375-6.875-3.3336 0-7.0836 2.5-11.25 7.5-3.3336 3.3334-6.2503 5-8.75 5h-3.125m-9.375-5c-1.667 0-2.5003 0.83281-2.5 2.5-3.1e-4 1.6667 1.0406 2.5 3.125 2.5 2.083 0 3.1247-1.0422 3.125-3.125-3.1e-4 -1.25-1.0422-1.875-3.125-1.875h-0.625m-25 0.625h-0.625c-0.41719 0.41719-0.625 1.0422-0.625 1.875-0.41719 1.6667 0.41563 2.5 2.5 2.5 1.6664 0 2.4997-0.625 2.5-1.875-3.1e-4 -1.6666-1.25-2.5-3.75-2.5m18.75 6.25c-1.667 0-2.5003 0.625-2.5 1.875-3.1e-4 1.6667 1.0406 2.5 3.125 2.5 2.083 0 3.1247-0.83281 3.125-2.5-3.1e-4 -2.0833-1.0422-2.7083-3.125-1.875h-0.625m-10.625 0c-0.41719 0-1.0422 0.41719-1.875 1.25v1.25c-3.1e-4 2.0833 1.0422 3.125 3.125 3.125 1.6664 0 2.4997-0.625 2.5-1.875v-1.25c-0.41719-1.6667-1.667-2.5-3.75-2.5m16.25-134.38c0.41719 1.6e-4 1.8747-0.41719 4.375-1.25 2.9164-1.25 4.3747-1.6666 4.375-1.25-3.1e-4 0.83281-1.25 2.2919-3.75 4.375-2.5003 2.0834-3.9586 3.1252-4.375 3.125-2.0836 1.6e-4 -3.1253-0.83281-3.125-2.5-3.1e-4 -1.6666 0.83281-2.4998 2.5-2.5m-146.88 71.25c3.7498 1.6e-4 5.6248 0.625 5.625 1.875-1.6e-4 3.3334-1.6669 5.0002-5 5-1.6669 1.6e-4 -2.7084-0.83281-3.125-2.5v-0.625c-1.6e-4 -2.4998 0.83281-3.7498 2.5-3.75m307.5-386.88 5.625 1.875c-4.7e-4 2.5005-2.0838 3.7505-6.25 3.75-1.6672 4.7e-4 -2.5005-0.83281-2.5-2.5 0.83281-2.0828 1.4578-3.1245 1.875-3.125h1.25m11.25 1.875-5 1.875c-4.7e-4 1.6672-1.0422 2.9172-3.125 3.75l1.25-0.625-1.875-0.625 1.875-4.375h6.875m5.625 5.625-8.125 1.25 0.625-4.375 7.5 3.125m40 11.875-5.625 3.75 1.875-3.75-0.625 3.125-8.75-0.625 0.625-3.125 12.5 0.625m-36.875 3.125 3.125 5 1.875 4.375 6.25 1.875c-4.7e-4 -0.41563-1.4594 0.625-4.375 3.125-4.7e-4 0.83437-0.83437 1.4594-2.5 1.875l-3.125-10.625-5-5v-0.625l1.25-1.25 2.5 1.25m-349.38 23.75 8.125 5-6.25 4.375-1.875-9.375m30 1.875 6.875 6.875-0.625 4.375-6.25-11.25m3.75 16.25 4.375 4.375-10 4.375 5.625-8.75m325 11.875-4.375 10-0.625-4.375 2.5-6.875 2.5 1.25m3.75 2.5v3.125c-4.7e-4 0.83437 0.625 1.667 1.875 2.5 1.25 0.41719 1.4578 0.83437 0.625 1.25l-2.5-6.875m14.375 8.125 6.25-1.25-5.625-0.625 3.125-0.625-3.75 2.5m3.75 4.375-6.875-0.625 3.125-0.625 3.75 1.25m2.5 7.5 10.625-4.375c-1.6672 1.667-3.3339 3.3338-5 5-1.6672 1.25-3.3339 2.917-5 5-0.41719 4.167-3.1255 6.2503-8.125 6.25 0.41563 3.1e-4 1.6661-1.25 3.75-3.75 2.4995-2.4997 3.7495-5.208 3.75-8.125m-15 2.5 3.125-0.625 6.875-1.25-10 1.875m-9.375 7.5 4.375 7.5c-4.5839 3.1e-4 -6.8755-0.20781-6.875-0.625v-1.25l1.25-9.375 1.25 3.75m-88.125 6.25-0.625 1.25c-6.2505-5.4162-9.3755-8.7497-9.375-10-4.7e-4 -0.41563 0.20781-0.625 0.625-0.625h0.625l8.75 9.375m-85-8.125 4.375 1.25 10 1.25-1.25 1.875v1.875h-3.125l-3.125-1.875-6.25-2.5-0.625-1.875m52.5 7.5c0.83281 2.917-1.4594 6.4588-6.875 10.625l3.125-5.625 0.625-5.625 3.125 0.625m3.125 1.25h5c0.83281 3.3338-0.83437 6.4588-5 9.375v-9.375m8.75 4.375-1.25-1.875c0.41563 0.41719-3.1e-4 1.667-1.25 3.75-1.25 2.0838-1.8753 3.3338-1.875 3.75-3.1e-4 0.41719 1.6662-0.41563 5-2.5 0.41563-0.41563 0.83281-0.625 1.25-0.625l1.875-1.875-3.75-0.625m5.625 3.75c-4.7e-4 -1.6662 1.0406-2.4997 3.125-2.5 3.7495 3.1e-4 5.6245 1.0422 5.625 3.125-4.7e-4 2.0838-3.542 3.1253-10.625 3.125-0.83437 3.1e-4 -1.25-0.41562-1.25-1.25-3.1e-4 1.667 1.0406 0.83438 3.125-2.5m-88.125 0.625 31.875-1.875-5 2.5-5.625 0.625-11.25 1.875-3.125-0.625h-8.125c-2.0836 0.83438-3.1253 0.625-3.125-0.625v-1.25l4.375-0.625m30.625 1.875-2.5 2.5-1.25 3.125 3.75-5.625m-6.25 3.75-1.25 1.25c-0.41719 0.41719-1.0422 1.4594-1.875 3.125-3.1e-4 0.83438-0.41719 1.667-1.25 2.5l-1.875-3.125 1.25-2.5 5-1.25m-11.875 3.125c2.4997 2.0836 3.7497 2.7086 3.75 1.875-3.1e-4 2.0836-0.625 3.1253-1.875 3.125l-1.25-0.625-0.625-4.375m109.38 8.75 3.125 2.5-11.25 1.25 8.125-3.75m-113.75 6.25c-1.667 1.667-3.3336 3.542-5 5.625-1.667 2.0836-3.542 4.167-5.625 6.25-0.83437 3.7503-1.667 5.6253-2.5 5.625-1.25 3.1e-4 -1.8753-0.625-1.875-1.875-3.1e-4 2.917 1.6664 3.1e-4 5-8.75 0.41563-1.6664 1.0406-2.4997 1.875-2.5l8.125-4.375m58.75 25c0.83281 3.1e-4 1.25-0.41719 1.25-1.25-3.1e-4 -0.41719-0.83437-0.83281-2.5-1.25-1.667-0.41562-2.5003-0.41562-2.5 0 0.83281 0.83438 2.083 1.667 3.75 2.5-12.084-6.6664-22.709-11.041-31.875-13.125 13.333 3.3336 20 5.6253 20 6.875l10.625 3.125c-0.83437 0.41719-1.667 0.625-2.5 0.625-2.0838-0.83281-4.167-1.4578-6.25-1.875-1.667-0.83281-2.917-1.6664-3.75-2.5 11.25 3.7503 15.833 6.042 13.75 6.875m5.625 1.875 4.375 0.625-2.5 4.375-1.875-5m98.125 48.75-6.875 3.125-0.625 1.25-3.125 0.625c-0.41719 1.6669-1.0422 2.5003-1.875 2.5h-1.25c0.41563-0.41719 1.6662-1.25 3.75-2.5 2.4995-1.25 5.8328-2.9164 10-5m53.75 17.5c0.41563-0.83281 1.0406-0.625 1.875 0.625 0.83281 0.83438 1.25 1.8752 1.25 3.125-4.7e-4 2.0836-1.6672 3.1252-5 3.125-0.41719 1.6e-4 -1.25-0.625-2.5-1.875l1.875-3.125 1.25-1.875h1.25m-23.75 7.5v3.125c-2.5005-2.4998-3.7505-4.5831-3.75-6.25-4.7e-4 -1.6664 0.625-2.4998 1.875-2.5l1.875 5.625m-178.12-3.125-5 1.875-2.5 1.875 7.5-3.75m-20 18.75c-4.167 2.5002-7.292 4.1669-9.375 5-3.1e-4 -0.83281 1.8747-2.7081 5.625-5.625 4.1664-2.9164 6.6664-4.3748 7.5-4.375h0.625c-0.41719 0.83438-0.83437 1.6669-1.25 2.5-0.41719 0.41719-0.83281 1.0422-1.25 1.875v1.25h-3.75c-3.1e-4 -1.6664-0.625-2.2914-1.875-1.875-0.83281 0.83438 0.41719 1.25 3.75 1.25m-8.75 23.75-1.875-2.5 6.25-4.375c1.25-1.25 2.4997-1.8748 3.75-1.875 5.833 1.6e-4 8.7497-0.20781 8.75-0.625-3.1e-4 1.6669-3.9586 3.3336-11.875 5-1.667 0.41719-3.3336 1.8752-5 4.375m-99.375-3.75c2.4998-1.25 6.4581-1.4578 11.875-0.625-0.83437-0.41562-2.9169 1.6e-4 -6.25 1.25-2.9169 0.83281-4.3752 1.25-4.375 1.25h-1.25l-0.625 0.625c-1.25 1.6e-4 -1.8752-0.20781-1.875-0.625v-1.875h2.5m-3.125 28.125 0.625 6.25v1.25c-1.6e-4 1.25 0.83281 1.6669 2.5 1.25 1.6664-1.25 1.8748-1.8748 0.625-1.875l-6.25 5 1.875-8.125 0.625-3.75m128.12-3.75-8.75 7.5v-1.875l8.75-5.625m184.38 28.75 5.625-7.5-2.5 8.125-1.25 1.25-1.875-1.875m11.875-8.125v1.875c-4.7e-4 2.0834-0.83437 4.3752-2.5 6.875-1.25 2.5002-2.0839 4.1669-2.5 5-1.25 3.3334-2.2922 5.0002-3.125 5-1.25-0.41719-1.8755-1.0422-1.875-1.875l0.625-0.625 5.625-10 1.25-4.375 2.5-1.875m-121.25 12.5h5.625l-0.625 3.75h-1.875c-1.667-0.83281-2.7088-2.0833-3.125-3.75m-69.375 1.25-3.125 2.5h-9.375 1.25l-2.5-1.25 0.625-1.875 13.125 0.625m12.5-1.25-5 5.625c-1.25 3.7502-5.417 5.6252-12.5 5.625-11.25 1.6e-4 -16.875-2.2916-16.875-6.875l1.25-1.25c1.25 1.6e-4 3.1247 1.25 5.625 3.75 2.4997 2.0834 5.208 3.1252 8.125 3.125-3.1e-4 1.6e-4 1.4578-0.83281 4.375-2.5 3.333-1.6666 8.333-4.1666 15-7.5m22.5 18.75 11.25-8.125c-1.667 4.1667-5.417 6.8752-11.25 8.125m16.25-6.25-0.625 2.5c-2.0838 3.7502-5.2088 6.2502-9.375 7.5l-2.5 1.875-1.25-1.875c5.4162-2.4998 9.9997-5.8333 13.75-10m118.75 22.5 5 3.125h5.625v1.875h-1.875c-3.7505 0.83281-6.6672-0.83281-8.75-5m-330.62 20-1.25-1.25c1.25-2.0833 1.6666-3.7498 1.25-5-0.83281-2.4998-1.0422-3.9583-0.625-4.375l3.75-2.5v8.125l-3.125 5m151.88-1.875h1.875v6.25l-2.5-0.625 0.625-5.625m-18.75 1.25c1.6664-0.41719 2.4997 0.41719 2.5 2.5-3.1e-4 1.25-0.625 1.875-1.875 1.875s-1.8753-1.0422-1.875-3.125c-3.1e-4 -0.83281 0.41563-1.25 1.25-1.25m5.625 0c1.6664 0.41719 2.4997 1.0422 2.5 1.875-3.1e-4 1.25-0.625 1.875-1.875 1.875 2.4997 0 2.083-0.41719-1.25-1.25l0.625-2.5m93.75 2.5 6.25 3.125 1.25 3.125-5.625-2.5-5.625-3.75h3.75"
         fill="#8f0005"
         id="path13" />
    </g>
  </g>
</svg>
