<?xml version="1.0" encoding="UTF-8" standalone="no"?>
<svg
   xmlns:dc="http://purl.org/dc/elements/1.1/"
   xmlns:cc="http://creativecommons.org/ns#"
   xmlns:rdf="http://www.w3.org/1999/02/22-rdf-syntax-ns#"
   xmlns:svg="http://www.w3.org/2000/svg"
   xmlns="http://www.w3.org/2000/svg"
   xmlns:sodipodi="http://sodipodi.sourceforge.net/DTD/sodipodi-0.dtd"
   xmlns:inkscape="http://www.inkscape.org/namespaces/inkscape"
   version="1.1"
   viewBox="0 0 500 500"
   id="svg19"
   sodipodi:docname="william-morris-letter-p.svg"
   inkscape:version="1.0.2 (1.0.2+r75+1)">
  <metadata
     id="metadata23">
    <rdf:RDF>
      <cc:Work
         rdf:about="">
        <dc:format>image/svg+xml</dc:format>
        <dc:type
           rdf:resource="http://purl.org/dc/dcmitype/StillImage" />
      </cc:Work>
    </rdf:RDF>
  </metadata>
  <sodipodi:namedview
     pagecolor="#ffffff"
     bordercolor="#666666"
     borderopacity="1"
     objecttolerance="10"
     gridtolerance="10"
     guidetolerance="10"
     inkscape:pageopacity="0"
     inkscape:pageshadow="2"
     inkscape:window-width="1920"
     inkscape:window-height="1016"
     id="namedview21"
     showgrid="false"
     inkscape:zoom="1.686"
     inkscape:cx="255.33808"
     inkscape:cy="250"
     inkscape:window-x="0"
     inkscape:window-y="27"
     inkscape:window-maximized="1"
     inkscape:current-layer="svg19" />
  <defs
     id="defs7">
    <linearGradient
       id="linearGradient847"
       x1="500"
       x2="0"
       y1="500"
       y2="-4.2633e-14"
       gradientUnits="userSpaceOnUse"
       gradientTransform="translate(94.32,107.495)">
      <stop
         stop-color="#ff6700"
         offset="0"
         id="stop2" />
      <stop
         stop-color="#ffd700"
         offset="1"
         id="stop4" />
    </linearGradient>
  </defs>
  <path
     d="m249.41 43.891-37.959 4.4492s-2.8455 0.035658-3.1055 0.039062c4.9693 6.0548 12.596 16.568 12.596 16.568l9.7852 8.8965 35.588 3.8555 22.836 1.4824s18.386 11.27 21.648 11.566 18.684 29.062 20.463 30.545 2.373 45.67 2.373 45.67l-4.4492 27.877 41.402 11.002 9.6055-17.23 4.4492-56.643-21.057-36.18-31.436-30.842-35.586-13.939-47.154-7.1172zm-159.42 1.1035-11.693 6.0137 4.1523 14.531 41.814 15.422 5.3398 34.104-2.373 225.09 1.1856 32.621-2.668 20.166-0.18164 0.58984 31.715 4.4785 15.693-2.3262 1.1113-113.06 6.5254-5.6348 56.643 6.5254 45.373-6.2285 20.463-5.3379 21.945-9.4902 25.801-15.717 10.676-24.615 0.1543-0.27735c-1.7088-1.2232-3.1191-2.3906-3.1191-2.3906l-37.959-5.6348-3.2637 3.5586s-34.4 27.875-41.518 31.73c-7.1174 3.8553-21.055 5.9316-27.283 5.9316s-54.271 2.6699-54.271 2.6699l-17.496-8.6016-0.89062-52.787v-110.62l20.463-10.676 0.89062-2.9648-15.719-17.498-14.549-5.6562c-11.427 0.14683-24.361 0.31836-24.893 0.31836-1.4828 0-51.898-2.0762-51.898-2.0762l-0.16992-2.1582zm32.502 358.52-1.4902 4.8457-26.986 16.014-19.277 2.6699-4.1504 8.3027 6.8203 11.27 12.158 1.1856 135.23 3.8555 13.641-5.6348-1.1855-11.27-5.041-5.6328-27.877-2.373-22.836-9.7871-6.8711-10.898c-14.276-0.93182-50.071-2.4591-52.137-2.5469z"
     fill="#f4eee6"
     id="path11" />
  <g
     id="g17">
    <g
       transform="translate(-146.86,-119.79)"
       id="g15">
      <path
         d="m146.86 619.79v-500h500v500h-500m7.5-7.5h485v-485h-485v485m7.5-7.5v-469.38h469.38v469.38h-469.38m446.88-459.38c1.25 1.25 2.2911 1.8755 3.125 1.875 1.25 4.7e-4 1.8745-1.25 1.875-3.75v-0.625l-3.125-1.875-1.875 4.375m-396.88 3.75-6.25 1.875-5-2.5 0.625 4.375c0.83281 2.0838 3.3333 3.1255 7.5 3.125-1.6e-4 4.7e-4 1.25-0.41562 3.75-1.25l7.5-5.625 1.25-0.625c3.7498 4.7e-4 5.6248 1.6672 5.625 5-1.6e-4 2.5005-2.2919 7.2922-6.875 14.375 0.41719 0.41719 0.83281 0.83438 1.25 1.25 0.41719 4.7e-4 0.83281 0.20938 1.25 0.625 2.4998 4.7e-4 5.6248-2.9162 9.375-8.75 1.6666-1.6662 2.4998-4.3745 2.5-8.125-1.6e-4 -7.0828-3.9584-10.625-11.875-10.625-3.7502 4.7e-4 -7.2919 2.2922-10.625 6.875m163.12-4.375 6.875 4.375c0.41562 0.41719 0.625 1.6672 0.625 3.75-3.1e-4 0.83438-0.83281 2.0838-2.5 3.75-2.917 1.6672-5.417 2.5005-7.5 2.5h-1.25l-23.125-5c-2.0836-0.41562-3.7503-0.625-5-0.625-0.83438-0.41562-1.25-0.625-1.25-0.625l-8.125-3.75-19.375-1.25-1.25 1.25c2.0831 0.41719 4.1664 0.83438 6.25 1.25 2.0831 0.41719 4.1664 1.0422 6.25 1.875l33.125 10.625c4.1664 1.25 8.7497 1.8755 13.75 1.875 12.916 4.7e-4 19.375-3.5412 19.375-10.625-3.1e-4 -7.4995-3.542-11.25-10.625-11.25l-1.875 0.625-4.375 1.25m220.62 3.75h0.625l0.625 3.75c1.6661 1.25 3.5411 1.8755 5.625 1.875 2.4995 4.7e-4 3.7495-1.6662 3.75-5-4.7e-4 -3.3328-1.8755-4.9995-5.625-5l-1.25 0.625-3.75 3.75m-108.75-2.5c2.4995 2.0838 3.7495 3.5422 3.75 4.375-4.7e-4 -0.41562-0.41719 1.0422-1.25 4.375-2.0838 2.0838-3.1255 3.7505-3.125 5v1.875l7.5-3.75c-1.667 0.83438-2.917 2.5005-3.75 5h1.25l5-1.875 8.125-1.875 16.25-6.25c6.2495-2.0828 12.291-3.1245 18.125-3.125 20 4.7e-4 37.708 6.4588 53.125 19.375l1.25 1.25 6.25 8.125 0.625 1.875 3.125 4.375c2.9161-1.6662 4.3745-3.1245 4.375-4.375-4.7e-4 -7.4995-10.625-17.291-31.875-29.375-10.834-4.1662-23.125-6.2495-36.875-6.25-11.667 4.7e-4 -21.459 1.8755-29.375 5.625l-10 4.375-5.625 1.875c0.83281-4.1662 1.25-6.4578 1.25-6.875-4.7e-4 -3.3328-2.0838-4.9995-6.25-5h-1.25l-0.625 1.25m-39.375 16.25c-1.25 0.41719-2.917 0.625-5 0.625h-3.125c-5.0003 4.7e-4 -7.5003-1.0406-7.5-3.125v-1.25l3.125-3.75v-1.25c-3.1e-4 -4.9995-3.1253-7.4995-9.375-7.5-3.7503 4.7e-4 -8.1253 1.8755-13.125 5.625h14.375v3.75c-2.0838 0.83438-3.1253 3.1255-3.125 6.875 4.1662 4.1672 11.25 6.2505 21.25 6.25 7.4997 4.7e-4 11.041-4.3745 10.625-13.125v-2.5l9.375-6.25c-0.83438-0.41562-2.0838-0.625-3.75-0.625-8.3338 4.7e-4 -12.5 3.5422-12.5 10.625v1.25c0.41562 0.41719 0.625 1.4594 0.625 3.125-3.1e-4 0.41719-0.625 0.83438-1.875 1.25m122.5-15c7.0828 2.0838 11.875 3.1255 14.375 3.125 4.1661 4.7e-4 6.0411-0.625 5.625-1.875v-2.5c-3.3339 1.25-5.6255 1.6672-6.875 1.25-3.7505-0.41562-6.6672-0.625-8.75-0.625-2.0838-0.41562-3.3338-0.625-3.75-0.625l-0.625 1.25m-106.25 2.5c4.583 2.5005 6.8745 6.2505 6.875 11.25v0.625l-3.75 8.75c-1.25 2.5005-1.8753 3.9588-1.875 4.375l0.625 1.25c0.41562 0.83438 1.6662 1.4594 3.75 1.875l2.5 1.25c2.083-0.83281 5.208-4.3745 9.375-10.625 2.4995-2.9162 3.7495-6.4578 3.75-10.625-4.7e-4 -2.9162-0.83438-4.3745-2.5-4.375-1.25 4.7e-4 -2.7088 0.625-4.375 1.875-1.667-5.4162-4.3755-8.1245-8.125-8.125-2.5003 4.7e-4 -4.5838 0.83438-6.25 2.5m-226.88 15c6.6666 0.41719 11.25 0.83438 13.75 1.25 2.4998 4.7e-4 2.7081 4.7e-4 0.625 0 0.41719 4.7e-4 4.7916-1.25 13.125-3.75 4.1664-1.25 11.041-1.8745 20.625-1.875 13.333 4.7e-4 27.916 4.1672 43.75 12.5 20 19.584 30 36.875 30 51.875-3.1e-4 10.834-3.5419 19.167-10.625 25l-0.625 1.875c-5.0003 2.5003-8.3336 3.7503-10 3.75-2.5003 3.1e-4 -5.2086-1.4578-8.125-4.375-1.6669-2.9162-2.5003-4.9997-2.5-6.25-3.1e-4 -3.7497 1.0422-5.6247 3.125-5.625l16.875-10.625c3.7497-2.4995 5.6247-6.2495 5.625-11.25-3.1e-4 -8.7495-3.3336-13.125-10-13.125-6.6669 4.7e-4 -10 3.3338-10 10v0.625c2.9164-2.9162 5.4164-4.3745 7.5-4.375 3.7497 4.7e-4 5.6247 2.7088 5.625 8.125-3.1e-4 2.917-0.83438 4.5838-2.5 5l-13.75 9.375c-3.7503 2.0838-5.6253 6.8753-5.625 14.375-3.1e-4 4.167 1.25 8.9588 3.75 14.375 4.1664 3.7503 7.9164 5.6253 11.25 5.625 1.6664 3.1e-4 2.7081-0.20781 3.125-0.625l5-1.875 1.875-0.625 1.25-1.875 3.75-5 2.5-4.375 2.5 0.625v1.875l1.875 1.875 5-6.875c2.9164-4.583 4.9997-11.666 6.25-21.25v-6.875l-3.125-12.5c-1.25-2.9162-2.292-4.7912-3.125-5.625l-4.375-3.125c-0.83438-0.83281-1.25-1.4578-1.25-1.875-3.1e-4 -2.083 1.25-3.1245 3.75-3.125 1.25 4.7e-4 2.4997 1.25 3.75 3.75 1.25 2.0838 2.9164 6.4588 5 13.125l0.625 2.5c0.41562 0.41719 0.83281 1.0422 1.25 1.875 0.83281 0.83438 1.6664 1.667 2.5 2.5l3.125 2.5c5.4164 3.7505 8.958 5.6253 10.625 5.625-0.41719 3.1e-4 0.625-0.41562 3.125-1.25l-1.25-5c2.4997 0.41719 4.583 0.83438 6.25 1.25 1.6664 4.7e-4 2.9164 4.7e-4 3.75 0 8.333 4.7e-4 12.5-4.3745 12.5-13.125-3.1e-4 -1.6662-0.83438-3.333-2.5-5-1.667 6.667-5.0003 10-10 10l-4.375-0.625-10-5.625-1.25-1.875c-4.167-4.583-9.3753-10.208-15.625-16.875-6.2503-7.083-13.75-15.208-22.5-24.375-18.334-10.833-38.334-16.25-60-16.25-24.584 4.7e-4 -41.875 5.2088-51.875 15.625m376.88-7.5 3.125 4.375c0.83281 2.5005 1.4578 4.5838 1.875 6.25v1.25c-4.7e-4 7.0838-5.6255 14.375-16.875 21.875 13.333-4.9995 20-13.125 20-24.375-4.7e-4 -11.25-2.5005-16.875-7.5-16.875-2.0839 4.7e-4 -3.1255 1.25-3.125 3.75-4.7e-4 0.83438 0.83281 2.0838 2.5 3.75m-98.75-1.25v1.25h1.25c4.1662 4.7e-4 8.1245 1.25 11.875 3.75l1.25 4.375-1.875 5.625 4.375-1.875c2.0828-1.25 3.1245-4.1662 3.125-8.75-4.7e-4 -4.9995-3.3338-7.4995-10-7.5l-1.875 0.625-8.125 2.5m32.5-1.875-6.875 5c-2.0838 7.0838-3.1255 10.417-3.125 10-4.7e-4 2.0838 0.625 3.3338 1.875 3.75l5.625 6.25h1.25l-1.25-5.625-2.5-6.25 2.5-0.625 0.625 3.125 2.5 6.875c3.7495-4.9995 5.6245-8.9578 5.625-11.875-4.7e-4 -2.4995-0.625-3.7495-1.875-3.75-2.0838 4.7e-4 -3.3338 0.20938-3.75 0.625h-1.875l1.25-7.5m58.125 2.5c-2.5005 0.83438-3.7505 2.0838-3.75 3.75-4.7e-4 3.7505 1.8745 5.6255 5.625 5.625 2.4995 4.7e-4 3.7495-1.6662 3.75-5-4.7e-4 -2.9162-1.4594-4.3745-4.375-4.375h-1.25m-421.88 0 4.375 8.125-1.25-0.625 2.5 5.625v13.75l-1.875 7.5-1.25 19.375v1.25l1.875 3.125c2.0833 2.917 3.5416 4.5838 4.375 5 2.4998 2.5005 4.9998 3.9588 7.5 4.375l-3.125 0.625 0.625 0.625-11.25-2.5-4.375 4.375 0.625 3.125-0.625 3.75 1.875 8.125 1.875 4.375 0.625 1.875c3.3333 7.0838 9.3748 11.875 18.125 14.375l20.625 6.875c0.83281 3.1e-4 1.25 0.83438 1.25 2.5-1.6e-4 1.667-0.20781 2.7088-0.625 3.125l-6.875-1.25-1.875-1.25c-1.6e-4 -0.83281-2.2919-2.2912-6.875-4.375h1.25c-3.7502-1.6662-7.2917-2.4997-10.625-2.5-2.9167 3.1e-4 -6.2502 1.8753-10 5.625 1.6666 3.7503 4.3748 5.8338 8.125 6.25v2.5h-5c-2.5002-0.41562-5.0002-0.20781-7.5 0.625l-3.125 2.5-5 2.5-5.625 6.25c-2.0834 2.0836-3.3334 5.0003-3.75 8.75l-1.25 3.125 0.625-1.25v5.625c0.83281 3.3336 2.2916 5.2086 4.375 5.625 0.83281-4.1664 3.1248-6.6664 6.875-7.5 4.1666-1.25 7.4998-1.8747 10-1.875 1.25 3.1e-4 2.7083 0.20938 4.375 0.625 2.0833 3.1e-4 4.5833 0.20938 7.5 0.625l8.125-1.25 1.25 2.5v0.625l-1.25-0.625-1.25 3.75-3.125 3.75 9.375 2.5 6.25 1.875c4.5831-0.83281 11.25-2.708 20-5.625l6.25-4.375 5.625-2.5 0.625 1.875v-1.875l1.25 2.5h-2.5l1.875 0.625c-4.1669 2.0836-6.4584 5.417-6.875 10l8.125-1.875 16.875 0.625v-16.875l0.625-6.875-0.625-11.875c0.41719-1.25 0.625-3.1247 0.625-5.625-1.6e-4 -0.83281-1.0422-2.9162-3.125-6.25-1.6669-3.333-2.5002-6.6662-2.5-10-1.6e-4 -3.333 0.83281-7.708 2.5-13.125 0.83281-4.1662 1.25-6.2497 1.25-6.25-1.6e-4 -3.7497-1.4594-7.708-4.375-11.875l-3.125 1.25-3.75 3.125-3.75 5c0.41719-0.41563-0.20781-0.625-1.875-0.625-1.25-0.41562-1.8752-1.25-1.875-2.5l0.625-1.25c2.4998-6.6662 3.7498-11.666 3.75-15-1.6e-4 -3.7495-2.5002-9.7912-7.5-18.125-6.2502 2.917-11.458 10-15.625 21.25l-3.125-0.625 0.625-6.875 0.625-6.25 0.625-8.75 0.625-2.5c-1.6e-4 -4.583-0.83281-6.8745-2.5-6.875-1.6669 4.7e-4 -2.5002 1.0422-2.5 3.125-1.6e-4 2.0838 0.20781 3.3338 0.625 3.75l0.625 6.25-2.5-1.25v0.625c0.41719 0.41719 0.625 0.83438 0.625 1.25 0.41719-0.41562 0.625-1.8745 0.625-4.375v-3.125l-1.25-2.5c-1.6e-4 -4.1662-0.625-7.2912-1.875-9.375l1.25-1.25 0.625 3.75 1.875 2.5c-1.25-7.9162-5.0002-14.791-11.25-20.625l-3.75 1.25-1.875 7.5h-1.25l-1.25-1.25-2.5-8.125c-2.9167-7.4995-10.417-11.666-22.5-12.5m327.5 0-3.125 1.875h8.125l-5-1.875m-20.625 8.75-8.75 6.875c-2.0838 2.917-3.7505 5.0005-5 6.25-0.83438 1.25-1.25 1.8755-1.25 1.875-4.7e-4 0.83438 0.83281 1.8755 2.5 3.125l5 2.5c7.083-5.833 13.125-8.7495 18.125-8.75 2.4995 4.7e-4 5.208 1.4594 8.125 4.375 1.6662 1.25 2.4995 2.7088 2.5 4.375v1.25c-4.7e-4 5.0005-2.7088 8.1255-8.125 9.375 1.6662 2.5005 3.333 3.7505 5 3.75 7.9162 4.7e-4 11.875-4.7912 11.875-14.375-4.7e-4 -9.1662-2.5005-13.75-7.5-13.75l-3.125 0.625v-2.5c2.9162 4.7e-4 4.3745-0.625 4.375-1.875v-1.875l-6.25-1.875-3.75-1.875-6.875 0.625-6.875 1.875m-118.75 3.75-10 0.625-0.625 1.875c-3.1e-4 0.83438 1.0406 1.8755 3.125 3.125l3.125 6.25 5.625 2.5 6.25 0.625 16.875 1.25c26.666 1.667 47.916 10.625 63.75 26.875 16.25 15.834 23.958 35.834 23.125 60v1.875l-4.375 39.375c2.083 0.41719 4.3745 0.83438 6.875 1.25 2.4995 3.1e-4 5.4162 0.41719 8.75 1.25 9.583 4.5836 14.791 6.042 15.625 4.375l3.125-9.375 5.625-25c0.41563-1.25 0.625-4.9997 0.625-11.25-4.7e-4 -32.5-10.209-58.333-30.625-77.5-20-19.166-47.084-28.75-81.25-28.75h-15.625c-3.3336 4.7e-4 -5.417-0.20781-6.25-0.625h-3.75c-0.83438 4.7e-4 -2.292 0.20938-4.375 0.625-1.667 4.7e-4 -3.542 0.20938-5.625 0.625m190.62-1.875-1.875 1.25-6.875 3.75-0.625 2.5-2.5 5 1.25 1.25h1.875c2.0828-2.9162 5.2078-4.583 9.375-5l-1.875 2.5c-3.3338 2.0838-5.0005 3.3338-5 3.75-4.7e-4 1.25 0.83281 2.5005 2.5 3.75l8.75-3.75 1.25 1.25 0.625-1.25-0.625 1.875c-5.0005 1.25-7.5005 2.917-7.5 5-4.7e-4 0.83438 0.83281 1.25 2.5 1.25-4.7e-4 4.7e-4 2.0828-0.41562 6.25-1.25l6.875-3.125 0.625 1.875-13.75 6.875-0.625 5 10.625-2.5v1.875c-4.7e-4 0.83438-1.25 1.4594-3.75 1.875l-1.875 0.625h-5l-1.25 5 10.625 0.625v2.5h-2.5l-10-0.625c-0.41719 0.41719-0.625 1.4594-0.625 3.125-4.7e-4 1.25 0.625 2.0838 1.875 2.5l-0.625 0.625c4.1662 2.917 7.7078 4.3755 10.625 4.375 9.5828 4.7e-4 15.625-5.208 18.125-15.625l-4.375 0.625c-2.0839 4.7e-4 -4.1672-1.0406-6.25-3.125h2.5l1.25-1.875h2.5l2.5-3.125c1.6661-1.6662 2.4995-3.333 2.5-5l1.25-6.25 1.25-4.375c-4.7e-4 -4.583-4.5839-6.8745-13.75-6.875-1.25 4.7e-4 -2.0839 0.625-2.5 1.875h-0.625c-2.5005 4.7e-4 -3.7505-0.41563-3.75-1.25-4.7e-4 -0.83281 0.625-2.4995 1.875-5l-11.25-2.5m-328.75 1.25-5 1.875v0.625c-1.6e-4 4.167 2.0831 6.4588 6.25 6.875 25.833 4.5838 39.375 17.084 40.625 37.5v4.375l2.5 20.625-2.5 271.25c10.416 2.9167 20.416 4.3752 30 4.375h4.375l0.625-14.375 0.625-96.875c0.83281-10.833 3.7497-15.833 8.75-15l63.75 3.75c49.583 1.6669 87.916-16.041 115-53.125l-0.625-1.25h-2.5c-5.8338-2.0831-12.5-3.3331-20-3.75h-8.125c-17.084 29.584-51.875 44.375-104.38 44.375-17.5 3.1e-4 -28.334-0.625-32.5-1.875-12.917-2.4997-19.375-9.1664-19.375-20v-145.62c-1.6e-4 -8.7495 1.0422-14.791 3.125-18.125 2.0831-3.7495 7.0831-6.2495 15-7.5 0.41719-0.41563 1.25-0.625 2.5-0.625 1.6664 4.7e-4 3.1247-0.20781 4.375-0.625-9.1669-9.1662-14.584-13.75-16.25-13.75-0.83281 4.7e-4 -1.8753 0.20938-3.125 0.625-0.83437 4.7e-4 -2.0836 0.20937-3.75 0.625-2.0836-0.41563-4.3752-0.625-6.875-0.625-2.0836 4.7e-4 -4.1669 4.7e-4 -6.25 0h-20.625c-11.25 4.7e-4 -26.458-1.25-45.625-3.75m294.38 8.125-2.5 0.625-0.625 6.875 1.875 2.5v1.25l5.625 3.125c3.3328 0.83437 4.7912 1.25 4.375 1.25 2.0828 4.7e-4 3.1245-1.4578 3.125-4.375-4.7e-4 -1.6662-1.4594-2.708-4.375-3.125l-1.875-0.625v-1.25l6.875 0.625 2.5-4.375c-5.0005-2.083-7.7088-3.1245-8.125-3.125l-3.125 0.625h-3.75m-297.5 1.25-0.625 1.25c3.3331 3.3338 8.3331 6.2505 15 8.75 4.5831 1.25 7.0831 2.0838 7.5 2.5l7.5 3.75 3.125 0.625-0.625-1.875-9.375-6.25-6.875-2.5-5.625-2.5-10-3.75m315.62 15 1.875 1.25-0.625 1.25-3.75-0.625c-3.7505-1.25-6.4588-1.8745-8.125-1.875-3.7505 4.7e-4 -7.0838 0.625-10 1.875l-6.25 3.75-1.25 3.125-4.375 3.125c-2.0838 2.0838-3.1255 5.417-3.125 10 1.25 1.25 2.083 1.8755 2.5 1.875 1.25-1.25 2.2912-2.9162 3.125-5 2.4995-8.7495 8.5412-13.125 18.125-13.125 1.6662 4.7e-4 6.0412 1.0422 13.125 3.125v1.875l-4.375-0.625 0.625 1.875 1.25 5.625 3.75 1.25v-3.125c2.4995 0.83438 3.5412 1.25 3.125 1.25 1.6662 4.7e-4 2.7078-1.4578 3.125-4.375v-5.625c-4.7e-4 -6.6662-2.2922-9.9995-6.875-10l-0.625 0.625c0.41563-2.9162 1.4578-4.3745 3.125-4.375 1.25 4.7e-4 2.2912 1.0422 3.125 3.125h1.25c-2.0838-4.9995-4.3755-7.4995-6.875-7.5-4.5838 4.7e-4 -6.8755 2.5005-6.875 7.5v2.5l5 1.25m-170-7.5 2.5 5.625 6.875 0.625 18.125 0.625 26.25 3.75c-3.1e-4 -2.4995-7.292-4.7912-21.875-6.875l-11.875-1.875-8.75-0.625-11.25-1.25m-204.38 10.625h2.5c1.6666 1.667 2.4998 3.3338 2.5 5l0.625 5 0.625 6.875-0.625 4.375-5 29.375v21.875c-1.6e-4 2.0838 0.625 4.5838 1.875 7.5l-1.25-20c-1.6e-4 -7.9162 0.83281-14.583 2.5-20l4.375-16.25c2.0833-10.416 3.1248-17.916 3.125-22.5-1.6e-4 -2.9162-1.25-5.208-3.75-6.875-2.0834-2.083-3.7502-3.1245-5-3.125-3.3334 4.7e-4 -5.8334 1.4594-7.5 4.375l-0.625 1.25c-1.6e-4 1.667 1.8748 2.7088 5.625 3.125m165.62-8.75c-10 1.25-16.459 3.542-19.375 6.875-2.9169 2.917-4.1669 9.3755-3.75 19.375l0.625 18.75v48.75l-1.25 30 1.25 25.625-0.625 17.5c-3.1e-4 3.7503 0.83281 7.9169 2.5 12.5 1.6664 4.1669 3.1247 6.2503 4.375 6.25l1.875-0.625c-3.7503-10.416-5.6253-20.208-5.625-29.375v-6.25c-3.1e-4 -0.41719-3.1e-4 -2.7081 0-6.875 0.41563-4.583 0.83281-11.25 1.25-20 0.41719-3.333 0.625-6.6664 0.625-10-3.1e-4 -3.333-3.1e-4 -6.458 0-9.375v-21.25l-0.625-18.125 1.25-16.875-1.25-25.625c-3.1e-4 -9.1662 4.3747-14.166 13.125-15l8.125-0.625c0.41563 4.7e-4 1.0406-0.41562 1.875-1.25l-4.375-4.375m276.25 1.25c-0.41719 0.41719-0.625 1.0422-0.625 1.875-4.7e-4 0.41719-0.20937 0.83438-0.625 1.25l3.75 9.375c0.83281 4.167 1.25 6.667 1.25 7.5-4.7e-4 5.8338-2.2922 15.209-6.875 28.125l-6.875 11.25-10.625 15.625 0.625 11.875 1.875 3.125 3.125 2.5c4.1661 2.917 8.1245 4.3753 11.875 4.375 5.4161 3.1e-4 8.7495-2.708 10-8.125-5.0005 2.0836-7.9172 3.1253-8.75 3.125-6.6672 3.1e-4 -10-3.1247-10-9.375-4.7e-4 -4.1662 1.25-8.7497 3.75-13.75 2.9161-5.833 4.9995-10.416 6.25-13.75 1.6661-3.7497 2.9161-6.458 3.75-8.125 1.6661-3.7497 3.1245-11.875 4.375-24.375-0.41719-1.6662-0.83437-3.5412-1.25-5.625-4.7e-4 -2.083-0.20937-4.1662-0.625-6.25-0.41719-1.25-1.0422-2.708-1.875-4.375-0.83437-2.083-1.6672-4.1662-2.5-6.25m-5 2.5v5c1.6661 6.2505 2.4995 10.834 2.5 13.75-4.7e-4 2.5005-1.0422 7.292-3.125 14.375-1.25 4.5838-2.7089 7.7088-4.375 9.375l-2.5 3.75-3.125 6.25-16.25 10-5.625 1.875-3.75 1.875c-4.5838 1.25-8.7505 1.8753-12.5 1.875-7.9172 3.1e-4 -17.709-1.8747-29.375-5.625v1.25c-0.83437 4.5838-0.20937 7.5003 1.875 8.75 0.41563 0.41719 2.4995 0.625 6.25 0.625l26.875 1.875c6.6662 3.1e-4 12.083-1.4578 16.25-4.375l6.875-5 6.25-3.125c1.6661-1.6662 2.9161-3.1247 3.75-4.375l9.375-13.125c4.1661-4.1662 6.2495-13.333 6.25-27.5-4.7e-4 -5.833-1.8755-11.666-5.625-17.5m-4.375 3.125c-4.7e-4 1.25-4.7e-4 2.917 0 5 0.41563 2.0838 0.83281 4.5838 1.25 7.5v1.875c-4.7e-4 1.25-1.25 6.4588-3.75 15.625l-7.5 11.875-6.25 5.625-0.625 0.625-3.125 1.25c-4.1672 2.917-7.7089 4.3753-10.625 4.375-6.6672 3.1e-4 -11.459-0.625-14.375-1.875-2.5005-1.25-3.7505-4.583-3.75-10v-1.25c-6.2505 0.83438-9.3755 3.3338-9.375 7.5-4.7e-4 3.3338 2.2912 6.667 6.875 10 5.4162 1.25 9.5828 1.8753 12.5 1.875 12.5 3.1e-4 22.708-4.583 30.625-13.75 7.9161-9.1662 11.875-21.041 11.875-35.625-4.7e-4 -7.083-1.25-10.625-3.75-10.625m-182.5 16.25v0.625c-3.1e-4 2.0838 1.0406 3.542 3.125 4.375 1.6662-4.1662 3.7497-6.2495 6.25-6.25 0.41563 4.7e-4 1.25 0.20938 2.5 0.625 1.25 4.7e-4 2.9162 0.20938 5 0.625l1.25 1.25c3.333 3.3338 5.208 7.5005 5.625 12.5l0.625 4.375 1.25 8.125v5c-3.1e-4 0.41719 1.0406 4.792 3.125 13.125l-0.625-7.5-0.625-8.75 0.625-20c0.41563-4.583-1.25-8.5412-5-11.875-3.3338-3.7495-7.292-5.6245-11.875-5.625-6.2503 4.7e-4 -10 3.1255-11.25 9.375m118.12-3.125c-2.9172 2.917-4.3755 6.2505-4.375 10-4.7e-4 3.7505 0.41563 6.2505 1.25 7.5 0.83281 0.83438 2.4995 1.25 5 1.25 5.8328 4.7e-4 8.7495-2.4995 8.75-7.5-4.7e-4 -1.6662-0.41719-2.4995-1.25-2.5-0.83437 4.7e-4 -1.25 0.20938-1.25 0.625l-1.875 4.375h-1.875l1.25-5.625c-4.7e-4 -1.25-0.625-1.8745-1.875-1.875-1.25 0.83438-1.8755 2.292-1.875 4.375l-1.875 0.625 0.625-3.125 1.875-3.75-2.5-4.375m-86.875 45.625v1.875l1.25 3.75 1.25 7.5 3.125 6.25 3.75 9.375 2.5 3.125 1.875 1.25 3.75 4.375c0.83281 2.0836 1.6662 3.1253 2.5 3.125 3.333 3.1e-4 4.9995-1.4578 5-4.375-0.41719-0.41562-0.625-1.0406-0.625-1.875l-7.5-9.375c-6.667-7.9162-10-20.208-10-36.875-3.1e-4 1.25-3.1e-4 0.625 0-1.875 0.41563-2.9162 0.83281-7.708 1.25-14.375v-3.125c0.41563-1.25-0.20937-2.4995-1.875-3.75l-3.75-4.375-1.25-0.625-3.125 18.125v4.375c-3.1e-4 1.25 0.625 7.0838 1.875 17.5m100.62-35.625v2.5c-0.83437 5.8338 4.5828 11.667 16.25 17.5l4.375 6.25c3.7495-1.25 5.6245-3.1247 5.625-5.625-4.7e-4 -0.83281-0.41719-1.6662-1.25-2.5l-3.75-4.375 6.875-1.875v-2.5c0.83281-3.333-2.2922-4.9995-9.375-5h-4.375l-5.625-1.875-4.375-3.125c0.83281 4.5838 2.7078 7.5005 5.625 8.75v1.875l-3.75-1.25-6.25-8.75m-131.25 2.5-10.625 6.875c-5.8336 4.5838-8.7503 9.3753-8.75 14.375-3.1e-4 7.5003 2.4997 11.25 7.5 11.25l15 0.625 5 1.25-1.25-4.375c-14.584-0.83281-21.875-3.7497-21.875-8.75-3.1e-4 -10.833 6.2497-16.25 18.75-16.25 1.25 4.7e-4 3.1247 0.41719 5.625 1.25l2.5 1.25 0.625 3.125h-5l-2.5-3.125c-0.41719-0.41562-1.0422-0.625-1.875-0.625-9.5836 3.1e-4 -13.959 3.542-13.125 10.625v3.125c1.6664 3.7503 3.958 5.6253 6.875 5.625 2.9162 3.1e-4 4.3747-1.4578 4.375-4.375-3.1e-4 -0.41562-1.25-1.0406-3.75-1.875l-1.875-3.125 3.125-4.375h1.25c0.41563-0.41562 1.0406-0.625 1.875-0.625 0.83281 3.1e-4 2.4997 0.83438 5 2.5 2.9162 1.667 4.583 2.5003 5 2.5 2.9162 3.1e-4 4.3747-1.8747 4.375-5.625-3.1e-4 -5.833-3.1253-9.1662-9.375-10l-6.875-1.25m-46.875 4.375c-0.83281 8.3338-2.7086 17.709-5.625 28.125-0.83281 0.83438-1.4578 2.917-1.875 6.25l-3.75 5-5 9.375-7.5 8.125c-5.0003 5.417-9.7919 8.542-14.375 9.375l-10.625 2.5c-1.6669 1.667-2.5003 5.6253-2.5 11.875v7.5c0.41563 0.41719 1.25 0.625 2.5 0.625 0.83281 3.1e-4 2.2914-0.625 4.375-1.875l15.625-8.75c22.5-12.916 33.75-34.583 33.75-65-3.1e-4 -4.1662-1.667-8.5412-5-13.125m9.375 5v1.25l-1.875 3.125 0.625 7.5-1.25 6.875v17.5l1.25 6.875 0.625 6.875 1.875 5.625-8.125 4.375c-1.25 0.83438-1.8753 2.0836-1.875 3.75-3.1e-4 2.0836 0.625 5.2086 1.875 9.375 1.6664 4.167 2.4997 7.292 2.5 9.375-3.1e-4 5.0003-3.9586 7.7086-11.875 8.125 2.9164 2.5003 5.208 3.7503 6.875 3.75 0.83281 3.1e-4 1.6664 3.1e-4 2.5 0 1.25-0.41562 2.708-0.83281 4.375-1.25 6.6664-5.4164 9.7914-10.625 9.375-15.625v-2.5l-1.875-8.125v-2.5c-3.1e-4 -1.25 0.41719-2.2914 1.25-3.125l12.5-2.5c4.9997-1.25 7.9164-5.4164 8.75-12.5l-8.125 3.75h-1.25c-0.83281-0.83281-1.8753-1.6662-3.125-2.5-0.83281-0.83281-1.8753-1.6662-3.125-2.5l-1.25-0.625c0.41563 3.1e-4 -1.0422 0.41719-4.375 1.25v0.625c-3.1e-4 1.25-0.41719 1.8753-1.25 1.875-2.0836 3.1e-4 -3.1253-1.25-3.125-3.75v-4.375c0.41563-1.6662 0.41563-4.3747 0-8.125-0.41719-2.083-0.83437-3.958-1.25-5.625-3.1e-4 -1.6662-3.1e-4 -2.9162 0-3.75 0.41719-0.83281 0.625-4.7912 0.625-11.875l0.625-5.625c-3.1e-4 -0.83281-0.625-2.4997-1.875-5m130.62 3.75c4.9995 15 7.4995 27.5 7.5 37.5-4.7e-4 10-1.4594 19.375-4.375 28.125l-5.625 23.125 5 2.5 2.5-6.875 1.875-8.125 1.25-3.75c2.0828-7.083 3.1245-14.375 3.125-21.875v-9.375c-4.7e-4 -2.083-4.7e-4 -3.958 0-5.625-4.7e-4 -2.083-0.20938-4.1662-0.625-6.25v-4.375c0.83281-4.583-2.7088-12.916-10.625-25m-336.25 11.25-2.5 23.75 2.5 11.25 6.25-3.125v-10l1.25-7.5v-2.5l-2.5-3.125-5-8.75m291.25 2.5-3.125 1.875c-2.0838 5.0003-3.1253 7.917-3.125 8.75-3.1e-4 4.167 1.4578 8.9588 4.375 14.375l0.625 1.875 1.25 1.25 4.375 6.25 1.875 0.625v-1.875c-4.7e-4 -1.25-0.83437-2.708-2.5-4.375-3.3338-3.333-5.0003-8.1247-5-14.375-3.1e-4 -2.9162 1.8745-7.2912 5.625-13.125l-4.375-1.25m-40.625 18.75c1.6662 2.917 3.5412 4.3753 5.625 4.375 3.333 3.1e-4 4.9997-1.8747 5-5.625-3.1e-4 -3.7497-2.0838-5.6247-6.25-5.625-3.7503 3.1e-4 -5.2088 1.667-4.375 5v1.875m-6.875 2.5c-3.3338 3.1e-4 -5.0003 1.667-5 5-3.1e-4 3.3338 1.6662 5.0003 5 5 4.583 3.1e-4 6.8747-1.8747 6.875-5.625-3.1e-4 -3.333-2.0838-4.7912-6.25-4.375h-0.625m-91.875 1.25c-3.3336 2.0838-5.0003 5.0003-5 8.75h-2.5v1.25c2.9164 4.167 6.6664 6.2503 11.25 6.25h0.625c3.3331 3.1e-4 5.2081-0.20781 5.625-0.625l6.875-5c4.1664-2.4997 6.2497-4.3747 6.25-5.625-3.1e-4 -0.83281-0.41719-1.25-1.25-1.25-0.41719 3.1e-4 -1.0422 0.41719-1.875 1.25-7.9169 3.3338-12.292 5.0003-13.125 5-5.0003 3.1e-4 -7.2919-2.708-6.875-8.125v-1.875m114.38 1.25 1.25 6.875h1.875c2.9162 3.1e-4 4.3747-1.4578 4.375-4.375-3.1e-4 -2.9162-1.667-4.3747-5-4.375l-1.25 0.625-1.25 1.25m98.75 2.5c-8.7505 5.8336-13.125 13.125-13.125 21.875-4.7e-4 2.5003 0.20781 4.167 0.625 5l1.25 4.375 1.25 6.25 3.75 6.875 6.25 6.25 2.5 1.25 0.625-1.875c-4.7e-4 -0.41719-1.0422-1.6664-3.125-3.75-5.0005-4.1664-7.5005-10.833-7.5-20-4.7e-4 -13.333 6.2495-20 18.75-20 4.9995 3.1e-4 7.4995 2.292 7.5 6.875-4.7e-4 3.1e-4 -1.0422 2.7086-3.125 8.125 7.4995-1.25 11.25-4.9997 11.25-11.25-4.7e-4 -2.9164-2.0838-6.2497-6.25-10-5.8338-2.4997-9.5838-3.7497-11.25-3.75h-1.875l-7.5 3.75m-104.38 0c-5.417 3.1e-4 -8.1253 1.8753-8.125 5.625-3.1e-4 3.7503 1.25 5.6253 3.75 5.625-0.41719 3.1e-4 -0.20937 3.1e-4 0.625 0 1.25-0.41719 2.9162-0.83281 5-1.25 1.25-0.41719 1.8747-1.25 1.875-2.5-3.1e-4 -1.6664-1.0422-4.1662-3.125-7.5m-19.375 15.625c2.083 2.0836 3.5412 3.1253 4.375 3.125 3.7497 3.1e-4 5.6247-1.8747 5.625-5.625-3.1e-4 -2.9164-1.667-4.3747-5-4.375-4.167 3.1e-4 -5.8338 1.667-5 5v1.875m24.375-2.5-1.875 1.875v1.875c-0.83437 3.7503 0.625 5.6253 4.375 5.625 4.9997 3.1e-4 7.4997-1.8747 7.5-5.625-3.1e-4 -4.1664-1.667-6.2497-5-6.25h-0.625l-4.375 2.5m146.25-1.875-5.625 1.875c-10 5.417-16.042 11.25-18.125 17.5l-2.5 8.125v0.625l1.25 5-1.25 3.125-1.25 0.625c-1.25 3.1e-4 -2.2922-1.25-3.125-3.75-0.41719-2.4997-2.2922-3.958-5.625-4.375l-1.875 6.875-1.25 5-1.875 5c-0.41719 0.41719-0.625 1.4578-0.625 3.125-4.7e-4 0.41719-4.7e-4 1.25 0 2.5 0.41563 1.25 0.83281 2.9169 1.25 5l1.25 5 6.875 11.875-0.625 0.625 11.25 13.75 4.375 6.25 7.5 11.875c1.25-2.0831 2.4995-4.3748 3.75-6.875 1.25-2.9164 2.7078-5.8331 4.375-8.75v-1.25c-4.7e-4 -2.0831-1.25-5.4164-3.75-10-1.6672-3.3331-3.3339-7.2914-5-11.875-1.25-4.9997-2.2922-10.416-3.125-16.25 0.41563-1.25 0.625-2.4997 0.625-3.75-4.7e-4 -1.25 0.20781-2.083 0.625-2.5v-5c-4.7e-4 -2.4997 0.83281-5.208 2.5-8.125l3.75-10c1.25-2.9164 6.6661-6.2497 16.25-10l1.875 0.625-1.25 1.25 1.875-1.875c7.9161 3.1e-4 11.875 3.3336 11.875 10-4.7e-4 2.917-0.20937 4.792-0.625 5.625l-1.25 1.875-5 5.625-16.875 6.25-1.25 2.5-3.125 1.875c-1.25 0.83438-1.8755 3.5419-1.875 8.125-4.7e-4 4.1669 2.2911 8.5419 6.875 13.125 3.7495 2.5003 6.4578 3.7503 8.125 3.75 1.6661 3.1e-4 5.4161-1.25 11.25-3.75-4.7e-4 -0.83281 1.0406-2.9164 3.125-6.25-0.41719-0.41719-0.625-0.83281-0.625-1.25-4.7e-4 -0.41562-0.20937-0.83281-0.625-1.25-2.9172 4.1669-7.2922 6.2503-13.125 6.25-1.25 3.1e-4 -2.7089-1.0406-4.375-3.125-1.25-2.4997-1.8755-4.7914-1.875-6.875-4.7e-4 -2.4997 0.83281-3.9581 2.5-4.375l15.625-6.25 2.5-3.125c4.9995-5.4164 7.4995-11.666 7.5-18.75-4.7e-4 -12.083-6.2505-18.125-18.75-18.125-1.25 3.1e-4 -5.6255 1.0422-13.125 3.125h1.875l-2.5 1.25 1.25-7.5m-178.12 4.375c-3.1e-4 3.7503-1.8753 5.8336-5.625 6.25v-1.875 1.25l-5.625-0.625h-0.625c-3.1e-4 3.3336 2.9164 5.0003 8.75 5 5.833 3.1e-4 8.7497-2.083 8.75-6.25-3.1e-4 -2.4997-1.8753-3.7497-5.625-3.75m20 3.125-3.75 5.625c-4.5838 2.5003-8.542 3.7503-11.875 3.75-3.7503 3.1e-4 -6.2503-0.20781-7.5-0.625l-11.25-5-3.125-1.875-1.25-0.625-0.625 3.75c10.833 5.8336 18.75 8.7503 23.75 8.75 9.1662 3.1e-4 16.25-3.958 21.25-11.875-0.83437-3.7497-1.8753-5.6247-3.125-5.625-0.83437 3.1e-4 -1.25 0.20938-1.25 0.625l-1.25 3.125m-38.75 8.75 12.5 11.875c0.41719 0.41719 0.625 1.4578 0.625 3.125-3.1e-4 0.83438-0.625 2.0836-1.875 3.75l-1.875 1.875h2.5c7.083 0.83281 10.625-1.25 10.625-6.25-3.1e-4 -4.583-2.917-7.9164-8.75-10l-4.375-1.25-8.125-4.375-1.25 1.25m78.75 15.625v-3.125h-6.25l-4.375-1.25-16.25-2.5c-2.917-0.41719-4.3753-2.083-4.375-5v-3.125h-1.25c-3.7503 3.1e-4 -5.6253 1.8753-5.625 5.625-3.1e-4 6.667 4.9997 9.5836 15 8.75h4.375l11.25-0.625c0.41563 3.1e-4 1.25 0.20938 2.5 0.625 1.25 3.1e-4 2.9162 0.20938 5 0.625m-128.12-6.875c-2.9169 0.41719-5.6253 2.292-8.125 5.625-4.1669 4.167-6.2503 8.1253-6.25 11.875-3.1e-4 13.334 5.6247 20 16.875 20l-1.25 2.5-1.25 0.625-1.875 2.5c5.4164 5.0003 10.208 7.5003 14.375 7.5l1.875-0.625 16.875-7.5 10.625-4.375 5-3.125-0.625 4.375 1.25-1.875-6.25 1.875-9.375 4.375-3.75 2.5c-0.41719 0.41719-1.0422 0.83438-1.875 1.25-0.83438 0.41719-2.0836 1.0422-3.75 1.875-7.5003 3.3336-12.292 8.5419-14.375 15.625l7.5 0.625 7.5-0.625h7.5l1.25-3.125 3.125-3.125 3.125-5.625h2.5l-7.5 11.875h6.25c2.9164-4.9997 7.4997-10.416 13.75-16.25 22.083-18.333 46.25-27.5 72.5-27.5 14.583 3.1e-4 29.375 2.9169 44.375 8.75l13.75 5.625 9.375 3.125 6.25 2.5 8.125 4.375-5.625-12.5-1.875-1.25-1.25-0.625-3.75-2.5c-6.6672-4.9997-14.584-8.7497-23.75-11.25-1.667-0.41719-3.542-0.83281-5.625-1.25-2.0838-0.41562-4.5838-1.0406-7.5-1.875l-14.375-3.75c-4.5838-0.83281-9.167-1.4578-13.75-1.875-4.167-0.83281-8.542-1.25-13.125-1.25-2.917 3.1e-4 -5.6253 0.20938-8.125 0.625-2.0838 3.1e-4 -4.167 0.20938-6.25 0.625l-23.75 3.75-8.125 3.125c-0.41719 0.41719-1.25 0.625-2.5 0.625-1.25 3.1e-4 -2.292 0.20938-3.125 0.625-4.5836 0.83438-9.5836 2.0836-15 3.75-5.417 1.25-11.042 2.7086-16.875 4.375-4.5836 0.83438-8.7503 1.6669-12.5 2.5-3.3336 0.41719-6.2503 0.625-8.75 0.625-12.084 3.1e-4 -18.125-4.5831-18.125-13.75-3.1e-4 -6.2497 2.9164-9.3747 8.75-9.375 2.0831 3.1e-4 3.1247 1.25 3.125 3.75v1.25l-1.875 4.375v3.125c0.41562 2.917 2.9164 4.3753 7.5 4.375 3.7497 3.1e-4 6.4581-1.4578 8.125-4.375l-5.625-6.25-0.625-11.25-5.625-3.125-7.5 3.125m-158.12 0v1.25l-2.5-0.625c-1.25 3.1e-4 -1.8752 0.625-1.875 1.875-1.6e-4 2.5003 1.4578 5.8336 4.375 10 0.83281 1.667 1.6666 3.542 2.5 5.625 1.25 2.0836 2.2916 4.1669 3.125 6.25l3.125 6.25 2.5 2.5c4.5833-2.0831 6.8748-3.9581 6.875-5.625-1.6e-4 0.41719-0.41719-0.625-1.25-3.125-3.3334-6.2497-5.2084-9.7914-5.625-10.625-1.25-3.333-2.5002-6.458-3.75-9.375-0.83281-2.9164-3.3334-4.3747-7.5-4.375m338.12 6.875-1.875 8.125 5.625 3.125 6.25 2.5c1.25 0.83281 2.7078 1.8753 4.375 3.125 1.6662 0.83438 3.5412 2.0836 5.625 3.75 1.25-2.9164 1.8745-5.4164 1.875-7.5-4.7e-4 -1.6664-2.0838-3.333-6.25-5l-1.25-0.625-5.625-3.75-6.25-3.75h-2.5m-290.62 5-3.125 1.25c-3.3334 4.5836-5.0002 8.7503-5 12.5-1.6e-4 2.5003 0.83281 5.2086 2.5 8.125l0.625 1.25c5.8331 10.834 12.708 16.875 20.625 18.125l11.25 1.875v-0.625c-1.6e-4 -2.0831-3.3334-3.9581-10-5.625-7.0834-1.6664-12.708-7.2914-16.875-16.875-1.25-1.6664-1.8752-3.5414-1.875-5.625-1.6e-4 -5.833 3.3331-8.958 10-9.375-0.41719-4.1664-1.8752-6.2497-4.375-6.25h-1.25l-2.5 1.25m5.625 10.625-1.25 2.5v1.25c15.833 1.6669 24.791 10.834 26.875 27.5-1.6e-4 2.5003 0.41562 3.7503 1.25 3.75 1.25 3.1e-4 2.0831-0.20781 2.5-0.625-0.41719-1.25-0.625-3.5414-0.625-6.875-1.25-17.916-10.833-27.083-28.75-27.5m-72.5 10c-1.6667 2.9169-2.5002 5.2086-2.5 6.875-1.6e-4 0.41719-1.6e-4 1.0422 0 1.875 0.41719 0.83438 0.83281 2.2919 1.25 4.375l0.625 2.5c1.25 2.0836 3.1248 3.1253 5.625 3.125-0.41719-0.83281-0.625-2.9164-0.625-6.25-1.6e-4 -6.6664 3.7498-9.9997 11.25-10 2.4998 3.1e-4 6.0416 1.25 10.625 3.75 2.0833-0.83281 3.1248-2.0831 3.125-3.75l-5.625-4.375-3.125-3.125c-1.25-1.25-4.1667-1.8747-8.75-1.875-5.4167 3.1e-4 -9.3752 2.2919-11.875 6.875m36.875 5-1.875 0.625c-17.5 15.834-26.25 37.084-26.25 63.75-1.6e-4 8.7502 1.4578 17.5 4.375 26.25-1.6e-4 4.5834 0.83281 6.8752 2.5 6.875 1.6666 1.6e-4 2.4998-1.25 2.5-3.75-1.6e-4 -1.25-1.0422-3.9581-3.125-8.125-2.0834-4.5831-3.1252-11.041-3.125-19.375-1.6e-4 -3.3331 1.0422-10.208 3.125-20.625 4.1666-18.75 12.708-33.333 25.625-43.75 9.1666-7.4997 13.75-11.458 13.75-11.875-1.6e-4 -1.6664-0.83281-2.4997-2.5-2.5-1.6669 3.1e-4 -4.5834 2.0836-8.75 6.25l-6.25 6.25m295.62-6.875-0.625 5-3.125 5.625-5 4.375-11.25 11.25c-2.0838 2.0836-4.5838 3.9586-7.5 5.625l-6.25 3.125 0.625 0.625-10 6.25-8.125 3.125-11.875 3.75-5 1.25-6.875 1.25-5 0.625-21.25 3.125-8.75-0.625-22.5 1.25h-1.875l-11.25-1.25c-1.25-0.41719-3.1253-0.625-5.625-0.625-2.9169 1.6e-4 -5.4169-0.20781-7.5-0.625l-18.75-0.625-3.75 1.875c-2.0836 2.0836-3.3336 3.7502-3.75 5-0.41719 1.25-0.625 6.6669-0.625 16.25l0.625 99.375 3.75-0.625v-91.875l1.25-19.375c1.25-4.9998 4.7914-7.0831 10.625-6.25h0.625l42.5 3.125c67.916 3.3336 112.08-16.25 132.5-58.75l-6.25-1.25m-285 8.75-5 5c-0.41719 0.41719-0.625 1.0422-0.625 1.875-1.6e-4 1.25 1.25 2.0836 3.75 2.5l2.5 1.875 6.875 4.375c10.417 7.9169 20.417 12.084 30 12.5l7.5 0.625 8.75 0.625c2.9164 0.41719 4.3748-0.83281 4.375-3.75-1.6e-4 -2.0831-2.7086-3.1247-8.125-3.125l-6.875-0.625-15-4.375c-12.083-5.8331-20.417-11.25-25-16.25l-3.125-1.25m289.38 9.375c-0.83438 4.1669-1.25 6.6669-1.25 7.5-4.7e-4 4.5836 2.708 7.0836 8.125 7.5l-0.625-7.5c4.1662-6.2497 9.3745-9.3747 15.625-9.375 12.916 3.1e-4 24.375 5.4169 34.375 16.25l12.5 13.125 3.125 5.625 2.5 1.875 0.625-2.5-1.875-1.875-2.5-5-2.5-1.25c-0.83438-2.4997-3.1255-5.6247-6.875-9.375l-5-5c-3.3338-3.7497-6.2505-6.4581-8.75-8.125l-14.375-8.125-11.25-2.5h-10c-5.8338 2.0836-9.792 5.0003-11.875 8.75m-178.75 1.25c-0.41719 0.41719-0.625 1.4578-0.625 3.125-3.1e-4 1.25 0.625 1.8753 1.875 1.875-3.1e-4 3.1e-4 2.7081-1.0406 8.125-3.125 1.25-0.83281 3.3331-1.4578 6.25-1.875-3.1e-4 -2.4997-1.0422-3.7497-3.125-3.75h-0.625l-11.875 3.75m279.38 3.75c1.6661 1.6669 3.3328 2.5003 5 2.5 2.0828 3.1e-4 3.1245-1.4578 3.125-4.375-4.7e-4 -2.9164-1.6672-4.3747-5-4.375-2.5005 3.1e-4 -3.7505 1.0422-3.75 3.125-4.7e-4 1.6669 0.20781 2.7086 0.625 3.125m-397.5-6.25-1.875 2.5 13.75 6.875-11.875-9.375m136.88 3.125-16.875 5.625c-3.1e-4 3.7503 0.83281 5.6253 2.5 5.625 6.2497 3.1e-4 12.916-2.9164 20-8.75l-5.625-2.5m83.75 3.75c-0.83438-2.0831-1.8753-3.1247-3.125-3.125-2.917 3.1e-4 -4.3753 1.4578-4.375 4.375-3.1e-4 1.25 0.41562 1.8753 1.25 1.875 0.83281 3.1e-4 2.9162-1.0422 6.25-3.125m-21.25-0.625-11.25 2.5c-2.0836 2.0836-3.1253 3.7503-3.125 5v1.25l1.25 1.25 5.625-1.25 14.375-2.5 4.375-2.5c-3.7503-1.6664-7.5003-2.9164-11.25-3.75m-185 3.125 3.75 2.5 1.25 1.25-5-3.75m391.88 10.625h0.625c4.5828 3.1e-4 6.8745-1.4578 6.875-4.375-4.7e-4 -2.9164-1.8755-4.3747-5.625-4.375-2.0839 3.1e-4 -3.1255 1.0422-3.125 3.125-4.7e-4 0.41719 0.41562 2.2919 1.25 5.625m-18.125-5.625c-4.1672 4.1669-7.0839 8.9586-8.75 14.375l5-4.375c2.0828-1.6664 3.9578-2.9164 5.625-3.75 1.6661-1.25 3.1245-2.0831 4.375-2.5 4.1661-0.41719 6.2495-1.6664 6.25-3.75-4.7e-4 -1.25-1.0422-2.2914-3.125-3.125h-3.125c-4.7e-4 3.1e-4 -0.625 0.41719-1.875 1.25-0.83438 0.41719-2.2922 1.0422-4.375 1.875m-66.25 2.5-9.375 3.75h-4.375l-6.25 1.25h-8.125c-8.3338 0.41719-13.334 0.83281-15 1.25-1.667 3.1e-4 -4.167 0.83438-7.5 2.5-4.5838 1.25-8.1255 3.1252-10.625 5.625-11.25 8.3336-16.875 19.167-16.875 32.5-3.1e-4 6.6669 1.8747 10 5.625 10 0.83281-0.83281 1.8747-2.0831 3.125-3.75 1.25-1.6664 2.083-4.1664 2.5-7.5l3.125-0.625c-3.1e-4 1.25-0.83438 3.3336-2.5 6.25-1.25 2.5002-1.8753 4.1669-1.875 5-3.1e-4 0.83438 0.625 1.25 1.875 1.25 2.083 1.6e-4 4.1662-2.4998 6.25-7.5 0.41562-1.6664 0.625-2.7081 0.625-3.125 0.41562-0.83281 0.625-1.4578 0.625-1.875 0.41562-2.9164 0.83281-4.5831 1.25-5h2.5l-3.125 13.75 2.5 0.625c1.6662 1.6e-4 4.3745-1.6664 8.125-5 3.7495-3.7498 6.0412-5.8331 6.875-6.25 1.25-0.83281 3.333-1.4578 6.25-1.875l-1.25 3.75 3.125-3.75-1.875-0.625 1.875 0.625-1.875 3.125-5 1.25-3.75 4.375-3.75 1.875 2.5-1.875-2.5 1.875-3.75 1.875-1.875 3.125c-2.917 2.0836-4.5838 4.7919-5 8.125l5-4.375c2.9162-2.9164 5.4162-4.3748 7.5-4.375 0.83281 1.6e-4 1.25 0.625 1.25 1.875v-2.5 3.125l-1.875-0.625-1.875 1.25h2.5l-6.25 2.5c-3.3338 2.5002-5.2088 5.2084-5.625 8.125l1.25 1.875c3.333-3.3331 6.8745-5.8331 10.625-7.5l-5.625 6.25c-1.667 1.6669-2.5005 2.9169-2.5 3.75-4.7e-4 1.25 3.5412 2.2919 10.625 3.125l16.25 1.25c12.5 0.83281 21.666-4.9998 27.5-17.5l5.625-13.125 1.25-6.25-8.125 1.25 3.75-5.625 5.625-6.25c1.6662-1.6664 2.4995-5.8331 2.5-12.5-4.7e-4 -15-2.0838-22.5-6.25-22.5l-5.625 3.75m-340.62 11.875-3.125 8.125c-1.6667 4.5836-2.5002 9.5836-2.5 15l2.5 27.5 2.5 3.125c0.41719-0.83281 0.625-2.0831 0.625-3.75-1.6e-4 0.41719-0.41719-0.625-1.25-3.125l-0.625-6.875c-1.25-7.9164-1.8752-12.708-1.875-14.375-1.6e-4 -4.9998 1.25-11.041 3.75-18.125 4.5833-10.833 9.5833-16.25 15-16.25 2.4998 3.1e-4 4.9998 1.4578 7.5 4.375v1.875c-1.6e-4 2.0836 0.625 3.1252 1.875 3.125 0.83281 1.6e-4 2.4998-2.0831 5-6.25-1.6e-4 -6.2497-2.7084-9.3747-8.125-9.375-10 3.1e-4 -17.083 5.0003-21.25 15m418.12-7.5-3.75 3.125v2.5c1.6661 2.9169 3.1245 4.3752 4.375 4.375 2.9161 1.6e-4 4.3745-1.8748 4.375-5.625-4.7e-4 -2.0831-1.6672-3.5414-5-4.375m-340.62 4.375-2.5 1.25c-1.25 10-10.625 22.084-28.125 36.25-5.8334 4.5836-12.083 7.7086-18.75 9.375-2.9169 0.41719-4.3752 1.4578-4.375 3.125 0.41719 1.25 1.25 1.8752 2.5 1.875h0.625l0.625-0.625 5-2.5 12.5-5.625c17.5-9.1664 28.958-23.333 34.375-42.5l-1.875-0.625m327.5 0-3.125 3.75c-2.5005 7.5002-3.7505 11.667-3.75 12.5-4.7e-4 1.25 1.25 2.7086 3.75 4.375v1.875c1.6661 2.5002 4.1661 7.5002 7.5 15 2.0828 3.3336 3.1245 5.6252 3.125 6.875-4.7e-4 0.41719-1.0422 1.6669-3.125 3.75l1.875-0.625c-3.3339-0.83281-5.0005-2.4998-5-5-0.41719-9.5831-4.1672-17.916-11.25-25l-2.5-0.625-2.5-1.875-4.375-2.5-8.125-3.125-1.25-1.25c-2.9172 1.6e-4 -4.3755 1.8752-4.375 5.625-4.7e-4 1.6669 1.25 5.0002 3.75 10l-4.375 0.625 3.75-1.25h-1.875c-3.7505 1.6e-4 -8.3338 1.0422-13.75 3.125l-4.375 5.625v3.125l-2.5 7.5 1.875 4.375c0.83281 1.25 1.4578 2.2919 1.875 3.125 0.41562 0.83281 1.8745 1.6669 4.375 2.5 2.9162-8.7498 8.3328-13.125 16.25-13.125 1.25 1.6e-4 3.5412 0.625 6.875 1.875l6.875 5 5.625 5.625 2.5 3.75c8.3328 14.583 12.5 31.875 12.5 51.875-4.7e-4 4.5834-0.20938 7.5002-0.625 8.75l-1.875 11.875c-0.83438 2.9167-1.4594 5.8334-1.875 8.75-0.41719 2.5002-1.0422 5.0002-1.875 7.5l6.25 0.625-1.875 7.5h1.875c2.9161-6.6666 4.7911-11.458 5.625-14.375 0.41562-0.83281 0.83281-2.0833 1.25-3.75 0.41562-2.0833 1.0406-4.7916 1.875-8.125l3.75-16.25c1.6661-4.5833 2.4995-14.375 2.5-29.375-4.7e-4 -24.167-3.9589-44.375-11.875-60.625l-4.375-10-2.5-7.5-2.5-2.5m-391.25 30.625v6.25c-1.6e-4 7.5002 0.625 12.709 1.875 15.625l4.375 11.875c1.25 3.3334 2.2916 5.0002 3.125 5 0.83281 1.6e-4 1.4578-0.20781 1.875-0.625l-1.25-6.25-4.375-13.125c-0.83281-3.3331-1.25-5.8331-1.25-7.5-1.6e-4 -19.583 6.4581-29.375 19.375-29.375 3.3331 1.6e-4 6.8748 1.8752 10.625 5.625 3.7498 3.7502 6.0416 5.6252 6.875 5.625 1.25 1.6e-4 1.8748-0.625 1.875-1.875l-3.125-6.875v-1.25c-1.6669-1.6664-3.1252-2.7081-4.375-3.125-4.5834-2.4998-8.9584-3.7498-13.125-3.75-10.417 1.6e-4 -17.917 7.9169-22.5 23.75m248.12-20.625-10 1.875h5.625l-11.25 1.25-3.75 1.875h2.5l-11.25 1.25 5.625-0.625-33.125 4.375 1.875 4.375 1.875 2.5 2.5 3.75 2.5 5 1.875 0.625 4.375 3.75 5 4.375 6.25 3.75 3.75 3.125h3.125l1.25-1.25v-1.25l-3.75-3.125 8.75 2.5-0.625-2.5-2.5-0.625-2.5-3.75 5 1.875 1.25 1.25c1.6662 1.25 2.9162 1.8752 3.75 1.875-0.41719 1.6e-4 1.0406-0.41719 4.375-1.25l-5.625-3.125-9.375-9.375-1.875-3.125h0.625c2.083 1.6669 3.7497 3.1252 5 4.375 1.6662 0.83438 3.333 1.6669 5 2.5 0.41562 3.3336 3.5412 5.2086 9.375 5.625l1.875 1.25v-0.625c-3.1e-4 -2.9164-1.0422-4.3748-3.125-4.375l-1.875-1.875h-0.625l-7.5-7.5 8.75 5.625 3.75 3.125 0.625-2.5c-3.1e-4 -0.83281-1.25-2.2914-3.75-4.375l-2.5-5.625 1.875 0.625 1.25 0.625 0.625 2.5 3.125 1.875v-4.375c-3.1e-4 -1.25-0.83438-2.7081-2.5-4.375l3.125-0.625 1.25 1.25 0.625-1.875 1.875-3.75-1.875-3.75-0.625-3.125m-109.38 9.375-1.25 0.625-5.625 13.75c-5.4169 14.584-8.1253 30.208-8.125 46.875v14.375c-3.1e-4 4.5834 0.20781 7.5002 0.625 8.75l1.25 10 4.375 18.75 5.625 14.375 3.75 6.25 1.875 2.5 1.25 2.5c1.6664-1.6666 2.9164-4.1666 3.75-7.5 2.4997 1.6e-4 4.1664 1.0422 5 3.125l1.25 1.875c2.9164 5.4167 9.3747 8.75 19.375 10 7.083 0.83281 12.083 4.375 15 10.625l0.625 4.375-2.5 3.75 6.25 3.125c2.9164 1.6667 5.833 2.5 8.75 2.5l11.25 0.625c2.9164 0 4.3747-0.83281 4.375-2.5-3.1e-4 -0.41719-0.83438-1.25-2.5-2.5-1.25-1.6666-1.8753-3.5416-1.875-5.625 4.583 1.6667 9.583 2.5 15 2.5 13.75 0 23.541-9.1666 29.375-27.5l-5.625 1.875-1.25-0.625v-3.75c0.41562-2.4998-1.0422-5.4166-4.375-8.75-5.0003-2.4998-9.167-3.7498-12.5-3.75-12.5 1.6e-4 -20.209 4.3752-23.125 13.125 1.6664 0.41719 2.4997 1.0422 2.5 1.875v3.75c-1.667 0.41719-3.1253 0.83281-4.375 1.25h-2.5c-3.3336 0-7.0836-2.0833-11.25-6.25v-1.875c-3.1e-4 -2.0833 0.83281-3.3333 2.5-3.75 3.7497-1.6666 5.6247-3.5416 5.625-5.625v-1.25c-0.83438-1.25-1.667-1.8748-2.5-1.875v0.625l-2.5 2.5-6.25 5-0.625 10c0.41719 5 5.6247 7.5 15.625 7.5 8.333 0 13.75-3.125 16.25-9.375l-1.25 0.625v-1.25c-0.41719-0.83281-0.83438-1.4578-1.25-1.875-3.1e-4 -0.41719-3.1e-4 -0.625 0-0.625-3.1e-4 -1.6666 1.8747-2.9166 5.625-3.75l8.75-1.25c1.25 0.83281 2.9162 1.8752 5 3.125 2.083 1.25 2.9162 3.3334 2.5 6.25v0.625c-2.917 5-6.667 8.9584-11.25 11.875h-1.875c-5.8338 1.25-10 1.875-12.5 1.875h-4.375c-1.667-0.41719-4.167-0.83281-7.5-1.25-3.7503 0-6.2503-0.20781-7.5-0.625l-2.5-1.25-1.875-1.25-6.25-2.5-2.5-3.75h-5l-1.25-1.25-7.5-5-3.125-1.875v-0.625l-2.5-2.5-1.875-2.5-3.125-1.875-3.125-5-5-5.625-2.5-5-5-9.375-1.25-5-3.75-12.5-0.625-18.75 5-40.625 2.5-8.75-0.625-10c-0.41719-2.4998-0.83281-3.9581-1.25-4.375-0.41719-0.41719-1.6669-0.625-3.75-0.625m-17.5 6.25c0.41719 3.7502 1.4578 5.6252 3.125 5.625 1.25 1.6e-4 2.2914-0.41719 3.125-1.25 4.5831-3.3331 6.8747-6.2498 6.875-8.75-3.1e-4 -1.25-0.625-1.8748-1.875-1.875-0.41719 1.6e-4 -0.83438 0.20938-1.25 0.625l-3.125 4.375-6.875 1.25m26.875 5 1.25 5c0.83281 0.41719 2.0831 0.625 3.75 0.625 0.83281 1.6e-4 2.9164-1.0422 6.25-3.125h1.875v9.375l1.25 3.75 0.625 2.5c3.7497 4.5834 6.6664 6.8752 8.75 6.875l1.25-0.625c4.1664-1.25 6.8747-1.8748 8.125-1.875l2.5 0.625c0.41719 1.6e-4 0.625-0.20781 0.625-0.625-3.1e-4 -1.25-0.625-2.2914-1.875-3.125-5.0003-4.9998-7.292-12.083-6.875-21.25v-8.75l-1.875 0.625h-6.875l-4.375-0.625c-2.9169-0.41719-5.4169-0.625-7.5-0.625-2.0836-0.41562-3.7503-0.625-5-0.625-2.0836 1.6e-4 -3.1253 1.4578-3.125 4.375-3.1e-4 0.83438 0.41719 3.3336 1.25 7.5m-98.125 5c-1.25 2.0836-1.8752 3.7502-1.875 5-1.6e-4 0.41719 1.25 4.3752 3.75 11.875l1.25 8.125 0.625 1.25c0.83281 2.0834 1.4578 3.1252 1.875 3.125-0.41719 1.6e-4 0.625-0.41719 3.125-1.25l-6.875-27.5-1.875-0.625m95.625 2.5c-1.6669 5.4169-2.5003 11.042-2.5 16.875-3.1e-4 0.83281-3.1e-4 1.8752 0 3.125 0.41563 0.83281 0.83281 2.0834 1.25 3.75 2.4997 3.3334 4.9997 5.0002 7.5 5 6.6664 1.6e-4 9.9997-2.2916 10-6.875-3.1e-4 0.41719-0.41719-1.0422-1.25-4.375l-7.5 4.375h-0.625c-4.5836 1.6e-4 -6.8753-3.1248-6.875-9.375-3.1e-4 -1.25 0.20781-2.9164 0.625-5 0.83281-2.0831 1.25-3.7498 1.25-5-3.1e-4 -0.83281-0.625-1.6664-1.875-2.5m50.625 3.125c-2.0836 0.41719-3.542 1.6669-4.375 3.75l-2.5 5 5 1.25 1.25-0.625v1.25l0.625-0.625c-0.41719 0.41719-1.0422 0.83438-1.875 1.25-0.83438 0.41719-2.0836 1.0422-3.75 1.875l-5.625 4.375c-0.83281 0.41719-1.4578 0.83281-1.875 1.25-3.1e-4 0.41719-0.20781 0.83281-0.625 1.25-3.1e-4 2.5002 3.7497 5.2084 11.25 8.125l5.625 2.5c4.1664 0.83281 6.2497 1.25 6.25 1.25 2.4997 1.6e-4 3.7497-0.83281 3.75-2.5v-1.875c2.9164 1.6e-4 4.583-1.4578 5-4.375h-8.125l2.5-1.25 6.25-0.625 3.75-4.375h-5l-8.75 1.25h-2.5l21.875-5c-1.25-2.9164-2.917-3.9581-5-3.125h-0.625l-8.125 1.875-1.25-1.25 9.375-1.875-4.375-1.875-3.125-1.875-7.5-0.625 2.5-3.125c-2.0836-2.4998-3.9586-3.7498-5.625-3.75-1.25 1.6e-4 -2.0836 0.20938-2.5 0.625l-1.875 1.875m46.875 7.5-6.25 1.25 0.625 0.625-2.5 0.625-1.875 1.25c-5.8338 3.7502-10.417 8.5419-13.75 14.375l-5 8.75-6.25 6.875c-6.2503 6.6669-12.709 11.458-19.375 14.375l-6.875 1.875c-2.0836 0.41719-4.167 0.83281-6.25 1.25-1.667 1.6e-4 -3.3336 1.6e-4 -5 0-3.3336 1.6e-4 -6.667-0.83281-10-2.5l-3.125-1.875c-2.5003-2.9166-3.7503-5.6248-3.75-8.125-3.1e-4 -10.417 5.2081-15.625 15.625-15.625 8.7497 1.6e-4 12.708 2.9169 11.875 8.75v1.875c1.6664-1.6666 2.4997-3.7498 2.5-6.25-3.1e-4 -6.6666-5.0003-9.9998-15-10-7.0836 1.6e-4 -14.375 3.9584-21.875 11.875-2.9169 4.1669-4.3753 8.5419-4.375 13.125-3.1e-4 7.5002 1.8747 12.708 5.625 15.625l1.875 1.875c5.8331 1.6e-4 8.7497 0.625 8.75 1.875-0.41719 0.41719-0.83438 1.0422-1.25 1.875l-1.875 1.875 0.625 1.875c0.83281 1.25 2.2914 2.0834 4.375 2.5l7.5 2.5c3.333 0.83281 4.7914 1.25 4.375 1.25 6.2497 1.6e-4 12.916-1.4578 20-4.375l5-1.875c6.2497-2.0833 13.75-6.6666 22.5-13.75 0.41562-0.41719 1.0406-1.0422 1.875-1.875 0.83281-0.83281 1.8747-1.6666 3.125-2.5l4.375-4.375 3.75-5.625c1.6662-2.4998 3.333-3.7498 5-3.75 1.25 1.6e-4 2.083 0.20781 2.5 0.625v-1.875c0.41562 0.41719 0.625 1.4578 0.625 3.125-3.1e-4 1.25-1.25 2.7084-3.75 4.375l2.5-3.75-3.75 3.75-3.75 5.625c-2.0838 3.7502-6.4588 7.5002-13.125 11.25l-13.125 7.5c-1.667 0.83281-3.9586 2.0834-6.875 3.75-2.5003 1.25-5.8336 2.7084-10 4.375h2.5l-3.125 0.625-6.875 2.5-1.875 1.875-5 2.5h1.25c-5.417 5.4167-8.1253 9.7917-8.125 13.125-3.1e-4 1.6667 1.0406 3.5417 3.125 5.625l1.25 1.875 3.75 1.25c-0.41719-0.83281-0.625-2.7083-0.625-5.625-3.1e-4 -5.4166 5.208-9.5833 15.625-12.5l25.625-6.875c14.166-3.7498 26.25-11.042 36.25-21.875 9.9997-10.833 15-22.083 15-33.75-4.7e-4 -4.5831-1.8753-9.3748-5.625-14.375l0.625-1.25-1.875 0.625-3.125-3.75-4.375-2.5-5.625-1.875h-5m90.625 1.25c-1.25 2.5002-1.8755 4.3752-1.875 5.625-4.7e-4 -1.25 3.1245 2.5002 9.375 11.25 1.6662 1.6669 2.9162 3.1252 3.75 4.375l3.75 8.75 0.625 1.875 1.875 9.375c1.25 5.8334 1.8745 10.208 1.875 13.125-4.7e-4 2.5002-0.20938 3.9584-0.625 4.375l-1.875 5c-0.41719 2.5002-1.0422 5.8334-1.875 10-0.83438 4.1667-2.0838 8.9584-3.75 14.375l-8.75 13.125-12.5 15c-1.25 0.83281-1.8755 1.4578-1.875 1.875v2.5c0.41562 0.41719 1.0406 0.625 1.875 0.625 0.41562-0.41719 1.0406-0.83281 1.875-1.25 0.83281-0.41719 1.6662-1.0422 2.5-1.875l5-5 2.5-3.75 10.625-15.625c3.7495-5.4166 7.4995-17.708 11.25-36.875 0.41562-2.0833 0.625-3.7498 0.625-5 0.41562-1.6666 0.625-2.9166 0.625-3.75-4.7e-4 -8.7498-2.5005-17.917-7.5-27.5-5.0005-9.9998-10.834-16.875-17.5-20.625m-301.88 5c1.25 0.83281 2.4998 1.8752 3.75 3.125 1.25 0.83281 2.7081 2.0834 4.375 3.75l0.625 9.375h2.5l1.875-9.375v-0.625c0.83281-5.8331-2.2919-8.7498-9.375-8.75-0.83281 1.6e-4 -1.25 0.20781-1.25 0.625l-2.5 1.875m-68.125 3.125c5.4166 1.6669 9.7916 4.5834 13.125 8.75 0.83281-2.4998 1.25-3.5416 1.25-3.125-1.6e-4 -1.6666-1.25-3.7498-3.75-6.25-2.0834-2.4998-3.9584-3.7498-5.625-3.75h-0.625l-4.375 4.375m13.75 73.75c1.25 1.6e-4 1.8748-1.0422 1.875-3.125v-1.25l-0.625-3.125-1.875-11.875-1.25-10.625-0.625-2.5c-0.41719-7.0831 1.4578-14.375 5.625-21.875 4.5833-7.9166 9.3748-13.333 14.375-16.25 2.4998-1.25 3.7498-2.4998 3.75-3.75-1.6e-4 -1.25-0.41719-1.8748-1.25-1.875-1.25 1.6e-4 -2.7084 0.83281-4.375 2.5l-7.5 6.25c-3.7502 3.3334-7.0834 9.3752-10 18.125-2.9167 8.7502-4.3752 16.25-4.375 22.5-1.6e-4 2.0834 0.20781 4.5834 0.625 7.5 0.83281 2.5002 1.6666 5.8334 2.5 10-1.6e-4 0.83281 0.20781 2.7084 0.625 5.625 0.41719 2.5002 1.25 3.7502 2.5 3.75m393.12-70.625-2.5 1.25c-3.3338 4.5834-5.0005 8.1252-5 10.625-4.7e-4 2.0834 1.0406 4.7919 3.125 8.125 2.4995-5.4166 5.6245-8.1248 9.375-8.125 9.9995 1.6e-4 15.625 11.25 16.875 33.75v5l-3.125 19.375 1.25-0.625c0.83281-0.83281 1.25-2.0833 1.25-3.75l3.125-17.5v-3.125c0.41562-9.1666-1.4594-19.583-5.625-31.25l-1.875-5.625-8.125-8.125-6.875-0.625-1.875 0.625m-350 28.125-6.25-2.5c-0.83281-4.1666-1.25-6.0416-1.25-5.625-1.6e-4 -1.6666 1.8748-4.1666 5.625-7.5l15-5 1.25-1.875-2.5-0.625c-5.0002 1.6e-4 -10.208 1.8752-15.625 5.625-5.4169 3.3334-8.1252 7.5002-8.125 12.5-1.6e-4 5.0002 1.8748 7.5002 5.625 7.5 2.4998 1.6e-4 4.5831-0.83281 6.25-2.5m46.25-5.625 0.625 4.375c-1.6e-4 2.0834-2.0836 4.5834-6.25 7.5l3.75 1.25c4.1664-2.9166 6.2498-6.0416 6.25-9.375-1.6e-4 -4.9998-1.8752-9.3748-5.625-13.125-5.0002-4.1666-9.3752-6.6666-13.125-7.5-1.25 1.6e-4 -1.8752 0.625-1.875 1.875-1.6e-4 1.6669 1.0422 2.9169 3.125 3.75 4.5831 1.6669 7.2914 2.9169 8.125 3.75 1.25 0.83281 2.9164 3.3334 5 7.5m208.12-12.5h4.375-1.875l0.625 4.375 3.125 4.375 3.125 1.25v0.625l-1.875-0.625 1.25 1.875h-4.375l-3.125-6.875 0.625 13.75 3.125 5.625c-0.83438 0.41719-1.4594 0.83281-1.875 1.25-0.41719 1.6e-4 -0.625 1.6e-4 -0.625 0-0.41719 1.6e-4 -1.0422-0.41719-1.875-1.25-0.83438-2.4998-2.0838-4.5831-3.75-6.25v8.125l1.875 3.125 0.625 2.5h-1.25c-1.25 0.83281-2.917-1.25-5-6.25-0.41719 1.25-0.625 3.1252-0.625 5.625-4.7e-4 2.0834 0.83281 4.5834 2.5 7.5l0.625 3.125 1.875 2.5v4.375l1.875 2.5 1.25 5.625c1.25 8.7502 1.8745 13.333 1.875 13.75-4.7e-4 2.5002-0.20938 4.3752-0.625 5.625 13.75-7.0833 20.833-14.375 21.25-21.875l0.625-10.625h2.5l5 5 5 1.25c1.25-6.2498 2.708-10.625 4.375-13.125-4.7e-4 1.6e-4 0.20781-1.0422 0.625-3.125 0.41562-2.0831 1.0406-5.2081 1.875-9.375l1.875-1.875-1.25-5.625c-1.25-8.3331-7.0838-12.708-17.5-13.125l-26.25-3.75m-169.38 71.25 16.875-1.25c1.6664-0.41719 2.9164-0.625 3.75-0.625 0.83281-0.41719 1.25-0.625 1.25-0.625-3.1e-4 -2.4998-1.25-3.7498-3.75-3.75h-0.625l-10 1.25h-3.125c-35.834 2.0834-64.792-6.4583-86.875-25.625l-16.875-14.375c-3.3334-2.9166-7.7084-9.3748-13.125-19.375-1.25-2.9166-2.2917-4.3748-3.125-4.375-1.6667 1.6e-4 -2.5002 1.25-2.5 3.75-1.6e-4 3.3334 1.25 6.4584 3.75 9.375l3.125 3.75 6.875 9.375c0.41719 1.25 2.9166 3.5419 7.5 6.875l13.125 11.25c16.667 14.167 38.958 22.083 66.875 23.75l16.875 0.625m-85.625-63.125v2.5c-1.6e-4 3.3334 1.25 5.0002 3.75 5l5 3.75 7.5 4.375 4.375 1.875c1.6666 0.41719 2.9166 0.83281 3.75 1.25 0.83281 1.6e-4 1.25 1.6e-4 1.25 0 0.83281 1.6e-4 1.25-1.25 1.25-3.75l-8.125-1.875-5-4.375-7.5-3.125-4.375-5-1.875-0.625m35.625 1.25-0.625 3.125 2.5 1.25-1.875-4.375m126.88 6.875-2.5-3.125c-0.41719 0.41719-0.625 1.4578-0.625 3.125-3.1e-4 1.6669 0.83281 2.5002 2.5 2.5 0.41719 1.6e-4 0.625-0.41719 0.625-1.25v-1.25m-126.88-1.875-1.25 6.25-1.875 10-2.5 8.125-0.625 7.5h1.875c3.7498-11.25 5.6248-19.167 5.625-23.75-1.6e-4 -0.83281-0.20781-1.8748-0.625-3.125-1.6e-4 -1.25-0.20781-2.9166-0.625-5m-68.75 0.625c0.83281 3.3334 2.0833 5.0002 3.75 5l-3.75-5m3.75 6.875c2.9166 4.1669 5.8333 7.9169 8.75 11.25 3.3333 2.9167 6.6666 5.8334 10 8.75l1.875 0.625v-1.875l-20.625-18.75m363.75 38.75-9.375 20.625c-2.9172 2.9167-4.3755 5.625-4.375 8.125 7.9162-9.5833 13.541-18.75 16.875-27.5l4.375-11.25c5.4162-12.5 10.208-18.958 14.375-19.375 2.0828-0.41719 4.5828-0.625 7.5-0.625h3.125v-1.25c-4.7e-4 -4.9998-2.2922-7.4998-6.875-7.5-7.0839 1.6e-4 -11.875 3.1252-14.375 9.375l-7.5 20.625-1.25 5-2.5 3.75m-30-30v6.25c1.6662-1.6666 3.7495-2.4998 6.25-2.5-0.41719 1.6e-4 1.4578 0.41719 5.625 1.25l2.5 1.875 1.25 1.875c1.6662 1.6667 2.4995 3.1252 2.5 4.375-4.7e-4 2.0834-0.20937 3.5417-0.625 4.375v6.25c-1.6672 7.0834-4.1672 12.917-7.5 17.5-0.83437 1.6667-1.8755 3.3334-3.125 5-0.83437 1.6667-2.0838 3.5417-3.75 5.625-0.83437 0.83281-1.6672 1.6667-2.5 2.5-0.41719 0.83281-0.83437 1.4578-1.25 1.875-4.7e-4 0-4.7e-4 0.20781 0 0.625 0.41563 0.41719 0.83281 1.0422 1.25 1.875l0.625-2.5c14.166-12.917 21.25-28.542 21.25-46.875-4.7e-4 -10.833-4.1672-16.25-12.5-16.25-2.0838 1.6e-4 -5.4172 2.2919-10 6.875m-299.38 6.25c1.6666 2.0834 3.5416 3.9584 5.625 5.625 2.4998 1.25 5.2081 2.7084 8.125 4.375v-1.875c-2.0834-0.83281-5.0002-3.7498-8.75-8.75-1.25-2.4998-1.8752-4.3748-1.875-5.625l0.625-0.625c0.41719-0.83281 0.625-2.0831 0.625-3.75-1.6e-4 -0.41719-0.20781-0.625-0.625-0.625-3.3334 1.6e-4 -5.0002 1.25-5 3.75-1.6e-4 0.41719-1.6e-4 1.25 0 2.5 0.41719 1.25 0.83281 2.9167 1.25 5m227.5 7.5h-3.125 3.125l-4.375-0.625c-4.5838 6.2502-6.4588 10.625-5.625 13.125l0.625 6.875c-3.1e-4 2.0834 0.83281 3.1252 2.5 3.125 2.9162 1.6e-4 6.6662-1.6666 11.25-5v1.875c-3.1e-4 1.25 0.41563 1.8752 1.25 1.875 1.25 1.6e-4 2.4997-0.83281 3.75-2.5 2.9162-4.9998 4.1662-9.3748 3.75-13.125v-7.5h-1.875l0.625 3.75-3.125-1.25-1.25-1.25-1.875 2.5-1.875 0.625c0.41563 0.41719 0.625 0.83281 0.625 1.25-3.1e-4 0.41719-0.41719 1.0422-1.25 1.875l-1.875 1.25c-1.25 1.6e-4 -1.8753-0.83281-1.875-2.5l1.25-1.875 3.125-5.625 0.625-1.25v-0.625l-0.625-1.875-3.75 6.875m-236.25 2.5v-1.875c-1.6e-4 -1.25-0.41719-1.8748-1.25-1.875-0.41719 0.41719-0.83281 0.625-1.25 0.625-1.6e-4 1.6667 0.83281 2.7084 2.5 3.125m-29.375-2.5c0.41719 2.0834 0.625 3.7502 0.625 5 0.41719 1.25 0.625 2.0834 0.625 2.5-1.6e-4 3.3334-2.9167 9.1667-8.75 17.5 7.9166-4.1666 11.875-10.417 11.875-18.75-1.6e-4 -2.9166-1.4578-4.9998-4.375-6.25m57.5 3.75h-4.375l2.5 1.875 1.875 0.625v-2.5m110 12.5 1.25 3.125c0.83281 0.83281 1.8747 1.25 3.125 1.25 1.25 1.6e-4 2.2914-0.41719 3.125-1.25l4.375-3.75 5.625-3.75h-3.125c-4.167 1.6e-4 -8.9586 1.4578-14.375 4.375m259.38-2.5-2.5 1.25c-3.3339 3.7502-5.2089 8.3334-5.625 13.75 2.9161-5.4166 6.6661-8.5416 11.25-9.375l0.625-3.75-3.75-1.875m-422.5 6.25c-11.667 9.1667-17.5 19.583-17.5 31.25-1.6e-4 11.25 3.7498 20.208 11.25 26.875 15.833 14.583 43.125 21.875 81.875 21.875 15.416 0 29.166-3.5417 41.25-10.625l16.25-8.75c2.4997-0.83281 4.1664-2.0833 5-3.75l2.5-3.75-25.625 13.75c-4.5836 2.0834-9.3752 3.9584-14.375 5.625-5.0002 1.25-10.209 2.0833-15.625 2.5l-23.125 1.25c-14.583 0.83281-31.25-2.9167-50-11.25l-1.875-1.25-1.875-0.625c-14.583-9.5833-21.875-21.25-21.875-35-1.6e-4 -7.9166 2.9166-14.583 8.75-20 6.2498-5.4166 14.167-8.1248 23.75-8.125 4.9998 0.83281 8.7498 2.5002 11.25 5 2.0831 2.0834 3.7498 3.1252 5 3.125 0.83281 1.6e-4 2.2916-1.25 4.375-3.75-7.9169-6.6666-16.042-9.9998-24.375-10-4.5834 1.6e-4 -9.5834 1.8752-15 5.625m380 13.75c-4.7e-4 0.83281-0.625 1.8752-1.875 3.125l0.625 0.625-5 7.5-1.25 3.75-4.375 6.25-1.875 5-3.75 9.375 2.5 7.5 2.5 3.125c4.1662 3.75 7.9162 5.625 11.25 5.625 7.4995 0 14.583-5.2083 21.25-15.625l4.375-4.375c5.8328-5.8333 9.5828-8.75 11.25-8.75 1.6661 0 4.1661 1.0422 7.5 3.125 0.41562 0.83281 0.625 2.5 0.625 5-4.7e-4 1.25-0.83438 2.0834-2.5 2.5l-5 4.375-7.5 2.5-8.125 5c-1.6672 2.9167-2.5005 5.8334-2.5 8.75-4.7e-4 5.8333 3.5411 8.75 10.625 8.75 2.4995 0 6.0411-1.6667 10.625-5-1.25 0.41719-3.3339 0.625-6.25 0.625-2.9172 0-5.8339-1.25-8.75-3.75-0.83438-3.3333-1.25-5.2083-1.25-5.625-4.7e-4 -2.0833 0.625-3.125 1.875-3.125l13.75-2.5c2.9161-0.41719 5.4161-2.5 7.5-6.25 2.4995-3.75 3.7495-6.875 3.75-9.375-4.7e-4 -3.3333-1.4594-7.0833-4.375-11.25-1.25-1.6666-2.2922-2.5-3.125-2.5l-1.875 0.625-4.375-0.625 0.625-5.625c-8.3339 1.25-13.959 4.375-16.875 9.375l-6.875 11.25-5.625 6.25h-3.125c-3.7505 0.83281-5.6255-0.41719-5.625-3.75-4.7e-4 -1.6666 1.6661-3.5416 5-5.625 3.3328-2.0833 7.4995-5 12.5-8.75l-0.625-2.5c-1.6672 1.6667-3.1255 2.2917-4.375 1.875h-1.875c1.25-3.3333 3.5411-6.0416 6.875-8.125l0.625 4.375c2.0828-4.1666 2.9161-8.1248 2.5-11.875v-1.875h-1.875c-1.6672 1.6e-4 -3.1255 1.0422-4.375 3.125h-2.5l2.5-0.625-3.125-0.625v-2.5c0.41562-9.1666-3.5422-14.167-11.875-15h3.125c-0.83438-0.41719-2.0838-0.625-3.75-0.625-4.1672 1.6e-4 -6.2505 1.25-6.25 3.75 0.83281 0.83281 2.7078 2.9167 5.625 6.25 2.9162 2.9167 3.9578 5.2084 3.125 6.875m16.25-6.875 2.5-5.625-1.875-3.125-0.625 5v3.75m-75-4.375-6.875-1.25c-5.417 1.6e-4 -9.5838 2.0834-12.5 6.25l-1.875 5.625c4.1662-2.9166 7.4995-4.3748 10-4.375 4.1662 1.6e-4 6.2495 2.5002 6.25 7.5-4.7e-4 0.83281-0.20938 2.0834-0.625 3.75-4.7e-4 1.25-0.20938 2.9167-0.625 5l-3.75 3.75-3.75 5.625c-1.25 0.83281-2.7088 1.875-4.375 3.125-1.25 1.25-2.7088 2.5-4.375 3.75l-5 1.875-1.875 1.25c-8.3338 4.5834-18.542 6.875-30.625 6.875-5.8338 0-11.667-0.20781-17.5-0.625-5.8338-0.83281-11.667-1.6666-17.5-2.5v2.5c0.83281 0.83281 1.25 1.6667 1.25 2.5 0.41562 0.83281 0.83281 1.4578 1.25 1.875-3.1e-4 2.0834-2.5003 2.7084-7.5 1.875l-16.25-0.625-3.75-1.25-1.25-1.25 0.625 2.5c0.83281 0.83281 2.4997 1.4578 5 1.875l16.875 7.5c12.5 5 26.666 7.5 42.5 7.5 10.833 0 19.166-0.625 25-1.875l18.75-4.375 5-0.625 16.25-6.25c3.3328 0 4.9995 1.6667 5 5-4.7e-4 4.1667-1.8755 6.25-5.625 6.25h-3.125c1.25 5 3.9578 7.5 8.125 7.5 3.7495 0 7.0828-1.875 10-5.625 3.3328-3.75 4.9995-7.7083 5-11.875-4.7e-4 -2.5-1.6672-6.0416-5-10.625l-3.125-1.875-5-1.875c1.25-2.9166 1.8745-5.2083 1.875-6.875-4.7e-4 -1.25-0.625-1.875-1.875-1.875l-4.375 0.625c-0.83438 0-2.0838 0.20781-3.75 0.625-1.667 0-3.542 0.20781-5.625 0.625h-3.125c-0.83438 0.83281-2.0838 1.875-3.75 3.125-1.25 1.25-2.917 2.7084-5 4.375-0.83438 0.41719-1.667 0.83281-2.5 1.25-0.83438 0.41719-1.8755 1.0422-3.125 1.875-3.7505 3.75-10.417 6.6667-20 8.75l-9.375 2.5v-1.25c2.083-0.41719 4.3745-1.0422 6.875-1.875 2.4995-0.83281 5.4162-1.6666 8.75-2.5l25-17.5 7.5-2.5c2.083-0.83281 3.958-4.1666 5.625-10l-4.375 0.625-0.625-1.875c2.4995-4.9998 3.7495-8.7498 3.75-11.25-4.7e-4 -4.1666-2.292-7.9166-6.875-11.25m-270.62-1.25-11.875 11.25c-8.7502 5.0002-15 7.5002-18.75 7.5-5.8334 1.6e-4 -12.083-2.7083-18.75-8.125l-2.5 2.5c-0.41719 0.83281-0.83281 1.4578-1.25 1.875-1.6e-4 0.83281 0.83281 1.6667 2.5 2.5 2.0833 0.83281 4.1666 1.6667 6.25 2.5 2.4998 0.83281 4.7916 1.6667 6.875 2.5 2.4998 0.41719 4.3748 0.625 5.625 0.625 11.667 0 19.792-3.125 24.375-9.375l5.625-8.125 3.125-2.5-1.25-3.125m-40.625 1.875c6.6666 2.0834 10.208 5.4167 10.625 10 2.9166-1.25 4.3748-2.2916 4.375-3.125-1.6e-4 -3.3333-1.4578-5.8333-4.375-7.5-0.41719-0.41719-1.4578-0.625-3.125-0.625-0.41719 1.6e-4 -1.25 0.20781-2.5 0.625-1.25 1.6e-4 -2.9167 0.20781-5 0.625m68.125 4.375-3.125 5.625-3.125 3.125-15.625 8.75c-2.9169 0.41719-5.0002 1.0422-6.25 1.875-7.0834 2.0834-10.417 3.125-10 3.125-5.0002 0.83281-7.9169 1.6667-8.75 2.5l-3.125 1.875c-0.41719 0.41719-0.625 0.83281-0.625 1.25v1.25c-1.6e-4 3.75 4.5831 5.625 13.75 5.625l55.625-1.25 57.5 3.125 7.5 0.625c1.25-0.41719 3.1247-0.625 5.625-0.625h3.75l8.75 0.625c6.6664 0 9.9997-1.25 10-3.75-3.1e-4 -1.25-0.83438-2.5-2.5-3.75l-0.625-1.875c-1.667-0.41719-3.542-0.83281-5.625-1.25-1.667-0.41719-3.7503-1.0422-6.25-1.875l-6.875-0.625-11.25-1.25-8.75-1.875-15.625-6.25c-6.2503-3.7498-10-7.4998-11.25-11.25h-15l-6.25-0.625-16.25-1.875-5.625-1.25m46.875 2.5c0.41719 3.7502 1.8747 5.6252 4.375 5.625-0.41719-2.9166-1.8753-4.7916-4.375-5.625m-81.25 13.125h1.25c2.9166 0.41719 4.3748-0.41719 4.375-2.5-1.6e-4 -1.6666-0.83281-2.4998-2.5-2.5-2.0834 1.6e-4 -3.1252 1.4578-3.125 4.375v0.625m112.5-4.375-2.5 5 3.75 1.25 0.625-5.625-1.875-0.625m123.75 1.875c-2.0838 1.6e-4 -3.3338 0.83281-3.75 2.5v1.25c-4.7e-4 3.3334 1.4578 5 4.375 5 1.6662 0 2.4995-1.25 2.5-3.75-4.7e-4 -3.3333-1.0422-4.9998-3.125-5m-299.38-1.25-3.125 5 1.875 6.875 1.25-11.875m287.5 8.75c-1.25 2.0834-1.8753 3.75-1.875 5-3.1e-4 1.6667 0.83281 2.5 2.5 2.5 2.9162 0 4.3747-1.875 4.375-5.625-3.1e-4 -2.0833-1.0422-3.125-3.125-3.125l-0.625 0.625-1.25 0.625m16.875 8.125 1.875 2.5 1.25 0.625c3.333 0 4.9995-1.6666 5-5-4.7e-4 -3.3333-1.667-5-5-5-2.5005 0-3.7505 1.6667-3.75 5l0.625 1.875m-283.75 13.125v1.25l1.875 2.5 2.5 3.125c3.7498 3.75 8.1248 5.625 13.125 5.625 9.9998 0 17.5-3.3333 22.5-10-1.6669-0.41719-3.1252-0.625-4.375-0.625-0.83281-0.41719-1.6669-0.625-2.5-0.625-1.25 0-4.5834 1.0422-10 3.125l-7.5-3.125c-2.9167-1.6666-4.3752-3.75-4.375-6.25-1.6e-4 -4.5833 2.2916-7.9166 6.875-10v-1.875c-3.3334-1.25-5.6252-1.875-6.875-1.875-4.5834 0-8.3334 1.875-11.25 5.625-1.25 2.0834-1.8752 4.1667-1.875 6.25-1.6e-4 1.6667 0.625 3.9584 1.875 6.875m-22.5-18.125v5c0.41719 2.5 0.625 5 0.625 7.5 0.41719 2.0834 1.8748 4.375 4.375 6.875l-2.5-7.5-0.625-5-1.875-6.875m298.75 3.75-5.625 5.625c-4.5838 3.3334-8.3338 5.4167-11.25 6.25l-2.5 1.875c13.333-0.83281 20-4.375 20-10.625l-0.625-3.125m-116.25 11.25-111.88-1.875c-0.83281 0.41719-2.7084 0.625-5.625 0.625-2.9169 0-6.8752-0.625-11.875-1.875 2.4998 3.75 5.4166 5.625 8.75 5.625h94.375l27.5 1.875h4.375l2.5-0.625 2.5 0.625 0.625 0.625 2.5-0.625 6.875-0.625c2.9164 0 4.3747-0.41719 4.375-1.25-3.1e-4 -1.25-0.20938-2.0833-0.625-2.5h-24.375m-101.88 15.625c-1.6e-4 6.6667 6.4581 10 19.375 10 17.083 0 29.791-3.5416 38.125-10.625l-8.75 2.5c-5.0002 0.83281-9.3752 1.6667-13.125 2.5-3.7502 0.41719-6.6669 0.625-8.75 0.625h-5.625c-2.0836-0.41719-4.5836-0.83281-7.5-1.25-4.1669-2.5-6.2502-4.7916-6.25-6.875-1.6e-4 -1.6666 2.2914-2.5 6.875-2.5l2.5 0.625c-1.6e-4 -3.75-1.4578-5.625-4.375-5.625-3.7502 0-6.8752 1.4578-9.375 4.375-2.0834 2.5-3.1252 4.5834-3.125 6.25m118.12-6.875-1.25 1.25 3.75 4.375 2.5 2.5 2.5 4.375-1.25 4.375v1.875l-4.375 2.5 0.625 2.5c2.4997 1.25 4.583 1.875 6.25 1.875 5.833 0 8.333-3.5417 7.5-10.625l-0.625-4.375 5 1.875-0.625-10.625-1.875-2.5c-2.5003-2.9166-4.167-3.9583-5-3.125l-2.5 1.875c-1.667 0.41719-5.2086 1.0422-10.625 1.875m179.38 1.25-0.625 3.75c-4.7e-4 1.6667 1.0406 3.5417 3.125 5.625l1.875 1.875 5 3.75 6.875 2.5c3.3328-2.5 4.9995-4.375 5-5.625-4.7e-4 -0.83281-0.625-1.25-1.875-1.25h-1.25 2.5c-4.5838-0.83281-8.9588-2.5-13.125-5l-3.75-5.625v-1.25c-4.7e-4 -1.25-0.41719-1.875-1.25-1.875h-1.25l-1.25 3.125m-228.12-0.625c-3.7503 1.25-6.2503 3.125-7.5 5.625l7.5-5.625m27.5 9.375 0.625 3.75c0.83281 5.8333-2.5003 8.75-10 8.75-6.2503 0-9.7919-3.5417-10.625-10.625-2.9169 0.41719-4.3753 1.4578-4.375 3.125-3.1e-4 7.9167 4.5831 11.875 13.75 11.875 6.6664 0 11.25-1.6667 13.75-5l0.625-1.875v-11.875c-3.1e-4 -1.6666 1.0406-2.5 3.125-2.5 1.6664 0 3.5414 1.25 5.625 3.75l0.625 1.25c1.6664-0.41719 2.4997-1.25 2.5-2.5-3.1e-4 -5-2.9169-7.5-8.75-7.5-4.1669 0-6.4586 3.125-6.875 9.375m50-5-1.875 1.875c0.83281 0.83281 1.8747 1.875 3.125 3.125 1.6664 1.25 3.5414 2.7084 5.625 4.375 1.25 1.25 1.8747 3.125 1.875 5.625v6.25l5.625-2.5 0.625-1.25v-1.25c-3.1e-4 -3.75-2.5003-7.2916-7.5-10.625l-5-3.125-1.875-1.25-0.625-1.25m-233.12 9.375 0.625 3.125 1.25 3.125h1.25c-1.6e-4 -5 2.4998-7.5 7.5-7.5 2.0833 0 5.4166 0.625 10 1.875l15.625 5c6.2498 1.6667 12.917 2.9167 20 3.75l-1.25-1.25-6.25-1.25-5.625-1.875c-2.0834-0.83281-4.3752-1.6666-6.875-2.5l-6.25-3.75c-7.9167-4.1666-14.375-6.6666-19.375-7.5h-0.625c-1.6667 0-4.1667 1.6667-7.5 5l-2.5 3.75m380.62-1.875c-1.25 3.75-2.9172 6.6667-5 8.75l-5 6.25 13.125 0.625 3.125-3.75 3.125-2.5-9.375-9.375m-219.38-426.88-3.75 0.625 1.25 3.125h3.75l1.875-2.5-3.125-1.25m11.875 5-5 3.125-1.25-4.375 6.25 1.25m3.125 7.5-1.875 2.5-2.5-3.75 0.625-2.5 6.25 1.25-2.5 2.5m3.75 0.625 6.875 1.25-5.625 5-3.125-2.5 1.875-3.75m13.75 9.375-7.5 3.125-1.875 1.25c-0.83281-1.25-0.20938-2.9162 1.875-5l1.25-1.25 6.25 1.875m0 3.75-3.75 0.625-1.875 5.625 5.625-1.875c0.41719 4.7e-4 0.625-0.20781 0.625-0.625 0.41562-0.83281 1.25-1.25 2.5-1.25l-3.125-2.5m-140 2.5 3.75 11.25v11.25l-3.125-5 0.625-4.375-0.625-6.25-3.125-12.5 2.5 5.625m-18.125 2.5 1.875 0.625 1.25 1.875-1.25 3.125-4.375-1.25 2.5-4.375m6.875 6.875 1.875 3.75-5 1.875c0.83281-0.41562 1.0422-0.625 0.625-0.625-0.41719-0.41562-0.625-0.20781-0.625 0.625-1.6e-4 -2.9162-0.41719-3.958-1.25-3.125 0.83281-0.41562 1.4578-0.83281 1.875-1.25 0.83281-0.41562 1.6666-0.83281 2.5-1.25m0.625 6.875 1.25 3.75-3.75 2.5-0.625-3.125 3.125-3.125m-1.25 9.375h3.125l1.875 0.625c-1.6e-4 1.667-0.20781 2.917-0.625 3.75-0.41719-0.41562-1.8752-0.41562-4.375 0v-4.375m3.75 8.75 4.375 2.5-5 3.125 0.625-5.625m28.75 5.625 2.5-1.875 1.875 1.25-0.625 3.75-3.75-0.625v-2.5m-6.25 6.25c-0.41719 2.917-2.0834 4.167-5 3.75-3.7502-1.25-4.7919-2.083-3.125-2.5h3.75l1.875-1.25h2.5m-20-0.625 1.25 1.875 1.875-1.25 3.125 6.25c1.6666 3.7503 3.9581 7.7088 6.875 11.875l5 6.875 0.625 1.875 8.125 8.75 3.75 3.125 1.875 3.75c1.6666 0.83438 3.1248 1.8753 4.375 3.125 1.6666 0.83438 3.5416 1.667 5.625 2.5l6.25 4.375-1.875 1.875-4.375-3.125-3.125-1.25-3.125-2.5-4.375-3.125-1.25-1.25-10-9.375-3.75-5c-0.83281-1.25-1.8752-2.708-3.125-4.375-0.83281-2.083-2.0834-4.1662-3.75-6.25l-10-15.625v-3.125m30.625 1.875-1.875 1.875c-2.5002-0.41562-3.7502-0.20781-3.75 0.625-1.6e-4 -1.25 1.0422-2.2912 3.125-3.125l2.5 0.625m-16.25 7.5 2.5-1.25h0.625c2.0831 3.1e-4 3.1248 0.20938 3.125 0.625-1.6e-4 1.25-1.0422 1.8753-3.125 1.875-1.6e-4 3.1e-4 -0.41719 3.1e-4 -1.25 0-0.41719-0.41562-1.0422-0.83281-1.875-1.25m-23.75 5.625-0.625 1.875-3.75-1.25-1.25-1.875-3.125-2.5-3.125-3.125 1.25-1.25c0.41719 3.1e-4 2.0833 1.25 5 3.75 2.9166 2.5003 4.7916 3.9588 5.625 4.375m35-6.25 2.5-0.625 0.625 1.25-0.625 2.5-3.125 1.25 0.625-4.375m-50.625-0.625c0.83281 0.83438 1.25 1.4594 1.25 1.875 0.41719 0.41719 0.83281 0.83438 1.25 1.25 0.83281 2.0838 4.3748 5.2088 10.625 9.375l1.875 1.875h-3.75l-1.875-0.625-1.875-1.25-3.125-3.125-6.875-8.125 2.5-0.625v-0.625m43.75 6.25 2.5 0.625 1.25-1.25c-1.6e-4 0.83438-0.41719 1.667-1.25 2.5-2.0834 0.83438-3.3334 0.41719-3.75-1.25l1.25-0.625m1.25 6.25 1.875 1.875 3.125-1.875-1.875-1.25-3.125 1.25m8.125-3.75 6.25 11.25c1.25 3.3338 3.1248 5.8338 5.625 7.5l3.125 5.625 3.75 3.125 4.375 3.75-6.25-1.875-6.875-7.5-3.125-5-3.75-6.875-4.375-6.875v-0.625c-1.6e-4 -1.25 0.625-1.8747 1.875-1.875 0.41719 0.41719 0.625 0.83438 0.625 1.25 0.41719 0.41719 0.83281 0.83438 1.25 1.25l-2.5-3.125m-10 21.875c0.83281 4.167 1.25 6.4588 1.25 6.875-1.6e-4 1.667-2.0834 3.1253-6.25 4.375l-0.625-1.875c2.4998-0.41719 3.7498-1.6664 3.75-3.75-1.6e-4 -2.083-0.20781-3.5412-0.625-4.375l2.5-1.25m3.125 12.5-2.5 1.25 1.25-1.875 2.5-2.5 1.25-3.125v-0.625c1.6666 3.1e-4 2.4998 1.0422 2.5 3.125-1.6e-4 3.1e-4 -0.41719 0.41719-1.25 1.25-0.83281 0.41719-2.0834 1.25-3.75 2.5m7.5-2.5h1.25c2.0831 3.1e-4 3.1248 1.667 3.125 5-1.6e-4 -0.41719-2.0834-0.41719-6.25 0l1.875-5m-34.375 9.375-5-1.875 6.25-1.875-1.25 3.75m8.125-3.125 2.5-0.625 0.625 1.875-0.625 3.125h-3.75l-1.25-2.5 2.5-1.875m46.25 10.625-28.125-6.25-10-1.25v-1.25c0.41719-0.41719 1.6666-0.625 3.75-0.625 10.833 3.1e-4 22.292 3.1253 34.375 9.375m291.25 33.75 3.75 1.25v13.75-0.625l1.25-0.625h-1.25c-0.83438-1.6664-1.4594-3.1247-1.875-4.375-0.41719-1.6664-1.0422-3.5414-1.875-5.625v-3.75m-180 14.375h4.375c-7.0836 4.5836-13.334 6.8753-18.75 6.875-2.5003 3.1e-4 -4.3753-0.20781-5.625-0.625l5-2.5 3.125-0.625c2.4997 3.1e-4 6.458-1.0406 11.875-3.125m159.38 31.25c-2.5005 4.1669-4.7922 6.6669-6.875 7.5l-5 1.25 1.875 0.625h-4.375l-11.25 2.5 0.625 6.875-1.875 2.5v-1.25h-6.875l-13.125 2.5 4.375-0.625h-4.375l-7.5-2.5 2.5 1.25h-1.875l0.625 1.875c-0.83438 0.83438-1.667 1.25-2.5 1.25h-0.625 1.875l-11.875 1.875 4.375 1.25-10 1.875-3.125 3.75 4.375-0.625-0.625 3.125h-1.875l-5 1.875h1.25l-3.75-0.625c5.833-14.166 15-20.833 27.5-20h0.625l15 1.875 8.75-0.625-1.25-6.25h-1.875c0.83281-2.0831 1.8745-3.1248 3.125-3.125l2.5 0.625h4.375c7.4995 1.6e-4 12.5-1.4578 15-4.375 2.9162-3.3331 4.7912-4.9997 5.625-5l1.25 0.625m0 15.625c-1.25 5.8336-3.9588 10.834-8.125 15l-0.625-2.5 3.75-5 3.125-8.75 1.875 1.25m-18.125 10 1.25-2.5h-3.75l-4.375 1.875c-4.7e-4 2.5002 0.41562 3.7502 1.25 3.75h1.875l3.125-0.625 0.625-2.5m-107.5 9.375 3.75 2.5 1.875 1.875c-3.1e-4 0.83438-0.41719 1.25-1.25 1.25-0.83438 1.6e-4 -2.292-1.6664-4.375-5v-0.625m111.88 20c-4.7e-4 -2.0831-1.0422-2.4998-3.125-1.25l-4.375 2.5-8.75 3.75c-4.7e-4 -0.41719 0.625-0.41719 1.875 0 2.9162 1.6e-4 4.7912-0.20781 5.625-0.625l4.375-2.5 4.375-1.875m9.375-1.875c-0.41719 3.3336-5.4172 7.2919-15 11.875l-3.125 3.125-6.875 1.25 25-16.25m76.875 5.625-4.375 1.875c-1.25-1.25-1.8755-2.4998-1.875-3.75l0.625-3.125h2.5l1.25 0.625c0.41562 0.41719 0.83281 0.83281 1.25 1.25 0.41563 1.6e-4 0.83281 0.20938 1.25 0.625l-0.625 2.5m-155.62 0c2.4997-0.41719 4.583 0.20781 6.25 1.875 2.083 1.6669 2.708 2.5002 1.875 2.5l1.25 1.875-1.25 0.625c-2.0838-2.9166-4.792-4.5831-8.125-5v-1.875m156.25 6.875c1.6661 3.3334 1.6661 5.2084 0 5.625-1.25 0.41719-1.4594 0.83281-0.625 1.25l-2.5-1.875-1.25-4.375 1.25-1.25 3.125 0.625m-141.25 8.75c0.83281 4.1669 1.25 6.0419 1.25 5.625-3.1e-4 0.83281-2.0838 4.5834-6.25 11.25v-3.75c2.083-3.3331 3.1247-6.0416 3.125-8.125l-0.625-5h2.5m143.12 3.75-3.125 4.375 2.5 3.125 2.5-2.5-1.875-5m-93.125 10-4.375-3.125 2.5 6.875-3.75 18.125 1.25 6.875 1.875-8.125c0.41563-0.83281 0.625-2.7081 0.625-5.625-4.7e-4 -2.9166 0.83281-5.4166 2.5-7.5 0.41563-0.41719 0.625-1.8748 0.625-4.375-0.41719-0.41719-0.625-0.83281-0.625-1.25-4.7e-4 -0.83281-0.20937-1.4578-0.625-1.875m-9.375 4.375c3.7495 0.83281 4.7912 3.3334 3.125 7.5-0.41719 0.83281-1.0422 2.0834-1.875 3.75-0.83438 1.6669-1.8755 3.9584-3.125 6.875l-0.625-1.25 0.625-3.75 1.25-4.375 1.25-5.625-0.625-3.125m-123.12 19.375 5.625 1.875-10 1.25 4.375-3.125m8.75 6.25h2.5l-5 1.875 3.75-1.25-3.75 1.25-3.75 0.625-8.75 0.625 0.625 0.625-2.5-1.25v-1.25l8.75-0.625 8.125-0.625m124.38 66.25 1.875 0.625-0.625 1.875-6.875 2.5-2.5 2.5h-1.25c-0.83437 0-1.25-0.41719-1.25-1.25-4.7e-4 0 0.83281-0.41719 2.5-1.25 2.083-1.25 4.7912-2.9166 8.125-5m53.125 0.625 2.5 6.875 2.5 2.5h1.25l-7.5-1.875c-1.25-1.6666-1.8755-3.125-1.875-4.375-4.7e-4 -1.25 0.20781-2.0833 0.625-2.5l2.5-0.625m-169.38 1.25 5 1.25 1.875 1.875h-8.75l-3.75-3.125h5.625m166.25 7.5c0.41563 2.0834 1.6662 3.5417 3.75 4.375l-2.5 0.625c-2.9172 0-4.3755-1.4578-4.375-4.375-4.7e-4 -0.83281 0.41563-1.25 1.25-1.25l1.875 0.625m-111.88 6.875 1.875 5.625 8.75-1.25-5.625-0.625-0.625-1.875c-2.917-2.9166-4.3753-3.5416-4.375-1.875"
         fill="#8f0005"
         id="path13" />
    </g>
  </g>
</svg>
