<?xml version="1.0" encoding="UTF-8" standalone="no"?>
<svg
   xmlns:dc="http://purl.org/dc/elements/1.1/"
   xmlns:cc="http://creativecommons.org/ns#"
   xmlns:rdf="http://www.w3.org/1999/02/22-rdf-syntax-ns#"
   xmlns:svg="http://www.w3.org/2000/svg"
   xmlns="http://www.w3.org/2000/svg"
   xmlns:sodipodi="http://sodipodi.sourceforge.net/DTD/sodipodi-0.dtd"
   xmlns:inkscape="http://www.inkscape.org/namespaces/inkscape"
   version="1.1"
   viewBox="0 0 500 500"
   id="svg21"
   sodipodi:docname="william-morris-letter-r.svg"
   inkscape:version="1.0.2 (1.0.2+r75+1)">
  <metadata
     id="metadata25">
    <rdf:RDF>
      <cc:Work
         rdf:about="">
        <dc:format>image/svg+xml</dc:format>
        <dc:type
           rdf:resource="http://purl.org/dc/dcmitype/StillImage" />
      </cc:Work>
    </rdf:RDF>
  </metadata>
  <sodipodi:namedview
     pagecolor="#ffffff"
     bordercolor="#666666"
     borderopacity="1"
     objecttolerance="10"
     gridtolerance="10"
     guidetolerance="10"
     inkscape:pageopacity="0"
     inkscape:pageshadow="2"
     inkscape:window-width="1920"
     inkscape:window-height="1016"
     id="namedview23"
     showgrid="false"
     inkscape:zoom="1.686"
     inkscape:cx="255.33808"
     inkscape:cy="250"
     inkscape:window-x="0"
     inkscape:window-y="27"
     inkscape:window-maximized="1"
     inkscape:current-layer="svg21" />
  <defs
     id="defs7">
    <linearGradient
       id="linearGradient847"
       x1="500"
       x2="0"
       y1="500"
       y2="-4.2633e-14"
       gradientTransform="translate(6.2354e-6)"
       gradientUnits="userSpaceOnUse">
      <stop
         stop-color="#ff6700"
         offset="0"
         id="stop2" />
      <stop
         stop-color="#ffd700"
         offset="1"
         id="stop4" />
    </linearGradient>
  </defs>
  <path
     d="m 147.12,41.91 c -4.2121,0.58597 -8.4245,1.1737 -12.637,1.7598 -0.0228,0.5505 -0.0606,1.625 -0.0606,1.625 0,0 -30.827,4.8228 -35.23,5.2422 -4.403,0.4194 -39.004,-3.3555 -39.004,-3.3555 0,0 -10.065,-2.0959 -9.4355,-1.4668 0.6291,0.6291 -2.7278,8.8074 -2.9375,12.582 -0.025,0.44998 -0.13696,0.86868 -0.30859,1.2598 0.37939,2.306 0.75953,4.6119 1.1387,6.918 0.94278,0.30512 1.8854,0.61086 2.8281,0.91602 l 1.6152,-2.7402 0.89062,0.59375 c 1.4828,0.44484 28.617,11.861 28.617,11.861 0,0 -0.29572,0.58468 -0.74805,1.4277 4.971,6.0406 9.9504,12.073 14.898,18.133 0.59835,6.1351 0.86359,12.299 1.2285,18.451 0.09822,1.841 0.21227,3.678 0.30078,5.5176 l 2.8555,-1.1211 0.14844,6.377 c 0,0 10.38,7.7088 11.121,7.5606 0.741,-0.1482 21.5,2.5215 21.5,2.5215 l 14.5,-3.8027 c 0.0336,-17.055 0.0665,-34.111 0.0996,-51.166 6.938,-2.5387 13.735,-5.4591 20.732,-7.8379 0.86716,-0.29009 1.9751,-0.65967 2.8633,-0.93164 2.6143,-0.77535 5.2939,-1.6505 8.0586,-1.3945 10.408,0.46215 20.836,1.1917 31.26,1.8594 8.1342,0.56118 16.278,1.0539 24.404,1.6719 9.6143,2.7887 19.23,5.575 28.844,8.3652 0.0164,-0.04563 0.0428,-0.08652 0.0879,-0.11523 1.1534,-0.73395 5.8711,-9.4355 5.8711,-9.4355 l 6.9199,-12.688 7.2344,-7.3398 0.21094,-2.3066 c 0.73347,0.70158 2.2467,0.9728 3.9922,1.0273 0.94382,-0.68646 1.888,-1.3724 2.832,-2.0586 -2.3619,-1.5506 -4.7228,-3.1027 -7.084,-4.6543 -32.487,-0.77461 -64.974,-1.5506 -97.461,-2.3242 0.48958,0.44596 0.97917,0.89193 1.4688,1.3379 l -5.3106,0.23242 c -0.68425,1.4612 -1.1836,2.4453 -1.1836,2.4453 l -31.287,-0.59375 c 0,0 -1.5931,-2.8842 -2.3887,-4.334 -0.48197,-0.0072 -0.9641,-0.02356 -1.4453,-0.01953 z m 148.99,10.736 c -1.9771,1.1281 -4.623,2.5039 -4.623,2.5039 l -7.9688,6.8164 -7.8633,12.896 -2.2676,9.8262 c 3.0107,3.6209 6.0206,7.2424 9.0312,10.863 l 0.78516,-0.87305 c 2.3067,1.8873 12.582,13.002 12.582,13.002 0,0 0.11693,3.5642 -1.1484,4.9961 2.9655,8.9648 5.9309,17.93 8.8965,26.895 l 2.3184,0.82226 1.5723,7.6543 c 0,0 2.0966,5.9752 -0.73437,6.0801 -0.83004,0.0307 -1.6287,0.0804 -2.459,0.13086 -0.009,0.1895 -0.0229,0.37817 -0.0254,0.56835 -0.024,1.2679 0.88638,2.5772 2.2285,2.6035 0.49834,-0.0451 0.99908,-0.036 1.5,-0.006 l 3.3691,-1.1992 c 1.9921,0 31.56,0.41992 31.561,0.41992 l 13.211,7.2871 c 1.5101,-8.3205 3.0182,-16.641 4.5234,-24.963 -4.0434,-13.457 -8.0939,-26.913 -12.141,-40.369 -10.347,-10.648 -20.692,-21.296 -31.039,-31.943 -7.1017,-4.6724 -14.205,-9.3419 -21.309,-14.012 z M 98.47,135.921 c 7.06e-4,0.125 0.0012,0.24999 0.002,0.375 0.36297,63.423 0.72722,126.85 1.0898,190.27 l 21.34,6.8555 10.064,6.6055 11.324,13.631 -1.0352,1.2422 c 2.1416,1.5446 4.3646,2.9782 6.6113,4.3613 1.2013,0.71935 2.4039,1.4373 3.6055,2.1562 -0.32586,-33.198 -0.65099,-66.396 -0.97656,-99.594 27.484,0.0671 54.969,0.13411 82.453,0.20117 1.3451,0.67691 2.766,1.2587 4.0645,1.9941 5.5491,6.962 11.096,13.926 16.646,20.887 0.42904,-0.49942 0.86789,-0.99033 1.3008,-1.4863 0.34437,-2.1101 0.77083,-4.3056 1.0918,-4.5195 0.6291,-0.4194 10.17,-10.17 10.17,-10.17 0,0 1.4685,5.6613 2.4121,6.1856 0.14734,0.0818 0.15441,0.45695 0.0781,0.99414 2.2758,4.7726 4.551,9.5454 6.8262,14.318 0.32596,-0.33549 0.65256,-0.67036 0.97851,-1.0059 0.0158,-1.2842 0.0332,-2.7207 0.0332,-2.7207 0.2097,-0.52425 4.9812,-9.4895 5.7676,-9.6992 0.7864,-0.2097 11.586,-2.9883 11.586,-2.9883 l 1.7285,9.5938 c 0,0 -0.47449,0.95062 -0.69727,1.4004 0.20808,0.58814 0.42016,1.1745 0.63086,1.7617 6.0999,-3.4304 18.5,-10.25 18.5,-10.25 l 0.78125,2.0254 c 0.69469,-0.43876 1.3893,-0.87766 2.084,-1.3164 -9.2183,-12.318 -18.435,-24.638 -27.652,-36.957 15.872,-8.1552 31.744,-16.308 47.615,-24.465 4.9904,-9.4696 9.9797,-18.94 14.969,-28.41 0.38642,-2.1081 0.76671,-4.2173 1.1484,-6.3262 -0.87401,-0.1081 -1.746,-0.22571 -2.6191,-0.33789 -0.65445,0.79522 -1.2595,1.2932 -1.7578,1.2754 -2.9358,-0.10485 -37.535,-1.5723 -37.535,-1.5723 l -13.693,-0.18555 c -4.076,7.8784 -8.1555,15.755 -12.232,23.633 -7.5866,6.9147 -15.173,13.829 -22.76,20.744 -16.148,3.3073 -32.297,6.6146 -48.445,9.9219 l -15.971,-0.69727 -0.45117,1.4199 -51.166,0.41992 c 0,0 0.92261,-4.6265 1.8457,-9.4141 0.0545,-28.225 0.11031,-56.451 0.16406,-84.676 l -17.004,2.5781 -19.129,-2.2246 -9.0449,-3.8555 c 0,0 -2.2697,-0.93244 -4.7422,-1.9785 z m 246.22,178.2 c -0.47461,0.1901 -0.94922,0.38021 -1.4238,0.57031 -0.16522,0.0661 -0.33088,0.13115 -0.49609,0.19727 -2.0953,2.1446 -6.4275,6.4969 -7.4512,6.8906 -1.363,0.52425 -6.0801,7.2344 -6.0801,7.2344 0,0 -15.728,16.777 -18.979,18.664 l -1.4219,-1.7109 c -1.2701,1.1328 -2.5405,2.2656 -3.8105,3.3984 0.38246,0.47895 0.76415,0.95845 1.1465,1.4375 1.1582,-0.70199 6.0185,-3.6384 6.3926,-3.5449 0.4194,0.10485 2.6211,3.041 2.6211,3.041 l 0.62891,-0.20898 c 0.73395,0.4194 11.115,13.84 11.115,13.84 l 9.8555,11.639 -3.25,4.9277 -2.0957,1.9883 c 1.0741,1.3427 2.1431,2.6898 3.2188,4.0312 7.1066,8.6451 14.179,17.322 21.307,25.947 7.2906,6.8488 14.549,13.734 21.859,20.561 8.098,6.62 16.197,13.239 24.295,19.859 9.2778,2.4297 18.581,4.8267 28.029,6.5039 2.4353,0.35143 4.9193,0.87576 7.3828,0.53126 0.97057,-0.20687 1.7754,-0.86265 2.7754,-1 5.1126,-1.1707 10.311,-1.6838 15.48,-2.4121 2.3136,-0.37703 4.7015,-0.48593 6.9336,-1.2422 1.2027,-0.59701 1.507,-2.0355 2.1602,-3.1016 2.7793,-5.5308 5.4436,-11.118 8.1348,-16.691 -3.4597,-0.90598 -6.9312,-1.7739 -10.387,-2.6973 -0.85386,1.5909 -1.4922,2.7694 -1.4922,2.7695 l -28.729,-10.066 c 0,0 -60.183,-68.992 -62.07,-68.992 -1.1651,0 -1.5297,-5.6672 -1.5898,-10.207 -8.0201,-10.719 -16.041,-21.437 -24.061,-32.156 z m -11.246,20.512 c 0.18843,0.002 0.35318,0.0127 0.49219,0.0312 2.2242,0.29656 5.6348,2.8164 5.6348,2.8164 l -3.2617,11.27 -4.4492,5.1894 c 0,0 -7.4131,2.6694 -8.3027,2.2246 -0.88968,-0.44484 -10.676,-9.0449 -10.676,-9.0449 l 9.7852,-10.824 c 0,0 7.9509,-1.6947 10.777,-1.6621 z m -233.83,0.57812 c 0.0059,1.0234 0.01172,2.0469 0.01758,3.0703 0.0416,7.2786 0.0837,14.557 0.125,21.836 l 1.2266,-0.80078 c 0,0 9.6467,4.0885 11.01,4.5078 1.363,0.4194 -4.9283,4.0904 -5.3477,4.5098 -0.4194,0.4194 -2.832,5.7656 -2.832,5.7656 l 2.2031,3.4609 4.6133,1.4668 3.459,0.31445 5.9766,-3.7734 c 0,0 3.3561,-7.0254 3.4609,-9.0176 0.10485,-1.9921 -1.8887,-12.268 -1.8887,-12.268 l -3.1445,-2.8301 -3.041,-5.9766 c 0,0 -12.058,-7.7584 -12.688,-7.8633 l -0.54883,-1.2715 c -0.86722,-0.37667 -1.735,-0.75271 -2.6016,-1.1309 z m 35.98,27.652 1.2461,11.133 -4.0879,11.637 c 0,0 -11.325,14.574 -12.059,15.203 -0.36851,0.31587 -4.4994,1.2893 -8.5391,2.1836 -0.11931,0.1 -0.23808,0.20085 -0.35742,0.30078 -4.081,2.1072 -8.1635,4.2144 -12.244,6.3223 -0.65447,2.5939 -1.1979,5.2258 -2.1094,7.7461 -10.204,3.7123 -20.393,7.4665 -30.588,11.203 -3.4889,-0.11232 -6.978,-0.22097 -10.467,-0.33593 -0.71808,1.6461 -1.4378,3.2916 -2.1562,4.9375 l 1.9785,13.672 1.3379,2.8457 c 7.1516,2.9084 14.303,5.8178 21.455,8.7246 5.4692,-1.8272 10.926,-3.7011 16.443,-5.3809 2.0441,-1.6348 4.029,-3.2567 4.6543,-3.3262 1.3345,-0.14828 39.145,1.7793 39.145,1.7793 -1e-5,0 29.657,0.002 33.809,-0.29492 4.152,-0.29656 33.363,1.3343 34.549,1.6309 1.186,0.2966 6.5254,-9.0449 6.5254,-9.0449 l -10.381,-12.9 -34.4,-1.9277 c 0,0 -9.9353,-7.8602 -11.566,-8.6016 l -0.88867,-0.44336 0.26758,-5.5215 c -1.7399,-1.885 -3.4807,-3.7691 -5.2207,-5.6543 -0.12204,-12.503 -0.24558,-25.006 -0.36718,-37.51 l -9.5938,-3.0117 -0.92188,-2.6641 c -1.821,-0.90033 -3.6418,-1.801 -5.4629,-2.7012 z m -18.674,22.875 c 0,0 -7.3396,2.5156 -7.9688,2.5156 -0.54622,0 -5.7951,-0.69994 -7.3457,-0.9082 -0.56309,0.19614 -1.1265,0.39149 -1.6895,0.58789 0.01587,2.8919 0.03397,5.7838 0.05078,8.6758 1.8397,-0.0474 6.7785,-0.17578 7.3066,-0.17578 0.6291,0 5.5566,-3.3555 5.5566,-3.3555 l 2.9356,-3.041 1.1543,-4.2988 z"
     fill="#f4eee6"
     id="path11" />
  <g
     id="g19">
    <g
       transform="translate(-146.86,-119.79)"
       id="g17">
      <path
         d="m146.86 619.79v-500h500v500h-500m7.5-7.5h485v-484.38h-485v484.38m7.5-8.125v-468.75h469.38v468.75h-469.38m197.5-446.25 5 3.75 18.75-2.5 5 3.75h0.625c2.083 4.7e-4 3.1247-1.0406 3.125-3.125-3.1e-4 -3.7495-3.1253-5.6245-9.375-5.625h-3.125l-5.625 2.5h-6.875c-1.6669-1.6662-2.5003-3.3328-2.5-5-3.1e-4 -4.5828 3.7497-6.8745 11.25-6.875 4.9997 4.7e-4 9.583 1.4594 13.75 4.375l16.25 9.375c0.83281 0.83437 2.2914 1.25 4.375 1.25 8.7497 4.7e-4 12.708-2.2912 11.875-6.875v-0.625c-2.917 1.6672-5.8336 2.5005-8.75 2.5-5.417 4.7e-4 -8.9586-0.83281-10.625-2.5l-13.75-10c-3.3336-2.0828-7.7086-3.1245-13.125-3.125-3.7503 4.7e-4 -7.7086 1.25-11.875 3.75-3.7503 2.5005-5.6253 5.6255-5.625 9.375-3.1e-4 0.41719 0.41719 2.2922 1.25 5.625m-190-11.25 5-0.625c2.4998 4.7e-4 5.6248 2.2922 9.375 6.875 1.25 2.5005 1.8748 4.5838 1.875 6.25-1.6e-4 0.41719-0.41719 2.2922-1.25 5.625l-0.625 3.125-1.25 3.125-1.25 1.875c-0.83281 4.167-2.7084 8.3338-5.625 12.5l-0.625 5-2.5 8.125v5.625l-2.5 10v13.75l1.25 4.375 1.25 14.375c1.6666 10.417 3.3333 15.625 5 15.625 3.3333 3.1e-4 4.5833-1.6662 3.75-5v-0.625c0.41719 0.41719 1.25 0.625 2.5 0.625 2.0833 3.1e-4 3.1248-1.25 3.125-3.75v-21.25l1.25-6.875c2.9166-12.5 8.9583-18.75 18.125-18.75 1.25 4.7e-4 3.5416 0.625 6.875 1.875l1.875 2.5 1.25 1.875-0.625 2.5-1.25 4.375-5.625 1.25-6.25 1.25c-4.5834 0.83437-6.8752 3.1255-6.875 6.875-1.6e-4 3.3338 2.7083 5.8338 8.125 7.5l1.875-6.875 13.75-5.625c2.9166-1.25 4.3748-4.1662 4.375-8.75-1.6e-4 -7.083-3.3334-11.458-10-13.125l0.625-3.125 2.5-3.125 0.625-0.625c-1.6e-4 -2.083-2.2919-3.5412-6.875-4.375-1.25-0.83281-3.3334-1.4578-6.25-1.875l-8.75 3.75-3.125 3.75-5 6.25c-2.5002 2.917-4.3752 7.5005-5.625 13.75l-0.625-1.25-1.25 5.625v8.75l-1.875 0.625h0.625-0.625c-0.41719-1.25-0.625-3.958-0.625-8.125-1.6e-4 -3.7495 0.83281-7.083 2.5-10l12.5-23.75c1.25-2.4995 1.8748-5.4162 1.875-8.75-1.6e-4 -0.41563-0.41719-2.2912-1.25-5.625l1.25-3.125c2.0833-3.3328 3.1248-5.6245 3.125-6.875-1.6e-4 -0.83281-1.0422-3.9578-3.125-9.375l-1.25-1.875c-0.41719 1.6672-1.0422 2.5005-1.875 2.5l-2.5-0.625v-0.625l0.625-5c-1.6e-4 -1.6662-1.25-4.1662-3.75-7.5-2.9167-1.6662-5.6252-2.4995-8.125-2.5-5.0002 4.7e-4 -7.7084 2.5005-8.125 7.5m388.75 1.25c-5.8338 3.3338-9.7922 5.0005-11.875 5-3.3338 4.7e-4 -7.7088-1.25-13.125-3.75l0.625 3.125 5 0.625 8.75 2.5 5-0.625 6.875-1.25c3.7495-0.41563 5.6245-3.1245 5.625-8.125-4.7e-4 -2.0828-0.625-3.5412-1.875-4.375l-4.375-1.875-0.625 8.75m-33.75 1.875c0.83281 5.8338-1.4594 8.7505-6.875 8.75-7.917 4.7e-4 -11.875-2.2912-11.875-6.875-4.7e-4 -3.3328 1.4578-4.9995 4.375-5l6.875-0.625c0.83281 4.7e-4 1.25-0.41563 1.25-1.25-4.7e-4 -1.6662-1.667-2.4995-5-2.5-7.5005 4.7e-4 -11.25 3.1255-11.25 9.375-4.7e-4 4.1672 1.6662 6.6672 5 7.5l7.5 2.5c0.41562 0.41719 4.9995-1.25 13.75-5l1.25-3.125-1.25-3.75c-0.41719-0.41563-0.625-1.25-0.625-2.5-4.7e-4 -2.4995 2.0828-3.9578 6.25-4.375l8.75 2.5c-2.0838-3.7495-4.7922-5.6245-8.125-5.625-7.5005 4.7e-4 -10.834 2.5005-10 7.5v2.5m-321.88-9.375-1.875 2.5c3.7498 4.7e-4 5.6248 2.0838 5.625 6.25-1.6e-4 3.3338-1.4578 6.4588-4.375 9.375l1.25 1.875 2.5-3.75 2.5-3.125c1.6666-1.6662 2.4998-3.7495 2.5-6.25-1.6e-4 -4.1662-0.83281-6.2495-2.5-6.25l-3.125-0.625h-2.5m41.875 1.875-13.75 5-5.625 1.25-15 9.375-6.875 7.5c1.25 0.41719 3.1248 0.625 5.625 0.625h4.375l3.125-0.625 18.75-10.625c6.2498-3.7495 15.625-5.6245 28.125-5.625 12.916 4.7e-4 25.416 3.5422 37.5 10.625 4.1664 3.7505 6.8748 5.6255 8.125 5.625 0.83281 4.7e-4 1.4578-0.20781 1.875-0.625l1.875-1.875 1.875 1.875c0.41719 0.41719 1.25 0.625 2.5 0.625 2.0831 4.7e-4 3.1247-0.83281 3.125-2.5-3.1e-4 -1.6662-3.1253-4.7912-9.375-9.375l-3.125-2.5-5-1.875-1.875-2.5-1.875 0.625c-0.83281 0.41719-2.2919 4.7e-4 -4.375-1.25-1.6669-1.25-2.9169-2.0828-3.75-2.5-10.417-2.0828-19.792-3.1245-28.125-3.125l-18.125 1.875m216.88 2.5 0.625 8.75 0.625 1.875c0.41562-1.25 1.0406-1.8745 1.875-1.875 1.25 4.7e-4 1.8747 0.41719 1.875 1.25-0.41719 0.41719-0.625 1.0422-0.625 1.875h1.875l1.25-9.375v-1.875c-0.41719-2.9162-1.667-4.3745-3.75-4.375h-1.875l-1.875 3.75m10 9.375c0.83281-2.0828 2.2912-3.1245 4.375-3.125v2.5l-2.5 3.125 1.25 0.625 2.5-0.625 3.75-3.75 1.875-2.5c1.6662-1.6662 2.4995-3.3328 2.5-5-4.7e-4 -1.6662-1.0422-2.4995-3.125-2.5-4.167 4.7e-4 -7.7088 3.7505-10.625 11.25m-162.5-6.25c0.41719 2.0838 2.2914 3.3338 5.625 3.75 1.6664 0.83437 2.9164 1.6672 3.75 2.5l8.125 4.375c3.7497 2.5005 8.7497 3.7505 15 3.75 7.4997 4.7e-4 11.25-3.7495 11.25-11.25-3.1e-4 -4.1662-1.6669-6.6662-5-7.5l-3.125-0.625-0.625 7.5c-3.1e-4 3.3338-3.3336 5.0005-10 5-3.1e-4 4.7e-4 -1.6669-0.41563-5-1.25l-6.25-1.875-6.875-1.875-3.125-2.5h-3.75m142.5-2.5c-2.0838 2.0838-3.1253 3.3338-3.125 3.75-3.1e-4 5.4172 3.1247 8.9588 9.375 10.625l-3.125-5.625h3.125l2.5 3.125c-1.25-5.8328-4.167-9.7912-8.75-11.875m-26.875 4.375c-0.41719 4.7e-4 -0.625 0.41719-0.625 1.25h1.25v-0.625c-3.1e-4 -0.41563-0.20937-0.625-0.625-0.625m-170 3.125-1.25 0.625-4.375-0.625c-1.6669 4.7e-4 -4.1669 1.0422-7.5 3.125l-1.25 1.25 9.375 0.625c2.9166 0.83437 4.7916 2.0838 5.625 3.75l1.25 1.25v3.125c-1.6e-4 1.25 0.41719 1.8755 1.25 1.875 5.4164 4.7e-4 8.1248-2.4995 8.125-7.5-1.6e-4 -4.1662-3.7502-6.6662-11.25-7.5m225 3.75-1.25 0.625v3.75l-1.875 1.875 1.25 1.25h1.875c6.6662 4.7e-4 9.9995-1.8745 10-5.625-4.7e-4 -0.41563-0.625-1.0406-1.875-1.875l-3.125-1.25h-3.125l-1.875 1.25m132.5 0-9.375 5-5.625 1.875-10.625-0.625-5.625 1.25-11.875 1.25c-2.9172 0.41719-6.0422 3.3338-9.375 8.75l-3.125-0.625c-0.41719-4.1662-1.25-6.4578-2.5-6.875l-1.875 1.875c-0.83438 0.41719-1.6672 1.4594-2.5 3.125l-1.25-0.625-2.5 3.75-6.25 5.625c-3.3338 3.3338-5.0005 12.084-5 26.25-4.7e-4 1.667 0.41562 4.167 1.25 7.5 0.83281 2.917 1.25 5.0005 1.25 6.25-4.7e-4 1.667-1.25 2.7088-3.75 3.125-3.7505-0.41562-5.6255-2.708-5.625-6.875-4.7e-4 0.83438-4.7e-4 0.20938 0-1.875 0.41562-2.083 0.83281-6.0412 1.25-11.875v-2.5c0.41562-2.083-0.20938-4.7912-1.875-8.125-1.25-3.333-2.7088-4.9995-4.375-5-0.83438 0.83438-1.25 2.0838-1.25 3.75h-3.125c-2.5005-5.4162-6.8755-8.7495-13.125-10l2.5 6.875-1.25 13.75 1.25 6.875 1.25 4.375 0.625 1.25 5 8.125-9.375-3.75c-0.41719-0.41562-1.25-0.625-2.5-0.625-1.667 4.7e-4 -2.7088 0.20938-3.125 0.625v6.875c-4.7e-4 1.667 1.0406 6.2503 3.125 13.75l4.375 9.375 6.25 6.875c1.6662 0.83438 3.1245 1.8753 4.375 3.125 1.25 1.25 2.708 2.5003 4.375 3.75-4.7e-4 1.25-1.0422 1.8753-3.125 1.875l3.125-0.625h-5l-4.375-1.25 1.875 5.625 3.75 5.625 1.875 1.25 6.875 8.75 3.125 3.75 1.875 0.625 3.75 4.375 1.875 3.125 1.875 0.625-2.5-0.625 3.75 2.5 11.875 11.875 5 5.625 1.25-1.25c-4.7e-4 0.41719-0.83438-1.6664-2.5-6.25-1.6672-4.9997-2.5005-9.583-2.5-13.75-4.7e-4 -17.916 6.6662-27.291 20-28.125l13.75-0.625c3.3328 3.1e-4 7.0828-2.083 11.25-6.25-1.25-1.6662-3.1255-2.4997-5.625-2.5l-3.75-2.5 3.125-1.875 6.875 1.25c1.6661 3.1e-4 5.4161-1.6662 11.25-5l8.125-9.375h-0.625c-6.2505 3.1e-4 -11.459-2.083-15.625-6.25-5.4172-2.083-10-3.1247-13.75-3.125l0.625-1.875 3.75-3.125h0.625c-4.7e-4 -2.083-1.8755-3.1245-5.625-3.125l-3.125 0.625h5.625l-15 0.625-7.5 3.75-1.875 1.25-1.25 1.875h-3.125 0.625l-3.125 1.25c-4.1672-0.41562-6.2505-2.2912-6.25-5.625-4.7e-4 -5.833 4.3745-8.5412 13.125-8.125h11.875c20.833 0.83438 32.291-7.708 34.375-25.625-0.83438-1.6662-1.4594-2.9162-1.875-3.75-2.0839 2.5005-3.7505 3.7505-5 3.75-0.41719 4.7e-4 -1.25-0.625-2.5-1.875 6.6661-3.333 10.833-10.833 12.5-22.5l-0.625-5-3.125-5.625m-158.12 5v-1.25c-2.917-1.6662-5.2088-2.4995-6.875-2.5-2.5003 4.7e-4 -3.7503 1.25-3.75 3.75-3.1e-4 1.6672 1.0406 2.5005 3.125 2.5 2.083 4.7e-4 4.583-0.83281 7.5-2.5m84.375-1.875c-5.0005 7.0838-12.084 10.625-21.25 10.625-7.0838 4.7e-4 -12.709-1.25-16.875-3.75-1.25-0.83281-2.292-1.4578-3.125-1.875-0.83438-0.41563-1.4594-0.83281-1.875-1.25h-1.25c-0.83438 4.7e-4 -1.25 0.625-1.25 1.875-4.7e-4 0.41719 0.41562 0.625 1.25 0.625 8.7495 5.0005 16.666 7.5005 23.75 7.5 3.7495 4.7e-4 8.1245-1.0406 13.125-3.125 5.4162-2.0828 8.1245-4.7912 8.125-8.125-4.7e-4 -1.25-0.20938-2.0828-0.625-2.5m-106.88 15.625c-7.5003 7.5005-13.334 17.084-17.5 28.75-0.41719 2.0838-0.83281 3.9588-1.25 5.625-3.1e-4 1.667-3.1e-4 2.917 0 3.75-3.1e-4 0.83438-3.1e-4 2.0838 0 3.75 0.41719 1.25 0.83281 2.917 1.25 5 3.7497 22.917 16.458 38.959 38.125 48.125l0.625-5c-20.417-6.6662-32.5-23.333-36.25-50 0.41719-6.2495 1.8747-12.291 4.375-18.125 2.4997-6.2495 5.6247-11.458 9.375-15.625 3.7497-4.583 7.9162-8.1245 12.5-10.625 4.583-2.9162 9.1662-4.3745 13.75-4.375h6.875c2.4997 0.83437 3.7497 0.20937 3.75-1.875-3.1e-4 -1.25-1.667-1.8745-5-1.875-7.0838 4.7e-4 -17.292 4.1672-30.625 12.5m45.625-6.875-5.625-0.625 2.5 3.125c4.583 3.3338 7.9162 5.0005 10 5 2.9162 4.7e-4 4.3745-1.25 4.375-3.75-4.7e-4 -2.0828-1.25-3.5412-3.75-4.375l-7.5-1.875v2.5m-150 0-78.125 3.75-43.125-1.875c-1.25-0.41563-3.5417-0.625-6.875-0.625-1.25 4.7e-4 -1.8752 0.20937-1.875 0.625-1.6e-4 2.0838 0.20781 3.3338 0.625 3.75l5.625 3.125 21.875 6.25c2.9166 2.5005 6.6666 5.6255 11.25 9.375l7.5 9.375 2.5 6.25c0.41719 0.41719 1.0422 2.0838 1.875 5 1.6666 4.5838 2.4998 8.7505 2.5 12.5l-0.625 19.375c1.6666 1.667 3.1248 2.917 4.375 3.75 2.0831 0.83438 4.1666 1.667 6.25 2.5 2.0831 0.83438 4.3748 1.4594 6.875 1.875l14.375 1.25c2.4998 3.1e-4 3.7498-1.25 3.75-3.75v-3.125l1.25-50c4.5831-7.4995 13.125-12.083 25.625-13.75 6.2497-0.83281 12.083-1.4578 17.5-1.875 5.8331-0.83281 11.458-1.25 16.875-1.25 21.25 4.7e-4 41.666 3.7505 61.25 11.25l6.875 1.875 4.375-7.5 6.875-9.375c1.25-1.6662 1.8747-2.9162 1.875-3.75-0.83438-0.83281-3.1253-1.6662-6.875-2.5l-10-1.25-9.375-1.25-17.5-1.25-57.5 1.25m126.88 1.25c-2.5003 0.83437-3.7503 1.8755-3.75 3.125-3.1e-4 2.0838 1.25 3.1255 3.75 3.125 0.83281 4.7e-4 2.083-0.83281 3.75-2.5-1.25-0.41562-1.8753-1.4578-1.875-3.125v-0.625h-1.875m7.5 2.5c-2.0838 3.3338-3.1253 5.2088-3.125 5.625l0.625 3.125h2.5c1.6662 4.7e-4 2.4997-1.8745 2.5-5.625-1.667 4.7e-4 -2.5003-0.625-2.5-1.875v-1.25m10-0.625v4.375l-4.375-1.875c-3.1e-4 6.2505 1.6662 9.3755 5 9.375 2.083 4.7e-4 3.1245-1.25 3.125-3.75-4.7e-4 -2.083-1.25-4.7912-3.75-8.125m-48.75 27.5c22.916 16.667 35 41.042 36.25 73.125l34.375 2.5 1.25-13.125c-2.0838-32.083-13.542-55.833-34.375-71.25l-10-7.5c-5.8338-3.7495-9.5838-5.6245-11.25-5.625-5.0003 4.7e-4 -10.417 7.292-16.25 21.875m-189.38-3.75v-2.5l-3.75-2.5-11.25-6.25-4.375-1.25-5.625-1.25-9.375-3.75v2.5c-1.6e-4 0.83438 1.6666 1.8755 5 3.125l7.5 2.5 10.625 3.125c0.83281 0.41719 2.0831 1.0422 3.75 1.875 1.6666 0.83438 4.1666 2.292 7.5 4.375m100-11.25-6.25 1.25c1.25 1.25 2.7081 1.8755 4.375 1.875l10-1.25c28.75 4.7e-4 50 3.7505 63.75 11.25 2.9164 1.667 4.7914 2.5005 5.625 2.5 1.25 4.7e-4 1.8747-0.41562 1.875-1.25-3.1e-4 -0.41562-0.20938-0.83281-0.625-1.25l-5-2.5c-15.834-7.4995-33.959-11.041-54.375-10.625h-19.375m-15.625 1.25-3.75 1.25c-16.25 2.0838-24.375 7.917-24.375 17.5l0.625 28.75v3.75c-1.6e-4 0.83438-1.6e-4 1.8753 0 3.125-1.6e-4 1.25-0.20938 2.917-0.625 5l-0.625 6.875c0.83281 0.83438 1.6664 1.25 2.5 1.25 0.83281 3.1e-4 1.25-1.25 1.25-3.75-1.6e-4 -2.083-0.20781-3.7497-0.625-5l-0.625-7.5 0.625-21.25v-15c-1.6e-4 -1.6662 1.4578-3.333 4.375-5l5-3.125c0.83281-0.83281 4.7914-2.083 11.875-3.75 3.3331-0.83281 5.6247-1.4578 6.875-1.875l-2.5-1.25m15 6.25-1.25 18.125 1.875 3.125v0.625l5 6.25-1.25-4.375 10.625 5-5 0.625c1.6664 2.5005 3.9581 3.7505 6.875 3.75h1.25l10.625-1.875-1.25-6.25 15 0.625c8.333 0.83438 13.541-3.333 15.625-12.5l-5-0.625c0.41719-1.6662 0.625-2.9162 0.625-3.75 0.41719-1.25 0.625-2.2912 0.625-3.125-3.1e-4 -1.25-2.0836-2.083-6.25-2.5-3.7503 5.8338-8.7503 8.9588-15 9.375l3.75 0.625c-1.667 0.41719-3.1253 0.83438-4.375 1.25-1.25 4.7e-4 -2.7086 4.7e-4 -4.375 0-7.9169 4.7e-4 -13.125-3.7495-15.625-11.25-0.83438-2.4995-1.25-3.5412-1.25-3.125l-3.75-0.625h-2.5l-5 0.625m-8.75 0-4.375 1.25-1.875 8.75c-4.5836 5.0005-8.3336 7.5005-11.25 7.5-2.5002 4.7e-4 -5.2086-0.625-8.125-1.875l-1.25 3.75 5 5 11.25-0.625v5l3.125-0.625c8.3331-5.833 12.291-13.125 11.875-21.875v-3.125l1.25-3.125h-5.625m73.75 26.25c0.41562-2.4995 1.8747-3.7495 4.375-3.75 2.4997 4.7e-4 4.583 1.4594 6.25 4.375l3.125 10.625c-0.41719-1.25-0.625-2.9162-0.625-5v-3.75c-0.41719-9.1662-3.542-13.75-9.375-13.75-5.417 4.7e-4 -8.1253 2.0838-8.125 6.25-3.1e-4 1.667 1.4578 3.3338 4.375 5m-155.62-1.875c-5.0002 3.3338-7.5002 7.292-7.5 11.875-1.6e-4 10.417 4.3748 18.959 13.125 25.625 8.7498 6.2503 20 8.9588 33.75 8.125l0.625-0.625 13.125-1.875 6.25-3.125 8.125-3.125c6.2497-2.9162 12.708-10.416 19.375-22.5 1.6664-2.9162 2.4997-5.6245 2.5-8.125-3.1e-4 -1.25-1.0422-2.9162-3.125-5-0.41719 7.917-4.3753 16.459-11.875 25.625h-0.625l-2.5 1.875-3.75 3.125-6.875 3.125-6.25 3.125-9.375 1.875c-4.5836 1.25-9.3752 1.8753-14.375 1.875-4.1669 3.1e-4 -8.3336-0.83281-12.5-2.5-4.1669-1.6662-7.9169-3.7497-11.25-6.25-3.3334-2.9162-6.0419-5.833-8.125-8.75-2.0834-3.333-3.1252-6.458-3.125-9.375-1.6e-4 -4.583 2.0831-8.7495 6.25-12.5l-1.875-2.5m248.12 8.125-2.5-3.125c6.2495 12.5 9.3745 25.625 9.375 39.375-4.7e-4 1.667-0.41719 4.167-1.25 7.5-0.41719 3.3338-0.625 5.8338-0.625 7.5-4.7e-4 1.25 1.4578 2.0838 4.375 2.5 1.25-5.4162 1.8745-9.583 1.875-12.5-4.7e-4 -2.9162-0.20938-4.7912-0.625-5.625l-0.625-7.5c-0.41719-1.25-0.83438-2.708-1.25-4.375-4.7e-4 -2.083-0.41719-4.583-1.25-7.5l-7.5-16.25m-102.5 13.125 1.875-14.375h-0.625c-2.917 4.7e-4 -4.3753 1.8755-4.375 5.625-3.1e-4 2.5003 1.0406 5.417 3.125 8.75m51.875 18.125c-5.417-7.9162-8.1253-13.958-8.125-18.125-3.1e-4 -3.7497 2.4997-7.2912 7.5-10.625-0.83438-2.083-2.5003-3.1245-5-3.125-5.417 4.7e-4 -8.1253 3.3338-8.125 10-3.1e-4 7.0838 4.583 14.375 13.75 21.875m-106.25-30.625-0.625 3.125-1.875 5.625 1.25-0.625v-1.25l1.875-3.75-0.625-3.125m38.75 3.125c-0.83438-1.25-1.8753-1.8745-3.125-1.875-1.667 4.7e-4 -2.5003 0.83438-2.5 2.5-3.1e-4 1.25 0.41562 1.8753 1.25 1.875 1.25 3.1e-4 2.708-0.83281 4.375-2.5m29.375 23.125v1.25c-3.1e-4 2.0838-0.83281 3.1253-2.5 3.125-3.1e-4 3.1e-4 -1.0422-0.20781-3.125-0.625-1.667-0.83281-4.3753-1.6662-8.125-2.5-0.41719-0.41562-1.667-0.625-3.75-0.625-8.3336 3.1e-4 -12.5 3.1253-12.5 9.375-3.1e-4 2.0838 0.20781 3.3338 0.625 3.75l1.875 1.25c2.9164-4.1662 5.4164-6.2497 7.5-6.25 0.41719 0.41719 0.83281 0.625 1.25 0.625l11.25 5.625c2.4997 0.83438 4.1664 1.25 5 1.25h0.625c2.083-0.83281 3.958-2.9162 5.625-6.25l3.75 1.25 1.25 0.625c11.666 6.667 21.25 10 28.75 10 0.83281 3.1e-4 1.4578-0.20781 1.875-0.625-3.1e-4 -1.25-3.1253-2.2912-9.375-3.125-1.667-0.83281-3.9588-1.6662-6.875-2.5-2.5003-1.25-5.6253-2.708-9.375-4.375-0.83281-0.41562-1.667-1.0406-2.5-1.875-0.83281-0.83281-1.667-1.6662-2.5-2.5 2.4997-1.6662 3.7497-3.333 3.75-5v-1.875l-0.625-1.875-8.75-12.5-0.625-8.125c-0.41719-0.41562-0.83281-0.625-1.25-0.625-0.41719 0.41719-1.0422 0.625-1.875 0.625-0.41719 3.1e-4 -0.83281 0.20938-1.25 0.625-2.917 1.667-4.3753 4.167-4.375 7.5-3.1e-4 3.1e-4 0.41719 1.25 1.25 3.75 1.25 2.5003 2.9164 6.042 5 10.625m-82.5-19.375c-4.1669 4.167-8.5419 6.2503-13.125 6.25-0.41719 3.1e-4 -3.3336-1.0406-8.75-3.125v3.125l1.875 3.125c1.6664 2.5003 3.7498 3.7503 6.25 3.75 4.1664 3.1e-4 9.1664-4.1662 15-12.5l-1.25-0.625m70.625 15-2.5-3.75-5-4.375c-3.3336-3.333-5.2086-4.9997-5.625-5-1.667 3.1e-4 -2.5003 0.41719-2.5 1.25l0.625 1.25c0.41719 0.41719 0.625 0.83438 0.625 1.25 0.41719 0.41719 0.83281 0.83438 1.25 1.25l6.875 5 2.5 1.875 3.75 1.25m-60.625-10-3.75 6.25c-2.0836 2.0838-3.9586 4.792-5.625 8.125v1.25c-3.1e-4 4.167 2.2914 6.667 6.875 7.5-2.9169-4.1662-4.3753-6.8747-4.375-8.125-3.1e-4 -2.4997 1.0406-4.9997 3.125-7.5 2.4997-2.4997 3.7497-4.1662 3.75-5v-2.5m5 27.5 1.25 3.75 0.625 1.25 5 8.75 1.25 0.625 6.875 6.25v1.875c-3.7503 0.83281-5.6253 1.667-5.625 2.5-3.1e-4 5.0003 3.7497 9.5836 11.25 13.75 5.4164 2.5003 10.833 3.7503 16.25 3.75 2.4997 3.1e-4 4.583-0.83281 6.25-2.5l1.875-1.25 2.5-1.875c3.333-2.083 6.2497-3.7497 8.75-5 2.4997-1.6664 4.583-2.708 6.25-3.125l15-1.875 8.125-4.375 6.25 0.625v3.125c-3.1e-4 2.917-2.917 4.3753-8.75 4.375-1.667 3.1e-4 -3.9586-0.20781-6.875-0.625-2.917-0.41562-5.0003-0.625-6.25-0.625-0.83281 3.1e-4 -2.5003 0.41719-5 1.25l-1.25 0.625h1.875l-6.25 1.875-10.625 6.25c-2.917 2.917-5.6253 6.042-8.125 9.375-2.5003 2.917-3.7503 5.417-3.75 7.5-3.1e-4 2.917 0.20781 5.0003 0.625 6.25l11.25-3.75v3.125l-2.5 3.75 0.625 1.875-0.625 3.75 2.5 4.375c2.9164 2.9169 6.0414 4.3753 9.375 4.375 8.333 3.1e-4 13.75-2.9164 16.25-8.75l8.125-18.125c0.83281-2.083 2.708-3.1247 5.625-3.125l7.5 1.25-0.625-4.375-3.75-1.25h-3.125c-2.5003 3.1e-4 -3.9588 0.625-4.375 1.875l-0.625 1.875c-1.25 3.1e-4 -3.1253 1.4578-5.625 4.375l-0.625 1.25-2.5 3.125c-1.667 5.417-4.167 8.1253-7.5 8.125-4.167 3.1e-4 -6.2503-2.083-6.25-6.25-3.1e-4 -5.4164 6.6664-11.25 20-17.5 12.916-6.6664 28.75-9.9997 47.5-10 19.166 3.1e-4 33.541 1.8753 43.125 5.625l30 11.25 3.125 3.125 5.625 3.75 4.375 3.75 2.5 3.125 4.375 5c3.7495 3.7503 7.4995 6.4586 11.25 8.125 0.41562-2.0831 0.625-3.7497 0.625-5 0.41562-1.25 0.625-2.0831 0.625-2.5-4.7e-4 0.41719-0.41719-1.0406-1.25-4.375l-12.5-11.875-1.25-1.25-4.375-3.75-6.25-5c-3.3338-3.7497-7.0838-6.2497-11.25-7.5l-1.875-1.25-10-5-4.375-2.5-1.875-0.625-1.25-0.625-2.5-1.875-4.375-1.25-9.375-2.5-4.375-1.875-10-1.875-13.75-1.25h5.625l-17.5-0.625c-3.7503 3.1e-4 -10 0.625-18.75 1.875l-53.75 2.5h-10.625l-11.875-1.875c-14.167-4.1662-21.25-11.875-21.25-23.125-3.1e-4 -6.6662 3.1247-9.9997 9.375-10 0.83281 3.1e-4 2.0831 0.83438 3.75 2.5l1.25 4.375c-1.25 5.8338-1.8753 8.9588-1.875 9.375-3.1e-4 3.3338 1.25 5.0003 3.75 5l6.875 0.625-3.75-8.125c-3.1e-4 -0.41562-3.1e-4 -1.25 0-2.5 0.41719-1.25 0.83281-2.9162 1.25-5l0.625-1.875c-3.1e-4 -6.6662-3.5419-9.9997-10.625-10-10.834 3.1e-4 -16.25 5.2088-16.25 15.625-3.1e-4 3.3338 0.20781 5.6253 0.625 6.875m-146.25-5c-4.5834 4.5838-7.7084 11.042-9.375 19.375l-0.625 6.25c-1.6e-4 9.5836 2.4998 20 7.5 31.25 0.83281-0.41719 1.4578-0.625 1.875-0.625 0.83281-0.41719 1.25-0.625 1.25-0.625-0.41719-0.83281-0.83281-1.6664-1.25-2.5-1.6e-4 -0.83281-0.41719-1.6664-1.25-2.5-3.3334-5.833-5.0002-13.125-5-21.875-1.6e-4 -10.416 3.3333-19.583 10-27.5 6.6666-8.333 14.167-12.5 22.5-12.5 2.0831 3.1e-4 6.8748 1.667 14.375 5l5.625 5 2.5 5.625c1.25 5.0003 1.8748 8.9588 1.875 11.875-1.6e-4 7.0836-2.7084 13.959-8.125 20.625l1.25 1.25c7.4998-6.6664 11.25-14.583 11.25-23.75-1.6e-4 -8.333-2.9169-15.416-8.75-21.25-5.4169-6.2497-11.875-9.3747-19.375-9.375-10 3.1e-4 -18.75 5.417-26.25 16.25m15 3.125-0.625 2.5c-1.6667 3.3338-2.5002 6.4588-2.5 9.375-1.6e-4 2.5003 1.6666 6.042 5 10.625l3.75 5 4.375 5 9.375 5-8.75-8.75c-2.9169-4.1664-4.3752-8.5414-4.375-13.125-1.6e-4 -8.7497 2.9166-13.125 8.75-13.125 2.4998 3.1e-4 5.2081 0.83438 8.125 2.5-1.6e-4 -3.7497-1.25-6.8747-3.75-9.375-3.3334-0.41562-5.8334-0.625-7.5-0.625-1.6669-0.41562-2.9169-0.625-3.75-0.625-2.9167 3.1e-4 -5.6252 1.8753-8.125 5.625m48.125-3.75-0.625 6.25 0.625 25.625v31.875l0.625 123.75c8.7498 0.83281 16.875 4.5834 24.375 11.25l2.5 0.625 7.5 7.5 0.625-6.25v-83.125c-1.6e-4 -1.6664 0.20781-2.9164 0.625-3.75l95-0.625 10 14.375 4.375 7.5 3.125 5 1.875 1.25 5.625-8.125 5.625-5 3.125 0.625-0.625-1.25 3.75 12.5 3.75 5 6.875-8.125 11.25-3.75c-3.1e-4 -1.25-1.667-4.1664-5-8.75-9.167-10.416-13.75-17.291-13.75-20.625-3.1e-4 -3.7497 1.8747-6.6664 5.625-8.75l24.375-13.125 14.375-11.875 16.25-20.625c1.25-1.6664 1.8745-3.1247 1.875-4.375-4.7e-4 -1.25-1.0422-1.8747-3.125-1.875h-2.5c-2.0838-0.41719-4.167-0.625-6.25-0.625-2.0838 3.1e-4 -4.167 3.1e-4 -6.25 0h-13.75l-5.625 12.5c-6.667 13.75-18.334 24.792-35 33.125-16.25 7.9169-35.625 11.667-58.125 11.25l-63.75-1.25-3.75-2.5v-3.75l-0.625-81.25c-1.6e-4 -3.7497-0.625-5.6247-1.875-5.625 0.41562 3.1e-4 -1.4594 0.41719-5.625 1.25h-3.75c-5.8336 3.1e-4 -11.459-1.25-16.875-3.75l-3.125-1.25-3.75-1.25m195.62 0 6.25 3.75-6.25-3.75m-155.62 4.375-1.25 0.625 0.625 90 1.25-0.625 0.625-3.125v-35.625l-0.625-13.125 0.625-21.25-0.625-11.875v-1.25c0.41719-0.41562 0.625-1.25 0.625-2.5l-1.25-1.25m300.62 10c-1.6672 0.41719-2.5005 1.8753-2.5 4.375-1.25-0.41562-3.3339-0.625-6.25-0.625-10.417 3.1e-4 -15.625 7.0836-15.625 21.25v5.625c-4.7e-4 2.5003 0.20781 4.3753 0.625 5.625l3.125 6.25c2.0828 3.3336 3.5411 5.8336 4.375 7.5 1.25 1.667 1.8745 2.5003 1.875 2.5 1.25 3.1e-4 1.8745-0.41562 1.875-1.25v-1.875c-6.2505-7.4997-9.3755-14.375-9.375-20.625-4.7e-4 -7.083 2.4995-12.916 7.5-17.5 2.0828-2.083 3.7495-3.1247 5-3.125l5.625 1.25-1.25 8.125 2.5 6.875c1.25 1.25 1.8745 2.292 1.875 3.125-4.7e-4 1.667-0.20938 2.7086-0.625 3.125l-0.625 1.25-1.875 3.125c0.83281 0.41719 2.4995 0.625 5 0.625 4.5828 3.1e-4 6.8745-2.708 6.875-8.125-4.7e-4 -1.6664-0.20938-2.708-0.625-3.125l-2.5-6.875c-0.41719-0.41562-0.625-1.4578-0.625-3.125-4.7e-4 -2.4997 1.0406-4.3747 3.125-5.625l11.25-5 0.625-2.5 1.875-2.5c0.41562-0.41562 0.625-1.25 0.625-2.5-4.7e-4 -2.9162-0.83438-4.3747-2.5-4.375-0.41719 3.1e-4 -1.4594 1.25-3.125 3.75-1.6672 2.0838-3.5422 3.1253-5.625 3.125h-11.25l0.625 1.25m-288.75-4.375c-4.1669 2.917-6.2502 7.292-6.25 13.125v4.375c-1.6e-4 1.667 0.20781 3.1253 0.625 4.375l1.25 1.875 2.5 5.625c6.6664 6.2503 12.291 9.3753 16.875 9.375 6.2497 3.1e-4 11.458-0.41719 15.625-1.25l6.875-3.125c2.0831-0.83281 3.1247-1.6664 3.125-2.5-3.1e-4 -0.83281-0.41719-1.25-1.25-1.25-1.25 3.1e-4 -3.5419 1.0422-6.875 3.125-0.41719 0.41719-1.25 0.625-2.5 0.625-1.25 3.1e-4 -2.2919 0.20938-3.125 0.625-2.9169 0.41719-5.2086 0.83438-6.875 1.25-1.6669 3.1e-4 -2.7086 3.1e-4 -3.125 0-10.417 3.1e-4 -15.625-4.9997-15.625-15-1.6e-4 -8.7497 3.9581-13.125 11.875-13.125 2.9164 3.1e-4 6.0414 1.8753 9.375 5.625 0.41562 1.667 1.0406 2.5003 1.875 2.5h1.875c1.25-2.9164 1.8747-5.208 1.875-6.875-3.1e-4 -2.083-1.25-4.583-3.75-7.5-2.0836-3.333-5.2086-4.9997-9.375-5-2.0836 3.1e-4 -3.5419 0.41719-4.375 1.25l-3.125 3.75-5.625-2.5-1.875 0.625m-115 2.5-0.625 3.125-1.25 5 5.625 10 3.75 3.75 4.375 5c9.5833 11.25 20.625 17.917 33.125 20l12.5 1.875v-6.25c-1.6e-4 -1.6664-2.5002-2.9164-7.5-3.75-2.5002 3.1e-4 -5.6252-1.25-9.375-3.75h-0.625l-17.5-10c-0.83281-0.83281-2.0834-2.2914-3.75-4.375-1.6667-2.083-3.5417-4.7914-5.625-8.125l-1.875-1.875c-0.83281-2.083-1.6667-3.7497-2.5-5-0.41719-1.6662-0.83281-2.9162-1.25-3.75-2.0834-3.7497-3.5417-5.6247-4.375-5.625l-3.125 3.75m-21.25 18.75 2.5 1.25 0.625-3.125 4.375-2.5c0.41719-0.41562 0.625-1.0406 0.625-1.875-1.6e-4 -4.583-1.25-6.8747-3.75-6.875-3.7502 3.1e-4 -5.6252 2.5003-5.625 7.5-1.6e-4 -0.41719 0.41719 1.4578 1.25 5.625m338.75-10c-0.41719 0.41719-0.625 1.25-0.625 2.5-4.7e-4 0.83438 0.41562 1.25 1.25 1.25l1.25 0.625 8.75 3.125 0.625-1.875-11.25-5.625m-320.62 1.875 0.625 6.875 8.125 6.875-8.75-13.75m428.75 15 2.5 6.875c1.6661-1.6664 2.4995-3.1247 2.5-4.375l-1.875-5.625c-0.41719-1.6664-1.8755-3.333-4.375-5l-1.25-0.625h-7.5l3.125 1.25c0.83281 0.83438 1.8745 1.8753 3.125 3.125 1.25 1.25 2.4995 2.7086 3.75 4.375m-56.25 1.875 1.875 10.625 5 11.25 2.5 3.75 2.5 3.125c1.6662-0.41562 2.4995-1.25 2.5-2.5v-1.25l-2.5-3.75-11.875-21.25m66.875 1.25c-0.83438 3.1e-4 -1.6672 1.0422-2.5 3.125l-0.625 0.625c-4.7e-4 2.917 1.25 4.3753 3.75 4.375 2.0828 3.1e-4 3.1244-1.0406 3.125-3.125v-1.875c-0.83438-2.083-2.0839-3.1247-3.75-3.125m-15.625 1.875c-2.0839 3.1e-4 -3.1255 1.0422-3.125 3.125-4.7e-4 2.0836 1.0406 3.1253 3.125 3.125 1.6661 3.1e-4 2.4995-1.25 2.5-3.75-4.7e-4 -1.6664-0.83438-2.4997-2.5-2.5m-121.25 2.5c-2.5005 9.167-10.417 19.792-23.75 31.875l-3.125 1.875c-2.0838 1.25-4.5838 2.7086-7.5 4.375-2.917 1.6669-6.2503 3.5419-10 5.625-1.667 0.83438-2.917 1.4594-3.75 1.875-0.83438 0.41719-1.4594 0.83438-1.875 1.25l-4.375 3.125c-5.0003 3.3336-7.5003 6.2503-7.5 8.75-3.1e-4 2.0836 1.8747 5.2086 5.625 9.375 0.83281 0.83438 1.8747 2.5003 3.125 5l13.75 18.125 3.75 4.375c1.6662-0.41562 2.4997-1.25 2.5-2.5v-0.625l-5.625-6.875-5-8.125-6.25-6.875-3.75-6.875c-2.0838-3.3331-3.1253-5.4164-3.125-6.25 0.41562-0.41562 0.83281-0.625 1.25-0.625 0.41562-0.41719 1.0406-1.0422 1.875-1.875l23.125-12.5 5-3.75c7.9162-5.8331 13.541-11.041 16.875-15.625l3.125-5.625 10.625-15 0.625-1.25c-4.7e-4 -1.6664-0.83438-2.4997-2.5-2.5h-0.625l-2.5 1.25m-189.38 13.75-0.625 7.5c3.3331-0.41562 7.0831-1.0406 11.25-1.875 4.5831-1.25 9.3747-2.9164 14.375-5l10.625-3.75c11.666-4.1664 17.5-7.083 17.5-8.75-3.1e-4 -0.83281-0.625-1.6664-1.875-2.5l-0.625-0.625h-0.625l-1.25 0.625-8.125 4.375c-1.25 0.41719-2.7086 0.83438-4.375 1.25-1.6669 0.41719-3.5419 1.0422-5.625 1.875-4.5836 1.25-8.3336 2.292-11.25 3.125-2.9169 0.83281-5.0002 1.4578-6.25 1.875-0.83438 3.1e-4 -5.2086 0.625-13.125 1.875m-62.5-12.5-0.625 0.625 7.5 2.5c-0.83281-2.083-2.2919-3.1247-4.375-3.125h-2.5m108.75 8.75-7.5 5.625-10 5.625c-0.41719 0.41719-1.25 1.0422-2.5 1.875-0.83281 0.83438-2.0836 1.8753-3.75 3.125l-16.25 15-1.875 1.875c-0.41719 0.41719-1.4594 1.25-3.125 2.5l-1.25 0.625c0.41719 1.6669 1.25 2.5003 2.5 2.5l0.625-0.625 1.25-0.625 5.625-5 3.75-1.875 6.875-6.875c12.083-11.666 21.666-18.958 28.75-21.875 7.4997-2.9164 11.25-5.208 11.25-6.875-0.83281-0.83281-2.5003-1.25-5-1.25-0.83438 3.1e-4 -3.9586 2.0836-9.375 6.25m270.62-5c-1.6672 3.1e-4 -2.5005 1.25-2.5 3.75-4.7e-4 2.917 1.0406 4.3753 3.125 4.375 2.4995 3.1e-4 3.7495-1.0406 3.75-3.125-4.7e-4 -3.333-1.4594-4.9997-4.375-5m-250 3.75c-22.084 11.667-35.417 25-40 40h14.375l11.25-15.625 15-12.5 1.25-6.25 0.625-3.75-1.875-2.5-0.625 0.625m-193.12 29.375 4.375-1.875 2.5-6.25 8.75-10 5.625-2.5 6.875-4.375 10-2.5c-0.41719-1.6664-1.25-2.4997-2.5-2.5-0.83281 0.41719-2.0834 0.83281-3.75 1.25-1.6667 0.41719-3.5417 1.0422-5.625 1.875l-5 1.875c-8.7502 2.917-15.833 11.25-21.25 25m323.75-25.625-1.875 1.875c-3.7505 4.5836-5.6255 10.417-5.625 17.5l0.625 3.125 5 7.5 8.75 8.75c1.6662 1.25 3.333 2.5003 5 3.75 1.6662 1.25 3.5412 2.2919 5.625 3.125-0.83438-1.6664-1.4594-2.9164-1.875-3.75-2.917-2.9164-5.8338-5.8331-8.75-8.75-2.5005-3.3331-3.7505-7.0831-3.75-11.25-4.7e-4 -3.3331 2.083-6.8747 6.25-10.625v-1.875h2.5c4.9995 2.0836 7.708 3.1253 8.125 3.125 0.83281 3.1e-4 1.25-0.41719 1.25-1.25-4.7e-4 -5.833-3.1255-8.7497-9.375-8.75-0.41719 3.1e-4 -1.25 0.20938-2.5 0.625-1.25 3.1e-4 -2.917 0.20938-5 0.625l0.625 1.25h-3.125c-0.83438 3.1e-4 -1.25-0.41562-1.25-1.25l0.625-3.125-1.25-0.625m38.125 1.25-0.625 0.625c-6.2505 0.83438-9.3755 3.3336-9.375 7.5-4.7e-4 2.5003 1.25 4.5836 3.75 6.25 2.4995-5.4164 4.7912-8.1247 6.875-8.125h0.625l0.625 0.625 10.625 2.5-0.625-1.875c-0.83438-0.83281-1.8755-1.8747-3.125-3.125-1.25-1.25-2.7088-2.4997-4.375-3.75h-3.125l-1.25-0.625m-303.12 3.75-6.25-1.875h-3.75l0.625 1.25-1.875 1.875v2.5c2.9166-1.6664 6.6666-2.9164 11.25-3.75m355.62 5-1.875 2.5v2.5h-3.125c-1.6672 0.41719-3.9589-0.20781-6.875-1.875-0.41719 2.0836-0.83438 3.9586-1.25 5.625-4.7e-4 1.25-4.7e-4 2.7086 0 4.375-4.7e-4 2.9169 1.25 6.4586 3.75 10.625v1.875l10 11.875 3.75 1.25 0.625 0.625 2.5 3.125c1.6661 1.6669 2.4995 2.9169 2.5 3.75-4.7e-4 1.6669-0.625 3.3336-1.875 5l-7.5 1.25 0.625-1.875c-2.9172-4.1664-5.4172-9.5831-7.5-16.25l-3.75-7.5-3.75-3.75-6.875-5.625-3.75-0.625c-5.8338-0.83281-10-1.4578-12.5-1.875-2.5005-0.83281-3.3338-1.25-2.5-1.25-1.25 3.1e-4 -2.7088 0.625-4.375 1.875l-2.5 0.625 2.5 5c-4.7e-4 1.25 0.20781 2.0836 0.625 2.5-0.83438 0.83438-1.8755 1.25-3.125 1.25h-0.625c-3.7505 0.83438-6.2505 2.0836-7.5 3.75-2.0838 5.4169-3.1255 8.5419-3.125 9.375-4.7e-4 1.6669 0.625 3.3336 1.875 5l0.625 1.25c1.6662 2.5003 3.9578 3.7503 6.875 3.75v-2.5c-0.41719-5.4164 3.5412-8.1247 11.875-8.125 0.83281 3.1e-4 3.7495 1.0422 8.75 3.125l5.625 5.625 3.125 5v1.25l7.5 8.75c4.5828 3.3336 8.1245 5.0002 10.625 5 8.3328 1.6e-4 12.5-1.8748 12.5-5.625v-1.875c-1.25 2.0836-2.5005 3.1252-3.75 3.125-1.25 1.6e-4 -2.0839-0.20781-2.5-0.625l-1.25-1.875 5.625-1.25 3.125-5 2.5 1.25c1.25-2.9164 1.8745-5.6247 1.875-8.125-4.7e-4 -6.2497-2.7089-11.875-8.125-16.875-5.0005-7.4997-7.5005-13.125-7.5-16.875-4.7e-4 -8.3331 4.1661-12.5 12.5-12.5 2.9161 3.1e-4 6.0411 1.8753 9.375 5.625l1.25 4.375v5.625c-3.7505 10-5.6255 15.417-5.625 16.25-4.7e-4 3.3336 0.20781 5.6253 0.625 6.875l1.25 1.875c4.5828 3.3336 7.7078 5.0003 9.375 5 5.4161 3.1e-4 8.5411-3.5414 9.375-10.625h-1.875c-5.8339 0.83438-8.7505-1.6664-8.75-7.5l1.25-18.125c-4.7e-4 -4.5831-3.1255-8.5414-9.375-11.875-2.9172-1.6664-5.6255-2.4997-8.125-2.5-5.4172 3.1e-4 -9.7922 1.667-13.125 5m-363.75 21.25-15.625-11.875-12.5-10.625c-0.83281 3.1e-4 -1.4578 0.625-1.875 1.875v0.625c0.41719 1.25 1.4578 2.292 3.125 3.125 5.4166 3.3336 9.9998 6.8753 13.75 10.625 3.7498 3.7503 6.8748 7.2919 9.375 10.625 2.9166 5.0003 5.4166 7.5003 7.5 7.5 1.6666 3.1e-4 2.4998-1.0422 2.5-3.125l-0.625-0.625c-1.6e-4 3.1e-4 -0.20781-0.20781-0.625-0.625-1.6e-4 -0.83281-0.41719-1.6664-1.25-2.5l-3.75-5m144.38-20.625-7.5 5-10.625 11.875-3.125 4.375 2.5 0.625 5-6.875 4.375-5c1.25-0.83281 2.4997-1.6664 3.75-2.5 1.6664-1.25 3.3331-2.4997 5-3.75l0.625-3.75m-141.25 16.25 0.625 2.5c4.5831 3.1e-4 8.1248 1.4594 10.625 4.375v6.25l-1.875 3.125h0.625c-1.25 1.25-2.7084 2.5003-4.375 3.75-1.25 0.83438-2.7084 1.6669-4.375 2.5l-10.625 3.125c-0.41719 0.41719-0.625 1.0422-0.625 1.875-1.6e-4 1.6669 0.83281 2.5003 2.5 2.5v-0.625c15.833-4.9997 23.75-11.458 23.75-19.375-1.6e-4 -7.4997-3.9584-11.25-11.875-11.25-1.6669 3.1e-4 -2.7084 0.20938-3.125 0.625l-1.25 0.625m-60 15 0.625 2.5c0.83281-8.3331 6.0416-12.5 15.625-12.5 4.9998 3.1e-4 10.208 2.0836 15.625 6.25l1.875-3.125c-5.8334-4.5831-12.5-6.8747-20-6.875-3.3334 3.1e-4 -5.8334 0.625-7.5 1.875l-1.875 1.25-3.75 5.625-0.625 5m28.75 10c2.9166-0.41562 5.2083-2.0831 6.875-5 0.83281-1.25 2.7083-3.1247 5.625-5.625 3.3331-2.9164 4.9998-4.7914 5-5.625-1.6e-4 -1.25-0.625-1.8747-1.875-1.875-0.83281 3.1e-4 -3.1252 2.0836-6.875 6.25l-4.375 5-4.375 6.875m318.75 8.75c5.833 4.1669 9.9995 8.1252 12.5 11.875l3.125 6.875 5.625 12.5v1.25c1.25 3.3336 1.8745 5.8336 1.875 7.5 0.41562 1.25 1.0406 9.7919 1.875 25.625v5.625c-0.83438 1.6669-1.6672 3.7502-2.5 6.25-0.83438 2.0834-1.8755 4.7919-3.125 8.125l-3.75 7.5-1.25 3.125-1.875 3.75c2.4995 4.1669 4.1662 6.2502 5 6.25 0.83281 1.6e-4 2.9162-3.5416 6.25-10.625 6.6662-13.333 9.9995-27.708 10-43.125-4.7e-4 -22.5-7.7088-40.833-23.125-55l-5.625-5.625c-0.83438-0.83281-2.5005-1.8747-5-3.125-2.5005-1.25-5.417-2.9164-8.75-5l-3.125-1.25-3.75-1.875c-8.3338-3.7497-17.917-5.6247-28.75-5.625-7.5003 3.1e-4 -12.709 0.83281-15.625 2.5l-5.625 3.125c-1.667 0.83281-2.917 1.6669-3.75 2.5-3.1e-4 0.83438 0.41562 1.25 1.25 1.25 1.25 3.1e-4 2.708-0.41562 4.375-1.25 2.083-0.83281 7.2912-1.25 15.625-1.25h3.125l14.375 1.25 25 10.625 2.5 1.875 3.125 2.5v1.875m-339.38-21.875c-2.0834 2.0836-3.1252 3.9586-3.125 5.625-1.6e-4 3.3336 0.83281 6.4586 2.5 9.375l2.5 3.75 2.5 5.625 2.5 1.25 0.625-4.375-4.375-8.125c-0.41719-0.83281-0.83281-2.2914-1.25-4.375-0.41719-2.0831-1.0422-4.9997-1.875-8.75m266.88 5.625-3.125 1.875 3.125-1.875m30.625 0.625h-4.375 6.875-6.25c-5.0003 1.25-8.7503 3.5419-11.25 6.875-2.5003 3.3336-3.7503 5.8336-3.75 7.5-3.1e-4 1.6669 0.20781 2.9169 0.625 3.75l3.125 6.25 5 2.5h5.625l-3.75-8.125v-1.875c-3.1e-4 -6.6664 4.3747-11.25 13.125-13.75 0.41562-0.41719 1.25-0.625 2.5-0.625 1.25 3.1e-4 2.2912-0.20781 3.125-0.625l-10.625-1.875m-263.12 20c2.4998-4.1664 3.7498-7.9164 3.75-11.25-1.6e-4 -4.5831-1.25-6.8747-3.75-6.875l-1.875 1.875-0.625 1.25v1.25l2.5 6.875v6.875m-23.75-10.625-0.625 1.875c4.1666 2.5003 7.7083 3.7503 10.625 3.75 0.83281 3.1e-4 2.0833 3.1e-4 3.75 0 1.6666-0.41719 3.5416-0.83281 5.625-1.25v-1.875l-19.375-2.5m48.125 1.875c4.1666 8.7503 5.8331 13.125 5 13.125 1.6666 1.6e-4 2.7081-0.20781 3.125-0.625-2.5002-9.1664-4.3752-13.541-5.625-13.125l-2.5 0.625m145 0.625-38.75 0.625h-29.375l-8.125 0.625c-4.1669-0.83281-6.4586-1.25-6.875-1.25-2.9169 3.1e-4 -4.3752 2.2919-4.375 6.875v85c-1.6e-4 2.5002 0.20781 4.5834 0.625 6.25l3.125 3.125v-96.875l86.875-2.5-3.125-1.875m-203.75 35-0.625 6.875-1.25 5.625v1.875c-1.6e-4 -0.83281-1.6e-4 1.6e-4 0 2.5 0.41719 2.0836 0.83281 5.8336 1.25 11.25 0.41719 12.5 2.9166 21.875 7.5 28.125l1.875-5-5.625-16.25-0.625-19.375 3.125-17.5 3.75-11.875 3.125-3.75 2.5-6.25 1.875-3.125c-1.6e-4 -1.25-0.83281-1.8747-2.5-1.875-2.0834 3.1e-4 -5.6252 6.2502-10.625 18.75-0.41719 0.83438-1.0422 2.2919-1.875 4.375-0.41719 1.6669-1.0422 3.5419-1.875 5.625m388.12-28.75c-4.5838 7.0836-9.3755 10.417-14.375 10l-6.25-0.625v3.125h10c8.7495 0.83281 13.125-1.6664 13.125-7.5-4.7e-4 -1.6664-0.83438-3.3331-2.5-5m-250.62 3.125-3.125 8.75-4.375 30 1.25 18.75 1.875 11.875 1.875 5 3.75 15 0.625 1.875 1.25 2.5 0.625 4.375 1.25 6.25c1.25 5.0002 1.8747 8.7502 1.875 11.25-3.1e-4 0.83281-0.20938 2.0834-0.625 3.75-3.1e-4 1.25-0.20781 2.9167-0.625 5l-3.125 10c-2.0836 2.5002-5.6252 4.1667-10.625 5 0.83281 3.3334 3.3331 5.0002 7.5 5 8.7497 1.6e-4 13.125-6.2498 13.125-18.75l-0.625-3.125h3.125c0.41719 1.6667 1.25 2.5002 2.5 2.5 1.25 1.6e-4 1.8747-0.20781 1.875-0.625l1.875-5 1.875-1.25-1.875-10.625-5-18.75-10.625-16.875c-1.25-1.6666-1.8753-3.3331-1.875-5-3.1e-4 -0.83281 0.625-1.8748 1.875-3.125-0.83438-2.4998-1.25-3.5416-1.25-3.125-3.1e-4 -1.6666 1.0406-2.4998 3.125-2.5 4.1664 1.6e-4 6.2497 2.2919 6.25 6.875-0.41719 0.41719-0.625 2.7084-0.625 6.875-0.83281 2.0834-0.20781 5.4169 1.875 10h0.625l1.25 1.875c2.4997 2.5002 4.1664 5.4169 5 8.75 2.4997 7.5002 4.5831 11.25 6.25 11.25 0.83281 1.6e-4 1.8747-1.0422 3.125-3.125l8.75 1.875-3.125 3.125h5c7.9164 1.6e-4 11.875-1.6666 11.875-5-3.1e-4 -0.83281-0.20938-1.4578-0.625-1.875l-3.125-5.625 8.75-5c4.583-2.0831 7.083-8.1248 7.5-18.125-4.167-10.417-9.5836-15.625-16.25-15.625 1.25 1.6e-4 0.625 0.41719-1.875 1.25-2.0836 0.41719-6.0419 1.0422-11.875 1.875h-1.875c-3.3336 1.6e-4 -6.4586-2.4998-9.375-7.5-0.41719 0.83438-0.625 2.2919-0.625 4.375-3.1e-4 0.83281 0.625 1.8752 1.875 3.125 2.4997 5.0002 5.8331 7.5002 10 7.5 2.0831 1.6e-4 3.7497-0.625 5-1.875l5.625-5c0.83281-0.83281 1.8747-1.25 3.125-1.25 2.4997 1.6e-4 5.4164 2.5002 8.75 7.5-3.1e-4 6.2502-2.5003 10.833-7.5 13.75l3.125-1.875c-5.4169 2.0834-8.9586 3.1252-10.625 3.125-3.7503 1.6e-4 -7.7086-1.4578-11.875-4.375l-6.25-4.375-0.625-1.875c-8.3336-14.583-12.5-29.375-12.5-44.375-3.1e-4 -9.1664 0.83281-16.875 2.5-23.125l-0.625-1.25h-14.375m20 14.375 0.625 3.75 0.625 2.5 1.25 1.25 1.875 5 1.875 2.5c4.1664 4.5836 6.8747 7.2919 8.125 8.125 1.6664 0.41719 4.3747 0.83281 8.125 1.25l-0.625-6.875 11.875 0.625c7.9164 1.6e-4 11.875-5.2081 11.875-15.625-3.1e-4 -4.9998-1.25-7.4998-3.75-7.5-0.83281 1.6e-4 -1.667 1.6669-2.5 5-3.1e-4 1.6669-1.0422 3.5419-3.125 5.625-3.3336 1.6669-6.4586 2.5002-9.375 2.5-0.83438 1.6e-4 -1.6669 1.6e-4 -2.5 0-0.83281-0.41562-2.0836-0.83281-3.75-1.25l-1.875-0.625-4.375-2.5-0.625-1.25c-3.7503-4.9998-5.8336-10.625-6.25-16.875h-4.375c-2.5003 1.6e-4 -3.7503 0.83438-3.75 2.5-3.1e-4 2.0836 0.20781 3.5419 0.625 4.375v7.5m161.25-14.375-1.875 3.125c-3.7505 3.7502-8.3338 6.4586-13.75 8.125l-16.875 5-13.125 6.875v0.625l-6.25 5.625h-1.875l-0.625 0.625c-13.75 12.084-20.625 23.125-20.625 33.125-3.1e-4 4.5834 1.6662 9.1669 5 13.75 4.1662 6.6669 11.041 10 20.625 10 9.9997 1.6e-4 21.666-8.1248 35-24.375 0.41562-1.25 1.6662-3.1248 3.75-5.625l5-3.75c5.4162-4.1664 10.416-6.2498 15-6.25 11.25 1.6e-4 16.875 3.7502 16.875 11.25v0.625l1.25 1.875c2.4995-4.1666 3.7495-7.2916 3.75-9.375-4.7e-4 -2.4998-1.8755-6.0414-5.625-10.625-2.0838-1.6664-5.2088-2.9164-9.375-3.75h3.125l-7.5-0.625 1.875-8.125-13.125-2.5 0.625 0.625c-4.167-0.83281-6.2505-1.25-6.25-1.25-0.83438 1.6e-4 -3.9588 1.0422-9.375 3.125l-3.75 1.875c-7.0838 5.8336-11.667 10.834-13.75 15-1.25 2.9169-4.5838 7.7084-10 14.375l1.875-1.875c-4.5838 3.3334-7.292 5.0002-8.125 5-1.25 1.6e-4 -3.1253-0.625-5.625-1.875l-2.5-3.125 5.625-5 11.875-3.75 4.375-6.875 1.875-0.625c2.4997-6.6664 6.458-11.25 11.875-13.75l9.375-3.75c8.333-3.3331 12.5-8.7498 12.5-16.25-4.7e-4 -0.41719-0.20938-1.25-0.625-2.5-4.7e-4 -1.25-0.20938-2.9164-0.625-5m16.25 1.25-3.75 6.25-5 4.375-4.375 5.625c9.1662-4.1664 13.541-8.3331 13.125-12.5v-3.75m93.125 8.125-6.25 3.125-0.625 1.25h-15c-0.83438 0.83438-1.25 2.0836-1.25 3.75-4.7e-4 2.0836 3.3328 3.1252 10 3.125 13.333 1.6e-4 20-5.2081 20-15.625-0.83438-1.25-1.4594-1.8748-1.875-1.875h-0.625c-1.25 0.41719-2.2922 1.4594-3.125 3.125l-1.25 3.125m-409.38-5.625c-1.25 1.25-1.8752 2.2919-1.875 3.125-1.6e-4 1.6669 1.0422 2.9169 3.125 3.75 7.9166 3.3336 15.417 5.0002 22.5 5 20 1.6e-4 30-2.7081 30-8.125-1.6e-4 -1.25-0.41719-1.8748-1.25-1.875-1.25 1.6e-4 -2.7084 0.625-4.375 1.875-5.0002 2.0836-14.167 3.1252-27.5 3.125-5.4167 1.6e-4 -12.292-2.2914-20.625-6.875m220 5c-4.167 4.5836-7.0836 8.7502-8.75 12.5-1.25 3.3336-1.8753 5.6252-1.875 6.875-3.1e-4 1.25 0.625 3.3336 1.875 6.25l-0.625 2.5-8.75-3.75-1.25 13.125 3.75 7.5 1.25 1.25c2.083 3.3334 4.1664 5.0002 6.25 5 1.6664 1.6e-4 2.4997-0.625 2.5-1.875-3.1e-4 1.6e-4 -0.41719-1.6666-1.25-5h3.125v1.875l3.125 3.125-2.5-11.25h3.125c0.83281 1.6e-4 1.25 0.625 1.25 1.875l-0.625 2.5 0.625 1.875 1.25 1.25v-5.625c-0.41719-0.41719-0.625-1.4578-0.625-3.125-3.1e-4 -1.25 0.83281-1.8748 2.5-1.875-3.1e-4 1.6e-4 -3.1e-4 0.20938 0 0.625 0.41719 1.6e-4 0.83281 0.41719 1.25 1.25 2.9162-4.1664 4.3747-8.1248 4.375-11.875-3.1e-4 -3.7498-2.0838-9.5831-6.25-17.5-0.83438-1.6664-2.0836-4.1664-3.75-7.5m-30 10.625c-2.0836 11.667-3.1253 16.667-3.125 15-3.1e-4 0.83438-3.1e-4 2.0836 0 3.75 0.41719 1.25 0.83281 2.9169 1.25 5 0.41719 3.3336 1.4578 5.6252 3.125 6.875l-0.625 1.25 1.875 2.5 3.125 5.625c0.41562 0.41719 1.4578 0.625 3.125 0.625 2.083 1.6e-4 3.1247-0.83281 3.125-2.5-3.1e-4 -1.25-1.4594-4.1666-4.375-8.75-2.5003-4.5831-3.7503-9.7914-3.75-15.625-3.1e-4 -4.9998 1.0406-9.1664 3.125-12.5 2.4997-3.7498 3.7497-5.6248 3.75-5.625-3.1e-4 -1.6664-0.20938-2.7081-0.625-3.125h-1.25c-0.41719-0.41562-0.83281-0.625-1.25-0.625l-0.625-0.625-6.25 8.125-0.625 0.625m136.25-7.5-7.5 1.25-7.5 3.75-5 1.875-0.625 1.875 4.375-0.625 10-4.375 10.625-0.625c0.41562-0.41719 0.625-1.0422 0.625-1.875-4.7e-4 -1.25-0.625-1.8748-1.875-1.875l-0.625 0.625h-2.5m29.375 1.875c2.9162 0.41719 4.9995 1.0422 6.25 1.875 10.833 2.0836 18.75 8.9586 23.75 20.625l0.625 6.25c-4.7e-4 0.83281-1.0422 3.7502-3.125 8.75l-0.625 1.875c-4.1672 2.9169-7.9172 4.3752-11.25 4.375-3.3338 1.6e-4 -5.6255-0.20781-6.875-0.625 2.4995 6.2502 5.4162 9.3752 8.75 9.375 1.25 1.6e-4 3.1245-0.625 5.625-1.875l6.25-1.875c4.9995-1.6666 7.4995-7.9166 7.5-18.75-4.7e-4 -12.083-5.8339-21.25-17.5-27.5-4.5838-2.4998-7.9172-3.7498-10-3.75h-9.375v1.25m-123.75 14.375 5-0.625-3.125 5.625c9.9997-6.6664 15-10.833 15-12.5-3.1e-4 -5.4164-1.25-8.1248-3.75-8.125-2.0838 0.83438-3.7503 1.8752-5 3.125l-3.125 2.5c-2.5003 1.6669-4.167 5.0002-5 10m20-15.625-0.625 4.375 1.25 3.75 3.75-1.875-3.125-5-1.25-1.25m-200.62 4.375c-2.5002 0.83438-3.7502 2.9169-3.75 6.25v1.25l0.625 4.375c-0.41719 10-2.2919 21.042-5.625 33.125l-2.5 5.625c-10 17.917-19.375 26.875-28.125 26.875h-6.875c-0.83281 0.83281-1.6667 2.0834-2.5 3.75 1.25 0.41719 3.7498 0.625 7.5 0.625 5.4166 1.6e-4 11.875-2.7081 19.375-8.125 7.4998-5.4166 13.125-13.958 16.875-25.625 2.0831-5.8331 3.5416-10.625 4.375-14.375 0.83281-4.1664 1.4578-7.0831 1.875-8.75v-6.875l1.25-12.5-2.5-5.625m311.88 2.5 2.5 5 1.25 4.375-2.5 4.375v0.625c-4.7e-4 1.6669 1.25 2.5002 3.75 2.5 0.83281 1.6e-4 1.25-0.41562 1.25-1.25l0.625-1.875 1.25-1.25 0.625-2.5v-0.625c0.41562-2.9164-2.5005-6.0414-8.75-9.375m-48.75 1.875 15 5c-1.25-4.1664-3.7505-6.2498-7.5-6.25-1.667 1.6e-4 -2.7088 0.20938-3.125 0.625l-4.375 0.625m97.5 0-4.375 1.875-11.25 3.125 5 31.25h-0.625c0.41562 2.0834 0.625 4.7919 0.625 8.125v5.625c-4.7e-4 2.9169-0.83438 7.7084-2.5 14.375-1.25 6.6669-1.8755 10.833-1.875 12.5v4.375l-3.125 5.625 0.625 2.5-2.5 3.125 0.625 3.75-0.625 4.375c3.3328-0.83281 5.4161-1.6666 6.25-2.5 0.83281-0.83281 1.6661-2.4998 2.5-5l3.125-6.25 5.625-20c0.83281-3.7498 1.4578-7.4998 1.875-11.25 0.41562-3.7498 0.83281-7.2916 1.25-10.625l1.25-23.75-1.875-21.25m-411.25 19.375c1.25-4.9998 4.1666-7.4998 8.75-7.5 3.7498 1.6e-4 7.4998 2.0836 11.25 6.25l0.625 8.75-1.25 3.125c-0.83281 1.6669-1.6669 3.1252-2.5 4.375-0.41719 0.83281-1.0422 1.6669-1.875 2.5l-15 15c-3.7502 3.7502-6.6667 8.1252-8.75 13.125l4.375-4.375c6.2498-6.2498 9.7916-9.5831 10.625-10l9.375-6.25c3.3331-2.0831 7.4998-6.2498 12.5-12.5l3.125-3.75 1.25-3.125-0.625-4.375c-0.41719-1.25-0.625-2.7081-0.625-4.375-0.83281-1.6664-1.8752-3.3331-3.125-5-1.25-2.0831-2.5002-4.1664-3.75-6.25l-1.875 1.875c-0.83281 2.5002-1.4578 3.7502-1.875 3.75-2.0834-0.83281-4.3752-2.2914-6.875-4.375-2.5002-2.4998-4.7917-3.3331-6.875-2.5-7.9167 1.6e-4 -11.875 3.5419-11.875 10.625-1.6e-4 2.0836 1.6666 3.7502 5 5m423.12-0.625 1.875 0.625c-2.0839 1.6e-4 -4.1672 1.0422-6.25 3.125-2.0839 5.0002-3.3339 10.625-3.75 16.875l0.625 1.875h-0.625l-0.625 5.625c0.83281-1.6666 1.6661-3.5416 2.5-5.625 0.83281-2.0831 1.6661-4.1666 2.5-6.25l4.375-5.625 0.625-0.625 10-0.625c0.83281-0.83281 1.25-1.6664 1.25-2.5-6.3e-4 -4.5831-2.9172-6.8748-8.75-6.875h-3.75m-129.38 16.25c-0.41719 0.41719-0.625 1.4578-0.625 3.125-4.7e-4 1.25 0.83281 2.7084 2.5 4.375l6.25 6.875 19.375 24.375 10 13.75 1.875 1.875 13.125 15 1.875 3.125 3.75 3.125 13.75 15 3.75 3.125 4.375 3.75 1.875 1.875 0.625-2.5-3.75-3.125-3.125-3.75-3.125-2.5-20-22.5-8.75-10.625-3.125-3.125-3.75-5-3.75-4.375-13.75-18.75c-6.2505-8.7498-12.709-16.458-19.375-23.125m-11.875 14.375c6.6662 1.6e-4 11.458 0.83281 14.375 2.5-2.917 12.5-8.1255 19.167-15.625 20-0.41719 0.41719-0.625 1.0422-0.625 1.875-4.7e-4 0.83281 1.0406 1.8752 3.125 3.125 1.25 5.0002 3.333 8.1252 6.25 9.375 2.9162 0.83281 4.3745 1.25 4.375 1.25l0.625 0.625-0.625 2.5 1.25-3.75-2.5 6.875h-1.875c-0.41719 0.41719-0.625 1.25-0.625 2.5-4.7e-4 0.83281 0.625 1.8752 1.875 3.125 1.6662 1.25 3.333 3.1252 5 5.625l3.75 5.625 0.625 1.25 1.875 1.875 10.625 11.875 16.25 16.25c12.5 11.667 27.291 18.542 44.375 20.625l8.75 0.625c8.3328 1.25 14.791 0.83281 19.375-1.25l9.375-5c0.41562-0.41719 0.625-1.0422 0.625-1.875-4.7e-4 -1.25-2.2922-2.2916-6.875-3.125l-4.375-1.25-8.125-2.5-11.875-5.625-11.25-9.375-2.5-1.875-1.875-1.25-0.625-1.25-21.875-22.5-5.625-6.875-44.375-57.5c-0.41719-1.6666-1.4594-2.4998-3.125-2.5h-0.625l-7.5 10m-70-8.75-5 0.625c-3.3336 1.6e-4 -6.042 1.0422-8.125 3.125l-3.75 1.875c-3.7503 5.0002-6.667 12.917-8.75 23.75l-0.625 3.75c1.25-0.41719 2.083-0.625 2.5-0.625 0.83281-0.41719 1.25-0.625 1.25-0.625 0.83281 1.6e-4 1.6664 0.625 2.5 1.875-1.667 2.9169-2.5003 5.2084-2.5 6.875-3.1e-4 2.9167 0.20781 4.7917 0.625 5.625l-1.25 8.125c8.333 1.6e-4 14.166-0.41719 17.5-1.25 1.6664-0.83281 2.9164-1.4578 3.75-1.875l1.25-1.25c0.83281 1.6e-4 1.25 0.41719 1.25 1.25-3.1e-4 1.6e-4 -0.20938 0.41719-0.625 1.25-3.1e-4 0.41719-0.20938 1.25-0.625 2.5 1.6664 1.25 2.9164 1.8752 3.75 1.875 16.25 1.6e-4 24.375-8.7498 24.375-26.25-3.1e-4 -2.9166-0.83438-4.5831-2.5-5v3.125l-0.625 1.25c-2.0838-0.83281-3.1253-1.6666-3.125-2.5v-4.375c-0.83438 2.5002-1.8753 3.7502-3.125 3.75h-0.625l1.875-1.25h-2.5v-3.75c-1.667 0.83281-3.3338 1.4578-5 1.875-1.667 0.41719-3.542 1.0422-5.625 1.875v-1.875c5.4164-1.25 8.1247-3.5416 8.125-6.875-3.1e-4 -0.83281-1.25-1.25-3.75-1.25h-0.625l1.25-5-2.5 0.625 1.875-0.625-5-0.625 3.75-4.375-6.875 1.875-1.25-2.5 5.625-3.125-2.5-0.625-4.375-1.25m-178.75 1.25-11.25 3.125c-4.1669 0.83281-7.5002 2.2919-10 4.375l-6.875 5-2.5 2.5-3.125 2.5c-9.5834 12.083-16.042 24.167-19.375 36.25-1.25 3.7502-1.8752 6.0417-1.875 6.875l0.625 5.625c-1.6e-4 2.0834 0.20781 5.0002 0.625 8.75 0.83281 3.3334 1.6666 7.7084 2.5 13.125l6.875-3.125c-0.83281-4.5833-1.6667-7.7083-2.5-9.375-0.41719-1.6666-0.625-2.0833-0.625-1.25l0.625-4.375-0.625-9.375 1.875-5.625v-5c1.25-2.0833 2.7083-4.5833 4.375-7.5 2.0833-3.3331 4.1666-7.2916 6.25-11.875 1.25-2.9166 2.0833-4.5831 2.5-5 0.41719-0.83281 2.9166-3.1248 7.5-6.875 2.4998-2.0831 4.3748-3.5416 5.625-4.375 1.6666-0.83281 2.7083-1.4578 3.125-1.875l16.25-4.375 3.125-7.5-3.125-0.625m35.625 16.875 3.125 1.875v1.875l3.125 3.125 1.875 0.625c3.3331 10.833 4.9998 18.125 5 21.875-1.6e-4 5.8334-3.1252 12.083-9.375 18.75l-8.75 5.625-11.875 1.25h-1.25l-5-2.5-4.375-1.875-5.625-6.25-1.25-0.625c-1.6669 1.6e-4 -2.5002 0.83281-2.5 2.5-1.6e-4 1.25 0.20781 2.0834 0.625 2.5 4.9998 7.9167 12.5 11.875 22.5 11.875 9.5831 1.6e-4 17.708-3.3333 24.375-10 6.6664-7.0833 9.9998-15.417 10-25-1.6e-4 -8.3331-3.7502-17.292-11.25-26.875-2.9169-2.9166-6.4586-5.4166-10.625-7.5l-6.875-3.125c-1.6669-0.41719-3.1252-0.83281-4.375-1.25-1.25-0.41719-2.2919-0.83281-3.125-1.25h-1.875l-1.25 3.75-0.625 1.25 0.625 0.625c0.41719 0.41719 2.0831 0.625 5 0.625 1.6666 0.83281 3.5416 2.0834 5.625 3.75 2.4998 1.25 5.2081 2.7084 8.125 4.375m286.88-5.625-3.125 3.125-1.875 3.75-1.25 3.75c7.9162-5.4166 12.916-8.1248 15-8.125 1.6662 1.6e-4 4.1662 0.625 7.5 1.875l1.875 2.5v0.625c-4.7e-4 1.6669 0.41562 2.9169 1.25 3.75 2.4995 1.6e-4 3.7495-1.6666 3.75-5-4.7e-4 -7.0831-4.1672-10.625-12.5-10.625-4.1672 1.6e-4 -7.7088 1.4578-10.625 4.375m-34.375 2.5 8.125 1.25c0.41562 1.6669 0.625 2.9169 0.625 3.75 0.41562 0.83281 0.625 1.6669 0.625 2.5-4.7e-4 1.6669-0.625 3.7502-1.875 6.25h1.875c3.3328-5.8331 4.9995-9.5831 5-11.25-4.7e-4 -4.9998-2.7088-7.4998-8.125-7.5-4.167 1.6e-4 -6.2505 1.6669-6.25 5m-37.5-3.125-6.875 1.25-1.25 3.125c0.41562-0.41719 1.6662-0.625 3.75-0.625 1.6662 1.6e-4 2.4995 0.83281 2.5 2.5-4.7e-4 0.83281-0.625 1.4578-1.875 1.875-0.83438-0.41719-2.292-0.625-4.375-0.625-4.167 1.6e-4 -6.2503 0.83281-6.25 2.5 0.41562 1.25 1.6662 2.7084 3.75 4.375 2.4997 1.6669 4.7912 2.5002 6.875 2.5 7.083 1.6e-4 11.041-4.9998 11.875-15 0.83281-2.0831-0.41719-3.1248-3.75-3.125l-2.5 0.625-1.875 0.625m101.25 3.75 3.125 2.5 3.125 5.625 0.625 6.875 0.625 3.125-2.5 8.125v4.375c4.1661-8.3331 6.2495-16.25 6.25-23.75-4.7e-4 -3.7498-1.4594-6.8748-4.375-9.375h-5.625l-1.25 2.5m-303.75 0.625c2.9164 2.9169 5.4164 7.0834 7.5 12.5l2.5 5.625 3.75 5c4.1664 3.7502 7.7081 5.6252 10.625 5.625 6.2498 1.6e-4 9.3748-2.9166 9.375-8.75-1.6e-4 -2.9166-0.20938-4.9998-0.625-6.25h-2.5c-0.83281 4.5834-2.7086 6.8752-5.625 6.875-3.7502 1.6e-4 -7.2919-2.2916-10.625-6.875l-8.75-11.25-6.875-5 1.25 2.5m-35.625-0.625-1.25 5c1.25 2.0834 1.8748 3.7502 1.875 5-1.6e-4 2.9169-1.4578 4.3752-4.375 4.375-1.6669 1.6e-4 -2.7084-0.20781-3.125-0.625 2.9166 2.9169 5.4166 4.3752 7.5 4.375 4.9998 1.6e-4 7.4998-2.4998 7.5-7.5-1.6e-4 -4.1666-2.7084-7.7081-8.125-10.625m13.125-0.625 0.625 8.75v11.875c6.2498 0.83281 9.3748 2.0834 9.375 3.75-1.6e-4 -0.41719-0.41719 1.0422-1.25 4.375l-4.375-0.625h2.5c-3.3334 0.83281-5.2084 2.9167-5.625 6.25 1.6666 2.5002 3.5416 3.7502 5.625 3.75 6.6664 1.6e-4 9.9998-4.3748 10-13.125-1.6e-4 -5.8331-0.41719-9.3748-1.25-10.625-0.83438-1.25-1.8752-1.8748-3.125-1.875l-3.125-7.5-4.375-2.5-5-2.5m207.5 10 0.625 3.75h-1.25l0.625-1.25-4.375 0.625-4.375-1.875-1.25 3.125 1.875 0.625 3.75 3.75-1.875-1.875c0.83281 0.83281 1.25 1.4578 1.25 1.875 0.41562 0.41719 0.83281 0.83281 1.25 1.25-0.41719 0.41719-0.625 0.83281-0.625 1.25l-0.625 0.625-6.875-5-2.5-1.875-1.25-0.625-0.625 5-3.75-3.75-3.75-1.875-0.625 8.75 1.875 6.875c-3.1e-4 3.7502 1.25 6.4584 3.75 8.125l1.25 1.875c5.833 4.5834 11.666 6.8752 17.5 6.875 0.83281 1.6e-4 1.6662-0.625 2.5-1.875l-1.25-4.375c1.25 0.41719 2.9162 0.625 5 0.625h4.375c8.333 1.6e-4 12.5-1.6666 12.5-5-4.7e-4 1.6e-4 -0.20938-0.20781-0.625-0.625-4.7e-4 -0.41719-0.20938-1.0422-0.625-1.875-2.0838-2.0833-5.0005-5.6248-8.75-10.625l-4.375-6.25-5-5.625-3.75-0.625m150.62 0c-2.9172 1.6e-4 -4.3755 1.4578-4.375 4.375-4.7e-4 2.0834 1.0406 3.1252 3.125 3.125 2.9161 1.6e-4 4.3745-1.6666 4.375-5-4.7e-4 -1.6666-1.0422-2.4998-3.125-2.5m9.375 6.25h-1.25c-0.83438 1.6e-4 -1.4594 0.625-1.875 1.875v1.25c-4.7e-4 2.0834 1.25 3.1252 3.75 3.125 2.9161 1.6e-4 4.3745-1.25 4.375-3.75-4.7e-4 -1.6666-1.6672-2.4998-5-2.5m-70 1.875c-4.1672 1.6669-6.8755 4.1669-8.125 7.5h3.75c6.2495-0.83281 10.416 2.2917 12.5 9.375 1.25 5.8334 1.6662 9.7917 1.25 11.875-1.25 3.7502-1.8755 6.0417-1.875 6.875 0.41562 1.25 1.6662 2.2917 3.75 3.125l8.125 10 1.875 3.125 1.875 2.5 10.625 8.75c7.9161-11.667 15.208-17.083 21.875-16.25h5l7.5 3.75c1.6661 2.9167 2.4995 5.6252 2.5 8.125v2.5l-3.75 6.875c8.3328-0.83281 12.499-5 12.5-12.5-6.3e-4 -7.9166-3.7505-12.917-11.25-15l-2.5-1.875-1.25-1.875c2.4995-1.25 4.1661-3.3333 5-6.25l-11.875-3.125c-1.6672-0.41719-3.1255-0.625-4.375-0.625-0.83438-0.41719-1.6672-0.625-2.5-0.625-2.0839 1.6e-4 -3.9589 0.83281-5.625 2.5l-3.75 1.25-1.25 0.625-5 6.25-2.5 5.625-3.125 3.75-1.875 2.5c-0.41719 0.41719-0.83438 0.625-1.25 0.625-2.9172 1.6e-4 -3.9588-1.0422-3.125-3.125v-1.25l4.375-5c0.83281-0.83281 1.25-1.8748 1.25-3.125 0.41562-1.25 0.83281-2.2916 1.25-3.125v-8.125l0.625-6.875c-4.7e-4 -2.4998-1.0422-3.7498-3.125-3.75-1.6672 1.6e-4 -3.1255 1.4578-4.375 4.375l-3.125-0.625v-6.25c0.41562-9.1666-4.5838-13.75-15-13.75h-1.875l-3.125 1.25m-298.75 3.75c-5.4169 2.5002-8.1252 4.7919-8.125 6.875l-0.625 4.375-0.625 1.875v1.25l0.625 2.5c0.41719 0.41719 1.25 0.625 2.5 0.625l-1.25 0.625c4.1666 4.1667 7.9166 6.2502 11.25 6.25 2.4998 1.6e-4 5.6248-1.0422 9.375-3.125 4.1664-2.4998 6.2498-4.7916 6.25-6.875v-1.875c-3.7502 4.1667-7.5002 6.2502-11.25 6.25-5.8334 1.6e-4 -8.7502-2.2916-8.75-6.875-1.6e-4 -2.9166 2.2916-6.0416 6.875-9.375l-6.25-2.5m-29.375 1.875h-1.25c-1.25 1.6e-4 -2.0834 0.625-2.5 1.875l-0.625 0.625c-1.6e-4 2.0834 1.4578 3.1252 4.375 3.125 2.9166 1.6e-4 4.3748-1.25 4.375-3.75-1.6e-4 -1.25-1.4578-1.8748-4.375-1.875m376.88 11.25-2.5 1.875v1.25l-0.625 1.875 3.75-0.625v-1.25h3.125l-0.625-3.125 1.25-1.875c2.9161-2.9166 5.4161-4.3748 7.5-4.375 0.83281 1.6e-4 2.9161 0.625 6.25 1.875l-2.5 3.75 7.5 1.25-1.25 0.625 3.125 0.625 1.25-0.625-2.5-0.625 1.25-1.25c-0.41719-2.4998-1.8755-4.3748-4.375-5.625-2.0839-1.25-4.1672-2.4998-6.25-3.75l1.25 2.5c-2.0839-2.4998-3.5422-3.7498-4.375-3.75-3.7505 1.6e-4 -7.5005 3.7502-11.25 11.25m-312.5-8.125c0.41719 1.25 0.625 3.5417 0.625 6.875-1.6e-4 7.0834-1.8752 12.708-5.625 16.875l-8.125 8.75-3.125 3.75-6.25 3.125c-2.0834 0.83281-4.1669 1.6667-6.25 2.5-1.6669 0.83281-3.5419 1.4578-5.625 1.875-1.25 5.0002-5.2084 10.208-11.875 15.625-6.6669 5.4167-15 8.125-25 8.125-4.5834 0-6.8752 0.83281-6.875 2.5 0.41719 0.41719 0.625 0.83281 0.625 1.25-1.6e-4 0.83281 0.20781 1.4578 0.625 1.875l4.375 2.5 75-2.5 30 3.125c1.6664 0.41719 4.1664 0.625 7.5 0.625h7.5c13.333 0 20-1.875 20-5.625-3.1e-4 -1.25-1.6669-2.2916-5-3.125l-14.375-0.625-4.375-0.625-9.375-1.875-1.875-1.25-3.75-1.25-3.125-1.25-8.125-6.25c-11.25-9.1666-16.875-21.667-16.875-37.5-1.6e-4 -1.6666 0.20781-4.1666 0.625-7.5 0.41719-3.3333 0.625-5.6248 0.625-6.875-1.6e-4 -1.25-0.625-2.2916-1.875-3.125m-50.625 6.875c1.25 1.6e-4 1.8748-1.0422 1.875-3.125-1.6e-4 -2.0833-1.0422-3.1248-3.125-3.125-1.6669 1.6e-4 -2.5002 0.83281-2.5 2.5-1.6e-4 2.5002 1.25 3.7502 3.75 3.75m-26.875-3.125c-1.6667 1.6e-4 -2.5002 1.0422-2.5 3.125-1.6e-4 2.5002 1.25 3.7502 3.75 3.75 2.4998 1.6e-4 3.7498-1.25 3.75-3.75-1.6e-4 -2.4998-1.4578-3.7498-4.375-3.75l-0.625 0.625m82.5-0.625-0.625 6.25v6.25c-1.6e-4 7.9167 0.83281 14.375 2.5 19.375l3.75 4.375-2.5-35-3.125-1.25m47.5 2.5v7.5c-3.1e-4 1.6667 1.4578 3.3334 4.375 5l3.125 3.125 5.625 5c20.416 17.917 47.291 26.875 80.625 26.875 19.166 0 35.416-4.1666 48.75-12.5 2.4995-1.6666 4.7912-2.9166 6.875-3.75 2.083-0.83281 3.1245-1.6666 3.125-2.5-4.7e-4 -0.83281-0.41719-1.6666-1.25-2.5l-1.875-3.125-6.25 2.5-10 5.625c-0.41719 0.41719-3.9588 1.6667-10.625 3.75l-9.375 1.875-11.25 1.25-6.25 1.25-5-0.625-8.125 0.625c-2.5003 1.6e-4 -4.167-0.20781-5-0.625l-7.5-0.625-15-3.75-8.125-2.5-7.5-4.375-5.625-2.5-8.75-5-4.375-3.75-6.875-5-8.125-8.75-5.625-2.5m-114.38 10.625 5.625-1.875c0.83281 1.6e-4 1.25-0.41719 1.25-1.25-1.6e-4 -2.9166-2.0834-4.3748-6.25-4.375h-1.875c-2.0834 1.6e-4 -3.7502 1.25-5 3.75v0.625c-1.6e-4 2.9167 1.0422 4.3752 3.125 4.375l3.125-1.25m-41.875 13.75v2.5l1.875-1.25c0.41719-6.6666 3.3333-9.9998 8.75-10h0.625l1.875 0.625 1.25 0.625 5.625 5.625c1.6666 1.6e-4 2.4998-0.625 2.5-1.875-1.6e-4 -7.9166-3.7502-11.875-11.25-11.875-3.3334 1.6e-4 -6.0417 1.8752-8.125 5.625-2.0834 3.3334-3.1252 6.6667-3.125 10m240.62-12.5 2.5 1.875 1.25 2.5v4.375c-3.3338 5.0002-8.7503 7.5002-16.25 7.5-4.167 1.6e-4 -6.8753-0.20781-8.125-0.625-11.667-1.25-21.875-3.9583-30.625-8.125v1.25c15.416 10 29.375 15 41.875 15 15 1.6e-4 22.5-5.4166 22.5-16.25-3.1e-4 -7.0833-3.542-10.625-10.625-10.625-0.83438 1.6e-4 -1.4594 0.20781-1.875 0.625l-0.625 2.5m-187.5-1.25v1.25c-1.6e-4 3.3334 1.0422 5.0002 3.125 5 2.0831 1.6e-4 3.1248-1.0422 3.125-3.125-1.6e-4 -2.9166-1.25-4.3748-3.75-4.375l-2.5 1.25m101.25 3.125v2.5c-3.1e-4 1.6e-4 2.2914 3.5417 6.875 10.625 1.25 1.25 2.0831 2.2917 2.5 3.125 1.6664 3.7502 5.6247 7.9167 11.875 12.5l1.25-1.875c-2.0836-2.4998-5.0003-5.4166-8.75-8.75l-9.375-13.75-4.375-4.375m-75.625 1.875c-0.41719 1.6e-4 -1.25 0.20781-2.5 0.625-1.25 1.6e-4 -2.9169 0.20781-5 0.625-0.83281 0.83281-1.25 1.6667-1.25 2.5-1.6e-4 2.0834 0.83281 3.1252 2.5 3.125 1.25 1.6e-4 4.1666-2.4998 8.75-7.5h-2.5v0.625m-47.5 0h-1.875c-0.41719 0.41719-0.625 1.0422-0.625 1.875-1.6e-4 2.5002 1.8748 3.7502 5.625 3.75 1.6666 1.6e-4 2.4998-0.625 2.5-1.875-1.6e-4 -2.4998-1.8752-3.7498-5.625-3.75m116.88 5.625 1.25 17.5-1.875 9.375-2.5 4.375-0.625 0.625c-3.1e-4 2.0834 1.0406 3.125 3.125 3.125l0.625-0.625c0.83281 0 1.25-0.20781 1.25-0.625l0.625-3.125 2.5-9.375c0.83281-3.3333 1.25-5.4166 1.25-6.25-3.1e-4 -9.1666-1.8753-14.167-5.625-15m-117.5 15.625-1.875 1.875v4.375c-1.6e-4 6.6667 3.3331 10 10 10 1.6666 0 2.7081-0.83281 3.125-2.5-4.5834-2.5-6.8752-4.9998-6.875-7.5-1.6e-4 -4.9998 4.7916-7.4998 14.375-7.5l11.25 0.625c5.4166 1.6e-4 8.5416-1.0422 9.375-3.125l-5.625 0.625c-2.5002 1.6e-4 -6.0419-0.625-10.625-1.875-4.5834-1.25-8.1252-1.8748-10.625-1.875-2.5002 1.6e-4 -6.6669 2.2917-12.5 6.875m125-2.5v5.625c-3.1e-4 3.7502-0.20938 5.8334-0.625 6.25-0.41719 0.83281-0.83438 2.0834-1.25 3.75-0.41719 1.25-1.0422 2.9167-1.875 5-3.1e-4 1.25 0.83281 1.875 2.5 1.875 2.0831 0 3.1247-3.9583 3.125-11.875-3.1e-4 -2.4998-0.625-6.0416-1.875-10.625m-27.5 11.25c1.6664 4.1667 3.9581 6.25 6.875 6.25 5.8331 0 9.1664-1.6666 10-5l0.625-11.25-3.125 5c-2.5003 3.7502-5.2086 5.6252-8.125 5.625-2.9169 1.6e-4 -5.0002-0.20781-6.25-0.625m66.875 13.75v2.5c-3.7503 0.83281-5.6253 1.875-5.625 3.125-3.1e-4 2.0834 1.4578 3.9584 4.375 5.625 3.7497 2.5 6.6664 4.375 8.75 5.625 2.083 1.25 3.333 2.0834 3.75 2.5 1.6664 3.75 2.9164 5.625 3.75 5.625l2.5-2.5c-0.41719-3.3333-1.0422-5.4166-1.875-6.25-0.41719-0.83281-2.5003-3.125-6.25-6.875-0.83281-0.83281-1.25-1.6666-1.25-2.5-3.1e-4 -5.8333 1.4578-8.9583 4.375-9.375l11.25-1.875 4.375-2.5-8.125-1.25-5.625-2.5c-0.41719-0.41719-1.8753-0.625-4.375-0.625-3.7503 0-5.6253 1.4578-5.625 4.375l0.625 3.125-5.625-1.875-3.75-3.125-13.125-8.75-0.625 3.75 1.25 1.25c0.83281 0.41719 1.8747 1.0422 3.125 1.875 0.83281 0 1.8747 0.83281 3.125 2.5 1.6664 1.6667 5.208 4.375 10.625 8.125m-190.62-15.625c-9.5834 3.75-16.042 8.5417-19.375 14.375v1.875l-1.25 4.375v3.125c-0.83281 2.5 0.20781 4.5834 3.125 6.25l3.75 0.625c-1.6667-2.9166-2.5002-5.625-2.5-8.125-1.6e-4 -12.083 7.7083-18.125 23.125-18.125 2.0833 0 4.5833 0.83281 7.5 2.5l1.875 3.125v-2.5c0.83281-5.8333-2.5002-8.7498-10-8.75h-1.25l-5 1.25m315 16.25c1.6662 1.6667 2.4995 3.5417 2.5 5.625-4.7e-4 3.3334-3.1255 8.3334-9.375 15-3.3338 0.83281-5.8338 2.7084-7.5 5.625 19.166-1.25 28.75-9.375 28.75-24.375-4.7e-4 -4.5833-2.5005-8.75-7.5-12.5l-3.125-1.25c-3.3338-0.83281-5.0005-1.25-5-1.25-10 0-15 4.1667-15 12.5l0.625 0.625c4.1662-2.5 6.8745-3.75 8.125-3.75 1.6662 0 4.1662 1.25 7.5 3.75m-45.625-11.875c-2.5003 0-3.7503 1.0422-3.75 3.125-3.1e-4 1.6667 1.25 2.5 3.75 2.5 3.7497 0 5.6247-1.0422 5.625-3.125-3.1e-4 -1.6666-1.8753-2.5-5.625-2.5m135.62 6.25 5.625 3.125 3.75-2.5 5.625-1.875-3.75-2.5h-5.625l-5.625 3.75m-405.62-3.125-6.875 4.375c-4.5834 4.5834-6.4584 8.5417-5.625 11.875v3.75c2.4998 2.5 4.7916 3.75 6.875 3.75 2.9166 0 4.3748-1.25 4.375-3.75-1.6e-4 0.41719-0.41719-0.625-1.25-3.125-2.0834-2.0833-3.1252-3.5416-3.125-4.375-1.6e-4 -2.5 2.0833-4.375 6.25-5.625l2.5-0.625c2.9166 0 4.7916 0.20781 5.625 0.625-1.6e-4 4.1667 0.625 6.25 1.875 6.25 2.9166 0 4.3748-2.0833 4.375-6.25-1.6e-4 -4.1666-1.4578-6.4583-4.375-6.875l-1.875-0.625-8.75 0.625m255 1.875c-1.25 0.83281-1.8753 1.875-1.875 3.125-3.1e-4 1.25 1.0406 1.875 3.125 1.875 1.25 0 2.2912-0.625 3.125-1.875l0.625-1.25c-3.1e-4 -1.6666-1.25-2.5-3.75-2.5l-1.25 0.625m-18.75 0.625c-1.25 4.1667-2.917 6.875-5 8.125-1.667 0.83281-6.042 1.6667-13.125 2.5 5.4164 1.25 9.1664 1.875 11.25 1.875 7.9162 0 11.875-2.5 11.875-7.5-3.1e-4 -2.0833-1.667-3.75-5-5m48.125-0.625c-2.917 0-4.3753 1.25-4.375 3.75-3.1e-4 1.6667 1.0406 2.5 3.125 2.5 2.9162 0 4.3745-1.25 4.375-3.75-4.7e-4 -1.6666-1.0422-2.5-3.125-2.5m-15.625 5c-2.0838 0.83281-3.1253 1.875-3.125 3.125-3.1e-4 2.0834 1.25 3.125 3.75 3.125 1.6662 0 3.1247-1.0422 4.375-3.125l0.625-0.625c-3.1e-4 -1.6666-1.4594-2.5-4.375-2.5h-1.25m-55.625 5.625-0.625-0.625c-2.5003-0.83281-3.7503-1.25-3.75-1.25-3.1e-4 1.25 1.0422 1.875 3.125 1.875h1.25m-214.38 1.875 3.125 5.625 1.25 1.25c15.417 19.167 37.708 28.75 66.875 28.75 22.916 0 41.666-6.25 56.25-18.75l-13.75-1.25-1.875 1.875-4.375 2.5h-1.875c-12.084 5-25.417 7.5-40 7.5-8.3334 0-16.875-1.25-25.625-3.75l-11.25-5.625-9.375-6.25-5-5-2.5-3.75c-2.9167-4.1666-5.6252-6.25-8.125-6.25h-0.625l-3.125 3.125m206.88-0.625c0.41719 5 8.333 7.5 23.75 7.5 11.25 0 19.583-1.4578 25-4.375 4.1662-0.41719 6.2497-1.4578 6.25-3.125-3.1e-4 -1.6666-1.25-2.5-3.75-2.5-2.0838 0-6.8753 1.4578-14.375 4.375-4.5838 1.25-9.167 1.875-13.75 1.875-6.667 0-14.375-1.25-23.125-3.75m72.5 0c-0.83438 0-1.8753 0.83281-3.125 2.5v1.25l-0.625 0.625c-3.1e-4 1.6667 1.25 2.5 3.75 2.5 3.333 0 4.9997-1.4578 5-4.375-3.1e-4 -1.6666-1.4594-2.5-4.375-2.5h-0.625m65.625 1.25h-1.875c-0.83438 0.83281-2.2922 2.2917-4.375 4.375-2.0838 1.6667-4.5838 3.9584-7.5 6.875-1.667 1.6667-4.5838 3.3334-8.75 5-1.25 0.83281-2.917 1.6667-5 2.5-1.667 0.83281-3.542 1.6667-5.625 2.5h-3.125c-0.41719 0.41719-1.4594 0.625-3.125 0.625-1.667 0-3.1255 0.20781-4.375 0.625-12.084 0.83281-18.125 2.5-18.125 5-3.1e-4 3.75 3.958 5.625 11.875 5.625 24.166 0 44.791-8.125 61.875-24.375l-0.625-1.875-3.75-1.875-4.375-3.125-1.875-1.25-1.25-0.625m78.75 0.625-2.5 3.125c-4.5839 5-10.625 7.5-18.125 7.5h-13.125l-6.25-0.625-8.125-1.25c6.6662 3.75 14.166 5.625 22.5 5.625 18.75 0 28.125-3.75 28.125-11.25-4.7e-4 -0.83281-0.83438-1.875-2.5-3.125m-252.5 1.25c-4.5836 4.5834-11.667 6.4584-21.25 5.625h-1.875l-12.5-0.625h-5 3.125l-14.375-0.625-6.875-0.625h-11.25l-7.5-0.625h-17.5c-3.3334 0-7.2919 0.20781-11.875 0.625l-15 0.625-6.875 1.25-11.25 1.25-10-3.75c2.9166 5 8.7498 7.5 17.5 7.5 4.5831 0 7.2916-0.20781 8.125-0.625l10-1.875 21.25-0.625 83.125 2.5c7.4997 0 11.25-2.2916 11.25-6.875-3.1e-4 -1.25-0.41719-2.2916-1.25-3.125m94.375 1.875c-2.917 0-4.3753 1.4578-4.375 4.375-3.1e-4 2.0834 1.25 3.125 3.75 3.125 2.9162 0 4.3747-1.0422 4.375-3.125-3.1e-4 -2.9166-1.25-4.375-3.75-4.375m-41.25 6.25 10 3.75 8.125 1.25 6.25 3.125v1.25l0.625 1.25 2.5 6.875-3.75 6.25v0.625c-3.1e-4 0.83281 0.625 1.25 1.875 1.25 5.833 0 8.7497-3.3333 8.75-10-3.1e-4 -9.1666-5.0003-14.167-15-15l-15-1.25h-3.75l-0.625 0.625m-160 11.25 1.25 2.5 8.75 1.25v-1.875c-4.5834-1.25-7.2919-4.1666-8.125-8.75v-1.25h-1.875c-1.6669 0-2.5002 2.2917-2.5 6.875-1.6e-4 0.41719 0.83281 0.83281 2.5 1.25m75.625 8.125c1.6664 4.1667 4.9997 7.5 10 10v-2.5c-0.41719-2.9167-0.20781-4.375 0.625-4.375s2.2914 0.625 4.375 1.875c2.0831 3.3333 4.7914 5 8.125 5 4.9997 0 8.5414-1.0422 10.625-3.125l12.5-9.375c3.333-0.83281 5.208-1.25 5.625-1.25 4.9997 0 8.333 2.7084 10 8.125 2.4997-0.41719 3.7497-1.6666 3.75-3.75-3.1e-4 -6.25-3.542-9.375-10.625-9.375-3.1e-4 0-1.667 0.83281-5 2.5-2.917 1.25-7.292 3.3334-13.125 6.25-1.25 0.41719-3.1253 0.83281-5.625 1.25-2.0836 0.41719-4.7919 0.83281-8.125 1.25l-4.375-1.25-1.25-0.625-4.375-3.125-1.25-1.875-4.375-8.75h-1.875c-1.25-1.25-2.2919-1.875-3.125-1.875-2.9169 0-4.3753 3.5417-4.375 10.625-3.1e-4 1.25 0.625 2.7084 1.875 4.375m235.62-10.625-12.5-0.625-9.375 1.25-1.875 0.625 0.625 0.625-8.75 1.875-0.625 0.625c-5.417 2.9167-11.875 5.4167-19.375 7.5l-3.125 1.875 11.25-1.25 21.25-5c1.6662-0.41719 3.1245-0.625 4.375-0.625 1.25-0.41719 2.7078-0.625 4.375-0.625 8.7495 0 13.333 3.3334 13.75 10l-1.25 1.875-4.375 3.125c3.3328 0.83281 5.2078 1.25 5.625 1.25 6.2495 0 9.3745-3.75 9.375-11.25-4.7e-4 -2.9166-2.0838-6.25-6.25-10l-3.125-1.25m64.375 6.25c0.83281 2.0834 1.4578 3.125 1.875 3.125 1.25 0 1.8744-1.4578 1.875-4.375-6.3e-4 0-0.41719-0.20781-1.25-0.625-0.41719-0.83281-1.0422-2.0833-1.875-3.75-2.0839-1.25-3.9589-1.875-5.625-1.875-2.5005 0-4.1672 0.20781-5 0.625h-1.25l-6.25 6.875-3.125 1.875v0.625c-4.7e-4 1.25 1.0406 1.875 3.125 1.875l9.375-6.25 8.125 1.875m-450.62-3.75c-3.3334 1.6667-5.4167 3.9584-6.25 6.875-0.41719 0.41719-0.625 1.6667-0.625 3.75-1.6e-4 1.25 0.83281 2.7083 2.5 4.375l1.25 2.5 4.375 0.625-1.25-8.125 5.625-5c3.7498-1.25 6.4583-1.875 8.125-1.875-1.6e-4 0 1.0422 0.20781 3.125 0.625 2.0833 0 5.2083 0.41719 9.375 1.25-0.83281-1.6666-1.4578-2.9166-1.875-3.75l-3.125-1.25-6.875-1.875h-8.75l-5.625 1.875m413.75 2.5c-0.41719 0.83281-0.625 2.2917-0.625 4.375-4.7e-4 5.8333 3.3328 8.75 10 8.75 3.3328 0 6.0411-1.875 8.125-5.625-2.9172-1.6666-6.4589-2.5-10.625-2.5h-2.5l-4.375-5m-290.62 5.625c-5.4169 0.41719-7.7086 2.7084-6.875 6.875v1.875l1.875 2.5h3.125c-0.41719-1.25-0.83281-2.0833-1.25-2.5-1.6e-4 -0.83281-1.6e-4 -1.25 0-1.25-1.6e-4 -1.6667 1.0406-4.1667 3.125-7.5m273.12-420 8.125-0.625-11.25 5 3.125-4.375m15 20v-1.875c-2.9172 4.7e-4 -5.0005 0.20938-6.25 0.625v3.125c-4.7e-4 0.83438 0.20781 1.4594 0.625 1.875 2.4995-0.83281 4.1661-1.0406 5-0.625-4.7e-4 -1.6662 0.20781-2.708 0.625-3.125m-11.875 9.375-1.875-4.375 1.875-1.875c4.5828 0.83438 5.4161 1.667 2.5 2.5v1.875l-2.5 1.875m-8.75 5.625 1.25-6.25c2.9162 1.667 4.3745 3.3338 4.375 5l-0.625 0.625-5 0.625m27.5 2.5 9.375-8.125c-4.7e-4 0.83438-1.25 2.5005-3.75 5-2.0839 2.5005-3.5422 3.7505-4.375 3.75l-5.625 1.25 4.375-1.875m17.5-11.25-5 10.625c-4.5839 4.5838-8.7505 6.8755-12.5 6.875l8.75-6.875 8.75-10.625m-62.5 20c0.41562 0.41719 0.625 1.4594 0.625 3.125-4.7e-4 1.25-0.83438 3.3338-2.5 6.25-2.9172 5.417-4.7922 12.709-5.625 21.875v15.625c-4.7e-4 8.3338 3.7495 20.209 11.25 35.625l-3.75-4.375-0.625-2.5v3.125c-6.6672-10.416-9.7922-21.458-9.375-33.125v-10c0.41562-6.2497 1.25-12.083 2.5-17.5 1.25-5.833 3.3328-11.458 6.25-16.875l1.25-0.625 0.625 2.5-0.625-3.125m-11.875 15.625c-0.83438 0.83438-1.4594 1.25-1.875 1.25h-1.25l-1.875-1.875 1.875-0.625 2.5-1.25 0.625 2.5m20 4.375 6.875 0.625-5 1.875h-3.125c-1.6672 3.1e-4 -2.5005-1.0406-2.5-3.125-4.7e-4 -0.41562-0.20938-0.83281-0.625-1.25-0.41719-0.83281-0.625-1.25-0.625-1.25l0.625-4.375 4.375 7.5m-20.625 1.25c-1.25 3.3338-2.2922 5.0003-3.125 5-0.83438 3.1e-4 -1.25-1.0406-1.25-3.125-4.7e-4 -0.83281 0.20781-1.4578 0.625-1.875h3.75m-4.375 9.375c-1.25-0.41562-1.8755-0.20781-1.875 0.625-4.7e-4 1.667-0.20938 2.7088-0.625 3.125l3.125 0.625 1.875-1.25-2.5-3.125-1.25-1.25 1.25 1.25m21.25-6.25 2.5 1.875-5 0.625-1.25-6.25 3.75 3.75m-45-5 2.5-8.125 4.375 19.375-6.875-11.25m58.75 13.75-5.625 3.75-6.25 6.875-2.5 4.375c-2.0838 3.3338-3.1255 5.8338-3.125 7.5l-0.625 3.75c-0.41719 0.41719-0.83438 0.625-1.25 0.625l-0.625 0.625 1.25-1.25-1.25 0.625v-3.125c-0.83438-4.583 2.7078-11.041 10.625-19.375 0.83281-1.25 2.4995-2.9162 5-5l8.125-5.625-3.75 6.25m-20.625-4.375 4.375 3.125-3.75 3.75-0.625-6.875m31.25 21.875 5 0.625-5-0.625m-144.38 24.375-4.375-3.75 6.25 1.25 1.25 2.5-2.5 3.75-5 4.375 4.375-8.125m5.625-1.875 1.25 1.25-1.25 1.875v-3.125m-54.375 28.75h-3.125l3.75-7.5 3.125-4.375 5-1.25 7.5-3.125-1.25 3.125-10 4.375-5 8.75m197.5 34.375-1.25 1.25v-0.625l1.25-0.625h-1.25c-0.83438-2.4997-1.6672-4.3747-2.5-5.625-0.41719-1.25-0.625-1.8747-0.625-1.875l1.875-3.125 2.5 10.625m-18.125-2.5-5.625-2.5 11.875 4.375 3.75 2.5 3.75 6.875v3.75l-2.5-1.25-3.75-8.125-3.75-2.5-3.75-3.125m-96.875 85 3.125-8.75 2.5-3.125 1.875 0.625 1.25-3.75 6.25-3.125-15 18.125m-148.75-11.875c0.41719-1.6664-3.1e-4 -2.9164-1.25-3.75-0.41719-0.41562-1.4594-0.41562-3.125 0-0.41719 0.41719-0.83281 0.83438-1.25 1.25-0.41719 0.41719-0.83281 1.8752-1.25 4.375h4.375l2.5-1.875m165.62 0c-4.7e-4 3.3336-1.667 5.4169-5 6.25l-4.375 6.25-0.625-4.375 3.125-3.125 6.25-4.375 0.625 0.625v1.25l0.625-1.25v-0.625l-0.625-0.625m-164.38 4.375v1.875l-5 2.5-2.5-2.5 6.25-2.5 1.25 0.625m1.875 6.25v2.5h-3.125c-2.0836 2.5002-3.3336 2.5002-3.75 0-1.6e-4 -0.41719 0.625-1.0422 1.875-1.875 1.25-1.25 2.2914-1.8748 3.125-1.875 0.83281 0.41719 1.25 0.83281 1.25 1.25 0.41719 1.6e-4 0.625 1.6e-4 0.625 0m-5 6.25 6.25-0.625c-1.25 1.25-2.2919 1.8752-3.125 1.875 0.41719 1.6e-4 -0.625-0.41719-3.125-1.25m120 12.5c2.083 0.83281 3.958 1.4578 5.625 1.875 1.6662 1.6e-4 3.333 0.20781 5 0.625-6.667-3.7498-10.625-7.4998-11.875-11.25l1.25 8.75m-45 3.75 5-3.75 6.25 0.625-6.25 3.125-5 11.25-4.375 6.25c2.4997-10.417 3.958-15.625 4.375-15.625v-1.875m-63.125 20.625 4.375 18.125h-1.875l-1.25-5.625-1.25-12.5m248.12 37.5h1.25l1.875-10.625-3.125 5v5.625m19.375-1.875-4.375 5h-2.5c1.25-2.4998 3.5411-4.1666 6.875-5"
         fill="#8f0005"
         id="path15" />
    </g>
  </g>
</svg>
