<?xml version="1.0" encoding="UTF-8" standalone="no"?>
<svg
   xmlns:dc="http://purl.org/dc/elements/1.1/"
   xmlns:cc="http://creativecommons.org/ns#"
   xmlns:rdf="http://www.w3.org/1999/02/22-rdf-syntax-ns#"
   xmlns:svg="http://www.w3.org/2000/svg"
   xmlns="http://www.w3.org/2000/svg"
   xmlns:sodipodi="http://sodipodi.sourceforge.net/DTD/sodipodi-0.dtd"
   xmlns:inkscape="http://www.inkscape.org/namespaces/inkscape"
   version="1.1"
   viewBox="0 0 500 500"
   id="svg19"
   sodipodi:docname="william-morris-letter-t.svg"
   inkscape:version="1.0.2 (1.0.2+r75+1)">
  <metadata
     id="metadata23">
    <rdf:RDF>
      <cc:Work
         rdf:about="">
        <dc:format>image/svg+xml</dc:format>
        <dc:type
           rdf:resource="http://purl.org/dc/dcmitype/StillImage" />
      </cc:Work>
    </rdf:RDF>
  </metadata>
  <sodipodi:namedview
     pagecolor="#ffffff"
     bordercolor="#666666"
     borderopacity="1"
     objecttolerance="10"
     gridtolerance="10"
     guidetolerance="10"
     inkscape:pageopacity="0"
     inkscape:pageshadow="2"
     inkscape:window-width="1920"
     inkscape:window-height="1016"
     id="namedview21"
     showgrid="false"
     inkscape:zoom="1.686"
     inkscape:cx="255.33808"
     inkscape:cy="250"
     inkscape:window-x="0"
     inkscape:window-y="27"
     inkscape:window-maximized="1"
     inkscape:current-layer="svg19" />
  <defs
     id="defs7">
    <linearGradient
       id="linearGradient847"
       x1="500"
       x2="0"
       y1="500"
       y2="-4.2633e-14"
       gradientTransform="translate(1.7578e-6)"
       gradientUnits="userSpaceOnUse">
      <stop
         stop-color="#ff6700"
         offset="0"
         id="stop2" />
      <stop
         stop-color="#ffd700"
         offset="1"
         id="stop4" />
    </linearGradient>
  </defs>
  <path
     d="m167.85 42.111-90.154 3.2617-34.402-0.88867-1.7793 24.613-8.8965 25.209 1.7793 21.945s5.9309 14.531 7.1172 13.938c1.1862-0.59312 8.3037 0.59413 9.1934-0.88867 0.88968-1.4828 10.381-27.58 10.381-27.58l10.082-18.684 19.869-8.3047 70.822 2.1426 46.023-3.0312-16.014-21.057-24.021-10.676zm286.15 0.66797-238.22 2.0957-7.3398-1.6777 5.2422 16.986 7.7598 16.986 7.7578-1.0488 1.6777 72.766 0.21093 56.199-2.3086 101.08 29.777 3.5644s20.133-4.4046 20.133-5.4531c0-1.0485-2.0977-106.53-2.0977-106.53v-44.037l-0.62891-60.393 4.6133-19.711 143.22 3.9824 18.453 8.5977 13.631 40.893 9.4356-2.9355 3.7754-11.115-0.62891-21.809-7.9688-27.051-0.83789-16.986-5.6621-4.4023zm-176.99 319.8c-1.1571-0.22066-6.4961 9.4238-6.4961 9.4238l-16.355 21.18s-7.9698-15.729-8.8086-15.52-9.6456-11.323-10.484-11.742l-3.7734 5.4512-5.0332 39.635-18.873 17.824s-23.905 3.1445-24.744 3.1445-4.8242 5.6621-4.8242 5.6621l1.0488 6.291 10.904 7.5488 32.713 1.0488 41.939-4.1934 32.084 2.7266 26.004-2.0976 11.324-1.4688 2.3066-11.533-40.893-10.064-11.113-17.195s-6.5012-42.989-6.7109-45.715c-0.01966-0.25557-0.09514-0.38342-0.21485-0.40625z"
     fill="#f4eee6"
     id="path11" />
  <g
     id="g17">
    <g
       transform="translate(-146.86,-119.79)"
       id="g15">
      <path
         d="m146.86 619.79v-500h500v500h-500m7.5-7.5h485v-485h-485v485m7.5-7.5v-469.38h469.38v469.38h-469.38m110.62-338.75c1.6664-3.7497 3.9581-5.6247 6.875-5.625 7.4998 3.1e-4 11.25 3.7503 11.25 11.25-1.6e-4 13.334-11.667 23.542-35 30.625 27.5-4.9997 41.25-15.833 41.25-32.5-1.6e-4 -11.666-4.5836-17.5-13.75-17.5-5.4169 3.1e-4 -8.9586 4.5838-10.625 13.75m279.38 205c-4.7e-4 1.6e-4 -4.7e-4 -0.20781 0-0.625 0.41562-0.83281 0.83281-1.6666 1.25-2.5-4.7e-4 -1.6666-0.41719-2.4998-1.25-2.5-1.25 1.6e-4 -2.0838 0.625-2.5 1.875v0.625c-4.7e-4 2.0834 0.83281 3.1252 2.5 3.125m-33.75-28.125c2.4995 0.83281 3.5412 1.25 3.125 1.25 0.83281 1.6e-4 1.4578-0.20781 1.875-0.625-4.7e-4 -1.25-0.625-1.8748-1.875-1.875 0.41562 1.6e-4 -0.625 0.41719-3.125 1.25m26.25 21.875h0.625c1.25 1.6e-4 1.8745-0.625 1.875-1.875-4.7e-4 -1.25-0.625-1.8748-1.875-1.875-1.25 1.6e-4 -1.8755 0.41719-1.875 1.25-4.7e-4 0.83281 0.41562 1.6669 1.25 2.5m-53.75-21.875c1.25 1.6e-4 1.8745-0.625 1.875-1.875-4.7e-4 -2.4998-0.625-3.7498-1.875-3.75-1.667 1.6e-4 -2.5005 1.0422-2.5 3.125-4.7e-4 1.6669 0.83281 2.5002 2.5 2.5m6.25 8.125h0.625c1.6662 1.6e-4 2.4995-0.41719 2.5-1.25-4.7e-4 -2.0831-0.83438-3.1248-2.5-3.125-2.0838 1.6e-4 -3.1255 0.83281-3.125 2.5-4.7e-4 1.25 0.83281 1.8752 2.5 1.875m11.25 0c1.25 1.6e-4 1.8745-1.0422 1.875-3.125-4.7e-4 -1.25-0.625-1.8748-1.875-1.875-1.25 1.6e-4 -1.8755 0.625-1.875 1.875-4.7e-4 2.0834 0.625 3.1252 1.875 3.125m10 3.125c2.083 1.6e-4 3.1245-0.83281 3.125-2.5-4.7e-4 -1.6666-1.0422-2.4998-3.125-2.5-2.0838 1.6e-4 -3.1255 0.625-3.125 1.875-4.7e-4 1.25 1.0406 2.2919 3.125 3.125m7.5-14.375c2.0828 1.6e-4 3.1245-1.0422 3.125-3.125-4.7e-4 -1.25-0.625-1.8748-1.875-1.875-1.25 1.6e-4 -1.8755 1.0422-1.875 3.125-4.7e-4 0.83281 0.20781 1.4578 0.625 1.875m1.875 8.125h0.625c1.6662 1.6e-4 2.4995-0.41719 2.5-1.25-4.7e-4 -1.6666-0.625-2.4998-1.875-2.5-1.6672 1.6e-4 -2.5005 0.625-2.5 1.875-4.7e-4 0.41719 0.41562 1.0422 1.25 1.875m8.125-8.75c1.25 1.6e-4 1.8745-0.625 1.875-1.875-4.7e-4 -1.6666-0.625-2.4998-1.875-2.5-1.25 1.6e-4 -1.8755 0.83281-1.875 2.5-4.7e-4 1.25 0.625 1.8752 1.875 1.875m0 7.5 1.875-1.875v-0.625c-4.7e-4 -0.83281-0.41719-1.25-1.25-1.25-1.6672 1.6e-4 -2.5005 0.41719-2.5 1.25-4.7e-4 1.25 0.625 2.0834 1.875 2.5m-46.875-12.5c2.083 1.6e-4 3.1245-0.83281 3.125-2.5-4.7e-4 -2.9164-1.0422-4.3748-3.125-4.375-2.5005 1.6e-4 -3.7505 1.25-3.75 3.75-4.7e-4 2.0836 1.25 3.1252 3.75 3.125m-7.5 13.75c0.41562-0.41719 0.83281-0.625 1.25-0.625 0.41562-0.41719 0.83281-1.0422 1.25-1.875v-0.625c-4.7e-4 -1.6666-0.625-2.4998-1.875-2.5-0.83438 1.6e-4 -1.4594 0.625-1.875 1.875l-0.625 0.625c-4.7e-4 2.0834 0.625 3.1252 1.875 3.125m55.625-106.25h0.625c2.0828 3.1e-4 3.1245-0.83281 3.125-2.5-4.7e-4 -2.4997-1.0422-3.7497-3.125-3.75-2.0838 3.1e-4 -3.1255 0.83281-3.125 2.5-4.7e-4 2.0836 0.83281 3.3336 2.5 3.75m17.5 206.88c-4.7e-4 1.25 0.41562 1.875 1.25 1.875 2.0828 0 3.1245-0.83281 3.125-2.5-4.7e-4 -1.25-0.625-1.875-1.875-1.875-1.6672 0-2.5005 0.83281-2.5 2.5m-5.625 6.25c1.6662 0 2.4995-0.625 2.5-1.875-4.7e-4 -1.25-0.83438-1.875-2.5-1.875-1.6672 0-2.5005 0.625-2.5 1.875-4.7e-4 1.25 0.83281 1.875 2.5 1.875m6.25-13.125c1.6662 0 2.4995-0.625 2.5-1.875-4.7e-4 -0.83281-0.625-1.6666-1.875-2.5-1.6672 1.6e-4 -2.5005 0.83281-2.5 2.5-4.7e-4 1.25 0.625 1.875 1.875 1.875m-1.25-206.88h0.625c2.0828 3.1e-4 3.1245-0.625 3.125-1.875-4.7e-4 -2.4997-1.0422-3.7497-3.125-3.75-1.6672 3.1e-4 -2.5005 0.83438-2.5 2.5-4.7e-4 1.6669 0.625 2.7086 1.875 3.125m-11.875-1.875 0.625 0.625c2.9162 3.1e-4 4.3745-1.0422 4.375-3.125-4.7e-4 -2.9164-1.25-4.3747-3.75-4.375-2.5005 3.1e-4 -3.7505 1.0422-3.75 3.125-4.7e-4 2.0836 0.83281 3.3336 2.5 3.75m25-45.625c2.4995 3.1e-4 3.7495-1.4578 3.75-4.375-4.7e-4 -1.6664-0.625-2.4997-1.875-2.5-2.5005 3.1e-4 -3.7505 1.4578-3.75 4.375-4.7e-4 1.25 0.625 2.0836 1.875 2.5m10-6.875c1.6661 3.1e-4 2.4995-1.0406 2.5-3.125-4.7e-4 -1.25-0.41719-1.8747-1.25-1.875-1.25 3.1e-4 -2.2922 1.0422-3.125 3.125-4.7e-4 1.25 0.625 1.8753 1.875 1.875m-23.125 6.875c-1.6672 0.41719-2.5005 0.83438-2.5 1.25-4.7e-4 3.1e-4 1.0406 0.41719 3.125 1.25l3.125-1.25-3.75-1.25m5-5c1.6662 3.1e-4 2.4995-0.83281 2.5-2.5-4.7e-4 -1.6662-0.83438-2.4997-2.5-2.5-1.6672 3.1e-4 -2.5005 0.83438-2.5 2.5-4.7e-4 1.667 0.83281 2.5003 2.5 2.5m-236.88 291.25c1.25 0 1.8747-1.0422 1.875-3.125 0.83281-2.0833 0.20781-3.125-1.875-3.125-1.6669 0-2.5003 1.25-2.5 3.75-3.1e-4 1.6667 0.83281 2.5 2.5 2.5m-10.625 1.875c2.4997 0 3.7497-1.25 3.75-3.75-3.1e-4 -1.6666-0.625-2.5-1.875-2.5-2.0836 0-3.3336 0.83281-3.75 2.5v0.625c-1.6e-4 1.6667 0.625 2.7084 1.875 3.125m-3.75-10c1.6664 0 2.7081-0.83281 3.125-2.5v-1.25c-1.6e-4 -2.0833-0.625-3.125-1.875-3.125-1.6669 0-2.7086 0.83281-3.125 2.5v0.625c-1.6e-4 2.5 0.625 3.75 1.875 3.75m-69.375-124.38c0.83281-0.83281 1.25-1.6666 1.25-2.5-1.6e-4 -2.0831-1.0422-3.1248-3.125-3.125-0.83281 1.6e-4 -1.25 0.83281-1.25 2.5-1.6e-4 2.0834 1.0422 3.1252 3.125 3.125m20 25.625v-3.125c-1.6e-4 -1.25-0.41719-1.8748-1.25-1.875-0.83281 0.83281-1.25 1.8752-1.25 3.125l2.5 1.875m-7.5-15.625 4.375 6.875 2.5-4.375-6.875-2.5m5.625-5c1.6666 1.6e-4 2.4998-1.0422 2.5-3.125-1.6e-4 -2.0831-0.41719-3.1248-1.25-3.125-1.6669 1.6e-4 -2.7084 0.83281-3.125 2.5v0.625c-1.6e-4 2.0834 0.625 3.1252 1.875 3.125m5.625-10c2.4998-0.41719 3.7498-1.6664 3.75-3.75l-0.625-0.625c-0.83281-0.83281-1.8752-1.25-3.125-1.25h-0.625c-2.9169 1.25-4.3752 2.7086-4.375 4.375-1.6e-4 1.25 1.25 1.8752 3.75 1.875l1.25-0.625m11.25-3.75c2.9164 1.6e-4 4.3748-1.4578 4.375-4.375-1.6e-4 -1.6664-0.625-2.4998-1.875-2.5-3.7502 1.6e-4 -5.6252 1.6669-5.625 5-1.6e-4 1.25 1.0422 1.8752 3.125 1.875m-7.5-6.25c2.4998 1.6e-4 3.7498-1.4578 3.75-4.375-1.6e-4 -2.4998-1.25-3.7498-3.75-3.75-2.9169 1.6e-4 -4.3752 1.4578-4.375 4.375-1.6e-4 2.5002 1.4578 3.7502 4.375 3.75m-13.125 2.5c3.3331 1.6e-4 4.9998-1.4578 5-4.375-1.6e-4 -2.4998-1.6669-3.7498-5-3.75-2.9169 1.6e-4 -4.3752 1.4578-4.375 4.375-1.6e-4 2.5002 1.4578 3.7502 4.375 3.75m-10.625 5.625c2.4998 1.6e-4 3.7498-1.4578 3.75-4.375-1.6e-4 -2.9164-1.0422-4.3748-3.125-4.375-2.9169 1.6e-4 -4.3752 1.4578-4.375 4.375-1.6e-4 2.9169 1.25 4.3752 3.75 4.375m15-16.25c2.9166 1.6e-4 4.3748-1.25 4.375-3.75-1.6e-4 -2.9164-1.4578-4.3748-4.375-4.375-3.3334 1.6e-4 -5.0002 1.25-5 3.75-1.6e-4 2.9169 1.6666 4.3752 5 4.375m-14.375 3.125c2.9166 1.6e-4 4.3748-1.4578 4.375-4.375-1.6e-4 -2.9164-1.0422-4.3748-3.125-4.375-2.9169 1.6e-4 -4.3752 1.4594-4.375 4.375-1.6e-4 2.0836 1.0422 3.5419 3.125 4.375m85-268.12c1.6664 4.7e-4 2.4997-0.625 2.5-1.875-3.1e-4 -1.25-0.83281-1.8745-2.5-1.875-1.6669 4.7e-4 -2.5003 0.625-2.5 1.875-3.1e-4 1.25 0.83281 1.8755 2.5 1.875m4.375-7.5c0.83281 4.7e-4 1.6664-0.41562 2.5-1.25-3.1e-4 -1.6662-1.25-2.4995-3.75-2.5-0.83281 0.83438-1.25 1.6672-1.25 2.5 0.83281 0.83438 1.6664 1.25 2.5 1.25m10.625 3.125c1.25 4.7e-4 1.8747-0.625 1.875-1.875-3.1e-4 -1.6662-0.83281-2.4995-2.5-2.5-1.6669 4.7e-4 -2.5003 0.625-2.5 1.875-3.1e-4 1.6672 1.0422 2.5005 3.125 2.5m-123.12 80c2.0831 3.1e-4 3.1248-1.0406 3.125-3.125-1.6e-4 -2.083-1.0422-3.1245-3.125-3.125-2.0834 4.7e-4 -3.1252 1.0422-3.125 3.125-1.6e-4 2.0838 1.0422 3.1253 3.125 3.125m0.625-10.625c2.4998 4.7e-4 3.7498-1.0406 3.75-3.125-1.6e-4 -2.4995-1.0422-3.7495-3.125-3.75-2.5002 4.7e-4 -3.7502 1.0422-3.75 3.125-1.6e-4 2.5005 1.0422 3.7505 3.125 3.75m12.5 0.625c1.6666 4.7e-4 2.4998-0.83281 2.5-2.5-1.6e-4 -2.083-1.0422-3.1245-3.125-3.125-2.0834 4.7e-4 -3.1252 1.0422-3.125 3.125-1.6e-4 1.667 1.25 2.5005 3.75 2.5m121.25 125.62c6.2497 10.834 9.3747 19.792 9.375 26.875v6.875c-3.1e-4 3.3336-0.20938 5.6252-0.625 6.875l2.5 1.25c0.41562-2.9164 0.625-5.6247 0.625-8.125 0.41562-2.4997 0.625-5.2081 0.625-8.125-3.1e-4 -6.2497-3.5419-14.791-10.625-25.625h-1.875m-13.75 25 18.125-6.25-1.875-1.875-16.875 5.625 0.625 2.5m7.5 10c8.3331 12.084 15.833 18.125 22.5 18.125 1.6664 1.6e-4 2.9164-1.8748 3.75-5.625-1.25 0.41719-2.7086 0.625-4.375 0.625h-1.875c-5.4169 1.6e-4 -12.084-4.3748-20-13.125m11.25-46.875c3.3331-2.083 5.4164-3.1247 6.25-3.125 4.583 3.1e-4 6.8747 3.1253 6.875 9.375-3.1e-4 4.1669-2.0836 8.9586-6.25 14.375l1.25 2.5c4.9997-6.6664 7.4997-12.083 7.5-16.25-3.1e-4 -9.1664-3.3336-13.75-10-13.75-2.0836 3.1e-4 -5.2086 2.0836-9.375 6.25l3.75 0.625m-16.875 14.375c4.5831-4.5831 8.5414-6.8747 11.875-6.875 2.4997 3.1e-4 4.9997 1.6669 7.5 5v-3.125c0.41562-3.7497-1.8753-5.6247-6.875-5.625-4.5836 3.1e-4 -8.7503 3.5419-12.5 10.625m225.62-109.38c1.6662 1.667 3.1245 2.5003 4.375 2.5 1.25 3.1e-4 1.8745-1.0406 1.875-3.125-4.7e-4 -4.1662-1.6672-6.2497-5-6.25-2.9172 3.1e-4 -4.3755 0.83438-4.375 2.5 0.83281 0.41719 1.8745 0.83438 3.125 1.25 1.25 3.1e-4 2.2912 0.41719 3.125 1.25-0.41719 0.41719-1.4594 1.0422-3.125 1.875m-98.125-75.625c24.583-11.666 43.75-17.5 57.5-17.5 13.75 4.7e-4 32.916 5.8338 57.5 17.5h7.5c-29.584-13.75-51.25-20.625-65-20.625-14.167 4.7e-4 -35.625 6.8755-64.375 20.625h6.875m120-6.25c7.4995 3.7505 14.583 5.6255 21.25 5.625 8.7495 4.7e-4 13.125-2.0828 13.125-6.25-4.7e-4 -2.4995-2.2922-6.0412-6.875-10.625 1.25 3.3338 1.8745 5.6255 1.875 6.875-4.7e-4 5.0005-4.1672 7.5005-12.5 7.5-4.1672 4.7e-4 -9.7922-1.0406-16.875-3.125m-129.38 1.875c8.7497-4.1662 13.125-8.3328 13.125-12.5v-0.625l-3.75-2.5-1.875 1.875 1.875 1.25 0.625 0.625c-4.7e-4 3.7505-3.3338 7.7088-10 11.875m-6.875 4.375c-3.1e-4 -14.166-6.042-21.25-18.125-21.25-10 4.7e-4 -15 3.9588-15 11.875-3.1e-4 5.0005 1.6662 7.5005 5 7.5 0.41562 4.7e-4 2.2912-0.41562 5.625-1.25h-2.5c-4.167 0.41719-6.2503-1.8745-6.25-6.875-3.1e-4 -6.6662 3.7497-9.9995 11.25-10 7.9162 4.7e-4 13.541 6.6672 16.875 20h3.125m-109.38 2.5c-1.25-7.0828-4.3753-12.5-9.375-16.25v1.25c-3.1e-4 5.8338 3.1247 10.834 9.375 15m175-15c2.4995 0.83438 4.5828 1.4594 6.25 1.875 2.0828 0.41719 3.9578 0.83438 5.625 1.25 4.5828 2.0838 6.8745 5.4172 6.875 10h-0.625c4.1662-1.25 6.2495-2.7078 6.25-4.375-0.41719-0.41562-0.83438-0.83281-1.25-1.25-4.7e-4 -0.41562-0.20938-0.83281-0.625-1.25-5.4172-4.1662-12.917-6.2495-22.5-6.25m-225.62 3.125c-5.8336-1.25-10.834-1.8745-15-1.875-8.3336 4.7e-4 -12.5 2.0838-12.5 6.25-1.6e-4 2.9172 1.4578 4.3755 4.375 4.375 0.83281-4.5828 2.0831-7.2912 3.75-8.125 1.6664-1.25 5.8331-1.6662 12.5-1.25l6.875 0.625m-76.875-7.5-24.375 9.375c-4.5834 1.25-7.9167 1.8755-10 1.875-2.5002 4.7e-4 -5.4167-2.2912-8.75-6.875v0.625c-0.83281 6.2505 1.8748 9.3755 8.125 9.375 3.7498 4.7e-4 12.083-3.3328 25-10 0.83281-0.83281 2.0833-1.4578 3.75-1.875 2.0831-0.83281 4.1666-1.6662 6.25-2.5m173.12 429.38v4.375c-2.0836 8.3334-8.1253 12.5-18.125 12.5-9.1669 0-18.334-5.8333-27.5-17.5l-11.25-1.875c4.9997 11.667 13.75 19.583 26.25 23.75-0.83281-0.83281-1.25-1.6667-1.25-2.5 0.41719-0.41719 0.83281-0.625 1.25-0.625 0.41562 0.41719 1.25 0.625 2.5 0.625l11.875 3.75 2.5 0.625c9.583 0 14.375-5 14.375-15-3.1e-4 -4.1666-0.20938-6.875-0.625-8.125m-207.5-402.5-6.875 3.75-5-1.25h-0.625c-0.83281 4.7e-4 -1.25 0.625-1.25 1.875-1.6e-4 2.917 1.4578 4.3755 4.375 4.375 2.9166 4.7e-4 6.0416-2.9162 9.375-8.75m43.125 68.125c2.0831-5.4162 3.1248-8.958 3.125-10.625-1.6e-4 -0.41562-0.20781-1.25-0.625-2.5-1.6e-4 -1.25-0.20781-2.9162-0.625-5-1.6e-4 5.8338-0.625 11.875-1.875 18.125m79.375 341.88c4.1664 1.25 6.0414 3.3334 5.625 6.25v5c-0.83281 3.75 2.0831 5.625 8.75 5.625 5.4164 0 9.5831-3.3333 12.5-10 1.25-2.5 1.8747-4.1666 1.875-5-3.1e-4 0-0.20781-0.20781-0.625-0.625-0.41719-0.83281-1.0422-1.875-1.875-3.125-3.3336 10-7.0836 15-11.25 15-3.7503 0-5.8336-1.875-6.25-5.625l-0.625-5.625c-0.41719-1.6666-1.6669-2.5-3.75-2.5-2.0836 0-3.5419 0.20781-4.375 0.625m84.375 13.75c4.9997-1.6667 8.7497-3.5417 11.25-5.625 13.333-8.3333 21.25-12.5 23.75-12.5 7.9162 0 11.875 2.9167 11.875 8.75-3.1e-4 3.3334-2.0838 5-6.25 5h-3.75c1.6662 2.9167 4.1662 4.375 7.5 4.375 5.833 0 8.7497-4.1667 8.75-12.5-3.1e-4 -7.9166-5.417-11.875-16.25-11.875-11.667 0-23.959 8.125-36.875 24.375m-180-151.88 3.75 0.625 23.75-33.125c6.6666-8.7498 17.292-13.125 31.875-13.125 11.25 1.6e-4 25.208 4.5836 41.875 13.75l3.75-2.5c-17.917-10.416-33.125-15.625-45.625-15.625-23.333 1.6e-4 -43.125 16.667-59.375 50m-4.375 1.875c7.9166-10.417 11.875-21.458 11.875-33.125-1.6e-4 -4.9998-1.0422-7.4998-3.125-7.5-0.83281 0.41719-1.6669 0.83281-2.5 1.25-0.83281 1.6e-4 -1.6667 0.41719-2.5 1.25 2.4998 4.5836 3.7498 8.3336 3.75 11.25-1.6e-4 7.5002-2.5002 16.458-7.5 26.875m-21.25 19.375c2.9166-15 7.2916-22.5 13.125-22.5 1.6666 1.6e-4 2.9166 0.20781 3.75 0.625v-1.25c-1.6e-4 -2.9166-1.0422-4.3748-3.125-4.375-5.8334 1.6e-4 -9.5834 4.3752-11.25 13.125-0.41719 1.6669-0.83281 3.7502-1.25 6.25-1.6e-4 2.0834-0.41719 4.7919-1.25 8.125m7.5 54.375 8.125-15h7.5l-2.5-8.125c-0.83281-0.83281-2.2917-1.25-4.375-1.25-7.0834 1.6e-4 -10.625 3.9584-10.625 11.875-1.6e-4 2.9167 0.625 7.0834 1.875 12.5m157.5-118.12-2.5-3.125c-7.5003-5.4164-11.25-11.458-11.25-18.125-3.1e-4 -5.8331 1.0422-13.333 3.125-22.5l-1.875-0.625-0.625 0.625c-2.5003 8.3336-3.7503 15.834-3.75 22.5-3.1e-4 15 4.1664 22.084 12.5 21.25h4.375m-149.38 162.5c-6.2502-7.5-11.25-11.25-15-11.25-2.0834 0-5.8334 1.4578-11.25 4.375 4.1666-1.25 7.4998-1.875 10-1.875 3.7498 0 9.1666 2.9167 16.25 8.75m74.375-12.5c-14.167 0.41719-21.25 5-21.25 13.75-1.6e-4 3.3334 1.0422 5.2084 3.125 5.625 2.4998 0.41719 5.2081 0.83281 8.125 1.25-1.6e-4 -0.41719-0.20938-0.83281-0.625-1.25-2.9169-4.1666-4.3752-6.6666-4.375-7.5-1.6e-4 -5.4166 4.9998-9.375 15-11.875m61.25-16.25c-13.334 14.583-20 24.167-20 28.75-3.1e-4 1.25 0.20781 2.0834 0.625 2.5 0.41719-0.41719 0.83281-0.625 1.25-0.625 0.41562-0.41719 0.83281-0.83281 1.25-1.25 3.3331-4.5833 6.2497-9.1666 8.75-13.75 2.9164-5 5.6247-10.208 8.125-15.625m6.875-63.125c-2.9169-1.6666-5.4169-2.4998-7.5-2.5-1.6669 1.6e-4 -3.7503 3.1252-6.25 9.375-0.83281 2.9169-2.5003 5.0002-5 6.25-3.1e-4 0.41719-0.20938 0.83281-0.625 1.25h1.875c2.0831 1.6e-4 3.1247 1.0422 3.125 3.125-3.1e-4 1.25-1.8753 1.8752-5.625 1.875-4.1669 1.6e-4 -8.9586 2.0834-14.375 6.25 7.4997 8.3334 14.375 12.5 20.625 12.5 4.5831 1.6e-4 9.7914-1.25 15.625-3.75l1.875-0.625-1.25-1.875-4.375-1.875c-1.25-0.41719-1.8753-1.25-1.875-2.5-3.1e-4 -0.83281 0.625-1.6666 1.875-2.5l5.625-1.25 10.625-11.875c-1.6669-0.83281-3.5419-1.6666-5.625-2.5-2.0836-0.83281-4.3753-1.6666-6.875-2.5l-5-0.625c-0.41719 1.6e-4 -0.625-0.625-0.625-1.875v-0.625c-3.1e-4 -1.6666 1.25-2.9166 3.75-3.75m16.875 46.25-11.25 8.75-11.875 20.625 4.375 0.625c1.25 0 4.3747-6.4583 9.375-19.375 2.0831-4.1666 5.2081-7.7083 9.375-10.625m6.25-33.125c-7.0836 13.75-12.292 22.5-15.625 26.25-5.4169 5.4167-12.917 10.833-22.5 16.25l-0.625 5c28.75-16.25 43.125-29.792 43.125-40.625-3.1e-4 -1.6666-1.4578-3.9583-4.375-6.875m-40-36.875-3.75 5-6.25 1.25c-0.83281 0.83281-1.25 1.4578-1.25 1.875-1.6e-4 2.0834 1.25 3.1252 3.75 3.125 4.1664 1.6e-4 6.6664-3.7498 7.5-11.25m169.38 80c7.083 2.0834 12.083 3.1252 15 3.125 7.9162 1.6e-4 11.875-3.1248 11.875-9.375-4.7e-4 -4.1666-1.25-6.2498-3.75-6.25v1.875c0.41562 7.5002-4.3755 11.25-14.375 11.25-4.5838 1.6e-4 -7.5005-0.20781-8.75-0.625m42.5-19.375 6.25-0.625c4.9995-0.41719 8.3328 1.4578 10 5.625 1.6662-1.6666 2.4995-3.3333 2.5-5-4.7e-4 -3.3333-1.8755-4.9998-5.625-5-2.9172 1.6e-4 -7.2922 1.6667-13.125 5m-104.38-20.625c-3.1e-4 1.25 0.41562 2.9167 1.25 5 1.25 2.0834 2.2912 4.1667 3.125 6.25 1.25 1.6667 2.2912 3.1252 3.125 4.375l1.25 1.25c-3.1e-4 0.41719-0.41719 1.0422-1.25 1.875l-2.5 2.5c-0.41719 0.41719-0.83438 1.4578-1.25 3.125v2.5c-3.1e-4 2.9167 0.83281 5.2084 2.5 6.875l4.375 4.375c2.9162 2.9167 4.3747 6.6667 4.375 11.25v0.625l-3.125 5h-0.625l1.25 1.25c4.9997 0 8.1247-2.7083 9.375-8.125-3.1e-4 -0.83281 0.20781-1.4578 0.625-1.875l1.25 0.625 1.875 0.625v-2.5c-3.1e-4 -2.9166-1.8753-6.6666-5.625-11.25-3.7503-4.5833-5.6253-8.1248-5.625-10.625-3.1e-4 -2.0833 1.0406-3.1248 3.125-3.125 1.25 1.6e-4 3.5412 1.8752 6.875 5.625 3.7497 5.0002 6.2497 8.1252 7.5 9.375 1.25 0.83281 3.1247 1.25 5.625 1.25l1.875-0.625 5.625-1.25v-2.5l1.25-1.25 1.25-0.625c1.6662 1.6e-4 2.9162 0.20781 3.75 0.625l1.875 0.625c2.4995 1.6e-4 3.7495-1.0422 3.75-3.125v-1.875c-0.41719-0.83281-0.83438-1.25-1.25-1.25-4.7e-4 -0.41719-4.7e-4 -0.625 0-0.625-3.3338 2.0834-5.8338 3.1252-7.5 3.125-4.5838 1.6e-4 -8.9588-2.4998-13.125-7.5-6.2503-6.2498-10.417-9.3748-12.5-9.375h-1.25l-2.5 3.125h-1.25c-5.0003 1.6e-4 -8.7503-4.7916-11.25-14.375-2.5003 0.83281-3.542 1.25-3.125 1.25-1.667 1.6e-4 -2.7088-0.20781-3.125-0.625m37.5 52.5c16.25 8.75 24.375 18.333 24.375 28.75-4.7e-4 6.6667-2.0838 12.292-6.25 16.875-4.167 4.5834-9.3755 6.875-15.625 6.875-8.3338 0-12.5-3.5416-12.5-10.625-3.1e-4 -4.1666 1.4578-6.25 4.375-6.25 1.6662 0 3.1247 1.4578 4.375 4.375 1.6662 4.1667 2.9162 6.6667 3.75 7.5 0.83281 0.83281 2.4995 1.25 5 1.25 2.9162 0 4.9995-1.875 6.25-5.625-3.3338 0.83281-5.0005 1.25-5 1.25-2.5005 0-3.9588-0.83281-4.375-2.5l-0.625-5c-0.83438-3.75-3.3338-5.625-7.5-5.625-7.0838 0-10.625 3.5417-10.625 10.625-3.1e-4 10.833 6.0412 16.25 18.125 16.25 2.9162 0 5.4162-0.625 7.5-1.875l10.625-6.875h0.625c1.6662 0 2.9162 2.2917 3.75 6.875 6.6662-9.1666 9.9995-16.875 10-23.125-4.7e-4 -12.917-12.084-23.958-36.25-33.125m101.88-43.75c1.6662-2.9166 2.4995-5.8333 2.5-8.75-4.7e-4 -3.3331-1.4594-4.9998-4.375-5-2.5005 1.6e-4 -3.7505 0.83281-3.75 2.5-4.7e-4 0.41719 0.83281 1.0422 2.5 1.875 2.0828 0.83281 3.1245 2.5002 3.125 5v4.375m-28.75 46.875 2.5 1.25 5.625 1.25-4.375-2.5h-3.75m-63.125-3.75c10.416 4.5834 18.541 7.0834 24.375 7.5-4.7e-4 0 1.6662 0.41719 5 1.25 3.333 0.41719 8.333 1.0422 15 1.875 9.5828 1.25 14.375 5 14.375 11.25-4.7e-4 4.5834-2.9172 6.875-8.75 6.875 2.0828 2.0834 3.5412 3.125 4.375 3.125 6.6662 0 9.9995-3.5416 10-10.625-4.7e-4 -9.1666-7.9172-14.167-23.75-15-4.5838-0.41719-10.417-1.0422-17.5-1.875-6.667-0.83281-14.375-2.2916-23.125-4.375m134.38 56.875c4.9995-1.6667 7.4995-4.7917 7.5-9.375-4.7e-4 -5.4166-3.9589-9.5833-11.875-12.5-1.25-0.41719-1.8755-1.0422-1.875-1.875-4.7e-4 -0.41719 0.41562-1.25 1.25-2.5 1.25-1.6666 1.8745-2.7083 1.875-3.125-2.9172-0.83281-7.9172-1.875-15-3.125l-9.375 3.125-11.25 7.5c-0.41719 0.41719-1.25 0.625-2.5 0.625s-1.8755-0.83281-1.875-2.5c-4.7e-4 -2.0833 4.9995-5.625 15-10.625 8.7495-4.1666 13.125-9.7916 13.125-16.875v-13.125l-1.875 1.25-4.375-1.875c0.41562-1.6666 0.625-2.9166 0.625-3.75 0.41562-1.25 0.625-2.2916 0.625-3.125-4.7e-4 -7.4998-3.7505-11.25-11.25-11.25-1.6672 1.6e-4 -2.5005 0.625-2.5 1.875-4.7e-4 0.41719 0.41562 1.4578 1.25 3.125 1.25 1.25 1.8745 2.7084 1.875 4.375-4.7e-4 5.8334-4.5839 13.333-13.75 22.5l-11.25 9.375c-2.0838 2.0834-3.9588 5.2084-5.625 9.375v4.375l-1.25 1.875-4.375 0.625c-2.5005 0.83281-3.7505 2.7084-3.75 5.625-4.7e-4 6.6667 3.1245 10 9.375 10 1.6662 0 3.7495-0.625 6.25-1.875l3.75 3.125c3.3328 3.3333 6.6662 5 10 5 0.41562 0 2.2911-0.41719 5.625-1.25l15-5c4.1661-0.83281 6.6661-1.25 7.5-1.25 8.7495 0 13.125 2.9167 13.125 8.75v2.5m-75-16.875c-4.5838 2.5-8.3338 3.75-11.25 3.75-12.084 0.41719-18.542 1.0422-19.375 1.875l-1.25 1.875c2.4995 3.3334 6.0412 5 10.625 5 2.083 0 4.9995-0.41719 8.75-1.25 4.1662-0.83281 9.5828-2.0833 16.25-3.75l-3.75-7.5m73.75-31.25c6.2495 2.0834 9.3745 5 9.375 8.75-4.7e-4 2.0834-1.4594 4.375-4.375 6.875 4.9995 0 7.4995-2.2916 7.5-6.875-4.7e-4 -5.8333-3.7505-8.75-11.25-8.75h-1.25m-7.5-10.625c12.916-27.083 19.375-48.75 19.375-65-4.7e-4 -4.5831-0.41719-9.9998-1.25-16.25-0.83438-6.6666-2.0839-14.583-3.75-23.75l-6.875 2.5c3.3328 17.917 4.9995 29.167 5 33.75-4.7e-4 12.083-4.7922 31.25-14.375 57.5l1.875 11.25m-151.25-78.125-1.25 8.125 1.875 16.875c-3.1e-4 3.7502-2.5003 5.2084-7.5 4.375h-1.25c1.6662 2.9167 3.5412 4.3752 5.625 4.375 5.833 1.6e-4 8.7497-3.9583 8.75-11.875-3.1e-4 -6.2498-2.0838-13.542-6.25-21.875m136.25 28.125c1.6661-4.5831 2.9161-8.5416 3.75-11.875 1.25-3.3331 2.0828-6.0416 2.5-8.125 2.0828-15.833 4.7911-23.75 8.125-23.75 1.6661 1.6e-4 3.3328 0.83281 5 2.5 0.41562-0.41719 0.625-1.4578 0.625-3.125-4.7e-4 -2.9166-2.2922-4.3748-6.875-4.375h-1.25c-5.4172 1.6669-8.3339 5.8334-8.75 12.5v18.125l-3.125 18.125m10.625 39.375c6.2495-15.417 9.3745-28.542 9.375-39.375-4.7e-4 -8.3331-2.7089-12.5-8.125-12.5-4.1672 1.6e-4 -6.2505 1.6669-6.25 5-4.7e-4 0.41719 0.41562 1.0422 1.25 1.875l3.75-0.625c4.9995 1.6e-4 7.4995 5.6252 7.5 16.875-4.7e-4 7.5002-2.7089 16.667-8.125 27.5l0.625 1.25m-41.875-116.25c16.25 17.084 24.375 34.375 24.375 51.875-4.7e-4 19.583-6.4589 36.458-19.375 50.625-13.334 14.583-28.125 21.875-44.375 21.875h-6.25c-2.5005 1.6e-4 -4.3755-0.20781-5.625-0.625-20-3.7498-30.625-5.6248-31.875-5.625-0.41719 1.6e-4 -1.4594 0.20781-3.125 0.625-1.25 1.6e-4 -2.917 0.20781-5 0.625 19.583 6.6667 36.875 10 51.875 10 19.166 0 35.625-7.4998 49.375-22.5 13.75-15.417 20.625-33.75 20.625-55-4.7e-4 -16.667-1.4594-27.708-4.375-33.125-4.5839-8.7498-13.334-15-26.25-18.75m-86.25 79.375-0.625-3.125c-4.7e-4 -1.25 0.41562-2.2916 1.25-3.125-4.7e-4 1.6e-4 1.4578 1.0422 4.375 3.125 3.333 1.6667 6.6662 2.5002 10 2.5 9.9995 1.6e-4 15-4.1666 15-12.5l-1.875-1.25-0.625-2.5 5-3.125c-4.7e-4 -3.3331 2.083-7.0831 6.25-11.25 0.41562-0.41719 0.83281-0.625 1.25-0.625 0.41562-0.41719 0.83281-0.83281 1.25-1.25-3.3338-1.6666-6.2505-2.4998-8.75-2.5h-1.25c-0.83438 1.6e-4 -2.7088 0.625-5.625 1.875-2.917 1.25-5.0005 1.8752-6.25 1.875-1.25 1.6e-4 -2.292-1.0422-3.125-3.125-0.41719-2.4998-1.25-3.7498-2.5-3.75-0.41719 1.6e-4 -1.8755 0.41719-4.375 1.25l-6.875 4.375c-2.0838 1.25-4.167 1.8752-6.25 1.875-5.0003 1.6e-4 -8.1253-2.0831-9.375-6.25l-1.875-3.125-0.625 1.875 2.5 5v2.5l-1.25 0.625 1.25 1.875 9.375 5 8.125 2.5-1.875 2.5c-0.41719 1.6e-4 -0.83438 0.20781-1.25 0.625-1.667 1.6e-4 -6.667-2.2916-15-6.875 0.83281 2.5002 2.4997 4.1669 5 5l4.375 0.625c0.83281 0.83281 1.25 1.4578 1.25 1.875-3.1e-4 0.83281-0.41719 1.25-1.25 1.25l-5-0.625-1.25 1.25c0.41562 1.6e-4 0.83281 0.20781 1.25 0.625l4.375 1.875 1.875 0.625-0.625 1.25c0.41562 0.41719 0.83281 0.83281 1.25 1.25 0.41562 1.6e-4 0.83281 0.20781 1.25 0.625-0.83438 1.6669-1.4594 2.9169-1.875 3.75-3.1e-4 0.41719-3.1e-4 0.625 0 0.625-3.1e-4 1.25 1.0406 2.9167 3.125 5m85.625-15c-5.4172 15.417-12.084 23.125-20 23.125-1.6672 1.6e-4 -2.5005-0.625-2.5-1.875-4.7e-4 -0.83281 0.41562-1.6666 1.25-2.5l5.625-3.75c3.7495-2.4998 5.6245-8.1248 5.625-16.875-4.7e-4 -2.0831-0.41719-3.5416-1.25-4.375-0.41719 1.6e-4 -1.4594 0.625-3.125 1.875-1.6672 0.83281-2.9172 1.25-3.75 1.25-0.83438 1.6e-4 -1.25-0.625-1.25-1.875-4.7e-4 -1.25 0.20781-2.2916 0.625-3.125v-1.875c-4.7e-4 -2.4998-2.2922-6.6666-6.875-12.5l-1.25-1.25c-0.41719 1.6e-4 -1.0422 0.41719-1.875 1.25l-6.25 6.25-4.375 7.5-0.625 9.375c-4.7e-4 2.0834-0.83438 3.1252-2.5 3.125-0.41719 1.6e-4 -1.0422-0.83281-1.875-2.5-0.83438-1.6666-1.4594-2.4998-1.875-2.5l-1.25 1.25c-0.83438 0.83281-1.667 1.6669-2.5 2.5-0.83438 0.83281-1.4594 1.6669-1.875 2.5l-5 8.75c-3.3338 5.8334-8.1255 8.7502-14.375 8.75-3.7505 1.6e-4 -6.2505-0.20781-7.5-0.625 3.333 4.5834 7.083 6.8752 11.25 6.875 2.4995 1.6e-4 5.4162-1.0422 8.75-3.125l7.5-6.25h0.625c0.83281 1.6e-4 1.25 0.20781 1.25 0.625-4.7e-4 4.1667-3.542 7.2917-10.625 9.375l-3.125 0.625 3.125 1.25 2.5 0.625c9.9995 1.6e-4 17.916-7.4998 23.75-22.5 2.0828-5.8331 3.5412-8.7498 4.375-8.75 0.83281 0.83281 1.25 1.8752 1.25 3.125-4.7e-4 9.5834-7.5005 18.958-22.5 28.125l3.75 1.25 10.625-8.125c0.41562-0.41719 1.0406-0.625 1.875-0.625 0.41562 1.6e-4 0.625 0.20781 0.625 0.625-4.7e-4 2.9167-2.0838 5.6252-6.25 8.125l3.125-0.625 6.875-6.875c0.83281-0.83281 1.4578-1.25 1.875-1.25 0.41562 0.41719 0.625 1.0422 0.625 1.875-4.7e-4 1.6667-0.83438 3.3334-2.5 5 11.25-2.0833 18.75-5.2083 22.5-9.375 4.1662-4.1666 6.6662-11.458 7.5-21.875m8.125-48.75v0.625c-4.7e-4 2.0836-0.625 3.1252-1.875 3.125-0.41719 1.6e-4 -3.7505-4.7914-10-14.375-6.6672 5.4169-10 10.625-10 15.625-4.7e-4 1.6669 0.20781 2.7086 0.625 3.125l2.5 5v1.25c-4.7e-4 0.83281-0.625 1.25-1.875 1.25h-1.875c-0.83438 0.83281-1.4594 2.0834-1.875 3.75v2.5c-4.7e-4 3.3334 0.83281 5.8334 2.5 7.5l10.625 8.75c3.7495 3.3334 5.6245 7.7084 5.625 13.125-4.7e-4 5.0002-0.20938 8.1252-0.625 9.375 2.4995-6.6666 3.7495-11.25 3.75-13.75v-1.875l-3.75-5c-0.41719-0.41719-0.625-1.25-0.625-2.5-4.7e-4 -0.41719 0.20781-0.625 0.625-0.625 2.0828 1.6e-4 4.1662 3.5419 6.25 10.625l0.625-4.375c-4.7e-4 -2.0831-0.83438-4.3748-2.5-6.875-1.25-2.4998-1.8755-3.9581-1.875-4.375-4.7e-4 -0.83281 0.41562-1.25 1.25-1.25 2.4995 1.6e-4 4.3745 2.9169 5.625 8.75v-1.875c-4.7e-4 -2.9166-0.83438-5.6248-2.5-8.125-1.25-2.9166-2.9172-5.4166-5-7.5-1.6672-2.0831-3.3338-3.7498-5-5-1.25-1.6666-1.8755-2.9166-1.875-3.75-4.7e-4 -0.83281 0.20781-1.4578 0.625-1.875 2.9162 1.6e-4 8.1245 6.4584 15.625 19.375v-3.125c-4.7e-4 -2.0831-1.0422-4.3748-3.125-6.875-1.6672-2.4998-2.5005-3.9581-2.5-4.375-4.7e-4 -0.41719 0.41562-1.0422 1.25-1.875 1.25 1.6e-4 2.9162 1.6669 5 5-4.7e-4 -7.0831-1.8755-13.541-5.625-19.375m-232.5 90.625c-2.5003-0.83281-3.9586-1.6666-4.375-2.5l-1.25-0.625c-0.41719 1.6e-4 -0.625 0.20781-0.625 0.625-3.1e-4 1.6667 1.4578 2.5002 4.375 2.5h1.875m-69.375-113.75c6.2498 2.0836 9.3748 5.8336 9.375 11.25v2.5c3.3331 1.6e-4 4.9998-1.8748 5-5.625-1.6e-4 -5.8331-3.7502-8.5414-11.25-8.125h-3.125m209.38 5.625 3.75 1.875c7.4995-8.7498 15.208-13.333 23.125-13.75 1.25 1.6e-4 1.8745 0.20938 1.875 0.625-4.7e-4 0.41719-0.41719 1.0422-1.25 1.875l-3.75 1.875-5.625 6.875 0.625 1.875 4.375-1.25c0.83281 0.83438 1.25 2.0836 1.25 3.75-4.7e-4 -0.41719-0.20938 1.6e-4 -0.625 1.25-4.7e-4 0.83438-0.20938 2.2919-0.625 4.375l0.625 23.75 0.625 0.625 20.625-7.5 6.25-9.375 1.875-1.875c0.41562 1.6e-4 1.6662 2.5002 3.75 7.5l8.125-5 3.125-11.25c1.25-4.1664 4.9995-6.6664 11.25-7.5l3.75-0.625 6.875 0.625-3.125-1.875-5.625-0.625c-0.41719-0.41562-0.625-0.83281-0.625-1.25v-0.625c-4.7e-4 -0.83281 0.625-1.25 1.875-1.25h0.625l-4.375-0.625-9.375 3.75h-0.625c-0.83438 1.6e-4 -1.25-0.20781-1.25-0.625-4.7e-4 -3.3331 3.3328-5.2081 10-5.625l-3.125-1.25-8.125 3.125c-0.83438 1.6e-4 -1.25-0.41719-1.25-1.25-4.7e-4 -0.83281 0.20781-1.25 0.625-1.25l5.625-2.5-2.5-0.625c-5.8338 1.6e-4 -10.834 2.7086-15 8.125l-5 6.875c-0.83438 1.25-1.8755 1.8752-3.125 1.875-0.83438-0.83281-1.25-1.6664-1.25-2.5-4.7e-4 -1.25 2.083-3.5414 6.25-6.875 4.1662-3.3331 8.3328-6.6664 12.5-10-0.41719-0.41562-1.25-0.625-2.5-0.625-1.25 1.6e-4 -2.0838 0.20938-2.5 0.625l-6.875 5.625-1.25 0.625c-0.83438 1.6e-4 -1.25-0.625-1.25-1.875v-1.25l4.375-3.125v-0.625l-6.25 3.75c-0.41719 0.41719-1.0422 0.625-1.875 0.625-0.83438-0.83281-1.25-1.4578-1.25-1.875-4.7e-4 -1.25 0.83281-2.4998 2.5-3.75-5.417 1.6e-4 -10 0.41719-13.75 1.25-3.7505 0.41719-7.292 1.25-10.625 2.5-2.917 1.25-6.042 3.1252-9.375 5.625-3.3338 2.0836-7.5005 5.0002-12.5 8.75m146.88 16.25c0.83281-0.83281 1.25-1.6664 1.25-2.5-4.7e-4 -1.6664-0.83438-2.4998-2.5-2.5h-0.625l-6.25 4.375-5.625 1.875c-0.83438 0.83438-1.25 1.6669-1.25 2.5 0.83281 0.83281 1.6661 1.25 2.5 1.25 4.1661 1.6e-4 6.4578-0.20781 6.875-0.625l5.625-4.375m-75-36.25c1.25-3.7498 5.2078-5.6248 11.875-5.625 5.8328 1.6e-4 11.875 4.1669 18.125 12.5 4.5828 6.6669 8.9578 13.125 13.125 19.375 4.1661 5.8336 9.3745 8.7502 15.625 8.75 10.416 1.6e-4 15.625-5.6248 15.625-16.875-4.7e-4 -8.7498-3.9589-18.958-11.875-30.625-3.7505-5.4164-5.6255-10.416-5.625-15-4.7e-4 -6.2497 2.0828-9.3747 6.25-9.375 3.7495 3.1e-4 5.6245 1.8753 5.625 5.625-4.7e-4 0.83281-0.41719 1.6669-1.25 2.5l-3.75 3.125 2.5 2.5c4.1661 3.1e-4 6.2495-3.3331 6.25-10-4.7e-4 -7.0831-3.9589-10.625-11.875-10.625-7.0839 3.1e-4 -11.875 4.3753-14.375 13.125-0.41719 1.6669-0.83438 2.5003-1.25 2.5-4.7e-4 3.1e-4 -0.41719-0.20781-1.25-0.625-0.83438-0.83281-2.0839-1.6664-3.75-2.5-0.83438-0.83281-2.5005-1.6664-5-2.5-1.25 4.5836-1.8755 8.3336-1.875 11.25-4.7e-4 5.8336 2.2911 10.417 6.875 13.75l15.625 11.875c2.4995 2.5002 3.7495 5.2086 3.75 8.125-4.7e-4 2.9169-0.625 4.3752-1.875 4.375-4.1672 1.6e-4 -5.8339-2.4998-5-7.5v-1.875l-15-11.875-7.5-8.125c-3.3338-3.7497-7.0838-5.6247-11.25-5.625-0.83438 3.1e-4 -1.8755 0.20938-3.125 0.625-1.25 3.1e-4 -2.9172 0.20938-5 0.625 1.6662 0.41719 2.4995 1.4578 2.5 3.125-4.7e-4 1.25-0.625 1.8753-1.875 1.875h-3.125c-6.6672-0.41719-10 1.6669-10 6.25-4.7e-4 1.6669 0.625 3.9586 1.875 6.875m-36.25-100.62c-5.0005-4.1664-7.5005-7.708-7.5-10.625v-3.125c-2.5005 3.1e-4 -3.7505 1.25-3.75 3.75-4.7e-4 4.167 3.7495 7.5003 11.25 10m106.25-8.75c-13.334 14.584-20 26.459-20 35.625-4.7e-4 14.584 5.2078 21.875 15.625 21.875 8.7495 3.1e-4 13.125-3.7497 13.125-11.25-4.7e-4 -1.25-1.25-2.9164-3.75-5-2.5005 5.0003-5.6255 7.5003-9.375 7.5-6.2505 3.1e-4 -9.3755-4.583-9.375-13.75-4.7e-4 -7.9164 4.5828-19.583 13.75-35m-39.375 75.625c-5.8338-7.0831-8.7505-12.708-8.75-16.875-4.7e-4 -9.583 4.3745-14.375 13.125-14.375 6.2495 3.1e-4 9.3745 2.917 9.375 8.75-4.7e-4 2.5003-0.83438 4.5836-2.5 6.25 4.1661-2.9164 6.2495-5.8331 6.25-8.75-4.7e-4 -7.9164-4.7922-11.875-14.375-11.875-10.834 3.1e-4 -16.25 6.042-16.25 18.125-4.7e-4 7.0836 4.3745 13.334 13.125 18.75m-14.375-3.125c-3.3338-2.4997-5.8338-5.2081-7.5-8.125-2.5005-4.9997-4.5838-7.4997-6.25-7.5-1.25 3.1e-4 -1.8755 0.83281-1.875 2.5v0.625c1.25 5.8336 6.4578 10 15.625 12.5m-22.5 17.5c-5.8338-0.83281-11.042-1.4578-15.625-1.875-4.5838-0.83281-8.542-1.25-11.875-1.25-12.917 3.1e-4 -19.375 4.3753-19.375 13.125-4.7e-4 5.8336 3.958 8.7502 11.875 8.75 7.4995 1.6e-4 11.25-3.1248 11.25-9.375v-1.25c-1.667 4.1669-3.9588 6.2502-6.875 6.25-3.7505 1.6e-4 -5.6255-1.6664-5.625-5-4.7e-4 -7.0831 7.9162-10.625 23.75-10.625 2.0828 3.1e-4 4.1662 0.20938 6.25 0.625 2.0828 3.1e-4 4.1662 0.20938 6.25 0.625m15.625-4.375c-18.75-4.9997-33.334-7.4997-43.75-7.5-34.167 3.1e-4 -61.459 21.25-81.875 63.75l6.25-3.125c17.5-37.5 43.125-56.25 76.875-56.25 10.833 3.1e-4 23.75 2.0836 38.75 6.25l3.75-3.125m-86.875 16.875c-4.167 5.4169-6.2503 10.834-6.25 16.25-3.1e-4 5.0002 2.2912 7.5002 6.875 7.5 3.333 1.6e-4 5.833-2.7081 7.5-8.125-3.3338 2.0836-5.417 3.1252-6.25 3.125-3.7503 1.6e-4 -5.6253-2.4998-5.625-7.5-3.1e-4 -2.4998 1.25-6.2498 3.75-11.25m12.5-21.875c-4.7e-4 3.1e-4 -1.667 0.41719-5 1.25-2.917 0.83438-7.5003 2.0836-13.75 3.75-8.7503 2.5003-14.792 3.7503-18.125 3.75-7.0838 3.1e-4 -10.625-3.7497-10.625-11.25-3.1e-4 -2.9164 2.4997-6.0414 7.5-9.375-9.167 0.41719-13.75 4.7919-13.75 13.125-3.1e-4 8.7503 4.7912 13.125 14.375 13.125 4.9997 3.1e-4 18.125-4.7914 39.375-14.375m28.75-29.375c-2.5005-4.1664-3.7505-7.083-3.75-8.75-4.7e-4 -1.25 0.41562-2.4997 1.25-3.75 1.25-1.6664 1.8745-2.4997 1.875-2.5-0.83438-0.83281-1.4594-1.25-1.875-1.25-3.3338 3.1e-4 -5.0005 1.8753-5 5.625-4.7e-4 3.3336 2.4995 6.8753 7.5 10.625m-0.625 14.375c-3.3338-1.6664-7.5005-2.4997-12.5-2.5-5.0005 3.1e-4 -7.5005 2.5003-7.5 7.5-4.7e-4 2.0836 0.83281 3.1253 2.5 3.125 0.41562 3.1e-4 1.0406-0.625 1.875-1.875 2.4995-4.1664 7.708-6.2497 15.625-6.25m16.875-36.875c-5.0005-4.9997-9.3755-7.4997-13.125-7.5-6.667 3.1e-4 -10 2.0836-10 6.25-4.7e-4 0.83281 0.20781 1.25 0.625 1.25 0.41562 3.1e-4 1.6662-0.625 3.75-1.875 4.1662-2.9164 10.416-2.2914 18.75 1.875m-55 11.875c2.9162 2.0836 10.416 6.2503 22.5 12.5 12.5 5.8336 29.583 13.959 51.25 24.375l18.75 8.75h9.375l-27.5-15.625-38.125-16.25-33.75-18.125-2.5 4.375m12.5 11.875c-2.0838-0.83281-4.167-1.8747-6.25-3.125-1.667-1.25-3.542-2.2914-5.625-3.125-3.3338 2.0836-5.417 3.1253-6.25 3.125-1.667 3.1e-4 -2.5003-1.0406-2.5-3.125-3.1e-4 -2.9164 1.8747-6.2497 5.625-10l5.625-6.25c0.83281-0.83281 1.6662-1.25 2.5-1.25 1.6662 3.1e-4 2.4995 1.25 2.5 3.75l-0.625 3.125c2.083 2.5003 6.0412 4.5836 11.875 6.25 2.4995-6.2497 3.7495-11.25 3.75-15-4.7e-4 -9.583-3.1255-14.375-9.375-14.375-11.25 3.1e-4 -21.25 6.2503-30 18.75-5.417 7.917-8.1253 16.042-8.125 24.375-3.1e-4 8.7503 4.3747 13.125 13.125 13.125 6.2497 3.1e-4 14.166-5.4164 23.75-16.25m-39.375 5v-4.375c-3.1e-4 -9.583 3.5412-18.333 10.625-26.25 7.083-8.333 16.041-13.958 26.875-16.875-1.667-0.41719-2.917-0.625-3.75-0.625-0.83438-0.41562-1.667-0.625-2.5-0.625-3.7505 3.1e-4 -8.7503 2.5003-15 7.5-12.5 10-18.75 20.417-18.75 31.25-3.1e-4 3.3336 0.83281 6.6669 2.5 10m1.875-33.125c-3.7503-4.1664-7.292-6.2497-10.625-6.25-7.0838 3.1e-4 -10.625 3.3336-10.625 10-3.1e-4 1.25 0.20781 2.0836 0.625 2.5l4.375 5.625 0.625-1.875-1.25-5.625c-3.1e-4 -4.1664 2.708-6.2497 8.125-6.25 2.4997 3.1e-4 5.4162 0.625 8.75 1.875m157.5-52.5-5 1.875-0.625 1.25c-4.7e-4 1.25 0.625 1.8753 1.875 1.875 3.3328 3.1e-4 6.0411-1.6662 8.125-5l3.75-5.625c-1.25 3.1e-4 -2.0839 0.20938-2.5 0.625l-5.625 5m-123.75 28.125c-4.5838-7.9162-7.0838-14.166-7.5-18.75-3.3338-13.333-8.7503-20-16.25-20-7.917 3.1e-4 -11.875 4.167-11.875 12.5-3.1e-4 2.917 2.708 6.2503 8.125 10-1.667-2.9162-2.5003-5.208-2.5-6.875-3.1e-4 -5.4162 2.4997-8.1247 7.5-8.125 4.1662 3.1e-4 7.2912 3.1253 9.375 9.375 3.333 7.917 7.708 15.209 13.125 21.875m-21.875 12.5c-1.25-4.1664-1.8753-7.4997-1.875-10-3.1e-4 -4.583 1.6662-6.8747 5-6.875 2.4997 3.1e-4 4.583 0.83438 6.25 2.5-1.667-4.1662-3.7503-6.2497-6.25-6.25-5.417 3.1e-4 -8.1253 2.917-8.125 8.75-3.1e-4 3.3336 1.6662 7.292 5 11.875m25-44.375c3.333-3.7497 5.4162-6.458 6.25-8.125 0.83281-2.083 2.083-3.1247 3.75-3.125 2.9162 3.1e-4 4.3745 1.8753 4.375 5.625 2.083-2.083 3.1245-3.7497 3.125-5-4.7e-4 -4.583-2.0838-6.8747-6.25-6.875-6.2505 3.1e-4 -10 5.8338-11.25 17.5m-45 5c1.6662-22.916 7.2912-34.375 16.875-34.375 6.6662 4.7e-4 9.9997 3.1255 10 9.375-3.1e-4 0.83438-0.20938 1.8753-0.625 3.125-3.1e-4 0.83438-0.20938 2.0838-0.625 3.75 4.9997-1.6662 7.4995-4.9997 7.5-10-4.7e-4 -9.583-4.5838-14.375-13.75-14.375-5.417 4.7e-4 -10.209 2.917-14.375 8.75-3.7503 5.417-5.6253 12.5-5.625 21.25v6.25c-3.1e-4 2.917 0.20781 5.0003 0.625 6.25m38.75-26.25c6.2495-9.1662 9.3745-16.25 9.375-21.25-4.7e-4 -4.9995-2.917-7.4995-8.75-7.5-2.917 4.7e-4 -5.0005 2.292-6.25 6.875 0.41562-2.4995 1.6662-3.7495 3.75-3.75 4.583 4.7e-4 6.8745 2.292 6.875 6.875-4.7e-4 4.7e-4 -0.41719 1.667-1.25 5-0.83438 2.917-2.0838 7.5005-3.75 13.75m23.75-15c-17.5 4.5838-26.25 17.5-26.25 38.75-4.7e-4 21.25 12.916 37.292 38.75 48.125l-3.125-6.25c-20-9.1664-30-23.541-30-43.125-4.7e-4 -13.75 6.458-23.958 19.375-30.625l1.25-6.875m70.625 63.125c-0.83438-3.333-1.25-4.9997-1.25-5-4.7e-4 -1.25 0.625-1.8747 1.875-1.875 0.83281 3.1e-4 2.2912 0.20938 4.375 0.625 2.4995 0.41719 4.3745 0.625 5.625 0.625 6.2495 3.1e-4 9.1661-3.958 8.75-11.875v-1.25l0.625-2.5 1.25-0.625c0.41562-0.41563 0.625-0.83281 0.625-1.25-4.7e-4 -2.4997-1.25-3.7497-3.75-3.75l-0.625 0.625v2.5c0.83281 4.5838-1.4594 6.8753-6.875 6.875-5.8339 3.1e-4 -10.625-4.1662-14.375-12.5-2.9172-7.9162-5.8338-12.916-8.75-15-2.9172-2.083-7.2922-3.1247-13.125-3.125-14.167 3.1e-4 -21.25 7.5003-21.25 22.5-4.7e-4 6.2503 2.7078 12.084 8.125 17.5 6.6662 6.667 9.9995 11.667 10 15-4.7e-4 3.1e-4 -0.20938 0.41719-0.625 1.25-4.7e-4 0.83438-0.20938 2.0836-0.625 3.75 0.41562 1.25 0.83281 1.8753 1.25 1.875 2.0828 3.1e-4 4.5828-2.083 7.5-6.25l0.625-3.75 1.875-3.125c-4.7e-4 -4.1662-3.3338-7.708-10-10.625-6.2505-2.9162-10-6.8747-11.25-11.875l-0.625-1.25c-4.7e-4 -1.6662 0.625-2.4997 1.875-2.5 2.0828 3.1e-4 3.1245 1.667 3.125 5v1.25c3.3328 3.3338 7.7078 6.2503 13.125 8.75-0.83438-6.2497-1.0422-9.583-0.625-10 1.25-6.6662 1.8745-10.416 1.875-11.25l-1.875-3.75v-1.25c-4.7e-4 -1.6662 0.41562-2.4997 1.25-2.5 2.4995 3.1e-4 3.7495 1.4594 3.75 4.375-4.7e-4 -1.6662-0.20937-1.4578-0.625 0.625-4.7e-4 1.667-0.20937 5.2088-0.625 10.625l-0.625 5c-0.41719 11.667 6.2495 17.709 20 18.125m-14.375-50.625h3.125l5.625-3.75 0.625-0.625c1.25 4.7e-4 1.8745 0.625 1.875 1.875-4.7e-4 0.83438-1.4594 2.0838-4.375 3.75-0.83437 0.41719-1.4594 0.83438-1.875 1.25-4.7e-4 3.1e-4 -4.7e-4 3.1e-4 0 0 0.83281 0.83438 1.8745 1.25 3.125 1.25 1.25 3.1e-4 2.9162-0.41562 5-1.25 2.4995-1.25 4.7911-2.4995 6.875-3.75 2.0828-1.6662 3.9578-3.333 5.625-5 1.6661-1.6662 2.4995-3.1245 2.5-4.375-4.7e-4 -0.83281-0.41719-1.25-1.25-1.25l-3.75-0.625-13.125-5.625c-0.41719-0.41563-1.4594-0.625-3.125-0.625-3.3338 4.7e-4 -7.2922 1.667-11.875 5-4.1672 3.3338-6.2505 6.667-6.25 10-4.7e-4 1.25 0.83281 1.8755 2.5 1.875l1.25-3.125 2.5 0.625-0.625 2.5h1.25l3.75-3.75h0.625c1.25 4.7e-4 1.8745 0.625 1.875 1.875-4.7e-4 1.25-0.625 2.5005-1.875 3.75m-37.5 26.25c-1.667 2.917-3.3338 4.3753-5 4.375-0.41719 3.1e-4 -0.625-0.41563-0.625-1.25-4.7e-4 -1.6662 1.25-3.5412 3.75-5.625 2.4995-2.4997 3.7495-4.3747 3.75-5.625l-0.625-0.625c-4.7e-4 -0.41563-0.20937-0.83281-0.625-1.25-0.83437 2.0838-1.8755 3.1253-3.125 3.125-0.41719 3.1e-4 -1.0422-0.41563-1.875-1.25 0.41563-0.41563 0.625-0.83281 0.625-1.25 0.41563-0.41563 1.0406-0.83281 1.875-1.25h-0.625c-10.834 3.1e-4 -16.25 5.0003-16.25 15l3.125 8.75 1.875 6.25 2.5 1.25 9.375-6.875 5-5.625v-3.125h-3.125v-5m8.75-22.5c0.41563-0.41563 0.625-1.25 0.625-2.5-4.7e-4 4.7e-4 -0.41719-1.25-1.25-3.75l-2.5-3.75-0.625-0.625c-4.7e-4 -1.25 0.41563-1.8745 1.25-1.875 0.83281 4.7e-4 1.4578 0.20937 1.875 0.625l3.75 7.5 1.875 1.875v-3.125c0.41563-1.25 1.0406-1.8745 1.875-1.875 0.41563 4.7e-4 1.0406 0.625 1.875 1.875 0.83281 0.83437 1.4578 1.25 1.875 1.25 2.4995 4.7e-4 3.7495-1.8745 3.75-5.625-4.7e-4 -4.9995-2.7088-9.583-8.125-13.75-5.4172-4.1662-11.459-6.2495-18.125-6.25h-5.625c-2.5005 4.7e-4 -4.3755 0.20937-5.625 0.625 1.25 2.5005 1.8745 4.167 1.875 5-4.7e-4 1.25-0.41719 3.542-1.25 6.875-0.83437 2.917-1.25 5.417-1.25 7.5-4.7e-4 7.917 1.8745 12.5 5.625 13.75l10 3.125-0.625-3.75c0.41563 3.1e-4 1.0406 0.41719 1.875 1.25 1.25 0.83437 2.2912 1.25 3.125 1.25 0.41563 3.1e-4 0.625-0.625 0.625-1.875v-5c0.41563 0.41719 0.83281 0.625 1.25 0.625 0.83281 3.1e-4 1.4578 0.20937 1.875 0.625m81.25-49.375-0.625 2.5 9.375 29.375c1.6661 3.3338 2.4995 7.7088 2.5 13.125-4.7e-4 19.584-7.0839 37.084-21.25 52.5-13.75 15.417-29.584 23.125-47.5 23.125-12.5 3.1e-4 -20-3.1247-22.5-9.375l-3.75-10.625-1.875-1.25-4.375 13.125c-4.7e-4 0.41719-0.625 1.25-1.875 2.5-0.83437 1.25-1.25 1.8753-1.25 1.875-4.7e-4 3.3336 2.4995 6.2503 7.5 8.75 5.4162 2.5003 9.7912 3.7503 13.125 3.75 3.7495 3.1e-4 8.5412-1.4578 14.375-4.375 2.9162-1.25 6.2495-1.8747 10-1.875 4.9995 3.1e-4 7.4995 0.83437 7.5 2.5-4.7e-4 1.25-0.83437 1.8753-2.5 1.875l-16.25 1.875-13.75 2.5-5-0.625c-5.0005-0.41563-7.5005 0.83437-7.5 3.75v3.125c-4.7e-4 0.83437-1.0422 1.667-3.125 2.5-4.167 0.41719-6.2505 3.1253-6.25 8.125-4.7e-4 2.5003 1.0406 4.1669 3.125 5 0.83281 3.1e-4 1.4578-0.20781 1.875-0.625l5-5c2.4995-2.4997 7.0828-4.3747 13.75-5.625 58.75-11.25 88.125-42.916 88.125-95-4.7e-4 -13.333-5.6255-29.166-16.875-47.5m-167.5 17.5h-5c-7.0838 20.417-10.625 35.417-10.625 45-3.1e-4 17.5 7.4997 37.084 22.5 58.75l3.75-4.375c-12.917-20.416-19.375-40-19.375-58.75-3.1e-4 -11.666 2.9162-25.208 8.75-40.625m-76.25 223.75c2.083 0.83437 3.5414 1.4578 4.375 1.875 1.25 1.6e-4 1.8747 1.6e-4 1.875 0l0.625-0.625c-3.1e-4 1.6e-4 -0.41719-1.0406-1.25-3.125l-1.875-3.125-3.75-7.5-6.25-10-3.125-3.125c-2.9169-4.5831-5.8336-7.9164-8.75-10-2.9169-2.4997-5.4169-4.7914-7.5-6.875v6.875c1.6664 1.25 3.7497 3.3336 6.25 6.25 2.4997 2.5002 4.9997 5.6252 7.5 9.375 2.4997 3.3336 4.7914 6.8752 6.875 10.625 2.0831 3.3336 3.7497 6.4586 5 9.375m-107.5-106.25 3.75-0.625 10 1.25c5.8331 0.83281 8.7498 4.3753 8.75 10.625-1.6e-4 2.917-1.8752 5.2086-5.625 6.875l3.125 0.625c7.0831 3.1e-4 10.625-3.7497 10.625-11.25-1.6e-4 -1.6664-0.20937-2.708-0.625-3.125l-1.875-3.125c-0.83281-2.083-3.1252-3.5414-6.875-4.375l-3.75-0.625c-0.83281 3.1e-4 -2.5002 0.41719-5 1.25-2.0836 0.41719-6.0419 0.83281-11.875 1.25l-11.25 0.625 3.125 0.625h7.5m73.75-28.125c4.9997 3.1e-4 7.4997-2.4997 7.5-7.5-3.1e-4 -5.833-3.5419-8.7497-10.625-8.75-5.4169 3.1e-4 -10.209 3.3338-14.375 10-0.83281 1.667-1.8752 3.3336-3.125 5-1.25 1.25-2.2919 2.5003-3.125 3.75l-5.625 5.625 5-3.75c0.83281-0.83281 1.25-1.4578 1.25-1.875l1.25-1.25 3.125-3.75c3.7497-5.4162 8.1247-8.1247 13.125-8.125 4.9997 3.1e-4 7.4997 2.292 7.5 6.875-3.1e-4 0.83281-0.625 2.0836-1.875 3.75m43.75 6.25 0.625-1.25c-3.1e-4 -1.6664-0.83281-3.333-2.5-5-0.83281-0.83281-1.4578-1.25-1.875-1.25-2.5003 3.1e-4 -4.5836 1.8753-6.25 5.625l-4.375 8.125 1.875-2.5 3.75-2.5 2.5-1.25c1.6664-0.41719 2.708-0.83281 3.125-1.25 0.41562 0.41719 0.83281 0.625 1.25 0.625 0.83281 3.1e-4 1.4578 0.20937 1.875 0.625m-116.88 78.75 4.375-0.625c1.25-0.41719 3.1248-0.625 5.625-0.625h3.75c8.3331 3.1e-4 15.833 1.6669 22.5 5 6.6664 3.3336 9.9998 7.0836 10 11.25-1.6e-4 2.9169-1.6669 5.6252-5 8.125 1.6664 1.25 3.1248 1.8752 4.375 1.875 6.2498 1.6e-4 9.3748-4.1664 9.375-12.5v-1.25l-2.5-3.75c-4.1669-6.6664-13.542-9.9997-28.125-10-7.9169 3.1e-4 -16.042 0.83281-24.375 2.5m-3.75 20.625h2.5c0.83281 1.6e-4 2.2916-0.20781 4.375-0.625 2.4998-0.83281 4.3748-1.25 5.625-1.25l5 0.625c8.7498 0.83437 13.125-2.4998 13.125-10-1.6e-4 -3.7497-2.2919-5.6247-6.875-5.625-0.83281 3.1e-4 -1.6669 0.41719-2.5 1.25 0.41563 0.41719 0.625 0.83281 0.625 1.25l0.625 0.625 0.625 1.25c-1.6e-4 3.3336-2.2919 6.0419-6.875 8.125l-5.625 1.875-10.625 2.5m-21.25-16.25 6.25-1.875 6.875-3.125c9.1666-3.7497 21.25-5.6247 36.25-5.625 12.916 3.1e-4 27.916 3.9586 45 11.875v-6.25c-12.917-6.6664-26.875-9.9997-41.875-10-16.25 3.1e-4 -33.75 5.0003-52.5 15m-11.875-1.25 7.5-4.375 8.75-6.25c2.0831-0.83281 5.6248-2.0831 10.625-3.75 4.9998-2.0831 11.667-4.5831 20-7.5l23.125-7.5c-2.5002-4.1664-4.1669-6.2497-5-6.25-0.83281 3.1e-4 -5.2086 1.6669-13.125 5l-15.625 7.5c-6.2502 2.9169-12.5 6.4586-18.75 10.625-5.8334 3.7503-11.667 7.9169-17.5 12.5m6.25-67.5c9.1666 2.5003 16.458 3.7503 21.875 3.75 30.416 3.1e-4 49.791-13.125 58.125-39.375-12.084 24.167-29.792 35.834-53.125 35l-14.375-0.625-12.5 1.25m120.62-7.5c1.25 0.41719 2.4997 1.25 3.75 2.5 14.166-13.75 21.25-35.208 21.25-64.375-3.1e-4 -2.083-0.625-7.9162-1.875-17.5-1.25-7.083-1.4594-11.875-0.625-14.375l1.875-7.5-3.125 1.25c-3.3336 1.25-5.0003 4.792-5 10.625-3.1e-4 0.41719-3.1e-4 2.0838 0 5 0.41719 2.5005 0.83281 6.4588 1.25 11.875 0.41563 1.25 0.625 3.3338 0.625 6.25v6.25c-3.1e-4 17.917-6.0419 37.917-18.125 60m10-58.75 1.875 5 1.875 12.5 1.25-28.75c0.41563-21.666-6.6669-32.5-21.25-32.5-7.5003 4.7e-4 -11.25 2.7088-11.25 8.125-3.1e-4 2.0838 0.625 4.5838 1.875 7.5 2.0831-5.833 4.9997-8.7495 8.75-8.75 12.083 4.7e-4 17.916 9.5838 17.5 28.75l-0.625 8.125m-15.625 18.75c0.41563-0.41563 0.625-1.4578 0.625-3.125-3.1e-4 -1.6662-2.2919-3.5412-6.875-5.625-4.5836-2.4997-6.8753-4.9997-6.875-7.5-3.1e-4 -5.4162 2.4997-8.1247 7.5-8.125 10.416-0.41563 15.625 7.292 15.625 23.125-3.1e-4 14.167-6.8753 29.584-20.625 46.25l1.25 1.875 5.625-4.375 4.375-1.25c4.5831-2.083 8.3331-8.5414 11.25-19.375 3.3331-10.833 4.9997-18.958 5-24.375-3.1e-4 -15.416-5.8336-25.208-17.5-29.375l-7.5-2.5c-0.41719-0.41563-1.0422-0.625-1.875-0.625-1.25 4.7e-4 -1.8753 0.41719-1.875 1.25v3.125l-1.25 0.625-2.5 1.875-3.125 4.375c-1.6669 1.667-2.5003 3.7503-2.5 6.25-3.1e-4 7.5003 7.0831 13.334 21.25 17.5m-13.75 192.5c-5.4169 26.667-18.125 40-38.125 40l-17.5-4.375c-2.5002 1.6e-4 -3.7502 1.25-3.75 3.75-1.6e-4 3.7502 4.9998 5.6252 15 5.625 12.916 1.6e-4 23.75-3.9583 32.5-11.875 9.1664-8.3331 14.375-18.958 15.625-31.875l-3.75-1.25m-94.375 98.125-1.25-1.875c-1.25-1.6666-2.9169-2.5-5-2.5-5.4169 0-8.3334 3.3334-8.75 10-0.83281 2.0834-1.4578 3.125-1.875 3.125l-1.875-0.625c-0.83281-0.41719-1.8752-0.625-3.125-0.625-0.41719 0-0.625 0.20781-0.625 0.625-1.6e-4 4.5834 1.8748 8.9584 5.625 13.125 4.1666 3.75 8.9581 6.0417 14.375 6.875 9.1666 1.25 13.75 3.5417 13.75 6.875-1.6e-4 1.6667-1.6669 2.5-5 2.5-5.0002 0-8.9584-1.25-11.875-3.75l-8.75-6.25c-8.3334-6.25-18.125-9.375-29.375-9.375-5.0002 0-7.5002 0.83281-7.5 2.5 4.1666 2.5 6.2498 4.5834 6.25 6.25-1.6e-4 1.25-0.625 1.875-1.875 1.875h-3.75c-5.0002 0-8.1252 2.7084-9.375 8.125v1.875c-1.6e-4 7.9167 3.1248 11.458 9.375 10.625h1.25l5.625-0.625-5.625-3.125c-1.25-0.41719-1.8752-1.875-1.875-4.375-1.6e-4 -5 3.9583-7.5 11.875-7.5 5.4166 0 12.708 1.4578 21.875 4.375 16.667 5 30.833 7.5 42.5 7.5 2.4998 0 5.8331-0.83281 10-2.5 4.1664-1.6666 6.2498-3.5416 6.25-5.625-1.6e-4 -1.25-1.8752-2.2916-5.625-3.125l-13.125-2.5c-4.1669-1.25-10.208-5-18.125-11.25-6.6669-4.1666-10-8.75-10-13.75-1.6e-4 -1.6666 0.41719-2.9166 1.25-3.75l4.375-3.125m82.5-259.38c0.83281 3.7503 0.41719 6.4586-1.25 8.125l-4.375 8.125-8.75 10.625c-2.0836 3.3336-3.1252 6.8753-3.125 10.625-1.6e-4 10.417 5.8331 15.625 17.5 15.625 11.25 3.1e-4 24.166-6.6664 38.75-20 6.6664-6.6664 11.875-10.833 15.625-12.5 2.083-1.25 3.1247-2.083 3.125-2.5-3.1e-4 -2.4997-3.3336-3.7497-10-3.75-2.9169 3.1e-4 -7.2919 2.917-13.125 8.75-1.6669 1.667-2.7086 2.5003-3.125 2.5-0.83281-0.83281-1.25-2.4997-1.25-5v-1.25c-3.1e-4 -3.333-0.625-4.9997-1.875-5-0.83281 3.1e-4 -1.6669 0.41719-2.5 1.25l-10 5.625c-1.25 1.25-2.2919 2.5003-3.125 3.75-0.41719 0.83437-1.25 3.3336-2.5 7.5-2.0836 6.2503-5.6253 9.3753-10.625 9.375-3.3336 3.1e-4 -5.0002-1.4578-5-4.375-1.6e-4 -1.25 2.2914-2.9164 6.875-5 6.2497-2.9164 9.3747-7.9164 9.375-15v-1.25l-3.125-0.625c-0.83437-0.83281-1.4594-3.5414-1.875-8.125-3.1e-4 -2.4997-1.8753-4.9997-5.625-7.5m-33.125-51.25c2.9164-1.25 5.4164-1.8747 7.5-1.875 7.9164 3.1e-4 14.166 5.6253 18.75 16.875 1.25 3.3338 1.6664 5.6253 1.25 6.875v1.25l-1.25 14.375 5.625-13.75c0.41563-0.41563 0.625-1.25 0.625-2.5-3.1e-4 -9.1662-2.7086-16.458-8.125-21.875l-3.125-3.125 2.5-0.625 7.5 8.125c-4.1669-19.166-13.959-28.75-29.375-28.75-2.9169 4.7e-4 -7.9169 1.0422-15 3.125l-6.25 2.5 1.875-3.125c1.6664-4.1662 7.9164-6.2495 18.75-6.25 12.083 4.7e-4 22.291 8.1255 30.625 24.375 0.83281-3.333 1.25-4.9997 1.25-5-3.1e-4 3.1e-4 -0.41719-1.6662-1.25-5l-2.5-6.25 3.125-0.625-1.25-5.625-2.5-1.875 2.5-3.125c-2.0836-1.25-4.1669-4.583-6.25-10-2.9169 0.83437-4.7919 2.292-5.625 4.375-0.41719 2.0838-0.83281 3.3338-1.25 3.75-0.41719 4.7e-4 -3.3336-1.25-8.75-3.75-5.8336-2.9162-11.459-4.3745-16.875-4.375-10 4.7e-4 -16.458 2.7088-19.375 8.125 1.6666 0.41719 2.4998 1.25 2.5 2.5-1.6e-4 -0.41563-2.2919 0.41719-6.875 2.5-6.6669 2.5005-10.208 11.459-10.625 26.875-0.41719 1.667-0.83281 3.542-1.25 5.625-1.6e-4 1.667-0.41719 3.9588-1.25 6.875h3.125c2.0831 0.41719 5.2081-0.41563 9.375-2.5l6.25-5 1.25 3.75c0.83281 2.0838 1.25 3.1253 1.25 3.125 4.9998 3.1e-4 9.1664-2.4997 12.5-7.5 4.1664-8.333 7.0831-13.333 8.75-15l5.625-0.625-1.25 1.875-3.125 4.375 0.625 6.875m-53.125 91.875c0.41719-1.25 0.625-1.8747 0.625-1.875 0.41719-0.41719 1.6666-0.83281 3.75-1.25l3.75-1.25c5.4166 3.1e-4 8.5416 2.292 9.375 6.875v1.25c-1.6e-4 5.0003-2.5002 10-7.5 15l-14.375 12.5-11.25 11.25 6.875-5 5.625-3.75 6.25-5 8.75-6.875c8.7498-6.2497 13.125-12.916 13.125-20-1.6e-4 -7.9164-5.2084-11.875-15.625-11.875-5.0002 3.1e-4 -8.1252 3.3336-9.375 10m-53.75 43.75c-5.8334 2.0836-8.7502 5.2086-8.75 9.375-1.6e-4 4.1669 2.0833 6.2502 6.25 6.25 8.3333 1.6e-4 12.5-4.9998 12.5-15-1.6e-4 -5.4164-1.6667-9.3747-5-11.875-4.5834-3.3331-6.8752-5.8331-6.875-7.5-1.6e-4 -3.7497 1.4578-5.6247 4.375-5.625 3.7498 3.1e-4 7.0833 2.0836 10 6.25 3.3333 4.1669 4.9998 7.9169 5 11.25-1.6e-4 7.5003-3.1252 18.334-9.375 32.5-10 23.334-15 45.625-15 66.875-1.6e-4 38.333 12.708 70.833 38.125 97.5l-3.125-11.875c-17.917-27.917-26.875-51.875-26.875-71.875-1.6e-4 -23.333 5.2083-43.958 15.625-61.875 10.833-18.333 23.125-27.5 36.875-27.5 2.0831 1.6e-4 3.3331 0.20781 3.75 0.625l6.25 4.375c0.83281-0.83281 1.6666-2.0831 2.5-3.75v-1.875c-1.6e-4 -3.3331-1.25-5.2081-3.75-5.625-2.5002-0.83281-4.5834-1.4578-6.25-1.875-1.6669-1.6664-1.4578-2.4997 0.625-2.5h-10.625c-5.4169 0.41719-9.7919 3.3336-13.125 8.75l-7.5 10.625c-2.0834 2.5002-3.5417 3.7502-4.375 3.75-1.25 1.6e-4 -1.8752-0.83281-1.875-2.5-1.6e-4 -0.83281 0.20781-1.4578 0.625-1.875l10.625-15.625c1.6666-1.6664 2.4998-4.9997 2.5-10-1.6e-4 -2.9164-1.6667-9.7914-5-20.625-1.25 4.5836-2.7084 6.8753-4.375 6.875-1.6667 3.1e-4 -2.5002-0.83281-2.5-2.5-1.6e-4 -0.83281 0.625-1.8747 1.875-3.125-5.8334-7.0831-11.458-10.625-16.875-10.625-7.5002 3.1e-4 -11.25 3.5419-11.25 10.625-1.6e-4 3.7503 2.7083 8.9586 8.125 15.625 2.0833 3.3336 3.1248 6.2503 3.125 8.75-1.6e-4 4.5836-1.8752 6.8752-5.625 6.875-2.5002 1.6e-4 -3.7502-1.4578-3.75-4.375-1.6e-4 -1.25 1.0422-3.5414 3.125-6.875m151.88 190c6.2497 3.75 12.916 5.625 20 5.625l5.625-0.625 40-3.125h25.625c6.6662 0.83281 12.708 1.4578 18.125 1.875 5.4162 0.41719 10.416 0.625 15 0.625 15.416 0 23.125-2.0833 23.125-6.25-0.83438-1.25-2.0838-3.125-3.75-5.625-4.7e-4 5.4167-6.4588 7.9167-19.375 7.5h-4.375l-26.875-1.875h-23.75l-49.375 2.5-20-0.625m-42.5-153.75c-2.5002 2.0836-3.7502 4.1669-3.75 6.25v1.25c0.41562 7.5002-1.6e-4 11.875-1.25 13.125l-7.5 10-5-4.375c-0.83438 1.6e-4 -1.6669 1.0422-2.5 3.125-4.1669 6.6669-6.2502 11.875-6.25 15.625l0.625 1.875 5 18.75c-1.6e-4 3.3334-1.0422 5.0002-3.125 5-2.5002 1.6e-4 -4.5834-1.4578-6.25-4.375l-11.875-21.875-15-11.25 0.625 2.5-1.875 1.875 1.875 1.25c-1.6e-4 2.0834-1.6669 3.1252-5 3.125-2.0834-0.83281-5.0002-1.4578-8.75-1.875-2.5002 1.6e-4 -4.3752 0.20781-5.625 0.625-3.7502 1.6669-6.4584 2.5002-8.125 2.5l-10 8.125 3.125 1.875c3.7498 2.5002 6.4583 5.2084 8.125 8.125 2.4998 5.0002 4.1666 7.9169 5 8.75l5.625 5.625c-1.6e-4 0.41719-1.0422 1.4578-3.125 3.125-2.0834 1.25-3.1252 2.2917-3.125 3.125l0.625 0.625c0.41719 1.6e-4 0.83281 0.20781 1.25 0.625l11.25 4.375c7.0831 3.3334 11.875 4.5834 14.375 3.75l18.75-5.625 1.875-0.625c2.4998 1.6e-4 3.7498 0.625 3.75 1.875-1.6e-4 3.7502-6.0419 6.2502-18.125 7.5l-6.25 0.625-13.125 0.625-12.5 6.25 5.625 5v3.75l-8.75 5-3.125 8.125c5.4166 0.41719 9.3748 1.0422 11.875 1.875 9.5831 2.0834 14.583 2.9167 15 2.5 1.25-0.41719 3.3331-0.625 6.25-0.625 2.0831 1.6e-4 3.1248 0.83281 3.125 2.5l-0.625 3.75 11.25 0.625c4.5831 0 8.3331-1.4578 11.25-4.375 2.9164-2.0833 4.9998-3.7498 6.25-5 1.25-1.25 2.0831-2.0833 2.5-2.5l3.75-23.125c0.83281-3.3333 1.8748-4.9998 3.125-5 2.9164 1.6e-4 4.3748 3.1252 4.375 9.375-1.6e-4 0.83281-0.41719 2.9167-1.25 6.25-4.5836 12.917-6.8752 20.208-6.875 21.875-1.6e-4 2.0834 0.41562 3.125 1.25 3.125 0.41719 0 1.25-0.41719 2.5-1.25 1.6664-1.25 2.9164-1.875 3.75-1.875 1.25 0 2.0831 1.4578 2.5 4.375 0.83281 7.9167 1.6664 13.125 2.5 15.625 1.25 2.5 4.7914 5.4167 10.625 8.75l2.5-8.125 10.625-20.625 0.625-6.25c0.41719-1.25 1.4578-1.8748 3.125-1.875 0.83281 1.6e-4 2.2914 1.0422 4.375 3.125l-1.875-1.25 1.875 1.875 1.25-4.375c1.6664-3.3333 2.4997-7.0833 2.5-11.25-3.1e-4 -6.2498-2.0836-10.625-6.25-13.125l-11.875-6.875-1.25-3.75c-0.41719-0.41719-1.0422-0.625-1.875-0.625-2.9169 1.6e-4 -4.3752 1.0422-4.375 3.125l0.625 1.875c3.3331 13.333 4.9998 20.417 5 21.25-1.6e-4 2.0834-0.83281 3.1252-2.5 3.125-1.6669 1.6e-4 -2.2919-2.7083-1.875-8.125v-3.75c-1.6e-4 -7.9166-1.6669-12.292-5-13.125l-5.625-0.625h-5l-1.25 1.875-2.5 0.625-4.375-1.25 3.75-2.5c-8.3336-0.83281-12.5-4.5833-12.5-11.25-1.6e-4 -4.5831 2.9164-6.8748 8.75-6.875h1.875l16.875 4.375 2.5 0.625c7.0831 1.6e-4 15.416-6.6666 25-20l-16.25 4.375-6.875 7.5c-1.25 1.6669-2.7086 2.5002-4.375 2.5-1.25 1.6e-4 -1.8752-0.83281-1.875-2.5-1.6e-4 -1.6666 0.83281-3.3331 2.5-5l11.25-10.625 6.25-16.875v-7.5l-2.5 1.875c-2.5002 0.83281-3.5419 1.25-3.125 1.25-0.83281 1.6e-4 -1.25-1.4578-1.25-4.375-0.41719-9.1664-6.2502-18.333-17.5-27.5m101.25-248.12c2.4997-2.9162 3.7497-5.6245 3.75-8.125-3.1e-4 -9.1662-5.6253-13.75-16.875-13.75-15.417 4.7e-4 -23.125 7.7088-23.125 23.125-3.1e-4 7.0838 3.9581 15.209 11.875 24.375-6.2503-9.1662-9.3753-17.291-9.375-24.375-3.1e-4 -11.666 6.0414-17.5 18.125-17.5 9.583 4.7e-4 14.791 5.4172 15.625 16.25m-200 15c-13.333 19.584-20 38.75-20 57.5-1.6e-4 27.084 9.7916 49.792 29.375 68.125 8.3333 8.3336 12.5 14.792 12.5 19.375-1.6e-4 10.417-3.1252 15.625-9.375 15.625-6.2502 3.1e-4 -9.5834-4.3747-10-13.125l-1.25-18.125c-1.6e-4 -5.4164-2.9167-8.1247-8.75-8.125-2.0834 3.1e-4 -4.5834 0.625-7.5 1.875 7.4998 0.41719 10.833 4.167 10 11.25l-0.625 11.875c-0.83281 12.5 4.9998 18.75 17.5 18.75 13.333 3.1e-4 20-9.7914 20-29.375l2.5-0.625h3.125l-1.875-5-1.25-3.125-3.75-2.5-8.75-6.875-11.875-6.875c-0.83281-0.83281-1.25-1.6664-1.25-2.5-1.6e-4 -1.25 0.83281-1.8747 2.5-1.875 0.83281 3.1e-4 1.4578 0.20937 1.875 0.625l7.5 6.875 6.875 2.5 7.5 6.25c1.6666 1.667 6.2498 2.5003 13.75 2.5 7.9166 3.1e-4 13.333-1.4578 16.25-4.375l5-3.75-2.5-2.5 1.25-3.125 5-6.875c2.4998-2.9164 3.7498-6.6662 3.75-11.25-1.6e-4 -9.9997-4.7919-15-14.375-15-3.7502 3.1e-4 -8.9584 3.3338-15.625 10-4.5834 4.5838-8.3334 6.8753-11.25 6.875-4.5834 3.1e-4 -6.8752-2.708-6.875-8.125-1.6e-4 -3.7497 1.0422-5.6247 3.125-5.625h5l2.5-6.875c0.41719-0.83281 1.0422-1.6662 1.875-2.5 0.83281-1.25 1.6666-2.708 2.5-4.375-4.1669 0.41719-7.0834 1.0422-8.75 1.875-1.25 0.83437-2.0834 1.25-2.5 1.25-0.83281 3.1e-4 -1.25-0.625-1.25-1.875l-1.25-4.375-6.875-4.375c-0.41719 2.0838-1.25 4.792-2.5 8.125-0.83281 2.917-1.25 5.0003-1.25 6.25-1.6e-4 1.25 1.0422 2.292 3.125 3.125h3.125v2.5c-0.41719 0.83437-0.625 2.292-0.625 4.375-1.6e-4 8.7503 3.5416 13.125 10.625 13.125 3.7498 3.1e-4 9.3748-3.958 16.875-11.875 2.9166-3.7497 6.4581-5.6247 10.625-5.625 4.1666 3.1e-4 6.2498 2.5003 6.25 7.5-1.6e-4 5.8338-3.1252 10.834-9.375 15-5.8334 4.167-12.708 6.2503-20.625 6.25-14.167 3.1e-4 -26.458-6.458-36.875-19.375-10.833-13.333-16.25-28.333-16.25-45-1.6e-4 -9.1662 1.4578-16.458 4.375-21.875 2.4998-4.583 4.3748-8.333 5.625-11.25 1.25-3.333 2.0833-5.4162 2.5-6.25l0.625-5m14.375-15.625 8.75 0.625c19.167-11.666 38.125-17.5 56.875-17.5 42.083 4.7e-4 73.125 18.959 93.125 56.875l1.875-5c-22.084-37.083-53.959-55.625-95.625-55.625-24.583 4.7e-4 -46.25 6.8755-65 20.625m151.88 248.12c-5.4169-2.0831-9.1669-3.1248-11.25-3.125-10.417 1.6e-4 -20.834 3.1252-31.25 9.375-0.41719 0.41719-1.0422 0.83437-1.875 1.25-0.41719 0.41719-1.6669 0.83437-3.75 1.25 6.6664 5.4169 13.125 8.9586 19.375 10.625l5.625 0.625h0.625c0.83281 1.6e-4 1.25 0.41719 1.25 1.25-0.41719 0.41719-0.83281 0.83437-1.25 1.25-0.41719 1.6e-4 -0.83438 0.20937-1.25 0.625-5.8336 1.25-8.7503 3.3334-8.75 6.25-3.1e-4 0.83281 1.6664 2.2919 5 4.375l9.375 5.625h1.875c-0.83281-0.83281-1.25-1.4578-1.25-1.875-3.1e-4 -0.41719 0.41562-0.625 1.25-0.625l7.5 0.625 6.25-0.625h2.5c-0.83438 1.25-2.7086 2.5002-5.625 3.75 1.25 0.41719 3.1247 0.625 5.625 0.625 2.0831 1.6e-4 4.1664-0.625 6.25-1.875l8.75-5.625c0.41719-0.41719 1.0422-0.625 1.875-0.625 2.4997 1.6e-4 3.7497 1.25 3.75 3.75v0.625l-8.75 13.75 3.75 23.125 3.75-1.25c2.083-0.41719 3.5414-1.4578 4.375-3.125l1.25-3.125c0.83281-0.83281 1.4578-1.25 1.875-1.25 0.41562 1.6e-4 1.0406 0.625 1.875 1.875l1.25 6.875c1.6664 2.0834 3.5414 4.1667 5.625 6.25 2.083 2.0834 4.1664 4.5834 6.25 7.5 0.83281 1.6667 1.8747 3.3334 3.125 5 1.25 1.6667 2.2914 3.3334 3.125 5 0.83281-0.83281 1.6664-1.8748 2.5-3.125 0.83281-1.6666 1.8747-3.3333 3.125-5 7.083-7.0833 11.875-14.167 14.375-21.25 0.41562-1.6666 0.83281-2.4998 1.25-2.5-1.25 1.6e-4 1.0406 2.2919 6.875 6.875 0.41562 0.41719 1.25 0.625 2.5 0.625 0.83281 1.6e-4 1.6662-1.25 2.5-3.75l3.125-12.5-1.875-13.125-5-7.5c-1.25-1.25-1.8753-2.4998-1.875-3.75-3.1e-4 -1.25 1.0406-1.8748 3.125-1.875 0.41562 1.6e-4 4.583 1.6669 12.5 5 2.9162 1.25 6.2497 1.8752 10 1.875l3.75-0.625c6.6662-0.41719 11.458-2.0831 14.375-5l5-5-6.25-3.125c-0.41719-0.41719-0.625-1.0422-0.625-1.875-4.7e-4 -0.41719 0.41562-1.0422 1.25-1.875l10.625-3.75c2.9162-1.25 6.0412-4.3748 9.375-9.375-2.917-0.41563-5.417-0.83281-7.5-1.25-2.0838-0.41719-3.7505-0.83281-5-1.25-5.0005-0.83281-10.209-2.0831-15.625-3.75l-1.25-2.5-7.5-0.625-7.5 0.625 4.375 3.75c0.83281 0.83437 1.25 2.0836 1.25 3.75-3.1e-4 2.9169 0.83281 4.3752 2.5 4.375 2.4997 1.6e-4 4.1662-0.20781 5-0.625l3.125-0.625c1.6662 1.6e-4 2.4997 0.625 2.5 1.875-3.1e-4 2.0836-1.25 2.7086-3.75 1.875h-3.75c-3.3338-0.41719-6.4588 0.83437-9.375 3.75l-5 4.375c-4.5838 0.83437-9.167 2.5002-13.75 5v1.875l-2.5 3.125-1.875 1.25c-0.41719-0.41719-0.625-1.25-0.625-2.5-3.1e-4 -1.25 0.41562-2.2916 1.25-3.125-4.167 0.83281-8.1253 1.4578-11.875 1.875-3.7503 1.6e-4 -7.5003 0.20781-11.25 0.625-1.25 4.5834-1.8753 8.5419-1.875 11.875v5l0.625 4.375c-3.1e-4 2.5002-0.625 3.7502-1.875 3.75-1.25 1.6e-4 -1.8753-1.0422-1.875-3.125l-0.625-16.25-1.25-5c-9.5836-0.83281-17.709-1.6666-24.375-2.5-6.2503-1.25-11.042-2.7081-14.375-4.375-5.8336-2.4998-9.5836-7.0831-11.25-13.75h-7.5c-2.5003 0.83437-3.7503 0.41719-3.75-1.25-3.1e-4 -1.6664 3.1247-2.2914 9.375-1.875h3.125c0.41719-1.25 2.0831-3.3331 5-6.25m3.75 0.625-1.875 1.25c-2.9169 2.9169-4.3753 5.2086-4.375 6.875-3.1e-4 5.0002 4.5831 9.1669 13.75 12.5 9.583 3.3336 21.041 5.0002 34.375 5 14.583 1.6e-4 26.875-1.6664 36.875-5 9.9997-3.7498 15-8.3331 15-13.75-3.1e-4 -4.9998-1.8753-7.4998-5.625-7.5-0.83438 1.6e-4 -1.4594 1.25-1.875 3.75-1.667 11.667-16.875 17.5-45.625 17.5-26.25 1.6e-4 -39.375-4.3748-39.375-13.125v-4.375l-1.25-3.125m-171.25-170.62c0.41719 2.917 1.0422 4.3753 1.875 4.375 3.7498 3.1e-4 6.8748-4.583 9.375-13.75 3.7498-14.583 9.9998-24.583 18.75-30 8.7498-5.4162 22.708-8.1245 41.875-8.125l91.875 0.625c-1.6669-2.9162-3.9586-4.3745-6.875-4.375h-73.75c-24.583 4.7e-4 -42.5 2.7088-53.75 8.125-6.2502 2.917-10.833 6.667-13.75 11.25-1.6667 2.5005-3.1252 5.417-4.375 8.75-1.25 3.3338-2.5002 6.667-3.75 10-0.83281 3.3338-1.8752 6.2503-3.125 8.75-1.25 2.5003-2.7084 3.9588-4.375 4.375m181.88-50.625 1.25 3.125h3.125c-3.1e-4 -1.6662-1.4578-2.708-4.375-3.125m-175-21.875c-1.6e-4 7.917-0.20781 12.292-0.625 13.125-0.83281 5.0005-3.5417 16.042-8.125 33.125-0.41719 2.0838-0.83281 3.9588-1.25 5.625-1.6e-4 1.667-1.6e-4 2.917 0 3.75-1.6e-4 8.7503 1.25 13.125 3.75 13.125 0.83281-0.83281 1.6666-2.083 2.5-3.75-1.6e-4 -2.083 0.83281-5.4162 2.5-10 5.8333-25 27.708-37.291 65.625-36.875h88.125c-10.834-12.083-18.75-17.916-23.75-17.5h-0.625l-128.12-0.625m407.5 0.625v13.125l5.625 16.25 2.5 10 1.25 20c0.83281 7.0838-1.25 11.25-6.25 12.5 0.83281 2.0838 2.0828 3.1253 3.75 3.125 4.5828 3.1e-4 6.8745-4.9997 6.875-15-4.7e-4 -13.333-1.4594-24.166-4.375-32.5l-6.25-16.875v-8.125l-3.125-2.5m-178.12 321.88-3.75 6.25v5.625c-3.1e-4 17.5 3.333 28.958 10 34.375-2.0838-6.6666-3.7503-12.708-5-18.125-1.25-5.8333-1.667-11.458-1.25-16.875v-11.25m-4.375-65.625 4.375-0.625v-11.875l-1.25-196.88c-3.1e-4 -5.4162 1.4578-12.708 4.375-21.875 7.9162-0.41563 15.416-0.625 22.5-0.625 7.083 4.7e-4 13.541 4.7e-4 19.375 0h31.875c14.583 4.7e-4 27.708 0.20937 39.375 0.625 12.083 0.41719 22.708 1.0422 31.875 1.875-11.25-3.7495-25.834-5.6245-43.75-5.625l-58.75-1.25-46.25 1.25c-3.3338 13.334-5.0003 23.334-5 30l0.625 11.875 0.625 193.12m-2.5 73.75c-2.0836 3.3334-4.3753 6.8752-6.875 10.625-2.5003 3.3334-4.792 6.6667-6.875 10-1.667-2.9166-3.542-6.2498-5.625-10-2.0836-3.7498-4.792-7.9166-8.125-12.5l-6.875-6.875v8.75c0.41562 35-14.792 53.542-45.625 55.625-6.2503 0.83281-9.3753 2.2917-9.375 4.375-3.1e-4 3.3334 3.5414 4.5834 10.625 3.75h1.875l69.375-3.125c2.083 0 5.208 0.20781 9.375 0.625 4.583 0 9.3747 0.20781 14.375 0.625 4.9997 0.41719 9.583 0.83281 13.75 1.25h10c9.9997 0 15-1.25 15-3.75-4.7e-4 -1.25-1.667-2.2916-5-3.125l-20.625-3.75c-19.584-4.5833-29.375-22.083-29.375-52.5m-56.25-330 2.5 6.25c1.25 4.5838 3.1247 8.3338 5.625 11.25l6.25 0.625c3.7497 9.5838 5.6247 21.042 5.625 34.375v204.38l9.375 0.625c3.333 0.41719 6.0414 0.83281 8.125 1.25 2.4997 1.6e-4 4.583 1.6e-4 6.25 0 1.25 1.6e-4 2.708 1.6e-4 4.375 0 2.083-0.41719 4.583-0.83281 7.5-1.25l-0.625-97.5v-33.75c-3.1e-4 -5.833-3.1e-4 -11.666 0-17.5-3.1e-4 -6.2497-0.20938-12.291-0.625-18.125v-35c-3.1e-4 -14.166 1.8747-26.666 5.625-37.5l8.75-0.625 53.125-0.625c19.166 4.7e-4 34.166 0.20937 45 0.625 10.833 4.7e-4 17.5 0.20937 20 0.625 30 3.3338 46.875 13.334 50.625 30l1.875 10c2.0828 7.0838 3.7495 10.625 5 10.625 2.9161 3.1e-4 4.1661-3.333 3.75-10l-0.625-3.125c-0.83438-11.666-2.0839-19.791-3.75-24.375l-6.25-15c-0.41719-0.83281-0.625-2.9162-0.625-6.25v-3.75c-4.7e-4 -2.9162 0.20781-5.4162 0.625-7.5l-237.5 1.25m-22.5 173.75c-3.3336 2.0836-5.0003 3.9586-5 5.625-3.1e-4 3.7503 2.4997 5.6253 7.5 5.625 4.1664 3.1e-4 7.9164-0.83281 11.25-2.5l-1.25-1.25c-4.1669 0.83281-6.4586 1.25-6.875 1.25-4.5836 3.1e-4 -6.8753-1.4578-6.875-4.375-3.1e-4 0.41719 0.41562-1.0406 1.25-4.375m-90.625 103.75c2.0831 1.6e-4 3.1248-1.25 3.125-3.75-1.6e-4 -2.0831-1.25-3.1248-3.75-3.125-2.5002 1.6e-4 -3.7502 0.83281-3.75 2.5-1.6e-4 2.9169 1.4578 4.3752 4.375 4.375m315.62-176.88c-3.7505-3.7497-5.6255-9.583-5.625-17.5-4.7e-4 1.25 0.41562 2.5003 1.25 3.75 1.25 1.25 1.8745 2.7088 1.875 4.375l2.5 9.375m6.25-13.75c4.9995 5.0003 10.833 7.5003 17.5 7.5-6.6672 3.1e-4 -12.5-2.4997-17.5-7.5m-45.625 41.25c2.4995 0.83437 4.9995 1.8753 7.5 3.125 2.4995 0.83437 4.9995 2.0836 7.5 3.75-0.83438 0.41719-2.9172 0.625-6.25 0.625-3.3338 3.1e-4 -6.2505-2.4997-8.75-7.5m56.25 1.875c0.83281 0.83437 4.7911-0.83281 11.875-5 7.0828-3.7497 10.625-5.4164 10.625-5-3.3339 2.0836-6.8755 4.5836-10.625 7.5-3.7505 2.5003-7.7089 5.2086-11.875 8.125v-5.625m5.625 68.75c1.6661 1.6669 4.5828 6.6669 8.75 15-5.4172-3.3331-8.3339-8.3331-8.75-15m16.875 46.25c1.6661-0.41719 5.2078-3.1248 10.625-8.125 0.41562-0.41719 1.0406-0.625 1.875-0.625 0.83281 1.6e-4 0.20781 1.6669-1.875 5-1.6672 3.3336-3.1255 5.0002-4.375 5-4.7e-4 1.6e-4 -0.83438-0.20781-2.5-0.625-1.25-0.83281-2.5005-1.0422-3.75-0.625m-97.5 18.125c1.6662-2.0831 2.708-3.5414 3.125-4.375 0.83281-1.25 1.4578-2.0831 1.875-2.5 1.25-3.3331 2.708-4.9998 4.375-5 2.083 1.6e-4 3.1245-0.20781 3.125-0.625-4.7e-4 1.25-0.83438 2.7086-2.5 4.375l-5 3.75-5 4.375m3.75 5.625 8.75-6.875c-1.25 4.5836-4.167 6.8752-8.75 6.875m-24.375 31.875 5.625-1.875 6.25-1.25 7.5-4.375c-3.3338 5.8334-7.917 8.7502-13.75 8.75 0.41562 1.6e-4 -1.4594-0.41719-5.625-1.25m46.875 1.25c-2.0838-1.25-2.7088-2.2916-1.875-3.125-4.7e-4 -1.25 0.83281-3.3331 2.5-6.25 0.83281 3.3334 1.25 5.0002 1.25 5l-1.875 1.875c-0.83438 0.83281-0.83438 1.6669 0 2.5m22.5-38.75c-1.6672-1.6664-2.5005-2.9164-2.5-3.75-4.7e-4 -1.6664 0.20781-2.4998 0.625-2.5 2.9162 0.83437 3.7495 1.8752 2.5 3.125-0.41719 0.41719-0.625 1.4594-0.625 3.125m10.625 130.62c1.6662-5 4.9995-8.3333 10-10-2.5005 3.75-5.8338 7.0834-10 10m21.25-8.75 8.125-11.875c-4.7e-4 6.25-2.7089 10.208-8.125 11.875m-1.25 23.75c3.3328-4.5833 6.0411-6.875 8.125-6.875-0.41719 0 1.4578 0.41719 5.625 1.25-2.0839 0.83281-4.3755 1.875-6.875 3.125-2.0839 0.83281-4.3755 1.6667-6.875 2.5m-15.625 5.625c-4.1672-2.0833-6.4588-5.625-6.875-10.625 3.3328 3.3334 5.6245 6.875 6.875 10.625m-107.5-71.25c1.6662 1.25 3.1247 2.5002 4.375 3.75 1.6662 1.25 3.333 2.7084 5 4.375-4.5838-0.83281-7.7088-3.5416-9.375-8.125m-228.12-211.88c2.9166-1.6664 5.6248-2.4997 8.125-2.5-1.6e-4 3.1e-4 0.20781 3.1e-4 0.625 0 0.83281-0.41719 1.8748-0.83281 3.125-1.25 2.4998-0.41719 4.3748-0.41719 5.625 0-5.8334 2.917-9.7919 4.3753-11.875 4.375-2.5002 3.1e-4 -4.3752-0.20781-5.625-0.625m275-45c0.41562 0.83437 1.25 3.1e-4 2.5-2.5 1.25-2.9162 1.8745-4.1662 1.875-3.75-1.25 3.7503-2.5005 8.1253-3.75 13.125-0.41719-1.25-0.83438-2.083-1.25-2.5-4.7e-4 -0.83281-4.7e-4 -1.25 0-1.25-4.7e-4 -1.6662 0.20781-2.708 0.625-3.125m1.25-40c0.41562-2.083 0.625-3.7495 0.625-5 0.41562-1.25 0.625-1.8745 0.625-1.875-4.7e-4 4.7e-4 0.20781 1.667 0.625 5 0.83281 2.917 1.6662 7.5005 2.5 13.75-4.7e-4 -1.25-0.41719-2.2912-1.25-3.125-0.83438-0.83281-1.25-1.4578-1.25-1.875l-1.875-6.875m37.5 20c0.83281-0.41563 2.0828-0.625 3.75-0.625 1.6662 3.1e-4 2.7078-0.20781 3.125-0.625-0.41719-0.41563-0.83438-0.625-1.25-0.625-0.41719 3.1e-4 -0.83438-0.20781-1.25-0.625-1.6672 3.1e-4 -2.7088 0.20937-3.125 0.625l-1.25 0.625c0.83281 0.83437 0.83281 1.25 0 1.25m-15 6.25-0.625 1.25c-1.6672 2.917-2.5005 4.5838-2.5 5 0.83281-0.83281 2.2912-1.6662 4.375-2.5 0.41562-1.6662-4.7e-4 -2.9162-1.25-3.75m7.5-5.625c0.41562 2.0838 1.0406 5.2088 1.875 9.375 1.25 3.7503 2.9162 8.9588 5 15.625-4.7e-4 3.1e-4 -0.41719-0.625-1.25-1.875-0.41719-1.6662-1.4594-3.958-3.125-6.875-2.5005-5.4162-3.7505-7.9162-3.75-7.5-4.7e-4 -2.4997 0.41562-5.4162 1.25-8.75m-345.62 156.88c-0.41719 2.5002-1.0422 5.4169-1.875 8.75-0.41719 2.9169-1.4578 6.2502-3.125 10-0.41719 1.25-0.83281 2.5002-1.25 3.75-0.41719 1.25-0.83281 2.7086-1.25 4.375l-1.875 3.125-5.625 13.125 5.625-20 9.375-23.125m69.375-171.88c-0.41719 1.667-2.9169 5.6255-7.5 11.875-0.83281 1.667-1.8752 3.3338-3.125 5-1.25 1.667-2.7084 3.542-4.375 5.625 2.9166-9.1662 7.9166-16.666 15-22.5m79.375 92.5c-3.1e-4 -0.83281-2.7086 2.0836-8.125 8.75 1.6664-4.583 2.9164-7.083 3.75-7.5 1.25-0.41719 2.7081-0.83281 4.375-1.25m38.125 131.88c-2.0836-0.83281-4.167-1.8748-6.25-3.125-1.667-1.25-3.542-2.2916-5.625-3.125-3.1e-4 1.6e-4 0.20781 0.20781 0.625 0.625 0.83281 1.6e-4 1.8747 0.20781 3.125 0.625 5.4164 0.41719 8.1247 2.0834 8.125 5m-38.125-34.375c-2.0836 0.41719-4.1669 0.83281-6.25 1.25-2.0836 1.6e-4 -4.1669 0.20937-6.25 0.625 1.25 1.6669 4.5831 1.6669 10 0 0.41562-0.41719 0.83281-0.625 1.25-0.625 0.41562-0.41719 0.83281-0.83281 1.25-1.25m-3.125 12.5c-2.5003 2.0836-10 0.83281-22.5-3.75 6.2497 0.83281 13.75 2.0836 22.5 3.75m37.5 29.375c-2.917 8.3334-4.3753 12.5-4.375 12.5-3.1e-4 7.9169 0.20781 12.292 0.625 13.125-1.667-2.9166-2.5003-7.7081-2.5-14.375-3.1e-4 -0.83281 2.083-4.5831 6.25-11.25m104.38-31.25c-2.0838 1.6e-4 -1.667-0.20781 1.25-0.625 3.333-0.83281 4.583-1.25 3.75-1.25l-20.625-3.125c-0.41719 1.6e-4 1.8747 0.83437 6.875 2.5 5.4162 1.6669 8.333 2.5002 8.75 2.5m-9.375 17.5c-5.8338 2.5002-11.042 3.7502-15.625 3.75-2.0838 1.6e-4 -4.792-1.0422-8.125-3.125 0.83281 0.41719 4.583 0.625 11.25 0.625 2.083 1.6e-4 4.1662 1.6e-4 6.25 0 2.083-0.41719 4.1662-0.83281 6.25-1.25m-41.25 13.125c3.333 4.5834 4.9997 8.3334 5 11.25-3.1e-4 3.3334-0.83438 8.1252-2.5 14.375l0.625-11.875c-3.1e-4 -2.9166-1.0422-7.4998-3.125-13.75m-27.5 45c-2.917-4.1666-3.542-8.7498-1.875-13.75 0.41719-1.25 0.83281-3.1248 1.25-5.625 0.41562-2.4998 0.83281-5.8331 1.25-10v13.125c1.25 4.5834 1.0406 10-0.625 16.25m-71.25-9.375c9.1664 0.83281 15.625 0.41719 19.375-1.25-1.6669 1.25-6.2503 2.5002-13.75 3.75l-5.625-2.5m-31.25-21.875c0.41719-1.25 1.0422-2.7081 1.875-4.375 3.3331-4.5831 5.2081-8.7498 5.625-12.5 0.41562-0.41719 0.625-1.0422 0.625-1.875-0.83281 12.083-3.5419 18.333-8.125 18.75m5 11.25c2.9164-2.9166 5.8331-4.3748 8.75-4.375h1.25c-0.83281 0.41719-2.2919 1.0422-4.375 1.875-1.6669 0.41719-3.5419 1.25-5.625 2.5m-13.125-25c-1.6e-4 -3.7498-0.20938-6.4581-0.625-8.125-0.41719-1.6666-0.625-3.9581-0.625-6.875-1.6e-4 -9.5831 0.20781-13.75 0.625-12.5 2.0831 8.3336 3.1248 13.333 3.125 15-1.6e-4 3.7502-0.83281 7.9169-2.5 12.5m-13.75 25c-1.6e-4 1.6e-4 0.83281-1.25 2.5-3.75 1.6664-2.9166 4.1664-7.2916 7.5-13.125 0.41562-1.25 1.0422-1.8748 1.875-1.875 0.41562 1.6e-4 0.625 0.20781 0.625 0.625-1.6e-4 6.2502-4.1669 12.292-12.5 18.125m18.75 84.375c1.25 0.41719 2.2914-1.25 3.125-5-1.6e-4 -1.25-0.20938-2.9166-0.625-5-1.6e-4 -2.5-1.6e-4 -5 0-7.5-1.6e-4 -2.5-0.20938-4.7916-0.625-6.875-1.6e-4 -2.4998-1.6e-4 -4.1666 0-5-2.5002 19.167-3.1252 28.958-1.875 29.375m-47.5-87.5c2.0831 0.41719 3.5416 3.9584 4.375 10.625-1.6e-4 2.0834 1.0422 3.5417 3.125 4.375-3.7502-0.41719-5.6252-2.0831-5.625-5-1.6e-4 -0.83281 0.20781-2.0831 0.625-3.75 0.41719-1.6666 0.625-2.7081 0.625-3.125-1.6e-4 -2.0831-1.0422-3.1248-3.125-3.125m-3.125-1.875-28.125-6.25-13.75-5.625c7.4998 1.25 15.208 2.7084 23.125 4.375 7.9166 1.6669 14.167 4.1669 18.75 7.5m-22.5 19.375c9.9998 3.3334 15.417 4.7917 16.25 4.375-0.41719 0.41719-0.83281 0.625-1.25 0.625-2.0834 0.41719-3.7502 0.83281-5 1.25-1.25 1.6e-4 -2.0834 1.6e-4 -2.5 0-0.41719 1.6e-4 -1.4578-0.83281-3.125-2.5-1.25-1.6666-2.7084-2.9166-4.375-3.75m21.25 34.375 15.625-9.375 8.75-13.75-6.25 15.625-18.125 7.5m-28.125 3.125c9.1666-2.0833 14.583-2.9166 16.25-2.5h7.5c-7.5002 2.0834-12.5 3.1252-15 3.125h-3.75c-2.0834 1.6e-4 -3.7502-0.20781-5-0.625m40 56.25c1.25 0.83281 2.2916 1.6667 3.125 2.5l1.875 1.875c-0.41719-0.41719-0.625 0.20781-0.625 1.875-0.41719-0.41719-1.8752-0.20781-4.375 0.625 1.25-1.25 1.8748-2.2916 1.875-3.125-1.6e-4 -0.41719-0.625-1.6666-1.875-3.75m-6.875 6.25c0.41719 0 0.625-2.0833 0.625-6.25 0.83281-0.41719 1.4578-0.625 1.875-0.625l0.625-0.625c0.41719 1.25 1.0422 2.2917 1.875 3.125-1.6e-4 0.83281-1.6669 2.2917-5 4.375m-30-8.75c-0.83281-0.41719-2.5002-1.25-5-2.5-2.5002-1.25-5.4167-3.125-8.75-5.625 0.83281 0.41719 2.4998 1.25 5 2.5 2.4998 1.25 5.4166 3.125 8.75 5.625m6.25-12.5c-3.3334-1.25-5.6252-2.0833-6.875-2.5-0.83281-0.83281-1.4578-2.2916-1.875-4.375 0.83281 1.25 3.7498 3.5417 8.75 6.875m79.375-248.12c7.4998-3.333 10.416-7.083 8.75-11.25-3.1e-4 -0.83281-0.20938-1.25-0.625-1.25-1.6e-4 3.1e-4 -0.83281 1.8753-2.5 5.625-1.6669 3.7503-3.5419 6.042-5.625 6.875m2.5 6.875c4.1664 4.1669 8.1247 7.0836 11.875 8.75l-5-1.25c-4.1669 3.1e-4 -6.4586-2.4997-6.875-7.5m-101.88 35.625c0.41719 0.83437 0.625 3.7503 0.625 8.75-1.6e-4 5.4169-0.20781 8.7503-0.625 10-0.41719-2.0831-0.83281-3.9581-1.25-5.625-1.6e-4 -1.6664-1.6e-4 -2.9164 0-3.75-1.6e-4 -0.83281-1.6e-4 -2.0831 0-3.75 0.41719-1.6664 0.83281-3.5414 1.25-5.625m-15-75 0.625-7.5c-1.6e-4 -1.6664 2.0833-2.4997 6.25-2.5-0.83281 0.83437-1.8752 2.0836-3.125 3.75-0.83281 1.25-2.0834 3.3336-3.75 6.25"
         fill="#8f0005"
         id="path13" />
    </g>
  </g>
</svg>
