<?xml version="1.0" encoding="UTF-8" standalone="no"?>
<svg
   xmlns:dc="http://purl.org/dc/elements/1.1/"
   xmlns:cc="http://creativecommons.org/ns#"
   xmlns:rdf="http://www.w3.org/1999/02/22-rdf-syntax-ns#"
   xmlns:svg="http://www.w3.org/2000/svg"
   xmlns="http://www.w3.org/2000/svg"
   xmlns:sodipodi="http://sodipodi.sourceforge.net/DTD/sodipodi-0.dtd"
   xmlns:inkscape="http://www.inkscape.org/namespaces/inkscape"
   version="1.1"
   viewBox="0 0 500 500"
   id="svg19"
   sodipodi:docname="william-morris-letter-n.svg"
   inkscape:version="1.0.2 (1.0.2+r75+1)">
  <metadata
     id="metadata23">
    <rdf:RDF>
      <cc:Work
         rdf:about="">
        <dc:format>image/svg+xml</dc:format>
        <dc:type
           rdf:resource="http://purl.org/dc/dcmitype/StillImage" />
      </cc:Work>
    </rdf:RDF>
  </metadata>
  <sodipodi:namedview
     pagecolor="#ffffff"
     bordercolor="#666666"
     borderopacity="1"
     objecttolerance="10"
     gridtolerance="10"
     guidetolerance="10"
     inkscape:pageopacity="0"
     inkscape:pageshadow="2"
     inkscape:window-width="1920"
     inkscape:window-height="1016"
     id="namedview21"
     showgrid="false"
     inkscape:zoom="1.686"
     inkscape:cx="255.33808"
     inkscape:cy="250"
     inkscape:window-x="0"
     inkscape:window-y="27"
     inkscape:window-maximized="1"
     inkscape:current-layer="svg19" />
  <defs
     id="defs7">
    <linearGradient
       id="linearGradient847"
       x1="500"
       x2="0"
       y1="500"
       y2="-4.2633e-14"
       gradientTransform="translate(99.050998,12.455516)"
       gradientUnits="userSpaceOnUse">
      <stop
         stop-color="#ff6700"
         offset="0"
         id="stop2" />
      <stop
         stop-color="#ffd700"
         offset="1"
         id="stop4" />
    </linearGradient>
  </defs>
  <path
     d="m24.318 46.709-1.7793 15.568 19.33 9.5977s29.898 13.237 31.381 12.348c1.4828-0.88968 10.973 18.684 10.973 18.684l2.0762 39.738-2.0762 34.699 6.8203 4.4473 14.533 0.29687 10.082-4.1523 0.59375-49.525s27.283 27.58 28.469 27.877 16.016 23.725 16.016 23.725l14.826 10.973 6.5254-20.463 1.334-28.617-4.2988-15.57-63.91-74.287s-44.928-3.855-46.855-3.4102c-1.9276 0.44484-42.111-1.9277-44.039-1.9277zm419.04 0.74024-6.2285 1.4824-16.904 1.4844-64.945-1.4844h-28.471l0.29688 13.346 12.752 8.8965 12.16-1.4824 21.055 8.3047 11.863 12.752-2.373 71.174 0.88867 11.861 17.201 8.0078 11.566-1.7793s3.2617-57.532 3.2617-60.201-0.29688-35.291-0.29688-35.291l6.2285-8.3027 35.291-10.084 5.3379-5.6348-1.4844-8.3027-17.199-4.7461zm-222.33 129.54-17.615 42.359 2.5176 11.744 23.484 27.754 5.168 0.34961c0.59311 0.44484 19.574 22.242 19.574 22.242l-4.0605 1.8516 29.646 35.037 11.744-21.391 18.873-23.066s-2.936-8.8069-7.9688-12.162-58.717-62.07-58.717-62.07l-17.195-22.229-5.4512-0.41992zm-137.14 14.68v127.04h32.295v-127.04h-32.295zm329.08 0.65234c-2.3725 0.59312-10.527 2.5215-10.527 2.5215l-16.459-1.6309-0.88868 2.9648-4.1523 156.14s-36.033-39.737-36.033-38.996-0.14844 0.88867-0.14844 0.88867l-5.9297 4.1523 3.2617 8.0059 2.668 12.012-3.5586 9.6387s-8.0065 6.3753-8.5996 6.6719-14.383 3.4102-14.383 3.4102l14.086 9.0449 73.398 87.93 1.6309-5.3379 2.6699-1.4824s5.3373-256.52 2.9648-255.93zm-297.6 135.08s-26.987 1.4824-33.215 1.4824l2.0762 71.768-6.2266 11.566s-13.94 13.049-16.312 13.049c-2.3725 0-21.352-4.7461-21.352-4.7461l-4.1523 21.057s9.7867 6.2272 11.27 6.8203c1.4828 0.59312 47.154-2.9645 48.934-2.668 1.7794 0.29656 27.876 2.3724 30.842 3.5586s34.4 2.3711 37.662 2.3711 2.9668-8.0059 2.9668-8.0059-4.1517-11.27-5.3379-11.566-10.677-2.669-15.125-1.7793c-4.4484 0.88968-13.939-7.1172-13.939-7.1172l-16.902-14.234-2.6699-38.85 0.59375-13.643 0.88867-29.062zm194.68 4.6562c-0.8388-0.10485-5.9766 6.502-5.9766 6.502l12.688 19.92 9.0156-6.709 3.7754-10.381c0 1e-5 -7.1305-7.7596-8.3887-8.3887-1.2582-0.6291-10.274-0.83851-11.113-0.94336z"
     fill="#f4eee6"
     id="path11" />
  <g
     id="g17">
    <g
       transform="translate(-146.86,-119.79)"
       id="g15">
      <path
         d="m146.86 619.79v-500h500v500h-500m7.5-7.5h485v-485h-485v485m7.5-7.5v-469.38h469.38v469.38h-469.38m153.75-445v-3.125l-1.875-4.375 1.25-6.875c-0.41719-0.41563-0.83438-0.625-1.25-0.625-0.41719-0.41563-0.83281-0.83281-1.25-1.25-2.9169 4.7e-4 -4.3752 2.0838-4.375 6.25-1.6e-4 5.0005 2.4998 8.3338 7.5 10m-116.88 3.75c4.1666 0.83437 6.4583 1.25 6.875 1.25 0.83281 4.7e-4 1.4578-0.20781 1.875-0.625 0.83281-0.41563 2.4998-1.8745 5-4.375 7.9166-7.4995 22.708-11.25 44.375-11.25 4.5831 4.7e-4 7.2914 0.20938 8.125 0.625l25.625 6.875h11.25l-0.625-0.625c-1.6e-4 -0.41563-0.20781-0.83281-0.625-1.25l-5-1.875-10.625-3.75c-8.3336-2.4995-19.167-3.7495-32.5-3.75-13.333 4.7e-4 -23.958 2.0838-31.875 6.25l-4.375 2.5-11.25 5.625-6.25 4.375m131.88-3.75h-1.875c-2.0836-2.4995-3.7503-3.7495-5-3.75-0.83438 0.83437-1.6669 2.7088-2.5 5.625l0.625 2.5v1.875l1.875 1.875c6.6664 5.0005 9.9997 7.7088 10 8.125-3.1e-4 1.667-1.0422 2.5005-3.125 2.5-1.25 4.7e-4 -3.9586-2.708-8.125-8.125-2.5003-2.9162-6.8753-5.4162-13.125-7.5-6.2502-2.0828-11.042-3.1245-14.375-3.125-2.9169 4.7e-4 -6.2502 1.4594-10 4.375-3.7502 2.5005-5.6252 5.2088-5.625 8.125-1.6e-4 1.25 1.4578 2.0838 4.375 2.5l0.625 1.25c-3.3336 4.5838-5.0002 9.5838-5 15l1.25 1.25 0.625 2.5 7.5 6.25 5-0.625 3.125 0.625c0.41719 4.7e-4 1.6664-1.0406 3.75-3.125 2.0831-2.083 3.1248-3.7495 3.125-5l-0.625-3.125-2.5 5.625c-0.83438 2.0838-2.5002 3.1255-5 3.125-6.2502 4.7e-4 -9.3752-3.1245-9.375-9.375-1.6e-4 -8.7495 6.2498-13.125 18.75-13.125 3.7498 4.7e-4 6.0414 0.20937 6.875 0.625l12.5 4.375c1.25 0.83437 2.4997 1.8755 3.75 3.125 1.6664 1.25 3.3331 2.5005 5 3.75l2.5 3.125 0.625 1.25 3.125 4.375 1.875 2.5 4.375 7.5c4.5831 12.917 6.8747 22.084 6.875 27.5v3.125c-3.1e-4 1.25-0.20781 2.5003-0.625 3.75l-0.625 9.375c0.41562 0.41719 1.8747 0.625 4.375 0.625 2.4997 3.1e-4 3.7497-6.6662 3.75-20-3.1e-4 -14.166-2.0836-25.208-6.25-33.125l-12.5-27.5c-1.25-2.4995-1.8753-4.9995-1.875-7.5-3.1e-4 -2.4995 1.0406-5.4162 3.125-8.75 2.0831-3.7495 4.3747-5.6245 6.875-5.625 1.6664 4.7e-4 3.9581 0.83437 6.875 2.5l0.625-1.25c-3.3336-3.3328-6.6669-4.9995-10-5-8.7503 4.7e-4 -13.959 5.0005-15.625 15m40.625-11.875-0.625 2.5c-3.1e-4 1.6672 3.7497 5.2088 11.25 10.625 1.25 2.5005 2.708 3.7505 4.375 3.75 1.6664 4.7e-4 2.4997-0.83281 2.5-2.5v-1.25l-1.25-8.125c-3.1e-4 -1.25-0.83438-2.7078-2.5-4.375-3.3336-2.4995-5.8336-3.7495-7.5-3.75l-6.25 3.125m60.625 5 3.125-0.625c3.7497 4.7e-4 5.6247 1.4594 5.625 4.375v3.125l-3.125 3.75-10.625 7.5-1.25 5c-0.41719 0.83437-0.625 1.8755-0.625 3.125-3.1e-4 0.83438 0.625 1.8755 1.875 3.125l1.25 1.875c2.9162 4.167 6.0412 6.2505 9.375 6.25 0.83281 4.7e-4 2.9162-0.41563 6.25-1.25l16.25-3.75c2.9162 4.7e-4 6.2497 1.8755 10 5.625l1.25 4.375h1.25c1.25-2.9162 1.8745-5.208 1.875-6.875-4.7e-4 -1.6662-1.667-4.1662-5-7.5l3.125-2.5c-3.7503-4.9995-8.1253-7.4995-13.125-7.5-4.167 4.7e-4 -8.9588 2.5005-14.375 7.5h-1.25c-2.917 4.7e-4 -4.3753-0.83281-4.375-2.5-3.1e-4 4.7e-4 1.0406-0.625 3.125-1.875 2.4997-1.25 6.0412-2.9162 10.625-5l3.125-3.75 1.875-3.75v-0.625l-0.625-0.625c-1.25-1.25-3.542-1.8745-6.875-1.875l1.875-0.625h-2.5c-0.83438-8.7495-3.9588-13.125-9.375-13.125-4.167 4.7e-4 -7.0838 2.7088-8.75 8.125m33.75-5.625c-3.1e-4 3.7505-1.8753 7.0838-5.625 10 7.4997-1.6662 11.25-3.9578 11.25-6.875-4.7e-4 -3.3328-1.4594-4.9995-4.375-5l-1.25 1.875m-74.375 18.75 2.5 0.625 0.625 1.25 7.5-5c2.9164-2.4995 4.3747-5.6245 4.375-9.375-3.1e-4 -4.9995-1.667-7.4995-5-7.5-6.667 4.7e-4 -10 3.7505-10 11.25v8.75m-176.88-18.75c-1.6669 0.83437-2.9169 1.4594-3.75 1.875-0.83281 4.7e-4 -1.6667 0.20937-2.5 0.625-11.25 4.5838-17.917 6.8755-20 6.875-3.7502 4.7e-4 -6.2502-0.20781-7.5-0.625l-5.625-3.125 1.25-9.375-5.625 8.75c-1.6e-4 7.5005 4.1666 11.25 12.5 11.25 7.4998 4.7e-4 17.917-5.4162 31.25-16.25m370 0c-2.5005 1.25-3.7505 2.9172-3.75 5-4.7e-4 5.8338 4.5828 8.7505 13.75 8.75 0.41562 4.7e-4 1.0406-0.41563 1.875-1.25 2.0828-2.9162 3.7495-4.9995 5-6.25 1.6661-1.6662 2.7078-2.7078 3.125-3.125h2.5c5.4161 4.7e-4 8.1245 2.2922 8.125 6.875-4.7e-4 5.8338-4.3755 8.7505-13.125 8.75-2.9172 4.7e-4 -6.0422-0.83281-9.375-2.5v1.875l6.25 2.5c3.3328 0.83437 4.7911 1.25 4.375 1.25 1.25 4.7e-4 2.0828-0.20781 2.5-0.625l-0.625 1.25c10.416-0.41563 15.625-3.7495 15.625-10-4.7e-4 -8.3328-3.9589-12.5-11.875-12.5-4.1672 4.7e-4 -7.0839 1.25-8.75 3.75-4.1672 4.1672-7.0839 6.2505-8.75 6.25-4.1672 4.7e-4 -6.4589-3.3328-6.875-10m-33.75 1.25 30 10.625c-0.41719-2.4995-1.4594-4.1662-3.125-5-2.9172-0.83281-5.4172-1.4578-7.5-1.875-1.6672-0.41563-2.9172-0.83281-3.75-1.25-5.8338-2.9162-10.625-3.9578-14.375-3.125l-1.25 0.625m-88.125 11.875c-1.25 1.25-1.8753 2.0838-1.875 2.5-3.1e-4 1.25 0.41562 1.8755 1.25 1.875 0.41562 4.7e-4 1.8747-0.41563 4.375-1.25 2.4997-1.25 4.1662-1.8745 5-1.875 2.083-0.83281 4.7912-1.6662 8.125-2.5 3.333-0.83281 7.083-1.6662 11.25-2.5l33.75-3.125c15.833-1.25 26.666 1.25 32.5 7.5l1.25 1.875c7.4995 3.3338 11.875 5.0005 13.125 5h3.75l-18.75-8.75c7.4995 1.25 14.791 4.1672 21.875 8.75h8.125l3.125-1.875-6.25-2.5-5-2.5c-14.167-7.9162-31.459-11.875-51.875-11.875-27.084 4.7e-4 -48.334 3.7505-63.75 11.25m-203.12 6.25c0.41719-6.6662 4.5831-9.9995 12.5-10 1.6664 4.7e-4 3.7498 0.20937 6.25 0.625 2.4998 0.41719 4.1664 0.625 5 0.625-0.41719 4.7e-4 0.625-0.41563 3.125-1.25-7.0836-2.4995-12.709-3.7495-16.875-3.75-10.833 4.7e-4 -16.25 3.1255-16.25 9.375-1.6e-4 2.5005 2.0831 3.9588 6.25 4.375m103.75-10-3.125 5.625c3.7497 5.8338 9.3747 8.7505 16.875 8.75 0.41719 4.7e-4 1.0406 4.7e-4 1.875 0 1.25-0.41563 2.9164-0.83281 5-1.25-2.917-9.1662-8.7503-13.75-17.5-13.75l-3.125 0.625m-150 8.125h2.5l6.25-3.75 5-3.125-1.25-0.625-12.5 7.5m185 6.25c5.4164 1.25 8.958 1.8755 10.625 1.875 4.583 4.7e-4 7.708-2.7078 9.375-8.125l-1.875-1.25-1.25-3.75c-0.41719-0.41563-1.667-0.625-3.75-0.625-2.917 4.7e-4 -4.5836 0.625-5 1.875l-5 5-2.5 0.625-0.625 4.375m70-5.625c11.666-1.25 16.041-1.8745 13.125-1.875l1.25 0.625 9.375 3.125h0.625c2.083 4.7e-4 3.1245-0.625 3.125-1.875-4.7e-4 -3.7495-2.5005-5.6245-7.5-5.625-1.667 4.7e-4 -2.7088 0.20937-3.125 0.625l-16.875 5m-293.12 5c-1.6667 1.6672-2.5002 3.1255-2.5 4.375-1.6e-4 1.667 3.5416 2.5005 10.625 2.5 12.917 0.41719 24.583 6.8755 35 19.375 10.417 11.667 15.625 25.625 15.625 41.875l0.625 25 0.625 8.75v6.25l-0.625 15v4.375c1.6666 1.667 3.3331 2.5003 5 2.5 1.6666 3.1e-4 6.0416-0.625 13.125-1.875v-46.875c-1.6e-4 -7.9162 1.6666-11.875 5-11.875 2.0831 3.1e-4 3.5416 0.41719 4.375 1.25l58.75 66.875c1.6664-4.1664 2.9164-9.1664 3.75-15l3.125-20c0.41719-0.83281 0.625-2.708 0.625-5.625-3.1e-4 -2.9162-1.4578-5.833-4.375-8.75l-76.875-86.875-19.375-0.625-15.625-1.875-21.25-0.625-15.625 1.875m208.75 30c-1.667 5.0005-4.167 9.792-7.5 14.375-9.167 14.167-13.75 23.125-13.75 26.875v2.5l4.375-5.625 8.75-15 6.875-10 1.875-4.375 5.625-11.25c2.4997-4.1662 3.7497-9.3745 3.75-15.625l0.625-4.375c0.41719-5.4162-1.4578-8.1245-5.625-8.125-2.5003 4.7e-4 -3.7503 1.25-3.75 3.75v1.25l3.75 5.625v1.25l0.625 1.875c-3.1e-4 2.0838-1.0422 5.8338-3.125 11.25-0.41719 0.83437-0.83438 1.667-1.25 2.5-3.1e-4 0.83437-0.41719 1.8755-1.25 3.125m137.5-13.75 4.375 4.375 1.25 1.875 1.875 1.875c3.3328 9.167 4.9995 18.959 5 29.375-4.7e-4 2.917-0.20938 5.6253-0.625 8.125-4.7e-4 2.5003-0.20938 5.0003-0.625 7.5-0.41719 1.25-0.625 2.7088-0.625 4.375v1.875l0.625 5-0.625 37.5c-4.7e-4 6.2503 6.2495 9.5836 18.75 10v-60.625l0.625-20c0.83281-20 6.6662-31.25 17.5-33.75l26.25-6.25 6.25-4.375c-6.2505-2.0828-9.5839-3.1245-10-3.125l-3.75 0.625h-5c-2.9172 4.7e-4 -5.4172 0.20937-7.5 0.625-1.25 0.41719-4.1672 0.625-8.75 0.625-2.0838 4.7e-4 -4.3755 4.7e-4 -6.875 0-2.0838 4.7e-4 -4.5838 0.20937-7.5 0.625-2.0838 0.41719-5.2088 0.625-9.375 0.625h-15c-4.1672 4.7e-4 -7.292-0.20781-9.375-0.625-7.917-0.83281-14.375-1.4578-19.375-1.875-5.0005-0.41563-8.9588-0.625-11.875-0.625-7.5005 4.7e-4 -11.25 1.25-11.25 3.75-4.7e-4 2.5005 3.1245 3.9588 9.375 4.375l17.5 1.875c4.1662 4.7e-4 10.416 2.0838 18.75 6.25m-268.75-13.125 1.875 2.5 15 17.5 3.125 2.5 4.375 6.25 5.625 5.625 1.25 1.875 24.375 27.5 3.125 3.125 6.25 8.125 1.25 1.25 3.125 2.5 4.375 4.375-0.625-8.125-2.5-1.25-3.125-3.75-44.375-50.625-11.25-13.75c-4.5834-4.9995-7.9169-7.4995-10-7.5-0.83281 4.7e-4 -1.4578 0.20937-1.875 0.625v1.25m108.75 8.75c5.4164 2.0838 8.333 3.1255 8.75 3.125 7.083 4.7e-4 11.458-3.333 13.125-10l-1.875-1.25-1.875 4.375-1.875 1.875h-3.75v-1.25c2.9164-1.25 4.3747-2.708 4.375-4.375v-0.625l-11.25-1.25-5.625 9.375m36.875-3.75c3.7497 6.667 7.083 10 10 10 3.7497 4.7e-4 5.6247-1.6662 5.625-5-3.1e-4 -6.2495-4.3753-9.3745-13.125-9.375-2.0836 4.7e-4 -3.1253 0.83437-3.125 2.5 0.41719 0.41719 0.625 1.0422 0.625 1.875m203.12-1.875-9.375 3.75-13.125 2.5c-2.0839 0.83437-5.2088 2.0838-9.375 3.75h-1.25c-3.3338 2.5005-6.0422 4.792-8.125 6.875-1.6672 1.667-3.1255 3.542-4.375 5.625-0.83437 2.0838-1.4594 4.5838-1.875 7.5-4.7e-4 2.917-4.7e-4 6.8755 0 11.875l-0.625 80.625 3.75 1.25 1.25-8.75 0.625-80c0.41563-11.25 5.4162-18.125 15-20.625l26.25-6.25c3.7495-0.41563 5.6245-2.4995 5.625-6.25-4.7e-4 -2.4995-0.83437-3.7495-2.5-3.75l-1.875 1.875m17.5 9.375c3.3328 4.7e-4 4.9995-0.625 5-1.875l0.625-4.375-7.5 0.625-6.25-2.5v0.625c-4.7e-4 1.667 1.0406 3.3338 3.125 5 2.0828 1.667 3.7495 2.5005 5 2.5m-445-7.5c2.0833 3.3338 7.2916 5.8338 15.625 7.5 8.3333 1.667 17.708 6.667 28.125 15-5.8334-11.25-15.417-17.916-28.75-20l-15-2.5m246.25 8.75 1.25 3.125c2.9162 2.5005 5.208 3.9588 6.875 4.375 1.25 4.7e-4 2.2912-0.625 3.125-1.875l0.625-0.625c-3.1e-4 -0.41563-1.0422-1.4578-3.125-3.125-1.667-2.083-2.7088-3.333-3.125-3.75-1.667-4.1662-3.1253-6.2495-4.375-6.25-2.0838 4.7e-4 -3.1253 1.0422-3.125 3.125-3.1e-4 1.667 0.625 3.3338 1.875 5m57.5-8.75c0.41563 4.167 6.2495 7.0838 17.5 8.75 10.416 1.25 19.166 4.167 26.25 8.75l1.875 0.625 4.375 5v-0.625l0.625-0.625c-4.7e-4 -1.6662-1.25-3.7495-3.75-6.25-4.5838-4.583-8.7505-7.2912-12.5-8.125l-10.625-2.5-16.875-2.5-6.875-2.5m-80.625 2.5c-1.25 3.7505-1.8753 6.667-1.875 8.75-3.1e-4 2.0838 0.20781 3.7505 0.625 5 3.333-3.333 4.9997-5.6245 5-6.875-3.1e-4 -1.25-1.25-3.5412-3.75-6.875m-13.125 0.625-2.5 2.5c-4.5836 2.0838-6.8753 4.5838-6.875 7.5v4.375h1.875c4.1664 4.7e-4 6.6664-0.83281 7.5-2.5 0.83281-1.6662 1.6664-3.7495 2.5-6.25 0.41563-0.41563 0.625-1.4578 0.625-3.125-3.1e-4 -0.83281-1.0422-1.6662-3.125-2.5m221.25 6.875 3.75 5.625 2.5 6.875 1.25 5 2.5 5.625c0.41563 2.5005 1.0406 8.1255 1.875 16.875v1.25c-4.7e-4 5.417-1.4594 10.209-4.375 14.375l1.875 3.75-8.75 14.375-7.5 5c-2.9172 1.667-6.0422 2.5003-9.375 2.5-3.3339 3.1e-4 -7.0839-1.4578-11.25-4.375l-2.5-1.875c-1.6672 1.667-2.5005 3.542-2.5 5.625-4.7e-4 0.41719 0.41563 2.292 1.25 5.625 1.25 3.7503 3.5411 6.2503 6.875 7.5l-2.5 5.625c4.1661 1.25 7.0828 1.8753 8.75 1.875 7.9161 3.1e-4 12.708-2.708 14.375-8.125l4.375-9.375c0.83281-0.83281 1.4578-1.25 1.875-1.25 0.83281 3.1e-4 1.25 0.625 1.25 1.875-4.7e-4 1.667-1.0422 4.167-3.125 7.5l-11.25 13.125-5 5c-2.0839 2.0836-3.1255 3.9586-3.125 5.625-3.3339 4.5836-5.2089 10.417-5.625 17.5l6.875-1.875c-0.41719 2.5003-0.83437 4.792-1.25 6.875-4.7e-4 1.667-4.7e-4 3.3336 0 5-4.7e-4 2.0836 0.625 5.0003 1.875 8.75 5.4161 11.25 11.666 16.875 18.75 16.875 7.9161 3.1e-4 11.875-2.2914 11.875-6.875 0.41563-0.41719 0.625-1.0406 0.625-1.875v-6.25l0.625-0.625c-4.7e-4 -0.41719-0.83437-1.4578-2.5-3.125-1.25-1.6664-2.7089-3.5414-4.375-5.625-1.25-2.4997-2.7089-4.7914-4.375-6.875-1.25-2.4997-1.8755-4.7914-1.875-6.875-4.7e-4 -7.083 2.2911-10.625 6.875-10.625 1.6661 3.1e-4 4.1661 0.625 7.5 1.875l0.625 3.75-0.625 1.875c-4.7e-4 3.1e-4 -1.0422 0.83281-3.125 2.5-1.6672 1.25-2.5005 2.5003-2.5 3.75-4.7e-4 1.667 0.625 2.5003 1.875 2.5 5.8328-0.83281 8.7494-4.3747 8.75-10.625-6.2e-4 -2.9164-1.4594-4.9997-4.375-6.25-2.9172-1.25-5.2089-1.8747-6.875-1.875-3.3339 3.1e-4 -6.2505 2.0836-8.75 6.25l-1.875 3.125c-0.83437 4.167-1.25 6.042-1.25 5.625v3.75c0.41563 0.41719 1.0406 1.25 1.875 2.5 0.83281 1.25 2.0828 3.3336 3.75 6.25l5.625 8.75c-0.83437 5.8336-3.1255 8.7503-6.875 8.75-8.3339 3.1e-4 -12.5-6.0414-12.5-18.125-4.7e-4 -2.9164 0.625-6.6664 1.875-11.25l20-46.25c6.2495-15.416 9.3744-30.833 9.375-46.25-6.2e-4 -8.333-2.2922-18.333-6.875-30-3.3339-6.6662-5.8339-10.833-7.5-12.5l-3.125-2.5-3.75 4.375m-269.38 8.75c-6.2503-7.4995-11.667-11.25-16.25-11.25-6.6669 4.7e-4 -10 2.7088-10 8.125-1.6e-4 3.7505 1.8748 5.6255 5.625 5.625h0.625l3.125-5.625c0.83281-0.83281 2.7081-1.25 5.625-1.25 3.3331 4.7e-4 7.0831 1.4594 11.25 4.375m-162.5 3.75-2.5 6.25-1.25 8.125v15.625c-1.6e-4 7.0838 0.83281 10.625 2.5 10.625 2.4998 3.1e-4 3.7498-1.25 3.75-3.75v-0.625l-1.25-13.125c-0.41719-2.083-1.6e-4 -5.833 1.25-11.25l3.125-16.25 2.5-4.375v-1.25c-1.6e-4 -1.6662-0.83281-2.4995-2.5-2.5-2.0834 4.7e-4 -3.3334 1.4594-3.75 4.375l-1.875 8.125m242.5-13.125-3.75 5-5 3.75-16.25 16.875-6.25 6.25-3.125 3.75c-2.917 3.3338-5.417 7.292-7.5 11.875-2.917 2.0838-5.2086 5.2088-6.875 9.375-0.41719 1.25-1.6669 3.542-3.75 6.875-1.6669 2.917-2.5003 4.5838-2.5 5-3.1e-4 -0.41563 0.41719 1.0422 1.25 4.375l0.625 1.25 8.125-10.625c6.6664-15.416 20.625-32.083 41.875-50 1.25-1.6662 3.958-3.7495 8.125-6.25l-5-7.5m183.12 0.625-1.25 1.875c2.0828 5.0005 3.1245 7.917 3.125 8.75-4.7e-4 1.667-1.25 3.9588-3.75 6.875-2.0839 1.25-3.5422 1.8755-4.375 1.875-0.83437-0.83281-1.8755-1.4578-3.125-1.875l-3.75-8.125c-1.6672 2.917-2.5005 5.417-2.5 7.5 0.41563 0.41719 0.625 1.25 0.625 2.5-4.7e-4 0.83437 0.20781 1.4594 0.625 1.875 3.7495 3.7505 7.2911 5.6255 10.625 5.625 7.0828 4.7e-4 10.625-4.3745 10.625-13.125-4.7e-4 -5.4162-2.2922-9.9995-6.875-13.75m-415.62 23.125c1.25 6.2505 4.9998 9.3755 11.25 9.375 6.6666 4.7e-4 9.9998-3.5412 10-10.625-1.6e-4 -3.333-1.0422-4.9995-3.125-5-0.41719 0.41719-0.83281 0.83437-1.25 1.25-0.41719 4.7e-4 -0.83281 0.20937-1.25 0.625 2.0833 2.0838 3.1248 3.3338 3.125 3.75l-0.625 3.125c-1.6667 1.667-3.5417 2.5005-5.625 2.5-4.5834 4.7e-4 -7.0834-1.4578-7.5-4.375l-0.625-3.75 1.25-16.875c-0.41719-0.41563-1.25-0.625-2.5-0.625-2.5002 4.7e-4 -3.7502 3.542-3.75 10.625v5c-1.6e-4 2.0838 0.20781 3.7505 0.625 5m305.62-10.625c2.4995-2.4995 4.583-3.7495 6.25-3.75 1.25 4.7e-4 3.5412 0.625 6.875 1.875 2.083 3.3338 3.1245 5.6255 3.125 6.875-4.7e-4 2.0838-1.25 4.5838-3.75 7.5v1.25l-4.375 8.75 4.375-4.375c6.2495-6.2495 9.3745-11.041 9.375-14.375-4.7e-4 -8.333-4.167-12.5-12.5-12.5-4.167 4.7e-4 -7.292 2.917-9.375 8.75m-171.25 28.75c-3.1e-4 -14.166 3.7497-21.25 11.25-21.25 2.4997 4.7e-4 5.4164 2.5005 8.75 7.5 0.83281-3.333 1.25-4.9995 1.25-5-3.1e-4 -5.833-3.7503-8.7495-11.25-8.75-9.1669 4.7e-4 -13.75 4.5838-13.75 13.75-3.1e-4 2.917 1.25 7.5005 3.75 13.75m251.88-18.125 5 5 3.125 5.625c1.25 4.5838 1.8745 7.917 1.875 10-4.7e-4 1.25-1.0422 5.0003-3.125 11.25l-5 5.625-0.625 0.625-7.5 1.25c2.4995 3.7503 5.8328 5.6253 10 5.625 1.6661 3.1e-4 4.9995-1.0406 10-3.125l0.625 3.75c7.9161-0.41563 11.875-6.2497 11.875-17.5-4.7e-4 -10.833-3.3339-18.958-10-24.375l-1.875-1.25c-2.5005-1.6662-5.6255-3.5412-9.375-5.625-5.8338-3.333-8.9588-4.9995-9.375-5-1.25 4.7e-4 -1.8755 0.83437-1.875 2.5-4.7e-4 2.0838 2.0828 3.9588 6.25 5.625m-278.12-5 8.125 5 0.625 1.25 6.25 8.75 7.5 7.5-0.625-5-2.5-3.75-1.25-5c-2.5002-7.4995-6.2502-11.25-11.25-11.25l-6.875 2.5m141.25 3.125 8.125 6.875 2.5 1.875 4.375 6.25 1.25 2.5 0.625 1.875c2.083 3.3338 3.5412 6.042 4.375 8.125 0.83281 1.667 1.25 2.5003 1.25 2.5-0.83437 0.83437-2.292 1.25-4.375 1.25h-5l1.25 6.875c1.25 3.3338 3.5412 6.2503 6.875 8.75l19.375 10.625 1.25 5-5.625-1.25-1.875-0.625c-7.0838-1.25-11.25-1.8747-12.5-1.875-9.167 3.1e-4 -15 2.5003-17.5 7.5l-0.625 0.625v0.625c0.41563 2.0836 2.9162 3.3336 7.5 3.75l1.25 1.25c-3.1e-4 3.1e-4 -3.1e-4 0.20937 0 0.625 0.41563 0.41719 0.83281 1.0422 1.25 1.875l-0.625 1.25h-3.75l-3.75 1.25-3.125 1.875-1.875 5-1.875 3.75v13.125h9.375c5.4162 0.41719 10.625-1.0422 15.625-4.375 1.25-1.25 2.2912-2.083 3.125-2.5l1.875-1.875h5l-1.25 2.5-2.5 5.625 15.625-3.125h10.625c2.9162 3.1e-4 5.208 0.20937 6.875 0.625 11.666 1.667 21.666 2.917 30 3.75 8.7495 0.83437 16.041 1.25 21.875 1.25h0.625c3.3328 3.1e-4 5.6245-0.20781 6.875-0.625l8.75-1.875 11.25-1.875c4.5828-1.25 7.4995-4.583 8.75-10-12.084 3.3336-19.584 5.0003-22.5 5h-15.625c-1.6672-0.83281-3.5422-1.4578-5.625-1.875-2.0838-0.83281-4.3755-1.6664-6.875-2.5l-2.5-1.875-5-2.5-5-5c-7.0838-4.9997-10.625-12.083-10.625-21.25-4.7e-4 -9.1662 3.5412-13.75 10.625-13.75 1.25 3.1e-4 3.3328 0.83437 6.25 2.5 0.83281-3.333 1.25-4.9997 1.25-5-4.7e-4 -4.1662-3.3338-6.8747-10-8.125l-1.25-7.5c-6.2505 3.1e-4 -10.834 1.8753-13.75 5.625l-3.125 3.75-3.75 8.75c-4.7e-4 0.41719-0.625 0.625-1.875 0.625-1.25 3.1e-4 -1.8755-0.625-1.875-1.875v-0.625l2.5-10v-1.875c-4.7e-4 -13.333-3.3338-22.708-10-28.125l-2.5-2.5c-1.667-1.6662-2.917-2.4995-3.75-2.5-0.83437 4.7e-4 -1.8755 0.83437-3.125 2.5-1.25 1.667-2.292 2.5005-3.125 2.5-0.83437-0.83281-1.667-2.083-2.5-3.75l-3.75-1.25-6.25-2.5-6.25-0.625h-6.875c-5.417 0.41719-10.209 2.0838-14.375 5m-221.25 0.625-5 6.25-0.625 3.75-1.875 3.75v15.625c-0.83281 5.8338 2.7083 10.625 10.625 14.375l1.25-6.875-2.5-4.375v-3.125l1.875 1.25 0.625 0.625 1.875 2.5c2.4998 2.917 4.7916 4.3753 6.875 4.375 3.3331 3.1e-4 4.9998-1.6662 5-5-1.6e-4 -1.6662-1.4578-3.1247-4.375-4.375l-3.125-4.375-2.5-6.25 1.25-16.25-0.625-1.875-0.625-1.25-3.125-1.875-2.5-1.25-2.5 4.375m306.88-2.5-2.5 2.5c-0.83437 0.41719-1.4594 0.83437-1.875 1.25-5.417 4.5838-8.7505 7.5005-10 8.75-0.83437 1.25-1.667 2.917-2.5 5h-0.625c-1.667 4.7e-4 -2.5005 0.625-2.5 1.875v1.875c0.41563 0.41719 0.625 1.4594 0.625 3.125-4.7e-4 2.0838 0.20781 3.7503 0.625 5 1.6662-2.4997 3.5412-4.9997 5.625-7.5 2.083-2.4997 4.1662-5.208 6.25-8.125 0.41563-2.083 2.9162-4.1662 7.5-6.25 4.5828-2.4995 7.0828-4.7912 7.5-6.875-4.7e-4 -2.083-1.25-3.1245-3.75-3.125l-0.625 0.625h-0.625l-3.125 1.875m-119.38 12.5-0.625 1.25-8.125 6.875-3.125 3.75-1.875 2.5-5 6.25-6.875 10.625-3.75 6.25 5.625-2.5 11.25-16.875c6.2497-8.7497 14.375-13.125 24.375-13.125 2.083 4.7e-4 6.0414 1.667 11.875 5 2.4997 4.5838 3.7497 7.7088 3.75 9.375-3.1e-4 5.8338-3.1253 8.7503-9.375 8.75-3.7503 3.1e-4 -5.8336-0.625-6.25-1.875l-3.75-4.375-0.625-0.625c-1.25 0.83437-1.8753 1.667-1.875 2.5-3.1e-4 8.7503 5.208 13.125 15.625 13.125 9.9997 3.1e-4 15-4.9997 15-15-3.1e-4 -2.9162-0.20937-4.9997-0.625-6.25 2.4997-1.25 3.7497-2.4997 3.75-3.75-3.1e-4 -3.7497-3.3338-7.4995-10-11.25-5.0003-2.4995-10-3.7495-15-3.75-2.5003 4.7e-4 -3.9586 0.20937-4.375 0.625l-10 2.5m121.88-1.25c-5.417 1.667-8.9588 4.5838-10.625 8.75 2.9162-2.9162 5.833-4.3745 8.75-4.375 0.83281 4.7e-4 2.9162 0.625 6.25 1.875l1.875 2.5c1.6662-1.25 2.4995-2.9162 2.5-5-4.7e-4 -2.9162-2.7088-4.1662-8.125-3.75h-0.625m-197.5 16.25 5.625 13.125c2.4997 5.8338 3.7497 11.667 3.75 17.5-3.1e-4 4.5838-0.20781 8.542-0.625 11.875-3.1e-4 2.917-0.20937 5.417-0.625 7.5l-5.625 24.375-5.625 33.75v5.625h9.375l5-1.25 1.25 1.25h6.25c1.25 0.41719 2.0831 0.83281 2.5 1.25 0.83281 3.1e-4 1.25 3.1e-4 1.25 0 1.6664 3.1e-4 2.4997-2.4997 2.5-7.5-3.1e-4 -9.1664 5.6247-22.916 16.875-41.25 7.4997-12.5 16.458-18.75 26.875-18.75 4.9997 3.1e-4 9.1664 2.5003 12.5 7.5l0.625 6.875-1.25 2.5-1.875 1.875h-1.875l-10-0.625c-3.7503 3.1e-4 -5.6253 2.0836-5.625 6.25-3.1e-4 2.0836 1.4578 4.5836 4.375 7.5 2.9164 2.917 5.208 4.3753 6.875 4.375h0.625l15-2.5c5.4164 3.1e-4 8.1247 3.3336 8.125 10v1.875c2.083-2.083 3.1247-3.958 3.125-5.625-3.1e-4 -6.6664-3.9588-9.9997-11.875-10h-1.875l-13.125 3.125-5.625-2.5c-1.25-1.6664-1.8753-3.1247-1.875-4.375-3.1e-4 -2.4997 1.6664-3.7497 5-3.75l11.25 2.5c2.9164 3.1e-4 5.4164-1.6664 7.5-5 2.4997-3.333 3.7497-6.458 3.75-9.375-3.1e-4 -2.4997-0.625-5.6247-1.875-9.375 5.4162-1.6664 8.1247-4.3747 8.125-8.125-3.1e-4 -1.25-2.7088-2.083-8.125-2.5-1.667-0.41563-4.5836-2.2912-8.75-5.625-3.7503-3.333-6.8753-4.9997-9.375-5l-5.625 0.625-1.875-1.25 0.625-6.25-21.875 9.375c-5.0003 5.0003-7.7086 8.3338-8.125 10l-6.25 17.5c-0.83437 1.667-2.2919 4.5836-4.375 8.75-1.6669 4.167-4.1669 9.792-7.5 16.875-2.0836 4.167-2.9169 7.292-2.5 9.375v1.25c-3.1e-4 5.0003-1.0422 7.5003-3.125 7.5-1.25 3.1e-4 -1.8753-0.41719-1.875-1.25-3.1e-4 -1.25 0.20781-2.0831 0.625-2.5l1.875-10c1.25-6.6664 5.8331-17.291 13.75-31.875l1.875-4.375-4.375 6.25c-0.41719-0.83281-0.83281-1.4578-1.25-1.875-3.1e-4 -0.41719-3.1e-4 -0.625 0-0.625 1.25-2.083 2.4997-4.9997 3.75-8.75 0.41719-0.83281 0.625-1.8747 0.625-3.125 0.41719-1.6662 1.0406-3.5412 1.875-5.625l0.625 2.5-1.25 10c0.41563-1.6664 1.6664-4.7914 3.75-9.375l1.875-5c0.41563-0.41563 0.625-2.083 0.625-5-3.1e-4 -7.083-1.25-10.625-3.75-10.625-1.25 3.1e-4 -2.5003 0.625-3.75 1.875-1.25 1.25-3.1253 1.8753-5.625 1.875-0.83437-2.4997-1.4578-4.3747-1.875-5.625-3.3336-9.583-9.7919-15.625-19.375-18.125m-67.5 62.5h0.625c1.25 3.1e-4 2.4998-0.83281 3.75-2.5v-25l1.25-25.625c-1.6e-4 -1.25-1.25-1.8747-3.75-1.875-1.25 3.1e-4 -1.8752 2.7088-1.875 8.125v6.25c-1.6e-4 2.5003 0.20781 4.3753 0.625 5.625l-0.625 35m-85.625-48.75v5c3.3333-3.7497 7.2916-6.2497 11.875-7.5-2.0834-1.6662-3.3334-2.2912-3.75-1.875h-3.75l-1.875 1.875c-0.83281 0.41719-1.6667 1.25-2.5 2.5m3.75 7.5-1.25 1.25c-0.41719 0.83437-0.625 2.0838-0.625 3.75-1.6e-4 2.0838 2.0833 7.292 6.25 15.625 1.6666 2.917 2.4998 5.6253 2.5 8.125-1.6e-4 0.83437-1.0422 3.9586-3.125 9.375 0.41719 0.41719 1.4578 0.625 3.125 0.625 1.6666 3.1e-4 3.3333-1.4578 5-4.375 1.6666-3.333 2.4998-6.0414 2.5-8.125-1.6e-4 -2.083-1.0422-4.7912-3.125-8.125l-7.5-10.625-0.625-0.625v-0.625c0.41719-1.25 1.0422-1.8747 1.875-1.875 0.83281 3.1e-4 1.8748 1.0422 3.125 3.125l2.5 4.375c2.9166 2.917 6.0416 4.3753 9.375 4.375 4.9998 3.1e-4 9.5833-2.708 13.75-8.125-1.25 0.41719-3.5417 0.625-6.875 0.625-2.0834 3.1e-4 -3.5417-0.41563-4.375-1.25l-9.375-10c-1.6667-1.6662-3.5417-2.4997-5.625-2.5-4.1667 3.1e-4 -6.6667 1.667-7.5 5m48.125-3.75h-1.875c-0.41719 3.1e-4 -0.625 0.20937-0.625 0.625v1.25c-1.6e-4 1.667 1.0422 2.5003 3.125 2.5 1.6666 3.1e-4 2.4998-0.83281 2.5-2.5-1.6e-4 -1.25-1.0422-1.8747-3.125-1.875m52.5 15.625c4.5831 5.8338 6.8748 9.792 6.875 11.875-1.6e-4 2.917-0.625 4.5836-1.875 5l-6.875 5.625v1.25c-1.6e-4 0.41719 0.20781 0.625 0.625 0.625 3.7498 3.1e-4 7.4998-3.1247 11.25-9.375 0.41719-0.41563 0.625-1.0406 0.625-1.875-1.6e-4 -1.25 0.20781-2.083 0.625-2.5v-0.625c-1.6e-4 -4.583-3.7502-7.9162-11.25-10m-80.625 48.75c1.25-1.25 1.8748-2.083 1.875-2.5-0.41719-0.41563-0.83281-1.0406-1.25-1.875-0.41719-1.25-1.0422-2.708-1.875-4.375v-8.125c1.6666-15 9.1666-23.541 22.5-25.625 4.1666-1.6662 7.2916-2.2912 9.375-1.875h2.5c0.83281 3.1e-4 1.4578-0.20781 1.875-0.625v-2.5h-7.5l-8.125 1.25c-5.8334 1.25-11.25 5.0003-16.25 11.25-5.0002 6.2503-7.5002 12.709-7.5 19.375-1.6e-4 5.0003 1.4578 10.209 4.375 15.625m-5.625-38.75 1.875 3.125v1.875l3.75-4.375-1.25-3.125h-3.75l-0.625 2.5m26.25 12.5c2.9166 2.917 5.8331 4.3753 8.75 4.375 4.5831 3.1e-4 6.8748-2.4997 6.875-7.5v-1.25l-4.375-3.75-0.625 6.875c-1.6e-4 1.25-1.6669 1.8753-5 1.875-2.9169 3.1e-4 -4.7919-0.20781-5.625-0.625m65.625 3.125-5 3.75c-1.6e-4 2.0836 1.25 3.1253 3.75 3.125 0.83281 3.1e-4 3.5414-1.6664 8.125-5l8.75-7.5c0.41719-0.41719 0.625-1.0422 0.625-1.875-1.6e-4 -2.083-1.25-3.1247-3.75-3.125-0.83437 3.1e-4 -1.8752 0.625-3.125 1.875l-9.375 8.75m-78.75-6.25-2.5 5c14.583 9.5836 26.042 14.792 34.375 15.625l20 0.625c8.7498 0.83281 13.125-1.0422 13.125-5.625-1.6e-4 -1.6664-0.83437-2.4997-2.5-2.5h-0.625l-8.125 2.5c-0.83281 0.41719-3.1252 0.625-6.875 0.625-15.417 3.1e-4 -29.167-4.1664-41.25-12.5-1.25-0.41719-3.1252-1.6664-5.625-3.75m63.125 2.5 0.625 4.375 3.75 7.5 3.125 5.625c3.7498 12.084 5.6248 21.25 5.625 27.5-1.6e-4 9.1669-2.0836 18.125-6.25 26.875-0.83437 2.0836-1.6669 3.5419-2.5 4.375l-2.5 1.875-1.875 4.375c10.416-4.1664 15.625-15.625 15.625-34.375-1.6e-4 -19.166-5.2086-35.208-15.625-48.125m43.125 20.625 1.875 4.375c0.83281 3.3336 1.25 5.2086 1.25 5.625-1.6e-4 6.667-4.1669 10.417-12.5 11.25 2.9164 1.25 5.2081 1.8753 6.875 1.875 9.5831 0.83437 14.375-4.1664 14.375-15-3.1e-4 -4.9997-2.2919-9.3747-6.875-13.125-4.5836-3.7497-9.7919-5.6247-15.625-5.625-1.25 3.1e-4 -2.7086 0.20937-4.375 0.625-1.25 3.1e-4 -2.9169 0.20937-5 0.625-5.0002 1.25-7.7086 2.5003-8.125 3.75v1.25l17.5-1.25c1.6664-0.41719 5.2081 1.4578 10.625 5.625m62.5-10.625c-0.83437 0.83281-1.4578 1.667-1.875 2.5-3.1e-4 0.83437-0.20781 1.4594-0.625 1.875-3.1e-4 2.0836 1.8747 3.9586 5.625 5.625l4.375 5.625 6.25 6.875 8.125 9.375 2.5 1.875 0.625 1.25 7.5 8.125 1.25 1.875 8.75 10.625 6.875 6.875 0.625 1.25 4.375 4.375 5.625 7.5 5.625 5 1.25 1.25 2.5 3.75 2.5 2.5 0.625 1.25 7.5 8.125c1.6662-0.41719 3.1247-1.25 4.375-2.5-0.41719-0.83281-0.83437-1.4578-1.25-1.875-0.41719-0.83281-0.83437-1.6664-1.25-2.5l-5.625-6.25-1.25-2.5-4.375-3.75-61.875-68.75c-2.5003-4.1664-5.417-7.2914-8.75-9.375m-3.75 6.25-3.125 6.875-2.5 4.375c-0.83281 2.0836-1.8753 4.792-3.125 8.125-1.25 2.917-2.5003 6.4586-3.75 10.625l-1.875 6.875 76.25 85 3.75-5 11.875-15 5-5.625v-0.625c-3.1e-4 0.41719-0.41719-1.0406-1.25-4.375l-81.25-91.25m-106.25 5.625-3.75 0.625-0.625 15.625-0.625 13.125 0.625 7.5-0.625 86.875 4.375 0.625 0.625-124.38m-6.875 0.625-18.125 0.625c-1.25 3.3336-1.8752 6.4586-1.875 9.375v6.25c-1.6e-4 2.9169 0.20781 5.0003 0.625 6.25v31.25l-0.625 18.125v52.5l18.75-1.25-0.625-35 1.875-88.125m-27.5 21.25c0.41719-2.0831 0.625-3.7497 0.625-5 0.41719-1.6664 0.625-2.9164 0.625-3.75 0.83281-8.333-3.7502-12.5-13.75-12.5-8.7502 3.1e-4 -15.833 4.3753-21.25 13.125-0.41719 1.25-0.83281 2.292-1.25 3.125-1.6e-4 0.41719-1.6e-4 0.625 0 0.625 0.83281 0.83281 1.4578 1.25 1.875 1.25 1.25 3.1e-4 2.9166-2.4997 5-7.5 2.4998-5.4164 8.1248-8.1247 16.875-8.125 6.2498 3.1e-4 9.3748 3.7503 9.375 11.25l-0.625 5.625c-1.6e-4 0.83437 0.83281 1.4594 2.5 1.875m250-17.5c-0.41719 3.3336-2.7088 6.042-6.875 8.125-5.8338 2.917-9.3753 5.0003-10.625 6.25h3.125l3.75-2.5 10-2.5c4.1662-0.41719 6.2495-3.1247 6.25-8.125-4.7e-4 -0.41719-0.20937-0.625-0.625-0.625l-0.625-1.25-5-1.875 0.625 2.5m80-1.25-1.875 0.625-0.625 34.375-0.625 76.875-1.25 136.88c-0.41719 0.41719-0.625 1.4578-0.625 3.125-4.7e-4 1.25 0.625 1.875 1.875 1.875 0.83281 0 1.6662-0.41719 2.5-1.25l0.625-1.875 1.25-249.38-1.25-1.25m-21.875 1.25-3.125 115.62v35.625l0.625 3.75c-4.7e-4 6.6669-1.6672 10-5 10h-3.125l-4.375-4.375c-4.167-4.9998-8.1255-9.3748-11.875-13.125-3.3338-4.1666-6.667-7.9166-10-11.25l-1.25-1.25-2.5-3.125h-1.25c0.41563 1.25 0.625 3.5419 0.625 6.875-4.7e-4 8.3334-2.917 14.167-8.75 17.5l-0.625 1.875-1.875 0.625c-1.667 1.6669-4.3755 2.5002-8.125 2.5l75.625 86.875 1.875-248.75-16.875 0.625m-88.125 3.125c-3.1e-4 3.3336-1.0422 6.667-3.125 10l-0.625 0.625c-1.667 1.6669-3.7503 3.5419-6.25 5.625-2.5003 2.0836-5.417 4.1669-8.75 6.25-0.83437 0.41719-1.8753 1.0422-3.125 1.875-0.83437 0.41719-2.292 1.4578-4.375 3.125 0.83281 2.5003 2.4997 4.7919 5 6.875 0.41563 1.6669 1.25 2.5003 2.5 2.5 0.41563 3.1e-4 2.4997-0.625 6.25-1.875 3.7497-1.25 8.1247-2.4997 13.125-3.75 5.4162-1.25 9.7912-1.8747 13.125-1.875 3.7497 3.1e-4 8.5412 1.6669 14.375 5l2.5 1.25 0.625 0.625 2.5 3.125c1.6662 2.9169 2.4995 5.2086 2.5 6.875-4.7e-4 1.6669-1.4594 3.9586-4.375 6.875 1.6662 1.6669 3.5412 2.5003 5.625 2.5 7.9162 3.1e-4 11.875-3.7497 11.875-11.25-4.7e-4 -2.9164-1.8755-6.0414-5.625-9.375 4.1662-1.25 6.2495-2.2914 6.25-3.125-4.7e-4 -1.6664-1.4594-3.7497-4.375-6.25-2.917-2.9164-6.2505-4.7914-10-5.625l-3.125-1.25c-0.41719-0.41719-1.4594-0.625-3.125-0.625-0.83437 3.1e-4 -1.25 0.41719-1.25 1.25 1.25 0.41719 2.708 1.0422 4.375 1.875 1.6662 0.83437 3.5412 1.6669 5.625 2.5v1.25h-3.125c-4.5838-2.4997-7.917-3.7497-10-3.75-3.7503 3.1e-4 -6.2503 0.20937-7.5 0.625l1.875-3.75-10.625 1.25-4.375 2.5-18.75 7.5 0.625 1.25c-2.0838 1.25-3.542 1.8753-4.375 1.875-0.41719 3.1e-4 -0.625-0.41719-0.625-1.25-3.1e-4 -2.0831 1.4578-3.3331 4.375-3.75 11.666-4.1664 19.166-8.9581 22.5-14.375l-4.375-1.25c0.83281-4.1664 1.25-6.2497 1.25-6.25-3.1e-4 -1.6664-1.667-3.5414-5-5.625m-243.12 5.625c7.0831 5.0003 11.875 8.7503 14.375 11.25 2.9166 2.5003 5.6248 7.5003 8.125 15 1.6666 6.6669 1.8748 11.667 0.625 15-0.83281 3.3336-1.25 5.0003-1.25 5-1.6e-4 2.0836 0.625 3.1253 1.875 3.125-1.6e-4 3.1e-4 -1.6e-4 -0.20781 0-0.625 0.41719-0.41563 0.83281-1.0406 1.25-1.875 0.41719-2.0831 0.625-4.1664 0.625-6.25 0.41719-2.0831 0.625-4.1664 0.625-6.25-1.6e-4 -12.5-2.7084-20.625-8.125-24.375l-15-10.625-2.5-1.25-0.625 1.875m325 10v-5.625l-8.125-0.625c-3.7505-0.41719-7.0838-0.625-10-0.625-2.5005-0.41719-4.792-0.625-6.875-0.625h-10.625c-10.417 0.83281-16.459 1.4578-18.125 1.875l-6.875 2.5 11.25 1.875 26.25-1.25 18.75 2.5h4.375m-341.25-0.625c-7.9167 1.25-11.875 5.4169-11.875 12.5-1.6e-4 7.5003 2.4998 11.25 7.5 11.25 0.83281 3.1e-4 1.6666-0.625 2.5-1.875-2.0834-3.3331-3.1252-6.0414-3.125-8.125-1.6e-4 -7.0831 3.1248-10.625 9.375-10.625 2.4998 3.1e-4 4.5833 0.83438 6.25 2.5 5.8333 4.5836 8.9583 6.8753 9.375 6.875 1.25 3.1e-4 1.8748-0.41719 1.875-1.25-1.6e-4 -1.6664-2.9167-4.3747-8.75-8.125-5.0002-2.0831-9.3752-3.1247-13.125-3.125m78.75 2.5-1.25 6.25 5-0.625 3.75 1.875-1.25-6.25-5-1.875-1.25 0.625m226.25-1.25-1.875 0.625v1.875c15.833 0.83281 26.666 5.6253 32.5 14.375 0.41563 2.0836 0.625 3.7503 0.625 5 0.41563 1.25 0.625 2.2919 0.625 3.125-4.7e-4 1.6669-0.625 3.7503-1.875 6.25-4.5838 3.3336-7.7088 5.0003-9.375 5-2.917 3.1e-4 -5.0005-0.20781-6.25-0.625-4.7e-4 3.3336 1.8745 5.0003 5.625 5 10.833 3.1e-4 16.25-5.4164 16.25-16.25-4.7e-4 -15.833-12.084-23.958-36.25-24.375m76.875 4.375c2.4995 2.5003 4.5828 4.5836 6.25 6.25 2.0828 1.6669 3.7495 2.9169 5 3.75l6.25 5 5.625 5 1.25 1.875 5 5c5.8328 4.5836 10.833 6.8753 15 6.875 3.7495 3.1e-4 6.6661-2.2914 8.75-6.875l-0.625-3.125-1.875 0.625-1.25-0.625-0.625 1.875c-3.7505 2.5003-6.6672 3.7503-8.75 3.75-4.7e-4 3.1e-4 -1.0422-0.625-3.125-1.875-1.6672-1.25-4.3755-3.3331-8.125-6.25l-7.5-7.5-5-3.75-7.5-6.25c-0.83437-1.25-3.7505-2.4997-8.75-3.75m1.875 8.75c-3.3338-4.9997-5.8338-7.4997-7.5-7.5-0.83437 3.1e-4 -1.25 0.41719-1.25 1.25-4.7e-4 1.25 1.4578 2.5003 4.375 3.75 0.41563 0.41719 1.0406 0.83438 1.875 1.25 0.83281 3.1e-4 1.6662 0.41719 2.5 1.25m-301.88 28.75c6.2498-3.3331 11.041-9.3747 14.375-18.125 2.4998-6.6664 5.4164-9.9997 8.75-10 3.7498 3.1e-4 5.6248 1.4594 5.625 4.375-1.6e-4 0.83281-1.0422 2.0836-3.125 3.75-1.6669 1.25-2.5002 2.0836-2.5 2.5 0.41719 0.41719 1.4578 1.0422 3.125 1.875h0.625c4.5831 3.1e-4 6.8748-3.7497 6.875-11.25-2.5002-5.8331-5.4169-8.7497-8.75-8.75-5.8336 3.1e-4 -9.7919 3.5419-11.875 10.625l-3.75 10c-1.25 4.1669-3.1252 7.2919-5.625 9.375-2.0836 2.0836-3.1252 3.1253-3.125 3.125l-0.625 1.875v0.625m-77.5-35.625c-1.6667 1.6669-2.5002 3.1253-2.5 4.375-1.6e-4 1.25 0.20781 2.0836 0.625 2.5 2.4998 14.167 7.9166 21.25 16.25 21.25 6.6666 3.1e-4 9.9998-3.1247 10-9.375l-0.625-0.625v-2.5l-2.5-0.625-3.125 9.375c-0.83281 0.83281-1.6667 1.25-2.5 1.25-7.0834 3.1e-4 -12.292-8.5414-15.625-25.625m8.125 15c0.41719 1.25 1.0422 1.8753 1.875 1.875l3.75-1.875c1.25-0.83281 3.9583-2.4997 8.125-5 4.1666-2.4997 6.2498-4.7914 6.25-6.875-1.6e-4 -1.25-0.625-1.8747-1.875-1.875h-0.625l-17.5 13.75m363.12-8.75-0.625 1.875 10.625 10.625 1.25 0.625c-4.7e-4 -4.1664-3.7505-8.5414-11.25-13.125m11.25 2.5c2.0828 5.0003 3.1245 8.1253 3.125 9.375-4.7e-4 2.5003-0.20937 4.3753-0.625 5.625h1.25l-1.25 8.75-5 14.375c-0.41719 0.41719-0.625 2.2919-0.625 5.625-4.7e-4 3.3336 0.625 6.8752 1.875 10.625l5.625 1.25v1.875c-2.5005 4.5836-3.7505 8.3336-3.75 11.25-4.7e-4 2.0836 0.83281 4.5836 2.5 7.5 3.7495-0.83281 7.7078-2.0831 11.875-3.75 0.41563-0.41719 1.0406-1.0422 1.875-1.875 0.83281-1.25 1.6661-2.9164 2.5-5h1.875c0.41563 1.6669 1.0406 2.5002 1.875 2.5 2.0828 1.6e-4 3.7495-1.4578 5-4.375 0.41563-0.41719 0.625-1.25 0.625-2.5-4.7e-4 -1.6664 0.20781-2.7081 0.625-3.125 0.83281-0.83281 2.4995-1.6664 5-2.5 2.0828 5.4169 3.1245 8.7502 3.125 10-4.7e-4 1.6e-4 -0.41719 0.625-1.25 1.875-0.41719 1.25-1.0422 3.1252-1.875 5.625l-1.875 3.75-3.75 5-3.125 1.25-5.625 4.375-3.125 1.875c-0.83437 0.41719-2.0839 1.4578-3.75 3.125-5.8339 4.5834-10.209 11.25-13.125 20l7.5 0.625-1.25 5-2.5 5c-0.41719 1.6669-1.0422 3.7502-1.875 6.25-0.83437 2.0834-1.6672 4.7919-2.5 8.125 7.9161-0.83281 15.208-3.3331 21.875-7.5v2.5l1.875-1.875-1.25 6.875c5.4161-1.6666 9.3745-6.0416 11.875-13.125h2.5l-1.25 4.375-2.5 5-4.375 6.875-4.375 3.75-3.125 4.375-15.625 9.375c-1.6672 2.5002-3.1255 3.9584-4.375 4.375l-1.875 1.875c-4.5838 4.5834-6.8755 10.625-6.875 18.125v3.125c-4.7e-4 1.25 0.20781 2.5 0.625 3.75 1.25-0.41719 2.0828-0.625 2.5-0.625 0.83281-0.41719 1.25-0.625 1.25-0.625 1.25 0 1.8745 0.83281 1.875 2.5v0.625l-1.25 1.25-2.5 5-3.75 3.75c-0.41719 0.41719-0.625 2.5-0.625 6.25v4.375c-4.7e-4 2.0834 0.20781 3.75 0.625 5l0.625 1.25 4.375-3.125c1.6662 1.25 2.4995 2.9167 2.5 5 0.41563 2.0834 0.83281 3.5417 1.25 4.375l3.75 5c2.0828 2.0834 3.3328 3.125 3.75 3.125 1.25 0 1.8745-0.625 1.875-1.875-4.7e-4 -0.83281-0.20937-1.4578-0.625-1.875l-4.375-9.375c-0.41719-0.41719-0.625-3.3333-0.625-8.75-4.7e-4 -8.75 2.4995-17.5 7.5-26.25 0.41563-0.41719 1.6661-2.4998 3.75-6.25 2.0828-3.7498 5.2078-9.5833 9.375-17.5l0.625-4.375 6.25-5.625c0.83281-0.83281 1.6661-2.0833 2.5-3.75 1.25-2.0833 2.7078-4.5833 4.375-7.5 1.6661-4.1666 4.1661-11.667 7.5-22.5l0.625-1.25h1.25l1.25-33.75h-1.25l-2.5 8.125-5 10.625c-0.83437 2.0834-1.8755 3.7502-3.125 5l-1.25-0.625-1.25-1.25 2.5-1.875 4.375-10c3.3328-8.7498 4.9995-15 5-18.75v-4.375h-3.125l1.25-10-1.25-5.625c-0.41719-0.83281-0.83437-1.8748-1.25-3.125-0.41719-1.6664-1.0422-3.3331-1.875-5l-3.125-1.875-0.625-6.875-3.75-4.375v3.75l-2.5-0.625c-4.7e-4 -6.6664-2.0839-12.083-6.25-16.25l0.625 10c-4.7e-4 2.5003 0.20781 4.1669 0.625 5-4.7e-4 2.5002-0.83437 5.2086-2.5 8.125h-1.875c0.41563-3.3331 0.625-6.0414 0.625-8.125 0.41563-2.0831 0.625-3.7497 0.625-5-4.7e-4 -9.1664-2.7089-15.833-8.125-20l1.25 7.5-1.875 3.125-1.25-3.75c-0.83437-4.1664-2.0839-8.3331-3.75-12.5l-3.125-2.5-5-3.125 0.625 2.5m-257.5 3.125h-2.5c-7.5002 2.0836-11.25 5.2086-11.25 9.375-1.6e-4 1.6669 0.83281 2.7086 2.5 3.125h1.875l3.125-2.5h3.75l3.75-1.875h21.25l3.75-1.25 0.625 2.5 5.625-1.25 0.625 3.125 6.25-1.25c-0.83437 0.83438-1.25 1.6669-1.25 2.5 0.83281 0.83281 1.4578 1.25 1.875 1.25 2.0831 3.1e-4 3.1247-1.4578 3.125-4.375-3.1e-4 -4.5831-5.0003-7.4997-15-8.75l-5-1.875h-20l-3.125 1.25m-126.25 10-5.625 6.875-0.625 5.625-1.875 6.875-0.625 1.875c-1.6e-4 5.4169 1.8748 10.209 5.625 14.375 4.1666 4.1669 8.7498 6.2502 13.75 6.25 10.833 1.6e-4 18.75-6.6664 23.75-20-2.5002 1.6e-4 -3.9584 1.4594-4.375 4.375-3.3334 8.7502-9.5834 13.125-18.75 13.125-4.5834 1.6e-4 -8.5417-1.8748-11.875-5.625-3.3334-3.7498-5.0002-7.9164-5-12.5-1.6e-4 -3.7497 1.0422-7.7081 3.125-11.875 2.4998-4.5831 3.7498-6.8747 3.75-6.875-0.41719-0.41719-0.625-0.83281-0.625-1.25-1.6e-4 -0.41562-0.20781-0.83281-0.625-1.25m145.62 3.75 17.5 0.625c-0.83437-0.83281-2.9169-1.4578-6.25-1.875-7.0836-1.25-12.292-1.8747-15.625-1.875h-1.875l-13.125 0.625c-5.0002 0.83438-7.5002 1.8753-7.5 3.125-1.6e-4 1.6669 1.0406 2.5003 3.125 2.5-0.41719 3.1e-4 1.0406-0.41719 4.375-1.25 4.1664-1.6664 9.1664-2.2914 15-1.875h4.375m114.38 8.75v1.25c2.083-0.41719 3.7497-0.625 5-0.625 1.25-0.41562 2.2912-0.625 3.125-0.625 2.083 3.1e-4 3.5412 1.0422 4.375 3.125 0.83281 1.6669 1.4578 3.5419 1.875 5.625-3.1e-4 5.0002-3.542 11.042-10.625 18.125-4.5838 4.5836-8.542 9.1669-11.875 13.75-2.917 4.1669-5.417 8.1252-7.5 11.875-7.0838 8.3334-10.625 19.792-10.625 34.375-3.1e-4 0.41719-3.1e-4 1.25 0 2.5 0.41563 0.83281 0.83281 2.2919 1.25 4.375h-3.125l-1.875-5c-2.0836-4.1666-5.2086-7.7081-9.375-10.625-7.5003-2.0831-11.875-3.1248-13.125-3.125-0.83437 1.6e-4 -3.7503 1.0422-8.75 3.125l3.125 3.75c-5.0003 3.3334-7.5003 8.3334-7.5 15v3.125l0.625 2.5 1.875 4.375 2.5 1.25 3.125 2.5 4.375-0.625-3.125-2.5c-1.667-3.3331-2.5003-6.2498-2.5-8.75-3.1e-4 -6.2498 3.333-9.3748 10-9.375 2.4997 1.6e-4 5.833 1.4578 10 4.375l1.875 2.5 3.125 2.5 3.125 5 3.75 7.5v0.625l1.875 2.5 1.25 3.125 1.875 3.125 3.125 5.625 6.25 11.875 2.5 2.5 1.875 3.125c2.9162 3.3334 6.6662 6.4584 11.25 9.375l-0.625 1.25c22.083 12.083 42.916 18.125 62.5 18.125h6.25c2.9162 0 5.2078-0.20781 6.875-0.625-2.5005-4.1666-4.5838-6.0416-6.25-5.625h-13.125l-12.5-1.875-13.75-3.75-4.375-2.5-3.125-1.875-5.625-3.75-2.5-1.875-1.875-1.875-1.25-0.625-8.125-8.125-5.625-9.375c-6.2503-9.9998-9.3753-19.375-9.375-28.125-3.1e-4 -20 7.708-30 23.125-30l2.5 0.625 6.875 3.125 2.5 1.25v1.875l1.875 1.25 1.25 3.125 0.625 4.375c-4.7e-4 1.6669-1.25 3.9584-3.75 6.875l1.25 1.875c9.1662-2.9166 13.75-9.1666 13.75-18.75-4.7e-4 -6.6666-2.917-11.875-8.75-15.625 2.4995-1.6666 4.9995-4.1666 7.5-7.5 0.41563-4.1664-4.167-6.2498-13.75-6.25-3.3338 1.6e-4 -9.5838 1.8752-18.75 5.625-1.25 1.6669-2.917 3.3336-5 5-1.667 1.6669-3.542 3.5419-5.625 5.625-0.41719 0.41719-2.0838 0.625-5 0.625h1.875-1.875c-0.83437-2.4998-1.25-3.5416-1.25-3.125l3.125-3.125 6.25-5 13.75-5.625c4.1662-1.6664 7.9162-4.9998 11.25-10 3.7495-5.4164 5.6245-10.416 5.625-15-4.7e-4 -1.25-0.625-1.6664-1.875-1.25h-2.5l-5 0.625 1.875-5.625c2.083-5.4164 3.1245-9.3748 3.125-11.875-4.7e-4 -9.1664-4.5838-13.75-13.75-13.75-5.417 3.1e-4 -9.3753 2.7086-11.875 8.125m-125-6.875v1.875c-0.83437-0.41719-2.2919-0.625-4.375-0.625 0.41563 3.1e-4 -1.0422 0.41719-4.375 1.25l5.625 3.125 1.25 2.5 16.875-0.625 3.75-5-5 0.625c-0.83437-2.0831-1.8753-3.1247-3.125-3.125l-2.5 0.625-1.25 1.875-4.375-2.5h-2.5m-136.25 18.75c7.0833-5.8331 14.375-8.7497 21.875-8.75 2.0831 3.1e-4 4.9998 0.41719 8.75 1.25 3.7498 0.83438 6.6666 1.25 8.75 1.25 0.83281 3.1e-4 1.25-0.41719 1.25-1.25-1.6e-4 -1.25-0.83281-1.8747-2.5-1.875h-1.875l-8.75-1.25-3.125-0.625c-16.25-1.25-24.375 1.4594-24.375 8.125v3.125m306.25 3.75c4.1662-4.1664 7.9162-6.2498 11.25-6.25 9.1662 1.6e-4 13.75 3.5419 13.75 10.625-4.7e-4 8.3336-6.042 13.125-18.125 14.375l-16.25 1.25-6.25 1.875v2.5l6.25-1.25c1.25-0.41562 3.1245-0.625 5.625-0.625l20.625-1.875c4.1662 1.6e-4 7.9162-2.4998 11.25-7.5 1.25-1.6664 1.8745-4.1664 1.875-7.5-4.7e-4 -11.666-5.417-17.5-16.25-17.5-8.7505 3.1e-4 -13.334 3.9586-13.75 11.875m-141.88-5c4.1664-0.83281 6.4581-1.25 6.875-1.25 4.9997 1.6e-4 7.4997 3.3336 7.5 10-3.1e-4 2.5002-0.625 6.4586-1.875 11.875-1.25 5.0002-2.0836 8.7502-2.5 11.25v6.25l-4.375 28.75c-0.41719 2.0834-0.83437 3.9584-1.25 5.625-3.1e-4 1.6669-3.1e-4 3.3334 0 5-3.1e-4 5.0002 0.625 11.25 1.875 18.75l1.25 5.625 1.25 7.5 1.25 4.375c0.41719 1.25 0.83281 2.5002 1.25 3.75 0.41719 1.25 0.83281 2.5002 1.25 3.75h1.875l-1.25-6.25-2.5-9.375-2.5-15.625c-0.41719-1.25-0.625-2.7081-0.625-4.375v-3.125l0.625-6.875v-8.75c-3.1e-4 -9.9998 1.25-19.791 3.75-29.375l6.875-22.5c0.83281-3.3331 1.25-5.6248 1.25-6.875-3.1e-4 -9.9998-3.7503-15-11.25-15-5.0003 3.1e-4 -7.9169 2.2919-8.75 6.875m-13.75 3.75c2.4997 0.83281 3.5414 1.25 3.125 1.25 2.0831 1.6e-4 3.1247-1.25 3.125-3.75-3.1e-4 -4.9998-4.5836-7.4997-13.75-7.5-9.1669 3.1e-4 -13.75 2.5002-13.75 7.5-3.1e-4 2.0836 0.83281 2.9169 2.5 2.5l11.875-1.875c1.25-0.83281 3.5414-0.20781 6.875 1.875m43.75-6.25-1.875 3.125-4.375 8.125-1.875 6.25-1.875 5.625-3.125 7.5-1.875 6.25-3.75 21.25-1.25 13.75v18.125l1.875 12.5 3.125 15.625h1.25c1.25-2.9166 1.8747-4.9998 1.875-6.25-3.1e-4 -2.0833-0.83437-5.6248-2.5-10.625-0.41719-1.6666-0.83437-3.7498-1.25-6.25-3.1e-4 -2.4998-3.1e-4 -5.6248 0-9.375-3.1e-4 -27.917 4.7914-50.416 14.375-67.5 4.1664-6.6664 6.2497-10.625 6.25-11.875-3.1e-4 -0.83281-1.0422-2.2914-3.125-4.375l-1.875-1.875m-54.375 6.25v3.125l3.125 1.875 1.875-5h-5m-5.625 1.25c-1.25 0.83281-1.8753 1.8752-1.875 3.125-3.1e-4 1.25 0.83281 1.8752 2.5 1.875 2.0831 1.6e-4 3.1247-0.83281 3.125-2.5l-0.625-0.625c-3.1e-4 -0.41719-0.20937-0.83281-0.625-1.25l-2.5-0.625m13.75 0.625-0.625 1.25-0.625 0.625 0.625 1.25c0.83281 0.83281 1.4578 1.25 1.875 1.25 1.25 1.6e-4 1.8747-0.625 1.875-1.875v-1.25l-1.25-0.625-1.875-0.625m-45.625 3.75-0.625 3.125 0.625 4.375-4.375 4.375-0.625 3.125c-0.41719 1.25-0.83437 2.2919-1.25 3.125-1.6e-4 0.41719-1.6e-4 0.625 0 0.625-1.6e-4 1.6e-4 0.41719 1.6669 1.25 5l0.625 1.875 6.875 4.375 1.25-3.125-1.25-7.5c-1.6e-4 -3.7498 2.9164-5.6248 8.75-5.625 2.9164 1.6e-4 6.6664 1.6669 11.25 5l1.25 1.25 4.375 7.5 8.75 30.625 1.875 4.375 0.625 2.5 3.75 6.875 1.25-1.25-5-16.875-6.25-26.875-6.875-13.125-10.625-9.375-11.875-2.5-3.75-1.875m-111.25 0.625c-1.25 4.5836-1.8752 7.9169-1.875 10-1.6e-4 7.5002 3.5416 14.375 10.625 20.625 7.4998 5.8336 15.208 8.7502 23.125 8.75 1.6666 1.6e-4 3.7498-0.625 6.25-1.875v1.875l5 0.625h3.75c1.6666 1.6e-4 2.4998-0.625 2.5-1.875-1.6e-4 -0.83281-1.25-1.25-3.75-1.25h-9.375l-0.625 1.875c-0.83281-1.25-1.4578-1.8748-1.875-1.875l-2.5-0.625h-3.125c-8.3334 0.83438-15.833-3.5414-22.5-13.125-2.5002-2.9164-3.7502-7.0831-3.75-12.5-1.6e-4 -4.5831 0.20781-7.4998 0.625-8.75l-2.5-1.875m87.5 25 1.25 2.5v1.875l4.375 3.75-0.625 1.875-0.625-1.25-2.5 1.875-2.5 0.625 1.875 5c4.1664 5.4169 10.833 8.7502 20 10 4.5831 0.83281 8.1248 2.5002 10.625 5l-0.625 2.5-3.75-1.875-5-3.125c-1.25-0.41719-2.7086-0.625-4.375-0.625-1.25 1.6e-4 -2.0836-0.20781-2.5-0.625h-4.375l-3.75 2.5-4.375 1.875c-2.9169 0.41719-4.3752 3.5419-4.375 9.375-1.6e-4 1.6e-4 0.41719 1.6669 1.25 5l1.25 0.625 0.625 3.125 6.25 3.125 0.625-8.125c-1.6e-4 -1.25 1.25-2.4998 3.75-3.75 2.4998-1.25 5.2081-1.8748 8.125-1.875 11.666 1.6e-4 22.916 5.4169 33.75 16.25l5 5 6.875 8.125 1.25 1.875 4.375 5.625 3.125 7.5 9.375 18.75c1.6664 1.6667 3.9581 2.9167 6.875 3.75-0.41719-2.0833-0.83437-3.7498-1.25-5-0.41719-1.25-2.2919-4.5833-5.625-10-3.1e-4 1.6e-4 -0.625-1.4578-1.875-4.375-1.25-2.9166-3.3336-7.2916-6.25-13.125-1.6669-3.3333-3.3336-6.4583-5-9.375-1.6669-2.9166-3.5419-6.0416-5.625-9.375l-5-6.25-3.125-3.75-7.5-8.75-7.5-6.25-4.375-4.375-5-3.125-6.25-5.625-8.125-8.125-3.125-4.375-6.25-7.5-1.875-6.875-0.625-5.625 3.75-6.875-1.875-1.25h-0.625c-0.83437 1.6e-4 -2.0836 0.83438-3.75 2.5-3.3336 4.5836-5.0002 8.9586-5 13.125v3.125c-1.6e-4 2.0836 0.20781 3.7502 0.625 5m58.75-10.625 8.75 46.25 5 17.5 3.75 9.375 1.25 6.25 6.875 13.75 0.625 1.875 2.5 5c0.41719 3.3334 1.25 5.4167 2.5 6.25 1.6664 1.6e-4 2.4997-1.4578 2.5-4.375v-0.625c-3.1e-4 -1.25-1.25-4.1666-3.75-8.75-2.0836-3.7498-4.1669-8.7498-6.25-15-2.0836-6.2498-4.1669-13.75-6.25-22.5-3.3336-12.083-5.2086-22.292-5.625-30.625v-10l-1.25-11.25v-10c0.83281-3.3331-0.625-4.9998-4.375-5-4.5836 1.6e-4 -6.8753 1.0422-6.875 3.125l0.625 2.5v6.25m-96.875 18.75c-9.5834-3.3331-14.375-7.4998-14.375-12.5-1.6e-4 -4.5831 1.4578-6.8748 4.375-6.875 2.0831 1.6e-4 4.7916 1.0422 8.125 3.125-1.25-4.1664-3.9584-6.2498-8.125-6.25-7.0834 1.6e-4 -10.625 3.5419-10.625 10.625-1.6e-4 8.7502 5.6248 12.709 16.875 11.875h3.75m376.88-18.125 1.25 4.375c-4.7e-4 1.6e-4 -4.7e-4 -0.20781 0-0.625 0.41563-0.41719 0.83281-1.0406 1.25-1.875v-0.625l-2.5-4.375v3.125m-263.75 33.75c0.41719 3.3334 0.83281 6.8752 1.25 10.625 0.83281 3.3334 2.0831 6.8752 3.75 10.625v0.625c-3.1e-4 1.6669 0.41719 2.5002 1.25 2.5 0.83281 1.6e-4 1.25-0.41719 1.25-1.25-3.1e-4 -0.83281-0.20937-1.6666-0.625-2.5-0.41719-1.25-1.0422-3.5416-1.875-6.875l-1.875-13.75v-6.25c-3.1e-4 -1.6666 0.41719-4.1666 1.25-7.5l1.25-3.125 2.5-5c0.41719-1.25 1.4578-2.0831 3.125-2.5l5.625-1.875-2.5-3.75c-0.83437-1.25-2.2919-1.8748-4.375-1.875-6.6669 1.6e-4 -10 6.6669-10 20v11.875m47.5-29.375c-4.5836 0.83281-8.3336 3.3336-11.25 7.5-7.5003 9.5836-10.625 23.958-9.375 43.125v4.375l0.625 5 3.125 17.5 1.875-2.5-1.875-37.5 3.75-10c4.1664-12.916 9.9997-19.375 17.5-19.375 2.4997 1.6e-4 5.4164 1.6669 8.75 5 0.83281 4.1669 1.25 6.2502 1.25 6.25-3.1e-4 0.83281-0.20937 1.8752-0.625 3.125-3.1e-4 0.83281-0.20781 2.0834-0.625 3.75 5.4164-2.9166 8.1247-7.2916 8.125-13.125-3.1e-4 -3.7498-1.8753-7.0831-5.625-10-3.3336-3.3331-7.0836-4.9998-11.25-5-1.25 1.6e-4 -2.0836 0.20938-2.5 0.625l-1.875 1.25m123.12 0.625h-0.625c-1.25 1.6e-4 -1.8755 0.41719-1.875 1.25-4.7e-4 2.9169 1.4578 4.3752 4.375 4.375 2.083 1.6e-4 3.1245-1.0406 3.125-3.125-4.7e-4 -1.6664-1.667-2.4998-5-2.5m-36.25 2.5c0.41563 1.25 1.4578 1.8752 3.125 1.875 1.25 1.6e-4 3.1245-0.20781 5.625-0.625 2.9162-0.41562 4.9995-0.625 6.25-0.625 10.833 1.6e-4 17.708 3.9586 20.625 11.875l3.125 0.625c-2.0838-9.9998-10-15-23.75-15h-1.875l-13.125 1.875m126.25 0.625-6.25 3.75-1.25 2.5-1.25 0.625-1.25 1.875-1.875 0.625-2.5 2.5-8.125 4.375-0.625 1.875-0.625 1.25c2.9161-0.41719 4.7911-0.83281 5.625-1.25 1.25-0.41719 3.3328-1.8748 6.25-4.375l6.875-4.375 5-6.875v-2.5m-81.875 6.875h-1.25c-0.83437 1.6e-4 -1.25 0.41719-1.25 1.25l-0.625 1.875c-4.7e-4 2.9169 1.6662 4.3752 5 4.375 1.6662 1.6e-4 2.4995-1.6664 2.5-5-4.7e-4 -1.6664-1.4594-2.4998-4.375-2.5m58.75 1.875c-0.41719 0.41719-0.625 1.25-0.625 2.5-4.7e-4 1.25 0.83281 1.8752 2.5 1.875 1.6661 1.6e-4 2.4995-0.83281 2.5-2.5-0.41719-0.41562-0.83437-0.83281-1.25-1.25-4.7e-4 -0.41562-0.41719-1.0406-1.25-1.875h-0.625l-1.25 1.25m-77.5 0.625c-1.667 1.6e-4 -2.5005 1.0422-2.5 3.125-4.7e-4 3.3334 1.4578 5.0002 4.375 5 2.9162 1.6e-4 4.3745-1.25 4.375-3.75-4.7e-4 -2.9164-1.8755-4.3748-5.625-4.375h-0.625m69.375 3.75c-0.41719 0.41719-1.0422 1.4578-1.875 3.125l-0.625 1.25c-4.7e-4 1.25 1.0406 1.8752 3.125 1.875 2.0828 1.6e-4 3.1245-1.0422 3.125-3.125-4.7e-4 -2.0831-1.0422-3.1248-3.125-3.125h-0.625m-80.625 1.875-1.25 1.25-0.625 1.25-0.625 0.625v0.625l1.875 3.75 1.875 1.875 5.625 6.25 3.125 2.5 1.875 1.25 10.625 11.875 3.125 3.125 1.875 2.5 3.125 3.125c1.6662 1.6669 3.1245 2.5002 4.375 2.5 1.25 1.6e-4 1.8745-0.625 1.875-1.875-4.7e-4 -1.25-1.25-2.4998-3.75-3.75-1.6672-2.9166-4.5838-6.2498-8.75-10l-1.25-1.25-1.875-3.125-1.875-1.25-1.875-1.875c-0.41719-0.83281-1.25-1.8748-2.5-3.125l-7.5-8.75-7.5-7.5m23.125 3.125c-2.0838 1.6e-4 -3.1255 1.25-3.125 3.75-4.7e-4 2.9169 1.6662 4.3752 5 4.375 2.4995 1.6e-4 3.7495-1.25 3.75-3.75-4.7e-4 -2.9166-1.667-4.3748-5-4.375h-0.625m-272.5 1.875 1.25 0.625c-20.417 1.6669-38.958 10.208-55.625 25.625-0.83281 0.83281-1.6667 1.6669-2.5 2.5-0.41719 0.83281-0.83281 1.4578-1.25 1.875l-5.625 8.75c-1.25 2.5002-2.0834 3.9584-2.5 4.375l-6.25 18.125v24.375c1.25 7.9167 4.7916 17.5 10.625 28.75l2.5-1.875 0.625-1.875c-5.8334-15-8.7502-26.875-8.75-35.625-1.6e-4 -18.75 6.8748-35.417 20.625-50 14.167-14.167 30.417-20.833 48.75-20h25c-3.7502-4.5831-9.7919-6.4581-18.125-5.625h-8.75m-75.625 13.75h2.5c1.6666 6.2502 4.7916 9.3752 9.375 9.375 4.5833 1.6e-4 8.1248-1.25 10.625-3.75l9.375-8.125 12.5-5.625 5-3.75c-3.3334 0.83281-6.2502 1.6669-8.75 2.5-2.5002 0.83281-4.5834 1.6669-6.25 2.5l-10.625 5.625-5.625 2.5h-5c-0.41719 1.6e-4 -1.8752-0.41719-4.375-1.25-0.83281-4.1666-1.25-6.2498-1.25-6.25-1.6e-4 -1.6666 1.4578-3.7498 4.375-6.25l-0.625-0.625h-1.25c-2.5002 1.6e-4 -3.9584 0.625-4.375 1.875l-2.5 5-1.875 1.875 0.625 3.125-1.875 1.25m408.75-9.375c-2.5005 1.25-3.7505 2.7084-3.75 4.375 0.83281 0.83281 1.4578 1.25 1.875 1.25 2.9161 1.6e-4 4.3745-1.4578 4.375-4.375-4.7e-4 -1.25-0.625-1.8748-1.875-1.875h-0.625v0.625m-341.25 6.875v58.125c-0.83281 25-11.458 38.333-31.875 40l-6.25 0.625-7.5 1.25c-1.25 2.0834-1.8752 3.5417-1.875 4.375-1.6e-4 2.9167 3.1248 3.9584 9.375 3.125h4.375l15-1.875 20-1.25 8.125-0.625 58.125 5.625c3.3331 0 4.9998-1.25 5-3.75-1.6e-4 -2.5-2.7086-3.9583-8.125-4.375-23.75-1.6666-37.5-7.9166-41.25-18.75l-3.125-10-0.625-75-1.875 0.625-1.25-0.625h-2.5c-3.7502 1.6e-4 -8.3334 0.83281-13.75 2.5m21.875-1.875v66.875c0.41719 7.5002 2.2916 13.542 5.625 18.125 0.83281 3.3334 1.8748 5 3.125 5l1.875-0.625-5.625-11.875v-77.5h-5m-45 10c-10.417 7.9169-15.625 15.417-15.625 22.5-1.6e-4 0.83281-1.6e-4 1.8752 0 3.125 0.41719 0.83281 0.83281 2.0834 1.25 3.75 2.4998 5.4167 6.6666 8.1252 12.5 8.125 2.9166 1.6e-4 5.4166-1.6666 7.5-5h-6.875c-4.5834-3.3333-6.8752-7.4998-6.875-12.5-1.6e-4 -10.833 8.1248-19.792 24.375-26.875v-1.25c-2.0834 0.83281-4.5834 1.8752-7.5 3.125-2.5002 1.25-5.4169 2.9169-8.75 5m250.62-6.25c-1.667 1.6e-4 -3.542 1.0422-5.625 3.125l-1.25 1.875 1.875 0.625 5.625 7.5 1.875 0.625 0.625 1.875 3.75 3.125c4.583-2.0831 6.8745-5.2081 6.875-9.375-4.7e-4 -1.25-1.0422-2.9166-3.125-5-2.917-2.9166-6.2503-4.3748-10-4.375h-0.625m-276.88 36.25-2.5 13.75c0.41719 10.417 2.7083 15.625 6.875 15.625 1.25 1.6e-4 2.2916-0.625 3.125-1.875v-1.25c-1.6e-4 -0.83281-1.8752-4.3748-5.625-10.625-0.83281-0.83281-1.0422-1.4578-0.625-1.875v-0.625l0.625-6.25 5-16.25-0.625-3.125-6.25 12.5m105 11.25 3.75 5.625c4.1664 7.9167 6.0414 13.958 5.625 18.125l-1.25 18.75c-1.6e-4 3.3334 0.83281 5 2.5 5 3.3331 0 4.9998-3.3333 5-10-1.6e-4 -29.583-8.9586-47.083-26.875-52.5l-11.875-4.375c-0.41719-0.41719-1.0422-0.625-1.875-0.625-1.25 1.6e-4 -1.8752 0.625-1.875 1.875-1.6e-4 2.0834 4.1664 4.3752 12.5 6.875 3.3331 0.83281 8.1248 4.5834 14.375 11.25m92.5-16.25-3.125 8.75-3.125 6.875-3.75 8.75-0.625 5.625h-6.25l-1.875 3.75v6.25l-0.625 4.375 1.875 2.5 3.125 6.25 3.75 3.125c0.41563 1.6667 1.8747 2.9167 4.375 3.75l1.25 1.875 6.25 5.625c1.25 3.3334 1.8747 5.2084 1.875 5.625-3.1e-4 0-0.41719 2.0834-1.25 6.25v-0.625h-1.875l1.25 0.625h-5l-4.375-2.5-1.25-0.625c-0.41719 0-3.9586 0.625-10.625 1.875-3.7503 1.6667-7.5003 4.375-11.25 8.125 7.0831 13.333 16.041 20 26.875 20 4.1664 0 8.7497-1.875 13.75-5.625 0.83281-0.83281 1.6664-1.25 2.5-1.25 1.6664 0 2.708 0.20781 3.125 0.625l-0.625 1.875c6.2497 7.0833 13.958 10.625 23.125 10.625 2.083 0 4.583-0.83281 7.5-2.5l-10-9.375-1.25-3.125 0.625-2.5c4.9997 1.25 8.1247 1.875 9.375 1.875 7.9162 0 13.125-3.5416 15.625-10.625l5-13.75c2.4997-7.0833 7.083-10.625 13.75-10.625 0.41563 0 1.25 0.20781 2.5 0.625 1.25 0 2.9162 0.20781 5 0.625-1.25-3.3333-2.7088-5.8333-4.375-7.5l-5-2.5h-3.75l-5 0.625-1.875 1.25-3.75-1.25 1.875-10.625h-3.125c-4.5838 1.6e-4 -8.3338 0.83281-11.25 2.5l-6.25 7.5v14.375c-0.83437 1.25-1.8753 1.875-3.125 1.875-2.917 0-4.3753-2.0833-4.375-6.25-3.1e-4 -2.0833 0.41719-5.4166 1.25-10 1.25-4.9998 1.8747-8.7498 1.875-11.25-3.1e-4 -2.9166-1.25-6.6666-3.75-11.25-0.83437-2.9166-2.292-5.6248-4.375-8.125l-5-5.625-2.5 0.625-3.75 4.375h-1.25c-0.83437 1.6e-4 -2.292-2.2916-4.375-6.875-1.667-4.9998-6.2503-9.9998-13.75-15m-75 33.75 1.875 16.25 1.25-8.75-0.625-20c-1.6e-4 -6.6666 3.3331-9.9998 10-10 4.1664 1.6e-4 6.8747 2.9167 8.125 8.75l-0.625 3.75c2.0831-2.0833 3.5414-4.7916 4.375-8.125-0.41719-9.1666-5.4169-13.75-15-13.75-8.7502 1.6e-4 -13.125 4.5834-13.125 13.75-1.6e-4 2.5002 0.20781 3.9584 0.625 4.375l1.875 7.5 1.25 6.25m-91.875-1.875c3.7498 7.0834 6.6666 10.625 8.75 10.625h0.625c1.6666-0.41719 2.9166-3.5416 3.75-9.375-3.7502-4.1666-5.6252-8.3333-5.625-12.5-1.6e-4 -2.9166 0.625-5.4166 1.875-7.5l5-6.875v-1.25c-1.6e-4 -1.6666-0.625-2.4998-1.875-2.5-2.9169 1.6e-4 -6.0419 2.7084-9.375 8.125-2.9169 5.4167-4.3752 9.7917-4.375 13.125-1.6e-4 0.83281-1.6e-4 1.8752 0 3.125 0.41719 1.25 0.83281 2.9167 1.25 5m250.62 0.625 3.75 5.625c9.1662 7.9167 17.5 12.292 25 13.125l24.375 3.125v-1.25c-4.7e-4 -1.25-0.41719-1.8748-1.25-1.875-0.83437 1.6e-4 -1.8755 0.20781-3.125 0.625-1.25 0.41719-2.0838 0.625-2.5 0.625-8.7505 1.6e-4 -16.667-2.2916-23.75-6.875l-4.375-3.125-3.75-3.125c-5.417-5.4166-8.1255-10.208-8.125-14.375-4.7e-4 -6.6666 3.7495-10.417 11.25-11.25-1.25-2.9166-3.542-4.3748-6.875-4.375-9.5838 1.6e-4 -14.375 5.0002-14.375 15-3.1e-4 2.9167 1.25 5.6252 3.75 8.125m95-11.25c-4.7e-4 -0.41719 0.41563 1.0422 1.25 4.375 2.9162 2.5002 5.2078 3.7502 6.875 3.75 1.6662 1.6e-4 2.4995-0.83281 2.5-2.5-3.3338-3.3333-5.0005-6.0416-5-8.125-4.7e-4 -4.5833 1.6662-6.4583 5-5.625h1.875c-0.83437-1.25-1.6672-1.8748-2.5-1.875h-4.375c-1.25 0.41719-2.5005 1.8752-3.75 4.375-1.25 2.5002-1.8755 4.3752-1.875 5.625m-363.12 1.875c-1.25 1.6e-4 -1.8752 1.0422-1.875 3.125-1.6e-4 2.9167 1.6666 4.3752 5 4.375 1.6666 1.6e-4 2.4998-0.83281 2.5-2.5-1.6e-4 -3.3333-1.8752-4.9998-5.625-5m71.25 21.25 0.625 0.625c0.41719-7.9166 3.7498-11.875 10-11.875 4.5831 1.6e-4 8.5414 2.5002 11.875 7.5l2.5 5.625 1.25 1.875v5l1.25-1.25-0.625-3.75-1.25-8.75c-0.83437-9.9998-6.6669-15-17.5-15-7.5002 1.6e-4 -11.25 3.9584-11.25 11.875-1.6e-4 2.0834 1.0422 4.7917 3.125 8.125m56.25-1.25 3.75-8.125c0.83281-2.0833 2.7081-3.1248 5.625-3.125h1.875l8.75 2.5-4.375-3.75c-1.25-1.25-4.3753-1.8748-9.375-1.875-6.6669 1.6e-4 -10 2.7084-10 8.125l0.625 1.25 3.125 5m284.38 31.875 1.25 10.625-2.5 3.125-2.5 4.375-7.5 5 0.625 1.25c6.6661-1.6666 10.833-3.75 12.5-6.25l5-8.125 1.25-6.875c-4.7e-4 -1.6666-0.41719-2.9166-1.25-3.75l-11.875-10c-2.0839-2.0833-3.1255-4.7916-3.125-8.125-4.7e-4 -15.417 4.3745-23.125 13.125-23.125 2.4995 1.6e-4 4.1661 0.20781 5 0.625 1.25 3.3334 1.8745 5.6252 1.875 6.875-4.7e-4 4.1667-2.7089 10.208-8.125 18.125 7.0828-6.2498 10.625-13.333 10.625-21.25-4.7e-4 -5.4166-2.5005-8.1248-7.5-8.125-5.4172 1.6e-4 -10.209 3.3334-14.375 10-4.1672 6.6667-6.2505 12.917-6.25 18.75-4.7e-4 3.3334 1.0406 5.625 3.125 6.875l7.5 5.625 3.125 4.375m-406.25-32.5 1.875-1.25c0.41719 1.6e-4 0.625-0.20781 0.625-0.625-1.6e-4 -3.7498-1.6667-5.6248-5-5.625-1.6667 1.6e-4 -2.7084 0.83281-3.125 2.5l-0.625 1.25c-1.6e-4 4.1667 1.25 6.2502 3.75 6.25h0.625l0.625-0.625h0.625l0.625-1.875m-13.75-4.375-1.25 1.25c-1.6e-4 0.41719-0.20781 0.83281-0.625 1.25l-0.625 1.25c-1.6e-4 2.5002 1.0422 3.7502 3.125 3.75 2.4998 1.6e-4 3.7498-1.25 3.75-3.75-1.6e-4 -2.4998-1.4578-3.7498-4.375-3.75m370.62 7.5c0.41563 0.41719 0.625 0.83281 0.625 1.25l0.625 0.625c1.25 1.6e-4 1.8745-0.83281 1.875-2.5-4.7e-4 -1.25-0.41719-1.8748-1.25-1.875-0.83437 1.6e-4 -1.25 0.41719-1.25 1.25l-0.625 1.25m-216.25-2.5-3.125 1.25h-2.5l0.625 6.875c-8.3336-2.0833-12.5-3.1248-12.5-3.125-5.4169 1.6e-4 -8.9586 4.3752-10.625 13.125 2.0831-0.41719 3.7497-0.625 5-0.625 1.25-0.41719 2.2914-0.625 3.125-0.625 3.7497 0 7.9164 1.875 12.5 5.625l2.5 2.5 3.75 5.625 1.25 3.125c4.1664-2.9166 7.4997-5.2083 10-6.875 2.9164-1.6666 5.2081-2.7083 6.875-3.125 6.6664-0.83281 10.208-1.4578 10.625-1.875l0.625-0.625c-3.1e-4 -5.8333-3.9586-10.208-11.875-13.125l-3.125-2.5-13.125-5.625m218.12 6.25-0.625 0.625-1.25 3.75c1.6662-0.41719 2.4995-1.0422 2.5-1.875-4.7e-4 -1.25-0.20937-2.0833-0.625-2.5m-61.25 17.5c-8.7505 0-14.584 0.83281-17.5 2.5l-13.125 5.625-8.75 0.625-4.375 4.375-6.875 4.375c3.333 2.0834 5.833 3.125 7.5 3.125 2.4997 0 5.208-0.83281 8.125-2.5v3.125c-3.1e-4 6.6667 2.2912 10.625 6.875 11.875l-0.625-3.125c-4.7e-4 -0.83281 0.83281-2.5 2.5-5 1.6662-2.5 2.4995-4.5833 2.5-6.25-4.7e-4 -1.6666-1.0422-2.9166-3.125-3.75 0.41563-5 2.708-7.5 6.875-7.5l5.625-2.5c1.6662-0.83281 3.7495-1.4578 6.25-1.875 2.9162-0.41719 6.2495-0.83281 10-1.25l-1.875-1.875m8.75 4.375c-3.3338 0.41719-5.8338 1.4578-7.5 3.125l-6.25 5.625-5 6.875c-2.0838 7.0834-3.1255 11.458-3.125 13.125-4.7e-4 2.5 1.6662 3.75 5 3.75 2.9162 0 4.9995-0.20781 6.25-0.625l3.125 5c4.1662 4.1667 9.1662 6.25 15 6.25 12.916 0 19.375-6.4583 19.375-19.375-4.7e-4 -7.0833-2.7088-10.625-8.125-10.625-2.0838 0-4.1672 1.6667-6.25 5 3.3328-0.83281 4.9995-1.25 5-1.25 3.7495 0 5.6245 2.2917 5.625 6.875-4.7e-4 8.3334-4.1672 12.5-12.5 12.5-9.5838 0-14.375-5.2083-14.375-15.625-4.7e-4 -13.333 8.958-20.833 26.875-22.5v-2.5h-4.375v0.625h-7.5c-3.3338 1.25-7.0838 2.5-11.25 3.75m-150.62 0.625-6.875 3.75c-4.5836 2.0834-9.5836 7.2917-15 15.625l-8.75-3.125-9.375 4.375-5 0.625c3.3331 3.3334 6.2497 5 8.75 5h9.375v6.875l1.25 3.75c1.6664 1.6667 3.3331 2.9167 5 3.75l1.875-6.25 1.25-3.75v-4.375l-2.5-2.5v-1.875c0.41719-0.83281 1.0406-1.6666 1.875-2.5 0.83281-0.83281 1.6664-2.0833 2.5-3.75l5.625-6.25c5.4164-6.25 13.75-9.375 25-9.375 0.83281 0 2.9164 0.625 6.25 1.875v-0.625c-3.1e-4 -1.6666-1.8753-2.9166-5.625-3.75h-8.125l-7.5 2.5m239.38-2.5c-5.0005 7.0834-8.7505 13.333-11.25 18.75-0.41719 1.25-0.625 2.9167-0.625 5v3.75c-4.7e-4 9.5833 6.0411 15 18.125 16.25-8.3339-7.0833-12.5-15.208-12.5-24.375-4.7e-4 -5.4166 2.0828-10.833 6.25-16.25v-3.125m-290 4.375c-1.6669 2.9167-5.2086 4.375-10.625 4.375l-8.125-0.625c-5.0002-1.25-11.25-1.875-18.75-1.875-0.83437-0.41719-2.9169-0.625-6.25-0.625h-4.375c-1.6669 0-3.5419-0.20781-5.625-0.625h-31.875l-25.625 2.5c-2.9167 0.41719-6.6667-0.625-11.25-3.125 1.6666 5.4167 6.8748 8.125 15.625 8.125 1.25 0 3.7498-0.20781 7.5-0.625 4.1666-0.41719 9.7916-1.0422 16.875-1.875 7.9166-1.25 13.542-1.6666 16.875-1.25l56.875 5.625c7.4998 0.83281 11.25-1.4578 11.25-6.875l-0.625-1.875-1.875-1.25m-129.38 3.75 7.5 20c-0.41719 5.4167-3.3334 8.75-8.75 10 0.41719 2.5 2.2916 3.75 5.625 3.75 5.8333 0 8.7498-3.3333 8.75-10-1.6e-4 -8.75-4.3752-16.667-13.125-23.75m68.125 12.5c-4.5834 3.3334-8.9584 5-13.125 5h-5c-2.5002-0.41719-5.4169-0.83281-8.75-1.25 5.4166 2.5 10.625 3.75 15.625 3.75 12.5 0 18.75-2.7083 18.75-8.125-1.6e-4 -0.41719-0.20781-0.83281-0.625-1.25l-1.25-1.25-4.375-1.875-1.25 5m8.75 15c1.6666-0.41719 3.9581-0.83281 6.875-1.25 2.9164-0.83281 6.4581-2.0833 10.625-3.75l6.25-5c3.3331-2.0833 5.8331-4.7916 7.5-8.125l-5.625-0.625-10 7.5-6.25 3.125-6.875 3.125-17.5 1.875h-2.5c-1.6669 0-3.1252-0.20781-4.375-0.625l-13.75-2.5c-0.41719-0.41719-1.25-0.625-2.5-0.625-0.83281 0-1.4578-0.20781-1.875-0.625l-6.875-4.375c-2.0834-1.6666-3.7502-2.9166-5-3.75-1.25-1.25-2.0834-2.0833-2.5-2.5l-6.875-0.625 10.625 10c1.25 1.25 4.5833 3.125 10 5.625l5 1.875c6.2498 2.5 12.708 3.75 19.375 3.75 4.5831 0 9.9998-0.83281 16.25-2.5m206.25-13.75h-3.125l-1.875 0.625v0.625c-3.1e-4 2.9167 0.83281 4.375 2.5 4.375 2.083 0 3.1247-0.625 3.125-1.875v-1.25l-0.625-2.5m-173.12 4.375c-2.0836 0-3.1252 1.25-3.125 3.75-1.6e-4 2.5 1.25 3.75 3.75 3.75 2.0831 0 3.1248-1.25 3.125-3.75l-0.625-0.625c-0.41719-1.6666-1.4578-2.7083-3.125-3.125m11.25 0.625c-1.25 0-1.8752 0.83281-1.875 2.5-1.6e-4 2.0834 1.0406 3.125 3.125 3.125 2.0831 0 3.1248-0.83281 3.125-2.5-1.6e-4 -2.5-1.25-3.75-3.75-3.75l-0.625 0.625m231.88 16.875v2.5l6.25-2.5 13.75-6.875c1.6662-1.25 3.7495-1.875 6.25-1.875 1.25 0 2.2912 0.41719 3.125 1.25l3.125 3.125-1.25 5.625h3.125c2.0828 0 3.1245-2.0833 3.125-6.25-4.7e-4 -5.4166-3.5422-8.125-10.625-8.125-4.1672 0-8.1255 1.25-11.875 3.75-3.3338 2.5-6.6672 5-10 7.5-0.83437 0.83281-2.5005 1.4578-5 1.875m-205-8.75v-0.625l-1.25-0.625-6.875 5-2.5 0.625h-0.625l-15.625-2.5c-0.83437 0-1.25 0.625-1.25 1.875-1.6e-4 2.5 3.7498 3.75 11.25 3.75 6.6664 0 12.291-2.5 16.875-7.5m-37.5 2.5c-1.6669 0.41719-2.5002 1.0422-2.5 1.875-1.6e-4 2.5 1.25 3.75 3.75 3.75 2.4998 0 3.7498-0.83281 3.75-2.5l-0.625-0.625v-0.625l-4.375-1.875m-27.5 2.5 3.125 4.375 1.875 0.625c0.41719-0.41719 0.625-0.83281 0.625-1.25-1.6e-4 -3.3333-1.25-5-3.75-5v0.625l-1.875 0.625m39.375-431.25 1.25 0.625-4.375 5.625-4.375-3.125v-1.25l7.5-1.875m75.625 6.25 4.375-1.875-1.875 1.25-1.25 0.625h-0.625c-1.667 4.7e-4 -2.5003-1.0406-2.5-3.125l1.875 3.125m28.75-3.75 4.375 5v-1.875l-4.375-3.125m28.75 13.125 3.125 4.375v-1.875h-3.125l-0.625-1.875 0.625-0.625m26.25 42.5 1.25 1.25h-2.5l1.25-1.25m6.25 4.375h-1.25c-0.83437 4.7e-4 -1.667-0.41562-2.5-1.25l0.625-0.625 3.125 1.875m21.875 1.25h2.5c0.41563 2.0838 0.625 4.3753 0.625 6.875 0.41563 2.0838 0.625 4.3753 0.625 6.875-4.7e-4 0.41719-0.83437 0.625-2.5 0.625l-1.25-14.375m-5 2.5 3.125 3.125 0.625 1.875-1.875 0.625-1.25-0.625-0.625-5m-11.875 1.25 0.625 0.625 3.125 5 3.125 7.5 1.875 2.5 5.625 12.5 3.75 7.5 2.5 3.75 3.75 6.25 1.25 1.875 1.875 2.5 4.375 6.875 5.625 5v3.75l7.5 6.875-1.25-1.875h-0.625c-2.0838 3.1e-4 -3.9588-0.625-5.625-1.875l-6.25-3.75-3.75-1.875h-0.625l-14.375-5c-4.167-1.25-7.7088-1.4578-10.625-0.625-0.83437 0.41719-2.5005 0.625-5 0.625-0.41719 3.1e-4 -0.625-0.41719-0.625-1.25-3.1e-4 -1.25 1.25-1.8747 3.75-1.875h15.625v-0.625c-4.7e-4 -2.9164 1.0406-4.7914 3.125-5.625l0.625 3.125-1.25 3.125v0.625c-4.7e-4 1.25 0.625 2.0836 1.875 2.5l8.125 2.5 3.125 1.875 1.25-2.5-9.375-11.875-3.75-5-6.875-11.25c-0.83437-1.6662-1.4594-2.9162-1.875-3.75-4.7e-4 -0.83281-0.20937-1.6662-0.625-2.5-1.25-3.333-2.292-5.833-3.125-7.5-0.83437-1.6662-1.4594-2.9162-1.875-3.75l-3.125-5.625-4.375-8.125 2.5-0.625m-16.875 21.25h3.125c1.25 2.5003 3.5412 3.7503 6.875 3.75l0.625 2.5-5-1.25-5.625-5m41.25 9.375 1.25 0.625-1.25 1.25-2.5 1.875 1.25-4.375 1.25 0.625m2.5 7.5 0.625-0.625c-4.7e-4 0.41719-0.20937 0.625-0.625 0.625l-0.625 0.625c-1.25 3.1e-4 -1.8755-0.625-1.875-1.875-4.7e-4 -0.83281 0.41563-1.25 1.25-1.25l1.25 2.5m-18.75 3.75 2.5-1.875-3.125 6.875-1.875-3.125 2.5-1.875m21.25 1.25 0.625 0.625-1.875-0.625h1.25m85 1.875 0.625-0.625 3.75-0.625 3.75 1.25-1.25 0.625-6.875-0.625m-102.5 6.25-1.875-1.875c0.41563-0.83281 0.83281-1.4578 1.25-1.875 0.41563-0.83281 0.83281-1.6662 1.25-2.5h0.625c0.83281 0.83438 1.25 1.4594 1.25 1.875-4.7e-4 1.25-0.83437 2.7086-2.5 4.375m-111.25 0v-2.5c-0.83437 3.3336-2.292 5.2086-4.375 5.625l2.5-5h1.25l0.625 1.875m6.25 4.375 0.625-3.75-3.125 3.75-4.375 2.5c-0.83437 2.5003-3.3336 5.2086-7.5 8.125h1.25l-1.25-1.25 3.125-3.75 2.5-3.75 8.125-5 0.625 3.125m81.25 5h-1.25 0.625l0.625-1.875v1.875m133.12 16.25 9.375-13.125c-4.7e-4 2.0836-1.25 3.9586-3.75 5.625-2.0839 4.5836-3.9589 7.0836-5.625 7.5m-122.5 103.12 1.25 2.5-3.125 5.625 1.875-8.125m-191.25 49.375-3.75 3.125 3.75-3.125m132.5 56.25 2.5-0.625 3.125 14.375c-3.1e-4 1.6e-4 -0.20781-0.20781-0.625-0.625-0.41719-0.83281-1.0422-1.8748-1.875-3.125v-2.5c-0.83437-1.25-1.4578-3.3333-1.875-6.25l-1.25-1.25m-1.875 4.375 1.875 0.625v3.125h-1.25l-0.625-3.75m-41.25 11.25 4.375 5 5.625 4.375v2.5l-0.625-1.875-1.875 0.625-2.5-2.5-1.25-1.875-1.25-1.25-2.5-5m61.875 2.5 3.125 1.875-3.75 3.125-1.25-0.625 1.875-4.375m-76.875 1.875 8.125 5v0.625h-1.25l1.25-1.25-1.25 0.625-6.875-5m46.875 3.75 4.375 13.125 1.875 16.875 1.875 7.5-2.5 0.625 1.875-1.875-0.625 1.25c-1.667-2.0833-3.1253-8.9583-4.375-20.625-0.83437-2.9166-2.0836-6.6666-3.75-11.25l-0.625-3.75h1.875v-1.875m25 17.5v1.25c-0.83437 0.83281-2.0838 1.6667-3.75 2.5h-1.25l2.5-1.25 2.5-2.5m-35.625 6.25c-3.1e-4 2.9167-1.667 5.4167-5 7.5l5.625-3.125-8.75 3.75 7.5-8.125 0.625 2.5v-2.5m2.5 6.25-1.875 5.625-0.625-0.625h-1.25l3.75-5m-26.25 5.625 6.875 2.5c-0.83437 0.41719-2.292 0.625-4.375 0.625-0.83437 0-1.667-1.0422-2.5-3.125m-7.5 1.25 13.75 6.875c-2.5003 0.83281-3.542 1.25-3.125 1.25-2.5003 0-5.8336-2.0833-10-6.25l-0.625-1.875"
         fill="#8f0005"
         id="path13" />
    </g>
  </g>
</svg>
