<?xml version="1.0" encoding="UTF-8" standalone="no"?>
<svg
   xmlns:dc="http://purl.org/dc/elements/1.1/"
   xmlns:cc="http://creativecommons.org/ns#"
   xmlns:rdf="http://www.w3.org/1999/02/22-rdf-syntax-ns#"
   xmlns:svg="http://www.w3.org/2000/svg"
   xmlns="http://www.w3.org/2000/svg"
   xmlns:sodipodi="http://sodipodi.sourceforge.net/DTD/sodipodi-0.dtd"
   xmlns:inkscape="http://www.inkscape.org/namespaces/inkscape"
   version="1.1"
   viewBox="0 0 500 500"
   id="svg19"
   sodipodi:docname="william-morris-letter-k.svg"
   inkscape:version="1.0.2 (1.0.2+r75+1)">
  <metadata
     id="metadata23">
    <rdf:RDF>
      <cc:Work
         rdf:about="">
        <dc:format>image/svg+xml</dc:format>
        <dc:type
           rdf:resource="http://purl.org/dc/dcmitype/StillImage" />
      </cc:Work>
    </rdf:RDF>
  </metadata>
  <sodipodi:namedview
     pagecolor="#ffffff"
     bordercolor="#666666"
     borderopacity="1"
     objecttolerance="10"
     gridtolerance="10"
     guidetolerance="10"
     inkscape:pageopacity="0"
     inkscape:pageshadow="2"
     inkscape:window-width="1920"
     inkscape:window-height="1016"
     id="namedview21"
     showgrid="false"
     inkscape:zoom="1.686"
     inkscape:cx="255.33808"
     inkscape:cy="250"
     inkscape:window-x="0"
     inkscape:window-y="27"
     inkscape:window-maximized="1"
     inkscape:current-layer="svg19" />
  <defs
     id="defs7">
    <linearGradient
       id="linearGradient847"
       x1="500"
       x2="0"
       y1="500"
       y2="-4.2633e-14"
       gradientTransform="translate(226.27,43.115)"
       gradientUnits="userSpaceOnUse">
      <stop
         stop-color="#ff6700"
         offset="0"
         id="stop2" />
      <stop
         stop-color="#ffd700"
         offset="1"
         id="stop4" />
    </linearGradient>
  </defs>
  <path
     d="m124.56 39.004-44.035 10.904h-18.873l-0.97266 0.31836-1.9609 6.8613 2.5703 12.66 30.141 15.391 0.65625 62.547 0.18164-0.05664c2.5164-0.73395 15.203-4.5098 15.203-4.5098l15.729-14.678 17.719-10.613v-6.9941l-10.275-10.807-5.6621-11.115s3.3e-4 -10.695 1.0488-11.324c1.0485-0.6291 3.7754-2.5156 3.7754-2.5156 1.6776 0.6291 5.4512 9.0176 5.4512 9.0176l5.6621 3.2363v-0.92969l35.648-28.52 2.0976-4.1934-54.104-14.68zm172.37 7.9688-1.6758 14.26 30.615 18.033s-33.577 32.187-65.869 63.121l-0.51368 19.832-2.8926 29.146 101.15-95.742s23.066-18.872 27.68-19.711 24.324-6.7109 24.324-6.7109l0.41993-13.002c-1e-5 0-14.258-9.2266-16.355-9.2266-2.097 0-41.941 4.6133-41.941 4.6133l-54.941-4.6133zm-156.02 80.836-8.8066 4.7207-18.664 15.729s-14.551 8.3474-21.232 11.697l1.5762 150.31c2.5336-0.16004 26.649-1.6782 27.354-1.3965 0.7414 0.29656 19.721 5.9316 19.721 5.9316l-0.44335-13.939 3.9629 0.03906-0.11133-6.0606-0.10156-4.3789 41.891-35.828 87.996 96.607 12.121-14.494s14.236-7.4144 21.354-5.9316c2.8941 0.60294 8.5781 1.2747 14.311 1.8652l-100.11-108.56 2.6406-2.2578 14.594-13.812 9.6934-35.154v-19.645c-43.743 41.888-90.951 87.033-105.34 100.53l-2.4082-104.47v-21.498zm-32.822 189.96c-0.53463 0-9.1458 2.6645-14.184 4.0586l0.87305 83.316-36.068 23.068 3.1641 16.162 6.9004 6.4844 26.422-3.3555 76.332 3.7754 5.9707-1.9043-0.0918-2.0449 0.52149-0.11133 3.1152-9.0449s-3.124-2.3074-6.1523-4.5391l-9.2676-9.2598-19.26-15.875-1.3672-74.045c-4.7424-0.10035-16.445-0.375-16.445-0.375l-3.8555 4.7461 1.9277 8.748 11.715 6.0801-3.5586 5.041-12.457-0.29687-7.4141-8.1562-2.3711-9.1934 4.5957-10.824 10.676-8.748s-18.979-3.707-19.721-3.707zm193.8 22.23c-1.9467 0.28508-10.678 5.498-10.678 5.498l-6.377 8.1562-1.9551 7.2852 78.318 85.982 82.445 1.1855 9.1934-1.7793 3.5586-9.7852-8.6016-10.975-42.703-6.5234-18.387-16.014-33.846-36.703-5.3008 1.5605-16.756 6.8203-1.7793 12.012 2.8164 6.6719s-6.6709-0.74219-7.5606-0.74219-9.9355-4.7441-9.9355-4.7441l-1.0371-16.162s2.3724-9.6391 1.7793-10.084-2.9668-5.1895-2.9668-5.1895l4.5976-15.422 1.4824-0.88867s-14.976 0.2964-16.014-0.14844c-0.06487-0.0278-0.16514-0.03072-0.29492-0.01172z"
     fill="#f4eee6"
     id="path11" />
  <g
     id="g17">
    <g
       transform="translate(-146.86,-119.79)"
       id="g15">
      <path
         d="m146.86 619.79v-500h500v500h-500m7.5-7.5h485v-485h-485v485m7.5-7.5v-469.38h469.38v469.38h-469.38m356.25-456.88-8.75 1.875-23.125 10.625c-5.417 2.0838-10.209 3.1255-14.375 3.125-8.3338 4.7e-4 -12.5-2.9162-12.5-8.75-3.1e-4 -6.2495 3.333-9.3745 10-9.375 2.9162 4.7e-4 7.2912 1.25 13.125 3.75-2.5005-5.4162-6.8755-8.7495-13.125-10l-0.625-0.625-4.375 0.625-3.75-0.625h-0.625c-8.7503 4.7e-4 -13.125 4.3755-13.125 13.125-3.1e-4 11.25 7.9162 16.875 23.75 16.875 7.4995 4.7e-4 14.166-1.6662 20-5l14.375-7.5c4.583-2.0828 7.2912-3.3328 8.125-3.75 0.83281-0.83281 2.4995-2.2912 5-4.375m-116.25-8.125-1.25 0.625h-3.125c-7.5003-0.41562-14.792 3.5422-21.875 11.875-7.0836 8.3338-10.625 16.042-10.625 23.125-3.1e-4 3.7505 0.625 7.5005 1.875 11.25l5.625 13.75 3.75 6.875c0.83281 2.5005 1.25 3.542 1.25 3.125-3.1e-4 0.41719-0.41719 1.0422-1.25 1.875-2.5003-0.83281-4.167-2.4995-5-5-6.6669-16.666-17.292-25-31.875-25-16.667 4.7e-4 -25 7.5005-25 22.5-3.1e-4 10.417 3.3331 16.25 10 17.5l4.375 1.25-1.25-9.375c-3.1e-4 -2.9162 1.8747-5.6245 5.625-8.125 2.4997-0.83281 3.9581-1.25 4.375-1.25 3.3331 4.7e-4 7.2914 1.667 11.875 5l3.125 3.75c7.4997 8.3338 12.916 12.5 16.25 12.5 14.166 4.7e-4 21.25-8.1245 21.25-24.375v-1.25l-1.25-4.375-2.5-13.75-0.625-2.5c-3.1e-4 -19.166 7.9164-28.75 23.75-28.75 3.7497 4.7e-4 7.2914 1.8755 10.625 5.625l1.25 10-4.375 5-11.25 10c-2.5003 2.5005-3.7503 6.4588-3.75 11.875-3.1e-4 3.3338 1.0406 5.417 3.125 6.25l0.625-0.625c0.41719 4.7e-4 0.83281-0.20781 1.25-0.625v-0.625l1.875-10c-3.1e-4 -1.6662 0.625-2.9162 1.875-3.75l17.5-11.25c2.083-1.25 3.1247-5.8328 3.125-13.75-3.1e-4 -7.4995-5.2088-13.333-15.625-17.5l-6.25-1.25-7.5-0.625m-155 2.5-8.75 1.25c-4.1669 0.83438-7.7084 1.6672-10.625 2.5-2.9169 0.83438-5.4169 1.6672-7.5 2.5-0.83281 0.41719-3.1252 1.4594-6.875 3.125-3.3334 1.6672-8.1252 4.1672-14.375 7.5-5.8334 2.5005-11.458 3.7505-16.875 3.75l-7.5-1.875h1.25c-3.7502-2.9162-5.6252-6.0412-5.625-9.375-1.6e-4 -4.1662 2.0833-6.2495 6.25-6.25 1.25 4.7e-4 2.2916 0.625 3.125 1.875l6.875 6.25c1.25 1.25 3.1248 1.8755 5.625 1.875 6.6666 4.7e-4 9.9998-2.9162 10-8.75-1.6e-4 -2.4995-0.625-3.7495-1.875-3.75l-1.25 0.625-3.125 2.5h-2.5l-3.125 0.625c-1.25 4.7e-4 -3.5417-1.0406-6.875-3.125-2.9167-1.6662-5.8334-2.4995-8.75-2.5-2.0834 4.7e-4 -5.0002 2.0838-8.75 6.25-1.6667 2.9172-2.5002 5.8338-2.5 8.75v3.75l0.625 3.125c0.83281 5.8338 5.2083 9.3755 13.125 10.625l-0.625 1.25-1.25 1.25-2.5 7.5h1.875c2.4998 0.41719 5.8333-0.41562 10-2.5l5-3.75 7.5-6.875c0.41719-0.41562 1.25-0.625 2.5-0.625 0.83281 4.7e-4 1.25 0.83438 1.25 2.5l-8.75 8.125c-5.0002 5.0005-8.3334 12.084-10 21.25v3.125l-1.25 3.75 2.5 8.75 2.5 6.25c0.83281-2.4995 2.4998-3.958 5-4.375 2.0833 11.667 6.8748 18.959 14.375 21.875l4.375 1.875 1.25 0.625c1.25 3.1e-4 1.8748-1.25 1.875-3.75l-0.625-2.5c3.7498 1.25 6.8748 1.8753 9.375 1.875 7.4998 3.1e-4 11.875-2.9162 13.125-8.75l1.875-8.75c0.41719-4.1662-0.20781-7.708-1.875-10.625l-0.625-0.625-3.75-4.375-2.5-2.5-16.875-5.625-4.375-4.375c-1.6667 0.41719-2.5002 1.4594-2.5 3.125-1.6e-4 3.3338 2.2916 5.6255 6.875 6.875l10 3.125 4.375 3.75c1.25 2.0838 1.8748 3.542 1.875 4.375-1.6e-4 0.83438-0.625 2.0838-1.875 3.75l-0.625 3.125c-3.3334 2.0838-5.6252 3.1255-6.875 3.125l-3.75-0.625-6.25-1.875-5.625-5.625c-2.9167-4.1662-4.3752-8.5412-4.375-13.125-1.6e-4 -5.4162 2.0833-10.833 6.25-16.25-1.25-4.9995-1.8752-8.1245-1.875-9.375-1.6e-4 -5.8328 2.0833-8.9578 6.25-9.375l15.625-1.875 22.5-9.375c9.9998-3.3328 21.458-4.9995 34.375-5 25 4.7e-4 45.416 5.4172 61.25 16.25l10 6.875v1.25l11.25 11.25c-0.41719-2.083-0.83438-3.7495-1.25-5-3.1e-4 -1.25-3.1e-4 -2.083 0-2.5-3.1e-4 -4.1662-0.41719-6.6662-1.25-7.5l-8.125-4.375-4.375-5-13.75-6.875-5-3.75c-2.0836-1.6662-5.4169-3.1245-10-4.375-4.1669-1.25-9.5836-2.7078-16.25-4.375l-11.25-2.5c-1.25-0.41562-3.1252-0.625-5.625-0.625-2.9169 4.7e-4 -5.4169-0.20781-7.5-0.625h-14.375l-17.5 1.875m99.375 15 5.625 5.625 6.875 3.75c-0.83281-0.83281-1.8753-2.0828-3.125-3.75-0.83438-2.0828-2.2919-4.1662-4.375-6.25-1.25-1.25-1.8753-2.9162-1.875-5-3.1e-4 -3.7495 2.4997-6.6662 7.5-8.75-2.0836-2.0828-3.9586-3.1245-5.625-3.125-5.8336 4.7e-4 -8.7503 3.1255-8.75 9.375-3.1e-4 2.5005 1.25 5.2088 3.75 8.125m244.38-1.25-0.625-8.125 5-6.25-3.125-0.625c-2.5005 4.7e-4 -4.3755 1.4594-5.625 4.375-0.83438 2.5005-1.25 3.7505-1.25 3.75-4.7e-4 5.0005 1.25 7.5005 3.75 7.5 0.83281 4.7e-4 1.4578-0.20781 1.875-0.625m11.875-8.125-0.625 1.875c-0.41719 0.83438-0.83438 2.2922-1.25 4.375-0.41719 1.6672-1.0422 3.9588-1.875 6.875h-6.25l-0.625 3.75c-4.7e-4 2.0838 1.0406 4.1672 3.125 6.25l1.25 1.875 4.375 4.375c2.4995 2.5005 3.9578 4.167 4.375 5l0.625 2.5c-4.7e-4 4.167-1.6672 6.2505-5 6.25-3.7505 4.7e-4 -6.8755-5.208-9.375-15.625-2.9172-2.9162-5.6255-4.3745-8.125-4.375-2.0839 4.7e-4 -4.5839 0.83438-7.5 2.5l1.875 5-8.125 0.625c-5.8338 4.7e-4 -8.7505 3.7505-8.75 11.25-4.7e-4 3.3338 1.4578 5.8338 4.375 7.5-4.7e-4 -8.333 3.1245-12.5 9.375-12.5 1.6661 4.7e-4 3.9578 0.83438 6.875 2.5l7.5 9.375 0.625 1.25 5 3.125 8.75-1.875 0.625 1.875 2.5 5.625c2.9161 9.167 4.3745 16.667 4.375 22.5-4.7e-4 7.917-1.0422 14.584-3.125 20l-3.125 6.875-0.625 5.625c9.9995-2.9162 15-15 15-36.25-4.7e-4 -11.25-2.7089-21.458-8.125-30.625 2.9161-2.9162 4.3745-6.0412 4.375-9.375-4.7e-4 -2.083-0.20938-3.333-0.625-3.75l-5-17.5c-0.41719-0.41562-0.625-1.8745-0.625-4.375-4.7e-4 -6.2495 3.7495-10.416 11.25-12.5-1.25-3.3328-3.5422-4.9995-6.875-5-3.7505 4.7e-4 -7.2922 1.6672-10.625 5m-81.25 4.375-5 1.875-8.125 6.875c-2.917 2.0838-4.5838 3.9588-5 5.625-4.7e-4 1.25 1.0406 1.8755 3.125 1.875 2.9162 4.7e-4 6.458-2.0828 10.625-6.25 6.6662-6.2495 16.875-9.3745 30.625-9.375 13.333 4.7e-4 25.625 4.3755 36.875 13.125l3.75 3.125c0.83281-4.1662 1.25-6.2495 1.25-6.25-4.7e-4 -2.0828-2.9172-4.7912-8.75-8.125-0.83438-0.41562-1.8755-0.83281-3.125-1.25-0.83438-0.41562-1.6672-0.83281-2.5-1.25l-2.5-1.875c-12.084-3.3328-20.417-4.9995-25-5-7.0838 4.7e-4 -15.834 2.2922-26.25 6.875m-12.5 5-10 6.25-3.125 4.375h2.5c1.25 4.7e-4 4.7912-3.5412 10.625-10.625m-160 19.375c-14.584-12.5-27.292-18.75-38.125-18.75-4.5836 4.7e-4 -6.8752 1.8755-6.875 5.625-1.6e-4 2.9172 1.6664 4.3755 5 4.375h1.25l1.875-3.75c0.83281-0.83281 2.2914-1.25 4.375-1.25 6.2497 4.7e-4 14.791 4.1672 25.625 12.5l6.25 4.375 0.625-3.125m212.5-1.25v-3.125c-0.83437-4.9995 1.8745-7.4995 8.125-7.5h1.875l6.875 3.125h2.5l-5-4.375c-3.3338-2.0828-6.4588-3.1245-9.375-3.125-7.5005 4.7e-4 -11.25 2.7088-11.25 8.125-4.7e-4 2.9172 2.0828 5.2088 6.25 6.875m-325.62 13.125 2.5 3.75 0.625 1.875 1.875 4.375c1.6666 11.25 2.2916 20 1.875 26.25v40.625l8.75-3.125 26.25-22.5c0.41719 3.1e-4 0.625-0.41562 0.625-1.25v-1.875c-1.6e-4 -2.083-0.20781-3.7497-0.625-5v-9.375c-4.5836-7.083-6.8752-12.291-6.875-15.625-1.6e-4 -9.583 2.7081-14.375 8.125-14.375v0.625l1.875 3.125c2.9164-7.4995 7.2914-12.5 13.125-15l15-6.25 0.625-0.625v-1.25c-1.6e-4 -1.6662-1.6669-2.4995-5-2.5-0.83437 4.7e-4 -1.6669 4.7e-4 -2.5 0-0.83281-0.41562-2.0836-0.83281-3.75-1.25-3.3336-1.25-12.709-0.83281-28.125 1.25h-53.125c-6.6669 4.7e-4 -10 1.4594-10 4.375-1.6e-4 2.917 1.8748 4.5838 5.625 5l19.375 5 3.75 3.75m242.5 7.5c-4.7e-4 3.7505-4.792 10-14.375 18.75l-25.625 22.5c-2.5003 2.917-6.2503 6.667-11.25 11.25-4.5838 4.5838-10.417 10.209-17.5 16.875v12.5l-1.25 14.375 92.5-86.25c11.666-11.25 21.041-18.125 28.125-20.625l17.5-6.25c2.0828-0.83281 3.1245-2.4995 3.125-5-4.7e-4 -2.4995-2.9172-3.7495-8.75-3.75h-2.5c-9.1672 4.7e-4 -16.667 0.20938-22.5 0.625-5.417 4.7e-4 -9.167 0.20938-11.25 0.625-6.667 1.6672-11.667 1.8755-15 0.625-2.0838-0.41562-10.834-1.0406-26.25-1.875h-2.5c-7.917 4.7e-4 -11.875 1.25-11.875 3.75-3.1e-4 2.5005 1.6662 4.167 5 5l16.25 3.75c3.7495 0.83438 6.0412 2.7088 6.875 5.625 0.83281 2.917 1.25 5.417 1.25 7.5m-166.88-23.75-0.625 0.625c-2.0836 3.3338-4.5836 5.8338-7.5 7.5-5.4169 0.83438-10.417 3.3338-15 7.5-4.1669 3.7505-6.2502 7.5005-6.25 11.25-1.6e-4 2.917 0.83281 4.3755 2.5 4.375 0.83281-0.83281 1.6664-2.083 2.5-3.75 0.83281-1.6662 2.0831-3.958 3.75-6.875 0.41563-1.6662 2.2914-2.9162 5.625-3.75 11.666-4.1662 17.5-8.5412 17.5-13.125-3.1e-4 -0.83281-0.83281-2.0828-2.5-3.75m239.38 0.625c-0.41719 5.417-3.3338 8.7505-8.75 10h3.125c-9.1672 0.41719-18.125 4.3755-26.875 11.875l-6.25 5-3.125 3.125c-1.667 1.25-4.167 2.917-7.5 5l-26.875 25.625-35.625 32.5-15.625 15-10 9.375c-3.7503 3.7503-5.8336 7.5003-6.25 11.25l3.125-1.25 89.375-82.5c17.5-16.25 30.208-25.416 38.125-27.5 12.5-3.7495 18.75-7.2912 18.75-10.625-4.7e-4 -2.083-1.8755-4.3745-5.625-6.875m-101.25 7.5 6.875 6.25 9.375 3.125c0.41563 0.41719 1.25 1.0422 2.5 1.875 1.6662 0.83438 3.5412 2.292 5.625 4.375l1.25 0.625v-6.25c-4.7e-4 -0.41562-2.7088-2.708-8.125-6.875l-17.5-3.125m-212.5 14.375c-2.5002-4.1662-4.7919-6.6662-6.875-7.5l-11.875-4.375-9.375-1.875c-1.6e-4 2.5005 1.8748 4.3755 5.625 5.625l13.75 5 6.875 3.75 1.875-0.625m201.88-10-4.375 11.25c-5.417 6.667-8.1253 10.209-8.125 10.625-3.1e-4 0.83438 0.625 1.4594 1.875 1.875l1.25 1.25 3.125-0.625 1.25 1.25-6.875 1.25-7.5-0.625v4.375c-3.1e-4 1.25 1.4578 1.8755 4.375 1.875 3.7497 4.7e-4 6.2497-0.20781 7.5-0.625-1.667 1.667-2.5003 3.1255-2.5 4.375-3.1e-4 1.667 1.4578 2.5005 4.375 2.5-3.1e-4 4.7e-4 1.6662-0.41562 5-1.25l5-3.75 7.5 1.875c0.83281-3.333 1.25-4.9995 1.25-5-3.1e-4 -4.583-2.0838-6.8745-6.25-6.875l-1.25 0.625-5.625 1.875v-4.375l3.125-5c0.41563-0.41562 0.625-2.083 0.625-5-3.1e-4 -4.583-1.25-8.5412-3.75-11.875m-267.5 8.75-7.5-0.625v5c2.0833 2.0838 3.5416 3.1255 4.375 3.125 2.9166 4.7e-4 6.2498-2.708 10-8.125 0.41719-0.41562 0.625-0.83281 0.625-1.25-1.6e-4 -0.41562 0.20781-0.83281 0.625-1.25-1.6e-4 -0.83281-0.625-1.25-1.875-1.25h-0.625l-5.625 4.375m273.12 13.125 1.875-0.625c2.4997-4.583 5.208-6.8745 8.125-6.875 4.9997 4.7e-4 8.1247 2.917 9.375 8.75 2.083-3.333 3.1247-5.6245 3.125-6.875-3.1e-4 -4.1662-2.917-6.2495-8.75-6.25-6.2503 4.7e-4 -10.834 3.9588-13.75 11.875m-28.75-8.75-3.75 0.625 0.625 1.25c-2.5003 0.83438-6.4586 4.3755-11.875 10.625l-1.875 2.5-1.25 5.625 5-3.125-5 6.25c5.4164 2.0838 8.958 3.1255 10.625 3.125 2.083 4.7e-4 3.5414-1.0406 4.375-3.125l3.125-17.5v-6.25m90 18.75-4.375 5-4.375 3.75-3.75 5.625 2.5 3.125 3.125 3.125c5.4162 5.417 11.875 8.7503 19.375 10v2.5l-10-1.25-5-2.5-6.875-5-6.25-8.75-8.75 7.5c-0.41719 1.25-0.83438 2.292-1.25 3.125-4.7e-4 0.41719-4.7e-4 0.625 0 0.625-4.7e-4 2.0838 0.83281 3.9588 2.5 5.625l5 8.125 0.625 1.875 3.75 6.875c2.9162 8.3338 4.3745 14.584 4.375 18.75-4.7e-4 3.7503-1.25 8.7503-3.75 15l6.875-0.625 2.5-2.5 6.25-5c0.41562-0.41719 1.0406-2.708 1.875-6.875l-0.625-10.625 11.25 3.125c7.9162 3.1e-4 14.583-2.708 20-8.125l20-19.375c1.25 3.1e-4 7.0828-2.708 17.5-8.125 1.6661-0.41562 2.4995-1.25 2.5-2.5-4.7e-4 -6.6662-7.5005-11.041-22.5-13.125l3.75 1.875v2.5l-6.25-0.625c-0.83438 3.1e-4 -3.7505 1.0422-8.75 3.125h-3.75l6.25-3.75v-1.875c-2.0838 0.41719-3.9588 0.83438-5.625 1.25-1.6672 0.41719-3.1255 0.83438-4.375 1.25l-2.5 0.625-1.25-1.25v-0.625l6.875-6.875c1.6662-1.6662 2.4995-4.1662 2.5-7.5-4.7e-4 -7.4995-1.6672-11.875-5-13.125l-6.25-2.5v6.25c-0.41719 5.0005-3.9588 9.167-10.625 12.5-2.0838 1.25-4.5838 1.8755-7.5 1.875-3.3338 4.7e-4 -6.667-0.83281-10-2.5m-227.5-0.625c3.7498 6.667 8.5414 11.042 14.375 13.125l16.25 5c0.83281 0.83438 1.25 1.667 1.25 2.5-1.6e-4 2.5003-2.2919 4.792-6.875 6.875l-3.75 3.125c-0.83438 2.0838-1.8752 3.9588-3.125 5.625-1.25 1.25-2.5002 2.7088-3.75 4.375-2.0836 7.0838-3.1252 11.25-3.125 12.5-1.6e-4 2.0838 0.20781 3.3338 0.625 3.75l2.5 4.375 5-10 16.875-12.5c0.83281-0.83281 1.25-1.6662 1.25-2.5v-1.875c-3.1e-4 -1.25-0.625-3.5412-1.875-6.875 5.4164 3.1e-4 9.5831 2.0838 12.5 6.25 1.6664 3.3338 2.4997 7.5003 2.5 12.5-3.1e-4 5.417-2.2919 13.334-6.875 23.75l-5.625 9.375-1.25 1.25-10.625 8.75-15 6.25v8.75c7.4998-1.25 16.041-6.0414 25.625-14.375 15-13.75 22.5-30.208 22.5-49.375-3.1e-4 -6.2497-2.0836-11.875-6.25-16.875-3.7503-4.9997-8.3336-7.2912-13.75-6.875h-5c0.41719-1.6662 0.625-2.9162 0.625-3.75 0.41719-1.25 0.625-2.2912 0.625-3.125 0.41719-9.1662-7.0836-14.166-22.5-15-3.7502 4.7e-4 -6.2502-0.83281-7.5-2.5l-8.125-9.375-1.25 9.375 3.75 7.5m-109.38 7.5-3.75 20v13.125l5.625 23.75 7.5-10c-0.41719-2.9162-1.0422-4.9997-1.875-6.25-2.5002-7.9162-3.7502-16.041-3.75-24.375-1.6e-4 -5.4162 0.20781-8.7497 0.625-10 0.41719-0.83281 0.83281-2.083 1.25-3.75 0.83281-2.083 1.6666-4.7912 2.5-8.125 0.41719-0.41562 0.625-1.25 0.625-2.5-1.6e-4 -1.25 0.20781-2.4995 0.625-3.75v-6.25c0.41719-0.41562 0.625-1.4578 0.625-3.125-0.83281-0.83281-1.4578-1.25-1.875-1.25-0.83281 4.7e-4 -2.2917 3.542-4.375 10.625-0.41719 0.41719-1.6667 4.3755-3.75 11.875m224.38-21.25v0.625c-3.1e-4 3.7505 0.83281 5.6255 2.5 5.625 0.83281 4.7e-4 1.25-0.41562 1.25-1.25-3.1e-4 -3.333-0.83438-4.9995-2.5-5h-1.25m176.88 21.25c-0.41719-0.83281-0.625-2.708-0.625-5.625-4.7e-4 -5.4162 3.1245-8.1245 9.375-8.125 5.8328 4.7e-4 11.041 3.3338 15.625 10 4.5828 6.2505 6.8745 13.542 6.875 21.875-0.41719 0.41719-0.625 1.0422-0.625 1.875l-1.875 4.375v8.75l1.25 3.75 1.875-7.5 1.875-10.625c0.41562-0.83281 0.625-2.4997 0.625-5-4.7e-4 -22.5-8.7505-33.75-26.25-33.75-10.834 4.7e-4 -16.25 3.7505-16.25 11.25-4.7e-4 3.3338 2.7078 6.2505 8.125 8.75m-176.88-11.25-1.25 3.125c-3.1e-4 1.667 0.41719 2.5005 1.25 2.5 1.25 4.7e-4 1.8747-0.625 1.875-1.875-3.1e-4 -2.4995-0.625-3.7495-1.875-3.75m-6.25 10c-2.917 1.667-4.3753 3.1255-4.375 4.375-3.1e-4 0.41719 0.41562 1.25 1.25 2.5 0.83281 0.83438 1.6664 1.4594 2.5 1.875 2.083 3.1e-4 3.333-0.83281 3.75-2.5 0.41719-2.083 1.0422-3.7495 1.875-5l-2.5-4.375-2.5 3.125m-207.5-0.625c-2.0834 7.5003-3.1252 12.709-3.125 15.625-1.6e-4 17.5 6.2498 26.25 18.75 26.25 7.0833 3.1e-4 10.625-3.333 10.625-10-1.6e-4 -2.9162-1.4578-5.833-4.375-8.75-2.0834 4.5838-5.0002 6.8753-8.75 6.875-3.3334 3.1e-4 -6.4584-1.6662-9.375-5-2.9167-3.7497-4.1667-7.708-3.75-11.875l0.625-1.875 1.25-8.75v-1.25c-0.41719-0.41562-0.83281-0.625-1.25-0.625l-0.625-0.625m215 8.125 1.25 3.125-5.625-0.625 1.25 3.75 1.25 1.25c0.83281 4.167 1.25 6.042 1.25 5.625-3.1e-4 2.5003-0.20781 4.167-0.625 5l-1.875-2.5-1.875-6.25-3.75-2.5-1.25 3.125-1.875-0.625-2.5 0.625-0.625 1.875c-1.25 3.3338-1.8753 6.042-1.875 8.125-3.1e-4 3.7503 1.4578 5.8338 4.375 6.25l8.125 0.625 6.25 1.25 8.125-8.75 4.375-4.375c0.83281-2.4997 1.25-4.1662 1.25-5-3.1e-4 -9.1662-3.9586-13.75-11.875-13.75-2.917 4.7e-4 -4.3753 0.625-4.375 1.875-3.1e-4 0.83438 0.20781 1.4594 0.625 1.875m-114.38-3.75-0.625 12.5 5-2.5v-3.125c0.41719-2.4997-1.0422-4.7912-4.375-6.875m79.375 1.875v1.25c-3.1e-4 3.3338 1.25 5.0003 3.75 5h1.25c2.083 3.1e-4 3.1247-0.625 3.125-1.875v-0.625l-8.125-3.75m18.125 1.25h-1.25c-2.917 3.1e-4 -4.3753 1.0422-4.375 3.125-3.1e-4 2.5003 1.4578 3.7503 4.375 3.75 3.333 3.1e-4 4.9997-0.83281 5-2.5v-0.625c-0.83438-1.6662-2.0836-2.9162-3.75-3.75m-98.125 15.625c-3.7502 1.667-7.2919 4.167-10.625 7.5l-2.5 2.5c-1.25 1.667-4.1669 4.167-8.75 7.5l-1.25 1.875-12.5 6.25c-0.41719 0.41719-1.8752 0.625-4.375 0.625h-0.625c-2.0834 3.1e-4 -3.7502-0.625-5-1.875l-3.125-1.875h-3.125c-0.41719 0.41719-0.625 1.25-0.625 2.5-1.6e-4 4.167 3.3331 6.2503 10 6.25 6.2498 3.1e-4 14.792-4.1662 25.625-12.5 12.083-10.833 20.416-16.875 25-18.125 6.6664-2.083 10.416-3.333 11.25-3.75 0.83281-0.41562 2.2914-1.6662 4.375-3.75l-0.625-0.625c-7.5002 0.83438-15.209 3.3338-23.125 7.5m80.625-7.5-3.125 1.875-1.875-0.625c-5.8336 2.5003-9.5836 6.4588-11.25 11.875l10.625-0.625 13.125 1.25c3.7497 0.41719 6.458-2.708 8.125-9.375l-10 1.875 2.5-5.625-8.125-0.625m219.38 10-3.125 3.75h3.125c7.0828-0.83281 10.625 2.0838 10.625 8.75-4.7e-4 2.917-0.20938 4.792-0.625 5.625l-2.5 6.875-1.25 6.25c5.8328-9.583 8.7495-17.083 8.75-22.5-4.7e-4 -7.4997-2.7089-11.25-8.125-11.25-0.83438 3.1e-4 -1.4594 0.20938-1.875 0.625l-5 1.875m-363.12 3.125-0.625 3.75c-1.6e-4 2.917 1.8748 4.3753 5.625 4.375 3.7498 3.1e-4 5.6248-2.2912 5.625-6.875-1.6e-4 -3.7497-1.8752-5.6247-5.625-5.625h-2.5l-2.5 1.875v2.5m67.5 0.625-3.125 2.5v36.875l0.625 88.125 1.25 1.25c2.0831 3.1e-4 3.1248-1.0406 3.125-3.125v-50l-1.875-75.625m-48.75 1.875c-4.1669 3.1e-4 -6.2502 1.667-6.25 5-1.6e-4 2.917 1.6666 4.3753 5 4.375 3.3331 3.1e-4 4.9998-1.8747 5-5.625-1.6e-4 -2.4997-1.25-3.7497-3.75-3.75m42.5 2.5-8.75 6.875-5.625 5-3.75 3.75-5 3.125-1.875 1.875-4.375 1.875c-3.7502 0.83281-5.6252 1.8753-5.625 3.125v4.375l1.25 143.12c12.5-1.25 18.541-1.8748 18.125-1.875 0.83281 1.6e-4 6.4581 1.0422 16.875 3.125v-17.5l47.5-43.75c0.83281-0.83281 1.6664-1.25 2.5-1.25 2.4997 3.1e-4 3.9581 1.4578 4.375 4.375l6.25 5.625 3.125 3.75 3.125 3.125 3.75 4.375 1.875 1.875 4.375 5 2.5 3.75 4.375 3.75 1.875 3.125 17.5 17.5 40 43.75c7.083-9.9998 17.5-16.042 31.25-18.125l-17.5-18.75-7.5-8.75-13.75-13.75-1.875-2.5-2.5-1.875-3.125-3.75-5-5.625-3.125-3.75-3.125-2.5-2.5-3.75-5-5.625-19.375-20-3.125-4.375-5.625-5.625-3.125-5v-1.25c-3.1e-4 -2.0831 0.83281-3.7497 2.5-5 20.833-18.75 31.25-28.75 31.25-30l1.25-8.125 1.25-7.5 1.25-8.125-0.625-4.375-25.625 25-4.375 3.125-5.625 5-56.875 53.125-16.875 16.875h-3.75c-1.25-0.41719-1.8752-9.5831-1.875-27.5l-1.25-99.375m126.25 1.25c-1.667 4.167-3.3336 6.2503-5 6.25l-3.125-0.625c0.41719 1.25 0.625 2.7088 0.625 4.375-3.1e-4 1.667 0.20781 2.7088 0.625 3.125l0.625 4.375v3.75c0.83281 10.834-1.667 26.042-7.5 45.625l-6.25 15-1.25 1.875-2.5 4.375c-1.667 1.6669-2.5003 3.3336-2.5 5-3.1e-4 0.83438 1.4578 2.0836 4.375 3.75 0.41719 0.41719 0.83281 0.625 1.25 0.625 1.25 3.1e-4 2.9164-2.2914 5-6.875-3.1e-4 3.1e-4 1.6664-4.3747 5-13.125 2.9164-7.083 5.208-13.333 6.875-18.75 1.6664-5.833 2.708-11.041 3.125-15.625 0.41719-0.41719 0.625-2.2914 0.625-5.625l1.25-10.625c0.83281-6.2497 1.0406-9.583 0.625-10v-0.625c-3.1e-4 -3.7497-0.625-9.1662-1.875-16.25m170.62 2.5-1.25 6.875c-7.0838-2.083-11.25-3.1247-12.5-3.125-3.7505 3.1e-4 -7.0838 1.25-10 3.75-3.7505 4.5838-5.6255 7.5003-5.625 8.75v1.875l0.625 6.875 2.5-5c1.6662-2.4997 3.9578-3.7497 6.875-3.75 1.6662 3.1e-4 3.5412 0.625 5.625 1.875 2.0828 0.83438 3.1245 2.0836 3.125 3.75v1.875c-4.7e-4 4.5836-1.6672 8.542-5 11.875l-3.75 5-3.75 2.5c-0.41719 0.41719-0.83438 0.83281-1.25 1.25-0.41719 3.1e-4 -0.83438 0.41719-1.25 1.25-1.6672 2.5003-8.9588 5.417-21.875 8.75l-19.375 5c-2.0838 0.41719-3.9588 0.83438-5.625 1.25-1.667 3.1e-4 -2.917 3.1e-4 -3.75 0h-12.5l-2.5 8.125 6.875 0.625c1.25 0.41719 3.1245 0.625 5.625 0.625h5.625l20.625-0.625 7.5 0.625 29.375 5.625c1.25 0.41719 3.7495 0.625 7.5 0.625 4.1662 3.1e-4 6.8745-0.20781 8.125-0.625l6.875-1.875c3.3328-0.83281 4.9995-2.0831 5-3.75-4.7e-4 -1.6664-0.83438-2.4997-2.5-2.5-0.41719 3.1e-4 -1.25 0.20938-2.5 0.625-0.83438 3.1e-4 -2.2922 0.20938-4.375 0.625-4.7e-4 3.1e-4 -0.83438 0.20938-2.5 0.625-1.6672 3.1e-4 -4.1672 0.20781-7.5 0.625l-10.625 0.625-17.5-1.875-13.75-1.875-18.75 0.625-7.5-0.625-6.25 0.625-0.625-1.25 8.125-0.625h30l5.625-1.875 10-0.625 8.125-3.125 5-0.625 11.875-6.875 15-10 21.875-21.875c1.6661-1.6662 3.9578-2.4997 6.875-2.5 1.6661 3.1e-4 4.1661 0.625 7.5 1.875 0.83281-4.1662 1.25-6.2497 1.25-6.25-4.7e-4 -3.7497-1.8755-5.6247-5.625-5.625-0.41719 3.1e-4 -2.7089 0.41719-6.875 1.25l-0.625-4.375-3.75-0.625c-1.6672 0.83438-3.3339 1.8753-5 3.125-1.25 0.83438-2.9172 2.0838-5 3.75l-1.25 2.5-5 4.375-6.875 11.25-13.125 14.375c-3.3338 2.5003-7.0838 4.3753-11.25 5.625v-1.25c-0.41719-1.25 0.83281-2.708 3.75-4.375 10.833-5.833 16.875-15 18.125-27.5l-1.25-9.375c-0.83438-1.6662-2.5005-3.958-5-6.875m-356.88 4.375c-2.0834 2.0838-3.1252 3.9588-3.125 5.625-1.6e-4 3.3338 1.4578 5.0003 4.375 5 2.9166 3.1e-4 4.3748-1.6662 4.375-5-1.6e-4 -1.6662-1.8752-3.5412-5.625-5.625m121.88 13.75-5 5.625-5.625 10-1.875 1.875-6.25 7.5-13.75 12.5-15.625 7.5h-1.875v4.375l7.5-2.5 13.125-8.125 12.5-11.875 5.625-4.375 12.5-13.75c4.1664-4.9997 9.5831-7.4997 16.25-7.5 1.25 3.1e-4 2.9164 0.625 5 1.875l1.25 1.25 1.25 2.5c0.83281 3.3336 1.25 5.2086 1.25 5.625-3.1e-4 2.917-2.9169 6.042-8.75 9.375h5c1.6664 0.41719 4.1664-0.625 7.5-3.125 4.9997-2.9164 7.4997-6.458 7.5-10.625-3.1e-4 -5.4164-1.8753-8.5412-5.625-9.375l-3.75-1.25 3.125-8.75-5.625-1.25-1.875-0.625c-9.1669 3.1e-4 -17.084 4.3753-23.75 13.125m111.88-4.375c5.833 0.41719 10.833 2.0838 15 5l3.125 3.75c1.6662 2.917 2.4995 5.417 2.5 7.5-4.7e-4 2.917-1.667 7.292-5 13.125-2.917 1.667-4.3753 3.1253-4.375 4.375-3.1e-4 1.25 0.41562 3.1253 1.25 5.625 0.83281 2.0836 1.25 3.542 1.25 4.375-3.1e-4 7.0836-0.83438 12.084-2.5 15-1.667 2.5003-2.5003 3.9586-2.5 4.375v1.25c13.75-1.25 20.833-6.4581 21.25-15.625l0.625-8.125-3.75 1.875-5 1.25v-1.875c-4.7e-4 3.1e-4 0.625-0.625 1.875-1.875 1.6662-1.25 3.333-2.9164 5-5 1.6662-2.083 3.1245-4.3747 4.375-6.875 1.6662-2.4997 2.4995-4.7914 2.5-6.875v-1.875c-4.7e-4 -2.9164-0.20938-4.9997-0.625-6.25h-2.5c-0.41719-14.166-6.2505-21.25-17.5-21.25-5.8338 3.1e-4 -10.834 2.7088-15 8.125m-240 5.625c2.9166 4.5836 6.0416 9.167 9.375 13.75 3.3331 4.5836 5.4166 9.792 6.25 15.625-1.6e-4 3.1e-4 -1.6e-4 0.41719 0 1.25 0.41719 0.83281 0.83281 2.292 1.25 4.375l5.625 0.625c-2.0834-13.333-6.8752-24.166-14.375-32.5-7.5002-8.333-15.833-12.5-25-12.5-6.6667 3.1e-4 -12.708 3.3338-18.125 10-5.4167 6.667-8.1252 14.375-8.125 23.125-1.6e-4 18.75 5.4166 36.042 16.25 51.875 1.6666 2.5003 3.3333 3.7503 5 3.75 1.6666 3.1e-4 2.4998-0.83281 2.5-2.5-1.6e-4 -0.83281-1.6667-3.5414-5-8.125-5.0002-5.8331-9.1667-16.041-12.5-30.625-0.41719-2.083-0.83281-3.958-1.25-5.625-1.6e-4 -1.6664-1.6e-4 -3.333 0-5-1.6e-4 -8.333 2.0833-15.625 6.25-21.875 4.5833-6.6662 9.5833-9.9997 15-10h1.875l5 1.25 3.75 1.875 6.25 1.25m85 5 8.75 3.125-0.625 0.625c0.41562 0.83438 0.625 2.5003 0.625 5-1.6e-4 5.417-5.0002 9.5836-15 12.5l-0.625 3.125 6.25-2.5c12.083-4.583 18.125-10.833 18.125-18.75-3.1e-4 -7.083-3.1252-10.625-9.375-10.625-3.7502 3.1e-4 -6.4586 2.5003-8.125 7.5m-109.38-1.25c0.83281 4.167 2.0833 7.0836 3.75 8.75 7.4998 7.5003 13.333 11.25 17.5 11.25 4.9998 3.1e-4 7.4998-1.8747 7.5-5.625-1.6e-4 -3.333-1.4578-6.458-4.375-9.375-1.25 5.8336-3.9584 8.7503-8.125 8.75-5.4167 3.1e-4 -10.833-4.583-16.25-13.75m-4.375 5-2.5 5-0.625 1.875c-1.6e-4 0.83438 3.7498 5.0003 11.25 12.5 17.917 15.417 33.542 23.125 46.875 23.125 1.25 3.1e-4 1.8748-1.25 1.875-3.75-1.6e-4 3.1e-4 -0.41719-2.083-1.25-6.25l-16.25-3.75-9.375-3.75-13.125-8.125-10.625-9.375-6.25-7.5m331.88 4.375 7.5 4.375-1.25 6.25c-6.667 5.417-12.084 8.542-16.25 9.375l-16.25 1.25-0.625 0.625-0.625 2.5 25-3.125c12.5-1.25 18.75-6.458 18.75-15.625-4.7e-4 -6.2497-3.5422-9.3747-10.625-9.375-2.0838 3.1e-4 -3.9588 1.25-5.625 3.75m-93.125 11.25 3.125 0.625c4.1662-4.9997 8.1247-7.4997 11.875-7.5 7.9162 3.1e-4 14.166 4.3753 18.75 13.125l0.625 1.875c0.41562 1.25 0.625 2.917 0.625 5v5c-3.1e-4 0.83281-0.41719 3.3336-1.25 7.5l-5.625 13.125c7.4997-5.4164 11.25-13.125 11.25-23.125-3.1e-4 -7.9164-2.292-14.375-6.875-19.375-4.5838-5.4164-10.209-8.1247-16.875-8.125-7.5003 3.1e-4 -12.709 3.9586-15.625 11.875m181.25-6.25c-4.7e-4 2.0836 1.0406 3.1253 3.125 3.125 3.7495 3.1e-4 5.6245-1.6664 5.625-5-4.7e-4 -2.083-1.25-3.1247-3.75-3.125-3.3339 3.1e-4 -5.0005 1.667-5 5m12.5 14.375 2.5 3.125c2.4995-3.7497 3.7495-6.8747 3.75-9.375-4.7e-4 -3.333-1.4594-4.9997-4.375-5-2.9172 3.1e-4 -4.3755 1.4578-4.375 4.375-4.7e-4 2.917 0.83281 5.2086 2.5 6.875m-200.62-7.5-0.625-0.625c-2.917 3.1e-4 -4.3753 1.4594-4.375 4.375-3.1e-4 3.3336 1.25 5.0003 3.75 5 2.9164 3.1e-4 4.3747-2.083 4.375-6.25-3.1e-4 -0.83281-1.0422-1.6664-3.125-2.5m191.25 0-5 1.875-0.625 1.875-0.625 3.75v1.875c-4.7e-4 1.667 1.8745 3.1253 5.625 4.375l3.75 1.25 0.625-1.875 1.875-1.875v-1.875c-4.7e-4 -3.7497-1.8755-6.8747-5.625-9.375m-180.62 8.75c1.6662 2.917 3.5412 4.3753 5.625 4.375 4.1662 3.1e-4 6.2497-2.2914 6.25-6.875-3.1e-4 -2.9164-1.667-4.3747-5-4.375-4.5838 3.1e-4 -6.8753 1.8753-6.875 5.625v1.25m165.62-6.25c-0.41719 0.41719-0.625 1.667-0.625 3.75-4.7e-4 1.25 0.625 1.8753 1.875 1.875 2.0828 3.1e-4 3.1245-0.83281 3.125-2.5-4.7e-4 -2.4997-1.25-3.7497-3.75-3.75l-0.625 0.625m-404.38 5.625c1.25 0.83438 3.1248 2.5003 5.625 5 7.0833 5.8336 10.625 10.834 10.625 15-1.6e-4 0.41719-0.20781 1.25-0.625 2.5-1.6e-4 1.25-0.20781 2.9169-0.625 5-4.1667 2.5003-6.2502 4.5836-6.25 6.25-1.6e-4 2.0836 2.0833 3.1253 6.25 3.125 7.9166 3.1e-4 11.875-3.9581 11.875-11.875-1.6e-4 -5.4164-4.1667-11.041-12.5-16.875-1.25-0.41719-3.1252-1.6664-5.625-3.75l-3.125-3.125-6.25-5 0.625 3.75m393.12-1.875c-1.6672 2.917-2.5005 5.6253-2.5 8.125-4.7e-4 3.3336 1.8745 5.0003 5.625 5 3.7495 3.1e-4 5.6245-2.4997 5.625-7.5-4.7e-4 -3.333-1.0422-4.9997-3.125-5-2.5005 3.1e-4 -3.9589 0.20938-4.375 0.625l-1.25-1.25m-139.38 8.75-15.625 5.625c-5.417 1.667-8.1253 4.792-8.125 9.375-3.1e-4 1.6669 1.0406 3.5419 3.125 5.625l-0.625 2.5c-10.417 1.6669-18.75 5.4169-25 11.25-4.5836 2.5003-6.8753 4.7919-6.875 6.875-3.1e-4 1.25 1.0406 2.5003 3.125 3.75l4.375 0.625c7.9164-5.4164 13.541-8.5414 16.875-9.375l5-1.25c2.4997-1.25 4.3747-1.8747 5.625-1.875l0.625 0.625c0.41562 3.1e-4 0.83281 0.20938 1.25 0.625-0.83438 3.3336-1.25 5.2086-1.25 5.625-3.1e-4 4.1669 5.208 6.2503 15.625 6.25 4.1662 3.1e-4 6.8747-0.20781 8.125-0.625l20.625-5 8.125 1.875c2.9162 0.41719 4.3745 2.0836 4.375 5-4.7e-4 5.8336-5.417 9.3753-16.25 10.625 4.1662 2.9169 7.708 4.3753 10.625 4.375 10.833 3.1e-4 16.25-5.4164 16.25-16.25-4.7e-4 -2.0831-1.0422-4.7914-3.125-8.125l-1.25-2.5c1.6662-0.83281 2.9162-1.6664 3.75-2.5-0.41719-0.41562-0.83438-0.83281-1.25-1.25-4.7e-4 -0.41719-0.41719-1.0406-1.25-1.875l-2.5-1.875-4.375-2.5c-5.8338-2.4997-9.3755-3.7497-10.625-3.75h-1.875c-1.25 0.41719-3.9588 1.0422-8.125 1.875-3.7503 0.41719-7.0838 1.8753-10 4.375-3.3338 0.83438-5.2088 1.4578-5.625 1.875-3.3338 1.25-5.8338 1.8753-7.5 1.875-2.917 3.1e-4 -4.3753-1.4578-4.375-4.375-3.1e-4 -3.7497 4.1662-5.6247 12.5-5.625 6.2497-6.6664 9.3747-14.166 9.375-22.5-3.1e-4 -3.7497-0.83438-5.6247-2.5-5.625l-11.25 6.25m-51.25-4.375-4.375 2.5c-0.83438 0.83438-2.0836 1.667-3.75 2.5l-5 5.625c-2.917 3.3336-6.2503 6.4586-10 9.375-3.3336 2.9169-5.2086 6.2503-5.625 10l3.75 5 2.5 2.5 12.5 13.125 6.875 8.125 5.625 5 1.25 1.875 5 6.875 3.125 2.5 1.25 1.25 10 11.875 7.5 7.5 6.25 6.875 21.875 24.375 1.875 2.5 1.875 0.625 3.125 3.75c1.6662 1.6669 3.333 2.5002 5 2.5l5-0.625-93.125-100.62c-2.917-1.6664-4.3753-3.7497-4.375-6.25-3.1e-4 -1.25 0.83281-2.7081 2.5-4.375l8.75-7.5 3.125-3.75 4.375-3.75 2.5-6.875 0.625-2.5m28.75 8.75 0.625-1.25h1.875c0.83281 3.1e-4 1.25-0.83281 1.25-2.5-3.1e-4 -3.333-1.4594-4.9997-4.375-5-2.917 3.1e-4 -4.3753 1.667-4.375 5-3.1e-4 1.667 1.6664 2.917 5 3.75m178.12-5-0.625 0.625c-3.7505 1.25-5.6255 3.1253-5.625 5.625-4.7e-4 3.7503 2.0828 5.6253 6.25 5.625 4.9995 3.1e-4 7.4995-1.25 7.5-3.75-4.7e-4 -2.083-1.25-4.3747-3.75-6.875l-3.75-1.25m11.25 6.875c0.41562 2.5003 1.6661 4.167 3.75 5l1.25 1.875c5.4161-0.41719 8.1245-2.9164 8.125-7.5-4.7e-4 -4.1664-1.4594-6.2497-4.375-6.25h-1.25l-0.625 0.625-6.875 6.25m-294.38-3.75c-2.9169 0.83281-6.4586 3.542-10.625 8.125-4.1669 4.5836-6.6669 8.9586-7.5 13.125l7.5-0.625c-1.6e-4 6.2503 2.0831 9.3753 6.25 9.375 3.3331 3.1e-4 4.9998-1.0422 5-3.125-1.6e-4 3.1e-4 -1.0422-1.6664-3.125-5-0.83438-0.83281-1.25-1.8747-1.25-3.125v-1.875l2.5-3.125 1.25-3.125 6.25-3.75 5-2.5 1.875-0.625 14.375-0.625 1.25-1.25 0.625-1.25c-0.41719-0.41562-0.83438-0.625-1.25-0.625-0.41719-0.41719-0.83438-0.83281-1.25-1.25h-3.75c-6.6669-1.25-11.25-1.4578-13.75-0.625l-9.375 1.875m-136.88 75.625c0.41719-16.666 7.4998-27.5 21.25-32.5l12.5-4.375c9.9998-3.3331 17.5-12.291 22.5-26.875-0.41719-0.41719-1.4578-0.625-3.125-0.625-3.3334 3.1e-4 -5.8334 3.3336-7.5 10-0.83281 2.5003-2.0834 4.5836-3.75 6.25l-3.75 1.875-23.125 10.625c-13.333 6.2503-20 17.084-20 32.5-1.6e-4 11.667 1.4578 17.5 4.375 17.5 2.0833 1.6e-4 3.1248-1.4578 3.125-4.375-1.6e-4 1.6e-4 -0.20781-0.83281-0.625-2.5-0.41719-1.6664-1.0422-4.1664-1.875-7.5m300.62-60.625-0.625 1.875c-4.7e-4 1.6669 2.4995 2.5003 7.5 2.5h16.25l8.75 1.875 15 1.875 25 10c2.0828 0.83281 6.2495 3.3336 12.5 7.5l5 3.75 3.75 3.125 2.5 1.875 9.375 8.75 7.5 9.375 1.25 1.875 0.625 0.625 6.875 11.875 1.25 3.125c1.25 2.9169 2.4995 6.8752 3.75 11.875 1.6661 5.0002 3.3328 11.459 5 19.375-4.7e-4 0.83281-4.7e-4 1.6669 0 2.5 0.41562 0.83281 0.83281 2.0834 1.25 3.75v6.875c-4.7e-4 10.833-1.25 20.208-3.75 28.125v0.625c-0.83438 1.6669-1.8755 3.7502-3.125 6.25-0.83438 2.0834-2.0839 4.7917-3.75 8.125-0.41719 1.25-1.6672 2.9167-3.75 5-5.8339 13.333-16.875 20-33.125 20-3.3338 1.6e-4 -8.3338-1.8748-15-5.625l-1.875-1.25c-4.1672-5.4166-6.2505-10.208-6.25-14.375-4.7e-4 -11.25 5.6245-16.875 16.875-16.875 2.0828 1.6e-4 4.7912 1.25 8.125 3.75l0.625 1.875c-4.1672 2.5002-6.2505 6.0417-6.25 10.625-4.7e-4 6.2502 3.7495 9.3752 11.25 9.375 5.8328 1.6e-4 9.7911-4.1666 11.875-12.5-3.3339 2.0834-5.0005 3.1252-5 3.125-0.41719 1.6e-4 -2.2922-1.0422-5.625-3.125-0.41719-0.41719-0.625-1.0422-0.625-1.875-4.7e-4 -1.6666 0.20781-2.7083 0.625-3.125v-2.5c-4.7e-4 -8.3331-6.2505-12.5-18.75-12.5-3.3338 1.6e-4 -6.8755 1.25-10.625 3.75l-6.25 6.875c-2.9172 5.4167-4.7922 10.833-5.625 16.25l-5-1.875v5l1.875 6.875 1.25 2.5h0.625l1.875 2.5 2.5 1.875c2.9162 2.9167 6.6662 4.5834 11.25 5l-1.875 5.625 2.5 3.75 2.5 1.25c5.8328 3.3334 10.833 5.0002 15 5 5.4162 1.6e-4 8.5412-0.41719 9.375-1.25l2.5-3.125 4.375-2.5-1.875 8.75c11.666-1.6666 19.583-6.8748 23.75-15.625l5.625-11.875h0.625c2.0828 1.6e-4 3.5411 0.20781 4.375 0.625v2.5c-4.7e-4 1.25-2.9172 7.2917-8.75 18.125-0.41719 0.83281-1.0422 2.2917-1.875 4.375-0.83438 1.6667-2.0839 4.1667-3.75 7.5 0.41562 1.25 1.8745 2.2917 4.375 3.125 3.3328 2.5 4.9995 5.4167 5 8.75-4.7e-4 5.8334-2.7089 9.5834-8.125 11.25l-8.125 1.875c-0.41719 2.0834-0.83438 3.75-1.25 5-4.7e-4 1.25-4.7e-4 2.2917 0 3.125-4.7e-4 2.5 0.625 5.2084 1.875 8.125l0.625 1.875c1.6661-2.9166 3.5411-4.7916 5.625-5.625l3.75 8.75 1.875 2.5c2.9161 2.9167 6.0411 4.375 9.375 4.375 7.9161 0 11.666-2.7083 11.25-8.125v-3.125h-3.125l-5-3.75c-3.7505-4.1666-5.6255-9.5833-5.625-16.25-4.7e-4 -4.1666 0.625-8.125 1.875-11.875l13.75-50.625c1.25-4.1666 1.6661-9.9998 1.25-17.5v-13.125c-0.83438-33.333-5.6255-58.333-14.375-75-8.7505-17.083-26.042-33.75-51.875-50l-15-6.875-6.25-1.875c-9.5838-3.3331-17.5-5.2081-23.75-5.625l-7.5-0.625-6.875-1.25-19.375-0.625-3.75 3.75m127.5 3.125h1.25c2.4995 3.1e-4 3.7495-1.25 3.75-3.75-4.7e-4 -2.0831-1.25-3.1247-3.75-3.125-2.5005 3.1e-4 -3.7505 0.83438-3.75 2.5-4.7e-4 1.25 0.83281 2.7086 2.5 4.375m-16.25-6.25c-2.0839 0.83438-3.1255 2.7086-3.125 5.625-4.7e-4 3.7503 2.2911 5.6253 6.875 5.625 3.7495 3.1e-4 5.6245-1.4578 5.625-4.375-4.7e-4 -4.5831-2.5005-6.8747-7.5-6.875h-1.875m-55 0.625 18.125 7.5c3.3328 1.6669 6.2495 3.1253 8.75 4.375 2.9162 1.25 5.2078 2.5003 6.875 3.75l5.625 3.75 15 9.375c1.6661 0.83438 3.3328 2.2919 5 4.375 2.0828 1.6669 4.5828 3.5419 7.5 5.625 2.9161 1.6669 6.0411 2.5003 9.375 2.5 9.5828 3.1e-4 14.375-4.7914 14.375-14.375-4.7e-4 -8.7497-3.9589-13.125-11.875-13.125-2.0839 3.1e-4 -3.9589 0.83281-5.625 2.5 6.2495 2.0836 9.3745 4.5836 9.375 7.5-4.7e-4 4.5836-2.9172 6.8753-8.75 6.875-3.7505 3.1e-4 -9.3755-1.6664-16.875-5l-12.5-7.5-7.5-3.125-13.125-8.125c-5.0005-2.9164-12.917-5.2081-23.75-6.875m-45 10.625 6.875 1.875 13.75 0.625c5.833 3.1e-4 14.583 3.9586 26.25 11.875l2.5 2.5c1.25 3.3336 1.8745 5.8336 1.875 7.5-4.7e-4 3.7503-2.9172 5.6253-8.75 5.625-3.3338 3.1e-4 -7.9172-1.6664-13.75-5 4.1662 9.1669 10.625 13.75 19.375 13.75 9.5828 1.6e-4 14.375-4.1664 14.375-12.5-4.7e-4 -8.3331-5.2088-14.375-15.625-18.125l-6.25-2.5-5.625-2.5c-2.0838-0.41719-4.5838-0.83281-7.5-1.25-2.5005-0.41562-5.8338-1.0406-10-1.875l-5-0.625c-6.2505-1.25-9.792-1.4578-10.625-0.625l-1.875 1.25m-266.88 47.5 3.125 5.625 2.5 3.125c1.6666-1.6664 2.4998-3.5414 2.5-5.625-0.41719-0.83281-0.83281-1.6664-1.25-2.5-1.6e-4 -0.83281-0.41719-1.6664-1.25-2.5l-5-6.25-6.25-7.5-3.125-3.125c-5.8334-4.5831-9.3752-6.8747-10.625-6.875-2.5002 3.1e-4 -3.7502 0.83438-3.75 2.5-1.6e-4 1.25 3.3333 3.9586 10 8.125 2.9166 2.0836 7.2916 7.0836 13.125 15m181.25-18.75c0.41562 1.6669 1.0406 2.5003 1.875 2.5 0.83281 3.1e-4 2.9164-0.625 6.25-1.875 3.333-1.25 6.2497-1.8747 8.75-1.875 3.7497 3.1e-4 8.5412 1.6669 14.375 5 1.6662 2.9169 2.4997 5.4169 2.5 7.5-3.1e-4 6.6669-4.3753 10.209-13.125 10.625 4.1662 1.25 7.708 1.8752 10.625 1.875 3.333 1.6e-4 6.458-1.25 9.375-3.75 3.333-2.4998 4.9997-5.4164 5-8.75-3.1e-4 -11.666-7.917-17.5-23.75-17.5-6.2503 3.1e-4 -13.542 2.0836-21.875 6.25m-73.75-2.5-1.875 0.625-5 4.375-39.375 37.5-0.625 10.625-0.625 4.375c-1.6e-4 2.9169 1.25 4.3752 3.75 4.375 1.6664 1.6e-4 2.2914-0.625 1.875-1.875v-15.625l5-4.375 36.25-33.125 3.75-5.625-3.125-1.25m231.25 6.25-1.25 1.875c4.1662 0.83281 7.9162 2.0836 11.25 3.75l-1.875 0.625c1.25 2.0836 1.8745 3.7502 1.875 5-4.7e-4 5.4169-4.3755 8.1252-13.125 8.125-1.6672 1.6e-4 -4.1672-0.41719-7.5-1.25l-18.125-8.75-6.875-2.5c-1.6672-0.41719-3.7505-1.0406-6.25-1.875-9.167-2.0831-15.417-3.1247-18.75-3.125-2.917 3.1e-4 -6.042 0.83281-9.375 2.5l6.875 0.625 8.75 0.625 15 4.375 30 16.25c2.9162 1.6669 6.4578 2.5002 10.625 2.5 11.666 1.6e-4 17.5-5.8331 17.5-17.5-4.7e-4 -3.7498-1.8755-7.2914-5.625-10.625-1.6672-1.6664-3.7505-2.4997-6.25-2.5h-2.5l-4.375 1.875m-327.5 10 0.625 0.625 0.625 1.875c0.41719 0.83281 0.625 2.5002 0.625 5-1.6e-4 4.5836-2.2919 8.1252-6.875 10.625-4.1669 2.0836-6.4584 3.3336-6.875 3.75-0.41719 0.41719-0.83281 2.0836-1.25 5 13.333-3.3331 20-10.208 20-20.625-1.6e-4 -1.25-1.0422-4.5831-3.125-10l-4.375-4.375-8.75-1.875 1.25 3.75 8.125 6.25m-25 26.25v-6.25c-8.3334-2.4998-12.708-8.3331-13.125-17.5l1.875-3.75 4.375-2.5 3.125-3.75c-0.83281-0.41562-2.0834-0.625-3.75-0.625-7.5002 3.1e-4 -11.25 4.5836-11.25 13.75-1.6e-4 11.25 6.2498 18.125 18.75 20.625m373.75-30.625 3.75 8.75 2.5 2.5c6.6661 10.417 9.9995 21.25 10 32.5-4.7e-4 6.6669-2.0839 13.333-6.25 20-3.3339 4.5834-7.7089 6.6669-13.125 6.25h-2.5l-3.75-3.125c-1.6672-4.5831-2.5005-8.1248-2.5-10.625-4.7e-4 -3.3331 1.4578-7.0831 4.375-11.25-4.5838 2.5002-8.3338 5.8336-11.25 10-2.5005 7.5002-3.7505 11.458-3.75 11.875l0.625 1.25c0.41562 3.3334 1.0406 5.8334 1.875 7.5 0.41562 5.0002 4.9995 7.5002 13.75 7.5 0.41562-0.41719 1.4578-0.625 3.125-0.625l5-2.5v10l6.25-3.125c7.0828-3.7498 11.458-13.958 13.125-30.625v-8.75c0.41562-16.25-6.6672-32.083-21.25-47.5m-383.12 13.125 1.875 1.875c8.3333-7.4998 12.5-11.458 12.5-11.875-1.6e-4 -2.0831-1.4578-3.1247-4.375-3.125-1.25 3.1e-4 -3.3334 1.4578-6.25 4.375-2.5002 2.5002-3.7502 4.3752-3.75 5.625v3.125m251.88-1.875-5.625 2.5-3.75 3.125-5 3.125 1.25 10.625 0.625-0.625 13.75-8.75c9.1662-6.6664 22.083-9.9998 38.75-10 15.416 1.6e-4 29.791 4.1669 43.125 12.5l6.25 5.625 5 8.125c2.4995 5.8336 3.7495 10.625 3.75 14.375-4.7e-4 5.0002-2.0838 9.5834-6.25 13.75-2.5005 2.5002-4.7922 3.7502-6.875 3.75-2.9172 1.6e-4 -4.7922-0.20781-5.625-0.625 2.4995-2.9166 3.7495-4.9998 3.75-6.25-4.7e-4 -1.25-1.0422-3.5416-3.125-6.875-0.83438-0.41719-1.8755-0.83281-3.125-1.25-0.83438-0.41719-1.8755-0.83281-3.125-1.25l-4.375-0.625-21.25 1.25-8.75-3.125-3.125-0.625-7.5-8.75c-1.25-1.25-1.8755-3.5414-1.875-6.875l0.625-5.625c-7.0838 2.5002-10.625 6.4586-10.625 11.875-3.1e-4 0.41719 1.0406 4.1669 3.125 11.25l3.125 4.375h-8.125l3.75 8.125 5 3.125c5.4162 4.1669 10.833 6.2502 16.25 6.25h0.625l19.375-1.875c3.333-0.83281 4.9995 0.83281 5 5-4.7e-4 4.1669-2.7088 6.2502-8.125 6.25-0.83438 1.6e-4 -2.0838 1.6e-4 -3.75 0-1.667-0.41719-3.542-0.83281-5.625-1.25-5.8338-2.9166-11.25-4.3748-16.25-4.375-7.0838 1.6e-4 -13.334 3.1252-18.75 9.375l-1.25 7.5 9.375-0.625v1.875c-4.7e-4 0.41719-1.4594 1.8752-4.375 4.375-2.5003 2.5002-3.7503 7.0834-3.75 13.75-3.1e-4 2.0834 1.0406 5.8334 3.125 11.25 2.9162 2.5002 6.458 3.7502 10.625 3.75-1.25-5.4166-1.8755-8.9583-1.875-10.625-4.7e-4 -4.9998 1.8745-8.1248 5.625-9.375l8.75-3.75c2.9162-1.6666 4.9995-2.4998 6.25-2.5l26.875-1.25c8.3328-0.83281 12.5-3.3331 12.5-7.5l0.625-3.125-1.25-8.75 11.875-5c7.9162-2.9166 11.875-11.25 11.875-25-4.7e-4 -12.083-5.8338-23.125-17.5-33.125l-10-6.875c-1.25-0.83281-2.9172-1.6664-5-2.5-1.6672-0.83281-3.542-1.6664-5.625-2.5-2.5005 1.6e-4 -6.8755-0.83281-13.125-2.5l-11.25-1.875-5-0.625-18.75 1.875-16.875 5.625-4.375 1.875m-115.62 7.5c-1.6669 1.6669-2.5003 3.5419-2.5 5.625-3.1e-4 1.6e-4 0.41719 1.6669 1.25 5l3.125-5.625 1.25-5 7.5-10.625-0.625-2.5-2.5-1.25-7.5 14.375m-125-6.875c1.6666 4.5836 2.4998 9.1669 2.5 13.75-1.6e-4 1.6669-0.625 4.5836-1.875 8.75 4.9998-4.1664 7.4998-8.5414 7.5-13.125-1.6e-4 -4.1664-0.20781-6.4581-0.625-6.875l-3.75-5.625-3.75 3.125m138.75-1.25c-4.5836 5.8336-8.3336 13.75-11.25 23.75l2.5 2.5c2.4997 0.83438 3.5414 1.25 3.125 1.25-3.1e-4 1.6e-4 1.0406-2.0831 3.125-6.25 2.0831-4.5831 3.3331-7.2914 3.75-8.125 2.4997-2.4998 3.7497-4.1664 3.75-5-3.1e-4 -2.0831-1.6669-4.7914-5-8.125m149.38 15.625 1.25 2.5 1.875 2.5-0.625 5.625v2.5l-4.375 5v0.625c-4.7e-4 1.6669 1.25 2.5002 3.75 2.5 4.1662 1.6e-4 6.8745-0.83281 8.125-2.5 1.25-1.6664 1.8745-4.7914 1.875-9.375 4.583 1.6e-4 6.8745-0.83281 6.875-2.5-4.7e-4 -4.5831-4.167-8.7498-12.5-12.5-8.3338-3.7498-14.375-5.6248-18.125-5.625l-2.5 0.625-5.625 0.625-23.125 6.875-10 5.625c-2.5003 1.25-3.7503 2.7086-3.75 4.375-3.1e-4 1.25 0.625 1.8752 1.875 1.875 1.6662-1.25 3.7497-2.7081 6.25-4.375 2.9162-1.6664 6.0412-3.5414 9.375-5.625l6.25-1.875c4.583-1.6664 8.333-2.4998 11.25-2.5 8.7495 1.6e-4 16.041 1.8752 21.875 5.625m-197.5 3.75c-1.6e-4 2.5002 1.25 5.0002 3.75 7.5 2.4998 2.0836 3.5414 4.5836 3.125 7.5v1.875c4.1664-2.4998 6.2498-4.9998 6.25-7.5-1.6e-4 -0.41719-0.41719-1.0406-1.25-1.875l-6.875-6.875c-0.83438-0.83281-1.25-1.6664-1.25-2.5-1.6e-4 -2.4998 1.6664-3.7498 5-3.75-1.6e-4 1.6e-4 0.625 0.41719 1.875 1.25 1.25 0.41719 3.1248 1.0422 5.625 1.875l1.875 3.75 1.25 5.625v11.875l-1.875 4.375-0.625 5.625 3.125 2.5 3.125 3.125 1.875 2.5 1.25 1.25 3.75 7.5c7.0831-12.083 10.625-20 10.625-23.75-3.1e-4 -3.7498-1.8753-8.1248-5.625-13.125l-2.5 3.125c-0.83438-0.41562-1.8753-0.625-3.125-0.625v-8.75c-0.41719-9.1664-5.6253-13.75-15.625-13.75-3.3336 1.6e-4 -6.4586 1.4578-9.375 4.375-2.9169 2.5002-4.3752 4.7919-4.375 6.875m-113.12-8.75c-9.1667 13.334-13.958 23.542-14.375 30.625l-1.875 20.625c-0.41719 5.4169 0.625 8.1252 3.125 8.125 1.6666 1.6e-4 2.4998-1.0422 2.5-3.125v-17.5c-1.6e-4 -3.7498 0.625-7.4998 1.875-11.25 1.6666-3.7498 3.1248-7.0831 4.375-10 1.6666-3.3331 3.1248-6.0414 4.375-8.125 1.6666-2.0831 2.4998-3.5414 2.5-4.375-1.6e-4 -1.6664-0.83281-3.3331-2.5-5m172.5 1.25-4.375 6.25c-5.8336 7.5002-8.9586 13.75-9.375 18.75l-0.625 9.375 3.75-1.875 5.625-16.875 8.125-11.25-3.125-4.375m-124.38 6.875-5.625 5h6.25l-0.625-5m-45.625 3.75-2.5 5.625c8.7498 5.0002 17.917 7.5002 27.5 7.5 3.3331 1.6e-4 7.9166-0.625 13.75-1.875l0.625 0.625 3.125-1.875h6.875v-4.375c-0.83281-0.83281-2.0834-1.25-3.75-1.25-2.0834 1.6e-4 -5.8334 0.41719-11.25 1.25-5.0002 0.83438-8.9584 1.25-11.875 1.25-6.6667 1.6e-4 -14.167-2.2914-22.5-6.875m164.38 20c4.9997-7.4998 9.5831-11.25 13.75-11.25 1.25 0.41719 2.083 0.83438 2.5 1.25 0.83281 1.6e-4 1.25 1.6e-4 1.25 0l5 3.75-1.25-7.5c-0.41719-1.6664-2.5003-2.9164-6.25-3.75-7.0836 1.6e-4 -12.084 5.8336-15 17.5m-63.75-8.125v1.25c-1.6e-4 2.9169 2.2914 5.4169 6.875 7.5 2.9164 0.83281 6.2498 2.5002 10 5l6.875 5 8.75 7.5 5.625 5c-8.7503-15.833-21.459-26.25-38.125-31.25m-102.5 1.875-3.125 3.75v5c-1.6e-4 4.1669 1.25 6.2502 3.75 6.25 0.41719-0.41719 0.83281-0.625 1.25-0.625 0.41719 1.6e-4 0.83281-0.20781 1.25-0.625l8.75-0.625 12.5-5 5-1.875 6.25-2.5-5-0.625c-2.9169 1.6e-4 -7.5002 1.4578-13.75 4.375-3.3334 0.83281-5.2084 1.25-5.625 1.25-2.5002 1.6e-4 -5.2084-0.83281-8.125-2.5l-3.125-6.25m43.75 1.25c-3.3334 30.833-13.125 46.25-29.375 46.25h-8.125c-1.25 0.83281-2.0834 1.0422-2.5 0.625l-5-3.125c-1.25 1.6e-4 -1.8752 0.83281-1.875 2.5-1.6e-4 4.1669 5.2083 6.2502 15.625 6.25 9.9998 1.6e-4 18.542-4.7916 25.625-14.375 7.0831-9.5831 10.625-21.042 10.625-34.375-1.6e-4 -2.9164-1.25-4.3748-3.75-4.375l-1.25 0.625m25 0.625c-1.25 0.41719-2.9169 0.625-5 0.625h-3.75c-3.3334 1.6e-4 -5.4169 0.41719-6.25 1.25-0.83281 0.41719-1.25 2.2919-1.25 5.625v0.625c5.4166-1.6666 11.667-2.4998 18.75-2.5 22.5 1.6e-4 42.708 8.9584 60.625 26.875l1.25 1.25 3.125 3.75 1.875 1.875 2.5 1.25v-7.5l-3.125-1.875-11.875-10.625c-0.83438-0.83281-3.9586-2.9166-9.375-6.25l-1.875-1.25c-2.0836-1.6666-3.9586-2.7081-5.625-3.125-10.417-5.8331-23.75-9.1664-40-10m-32.5 4.375-8.75 2.5-2.5 1.875c-5.0002 0.83281-9.1667 2.9169-12.5 6.25-20.833 10-31.25 27.292-31.25 51.875-1.6e-4 12.083 3.7498 22.083 11.25 30 7.4998 7.9167 16.875 11.875 28.125 11.875 9.1666 0 16.667-2.9166 22.5-8.75 5.8331-6.2498 8.7498-14.167 8.75-23.75-1.6e-4 -12.917-7.0834-20.625-21.25-23.125h-8.75c-7.5002 3.7502-11.25 6.4584-11.25 8.125-1.6e-4 2.0834 1.8748 3.1252 5.625 3.125 2.9166 1.6e-4 4.7916-0.20781 5.625-0.625l0.625 1.25v-1.25l-1.25 2.5c-3.3334 0.41719-6.0417 2.0834-8.125 5-1.6667 2.9167-2.5002 5.6252-2.5 8.125-1.6e-4 10.417 4.7916 15.625 14.375 15.625 1.25 1.6e-4 3.5416-1.0422 6.875-3.125-5.0002-3.7498-7.5002-7.7083-7.5-11.875-1.6e-4 -5.8333 2.2916-8.7498 6.875-8.75 1.25 1.6e-4 4.3748 1.0422 9.375 3.125 2.0831 5.0002 3.1248 7.7084 3.125 8.125-1.6e-4 13.333-8.3334 20-25 20-9.1667 1.6e-4 -16.667-3.5416-22.5-10.625-5.8334-7.4998-8.7502-16.667-8.75-27.5-1.6e-4 -6.2498 0.625-11.042 1.875-14.375l5.625-10 1.875-5 10.625-10.625 10.625-6.25 7.5-3.125c2.0831-0.83281 4.1666-1.4578 6.25-1.875 2.0831-0.41719 4.1666-1.0422 6.25-1.875 0.83281-0.83281 1.25-2.2916 1.25-4.375v-2.5h-3.125m130 14.375h-1.875c-2.0836 1.6e-4 -3.3336-2.0831-3.75-6.25l-3.75 3.125-5 8.125-1.875 3.75c-6.2503 12.083-9.1669 22.083-8.75 30l0.625 5v17.5l1.875 7.5 1.875 6.875 0.625 1.875 3.125 7.5 2.5 5.625c0.41719 0.41719 0.625 1.4578 0.625 3.125-3.1e-4 2.9167-1.0422 4.375-3.125 4.375-3.7503 0-6.6669-4.7916-8.75-14.375-2.0836-11.667-3.1253-17.292-3.125-16.875v-30.625c-3.1e-4 -3.3331-1.4578-6.2498-4.375-8.75-6.6669-6.6666-9.7919-9.9998-9.375-10-1.6669 1.6e-4 -2.5002 1.4578-2.5 4.375l-1.25 18.125-1.25 5v10h0.625v6.875c-1.6e-4 5.8334 1.6664 15.417 5 28.75l1.25 3.75c0.41719 0.41719 0.625 0.83281 0.625 1.25l0.625 0.625c2.9164 0.83281 6.8747 2.7084 11.875 5.625l4.375 3.75c0.83281 4.1667 1.25 6.0417 1.25 5.625-3.1e-4 0.83281-1.0422 2.9167-3.125 6.25-2.0836 0.83281-3.3336 1.4578-3.75 1.875-3.1e-4 3.75 3.9581 5.625 11.875 5.625l-0.625 1.25 2.5 3.75c5.4164 11.667 12.291 17.5 20.625 17.5 2.0831 0 3.5414-1.0422 4.375-3.125l-1.25-2.5c-6.6669-4.1666-10.834-10.208-12.5-18.125 6.2497-4.1666 9.3747-10.833 9.375-20v-1.25l-12.5-37.5c-0.41719-0.83281-0.625-6.4583-0.625-16.875-3.1e-4 -11.25 2.7081-21.25 8.125-30 5.4164-9.1666 11.25-13.75 17.5-13.75 4.9997 1.6e-4 7.4997 2.0834 7.5 6.25-3.1e-4 2.0834-0.625 3.1252-1.875 3.125l-10 1.875c-2.5003 0.41719-4.7919 2.2919-6.875 5.625-1.25 2.0834-1.8753 3.9584-1.875 5.625v3.75c1.25 4.1669 3.7497 6.4584 7.5 6.875-0.83438-4.1666-1.25-6.2498-1.25-6.25-3.1e-4 -1.25 0.41719-2.9166 1.25-5 1.25-2.0831 2.4997-3.3331 3.75-3.75l11.25-2.5c4.583-0.83281 6.8747-4.3748 6.875-10.625-3.1e-4 -4.1666-1.25-6.8748-3.75-8.125l-4.375-1.875 3.125-5 1.25-3.75c-2.917-1.6666-5.8336-2.4998-8.75-2.5-6.2503 1.6e-4 -10.209 0.83281-11.875 2.5-1.25 1.6669-2.0836 2.7084-2.5 3.125l-4.375 1.875-3.125 4.375m-100.62-8.75-3.125 0.625h-1.25c-2.5002-0.83281-4.1669-0.41719-5 1.25l-0.625 3.125 0.625 15.625v20.625l1.25 5.625-0.625 36.875c-1.6e-4 11.25-4.3752 18.333-13.125 21.25l-15 5.625c-2.0834 0.83281-3.1252 1.875-3.125 3.125-1.6e-4 3.3334 2.0831 4.7917 6.25 4.375h1.25l10.625-0.625h16.25l39.375-1.25 29.375 1.25c3.7497 0 5.6247-1.0422 5.625-3.125-3.1e-4 -2.5-4.3753-4.7916-13.125-6.875l-11.875-3.125c-9.1669-3.75-14.375-9.3748-15.625-16.875l-1.875-8.75 0.625-39.375h-9.375c-8.3336-5.8331-12.5-12.5-12.5-20-1.6e-4 -5.4166 3.7498-11.25 11.25-17.5l-16.25-1.875m-30.625 4.375-3.75 0.625c-15.417 4.1669-23.125 10.417-23.125 18.75-1.6e-4 5.0002 2.2916 7.5002 6.875 7.5 1.6666 1.6e-4 3.5416-1.0422 5.625-3.125-3.3334-2.0831-5.0002-4.3748-5-6.875-1.6e-4 -2.9166 0.625-4.7916 1.875-5.625l3.75-2.5 5-3.125 3.75-1.875 5-3.75m46.25 3.125c-3.7502 3.7502-6.0419 7.7084-6.875 11.875v2.5c1.25 3.7502 3.1248 7.2919 5.625 10.625 5.4164 2.0834 8.5414 3.1252 9.375 3.125 1.6664 1.6e-4 2.7081-0.20781 3.125-0.625l3.125-1.875-5-1.25c-5.0002-1.25-7.5002-5.4166-7.5-12.5-1.6e-4 -5.8331 4.3748-8.7498 13.125-8.75 12.083 1.6e-4 24.791 7.2919 38.125 21.875l1.875 1.875 2.5 1.25v-1.875c-3.1e-4 1.6e-4 -0.625-0.625-1.875-1.875s-2.9169-3.1248-5-5.625c-0.83438-0.83281-1.4578-1.25-1.875-1.25-1.6669-3.3331-5.2086-6.6666-10.625-10l-8.125-5c-2.9169-1.6666-6.0419-2.9166-9.375-3.75-2.9169-1.25-6.0419-2.0831-9.375-2.5-0.41719 0.41719-1.25 0.625-2.5 0.625l-8.75 3.125m128.75-2.5-3.125 7.5c-3.7503 10.833-5.6253 22.708-5.625 35.625-3.1e-4 4.1667 0.625 9.5834 1.875 16.25 2.4997 10 3.958 16.25 4.375 18.75 0.83281 2.5002 2.083 5.4167 3.75 8.75l1.875 5 3.75 8.125 3.125 5.625 3.125 2.5c1.25 3.3334 3.333 5.625 6.25 6.875-0.83438-1.6666-1.667-3.3333-2.5-5-0.83438-2.0833-1.667-4.1666-2.5-6.25l-2.5-13.125-6.25-15c-3.7503-8.7498-5.6253-21.25-5.625-37.5-3.1e-4 -3.3331 0.20781-5.4166 0.625-6.25l3.75-18.125 0.625-3.125 1.875-3.75c-0.41719 0.41719-2.7086-1.8748-6.875-6.875m31.25 19.375-1.25 1.875c-2.917 4.1669-4.3753 7.5002-4.375 10-3.1e-4 1.6669 1.0406 4.1669 3.125 7.5 4.9997-17.5 13.333-26.25 25-26.25l17.5-0.625 6.875-1.25c-8.3338-2.4998-15.625-3.7498-21.875-3.75-2.917 1.6e-4 -4.5838 0.20781-5 0.625l-10.625 3.125c-0.41719 0.41719-1.4594 1.25-3.125 2.5-1.25 1.25-3.3338 3.3334-6.25 6.25m-147.5-9.375v11.25c-1.6e-4 2.0834 1.0422 3.1252 3.125 3.125 2.0831 1.6e-4 3.1248-1.25 3.125-3.75l-0.625-5v-5l-3.75-1.25-1.875 0.625m-3.125 0c-2.5002 2.0834-3.7502 4.1669-3.75 6.25v1.25l0.625 1.875 3.75 3.125-0.625-12.5m158.12 13.75-0.625 2.5c6.6662 1.6669 9.9997 4.7919 10 9.375-3.1e-4 1.6669-1.25 4.3752-3.75 8.125l10 10 3.75 4.375 4.375 3.75 14.375 16.25 6.875 8.125 1.875 0.625 2.5 3.125 7.5 8.75 3.75 2.5c2.083 2.9167 5.833 5.8334 11.25 8.75l65 0.625 18.125 1.25c2.9161 0.41719 4.3745-1.0422 4.375-4.375-4.7e-4 -3.3333-1.4594-4.7916-4.375-4.375h-1.25l-6.875-0.625-23.75-3.125-14.375-3.125-6.875-3.75-2.5-1.25-9.375-7.5-19.375-23.125-1.875-1.25-2.5-2.5c-4.7e-4 1.6e-4 -0.625-0.625-1.875-1.875-1.25-1.6666-2.5005-3.3333-3.75-5-1.25-1.6666-2.5005-3.1248-3.75-4.375-1.25-1.25-2.0838-1.8748-2.5-1.875-0.83438 1.6e-4 -2.917 1.0422-6.25 3.125-4.167 1.6667-6.2505 4.5834-6.25 8.75-4.7e-4 3.3334 0.20781 5.4167 0.625 6.25l5 5c-3.3338 1.25-5.6255 1.8752-6.875 1.875-2.917 1.6e-4 -5.8338-0.83281-8.75-2.5-6.2503-2.9166-9.3753-7.9166-9.375-15-3.1e-4 -3.3333 0.83281-7.7083 2.5-13.125l-1.25-0.625c-1.25-2.9166-1.8753-5.4166-1.875-7.5-3.1e-4 -3.3331 2.083-8.3331 6.25-15l-5-0.625h-1.875c-1.25 1.6e-4 -3.3338 0.625-6.25 1.875l-5.625 1.25-9.375 6.25m-3.75 13.75 3.75 3.125h0.625c2.9162 1.6e-4 4.3747-1.6666 4.375-5-3.1e-4 -3.3331-1.667-4.9998-5-5-2.917 1.6e-4 -4.167 1.4578-3.75 4.375v2.5m-150.62 25.625v7.5c-0.41719 3.3334 0.625 8.5417 3.125 15.625 1.6664 2.9167 3.5414 5.0002 5.625 6.25l2.5 1.875v-1.25c-0.41719-0.41719-0.83438-0.625-1.25-0.625-0.41719-0.41719-0.83438-0.83281-1.25-1.25-2.9169-8.3333-4.3752-19.583-4.375-33.75-1.6e-4 -4.5833-1.6e-4 -8.9583 0-13.125 0.41719-4.5831 0.83281-8.9581 1.25-13.125h-1.25l-3.75 2.5c-1.25 1.25-1.4578 3.3334-0.625 6.25 0.41719 1.25 0.625 4.3752 0.625 9.375v5c-0.41719 1.25-0.625 4.1667-0.625 8.75m132.5-29.375c-2.5003 0.83281-3.7503 2.5002-3.75 5-3.1e-4 2.0834 0.83281 3.3334 2.5 3.75l1.25 0.625c2.4997-0.41719 4.3747-1.0422 5.625-1.875-3.1e-4 -4.9998-1.4594-7.4998-4.375-7.5h-1.25m16.875 8.75c-0.41719-0.41719-0.83438-0.625-1.25-0.625-2.917 1.6e-4 -4.3753 1.4578-4.375 4.375-3.1e-4 4.1667 2.083 6.2502 6.25 6.25 3.333 1.6e-4 4.9997-1.4578 5-4.375-3.1e-4 -2.4998-1.8753-4.3748-5.625-5.625m61.875 1.25 2.5 1.875 7.5 8.75 2.5 1.875 2.5 3.125 4.375 3.75 1.25 2.5 5 4.375 0.625 1.25 8.125 10 7.5 6.25c5.4162 3.7502 8.9578 5.8334 10.625 6.25 1.6662 0.41719 3.7495 0.625 6.25 0.625l-6.25-3.75-12.5-11.25-11.875-13.75-6.875-7.5-5.625-6.25-3.125-3.125-4.375-5c-1.25-1.25-2.292-1.8748-3.125-1.875h-1.875l-1.25 0.625-1.875 1.25m-137.5 6.875c-2.5003 5.0002-3.7503 9.5834-3.75 13.75-3.1e-4 11.25 3.5414 16.875 10.625 16.875 0.83281 1.6e-4 2.2914-0.41719 4.375-1.25 2.083-1.25 3.5414-1.8748 4.375-1.875 0.83281 1.6e-4 2.2914 1.25 4.375 3.75 0.41719 0.83281 0.625 2.7084 0.625 5.625-3.1e-4 1.6667-2.917 5.4167-8.75 11.25h5c4.9997 0 7.4997-2.2916 7.5-6.875l-0.625-10 0.625-3.125v-0.625c-3.1e-4 -1.6666-2.7086-4.3748-8.125-8.125l-11.25 1.25c-2.9169-2.9166-4.3753-5.4166-4.375-7.5-3.1e-4 -7.4998 2.9164-11.25 8.75-11.25 7.083 1.6e-4 12.5 5.6252 16.25 16.875l2.5 5.625c4.9997 15.417 11.458 25.833 19.375 31.25l-2.5-5.625-5-8.75c-0.83438-1.25-2.0836-3.9583-3.75-8.125-1.25-4.5833-3.3336-10.625-6.25-18.125-4.5836-14.583-11.042-21.875-19.375-21.875l-2.5 1.25-8.125 5.625m50.625 21.875 3.125 7.5c-0.41719-3.3333-0.83438-6.0416-1.25-8.125-3.1e-4 -2.4998-3.1e-4 -4.1666 0-5-3.1e-4 -4.5833 2.083-8.9583 6.25-13.125-3.1e-4 1.6e-4 0.625 0.41719 1.875 1.25 1.6664 0.41719 3.958 1.25 6.875 2.5 0.83281-0.83281 1.25-1.4578 1.25-1.875-3.1e-4 -4.9998-3.542-7.4998-10.625-7.5-6.2503 1.6e-4 -9.3753 4.5834-9.375 13.75v0.625c-3.1e-4 2.5002 0.625 5.8334 1.875 10m-216.88-21.25h-1.875c-2.0834 1.6e-4 -3.1252 2.0834-3.125 6.25-1.6e-4 4.5834 1.8748 6.8752 5.625 6.875 3.3333 1.6e-4 4.9998-2.0833 5-6.25-1.6e-4 -4.5833-1.8752-6.8748-5.625-6.875m238.12 22.5-3.75-1.25-0.625-1.875-4.375-2.5c-3.7503 8.3334-5.417 15.625-5 21.875v3.75c0.41719 1.25 0.83281 2.9167 1.25 5 0.41719 1.6667 1.0406 3.5417 1.875 5.625l6.25 10.625c6.2497 7.5 14.166 13.125 23.75 16.875 1.6662 0.41719 3.7497 1.0422 6.25 1.875v1.875c-3.1e-4 2.5-0.83438 3.75-2.5 3.75h-2.5c-1.25 0-2.5003-0.20781-3.75-0.625l-3.75-1.25-10-3.75-4.375-3.125-1.875-1.25c-2.0838-2.0833-4.167-3.75-6.25-5-2.0836-1.6666-4.167-3.3333-6.25-5-8.3336-3.75-14.792-5.625-19.375-5.625-7.0836 0-10.625 0.83281-10.625 2.5-3.1e-4 0.83281 1.25 2.7084 3.75 5.625l1.875 1.875-5.625 3.125c-5.417 2.5-8.1253 6.25-8.125 11.25-3.1e-4 6.25 3.5414 10.625 10.625 13.125 1.25-9.1666 8.7497-13.75 22.5-13.75 3.7497 0 15.416 3.3334 35 10 12.083 3.3333 29.583 5 52.5 5h4.375c28.75 0.83281 49.791-3.5417 63.125-13.125l13.125-9.375c3.7495-2.5 5.6245-4.375 5.625-5.625l-0.625-1.25h-13.75l-13.75 7.5-7.5 2.5-8.125 3.125c-7.9172 1.6667-15.209 2.9167-21.875 3.75-6.667 0.41719-12.709 0.625-18.125 0.625-6.2505 0-10.834-0.625-13.75-1.875l-5.625-1.25-5-1.25-4.375-2.5-1.875 0.625-2.5-0.625-13.125-6.875-3.125-3.125-11.875-13.75c-1.25-3.75-1.8753-7.2916-1.875-10.625-3.1e-4 -6.25 1.8747-11.875 5.625-16.875 4.1662-5.4166 8.7497-8.1248 13.75-8.125 0.41562 1.6e-4 3.1247 1.0422 8.125 3.125 0.83281 4.1667 1.25 6.0417 1.25 5.625-3.1e-4 1.6667-1.4594 3.7502-4.375 6.25-6.2503 7.0834-9.3753 12.708-9.375 16.875-3.1e-4 13.75 7.708 20.625 23.125 20.625 5.833 0 9.1662-2.2916 10-6.875-2.917 0.41719-5.0005 1.0422-6.25 1.875l-5.625 3.125h-1.25c-9.5838 0-14.375-6.0416-14.375-18.125-3.1e-4 -4.5833 0.625-6.875 1.875-6.875l8.75-8.75c1.6662-1.6666 3.1247-5.2083 4.375-10.625-0.41719-4.1666-2.917-6.8748-7.5-8.125l-0.625-1.25v-1.25c-3.1e-4 -1.25-1.0422-2.2916-3.125-3.125-7.0838-2.0833-11.667-3.1248-13.75-3.125-4.5838 1.6e-4 -10.209 3.3334-16.875 10m-255.62 5.625 5 9.375 21.875 20.625c2.9166 2.9167 4.3748 8.5417 4.375 16.875-1.6e-4 11.667-5.0002 17.5-15 17.5-6.6667 0-10-2.7083-10-8.125-1.6e-4 -0.83281 0.41719-1.6666 1.25-2.5l10.625-9.375c1.6666-1.25 2.4998-3.5416 2.5-6.875-1.6e-4 -10-4.5834-15-13.75-15-3.7502 0-6.4584 2.5-8.125 7.5 3.3333-2.0833 6.0416-3.125 8.125-3.125 0.83281 0 2.2916 0.625 4.375 1.875 2.0833 1.25 3.1248 2.7084 3.125 4.375-1.6e-4 0.41719-0.41719 2.7084-1.25 6.875l-4.375 3.75-5 0.625c-5.0002 0-7.5002 4.5834-7.5 13.75-1.6e-4 1.6667 0.20781 2.7084 0.625 3.125l3.75 5 2.5 3.75c1.25 1.25 4.5833 2.0833 10 2.5l5 0.625h1.25c6.6666 0.83281 12.292-2.9167 16.875-11.25 2.4998-4.5833 3.5416-8.125 3.125-10.625v-0.625l-1.25-6.875-0.625-5-3.125-5-4.375-6.875-25.625-22.5-4.375-4.375m300 24.375c-2.0838 0.83281-3.1253 2.0834-3.125 3.75-3.1e-4 5.4167 1.6662 8.125 5 8.125 2.9162 0 4.3745-1.875 4.375-5.625-4.7e-4 -4.1666-1.8755-6.25-5.625-6.25h-0.625m16.25 1.25c-2.0838 0.83281-3.1255 2.5-3.125 5-4.7e-4 3.3334 1.4578 5 4.375 5 3.333 0 4.9995-2.0833 5-6.25-4.7e-4 -2.5-1.8755-3.75-5.625-3.75h-0.625m109.38 0.625-1.25 6.875c-1.6672 1.6667-4.3755 2.5-8.125 2.5 1.6661 0 1.6661 0 0 0-1.6672-0.41719-4.7922-0.83281-9.375-1.25l-10.625-0.625h5l-61.25 1.25c-4.7e-4 2.9167 5.4162 4.7917 16.25 5.625h0.625l40-1.875 21.875 1.875c7.0828 0.83281 10.625-1.6666 10.625-7.5-4.7e-4 -0.83281-0.625-2.9166-1.875-6.25l-1.875-0.625m-273.12 3.75c-1.6669 4.1667-4.5836 6.25-8.75 6.25h-3.125c-0.83281-0.41719-2.2919-0.83281-4.375-1.25-3.3336-0.41719-7.0836-0.625-11.25-0.625-3.7502-0.41719-8.3336-0.625-13.75-0.625-13.334 0-36.458 0.625-69.375 1.875v1.875l3.75 3.125 64.375-1.875c2.0831-0.41719 4.1664-0.41719 6.25 0 2.4998 0 5.2081 0.20781 8.125 0.625 11.25 1.25 17.5 1.875 18.75 1.875 7.0831 0 10.625-2.0833 10.625-6.25-3.1e-4 -1.6666-0.20781-2.9166-0.625-3.75l-0.625-1.25m161.88 18.75c-4.7e-4 2.9167 1.6662 4.375 5 4.375 3.7495 0 5.6245-1.875 5.625-5.625-4.7e-4 -3.3333-1.4594-5-4.375-5-4.167 0-6.2505 2.0834-6.25 6.25m73.125-5h-4.375c-1.25 0.41719-2.2922 0.83281-3.125 1.25-0.83438 0.41719-1.6672 0.83281-2.5 1.25-6.2505 3.75-13.959 5.625-23.125 5.625-4.5838 0-6.8755-2.5-6.875-7.5v-1.25l-1.25-0.625v0.625l-3.75 1.875c-1.25 0.83281-1.8755 2.2917-1.875 4.375-4.7e-4 4.5834 3.333 6.875 10 6.875 15 0 27.291-4.1666 36.875-12.5m-279.38 0.625c-10.417 0.41719-15.625 2.2917-15.625 5.625v1.25h4.375v3.125l-1.875 5h-0.625c-1.6e-4 9.5833 5.4164 14.375 16.25 14.375 8.7498 0 13.541-3.5417 14.375-10.625-4.5836 3.3333-7.7086 5-9.375 5-8.3336 0-12.5-3.3333-12.5-10-1.6e-4 -5.8333 4.5831-8.75 13.75-8.75 7.9164 0 22.708 6.4584 44.375 19.375 3.3331 2.0833 5.6247 3.125 6.875 3.125l1.25-0.625 1.25-1.25-10.625-5-28.125-16.875-11.875-3.75-6.25-0.625h-4.375l-1.25 0.625m-54.375 0.625c-6.2502 3.3334-9.3752 7.9167-9.375 13.75-1.6e-4 10.417 6.2498 15.625 18.75 15.625 11.667 0 20.833-5.8333 27.5-17.5-0.41719-0.41719-1.4578-0.625-3.125-0.625-0.83281 0-2.0834 1.25-3.75 3.75-1.6669 2.5-4.3752 4.375-8.125 5.625-8.3334 2.0833-12.292 3.125-11.875 3.125-2.5002 0-5.8334-1.4578-10-4.375-1.6669-2.9166-2.5002-5.2083-2.5-6.875-1.6e-4 -5 2.2916-7.5 6.875-7.5h0.625l3.125 0.625 3.125 3.75 0.625 3.75c2.9166-0.41719 4.3748-1.25 4.375-2.5-1.6e-4 -5.8333-1.4578-8.9583-4.375-9.375l-9.375-1.25h-2.5m353.75 7.5c-2.0839 1.6667-3.7505 2.9167-5 3.75-0.83438 0.83281-1.4594 1.4578-1.875 1.875-2.0838 2.0834-3.3338 4.7917-3.75 8.125 1.6662 5 3.9578 7.5 6.875 7.5 0.41562 0 2.2911-0.41719 5.625-1.25-3.7505-2.9167-5.6255-5.625-5.625-8.125-4.7e-4 -1.6666 1.6661-5.4166 5-11.25l-1.25-0.625m-345.62-426.88 2.5 3.125 1.875-3.125h-4.375m-4.375 3.75-2.5 0.625v-2.5l2.5 1.875m-6.875 4.375-1.25-3.75-2.5 3.125 3.75 0.625m-10 0.625 1.875-0.625 0.625 1.875h-3.125l0.625-1.25m161.25 3.125-1.25 5.625c-0.41719 2.0838-0.83438 3.9588-1.25 5.625-3.1e-4 1.25-3.1e-4 2.7088 0 4.375l2.5 11.875c-3.3336-3.333-5.0003-6.8745-5-10.625-3.1e-4 -11.25 1.25-16.875 3.75-16.875h1.25m-167.5 0 3.125 1.875-3.125 1.25v-3.125m168.75 5.625v7.5-7.5m208.12 7.5c4.5828 4.7e-4 7.7078 2.7088 9.375 8.125l-3.125-1.875c-1.25-2.9162-3.1255-4.583-5.625-5h1.25l-1.875-1.25m-239.38 10.625 1.25-0.625 0.625 1.25-1.25 0.625-5.625 0.625-0.625 2.5 20.625 6.875-22.5-2.5-3.125 1.25-5.625 3.75-1.875-1.25c3.3331-3.333 6.4581-5.4162 9.375-6.25v-1.875c-3.3336 0.83438-5.0003 1.25-5 1.25-1.6669 4.7e-4 -2.5003-0.625-2.5-1.875-3.1e-4 -0.41562 0.625-1.0406 1.875-1.875l5.625-2.5 8.75 0.625m-150.62 9.375-1.875-0.625c-0.41719 0.41719-0.83281 1.0422-1.25 1.875-0.41719 0.83438-1.0422 1.8755-1.875 3.125-1.6e-4 1.25 0.20781 1.8755 0.625 1.875-1.6e-4 4.7e-4 0.20781-0.41562 0.625-1.25 0.83281-1.25 2.0833-2.9162 3.75-5m189.38-4.375 4.375 1.875v1.875c0.83281 2.5005 1.4578 4.5838 1.875 6.25-0.41719-0.41562-0.625 1.0422-0.625 4.375v1.25c-1.25 4.7e-4 -1.8753-1.8745-1.875-5.625-3.1e-4 -1.6662-1.25-4.9995-3.75-10m-72.5 30-1.875 0.625c2.4998 4.7e-4 2.2914-0.83281-0.625-2.5h-2.5c-12.084-4.1662-17.5-5.833-16.25-5-1.6e-4 4.7e-4 2.2914 1.0422 6.875 3.125 5.4164 2.917 10.208 4.167 14.375 3.75l-5-1.875-5.625-0.625 5 3.125 5.625-0.625m71.25-2.5-3.75-2.5c-3.1e-4 2.0838 0.20781 3.1255 0.625 3.125l3.125-0.625m135 3.75-0.625-0.625-1.25 1.875-3.75-0.625c-1.25 4.7e-4 -1.8755-0.41562-1.875-1.25-4.7e-4 -0.83281 0.83281-1.25 2.5-1.25 1.25 4.7e-4 2.9162 0.625 5 1.875m-4.375 4.375 20.625 8.125-24.375-6.25h1.875l-1.875-1.25 3.75-0.625m60 11.875-13.125 3.75-7.5 6.25-6.25 11.875 5.625-8.75 21.25-13.125m-36.25 15.625c0.41562 0.41719 0.625 3.1e-4 0.625-1.25-1.6672-1.6662-2.7088-2.4997-3.125-2.5l-2.5 3.125v1.25c-4.7e-4 2.0838 0.41562 3.1253 1.25 3.125 1.25 3.1e-4 2.4995-0.83281 3.75-2.5 1.25-1.6662 1.4578-2.4997 0.625-2.5l-0.625 1.25m-236.88-0.625-0.625 4.375-3.125 7.5 0.625-6.875 3.125-5m227.5 13.125-1.875 1.25-5 0.625-0.625-1.875h7.5m-13.75 2.5 5.625 3.125 8.75 0.625-7.5 1.25v-1.875h1.25c-0.41719 0.41719-0.625 0.83438-0.625 1.25 0.41562 0.41719 0.20781 0.625-0.625 0.625-2.917 3.1e-4 -5.2088-0.625-6.875-1.875v-3.125m39.375 38.75c1.6662 3.1e-4 3.5412 1.0422 5.625 3.125l-1.25 2.5h-1.875l-2.5-5.625m-3.125 3.75 2.5 4.375-2.5-0.625c-0.83438-0.83281-1.25-1.6664-1.25-2.5l1.25-1.25m-118.12 37.5 3.75 2.5-2.5 0.625h-3.125l-0.625-0.625c-0.83438-0.83281-1.25-1.6664-1.25-2.5-3.1e-4 -0.41562-3.1e-4 -1.0406 0-1.875 0.41562-1.25 0.83281-2.9164 1.25-5l2.5 6.875m44.375-3.75-8.125 0.625-8.75 1.875c1.6662-2.9164 4.583-4.3747 8.75-4.375h5.625l2.5 1.875m-136.88 88.125c-0.41719-0.83281-0.625 0.20938-0.625 3.125-3.1e-4 2.0834-0.625 4.5834-1.875 7.5h-1.875c0.41719-2.0831 0.625-3.7498 0.625-5 0.41719-1.6666 0.625-2.9166 0.625-3.75-3.1e-4 -3.3331-0.20781-5.6248-0.625-6.875h1.25l2.5 5m151.25 4.375 34.375 0.625-13.75 3.125c-4.5838 0.83281-11.459-0.41719-20.625-3.75m33.125 15c1.25 2.5002 1.8745 4.3752 1.875 5.625-4.7e-4 2.0834-1.4594 4.5834-4.375 7.5l-2.5-0.625c2.083-4.9998 3.1245-7.9166 3.125-8.75v-1.25c-2.0838-1.25-3.3338-2.4998-3.75-3.75 0.41562-0.41719 1.4578-0.625 3.125-0.625l2.5 1.875m6.25 8.125h1.25l0.625 1.25c-4.7e-4 0.41719-0.83438 0.625-2.5 0.625-1.25 1.6e-4 -1.8755-1.6666-1.875-5l2.5 3.125m-33.125 8.75c-1.667 1.6e-4 -4.3755-0.41719-8.125-1.25-3.7505-1.25-6.667-1.8748-8.75-1.875-3.3338 1.6e-4 -6.4588 1.4578-9.375 4.375h-2.5c-3.1e-4 -3.7498 1.8747-6.0416 5.625-6.875l5.625-1.25 3.125-0.625 14.375 7.5m-1.875 3.125-13.125-3.125c-3.7505 0.41719-6.667 2.0834-8.75 5h-1.25l7.5-2.5h4.375l11.25 0.625m-160 2.5c0.41719 1.6e-4 1.25-1.0422 2.5-3.125 1.25-2.4998 2.2914-4.5831 3.125-6.25 0.83281-2.0831 1.25-3.3331 1.25-3.75l-4.375 16.25c-0.41719 1.25-0.83438 2.9169-1.25 5-0.41719 1.6669-0.83438 3.9584-1.25 6.875l-0.625 6.875v3.75h-1.875v-12.5c-3.1e-4 -0.83281-3.1e-4 -1.6666 0-2.5 0.41719-0.83281 0.83281-2.0831 1.25-3.75l1.25-6.875m8.125 13.75-3.125 7.5h-2.5v-3.75l2.5-2.5c0.41719-0.41719 0.83281-0.625 1.25-0.625 0.83281 1.6e-4 1.4578-0.20781 1.875-0.625m273.12 1.875 4.375 0.625c1.25 2.5002 1.8745 4.1667 1.875 5-4.7e-4 0.83281-0.83438 1.25-2.5 1.25-0.41719-0.41719-0.83438-0.83281-1.25-1.25-0.41719-0.83281-1.0422-1.6666-1.875-2.5l-0.625-3.125m2.5 9.375-1.25 2.5h-2.5v-1.875c-0.83438 1.6e-4 -1.6672-0.41719-2.5-1.25 0.41562-0.41719 0.83281-0.625 1.25-0.625 0.41562-0.41719 0.83281-0.83281 1.25-1.25l3.75 2.5m-8.75 6.875 1.25-2.5 2.5 0.625 1.875 1.875 4.375 5c-2.0839 1.6e-4 -3.5422 0.20781-4.375 0.625l3.125-0.625-1.875-0.625-4.375-5-2.5 0.625m-178.75 24.375 5.625-7.5c-2.0838 4.5834-3.9588 12.083-5.625 22.5-0.83438-2.5-1.25-3.5416-1.25-3.125-3.1e-4 -4.5833 0.41562-8.5416 1.25-11.875m-78.75 19.375c-2.0836 3.3334-6.6669 5-13.75 5h4.375l-4.375 0.625c-2.0836 0-3.3336-1.25-3.75-3.75l5 0.625 4.375-3.125 8.125 0.625m0 5.625-6.25 3.75-2.5 1.875h1.25l-3.75 1.25-2.5-1.875 3.125-1.25 2.5-3.125 8.125-0.625m49.375 7.5c3.7497 0 7.4997 1.25 11.25 3.75 0.83281 0.83281 1.6664 1.4578 2.5 1.875 0.83281 0.41719 1.6664 1.0422 2.5 1.875 5.4162 4.1667 8.1247 7.5 8.125 10l-7.5-8.75-8.125-3.75-3.125-1.875-5.625-1.25v-1.875m58.125 16.25 4.375 1.25c0.41562 0.83281 0.625 2.2917 0.625 4.375-3.1e-4 1.25-2.292 2.2917-6.875 3.125l4.375-1.875-4.375 1.875 3.75-4.375-1.25-3.125-0.625-1.25m10 4.375 3.125 3.125-1.875 3.75-3.75 0.625 2.5-7.5m7.5 2.5c1.6662 0.41719 2.4995 1.0422 2.5 1.875-4.7e-4 2.0833-1.4594 3.3333-4.375 3.75l1.875-5.625m5 5 3.125-3.125-0.625 3.75-2.5-0.625m10-2.5-1.875 4.375c-0.41719-0.41719-0.625-1.0422-0.625-1.875-4.7e-4 -1.6667 0.625-2.5 1.875-2.5h0.625"
         fill="#8f0005"
         id="path13" />
    </g>
  </g>
</svg>
