<?xml version="1.0" encoding="UTF-8" standalone="no"?>
<svg
   xmlns:dc="http://purl.org/dc/elements/1.1/"
   xmlns:cc="http://creativecommons.org/ns#"
   xmlns:rdf="http://www.w3.org/1999/02/22-rdf-syntax-ns#"
   xmlns:svg="http://www.w3.org/2000/svg"
   xmlns="http://www.w3.org/2000/svg"
   xmlns:sodipodi="http://sodipodi.sourceforge.net/DTD/sodipodi-0.dtd"
   xmlns:inkscape="http://www.inkscape.org/namespaces/inkscape"
   version="1.1"
   viewBox="0 0 500 500"
   id="svg21"
   sodipodi:docname="william-morris-letter-q.svg"
   inkscape:version="1.0.2 (1.0.2+r75+1)">
  <metadata
     id="metadata25">
    <rdf:RDF>
      <cc:Work
         rdf:about="">
        <dc:format>image/svg+xml</dc:format>
        <dc:type
           rdf:resource="http://purl.org/dc/dcmitype/StillImage" />
      </cc:Work>
    </rdf:RDF>
  </metadata>
  <sodipodi:namedview
     pagecolor="#ffffff"
     bordercolor="#666666"
     borderopacity="1"
     objecttolerance="10"
     gridtolerance="10"
     guidetolerance="10"
     inkscape:pageopacity="0"
     inkscape:pageshadow="2"
     inkscape:window-width="1920"
     inkscape:window-height="1016"
     id="namedview23"
     showgrid="false"
     inkscape:zoom="1.686"
     inkscape:cx="255.33808"
     inkscape:cy="250"
     inkscape:window-x="0"
     inkscape:window-y="27"
     inkscape:window-maximized="1"
     inkscape:current-layer="svg21" />
  <defs
     id="defs7">
    <linearGradient
       id="linearGradient847"
       x1="500"
       x2="0"
       y1="500"
       y2="-4.2633e-14"
       gradientUnits="userSpaceOnUse">
      <stop
         stop-color="#ff6700"
         offset="0"
         id="stop2" />
      <stop
         stop-color="#ffd700"
         offset="1"
         id="stop4" />
    </linearGradient>
  </defs>
  <path
     d="m 201.07,39.146 -45.053,10.762 -53.682,32.084 -37.957,58.088 -14.469,40.682 -3.3555,33.551 1.0488,40.473 2.3066,39.633 11.115,29.986 19.711,42.57 20.971,20.76 c 0,0 43.616,28.52 46.133,29.568 1.9176,0.799 2.2502,7.4971 2.3008,10.672 l 5.248,-2.4941 10.275,4.8223 39.609,-19.5 -41.57,-15.785 -43.299,-43.297 -27.875,-80.664 c 0,0 6.5234,-80.072 6.5234,-85.41 0,-5.338 20.166,-59.312 20.166,-59.312 l 38.553,-43.891 c 0,0 48.635,-16.014 51.008,-17.793 2.3725,-1.7794 40.332,2.373 40.332,2.373 l -21.945,-20.76 -26.096,-7.1172 z m 78.885,1.7793 -4.7461,0.5918 2.373,18.387 48.043,21.945 24.91,23.133 39.74,53.975 13.641,49.82 0.68164,3.7852 c 8.7109,-0.83808 24.869,-1.1856 24.869,-1.1856 l 23.328,-9.2539 -1.5762,-4.1699 -6.2285,-23.131 -16.162,-47.301 -36.182,-28.471 -46.262,-30.248 -7.7109,-10.084 -58.719,-17.793 z m 175.65,168.65 0.0703,0.75 -16.566,6.7109 -29.568,6.291 c 0,0 -1.2761,0.27926 -2.8926,0.61719 l 3.7891,21.012 -3.3281,22.191 13.262,6.5 c 0,0 18.61,-1.1859 19.648,-1.5566 1.0015,-0.35767 15.031,-7.2361 16.051,-7.7363 l -0.60547,-33.688 0.79101,-19.371 -0.65039,-1.7207 z m -2.3398,73.576 -12.729,4.6562 -18.238,2.9668 -18.49,-1.6289 -0.48828,3.2598 -18.387,57.533 -21.354,34.4 -40.926,28.469 c 0,0 -55.159,8.304 -62.869,7.7109 -1.9707,-0.15158 -6.2178,-0.75002 -11.17,-1.4961 l -19.674,11.283 -35.316,17.947 16.492,-5.3711 19.502,3.9844 96.252,22.857 64.588,12.793 43.408,-6.9219 27.051,-18.873 15.098,-21.809 2.5176,-30.615 -10.695,-1.0488 c 0,0 -7.9697,14.47 -11.115,17.406 -3.1455,2.9358 -11.743,12.791 -20.76,12.791 -9.017,0 -39.213,5.4512 -39.213,5.4512 l -37.326,-12.582 20.76,-11.951 29.777,-23.697 12.791,-21.389 16.146,-34.182 12.373,-39.633 1.9941,-12.312 z m -337.16,159.16 -35.16,3.9277 c 0,0 0.38862,2.0984 0.72461,3.9082 4.3624,-0.83134 10.397,-1.9886 21.73,-4.1973 l 12.705,-3.6387 z m -19.656,36.883 -8.7148,0.50781 c 0.33992,1.2363 0.6112,2.0067 0.76172,1.9766 0.15203,-0.0304 4.8265,-1.5047 7.9531,-2.4844 z"
     fill="#f4eee6"
     id="path11" />
  <g
     id="g19">
    <g
       transform="translate(-146.86,-119.79)"
       id="g17">
      <path
         d="m146.86 619.79v-500h500v500h-500m7.5-7.5h485v-485h-485v485m7.5-7.5v-469.38h469.38v469.38h-469.38m20-464.38-2.5 1.875c-1.25 0.83438-2.2917 1.4594-3.125 1.875l-0.625 0.625c-0.41719 0.83438-1.0422 2.2922-1.875 4.375-0.41719 2.0838-1.0422 4.7922-1.875 8.125l-2.5-1.875h-1.25c-0.83281 4.7e-4 -1.6667 1.0422-2.5 3.125v0.625-1.25 8.125l0.625 2.5 0.625 1.25c3.3333 7.5005 8.7498 11.667 16.25 12.5l-1.25 3.125c-2.0834 1.25-3.1252 2.5005-3.125 3.75-1.6e-4 3.3338 1.4578 5.0005 4.375 5l7.5 1.25 1.25 1.25h0.625c1.25 4.7e-4 2.7083-0.83281 4.375-2.5 5.4166-6.2495 8.7498-9.3745 10-9.375l1.25-0.625h1.25l3.125 3.125c0.83281 2.0838 1.25 3.1255 1.25 3.125-1.6e-4 0.83438-1.0422 2.292-3.125 4.375l-6.25 4.375-3.125 3.125c0.83281 2.5005 1.25 3.542 1.25 3.125-1.6667 2.0838-3.3334 5.2088-5 9.375l-3.125-2.5-1.25 9.375h1.25c2.9166-0.83281 4.5833 4.7e-4 5 2.5-1.25 5.8338-1.8752 8.9588-1.875 9.375-1.6e-4 2.5003 0.20781 3.7503 0.625 3.75l1.25 1.25 3.125 3.75c0.83281 0.83437 2.0833 1.25 3.75 1.25 8.3331 3.1e-4 14.583-4.583 18.75-13.75 2.9166-6.6662 5.8331-13.333 8.75-20 3.3331-7.083 8.3331-11.041 15-11.875-3.3334-2.083-5.2084-3.1245-5.625-3.125-2.5002 4.7e-4 -5.8334 2.5005-10 7.5-1.6669 1.667-2.9169 3.7505-3.75 6.25l-4.375 13.75c-1.6669 6.667-5.4169 10-11.25 10-5.0002 3.1e-4 -7.5002-2.9162-7.5-8.75-1.6e-4 -6.2495 4.5833-12.708 13.75-19.375l1.25 0.625-0.625-1.25c2.0831-1.6662 4.1666-3.333 6.25-5 2.4998-1.6662 5.2081-3.5412 8.125-5.625 9.5831-6.2495 14.375-12.916 14.375-20-1.6e-4 -0.41562-1.0422-3.7495-3.125-10-2.5002-3.3328-5.2084-4.9995-8.125-5-6.6669 4.7e-4 -15.833 3.9588-27.5 11.875l-5.625 1.875c-5.8334 1.25-10 1.8755-12.5 1.875-8.7502 4.7e-4 -13.125-4.7912-13.125-14.375-1.6e-4 -7.0828 2.9166-10.625 8.75-10.625 2.9166 4.7e-4 5.4166 1.25 7.5 3.75l4.375 7.5c0.41719 1.6672 2.4998 2.5005 6.25 2.5 3.3333 4.7e-4 6.8748-1.0406 10.625-3.125 3.7498-2.4995 5.6248-5.4162 5.625-8.75v-2.5c-5.0002 6.2505-9.3752 9.3755-13.125 9.375-3.7502 4.7e-4 -6.8752-1.6662-9.375-5l-6.25-9.375-5.625-2.5h-6.25m240.62 2.5h-1.25c-1.25 4.7e-4 -3.1253 2.0838-5.625 6.25l-3.125 3.125c-1.667 4.7e-4 -3.3336-1.8745-5-5.625-4.167 5.4172-6.2503 11.459-6.25 18.125-3.1e-4 2.0838 0.625 4.5838 1.875 7.5l4.375 5.625 4.375 5 5 3.125c1.6662 0.41719 2.4997 1.25 2.5 2.5-3.1e-4 1.667-1.25 2.5005-3.75 2.5-2.0838 4.7e-4 -4.3753-0.625-6.875-1.875v3.125l1.875 4.375 1.25 5 5.625 6.25 5.625 5 6.875 3.75v3.125h-10l0.625 2.5 9.375 7.5 8.75 5.625 5 2.5 5.625 4.375 4.375 3.75 3.75 3.75-1.25-0.625 3.75 4.375c6.2495 7.5003 11.875 21.042 16.875 40.625l1.25 5.625 0.625 12.5h-1.25c-0.83281-2.083-1.667-4.1664-2.5-6.25-0.83438-2.4997-1.4578-4.7914-1.875-6.875l-2.5-19.375-3.75-8.75c-1.667-4.1662-3.9588-8.1247-6.875-11.875-2.5003-3.7497-5.6253-7.708-9.375-11.875v0.625l-14.375-9.375-8.125-6.25-3.75-1.875-1.25-1.25c-5.417-4.1662-10.625-6.2495-15.625-6.25-2.5003 4.7e-4 -5.417 0.41719-8.75 1.25l-6.875 4.375-9.375 1.875c1.25 4.5838 3.7497 7.0838 7.5 7.5l0.625 6.875-1.25 1.25v5l-0.625 5 1.875 4.375c2.9164 5.0003 6.6664 7.5003 11.25 7.5 2.083 3.1e-4 4.3747-1.4578 6.875-4.375-6.667-1.6662-10-4.7912-10-9.375-3.1e-4 -8.333 5.208-12.5 15.625-12.5 2.4997 3.1e-4 6.6662 1.25 12.5 3.75l18.75 13.125 9.375 12.5 2.5 4.375 10 19.375 2.5 8.125 5 19.375c1.6662 7.0836 2.4995 14.375 2.5 21.875-4.7e-4 15-2.7088 30.625-8.125 46.875-4.7e-4 4.5836 0.83281 6.8752 2.5 6.875 4.1662 1.6e-4 7.4995-7.0831 10-21.25l2.5-12.5 0.625-11.25v-35l-4.375-31.875-3.75-16.875-7.5-20.625-4.375-9.375-7.5-11.875-4.375-9.375-26.25-33.75c-5.0003-6.6662-7.5003-13.125-7.5-19.375-3.1e-4 -10.416 4.1662-15.625 12.5-15.625 3.7497 4.7e-4 8.5412 4.1672 14.375 12.5l3.75 3.125 9.375-1.25 6.875-7.5c1.6662-2.4995 4.1662-3.7495 7.5-3.75 5.833 4.7e-4 8.7495 2.2922 8.75 6.875-4.7e-4 2.0838-0.83437 4.5838-2.5 7.5 4.583-3.3328 6.8745-6.4578 6.875-9.375-4.7e-4 -7.0828-4.3755-10.625-13.125-10.625-3.3338 4.7e-4 -6.667 1.6672-10 5-2.917 2.9172-6.2503 4.5838-10 5-3.3338-2.0828-6.4588-5.4162-9.375-10-1.25-1.6662-2.5003-2.9162-3.75-3.75l-12.5-1.875h-1.875l-3.75 1.875m-40 15.625-0.625-4.375c-3.1e-4 -4.1662 1.25-6.2495 3.75-6.25 2.083 4.7e-4 4.7914 1.0422 8.125 3.125l0.625-3.125c-3.1e-4 -4.1662-2.917-6.2495-8.75-6.25-5.8336 4.7e-4 -8.7503 2.7088-8.75 8.125-3.1e-4 2.0838 1.8747 5.0005 5.625 8.75m154.38-9.375c-2.5005 1.6672-5.2088 3.3338-8.125 5-2.5005 1.25-5.2088 2.9172-8.125 5l-0.625 1.875 7.5 0.625 11.25-5.625c1.6662-1.6662 5.8328-2.4995 12.5-2.5 5.4162 4.7e-4 10.833 1.4594 16.25 4.375l1.875 1.25 1.25 1.875 3.75 6.875-0.625 4.375-3.125 3.125c-4.7e-4 3.3338 2.0828 5.0005 6.25 5 4.5828 4.7e-4 7.0828-2.083 7.5-6.25l2.5-6.25 5.625 1.875 5 1.875c0.41563 0.41719 0.83281 0.83438 1.25 1.25 0.83281 0.41719 1.6661 1.0422 2.5 1.875 2.0828 2.5005 3.9578 5.0005 5.625 7.5 1.6661 2.5005 3.1245 4.792 4.375 6.875 0.41563 0.83438 0.625 1.667 0.625 2.5 0.41563 0.83438 1.0406 1.8755 1.875 3.125v-1.25c-4.7e-4 -2.9162-1.0422-6.0412-3.125-9.375-2.9172-4.583-5.2089-7.708-6.875-9.375-3.3339-3.3328-5.0005-5.2078-5-5.625v-1.25c-4.7e-4 -0.83281 0.41563-1.25 1.25-1.25h1.25l1.25 2.5 2.5 1.875 1.875 2.5 1.25 2.5c1.25 2.5005 3.7495 6.2505 7.5 11.25 0.41563-2.083 0.625-3.958 0.625-5.625 0.41563-2.083 0.625-3.5412 0.625-4.375-4.7e-4 -2.083-1.6672-6.0412-5-11.875-0.83437-1.25-2.0839-3.1245-3.75-5.625 6.2495-3.3328 9.5828-8.1245 10-14.375-8.3339 2.5005-15 3.7505-20 3.75-4.1672 4.7e-4 -9.5839-0.625-16.25-1.875l-6.25-1.25c-5.8339-1.25-11.459-1.8745-16.875-1.875-3.7505 4.7e-4 -11.042 1.6672-21.875 5m-235.62-2.5c-7.5002 0.41719-14.792 1.4594-21.875 3.125-7.0836 1.25-14.167 2.9172-21.25 5l4.375 8.125v1.875l6.875-1.875 11.25-3.125c10.833-3.3328 23.541-4.9995 38.125-5 27.916 4.7e-4 49.791 6.0422 65.625 18.125l19.375 14.375c2.083-2.083 3.1247-3.5412 3.125-4.375-0.41719-0.41562-1.25-1.0406-2.5-1.875-0.83437-0.83281-2.292-2.083-4.375-3.75l-13.75-11.25c-7.917-5.4162-18.542-9.9995-31.875-13.75-12.917-3.7495-25.834-5.6245-38.75-5.625h-14.375m202.5-1.25c-0.83437 6.2505-2.0838 10.625-3.75 13.125l-7.5 6.875c-4.7e-4 0.41719-0.20937 0.83438-0.625 1.25v1.25c-4.7e-4 2.5005 2.083 4.3755 6.25 5.625l-0.625 3.125-5 6.25c0.83281 2.5005 2.4995 3.9588 5 4.375 1.25-2.9162 4.3745-6.2495 9.375-10 1.6662 3.7505 3.5412 5.6255 5.625 5.625 0.83281 4.7e-4 1.6662-0.41562 2.5-1.25l11.25-8.75c0.83281-0.83281 2.0828-1.25 3.75-1.25 2.9162 4.7e-4 6.0412 1.6672 9.375 5-0.41719-7.9162-5.6255-11.875-15.625-11.875-2.9172 4.7e-4 -6.6672 1.6672-11.25 5l-1.875 0.625-1.25 2.5c-0.83437 1.25-1.667 1.8755-2.5 1.875-1.25 4.7e-4 -1.8755-0.41562-1.875-1.25-4.7e-4 -2.0828 0.83281-4.9995 2.5-8.75 2.083-4.1662 3.1245-7.0828 3.125-8.75-4.7e-4 -2.4995-2.292-6.0412-6.875-10.625m-253.12 16.25 1.875 3.125 1.875 7.5v5c2.9166-4.1662 4.3748-7.4995 4.375-10-1.6e-4 -0.83281-0.41719-2.0828-1.25-3.75-0.41719-2.0828-1.25-3.5412-2.5-4.375l-3.125-4.375h-2.5l1.25 6.875m56.25-3.125-2.5 1.875 10.625-0.625-8.125-1.25m-6.25 0.625h-3.75c-16.667 1.6672-25 6.4588-25 14.375-1.6e-4 3.7505 2.7081 5.6255 8.125 5.625h2.5c-1.6669-1.6662-2.5002-3.7495-2.5-6.25-1.6e-4 -4.9995 3.1248-8.1245 9.375-9.375l8.125-1.875 6.25-2.5h-3.125m91.875 4.375 1.25 1.25 3.125 3.75c0.41719-0.41562 0.625-1.4578 0.625-3.125-3.1e-4 -1.25-1.25-1.8745-3.75-1.875h-1.25m-46.25 368.12-20-6.875-11.25-5.625c-25.417-11.25-46.25-32.5-62.5-63.75s-24.375-65.625-24.375-103.12c-1.6e-4 -51.666 13.542-94.791 40.625-129.38 27.5-34.583 62.291-50.208 104.38-46.875l4.375 0.625c1.6664 4.7e-4 2.4997-0.625 2.5-1.875-3.1e-4 -0.83281-1.25-1.6662-3.75-2.5l-7.5-4.375c-5.0003-2.4995-11.667-3.7495-20-3.75-39.167 4.7e-4 -74.584 18.959-106.25 56.875-31.667 37.917-47.5 80.209-47.5 126.88-1.6e-4 42.917 7.7083 80 23.125 111.25 15.417 30.833 37.5 53.542 66.25 68.125l23.75 11.875c5.8331 3.3334 10.208 5 13.125 5 0.41719 0 4.5831-1.6666 12.5-5l7.5-3.75 5-3.75m-86.875-69.375-1.875-6.875-12.5-33.125c-5.8334-17.5-8.7502-41.458-8.75-71.875v-8.75c-1.6e-4 -1.6664-1.6e-4 -3.5414 0-5.625-1.6e-4 -2.0831 0.20781-4.1664 0.625-6.25l0.625-8.75c2.0831-40 16.667-73.541 43.75-100.62 27.083-27.083 58.333-39.791 93.75-38.125l5 0.625 6.875 0.625c2.083 4.7e-4 3.1247-0.625 3.125-1.875-3.1e-4 -2.083-4.3753-3.1245-13.125-3.125-22.917 4.7e-4 -45.209 5.8338-66.875 17.5-2.5003 1.667-5.2086 3.3338-8.125 5-2.5002 1.667-5.4169 3.542-8.75 5.625l-13.75 10.625c-7.0836 7.0838-11.25 11.459-12.5 13.125-1.6669 2.0838-3.5419 4.792-5.625 8.125-2.0834 2.917-4.1669 6.667-6.25 11.25-15.417 26.667-23.125 60.417-23.125 101.25-1.6e-4 11.25 0.83281 20 2.5 26.25l0.625 13.125c7.0831 33.75 15.208 57.708 24.375 71.875m165-296.25v3.75c-0.41719 6.2505 2.708 10.209 9.375 11.875 25 6.667 47.291 20.417 66.875 41.25 19.583 20.417 33.958 45 43.125 73.75l6.875 21.25c0.41563 2.917 0.83281 6.042 1.25 9.375 0.83281 2.917 3.1245 4.3753 6.875 4.375h1.25c9.5828-0.83281 18.75-3.333 27.5-7.5 1.6661-0.41719 2.4995-1.25 2.5-2.5-4.7e-4 -2.9164-1.4594-7.9164-4.375-15l-11.875-32.5c-9.1672-23.75-28.125-46.458-56.875-68.125-32.5-23.75-63.334-37.083-92.5-40m123.12 17.5-1.25 10.625-3.75-0.625-5.625-3.125h-10c1.25 2.917 2.9162 5.417 5 7.5l1.25 3.125 2.5 5 4.375 7.5c6.2495 6.667 13.541 12.5 21.875 17.5l-1.25-2.5c2.4995-0.83281 3.5412-1.25 3.125-1.25 1.25 1.25 2.0828 2.292 2.5 3.125 2.9161 2.917 7.7078 4.167 14.375 3.75 0.83281 3.2e-4 1.6661 3.2e-4 2.5 0 1.25-0.41562 2.7078-0.83281 4.375-1.25v-0.625c-7.0839-1.6662-14.792-5.6247-23.125-11.875l-3.75-5h6.875l-2.5 1.875 2.5 1.875c8.3328 7.0838 17.083 10.625 26.25 10.625 2.4995 3.2e-4 4.5828-1.4578 6.25-4.375h-6.875c-3.3339 4.7e-4 -6.0422-1.0406-8.125-3.125 1.25 0.41719 3.5411 0.625 6.875 0.625 4.5828 4.7e-4 7.7078-0.83281 9.375-2.5l7.5-5.625c2.0828-1.25 3.3328-2.2912 3.75-3.125 0.41563-0.83281 1.0406-1.8745 1.875-3.125 1.25 4.7e-4 1.8745 0.625 1.875 1.875-4.7e-4 0.83438-0.20937 1.4594-0.625 1.875l-3.125 3.75-2.5 4.375-4.375 4.375-8.75 6.25c-9.1672 7.5003-13.75 16.042-13.75 25.625v1.875l2.5 6.25c3.7495 5.417 8.5411 8.1253 14.375 8.125 5.4161 3.1e-4 9.9995-1.8747 13.75-5.625 3.7495-4.1662 5.6244-9.1662 5.625-15-6.2e-4 -2.9162-2.5005-6.6662-7.5-11.25l1.25 12.5c-3.3339 7.0838-7.0839 10.625-11.25 10.625-2.5005 3.1e-4 -4.1672-0.20781-5-0.625l-2.5-1.25c-3.3339-3.333-5.0005-6.458-5-9.375-4.7e-4 -5.833 1.6661-10.416 5-13.75l14.375-13.75c8.3328-7.4995 12.708-16.458 13.125-26.875l0.625-5.625v-2.5c0.41563-2.9162-0.625-5.4162-3.125-7.5l-2.5 13.125-3.125 5.625c-5.0005 11.25-11.667 16.875-20 16.875-2.9172 4.7e-4 -6.0422-0.83281-9.375-2.5-2.9172-2.4995-4.3755-5.208-4.375-8.125-4.7e-4 -7.083 2.2911-10.208 6.875-9.375h5v-1.25c-4.7e-4 -5.4162-3.1255-8.1245-9.375-8.125l-1.25 0.625c-1.25 4.7e-4 -2.7089 1.0422-4.375 3.125-1.25 2.0838-2.5005 3.1255-3.75 3.125-2.5005 4.7e-4 -3.3339-2.4995-2.5-7.5v-2.5c-4.7e-4 -2.083-1.6672-5.4162-5-10l-3.75-4.375-6.25-3.75-3.75 10-4.375 5.625m-210.62 21.25 10 1.875v8.75c2.9164 6.667 7.2914 10 13.125 10 4.583 4.7e-4 7.9164-1.25 10-3.75l10.625-10 7.5-1.25c-2.0836-2.4995-4.167-3.7495-6.25-3.75-3.1e-4 4.7e-4 -0.83437 0.83438-2.5 2.5-1.667 1.25-4.167 3.542-7.5 6.875l-6.25 0.625c-5.0003-1.6662-7.5003-4.9995-7.5-10-3.1e-4 -8.7495 4.7914-13.125 14.375-13.125 14.166 4.7e-4 24.583 3.3338 31.25 10 2.083 2.0838 3.333 3.1255 3.75 3.125l1.875 0.625 3.75 4.375c-0.83437-3.333-3.1253-6.2495-6.875-8.75l-10.625-8.75c-0.83437-0.83281-2.7086-1.6662-5.625-2.5l-10-3.125c-3.3336-0.83281-7.5003-1.25-12.5-1.25h-0.625c-3.7503 4.7e-4 -8.7503 1.25-15 3.75-5.8336 2.0838-10.834 6.667-15 13.75m-165.62 20.625 1.25-5 5.625-3.125c0.41719 4.7e-4 2.9166-4.1662 7.5-12.5l-3.75 2.5-5 6.875-0.625 0.625c-4.5834 4.7e-4 -7.0834-1.25-7.5-3.75l-0.625-8.75-3.75 5c-0.41719 0.41719-0.625 1.4594-0.625 3.125-1.6e-4 2.5005 2.4998 7.5005 7.5 15m27.5-22.5c-2.0834 3.3338-3.1252 5.2088-3.125 5.625v2.5l3.125-8.125m94.375 15c-3.3336 4.5838-5.0002 7.7088-5 9.375-1.6e-4 1.25 0.20781 2.917 0.625 5 0.83281 2.0838 1.25 3.542 1.25 4.375-1.6e-4 1.667-2.0836 2.5003-6.25 2.5h-1.25c4.5831 5.8338 8.9581 8.7503 13.125 8.75 1.25 3.1e-4 3.1248-0.20781 5.625-0.625 2.4998-0.83281 4.3747-1.25 5.625-1.25 2.4997 3.1e-4 4.3747 0.20937 5.625 0.625-3.1e-4 1.667 0.20781 2.7088 0.625 3.125l-0.625 0.625-1.875 0.625-10 1.25c-6.2502 0.83437-10.209 4.3753-11.875 10.625l3.125 1.25c-5.4169 9.167-7.9169 15.209-7.5 18.125v3.75l0.625 8.125 6.25-4.375 10.625-4.375 3.75-5 2.5 1.25c0.41719 2.917 1.25 4.3753 2.5 4.375 1.25-0.41719 1.8747-0.83281 1.875-1.25l4.375-11.25c1.6664-5.4162 6.6664-8.1247 15-8.125 2.9164 3.1e-4 4.3747 0.83438 4.375 2.5-3.1e-4 1.25-0.625 1.8753-1.875 1.875l-3.75 0.625-3.125 1.875-6.875 6.25c-1.6669 2.917-2.5003 5.0003-2.5 6.25l1.25 1.25c2.0831 3.1e-4 3.5414-0.20781 4.375-0.625v4.375c-0.83437 12.5 3.5414 18.75 13.125 18.75 4.1664 3.1e-4 7.4997-3.333 10-10-3.3336 1.25-5.6253 1.8753-6.875 1.875-1.25 3.1e-4 -3.1253-0.625-5.625-1.875-2.5003-4.1664-3.7503-7.083-3.75-8.75-3.1e-4 -5.833 3.1247-10.416 9.375-13.75 3.3331-0.83281 4.9997-1.25 5-1.25l13.75 1.875 1.25-3.125 5.625-2.5 3.125-3.75h1.875v1.25l-8.125 7.5c8.7497-1.25 13.125-6.2497 13.125-15-3.1e-4 -7.4997-5.0003-14.791-15-21.875-5.8336-3.333-9.7919-4.9997-11.875-5h-0.625l-27.5 3.75c-0.83437 0.41719-2.9169 0.625-6.25 0.625-10.834 3.2e-4 -16.25-4.3747-16.25-13.125-1.6e-4 -7.083 4.3748-10.625 13.125-10.625 2.4997 4.7e-4 3.9581 0.83438 4.375 2.5l3.75 6.25c1.25 2.917 3.3331 4.3753 6.25 4.375 7.0831 3.2e-4 10.416-2.4995 10-7.5v-2.5c-3.3336 3.3338-5.8336 5.0005-7.5 5-2.9169 4.7e-4 -5.2086-1.25-6.875-3.75l-3.75-6.875c-1.25-1.6662-3.7503-2.4995-7.5-2.5-4.5836 4.7e-4 -10.209 2.7088-16.875 8.125m188.12-6.875-0.625 4.375c-1.667 0.41719-2.5005 1.8755-2.5 4.375v10.625c-4.7e-4 6.667 1.25 14.584 3.75 23.75 1.6662 5.8338 2.708 10.834 3.125 15 0.83281 3.7503 1.4578 6.667 1.875 8.75l2.5 32.5-0.625 55.625c2.9162-2.4997 4.3745-4.1664 4.375-5 0.41563-0.83281 0.83281-4.9997 1.25-12.5l0.625-15.625-1.25-18.125v-13.125l-8.75-70 1.25-16.25-5-4.375m-307.5 28.75-0.625 1.875c-3.3334 13.334-5.0002 22.292-5 26.875v8.125c-1.6e-4 2.917-0.20781 5.417-0.625 7.5v9.375c-1.6e-4 8.3336 1.25 16.459 3.75 24.375l3.125 8.75 1.875 6.875 1.875 3.125 3.125 6.875 1.875 4.375 3.125 5 0.625 1.25c0.41719 2.0836 1.6666 3.5419 3.75 4.375v-3.125c-1.6e-4 -2.0831 0.20781-3.7497 0.625-5v-3.125c-1.6e-4 -1.6664-2.7084-7.9164-8.125-18.75-5.4167-9.1664-8.1252-23.333-8.125-42.5v-3.125c-0.41719-4.1664 0.625-14.791 3.125-31.875 0.83281-6.6662 1.8748-11.25 3.125-13.75l6.875-14.375c0.41719-0.41562 0.625-1.4578 0.625-3.125v-2.5c-1.6e-4 -2.083-0.20781-3.7495-0.625-5h-1.25l-3.125 6.25-3.125 5.625-2.5 4.375-1.875 5-2.5 6.25m294.38-11.875 3.125 5c0.41719-1.25 0.625-2.9162 0.625-5v-3.75c-4.7e-4 -6.2495-1.25-9.3745-3.75-9.375-2.0838 4.7e-4 -3.1255 1.25-3.125 3.75-4.7e-4 1.25 1.0406 4.3755 3.125 9.375m80.625 2.5 6.875 10 1.875 2.5 7.5 11.25 1.25 1.25 8.75 15.625 0.625 3.125c2.9161 5.0003 5.4161 10.834 7.5 17.5 2.4995 6.2503 4.7911 13.334 6.875 21.25v1.25l0.625 1.25c0.41563 4.167 1.4578 6.2503 3.125 6.25 1.6661 3.1e-4 2.4995-1.0406 2.5-3.125v-0.625l-1.25-5.625-6.875-20.625c-7.9172-26.25-21.042-46.666-39.375-61.25m-360.62 4.375c-3.7502 8.3338-5.6252 16.875-5.625 25.625-1.6e-4 2.5003 1.25 6.042 3.75 10.625 2.4998 4.167 5.2083 6.2503 8.125 6.25 8.3333 3.1e-4 12.5-4.7912 12.5-14.375-1.6e-4 -3.333-1.4578-5.833-4.375-7.5v8.75c-3.3334 2.0838-5.4167 3.1253-6.25 3.125-4.1667 3.1e-4 -7.2917-5.4162-9.375-16.25l1.25-16.25m308.12 14.375c-2.917 2.917-4.3755 6.042-4.375 9.375v1.25c0.41563 3.3338 0.83281 7.7088 1.25 13.125 0.83281 5.417 1.8745 11.875 3.125 19.375 0.41563 0.41719 0.625 1.25 0.625 2.5-4.7e-4 1.25 0.20781 2.292 0.625 3.125l-1.25-27.5c0.41563-9.9997 2.708-15 6.875-15 1.6662 3.1e-4 4.1662 1.667 7.5 5l0.625 8.125-1.25 2.5c3.333-4.583 4.9995-8.333 5-11.25-4.7e-4 -8.7497-4.792-13.125-14.375-13.125-1.667 3.1e-4 -3.1255 0.83437-4.375 2.5m-116.88 3.75c0.41719 2.0838 0.625 3.7503 0.625 5 0.41563 1.25 0.625 2.0838 0.625 2.5-3.1e-4 2.0838-0.625 5.2088-1.875 9.375l-7.5 10c1.25 0.41719 2.083 0.83281 2.5 1.25 0.83281 3.1e-4 1.25 3.1e-4 1.25 0 7.4997 3.1e-4 11.25-4.9997 11.25-15-3.1e-4 -4.1662-2.292-8.5412-6.875-13.125m-120 25.625-0.625 1.25-1.25 3.125-2.5 8.125c-0.83281 4.5836-1.6669 8.7503-2.5 12.5-0.41719 3.3336-0.625 6.2503-0.625 8.75v5c-1.6e-4 0.83437-1.6e-4 2.0836 0 3.75-1.6e-4 1.25 0.20781 2.7086 0.625 4.375l0.625 11.25 1.25 5c0.41719 1.25 0.625 3.5419 0.625 6.875-1.6e-4 2.5003-1.6669 10.417-5 23.75 7.9166-4.1664 12.292-9.5831 13.125-16.25 0.41719-2.9164 1.0406-4.3747 1.875-4.375 1.6664 3.1e-4 2.7081 0.20937 3.125 0.625l0.625-6.875-6.875-16.25c-1.25-2.9164-1.8752-6.2497-1.875-10-1.6e-4 -8.7497 2.0831-13.125 6.25-13.125 1.25 3.1e-4 2.0831 0.20937 2.5 0.625l1.875 5-3.75 7.5v5.625l1.25 1.875-0.625-3.125c-1.6e-4 -2.9164 1.0422-4.3747 3.125-4.375l0.625 3.75 1.25 1.875-0.625 2.5 3.125 4.375c-0.41719-0.83281-0.625-2.708-0.625-5.625-1.6e-4 -2.083 0.625-3.1247 1.875-3.125-1.6e-4 0.41719 0.41719 2.292 1.25 5.625l3.125 4.375-5.625-1.25v1.875c-1.6e-4 2.0836 0.41719 3.5419 1.25 4.375 1.25 0.83437 1.8748 1.4578 1.875 1.875-1.6e-4 0.83437-0.41719 1.25-1.25 1.25-0.83437 3.1e-4 -1.4578-0.20781-1.875-0.625l-4.375-5v3.125l2.5 2.5 0.625 2.5 1.875 2.5 3.125 5.625 1.875-2.5v-2.5h3.125c4.1664 5.8336 9.1664 8.3336 15 7.5h13.75l5 1.875v-3.75c0.41563-5.4164-2.0836-8.7497-7.5-10l1.25-1.25c-1.6669-0.41563-2.5003-1.0406-2.5-1.875-3.1e-4 -1.25 0.625-1.8747 1.875-1.875 4.9997-1.25 7.4997-2.7081 7.5-4.375-3.1e-4 -1.25-2.5003-2.9164-7.5-5-2.0836-0.41719-3.7503-1.4578-5-3.125-5.8336-4.1664-8.3336-9.1664-7.5-15v-3.125l-2.5-0.625v-1.875c1.25-0.41719 3.5414-2.083 6.875-5-0.83281-0.83281-1.6669-1.25-2.5-1.25l-2.5 0.625c0.41719-2.4997 1.6664-3.7497 3.75-3.75h2.5l1.875 1.875-2.5 3.125c2.0831 3.1e-4 3.1247 0.41719 3.125 1.25-3.1e-4 0.83437-0.20781 1.4594-0.625 1.875-3.3336 3.1e-4 -5.8336 0.83437-7.5 2.5l6.25 1.25 1.25 8.75c2.9164 5.417 8.1247 9.792 15.625 13.125l2.5 1.875c1.6664 3.7503 3.5414 5.6253 5.625 5.625l1.25-0.625 2.5-3.125h11.875c2.9164 3.1e-4 4.7914-2.4997 5.625-7.5v-1.25c-3.1e-4 -0.83281-0.20938-1.6664-0.625-2.5-3.1e-4 -0.83281-0.20938-2.083-0.625-3.75-2.9169 4.167-6.8753 6.2503-11.875 6.25-10 3.1e-4 -16.667-6.6664-20-20l-1.875 8.125-1.875-13.125h1.875l2.5 5v-6.875c-3.1e-4 -2.4997-0.41719-3.7497-1.25-3.75l-4.375-0.625-5.625-0.625c-4.5836 3.1e-4 -8.5419 0.83281-11.875 2.5-2.0836 1.25-3.3336 2.5003-3.75 3.75l-1.25 1.875-2.5 8.125v8.125l1.25 3.125c0.41719 0.83437 0.83281 2.0836 1.25 3.75 0.41719 1.25 1.0422 2.917 1.875 5h-3.125l-1.875-3.75-1.875-1.875-1.875-9.375v-8.75l-3.75-7.5c-0.83438-3.333-1.25-5.4164-1.25-6.25l1.25-13.125c-1.6e-4 -1.6662 0.20781-2.708 0.625-3.125l4.375-7.5-1.25-4.375 1.25-6.875h-1.875c-6.2502 3.1e-4 -13.959 7.7088-23.125 23.125m149.38 16.875v3.75c0.41719 4.167 0.41719 7.7086 0 10.625-3.1e-4 2.5003-0.20938 4.5836-0.625 6.25l-1.875 8.125-1.25 6.25 2.5-3.75 0.625-4.375 2.5-6.875 3.125-25c2.083-10.833 7.708-16.25 16.875-16.25 3.333 3.1e-4 6.6662 1.8753 10 5.625 0.41562 0.83281 0.625 2.7086 0.625 5.625-3.1e-4 1.25-1.667 4.167-5 8.75 7.4997-1.6664 11.25-6.458 11.25-14.375-3.1e-4 -9.9997-5.8338-15-17.5-15-4.167 3.1e-4 -7.917 1.0422-11.25 3.125-6.667 5.417-10 14.584-10 27.5m-20-20.625c-1.25 2.0838-1.8753 3.7503-1.875 5-3.1e-4 1.25 0.625 2.0836 1.875 2.5l0.625 1.875c5.833 8.3336 8.333 15 7.5 20v1.875l-3.125 30.625c-3.1e-4 1.6669 0.83281 2.5003 2.5 2.5 0.83281 3.1e-4 1.6664-1.0406 2.5-3.125l1.25-3.75 0.625-2.5c2.083-5.4164 3.1247-12.708 3.125-21.875-3.1e-4 -0.83281-0.20937-2.083-0.625-3.75-3.1e-4 -2.083-0.20937-4.3747-0.625-6.875-0.41719-1.6664-0.83437-3.5414-1.25-5.625-0.41719-2.083-1.0422-4.3747-1.875-6.875l-3.125-5.625-6.25-6.875-1.25 2.5m225.62 31.25-0.625 0.625-1.875 3.75c-2.0839 2.0836-3.1255 3.7503-3.125 5l0.625 1.875 1.25 1.875c8.3328-8.333 12.499-17.5 12.5-27.5-6.2e-4 -9.1664-3.5422-13.75-10.625-13.75-4.1672 3.1e-4 -6.4589 0.83281-6.875 2.5l-0.625 2.5 9.375 0.625c2.9161 3.1e-4 4.3744 3.3336 4.375 10-6.2e-4 2.917-1.4594 7.0836-4.375 12.5m-25-25 1.25 3.75 5 3.75 8.75 5c0.83281 0.41719 1.8745 1.25 3.125 2.5 1.25 0.83437 2.9161 2.0836 5 3.75v-6.875l-9.375-6.25c-4.1672-2.9164-8.7505-4.7914-13.75-5.625m-409.38-1.25-0.625 11.25v1.875c0.41719 8.7503 3.3333 13.125 8.75 13.125 4.1666 3.1e-4 6.2498-1.6664 6.25-5-1.6e-4 -2.083-0.20781-3.333-0.625-3.75-0.83281 0.41719-2.2917 0.625-4.375 0.625-1.6667 3.1e-4 -3.3334-1.25-5-3.75l-4.375-14.375m322.5 14.375-0.625 7.5c-4.7e-4 2.5003 1.6662 6.667 5 12.5 0.83281 0.83281 1.6662 2.0836 2.5 3.75 2.9162 5.0003 7.9162 9.792 15 14.375l0.625-6.25-13.125-11.875c-2.917-2.9164-4.792-8.7497-5.625-17.5v-1.25c-4.7e-4 -4.9997 1.8745-7.4997 5.625-7.5 2.0828 3.1e-4 4.5828 1.4578 7.5 4.375 1.25-1.6664 1.8745-2.9164 1.875-3.75-4.7e-4 -4.583-3.5422-6.8747-10.625-6.875-5.417 3.1e-4 -8.1255 3.9586-8.125 11.875v0.625m-161.88-9.375c4.5831 0.83281 7.4997 3.542 8.75 8.125 0.41719 0.83437 0.625 2.5003 0.625 5-3.1e-4 0.41719-0.20937 1.25-0.625 2.5-3.1e-4 1.25-0.20937 2.917-0.625 5 4.9997-4.1664 7.4997-8.333 7.5-12.5-3.1e-4 -7.4997-2.9169-11.25-8.75-11.25l-1.25 0.625-5.625 2.5m174.38 25 8.75-11.25c8.3328-7.4997 12.5-11.041 12.5-10.625-4.7e-4 -1.6664-0.83437-2.4997-2.5-2.5-3.3338 3.1e-4 -6.2505 1.8753-8.75 5.625-2.0838 3.7503-3.7505 5.8336-5 6.25-4.5838 2.0836-6.8755 5.2086-6.875 9.375-4.7e-4 0.83437 0.625 1.8753 1.875 3.125m88.75 15 1.875 5 1.875 3.125 2.5 3.75 1.875-5.625-8.125-15.625-0.625-6.875-1.25-5.625-0.625-6.25c-4.7e-4 -0.41719-0.41719-1.0406-1.25-1.875-0.41719 0.41719-1.25 0.625-2.5 0.625h-0.625v11.875l3.125 10 3.75 7.5m-231.25-8.125c-2.0836-3.333-3.1253-5.6247-3.125-6.875-3.1e-4 -4.1664 2.2914-6.2497 6.875-6.25 9.1664 3.1e-4 13.75 6.2503 13.75 18.75-3.1e-4 3.7503-1.667 10.209-5 19.375-0.41719 1.25-1.0422 3.5419-1.875 6.875 6.2497-5.4164 9.3747-16.25 9.375-32.5-3.1e-4 -14.166-5.417-21.25-16.25-21.25-8.3336 3.1e-4 -12.5 4.167-12.5 12.5-3.1e-4 3.7503 2.9164 6.8753 8.75 9.375m54.375-16.25v5.625l2.5 2.5c0.41719 0.41719 0.625 1.0422 0.625 1.875-3.1e-4 0.41719-1.667 1.667-5 3.75l-1.875 1.875c-0.83437 0.41719-1.667 1.0422-2.5 1.875-1.25 3.3336-1.8753 5.8336-1.875 7.5-3.1e-4 2.5003 0.20781 4.167 0.625 5 3.333 7.0836 8.1247 10.625 14.375 10.625 2.9162 3.1e-4 6.0412-1.8747 9.375-5.625-7.917-0.41719-11.875-4.1664-11.875-11.25-3.1e-4 -6.2497 4.3747-9.3747 13.125-9.375 2.9162 3.1e-4 7.083 1.4594 12.5 4.375l0.625 0.625 8.125 10 3.125 7.5 0.625 3.125v2.5l1.875 3.125-1.25 1.875v2.5l0.625 6.25h1.25l1.25-10v-5c-4.7e-4 -10.833-2.917-19.791-8.75-26.875-5.417-7.4997-12.709-11.25-21.875-11.25l-8.125-0.625-7.5-2.5m100.62 1.25-1.875 3.125c2.4995 9.5836 3.7495 17.5 3.75 23.75-4.7e-4 12.5-4.1672 18.75-12.5 18.75-1.6672 3.1e-4 -3.9588-0.625-6.875-1.875 2.083 4.5836 4.5828 6.8753 7.5 6.875h1.875l5.625-2.5 1.875-1.25c4.9995-1.6664 7.4995-8.9581 7.5-21.875-4.7e-4 -9.583-2.2922-17.916-6.875-25m-30 0.625v3.75l0.625 11.25c0.83281-3.333 1.25-4.9997 1.25-5-4.7e-4 -2.9164-0.625-6.2497-1.875-10m123.12 10.625c-0.41719 4.167-1.0422 8.1253-1.875 11.875-0.41719 3.3336-1.4594 6.4586-3.125 9.375l-8.75 10c-1.6672 0.41719-2.5005 1.0422-2.5 1.875v3.125c3.3328-0.41719 6.6661-1.8747 10-4.375 5.4161-7.4997 8.5411-15 9.375-22.5v-8.75c-6.2e-4 -1.6664-0.625-2.4997-1.875-2.5h-0.625l-0.625 1.875m-116.25 6.875-1.875 3.75c-0.83437 2.0836-1.4594 3.7503-1.875 5-4.7e-4 0.83281-0.20937 1.667-0.625 2.5-4.7e-4 0.41719-0.20937 2.0836-0.625 5-4.7e-4 2.5003-0.20937 6.0419-0.625 10.625l-0.625 5.625 0.625 5.625 4.375-3.75v-12.5l3.75-15.625 0.625-2.5c-4.7e-4 -1.25-1.0422-2.4997-3.125-3.75m-335.62 4.375c0.83281 3.3336 1.4578 6.042 1.875 8.125 0.41719 2.0836 0.83281 3.7503 1.25 5 0.83281 2.0836 1.8748 4.7919 3.125 8.125 1.25 3.3336 2.9166 7.5003 5 12.5 1.6666 3.3336 2.7083 6.6669 3.125 10 0.83281 3.3336 1.4578 6.6669 1.875 10l-2.5 10.625c-2.0834 1.25-3.7502 1.8752-5 1.875h-3.125l-2.5-1.875-1.875-6.25 4.375-14.375c0.41719-0.41719 0.625-1.6664 0.625-3.75-1.6e-4 -5.4164-0.83281-8.1247-2.5-8.125h-3.75l1.25 2.5 1.25 9.375-5 9.375-0.625 2.5-1.25 4.375c-1.6e-4 3.7502 0.83281 6.4586 2.5 8.125 2.0833 3.3336 4.7916 5.0002 8.125 5 10.417 1.6e-4 15.625-5.6248 15.625-16.875-1.6e-4 -4.5831-1.0422-9.5831-3.125-15l-10.625-21.875-5.625-13.75-2.5-5.625m418.75 3.75 1.25 0.625c-1.6672 0.41719-2.9172 0.83281-3.75 1.25-0.83438 0.41719-1.6672 0.83281-2.5 1.25-8.7505 3.3336-17.917 4.5836-27.5 3.75h-3.125c-3.3338-0.83281-8.1255-1.4578-14.375-1.875v4.375c4.5828 1.6669 9.5828 2.5003 15 2.5 14.166 3.1e-4 25.208-1.6664 33.125-5l10-4.375 2.5-0.625c0.83281-0.83281 1.25-1.6664 1.25-2.5-4.7e-4 -2.083-0.41719-3.1247-1.25-3.125h-0.625l-10 3.75m-231.25 3.75c-1.6669 2.0836-3.1253 4.3753-4.375 6.875-0.83438 2.5003-1.6669 5.2086-2.5 8.125h-3.125l-3.125-4.375h-0.625c-0.41719 3.1e-4 -1.0422 0.41719-1.875 1.25l-1.25 8.125v10.625l-1.875 10-5.625 13.75c-0.83281 0.83437-1.8753 2.0836-3.125 3.75-1.25 1.25-2.7086 2.9169-4.375 5-3.3336 1.25-6.6669 3.3336-10 6.25-2.5003 1.25-4.7919 1.8752-6.875 1.875-2.9169 1.6e-4 -4.3752-0.83281-4.375-2.5l0.625-1.25 8.125-2.5 5.625-3.75-1.875-2.5v-0.625c-3.1e-4 -1.25 0.41563-2.2914 1.25-3.125l5-5.625v-7.5l-6.875 3.125-8.75 2.5-4.3752 5h-1.25c-1.6667 1.6e-4 -2.5002-1.25-2.5-3.75v-2.5c-2.5002 0.83437-4.1667 1.6669-5 2.5-0.41718 0.83281-2.2917 3.3336-5.625 7.5-1.25 1.25-3.1252 2.7086-5.625 4.375-2.0834 1.6669-3.75 2.7086-5 3.125-5.8334 2.0836-8.75 3.9586-8.75 5.625 0 0.83281 0.41719 1.25 1.25 1.25 0 1.6e-4 1.0422-0.20781 3.125-0.625 2.0833-0.83281 5.2083-1.6664 9.375-2.5 1.6666-0.41719 2.9166-0.83281 3.75-1.25 0.83282-0.41719 1.6666-0.83281 2.5-1.25l7.5-4.375c1.6666 1.6e-4 2.4998 0.41719 2.5 1.25-1.5e-4 0.83437-3.5417 2.9169-10.625 6.25l-8.125 4.375-6.25 1.875v0.625c2.9166 1.6669 5.4166 2.5002 7.5 2.5 2.5 1.6e-4 6.4583-1.4578 11.875-4.375l1.25 3.75h-1.25c-2.5002-0.41563-3.7502 0.41719-3.75 2.5l0.625 0.625 3.125 0.625 5 0.625h0.625c7.0833-2.0831 9.1666-3.1248 6.2502-3.125h3.125l-0.625 3.75 7.5-0.625 5.625-0.625 13.125-1.25 4.375-0.625c9.5831-0.83281 14.375 2.5002 14.375 10-3.1e-4 5.0002-2.2919 7.5002-6.875 7.5-2.5003 1.6e-4 -4.1669-0.20781-5-0.625 1.6664 4.1669 4.1664 6.2502 7.5 6.25 8.7497 1.6e-4 13.125-4.9998 13.125-15-3.1e-4 -1.6664-0.625-4.1664-1.875-7.5h6.875c-2.5003-4.9998-5.6253-7.9164-9.375-8.75-1.25-0.41719-2.2919-0.625-3.125-0.625-0.41719-0.41563-0.625-0.625-0.625-0.625-1.25 1.6e-4 -3.7503 1.0422-7.5 3.125-3.7503 1.6669-9.7919 2.5002-18.125 2.5-2.9169 1.6e-4 -5.0003-0.20781-6.25-0.625v-1.875l6.25-0.625 8.125-0.625c2.0831-0.83281 4.9997-1.4578 8.75-1.875 2.9164-1.25 6.2497-2.7081 10-4.375 4.1664-1.6664 8.958-3.5414 14.375-5.625 5.4164-1.6664 7.9164-3.3331 7.5-5v-3.75c0.41719 3.1e-4 1.4578-0.83281 3.125-2.5 1.6664-1.6664 3.333-3.5414 5-5.625 2.083-2.0831 3.958-3.9581 5.625-5.625 1.6664-1.6664 2.9164-2.4997 3.75-2.5l-3.125 5.625 1.25 0.625c3.7497-1.6664 6.2497-3.5414 7.5-5.625 4.9997-4.9997 10.833-7.4997 17.5-7.5 0.41563 3.1e-4 4.3747 1.6669 11.875 5v-5c-3.1e-4 -1.6664-1.25-3.9581-3.75-6.875-2.0838-3.3331-4.792-4.9997-8.125-5l-3.125-0.625c-3.3338 3.1e-4 -5.8336 1.25-7.5 3.75l-1.875 2.5c-3.1e-4 0.41719-0.41719 0.625-1.25 0.625-0.83437 3.1e-4 -1.25-0.41719-1.25-1.25-0.83281-6.2497-1.8753-9.3747-3.125-9.375-1.667 3.1e-4 -3.7503 1.25-6.25 3.75-2.0836 2.0836-3.7503 3.9586-5 5.625l-0.625 0.625-12.5 21.875-4.375 3.75c-3.3336 2.5003-5.8336 3.7503-7.5 3.75-3.3336 3.1e-4 -5.0003-1.25-5-3.75-3.1e-4 -1.25 0.41719-2.2914 1.25-3.125 3.7497-2.4997 5.833-3.9581 6.25-4.375-0.41719-0.41719-0.83437-0.83281-1.25-1.25-3.1e-4 -0.41719-0.41719-0.83281-1.25-1.25 2.9164-3.7497 4.7914-7.9164 5.625-12.5h3.125l-1.25 7.5c2.4997-3.3331 4.3747-9.3747 5.625-18.125l-6.25 1.25c-1.25-2.9164-1.8753-4.9997-1.875-6.25-3.1e-4 -5.4164 0.83281-9.9997 2.5-13.75v-1.875c-3.3336 0.41719-7.7086 2.7086-13.125 6.875m-169.38-1.875 2.5 5.625 1.25 1.25v-3.125l-3.75-3.75m411.25 4.375-3.75 1.875c0.83281 5.0003 1.4578 9.5836 1.875 13.75 0.41563 3.7503 0.625 7.0836 0.625 10-4.7e-4 3.7503-0.625 8.7503-1.875 15l-0.625 10.625c4.1661-1.25 6.2495-4.7914 6.25-10.625v-30.625c-0.41719-0.41719-1.25-3.7497-2.5-10m-8.125 3.75c-2.0839 0.83437-4.3755 1.6669-6.875 2.5-2.5005 0.41719-4.7922 1.0422-6.875 1.875l-20 1.875v2.5c1.25 12.084 1.8745 17.292 1.875 15.625v0.625l-1.875 23.75 1.875 0.625c2.4995 2.0836 5.2078 3.3336 8.125 3.75h10.625l6.875-1.25c2.4995-0.41563 4.3745-1.0406 5.625-1.875 1.6661-0.83281 2.7078-4.7914 3.125-11.875l0.625-15v-20.625c-0.41719-0.41719-0.83437-0.83281-1.25-1.25-0.41719-0.41563-1.0422-0.83281-1.875-1.25m-269.38 0.625c-1.25 0.83281-1.8753 1.8753-1.875 3.125-3.1e-4 1.6669 0.83281 2.5003 2.5 2.5 2.4997 3.1e-4 3.7497-1.25 3.75-3.75-3.1e-4 -1.25-1.4578-1.8747-4.375-1.875m230.62 5c-10 3.7503-16.667 7.2919-20 10.625-2.9172 3.3336-4.7922 9.1669-5.625 17.5 3.3328 4.5836 4.9995 9.7919 5 15.625v1.25c10.416 12.917 23.75 19.375 40 19.375 13.75 1.6e-4 25.625-4.5831 35.625-13.75 10.416-9.5831 15.624-21.25 15.625-35-6.2e-4 -2.0831-1.0422-6.6664-3.125-13.75l-3.125 2.5 0.625 14.375c-4.7e-4 2.5003-0.625 5.2086-1.875 8.125v0.625c-0.83437 2.0836-1.8755 4.3753-3.125 6.875-1.25 2.5003-2.5005 5.0002-3.75 7.5l-8.75 8.75c-3.7505 4.1669-11.459 6.8752-23.125 8.125-1.25 0.41719-3.1255 0.625-5.625 0.625 0.41563 1.6e-4 -4.5838-0.625-15-1.875-17.084-6.2498-25.625-15.833-25.625-28.75-4.7e-4 -12.5 7.7078-20.208 23.125-23.125l-1.25-5.625m-116.88 8.75c6.2497 0.83281 10.625 4.5836 13.125 11.25 0.41563 1.25 0.625 3.1253 0.625 5.625-3.1e-4 0.83437-0.20937 1.6669-0.625 2.5-3.1e-4 0.83281-0.20937 2.0836-0.625 3.75-1.25 4.5836-1.8753 8.9586-1.875 13.125-3.1e-4 2.9169 1.6662 8.9586 5 18.125 0.83281 1.6669 1.6662 3.3336 2.5 5 1.25 1.25 2.708 2.2919 4.375 3.125 5.4162 2.9169 9.7912 4.3752 13.125 4.375 3.333 1.6e-4 7.2912-0.625 11.875-1.875 6.6662-2.4998 11.041-5.4164 13.125-8.75l12.5-20.625c0.41563-1.25 3.5412-2.9164 9.375-5l5.625 4.375 1.25 2.5h1.25c1.25-2.9164 1.8745-5.6248 1.875-8.125-4.7e-4 -2.9164-2.7088-6.2497-8.125-10l-13.75-0.625 3.125-11.25c-5.0005 1.25-9.5838 3.3336-13.75 6.25-6.2505 7.5003-9.3755 13.75-9.375 18.75l-0.625 10.625-4.375 8.125c-2.917 1.6669-5.6255 2.5002-8.125 2.5-6.2505 1.6e-4 -9.3755-4.3748-9.375-13.125-4.7e-4 -1.25 0.20781-2.0831 0.625-2.5l6.875-16.875c0.83281-3.3331 1.25-4.7914 1.25-4.375-4.7e-4 -2.9164-2.0838-6.4581-6.25-10.625-0.83437 3.3336-2.0838 5.0003-3.75 5-2.0838 3.1e-4 -3.3338-2.0831-3.75-6.25-1.25-7.4997-5.8338-11.25-13.75-11.25-5.8338 3.1e-4 -8.9588 2.0836-9.375 6.25m-111.88 1.875c1.6664 1.6669 3.5414 2.5003 5.625 2.5 2.4997 3.1e-4 3.7497-1.25 3.75-3.75-3.1e-4 -2.9164-1.6669-4.3747-5-4.375-3.3336 3.1e-4 -5.0003 1.25-5 3.75l0.625 1.875m-46.875 5.625c0 6.6669 1.875 10 5.625 10 3.3333 3.1e-4 4.9998-1.6664 5-5-1.5e-4 -3.7497-0.83281-5.6247-2.5-5.625l-8.125 0.625m-7.5 7.5c2.5-1.6664 3.75-3.5414 3.75-5.625 0-1.6664-1.25-2.4997-3.75-2.5-2.0834 3.1e-4 -3.125 1.0422-3.125 3.125 0 1.25 1.0422 2.9169 3.125 5m23.125-2.5 3.75 1.25 2.5 1.25h0.625c2.0833 3.1e-4 3.1248-1.0406 3.125-3.125-1.5e-4 -3.7497-1.4578-5.6247-4.375-5.625-0.83281 0.83437-2.2917 1.4578-4.375 1.875l-1.25 4.375m18.75-6.25c-2.5003 2.0836-3.7503 3.5419-3.75 4.375-3.1e-4 2.5003 1.6664 3.7503 5 3.75 3.7497 3.1e-4 5.6247-1.25 5.625-3.75-3.1e-4 -2.0831-2.2919-3.5414-6.875-4.375m17.5 3.75c-2.0836 0.83437-3.1253 1.6669-3.125 2.5-3.1e-4 1.25 1.0406 1.8753 3.125 1.875 2.0831 3.1e-4 3.1247-0.83281 3.125-2.5-3.1e-4 -0.83281-0.20781-1.25-0.625-1.25l-2.5-0.625m210 13.125 0.625 6.25 5 7.5c8.7495 6.2502 18.541 9.3752 29.375 9.375 5.4161 1.6e-4 11.041-1.6664 16.875-5-8.3339 1.25-13.959 1.8752-16.875 1.875-5.0005 1.6e-4 -10.209-1.25-15.625-3.75-8.7505-3.7498-13.125-8.3331-13.125-13.75-4.7e-4 -2.0831 1.6662-4.7914 5-8.125-0.41719-1.6664-1.0422-2.4997-1.875-2.5-5.8338 3.1e-4 -8.9588 2.7086-9.375 8.125m-230-4.375c-2.5002-0.83281-3.5419-1.25-3.125-1.25-2.0836 3.1e-4 -3.1253 0.41719-3.1252 1.25-1.5e-4 1.6669 1.25 2.5003 3.7502 2.5 1.6664 3.1e-4 2.4997-0.83281 2.5-2.5m92.5 5c2.9164 7.0836 7.2914 12.084 13.125 15v1.25c-3.1e-4 2.0836-1.25 3.3336-3.75 3.75-3.7503 1.25-5.6253 2.2919-5.625 3.125-3.1e-4 0.41719 1.0406 2.2919 3.125 5.625l3.75 3.125c4.1662 3.7502 8.7497 5.6252 13.75 5.625h1.875l10-4.375 3.125-1.25c0.41719 1.6e-4 0.625-0.41719 0.625-1.25-3.1e-4 -0.41719-3.1253-3.1248-9.375-8.125l-1.25-3.125 6.25 1.875 7.5 6.25-0.625-3.125-5-3.75 2.5-3.125v-0.625c-3.1e-4 -2.4998-6.2503-7.2914-18.75-14.375l-8.75-3.125-12.5-1.875v2.5m222.5-0.625-4.375 8.75-12.5 18.125c-3.7505 4.5836-5.6255 9.7919-5.625 15.625-4.7e-4 9.5836 3.5411 14.375 10.625 14.375 9.1661 1.6e-4 13.749-4.5831 13.75-13.75-6.2e-4 -5.4164-2.2922-8.1248-6.875-8.125-3.7505 1.6e-4 -5.8339 1.8752-6.25 5.625l-0.625 4.375 3.75-3.125 5 1.25c-0.41719 5.4169-2.0839 8.1252-5 8.125-5.8339 1.6e-4 -8.7505-3.3331-8.75-10-4.7e-4 -7.0831 4.9995-17.916 15-32.5 1.6661-1.6664 2.4994-3.5414 2.5-5.625-6.2e-4 -1.6664-0.20937-2.7081-0.625-3.125m-350 2.5c-0.41718 6.6669-5.8334 10.625-16.25 11.875l-1.875 8.125c-0.41718 0.41719-1.4578 0.625-3.125 0.625-2.5 1.6e-4 -4.5834-0.83281-6.25-2.5l1.25 6.875 10 2.5-1.25 7.5c0 1.6e-4 1.4578 1.25 4.375 3.75 2.9166 2.5002 4.5833 4.1669 5 5l-0.625 3.75c0 2.0836 0.625 3.1252 1.875 3.125 3.3333 1.6e-4 5-2.9164 5-8.75v-4.375l-8.125-10.625c-0.83281-0.83281-1.25-2.0831-1.25-3.75 0-0.83281 3.3333-3.7498 10-8.75 2.9166-1.6664 4.375-4.3748 4.375-8.125 0-2.0831-1.0422-4.1664-3.125-6.25m118.75 20.625c-7.0836 4.5836-10.625 11.25-10.625 20l1.875 0.625 0.625-10.625 2.5 0.625v1.875c-0.83281 2.9169-1.0422 4.7919-0.625 5.625 0.83281 4.1669 1.25 6.2502 1.25 6.25 0.83281-0.41719 0.41719-0.625-1.25-0.625-1.25-0.41719-2.0836-1.25-2.5-2.5v4.375c-10.834 1.25-17.084 3.9586-18.75 8.125-1.25 5.8334-1.8753 10.208-1.875 13.125-3.1e-4 3.7502 1.25 6.8752 3.75 9.375l9.375 10 7.5 6.25c2.9164 2.5002 4.3747 6.2502 4.375 11.25-3.1e-4 3.7502-2.917 6.6667-8.75 8.75 0.83281 0.41719 1.4578 0.83281 1.875 1.25 0.41563 1.6e-4 0.625 1.6e-4 0.625 0 7.083 1.6e-4 10.625-3.9583 10.625-11.875-3.1e-4 -5.4166-5.0003-13.125-15-23.125-2.5003-2.9166-3.7503-5.4166-3.75-7.5v-3.125l0.625-3.75c-3.1e-4 -0.41719 1.4578-0.83281 4.375-1.25 2.9164-0.83281 4.3747-2.0831 4.375-3.75v-0.625c13.75 0.83281 20.625 9.5834 20.625 26.25-3.1e-4 18.75-10.625 38.333-31.875 58.75 12.083-4.9998 22.083-13.75 30-26.25 8.333-12.917 11.875-26.25 10.625-40v-3.125l-3.125-16.875-14.375-23.75c-1.25-1.6664-1.8753-3.9581-1.875-6.875v-5.625l-0.625-1.25m-204.38-0.625c-11.667 9.1669-17.5 16.667-17.5 22.5l0.625 5c2.0834 7.0836 6.25 10.625 12.5 10.625 7.5 1.6e-4 11.25-3.7498 11.25-11.25 0-2.0831-0.625-4.9998-1.875-8.75 0 4.5836-1.4578 8.3336-4.375 11.25-0.83281 0.41719-2.0833 0.625-3.75 0.625-2.0833 1.6e-4 -3.5417-0.20781-4.375-0.625-2.9166-2.9164-4.375-6.0414-4.375-9.375l1.25-1.25 7.5-11.25c2.0833-3.3331 3.125-5.2081 3.125-5.625v-1.875m358.75 110.62-20.625 18.125-3.125 2.5-5.625 3.125-10 5.625c-7.0838 4.5834-10.625 6.4584-10.625 5.625-4.7e-4 2.0834 0.83281 3.125 2.5 3.125 1.6662 0 7.083-2.7083 16.25-8.125 42.5-22.917 69.791-66.875 81.875-131.88l-0.625-0.625h-0.625c-2.0839 1.6e-4 -4.1672 4.1669-6.25 12.5-0.83437 2.9169-1.4594 5.6252-1.875 8.125-0.41719 2.5002-1.0422 5.2086-1.875 8.125-6.2505 19.583-10.834 31.667-13.75 36.25l-15 26.25c-0.83437 1.25-4.3755 5.0002-10.625 11.25m-43.75-95h-3.125l-4.375 0.625v1.875l8.75 0.625 1.875 3.125h-10v2.5l-5-0.625 1.875 3.75 3.75 5 1.875 1.25-0.625 0.625c6.6662 3.7502 12.916 5.6252 18.75 5.625 0.83281 1.6e-4 5.2078-1.6666 13.125-5l-1.25-1.875c-2.0838-0.83281-3.3338-2.2914-3.75-4.375 12.083-0.83281 18.75-5.2081 20-13.125h-11.25l-12.5-4.375-8.125-0.625-6.25 1.25 0.625 3.75h-4.375m84.375-4.375c-8.7505 2.5002-14.792 3.7502-18.125 3.75-1.6672 1.6e-4 -4.1672-0.41719-7.5-1.25-3.3338-0.83281-5.8338-1.25-7.5-1.25 0.83281 1.6e-4 -0.41719 6.0419-3.75 18.125-1.25 5.8336-2.7088 11.25-4.375 16.25-1.25 4.5834-2.7088 8.7502-4.375 12.5l-6.25 12.5-1.875 5c-8.7505 19.583-24.792 36.667-48.125 51.25-21.667 14.167-45.417 20.833-71.25 20l-3.125-0.625c-4.167-0.41719-7.7086-0.625-10.625-0.625h-9.375c-2.0836 0-3.3336 0.20781-3.75 0.625-1.25 0.83281-2.917 1.875-5 3.125-1.667 0.83281-3.542 1.875-5.625 3.125l-8.75 3.75 72.5 14.375 69.375 17.5 7.5 1.25 21.25 1.875c20 1.25 38.333-3.9583 55-15.625 16.666-11.667 25-24.792 25-39.375-4.7e-4 -2.9166-0.83437-4.3748-2.5-4.375-1.6672 1.6e-4 -2.7089 2.0834-3.125 6.25l-2.5 6.25c-15.834 13.75-32.5 20.625-50 20.625-25 0-47.917-6.0416-68.75-18.125v-4.375c1.6662-0.83281 2.9162-1.25 3.75-1.25 0.83281-0.41719 1.6662-0.83281 2.5-1.25 42.5-14.167 72.291-54.792 89.375-121.88l1.875-6.25-1.875-1.875m-140.62 2.5-5.625 1.875c-2.917 0.83281-6.2503 2.9169-10 6.25l-2.5 2.5-5 11.25c1.25 0.41719 2.708 0.625 4.375 0.625h3.75c2.083 1.6e-4 4.1662-0.41719 6.25-1.25 2.083-1.25 3.333-1.8748 3.75-1.875 0.83281 0.83438 1.25 1.4594 1.25 1.875l-3.125 5.625c-0.83437 0.83281-0.41719 2.7084 1.25 5.625l1.875 2.5c-3.1e-4 0.83281 0.625 2.2919 1.875 4.375 1.25 2.0834 2.4997 2.9169 3.75 2.5 2.9162-0.83281 6.8747-2.0831 11.875-3.75 4.9995-1.6666 8.5412-4.7916 10.625-9.375l2.5 1.25 2.5 2.5 1.25 1.875 3.125 0.625 0.625-3.125h1.25c2.9162-2.9166 4.3745-6.0416 4.375-9.375v-12.5l-3.75-0.625 1.25 5.625h-2.5c-4.7e-4 -2.9164-0.83437-4.3748-2.5-4.375-0.83281 1.6e-4 -1.25 0.41719-1.25 1.25-4.7e-4 1.6e-4 0.41563 1.25 1.25 3.75l-2.5 1.25-1.875-5h-2.5c0.83281 3.3336 1.25 5.0002 1.25 5-4.7e-4 0.41719-1.0422 1.0422-3.125 1.875v-3.75l-1.25 5h-3.75l-0.625-8.125-2.5 12.5h-3.125l0.625-8.75-2.5 1.875h-2.5l3.125-9.375-2.5 0.625v1.25l-1.875 3.75-3.125-1.25 3.125-6.25-3.75 2.5h-1.875v-0.625l0.625-4.375-1.875 0.625v-4.375m-153.75 8.125c-1.6667 0.41719-2.5002 1.6669-2.5 3.75-1.5e-4 2.5002 1.25 3.7502 3.75 3.75 2.9166 1.6e-4 4.3748-1.25 4.375-3.75-1.5e-4 -2.4998-1.6667-3.7498-5-3.75h-0.625m-12.5 1.875c-2.9167 1.6e-4 -4.375 1.25-4.375 3.75 0 2.5002 1.4578 3.7502 4.375 3.75 2.9166 1.6e-4 4.375-1.25 4.375-3.75 0-2.4998-1.4578-3.7498-4.375-3.75m179.38 0.625-1.25 5c1.6662-1.25 2.4997-2.2914 2.5-3.125-3.1e-4 -0.41562-0.41719-1.0406-1.25-1.875m-157.5 8.75c-1.25 1.6e-4 -2.0834 0.625-2.5 1.875l-0.625 1.25v0.625c-1.5e-4 2.0834 1.25 3.1252 3.75 3.125 2.5 1.6e-4 3.7498-0.83281 3.7502-2.5-3.1e-4 -2.9164-1.4578-4.3748-4.3752-4.375m-13.75 0c-2.5002 1.6e-4 -3.75 1.25-3.75 3.75 0 3.7502 1.8748 5.6252 5.625 5.625 3.3333 1.6e-4 4.9998-1.4578 5-4.375-1.5e-4 -3.3331-2.2917-4.9998-6.875-5m53.125 21.875 0.625 3.75c-8.3336 1.25-13.334 5.2084-15 11.875l6.875-2.5 7.5-0.625c2.0831 1.6e-4 3.1247-0.83281 3.125-2.5v-3.75c-3.1e-4 -0.83281 0.41563-1.25 1.25-1.25h3.125l6.875 1.875 3.75 2.5 7.5 9.375c1.25 4.5834 1.8747 7.9169 1.875 10-3.1e-4 20.417-5.0003 33.958-15 40.625-3.3336 2.0834-5.0003 3.7502-5 5 0.83281 0.83281 1.6664 1.25 2.5 1.25 0.83281 1.6e-4 2.4997-1.6666 5-5l6.875-8.125 3.125-5 1.875-6.25 1.875-3.75c2.083-5.4166 3.1247-10.833 3.125-16.25-3.1e-4 -14.167-3.9586-22.708-11.875-25.625l-16.25-6.875v-6.875l-6.875-2.5-11.875-8.75v4.375c-0.83437 5.0002 4.1664 10 15 15m-69.375-17.5c-1.25 1.6e-4 -2.0834 1.25-2.5 3.75v1.25c0 2.9169 1.6666 4.3752 5 4.375 3.75 1.6e-4 5.625-1.6666 5.625-5 0-3.3331-2.5-4.9998-7.5-5l-0.625 0.625m321.25 10.625c-1.6672 2.9169-2.5005 5.4169-2.5 7.5-4.7e-4 3.7502 2.4995 5.6252 7.5 5.625 3.3328 1.6e-4 6.0411-2.2916 8.125-6.875 2.4995-6.2498 3.7495-10.833 3.75-13.75-4.7e-4 -2.0831-0.625-3.1248-1.875-3.125-1.25 0.83281-1.8755 2.2919-1.875 4.375-4.7e-4 7.9169-2.2922 11.875-6.875 11.875-2.5005 1.6e-4 -4.5839-1.8748-6.25-5.625m-103.75-5c7.083 0.83281 10.625 3.1252 10.625 6.875-4.7e-4 0.83281-0.625 3.1252-1.875 6.875-4.5838 5.8334-8.1255 9.1669-10.625 10-4.167 1.6669-6.2505 2.7084-6.25 3.125-4.7e-4 1.25 0.625 1.8752 1.875 1.875 1.25 1.6e-4 5.6245-1.6666 13.125-5l6.875-3.75c3.7495-1.6666 5.6245-5.6248 5.625-11.875-4.7e-4 -3.7498-3.7505-7.9166-11.25-12.5l-1.25-0.625c-3.7505 1.6e-4 -6.042 1.6669-6.875 5m-296.25 4.375c0.41719 2.5002 2.0833 3.7502 5 3.75 3.75 1.6e-4 5.625-2.0831 5.625-6.25 0-3.3331-1.875-4.9998-5.625-5-3.3333 1.6e-4 -5 2.0834-5 6.25v1.25m331.88 0 4.375 2.5 0.625 1.25c-4.7e-4 2.0834-2.0838 4.5834-6.25 7.5h1.875c6.2495 0.83281 9.3745-2.2916 9.375-9.375-4.7e-4 -3.3331-1.8755-4.9998-5.625-5-2.0838 1.6e-4 -3.5422 1.0422-4.375 3.125m-233.13 0c-1.6667 0.41719-2.5002 1.8752-2.5 4.375-1.5e-4 4.1669 1.8748 6.2502 5.625 6.25 2.9166 1.6e-4 4.3748-1.8748 4.375-5.625-1.5e-4 -3.3331-2.2917-4.9998-6.875-5h-0.625m39.375 8.125-8.75 1.25-13.75 8.75c-1.6669 1.6669-6.2503 2.5002-13.75 2.5-2.9167 1.6e-4 -5.8334-1.4578-8.75-4.375l-3.125-3.125-0.625-3.125 0.625-8.75h-1.875c-2.0834 1.6e-4 -3.125 2.7084-3.125 8.125 0 4.1669 1.875 7.9169 5.625 11.25 3.7498 3.3334 7.7083 5.0002 11.875 5 7.0833 1.6e-4 12.083-1.4578 15-4.375l11.25-8.75 9.375-4.375m86.25-1.875 0.625 1.875c4.1662 0.41719 7.083 2.0834 8.75 5v1.875l-1.25 6.875-6.25 11.25-1.875 5.625 3.125-5.625 5.625-6.25c4.583-5.8331 6.8747-10.833 6.875-15-3.1e-4 -6.6666-3.1253-9.9998-9.375-10-0.41719 1.6e-4 -0.83437 0.20781-1.25 0.625l-5 3.75m193.75 3.75-4.375 5-1.875 5-4.375 5c-7.9172 5.4169-12.917 8.1252-15 8.125-3.3339 1.6e-4 -5.6255-0.20781-6.875-0.625v1.875c-4.7e-4 2.9169 6.4578 4.3752 19.375 4.375 4.5828 1.6e-4 8.9578-1.4578 13.125-4.375 3.3328-2.4998 5.6245-5.4166 6.875-8.75-3.3339 0.83281-4.7922 1.25-4.375 1.25-1.6672 1.6e-4 -2.5005-0.83281-2.5-2.5l0.625-1.25 3.75-2.5 2.5-9.375 4.375-3.125 0.625-0.625c-6.2e-4 -2.0831-1.6672-3.1248-5-3.125-2.0839 1.6e-4 -4.3755 1.8752-6.875 5.625m-442.5 16.25 1.25 6.25 3.125 5c5 5.8334 10.625 8.7502 16.875 8.75 1.6667 1.6e-4 2.7083-0.20781 3.125-0.625l10.625-2.5c5.8333 1.6e-4 8.75 3.3334 8.75 10 0 2.5002-1.6667 4.7917-5 6.875-2.9167 2.0834-5.625 3.1252-8.125 3.125l-10.625-1.25c-5.4167 1.6e-4 -10.625 3.7502-15.625 11.25-1.6666 2.9167-2.5 5.4167-2.5 7.5v2.5c0.41719 0.83281 0.83282 2.2917 1.25 4.375 4.1667 9.1667 11.458 13.75 21.875 13.75 1.6667 0 3.5417-0.20781 5.625-0.625 2.0833-0.83281 3.3333-1.25 3.75-1.25 0.83282 0 1.875 0.625 3.125 1.875l1.875 2.5c-4.1667 2.9167-6.25 5.625-6.25 8.125 0 2.0834 1.25 3.9584 3.75 5.625v3.125c-9.1667-0.83281-17.292-3.5416-24.375-8.125-2.9166-1.6666-5.2083-2.5-6.875-2.5-1.6666 0-2.5 0.625-2.5 1.875 0-0.41719 0.41719 0.625 1.25 3.125 3.75 5.4167 11.875 10.625 24.375 15.625 0.83282 0.41719 1.6667 0.83281 2.5 1.25 1.25 0.41719 2.7083 1.0422 4.375 1.875l0.625 2.5c5.4167 8.75 13.958 13.125 25.625 13.125 1.25 0 1.875-0.20781 1.875-0.625 0-1.25-0.20781-2.0833-0.625-2.5l28.125-3.125-20.625 5v1.875c4.1666-0.41719 6.875-1.0422 8.125-1.875 8.3333-2.0833 12.917-3.125 13.75-3.125l5.625-0.625c0.41719-0.41719 4.5833-1.6666 12.5-3.75 2.0833-0.41719 3.75-0.625 5-0.625 1.6666-0.41719 2.9166-0.625 3.75-0.625 5.4166 0 8.1248 2.5 8.125 7.5-1.5e-4 1.6667-2.2917 3.5417-6.875 5.625v1.875c3.3333 0.83281 5.2083 1.25 5.625 1.25 5.4166 0 8.1248-3.3333 8.125-10-1.5e-4 -10.417-8.1252-15.625-24.375-15.625-3.3334 0-5.2084 0.20781-5.625 0.625l-3.75 1.875h-3.75l6.875-9.375c-5.4167-2.0833-8.5417-3.125-9.375-3.125-2.9167 0-6.25 0.83281-10 2.5-11.25 4.1667-21.875 6.25-31.875 6.25-5 0-7.5-1.875-7.5-5.625 0-4.5833 2.5-6.6666 7.5-6.25h0.625l6.25 0.625 6.875 1.25h3.75c6.6666 0.41719 12.292-1.4578 16.875-5.625 5-4.1666 7.5-9.375 7.5-15.625 0-4.5833-0.41718-6.8748-1.25-6.875-1.25 1.6e-4 -3.125 1.25-5.625 3.75l-3.125-1.875v1.875c-0.41718-0.41719-0.625-1.4578-0.625-3.125 0-0.83281 0.625-2.9166 1.875-6.25 1.25-3.3333 1.875-6.2498 1.875-8.75 0-2.0833-0.20781-3.3333-0.625-3.75l-1.25-2.5-1.875 2.5-4.375-0.625 1.25 0.625-1.25-5.625c-2.0834-6.2498-6.25-9.3748-12.5-9.375-7.5 1.6e-4 -13.958 5.0002-19.375 15l-4.375 8.75c-3.3333 6.6667-8.3333 10.833-15 12.5l-11.25-1.25c-3.3333-4.5833-5-8.1248-5-10.625 0-3.7498 2.5-7.2916 7.5-10.625 3.3333-2.4998 7.2917-4.1666 11.875-5l10-1.25c7.9167-0.41719 11.875-5.2083 11.875-14.375 0-2.4998-1.25-5.2083-3.75-8.125-2.0833-2.9166-4.375-4.3748-6.875-4.375 1.6667 1.25 2.9167 2.2919 3.75 3.125 0.83282 0.41719 1.25 0.625 1.25 0.625 0.41719-0.41719-1.875-0.83281-6.875-1.25-5.8333-0.83281-12.5-0.83281-20 0-9.5833 0.83281-14.375-5.2081-14.375-18.125 0-7.9166 1.875-11.875 5.625-11.875l11.25-1.875-2.5-3.125c-0.83281-0.83281-2.0833-1.25-3.75-1.25-9.1666 1.6e-4 -14.792 7.2919-16.875 21.875m35-20c-3.75 1.6e-4 -5.625 1.6669-5.625 5 0 3.7502 1.875 5.6252 5.625 5.625 2.9167 1.6e-4 4.375-1.4578 4.375-4.375 0-4.1666-1.4578-6.2498-4.375-6.25m261.25 3.125c-2.5005 1.6e-4 -4.3753 1.25-5.625 3.75l-23.125 30.625-3.125 5.625 5-5c0.83281-0.83281 1.4578-1.6666 1.875-2.5l1.875-1.875c13.333-17.083 22.083-25.625 26.25-25.625h13.125l-2.5-6.25-10-0.625-3.75 1.875m-23.75 0-2.5 4.375-2.5 5.625-3.125 5c-1.667 2.9169-3.1253 5.4169-4.375 7.5-1.25 2.0834-2.7088 4.1669-4.375 6.25-0.41719 0.83281-1.25 1.8752-2.5 3.125-0.83437 0.83281-2.0838 2.2917-3.75 4.375-0.83437 0.83281-1.667 1.6667-2.5 2.5-0.41719 0.83281-1.0422 1.6667-1.875 2.5-37.084 34.583-72.709 56.25-106.88 65-4.1669 1.25-7.5003 2.2917-10 3.125-2.0834 0.41719-3.5417 0.83281-4.375 1.25-2.0834 0.41719-4.3752 0.83281-6.875 1.25-2.0834 0.41719-4.1667 1.0422-6.25 1.875v1.875h6.25l10.625 3.125 3.75-1.25 27.5-9.375c25.416-8.75 49.166-22.708 71.25-41.875 22.916-19.167 41.458-40.208 55.625-63.125l-4.375 0.625-4.375 2.5-4.375-6.25m-253.13 5c-2.5 1.6e-4 -3.75 1.25-3.75 3.75 0 3.7502 1.875 5.6252 5.625 5.625 3.75 1.6e-4 5.625-1.6666 5.625-5 0-3.3331-2.2917-4.9998-6.875-5l-0.625 0.625m293.13 13.125 0.625 1.875c-0.83281-0.83281-1.667-1.25-2.5-1.25-0.83437 1.6e-4 -1.667 0.41719-2.5 1.25-10.417 3.7502-20.834 10-31.25 18.75l-18.125 14.375-17.5 12.5-5 3.75c-2.0836 0.83281-4.3753 2.0834-6.875 3.75-2.0836 1.25-4.167 2.7084-6.25 4.375l-35.625 21.25-21.25 9.375-29.375 12.5-3.7502 0.625 0.625 1.875c15.833-4.1666 31.25-9.5833 46.25-16.25 15-6.6666 29.583-14.792 43.75-24.375l21.875-14.375 10-6.25 3.75-3.75c0.83281-0.83281 3.1247-2.7083 6.875-5.625 3.7497-2.9166 8.5412-6.6666 14.375-11.25 4.1662-3.3333 7.4997-5.8333 10-7.5 2.4997-2.0831 4.3745-3.5416 5.625-4.375l12.5-6.25 3.75-2.5c1.6662-1.25 8.5412-3.1248 20.625-5.625 5.4162-1.6666 9.9995-2.4998 13.75-2.5 1.6662 1.6e-4 3.9578 0.625 6.875 1.875 2.9162 0.83281 4.9995 1.25 6.25 1.25 0.83281 1.6e-4 2.2912-1.6666 4.375-5-2.0838-0.41719-3.9588-0.625-5.625-0.625-1.25-0.41719-2.2922-0.625-3.125-0.625-13.75 1.6e-4 -26.042 2.0834-36.875 6.25-4.7e-4 1.6e-4 -0.625 0.20781-1.875 0.625-0.83281 0.41719-2.292 1.0422-4.375 1.875m-268.75-7.5h-1.25c-2.5 1.6e-4 -3.75 0.83281-3.75 2.5 0 2.5002 1.25 3.7502 3.75 3.75 2.5 1.6e-4 3.75-0.83281 3.75-2.5 0-2.0831-0.83281-3.3331-2.5-3.75m267.5 1.875-5 1.875-5 2.5-6.25 2.5c-2.0838 0.83281-4.5838 3.3334-7.5 7.5l11.25-5.625c8.333-4.5831 12.5-6.6666 12.5-6.25v-2.5m-281.88 1.25c-1.6667 0.41719-2.5 1.8752-2.5 4.375 0 2.5002 1.25 3.7502 3.75 3.75 3.3333 1.6e-4 5-1.4578 5-4.375 0-2.4998-1.875-3.7498-5.625-3.75h-0.625m107.5 11.875c3.3331 0.83281 4.9997 1.8752 5 3.125-3.1e-4 0.83281-0.20781 1.4578-0.625 1.875-3.3336 4.5834-5.0002 8.3334-5 11.25-1.6e-4 8.3334 2.4997 12.083 7.5 11.25l15.625-1.25c2.4997 1.6e-4 3.9581 2.7084 4.375 8.125 2.0831-3.3333 3.1247-5.2083 3.125-5.625-3.1e-4 -4.5833-2.0836-6.8748-6.25-6.875h-0.625l-1.875 0.625-6.25 2.5c-0.41719 0.41719-1.0422 0.625-1.875 0.625-3.7503 1.6e-4 -5.6253-3.1248-5.625-9.375-3.1e-4 -3.3333 1.6664-6.2498 5-8.75 3.3331-2.9166 7.0831-4.1666 11.25-3.75h2.5c3.3331 0.41719 6.2497 1.4578 8.75 3.125l2.5 3.75c2.9164 2.9167 4.3747 7.7084 4.375 14.375-3.1e-4 4.5834-2.2919 10.417-6.875 17.5v1.875c0.41563 0.41719 1.0406 0.625 1.875 0.625 2.4997 1.6e-4 4.7914-3.5416 6.875-10.625 2.4997-6.6666 3.7497-11.667 3.75-15-3.1e-4 -17.5-9.7919-26.25-29.375-26.25-10 1.6e-4 -16.042 2.2919-18.125 6.875m165 6.875c5.4162-1.25 8.958-2.4998 10.625-3.75 8.7495-3.7498 15-5.6248 18.75-5.625 0.41563 1.6e-4 3.333 1.0422 8.75 3.125 0.41563 0.83281 0.625 2.5002 0.625 5-4.7e-4 3.3334-2.0838 5.0002-6.25 5-2.5005 1.6e-4 -5.2088-1.25-8.125-3.75 0.41563 6.2502 3.1245 9.3752 8.125 9.375 8.333 1.6e-4 12.5-3.5416 12.5-10.625-4.7e-4 -7.9166-4.167-11.875-12.5-11.875-10 1.6e-4 -20.834 4.3752-32.5 13.125m-260.63-11.25v0.625c0 1.6669 0.41719 2.5002 1.25 2.5 0.83282 1.6e-4 1.6667-0.41719 2.5-1.25 0-1.6666-0.83281-2.4998-2.5-2.5l-1.25 0.625m364.38 6.875c-0.83437 3.3334-1.25 4.7917-1.25 4.375-4.7e-4 0.83281 1.0406 1.8752 3.125 3.125l3.75 3.75 1.875 5.625c-3.7505 1.6e-4 -5.6255 1.25-5.625 3.75-4.7e-4 -0.83281 0.41563-0.625 1.25 0.625 1.25 1.25 2.4995 3.1252 3.75 5.625 1.25 2.5002 2.2911 5.4167 3.125 8.75 1.25 3.3334 1.8745 6.4584 1.875 9.375-4.7e-4 9.5834-5.0005 18.125-15 25.625 17.083-2.5 25.625-10.208 25.625-23.125-4.7e-4 -9.1666-3.3339-17.083-10-23.75-1.25-1.6666-1.8755-3.1248-1.875-4.375-4.7e-4 -2.4998 1.6661-3.7498 5-3.75 1.6661 1.6e-4 4.7911 1.6667 9.375 5l6.875 3.75 1.25-2.5h5.625c0.83281 1.6e-4 1.6661 1.6e-4 2.5 0 1.25-0.41719 2.7078-0.83281 4.375-1.25 2.0828-5.4166 3.1244-8.5416 3.125-9.375-6.2e-4 -2.4998-0.20937-4.3748-0.625-5.625-2.5006 5.4167-7.5005 8.3334-15 8.75l-3.75-2.5c-3.7505-4.9998-8.1255-7.4998-13.125-7.5-1.25 1.6e-4 -2.0839 0.20781-2.5 0.625l-1.875 3.75-4.375-2.5-1.25-1.875c-1.6672-2.4998-3.7505-3.9581-6.25-4.375m-116.88 15c-4.167 2.9167-8.1253 5.6252-11.875 8.125-3.7503 2.5002-7.292 5.0002-10.625 7.5-2.917 1.6667-6.4588 3.9584-10.625 6.875-3.7503 2.5002-8.3338 5.4167-13.75 8.75l-1.875 1.875c-0.83281 0.41719-1.8753 1.25-3.125 2.5l7.5-1.875 31.875-21.875c8.7497-6.2498 18.75-9.3748 30-9.375 4.1662 1.6e-4 7.708 1.4578 10.625 4.375 1.25 2.0834 1.8745 3.7502 1.875 5-4.7e-4 0.83281-0.41719 1.6667-1.25 2.5-1.667 2.5002-4.792 4.7917-9.375 6.875l-4.375 0.625-22.5-1.25c-3.7503 1.6e-4 -7.292 2.2917-10.625 6.875-0.83437 2.5002-1.25 3.7502-1.25 3.75-3.1e-4 3.3334 2.2912 5.0002 6.875 5h1.25c-0.41719-1.25-0.625-3.1248-0.625-5.625-3.1e-4 -4.5833 2.4997-6.8748 7.5-6.875 1.6662 1.6e-4 3.333 0.20781 5 0.625 2.083 1.6e-4 4.583 0.20781 7.5 0.625 0.41563 0.41719 1.25 0.625 2.5 0.625 1.6662 1.6e-4 3.1245 0.20781 4.375 0.625 15.416-2.9166 23.125-9.3748 23.125-19.375-4.7e-4 -7.9166-5.2088-11.875-15.625-11.875l-2.5 0.625-20 4.375m109.38-1.25 1.25 7.5c0.83281 4.1667 1.25 6.4584 1.25 6.875v1.25l-1.25 0.625-4.375 8.125-4.375 3.75-17.5 5.625c-6.2505 4.5834-9.3755 9.375-9.375 14.375-4.7e-4 5.8334 2.7078 8.5417 8.125 8.125h4.375c-3.7505-2.9166-5.6255-5.4166-5.625-7.5-4.7e-4 -5.4166 2.4995-8.1248 7.5-8.125 1.25 1.6e-4 2.7078 0.625 4.375 1.875 2.0828 0.83281 3.1245 1.25 3.125 1.25h1.25c2.0828 0 3.5412-2.2916 4.375-6.875l1.875-0.625 1.875 1.25-0.625 3.125c-4.7e-4 2.5 0.83281 3.75 2.5 3.75 2.4995 0 4.7911-2.2916 6.875-6.875 3.3328-7.9166 4.9995-12.917 5-15-4.7e-4 -1.6666-0.625-4.1666-1.875-7.5l-2.5-6.875-5-8.75-1.25 0.625m53.125 10.625c-2.9172 1.6e-4 -4.3755 1.8752-4.375 5.625-4.7e-4 2.0834 1.0406 3.1252 3.125 3.125 2.9161 1.6e-4 4.3744-1.25 4.375-3.75-6.2e-4 -3.3333-1.0422-4.9998-3.125-5m-15 3.125c-2.0839 1.6e-4 -3.3339 0.83281-3.75 2.5l-0.625 1.25c-4.7e-4 2.5002 1.4578 3.7502 4.375 3.75 2.9161 1.6e-4 4.3745-1.25 4.375-3.75-4.7e-4 -2.4998-1.4594-3.7498-4.375-3.75m0.625 11.875c-2.0839 1.6e-4 -3.1255 1.4578-3.125 4.375-4.7e-4 2.9167 0.83281 4.5834 2.5 5 2.9161 1.6e-4 4.3745-1.8748 4.375-5.625-4.7e-4 -2.4998-1.25-3.7498-3.75-3.75m-265 18.125-1.875 0.625v1.875l6.25-2.5 3.75-2.5c5.8331-3.7498 8.7497-5.4166 8.75-5-0.41719-0.41719-0.83437-0.625-1.25-0.625l-15.625 8.125m-68.125-1.875c5.8333 1.6e-4 8.75 2.2917 8.75 6.875 0 3.75-1.4578 6.4584-4.375 8.125-2.9167 1.6667-6.0417 3.3334-9.375 5 13.75-1.6666 20.625-5.8333 20.625-12.5-1.5e-4 -6.6666-2.7084-9.9998-8.125-10h-1.875l-5.625 2.5m347.5 1.875-2.5 6.875c-4.1672 8.75-8.7505 15.208-13.75 19.375-10.834 12.083-22.917 20-36.25 23.75-10.417 2.5-20 3.5417-28.75 3.125h-5c-0.83437 0-2.9172-0.20781-6.25-0.625-2.9172-0.41719-7.2922-1.0422-13.125-1.875l-13.75-1.875c-1.25-0.83281-3.9588-1.4578-8.125-1.875l-3.125-0.625c-0.41719 0-2.292-0.41719-5.625-1.25-2.917-1.25-6.4588-2.2916-10.625-3.125-4.167-1.25-8.1255-2.2916-11.875-3.125-3.7503-1.25-6.4588-2.0833-8.125-2.5l-3.75-0.625-6.875-1.875-6.25-1.875-9.375-1.875-10.625-3.125-49.375-8.75c-0.41719-0.41719-1.8753-0.625-4.375-0.625-1.25 0-2.0836 0.625-2.5 1.875l19.375 5 112.5 26.875c17.083 4.1667 33.125 6.25 48.125 6.25 25 0 42.916-5 53.75-15l12.5-12.5c9.5828-9.5833 14.374-17.292 14.375-23.125-6.2e-4 -3.3333-0.20937-5.625-0.625-6.875m-317.5 0c0.41719 0.83281 0.625 1.4578 0.625 1.875l0.625 0.625 3.1252 0.625 3.75 1.875 5.625 1.25v-1.25c-0.83281-1.25-3.1253-1.875-6.875-1.875-0.83281-0.41719-1.8753-0.83281-3.125-1.25-0.83281-0.41719-2.0836-1.0422-3.7502-1.875m33.75 2.5-3.75 1.25v1.875c1.6664 0 2.9164-1.0422 3.75-3.125m-15 6.875v1.875c2.9164-0.41719 4.3747-1.25 4.375-2.5-3.1e-4 -0.83281-0.20781-1.25-0.625-1.25l-3.75 1.875m-17.5-0.625-28.125 12.5c10.417-1.6666 20.833-5.8333 31.25-12.5h-3.1252m23.125 25.625 6.25-0.625 11.25-3.125c3.3331-0.83281 5.6247-1.25 6.875-1.25 11.25 0 16.875 3.9584 16.875 11.875-3.1e-4 8.3334-3.7503 12.5-11.25 12.5-4.1669 0-7.7086-1.25-10.625-3.75l-10-8.125c-2.0836-1.25-4.1669-1.875-6.25-1.875-7.9169 0-11.875 2.7084-11.875 8.125-3.1e-4 2.0834 0.83281 3.9583 2.5 5.625l1.25-0.625c0.83281-5.8333 2.7081-8.75 5.625-8.75h0.625c2.0831 0 3.7497 0.41719 5 1.25 1.6664 0.41719 5.4164 3.125 11.25 8.125 4.1664 3.75 8.9581 5.625 14.375 5.625 11.25 0 16.875-5.2083 16.875-15.625-3.1e-4 -12.5-5.6253-18.75-16.875-18.75-1.25 0-6.0419 1.0422-14.375 3.125l-11.875 3.75c-0.41719 0.41719-2.2919 1.25-5.625 2.5m-151.88-5c2.5 3.75 5.8333 7.0834 10 10 4.1667 2.5 6.25 5 6.25 7.5 0 3.75-1.6667 5.625-5 5.625-1.25 0-2.0833-0.20781-2.5-0.625l-9.375-7.5h-0.625l-1.25-0.625c-2.0833 0-3.3333 2.0834-3.75 6.25h6.875l6.875 7.5c0.83282 0.83281 2.0833 1.25 3.75 1.25 7.0833 0 10.625-3.3333 10.625-10 0-5.8333-7.2917-12.292-21.875-19.375m441.25 0-1.25 5.625v14.375l-1.25 1.25-1.25 0.625h-8.75l1.875 4.375h1.25c8.3328 0.83281 12.499-2.5 12.5-10-6.2e-4 -1.6666-1.0422-7.0833-3.125-16.25m-236.25 5.625c6.6664 15 13.958 22.5 21.875 22.5 3.7497 0 6.0414-1.0422 6.875-3.125l2.5-6.25c0.83281-2.0833 3.333-3.125 7.5-3.125 2.9162 0 5.208 0.83281 6.875 2.5l1.25 1.25c2.9162 3.75 5.208 5.625 6.875 5.625 0.41719-0.41719 0.625-0.83281 0.625-1.25-3.1e-4 -3.3333-2.7088-6.4583-8.125-9.375-3.7503-2.5-7.5003-3.75-11.25-3.75-2.917 0-4.5838 0.83281-5 2.5l-3.75 8.125c-0.83437 1.25-2.0836 1.875-3.75 1.875-4.167 0-7.0836-1.25-8.75-3.75l-13.75-13.75m65.625 18.125c-3.1e-4 3.3333 1.6662 5 5 5 3.7497 0 5.6247-2.2917 5.625-6.875-3.1e-4 -1.6666-2.0838-2.5-6.25-2.5-3.3338 0-5.0003 1.4578-5 4.375h0.625m-215.63-415.62-1.25-1.25c0-2.083 0.41719-3.1245 1.25-3.125 1.6667 4.7e-4 2.5 1.25 2.5 3.75l-2.5 0.625m-6.875 1.25c0.41719-0.41562 0.83282-0.625 1.25-0.625 0.41719 4.7e-4 0.83282-0.20781 1.25-0.625 2.5 0.83438 3.75 2.0838 3.75 3.75 0 2.917-1.25 4.5838-3.75 5v-4.375l-2.5-3.125c0 0.41719 0.41719 1.0422 1.25 1.875l-1.25-1.875m-2.5 5.625 1.25 1.25v5.625c-0.83281 4.7e-4 -1.875-1.8745-3.125-5.625-1.25-1.25-2.2917-2.083-3.125-2.5l-1.25-1.25 1.25-1.875 1.25-0.625c1.6667 4.7e-4 2.9167 1.667 3.75 5m-31.875 8.125-1.875-0.625c-3.3333-0.83281-1.25-1.4578 6.25-1.875l11.25-6.875-10 8.75-5.625 0.625m368.75 1.25h-0.625c1.6662 4.7e-4 2.4995-0.625 2.5-1.875-0.83437-0.83281-1.4594-1.8745-1.875-3.125l-3.75 1.25 3.75 3.75m-0.625 7.5h-2.5c-0.41719-0.41562-0.625-1.6662-0.625-3.75l5-0.625-1.875 4.375m-1.875 1.875c3.3328 4.7e-4 4.9995 1.0422 5 3.125-4.7e-4 2.0838-1.25 3.1255-3.75 3.125-0.83437 4.7e-4 -1.4594-0.83281-1.875-2.5l0.625-3.75m-113.75 6.875 5 3.125 1.875 1.875 3.75 5 0.625 0.625 1.875 10.625 1.875 1.25-12.5-18.125-2.5-1.875v-2.5m-23.75 16.875-1.25 3.125-6.25-1.875 0.625 1.25c1.6662 3.2e-4 2.4997 0.625 2.5 1.875v1.25l-8.75-1.875 3.125-2.5-9.375-1.25c6.2497-1.6662 9.3747-2.4995 9.375-2.5 2.083 4.7e-4 5.4162 0.83438 10 2.5m-85 15.625h2.5l1.25 1.25c-1.6669 1.667-1.8753 2.5003-0.625 2.5-0.83437 3.1e-4 -1.8753-0.625-3.125-1.875v-1.875m-13.125 3.125c0.41719 0.41719 0.625 0.83438 0.625 1.25-0.41719-0.41562-0.625-0.625-0.625-0.625-3.1e-4 3.1e-4 -3.1e-4 0.20938 0 0.625 0.41719 0.41719 0.83281 1.0422 1.25 1.875 0.41719 0.41719-0.41719 1.25-2.5 2.5-2.0836 1.25-3.3336 2.0838-3.75 2.5l3.125-6.25c-0.41719-0.41562-0.83437-0.83281-1.25-1.25-3.1e-4 -0.41562-0.20781-0.83281-0.625-1.25l0.625 0.625c-0.41719-0.83281-1.0422-1.6662-1.875-2.5-0.41719-0.83281-0.625-1.4578-0.625-1.875l5.625 4.375m6.875-3.75c-1.6669 0.41719-1.8753 2.0838-0.625 5 1.25 0.83438 2.0831 0.83438 2.5 0 0.83281-0.83281 1.25-1.6662 1.25-2.5-3.1e-4 -0.41562-1.0422-1.25-3.125-2.5m15 0.625v3.75l4.375-1.875-4.375-1.875m25.625 3.125 1.25 7.5-0.625-0.625-3.125-5-3.125-1.875 0.625-2.5 5 2.5m-20 8.75-10 1.875-6.25 0.625-5.625 1.875-5.625 3.125-1.25 0.625-5.625 5h-3.125v-1.25c-3.1e-4 -1.25 1.4578-2.4997 4.375-3.75 2.9164-1.6662 4.7914-3.1247 5.625-4.375l3.75-2.5 1.875-0.625 10.625-1.875 5.625-1.875 5-0.625c2.9164 3.1e-4 4.3747 0.83438 4.375 2.5-0.83437 0.83438-1.8753 1.25-3.125 1.25h-0.625m-5 10 0.625 1.875v1.875l-3.75 1.875 1.25-1.875-4.375-5.625 6.25 1.875m-64.375-0.625-1.875 4.375-5 5.625h-2.5l1.875-3.75 5.625-5.625 0.625-1.25 1.25 0.625m70 1.25-1.875 3.75v-5.625l1.875 1.875m6.875-1.25-2.5 1.25c-0.41719 1.667-3.1e-4 2.5003 1.25 2.5l0.625-0.625h0.625v-3.125m-61.875 7.5 5.625-5c-1.25 2.0838-2.7084 4.792-4.375 8.125-1.25 3.3338-2.9167 7.0836-5 11.25-1.5e-4 3.1e-4 -1.5e-4 3.1e-4 0 0-1.5e-4 -0.41719-0.20781-1.0406-0.625-1.875v-4.375c1.6666-3.333 2.0833-4.7912 1.25-4.375l3.125-3.75m-26.25 25 6.25 1.875 1.25-2.5c-0.83281 3.1e-4 -2.5-0.41562-5-1.25-2.5-0.83281-3.125-1.25-1.875-1.25l-5.625 3.75 5-0.625m0.625 6.875 6.875 3.75-1.25-4.375-3.75-2.5h-3.125l-1.875 0.625c0-0.41562-0.83281 0.20938-2.5 1.875v2.5c1.25 3.1e-4 2.5-0.20781 3.75-0.625 1.25-0.83281 1.875-1.25 1.875-1.25m211.25 15c0.83281 2.5003 2.083 3.9586 3.75 4.375 0.41563-0.41719 0.625-0.83281 0.625-1.25-4.7e-4 -0.41562 0.20781-0.83281 0.625-1.25-0.83437-0.83281-1.4594-1.25-1.875-1.25-0.41719-0.41719-0.83437-0.83281-1.25-1.25-0.83281 3.1e-4 -1.4578-0.20781-1.875-0.625v1.25m4.375 11.875c-1.25 3.1e-4 -2.0838-0.20781-2.5-0.625-4.7e-4 -2.4997 0.20781-3.7497 0.625-3.75 2.4995-2.4997 3.7495-1.25 3.75 3.75-0.41719-0.41719-1.0422-0.20781-1.875 0.625m-2.5 5h4.375l-1.875 3.75-2.5-3.75m-123.12 7.5 4.375 1.25 0.625-2.5-2.5-1.25-2.5 2.5m125 0.625 1.875 1.875c-0.83281 2.0836-1.4578 3.1253-1.875 3.125-0.83281 3.1e-4 -1.25-1.4578-1.25-4.375-4.7e-4 -0.41719 0.41719-0.625 1.25-0.625m-122.5 4.375 1.875 3.75-3.75 1.25-2.5-2.5c-3.1e-4 -1.6664 0.83281-2.4997 2.5-2.5h1.875m-1.25 8.75 1.25-1.25c0.83281-0.83281 1.0406 1.0422 0.625 5.625-3.7503-0.41719-5.6253-1.0422-5.625-1.875 2.9164-1.6664 4.1664-2.4997 3.75-2.5m1.25 8.125-7.5 1.25c-3.1e-4 3.1e-4 -1.0422 1.4578-3.125 4.375-1.6669 2.5003-4.1669 6.4586-7.5 11.875-6.6669 10.417-10 16.042-10 16.875l5-5 2.5-5.625 10-13.125c0.41719-0.41719 0.83281-1.0422 1.25-1.875 0.41719-0.83281 1.0422-1.6664 1.875-2.5 0.41719 3.1e-4 0.83281-0.20781 1.25-0.625 2.9164-3.7497 4.9997-5.6247 6.25-5.625m-3.75 16.25 0.625 3.125 2.5 3.125c-4.5836 1.6e-4 -6.8753-1.25-6.875-3.75-3.1e-4 -1.6664 0.625-2.4997 1.875-2.5h1.875m-36.875-1.875h-4.375c-0.41719 3.1e-4 -0.625 0.83438-0.625 2.5-3.1e-4 0.41719 0.20781 0.83438 0.625 1.25l2.5-1.875 1.875-1.875m-11.25 6.875 3.75-0.625-3.75-1.875v2.5m38.75 4.375 4.375 1.875 6.25-1.875c-4.1669 1.6e-4 -6.2503-0.20781-6.25-0.625l-3.125-0.625 0.625-1.875-1.875 3.125m-45-0.625 2.5-1.25c1.25 1.6e-4 1.875 0.41719 1.8752 1.25-1.6e-4 1.25-0.625 1.8752-1.8752 1.875l-1.875-0.625-0.625-1.25m126.88 13.125 8.125 1.875v1.875h-2.5l-5.625-3.75m35 0.625c3.7495 4.1669 6.8745 6.2502 9.375 6.25 0.83281 1.6e-4 1.8745 1.6e-4 3.125 0 1.25-0.41719 2.9162-0.83281 5-1.25l-5 5c-4.7e-4 1.25 0.20781 2.0836 0.625 2.5v-0.625c-0.83437-0.83281-2.7088-1.25-5.625-1.25-7.5005 1.6e-4 -11.25-3.1248-11.25-9.375-3.1e-4 -0.41719 0.20781-0.625 0.625-0.625l3.125-0.625m-88.75 24.375 0.625 1.25c-4.167 2.0836-7.0836 6.0419-8.75 11.875l-1.875-0.625 3.125-8.125 4.375-3.75 1.875-1.25 0.625 0.625m-50.625 48.75-0.625 1.25-10 1.25c1.6664-2.4998 3.7497-3.7498 6.25-3.75h1.25l3.125 1.25m288.12-0.625c-2.9172 4.1669-5.4172 6.2502-7.5 6.25-1.25 1.6e-4 -1.8755-0.625-1.875-1.875l0.625-0.625 2.5-1.25 4.375-2.5h1.875m-376.25 30 5 3.75 2.5 0.625-1.25 1.25c-3.3334-2.4998-6.4584-3.7498-9.375-3.75l3.125-1.875m5.625 13.75 1.25 2.5c1.6666 2.9167 2.5 5.6252 2.5 8.125 0 2.5002-1.4578 5.0002-4.375 7.5l-5.625 4.375c-1.25 1.25-2.5 1.875-3.75 1.875l-15.625 1.25-5.625 2.5-4.375-5 6.875-6.25 5.625-11.875c2.5-5.4166 7.0833-8.1248 13.75-8.125 1.25 1.6e-4 4.375 1.0422 9.375 3.125m348.75-0.625 2.5 0.625 0.625 1.875c1.25 8.7502 2.0828 12.917 2.5 12.5v0.625l-0.625 2.5-3.125 0.625c0.41563-1.25 0.625-2.9166 0.625-5v-3.75c-4.7e-4 -3.3333-0.83437-6.6666-2.5-10m-333.13 27.5 1.875 1.25c-0.83281 7.5-5.625 11.875-14.375 13.125l-0.625-0.625 8.125-5.625 5-8.125m-45 16.25c-0.41718 0.83281-0.625 2.5-0.625 5 0 1.6667 0.83282 3.3334 2.5 5l0.625 3.125 1.25 5h-2.5c-3.75-2.9166-5.625-5.8333-5.625-8.75v-0.625l0.625-4.375 1.875-4.375h1.875m-6.25 8.125h0.625v5.625c0 0.41719-0.41718 0.625-1.25 0.625-1.25 0-1.875-0.625-1.875-1.875v-1.25l0.625-3.125h1.875m41.25 15c-0.83281 1.25-2.9167 1.875-6.25 1.875l-4.375 0.625v-3.125l3.75-0.625 3.125-1.25 3.75 2.5"
         fill="#8f0005"
         id="path15" />
    </g>
  </g>
</svg>
