<?xml version="1.0" encoding="UTF-8" standalone="no"?>
<svg
   xmlns:dc="http://purl.org/dc/elements/1.1/"
   xmlns:cc="http://creativecommons.org/ns#"
   xmlns:rdf="http://www.w3.org/1999/02/22-rdf-syntax-ns#"
   xmlns:svg="http://www.w3.org/2000/svg"
   xmlns="http://www.w3.org/2000/svg"
   xmlns:sodipodi="http://sodipodi.sourceforge.net/DTD/sodipodi-0.dtd"
   xmlns:inkscape="http://www.inkscape.org/namespaces/inkscape"
   version="1.1"
   viewBox="0 0 500 500"
   id="svg19"
   sodipodi:docname="william-morris-letter-o.svg"
   inkscape:version="1.0.2 (1.0.2+r75+1)">
  <metadata
     id="metadata23">
    <rdf:RDF>
      <cc:Work
         rdf:about="">
        <dc:format>image/svg+xml</dc:format>
        <dc:type
           rdf:resource="http://purl.org/dc/dcmitype/StillImage" />
      </cc:Work>
    </rdf:RDF>
  </metadata>
  <sodipodi:namedview
     pagecolor="#ffffff"
     bordercolor="#666666"
     borderopacity="1"
     objecttolerance="10"
     gridtolerance="10"
     guidetolerance="10"
     inkscape:pageopacity="0"
     inkscape:pageshadow="2"
     inkscape:window-width="1920"
     inkscape:window-height="1016"
     id="namedview21"
     showgrid="false"
     inkscape:zoom="1.686"
     inkscape:cx="255.33808"
     inkscape:cy="250"
     inkscape:window-x="0"
     inkscape:window-y="27"
     inkscape:window-maximized="1"
     inkscape:current-layer="svg19" />
  <defs
     id="defs7">
    <linearGradient
       id="linearGradient847"
       x1="500"
       x2="0"
       y1="500"
       y2="-4.2633e-14"
       gradientTransform="translate(236.06169,-6.5243179)"
       gradientUnits="userSpaceOnUse">
      <stop
         stop-color="#ff6700"
         offset="0"
         id="stop2" />
      <stop
         stop-color="#ffd700"
         offset="1"
         id="stop4" />
    </linearGradient>
  </defs>
  <path
     d="m243.46 37.76a199.04 212.37 0 0 0-50.531 6.957c-0.49813-0.8639-1.4766-2.5664-1.4766-2.5664l-75.91 31.664-7.8086 10.066 17.244-1.0488 7.5488-2.0977 8.5976 7.1289s3.1398 5.7832 5.0527 9.7285l7.4375-8.623 39.592-21.057 42.408-6.0801 48.043 5.4863 41.963 16.164 6.8496 7.166c3.4962-2.6441 6.7904-5.1809 7.2402-5.7207 1.0485-1.2582 15.098-1.886 16.775-2.0957 0.97524-0.1219-0.59928-4.9709-2.0898-9.0273a199.04 212.37 0 0 0-110.94-36.045zm-139.25 50.66-15.512 19.994-18.873 32.504 1.3281 2.8945a199.04 212.37 0 0 0-26.738 106.32 199.04 212.37 0 0 0 4.498 44.887l0.013672-0.08789 0.14844 0.29492c2.1501 0.88968 19.203 5.6348 20.537 5.6348 1.2351 0 27.512-4.1406 31.709-4.8027l-6.4277-22.035 2.9668-96.086 14.828-41.518 9.6152-11.148c0.59331-4.8928 1.2051-8.8867 1.2051-8.8867l-0.21094-18.033s-16.146-6.7107-16.984-7.3398l-2.1035-2.5898zm296.48 22.248c-0.29975 0.01617-0.66628 0.06176-1.0703 0.125l-7.9043 10.203s2.5154 10.905 3.1445 12.373c0.62909 1.4679-4.4023 1.6777-4.4023 1.6777l-9.4375-1.0488-5.8711-7.7598s-3.061 1.5383-5.8086 2.9785l1.3555 1.418 18.535 38.107 10.676 52.787 0.88476 35.744c4.1775-2.0448 22.172-11.09 24.324-12.166 2.0595-1.0297 19.166-17.108 24.236-21.342l-3.5352-50.135-18.873-31.873s-23.485-30.198-25.582-31.037c-0.13914-0.05565-0.37212-0.0689-0.67187-0.05273zm49.711 129.24-7.3438 5.3477-10.824 11.564-31.043 16.533 0.05273 2.1504-11.863 66.133-11.523 23.137 0.22851 0.20898 21.18 7.9688 11.941 10.248 19.934-32.582 17.195-52.424 2.0664-58.285zm-347.26 62.375c-2.606 0.16112-27.331 1.6876-29.373 1.6172-1.902-0.06555-18.686-0.53489-23.021-0.65625a199.04 212.37 0 0 0 22.809 57.504c-1.4645 2.1009-2.9752 4.3174-2.5312 3.9844 0.7414-0.55605 7.4512 10.713 7.4512 10.713s8.2679 9.4903 8.5645 9.5274c0.26196 0.03277 3.2466-0.90198 4.0195-1.1445l-1.5234 0.94141a199.04 212.37 0 0 0 0.11328 0.14649l0.99023 0.08398 0.080078-0.06055c-0.011847-2.5e-4 -0.17773-0.0039-0.17773-0.0039s6.0061-4.9308 6.2656-5.0234c0.25949-0.0927 3.2441-2.2617 3.2441-2.2617s0.04023 0.09942 0.06055 0.13672l6.0918-4.6406 8.0078-4.3008 11.332 0.1211c-4.8315-10.139-9.8867-23.771-9.8867-23.771l-12.516-42.912zm272.01 69.305-0.70703 0.04102-4.4863 9.0059-15.125 17.348-18.238 16.607s-26.84 17.054-28.471 18.24c-1.1371 0.82698-24.647 3.4658-39.068 5.0254l-0.85156 2.9336 0.31445 10.484 3.4609 9.0352a199.04 212.37 0 0 0 23.354-5.1465l-0.07617 0.30469 2.4824-0.85157c1.1941 0.99499 1.4375 1.1944 2.4766 2.0566l63.088-23.223s0.75377 1.0728 1.6055 2.3281l5.6406-2.207 15.422-12.307-6.2148-8.4023 25.316-22.766c-1.646-2.9428-4.9668-8.1289-4.9668-8.1289l-9.2266-6.6055-15.729-3.7734zm-244.82 6.0352c-3.1e-4 0.02773 0.01924 0.12425 0.00977 0.12109-0.22242-0.0741-15.199 0.10938-15.199 0.10938l-12.492 7.2305-4.6699 9.0078-0.3125 0.60742a199.04 212.37 0 0 0 42.535 36.982l-0.53906-1.5879c2.097 1.2582 21.285 9.2266 21.285 9.2266s0.02386 2.0242-0.02734 4.0566a199.04 212.37 0 0 0 82.545 19.123 199.04 212.37 0 0 0 20.164-1.0938l-1.293-6.4629s-1.6562-15.64-1.6699-16.184c-0.74815 0.07832-2.8048 0.29687-2.8047 0.29687 0 0-37.811-1.6311-41.963-3.707s-43.15-15.717-43.15-15.717l-8.4512-6.2285s-27.284-31.434-32.029-33.807c-0.55702-0.27852-1.215-0.97848-1.9375-1.9746zm-37.617 5.0488-0.53711 0.38085c0.021494-0.0218 0.12112-0.12269 0.14648-0.14843l0.39063-0.23242z"
     fill="#f4eee6"
     opacity=".997"
     stroke-linecap="round"
     stroke-linejoin="bevel"
     stroke-width=".96543"
     id="path11" />
  <g
     id="g17">
    <g
       transform="translate(-146.86,-119.79)"
       id="g15">
      <path
         d="m146.86 619.79v-500h500v500h-500m7.5-7.5h485v-485h-485v485m7.5-7.5v-469.38h469.38v469.38h-469.38m36.25-463.12c3.7498 4.7e-4 6.2498 1.4594 7.5 4.375 1.25 2.9172 1.8748 5.2088 1.875 6.875-1.6e-4 2.0838-1.25 5.2088-3.75 9.375 5.8331-4.9995 8.7498-9.3745 8.75-13.125-1.6e-4 -7.4995-3.1252-11.25-9.375-11.25-2.9167 4.7e-4 -4.5834 1.25-5 3.75m5.625 26.25-4.375 7.5h1.25c0.83281 4.7e-4 4.7916-2.2912 11.875-6.875 22.917-16.666 43.958-25 63.125-25 18.75 4.7e-4 36.458 6.4588 53.125 19.375 1.6664-0.41563 3.1247-0.83281 4.375-1.25 1.25-0.41563 2.2914-0.83281 3.125-1.25l-7.5-6.25c-18.334-10.833-37.292-16.25-56.875-16.25-22.5 4.7e-4 -45.208 10-68.125 30m369.38-20c-4.7e-4 1.6672 0.20781 2.7088 0.625 3.125l0.625 1.25c1.6661 2.9172 4.1661 5.6255 7.5 8.125l1.25-2.5c-3.3339-4.5828-5.0005-7.7078-5-9.375-4.7e-4 -2.9162 1.4578-4.3745 4.375-4.375 1.25 4.7e-4 3.5411 1.0422 6.875 3.125-0.83438-4.5828-3.1255-7.4995-6.875-8.75l-2.5-0.625c-2.5005 4.7e-4 -4.3755 1.25-5.625 3.75-0.83438 2.5005-1.25 4.5838-1.25 6.25m22.5 8.125c-3.3339-2.0828-6.2505-3.1245-8.75-3.125h-1.25l0.625 15 3.125 4.375 5 5.625 4.375 3.125 4.375 5.625v1.875c0.41562 4.167-1.0422 6.2505-4.375 6.25-1.6672 4.7e-4 -5.2089-5.833-10.625-17.5-3.7505-7.4995-9.5839-11.25-17.5-11.25-3.3338 4.7e-4 -5.6255 0.20938-6.875 0.625l-7.5 0.625c1.25 2.9172 3.5412 5.4172 6.875 7.5-6.2505 0.83438-10.209 4.167-11.875 10-0.41719 0.41719-0.625 1.667-0.625 3.75-4.7e-4 3.7505 1.25 6.2505 3.75 7.5l5 3.125 0.625-8.125c0.41562-3.7495 3.3328-5.6245 8.75-5.625 3.7495 4.7e-4 7.4995 2.0838 11.25 6.25l2.5 3.75c6.6661 10 12.708 15 18.125 15 4.1661 4.7e-4 7.9161-1.4578 11.25-4.375 3.3328-2.9162 4.9995-6.0412 5-9.375-4.7e-4 -10.416-3.9589-19.375-11.875-26.875-2.5005-6.2495-3.7505-10.208-3.75-11.875v-3.125c2.4995-6.6662 5.6245-9.9995 9.375-10 4.9995 4.7e-4 7.4995 1.6672 7.5 5-4.7e-4 4.5838-3.1255 8.9588-9.375 13.125-0.41719 0.41719-0.625 1.0422-0.625 1.875v1.875l0.625 1.25 15 4.375-10-10c6.2495-1.6662 9.3745-5.6245 9.375-11.875-4.7e-4 -7.9162-5.0005-11.875-15-11.875-3.7505 4.7e-4 -6.2505 0.83438-7.5 2.5-1.25 1.6672-2.9172 6.6672-5 15m-144.38 8.75c-0.83438-2.4995-2.7088-3.7495-5.625-3.75-18.75 4.7e-4 -28.125-4.1662-28.125-12.5-3.1e-4 -2.4995 1.6662-3.7495 5-3.75h3.75c-3.7503-4.5828-7.292-6.8745-10.625-6.875-5.8336 4.7e-4 -8.7503 2.9172-8.75 8.75-3.1e-4 9.1672 12.708 15 38.125 17.5 0.83281 0.41719 2.9162 0.625 6.25 0.625m-91.25-23.75c4.5831 2.0838 6.8747 4.3755 6.875 6.875v1.875c-2.9169 1.6672-6.0419 2.5005-9.375 2.5h-4.375l-1.875-1.25-8.75-2.5-21.875-8.125-7.5-1.25 5.625 3.75 10.625 4.375 8.125 3.75 6.25 1.875c4.1664 2.9172 9.3747 4.3755 15.625 4.375 12.5 4.7e-4 18.75-2.7078 18.75-8.125-3.1e-4 4.7e-4 -0.41719-2.0828-1.25-6.25-2.5003-2.9162-5.2086-4.3745-8.125-4.375l-1.875 0.625-6.875 1.875m97.5 15.625c-1.25 1.25-1.8753 2.2922-1.875 3.125v1.25c4.583 1.6672 8.333 2.5005 11.25 2.5 2.9162 4.7e-4 8.5412-1.25 16.875-3.75 1.25-0.41562 3.333-1.4578 6.25-3.125 2.9162-2.0828 5.4162-3.1245 7.5-3.125 0.83281 4.7e-4 1.25 0.625 1.25 1.875-4.7e-4 0.83438-1.0422 1.25-3.125 1.25l-1.875-0.625 0.625 1.875-5 4.375c-2.5005 3.7505-3.7505 6.6672-3.75 8.75-4.7e-4 6.2505 3.7495 9.3755 11.25 9.375h1.25c-1.667-2.9162-2.5005-5.4162-2.5-7.5-4.7e-4 -5.4162 3.958-9.9995 11.875-13.75 8.333-4.1662 18.125-6.2495 29.375-6.25 10.416 4.7e-4 21.458 3.3338 33.125 10 4.9995 4.7e-4 9.1661 1.25 12.5 3.75l-5-6.875c-17.084-12.5-36.042-18.75-56.875-18.75-11.667 4.7e-4 -21.25 1.4594-28.75 4.375-14.167 3.3338-23.959 5.0005-29.375 5-7.917 4.7e-4 -11.875-2.0828-11.875-6.25v-0.625l0.625-1.25 1.875-1.875-6.25-0.625c-3.3338-0.83281-5.0003 0.83438-5 5-3.1e-4 7.5005 5.208 11.459 15.625 11.875m-291.88-4.375c-1.6e-4 0.83438 0.625 2.7088 1.875 5.625l1.875 3.125 0.625 2.5 0.625 3.75c-1.6e-4 1.6672-1.25 3.7505-3.75 6.25 0.83281 0.41719 2.2916 0.625 4.375 0.625 3.7498 4.7e-4 5.6248-2.4995 5.625-7.5-1.6e-4 -1.6662-0.83281-3.9578-2.5-6.875-3.3334-3.3328-5.0002-5.8328-5-7.5-1.6e-4 -2.9162 1.0422-4.3745 3.125-4.375 1.6666 4.7e-4 4.1666 1.25 7.5 3.75l2.5 3.125 0.625 1.25 1.25 3.75v9.375l-0.625 1.875c-0.83281 2.5005-1.4578 4.5838-1.875 6.25-1.6667 5.0005-3.1252 9.167-4.375 12.5-0.83281 2.917-1.4578 5.2088-1.875 6.875l-1.875 8.75-2.5 8.75-1.25 8.125c1.6666-2.083 3.5416-4.1662 5.625-6.25 2.0833-2.4995 4.5833-5.208 7.5-8.125l6.875-5.625 2.5-2.5h3.125c-1.6e-4 0.83438 0.20781 1.4594 0.625 1.875-1.6e-4 0.83438-1.0422 1.667-3.125 2.5-12.083 7.917-20.417 17.917-25 30 1.25-1.25 2.0833-2.2912 2.5-3.125l1.875-1.875c5.8333-7.083 11.667-11.666 17.5-13.75l0.625 1.875c-5.8334 3.7505-10 7.0838-12.5 10-0.83281 0.83437-1.6667 1.8753-2.5 3.125-0.83281 0.83437-1.6667 1.8753-2.5 3.125-4.1667 5.417-6.4584 11.667-6.875 18.75 0.41719-1.25 0.83281-2.708 1.25-4.375 0.83281-2.083 2.0833-4.3747 3.75-6.875l3.125-3.75 4.375-5 11.25-8.125 11.875-5c2.9166-1.6662 4.7916-4.7912 5.625-9.375-3.3334-0.41563-5.2084-1.6662-5.625-3.75 2.0833-0.83281 4.1666-1.6662 6.25-2.5 2.0831-1.25 4.1666-2.4995 6.25-3.75l3.125-6.25c1.6666-1.6662 2.4998-3.333 2.5-5-1.6e-4 -0.83281-0.20781-1.4578-0.625-1.875-5.0002-2.083-7.9169-3.1245-8.75-3.125-0.83281 4.7e-4 -2.2917 0.20937-4.375 0.625-1.6667 4.7e-4 -3.5417 0.20937-5.625 0.625l-0.625-5.625c-4.5834 0.83437-8.3334 2.7088-11.25 5.625-0.83281 1.25-1.6667 1.8755-2.5 1.875-0.83281-0.83281-1.25-1.6662-1.25-2.5-1.6e-4 -1.25 1.8748-3.1245 5.625-5.625 7.0833-4.5828 10.625-10.208 10.625-16.875-1.6e-4 -2.0828-0.83281-2.9162-2.5-2.5h-1.25l-5 1.875c-1.6667-10.416-5.2084-16.458-10.625-18.125-2.5002-1.25-4.7917-1.8745-6.875-1.875-3.7502 4.7e-4 -6.2502 1.0422-7.5 3.125-1.25 2.0838-1.8752 4.7922-1.875 8.125m98.125-3.75c4.9998 2.0838 8.3331 3.9588 10 5.625 3.3331 3.3338 5.2081 5.0005 5.625 5 1.6664 4.7e-4 2.4998-0.83281 2.5-2.5-1.6e-4 -1.25-1.4578-3.1245-4.375-5.625-0.41719-0.41563-0.83438-0.625-1.25-0.625l-0.625-0.625-11.875-1.875v0.625m25 3.125c-0.41719 0.41719-0.83281 0.83438-1.25 1.25-0.41719 4.7e-4 -1.0422 0.41719-1.875 1.25v1.25c-1.6e-4 2.9172 1.4578 4.3755 4.375 4.375 2.9164 4.7e-4 4.3748-1.25 4.375-3.75-1.6e-4 -2.9162-1.8752-4.3745-5.625-4.375m-71.875 18.125c14.583-8.3328 24.583-12.5 30-12.5 2.0831 4.7e-4 5.6248 1.25 10.625 3.75l-1.25-0.625 1.875 5-2.5 5c7.9164-0.41562 11.875-2.9162 11.875-7.5-1.6e-4 -6.6662-5.4169-9.9995-16.25-10-2.9169 4.7e-4 -5.8334 0.83438-8.75 2.5l-8.75 3.125c-2.0834 0.83438-5.6252 3.1255-10.625 6.875-0.83281 0.41719-1.6669 1.0422-2.5 1.875-0.83281 0.83438-2.0834 1.6672-3.75 2.5m92.5-10c-1.25 3.3338-3.3336 5.6255-6.25 6.875 2.9164 1.6672 5.2081 2.5005 6.875 2.5 1.25 4.7e-4 2.9164-2.2912 5-6.875-0.83281-2.4995-2.0836-4.9995-3.75-7.5l-1.25-0.625-3.125-1.25 2.5 6.875m219.38 2.5-2.5 2.5c-0.41719 1.25-0.625 3.3338-0.625 6.25-4.7e-4 7.0838 3.1245 10.625 9.375 10.625 2.0828 4.7e-4 4.7912-0.83281 8.125-2.5-5.8338-3.333-8.7505-7.0828-8.75-11.25-4.7e-4 -5.4162 4.3745-8.1245 13.125-8.125 2.9162 4.7e-4 7.2912 0.625 13.125 1.875-5.8338-3.7495-11.042-5.6245-15.625-5.625-6.6672 4.7e-4 -12.084 2.0838-16.25 6.25m-258.75 37.5 4.375 1.25c1.6664-2.4995 3.7498-3.958 6.25-4.375 1.6664 4.5838 4.1664 7.0838 7.5 7.5 24.166-20.416 54.375-30.625 90.625-30.625 29.583 4.7e-4 55.208 5.8338 76.875 17.5l9.375 4.375c1.6662 0.83438 2.9162 1.667 3.75 2.5 1.25 0.83438 2.2912 1.4594 3.125 1.875 4.1662 4.167 6.8745 6.042 8.125 5.625l8.125-3.125c2.083-0.41562 4.1662-0.625 6.25-0.625 2.083-0.41562 4.1662-0.83281 6.25-1.25-1.667-5.4162-6.2505-10.208-13.75-14.375l-9.375-5c-10-5.4162-24.584-10.208-43.75-14.375-20.417-4.5828-36.042-6.8745-46.875-6.875-22.917 4.7e-4 -45.209 3.7505-66.875 11.25-21.667 7.5005-38.334 17.084-50 28.75m5-38.125c-0.83281 0.41719-1.8752 1.25-3.125 2.5v0.625c-1.6e-4 2.9172 1.4578 4.3755 4.375 4.375 2.9164 4.7e-4 4.3748-1.25 4.375-3.75-1.6e-4 -2.4995-1.8752-3.7495-5.625-3.75m191.25 8.125c1.25 2.9172 2.9162 4.3755 5 4.375 0.41562 4.7e-4 1.25-0.83281 2.5-2.5 1.6662-2.0828 2.9162-3.3328 3.75-3.75 2.9162-1.6662 4.3745-2.7078 4.375-3.125-4.7e-4 -0.83281-0.20938-1.4578-0.625-1.875l-10 2.5-5 4.375m-175.62 0.625c1.25-1.6662 1.8748-3.3328 1.875-5-1.6e-4 -1.25-1.0422-1.8745-3.125-1.875-3.3336 4.7e-4 -5.0002 1.0422-5 3.125-1.6e-4 2.5005 1.25 3.7505 3.75 3.75h2.5m217.5 8.75 0.625 1.875 1.25 4.375-10-1.25 3.125 11.875 3.75 5.625c3.333 3.3338 7.2912 5.2088 11.875 5.625v1.875c-4.7e-4 0.83437-0.625 1.25-1.875 1.25-2.0838 4.7e-4 -5.6255-0.83281-10.625-2.5-5.0005-1.6662-8.9588-2.4995-11.875-2.5-8.3338 4.7e-4 -12.5 1.4594-12.5 4.375-4.7e-4 1.25 1.8745 2.7088 5.625 4.375l-0.625 1.25c-5.8338 0.83437-10.209 3.7505-13.125 8.75l-4.375 6.25-0.625-0.625-1.25 3.125c-3.1e-4 -0.83281 2.2912 1.667 6.875 7.5 4.9995 1.25 8.5412 1.8753 10.625 1.875 2.9162 3.1e-4 8.333-1.6662 16.25-5v1.25l-3.125 8.75c2.9162 0.41719 5.4162 0.83437 7.5 1.25 2.083 3.1e-4 3.7495 3.1e-4 5 0l2.5-0.625 10-8.125 1.875 0.625 0.625 7.5c0.41562 3.7503 3.3328 5.6253 8.75 5.625l4.375-0.625-2.5-11.875c-4.7e-4 -4.583 2.9162-8.5412 8.75-11.875 0.41562-0.41562 1.4578-0.625 3.125-0.625 2.0828 3.1e-4 5.4162 1.25 10 3.75l1.875 2.5c0.83281 5.0003 2.4995 8.542 5 10.625 0.41562-0.83281 0.625-2.2912 0.625-4.375-4.7e-4 -1.25-0.625-2.9162-1.875-5l-2.5-5.625-4.375-3.75v-0.625c-4.7e-4 -1.25 0.625-1.8745 1.875-1.875h0.625l4.375 5 0.625 1.25 1.25 3.75c1.25 3.7503 1.8745 6.667 1.875 8.75-4.7e-4 3.3338-0.20938 5.6253-0.625 6.875l1.875 1.875 2.5-1.875 0.625-6.25v-3.75c-4.7e-4 -4.1662-1.4594-8.333-4.375-12.5-5.0005-8.7495-11.667-13.125-20-13.125-2.0838 4.7e-4 -6.2505 0.83438-12.5 2.5-4.7e-4 -3.333 2.2912-4.9995 6.875-5h5.625c4.1662-0.41562 9.9995 2.292 17.5 8.125l1.25 1.875c5.4162 5.417 8.1245 13.125 8.125 23.125v3.125l-2.5 5v3.75c3.7495-4.9997 5.6245-10.208 5.625-15.625-4.7e-4 -7.083-2.2922-13.958-6.875-20.625-2.0838-3.333-4.5838-5.833-7.5-7.5-2.5005-1.6662-5.0005-2.9162-7.5-3.75-2.5005-0.83281-4.5838-1.25-6.25-1.25-1.6672-0.41563-2.5005-0.83281-2.5-1.25l0.625-0.625c-4.7e-4 -0.83281 0.83281-1.25 2.5-1.25 1.6662 4.7e-4 3.5412 0.625 5.625 1.875l6.25 3.125 4.375 1.875c-0.83438-1.6662-1.6672-2.708-2.5-3.125-0.83438-0.83281-1.4594-1.4578-1.875-1.875l-10.625-8.125-16.875-6.25c-10.834-3.7495-16.25-9.9995-16.25-18.75-4.7e-4 -0.83281 0.625-3.5412 1.875-8.125-0.41719-0.41563-1.4594-0.625-3.125-0.625-7.0838 4.7e-4 -10.209 3.1255-9.375 9.375l0.625 5m-290-5.625c2.0831-0.41562 3.7498-0.625 5-0.625 1.25-0.41562 2.2916-0.625 3.125-0.625 3.7498 4.7e-4 5.6248 1.4594 5.625 4.375l-0.625 3.125c3.3331-2.083 4.9998-3.7495 5-5-1.6e-4 -4.1662-2.5002-6.2495-7.5-6.25h-1.875l-0.625 0.625-8.125 4.375m-7.5 72.5 0.625 3.75 3.125 8.75c2.4998-2.4997 3.9581-4.7912 4.375-6.875l-3.125-12.5c-0.41719-0.83281-0.625-2.708-0.625-5.625-1.6e-4 -7.083 1.4578-13.75 4.375-20 2.9166-6.6662 6.6666-12.5 11.25-17.5 4.9998-4.9995 10.625-8.958 16.875-11.875 6.2498-2.9162 12.917-4.3745 20-4.375 3.3331 4.7e-4 8.5414 1.25 15.625 3.75 4.1664-0.83281 6.4581-2.2912 6.875-4.375l-0.625-0.625c-1.6e-4 -0.41562-0.20938-0.83281-0.625-1.25l-5.625-1.25-5.625-2.5c-3.3336-0.83281-5.6252-1.25-6.875-1.25-8.3336 4.7e-4 -16.25 1.6672-23.75 5-7.0834 2.917-13.542 7.292-19.375 13.125-5.4169 5.417-9.7919 11.875-13.125 19.375-3.3334 7.0838-5.0002 14.584-5 22.5-1.6e-4 2.0838-1.6e-4 4.3753 0 6.875 0.41719 2.5003 0.83281 4.792 1.25 6.875m79.375-40 2.5 3.125c24.166-19.166 54.583-28.75 91.25-28.75 15 4.7e-4 29.166 1.667 42.5 5l23.125 5.625c-13.334-9.583-37.292-14.375-71.875-14.375-35 4.7e-4 -64.167 9.792-87.5 29.375m88.75-17.5h4.375c6.6664-0.83281 9.583 1.0422 8.75 5.625v3.75l-7.5 3.75-10 0.625c-1.25 4.7e-4 -1.8753 0.83438-1.875 2.5-3.1e-4 6.2505 3.958 9.3755 11.875 9.375 5.4164 4.7e-4 8.1247-1.0406 8.125-3.125-3.1e-4 -1.25-0.41719-1.8745-1.25-1.875h-8.75c-2.0836 4.7e-4 -3.1253-0.83281-3.125-2.5-3.1e-4 -1.6662 3.1247-2.4995 9.375-2.5 6.2497 4.7e-4 9.3747-2.9162 9.375-8.75-3.1e-4 -4.1662-2.0836-7.4995-6.25-10-3.3336-0.83281-5.2086-1.25-5.625-1.25-0.83281 4.7e-4 -1.4578 0.20938-1.875 0.625l-5.625 3.75m-18.75 11.25c-3.1e-4 2.0838-3.1e-4 4.167 0 6.25 0.41719 1.667 0.83281 3.542 1.25 5.625l2.5 0.625 1.25 5.625-0.625-6.25v-6.875c-1.25-2.9162-2.5003-8.1245-3.75-15.625-3.1e-4 -1.25-0.41719-1.8745-1.25-1.875-1.25 4.7e-4 -1.8753 0.625-1.875 1.875-3.1e-4 2.5005 0.83281 6.042 2.5 10.625m-10-5.625 1.875 20 6.875-1.875c-3.1e-4 -7.083-1.4578-15.208-4.375-24.375h-1.875c-2.5003 4.7e-4 -3.9586 0.83438-4.375 2.5-3.1e-4 0.83438 0.625 2.0838 1.875 3.75m-6.875-3.75c0.41719 1.667 0.625 3.1255 0.625 4.375 0.41562 1.25 0.625 2.5005 0.625 3.75-3.1e-4 6.2505-2.2919 9.3755-6.875 9.375-1.6669 4.7e-4 -3.7503-1.25-6.25-3.75-0.83438 3.3338-1.25 5.0005-1.25 5-3.1e-4 4.167 2.4997 6.2505 7.5 6.25 7.0831 4.7e-4 10.625-5.208 10.625-15.625-3.1e-4 -6.2495-1.25-9.3745-3.75-9.375h-1.25m86.875 5.625c0.83281 5.8338 2.708 8.7505 5.625 8.75 2.9162 4.7e-4 5.6247-2.2912 8.125-6.875l0.625-0.625v-0.625c-0.83438-1.25-1.4594-1.8745-1.875-1.875l-6.25 3.125-6.25-1.875m-17.5-1.25c-2.917 0.41719-4.3753 1.667-4.375 3.75-3.1e-4 3.7505 1.8747 5.6255 5.625 5.625 3.333 4.7e-4 4.9997-1.6662 5-5-3.1e-4 -2.9162-1.8753-4.3745-5.625-4.375h-0.625m35 1.875c-3.3338 10.834-5.0003 18.959-5 24.375-3.1e-4 15 3.958 27.709 11.875 38.125 3.333-3.333 4.9997-5.4162 5-6.25-3.1e-4 -1.6662-2.0838-6.458-6.25-14.375-2.0838-5.4162-3.1253-11.458-3.125-18.125-3.1e-4 -2.4995 0.625-6.0412 1.875-10.625 1.25-4.583 1.8747-7.9162 1.875-10-3.1e-4 -1.6662-2.0838-2.708-6.25-3.125m9.375 3.125c-2.0838 6.2505-3.1253 10.209-3.125 11.875-3.1e-4 8.3338 3.1247 12.5 9.375 12.5 6.2497 4.7e-4 9.583-1.4578 10-4.375l1.25-3.75-7.5 1.875c-1.667 4.7e-4 -3.542-1.25-5.625-3.75-1.667-2.9162-2.5003-5.4162-2.5-7.5v-5c-3.1e-4 -0.41562-0.625-1.0406-1.875-1.875m-56.875 2.5c-2.5003 0.83438-3.7503 2.292-3.75 4.375-3.1e-4 2.917 1.4578 4.3755 4.375 4.375 3.333 4.7e-4 4.9997-1.4578 5-4.375-3.1e-4 -2.9162-1.667-4.3745-5-4.375h-0.625m-87.5 0.625-1.25 5-5.625 5.625-3.125 8.125h-3.125l-3.75-3.75c-1.6669 4.7e-4 -2.5002 3.542-2.5 10.625-1.6e-4 -0.83281-1.6e-4 -0.41562 0 1.25 0.41562 1.667 0.83281 4.5838 1.25 8.75v4.375c0.83281 4.5838-1.0422 6.8753-5.625 6.875-3.3336 3.1e-4 -5.0002-2.083-5-6.25v-1.875l6.875-16.25v-2.5c-1.6e-4 -3.7495-1.0422-7.9162-3.125-12.5-2.0836-4.583-4.7919-6.8745-8.125-6.875-1.25 4.7e-4 -1.8752 1.0422-1.875 3.125v1.25h-2.5l-5.625-2.5c-0.41719-0.41562-1.25-0.625-2.5-0.625-2.5002 4.7e-4 -5.8334 1.8755-10 5.625 6.6664 1.25 11.458 3.3338 14.375 6.25l3.125 6.25-1.875 20c-1.6e-4 2.917 0.625 5.2088 1.875 6.875 2.4998 4.167 7.7081 8.1253 15.625 11.875 7.9164 3.3338 15.416 5.0003 22.5 5 10.416 3.1e-4 20-4.583 28.75-13.75l11.25-11.875c6.2497-6.6662 15.208-9.9997 26.875-10 0.83281 3.1e-4 1.8747 0.20938 3.125 0.625 1.6664 3.1e-4 3.5414 0.20938 5.625 0.625-3.3336-8.333-7.7086-12.5-13.125-12.5-1.667 4.7e-4 -3.9586 0.625-6.875 1.875-2.5003 0.83438-4.3753 1.25-5.625 1.25-0.41719-0.41562-0.625-2.4995-0.625-6.25-13.334 2.0838-21.042 5.417-23.125 10l-5.625 12.5-1.875 3.75-3.125-0.625c0.41562-1.25 0.625-3.5412 0.625-6.875-3.1e-4 -2.9162-0.83281-6.0412-2.5-9.375l2.5-0.625c-3.1e-4 4.7e-4 0.20781 0.83438 0.625 2.5 0.83281 1.25 1.6664 3.3338 2.5 6.25l1.25-1.875-0.625-10v-1.25c-3.1e-4 -2.9162-2.2919-4.3745-6.875-4.375h-0.625c-4.1669 0.83438-6.4586 1.4594-6.875 1.875 0.41719 0.41719 0.625 0.83438 0.625 1.25 0.41719 0.41719 1.0406 1.0422 1.875 1.875 4.1664 5.417 5.8331 10.625 5 15.625v5.625c-3.1e-4 2.917-1.4578 4.3753-4.375 4.375h2.5l-1.875-1.25c-0.41719 3.1e-4 -0.20938-1.6662 0.625-5v-1.25c-3.1e-4 -2.4997-0.20938-4.3747-0.625-5.625l-1.25-5.625-5-6.875c-0.41719-1.25-0.83438-2.083-1.25-2.5-3.1e-4 -0.83281-3.1e-4 -1.25 0-1.25-3.1e-4 -1.6662 3.9581-2.708 11.875-3.125-2.5003-6.2495-4.7919-9.7912-6.875-10.625l-5-1.25h-1.875m112.5 0.625c-1.667 4.7e-4 -2.917 1.0422-3.75 3.125v1.25c-3.1e-4 3.7505 1.6662 5.6255 5 5.625 3.333 4.7e-4 4.9997-1.4578 5-4.375-3.1e-4 -3.7495-2.0838-5.6245-6.25-5.625m191.88 1.25-2.5 3.125-5 2.5-8.125 2.5v0.625c-4.7e-4 3.7505 2.2911 5.6255 6.875 5.625 7.4995 4.7e-4 11.25-2.9162 11.25-8.75-4.7e-4 -2.083-0.83438-3.958-2.5-5.625m-398.75 23.125v4.375c0.83281-1.6662 1.25-3.1247 1.25-4.375 0.41719-1.25 0.83281-2.2912 1.25-3.125 1.25-7.083 5.6248-10.625 13.125-10.625 0.83281 4.7e-4 2.2916 1.0422 4.375 3.125 0.83281-3.333 1.25-5.208 1.25-5.625-1.6e-4 -3.333-2.0834-4.9995-6.25-5-8.3334 4.7e-4 -13.333 7.0838-15 21.25m193.75-20c-3.3336 4.7e-4 -5.0003 1.4594-5 4.375-3.1e-4 3.3338 1.8747 5.0005 5.625 5 3.333 4.7e-4 4.9997-1.4578 5-4.375-3.1e-4 -3.333-1.8753-4.9995-5.625-5m166.88 25c-4.7e-4 3.7503 0.20781 6.2503 0.625 7.5v4.375c-4.7e-4 4.167-1.8755 8.9588-5.625 14.375l0.625 1.875c1.6661-2.083 3.1245-4.9997 4.375-8.75 1.25-4.1662 2.7078-8.958 4.375-14.375 0.83281-7.083 2.4995-12.5 5-16.25l1.875-0.625c4.5828 4.7e-4 7.2911 2.292 8.125 6.875 0.41562-2.083 0.625-3.7495 0.625-5 0.41562-1.25 0.625-2.083 0.625-2.5-4.7e-4 -4.583-3.1255-6.8745-9.375-6.875-7.5005 4.7e-4 -11.25 5.6255-11.25 16.875v2.5m-380.62 180.62c0.83281 1.25 3.1248 2.2919 6.875 3.125l5.625 1.25h5.625c1.6666 1.6e-4 3.5416 1.6e-4 5.625 0 2.4998-0.41719 5.4166-0.83281 8.75-1.25 2.9166 1.6e-4 4.7916-0.20781 5.625-0.625l-1.25-6.25-1.875-11.25c-2.9169-11.25-4.3752-27.708-4.375-49.375-1.6e-4 -20.833 3.1248-42.916 9.375-66.25 7.0831-23.333 15-39.791 23.75-49.375 5.4164-5.4162 8.1248-9.3745 8.125-11.875-1.6e-4 -4.583-6.0419-6.8745-18.125-6.875-39.167 45.417-58.75 95.417-58.75 150-1.6e-4 5.8336 0.41719 12.917 1.25 21.25 0.83281 7.9169 2.0833 17.084 3.75 27.5m203.12-198.12h-0.625c-3.7503 4.7e-4 -5.6253 1.25-5.625 3.75-3.1e-4 4.167 1.8747 6.2505 5.625 6.25 3.333 4.7e-4 4.9997-1.6662 5-5-3.1e-4 -2.9162-1.4578-4.583-4.375-5m28.75 60.625-3.75 12.5c8.333-4.9997 12.5-18.125 12.5-39.375-3.1e-4 -8.333-1.8753-15.625-5.625-21.875-3.7503-6.6662-7.917-9.9995-12.5-10-1.667 4.7e-4 -2.5003 0.83438-2.5 2.5v1.25l9.375 11.25c4.1662 5.417 6.2497 12.917 6.25 22.5-3.1e-4 3.7503-0.83438 8.7503-2.5 15-0.41719 0.41719-0.625 1.4594-0.625 3.125-3.1e-4 1.25-0.20938 2.292-0.625 3.125m181.25 39.375c-2.0839 4.5836-3.9589 9.5836-5.625 15-4.7e-4 1.25 1.0406 3.5419 3.125 6.875 11.25-17.5 16.875-43.958 16.875-79.375-4.7e-4 -25-3.1255-37.5-9.375-37.5-3.7505 4.7e-4 -5.6255 1.667-5.625 5v1.25l8.125 28.75c1.25 3.3338 1.8745 7.5003 1.875 12.5-4.7e-4 11.25-3.1255 27.084-9.375 47.5m-200.62-91.875h-0.625c-2.5003 4.7e-4 -3.7503 1.4594-3.75 4.375-3.1e-4 5.417 2.083 8.1253 6.25 8.125 3.7497 3.1e-4 5.6247-2.083 5.625-6.25-3.1e-4 -4.1662-2.5003-6.2495-7.5-6.25m-141.25 3.75c-24.583 32.084-36.875 78.125-36.875 138.12-1.6e-4 11.25 1.25 23.334 3.75 36.25l2.5 11.25c0.83281 2.0836 1.4578 3.1252 1.875 3.125l2.5-0.625c-1.6669-13.333-2.9169-25.833-3.75-37.5-0.41719-11.666-0.625-22.5-0.625-32.5-1.6e-4 -47.916 9.3748-83.541 28.125-106.88 2.0831-3.333 3.1248-5.4162 3.125-6.25-1.6e-4 -2.4997-0.20938-4.1662-0.625-5m-57.5 37.5-1.25-6.875-1.875-6.25-1.25-8.125-2.5-6.25c-2.5002-6.6662-5.6252-9.9997-9.375-10-4.1667 3.1e-4 -6.2502 1.25-6.25 3.75v6.875l5.625-3.75h1.25c2.9166 3.1e-4 4.5833 0.83438 5 2.5l3.125 5 5 16.25 2.5 6.875m6.25-31.25 1.25 10 0.625 2.5c0.83281-0.83281 1.25-1.4578 1.25-1.875-1.6e-4 -0.83281-0.41719-2.4997-1.25-5-0.83281-2.9162-1.4578-4.7912-1.875-5.625m327.5 20c-3.3338 3.3338-6.4588 5.0003-9.375 5-5.8338 3.1e-4 -11.042-3.5412-15.625-10.625-1.25 2.0838-1.8755 3.3338-1.875 3.75 0.83281 0.83438 1.4578 1.8753 1.875 3.125 4.1662 4.167 7.4995 9.5838 10 16.25l5 10.625c2.0828 4.5836 3.1245 6.8753 3.125 6.875 2.0828 5.0003 3.9578 12.709 5.625 23.125l2.5 12.5c2.9162 12.084 4.3745 28.959 4.375 50.625l5.625-3.125c2.9162-1.6664 5.2078-2.9164 6.875-3.75 1.6662-0.83281 2.9162-1.6664 3.75-2.5l15.625-11.875c2.9161-1.6664 4.3745-3.5414 4.375-5.625-0.41719-1.6664-0.83438-3.7497-1.25-6.25-4.7e-4 -2.9164-0.41719-6.2497-1.25-10l-4.375-25.625c-4.5839-24.166-15.417-47.916-32.5-71.25h-1.875c-1.25 3.1e-4 -2.5005 1.0422-3.75 3.125l-2.5 6.875 5.625 8.75m-180.62-15.625c-1.6669 0.83438-2.9169 1.667-3.75 2.5-3.1e-4 14.584 3.7497 21.875 11.25 21.875 6.6664 3.1e-4 9.9997-2.4997 10-7.5-3.1e-4 0.41719-0.41719-1.0406-1.25-4.375-2.5003 3.3338-4.792 5.0003-6.875 5-4.5836 3.1e-4 -7.7086-5.833-9.375-17.5m229.38 0 0.625 9.375c1.25 0.83438 1.8745 1.667 1.875 2.5v1.875c-7.9172 0.41719-11.875 4.3753-11.875 11.875-4.7e-4 6.667 3.7495 12.084 11.25 16.25-1.6672-3.333-2.5005-6.8747-2.5-10.625-4.7e-4 -4.583 2.0828-6.8747 6.25-6.875 2.9161 3.1e-4 6.6661 2.292 11.25 6.875 2.0828 7.0838 3.1245 11.459 3.125 13.125-4.7e-4 1.667-0.41719 4.167-1.25 7.5-0.41719 2.917-1.0422 6.8753-1.875 11.875-0.41719 1.667-0.83438 3.3336-1.25 5-4.7e-4 1.667-0.20938 3.542-0.625 5.625 5.8328-18.333 8.7495-33.75 8.75-46.25-4.7e-4 -0.41562-0.41719-1.8747-1.25-4.375l-2.5-5.625-0.625-2.5c-0.83438-1.6662-2.7089-3.5412-5.625-5.625l-10-6.25-3.75-3.75m-414.38 3.125c-0.83281 0.83438-2.5002 7.292-5 19.375-0.83281 2.0838-2.2917 3.1253-4.375 3.125l-5-3.75v10.625l4.375 33.75c2.9166-17.083 8.3333-30.625 16.25-40.625h2.5l-5 9.375-3.75 6.25-6.875 20.625v12.5l2.5-8.75 5-12.5 1.875-1.875c0.41719 0.41719 0.83281 0.625 1.25 0.625 0.41719 3.1e-4 0.83281 0.20938 1.25 0.625-5.8334 9.5836-8.7502 21.459-8.75 35.625-1.6e-4 0.83438-1.6e-4 1.8753 0 3.125 0.41719 1.25 0.83281 2.9169 1.25 5v-4.375c-1.6e-4 -11.25 2.2916-19.791 6.875-25.625l13.75-15.625c0.41719-1.25 1.6666-6.0414 3.75-14.375l-8.125-0.625 4.375-4.375c0.41719-0.83281 0.83281-1.8747 1.25-3.125 0.41719-1.6662 0.83281-3.5412 1.25-5.625l-0.625-10.625c-1.6e-4 -0.83281-1.6e-4 -1.6662 0-2.5 0.41719-0.83281 0.83281-2.083 1.25-3.75-1.25-0.41562-3.5417-0.625-6.875-0.625-3.3334 3.1e-4 -6.4584 2.5003-9.375 7.5h-3.125v-3.75c-1.6e-4 -1.6662-0.625-3.5412-1.875-5.625m178.12 0.625h-0.625c-1.25 3.1e-4 -2.2919 1.25-3.125 3.75-0.83281 2.0838-1.6669 4.167-2.5 6.25-5.8336 9.5838-8.7503 13.959-8.75 13.125-3.1e-4 2.5003 1.0406 3.7503 3.125 3.75 8.3331 3.1e-4 12.291-6.8747 11.875-20.625v-6.25m45 21.875c0.41719-7.9162 3.958-11.875 10.625-11.875 8.333 3.1e-4 12.5 5.2088 12.5 15.625-3.1e-4 6.2503-1.0422 10.209-3.125 11.875-2.0838 1.667-6.8753 2.917-14.375 3.75-0.83281 2.0836-1.667 3.1253-2.5 3.125-1.25 3.1e-4 -1.8753-0.83281-1.875-2.5-3.1e-4 -2.083 0.20781-3.333 0.625-3.75l-11.25 5c-2.917 2.5003-4.3753 4.792-4.375 6.875l0.625 4.375 5-5.625 3.125-0.625-1.875 5-1.25 8.75 13.125-12.5c0.41562-0.41719 0.83281-0.625 1.25-0.625 1.6664 3.1e-4 2.4997 0.41719 2.5 1.25l-6.25 6.25c-0.41719 0.41719-0.625 0.83438-0.625 1.25-3.1e-4 0.41719-0.20938 0.83438-0.625 1.25 0.83281 0.83281 1.4578 1.25 1.875 1.25h0.625l5-6.875 10.625-5c2.083-1.25 3.7497-5.833 5-13.75 0.41562-0.83281 0.625-1.8747 0.625-3.125 0.41562-1.6662 1.0406-3.5412 1.875-5.625 0.41562-0.83281 0.625-2.2912 0.625-4.375-3.1e-4 -6.2497-1.667-10.416-5-12.5l-7.5-4.375-1.875-2.5h-2.5c-10-0.41562-15 3.7503-15 12.5-3.1e-4 3.3338 1.4578 5.8338 4.375 7.5m157.5-15 3.125 6.25 3.125 5c5.4162 9.5838 9.5828 19.584 12.5 30 3.3328 10.417 5.8328 21.25 7.5 32.5l3.125 25c2.9161-1.6664 4.3745-3.5414 4.375-5.625-4.7e-4 -1.25-0.41719-3.3331-1.25-6.25-0.41719-2.9164-0.83438-4.7914-1.25-5.625l-0.625-11.875-6.875-25c-2.9172-12.916-10.834-27.708-23.75-44.375m-389.38 0.625c-1.25 3.3338-1.8752 5.2088-1.875 5.625-1.6e-4 0.83438 0.41719 1.25 1.25 1.25 1.25 3.1e-4 1.8748-0.83281 1.875-2.5-1.6e-4 0.41719-0.41719-1.0406-1.25-4.375m287.5 24.375c-3.1e-4 -5.4162 1.8747-10.416 5.625-15l4.375-3.75c-2.5003-0.83281-3.542-1.25-3.125-1.25-7.917 3.1e-4 -11.875 4.167-11.875 12.5-3.1e-4 2.917 1.6662 5.417 5 7.5m22.5 1.25-2.5 0.625 15 5c4.1662 0.83438 6.6662 1.25 7.5 1.25 12.916 3.1e-4 19.375-5.6247 19.375-16.875-4.7e-4 -7.4997-2.917-11.25-8.75-11.25-4.167 3.1e-4 -6.2505 1.4594-6.25 4.375-4.7e-4 3.1e-4 1.4578 0.625 4.375 1.875 2.9162 0.83438 4.3745 2.292 4.375 4.375-4.7e-4 9.167-4.5838 13.542-13.75 13.125h-2.5l-16.875-2.5m-20.625-3.75c-3.1e-4 5.8338 3.5412 11.667 10.625 17.5 3.7495 3.7503 7.4995 7.292 11.25 10.625 4.1662 3.3336 7.2912 7.5003 9.375 12.5l-5.625 1.25v0.625c-4.7e-4 2.0836 1.4578 3.1253 4.375 3.125 4.1662 3.1e-4 6.2495-3.1247 6.25-9.375-4.7e-4 -5.4164-1.4594-8.7497-4.375-10l-5.625-1.25-3.125-3.125c2.083 0.41719 3.958 0.83438 5.625 1.25 1.6662 3.1e-4 2.9162 3.1e-4 3.75 0 1.25 3.1e-4 1.8745-0.41562 1.875-1.25-4.7e-4 -7.083-5.2088-12.083-15.625-15-7.5005-1.6662-11.25-3.7497-11.25-6.25v-0.625c0.41562-1.25 1.25-1.8747 2.5-1.875 1.25 3.1e-4 4.3745 0.625 9.375 1.875h1.875c8.7495 3.1e-4 15.208-3.958 19.375-11.875-1.25 0.41719-3.542 0.625-6.875 0.625-4.7e-4 3.1e-4 -2.0838-0.41562-6.25-1.25-5.8338-1.25-10.417-1.8747-13.75-1.875h-0.625c-2.5005-0.41562-5.417 1.25-8.75 5-2.917 3.7503-4.3753 6.8753-4.375 9.375m-181.25 0v1.875l-3.125 6.875 3.125 8.125 9.375-2.5 5.625-5.625 5 6.875 3.125 1.25 5.625-0.625-3.125-6.875-1.25-8.75c-0.83438-3.7497-3.5419-5.6247-8.125-5.625-2.0836 3.1e-4 -3.7502 1.8753-5 5.625-0.83281 1.25-1.4578 1.8753-1.875 1.875-0.83281 3.1e-4 -1.25-0.41562-1.25-1.25v-0.625c1.25-2.9162 1.8748-4.9997 1.875-6.25-1.6e-4 -0.41562-1.8752-1.6662-5.625-3.75-0.83281-0.41562-2.5002-0.625-5-0.625-6.2502 3.1e-4 -9.7919 2.292-10.625 6.875-1.6e-4 2.5003 1.6664 3.7503 5 3.75 2.9164 3.1e-4 4.9998-0.20781 6.25-0.625m158.75 1.25 6.25-3.75 5 3.75-0.625-6.875c-3.1e-4 -1.25-1.25-1.8747-3.75-1.875-3.3338 3.1e-4 -5.6253 2.917-6.875 8.75m-74.375 2.5c1.6664-1.6662 3.333-2.4997 5-2.5 2.4997 3.1e-4 7.4997 1.8753 15 5.625l5 7.5c3.333-2.083 4.9997-3.958 5-5.625-3.1e-4 3.1e-4 -0.41719-0.83281-1.25-2.5-0.41719-2.083-1.0422-4.9997-1.875-8.75l-5 4.375c-4.5836-3.333-8.3336-4.9997-11.25-5-3.7503 3.1e-4 -7.292 2.292-10.625 6.875m-46.875 1.875c2.9164 4.167 5.2081 6.2503 6.875 6.25l0.625-0.625h1.25l7.5-5h0.625l1.25-0.625c2.0831 3.1e-4 3.1247 1.25 3.125 3.75-3.1e-4 1.667-0.20938 2.7086-0.625 3.125l-2.5 8.125v1.25c-3.1e-4 5.417 2.7081 8.1253 8.125 8.125 2.4997 3.1e-4 4.1664-0.20781 5-0.625-3.3336-3.333-5.0003-6.0414-5-8.125-3.1e-4 0.41719 0.41719-0.625 1.25-3.125l2.5-6.875c0.41562-0.41719 0.625-1.25 0.625-2.5-3.1e-4 -8.333-3.9586-12.5-11.875-12.5-0.41719 3.1e-4 -2.5003 1.25-6.25 3.75-3.3336 2.5003-5.6253 3.9588-6.875 4.375-3.1e-4 3.1e-4 -0.41719 0.20938-1.25 0.625-0.83438 3.1e-4 -2.2919 0.20938-4.375 0.625m49.375-1.25 5.625 9.375 0.625 5.625 0.625 1.875-5 13.125-1.25 11.25-1.875 6.25 1.25 10c2.083 7.9169 5.4164 14.167 10 18.75 13.333 9.5836 26.875 14.375 40.625 14.375 18.333 3.1e-4 30.625-4.3747 36.875-13.125l11.875-17.5c4.1662-7.083 11.458-12.291 21.875-15.625-4.167-2.9164-7.5005-4.3747-10-4.375-0.41719 3.1e-4 -3.3338 1.0422-8.75 3.125l-3.75 2.5-1.875 2.5h-3.125l1.875-9.375c-9.167 3.7503-17.292 12.292-24.375 25.625-0.41719 1.25-1.667 3.1253-3.75 5.625-1.667 2.5003-3.542 3.7503-5.625 3.75-2.5003 3.1e-4 -3.7503-1.0422-3.75-3.125-3.1e-4 -1.25 0.83281-2.4997 2.5-3.75 4.9997-3.3331 8.333-5.8331 10-7.5l3.125-5.625 1.25-2.5 1.875-6.25 0.625-9.375c-3.1e-4 -1.6664-0.83438-2.4997-2.5-2.5-0.83438 3.1e-4 -2.917 1.0422-6.25 3.125h-1.25v-2.5c2.9162-2.9164 4.3747-6.6664 4.375-11.25-3.1e-4 -7.9164-1.667-11.875-5-11.875h-0.625c-0.83438 1.667-2.7088 3.3336-5.625 5-2.5003 1.25-7.292 3.3336-14.375 6.25l-5.625 9.375-2.5-0.625-2.5-3.75-1.875 1.25c-4.5836 6.2503-7.292 11.042-8.125 14.375l-3.125 16.875-1.25 1.25c-0.41719 3.1e-4 -0.83281 0.20938-1.25 0.625h-1.25c-2.5003 3.1e-4 -3.7503-1.25-3.75-3.75l0.625-1.875 9.375-20.625c0.83281-1.25 1.4578-5.208 1.875-11.875-2.0836 1.25-3.3336 1.8753-3.75 1.875-1.667 3.1e-4 -2.7086-0.20781-3.125-0.625 0.41719-2.083 0.625-3.7497 0.625-5 0.41562-1.25 0.625-2.2914 0.625-3.125-3.1e-4 -9.583-7.0836-15-21.25-16.25m70.625 0-1.875 8.125 1.875 2.5 3.125 1.875 0.625 5 1.25 5.625-1.875 6.875c3.333-0.83281 4.9997-4.1664 5-10-3.1e-4 -9.1664-2.7088-15.833-8.125-20m59.375 10.625c1.25 5.0003 6.6662 7.5003 16.25 7.5 12.916 3.1e-4 19.375-1.8747 19.375-5.625-4.7e-4 -5.4164-1.25-8.1247-3.75-8.125-0.83438 3.1e-4 -3.1255 0.83281-6.875 2.5-3.3338 1.25-5.6255 2.0836-6.875 2.5-5.0005 1.25-8.7505 1.8753-11.25 1.875-3.3338 3.1e-4 -5.6255-0.20781-6.875-0.625m-174.38 4.375c-14.584 5.0003-26.042 7.5003-34.375 7.5-2.9169 3.1e-4 -8.9586-0.625-18.125-1.875-2.0836 3.3336-3.1252 5.0003-3.125 5-1.6e-4 1.667 5.4164 2.5003 16.25 2.5 7.4998 3.1e-4 17.291-1.6664 29.375-5 14.583-4.583 21.875-9.9997 21.875-16.25-3.1e-4 -0.83281-0.41719-1.25-1.25-1.25h-0.625l-10 9.375m-46.875-3.75h-1.875l-8.125 6.875c-5.0002 4.5836-7.5002 10.834-7.5 18.75-1.6e-4 6.667 1.8748 10 5.625 10 1.6664 3.1e-4 2.4998-0.83281 2.5-2.5l-0.625-1.25-3.125-8.125v-1.25c-1.6e-4 -6.2497 4.3748-13.75 13.125-22.5m-25 1.875-1.25 4.375v2.5c5.4166 3.7503 8.3331 5.417 8.75 5l1.875-3.125c0.83281-0.83281 1.25-1.4578 1.25-1.875-1.6e-4 1.25-3.5419-1.0422-10.625-6.875m195.62 20c0.83281-1.6664 2.083-2.708 3.75-3.125l-1.25 6.25-2.5 3.75 1.25 5c4.9997-6.2497 7.4997-12.083 7.5-17.5-3.1e-4 -7.4997-1.0422-11.25-3.125-11.25-3.7503 3.1e-4 -5.6253 5.6253-5.625 16.875m51.25-10.625 6.25 2.5 11.875 1.875c4.9995 0.83281 9.5828 4.5836 13.75 11.25 1.6662 2.917 2.4995 6.4586 2.5 10.625-4.7e-4 10.834-5.4172 16.25-16.25 16.25-3.7505 3.1e-4 -7.7088-2.4997-11.875-7.5-0.41719 0.83438-0.625 2.5003-0.625 5-4.7e-4 7.0836 5.208 10.625 15.625 10.625 6.2495 3.1e-4 11.458-2.2914 15.625-6.875 4.5828-4.9997 6.8745-10.625 6.875-16.875-4.7e-4 -19.166-13.125-28.75-39.375-28.75-0.83438 3.1e-4 -1.4594 0.20938-1.875 0.625l-2.5 1.25m-199.38 26.875h-0.625c-5.0002 3.1e-4 -7.5002-1.8747-7.5-5.625-1.6e-4 -3.7497 3.3331-7.708 10-11.875 1.6664-0.83281 3.1248-1.6664 4.375-2.5 1.6664-0.83281 3.3331-1.6664 5-2.5-1.6e-4 -0.83281-0.625-1.25-1.875-1.25-1.25 3.1e-4 -4.5836 1.0422-10 3.125l-10 5c-3.3336 2.0836-5.0002 5.2086-5 9.375-1.6e-4 6.667 3.1248 10 9.375 10 2.9164 3.1e-4 4.9998-1.25 6.25-3.75m156.88-11.25 7.5-3.125 1.875 1.25 0.625 5.625 15.625-4.375c-2.917-2.9164-7.0838-4.7914-12.5-5.625l0.625-5h-3.125c-5.417 3.1e-4 -8.9588 3.7503-10.625 11.25m-145 0.625 2.5 6.875v13.75l3.75 7.5 2.5 2.5v3.125l-8.125-1.25 1.875 9.375 1.875 5c4.9997 7.0836 12.291 10.625 21.875 10.625 7.0831 3.1e-4 14.583-3.3331 22.5-10h-1.25c-2.0836 3.1e-4 -3.1253-0.625-3.125-1.875-3.1e-4 -1.25 0.83281-1.8747 2.5-1.875h2.5l3.125 0.625c0.83281 3.1e-4 1.8747-0.83281 3.125-2.5l-13.125-1.875v-0.625c-3.1e-4 -1.6664 0.41719-2.4997 1.25-2.5 1.6664 3.1e-4 3.7497 0.41719 6.25 1.25 2.9164 0.41719 4.9997 0.625 6.25 0.625l5.625 0.625c-4.167-2.4997-7.7086-3.9581-10.625-4.375-2.9169-0.41719-7.5003-1.25-13.75-2.5l-3.75-1.25c1.6664-1.25 2.9164-1.8747 3.75-1.875 0.83281 3.1e-4 2.2914 0.41719 4.375 1.25 2.0831 0.83438 3.9581 1.25 5.625 1.25 1.6664 3.1e-4 3.3331-0.83281 5-2.5l-18.125-6.875-5-1.25-0.625-2.5 26.25 8.125c-2.9169-3.7497-6.8753-6.6664-11.875-8.75v-2.5l9.375 3.75c-0.41719-1.25-0.625-2.4997-0.625-3.75-3.1e-4 -1.6664-0.20938-2.708-0.625-3.125-0.83438-7.9164-2.7086-13.125-5.625-15.625-2.9169-2.4997-8.7503-4.1664-17.5-5l1.875 7.5-0.625 1.875c-8.3336-6.2497-15.417-9.3747-21.25-9.375-5.0002 3.1e-4 -7.9169 0.41719-8.75 1.25l-3.75 3.125 2.5 1.25 1.875 2.5m286.25 10.625c0.41562 2.917 1.0406 5.8336 1.875 8.75 0.83281 2.5003 1.6661 5.0003 2.5 7.5l3.125 4.375 1.875 1.875 2.5 3.75 2.5 0.625c0.41562-0.83281 0.625-2.0831 0.625-3.75-4.7e-4 3.1e-4 -1.6672-2.4997-5-7.5-3.3339-5.4164-5.0005-11.041-5-16.875l0.625-3.75 5.625-9.375v-1.25c-4.7e-4 -1.6664-0.625-2.4997-1.875-2.5-5.4172 3.1e-4 -8.5422 6.042-9.375 18.125m-327.5-10.625c1.6664 1.667 3.3331 2.5003 5 2.5 2.4998 3.1e-4 3.7498-1.4578 3.75-4.375-1.6e-4 -3.333-1.8752-4.9997-5.625-5-2.5002 3.1e-4 -3.7502 1.4578-3.75 4.375l0.625 2.5m-81.25 13.125 0.625-6.875c0.83281-4.1664 3.3333-7.083 7.5-8.75-0.41719-1.6664-1.4578-2.4997-3.125-2.5-4.1667 3.1e-4 -6.2502 3.3336-6.25 10-1.6e-4 0.83438-1.6e-4 1.8753 0 3.125 0.41719 1.25 0.83281 2.917 1.25 5m436.25-9.375-2.5 6.875-1.25 15.625c-2.5005 4.1669-5.4172 9.3753-8.75 15.625-2.9172 6.2503-6.0422 13.75-9.375 22.5-0.41719 2.0836-0.83438 4.1669-1.25 6.25-4.7e-4 1.6669-4.7e-4 3.3336 0 5l-0.625 8.75c-4.7e-4 1.6669 0.83281 2.5002 2.5 2.5 1.6661 1.6e-4 2.4995-1.4578 2.5-4.375l-0.625-3.125c-4.7e-4 -2.0831-4.7e-4 -3.9581 0-5.625 0.41562-2.0831 0.83281-4.1664 1.25-6.25l2.5-6.875 1.25-5.625 15.625-29.375c1.25-1.6664 1.8744-4.3747 1.875-8.125-6.3e-4 -2.083-1.0422-6.6664-3.125-13.75m-349.38 3.125c-3.3336 3.1e-4 -5.0002 1.4578-5 4.375-1.6e-4 4.167 1.8748 6.2503 5.625 6.25 3.7498 3.1e-4 5.6248-1.8747 5.625-5.625-1.6e-4 -3.333-2.0836-4.9997-6.25-5m-15 3.75c-2.0834 3.1e-4 -3.3334 0.83281-3.75 2.5l-0.625 1.25c-1.6e-4 3.3336 1.8748 5.0003 5.625 5 2.4998 3.1e-4 3.7498-1.4578 3.75-4.375-1.6e-4 -2.9164-1.6669-4.3747-5-4.375m-76.875 0-1.875 3.125c0.41719 0.83281 1.0422 2.5003 1.875 5 0.83281 2.5003 2.0833 5.4169 3.75 8.75l0.625 1.25c-0.83281 0.83438-1.4578 1.25-1.875 1.25 0.41719 3.1e-4 -1.25-2.7081-5-8.125 0.41719 2.9169 1.0422 5.0003 1.875 6.25l0.625 5c0.41719 0.41719 0.625 1.0422 0.625 1.875 0.41719 0.83281 1.0422 1.6669 1.875 2.5l0.625 1.25 3.125 5c0.41719-2.9164 0.625-5.2081 0.625-6.875 0.41719-2.0831 0.625-3.5414 0.625-4.375l-0.625-1.875-3.75-8.75c-0.41719-1.6664-1.0422-4.9997-1.875-10l-1.25-1.25m100.62 11.875 5.625 9.375-2.5 1.25c-3.3336-6.6664-6.6669-9.5831-10-8.75h-1.25c1.6664 0.83281 2.9164 1.6669 3.75 2.5 0.83281 0.83438 1.6664 1.4594 2.5 1.875l2.5 3.75 0.625 0.625v0.625l-2.5 16.25c-1.6e-4 5.0003 1.4578 7.5003 4.375 7.5 1.25-0.41719 2.2914-1.4578 3.125-3.125h2.5l1.875 4.375c3.3331 4.5836 7.0831 6.8753 11.25 6.875v-15l-4.375-6.875 8.125-0.625-9.375-15 2.5 7.5-1.875 0.625c-2.9169-5.4164-6.2502-9.3747-10-11.875l3.125 5.625 1.875 3.75c0.41719 1.25 0.625 2.2919 0.625 3.125 0.41562 0.41719 0.625 0.625 0.625 0.625-1.6e-4 1.25-0.625 1.8753-1.875 1.875-1.25 3.1e-4 -2.7086-3.3331-4.375-10-0.83438-2.0831-3.1252-4.3747-6.875-6.875m-11.875 53.125 7.5 5h-6.25c-5.0002 0.83438-7.5002 1.8752-7.5 3.125-1.6e-4 2.5002 1.25 3.9586 3.75 4.375 6.6664 8.7502 16.041 14.167 28.125 16.25l29.375 4.375c1.25 0.41719 2.7081 1.25 4.375 2.5 1.6664 0.83281 3.5414 2.0836 5.625 3.75 2.9164 2.9169 4.3747 5.2086 4.375 6.875-3.1e-4 1.6669-0.625 2.7084-1.875 3.125l-6.25 1.25-3.75 3.75-1.875 0.625c-0.41719 0.41719-0.625 1.4578-0.625 3.125l8.75 5.625h5c0.41719 1.6e-4 4.1664 2.2919 11.25 6.875l8.75 8.75 1.25 2.5 4.375 6.875 1.875 3.75 1.25 1.875 1.875 5.625 2.5 8.75c2.083 7.5002 3.1247 11.667 3.125 12.5 0.41719 6.2502 0.83281 9.7917 1.25 10.625 0.83281 0.83281 2.2914 1.4578 4.375 1.875l-1.25-8.75-0.625-13.75c-0.83438-15.833-5.417-32.083-13.75-48.75-7.9169-16.667-17.917-29.583-30-38.75l-4.375-3.125-5-3.125-5-3.75-16.875-9.375-14.375-10c-2.0836-0.83281-5.0002-2.4997-8.75-5l-3.125-2.5-1.875-1.25-5.625-6.25c-2.5002-2.9164-3.7502-5.8331-3.75-8.75-1.6e-4 -8.7497 3.9581-13.958 11.875-15.625-2.9169-2.9164-5.4169-4.3747-7.5-4.375-3.7502 3.1e-4 -7.2919 2.5003-10.625 7.5-3.3334 5.0003-5.0002 9.7919-5 14.375-1.6e-4 3.7503 0.83281 7.2919 2.5 10.625 2.0831 5.4169 3.7498 8.9586 5 10.625 1.25 1.6669 3.7498 3.7502 7.5 6.25m-105-40.625h1.25c5.4166 3.1e-4 9.5833 2.0836 12.5 6.25 3.3333 3.7503 6.2498 7.5003 8.75 11.25l-0.625-4.375-3.75-6.25-4.375-8.125c-1.6667-4.1664-4.3752-6.2497-8.125-6.25-3.3334 3.1e-4 -5.2084 2.5003-5.625 7.5m197.5-5v2.5c-3.1e-4 1.25 1.6664 1.8753 5 1.875l-5-4.375m235 0.625c-2.9172 2.9169-5.8339 5.8336-8.75 8.75-2.5005 2.5003-5.4172 5.0003-8.75 7.5l-4.375 3.125c-4.1672 2.9169-8.7505 5.8336-13.75 8.75-4.5838 2.9169-9.7922 6.0419-15.625 9.375-3.3338 1.25-7.0838 2.7086-11.25 4.375-4.1672 1.6669-8.5422 3.5419-13.125 5.625-1.667 0.41719-3.1255 2.7086-4.375 6.875v1.25c20.416-4.9998 34.166-9.9998 41.25-15l16.875-10.625 9.375-6.875 8.75-10 6.875-6.25c0.41562-0.41562 0.625-1.0406 0.625-1.875-4.7e-4 -1.25-1.25-2.9164-3.75-5m-137.5 6.875 7.5 1.25v2.5c-2.0838-0.41719-3.7503-0.625-5-0.625-1.25-0.41562-2.0838-0.625-2.5-0.625-1.667 3.1e-4 -3.542 1.0422-5.625 3.125l13.125 2.5 1.25 3.125-11.875-3.125h-4.375c-1.25 3.1e-4 -1.8753 0.41719-1.875 1.25-3.1e-4 0.83281 2.9162 2.2919 8.75 4.375l4.375 1.25 11.25 1.25c-0.41719 1.6669-1.25 2.5003-2.5 2.5h-8.125l-7.5-1.875-3.75 0.625 1.875 3.75h-5.625l-10.625-3.125h-6.25c-2.0838 3.1e-4 -3.7503 0.20938-5 0.625v1.25c0.41562 3.1e-4 1.25 0.20938 2.5 0.625 1.6662 3.1e-4 4.1662 0.20938 7.5 0.625 4.583 0.83438 6.8747 1.8753 6.875 3.125-3.1e-4 0.83438-0.625 1.4578-1.875 1.875l-10.625-2.5c0.83281 4.5836 3.333 6.8753 7.5 6.875l0.625 1.875h-5.625c0.41562 7.9169 5.208 11.875 14.375 11.875 2.9162 1.6e-4 7.4997-0.83281 13.75-2.5 1.25-0.41719 2.083-0.625 2.5-0.625 0.83281-0.41562 1.25-0.625 1.25-0.625l13.75-6.875-8.75-5 0.625-1.875c1.6662 0.41719 2.9162 0.83281 3.75 1.25 1.25 3.1e-4 2.2912 3.1e-4 3.125 0 10.416 3.1e-4 18.333-5.8331 23.75-17.5h-5.625c-0.83438-0.41719-2.292-0.83281-4.375-1.25-1.667-0.41719-3.7505-1.0422-6.25-1.875l-6.25 0.625c2.9162-4.1664 4.3745-7.2914 4.375-9.375-4.7e-4 -0.83281-1.667-1.6664-5-2.5l-10.625-1.25c-1.25 3.1e-4 -4.167 1.6669-8.75 5m65 9.375c3.3328-0.83281 4.9995-1.25 5-1.25 4.5828 3.1e-4 6.8745 2.5003 6.875 7.5-4.7e-4 2.5003-1.25 5.6253-3.75 9.375-2.5005 3.3336-5.0005 5.4169-7.5 6.25-6.2505 2.5002-9.3755 4.1669-9.375 5-4.7e-4 1.25 0.625 1.8752 1.875 1.875 5.4162 1.6e-4 11.041-2.7081 16.875-8.125 6.2495-5.4164 9.3745-11.25 9.375-17.5-4.7e-4 -7.0831-3.5422-10.625-10.625-10.625-4.1672 3.1e-4 -7.0838 2.5003-8.75 7.5m-161.88 0c-9.1669 6.6669-13.75 14.792-13.75 24.375-3.1e-4 0.83281-3.1e-4 2.0836 0 3.75 0.41719 1.6669 0.83281 3.7502 1.25 6.25l0.625 1.875 1.25 1.25 5 12.5 5.625-1.875 3.125-4.375c-3.1e-4 -0.41719 0.41719-0.625 1.25-0.625 0.83281 1.6e-4 1.25 0.41719 1.25 1.25-3.1e-4 1.25-0.20938 2.0836-0.625 2.5l0.625 5c0.83281 5.0002 2.708 9.5836 5.625 13.75 4.1664 5.4169 7.2914 8.1252 9.375 8.125l1.25-0.625c1.25-0.41719 2.9164-1.6664 5-3.75l7.5-5 5.625-4.375c2.083-1.6664 3.333-3.3331 3.75-5 0.83281-1.6664 1.25-2.9164 1.25-3.75 0.41719-1.25 0.625-2.0831 0.625-2.5 0.41562-0.41719 1.25-0.41719 2.5 0 2.4997 5.8336 4.3747 8.7502 5.625 8.75 1.25 1.6e-4 2.9162-2.4998 5-7.5 0.83281-1.25 1.8747-2.7081 3.125-4.375 1.25-1.6664 2.708-3.5414 4.375-5.625-3.1e-4 1.6e-4 -3.1e-4 -0.41719 0-1.25 0.41562-0.83281 0.83281-2.2914 1.25-4.375l0.625-6.25 0.625-1.25c-3.1e-4 -4.1664-2.0838-8.9581-6.25-14.375-1.667-1.6664-3.7503-2.7081-6.25-3.125l-0.625 5-0.625 1.875-3.125-0.625c0.83281-3.3331 1.25-4.9997 1.25-5-3.1e-4 -1.25-0.625-1.8747-1.875-1.875h-1.25l-4.375 12.5c-0.41719 0.41719-1.0422 0.625-1.875 0.625-1.25 1.6e-4 -1.8753-0.625-1.875-1.875-3.1e-4 -0.83281 0.625-2.2914 1.875-4.375 1.6664-2.4997 2.4997-4.1664 2.5-5-3.1e-4 -1.25-0.41719-1.8747-1.25-1.875-1.25 3.1e-4 -2.0836 0.625-2.5 1.875l-1.875 5-2.5 8.75-5 1.25 6.875-17.5-6.25 6.875-3.75 9.375c-1.25 2.5002-2.0836 4.3752-2.5 5.625-3.1e-4 0.83281-0.20938 2.5002-0.625 5l-3.125 1.875 1.25-0.625c-1.667-0.41719-2.5003-1.0406-2.5-1.875-3.1e-4 0.41719 0.41719-1.0406 1.25-4.375 0.83281-4.1664 2.708-9.9997 5.625-17.5 1.6664-1.6664 2.4997-3.1247 2.5-4.375v-0.625c-0.41719-1.6664-1.0422-2.4997-1.875-2.5-1.25 3.1e-4 -2.7086 1.0422-4.375 3.125-1.25 1.6669-2.0836 3.1253-2.5 4.375-2.0836 5.8336-3.3336 8.9586-3.75 9.375l-0.625 0.625c-1.667 1.6e-4 -2.5003-0.625-2.5-1.875v-1.25l0.625-0.625 8.75-14.375c-0.83281-0.83281-1.8753-1.25-3.125-1.25-2.0836 3.1e-4 -3.3336 1.4578-3.75 4.375l-2.5 1.875-2.5 6.25h-0.625c-1.667 3.1e-4 -2.5003-0.625-2.5-1.875-3.1e-4 3.1e-4 0.625-0.83281 1.875-2.5 1.25-1.6664 2.9164-4.1664 5-7.5 0.41719-0.41719 1.0406-1.4578 1.875-3.125-0.83438-0.83281-1.667-1.25-2.5-1.25-0.83281 3.1e-4 -1.4578 0.20938-1.875 0.625l-2.5 2.5h-1.25l-2.5 4.375-1.25 0.625c-1.25 3.1e-4 -1.8753-0.625-1.875-1.875-3.1e-4 -1.25 1.25-2.7081 3.75-4.375 2.9164-2.0831 4.3747-3.3331 4.375-3.75-1.25-2.0831-2.5003-3.1247-3.75-3.125l-10 5.625m255.62-1.875c-2.0839 2.0836-3.1255 3.7503-3.125 5-4.7e-4 1.6669 0.625 3.3336 1.875 5 1.6661 3.7503 2.4995 7.9169 2.5 12.5-4.7e-4 13.75-7.9172 21.875-23.75 24.375-0.41719 0.41719-0.625 1.4578-0.625 3.125-4.7e-4 0.41719 0.83281 0.625 2.5 0.625 17.916 1.6e-4 26.875-9.5831 26.875-28.75-4.7e-4 -9.1664-2.0839-16.458-6.25-21.875m-108.12 0.625c-4.167 12.084-12.709 21.667-25.625 28.75l-8.125 3.75c-0.83438 0.41719-2.0838 1.0422-3.75 1.875-1.25 0.41719-2.917 1.0422-5 1.875-3.1e-4 -0.41719-2.7088 1.6e-4 -8.125 1.25-5.0003 1.25-10.625 3.3336-16.875 6.25-6.2503 2.9169-11.875 6.4586-16.875 10.625-5.0003 4.1669-7.292 8.9586-6.875 14.375-3.1e-4 2.5002 0.83281 5.2086 2.5 8.125-6.2503 3.3334-12.292 10-18.125 20-9.5836 18.333-14.375 34.583-14.375 48.75-3.1e-4 2.0834-3.1e-4 4.5834 0 7.5 0.41719 2.5002 0.83281 5.8334 1.25 10 2.083 1.6e-4 3.1247-1.0422 3.125-3.125l0.625-15c0.83281-2.0833 1.4578-4.3748 1.875-6.875 0.83281-2.9166 1.6664-6.2498 2.5-10l0.625-3.75c0.41719-9.9998 7.2914-20.625 20.625-31.875 0.83281-0.83281 2.2912-1.8748 4.375-3.125 2.083-1.25 4.583-2.7081 7.5-4.375v2.5c-0.83438 5.0002 1.25 7.5002 6.25 7.5 1.6662 1.6e-4 2.708-0.20781 3.125-0.625l38.75-11.25c0.83281-0.41719 2.4995-0.625 5-0.625 7.4995 1.6e-4 11.25 2.5002 11.25 7.5-4.7e-4 4.5834-2.917 6.8752-8.75 6.875-1.25 1.6e-4 -2.0838-0.20781-2.5-0.625l-17.5-6.25c-1.667 1.6e-4 -3.7503 1.0422-6.25 3.125-2.5003 1.6669-3.7503 3.3334-3.75 5-3.1e-4 1.25 0.20781 2.0834 0.625 2.5 2.9162-2.4998 5.4162-3.7498 7.5-3.75 2.083 1.6e-4 5.208 1.4578 9.375 4.375 4.1662 2.5002 6.458 3.7502 6.875 3.75h0.625l1.875-0.625 6.875-1.875-1.875 9.375 15-6.25c7.4995-2.9166 11.25-8.3331 11.25-16.25-4.7e-4 -2.9166-2.5005-7.9166-7.5-15l8.125-0.625c-5.0005-10.833-13.542-16.25-25.625-16.25-13.75 1.6e-4 -24.792 2.9169-33.125 8.75-2.917 2.5002-5.2088 4.3752-6.875 5.625-1.25 1.25-2.0838 2.0836-2.5 2.5h-2.5c-2.5003 1.6e-4 -3.7503-1.4578-3.75-4.375-3.1e-4 -2.4998 1.8747-4.7914 5.625-6.875 5.4162-2.9164 9.9997-4.7914 13.75-5.625l33.125-3.75c8.7495-0.83281 15.833-7.4998 21.25-20l-10.625-0.625c7.9162-6.6664 11.875-13.333 11.875-20-4.7e-4 -4.5831-2.0838-8.9581-6.25-13.125m82.5 6.875-4.375 4.375c-0.41719 34.167-10.625 72.292-30.625 114.38-0.83438 1.6667-1.4594 3.1252-1.875 4.375l-3.75 5v2.5c0.41562 1.25 1.25 1.8752 2.5 1.875 1.6662 1.6e-4 4.7912-4.1666 9.375-12.5l11.25-24.375c12.5-26.667 18.75-55 18.75-85-4.7e-4 -1.25-0.20938-2.7081-0.625-4.375-4.7e-4 -2.0831-0.20938-4.1664-0.625-6.25m-425.62 1.875c-1.6667 3.1e-4 -2.5002 1.0422-2.5 3.125-1.6e-4 2.5003 1.0422 3.7503 3.125 3.75 2.4998 3.1e-4 3.7498-1.25 3.75-3.75-1.6e-4 -2.0831-1.25-3.1247-3.75-3.125h-0.625m8.75 3.75c0.41719 2.9169 1.8748 4.3753 4.375 4.375 2.0833 3.1e-4 3.1248-1.4578 3.125-4.375-1.6e-4 -2.4997-1.0422-3.7497-3.125-3.75-2.9167 3.1e-4 -4.3752 1.25-4.375 3.75m68.75 18.125c2.0831 4.1669 3.7498 6.4586 5 6.875l5 1.875c3.7498 1.6669 5.2081 2.5002 4.375 2.5 0.83281 1.6e-4 1.25-0.625 1.25-1.875l-0.625-0.625-9.375-10.625c-0.83281-0.83281-1.25-1.4578-1.25-1.875-1.6e-4 -2.4998 2.2916-4.1664 6.875-5-1.25-4.5831-3.1252-6.8747-5.625-6.875-4.1669 3.1e-4 -6.2502 2.9169-6.25 8.75-1.6e-4 3.3336 0.20781 5.6252 0.625 6.875m340-15.625-21.875 14.375-13.125 5.625c-0.41719 14.167-2.5005 28.75-6.25 43.75-3.3338 15-8.5422 30.417-15.625 46.25 6.6662 2.0834 12.708 4.5834 18.125 7.5l3.75 1.875c9.9995-15.417 18.333-33.958 25-55.625 7.0828-23.333 10.625-42.083 10.625-56.25v-2.5c-4.7e-4 -2.0831-0.20938-3.7497-0.625-5m-408.12 35.625c-3.7502-7.9164-5.6252-13.75-5.625-17.5-1.6e-4 -0.41562 0.41719-1.8748 1.25-4.375l1.25-4.375 1.25-6.25h-1.875c-5.0002-0.41719-7.5002 3.7503-7.5 12.5-1.6e-4 9.1669 3.7498 15.834 11.25 20m152.5-10.625 1.25 2.5 1.25 0.625 3.75 5c2.4997 3.7502 5.4164 6.2502 8.75 7.5l3.125 4.375 3.125 1.875 1.25 1.875 2.5 4.375 0.625 1.875 6.25 6.875 6.25 11.25v0.625l2.5 4.375c-1.667-9.9998-6.8753-20.625-15.625-31.875l-11.875-14.375c-3.3336-4.5831-5.0003-9.3748-5-14.375-3.1e-4 -2.4998 2.2914-6.0414 6.875-10.625-2.0836-2.0831-3.9586-3.1247-5.625-3.125-3.1e-4 3.1e-4 -1.6669 0.41719-5 1.25-4.1669 2.5003-6.2503 6.0419-6.25 10.625-3.1e-4 2.5002 0.625 5.6252 1.875 9.375m-148.12-18.125c-2.9167 3.1e-4 -4.3752 1.4578-4.375 4.375-1.6e-4 2.0836 1.0422 3.1252 3.125 3.125 2.9166 1.6e-4 4.3748-1.0422 4.375-3.125-1.6e-4 -2.9164-1.0422-4.3747-3.125-4.375m-2.5 25.625 1.25 2.5 2.5 1.25 1.25 3.75c-1.25-0.41719-3.5417-0.625-6.875-0.625-5.4167 1.6e-4 -8.3334 3.7502-8.75 11.25 2.9166-1.25 4.9998-1.8748 6.25-1.875 0.83281 1.6e-4 1.6666 0.20938 2.5 0.625 1.25 1.6e-4 2.7083 0.20938 4.375 0.625 2.0833-2.0831 3.1248-3.9581 3.125-5.625-1.6e-4 -1.6664-0.20781-2.9164-0.625-3.75 8.3333 4.5836 16.458 6.8752 24.375 6.875h6.25c2.9166 1.6e-4 5.4166-0.20781 7.5-0.625l-14.375-1.25-8.75-1.875-6.25-1.875-2.5-1.875-3.125-1.875-0.625-1.875c2.9166-1.25 4.3748-2.7081 4.375-4.375-1.6e-4 -0.83281-0.41719-1.6664-1.25-2.5l-5-6.875-1.25-4.375c-3.7502 1.6e-4 -5.8334 2.5002-6.25 7.5v0.625c-1.6e-4 1.25 0.625 3.3336 1.875 6.25m68.125-7.5v2.5c-1.6e-4 3.3336 1.8748 5.6252 5.625 6.875 4.1666 0.83438 8.1248 1.6669 11.875 2.5h1.875c0.83281 1.6e-4 1.25-0.41719 1.25-1.25-1.6e-4 -2.0831-6.2502-5.4164-18.75-10l-1.875-0.625m262.5 11.25c9.583-0.83281 16.25-1.4578 20-1.875 3.7495-0.41719 4.5828-0.625 2.5-0.625l3.125 0.625c1.25 0.41719 3.1245 0.625 5.625 0.625 1.6662 1.6e-4 2.9162-1.8748 3.75-5.625h-7.5l-4.375 0.625c-0.83438 0.41719-2.7088 0.625-5.625 0.625-1.25 1.6e-4 -2.7088 1.6e-4 -4.375 0-1.667 1.6e-4 -3.542 0.20938-5.625 0.625-3.7505 0.41719-6.2505 2.0836-7.5 5m103.12 1.875 3.75 1.25 4.375-0.625 1.25 5.625 1.875 1.875c0.83281-4.1664 1.25-6.2498 1.25-6.25-4.7e-4 -3.3331-2.0839-4.9998-6.25-5-2.9172 1.6e-4 -5.0005 1.0422-6.25 3.125m-8.125-0.625-3.125 3.125c1.6661 7.5002 3.1245 11.25 4.375 11.25 1.25 1.6e-4 1.8745-0.625 1.875-1.875-4.7e-4 -0.83281-0.625-2.7081-1.875-5.625-0.83438-3.3331-1.25-5.6248-1.25-6.875m-376.25 9.375 51.875-3.75c-1.6669-1.6664-3.5419-2.4998-5.625-2.5l-8.125 0.625-17.5 1.25-14.375 2.5h-5c-0.41719 0.41719-0.625 0.83438-0.625 1.25l-0.625 0.625m279.38-5c2.9162 3.7502 7.708 5.6252 14.375 5.625 4.1662 0.83281 10.416 2.7086 18.75 5.625 0.41562-0.83281 0.625-2.4998 0.625-5-4.7e-4 -3.3331-4.3755-5.4164-13.125-6.25l-15.625-0.625-5 0.625m102.5-0.625v4.375c7.9161 4.1669 11.875 8.7502 11.875 13.75-4.7e-4 2.9169-0.83438 4.3752-2.5 4.375-2.0839 1.6e-4 -3.9589-0.83281-5.625-2.5l-1.875 1.875c3.7495 4.1669 6.4578 6.2502 8.125 6.25 3.3328 1.6e-4 4.9995-3.1248 5-9.375-4.7e-4 -6.6664-5.0005-12.916-15-18.75m-13.125 2.5c-2.9172 2.9169-4.3755 6.2502-4.375 10-4.7e-4 5.4169 2.7078 7.9169 8.125 7.5h0.625l3.75-0.625 5-1.875 5.625-2.5v-0.625c-4.7e-4 -1.25-0.41719-1.8748-1.25-1.875l-1.25-0.625h-0.625c-7.0839 2.9169-10.209 4.3752-9.375 4.375-2.0839 1.6e-4 -4.5839-1.4578-7.5-4.375 1.6661-1.6664 2.4995-3.5414 2.5-5.625-4.7e-4 1.6e-4 -0.20938-0.20781-0.625-0.625-4.7e-4 -0.83281-0.20938-1.8748-0.625-3.125m-323.75 1.875-21.25 1.875 0.625 5.625c7.0831-1.6664 13.333-2.4998 18.75-2.5h5l8.125-5h-11.25m-5.625 18.75c1.6664 2.5002 3.5414 3.7502 5.625 3.75 2.9164 1.6e-4 4.7914-0.20781 5.625-0.625v2.5c-6.2502 4.5834-9.3752 10.417-9.375 17.5-1.6e-4 3.3334 0.83281 5.8334 2.5 7.5 2.4998 5.8334 7.0831 8.7502 13.75 8.75 1.6664 1.6e-4 4.1664-0.41719 7.5-1.25 3.7498-0.83281 6.6664-1.25 8.75-1.25 2.9164 1.6e-4 4.9998 0.20781 6.25 0.625-1.25-3.3331-3.7502-5.2081-7.5-5.625-3.3336-0.83281-6.8752-1.4578-10.625-1.875-3.3336-3.3331-5.0002-5.8331-5-7.5-1.6e-4 -8.7498 4.7914-13.542 14.375-14.375l13.125-1.25 8.125-8.125 4.375-3.75c-3.1e-4 -2.4998-2.7086-5.2081-8.125-8.125-5.4169-2.9164-11.25-4.3748-17.5-4.375-7.5002 1.6e-4 -15.834 3.9586-25 11.875l-6.875 5.625m-27.5-14.375 3.75 14.375 8.125 25 3.75 6.875 2.5 4.375 5 9.375c0.41562 1.6669 1.25 2.5002 2.5 2.5 1.25 1.6e-4 2.0831-0.20781 2.5-0.625l-2.5-5.625-3.125-6.25c-2.0834-3.3331-3.9584-6.8748-5.625-10.625-1.25-3.7498-2.2919-7.4998-3.125-11.25-0.41719-1.6666-0.83281-2.7081-1.25-3.125-1.6e-4 -0.83281-1.6e-4 -1.4578 0-1.875l-1.875-5.625-5-18.125c-0.41719-0.41562-1.25-0.625-2.5-0.625h-1.25l-1.875 1.25m-40.625-0.625c1.6666 4.1669 2.9166 8.1252 3.75 11.875 1.25 3.7502 2.2916 7.7084 3.125 11.875-1.6e-4 1.6e-4 0.41719 1.25 1.25 3.75 1.25 2.5002 2.9166 6.0419 5 10.625l5.625 13.125 6.25 12.5 5.625 9.375c2.4998 3.7502 4.3748 5.6252 5.625 5.625 1.6666 1.6e-4 3.5416-0.625 5.625-1.875 2.4998-1.6666 4.9998-3.3333 7.5-5 2.4998-2.0833 4.7916-3.9583 6.875-5.625 2.4998-1.6666 4.3748-2.7083 5.625-3.125-10.417-16.667-18.542-37.5-24.375-62.5-3.7502 0.41719-7.2919 0.83438-10.625 1.25-2.9169 1.6e-4 -5.6252 1.6e-4 -8.125 0-7.0834 1.6e-4 -13.333-0.625-18.75-1.875m319.38 5c9.5828 2.0836 14.375 5.8334 14.375 11.25-4.7e-4 2.5002-1.4594 5.2084-4.375 8.125 6.2495-0.41719 9.3745-2.7081 9.375-6.875-4.7e-4 -8.3331-2.7088-12.708-8.125-13.125l-11.25-2.5v3.125m-125.62 6.875c3.333-0.83281 4.7914-1.25 4.375-1.25-0.41719 1.6e-4 0.625 0.41719 3.125 1.25v6.25l-8.125 21.875-1.875 9.375 2.5-4.375 5-10 6.25-11.25c2.083-4.9998 3.1247-8.7498 3.125-11.25-3.1e-4 -6.2498-2.292-9.3748-6.875-9.375-2.5003 1.6e-4 -5.0003 2.9169-7.5 8.75m-221.88 19.375 0.625 2.5c-3.3334 3.3334-5.0002 5.4169-5 6.25-1.6e-4 1.6669 1.4578 2.5002 4.375 2.5 3.3333 1.6e-4 7.7083-2.0831 13.125-6.25l10-7.5c0.83281-0.83281 2.7083-1.8748 5.625-3.125l-6.875 8.125h-0.625c-2.9167 4.1669-4.3752 8.3334-4.375 12.5-1.6e-4 5.0002 1.8748 8.9584 5.625 11.875v-3.75c-0.83281-7.9166 3.3333-15.208 12.5-21.875l-7.5-17.5c-3.7502 2.5002-6.8752 4.3752-9.375 5.625-5.8334 3.7502-9.3752 5.6252-10.625 5.625-6.2502 1.6e-4 -9.3752-2.9166-9.375-8.75-1.6e-4 -1.6666 0.625-4.1666 1.875-7.5v-1.875h-0.625c-4.5834 1.6e-4 -6.8752 4.3752-6.875 13.125-1.6e-4 5.0002 2.4998 8.3334 7.5 10m151.88-16.25c-1.25 1.6669-2.2919 2.9169-3.125 3.75-0.41719 0.83281-0.625 1.25-0.625 1.25-4.5836 4.5834-6.8752 9.1669-6.875 13.75-1.6e-4 3.3334 1.0422 7.2919 3.125 11.875 2.0831 4.1669 4.5831 6.2502 7.5 6.25 1.25 1.6e-4 2.2914-1.25 3.125-3.75-6.2503-4.9998-9.3753-10.208-9.375-15.625-3.1e-4 -4.1666 2.7081-8.9581 8.125-14.375l1.875-1.875c0.83281-0.41719 1.4578-0.83281 1.875-1.25 3.7497-1.6666 5.6247-2.9166 5.625-3.75-3.1e-4 -1.25-0.83438-1.8748-2.5-1.875-0.83438 1.6e-4 -3.7503 1.8752-8.75 5.625m56.25-2.5-0.625 10.625v16.875c-3.1e-4 13.333 1.25 27.5 3.75 42.5 0.41719 1.25 0.625 2.9167 0.625 5v5.625l-0.625 4.375c-3.1e-4 2.0834 0.83281 3.1252 2.5 3.125 2.083 1.6e-4 3.1247-0.83281 3.125-2.5-3.1e-4 -1.25-0.20938-3.1248-0.625-5.625-0.41719-2.9166-0.625-4.9998-0.625-6.25l-0.625-21.875 1.875-47.5h-2.5c-1.667 1.6e-4 -3.7503-1.4578-6.25-4.375m210 3.125 3.75 4.375 4.375 2.5 16.25 13.125c0.83281 0.83281 2.4995 1.25 5 1.25 2.9161 1.6e-4 4.3745-1.4578 4.375-4.375l-0.625-3.75c-2.0839 2.5002-3.7505 3.7502-5 3.75-3.3339 1.6e-4 -11.459-4.9998-24.375-15l0.625-1.25-4.375-0.625m-0.625 3.75c-2.0839 2.0834-3.1255 3.7502-3.125 5-4.7e-4 0.41719 3.1245 4.3752 9.375 11.875l1.25 0.625 3.125 5.625 3.125 5 1.25 4.375 5 12.5 1.25 5c0.41562 3.3334 0.625 6.2502 0.625 8.75 0.41562 2.0834 0.625 3.9584 0.625 5.625-4.7e-4 2.9167-0.625 8.7502-1.875 17.5-5.8339 16.25-13.334 24.375-22.5 24.375-5.8339 0-8.7505-2.9166-8.75-8.75-4.7e-4 -4.1666 3.3328-6.4583 10-6.875-4.7e-4 1.6e-4 2.0828-0.41719 6.25-1.25 3.3328-4.5833 4.9995-8.1248 5-10.625-4.7e-4 -9.1666-4.7922-13.75-14.375-13.75-6.6672 1.6e-4 -10.834 3.3334-12.5 10 4.1661-2.9166 7.7078-4.3748 10.625-4.375 5.8328 1.6e-4 8.7495 3.1252 8.75 9.375-4.7e-4 3.3334-1.0422 5.4167-3.125 6.25l-10 2.5c-3.7505 0.83281-5.6255 5.0002-5.625 12.5-4.7e-4 5 1.0406 7.9167 3.125 8.75 3.7495 2.0834 5.6245 3.3334 5.625 3.75l-0.625 1.25-4.375 1.875c-0.83438 0.83281-1.25 1.4578-1.25 1.875-4.7e-4 2.5 3.1245 3.75 9.375 3.75 8.3328 0 14.166-2.9166 17.5-8.75l9.375-15 0.625-0.625c1.6661 0 2.4995 0.83281 2.5 2.5-4.7e-4 2.5-2.5005 6.4584-7.5 11.875l-1.25 3.125c-8.3339 10.833-12.084 18.333-11.25 22.5v1.875l1.25 6.25 7.5-6.875c0.83281 12.083 4.5828 18.125 11.25 18.125 3.3328 0 5.6245-2.9167 6.875-8.75l-3.75 0.625c-3.7505 0-5.6255-2.2916-5.625-6.875v-0.625c0.41562-3.3333 1.0406-7.2916 1.875-11.875 0.83281-5 2.2911-10.833 4.375-17.5 3.7495-11.667 5.6245-25.625 5.625-41.875-4.7e-4 -28.75-11.875-52.292-35.625-70.625m-4.375 9.375v2.5l6.25 6.875 3.125 6.875v5.625c0.41562 10.417-3.9589 15.625-13.125 15.625-3.7505 1.6e-4 -5.6255-1.6666-5.625-5-4.7e-4 -1.25 0.625-2.2916 1.875-3.125l6.875-4.375 0.625-6.25-10.625 6.875c-3.3338 4.5834-5.0005 7.9169-5 10-4.7e-4 6.2502 2.4995 9.3752 7.5 9.375-4.7e-4 1.6e-4 2.0828-0.41719 6.25-1.25l1.875 0.625-1.875 3.75v2.5l12.5-5c1.6661-0.83281 3.3328-3.1248 5-6.875 0.83281-4.1666 1.25-6.8748 1.25-8.125-4.7e-4 -7.4998-2.9172-14.792-8.75-21.875l-3.75-3.75-4.375-5m-63.125 2.5c-3.3338 5.4169-6.4588 8.9584-9.375 10.625l-15.625 7.5c-5.8338 2.5002-8.7505 5.0002-8.75 7.5l1.25 6.25-8.75 5.625-3.75 4.375c-10.834 14.167-16.042 26.667-15.625 37.5v8.75l5.625-2.5c1.6662-21.667 6.8745-34.792 15.625-39.375l5-2.5-0.625 5c0.83281 0.83281 2.2912 1.4578 4.375 1.875h0.625c1.25 1.6e-4 3.1245-0.20781 5.625-0.625 2.9162-0.83281 4.7912-1.25 5.625-1.25l1.25 0.625 5 1.875c1.6662 1.6e-4 2.4995-1.25 2.5-3.75-4.7e-4 -4.5833-4.167-7.9166-12.5-10h-1.25c-1.25-0.41719-1.8755-1.4578-1.875-3.125v-1.25l1.25-1.25 13.125-6.875c6.2495-3.7498 9.9995-8.9581 11.25-15.625l0.625-3.125c-4.7e-4 -3.3331-0.20938-5.4166-0.625-6.25m-87.5 0.625-0.625 1.875c-10.834 1.6e-4 -18.959 4.5834-24.375 13.75l-3.125 6.25c-0.83438 2.5002-1.667 5.2084-2.5 8.125-0.83438 2.5002-1.4578 5.2084-1.875 8.125 2.4997-0.83281 3.958-1.6666 4.375-2.5 0.83281-1.25 2.4997-5.2081 5-11.875 3.7497-8.7498 12.5-13.125 26.25-13.125 1.25 1.6e-4 2.083 0.20781 2.5 0.625l1.875 1.875 4.375 5c1.25 0.83281 1.8747 2.0834 1.875 3.75-3.1e-4 4.1669-2.917 8.1252-8.75 11.875 2.9162 1.6667 5.208 2.5002 6.875 2.5 3.333 1.6e-4 6.2497-1.6666 8.75-5 2.4997-3.7498 3.7497-7.2916 3.75-10.625-3.1e-4 -4.1666-1.8753-8.3331-5.625-12.5-3.3338-4.1666-6.8753-6.0416-10.625-5.625h-5.625c-1.25 1.6e-4 -2.0838-0.83281-2.5-2.5m-105 6.25c-3.1e-4 1.25-0.20938 2.2919-0.625 3.125l-0.625 1.25c-3.1e-4 2.0834 1.0406 3.1252 3.125 3.125 2.4997 1.6e-4 3.7497-1.25 3.75-3.75-3.1e-4 -2.4998-1.6669-3.7498-5-3.75h-0.625m-153.75 89.375 3.75 6.25c14.583 25.833 34.167 38.75 58.75 38.75l2.5-0.625h3.75c1.6666-0.83281 2.7081-0.41719 3.125 1.25 2.9166 2.9167 5.8331 4.375 8.75 4.375 3.3331 0 5.6248-0.20781 6.875-0.625 4.9998-0.83281 8.9581-1.4578 11.875-1.875 2.9164-0.83281 4.7914-1.25 5.625-1.25 0.83281 0 1.8748 0.20781 3.125 0.625 1.25 0 2.9164 0.20781 5 0.625-0.83281-0.83281-2.0836-1.6667-3.75-2.5-1.25-1.25-2.7086-2.2917-4.375-3.125h-14.375l-4.375 0.625c-0.41719 0.41719-1.4578 0.625-3.125 0.625-0.83281 0-1.25-0.41719-1.25-1.25-1.6e-4 -1.25 2.7081-2.0833 8.125-2.5 1.6664-0.41719 3.7498-1.6666 6.25-3.75 2.9164-2.5 4.5831-5 5-7.5l-6.25 3.125-20 2.5-5.625 6.25h-6.25l-8.125-1.25c-27.5-4.1666-44.375-17.708-50.625-40.625l-3.125-11.875-1.875-5.625c-0.41719-2.4998-1.0422-8.5416-1.875-18.125v-1.875c-1.6e-4 -4.1666 0.625-8.1248 1.875-11.875l4.375-16.875c0.83281-2.4998 1.8748-4.9998 3.125-7.5 1.25-2.4998 2.2916-5.2081 3.125-8.125-1.6e-4 -1.25-0.41719-2.2916-1.25-3.125-2.5002 1.6e-4 -5.0002 3.1252-7.5 9.375l-5.625 16.875c-2.0834 7.5002-3.1252 16.25-3.125 26.25-1.6e-4 10.417 2.4998 21.875 7.5 34.375m165.62-86.25c-1.6669 1.6e-4 -2.5003 0.83281-2.5 2.5-3.1e-4 2.0834 0.625 3.3334 1.875 3.75h1.25c2.0831 1.6e-4 3.1247-0.83281 3.125-2.5-3.1e-4 -2.4998-1.25-3.7498-3.75-3.75m10 3.125c-1.6669 1.6e-4 -2.9169 1.0422-3.75 3.125v0.625c-3.1e-4 1.6669 1.0422 2.5002 3.125 2.5 2.0831 1.6e-4 3.1247-1.0422 3.125-3.125-3.1e-4 -2.0831-0.83438-3.1248-2.5-3.125m112.5 6.25c5.4162 1.6669 8.1245 4.7919 8.125 9.375l-0.625 2.5-5 18.125-1.875 6.25c1.6662-2.4998 2.9162-4.3748 3.75-5.625 7.9162-11.667 11.875-19.792 11.875-24.375-4.7e-4 -7.0831-3.1255-10.625-9.375-10.625-2.917 1.6e-4 -5.2088 1.4578-6.875 4.375m-73.125 2.5h-0.625l1.25 0.625 0.625-3.75-0.625-0.625-0.625 3.75m-205-2.5c-2.9167 7.0834-4.3752 12.5-4.375 16.25-1.6e-4 5.8334 2.0833 10.833 6.25 15 4.5833 4.1667 9.7916 6.2502 15.625 6.25 12.5 1.6e-4 18.75-5.6248 18.75-16.875-1.6e-4 -7.0833-3.7502-10.417-11.25-10h-5c-2.0834-0.83281-3.1252-1.6666-3.125-2.5v-2.5c-2.5002 2.0834-3.7502 3.9584-3.75 5.625-1.6e-4 4.1667 2.4998 6.2502 7.5 6.25l1.875-0.625c0.83281-0.41719 2.0831-0.625 3.75-0.625 2.0831 1.6e-4 3.1248 1.4578 3.125 4.375-1.6e-4 2.9167-2.9169 6.0417-8.75 9.375-2.0834 1.25-3.9584 1.8752-5.625 1.875-7.0834 1.6e-4 -11.458-2.4998-13.125-7.5l-2.5-6.25 1.25-11.875-0.625-6.25m156.88 0.625c-1.25 1.6e-4 -1.8753 1.25-1.875 3.75-3.1e-4 2.0834 1.0422 3.1252 3.125 3.125 2.4997 1.6e-4 3.7497-1.0422 3.75-3.125-3.1e-4 -2.4998-1.6669-3.7498-5-3.75m-11.25 2.5c-2.0836 0.83281-3.1253 2.5002-3.125 5-3.1e-4 3.3334 1.25 5.0002 3.75 5 3.7497 1.6e-4 5.6247-1.6666 5.625-5-3.1e-4 -3.3331-1.6669-4.9998-5-5h-1.25m16.875 11.875 1.875 1.875c1.6664-3.7498 3.7497-5.6248 6.25-5.625 5.8331 1.6e-4 11.041 8.5417 15.625 25.625l0.625 2.5v-3.125c0.41719-8.3333-1.25-15.625-5-21.875-3.3336-6.6666-7.2919-9.9998-11.875-10-5.0003 1.6e-4 -7.5003 3.5419-7.5 10.625m-37.5 4.375c1.25 6.6667 3.5414 12.292 6.875 16.875-1.6669-4.5833-2.5003-8.5416-2.5-11.875-3.1e-4 -5.4166 1.8747-8.1248 5.625-8.125 2.0831 1.6e-4 4.3747 1.8752 6.875 5.625 0.41719-1.25 0.625-2.0833 0.625-2.5 0.41562-0.83281 0.625-1.25 0.625-1.25-3.1e-4 -5.4166-3.1253-8.1248-9.375-8.125-4.1669 1.6e-4 -7.0836 3.1252-8.75 9.375m190.62-6.25v1.875h14.375c5.4162-0.41719 13.333 1.25 23.75 5l9.375 6.875c5.8328 9.5834 8.7495 16.667 8.75 21.25-4.7e-4 2.0834-0.20938 3.3334-0.625 3.75l-2.5 6.875-0.625 5h1.875c4.5828 0.83281 6.8745-3.7498 6.875-13.75-4.7e-4 -5.4166-0.20938-8.3333-0.625-8.75l-3.125-8.125c-2.5005-5.8333-8.5422-11.042-18.125-15.625-9.1672-4.5833-18.542-6.8748-28.125-6.875-2.0838 1.6e-4 -3.542 0.20781-4.375 0.625l-6.875 1.875m-268.12 24.375-1.875 6.25c-3.7502-4.9998-6.6669-7.4998-8.75-7.5-2.0834 1.6e-4 -3.9584 0.625-5.625 1.875l-1.875 1.875c-1.25 1.25-3.1252 3.3334-5.625 6.25-3.7502 3.7502-6.2502 5.6252-7.5 5.625-2.0834 1.6e-4 -4.3752-0.625-6.875-1.875l-2.5-7.5c-4.5834 2.0834-6.8752 4.3752-6.875 6.875-1.6e-4 5.4167 3.9583 8.9584 11.875 10.625-3.3334 3.3334-5.0002 5.8334-5 7.5-1.6e-4 0.83281 1.25 1.25 3.75 1.25h6.25c4.1666-0.41719 7.4998-3.125 10-8.125 0.83281-2.0833 2.2916-3.1248 4.375-3.125h1.25l-0.625 3.75-4.375 4.375-1.25 4.375-1.875 3.125v1.875c-1.6e-4 2.0834 0.20781 4.1667 0.625 6.25l0.625 6.25 5-0.625v5c-1.6e-4 2.5 0.41719 5 1.25 7.5 1.25 2.0834 3.3331 5.625 6.25 10.625 6.6666-3.75 9.9998-8.125 10-13.125-1.6e-4 -2.9166-0.20781-5-0.625-6.25l4.375 0.625 1.25 1.875h0.625l1.25 0.625c1.25 0 1.8748-0.83281 1.875-2.5v-1.25l-0.625-8.75-4.375-9.375v-1.25c-1.6e-4 -1.6666 0.625-2.5 1.875-2.5 1.6666 0 2.7081 0.20781 3.125 0.625l1.875 5.625-0.625 5.625c1.25 2.0834 1.8748 4.1667 1.875 6.25l-0.625 8.75-1.875 1.875c-1.6e-4 1.6667 2.0831 3.75 6.25 6.25l1.25-7.5 2.5 0.625c2.4998 5.4167 6.6666 8.125 12.5 8.125 9.5831 0 14.375-3.3333 14.375-10-1.6e-4 -1.25-0.41719-2.2916-1.25-3.125l-9.375-11.875-0.625-0.625v-1.25c-1.6e-4 -2.9166 1.8748-4.375 5.625-4.375l4.375 0.625 0.625 1.875c-0.83438-4.5833-3.5419-6.875-8.125-6.875-6.2502 0-9.3752 3.125-9.375 9.375-1.6e-4 3.3334 2.9164 7.5 8.75 12.5l1.875 1.25v3.125c-1.6e-4 2.5-1.4594 3.75-4.375 3.75-2.0836 0-5.0002-2.2916-8.75-6.875l-3.125-7.5-1.25-21.875c-1.6e-4 -8.3333-4.3752-12.917-13.125-13.75v-1.25c-1.6e-4 -7.4998 2.7081-13.958 8.125-19.375 5.8331-5.4166 12.916-8.1248 21.25-8.125 23.333 1.6e-4 38.541 13.75 45.625 41.25l3.75 1.875c-0.41719-14.583-5.2086-26.25-14.375-35-9.1669-8.7498-21.25-13.125-36.25-13.125-8.7502 1.6e-4 -15.417 1.6667-20 5l-12.5 10-4.375 7.5m184.38-20.625-1.25 1.875c-5.417 0.83281-10.209 3.3334-14.375 7.5l-1.875 6.875v12.5c-3.1e-4 5.4167-4.167 8.1252-12.5 8.125h-5c-2.0836 1.6e-4 -3.7503-0.20781-5-0.625l-6.25-6.875-6.875-18.125c-2.0836-4.9998-4.3753-7.4998-6.875-7.5-1.6669 1.6e-4 -2.9169 1.0422-3.75 3.125l-1.875 6.25-10.625-5-1.25-0.625c-6.6669 1.6e-4 -11.25 4.1667-13.75 12.5h1.25c5.8331 1.6e-4 11.041 2.2917 15.625 6.875l1.875 3.125c7.0831 19.583 15.416 29.375 25 29.375 0.83281 0 1.4578-0.20781 1.875-0.625l5.625-2.5h3.75l2.5 6.875 10.625 0.625 4.375 0.625-1.875-10.625c4.1664 1.25 7.9164 1.875 11.25 1.875 2.9164 0.41719 6.6664-1.6666 11.25-6.25l1.875-1.875c0.41563-0.83281 0.83281-1.4578 1.25-1.875l8.75-18.125c3.7497-7.4998 8.5412-11.25 14.375-11.25h1.25l9.375 3.75c1.6662 1.6e-4 2.4997-1.0422 2.5-3.125-3.1e-4 -8.3333-5.0003-12.5-15-12.5-7.5003 1.6e-4 -13.334 3.3334-17.5 10-0.41719 0.41719-1.0422 0.625-1.875 0.625l-1.875-1.875c0.41562-0.83281 0.625-2.7083 0.625-5.625-3.1e-4 -1.6666-1.8753-4.1666-5.625-7.5m-1.25 67.5v5l0.625 6.875c50-2.0833 92.708-25 128.12-68.75-4.5838-4.9998-11.25-8.1248-20-9.375-32.084 44.583-66.875 66.667-104.38 66.25h-4.375m-142.5-59.375 0.625 0.625 2.5 3.125 5.625 5.625c1.25 1.6667 2.9164 2.9167 5 3.75-2.5002-4.1666-5.6252-8.5416-9.375-13.125l-0.625-0.625-3.75-1.25v1.875m-3.75-1.25h-6.25c-5.0002 2.9167-8.1252 4.7917-9.375 5.625-1.25 0.83281-2.7084 2.2917-4.375 4.375l-3.125 7.5c15 16.25 36.666 30 65 41.25 14.583 5.4167 28.541 9.5834 41.875 12.5 13.75 2.5 26.875 3.5417 39.375 3.125h13.75l-0.625-11.875h-5.625c-51.25 0.41719-94.792-20.417-130.62-62.5m-93.125 5.625c-0.41719 0.83281-0.625 2.7084-0.625 5.625-1.6e-4 5.8334 2.0833 8.7502 6.25 8.75 2.0833 1.6e-4 3.3333-1.4578 3.75-4.375-5.4167-0.41719-8.5417-3.7498-9.375-10m369.38-0.625-5 6.875c-20.834 28.75-51.042 47.917-90.625 57.5l-18.75 5-6.25 0.625-7.5 1.25 1.25 2.5c-3.1e-4 0.41719 0.625 0.625 1.875 0.625h3.75c1.6662-0.41719 3.5412-0.83281 5.625-1.25 9.583-2.0833 17.083-3.5416 22.5-4.375 5.4162-1.25 8.5412-2.0833 9.375-2.5 10.416-5.4166 17.083-8.125 20-8.125l22.5-11.875c2.9162-1.6666 5.4162-3.125 7.5-4.375 2.4995-1.6666 4.583-3.5416 6.25-5.625l28.125-28.125c1.6662-1.6666 2.4995-3.1248 2.5-4.375-4.7e-4 -0.41719-1.0422-1.6666-3.125-3.75m-76.25 36.25 1.875-1.25c0.41562-13.75 3.958-20.625 10.625-20.625 2.4995 1.6e-4 4.9995 1.6667 7.5 5l1.25 1.875c2.083-3.3333 3.1245-6.2498 3.125-8.75-4.7e-4 -3.7498-2.7088-5.6248-8.125-5.625-8.7505 1.6e-4 -13.959 7.0834-15.625 21.25l-0.625 8.125m-31.875-2.5v-0.625c-0.83438-6.2498 1.0406-9.3748 5.625-9.375 4.583 1.6e-4 7.4997 1.25 8.75 3.75l6.25 12.5v-2.5c-3.1e-4 -14.583-5.0003-21.875-15-21.875-6.2503 1.6e-4 -9.3753 4.3752-9.375 13.125-3.1e-4 1.6667 1.25 3.3334 3.75 5m107.5-13.75c-1.6672 0.41719-2.5005 1.6667-2.5 3.75-4.7e-4 2.9167 1.4578 4.3752 4.375 4.375 2.4995 1.6e-4 3.7495-1.25 3.75-3.75-4.7e-4 -2.9166-1.6672-4.3748-5-4.375h-0.625m-8.75 6.25-1.875 1.875v1.25c-4.7e-4 2.0834 0.625 3.1252 1.875 3.125 2.0828 1.6e-4 3.1245-1.0422 3.125-3.125-4.7e-4 -2.0833-1.0422-3.1248-3.125-3.125m6.875 6.875c-2.0838 1.6e-4 -3.3338 0.83281-3.75 2.5v1.25c-4.7e-4 2.5 1.4578 3.75 4.375 3.75 2.9162 0 4.3745-1.25 4.375-3.75-4.7e-4 -2.4998-1.6672-3.7498-5-3.75m-110.62 62.5c-13.334-12.5-20-23.75-20-33.75-3.1e-4 -6.6666 2.9164-11.667 8.75-15 1.6662-1.25 3.1247-1.875 4.375-1.875l1.25 0.625 9.375 2.5-0.625-5.625c-0.83437-2.5-3.1253-3.75-6.875-3.75-13.334 0-20 7.9167-20 23.75-3.1e-4 10.833 3.958 19.583 11.875 26.25l5.625 5 2.5 2.5 3.75-0.625m123.12-54.375v0.625c-4.7e-4 2.9167 0.83281 4.375 2.5 4.375 2.9162 0 4.3745-1.4578 4.375-4.375-4.7e-4 -2.0833-1.4594-3.125-4.375-3.125l-0.625 0.625c-1.25 0.83281-1.8755 1.4578-1.875 1.875m-20 6.875c1.6662-1.6666 2.4995-3.5416 2.5-5.625-0.41719-0.41719-0.83437-0.625-1.25-0.625l-0.625-0.625-1.25-0.625c-2.5005 0-3.7505 1.0422-3.75 3.125-4.7e-4 1.6667 1.4578 3.125 4.375 4.375m-365-4.375 3.75 18.125 4.375 14.375c0.41719 1.6667 0.625 3.125 0.625 4.375 0.41719 0.83281 0.625 1.6667 0.625 2.5-1.6e-4 5.4167-4.3752 8.125-13.125 8.125 2.4998 3.3333 4.9998 5 7.5 5 7.0833 0 10.625-3.9583 10.625-11.875-1.6e-4 -2.9166-0.625-6.25-1.875-10l-8.75-20.625-1.875-5.625-1.875-4.375m376.88 0.625c-1.6672 0.41719-2.5005 1.25-2.5 2.5-4.7e-4 2.0834 1.0406 3.125 3.125 3.125 2.4995 0 3.7495-1.25 3.75-3.75l-0.625-0.625-3.75-1.25m-342.5 4.375-3.75-1.875c-2.0834 0-3.1252 1.0422-3.125 3.125-1.6e-4 2.0834 1.0422 3.125 3.125 3.125 2.9166 0 4.3748-1.0422 4.375-3.125l-0.625-1.25m285 18.75c2.4995-6.25 5.6245-9.375 9.375-9.375 4.1662 0 6.8745 1.875 8.125 5.625l4.375 11.25c1.25 4.1667 5.4162 6.25 12.5 6.25 7.4995 0 11.25-2.9166 11.25-8.75-4.7e-4 -2.0833-1.25-3.5416-3.75-4.375l-8.125-1.25c-4.167-0.41719-6.2505-2.7083-6.25-6.875-4.7e-4 -1.6666 1.25-4.1666 3.75-7.5l8.75-3.75h-3.75c-0.41719-0.41719-1.4594-0.625-3.125-0.625-5.8338 0-8.7505 4.1667-8.75 12.5-4.7e-4 5.4167 1.4578 8.3334 4.375 8.75 9.1662 1.6667 13.75 3.125 13.75 4.375-4.7e-4 2.9167-3.1255 4.375-9.375 4.375-3.7505 0-5.8338-0.625-6.25-1.875l-6.25-14.375c-2.0838-4.5833-5.8338-6.875-11.25-6.875-6.2505 0-9.3755 4.1667-9.375 12.5m-204.38-3.75c1.6664-4.1666 3.9581-6.25 6.875-6.25 2.9164 0 4.3748 2.0834 4.375 6.25-1.6e-4 7.0834-5.2086 13.125-15.625 18.125 12.916-5 19.375-11.667 19.375-20-1.6e-4 -6.25-3.3336-9.375-10-9.375-4.5836 0-6.8752 1.4578-6.875 4.375-1.6e-4 2.0834 0.625 4.375 1.875 6.875m288.12 12.5-0.625-1.875c-2.9172 1.6667-6.0422 2.5-9.375 2.5-1.6672 0-3.9588-0.83281-6.875-2.5-2.5005-2.0833-3.7505-4.7916-3.75-8.125-4.7e-4 -5.8333 3.9578-8.9583 11.875-9.375-0.41719-2.9166-2.5005-4.375-6.25-4.375-9.5838 0-14.375 5.2084-14.375 15.625-4.7e-4 9.1667 4.9995 13.75 15 13.75 3.7495 0 8.5412-1.875 14.375-5.625m-370.62-19.375-1.25 1.25c-1.6e-4 0.41719-0.20781 0.83281-0.625 1.25 0.41719 0.41719 0.625 0.83281 0.625 1.25l1.25 1.25h0.625c2.0833 0 3.1248-0.625 3.125-1.875-1.6e-4 -2.0833-1.0422-3.125-3.125-3.125h-0.625m205.62 19.375-1.25-5h-25l-18.75-2.5-24.375-5-16.875-3.75 0.625 1.875c-3.1e-4 0.41719 2.4997 1.4578 7.5 3.125l11.25 3.75c2.9164 0.83281 5.6247 1.4578 8.125 1.875 2.4997 0.41719 4.7914 0.83281 6.875 1.25 10.416 1.25 16.25 1.875 17.5 1.875 2.083 0.41719 3.5414 0.83281 4.375 1.25h7.5l15.625 1.25h6.875m-218.75-16.25c5.8333 8.3334 10.625 12.5 14.375 12.5 2.0833 0 4.3748-1.875 6.875-5.625-1.6669 0.41719-3.1252 0.83281-4.375 1.25h-2.5c-2.9167 0-7.7084-2.7083-14.375-8.125m90 26.25c4.1664 0.83281 6.2498 1.25 6.25 1.25 1.6664 0 3.3331-0.83281 5-2.5l10-6.875 6.25-6.875 3.125-3.125c1.25-0.41719 1.8748-1.4578 1.875-3.125-1.6e-4 -1.6666-1.0422-2.5-3.125-2.5h-1.25l-1.25 1.25-6.875 9.375c-2.5002 2.9167-9.1669 7.2917-20 13.125m198.12-20-5 1.25c16.25 18.75 37.291 28.125 63.125 28.125 16.25 0 31.666-5.4167 46.25-16.25l6.875-5 4.375-3.75 1.875-7.5-12.5 10.625-13.125 8.125-15 6.875c-5.4172 2.0833-11.667 3.125-18.75 3.125-22.917 0-42.292-8.5416-58.125-25.625m-177.5 16.25-12.5 6.25c-1.6e-4 1.25 0.83281 1.875 2.5 1.875 1.25 0 2.4998-0.625 3.75-1.875 1.6664-1.25 6.8748-4.1666 15.625-8.75 6.2497-2.5 12.291-3.75 18.125-3.75 4.1664 0 7.9164 1.875 11.25 5.625l0.625 1.875v0.625l-1.25 9.375 4.375-3.75c1.6664-1.25 2.4997-3.75 2.5-7.5-3.1e-4 -8.75-6.2503-13.125-18.75-13.125-6.6669 0-11.459 1.4578-14.375 4.375l-11.875 8.75m-63.75-8.75c-1.6e-4 1.6667 0.625 2.5 1.875 2.5 2.0831 0 3.1248-1.0422 3.125-3.125-1.6e-4 -1.6666-0.83281-2.5-2.5-2.5-1.25 0-2.0834 0.625-2.5 1.875v1.25m205.62 21.875c-1.25-2.9167-1.8753-5.625-1.875-8.125-3.1e-4 -5 2.9162-7.5 8.75-7.5 4.1662 0 14.166 3.75 30 11.25 7.9162 3.75 16.666 5.625 26.25 5.625 1.25 0 3.5412-0.625 6.875-1.875l-8.125-2.5-18.125-3.75-20.625-10.625c-5.0003-2.5-10-3.75-15-3.75-10.417 0-15.625 4.375-15.625 13.125-3.1e-4 3.75 2.4997 6.4583 7.5 8.125m-199.38-18.125c-0.83281 0-1.25 0.41719-1.25 1.25-1.6e-4 1.6667 0.625 2.5 1.875 2.5 1.6666 0 2.4998-0.83281 2.5-2.5-1.6e-4 -1.25-0.83281-1.875-2.5-1.875l-0.625 0.625m127.5 18.125c-0.41719-0.83281-0.625-2.9167-0.625-6.25-3.1e-4 -4.5833 2.708-6.875 8.125-6.875 4.1664 0 11.666 3.5417 22.5 10.625 0.83281 0.41719 1.6664 1.0422 2.5 1.875 1.25 0.83281 2.708 1.6667 4.375 2.5v-2.5l-4.375-3.75-11.875-7.5c-5.8336-3.75-11.459-5.625-16.875-5.625-6.2503 0-9.3753 3.125-9.375 9.375-3.1e-4 3.75 1.8747 6.4583 5.625 8.125m224.38 0c-5.0005-1.6667-7.5005-3.3333-7.5-5l1.25-11.875-3.75 5c-1.25 2.0834-1.8755 3.9583-1.875 5.625-4.7e-4 5 1.8745 7.5 5.625 7.5-4.7e-4 0 2.0828-0.41719 6.25-1.25m-360-16.875c-1.25 0-1.8752 0.625-1.875 1.875-1.6e-4 1.6667 0.83281 2.5 2.5 2.5h1.25l0.625-0.625v-0.625c-1.6e-4 -2.0833-0.83281-3.125-2.5-3.125m160.62 1.875 4.375 5 3.125 3.125c4.1664 5.4167 8.5414 8.125 13.125 8.125 3.7497 0 6.2497-0.20781 7.5-0.625-0.83437-0.83281-1.667-1.6667-2.5-2.5-0.41719-0.83281-0.83437-1.4578-1.25-1.875-5.8336-5-9.167-8.125-10-9.375-0.83437-1.6666-2.292-2.5-4.375-2.5h-0.625l-9.375 0.625m175-412.5 8.75 2.5 2.5 1.875 1.875 3.125-1.875 1.25c-2.9172-3.7495-6.6672-6.0412-11.25-6.875v-1.875m34.375 23.125 2.5 1.25h1.875c0.83281 4.7e-4 0.83281 0.41719 0 1.25-0.83437 0.83438-3.1255 2.5005-6.875 5l-1.875-0.625-1.25-1.875 3.125-0.625 2.5-4.375m-405 0.625 3.75-3.125c-1.6e-4 0.83438-0.20781 2.0838-0.625 3.75-0.41719 1.25-1.6667 1.8755-3.75 1.875h-0.625l1.25-2.5m-19.375-1.25 0.625 5.625h-3.75l-1.25-1.875 1.25-1.875 3.125-1.875m-1.875 9.375h1.25l-1.25 2.5h-1.25c-1.25 4.7e-4 -1.8752-0.41562-1.875-1.25-1.6e-4 -0.83281 0.41719-1.25 1.25-1.25h1.875m360-3.125c0.83281 2.5005 1.25 4.5838 1.25 6.25-3.3338 2.0838-5.0005 3.3338-5 3.75-4.7e-4 -2.083 0.625-3.5412 1.875-4.375l1.875-5.625m-7.5-1.25c1.25 0.83438 1.6662 2.5005 1.25 5-1.25 4.5838-1.8755 6.4588-1.875 5.625-4.7e-4 -0.41562-0.83438-0.41562-2.5 0l2.5-5 0.625-5.625m-248.75 18.125c2.0831 2.917 2.9164 5.8338 2.5 8.75 0.41719-0.41562 0.625-1.0406 0.625-1.875-1.6669 7.917-3.3336 12.292-5 13.125l1.875-20m236.88 2.5 1.25 1.25c-4.7e-4 0.83438-1.25 2.0838-3.75 3.75-1.667 4.7e-4 -2.7088-0.625-3.125-1.875l5.625-3.125m-162.5 2.5-8.125 7.5c-1.6669 0.83438-3.1253 2.0838-4.375 3.75-1.25 1.25-2.5003 2.7088-3.75 4.375l1.875-6.25 6.25-5.625 3.75-3.125 4.375-0.625m148.75 1.25 3.125-1.875v5l-3.125-0.625v-2.5m-6.25 1.25h0.625c1.25 4.7e-4 1.8745 0.625 1.875 1.875-4.7e-4 0.41719-0.41719 0.625-1.25 0.625h-1.875l0.625-2.5m-186.25 10.625-1.25-4.375-3.125 2.5 4.375 1.875m180-8.75 1.875 2.5-1.25 0.625-3.125-1.875 2.5-1.25m-183.75 11.25 1.25 3.75 3.125-0.625v-3.125h-4.375m1.875-9.375 0.625-5-2.5 1.875-1.875 2.5 3.75 0.625m-7.5 33.125-3.75-2.5c3.3331-3.333 5.2081-6.0412 5.625-8.125 0.41719-2.4997 0.625-3.7497 0.625-3.75l3.125-3.75-0.625 5c-0.41719 1.25-1.0422 2.917-1.875 5-0.83281 2.0838-1.8752 4.792-3.125 8.125m-20.625-13.125 3.125 3.125 5.625 1.25-5.625 1.25-3.125-5.625m37.5 6.875h1.875c-5.8336 1.25-7.5003 1.8753-5 1.875h-6.25l2.5-2.5 1.875 0.625h5m-7.5 5-6.25 1.875 8.75 1.25c-0.41719-0.41562 1.0422-0.83281 4.375-1.25 3.3331-0.83281 4.9997-1.4578 5-1.875-2.0836-0.41562-4.5836-0.41562-7.5 0h-4.375m161.88 5.625h13.125l-11.25 1.875-1.875-1.875m-298.75 1.25 1.875-8.125c-0.41719 0.83438-1.0422 1.8753-1.875 3.125-0.41719 0.83438-1.25 2.0838-2.5 3.75-1.6e-4 -0.41562-2.0834 0.20938-6.25 1.875 0.41719 3.1e-4 0.83281-0.20781 1.25-0.625h7.5m-1.25 6.875-5.625-3.75 6.25 1.25c-1.6e-4 -1.25 1.25-1.8747 3.75-1.875l-4.375 4.375m16.875 15 3.125-5.625c-2.0834 6.2503-3.9584 9.3753-5.625 9.375-1.6667 3.1e-4 -2.7084-1.4578-3.125-4.375l5.625 0.625m186.88 0.625c-0.83437 4.5836-1.8753 9.792-3.125 15.625-0.83437 5.8336-1.667 9.167-2.5 10l-4.375 6.875 0.625-2.5 1.875-8.75 3.75-12.5 3.75-8.75m45.625 13.75 3.75 2.5c-0.83437 1.667-2.292 2.7086-4.375 3.125-0.83437 3.1e-4 -1.4594-0.20781-1.875-0.625-3.1e-4 -1.25 0.41563-1.8747 1.25-1.875l1.25-3.125m-5 11.25 3.125-2.5c0.41563 0.41719 0.625 1.25 0.625 2.5-3.1e-4 1.25-0.625 1.8753-1.875 1.875-0.83437 3.1e-4 -1.4594-0.625-1.875-1.875m-68.125 1.875c1.6664 1.667 2.4997 3.9586 2.5 6.875-1.6669-2.4997-3.1253-3.958-4.375-4.375 3.7497 2.0836 5.6247 4.792 5.625 8.125-3.1e-4 6.2503-2.2919 9.3753-6.875 9.375-2.5003 3.1e-4 -3.7503-2.4997-3.75-7.5-3.1e-4 -2.9164 0.625-7.2914 1.875-13.125l0.625-1.875 4.375 2.5m70 3.125-0.625 2.5h-1.875c-1.25 3.1e-4 -1.8753-0.41719-1.875-1.25-3.1e-4 -0.83281 0.625-1.25 1.875-1.25h2.5m17.5 4.375c-0.41719 1.25-1.4594 2.7086-3.125 4.375-1.25 1.25-2.7088 2.5003-4.375 3.75-1.25 1.25-2.5003 2.2919-3.75 3.125-0.83437 0.41719-1.0422 0.625-0.625 0.625-1.25 3.1e-4 -1.8753-0.41562-1.875-1.25v-0.625l10-8.75 3.75-10v8.75m-21.875 1.875v5l-3.125 0.625-0.625-1.875 3.75-3.75m-5.625 9.375c0.83281 0.41719 1.4578 0.83281 1.875 1.25 0.41719 3.1e-4 0.625 3.1e-4 0.625 0-3.1e-4 1.25-0.625 2.7086-1.875 4.375l-2.5 4.375-3.125 6.25-5 5c-1.25-0.41562-1.8753-1.0406-1.875-1.875-3.1e-4 -0.83281 0.83281-1.4578 2.5-1.875l9.375-17.5m36.25 17.5 11.875-17.5c-0.83437 3.7503-2.0838 6.8753-3.75 9.375-1.25 2.0836-3.3338 4.5836-6.25 7.5l-1.875 0.625m6.25-21.25 5.625-3.75-7.5 10.625-3.125 6.875-8.125 8.125-3.125 0.625 2.5-3.125 6.25-6.25 7.5-13.125m-75.625 6.875 3.75 1.875 5.625 1.25 5.625 0.625-8.125 1.25c-2.5003-0.41719-4.792-2.0831-6.875-5m1.25 6.875 13.125 0.625-6.875 3.125c-5.8336-2.0831-7.917-3.3331-6.25-3.75m37.5 3.75 8.75 3.75c1.6662 0.41719 3.1247 0.83438 4.375 1.25 1.25 0.41719 2.4997 0.83281 3.75 1.25-6.2503 1.25-10.834 1.0422-13.75-0.625l-3.125-5.625m-89.375 6.25h5.625c0.41719 0.41719 2.4997 1.0422 6.25 1.875 3.7497 0.83438 5.6247 1.4578 5.625 1.875h-11.25c-0.41719 3.1e-4 -2.2919-0.41719-5.625-1.25l-0.625-2.5m88.75 2.5 13.125 2.5-10 1.875c-0.83437 3.1e-4 -1.8753-1.4578-3.125-4.375m-82.5 6.25-0.625 1.875c-8.7503-1.25-13.125-2.9164-13.125-5v-0.625l1.25-1.25c0.83281 0.83281 2.7081 1.8753 5.625 3.125 3.3331 1.25 5.6247 1.8753 6.875 1.875m-40-1.25v-3.125l3.75 2.5-3.75 0.625m2.5 5c-1.6e-4 3.1e-4 -1.6e-4 0.20938 0 0.625 0.41563 0.41719 1.0406 1.0422 1.875 1.875-1.6e-4 0.83438 0.625 0.20938 1.875-1.875l-1.875-1.875c-1.6e-4 -0.41719-1.6e-4 -0.625 0-0.625l-1.875 1.875m66.25 3.75c-5.0003 12.5-7.5003 19.167-7.5 20v-3.125l0.625-8.75 3.125-5 1.25-3.125h2.5m4.375 6.25-2.5 8.125-1.875 0.625 1.25-0.625h-1.875v-5l3.125-5.625 1.875 2.5m91.25 3.125 2.5 0.625c-0.41719 1.6669-1.0422 2.5002-1.875 2.5l-1.875-0.625-6.25 0.625-1.25-2.5 8.75-0.625m6.25 5.625v2.5l-5.625 1.875c-4.5838 1.25-7.292 1.6669-8.125 1.25l-1.25-0.625-0.625-3.75 6.25 1.25 6.25-1.25 3.125-1.25m-37.5 6.25-2.5 10.625-7.5 7.5 10-18.125m65 6.25 5.625-8.75-3.125 10.625c-4.5838 2.5002-7.5005 3.7502-8.75 3.75h-5.625l11.875-5.625m-204.38 3.125 13.75-0.625 0.625 5.625-13.75-3.125-0.625-1.875m213.12 2.5-9.375 5-5.625 0.625-6.875 1.875-3.125 0.625c-0.83437 1.6e-4 -1.4594-0.625-1.875-1.875 2.083-0.41719 3.5412-1.0406 4.375-1.875l15-3.125 10.625-6.25-3.125 5m-219.38 1.25 24.375 7.5c-7.5002-0.41719-15.417-2.2914-23.75-5.625l-0.625-1.875m178.75-1.25-21.875 8.75-5 4.375-1.875-1.25c3.7497-2.0831 6.458-3.9581 8.125-5.625 5.4162-4.1664 9.3747-6.0414 11.875-5.625l8.75-0.625m-23.75 23.75-0.625 3.75c-3.1e-4 1.25 1.0406 2.5002 3.125 3.75l3.125 1.25-7.5-1.875-0.625-6.875h2.5m-1.875 10.625-5-0.625-1.25-5.625 6.25 6.25m46.25-3.75 6.875-2.5c-0.83437 2.0834-1.4594 3.5419-1.875 4.375-0.41719 0.83281-0.625 1.25-0.625 1.25l-5.625-0.625c-4.7e-4 1.6e-4 -4.167 1.0422-12.5 3.125l-1.25-1.875 15-3.75m-133.12 3.75c0.83281 0.83281-0.83437 3.3334-5 7.5v-0.625l-1.25-1.25 3.125-3.125 0.625-3.125 1.875-0.625 0.625 1.25m-60.625 8.75 5.625-9.375c-0.41719 0.41719 3.1248 0.625 10.625 0.625 0.83281 1.6e-4 1.25 0.625 1.25 1.875-1.6e-4 0.41719-0.20937 0.83281-0.625 1.25h-5l-1.25 1.25-5 1.875-4.375 2.5h-1.25m65.625-3.125c-1.25 1.6669-2.2919 2.5002-3.125 2.5l0.625 2.5h0.625l3.75-3.125v-2.5l-1.875 0.625m3.75 4.375c-2.5003 0.83281-3.5419 1.25-3.125 1.25-3.1e-4 1.6e-4 -3.1e-4 0.20781 0 0.625-3.1e-4 1.6e-4 -0.20937 0.20781-0.625 0.625v0.625c-3.1e-4 0.83281 0.41719 1.25 1.25 1.25 3.3331 1.6e-4 4.9997-1.25 5-3.75-0.41719-0.41719-1.25-0.625-2.5-0.625m-0.625 7.5 5 3.125-0.625-5c-3.1e-4 0.83281-1.4578 1.4578-4.375 1.875m158.75 15.625c-2.0838 1.6669-4.3755 3.1252-6.875 4.375-2.0838 1.25-4.5838 2.7084-7.5 4.375l-3.75 0.625 11.875-8.125 4.375-1.875 1.875 0.625m-105.62 31.25c-1.667 3.3334-2.5003 5.0002-2.5 5l1.25 6.875-3.125-0.625v-6.875c-3.1e-4 0.41719 0.41719-1.0422 1.25-4.375l0.625-0.625 1.875-1.25 0.625 1.875m-183.75 20.625 1.875-3.125-3.75-1.875h-1.875l3.75 5m-3.125 1.25 1.875 3.75h-3.125l-1.25-2.5-1.25-3.75 0.625 0.625 3.125 1.875m140 12.5c-3.1e-4 0.41719 0.83281 1.6667 2.5 3.75 1.6664 1.6667 2.2914 2.5 1.875 2.5-2.5003-0.83281-4.1669-1.875-5-3.125-4.1669-4.1666-6.6669-7.4998-7.5-10l-2.5-6.25h2.5c0.83281 2.0834 2.4997 5.0002 5 8.75 2.4997 3.7502 3.5414 5.2084 3.125 4.375m-129.38-11.25c-0.41719 1.6667-0.83281 2.9167-1.25 3.75-1.6e-4 0.83281-1.6e-4 1.25 0 1.25-1.6669 5.4167-2.5002 9.375-2.5 11.875v0.625c-1.6e-4 3.3334-0.83281 5.2084-2.5 5.625-0.41719-0.41719-1.0422-2.0833-1.875-5 0.41719 0.41719 0.83281 0 1.25-1.25l2.5-9.375 2.5-8.125 1.875 0.625m131.25 2.5 3.125 3.75 0.625 5-6.25-7.5-1.25-3.125 3.75 1.875m251.25 0 3.75-3.125-2.5 6.875-1.25-3.75m-380 6.875-1.25-3.125c1.25-1.25 2.7081-1.8748 4.375-1.875 2.0831 1.6e-4 3.1248-0.83281 3.125-2.5-1.6e-4 4.5834-2.0834 7.0834-6.25 7.5m157.5-4.375c-3.1e-4 0.83281 0.20781 1.4578 0.625 1.875-2.0836 1.25-5.0003 1.8752-8.75 1.875-5.0003 1.6e-4 -7.5003-0.625-7.5-1.875l1.25-1.25 8.75 0.625 5.625-1.25m-155.62 8.125-1.25 1.875h-1.875c-0.83281 0-1.25-0.41719-1.25-1.25-1.6e-4 -2.4998 1.6666-3.7498 5-3.75 3.3331 1.6e-4 4.9998-0.41719 5-1.25-1.6e-4 3.75-0.625 5.625-1.875 5.625h-1.25c-0.41719-0.41719-1.25-0.83281-2.5-1.25m151.88 1.875 3.125-4.375-8.75 1.25 5.625 3.125m215.62 1.25 0.625 1.25c-4.5839 4.5834-9.5839 7.7084-15 9.375l-1.25-1.875c3.7495-0.83281 6.2495-1.875 7.5-3.125l6.25-6.25 1.875 0.625m-3.125 10c-3.7505 4.5834-6.2505 6.875-7.5 6.875-0.41719-0.41719-0.83437-0.83281-1.25-1.25-4.7e-4 -0.41719-0.20937-0.83281-0.625-1.25 1.6661 0 4.7911-2.2916 9.375-6.875v2.5m11.875 1.25-3.125 10-3.125 5.625-1.875 4.375-1.25 1.25c-1.25 0-1.8755-0.625-1.875-1.875-4.7e-4 0-4.7e-4 -0.20781 0-0.625 0.41563-0.83281 0.83281-1.875 1.25-3.125l8.125-12.5 1.875-3.125"
         fill="#8f0005"
         id="path13" />
    </g>
  </g>
</svg>
