<?xml version="1.0" encoding="UTF-8" standalone="no"?>
<svg
   xmlns:dc="http://purl.org/dc/elements/1.1/"
   xmlns:cc="http://creativecommons.org/ns#"
   xmlns:rdf="http://www.w3.org/1999/02/22-rdf-syntax-ns#"
   xmlns:svg="http://www.w3.org/2000/svg"
   xmlns="http://www.w3.org/2000/svg"
   xmlns:sodipodi="http://sodipodi.sourceforge.net/DTD/sodipodi-0.dtd"
   xmlns:inkscape="http://www.inkscape.org/namespaces/inkscape"
   version="1.1"
   viewBox="0 0 500 500"
   id="svg21"
   sodipodi:docname="william-morris-letter-y.svg"
   inkscape:version="1.0.2 (1.0.2+r75+1)">
  <metadata
     id="metadata25">
    <rdf:RDF>
      <cc:Work
         rdf:about="">
        <dc:format>image/svg+xml</dc:format>
        <dc:type
           rdf:resource="http://purl.org/dc/dcmitype/StillImage" />
      </cc:Work>
    </rdf:RDF>
  </metadata>
  <sodipodi:namedview
     pagecolor="#ffffff"
     bordercolor="#666666"
     borderopacity="1"
     objecttolerance="10"
     gridtolerance="10"
     guidetolerance="10"
     inkscape:pageopacity="0"
     inkscape:pageshadow="2"
     inkscape:window-width="1920"
     inkscape:window-height="1016"
     id="namedview23"
     showgrid="false"
     inkscape:zoom="1.686"
     inkscape:cx="255.33808"
     inkscape:cy="250"
     inkscape:window-x="0"
     inkscape:window-y="27"
     inkscape:window-maximized="1"
     inkscape:current-layer="svg21" />
  <defs
     id="defs7">
    <linearGradient
       id="linearGradient847"
       x1="500"
       x2="0"
       y1="500"
       y2="-4.2633e-14"
       gradientTransform="translate(1.6309e-6)"
       gradientUnits="userSpaceOnUse">
      <stop
         stop-color="#ff6700"
         offset="0"
         id="stop2" />
      <stop
         stop-color="#ffd700"
         offset="1"
         id="stop4" />
    </linearGradient>
  </defs>
  <path
     d="m 175.73,47.393 c -1.0485,0 -32.295,7.1289 -33.553,7.1289 -1.2582,0 -74.232,-4.1934 -74.232,-4.1934 0,0 -3.7759,1.6781 -4.1953,2.7266 -0.4194,1.0485 -5.8711,15.307 -5.8711,15.307 l 45.506,18.455 c 0,0 26.631,38.793 27.051,40.471 0.4194,1.6776 1.2578,8.1797 1.2578,8.1797 l 21.809,-11.324 15.309,-3.3555 c 0,0 12.707,-0.97244 15.938,-0.41992 3.2303,0.55253 -19.502,-41.73 -19.502,-41.73 l 18.871,-10.904 -1.0469,-16.146 c 0,0 -6.2913,-4.1934 -7.3398,-4.1934 z m 158.04,0.17383 c -1.208,-0.02437 -1.9965,0.04755 -2.2324,0.24414 -1.8873,1.5727 -9.8555,6.291 -9.8555,6.291 l 1.6777,7.6543 5.5566,6.9199 24.01,13.107 0.21094,5.4512 -29.674,38.586 -3.3242,8.373 8.9707,5.7832 11.936,5.041 4.5976,-0.22266 1.334,-2.8906 4.5234,-0.96485 51.963,-62.721 c 0,0 30.827,-5.4522 31.037,-6.291 0.21,-0.8388 5.8711,-7.9688 5.8711,-7.9688 0,0 0.31384,-5.3488 0.20898,-5.873 -0.10484,-0.52425 -0.41892,-3.2504 -1.5723,-3.9844 -1.1534,-0.73395 -10.695,-6.3945 -10.695,-6.3945 0,0 -50.642,4.9277 -54.102,4.9277 -3.0275,0 -31.985,-4.8978 -40.441,-5.0684 z m -150.69,80.975 c -0.2495,-0.006 -0.48411,-9.6e-4 -0.69726,0.0176 -1.7052,0.14828 -12.318,1.2461 -12.318,1.2461 l -16.672,3.7734 c 0,0 -8.1769,4.9276 -8.7012,5.5566 -0.5243,0.629 -1.9922,5.5586 -1.9922,5.5586 l 16.252,23.172 c 0,0 49.231,77.686 51.9,78.279 2.669,0.593 23.725,2.6686 25.504,3.2617 1.7794,0.59312 32.029,5.043 32.029,5.043 l 6.5234,2.0742 c 0,0 62.871,-93.118 64.65,-95.787 1.779,-2.669 5.0414,-9.7877 3.5586,-10.381 -1.4828,-0.5933 -11.861,-3.8555 -11.861,-3.8555 0,0 -1.3394,-1.2603 -3.1426,-2.8223 l -10.129,-5.1836 c 0,0 -0.22081,-1.053 -0.30078,-1.4356 -0.42948,0.0225 -0.76332,0.18621 -0.95899,0.54493 -1.7794,3.2622 -36.182,53.381 -36.182,53.381 l -20.758,29.062 c 0,0 -10.677,-9.7867 -12.16,-11.27 -1.483,-1.4833 -34.104,-43.891 -34.104,-43.891 l -19.574,-32.918 c 0,0 -5.5592,-2.668 -6.1523,-2.7422 -0.51898,-0.0648 -2.9684,-0.64195 -4.7148,-0.68554 z m 39.932,129.76 -0.59375,25.209 v 53.084 l -4.7441,74.141 c 0,0 -16.016,13.047 -17.795,13.047 -1.779,0 -18.979,6.8223 -18.979,6.8223 l -8.3047,7.7109 19.277,8.3027 46.855,-1.4824 c 0,0 52.49,2.9652 56.346,3.2617 3.8553,0.29656 13.939,-2.9648 13.939,-2.9648 l 6.5234,-12.752 -13.641,-6.8223 -26.988,-13.049 -5.3379,-25.207 1.1875,-94.602 1.1855,-24.912 c 0,0 -43.89,-8.6009 -48.932,-9.7871 z"
     fill="#f4eee6"
     id="path11" />
  <g
     id="g19">
    <g
       transform="translate(-146.86,-119.79)"
       id="g17">
      <path
         d="m146.86 619.79v-500h500v500h-500m7.5-7.5h485v-485h-485v485m7.5-7.5v-469.38h469.38v469.38h-469.38m88.125-460.62 3.75 5 0.6 2.5c0 1.25-1.04 2.5-3.12 3.75-1.67 1.25-3.12 1.87-4.38 1.87-1.67 0-2.5-0.8-2.5-2.5 0-2.5 2.29-4.17 6.87-5v-3.75h-5.63l-3.12 2.5h-1.88c-2.08 0-3.12 2.5-3.12 7.5 0 4.17 3.12 6.25 9.37 6.25 8.33 0 12.5-4.37 12.5-13.125 0-4.17-2.29-6.67-6.87-7.5l-3.75-0.6 1.25 3.12m67.5-1.25-9.37 2.5c-5 2.08-7.5 4.17-7.5 6.25 0 1.67 0.8 3.33 2.5 5l1.88 2.5c0.4 0.4 0.6 1.46 0.6 3.12 0 1.67-4.37 2.71-13.125 3.12l-15-7.5-4.37-5-3.12-2.5-6.25-3.12v6.25l4.37 2.5 10 8.13c4.17 4.17 10.416 6.25 18.75 6.25 9.58 0 14.166-2.5 13.75-7.5v-3.12h0.6c-2.08-3.33-3.12-5.21-3.12-5.62 0-4.17 3.54-6.25 10.625-6.25 2.5 0 5.63 0.6 9.37 1.87v1.25c4.58 0.4 8.13 1.46 10.625 3.12 2.08 1.67 3.96 3.12 5.63 4.38 1.67 0.8 3.12 1.67 4.37 2.5l6.25 5.62 1.88 3.12c1.25 3.33 2.71 5 4.37 5 1.67 0 2.5-0.8 2.5-2.5l-1.88-3.75-5-8.12c-0.8-0.8-1.88-1.87-3.12-3.12-1.25-1.25-2.92-2.29-5-3.12-0.8-1.25-1.46-2.08-1.88-2.5-0.4-0.4-1.46-0.8-3.12-1.25-1.67-0.8-3.54-1.67-5.62-2.5-1.67-0.8-3.96-1.87-6.88-3.12l-13.75-1.87m75 8.75 0.6 3.12c2.08 8.33 8.13 12.5 18.125 12.5 11.25 0 22.916-4.38 35-13.125 2.08-0.8 4.17-1.67 6.25-2.5 2.5-0.8 4.79-1.67 6.87-2.5l-1.25-1.25c-1.67 0.4-3.96 1.04-6.87 1.87-2.5 0.4-5.42 1.46-8.75 3.12l-7.5 1.88-16.25 5.62h-6.25c-7.5-0.8-10.834-3.54-10-8.12l1.25-8.75-3.12-0.6h-0.6c-3.75 0-6.25 2.92-7.5 8.75m-23.75-7.5-6.87 0.6-8.12 3.75c-0.4 0.4-0.6 1.46-0.6 3.12 0 1.25 0.6 1.87 1.88 1.87l5-3.12c2.5-0.8 3.96-1.25 4.37-1.25 2.5 0 6.04 1.25 10.625 3.75l1.25 1.25 3.12 5.62 1.87 3.12c1.67 5.42 2.5 10.417 2.5 15 0 6.67-1.46 12.084-4.37 16.25l-7.5 11.25v0.6c0 1.25 0.8 1.88 2.5 1.88h0.6c0.8-0.4 1.88-0.8 3.12-1.25l1.88-5 5.63-8.75c2.92-4.17 4.37-10.416 4.37-18.75 0-10.416-3.75-18.541-11.25-24.375l-10-5.62m199.38 43.125h-5.63 4.38-3.12c-4.58 0-10.625 1.88-18.125 5.63-4.58 3.33-8.54 6.46-11.875 9.37-3.33 2.92-5.83 5.42-7.5 7.5l-36.875 51.25-0.6 3.12 2.5-0.6 1.25-1.87 5-1.25 2.5-4.38 7.5-9.37 7.5-11.25 1.88-1.87c0.4-0.4 1.46-1.88 3.12-4.38 1.67-2.5 3.96-6.04 6.87-10.625 2.92-5.83 8.33-11.458 16.25-16.875 4.58-3.33 7.92-5.21 10-5.62l27.5-6.88 2.5-3.75 3.75-3.75v-1.25c0-1.25-0.6-3.54-1.87-6.88l3.12 1.25v0.6c-0.8 3.33 0 6.04 2.5 8.13l7.5 9.37 2.5 2.5 3.12 3.75 5 9.37 3.75 10.625 1.88 8.75c2.08 10.417 3.12 18.75 3.12 25 0 15-1.25 25.209-3.75 30.625l-3.12 7.5-1.88 5.62-1.87 3.12-1.88 4.38 4.37 5.62 0.6 4.38c1.67-0.8 2.71-2.71 3.12-5.62 0.8-0.8 2.08-3.54 3.75-8.13 1.25-1.67 2.5-6.67 3.75-15 2.5-12.916 3.75-25.833 3.75-38.75 0-34.583-13.75-61.666-41.25-81.25-2.5-1.67-5.21-3.12-8.13-4.37-2.92-1.67-6.04-3.12-9.37-4.38-0.8-0.8-2.5-1.46-5-1.87l-9.37-3.12-7.5-1.88-18.125-4.37c-2.92 0-5-0.2-6.25-0.6l-21.875-1.25-4.38 0.6h0.6l-2.5 1.25h-1.25l-5 0.6c-2.08 0.4-4.17 0.8-6.25 1.25-2.08 0.4-4.17 1.04-6.25 1.88h-3.75l-18.125 6.87c-3.75 1.67-7.08 3.33-10 5-2.5 1.67-7.08 5-13.75 10-4.58 3.33-6.87 5.42-6.87 6.25 0.4 0.4 0.8 1.04 1.25 1.87 0.4 0.4 1.04 1.04 1.88 1.87l3.12 1.25c0.8 0.4 1.46 0.8 1.87 1.25h0.6c0.8 0 1.87-1.25 3.12-3.75 4.17-7.5 13.333-13.541 27.5-18.125 14.583-5 30.625-7.5 48.125-7.5h18.12c0.4 0.8 2.29 1.46 5.62 1.87l-5.62 2.5h-1.25c-0.8-0.8-1.67 0-2.5 2.5l-3.12 3.75 6.25 3.12 4.38-6.25 11.875-2.5 1.25-1.87 4.37 0.6 16.25 4.37 10.625 5c5 1.67 7.08 3.75 6.25 6.25v1.87c0.4 0.8 0.6 1.46 0.6 1.88l0.6 0.6c-0.4 0.8-1.25 1.88-2.5 3.12l-2.5 3.12c-1.67 0.8-3.12 1.46-4.38 1.88-1.25 0.4-2.5 0.8-3.75 1.25m-5.63-13.75-31.875 2.5-14.375-0.6c-2.08-0.4-4.79-0.6-8.13-0.6-3.33-0.4-7.29-1.04-11.875-1.87-2.5-0.4-4.79-0.6-6.87-0.6-2.08-0.4-3.96-0.6-5.63-0.6-7.08 0-10.625 1.88-10.625 5.63 0 4.58 4.37 7.08 13.125 7.5 2.08 0.4 4.37 1.25 6.87 2.5 2.5 0.8 5.21 2.08 8.13 3.75l0.6 0.6c2.5 3.75 3.75 7.08 3.75 10-0.4 2.08-2.08 4.58-5 7.5l-5 6.25c-0.8 1.67-1.88 3.54-3.12 5.63-1.25 2.08-2.71 4.37-4.37 6.87-0.4 0.4-0.8 1.04-1.25 1.88-0.4 0.8-1.04 1.87-1.87 3.12l-2.5 3.12-3.75 3.75c-0.8 1.67-1.88 3.54-3.12 5.62-1.25 1.67-2.71 3.75-4.38 6.25l-2.5 2.5 3.75 2.5 3.12 1.25 5.62 3.75 5.63 0.6 19.375-28.125 1.25 0.6 2.5-5.62 5-6.88 6.87-10.625c3.33-5.83 9.79-11.666 19.375-17.5 5.42-4.17 10.416-6.46 15-6.88l8.75-1.25 7.5-1.88c4.58-0.8 6.87-3.12 6.87-6.87 0-3.33-1.46-5-4.38-5-2.5 0-4.37 0.2-5.62 0.6l-6.88 0.6m-87.5 9.37 5 5 14.375 5.62 5.62 2.5 1.88 3.12c0.4-0.4 0.6-1.25 0.6-2.5v-0.6c-1.67-5-5.42-7.92-11.25-8.75l-10-1.87-6.25-2.5m-290-35.625-1.88 0.6-2.5 4.38-1.25 0.6 3.12 2.5c1.25-4.17 3.96-6.25 8.12-6.25 5 0 8.96 2.71 11.875 8.12v1.87c0.4 1.25 0.6 3.75 0.6 7.5 0 0.8-1.04 4.79-3.12 11.875l-2.5 6.88-5 10c10.417-8.75 15.625-19.166 15.625-31.25 0-5-1.88-9.37-5.63-13.125-3.33-3.75-7.29-5.62-11.875-5.62-1.25 0-2.08 0.2-2.5 0.6l-3.12 1.25m406.88-3.75-5.63 1.25-3.75 4.38-0.6 5.62 1.25 3.12 1.25 1.87 3.75 4.38 1.87 1.87 8.75 7.5 0.6-1.88-0.6-3.12-2.5-2.5c-0.8-1.67-2.29-3.75-4.37-6.25-1.25-1.67-1.88-2.92-1.88-3.75 0-2.5 1.25-5.42 3.75-8.75l-1.87-3.75m-419.38 5 0.6 0.6c-2.08 0.8-3.12 1.87-3.12 3.12 0 2.5 0.8 3.75 2.5 3.75 1.67-0.8 2.71-1.46 3.12-1.87v-0.6c0-1.25-1.04-2.92-3.12-5m435.62 4.37h-1.88l-2.5 10-0.6 5.62c0 6.67 2.29 13.542 6.88 20.625 1.25-2.5 1.87-4.17 1.87-5 0-1.67-0.6-4.17-1.87-7.5-1.25-3.33-1.88-5.83-1.88-7.5 0-8.75 2.5-13.125 7.5-13.125 2.08 0 3.12 0.8 3.12 2.5 0-0.4-0.4 0.6-1.25 3.12l-3.12 5.62v2.5l-0.6 6.88c0 2.08 1.87 4.58 5.63 7.5-1.67-3.33-2.5-6.67-2.5-10 0 0 0.4-1.25 1.25-3.75l5-8.75c0.4-0.4 0.6-1.88 0.6-4.38 0-6.25-3.12-9.37-9.37-9.37-4.17 0-6.25 1.67-6.25 5m-423.75 10.625c1.25 1.67 2.29 2.5 3.12 2.5 2.92 0 4.38-1.46 4.38-4.37 0-3.75-1.67-5.63-5-5.63-1.25 0-2.08 2.5-2.5 7.5m-9.37-3.75-0.6 1.25-1.87 5c1.25 2.5 2.5 3.75 3.75 3.75l1.25-0.6c1.25 0 1.88-1.87 1.88-5.62v-3.12l-4.38-0.6m302.5 1.25 0.6-1.88c-0.4 0.4-1.25 0.6-2.5 0.6h-2.5c-3.33 0-7.71 1.88-13.125 5.62-5 3.75-7.5 7.29-7.5 10.625 0 6.25 2.08 9.37 6.25 9.37l5.63-1.25-3.12-9.37c-0.4-1.67 0.8-3.96 3.75-6.87l4.38-3.75c0.8-0.8 3.54-1.88 8.12-3.12m-134.38 28.75c2.92 8.75 6.46 13.125 10.625 13.125 1.67 0 2.71-0.8 3.12-2.5-7.92-7.92-11.875-15.625-11.875-23.125v-2.5l1.87-10c0-1.67-0.8-2.5-2.5-2.5-2.5 0-3.75 3.96-3.75 11.875 0 5.83 0.8 11.042 2.5 15.625m-52.5-13.125h3.12c-3.33 0.4-6.67 0.8-10 1.25h-16.87c-3.33-0.4-7.08-0.8-11.25-1.25l-12.5-1.25-3.75-1.87h-6.87l-15.625-1.25c-2.5 0-3.75 0.8-3.75 2.5 0 2.08 1.87 3.96 5.62 5.63l8.13 4.37 6.87 1.88c0.4 0 4.17 2.29 11.25 6.87l2.5 1.25 1.87 3.75 1.25 1.25 2.5 4.38 1.88 1.87 2.5 3.75 1.87 2.5 6.88 11.25c0.8 2.08 2.29 3.96 4.37 5.62l3.12 6.88 2.5 3.12 3.12 4.37 1.25 2.5 3.75 5.62c5-2.92 8.96-5 11.875-6.25 3.33-1.67 6.04-2.71 8.13-3.12 2.5-0.8 4.79-1.25 6.87-1.25 2.08-0.4 4.58-1.04 7.5-1.87l-5-10-6.87-9.37c-6.67-10.416-10-17.083-10-20 0-7.5 4.58-13.333 13.75-17.5l11.25-7.5v-0.6c0-2.08-1.67-3.12-5-3.12-2.92 0-6.25 0.6-10 1.87l-6.88 1.87-9.37 1.88m-46.25 18.125c-2.08-2.08-5-4.17-8.75-6.25-1.67-0.8-3.96-1.67-6.87-2.5-2.5-0.8-5.42-2.08-8.75-3.75l-6.25-3.75v0.6c0 4.17 2.08 7.08 6.25 8.75 10 5 16.875 7.5 20.625 7.5l3.75-0.6m106.88-9.37c0 2.92 0.6 4.38 1.87 4.38l1.25-0.6 11.875-6.88c0.8-0.8 5.21-1.87 13.125-3.12l0.6-4.38h-1.88c-2.92 0-5 0.2-6.25 0.6l-7.5 1.88-4.37 2.5-5 2.5-3.75 3.12m70 3.75 2.5 3.12 5 8.75-1.25 5.62-5 5c-0.8 0.8-1.25 1.46-1.25 1.87 0 0.8 0.6 1.25 1.88 1.25 3.75 0 6.87-1.88 9.37-5.63 0.8-3.33 1.25-5.42 1.25-6.25 0-6.67-4.17-12.916-12.5-18.75-8.33-5.83-16.042-8.75-23.125-8.75h-1.25c-2.08 0-3.12 0.6-3.12 1.88 0.4 0.4 0.6 1.04 0.6 1.87l13.75 2.5c1.67 0.8 6.04 3.33 13.125 7.5m-104.38-8.75c-11.25 5.83-16.875 11.875-16.875 18.125 0 2.92 0.2 5 0.6 6.25l0.6 1.87 2.5 4.38 4.37 6.25 3.12 6.25 4.37 6.88 5.63 8.75 7.5 0.6-3.75-7.5-5.62-6.88-1.88-5-11.25-19.375c0-3.33 2.5-7.29 7.5-11.875l3.75-1.88 5-1.25c3.75-0.4 5.62-2.92 5.62-7.5 0-5-1.25-7.5-3.75-7.5l-1.87 0.6 0.6 3.12c-0.8 2.08-2.92 3.96-6.25 5.63m43.75 20c-4.17 10.417-10 15.625-17.5 15.625-3.33 0-5-1.87-5-5.62 0-2.08 0.8-4.79 2.5-8.12 1.67-3.33 2.5-5.63 2.5-6.88 0-0.4-1.25-1.04-3.75-1.88-5.42 6.67-8.13 12.917-8.13 18.75 0 6.25 3.75 9.37 11.25 9.37 6.67 0 12.5-2.92 17.5-8.75 5.42-5.83 8.12-12.708 8.12-20.625 0-3.33-0.8-5-2.5-5-2.92 0-4.58 4.38-5 13.125m52.5-11.875-5 6.88-3.75 5.62-1.25 1.87-4.37 9.37-2.5 7.5-2.5 10c-0.4 2.92-0.8 5.83-1.25 8.75-0.4 2.92-0.8 6.04-1.25 9.37l-0.6 6.88 0.6 5.62v5l1.87 1.25c4.58-7.5 7.08-15.208 7.5-23.125 1.25-0.4 2.08-0.6 2.5-0.6 0.8-0.4 1.25-0.6 1.25-0.6 0.8 0 1.67 0.4 2.5 1.25v18.75l3.75 6.88 2.5 3.75 1.87 1.87c4.17 3.75 8.13 5.63 11.875 5.63l2.5-0.6h3.75l-1.25-9.37c3.33 1.67 6.87 2.5 10.625 2.5 6.67 0 10-3.75 10-11.25 0-6.25-3.96-11.875-11.875-16.875l0.6-0.6c-7.5-3.75-11.25-8.12-11.25-13.125 0-3.33 1.67-5.42 5-6.25l0.6-1.87c-0.8-0.4-2.5-0.6-5-0.6-1.67 0-3.54 1.67-5.63 5-2.08 5.42-3.12 8.75-3.12 10v2.5c0.4 1.25 0.8 2.92 1.25 5l1.25 1.25 0.6 1.25 4.38 3.75 14.375 5 3.12 4.38-1.87 1.87c-1.25 0.4-3.33 0.6-6.25 0.6-0.8 0-3.75-1.04-8.75-3.12-8.33-8.33-12.5-16.041-12.5-23.125l0.6-15v-6.25c0-2.5 0.8-5.83 2.5-10 1.67-4.17 2.5-7.08 2.5-8.75 0-1.25-2.5-3.75-7.5-7.5l-2.5-0.6m39.375 6.25c1.25 2.08 2.29 3.12 3.12 3.12 0.8 0 2.92-1.04 6.25-3.12 0-4.17-1.46-6.25-4.37-6.25-4.17 0-5.83 1.67-5 5v1.25m18.75 5.62c0.4 1.25 1.04 1.88 1.88 1.88 2.92 0 4.37-1.67 4.37-5 0-5-2.71-7.5-8.12-7.5-2.08 0-3.12 1.04-3.12 3.12 0 1.67 1.67 4.17 5 7.5m139.38-9.37 6.87 15 1.88-0.6-5.63-15-2.5-1.25-0.6 1.87m-434.38 5.62-0.6 3.75 2.5 1.25 1.25 3.75-0.6 4.37 0.6 1.88-1.25 0.6 0.6 3.75c0.8 3.33 1.67 5 2.5 5 1.25 0 2.92-0.6 5-1.88v2.47c-0.4 1.25-0.6 3.75-0.6 7.5s1.87 10 5.63 18.75c4.17 8.75 7.71 13.125 10.625 13.125 1.25 0 1.88-0.6 1.88-1.88v-0.6l-8.13-8.13-3.12-5.62-3.12-9.37v-5l-0.6-6.25c0-2.92 1.04-4.38 3.12-4.38 0.8 0 1.87 0.6 3.12 1.87l3.12-3.12 5.63-10.625c1.25-2.5 2.29-3.96 3.12-4.38 1.25-0.8 1.87-1.46 1.87-1.87 0-1.25-0.4-1.88-1.25-1.88 0.4 0-0.6 0.4-3.12 1.25l-4.38 2.5-3.12 5-1.87 1.87-1.88 3.12c-0.8 0.8-1.46 1.25-1.87 1.25-1.25 0-1.88-1.04-1.88-3.12 0-3.75-2.71-8.33-8.13-13.75l-1.25-0.6-3.75-0.6m283.75 12.5h3.75c2.92 0 4.37-1.46 4.37-4.37 0-3.75-2.08-5.62-6.25-5.62-2.92 0-4.37 0.8-4.37 2.5 0 2.08 0.8 4.58 2.5 7.5m-12.5-10c-2.08 0-3.75 1.67-5 5v1.87c0 2.08 1.04 3.12 3.12 3.12 0.8 0 2.29-0.4 4.37-1.25 2.5-1.25 3.75-2.71 3.75-4.38 0-2.92-2.08-4.37-6.25-4.37m101.25 3.75c-3.33 2.92-5.42 6.04-6.25 9.37l-1.25 2.5v5.62l-3.12 6.25c-0.4 0.4-0.6 1.67-0.6 3.75 0 1.67 1.04 5.21 3.12 10.625 0.4 2.5 1.67 4.17 3.75 5l14.375 7.5-1.87-5-3.12-6.88c-2.5-4.17-3.75-8.54-3.75-13.125 0-13.333 3.12-21.25 9.37-23.75 2.08-0.8 3.12-1.46 3.12-1.88 0-1.67-1.04-2.5-3.12-2.5 0 0-1.67 0.4-5 1.25l-5.63 1.25m-75 3.12-2.5 3.12-2.5 2.5c0 2.08 1.25 3.12 3.75 3.12 3.33 0 5-1.67 5-5 0-2.92-1.04-4.37-3.12-4.37l-0.6 0.6m-105.62 3.12c-0.8 3.33-1.25 4.79-1.25 4.38 0 1.25 0.8 2.5 2.5 3.75 1.67 0.8 3.75 1.67 6.25 2.5 2.5 0.8 5 1.67 7.5 2.5 2.5 0.4 4.37 0.6 5.63 0.6h0.6c1.67-0.4 2.92-1.46 3.75-3.12v-1.87c-3.33-0.4-6.25-0.8-8.75-1.25-2.5-0.4-4.37-0.8-5.62-1.25-0.8-0.4-2.08-1.04-3.75-1.87-1.67-0.8-3.96-2.29-6.87-4.38m86.25 0-1.88 1.25c-5.42 5.42-8.12 10.625-8.12 15.625 0 13.334 7.29 23.75 21.875 31.25v-1.87c0-0.4-1.04-1.67-3.12-3.75-9.58-7.08-14.375-14.791-14.375-23.125 0-5.42 2.92-11.666 8.75-18.75l-3.12-0.6m121.88-0.6 5.63 0.6h-9.37l-5 2.5-1.88 1.87-3.75 2.5c-3.75 7.08-5.63 11.25-5.63 12.5 0 2.08 1.25 3.12 3.75 3.12 1.67 0 4.17-1.25 7.5-3.75-0.4 0.4-0.6 1.25-0.6 2.5 0 0.8-0.2 1.46-0.6 1.87l-2.5 5.62-0.6 1.88c0 1.67 0.6 3.96 1.87 6.87l1.88 3.12c4.17 4.17 7.92 6.25 11.25 6.25 7.08 0 11.666-2.92 13.75-8.75-0.8 0.4-2.92 0.6-6.25 0.6-6.25 0-9.37-3.12-9.37-9.37 0-7.08 3.75-10.625 11.25-10.625h5.63l2.5 1.88 6.87 7.5c5 12.084 7.5 22.917 7.5 32.5 0 6.25-0.6 13.125-1.88 20.625 1.67 0 2.71-2.08 3.12-6.25 0.4-2.08 1.25-5.83 2.5-11.25s1.87-10 1.87-13.75c0-0.8-0.4-3.33-1.25-7.5l-2.5-11.875-1.87-8.13-2.5-5.62c-1.25-1.67-2.71-3.33-4.38-5-1.25-1.67-2.92-3.54-5-5.63-2.08-1.25-5-2.71-8.75-4.37-3.33-2.08-6.25-2.92-8.75-2.5h-4.37m-116.25 6.25c-1.67 1.67-2.5 3.54-2.5 5.62 0 3.75 1.87 5.62 5.63 5.62 3.33 0 5-1.67 5-5 0-3.75-0.8-5.83-2.5-6.25h-5.62m-232.5 16.25v11.25l-5.63-3.12c-2.92 0.8-4.58 1.46-5 1.87 0 1.25 0.4 3.33 1.25 6.25 1.25 2.5 1.88 4.17 1.88 5l1.87 3.12c3.75 5 8.96 8.96 15.625 11.875 2.08 0.8 3.75 1.67 5 2.5 1.25 0.4 3.75 1.87 7.5 4.38l3.75 1.87 5.62 5 3.75 4.38 5 6.88-2.5 0.6c0.8-0.8 1.25-1.46 1.25-1.88l-1.25-1.25c0-0.4-0.2-0.8-0.6-1.25l1.25 2.5-3.75-3.12-7.49-7.49-2.5-1.88-1.25-1.87-4.38 1.25v1.88c0 2.08-1.25 3.33-3.75 3.75l-0.6-1.25-3.12-3.75-1.25-0.6c-2.5-1.25-5.63-2.5-9.37-3.75-2.08-1.25-3.33-1.88-3.75-1.88-1.67 0-3.33 0.6-5 1.88l3.12 4.37 1.87 11.25 4.38 5-2.5 1.87h-4.37v2.5c0 0.8 1.04 2.29 3.12 4.37v1.88h1.87l0.6 3.12 5 2.5 1.88 1.87c0.4 1.25 2.71 1.88 6.87 1.88 2.92 0 4.37 1.46 4.37 4.37l-6.87 1.25 1.25-1.88c-0.8-0.4-1.67-0.8-2.5-1.25-0.4-0.4-1.04-0.8-1.88-1.25h-2.5l-3.75-3.75c-1.67-1.67-3.33-3.12-5-4.37-1.25-1.67-2.29-3.33-3.12-5l-2.5-6.87c-0.8-1.67-3.96-5.42-9.37-11.25l-1.88-1.25-6.87-3.75-1.88-0.6-4.37-0.6c-2.92 0-5.63 1.46-8.13 4.38 3.33 0.8 5 1.87 5 3.12s-2.08 2.08-6.25 2.5c-2.08 0.8-3.96 2.08-5.63 3.75l-2.5 3.12c-2.92 2.92-4.37 7.5-4.37 13.75v3.75c2.92 12.084 8.54 18.334 16.875 18.75l10.625 0.6 5 2.5 0.6 1.25c-0.4 0.4-0.6 1.67-0.6 3.75 0 1.25 0.8 1.87 2.5 1.87 3.33 0 5-1.67 5-5 0-5.83-2.08-8.75-6.25-8.75l-13.125 1.25-4.37-1.25c-7.08-3.33-10.625-8.75-10.625-16.25 0-11.25 5.42-16.875 16.25-16.875 3.75 0 8.33 2.08 13.75 6.25l3.75 5 7.5 13.125 2.5 1.88c0.4 0.8 1.04 2.08 1.87 3.75 2.92 6.67 11.458 10 25.625 10 8.75 0 16.041-2.92 21.875-8.75 5.83-5.83 8.75-13.333 8.75-22.5 0-7.5-2.29-14.791-6.87-21.875-1.25-1.67-2.71-3.33-4.37-5-1.67-2.08-3.54-4.58-5.63-7.5-0.8-0.8-1.67-1.46-2.5-1.87l-2.5-2.5-1.87-3.75-6.88-6.88c-0.4-0.8-1.04-1.67-1.87-2.5-5.42-5.42-8.13-11.25-8.13-17.5 0-7.92 2.08-11.875 6.25-11.875 2.08 0 3.33 0.2 3.75 0.6l-0.6 11.875v5.62l1.25 1.25c2.08 3.33 4.17 5 6.25 5 5.83 0 8.75-3.12 8.75-9.37-3.33 0.8-5.42 1.25-6.25 1.25-2.5 0-4.17-1.67-5-5l-0.6-9.37c-0.8-3.75-5.21-5.63-13.125-5.63-2.92 0-5.42 1.04-7.5 3.12l-2.5 3.12-2.5 2.5-0.6 3.75m128.12 10v19.37c0 0.8 1.67 6.25 5 16.25l3.75 4.37 2.5 1.88 4.37-1.25-8.75-14.375-1.87-8.75c-0.4-1.25-0.6-2.92-0.6-5v-1.25c1.25-4.58 1.67-7.71 1.25-9.37l-0.6-1.88 8.12-20c0-2.08-1.04-3.12-3.12-3.12-2.5 0-5.83 7.71-10 23.125m-158.12 2.5 1.87 5c2.08 2.08 3.33 3.12 3.75 3.12h1.25c-2.92-5.83-4.38-10.833-4.38-15 0-6.67 2.08-9.79 6.25-9.37 2.92 0 5.21 0.8 6.88 2.5 1.25-1.25 1.87-2.08 1.87-2.5 0-4.58-2.92-6.88-8.75-6.88-2.92 0-5.42 1.87-7.5 5.62-2.08 3.33-3.12 6.67-3.12 10 0 2.08 0.6 4.58 1.88 7.5m338.12-25-3.75 3.75c-0.8 1.67-1.46 3.33-1.88 5-0.4 1.67-0.8 3.33-1.25 5l1.25 6.25 3.12 2.5 0.6 1.25 7.5 8.12c2.08 3.33 3.12 5 3.12 5 0 0.8-2.29 1.67-6.88 2.5l-1.25-1.25c-4.58-5-8.13-7.5-10.625-7.5-0.4 0-2.71 0.4-6.88 1.25l5 10-4.37 0.6-1.88-2.5c-2.08-1.25-3.96-1.88-5.63-1.88-2.5 0-5.21 0.6-8.12 1.88l-4.38 3.12-5 0.6c2.08 10.834 6.67 16.667 13.75 17.5l0.6 1.25h0.6l-5.62 1.88-0.6 1.87 1.88 1.25c3.75 3.75 6.87 5.62 9.37 5.62l1.88-0.6c2.5-0.4 4.37-0.6 5.62-0.6 1.25-0.4 2.08-0.6 2.5-0.6 1.67 0 4.17 0.6 7.5 1.87v-1.87l3.75 0.6 0.6 1.25 0.6 3.12 3.75-0.6-1.25 0.6 0.6 4.38c0 1.25-0.8 1.87-2.5 1.87 0.4 0-0.6-0.4-3.12-1.25l-5 1.2v-2.5c2.92-0.4 4.37-1.46 4.37-3.12l-0.6-3.12-1.25 0.6c-0.8 2.5-2.08 3.75-3.75 3.75h-0.6c-1.25 0.4-3.33 0.6-6.25 0.6-0.8 0-4.37-1.04-10.625-3.12h-1.25c-0.4-0.4-1.25-0.8-2.5-1.25l-6.25-4.38-7.5-1.87h-1.25c-5.42 0-8.33 2.08-8.75 6.25l0.6 0.6 3.75 5-1.87-1.88-4.38 1.88-3.75 1.25c-1.25 0-2.92 1.67-5 5-2.08 2.92-3.12 5.21-3.12 6.88v0.6c0 1.67 0.2 2.92 0.6 3.75l0.6 3.75 3.12 3.12c2.92-7.92 8.75-11.875 17.5-11.875h1.25c2.92 0.4 7.08 0.8 12.5 1.25 5.83 0.4 12.916 1.04 21.25 1.88 1.25 0.4 3.54 0.6 6.87 0.6 10 0 15-3.75 15-11.25 0-0.4-0.2-1.25-0.6-2.5 0-1.25-0.2-2.92-0.6-5h0.6c2.5 0 4.58 0.8 6.25 2.5 2.5 3.33 3.75 5.62 3.75 6.88 0 0-0.4 2.08-1.25 6.25l-1.25 1.87c-2.5 2.92-5 5.83-7.5 8.75-2.08 2.5-5.42 4.58-10 6.25l-0.6-0.6c-0.8 2.08-2.92 3.75-6.25 5l-6.87 1.87-11.25 1.88-9.37 2.5-2.5 0.6c-12.917 0.8-25-1.46-36.25-6.88-0.8 0-3.33-1.46-7.5-4.38l-1.25 1.25c-0.4 0-0.8 0.2-1.25 0.6v2.5l5 1.87 13.125 5 10 1.25c3.75 0.8 7.08 1.46 10 1.88 3.33 0 6.25 0.2 8.75 0.6h0.6c1.25 0 5.42-0.6 12.5-1.87l11.25-2.5 18.75-9.37 3.75-0.6 3.12-3.75 5-4.37c5-3.75 7.5-11.041 7.5-21.875 0-2.5-0.4-5-1.25-7.5l-4.37-7.5 5-2.5c2.92-1.25 4.37-4.79 4.37-10.625 0-7.08-4.37-13.125-13.125-18.125l-3.12-1.25c-10.417-5.42-15.625-12.708-15.625-21.875 0-2.08 1.25-5.42 3.75-10l-3.75-1.25m-235.62 27.5-3.75 1.87-3.12 1.25c-5 2.92-8.75 6.87-11.25 11.875-2.08 4.58-3.12 8.96-3.12 13.125l0.6 8.12 1.25 3.12 1.25 1.25 0.6 1.87 1.87 1.25c6.67 9.17 15.416 13.75 26.25 13.75 2.08 0 3.12-0.8 3.12-2.5 0-1.67-0.8-2.71-2.5-3.12l-9.37-1.87-5-2.5c-7.5-5.42-11.25-11.458-11.25-18.125 0-18.333 12.708-27.5 38.125-27.5 7.08 0 14.166 1.25 21.25 3.75 1.67 0.4 3.75 1.04 6.25 1.87v-1.87c0.4-6.67-9.37-10-29.375-10-7.5 0-14.792 1.46-21.875 4.38m-121.88 0.6c-3.33 0.8-5.21 2.92-5.62 6.25l-0.6 3.75c0 2.08 1.67 4.17 5 6.25-0.8-3.33-1.25-5.21-1.25-5.62 0-3.33 1.87-5 5.62-5 2.5 0 4.17 0.6 5 1.87l2.5 3.12 6.25 3.75-2.5-4.38-2.5-2.5-4.37-5-7.5-2.5m148.12 3.12-17.5 2.5-7.5 2.5h1.87l-3.12 1.87c-5.42 1.67-8.12 3.54-8.12 5.62 0.4 0.8 1.04 2.08 1.87 3.75l6.25 8.13 5 8.12 1.25 2.5 10.625 15 8.12 12.5 10 15 1.25 2.5 2.5 3.75 3.12 4.37 2.5 3.12 1.87 3.12 2.5 3.75 1.25 1.25 4.38 8.12c0.8 1.67 1.87 3.12 3.12 4.38 1.25 1.25 2.29 2.71 3.12 4.37l17.5 0.6 11.875 1.87 11.875 1.25 7.5 1.87 0.6-0.6c0-0.4 0.2-0.8 0.6-1.25l70-101.25-2.5-1.25-8.12-3.75c-2.08-2.08-3.33-3.12-3.75-3.12l-1.25 1.25c-0.4 0.4-0.8 1.04-1.25 1.87l-3.12 5-15 21.25-1.25 0.6-9.37 13.75-5.63 7.5-3.12 5.62c-0.8 1.25-1.88 2.92-3.12 5-1.25 1.67-2.92 3.54-5 5.62l-3.75 5.63-2.5 2.5-6.25 7.5-1.87 4.38-4.38 7.5-2.5-1.25-10-14.375-1.87-2.5-58.75-87.5m3.75 3.12 8.13 10.625 5.62 8.75 1.25 1.88 3.75 6.25 11.25 15.625 5 6.87 1.25 3.75 0.6 1.25 2.5 3.12 6.25 9.37 1.87 2.5 5 6.88 1.25 3.12 4.38 6.25 10 13.75c2.08-2.08 3.12-4.17 3.12-6.25 0-1.25-0.2-2.08-0.6-2.5l-40-57.5-18.75-30-3.75-5c-2.08-1.25-3.33-1.88-3.75-1.88-0.8 0-1.46 0.2-1.87 0.6l-2.5 2.5m33.75 3.75c0 1.67 1.67 3.54 5 5.62 3.75 2.08 6.04 3.54 6.88 4.38l3.12 5c4.17 5.42 6.25 10 6.25 13.75 0 2.08-3.75 4.38-11.25 6.88 3.33 2.08 5.42 3.12 6.25 3.12 6.67 0 10-3.54 10-10.625 0-6.25-3.96-13.333-11.875-21.25-2.5-2.92-4.58-5-6.25-6.25l-2.5-2.5-5.63-2.5v4.37m-152.5-3.12c-1.67 0.4-2.5 2.08-2.5 5 0 0.4 0.4 0.6 1.25 0.6 3.33 0 5-1.04 5-3.12 0-1.67-0.8-2.5-2.5-2.5h-1.25m189.38 5.62-1.88 3.75c-5.42 7.92-8.13 11.667-8.13 11.25v1.87l1.88 1.87 3.75-3.75 5-7.5 1.87-4.38-1.25-5-1.25 1.87m66.875-0.6c2.92 2.08 5.42 3.75 7.5 5 2.08 0.8 3.54 1.46 4.38 1.87l11.25 3.12-1.25-2.5-12.5-3.75-8.75-5.62-0.6 1.88m-248.12 3.12-1.25 3.12 5-0.6-3.75-2.5m-13.125 2.5c-0.8 0.8-1.25 1.46-1.25 1.87 0 2.92 1.88 4.38 5.63 4.38 1.67 0 2.5-0.8 2.5-2.5 0-2.92-1.88-4.38-5.63-4.38l-1.25 0.6m-6.87 5.62c-0.4 0.4-0.6 0.8-0.6 1.25 1.25 1.25 2.5 2.08 3.75 2.5v-4.38l-3.12-1.87v2.5m367.5 36.875 1.87 0.6c0.4-1.25 0.6-2.5 0.6-3.75 0-1.67 0.2-2.71 0.6-3.12 3.33-18.333 8.54-27.5 15.625-27.5l11.25 3.12-1.87-5.62c-1.25-2.5-3.12-3.75-5.63-3.75-2.5 0-4.58 0.6-6.25 1.87-8.75 4.58-13.334 11.459-13.75 20.625l-0.6 11.25-1.87 6.25m-166.88-32.5-3.12 5-3.75 3.12 0.6 6.25c0.4 0.4 0.6 1.25 0.6 2.5s0.2 2.29 0.6 3.12v10c0.4 6.67-0.6 12.917-3.12 18.75 5-0.4 8.33-2.08 10-5 2.08-3.33 3.75-10 5-20l1.87-0.6c2.08 3.33 3.33 5 3.75 5 2.5 0 3.75-3.12 3.75-9.37 0-2.92-1.25-6.67-3.75-11.25l-1.87-3.75-6.87-8.12-3.75 4.38m83.75-3.75-1.25 0.6-8.75 13.125-30.625 43.75c-2.08 2.08-4.37 4.79-6.87 8.13-2.08 2.92-4.37 6.04-6.87 9.37l-1.88 4.37-8.12 10.625-6.88 11.25 5 1.88 50.625-70.625 4.38-8.12 4.37-4.38 2.5-4.37 6.87-8.13 3.12-6.87-5.63-0.6m-270.62 5.62c-0.4 0-0.8 0.6-1.25 1.87l-0.6 0.6c0 2.92 1.67 4.38 5 4.38 1.25 0 1.87-0.8 1.87-2.5 0-2.92-1.67-4.38-5-4.38m153.75 11.875 0.6 3.12c8.33-4.58 12.5-7.08 12.5-7.5 0-0.4-0.6-0.6-1.88-0.6h-1.87l-9.37 5m53.125-4.37-1.88 1.25c5 7.5 9.58 11.25 13.75 11.25 2.08 0 3.75-1.88 5-5.63-1.25 0.4-3.33 0.6-6.25 0.6s-6.46-2.5-10.625-7.5m0 10.625v1.88c0 1.25 1.04 2.5 3.12 3.75l3.12 5c2.08-0.8 3.12-1.46 3.12-1.88v-0.6l-5.63-5-1.25-2.5-2.5-0.6m155.62 3.75 7.5 5.62c2.5 4.58 3.75 8.75 3.75 12.5 0 4.58-1.46 8.96-4.37 13.125l-6.25 10.625c-2.5 0-3.96 1.25-4.38 3.75l-4.37 5.63-2.5 3.12-1.87 1.87-5 4.38-6.87 3.12c0.4 1.25 0.6 3.12 0.6 5.62 0 1.67-0.6 3.33-1.88 5-1.25 0.8-1.87 1.46-1.87 1.88 0 0.4 0.4 0.6 1.25 0.6h2.5c1.25-0.4 2.92-0.8 5-1.25l6.25-0.6c10.416-0.8 17.916-4.38 22.5-10.625 5-6.25 8.12-9.37 9.37-9.37l8.75-13.125 6.87-6.88c5.42-0.4 8.12-2.08 8.12-5 0-1.25-1.87-1.87-5.62-1.87-2.92 0-4.79 0.2-5.63 0.6l-3.75 3.12-3.75 5.62-1.87 3.75c-2.92 4.17-6.87 8.12-11.875 11.875l-0.6 1.87h-2.5l0.6 1.25-4.37 2.5-0.6 1.25-6.25 2.5v-1.87c8.33-4.58 13.333-8.54 15-11.875 2.08-3.75 3.54-5.62 4.38-5.62l2.5-1.25c1.67-0.4 4.17-4.58 7.5-12.5l3.75-7.5c0.8-2.5 1.25-3.75 1.25-3.75 0-4.58-1.67-6.88-5-6.88-2.08 0-3.54 0.2-4.37 0.6-0.4-3.75-2.08-8.12-5-13.125-2.08-1.25-6.04-1.87-11.875-1.87l-5 3.12m-157.5 3.75c-1.67 1.67-2.5 3.33-2.5 5s0.6 2.71 1.88 3.12l4.37 3.12h1.85c1.67-0.4 2.5-1.46 2.5-3.12 0-1.67-2.71-4.37-8.13-8.12m-5.63 8.75 1.25 9.37c-1.67 4.17-4.79 6.88-9.37 8.12 1.67 1.25 3.54 1.88 5.63 1.88 4.58 0 6.87-3.75 6.87-11.25 0-2.5-1.46-5.21-4.38-8.12m-123.75 5.62-0.6-1.87c-0.8-0.8-1.46-1.25-1.88-1.25-2.08 0-3.12 0.8-3.12 2.5 0 2.5 1.04 3.75 3.12 3.75l2.5-0.6v-2.5m211.25 1.25c-0.8 4.58-2.71 8.12-5.62 10.625-7.08 2.08-11.459 3.12-13.125 3.12-4.58 0-11.875-2.29-21.875-6.87l-1.25 1.87c11.666 6.25 23.333 9.37 35 9.37 3.33 0 7.92-1.87 13.75-5.62 1.25-2.92 1.87-5.21 1.87-6.88 0-4.58-2.08-6.88-6.25-6.88l-2.5 1.25m-222.5 10c1.25 1.67 2.29 2.5 3.12 2.5 2.08 0 3.12-1.25 3.12-3.75 0-2.08-1.04-3.12-3.12-3.12-1.67 0-2.71 1.46-3.12 4.38m27.5 20-4.37-4.37 0.6-3.75-0.6-3.12 2.5-1.88 4.38-1.87c0.4-0.4 1.25-0.6 2.5-0.6 2.08 0 3.75 0.6 5 1.88l2.5 2.5 3.75 3.12c0.4 0.4 0.6 2.08 0.6 5 0 10-5.83 18.959-17.5 26.875l5.63-1.25 1.87-1.87 10-5.63c3.75-2.08 7.08-7.71 10-16.875 0.4-0.8 0.6-2.08 0.6-3.75v-1.87l-1.88-3.12-2.5-5.63-3.75-3.12c-4.17-2.92-7.71-4.37-10.625-4.37h-1.88l-4.37 1.87-3.12 0.6c-5.83 0.8-8.75 4.79-8.75 11.875 0 7.08 2.29 10.625 6.87 10.625h0.6c0.4-0.4 1.04-0.8 1.88-1.25m-30.625-13.75-2.5-1.88c-0.8 0-1.46 0.6-1.87 1.88l-0.6 1.25c0 2.08 0.8 3.12 2.5 3.12 2.5 0 3.75-0.8 3.75-2.5 0-0.4-0.4-1.04-1.25-1.87m285.62-0.6-1.25 15 1.88 0.6c1.67 0 2.92-3.75 3.75-11.25l-2.5 1.25 0.6-2.5c0-0.8-0.8-1.88-2.5-3.12m-108.75 1.25-0.6 2.5c2.08 1.67 3.96 2.71 5.62 3.12 15 6.25 22.5 12.917 22.5 20l-0.6 1.25-1.87 7.5 6.25-2.5c2.08-2.08 3.12-4.79 3.12-8.12 0-5-1.25-8.54-3.75-10.625l-7.5-3.75-17.5-6.87-5.63-2.5m-253.75 3.12c-2.5 0-3.75 1.88-3.75 5.63 0 1.67 1.04 2.5 3.12 2.5 2.92 0 4.38-1.46 4.38-4.38 0-2.5-1.25-3.75-3.75-3.75m64.375 0c-1.25 0.8-1.87 1.67-1.87 2.5 0 1.67 0.8 2.5 2.5 2.5 1.25 0 2.29-0.6 3.12-1.88v-0.6c0-1.67-0.8-2.5-2.5-2.5h-1.25m-7.5 3.75h-3.75l1.87 2.5 1.88-2.5m22.5-1.25-5 5v5l-0.6 3.75-1.25 2.5-9.37 16.25c3.33-1.25 6.67-4.17 10-8.75l3.12-5c3.75-5 5.63-10.625 5.63-16.875 0-0.8-0.8-1.46-2.5-1.87m255.62 1.25c3.75 2.08 5.63 4.38 5.63 6.88 0 3.33-1.67 6.46-5 9.37-3.33 2.5-6.87 4.79-10.625 6.88l-5.63 1.25h1.87l-7.5 1.25-5.63 1.25h-7.5c-10.834 0.8-16.459 3.33-16.875 7.5v1.25c0.4 0.4 0.8 1.25 1.25 2.5l1.87 1.87 1.25 3.12h-2.5l-1.88 1.25-5 0.6c-5.83 0.4-10.209 0.8-13.125 1.25h-3.12c-8.33 0-15.834-1.25-22.5-3.75l-15.625-5.63-13.125-1.87-7.5-2.5h-6.87c-2.5-0.4-5.42-0.8-8.75-1.25h3.12c-5.83-0.8-12.292-1.46-19.375-1.87-6.67-0.8-13.959-1.25-21.875-1.25-2.5 0-10.209 0.6-23.125 1.88-6.25 0.4-10.417 1.04-12.5 1.87l-15.625 5c-2.5 0.8-3.75 2.29-3.75 4.38l0.6 2.5 6.25-1.87 15-5c7.5-2.08 18.333-3.12 32.5-3.12h1.88c3.75 0 6.04 0.2 6.87 0.6l6.25 0.6 16.25 1.87 17.5 3.12 47.5 12.5 25.625 3.12c1.25 0.4 2.71 0.6 4.38 0.6 0.4-0.4 1.25-0.6 2.5-0.6l10.625-2.5v7.5c1.25 1.25 5 2.5 11.25 3.75l2.5-0.6c10 0 19.166-1.04 27.5-3.12l35.625-11.25c0.8-0.4 2.71-0.6 5.62-0.6 3.75 0 8.54 1.67 14.375 5 0.8-2.5 1.25-3.75 1.25-3.75 0-3.33-3.54-5.62-10.625-6.88l-1.25-1.87 3.12-4.38-5.63-1.87-5.63-0.6-5 0.6-5-0.6-2.5 1.25c-4.17 0.4-8.13 1.67-11.875 3.75l-3.75 0.6c-1.67 0.8-3.12 1.46-4.37 1.88-1.25 0-2.29 0.2-3.12 0.6l-6.25 3.12c-3.33 0.8-5.63 1.25-6.88 1.25h-8.12c-1.67-0.4-2.5-1.46-2.5-3.12 0-2.5 1.25-3.75 3.75-3.75l20-1.25c3.75 0 7.71-1.67 11.875-5 4.17-3.75 6.25-6.46 6.25-8.12l-0.6-0.6c0-0.8-0.2-1.87-0.6-3.12l-0.6-1.25c2.92-5.42 4.37-9.58 4.37-12.5 0-6.25-2.71-9.58-8.12-10l-5-0.6-3.75 2.5m-316.25 3.12c-1.67 0.4-2.5 1.88-2.5 4.38 0 2.92 1.46 4.37 4.37 4.37 2.92 0 4.38-1.67 4.38-5 0-2.5-1.88-3.75-5.63-3.75h-0.6m22.5 6.25c3.33 0.4 6.04 2.08 8.12 5l0.6 1.25c-0.4 2.92-1.04 5.83-1.88 8.75-0.4 2.92-1.46 6.04-3.12 9.37-0.4 1.67-1.46 3.75-3.12 6.25 10.417-10.416 15.625-18.541 15.625-24.375 0-7.5-3.12-11.25-9.37-11.25-3.75 0-6.04 1.67-6.87 5m-32.5-3.12c-3.75 0-5.62 1.25-5.62 3.75 0 2.08 1.25 3.12 3.75 3.12 2.92 0 4.37-1.87 4.37-5.62 0-1.25-0.6-1.67-1.87-1.25h-0.6m56.25 13.125c1.67-0.4 2.5-1.25 2.5-2.5l-0.6-3.12c0.4-0.4 0.6-1.67 0.6-3.75s-1.25-3.12-3.75-3.12c-1.25 0-1.88 0.6-1.88 1.87 0 0.8 0.6 2.71 1.88 5.63 0.4 0.4 0.6 1.25 0.6 2.5s0.2 2.08 0.6 2.5m342.5-9.37-6.25 3.75v3.12h-2.5c-2.92 5.42-6.87 10-11.875 13.75l8.13-5 6.25-5.62 7.5-3.75 1.88-2.5 1.88-0.6h1.25c2.92 0 6.25 1.87 10 5.62v-3.12c0.4-6.25-1.87-9.37-6.87-9.37-1.67 0-2.92 0.4-3.75 1.25l-5.63 2.5m-429.38 6.25v1.25c0 5.83 1.87 8.75 5.62 8.75 0.8 0 1.67-0.6 2.5-1.88-2.5-1.67-3.75-3.75-3.75-6.25s1.67-3.75 5-3.75h1.25l6.87 3.12 4.38-1.88-2.5-2.5h-3.75l-9.37-1.87c-2.08 0-4.17 1.67-6.25 5m111.88-5-8.12 6.25v1.25c7.5-2.92 11.25-4.79 11.25-5.62-0.4-0.4-1.46-1.04-3.12-1.87m158.12 1.87v1.25c6.67 2.5 10 5.21 10 8.12 0 9.17-5.42 13.75-16.25 13.75h-2.5c-1.25-0.4-2.92-0.8-5-1.25v1.87c7.5 2.08 12.083 3.12 13.75 3.12 11.25 0 16.875-5.42 16.875-16.25 0-8.75-3.75-13.125-11.25-13.125-1.25 0-2.08 0.2-2.5 0.6l-3.12 1.87m162.5 7.5-4.37 1.87-4.38 1.87v1.88h-2.5l1.88 0.6c-7.08 6.25-10.625 13.542-10.625 21.875v1.25l0.6 6.88c0.4 2.08 0.6 3.75 0.6 5 0.4 1.25 0.6 1.88 0.6 1.88l5 10.625 1.25 5 2.5 0.6 8.75 12.5 10.625 13.125-2.5-6.25-1.25-5-16.25-25.625c-2.5-4.17-3.75-8.96-3.75-14.375 0-5 1.25-9.58 3.75-13.75s5.42-6.25 8.75-6.25c0 0 1.67 0.4 5 1.25l2.5 7.5-1.88 5c-7.08 7.08-10.625 13.542-10.625 19.375 0 1.67 0.4 3.75 1.25 6.25l3.75 3.75 1.87 1.88h1.88c1.67 0 3.75-0.6 6.25-1.88-7.5-2.5-11.25-6.04-11.25-10.625 0-2.92 0.6-5 1.88-6.25l11.875-11.25c1.67-1.67 2.5-5 2.5-10 0-4.17-2.08-8.33-6.25-12.5l-3.75-1.25-3.12-1.25-0.6-3.75m-383.75 3.12-1.87 3.12-2.5 3.75-5-1.87-5 1.87-6.88 0.6-5 1.25 3.12 2.5-0.6 1.87 1.87 3.12 4.38 10.625v10.63c0 0.8-0.2 2.29-0.6 4.37 0 2.08-0.2 4.58-0.6 7.5l-2.5 9.37-8.12 18.75-3.75 7.5-0.6 1.88-0.6 2.5-8.12 22.5-1.25 5.62-3.75 12.5-0.6 8.12-0.6-1.25-0.6 2.5 0.6 8.12-0.6 11.875 1.25 5.62c-0.4 1.25-0.6 2.92-0.6 5v3.12c0.4 0.8 0.8 2.08 1.25 3.75l1.25 3.75 0.6 1.87 2.5 6.88c-0.8 0.8-1.25 1.46-1.25 1.87 0 1.25 0.6 2.92 1.88 5 1.67 1.67 2.5 3.12 2.5 4.37l6.25 9.37c1.67 3.75 4.17 5.63 7.5 5.63h0.6l8.75-1.88c2.08-0.8 3.12-1.67 3.12-2.5 0 0-0.6-0.6-1.88-1.87-0.8-1.25-2.29-3.12-4.37-5.63l-1.88-5c-7.08-15-10.625-30.833-10.625-47.5 0-28.75 6.04-51.875 18.125-69.375 12.083-17.916 29.375-28.333 51.875-31.25h13.75l-7.5 0.6-5.63 1.25 6.25-0.6-15.625 1.25-2.5 1.87 3.12-0.6-5.63 0.6h1.25l-3.75 1.87-3.75 0.6c-1.25 0.8-2.71 1.88-4.38 3.12-1.67 0.8-3.54 2.08-5.62 3.75-10 7.5-18.542 18.125-25.625 31.875l-3.12 6.25-0.6 3.12c-0.8 2.5-1.67 5-2.5 7.5-0.8 2.5-1.67 5.21-2.5 8.13l3.12-3.12 4.37-5.62 5-4.38c10.417-10 21.875-15 34.375-15 5.42 0 12.292 2.08 20.625 6.25 2.92 1.67 5.63 2.5 8.13 2.5s3.75-0.8 3.75-2.5c0-1.67-0.2-2.71-0.6-3.12l6.87 0.6c3.33 0.4 5.63 0.8 6.87 1.25h3.12l5.63-2.5-3.75-4.38-4.38-8.75-6.87-1.25c2.08-2.08 3.12-3.96 3.12-5.63v-0.6l-4.37-1.88c-5-1.67-9.37-2.5-13.125-2.5h-0.6l-15.625 1.87c-2.08 0-3.33-0.6-3.75-1.87v-1.25c0-3.75 2.29-5.21 6.87-4.37h1.88l27.5 4.37c1.25 0.4 2.71 0.6 4.37 0.6h3.75c8.33 0 12.5-1.67 12.5-5 0-0.8-1.04-1.88-3.12-3.12l-1.87-1.25c0.8-2.08 1.46-3.12 1.87-3.12h5.63c9.58 0.8 17.5-5.42 23.75-18.75h-6.87l-6.88-1.25c-1.25-0.4-3.54-0.6-6.87-0.6h-4.37c-2.08 0-3.75 0.2-5 0.6l-4.37-1.25c2.5-1.67 3.75-3.75 3.75-6.25 0-1.25-2.08-1.87-6.25-1.87-3.75 0-7.92 0.8-12.5 2.5l-5.63 3.12-3.75 1.25-6.87 5.63h-1.88c-3.75 0.8-5.63 0.4-5.63-1.25 0-3.75 2.71-6.46 8.13-8.12 8.33-2.5 12.708-3.96 13.125-4.38 2.92-1.25 5.63-4.38 8.13-9.37l-3.75-0.6c2.08-3.33 3.12-6.25 3.12-8.75v-3.75c-1.25 0.4-2.71 0.8-4.38 1.25-1.67 0.4-3.54 1.04-5.63 1.87l-9.37 2.5-4.37 3.12-3.75 6.25-2.5-0.6v-1.88c0.8-1.25-0.2-2.29-3.12-3.12-2.08 2.08-4.37 3.96-6.87 5.62-2.5 1.67-5 3.33-7.5 5l-3.12 3.75-3.75 5-3.75 6.25-1.25 1.87-1.25 0.6c0 2.92-1.87 6.46-5.63 10.625l-0.6 1.87c-2.92-1.25-4.37-2.92-4.37-5l0.6-1.88 0.6-1.25 11.875-18.75c2.08-5 3.12-9.17 3.12-12.5 0-7.92-2.92-12.916-8.75-15m-39.375 26.25v2.5l-0.6 1.25-4.37-10-3.75 9.37-1.25 3.75-1.25 6.88-0.6-1.25v2.5l1.87 6.88 1.88 1.25c2.08-2.08 4.37-3.12 6.87-3.12l0.6 9.37-1.25 5-1.25 3.75 0.6 5.62c2.08-1.67 5.42-5.42 10-11.25 0.4-0.8 0.8-2.5 1.25-5 0.4-2.92 1.04-6.67 1.88-11.25 3.75-0.4 5.63-1.87 5.63-4.38 0-0.8-0.2-1.67-0.6-2.5 0-1.25-0.2-2.71-0.6-4.37l-3.12-3.12c-3.33-4.58-5-7.92-5-10 0-2.92 0.2-4.58 0.6-5l3.75-5.62-0.6-1.25-4.37 1.87c-2.5 1.67-3.96 3.33-4.38 5v3.12l-3.12 4.38 1.25 5.62m190-8.75h-3.75v20.005l-1.25 125.62-1.88 6.25h-1.25c-1.67 4.17-5.21 7.29-10.625 9.37-15 4.58-22.5 7.71-22.5 9.37 0 3.33 5.21 5 15.625 5 2.92 0 7.29-0.6 13.125-1.88 5.83-0.8 11.25-1.46 16.25-1.87 5.42-0.4 10.208-0.6 14.375-0.6 4.58 0 7.5 0.2 8.75 0.6l36.875 4.38c4.17 0.4 6.87-1.67 8.12-6.25l-20.625-6.88-7.5-3.75-1.87-1.25-3.12-5.62-1.25 0.6-1.25-2.5-2.5-2.5-1.87-11.25v-23.125l0.6-77.5-1.25-30.625-15.625-3.75-15.625-1.87m-6.87 14.375-1.25-5c0-0.4-1.25-1.04-3.75-1.87-2.5-0.8-5.63-1.46-9.37-1.88-3.75-0.8-7.92-1.46-12.5-1.87-4.58-0.8-8.96-1.25-13.125-1.25-13.75 0-20.625 2.5-20.625 7.5 0 0.8 0.4 1.25 1.25 1.25 1.67 0 3.96-0.4 6.87-1.25 2.92-1.25 6.67-1.67 11.25-1.25h11.25c3.75-0.4 9.37 0.2 16.875 1.88l13.125 3.75m41.875-8.12-0.6 27.5v104.38c0 3.33 1.46 7.71 4.38 13.125l3.75 5.62 2.5 1.25 6.87 4.38v-1.87l-2.5-1.25c-3.75-2.92-6.46-8.96-8.12-18.125v-5l-0.6-6.25v-15.625l0.6-94.375-1.25-12.5-5-1.25m-92.5 6.88 6.87 1.87 10.625 0.6c10.833 0.8 17.5 6.04 20 15.625 0.4 2.08 0.6 3.96 0.6 5.62 0.4 1.67 0.6 2.92 0.6 3.75 0 5.83-4.58 8.96-13.75 9.37l-5-3.75-1.87-3.12-1.25 5.62c0 3.75 2.5 6.88 7.5 9.37 3.33 0.8 5 1.25 5 1.25 1.25 0 2.29-0.4 3.12-1.25l5-3.75 3.12-0.6 0.6 6.88c5.42-4.17 8.13-7.08 8.13-8.75l-0.6-3.12 0.6-12.5c0.4-6.67-3.33-12.291-11.25-16.875-7.5-5-16.459-7.5-26.875-7.5h-1.25l-10 1.25m113.12 11.25 11.25 8.13c0.4-0.4 0.6-1.25 0.6-2.5 0-1.67-2.71-3.75-8.13-6.25l-8.12-4.37c-2.5-1.25-4.38-1.88-5.63-1.88-0.8 0.8-1.25 1.46-1.25 1.88v0.6c0.4 0.4 0.6 0.8 0.6 1.25l10.625 3.12m134.38 10.625c-5-4.17-7.5-7.29-7.5-9.37s0.8-4.58 2.5-7.5h-1.88c-3.75-0.4-5.63 1.46-5.63 5.62 0 6.67 4.17 10.417 12.5 11.25m-116.25-5.62c0.4-0.8 0.6-2.5 0.6-5 0-3.33-1.25-5-3.75-5-2.08 0-3.12 1.25-3.12 3.75s2.08 4.58 6.25 6.25m3.75-2.5v1.25c0 3.33 0.6 5 1.88 5 2.5 0 3.75-1.04 3.75-3.12 0-2.5-1.04-3.75-3.12-3.75h-1.2l-1.25 0.6m28.125 23.125c-4.17 1.67-6.25 3.33-6.25 5 0 2.92 3.96 4.38 11.875 4.38 2.92 0 5.63-0.4 8.13-1.25l13.125-7.5c0.4-0.4 1.04-0.6 1.87-0.6 2.5 0 3.75 0.8 3.75 2.5 0-0.8-2.71 1.46-8.13 6.88-2.92 4.17-4.37 8.75-4.37 13.75l5.62-1.88c0.4 6.25 2.92 9.37 7.5 9.37 2.5 0 3.96-1.46 4.37-4.37-2.5-2.92-3.75-5.42-3.75-7.5 0-6.67 3.33-12.083 10-16.25l1.25-2.5 5.62-1.87 4.38-1.88c2.92-1.67 7.5-2.5 13.75-2.5 17.083 0 32.916 6.25 47.5 18.75l1.88 1.87 6.25 6.88 2.5 3.75 5 8.12c4.17 8.33 6.25 17.5 6.25 27.5 0 5.83-0.6 12.708-1.87 20.625l-2.5-3.12 2.5 5.62-2.5 5c-3.33 8.33-7.08 15.208-11.25 20.625-2.92 2.5-4.37 4.38-4.37 5.62v1.25c0.4 0.4 0.8 1.25 1.25 2.5l0.6 4.38c6.67-6.67 11.25-12.917 13.75-18.75l3.75-8.75 3.12-6.25c2.5-10.417 3.75-19.583 3.75-27.5 0-20.417-5.83-37.083-17.5-50l-1.88-1.25-4.37-4.38-8.75-6.25-5.63-3.75-22.5-8.75-5.63-1.87-18.125 0.6-5.62 1.25-10 2.5-19.375 7.5c-0.4 0.4-1.46 0.6-3.12 0.6-12.084 0-17.709-5-16.875-15v-4.37h-1.88l-5 2.5c-2.5 2.08-3.75 4.58-3.75 7.5 0 3.75 1.88 7.5 5.63 11.25m-47.5-17.5c-3.33 0-5 1.87-5 5.62s1.25 5.62 3.75 5.62c4.17 0 6.25-1.87 6.25-5.62s-1.67-5.62-5-5.62m13.75 1.25c-3.33 0.8-5 2.92-5 6.25 0 2.92 1.67 4.38 5 4.38 4.17 0 6.25-1.88 6.25-5.62 0-3.33-2.08-5-6.25-5m17.5 15.625c2.08 0 3.12-1.67 3.12-5 0-5-1.88-7.5-5.63-7.5-0.4 0-0.6 0.4-0.6 1.25v1.25l3.12 10m-5-5.62c-5.42 0.4-8.12 2.5-8.12 6.25 0 1.67 0.8 2.5 2.5 2.5 3.75 0 5.62-2.92 5.62-8.75m-21.25 1.25c-0.4 0.4-0.6 1.46-0.6 3.12 0 1.67 0.8 2.5 2.5 2.5 0.8 0 2.08-0.8 3.75-2.5l-5.62-3.12m-17.5 3.75c-0.4 1.25-0.6 3.33-0.6 6.25 0 1.25 1.04 3.54 3.12 6.88l6.87 11.875 1.25 3.12 1.88 4.38 1.25 5 8.75 41.25 1.25 1.88 3.12 10.625 3.12 6.25 3.12 4.38 6.25 8.75c2.92 4.17 6.67 8.12 11.25 11.875 4.58 3.75 9.79 7.5 15.625 11.25l-0.6 1.25-2.5-1.87v1.87l5.63 5c3.33 1.67 6.46 3.33 9.37 5 2.92 1.25 6.04 2.92 9.37 5v1.25l0.6 1.87 2.5 3.75v5.62l2.5 0.6c2.92 0 4.37-1.46 4.37-4.37 0-4.58-2.92-8.54-8.75-11.875l-1.87-1.25-10-5-7.5-4.37 6.25 2.5 9.37 5c6.67 3.75 14.583 5.63 23.75 5.63h4.37l-2.5-8.13c-2.5-0.4-5.62-0.8-9.37-1.25-3.33-0.8-7.29-2.08-11.875-3.75l-25-15-5-3.75-3.75-3.12c-15.417-12.917-24.584-27.5-27.5-43.75l-5.63-31.25c-2.08-10-7.92-21.042-17.5-33.125l-5-6.25m-110.62 1.88 0.6 1.25-9.37 3.75c0 1.25 1.25 2.08 3.75 2.5 7.92 2.08 15.208 5.83 21.875 11.25l5 3.75 1.87 2.5 6.25 8.75 3.12 6.25 6.87 18.75v13.75l0.6 3.12c0 11.25-3.33 22.708-10 34.375 12.5-1.25 18.333-12.917 17.5-35v-10.625c-0.4-27.917-13.125-48.333-38.125-61.25l-10-3.12m135.62 2.5v1.87c0 2.5 1.04 3.75 3.12 3.75 1.67 0 2.5-0.8 2.5-2.5 0-1.25-0.2-1.87-0.6-1.87l-5-1.25m13.75 1.87c-2.08 1.25-3.12 2.5-3.12 3.75 0 2.08 1.04 3.12 3.12 3.12 1.67 0 2.92-0.6 3.75-1.87v-1.25c0-0.8-0.2-1.25-0.6-1.25l-3.12-2.5m-135 23.125 1.88 2.5v2.5l-1.25 5c-1.67 2.92-3.54 4.37-5.62 4.37 0.4 0-1.46-0.4-5.63-1.25 2.5 4.58 5.21 6.88 8.12 6.88 8.33 0 12.5-3.96 12.5-11.875 0-7.5-4.58-13.958-13.75-19.375-3.33-2.08-6.46-3.54-9.37-4.38-2.5-1.25-4.58-2.08-6.25-2.5l-12.5-1.25 1.25 3.12 10 1.25c8.75 1.25 15.625 6.25 20.625 15m265-16.875c-2.92-1.67-5.63-2.5-8.13-2.5-3.33 0-5 0.6-5 1.88v5l3.75-3.75h8.13l1.25-0.6m-43.125 8.13-1.25-1.88v2.5c0 1.25-0.8 2.08-2.5 2.5-0.4 0.8-0.6 2.08-0.6 3.75 0 1.25 0.6 3.12 1.87 5.62l1.25 0.6 5 8.12h-1.87c-1.25-1.67-3.75-4.79-7.5-9.37-0.8-0.8-1.87-1.46-3.12-1.87-2.5-1.25-4.37-1.88-5.62-1.88-2.92 0-5.83 2.71-8.75 8.13-2.5 8.33-3.54 13.125-3.12 14.375l0.6 9.37v6.25l1.25 6.88c1.25 5.83 1.88 10.208 1.88 13.125 0 7.08-3.12 14.583-9.37 22.5 12.5-3.33 19.166-11.25 20-23.75l3.75 1.87c1.25-0.4 1.87-0.8 1.87-1.25v-6.88s-0.4-1.25-1.25-3.75l-1.88-6.25-4.37-6.25c-2.08-2.5-2.71-5.62-1.88-9.37v-6.25c-0.4-0.8-0.6-2.08-0.6-3.75 0-1.25 1.67-1.87 5-1.87h1.25l-2.5 1.25-1.25 1.87 3.12 1.25 1.87 3.12-1.25 9.37 0.6 6.25 1.25 1.87c1.67 1.25 3.54 1.87 5.62 1.87 1.67 0 2.92-3.12 3.75-9.37l1.87-0.6c0.4 5 2.5 8.96 6.25 11.875l4.38 2.5 3.75 2.5c4.58-4.58 6.87-8.33 6.87-11.25 0-2.08-1.04-5.83-3.12-11.25h3.75c3.33 0 5-0.8 5-2.5 0-2.92-2.29-6.04-6.87-9.37l-1.88-0.6v-0.6l-5-2.5-3.75-6.87h-2.5c0.4-2.92 2.5-4.79 6.25-5.63v1.25l-3.75 3.12 8.13 0.6c0.8 1.25 2.08 2.92 3.75 5s3.75 4.58 6.25 7.5l7.5 3.12h0.6c1.67 0 2.92-0.6 3.75-1.88 1.25-1.67 2.08-2.5 2.5-2.5h6.87l1.25-6.88c-0.8 0.4-2.29 0.6-4.37 0.6-2.5 0-6.25-0.8-11.25-2.5-4.58-2.08-10-6.04-16.25-11.875-5-3.75-8.96-5.62-11.875-5.62-5 0-8.12 1.87-9.37 5.62m-14.375-5c-2.08 0-3.75 1.04-5 3.12v1.25c0 2.92 1.67 4.38 5 4.38 3.75 0 5.62-1.67 5.62-5 0-2.5-1.87-3.75-5.62-3.75m-185.62 1.25 0.6 1.87 0.6 1.25 3.75 5.62 0.6 1.88c2.5 3.75 5.21 5.62 8.13 5.62 2.08 0 4.17-1.88 6.25-5.62l-7.5-0.6-8.75-8.13-3.75-1.87m150 0c-10.834 9.58-16.25 23.333-16.25 41.25 0 4.17 1.25 9.58 3.75 16.25l1.88 4.37 5 7.5 0.6 1.87h0.6c2.08 0 3.12-1.04 3.12-3.12v-0.6l-4.38-10-2.5-8.75-2.5-11.875 1.25-3.75 1.88-10.625 7.5-14.375v-8.12m-6.87 0.6-11.875 2.5c1.67 1.67 3.12 2.5 4.38 2.5 1.67 0 4.17-1.67 7.5-5m4.37 20-1.25 4.38-0.6 6.25c0.4 7.92 3.96 11.875 10.625 11.875 2.5 0 4.79-1.25 6.87-3.75-8.33-1.67-13.542-7.92-15.625-18.75m-243.12 27.5 1.25 1.87 6.87 4.38 4.38 3.12c4.17 2.92 7.92 4.37 11.25 4.37 4.17 0 6.25-1.67 6.25-5 0-1.67-0.6-3.75-1.87-6.25l3.12-0.6c1.25 3.33 3.12 5 5.62 5 3.33 0 6.04-3.54 8.13-10.625-2.92-1.67-4.37-3.54-4.37-5.62 0-1.67 0.4-2.5 1.25-2.5h1.88c-1.25-8.75-7.5-13.125-18.75-13.125-7.92 0-16.667 4.17-26.25 12.5-1.67 1.67-2.5 3.75-2.5 6.25s1.25 4.58 3.75 6.25m170.62 17.5-1.25 1.25c0 0.4-0.2 0.8-0.6 1.25 0 2.08 1.87 3.12 5.62 3.12 7.92 0 11.666-7.5 11.25-22.5l-0.6-3.75-1.25-9.37-0.6-6.88-1.25-1.25-0.6 10.625-1.25 6.88-0.6 6.25c-0.4 5.42-3.33 10.208-8.75 14.375m-120-31.25h-1.25c0 6.67-1.25 12.708-3.75 18.125l2.5 1.88 1.88-1.88c1.25 1.67 2.29 2.5 3.12 2.5 0.8-0.8 1.25-1.46 1.25-1.87l1.25-1.25 0.6 1.88c1.67-0.4 3.75-1.88 6.25-4.38-0.4 0.4-0.6 1.88-0.6 4.38 0 1.25 1.04 2.29 3.12 3.12l0.6 1.87c0.4-0.4 1.04-0.6 1.87-0.6 0.8 0 1.46 0.8 1.88 2.5 5 0 7.5-2.5 7.5-7.5 0-2.92-1.67-6.67-5-11.25v3.75l-3.75-2.5-1.25-3.12c1.25-0.4 1.88-1.25 1.88-2.5s-1.67-2.71-5-4.38c-2.92-1.67-6.04-2.5-9.37-2.5-2.92 0-4.37 0.8-4.37 2.5l0.6 1.25m-93.125 51.25c3.75 16.25 11.875 29.375 24.375 39.375 12.917 9.58 28.125 14.375 45.625 14.375 23.75 0 41.25-7.08 52.5-21.25-4.17-0.8-6.04-1.25-5.63-1.25h-0.6c-1.67 1.25-3.75 2.71-6.25 4.37-2.08 1.25-4.79 2.71-8.12 4.38-11.25 4.17-21.459 6.25-30.625 6.25-12.917 0-25.833-3.96-38.75-11.875l-15-13.75-1.88-3.75c-6.67-10.417-10-20.208-10-29.375 0-18.333 8.33-27.5 25-27.5h4.37l-0.6-8.75h-6.23c-19.583-0.8-29.375 13.125-29.375 41.875v3.12c0.4 0.8 0.8 2.08 1.25 3.75m239.38-48.75 3.12 13.75c2.92 4.17 6.25 6.25 10 6.25 7.5 0 11.875-3.96 13.125-11.875-2.92 2.92-5.83 4.37-8.75 4.37-4.58 0-10.417-4.17-17.5-12.5m130.62-1.25-1.87 4.37 0.6 3.12-3.12-0.6 1.25 3.12h-2.5c0 1.25-0.4 3.12-1.25 5.63-0.4 2.08-0.6 3.33-0.6 3.75 0 1.25 0.6 2.08 1.88 2.5 0.4 2.08 0.6 4.17 0.6 6.25 0.4 2.08 0.6 3.96 0.6 5.62 0 5.42-1.25 9.58-3.75 12.5-2.08 2.92-3.12 4.37-3.12 4.37 0 1.25 1.04 1.88 3.12 1.88s3.54-0.6 4.37-1.88l0.6-5 5-10.625c0.4-0.4 0.6-1.67 0.6-3.75 0-2.5-1.46-5.83-4.37-10h3.75c2.92 0 4.37-1.88 4.37-5.62 0-6.67-2.08-11.875-6.25-15.625m-231.88 2.5c-0.8 11.25-3.33 16.875-7.5 16.875-2.08 0-4.17-1.04-6.25-3.12v1.25c-0.8 5 0.6 7.5 4.37 7.5 2.5 0 5-1.46 7.5-4.38 2.92-3.33 4.37-6.25 4.37-8.75 0-3.33-0.8-6.46-2.5-9.37m245.62 11.25 4.37-0.6c1.25 0 3.54 1.25 6.87 3.75l3.12 3.75c1.67 3.75 2.5 7.5 2.5 11.25 0 1.25-0.2 2.71-0.6 4.38 0 1.25-0.2 2.92-0.6 5 3.33-7.92 5-14.375 5-19.375 0-11.25-4.17-16.875-12.5-16.875-4.17 0-6.87 2.92-8.12 8.75m-43.125 1.25 2.5 6.25-5.63-2.5 0.6 2.5 1.25 1.87-6.25-3.12c0.4 2.08 0.6 3.96 0.6 5.62 0.4 1.25 0.6 2.29 0.6 3.12 0 2.08-0.6 5-1.88 8.75l1.88 3.12 3.12 1.87 1.88-3.75 4.37-2.5v5l5 4.38 3.12-6.88v-9.37l3.12-3.75-4.38-3.75-1.87-0.6-4.38-2.5-3.75-3.75m-286.25 45 1.25-1.87v-1.87l1.87-0.6-0.6-1.25 1.25-2.5-1.88-1.25-3.12-1.25 3.75-1.25v-1.25h-1.87l-9.37-3.12 9.37 1.87v-3.12l3.75 0.6 1.25-3.12 3.12-1.25-1.25-2.5 1.25-1.25c0.4-0.4 0.6-0.8 0.6-1.25 0-0.8-2.92-2.92-8.75-6.25-1.67-1.67-4.38-3.75-8.13-6.25l-2.5-1.25c-2.5-1.25-4.37-1.87-5.63-1.87-4.17 0-7.92 2.29-11.25 6.88-3.33 4.58-5 9.79-5 15.625 0 14.167 6.87 21.25 20.625 21.25 2.92 0 6.67-0.6 11.25-1.88m30-38.125-1.25 1.25-0.6 1.88v0.6c0.4 1.25 1.04 1.88 1.88 1.88 1.25 0 1.88-1.04 1.88-3.12 0-0.8-0.6-1.67-1.88-2.5m211.25 6.25c-2.08 4.17-3.75 7.29-5 9.37-1.25 1.67-1.88 2.5-1.88 2.5 0-0.4 0.4 1.46 1.25 5.62l0.6 1.25-8.13 0.6c2.08 7.08 6.88 10.625 14.375 10.625l0.6-1.25-1.87-0.6 8.12-0.6-5.63-3.75-1.87-5.62 3.12 1.25v2.5l7.5 0.6-3.12-5-0.6-15.625-0.6-3.75-2.5-2.5-2.5-3.12-1.87 7.5m-201.25-3.75c-0.8 0.8-1.25 1.46-1.25 1.87 0 1.67 0.8 2.5 2.5 2.5 0.8 0 1.67-0.4 2.5-1.25l0.6-1.25-0.6-0.6-3.75-1.25m267.5-1.25-2.5 9.37-3.75-1.25c-0.4 2.08-1.25 4.58-2.5 7.5-0.8 2.5-2.08 5.42-3.75 8.75-8.33 5.83-14.584 8.75-18.75 8.75h-2.5l-9.37 1.87 1.88 0.6h4.37l10.625 0.6c2.08 0 4.58-0.6 7.5-1.88 3.33-1.25 6.46-2.71 9.37-4.37 2.92-2.08 5.42-4.17 7.5-6.25 2.08-2.5 3.12-5 3.12-7.5l0.6-6.88v-5c0-0.8-0.6-2.29-1.87-4.38m-284.38 4.38c-1.67 0-2.5 0.8-2.5 2.5 0 1.67 0.8 2.5 2.5 2.5 2.08 0 3.12-1.04 3.12-3.12 0-1.25-1.04-1.87-3.12-1.87m10.625 3.75c-1.25 0-1.87 0.8-1.87 2.5v1.87c0.4 1.25 1.46 1.88 3.12 1.88l1.25-3.12 0.6-0.6-1.25-2.5h-1.88m26.875 5.62c-2.5-0.8-3.54-1.25-3.12-1.25-1.25 0-2.08 0.8-2.5 2.5l2.5 3.12h-1.25c-1.67-0.4-2.5 0.2-2.5 1.88 0 1.67 1.87 3.75 5.62 6.25l-5.62 1.25 0.6 2.5h-1.25c-2.08 0-3.12 0.8-3.12 2.5 0 0.8 0.8 1.46 2.5 1.87l-3.12 0.6c2.08 3.33 3.96 5 5.63 5 3.33 0 6.67-2.71 10-8.12 3.33-5.42 5-10 5-13.75 0-6.25-2.92-9.37-8.75-9.37-1.25 0-1.88 0.4-1.88 1.25 0 0 0.4 1.25 1.25 3.75m-15.625-4.38c-2.08 0.8-3.12 1.67-3.12 2.5 0 2.08 1.25 3.12 3.75 3.12 3.33 0 5-1.25 5-3.75-0.8 0-2.71-0.6-5.63-1.88m-31.875 6.88c1.67 1.25 2.92 1.87 3.75 1.87 2.5 0 3.75-0.8 3.75-2.5-0.4-1.25-1.04-2.5-1.88-3.75-0.4-1.25-1.25-1.87-2.5-1.87-2.08 0-3.12 1.87-3.12 5.62v0.6m10.625 3.12c0.8 2.08 1.67 3.12 2.5 3.12h1.25l1.25-1.25v-0.6l1.2-6.24-3.75-1.25-2.5 6.25m11.875-1.87c-1.25 0.8-1.88 1.67-1.88 2.5 0 2.5 1.04 3.75 3.12 3.75 2.5 0 3.75-1.04 3.75-3.12s-1.25-3.12-3.75-3.12h-1.25m291.25-1.25c0.4 1.25 0.6 3.75 0.6 7.5 0 4.58-2.5 9.58-7.5 15l-11.875 8.75c-1.67 0.8-3.54 1.67-5.63 2.5-1.67 0.8-3.54 1.67-5.63 2.5-7.08 3.33-10.625 9.17-10.625 17.5 0.8 2.5 2.71 4.58 5.63 6.25 5.42 3.75 10.833 5.62 16.25 5.62l6.25-0.6c4.58 0 10.208-0.2 16.875-0.6 6.67-0.4 10.416-0.6 11.25-0.6 2.92 0 5.63 1.25 8.13 3.75 0.4 0.8 0.8 1.46 1.25 1.88l1.25 1.25c2.08 0 3.12-3.54 3.12-10.625 0-2.5-4.17-4.79-12.5-6.88 2.08-1.25 3.54-2.29 4.38-3.12l1.87-1.87c0-1.25-3.54-1.88-10.625-1.88-2.08-0.4-6.04 0.4-11.875 2.5l-11.25 5c-2.92 1.67-5.63 2.5-8.13 2.5l-3.75-0.6c-1.67-1.67-2.5-3.33-2.5-5 0-2.92 5.83-4.58 17.5-5-0.4-0.4-0.6-1.25-0.6-2.5 0-1.67 2.92-2.92 8.75-3.75l-3.12 1.88-3.75 2.5 6.87-1.25c3.75-0.4 5.63-3.12 5.63-8.12v-5l-4.37 0.6-2.5 0.6 1.87-4.37 3.75-5.63v-3.75l1.87-3.75c0.4-0.4 0.6-1.88 0.6-4.38 0-3.33-2.5-6.25-7.5-8.75m-281.88 3.12-0.6 0.6c0 0.4-0.2 1.04-0.6 1.87v1.25c0 2.08 1.04 3.12 3.12 3.12 2.5 0 3.75-1.04 3.75-3.12 0-2.5-1.67-3.75-5-3.75h-0.6m-35.625 5.62c0.8 0.8 1.67 1.25 2.5 1.25 1.67 0 2.5-0.8 2.5-2.5 0-2.08-0.8-3.12-2.5-3.12-1.67 0-2.5 0.8-2.5 2.5v1.87m7.5 2.5c0.8 2.08 1.67 3.12 2.5 3.12 2.08 0 3.12-1.25 3.12-3.75 0-2.92-1.25-4.38-3.75-4.38-1.67 0-2.29 1.46-1.87 4.38v0.6m11.25-3.12c-1.67 0.4-2.5 1.67-2.5 3.75s0.8 3.12 2.5 3.12c2.5 0 3.75-1.04 3.75-3.12 0-2.92-1.25-4.17-3.75-3.75m8.75 3.75c0 4.58 1.04 6.88 3.12 6.88 2.92 0 4.38-1.25 4.38-3.75s-1.46-3.75-4.38-3.75h-1.87l-1.25 0.6m-28.125 5.62c0.4 2.5 1.46 3.75 3.12 3.75 2.5 0 3.75-1.25 3.75-3.75 0-0.8-0.4-1.67-1.25-2.5l-1.25-0.6-0.6 0.6-3.75 2.5m14.375 0c-3.75 0.8-5.63 2.92-5.63 6.25 0 1.67 1.25 2.5 3.75 2.5 3.33 0 5-2.29 5-6.88 0-1.25-0.8-1.88-2.5-1.88h-0.6m8.75 1.25c-0.8 0-1.46 0.6-1.88 1.87v1.25c-0.4 1.67 0.4 2.5 2.5 2.5 2.08 0 3.12-0.8 3.12-2.5 0-2.08-1.25-3.12-3.75-3.12m193.12 6.25 1.25 3.12 4.37 2.5 8.13 5c2.08 1.25 6.04 2.29 11.875 3.12 0.8 0.4 2.92 0.6 6.25 0.6 8.75 0 13.125-3.54 13.125-10.625 0-5.42-3.54-8.13-10.625-8.13-2.5 0-3.75 0.8-3.75 2.5v0.6l4.38 3.75v1.25c0 3.75-2.71 5.62-8.13 5.62-7.5 0-16.459-3.12-26.875-9.37m-225-0.6-3.12 1.25-2.5 1.25-7.5 1.25c-0.8 0-1.25 0.6-1.25 1.87 0 3.33 2.71 6.46 8.12 9.37 5.83 2.5 10.625 3.75 14.375 3.75 7.08 0 11.458-3.33 13.125-10l-4.37-2.5h-3.75l-5 4.38 3.12-7.5-2.5 1.88v-2.5l-3.12 0.6c-0.8-2.08-1.67-3.12-2.5-3.12h-3.12m46.25 0 0.6 4.38-2.5 0.6c-0.4-1.67-1.04-2.5-1.88-2.5h-1.88l0.6 2.5 1.25 1.25-5.63-1.87-1.87 2.5c-0.4-0.4-1.46-0.6-3.12-0.6-0.8 0-1.46 1.25-1.88 3.75-3.75 0.8-5.63 2.29-5.63 4.38 0 3.33 2.08 5 6.25 5 3.33 0 7.5-1.46 12.5-4.38 5.42-2.92 8.13-6.04 8.13-9.37 0-1.67-1.67-3.54-5-5.62m-73.125 4.38c-0.8 2.5-1.25 3.54-1.25 3.12 0-0.4 0.4 0.6 1.25 3.12 2.08 3.75 5.21 6.46 9.37 8.12l-9.37-14.375m96.25 2.5c-1.67 1.67-2.5 3.12-2.5 4.38 0 4.17 4.37 6.25 13.125 6.25 2.08 0 6.67-0.2 13.75-0.6 7.08-0.8 16.666-1.67 28.75-2.5 1.25-0.4 3.12-0.6 5.62-0.6h5c5 0 8.13 0.2 9.37 0.6l34.375 3.75c9.17 0.4 13.75-2.5 13.75-8.75 0-2.5-0.6-3.75-1.87-3.75l-0.6 0.6c-1.67 0.8-3.33 2.08-5 3.75-3.33 1.67-6.87 2.5-10.625 2.5h-8.13c-1.25 0-2.71-0.2-4.37-0.6l-4.38-1.25-10-1.25-4.37-0.6c-1.25-0.4-3.33-0.6-6.25-0.6h-13.76l-18.125 2.5c-2.08 0.4-5 0.6-8.75 0.6h-9.37c-7.5 0-12.709-1.46-15.625-4.38m271.25 8.12 5-1.25 4.37-2.5h8.13c-2.08-3.75-3.54-5.63-4.37-5.63-3.75 0-8.13 3.12-13.125 9.37m-267.5 6.88v-1.25h-1.25v0.6l-5.62 4.38c-2.08 2.08-3.12 5.62-3.12 10.625 0 7.08 2.92 10.625 8.75 10.625 4.17 0 6.25-2.29 6.25-6.88v-1.25h-3.12c-1.25-0.4-2.92-0.8-5-1.25-2.08 0-3.12-1.67-3.12-5 0-2.92 2.08-6.46 6.25-10.625m40 1.25c-0.4 3.33-2.08 6.04-5 8.12l1.88 4.38c-2.92 1.67-6.04 2.5-9.37 2.5-10 0-15.834-3.12-17.5-9.37-1.25-4.17-2.29-6.25-3.12-6.25-1.67 0-2.5 0.8-2.5 2.5 0 6.67 3.96 12.083 11.875 16.25 2.92 1.67 6.04 2.5 9.37 2.5 2.08 0 3.33-0.2 3.75-0.6l11.25-5 1.87 1.25 1.88 3.12c0.4 1.25 1.67 1.87 3.75 1.87 0.4 0 4.79-1.04 13.125-3.12-5.83-2.08-10-3.33-12.5-3.75-2.08-0.4-3.12-1.87-3.12-4.37v-7.5c0-1.25-0.4-2.29-1.25-3.12l-3.75-1.25-0.6 1.88m166.88 11.875 2.5-3.75-2.5-10c-0.4-0.4-0.8-0.6-1.25-0.6-2.92 0-4.38 1.67-4.38 5 0 2.08 1.88 5.21 5.63 9.37m-97.5 0c-8.33-7.5-17.084-11.25-26.25-11.25-9.17 0-14.584 0.8-16.25 2.5-5.83 3.33-8.96 5-9.37 5-2.08 0.4-3.54 0.8-4.37 1.25h-1.25c0 1.67 1.04 2.5 3.12 2.5h1.88c2.08-1.67 5.63-3.33 10.625-5 5.42-1.67 9.58-2.5 12.5-2.5 9.58 0 17.083 2.08 22.5 6.25 1.67 1.25 2.71 1.88 3.12 1.88 2.08 0 3.33-0.2 3.75-0.6m15.625-10c-2.92 0.4-4.38 1.67-4.38 3.75s1.25 3.12 3.75 3.12c2.08 0 3.12-1.25 3.12-3.75 0-1.67-0.8-2.71-2.5-3.12m-211.25 13.125-15.625-8.75c-0.8 0-1.46-0.2-1.87-0.6l-2.5-1.25h-1.88c-7.5 0-11.25 3.33-11.25 10 0 7.5 2.92 11.25 8.75 11.25 2.92 0 4.38-0.6 4.38-1.88-2.5-4.17-3.75-6.67-3.75-7.5 0-4.17 2.08-6.25 6.25-6.25 2.08 0 3.33 0.2 3.75 0.6l8.12 3.12 5.63 1.25m200-12.5h-1.87c-2.5 0.8-3.75 1.46-3.75 1.87 0 2.08 1.46 3.12 4.38 3.12 3.33 0 5-1.25 5-3.75 0-1.25-0.8-1.67-2.5-1.25h-1.25m22.5 0.6c-1.67 0-2.5 1.04-2.5 3.12s1.04 3.12 3.12 3.12c2.5 0 3.75-1.04 3.75-3.12s-1.46-3.12-4.38-3.12m-15.625 8.12c-2.5-0.8-3.75-1.25-3.75-1.25-3.33 0-5 1.04-5 3.12s0.8 3.12 2.5 3.12h0.6c1.67 0 3.54-1.67 5.62-5m6.25 1.25c-1.25 0-1.87 0.8-1.87 2.5 0 2.92 1.25 4.38 3.75 4.38s3.75-1.25 3.75-3.75-1.67-3.75-5-3.75l-0.6 0.6m13.75-0.6c-2.08 0-3.12 1.04-3.12 3.12 0 2.5 1.25 3.75 3.75 3.75 2.08 0 3.12-1.04 3.12-3.12v-1.25c-0.4-1.67-1.67-2.5-3.75-2.5m15.625 2.5-2.5-1.87h-0.6c-1.67 0-2.5 1.04-2.5 3.12 0 1.67 1.04 2.5 3.12 2.5s3.12-0.8 3.12-2.5l-0.6-1.25m-52.5 7.5 2.5-0.6c0.8-0.8 1.25-1.46 1.25-1.87l-0.6-1.25c-0.8-2.5-2.71-3.75-5.63-3.75-1.25 0-2.29 1.04-3.12 3.12v1.25c0 2.08 1.46 3.12 4.38 3.12h1.25m9.37-0.6-0.6 1.25c0 2.08 1.87 3.12 5.63 3.12 1.67 0 2.5-0.8 2.5-2.5 0-1.67-1.46-2.5-4.37-2.5l-1.88 0.6h-1.25m20-0.6-0.6 4.38c1.25 0.4 2.08 0.8 2.5 1.25h1.25c1.25 0 1.88-1.67 1.88-5h-0.6l-4.38-0.6m-63.125-369.38 2.5-0.6c1.67 0 2.5 1.46 2.5 4.37-0.4 0.4-1.25 0.6-2.5 0.6h-3.12l-0.6-0.6 0.6-1.87 0.6-1.88m0 11.25 5-1.25-3.12-2.5-4.38 0.6 2.5 3.12m-1.87 5.62h-3.12c0.4-0.4-0.2-0.6-1.88-0.6 0.8-0.4 1.88-0.6 3.12-0.6 1.25-0.4 2.29-1.04 3.12-1.87l5 0.6 3.75 3.75c-0.8 2.08-2.92 2.08-6.25 0l-3.75-1.25m145 16.25 0.6 3.12c0 3.75-1.87 6.88-5.63 9.37l-1.87-3.75v-1.87c3.33-1.25 5-2.5 5-3.75l-0.6-2.5 2.5-0.6m3.75 6.25c0 5.83-1.25 8.96-3.75 9.37l-1.25-5 1.25-1.87 1.88-3.12 1.87 0.6m-2.5 19.375 3.75 8.75-5.63-5-5-3.12-2.5-1.25c-5-1.67-10.417-2.92-16.25-3.75l-1.87-1.87c0.8-0.4 2.92-0.6 6.25-0.6 7.08 0 14.166 2.29 21.25 6.88m-305.62 15 11.875 7.5 6.25 6.25c2.08 5.83 2.92 9.58 2.5 11.25-0.4 3.33-2.71 6.04-6.87 8.12 1.67-2.92 2.5-5.83 2.5-8.75 0-4.58-2.5-9.37-7.5-14.375l-8.75-10m6.87 30c0.4 1.67 1.67 0.6 3.75-3.12 0.4 1.67 0.4 3.75 0 6.25l-3.75-3.12m-22.5-5c6.25 4.17 13.542 7.29 21.875 9.37l-6.88 1.87c-3.33 0-8.75-3.12-16.25-9.37l1.25-1.87m329.38 48.75 2.5-3.75v1.88l-0.6 0.6-1.88 1.25m-338.12 12.5c2.08 5 3.12 7.71 3.12 8.13-1.25 3.33-2.08 6.25-2.5 8.75 0 2.5-1.04 5-3.12 7.5 2.5-14.166 3.75-19.583 3.75-16.25v-1.25l-2.5-6.25h1.88l-0.6-0.6m283.12 5.62 0.6 2.5-2.5-0.6-1.25-1.88-0.6-5.62 1.25-1.25 2.5 6.87m-7.5-9.37v4.38c0 1.67 0.2 3.12 0.6 4.38 0 0 0.4 1.04 1.25 3.12 0.8 1.67 1.04 2.5 0.6 2.5-2.5 0-3.75-0.6-3.75-1.88-3.33-0.8-4.38-1.87-3.12-3.12 0.8-1.67 1.46-3.12 1.87-4.37 0.8-1.67 1.67-3.33 2.5-5m-233.75 10.625c-4.17 5.42-9.37 10-15.625 13.75-1.67 0.4-3.54 1.46-5.63 3.12l-3.75 1.25 0.6-0.6h-2.5l26.875-17.5m-4.37 20.625 0.6 1.88c-3.75-1.67-5.63-3.75-5.63-6.25 0-0.8 0.2-1.46 0.6-1.88l1.88-1.87 1.25 6.88 1.25 1.25m-10.625-2.5 1.25 1.25 2.5 0.6-1.25 1.87c-1.67-0.4-2.5-1.46-2.5-3.12v-0.6m-28.125 13.125-0.6 2.5-0.6-0.6h-0.6c-2.92-0.4-4.38-1.25-4.38-2.5s0.6-1.87 1.88-1.87l4.37 2.5m-10 1.87 7.5 3.12-4.38 2.5c-1.67 0-2.71-1.88-3.12-5.63m-1.87 6.88 1.87 0.6 3.12 2.5-2.5 1.88h-3.75v-1.88l-0.6-1.87 1.88-1.25m35.625 1.88 1.25 5.62 0.6 1.25h-3.12c-0.4-1.25-0.8-2.08-1.25-2.5v-1.25c0-0.8 0.8-1.88 2.5-3.12m272.5-1.25 3.12 1.25v4.37l-3.12-5.62m-283.75 6.88 2.5 3.12-1.25 1.25-1.25-4.37m-28.75-0.6 1.25 5.62 4.37-2.5-5.63-3.12m22.5 3.75h3.12l0.6 3.12h-0.6v-0.6l-1.25 1.25-1.88-3.75m16.875 5.62 9.37-1.87 9.37 1.87 7.5 3.75-8.12-1.25-8.13-1.87-5 1.25c-9.17 0-16.458 1.88-21.875 5.63l-10 8.75-1.25-1.88c8.75-8.75 18.125-13.542 28.125-14.375m20 35.625 13.125-6.88 8.75 1.87-11.875 1.25c-7.08 2.5-10.209 3.75-9.37 3.75h-0.6m15.625 0.6-5.63 1.25-8.12 4.38 1.87-3.75 5.63-3.75 4.38 0.6 1.87 1.25m-42.5 38.125 3.75 2.5 1.87 7.5-2.5 0.6-0.6 2.5c-2.08-3.33-3.12-5.42-3.12-6.25 0-3.33 0.2-5.62 0.6-6.88m20 36.875 6.87 0.6 3.75 2.5-5.62 1.25-5-4.38m308.12 20.625v1.25l-2.5 0.6-1.88-4.37v-1.25c0-1.25 0.4-1.87 1.25-1.87 0.8 0 1.25 0.2 1.25 0.6l1.88 5m-9.37-4.38 1.25 5-1.25-5m35.625 11.875 0.6 1.25-12.5 0.6-1.25-2.5 13.125 0.6"
         fill="#8f0005"
         id="path15" />
    </g>
  </g>
</svg>
