<?xml version="1.0" encoding="UTF-8" standalone="no"?>
<svg
   xmlns:dc="http://purl.org/dc/elements/1.1/"
   xmlns:cc="http://creativecommons.org/ns#"
   xmlns:rdf="http://www.w3.org/1999/02/22-rdf-syntax-ns#"
   xmlns:svg="http://www.w3.org/2000/svg"
   xmlns="http://www.w3.org/2000/svg"
   xmlns:sodipodi="http://sodipodi.sourceforge.net/DTD/sodipodi-0.dtd"
   xmlns:inkscape="http://www.inkscape.org/namespaces/inkscape"
   version="1.1"
   viewBox="0 0 500 500"
   id="svg19"
   sodipodi:docname="william-morris-letter-g.svg"
   inkscape:version="1.0.2 (1.0.2+r75+1)">
  <metadata
     id="metadata23">
    <rdf:RDF>
      <cc:Work
         rdf:about="">
        <dc:format>image/svg+xml</dc:format>
        <dc:type
           rdf:resource="http://purl.org/dc/dcmitype/StillImage" />
      </cc:Work>
    </rdf:RDF>
  </metadata>
  <sodipodi:namedview
     pagecolor="#ffffff"
     bordercolor="#666666"
     borderopacity="1"
     objecttolerance="10"
     gridtolerance="10"
     guidetolerance="10"
     inkscape:pageopacity="0"
     inkscape:pageshadow="2"
     inkscape:window-width="1920"
     inkscape:window-height="1016"
     id="namedview21"
     showgrid="false"
     inkscape:zoom="1.686"
     inkscape:cx="255.33808"
     inkscape:cy="250"
     inkscape:window-x="0"
     inkscape:window-y="27"
     inkscape:window-maximized="1"
     inkscape:current-layer="svg19" />
  <defs
     id="defs7">
    <linearGradient
       id="linearGradient847"
       x1="500"
       x2="0"
       y1="500"
       y2="-4.2633e-14"
       gradientTransform="translate(4.79e-6 1.3335e-5)"
       gradientUnits="userSpaceOnUse">
      <stop
         stop-color="#ff6700"
         offset="0"
         id="stop2" />
      <stop
         stop-color="#ffd700"
         offset="1"
         id="stop4" />
    </linearGradient>
  </defs>
  <path
     d="m259.61 41.102 4.6445 2.623a201.84 202.27 0 0 0-13.541-0.45703 201.84 202.27 0 0 0-0.63086 0 201.84 202.27 0 0 0-87.289 20.197l20.482 27.875 42.408-13.492s30.546-3.5586 31.436-3.5586 52.344 1.6309 52.344 1.6309 23.132 4.4473 23.873 4.4473 36.477 12.9 36.477 12.9l20.611 11.566 26.668 21.709 1.0508 0.53515 0.21094 0.49219 1.5781 1.2852 14.312 29.641 6.9277 10.322 5.0039 2 2.6289 7.1953 12.955-2.2852-14.26-56.199-5.8711-52.846-28.938 4.6133-32.295-8.3867-62.91-19.713-57.877-2.0957zm-160.81 71.254a201.84 202.27 0 0 0-49.725 124.19c4.009 0.06965 31.801 0.55273 32.631 0.55273 0.88968 0 18.682 12.604 18.682 12.604l0.14843-16.311 8.3047-43.148 11.418-13.791-5.043-20.463 5.1894-10.527-7.2656-4.8926-10.23-9.0469s-2.424-11.717-4.1094-19.168zm-49.922 134.28a201.84 202.27 0 0 0 40.303 120.18c3.081-1.0515 6.2424-2.1176 6.6113-2.1914 0.7414-0.14828 24.17 5.9297 24.17 5.9297l3.4102-28.617-15.422-44.039-9.6367-37.219-24.912-13.789c-1e-6 0-17.155-0.19033-24.523-0.25391zm413.72 1.8613-10.076 0.49024c0-1e-5 -122 0.42187-122.6 0.42187s-6.0801 17.795-6.0801 17.795 63.019 21.351 63.908 22.834 3.8555 95.049 3.8555 95.049-66.727 31.582-70.73 33.807c-4.0036 2.2242-62.721 5.9316-62.721 5.9316l-40.186-9.0449-63.463-38.998-3.707 1.1855-1.0371 22.836 1.6914 20.855a201.84 202.27 0 0 0 53.055 20.777l-0.05274 0.24219 50.559 12.324s46.533-2.0485 46.533-1 77.588-19.084 77.588-19.084l62.91-29.777-0.95508-92.426a201.84 202.27 0 0 0 9.6797-40.383c4.6708-1.554 21.473-5.5918 21.473-5.5918l-9.6465-18.244zm-366.19 127.43a201.84 202.27 0 0 0 26.102 25.838l-2.8496-20.684-12.604-4.4492-10.648-0.70508z"
     fill="#f4eee6"
     stroke-linecap="round"
     stroke-linejoin="bevel"
     stroke-width="1.0197"
     id="path11" />
  <g
     id="g17">
    <g
       transform="translate(-146.86,-119.79)"
       id="g15">
      <path
         d="m146.86 619.79v-500h500v500h-500m7.5-7.5h485v-485h-485v485m7.5-7.5v-469.38h469.38v469.38h-469.38m299.38-143.75c-3.3338 1.6e-4 -5.0003 1.4578-5 4.375-3.1e-4 2.5002 1.4578 3.7502 4.375 3.75 2.9162 1.6e-4 4.3747-1.25 4.375-3.75-3.1e-4 -2.9166-1.25-4.3748-3.75-4.375m-5 11.875c-3.3338 1.6e-4 -5.0003 1.6669-5 5v0.625c0.41562 1.6669 1.6662 2.5002 3.75 2.5h1.25c2.9162-0.41719 4.3747-2.0831 4.375-5-3.1e-4 -2.0831-1.4594-3.1248-4.375-3.125m-8.75 10.625-5.625 5.625 5.625-0.625c2.083-0.83281 3.1247-1.8748 3.125-3.125-3.1e-4 -1.6666-0.83438-2.4998-2.5-2.5l-0.625 0.625m-7.5-8.125c-3.7503 0.83281-5.6253 2.7084-5.625 5.625-3.1e-4 1.25 1.0406 1.8752 3.125 1.875 4.9997 1.6e-4 7.4997-1.6666 7.5-5-3.1e-4 -1.6666-1.4594-2.4998-4.375-2.5h-0.625m9.375-5.625c-0.83438 1.6e-4 -1.667 0.41719-2.5 1.25 0.83281 0.83281 1.6662 1.25 2.5 1.25 1.6662 1.6e-4 2.4997-0.41719 2.5-1.25-0.83438-0.83281-1.667-1.25-2.5-1.25m-20 15c-3.7503 1.6e-4 -5.6253 1.4578-5.625 4.375-3.1e-4 1.25 1.4578 1.8752 4.375 1.875h1.25c2.9162-0.41719 4.3747-1.4578 4.375-3.125-3.1e-4 -2.4998-1.4594-3.5416-4.375-3.125m6.875 6.875c-2.5003 1.6e-4 -3.7503 1.25-3.75 3.75-3.1e-4 2.0834 1.0406 2.7084 3.125 1.875 2.083 1.6e-4 3.1247-1.0422 3.125-3.125-3.1e-4 -1.6666-0.83438-2.4998-2.5-2.5m-30-66.875c2.9164-0.41719 7.708-1.25 14.375-2.5 6.6662-1.25 11.666-1.8748 15-1.875 5.833 1.6e-4 8.7497 1.8752 8.75 5.625l-3.125 6.25c-3.1e-4 2.0836 1.0406 3.1252 3.125 3.125 4.9997 1.6e-4 7.4997-2.4998 7.5-7.5-3.1e-4 -8.7498-5.6253-13.125-16.875-13.125-7.5003 1.6e-4 -17.084 3.3336-28.75 10m100 43.75c-1.667 0.41719-2.5005 1.4578-2.5 3.125-4.7e-4 1.6669 1.0406 2.5002 3.125 2.5 2.083 1.6e-4 3.1245-0.83281 3.125-2.5-4.7e-4 -2.0831-1.25-3.1248-3.75-3.125m-10 8.125c-1.667 1.6e-4 -2.5005 1.0422-2.5 3.125-4.7e-4 1.6669 1.0406 2.5002 3.125 2.5 2.4995 1.6e-4 3.7495-1.0422 3.75-3.125-4.7e-4 -1.6666-1.4594-2.4998-4.375-2.5m-318.12-246.25v8.75c-0.41719 8.3338 1.4578 15.417 5.625 21.25 4.5833 5.8338 10.208 8.7503 16.875 8.75 10.417 3.1e-4 15.625-5.6247 15.625-16.875-1.6e-4 -9.9997-4.1669-15-12.5-15-7.0834 3.1e-4 -10.625 2.292-10.625 6.875-1.6e-4 0.83437 0.20781 1.25 0.625 1.25l1.875-0.625c3.3333-1.6662 5.8333-2.4997 7.5-2.5 4.5833 3.1e-4 6.8748 2.917 6.875 8.75-1.6e-4 7.0838-3.5417 10.625-10.625 10.625-10.833 3.1e-4 -17.083-10.208-18.75-30.625l-2.5-0.625m139.38 148.75 3.125 1.25c5.8331-7.0831 11.25-13.333 16.25-18.75 5.4164-5.4164 10.416-9.7914 15-13.125 5.8331-4.5831 10.625-8.3331 14.375-11.25 3.7497-2.9164 6.458-4.9997 8.125-6.25 6.6664-5.4164 9.9997-11.666 10-18.75-3.1e-4 -11.25-6.2503-16.875-18.75-16.875-8.7503 3.1e-4 -13.125 3.9586-13.125 11.875-3.1e-4 3.1e-4 0.41562 2.0836 1.25 6.25 5.4164-7.9164 9.7914-11.875 13.125-11.875 7.083 3.1e-4 10.625 4.3753 10.625 13.125-3.1e-4 6.667-3.3336 12.709-10 18.125l-20.625 15.625c-4.5836 3.7503-9.3753 8.1253-14.375 13.125-5.0003 5.0003-10 10.834-15 17.5m1.25-73.125c12.5-1.6664 18.75-4.3747 18.75-8.125-0.83281-0.83281-2.0836-1.25-3.75-1.25-5.8336 3.1e-4 -10.834 3.1253-15 9.375m23.125-19.375c-3.7503 3.1e-4 -5.6253 1.667-5.625 5 0.83281 0.83281 2.0831 1.25 3.75 1.25 2.9164 3.1e-4 4.3747-1.0406 4.375-3.125-3.1e-4 -1.6664-0.83281-2.708-2.5-3.125m5.625 6.875c-4.1669 3.1e-4 -6.2503 1.4578-6.25 4.375-3.1e-4 2.0836 1.6664 3.1253 5 3.125h1.25c2.4997-0.41563 3.7497-1.8747 3.75-4.375-3.1e-4 -2.083-1.25-3.1247-3.75-3.125m-9.375 10c-2.0836 3.1e-4 -3.1253 0.83437-3.125 2.5-3.1e-4 1.25 1.0406 1.8753 3.125 1.875 2.4997 3.1e-4 3.7497-0.83281 3.75-2.5-3.1e-4 -1.25-1.25-1.8747-3.75-1.875m-44.375-3.125c-10.834 8.7503-23.125 13.125-36.875 13.125l-1.25 5.625c1.25 0.41719 3.1248 0.625 5.625 0.625h5.625c12.5 3.1e-4 21.458-6.458 26.875-19.375m-38.75 21.875-0.625 2.5h10c2.9164 0.41719 6.2498 0.41719 10 0 4.1664-0.83281 8.9581-1.6664 14.375-2.5 10.416-2.4997 18.541-3.7497 24.375-3.75 12.916 3.1e-4 19.375 4.3753 19.375 13.125-3.1e-4 2.5003-1.4578 5.2086-4.375 8.125-2.9169 2.5003-5.8336 3.7503-8.75 3.75-1.25 3.1e-4 -2.7086-0.41719-4.375-1.25-1.25-0.83281-1.8752-1.25-1.875-1.25-0.41719 3.1e-4 -0.625 0.41719-0.625 1.25-1.6e-4 6.2503 5.4164 9.3753 16.25 9.375 10.833 3.1e-4 15.833-5.4164 15-16.25l-0.625-6.25 6.25-1.25c-2.5003-12.083-9.7919-18.125-21.875-18.125-5.4169 3.1e-4 -15.625 2.292-30.625 6.875-13.334 4.5836-23.959 6.4586-31.875 5.625h-10m-56.25 176.25c-3.3334 0.41719-6.4584 1.0422-9.375 1.875-2.5002 0.83281-4.7917 1.6667-6.875 2.5 1.25 0.41719 3.3333 0.625 6.25 0.625 2.0833 1.6e-4 5.4166-1.6666 10-5m-19.375-5c-2.0834 1.6e-4 -3.1252 0.83281-3.125 2.5-1.6e-4 2.0834 1.25 3.1252 3.75 3.125 2.0833 1.6e-4 3.1248-1.0422 3.125-3.125-1.6e-4 -1.6666-1.25-2.4998-3.75-2.5m-6.25 7.5c-1.25 1.6e-4 -1.8752 0.83281-1.875 2.5-1.6e-4 1.6667 0.625 2.5002 1.875 2.5 2.4998 1.6e-4 3.7498-0.83281 3.75-2.5-1.6e-4 -1.6666-1.25-2.4998-3.75-2.5m8.125 6.875c-2.5002 1.6e-4 -3.7502 1.0422-3.75 3.125-1.6e-4 2.0834 1.0422 3.1252 3.125 3.125 2.4998 1.6e-4 3.7498-1.25 3.75-3.75-1.6e-4 -1.6666-1.0422-2.4998-3.125-2.5m50-25-8.75 1.875-16.875 5.625c-3.3334 0.83281-5.6252 1.25-6.875 1.25-6.2502 1.6e-4 -11.875-2.2916-16.875-6.875-4.5834-4.5831-6.8752-9.9998-6.875-16.25-1.6e-4 -12.083 5.6248-18.125 16.875-18.125 9.5833 1.6e-4 14.375 4.1669 14.375 12.5-1.6e-4 6.2502-3.5417 9.3752-10.625 9.375l-7.5-3.75-0.625 3.75c-0.83281 2.5002 1.25 3.9584 6.25 4.375 3.3333 0.83281 5.2083 2.5002 5.625 5 8.7498-5.4166 13.125-11.25 13.125-17.5-1.6e-4 -12.917-6.8752-19.375-20.625-19.375-5.8334 1.6e-4 -10.833 2.2919-15 6.875-4.1667 4.1669-6.2502 9.5834-6.25 16.25-1.6e-4 7.5002 2.7083 13.958 8.125 19.375 5.4166 5.0002 12.083 7.5002 20 7.5 1.6666 1.6e-4 8.9583-2.2916 21.875-6.875 0.83281-0.41719 2.0831-0.83281 3.75-1.25 2.0831-0.83281 4.7916-1.6666 8.125-2.5l-1.25-1.25m36.25-137.5c-3.7502 4.5836-5.6252 7.9169-5.625 10 0.41562 0.83437 0.83281 2.0836 1.25 3.75 0.41719 1.25 1.0406 3.1253 1.875 5.625l0.625 1.875c-1.6e-4 0.41719-0.20938 0.625-0.625 0.625-2.0836 3.1e-4 -3.9584-3.1247-5.625-9.375l-0.625 5c-1.6e-4 2.5003 0.625 5.2086 1.875 8.125 1.6664 2.5003 3.3331 4.7919 5 6.875 2.0831 2.0836 3.7498 4.1669 5 6.25 1.6664 1.6669 2.4998 3.1252 2.5 4.375-1.6e-4 3.7502-2.2919 5.6252-6.875 5.625-3.7502 1.6e-4 -9.3752-6.0414-16.875-18.125-7.0834-12.083-21.667-18.125-43.75-18.125-23.333 3.1e-4 -35 7.9169-35 23.75-1.6e-4 9.1669 2.7083 14.584 8.125 16.25l11.875 4.375c2.0833 0.83437 3.1248 2.5002 3.125 5-1.6e-4 4.1669-2.2917 5.8336-6.875 5h-5.625c-6.2502-0.41563-9.3752 2.0836-9.375 7.5-1.6e-4 5.4169 2.2916 8.1252 6.875 8.125 0.83281 1.6e-4 1.25-0.41563 1.25-1.25-1.6e-4 -0.83281-0.20781-1.4578-0.625-1.875l-3.75-3.75c-1.6e-4 -4.5831 1.8748-6.8748 5.625-6.875 0.41719 0.41719 1.25 0.625 2.5 0.625 1.25 1.6e-4 2.2916 0.20937 3.125 0.625l2.5 0.625c5.8333 1.6e-4 8.7498-2.2914 8.75-6.875-1.6e-4 -4.1664-1.4578-6.8748-4.375-8.125l-13.125-5c-5.0002-1.6664-7.5002-6.4581-7.5-14.375-1.6e-4 -5.8331 3.3333-10.625 10-14.375 6.6666-4.1664 14.792-6.2497 24.375-6.25 19.167 3.1e-4 32.5 6.2503 40 18.75l9.375 16.875c2.9166 5.4169 7.4998 8.1252 13.75 8.125 10.416 1.6e-4 15.625-6.4581 15.625-19.375-1.6e-4 -5.8331-4.5836-13.333-13.75-22.5-4.1669-4.1664-6.2502-7.7081-6.25-10.625-1.6e-4 -0.83281-1.6e-4 -1.6664 0-2.5 0.41719-1.25 0.83281-2.7081 1.25-4.375m-81.25 75c-2.0834 1.6e-4 -3.1252 0.83281-3.125 2.5-1.6e-4 1.6669 0.83281 2.5002 2.5 2.5 2.0833 1.6e-4 3.1248-0.83281 3.125-2.5-1.6e-4 -1.6664-0.83281-2.4998-2.5-2.5m-0.625 8.75c-2.5002 1.6e-4 -3.7502 1.0422-3.75 3.125-1.6e-4 2.0836 1.0422 3.1252 3.125 3.125 2.4998 1.6e-4 3.7498-1.0406 3.75-3.125-1.6e-4 -2.0831-1.0422-3.1248-3.125-3.125m-12.5 1.25c-2.0834 1.6e-4 -3.1252 1.0422-3.125 3.125-1.6e-4 1.6669 1.25 2.5002 3.75 2.5 2.0833 1.6e-4 3.1248-0.83281 3.125-2.5-1.6e-4 -2.0831-1.25-3.1248-3.75-3.125m0.625-154.38c0.41719 2.5003 0.625 4.3753 0.625 5.625 0.41719 1.25 0.625 1.8753 0.625 1.875 0.41719 1.25 1.4578 3.542 3.125 6.875 1.6666 2.917 3.9583 6.8753 6.875 11.875 6.2498 9.5836 9.3748 17.917 9.375 25-1.6e-4 11.667-4.1667 17.5-12.5 17.5-3.3334 3.1e-4 -5.0002-2.9164-5-8.75v-2.5l3.125-11.25 0.625-1.25c-1.6e-4 -2.083-1.4578-4.3747-4.375-6.875l-3.125 1.25c2.0833 2.0836 3.1248 3.9586 3.125 5.625-1.6e-4 3.1e-4 -1.0422 3.1253-3.125 9.375-1.25 2.5003-1.8752 5.0003-1.875 7.5-1.6e-4 9.1669 3.9583 13.75 11.875 13.75 3.7498 3.1e-4 7.0833-2.2914 10-6.875 3.3333-4.9997 4.9998-10.416 5-16.25-1.6e-4 -6.2497-1.4578-12.083-4.375-17.5l-13.125-21.875-6.875-13.125m8.125-85c-8.7502 22.084-13.125 40-13.125 53.75-1.6e-4 21.667 11.667 41.042 35 58.125l1.875-5.625c-21.25-16.666-31.875-35.416-31.875-56.25-1.6e-4 -11.666 3.3333-26.041 10-43.125l-1.875-6.875m-11.25-12.5c3.7498 2.5005 6.6666 3.7505 8.75 3.75 4.5833 4.7e-4 6.8748-1.8745 6.875-5.625-1.6e-4 -0.83281-0.625-1.25-1.875-1.25-1.6667 4.7e-4 -4.1667 0.41719-7.5 1.25-2.9167 0.83437-5.0002 1.4594-6.25 1.875m403.75 416.88-3.125-4.375 5.625-8.125c0.41562-0.41719 0.625-1.25 0.625-2.5-4.7e-4 -0.83281-0.41719-1.25-1.25-1.25h-0.625c-2.0838 0.83281-3.7505 1.875-5 3.125-4.5838 5.8334-6.8755 8.9583-6.875 9.375-4.7e-4 3.3333 1.8745 5 5.625 5-4.7e-4 0 1.6662-0.41719 5-1.25m-16.25-10c-4.1672 0.83281-6.8755 1.25-8.125 1.25-2.0838 0-4.1672-1.0422-6.25-3.125-21.25 5-37.917 7.5-50 7.5-4.167 0-9.3755-0.20781-15.625-0.625-5.8338-0.83281-12.709-1.6666-20.625-2.5 20 6.25 35.833 9.375 47.5 9.375 14.583 0 32.291-3.9583 53.125-11.875m-13.75-6.875c-16.667 3.3334-26.042 5-28.125 5-12.5 0-18.75-2.9166-18.75-8.75-4.7e-4 -3.75 1.6662-6.25 5-7.5h1.25c4.1662 0 6.2495 1.4578 6.25 4.375l-0.625 1.25-0.625 1.875c-4.7e-4 0.83281 0.20781 1.25 0.625 1.25 5.4162 0 8.1245-2.0833 8.125-6.25-4.7e-4 -4.1666-3.3338-6.25-10-6.25-11.25 0-17.5 2.9167-18.75 8.75-0.41719 0.83281-0.83438 1.6667-1.25 2.5-4.7e-4 0.41719-4.7e-4 0.625 0 0.625-1.25 0-2.7088-0.83281-4.375-2.5-2.0838 1.25-3.1255 2.2917-3.125 3.125-4.7e-4 8.3334 7.4995 12.5 22.5 12.5 2.9162 0 16.666-2.5 41.25-7.5l0.625-2.5m-61.875 10-1.875-1.875-8.75-2.5c-4.5838-0.83281-6.8753-2.9166-6.875-6.25-3.1e-4 0-3.1e-4 -0.20781 0-0.625 0.41562-0.83281 0.83281-1.875 1.25-3.125-0.41719-0.41719-1.667-0.625-3.75-0.625-4.167 0-6.2503 1.4578-6.25 4.375-3.1e-4 6.6667 8.7497 10.208 26.25 10.625m-50.625-12.5h-11.875c7.083 5.4167 14.791 9.7917 23.125 13.125 8.333 2.9167 17.083 5.2083 26.25 6.875-7.0838-3.3333-13.75-6.6666-20-10-6.2503-3.3333-12.084-6.6666-17.5-10m-16.25 0-13.75-1.25c12.5 8.3334 27.083 14.167 43.75 17.5-5.417-2.0833-10.625-4.375-15.625-6.875-5.0003-2.9166-9.792-6.0416-14.375-9.375m28.125 19.375c-14.584-3.75-31.667-9.375-51.25-16.875-15-6.6666-26.459-10-34.375-10-12.5 0-18.75 4.1667-18.75 12.5-3.1e-4 7.5 5.2081 11.875 15.625 13.125-3.3336-4.5833-5.0003-7.2916-5-8.125-3.1e-4 -6.6666 4.7914-10 14.375-10 5.833 0 12.5 1.875 20 5.625 15.833 7.9167 35.625 12.5 59.375 13.75m-130 0c2.9164 1.25 5.4164 1.875 7.5 1.875 2.4997 0 5.2081-0.83281 8.125-2.5-3.3336-1.25-5.8336-1.875-7.5-1.875-2.5003 0-5.2086 0.83281-8.125 2.5m-48.125-14.375h2.5c8.7498 0 16.875 2.5 24.375 7.5 5.4164 3.75 9.9998 5.2083 13.75 4.375l8.75-2.5 12.5-2.5c1.6664-0.41719 1.0406-3.125-1.875-8.125-2.9169-5.4166-4.3753-8.9583-4.375-10.625-3.1e-4 -0.83281 1.0406-2.9166 3.125-6.25-5.4169 0-9.1669 0.83281-11.25 2.5-1.6669 1.25-3.1252 4.5834-4.375 10-0.83438 5-1.8752 7.5-3.125 7.5-1.25 0-4.3752-1.25-9.375-3.75-5.0002-2.9166-9.1669-4.375-12.5-4.375-4.1669 0-10.209 2.0834-18.125 6.25m-91.875-48.75c-2.5002 5.8334-3.7502 10.833-3.75 15-1.6e-4 9.5834 1.6666 17.708 5 24.375 3.3333 6.6667 4.9998 11.042 5 13.125-1.6e-4 3.75-1.8752 6.4583-5.625 8.125 2.4998 1.25 4.3748 1.875 5.625 1.875 4.9998 0 7.4998-2.5 7.5-7.5-1.6e-4 -2.9166-1.25-6.0416-3.75-9.375-5.8334-8.75-8.9584-13.75-9.375-15-1.6667-2.9166-2.5002-7.2916-2.5-13.125-1.6e-4 -4.1666 0.625-10 1.875-17.5m13.75 32.5c-4.1667-8.3333-6.2502-15.625-6.25-21.875-1.6e-4 -12.5 6.2498-24.167 18.75-35 12.917-10.417 27.292-15.625 43.125-15.625 11.25 1.6e-4 23.333 3.9584 36.25 11.875l0.625-4.375c-14.167-7.9166-26.875-11.875-38.125-11.875-14.167 1.6e-4 -27.917 4.7917-41.25 14.375-16.25 11.25-24.375 23.333-24.375 36.25-1.6e-4 7.0834 3.7498 15.833 11.25 26.25m55.625-65.625c-11.25 0.83281-16.875 4.3752-16.875 10.625-1.6e-4 5.0002 1.6666 7.5002 5 7.5 1.6666 1.6e-4 3.7498-1.25 6.25-3.75-4.5834-0.83281-6.8752-2.2916-6.875-4.375-1.6e-4 -4.5833 4.1666-7.9166 12.5-10m-34.375 30.625c0.41719 0.83281 0.625 2.5002 0.625 5-1.6e-4 5.4167-1.6667 8.125-5 8.125-5.8334 0-8.7502-3.9583-8.75-11.875-1.6e-4 -16.25 15.625-27.917 46.875-35-33.75 2.0834-50.625 14.583-50.625 37.5-1.6e-4 10.833 3.9583 16.25 11.875 16.25 5.8331 0 8.7498-3.3333 8.75-10-1.6e-4 -2.0833-1.25-5.4166-3.75-10m268.75-187.5 6.25 6.25 3.75 4.375c1.25 1.25 2.2912 1.8753 3.125 1.875 1.25 3.1e-4 1.8745-1.0406 1.875-3.125-4.7e-4 -3.7497-5.0005-6.8747-15-9.375m23.125 6.25c-2.5005 3.1e-4 -3.7505 1.0422-3.75 3.125-4.7e-4 2.9169 1.25 4.3753 3.75 4.375 2.083 3.1e-4 3.1245-1.0422 3.125-3.125-4.7e-4 -2.9164-1.0422-4.3747-3.125-4.375m-6.25 8.75c-2.5005 3.1e-4 -3.7505 1.25-3.75 3.75-4.7e-4 2.0836 1.25 3.1253 3.75 3.125 2.083 3.1e-4 3.1245-1.0406 3.125-3.125-4.7e-4 -2.4997-1.0422-3.7497-3.125-3.75m-10.625-2.5c-2.0838 3.1e-4 -3.1255 1.0422-3.125 3.125-4.7e-4 2.5003 1.25 3.7503 3.75 3.75 2.083 3.1e-4 3.1245-1.0406 3.125-3.125-4.7e-4 -2.4997-1.25-3.7497-3.75-3.75m31.875-10c5.833 5.8336 8.7495 10.625 8.75 14.375-4.7e-4 2.0836-1.8755 3.7503-5.625 5 4.1662 0.83438 6.6662 1.25 7.5 1.25 3.3328 3.1e-4 4.9995-2.2914 5-6.875-4.7e-4 -6.2497-5.2088-10.833-15.625-13.75m-101.88 56.875c7.9162-1.25 15-1.8748 21.25-1.875 20.833 1.6e-4 31.25 9.7919 31.25 29.375-3.1e-4 4.1669-1.0422 7.9169-3.125 11.25-2.0838 3.3334-3.1253 5.0002-3.125 5l1.25 0.625 2.5-0.625 2.5 0.625 0.625 1.875v8.75l2.5 10-1.25 9.375c21.25 1.6e-4 33.541-5.4166 36.875-16.25 0.41562-2.4998 1.0406-3.7498 1.875-3.75 1.6662 1.6e-4 3.333 0.83281 5 2.5 1.25-6.6666 1.8745-11.667 1.875-15-4.7e-4 -5.4166-1.25-9.7914-3.75-13.125l-11.875-14.375c-0.83438-2.4998-1.25-3.7498-1.25-3.75-4.7e-4 -1.25 0.41562-1.8748 1.25-1.875 3.333 1.6e-4 6.6662 1.8752 10 5.625 8.7495 10.834 13.125 22.292 13.125 34.375-4.7e-4 7.9169-4.167 19.167-12.5 33.75 15.416-4.9998 23.125-15.625 23.125-31.875-4.7e-4 -27.916-20.834-47.708-62.5-59.375 14.166 13.75 21.25 26.042 21.25 36.875-4.7e-4 2.9169-0.625 4.3752-1.875 4.375-1.25 1.6e-4 -1.8755-2.9164-1.875-8.75-4.7e-4 -4.9998-6.667-15.416-20-31.25-2.917-1.6664-6.4588-2.4998-10.625-2.5h-0.625c8.333 5.8336 12.5 9.3752 12.5 10.625-3.1e-4 0.41719-0.20938 0.83438-0.625 1.25-0.41719-0.41562-0.83438-0.625-1.25-0.625l-6.25-5.625-7.5-4.375c-2.0838-1.25-3.9588-1.8748-5.625-1.875-1.667 1.6e-4 -2.5003 0.41719-2.5 1.25-3.1e-4 1.6669 2.083 2.9169 6.25 3.75 4.1662 0.41719 6.2497 1.6669 6.25 3.75l-0.625 0.625-1.25-0.625-22.5-6.875c-2.917 1.6e-4 -9.167 2.9169-18.75 8.75m116.88 68.75c-7.9172 11.667-16.875 17.5-26.875 17.5-4.167 1.6e-4 -9.5838-1.0422-16.25-3.125-6.667-2.0831-11.667-3.1248-15-3.125-2.5005 1.6e-4 -6.2503 1.25-11.25 3.75 1.25 2.0834 1.8747 3.5417 1.875 4.375-3.1e-4 2.5002-1.25 3.3334-3.75 2.5h-4.375c-7.917-0.41719-15.209 6.4584-21.875 20.625l6.875-1.25 11.875 3.75 8.75 1.875-1.875 5.625c5.4162 0.83281 9.9997 1.6667 13.75 2.5 3.7495 0.41719 7.083 0.625 10 0.625 6.6662 1.6e-4 16.041-4.1666 28.125-12.5-1.667 1.6667-4.167 2.5002-7.5 2.5-1.25 1.6e-4 -2.292-0.41719-3.125-1.25 0.41562-0.41719 0.83281-0.625 1.25-0.625l10-3.75 11.25-12.5c-9.167 7.9167-19.375 11.875-30.625 11.875-6.2505 1.6e-4 -9.3755-1.0422-9.375-3.125 0.83281-0.83281 1.8745-1.25 3.125-1.25-0.83438 1.6e-4 -0.83438 0.20781 0 0.625 1.25 1.6e-4 3.5412 0.20781 6.875 0.625h3.75c5.833 1.6e-4 11.666-1.6666 17.5-5 7.9162-5.4166 12.5-9.3748 13.75-11.875-4.7e-4 1.6e-4 -4.7e-4 -0.41719 0-1.25 0.41562-0.83281 0.83281-2.2916 1.25-4.375-2.0838 1.6669-4.5838 3.3334-7.5 5-2.5005 1.25-5.417 2.9167-8.75 5-0.83438 1.6e-4 -1.25-0.20781-1.25-0.625-4.7e-4 -0.41719 0.41562-1.0422 1.25-1.875l13.125-7.5 5.625-6.875-0.625-6.875m-163.75 63.75 5.625 0.625c-6.667-21.667-10-40.208-10-55.625-3.1e-4 -15 4.3747-31.875 13.125-50.625 0.83281-1.6664 3.1247-6.2498 6.875-13.75 4.1664-7.9164 10.208-18.75 18.125-32.5l11.875-21.875c-1.25-0.41719-2.292-0.625-3.125-0.625l-0.625-0.625c-1.667 3.1e-4 -2.7086 0.20937-3.125 0.625l-11.875 25.625-25 48.125c-7.5003 14.583-11.25 31.042-11.25 49.375-3.1e-4 12.5 3.1247 29.583 9.375 51.25m111.88-154.38v1.875c-4.7e-4 3.7502 1.8745 5.8336 5.625 6.25 0.83281 1.6e-4 3.1245 0.41719 6.875 1.25 3.7495 0.41719 9.1662 1.0422 16.25 1.875 9.9995 1.25 19.791 5.6252 29.375 13.125-7.9172-8.3331-14.167-12.916-18.75-13.75l-30.625-6.25-8.75-4.375m-156.25 33.125c17.916-16.666 31.875-25 41.875-25 4.9997 1.6e-4 7.9164 1.25 8.75 3.75 1.25 2.0836 2.2914 4.3752 3.125 6.875 0.83281 0.83437 1.6664 1.25 2.5 1.25l0.625-0.625c2.9164-0.41719 4.3747-2.9164 4.375-7.5v-1.25c-2.0836-7.4998-6.8753-11.25-14.375-11.25-12.5 3.1e-4 -28.125 11.25-46.875 33.75m44.375 14.375c0.41719-1.25 0.625-3.5414 0.625-6.875-3.1e-4 -7.4998-2.5003-11.25-7.5-11.25-5.0003 1.6e-4 -7.5003 2.5002-7.5 7.5-3.1e-4 2.5002 1.4578 4.5836 4.375 6.25 0.41719-4.1664 1.4578-6.2498 3.125-6.25 4.5831 1.6e-4 6.8747 3.1252 6.875 9.375v1.25m62.5-118.12c2.4997-3.7497 3.7497-12.291 3.75-25.625-3.1e-4 -5.833-0.625-14.375-1.875-25.625-0.41719-5.833-0.83438-10.833-1.25-15-3.1e-4 -4.583-3.1e-4 -8.333 0-11.25-3.1e-4 -12.5 2.083-18.75 6.25-18.75 1.6662 4.7e-4 3.333 0.83437 5 2.5 2.083-3.333 3.1247-5.4162 3.125-6.25-3.1e-4 -4.1662-2.5003-6.2495-7.5-6.25-8.7503 4.7e-4 -12.917 6.4588-12.5 19.375v3.125l6.25 56.25-1.25 27.5m9.375-71.25c1.6662 1.25 2.9162 1.8753 3.75 1.875-3.1e-4 -0.41563 0.83281-0.625 2.5-0.625l1.875-0.625c0.83281 3.1e-4 1.25 0.625 1.25 1.875v13.75c0.41562 0.41719-3.1e-4 2.917-1.25 7.5 4.9997-1.25 8.7497-2.708 11.25-4.375 2.4997-2.083 4.1662-3.958 5-5.625 1.25-1.6662 1.8747-3.1247 1.875-4.375 0.41562-1.25 0.83281-1.8747 1.25-1.875l3.125 3.125 2.5-8.125-0.625-9.375c-4.7e-4 -1.25 0.625-1.8747 1.875-1.875 1.25 3.1e-4 1.8745 2.0838 1.875 6.25v3.75c-1.25 4.5838-1.8755 8.1253-1.875 10.625-4.7e-4 3.3338 1.25 7.0838 3.75 11.25 2.4995-2.9162 4.583-4.3747 6.25-4.375 0.83281 3.1e-4 1.6662 0.625 2.5 1.875l2.5 6.25 9.375 7.5 2.5 5.625c4.583-8.333 6.8745-13.958 6.875-16.875-4.7e-4 -1.6662-0.41719-3.7497-1.25-6.25-0.41719-2.4997-0.625-4.3747-0.625-5.625l0.625-0.625c0.41562 3.1e-4 1.0406 0.625 1.875 1.875 1.25 0.83438 2.083 1.25 2.5 1.25 1.6662 3.1e-4 2.4995-2.2912 2.5-6.875-4.7e-4 -3.333-0.83438-5.833-2.5-7.5l-10.625-13.125c-0.83438-0.83281-1.25-1.4578-1.25-1.875 0.83281-0.83281 1.4578-1.25 1.875-1.25 0.83281 4.7e-4 1.8745 0.83438 3.125 2.5 2.083 3.7503 7.9162 7.917 17.5 12.5v-0.625c-4.7e-4 -1.25 0.625-1.8747 1.875-1.875h5l6.875-6.25c-4.7e-4 3.1e-4 -1.0422-0.41562-3.125-1.25-1.6672-1.25-3.5422-2.2912-5.625-3.125-1.6672-0.83281-3.3338-1.6662-5-2.5-1.667-1.25-2.5005-1.8745-2.5-1.875v-1.25l0.625-2.5-10.625-2.5-5-3.125-9.375-2.5c2.9162 2.5005 4.3745 4.5838 4.375 6.25-0.41719 0.41719-0.83438 0.625-1.25 0.625-1.25 4.7e-4 -2.5005-0.625-3.75-1.875l-6.875-6.875c-0.83438-1.25-2.0838-1.6662-3.75-1.25h-2.5c-0.41719 0.41719-0.625 1.0422-0.625 1.875-4.7e-4 7.5005 2.083 14.584 6.25 21.25 2.083 3.3338 3.1245 5.6253 3.125 6.875-4.7e-4 0.41719-0.41719 1.0422-1.25 1.875-1.667 3.1e-4 -3.9588-3.7497-6.875-11.25l-4.375-12.5v-9.375c-0.41719-0.41563-1.25-0.625-2.5-0.625-0.83438 4.7e-4 -1.4594-0.20781-1.875-0.625h-2.5c-2.5003 4.7e-4 -3.542 2.0838-3.125 6.25v6.25c0.41562 2.917-0.20938 4.3755-1.875 4.375-1.667 4.7e-4 -2.5003-1.6662-2.5-5-3.1e-4 0.83437 0.20781 0.20938 0.625-1.875 0.41562-2.4995 1.0406-6.458 1.875-11.875-3.3338-0.83281-5.0003-1.25-5-1.25-3.7503 4.7e-4 -6.8753 5.417-9.375 16.25-1.25 5.8338-5.0003 13.75-11.25 23.75m-56.25 300c2.9164 0.83281 5.6247 1.4578 8.125 1.875 2.9164 0.41719 6.0414 0.83281 9.375 1.25l2.5-6.25 1.25-6.25 0.625-0.625c-3.1e-4 -0.41719 0.20781-0.83281 0.625-1.25 1.25 1.6e-4 1.8747 0.83281 1.875 2.5-3.1e-4 -0.83281-1.4578 3.1252-4.375 11.875 4.1664 1.25 7.4997 1.875 10 1.875l6.875-0.625c3.7497-4.1666 5.833-8.9583 6.25-14.375h-5.625c-0.83438 1.6e-4 -1.25-0.625-1.25-1.875l0.625-6.25c0.41562-4.1666-3.1253-9.9998-10.625-17.5l-6.25 8.125-6.875 6.875c-0.41719 0.41719-1.0422 1.6667-1.875 3.75-0.41719 2.0834-0.83438 3.1252-1.25 3.125-0.41719 1.6e-4 -1.0422-0.41719-1.875-1.25l-2.5-4.375-3.125 2.5c-2.0836 2.0834-3.1253 5.8334-3.125 11.25l0.625 5.625m-24.375-26.25c-1.6669-20.417-7.9169-30.625-18.75-30.625-10.834 1.6e-4 -16.25 4.7919-16.25 14.375-3.1e-4 10 4.3747 15 13.125 15l1.875-0.625 4.375-2.5-1.25-0.625h-3.125c-5.8336 1.6e-4 -8.7503-2.9166-8.75-8.75-3.1e-4 -7.4998 3.7497-11.25 11.25-11.25 6.2497 1.6e-4 12.083 8.3334 17.5 25m-180 48.75c2.0833 4.5834 3.9583 8.3334 5.625 11.25 2.0833 2.5 3.5416 4.1667 4.375 5 1.6666 1.6667 8.1248 2.5 19.375 2.5h4.375l-1.25 1.875c-2.0834 0.41719-4.1667 0.83281-6.25 1.25-2.0834 0.41719-4.5834 0.83281-7.5 1.25 5.4166 2.5 9.9998 3.75 13.75 3.75 2.9166 0 6.6666-1.25 11.25-3.75 4.5831-2.5 7.4998-5 8.75-7.5l3.75-6.25c0.41719-1.25 1.25-1.875 2.5-1.875 0.83281 0 1.25 0.625 1.25 1.875-1.6e-4 5.8334-7.5002 12.5-22.5 20l9.375-0.625 5-3.75h1.25c0.41719 0 0.625 0.20781 0.625 0.625-1.6e-4 2.0834-0.83281 3.3334-2.5 3.75 11.25-1.6666 20.833-6.4583 28.75-14.375 5.4164-4.5833 10.416-7.2916 15-8.125-1.25-1.6666-2.7086-3.75-4.375-6.25-2.0836-1.25-3.9586-1.875-5.625-1.875l-5 0.625c-1.6669 0-2.5002-0.41719-2.5-1.25-1.6e-4 -0.41719 0.41719-1.6666 1.25-3.75 0.83281-2.5 1.25-5 1.25-7.5-1.6e-4 -4.5833-1.8752-9.5833-5.625-15-3.3334-5.8333-5.0002-10.208-5-13.125l-0.625-6.25c-2.9169 1.6e-4 -6.8752 3.7502-11.875 11.25-1.6e-4 1.6e-4 -0.625 1.25-1.875 3.75-0.83281 2.5002-1.8752 4.7917-3.125 6.875-0.83281 1.6667-1.25 2.7084-1.25 3.125-0.41719 1.6e-4 -1.4578-0.20781-3.125-0.625-1.6669-0.41719-2.9169-0.625-3.75-0.625-1.6669 1.6e-4 -3.3334 1.25-5 3.75 2.9166 5.4167 4.3748 9.7917 4.375 13.125-1.6e-4 12.083-6.8752 18.125-20.625 18.125-5.8334 0-13.333-3.75-22.5-11.25m440.62-143.12c-2.5005 0.83438-3.7505 1.6669-3.75 2.5v1.875l2.5 7.5c2.4995 10 3.7495 21.042 3.75 33.125-4.7e-4 7.0834-0.625 13.125-1.875 18.125l-5.625 23.125c-3.7505 16.25-8.3339 24.375-13.75 24.375h-0.625l-1.875-2.5h-0.625c-2.5005 1.6e-4 -6.0422 2.2917-10.625 6.875-20 22.083-35.209 33.125-45.625 33.125-1.6672 0-2.7088-0.20781-3.125-0.625l-8.125-4.375c-0.41719-0.41719-1.25-0.625-2.5-0.625s-1.8755 0.83281-1.875 2.5c-4.7e-4 7.0834 5.4162 10.625 16.25 10.625 3.3328 0 5.4162-0.20781 6.25-0.625h3.125c0.41562 0 0.625 0.20781 0.625 0.625-4.7e-4 0.83281-0.20938 2.2917-0.625 4.375-0.41719 2.0834-0.625 3.3334-0.625 3.75h2.5c13.75 0.41719 23.75-5 30-16.25 4.9995-9.1666 8.9578-13.75 11.875-13.75 2.0828 0 3.1245 1.25 3.125 3.75-4.7e-4 2.0834-2.0839 4.5834-6.25 7.5-5.8339 3.75-8.7505 9.1667-8.75 16.25-4.7e-4 1.6667-4.7e-4 3.5417 0 5.625 0.41562 2.0834 0.83281 4.1667 1.25 6.25 0.83281 0 2.4995-0.625 5-1.875 2.9161-1.6666 4.5828-2.5 5-2.5 2.0828 0 4.5828 1.4578 7.5 4.375 3.3328 2.9167 6.0411 4.5833 8.125 5h2.5c9.9995 0.83281 14.999-3.125 15-11.875-6.3e-4 -0.83281-0.20938-1.4578-0.625-1.875l-6.25-11.875c-0.41719-0.41719-0.625-1.6666-0.625-3.75-4.7e-4 -4.5833 1.6661-6.875 5-6.875-4.7e-4 0 0.20781 0.20781 0.625 0.625 0.83281 0 1.8744 0.20781 3.125 0.625-0.83438-5-2.5005-7.5-5-7.5l-1.875 0.625c-3.7505 1.25-5.6255 3.9584-5.625 8.125-4.7e-4 3.3334 1.6661 8.75 5 16.25 1.25 2.0834 1.8745 4.1667 1.875 6.25-4.7e-4 2.5-1.0422 3.75-3.125 3.75-7.0839 0-10.625-5.8333-10.625-17.5-4.7e-4 -3.3333 2.9161-10.417 8.75-21.25 1.25-2.9166 1.8745-5.2083 1.875-6.875-4.7e-4 -1.6666-1.0422-3.125-3.125-4.375-1.6672-1.6666-2.5005-2.7083-2.5-3.125l0.625-1.875c8.7495-31.25 13.124-53.958 13.125-68.125-6.3e-4 -10.833-2.9172-26.667-8.75-47.5m-168.75-104.38-0.625 1.875c27.083-4.583 40.625-14.791 40.625-30.625-4.7e-4 -13.333-6.8755-20-20.625-20-12.5 3.1e-4 -18.75 5.8338-18.75 17.5-3.1e-4 7.917 2.9162 11.875 8.75 11.875-3.1e-4 3.1e-4 1.6662-1.0422 5-3.125-5.0003-1.6664-7.5003-3.958-7.5-6.875-3.1e-4 -6.6662 3.7497-9.9997 11.25-10 9.583 3.1e-4 14.375 4.792 14.375 14.375-4.7e-4 10.417-10.834 18.75-32.5 25m71.875-29.375c-2.917-2.9164-4.3755-5.833-4.375-8.75-4.7e-4 -5.833 3.7495-8.7497 11.25-8.75 8.3328 3.1e-4 12.5 4.167 12.5 12.5-4.7e-4 12.5-10.417 20.417-31.25 23.75l-20 3.125-5 2.5c20.416-1.25 35.416-3.1247 45-5.625 17.5-5.4164 26.25-15.833 26.25-31.25-4.7e-4 -7.083-3.9588-15.833-11.875-26.25-1.25 0.83438-2.0838 2.917-2.5 6.25-0.41719 3.3338-1.4594 5.0003-3.125 5-0.83438 3.1e-4 -2.2922-0.20781-4.375-0.625-1.6672-0.41562-2.9172-0.625-3.75-0.625-12.5 3.1e-4 -18.75 6.2503-18.75 18.75-4.7e-4 7.917 2.4995 11.875 7.5 11.875 0.41562-0.41562 0.83281-0.625 1.25-0.625 0.41562-0.41719 0.83281-0.83281 1.25-1.25m-77.5 43.125c9.1662-1.6664 16.875-2.9164 23.125-3.75 6.6662-0.83281 12.291-1.25 16.875-1.25 4.583 3.1e-4 8.958 0.41719 13.125 1.25 4.583 0.41719 9.1662 1.0422 13.75 1.875l47.5 10 16.875 1.25-0.625-1.875-27.5-4.375-41.875-8.75c-2.5005-0.41719-5.2088-0.625-8.125-0.625-2.5005-0.41562-5.2088-0.625-8.125-0.625-8.3338 3.1e-4 -22.5 1.25-42.5 3.75l-2.5 3.125m-1.25-5.625 2.5 0.625 25.625-3.75 51.25-1.875c20.416-1.25 42.916-8.958 67.5-23.125l-3.125-3.125c-12.084 5.417-22.709 9.792-31.875 13.125-8.7505 3.3336-16.042 5.417-21.875 6.25-2.9172 0.41719-7.9172 0.83281-15 1.25-6.667 0.41719-15.834 1.0422-27.5 1.875-15.834 0.83281-30.834 2.7086-45 5.625l-2.5 3.125m-7.5 12.5 9.375 3.75c5.833-0.41562 11.458-0.625 16.875-0.625 5.833-0.41719 11.666-0.625 17.5-0.625 27.5 3.1e-4 58.958 10.834 94.375 32.5l6.875-1.25c-37.084-25-74.167-37.5-111.25-37.5-8.3338 3.1e-4 -19.584 1.25-33.75 3.75m15 6.25 1.875 1.875c12.083 0.83438 18.125 5.2086 18.125 13.125-4.7e-4 5.0003-1.8753 7.5003-5.625 7.5l-3.125-0.625c2.4997 3.7503 4.3747 5.6253 5.625 5.625 6.6662 3.1e-4 9.9995-3.7497 10-11.25-4.7e-4 -10.416-8.9588-15.833-26.875-16.25m116.25-86.875c-1.25 7.0838-1.8755 12.709-1.875 16.875-4.7e-4 5.8338 2.9162 12.917 8.75 21.25l2.5-2.5c-6.2505-9.9997-9.3755-17.916-9.375-23.75-4.7e-4 -0.83281-4.7e-4 -2.083 0-3.75 0.41562-2.083 0.83281-4.3747 1.25-6.875l-1.25-1.25m31.25 50.625 1.875 1.875c3.7495-1.25 7.2911-1.8747 10.625-1.875 9.5828 3.1e-4 14.166 6.8753 13.75 20.625v1.25h3.125c-0.41719-16.666-6.0422-25-16.875-25-2.0839 3.1e-4 -6.2505 1.0422-12.5 3.125m-10.625-1.875c-0.83438 0.83438-1.25 1.4578-1.25 1.875-4.7e-4 3.1e-4 0.41562 0.625 1.25 1.875 0.83281 1.25 2.2911 2.917 4.375 5 0.83281 0.83438 1.8745 2.0836 3.125 3.75 1.25 1.25 2.9161 2.917 5 5l3.125-2.5c-6.2505-6.6664-11.459-11.666-15.625-15m-34.375 13.75 1.875-0.625c11.25 3.1e-4 16.875 2.0836 16.875 6.25-4.7e-4 3.1e-4 -0.20938 0.41719-0.625 1.25-4.7e-4 0.41719-0.20938 1.25-0.625 2.5 4.1661-2.9164 6.2495-5.208 6.25-6.875-4.7e-4 -4.583-3.5422-6.8747-10.625-6.875-4.5838 3.1e-4 -8.9588 1.4578-13.125 4.375m-6.875 26.25c6.6662 3.7503 11.458 5.6253 14.375 5.625 4.9995 3.1e-4 7.4995-1.6664 7.5-5-4.7e-4 -1.6664-0.83438-2.4997-2.5-2.5-0.41719 3.1e-4 -1.25 0.625-2.5 1.875-0.83438 0.83438-2.9172 1.25-6.25 1.25-1.6672 3.1e-4 -3.3338 3.1e-4 -5 0-1.6672-0.41562-3.5422-0.83281-5.625-1.25m43.125-26.875c-7.9172 12.917-11.667 25.625-11.25 38.125v6.875l3.125-0.625c-4.7e-4 -15.416 3.3328-29.583 10-42.5l-1.875-1.875m25-2.5c-7.0839 9.5836-16.042 16.042-26.875 19.375v2.5c11.25-3.3331 21.041-9.3747 29.375-18.125l-2.5-3.75m-2.5 12.5-2.5 3.125c1.6661 2.0836 3.1245 4.3753 4.375 6.875 1.6661 2.5003 3.3328 4.7919 5 6.875l0.625-4.375c-2.0839-4.9997-4.5839-9.1664-7.5-12.5m13.125 15c-4.5839 12.084-10 18.125-16.25 18.125-5.4172 3.1e-4 -8.1255-2.4997-8.125-7.5-4.7e-4 -4.1664 3.1245-8.5414 9.375-13.125-9.5839 3.7503-14.375 8.7503-14.375 15-4.7e-4 7.0836 3.5411 10.625 10.625 10.625 9.5828 3.1e-4 15.833-7.7081 18.75-23.125m0 20-1.25 1.25c0.41562 3.7503 0.625 7.2919 0.625 10.625 0.41562 2.9169 0.625 5.4169 0.625 7.5-4.7e-4 5.4169-1.6672 12.709-5 21.875-4.5839 10-9.3755 15-14.375 15-2.9172 1.6e-4 -7.7089-1.8748-14.375-5.625 6.2495 6.2502 11.041 9.3752 14.375 9.375 4.5828 1.6e-4 9.1661-2.9164 13.75-8.75 5.4161-7.9164 8.1244-16.25 8.125-25-6.3e-4 -3.7497-0.20938-7.7081-0.625-11.875-0.41719-4.5831-1.0422-9.3747-1.875-14.375m-24.375 43.125c0.83281 1.6669 1.4578 3.1252 1.875 4.375 0.41562 0.83438 0.83281 1.6669 1.25 2.5h1.875l-5-6.875m-0.625-7.5c2.9161 4.5836 5.4161 8.9586 7.5 13.125l4.375-3.75c-3.3339-7.4998-6.0422-11.25-8.125-11.25-0.83438 1.6e-4 -2.0839 0.625-3.75 1.875m11.25 26.875-2.5 1.25c0.41562 3.3336 0.625 6.6669 0.625 10 0.41562 2.9169 0.625 5.8334 0.625 8.75-4.7e-4 14.583-3.9589 22.083-11.875 22.5h-0.625c-2.0839 1.6e-4 -3.7505-0.20781-5-0.625v2.5c-4.7e-4 1.6669 0.20781 2.9169 0.625 3.75 2.0828 0.41719 3.5411 0.83281 4.375 1.25 1.25 1.6e-4 1.8745 1.6e-4 1.875 0h0.625c9.5828-2.0831 14.375-10.833 14.375-26.25-4.7e-4 -3.3331-0.41719-6.8748-1.25-10.625-0.41719-3.7498-1.0422-7.9164-1.875-12.5m1.875 48.125c-3.7505 4.5834-6.6672 9.7919-8.75 15.625h3.75c4.1661-4.1666 6.2495-7.7081 6.25-10.625-4.7e-4 1.6e-4 -0.41719-1.6666-1.25-5m-245 34.375c6.6664-12.5 17.5-18.75 32.5-18.75 18.333-0.83281 27.5-3.1248 27.5-6.875-3.1e-4 -0.83281-1.25-1.8748-3.75-3.125-2.0838-1.25-3.1253-1.8748-3.125-1.875 0.41562-1.6666 2.083-2.0831 5-1.25h5c8.7497 1.6e-4 17.708-5.8331 26.875-17.5l-13.125-5-11.875-10-4.375-1.25c-1.25-0.41719-1.8753-1.0422-1.875-1.875v-1.875l3.125-1.875 1.25-5.625-13.125 3.125-15 1.875c-4.5836 0.41719-10.417 3.1252-17.5 8.125-0.83281 0.83281-1.4578 1.25-1.875 1.25-0.41719-0.41719-0.625-0.83281-0.625-1.25v-1.25c1.6664-5.8331 5.208-10.416 10.625-13.75l25-14.375c6.2497-2.0831 12.291-3.1248 18.125-3.125 6.6662 1.6e-4 13.125 1.25 19.375 3.75 0.41562 0.41719 1.25 0.625 2.5 0.625v-0.625c-3.1e-4 -1.25-4.3753-3.7498-13.125-7.5l4.375-0.625c-7.0838-1.6664-14.375-2.4998-21.875-2.5-17.5 1.6e-4 -33.959 10.625-49.375 31.875-6.2503 8.7502-9.3753 16.667-9.375 23.75-3.1e-4 3.3334 0.625 5.0002 1.875 5h2.5l-0.625 2.5-5 7.5c-0.83438 2.5002-1.25 3.5419-1.25 3.125-3.1e-4 0.41719 0.41719 0.625 1.25 0.625 2.4997 1.6e-4 5.833-2.7081 10-8.125 5.833-7.4998 16.041-11.667 30.625-12.5h1.875c-3.1e-4 1.25-6.2503 3.3334-18.75 6.25-10.834 3.3334-18.959 12.083-24.375 26.25 1.6664-0.41719 2.9164-0.83281 3.75-1.25 0.83281-0.41719 3.7497-3.5416 8.75-9.375 1.6664-2.4998 4.3747-3.7498 8.125-3.75 1.25 1.6e-4 1.8747 0.20781 1.875 0.625-3.1e-4 1.6669-1.8753 3.3334-5.625 5-6.2503 2.5002-11.875 8.9584-16.875 19.375l0.625 6.25m-97.5-15c2.0831 0.83281 3.9581 1.8752 5.625 3.125 1.6664 1.25 3.5414 2.2917 5.625 3.125 3.7498-26.667 8.7498-44.375 15-53.125l18.125-24.375c2.9164-4.1664 4.3747-10.208 4.375-18.125v-6.875c-3.1e-4 -3.3331-0.20938-6.0414-0.625-8.125l-5 2.5-5 3.75c-0.83438 0.83438-1.6669 1.25-2.5 1.25-0.83281 1.6e-4 -1.25-0.41562-1.25-1.25v-1.25l7.5-20.625c0.41562-0.41719 0.625-1.4578 0.625-3.125-1.6e-4 -7.9164-6.4586-15.625-19.375-23.125v1.25c-1.6e-4 0.83438-0.41719 1.6669-1.25 2.5-1.6e-4 3.1e-4 -1.25-0.83281-3.75-2.5-2.0836-1.6664-4.5836-2.4997-7.5-2.5-6.6669 3.1e-4 -10 1.8753-10 5.625l0.625 4.375c1.6664-0.41719 2.9164-0.625 3.75-0.625 0.83281-0.41562 1.6664-0.625 2.5-0.625 9.5831 3.1e-4 14.375 8.1253 14.375 24.375-1.6e-4 5.0003-0.625 10-1.875 15l-11.25 38.125c-2.0836 7.9169-3.9586 17.083-5.625 27.5-1.25 10-2.2919 21.25-3.125 33.75m0 15c0.83281 23.333 7.4998 45.625 20 66.875 3.3331 0.41719 5.6248 1.25 6.875 2.5 2.9164 2.9167 5.2081 4.375 6.875 4.375 0.83281 0 1.25-0.20781 1.25-0.625l-1.25-5.625v-1.875l2.5-1.25c0.41719-0.41719 0.625-1.0422 0.625-1.875-1.6e-4 -1.25-1.6669-4.7916-5-10.625-5.8336-9.5833-8.7502-22.708-8.75-39.375-1.6e-4 -16.667 3.7498-32.292 11.25-46.875 7.4998-14.167 15.833-21.25 25-21.25 6.6664 1.6e-4 9.9997 2.7084 10 8.125-3.1e-4 5.0002-1.4578 7.7084-4.375 8.125l-15.625 3.75c-5.4169 1.6669-8.1252 5.2084-8.125 10.625-1.6e-4 4.1669 1.8747 6.2502 5.625 6.25h2.5c-1.25-1.6666-1.8753-3.5416-1.875-5.625-3.1e-4 -3.7498 1.4578-5.6248 4.375-5.625l17.5-0.625c7.4997 1.6e-4 11.458-5.2081 11.875-15.625 0.41719 1.6e-4 2.2914 0.41719 5.625 1.25 0.41562-2.0831 0.625-3.7498 0.625-5 0.41719-1.6666 0.625-3.1248 0.625-4.375-3.1e-4 -9.9998-5.0003-15.417-15-16.25-1.6669-0.41719-2.5003-0.83281-2.5-1.25l1.25-1.25 5-3.125 3.125-6.25c-7.0836-2.9164-13.125-4.3748-18.125-4.375-7.0836 1.6e-4 -14.584 5.2086-22.5 15.625-13.334 15.833-20.834 31.25-22.5 46.25-2.0836 23.75-4.1669 35.625-6.25 35.625-2.5002 1.6e-4 -3.3336-1.6666-2.5-5v-2.5c-2.5002-1.6666-5.2086-2.7083-8.125-3.125m100.62-301.88h3.75c4.1664 4.7e-4 8.1247 1.8755 11.875 5.625-1.25-6.6662-3.3336-9.9995-6.25-10-1.25 4.7e-4 -2.5003 0.20938-3.75 0.625-1.25 4.7e-4 -2.7086 0.20938-4.375 0.625l-1.25 3.125m36.25 114.38 8.75-3.125-5.625-18.125-5-8.125c-0.41719-0.41719-0.625-1.25-0.625-2.5l0.625-0.625c2.083 3.1e-4 3.958 2.292 5.625 6.875 2.083 4.167 5.208 11.042 9.375 20.625-0.41719-4.9997-2.0838-9.9997-5-15-2.917-5.4164-4.3753-8.333-4.375-8.75 0.83281-0.83281 1.4578-1.25 1.875-1.25 1.6664 3.1e-4 3.5414 2.292 5.625 6.875 0.41562 1.667 1.0406 3.3336 1.875 5 0.83281 1.667 1.6662 3.542 2.5 5.625-0.83438-7.4997-2.0838-13.75-3.75-18.75-1.25-4.9997-2.7086-8.958-4.375-11.875-6.2503-10.416-9.3753-16.875-9.375-19.375-3.1e-4 -0.41562 0.20781-0.625 0.625-0.625 4.583 3.1e-4 8.333 5.2088 11.25 15.625 0.83281 2.0838 1.6662 4.792 2.5 8.125 1.25 2.917 2.708 6.667 4.375 11.25v-14.375l-6.25-17.5v-1.25c-3.1e-4 -1.25 0.20781-2.083 0.625-2.5 1.6662 3.1e-4 3.958 4.5838 6.875 13.75-3.1e-4 -11.666-4.3753-23.541-13.125-35.625-3.3336-4.1662-6.667-9.7912-10-16.875v-1.25c1.25 4.7e-4 4.583 4.5838 10 13.75 0.83281 2.917 3.958 7.0838 9.375 12.5l-1.25-8.75-6.875-10.625-0.625-1.875c-3.1e-4 -0.41562 0.20781-0.625 0.625-0.625 2.083 4.7e-4 4.1662 2.5005 6.25 7.5-0.41719-4.9995-1.25-8.5412-2.5-10.625-1.667-2.083-2.917-3.5412-3.75-4.375-0.41719-0.83281-0.83281-1.4578-1.25-1.875v-0.625c0.83281-0.83281 1.8747-1.25 3.125-1.25l-2.5-10h-8.75l-1.25 7.5c-0.41719 0.41719-0.83281 0.625-1.25 0.625-1.667-1.6662-5.2086-3.5412-10.625-5.625-1.25 2.0838-1.8753 3.7505-1.875 5-3.1e-4 5.0005 1.8747 9.3755 5.625 13.125l8.125 10c3.333 3.3338 4.9997 7.5003 5 12.5-3.1e-4 2.5003-0.41719 3.7503-1.25 3.75-2.5003 3.1e-4 -4.5836-3.958-6.25-11.875-1.667-6.2495-5.417-9.7912-11.25-10.625l-0.625 0.625-0.625 2.5c-0.83438 1.25-1.4578 1.8755-1.875 1.875-0.41719 4.7e-4 -0.83281-0.20781-1.25-0.625l-5.625-6.25-15-3.125c0.83281 1.667 1.25 3.3338 1.25 5 0.41719 1.25 0.83281 2.292 1.25 3.125 0.41719 5.8338 1.0422 9.167 1.875 10l7.5 8.125-1.25 1.25-3.75 1.25c-0.41719 3.1e-4 -0.625 0.41719-0.625 1.25v0.625c1.25 4.5838 4.3747 7.7088 9.375 9.375l11.875 4.375c6.2497 2.0838 9.3747 5.2088 9.375 9.375-3.1e-4 1.25-0.41719 1.8753-1.25 1.875-0.41719 3.1e-4 -2.292-1.8747-5.625-5.625-3.3336-3.7497-7.5003-5.6247-12.5-5.625-2.0836 3.1e-4 -3.1253 0.83438-3.125 2.5l0.625 1.875 3.125 6.25v0.625c-3.1e-4 0.83438-2.292 1.667-6.875 2.5-5.8336 3.1e-4 -8.7503 3.3338-8.75 10-3.1e-4 6.667 3.5414 10 10.625 10l2.5-0.625c-1.667-1.6664-2.5003-3.5414-2.5-5.625-3.1e-4 -2.4997 2.2914-3.7497 6.875-3.75 9.583 3.1e-4 17.291 11.042 23.125 33.125m-122.5-144.38c-0.83281 0.41719-2.5002 0.625-5 0.625-5.4169 4.7e-4 -8.1252-1.8745-8.125-5.625-1.6e-4 -7.9162 8.7498-11.875 26.25-11.875 2.0831 4.7e-4 4.1664 0.20938 6.25 0.625 2.0831 4.7e-4 4.1664 0.20938 6.25 0.625l23.75 5.625c-18.75-7.0828-33.125-10.625-43.125-10.625-19.167 4.7e-4 -28.75 5.6255-28.75 16.875v1.875c1.6664 5.417 5.6248 8.1255 11.875 8.125 3.3331 4.7e-4 6.8748-2.083 10.625-6.25m12.5 134.38 8.125-10.625c0.41562 3.1e-4 0.625 0.625 0.625 1.875-1.6e-4 2.917-0.83281 5.2086-2.5 6.875 4.5831-5.4164 7.9164-11.666 10-18.75 0.83281-1.6664 1.4578-2.708 1.875-3.125 0.83281 3.1e-4 1.25 1.0422 1.25 3.125-3.1e-4 3.1e-4 -0.41719 1.25-1.25 3.75-0.41719 2.0836-1.25 5.417-2.5 10 7.4997-15.416 11.25-27.708 11.25-36.875-3.1e-4 -3.7497-0.625-6.6662-1.875-8.75-6.2503-9.1662-9.3752-14.375-9.375-15.625-1.6e-4 -1.25 0.625-1.8747 1.875-1.875 2.4997 3.1e-4 5.4164 3.1253 8.75 9.375l3.125 8.75c0.41719 2.0838 0.625 3.9588 0.625 5.625 0.41719 1.667 0.625 2.917 0.625 3.75-3.1e-4 6.667-1.6669 16.25-5 28.75 4.5831-5.833 7.4997-11.458 8.75-16.875 0.41719-1.6662 0.83281-2.4997 1.25-2.5 0.83281 0.83438 1.25 1.4594 1.25 1.875l-0.625 8.125 4.375-11.25-0.625-13.125c-3.1e-4 -1.25 0.41719-2.2912 1.25-3.125 2.0831 3.1e-4 3.1247 3.542 3.125 10.625-3.1e-4 3.7503-0.20938 6.2503-0.625 7.5 2.0831-3.333 3.1247-5.6247 3.125-6.875l-0.625-8.125c-3.1e-4 -1.6662 0.41562-2.4997 1.25-2.5 1.6664 3.1e-4 2.4997 1.667 2.5 5v1.25c2.0831-5.833 3.5414-11.041 4.375-15.625 0.83281-4.583 1.4578-8.5412 1.875-11.875 1.25-11.25 2.0831-17.083 2.5-17.5 1.25-5.4162 3.9581-10.416 8.125-15-10 0.41719-16.042 3.3338-18.125 8.75-0.83281 1.667-1.4578 2.7088-1.875 3.125-2.5003-3.333-3.9586-4.9995-4.375-5-5.4169 4.7e-4 -8.3336 5.0005-8.75 15-0.41719 0.83438-0.625 2.5003-0.625 5-3.1e-4 2.5003-0.20938 4.792-0.625 6.875l-4.375-12.5-5-22.5c-0.83438-4.583-5.0003-9.1662-12.5-13.75-7.5002-4.9995-13.75-7.4995-18.75-7.5-4.5836 4.7e-4 -9.1669 0.83438-13.75 2.5 1.6664 1.667 2.4998 3.7505 2.5 6.25-1.6e-4 0.41719-0.20938 0.83438-0.625 1.25l-2.5-0.625c-0.41719-0.41562-1.4578-0.625-3.125-0.625-1.25 4.7e-4 -2.0836-0.20781-2.5-0.625-12.5-0.83281-21.667-4.3745-27.5-10.625-1.25 6.2505-1.8752 12.292-1.875 18.125-1.6e-4 15 4.3748 25.209 13.125 30.625 8.7498 5.8338 13.125 9.792 13.125 11.875-1.6e-4 1.25-0.625 1.8753-1.875 1.875-0.83281 3.1e-4 -2.7086-1.25-5.625-3.75-2.0834-1.25-3.9584-1.8747-5.625-1.875-3.3334 3.1e-4 -5.0002 1.0422-5 3.125v1.875c2.9166 11.667 7.7081 17.709 14.375 18.125l16.875 0.625c2.4998 3.1e-4 3.7498 0.625 3.75 1.875-1.6e-4 0.83438-0.41719 1.667-1.25 2.5l-8.125 1.875c-5.4169 1.25-8.1252 5.0003-8.125 11.25-1.6e-4 3.7503 2.4998 8.1253 7.5 13.125 4.5831-7.083 8.5414-10.625 11.875-10.625 9.1664 3.1e-4 13.75 6.4586 13.75 19.375-1.6e-4 1.667-0.20938 3.1253-0.625 4.375-1.6e-4 1.25-0.20938 2.7086-0.625 4.375m-31.25 207.5v-11.875c-5.0002-2.4998-10.417-4.1666-16.25-5 2.0831 2.9167 4.3748 5.8334 6.875 8.75 2.9166 2.5002 6.0414 5.2084 9.375 8.125m-28.75-31.25c9.1666 1.6e-4 18.542 1.25 28.125 3.75l2.5-20c-12.083-20.833-20-35.625-23.75-44.375-1.6669-4.9998-3.3334-11.25-5-18.75-1.25-7.9164-2.2919-17.291-3.125-28.125-11.25-6.6664-21.458-9.5831-30.625-8.75h-6.875c0.83281 12.5 1.8748 23.75 3.125 33.75 1.6666 9.5836 3.5416 17.917 5.625 25 4.1666 13.75 14.167 32.917 30 57.5m1.25-105.62c1.25 10.834 2.2916 19.584 3.125 26.25 1.25 6.2502 2.7081 12.084 4.375 17.5 2.0831 5.4169 4.7916 11.25 8.125 17.5 3.3331 5.8334 7.9164 13.542 13.75 23.125l0.625-3.125c-13.333-26.25-21.458-51.458-24.375-75.625l-5.625-5.625m-39.375-26.25h11.25c5.8331-0.83281 14.375 1.6669 25.625 7.5 0.83281-11.666 1.8748-21.458 3.125-29.375 1.6666-8.333 3.3331-15.208 5-20.625 3.3331-11.666 10.208-26.458 20.625-44.375-10-2.9162-17.5-11.041-22.5-24.375-16.667 25-27.083 43.125-31.25 54.375-2.0834 5.8336-4.1667 13.542-6.25 23.125-2.0834 9.5836-3.9584 20.834-5.625 33.75m60.625-73.125c-7.9169 15.417-13.125 27.709-15.625 36.875-0.83281 4.5836-1.6669 10.625-2.5 18.125-0.83281 7.5003-1.6669 16.667-2.5 27.5l4.375 2.5c0.83281-10.833 1.4578-19.583 1.875-26.25 0.83281-6.6664 1.8748-12.5 3.125-17.5 1.25-4.9997 2.9166-10.208 5-15.625 2.0831-5.4164 5.2081-12.291 9.375-20.625l-3.125-5m94.375 283.12c32.083 8.3334 56.666 12.5 73.75 12.5 35 0 87.5-17.292 157.5-51.875v-115c-4.7e-4 -10.416 4.5828-16.458 13.75-18.125l10.625-2.5c2.9161-0.41719 4.3745-1.8748 4.375-4.375-4.7e-4 -0.83281-0.83438-2.0831-2.5-3.75-3.7505 2.5003-7.7089 4.1669-11.875 5-12.917 2.9169-19.375 12.292-19.375 28.125v107.5c-70 33.75-125 50.625-165 50.625-17.5 0-37.917-2.7083-61.25-8.125m-54.375-61.25c-0.41719 4.1667-0.83438 7.7084-1.25 10.625-1.6e-4 2.9167-1.6e-4 5.4167 0 7.5-1.6e-4 2.0834-1.6e-4 4.5834 0 7.5 0.41562 2.5002 0.83281 5.8334 1.25 10 43.75 20.833 84.583 31.25 122.5 31.25 32.5 0 84.375-16.458 155.62-49.375v-109.38c-4.7e-4 -13.75 6.2495-22.5 18.75-26.25l8.75-2.5c2.9161-0.41719 4.3745-1.6664 4.375-3.75-4.7e-4 -3.3331-4.5839-4.7914-13.75-4.375h-1.875l-53.75 3.125-46.25-1.875c-9.167-0.41719-13.75 0.625-13.75 3.125-4.7e-4 3.7503 3.1245 5.8336 9.375 6.25 20 2.5002 33.541 6.0419 40.625 10.625 7.4995 4.5836 11.25 12.292 11.25 23.125v90.625c-48.334 27.083-86.667 40.625-115 40.625-24.584 0-45.209-3.125-61.875-9.375-17.917-6.2498-39.584-18.75-65-37.5m22.5-120c0.83281 3.3336 1.25 6.8752 1.25 10.625 0.41719 3.3336 0.83281 6.6669 1.25 10 31.666-30.416 60.208-45.625 85.625-45.625 22.5 3.1e-4 33.75 6.6669 33.75 20-3.1e-4 2.5003-0.20938 4.1669-0.625 5 9.1662-1.25 13.75-4.3747 13.75-9.375-3.1e-4 -2.9164-0.83438-5.6247-2.5-8.125-1.667-2.4997-2.5003-3.7497-2.5-3.75 0.83281-0.83281 3.7497-2.0831 8.75-3.75-11.25-11.25-22.5-16.875-33.75-16.875-10 3.1e-4 -26.042 3.9586-48.125 11.875-7.0836 2.5003-11.459 4.3753-13.125 5.625-5.0003 3.7503-8.5419 5.6253-10.625 5.625l-0.625-0.625 1.875-1.875c5.4164-4.1664 11.458-7.4997 18.125-10 5.833-1.6664 11.458-3.1247 16.875-4.375 5.833-1.6664 11.666-3.3331 17.5-5 15.833-4.5831 25.833-9.3747 30-14.375-0.83438-0.41562-1.667-0.83281-2.5-1.25-0.83438-0.41719-1.667-0.83281-2.5-1.25 0.41562-1.25 1.6662-2.2914 3.75-3.125 7.9162-3.7497 11.875-9.1664 11.875-16.25-3.1e-4 -7.4997-2.917-11.25-8.75-11.25-0.83438 3.1e-4 -1.25 0.41719-1.25 1.25l1.875 6.25 0.625 1.875c-3.1e-4 4.167-3.1253 7.5003-9.375 10l-47.5 19.375c-17.5 7.0836-38.542 23.542-63.125 49.375m288.75-183.75c4.5828 11.667 6.8745 20 6.875 25-4.7e-4 1.667-0.20938 3.9588-0.625 6.875-4.7e-4 2.5003-0.20938 5.417-0.625 8.75l3.75 7.5c0.83281-5.4162 1.4578-9.9997 1.875-13.75 0.83281-3.7497 1.25-7.083 1.25-10-4.7e-4 -7.4995-2.0839-16.875-6.25-28.125l-6.25 3.75m-12.5 8.75-3.75 3.125c7.0828 2.5005 11.458 5.2088 13.125 8.125 1.6661 2.5005 2.4995 7.917 2.5 16.25l3.125 1.25v-2.5c-4.7e-4 -8.333-0.83438-13.958-2.5-16.875-1.25-2.9162-5.4172-6.0412-12.5-9.375m-1.875 25-1.25 2.5c12.5 7.917 20.208 15.417 23.125 22.5 0.83281 2.917 1.4578 7.292 1.875 13.125 0.83281 5.417 1.0406 12.5 0.625 21.25l-0.625 8.75 1.875 1.25c0.41562-2.083 0.625-4.7914 0.625-8.125v-7.5c-4.7e-4 -17.083-1.4594-28.333-4.375-33.75-2.5005-5.833-9.7922-12.5-21.875-20m15 25.625c-1.25 2.0838-2.5005 4.167-3.75 6.25-0.83438 1.667-1.6672 3.542-2.5 5.625l1.25 6.875c1.6661-2.083 3.1245-4.1662 4.375-6.25 1.6661-2.4997 2.9161-4.9997 3.75-7.5-0.83438-1.6662-1.8755-3.333-3.125-5m-6.875 2.5 5.625-8.75-2.5-2.5-4.375 9.375 1.25 1.875m5-73.75-6.25 3.75c-4.7e-4 1.667 2.0828 2.5005 6.25 2.5 6.2495 4.7e-4 9.3745-2.9162 9.375-8.75-4.7e-4 -0.83281-0.83438-1.25-2.5-1.25-1.6672 4.7e-4 -3.9589 1.25-6.875 3.75m-296.88 0.625c6.2497 3.7505 11.25 9.3755 15 16.875 33.75-12.916 65.833-19.375 96.25-19.375 85.416 4.7e-4 140 33.542 163.75 100.62 0.41562 2.0836 1.25 3.542 2.5 4.375 3.3328 3.1e-4 4.9995-3.7497 5-11.25-4.7e-4 -2.4997-0.20938-3.958-0.625-4.375l-15-61.25c-4.7e-4 4.7e-4 -0.20938-1.0406-0.625-3.125-4.7e-4 -2.083-0.20938-5.4162-0.625-10-4.7e-4 -3.333-0.625-4.9995-1.875-5-4.7e-4 4.7e-4 -1.8755 1.0422-5.625 3.125-3.7505 1.667-6.8755 2.5005-9.375 2.5-3.7505 4.7e-4 -9.5838-1.8745-17.5-5.625-43.75-18.75-83.125-28.125-118.12-28.125-26.667 4.7e-4 -64.375 6.8755-113.12 20.625m16.25 20 1.875 4.375c37.5-13.75 68.958-20.625 94.375-20.625 33.75 4.7e-4 73.333 12.084 118.75 36.25-33.75-26.25-75.417-39.375-125-39.375-24.167 4.7e-4 -54.167 6.4588-90 19.375m252.5-11.25c0.41562 7.5005 1.25 15.417 2.5 23.75 1.6661 8.3338 3.5411 17.292 5.625 26.875 4.9995 18.75 7.4995 30.209 7.5 34.375-4.7e-4 1.667-0.625 4.3753-1.875 8.125-0.41719 0.41719-0.625 1.0422-0.625 1.875-4.7e-4 0.83438 0.20781 1.25 0.625 1.25 4.5828 3.1e-4 6.8745-3.1247 6.875-9.375l-0.625-1.875-13.125-62.5-3.125-19.375-3.75-3.125m-180-35h11.875c5.833-7.0828 10.625-10.625 14.375-10.625 1.25 4.7e-4 3.5412 1.25 6.875 3.75v-1.875c-3.1e-4 -4.9995-3.7503-7.4995-11.25-7.5-8.7503 4.7e-4 -16.042 5.4172-21.875 16.25m101.88-15c-5.417 1.25-10 2.2922-13.75 3.125-3.7505 0.83438-6.8755 1.6672-9.375 2.5-7.5005 2.5005-13.334 3.7505-17.5 3.75-6.667 4.7e-4 -10-1.4578-10-4.375-3.1e-4 -2.4995 0.20781-4.3745 0.625-5.625-5.8338 2.0838-8.7503 4.3755-8.75 6.875-3.1e-4 7.0838 3.7497 10.625 11.25 10.625 0.83281 4.7e-4 16.666-5.6245 47.5-16.875m-7.5 7.5c-8.3338 3.3338-15.209 7.7088-20.625 13.125l2.5 1.25 3.125-1.875 1.25 2.5 3.125 1.25c1.6662-2.9162 3.333-5.6245 5-8.125 1.6662-2.9162 3.5412-5.6245 5.625-8.125m-1.875 15 1.25 3.75 2.5 0.625c7.9162-12.916 16.875-22.708 26.875-29.375-9.5838 0.41719-16.667 2.5005-21.25 6.25-4.5838 3.7505-9.5838 10.417-15 20l2.5 1.25 3.125-2.5m23.75-12.5c10.833-5.8328 20-8.7495 27.5-8.75 6.2495 4.7e-4 16.25 2.9172 30 8.75 1.25-0.41562 3.1245-0.625 5.625-0.625 0.83281 4.7e-4 1.8745 0.20938 3.125 0.625 1.25 4.7e-4 2.9161 0.20938 5 0.625-19.167-10.416-33.542-15.625-43.125-15.625-7.5005 4.7e-4 -16.875 5.0005-28.125 15m70.625-8.125 0.625-5c-4.1672 1.6672-6.2505 3.3338-6.25 5-4.7e-4 0.41719 2.2911 1.6672 6.875 3.75l-1.25-3.75m5.625 6.875 1.875 6.875 6.875 7.5c0.83281 2.5005 1.25 3.5422 1.25 3.125-4.7e-4 0.83438-0.625 1.25-1.875 1.25-0.83438 4.7e-4 -1.4594-0.20781-1.875-0.625l-9.375-10.625-13.125-1.25-1.25 3.75-15-1.875c-11.25 4.7e-4 -16.875 3.9588-16.875 11.875-4.7e-4 1.25 2.2912 3.542 6.875 6.875 0.41562-7.9162 2.9162-11.875 7.5-11.875 3.3328 4.7e-4 8.7495 1.6672 16.25 5 10.416 6.2505 18.541 9.3755 24.375 9.375 9.5828 4.7e-4 14.375-3.958 14.375-11.875l-6.875-18.125c-4.7e-4 -4.9995 2.2911-7.4995 6.875-7.5 4.1661 4.7e-4 6.2495 1.6672 6.25 5-4.7e-4 1.25-0.83438 3.1255-2.5 5.625-1.25 2.5005-1.8755 4.5838-1.875 6.25-4.7e-4 4.5838 1.6661 6.8755 5 6.875 1.25-0.41562 2.7078-1.4578 4.375-3.125-2.9172-1.25-4.3755-2.9162-4.375-5-4.7e-4 -1.6662 0.20781-2.7078 0.625-3.125l2.5-4.375c-4.7e-4 -8.3328-3.5422-12.5-10.625-12.5-5.0005 4.7e-4 -9.7922 4.7922-14.375 14.375l-5-1.875m-343.75-9.375c1.6666 1.6672 2.4998 3.7505 2.5 6.25v1.25c6.6666-0.83281 13.125-1.4578 19.375-1.875 6.6664-0.41562 13.333-0.625 20-0.625 16.25 4.7e-4 35.208 5.8338 56.875 17.5l7.5-1.875c-8.3336-4.5828-15.625-8.3328-21.875-11.25-6.2503-2.9162-11.459-4.9995-15.625-6.25-8.7502-2.9162-22.084-4.3745-40-4.375-4.5836 4.7e-4 -9.3752 0.20938-14.375 0.625-5.0002 4.7e-4 -9.7919 0.20938-14.375 0.625m110 19.375 1.875-0.625-6.875-12.5c-0.83438-1.25-2.0836-1.8745-3.75-1.875-1.25 4.7e-4 -1.8753 0.83438-1.875 2.5-3.1e-4 0.41719 0.20781 0.83438 0.625 1.25l10 11.25m-20-15-0.625 1.25c-3.1e-4 2.0838 1.0406 3.1255 3.125 3.125 1.25 4.7e-4 1.8747-0.625 1.875-1.875-3.1e-4 -2.0828-1.0422-3.1245-3.125-3.125l-1.25 0.625m5-7.5c-2.0836 4.7e-4 -3.1253 0.83438-3.125 2.5-3.1e-4 1.6672 1.25 2.5005 3.75 2.5 2.4997 4.7e-4 3.7497-1.0406 3.75-3.125-3.1e-4 -1.6662-1.25-2.2912-3.75-1.875h-0.625m13.125 0c-2.5003 4.7e-4 -3.7503 1.0422-3.75 3.125-3.1e-4 1.6672 1.4578 2.5005 4.375 2.5 2.0831 4.7e-4 3.1247-1.25 3.125-3.75-3.1e-4 -1.6662-1.25-2.2912-3.75-1.875m8.125 21.875 5.625-1.25v-3.125c-0.83438-7.4995 2.2914-11.25 9.375-11.25 2.9164 4.7e-4 5.833 1.4594 8.75 4.375-2.5003-6.6662-5.8336-9.9995-10-10-8.7503 4.7e-4 -13.334 7.0838-13.75 21.25m-127.5-11.875 0.625 6.875c0.83281 2.0838 2.0831 3.1255 3.75 3.125l0.625-0.625c2.4998-0.41562 3.7498-2.9162 3.75-7.5-1.6e-4 -7.4995-3.3334-11.25-10-11.25-1.25 4.7e-4 -1.8752 0.625-1.875 1.875v0.625l3.125 6.875m330.62 3.75c-12.084-3.7495-21.042-5.6245-26.875-5.625-7.5005 4.7e-4 -13.75 2.0838-18.75 6.25-5.0005 4.1672-7.5005 9.3755-7.5 15.625-4.7e-4 5.417 2.4995 8.1255 7.5 8.125 4.1662 4.7e-4 7.9162-4.1662 11.25-12.5-2.5005 2.5005-4.7922 3.7505-6.875 3.75-3.7505 4.7e-4 -5.6255-1.4578-5.625-4.375-4.7e-4 -8.7495 7.0828-13.125 21.25-13.125 1.6662 4.7e-4 4.1662 0.20938 7.5 0.625 3.3328 0.41719 7.9162 1.0422 13.75 1.875l4.375-0.625m27.5 323.12c-2.5005 1.6e-4 -3.7505 1.0422-3.75 3.125-4.7e-4 2.5002 1.25 3.7502 3.75 3.75 2.4995 1.6e-4 3.7495-1.25 3.75-3.75-4.7e-4 -2.0831-1.25-3.1248-3.75-3.125m0 10.625c-2.9172 1.6e-4 -4.3755 1.4578-4.375 4.375-4.7e-4 3.3334 1.6661 5.0002 5 5 2.4995 1.6e-4 3.7495-1.6666 3.75-5-4.7e-4 -2.9166-1.4594-4.3748-4.375-4.375m11.25 3.75c-2.0839 0.83281-3.1255 2.0834-3.125 3.75-4.7e-4 2.0834 0.83281 3.1252 2.5 3.125 2.4995 1.6e-4 3.7495-1.25 3.75-3.75-4.7e-4 -2.0833-1.0422-3.1248-3.125-3.125m-221.88-73.125c10.416-8.7498 19.166-15.208 26.25-19.375 7.4997-4.1664 12.5-7.0831 15-8.75 5.833-3.7498 8.7497-7.9164 8.75-12.5-3.1e-4 -8.3331-4.167-12.5-12.5-12.5-5.8338 3.1e-4 -9.5836 3.1253-11.25 9.375v1.875c-3.1e-4 4.1669 1.4578 6.2502 4.375 6.25 1.6662 1.6e-4 2.4997-0.83281 2.5-2.5l-0.625-0.625-1.875-4.375c-3.1e-4 -2.9164 1.6662-4.3747 5-4.375 3.7497 3.1e-4 5.6247 2.0836 5.625 6.25-3.1e-4 4.5836-3.542 9.1669-10.625 13.75l-16.25 11.25c-3.7503 3.3336-8.542 8.7502-14.375 16.25m-183.75-266.88c-4.1667 2.0838-8.3334 4.3755-12.5 6.875-4.1667 2.0838-8.5417 4.5838-13.125 7.5l21.25 1.25 13.125-10.625c3.3331-2.0828 5.8331-3.1245 7.5-3.125 1.6666 4.7e-4 2.4998 0.625 2.5 1.875-1.6e-4 2.5005-1.6669 4.7922-5 6.875l-15 7.5c-9.5834 4.5838-14.375 12.292-14.375 23.125-1.6e-4 3.3338 1.0422 9.167 3.125 17.5 1.6666-1.6662 3.1248-2.4995 4.375-2.5 1.25 4.7e-4 1.8748 0.83438 1.875 2.5l-0.625 8.125c-0.41719 10.417 6.2498 15.625 20 15.625 8.7498 3.1e-4 13.958-3.333 15.625-10v-1.25c-1.6e-4 -4.583-3.3334-9.3745-10-14.375-3.7502-2.9162-5.6252-4.9995-5.625-6.25-1.6e-4 -4.1662 1.8748-6.2495 5.625-6.25 1.6666 4.7e-4 4.1666 1.0422 7.5 3.125-3.3334-4.9995-6.0419-7.4995-8.125-7.5-6.6669 4.7e-4 -10 4.167-10 12.5-1.6e-4 3.3338 2.7081 7.0838 8.125 11.25 5.4166 4.167 8.1248 6.8755 8.125 8.125-1.6e-4 4.5838-2.5002 6.8753-7.5 6.875-10 3.1e-4 -15-7.083-15-21.25-1.6e-4 -4.9995 0.83281-8.958 2.5-11.875 2.0831-3.333 8.7498-11.25 20-23.75 6.2498-7.4995 9.3748-14.166 9.375-20-1.6e-4 -7.9162-4.5834-11.875-13.75-11.875-1.6e-4 4.7e-4 -7.9169 2.2922-23.75 6.875-1.6667 0.41719-3.1252 0.83438-4.375 1.25-1.25 4.7e-4 -2.7084 4.7e-4 -4.375 0-4.5834 4.7e-4 -9.5834-2.0828-15-6.25-1.6667 2.9172-2.5002 4.7922-2.5 5.625-1.6e-4 3.7505 4.3748 5.6255 13.125 5.625 3.7498 4.7e-4 9.3748-1.0406 16.875-3.125m35.625 410v-5c-1.6e-4 -2.0833 0.625-5.4166 1.875-10 0.41719 1.6667 0.625 3.125 0.625 4.375 0.41719 0.83281 0.625 1.6667 0.625 2.5-1.6e-4 2.0834-1.0422 4.7917-3.125 8.125m10-27.5c2.9166 2.9167 4.3748 5.8334 4.375 8.75-1.6e-4 2.9167-0.20781 5-0.625 6.25l-3.75-15m31.25-50c-1.6e-4 -1.6666-1.0422-3.1248-3.125-4.375-1.6669-1.25-2.5002-2.0831-2.5-2.5-1.6e-4 -3.3331 1.25-8.5416 3.75-15.625 1.25 3.7502 1.8748 11.25 1.875 22.5m-3.75 33.125 4.375 11.25v11.875l-3.125-12.5-1.25-10.625m-36.875 65.625c2.0831-1.6666 4.1666-3.125 6.25-4.375 2.0831-1.6666 4.1666-3.125 6.25-4.375-3.3334 4.5834-7.5002 7.5-12.5 8.75m178.12-126.88c2.083-0.41719 3.958-0.625 5.625-0.625 2.083-0.41719 3.5412-0.625 4.375-0.625 11.666 1.6e-4 19.166 0.83281 22.5 2.5l-10 1.875c-0.83438 1.6e-4 -3.1253-0.20781-6.875-0.625-3.3338-0.83281-8.542-1.6666-15.625-2.5m-21.25 23.75c1.25-0.41719 3.7497-0.625 7.5-0.625 0.83281 1.6e-4 1.8747 0.20781 3.125 0.625 1.25 1.6e-4 2.9164 0.20781 5 0.625-3.3336 1.25-5.6253 1.8752-6.875 1.875-2.917 1.6e-4 -5.8336-0.83281-8.75-2.5m-20.625-21.25v-2.5c-0.83281-2.9166 2.708-6.4581 10.625-10.625-1.25 1.25-2.917 2.9169-5 5-1.667 2.0834-3.542 4.7919-5.625 8.125m17.5-15c6.2497-6.6666 11.458-9.1664 15.625-7.5-6.2503 3.3334-11.459 5.8334-15.625 7.5m48.75 61.875c8.7497-3.3333 15-4.9998 18.75-5 4.583 1.6e-4 9.583 1.4578 15 4.375-2.5005-0.41719-4.792-0.625-6.875-0.625-1.667-0.41719-3.3338-0.625-5-0.625-3.3338 1.6e-4 -10.625 0.625-21.875 1.875m29.375 11.875c2.9162 1.6667 5.208 2.5002 6.875 2.5 3.333 1.6e-4 6.458-0.83281 9.375-2.5-1.25-0.41719-2.917-0.625-5-0.625h-3.125c-0.83438 1.6e-4 -2.292 0.20781-4.375 0.625-1.667 1.6e-4 -3.542 0.20781-5.625 0.625l1.875-0.625m-64.375 3.75 0.625-1.875c-3.1e-4 -3.3333 0.625-6.0416 1.875-8.125 0.41562 0.83281 0.625 2.2917 0.625 4.375-3.1e-4 0.41719-1.0422 2.2917-3.125 5.625m156.25 50c2.0828-1.6666 3.9578-3.3333 5.625-5 2.0828-1.6666 3.9578-3.5416 5.625-5.625-1.25 5.8334-5.0005 9.375-11.25 10.625m31.875-29.375c4.9995 0 8.1245 2.0834 9.375 6.25-4.5839-1.25-7.7089-3.3333-9.375-6.25m10 44.375c-2.9172-4.1666-4.3755-7.5-4.375-10-4.7e-4 -0.83281-4.7e-4 -1.875 0-3.125 0.41562-1.6666 0.83281-3.5416 1.25-5.625 0.41562 2.9167 0.83281 6.0417 1.25 9.375 0.41562 2.9167 1.0406 6.0417 1.875 9.375m-309.38-116.88c1.25-3.3331 3.1248-7.0831 5.625-11.25 2.9164-4.5831 6.4581-9.7916 10.625-15.625 6.6664-9.1664 10.416-14.166 11.25-15l-7.5 10c-4.1669 5.4169-7.9169 10.833-11.25 16.25-2.9169 5.0002-5.8336 10.208-8.75 15.625m1.25-223.12-13.125 1.875h-8.75l0.625-3.75-0.625-2.5c-1.6e-4 -1.25 0.625-1.8747 1.875-1.875 0.41719 0.41719 0.83281 0.625 1.25 0.625 0.41719 3.1e-4 0.83281 0.20938 1.25 0.625 2.0831 0.41719 4.5831 1.0422 7.5 1.875 2.9164 0.83438 6.2498 1.8753 10 3.125m17.5 337.5c0.83281-1.6666 1.25-3.3333 1.25-5 0.41562-1.6666 0.83281-3.3333 1.25-5 1.6664 1.6667 2.4997 3.5417 2.5 5.625-3.1e-4 0.83281-1.6669 2.2917-5 4.375m0.625-184.38c-3.1e-4 1.25-0.625 3.1252-1.875 5.625-1.25 2.0836-1.8752 3.3336-1.875 3.75-1.6e-4 2.9169-2.2919 6.2502-6.875 10 3.3331-3.7498 6.8748-10.208 10.625-19.375m294.38-226.88c-0.41719 1.6672-0.41719 3.1255 0 4.375h-1.875l-6.875 1.875c4.1661-2.083 7.0828-4.1662 8.75-6.25m-120.62 266.25c0.83281 4.1669 1.25 6.0419 1.25 5.625-4.7e-4 3.7502-0.41719 6.0419-1.25 6.875-4.7e-4 -0.83281-0.625-1.8748-1.875-3.125-0.83438-1.25-1.25-2.0831-1.25-2.5-4.7e-4 -1.25 1.0406-3.5416 3.125-6.875m15-9.375c4.9995 5.8334 7.4995 10 7.5 12.5l-1.875 0.625c-2.5005-4.1666-4.3755-8.5414-5.625-13.125m-6.875 32.5c-2.0838 3.7502-4.792 5.6252-8.125 5.625-2.0838 1.6e-4 -3.542-0.20781-4.375-0.625 1.6662-0.41719 3.333-0.83281 5-1.25 2.083-0.83281 4.583-2.0831 7.5-3.75m-166.88-77.5c4.9997-2.9164 13.75-10.416 26.25-22.5-6.2503 4.1669-10.625 7.0836-13.125 8.75-2.5003 2.0836-5.0003 4.5836-7.5 7.5-2.5003 2.5003-5.2086 5.4169-8.125 8.75l2.5-2.5m57.5-48.75c12.5-7.4997 25.208-12.708 38.125-15.625-5.417 3.3336-14.167 7.292-26.25 11.875l-11.875 3.75m23.125 8.125c5.4164-1.25 9.583-1.8747 12.5-1.875 10.833 3.1e-4 18.125 0.625 21.875 1.875l-13.75 0.625h-13.125l-7.5-0.625m17.5 5h4.375c6.2497-0.41719 9.9997-0.41719 11.25 0-3.7503 0.41719-8.9588 0.41719-15.625 0m27.5-98.125c0.41562-4.583 1.0406-9.1662 1.875-13.75 1.25-4.583 2.9162-9.3747 5-14.375v3.125c-3.1e-4 6.2503-2.292 14.584-6.875 25m46.875 8.125c-4.167-4.1662-8.3338-10.416-12.5-18.75 2.9162 2.917 5.6245 5.8338 8.125 8.75 2.4995 2.5003 3.958 5.8338 4.375 10m17.5-36.875c-2.0838-0.41562-4.5838-1.0406-7.5-1.875-2.917-1.25-6.4588-2.9162-10.625-5 2.083 0.41719 4.583 1.25 7.5 2.5 2.9162 0.83438 6.458 2.292 10.625 4.375m-26.875-1.25c0.41562-4.9995 2.9162-6.8745 7.5-5.625-4.7e-4 0.41719-0.83438 0.625-2.5 0.625-1.25 2.0838-2.917 3.7505-5 5m-85.625 29.375c-3.3336-2.083-7.7086-4.9997-13.125-8.75-5.0003-3.7497-10.834-8.5412-17.5-14.375 3.333 1.667 7.4997 4.5838 12.5 8.75 4.9997 3.7503 11.041 8.542 18.125 14.375m-183.75-100.62c3.7498 1.25 5.6248 2.5005 5.625 3.75 0.41719 1.25 1.0422 2.2922 1.875 3.125-1.6e-4 4.7e-4 -0.625-0.625-1.875-1.875s-3.1252-2.9162-5.625-5m-30.625 38.75c0.41719-1.6662 2.2916-4.3745 5.625-8.125 2.0833-2.083 3.3333-3.5412 3.75-4.375-1.6667 2.0838-3.3334 4.167-5 6.25-1.25 2.0838-2.7084 4.167-4.375 6.25m33.75-20.625-5.625 10.625c0.41719-2.4995 0.625-4.5828 0.625-6.25 0.41719-2.0828 2.0831-3.5412 5-4.375m24.375 29.375c15.833 10.417 29.166 18.125 40 23.125 11.25 4.5838 16.875 7.7088 16.875 9.375-1.6e-4 1.667 0.625 2.5003 1.875 2.5-3.7502 3.1e-4 -10.625-2.4997-20.625-7.5-17.084-8.333-29.792-17.5-38.125-27.5m36.875 74.375h2.5c9.5831-0.83281 14.791 1.667 15.625 7.5-2.0836-0.83281-4.7919-1.8747-8.125-3.125-2.9169-1.25-6.2502-2.708-10-4.375m62.5-46.875-2.5 15.625c-1.6669-2.9162-2.5003-5.4162-2.5-7.5-3.1e-4 -2.083 1.6664-4.7912 5-8.125"
         fill="#8f0005"
         id="path13" />
    </g>
  </g>
</svg>
