<?xml version="1.0" encoding="UTF-8" standalone="no"?>
<svg
   xmlns:dc="http://purl.org/dc/elements/1.1/"
   xmlns:cc="http://creativecommons.org/ns#"
   xmlns:rdf="http://www.w3.org/1999/02/22-rdf-syntax-ns#"
   xmlns:svg="http://www.w3.org/2000/svg"
   xmlns="http://www.w3.org/2000/svg"
   xmlns:sodipodi="http://sodipodi.sourceforge.net/DTD/sodipodi-0.dtd"
   xmlns:inkscape="http://www.inkscape.org/namespaces/inkscape"
   version="1.1"
   viewBox="0 0 500 500"
   id="svg19"
   sodipodi:docname="william-morris-letter-z.svg"
   inkscape:version="1.0.2 (1.0.2+r75+1)">
  <metadata
     id="metadata23">
    <rdf:RDF>
      <cc:Work
         rdf:about="">
        <dc:format>image/svg+xml</dc:format>
        <dc:type
           rdf:resource="http://purl.org/dc/dcmitype/StillImage" />
      </cc:Work>
    </rdf:RDF>
  </metadata>
  <sodipodi:namedview
     pagecolor="#ffffff"
     bordercolor="#666666"
     borderopacity="1"
     objecttolerance="10"
     gridtolerance="10"
     guidetolerance="10"
     inkscape:pageopacity="0"
     inkscape:pageshadow="2"
     inkscape:window-width="1920"
     inkscape:window-height="1016"
     id="namedview21"
     showgrid="false"
     inkscape:zoom="1.686"
     inkscape:cx="255.33808"
     inkscape:cy="250"
     inkscape:window-x="0"
     inkscape:window-y="27"
     inkscape:window-maximized="1"
     inkscape:current-layer="svg19" />
  <defs
     id="defs7">
    <linearGradient
       id="linearGradient847"
       x1="500"
       x2="0"
       y1="500"
       y2="-4.2633e-14"
       gradientTransform="translate(116.25147,60.498221)"
       gradientUnits="userSpaceOnUse">
      <stop
         stop-color="#ff6700"
         offset="0"
         id="stop2" />
      <stop
         stop-color="#ffd700"
         offset="1"
         id="stop4" />
    </linearGradient>
  </defs>
  <path
     d="m110.09 50.119-1.0488 21.178 16.357-0.41797 16.986 7.7578 7.1289 5.873s8.1786-3.7747 9.6465-3.9844c1.4679-0.2097 161.68 1.4668 161.68 1.4668l20.971 3.7754-71.299 95.832-20.131 20.131 0.62891 34.391-6.6445 39.494-2.791 16.916s1.171-2.1372 4.0449-2.5371 91.367-120.56 91.367-120.56l60.184-82.832s13.003-12.371 12.793-13.42c-0.2097-1.0485-6.9199-20.342-6.9199-20.342l-287.29-2.7246h-5.6621zm5.8711 34.18c-1.0485 0.2097-11.637 2.4121-11.637 2.4121l0.62891 18.244s-1.2592 10.59-1.1543 11.219c0.10485 0.6291-0.62891 9.75-0.6289 9.75l10.066 10.275 7.9688-8.1777 1.5723-10.904 4.1934-7.4453 6.502-15.832-3.3555-5.0312s-13.108-4.7195-14.156-4.5098zm120.25 139.9-29.506 40.926-42.705 55.309-51.156 70.58-28.025 33.809-4.7461 11.566 3.1152 10.379 113.58 2.2246 164 2.2246 9.3418-3.8555 9.7852-7.8594 14.236-16.904 19.572-29.953 6.6719-8.4512-5.3379-20.463-33.066 29.062-39.738 21.354-52.787 5.1895-133.9-2.0762-2.0742-2.0762 44.186-62.277 25.061-30.25 5.9316-16.605 6.6719-25.357 3.1133-30.99v-20.018l-2.2246-5.4863z"
     fill="#f4eee6"
     id="path11" />
  <g
     id="g17">
    <g
       transform="translate(-146.86,-119.79)"
       id="g15">
      <path
         d="m146.86 619.79v-500h500v500h-500m7.5-7.5h485v-485h-485v485m7.5-7.5v-469.38h469.38v469.38h-469.38m39.375-464.38v1.875c3.3333 0.83437 4.9998 2.0838 5 3.75-1.6e-4 2.9172-0.20781 5.0005-0.625 6.25 4.1666-2.9162 6.2498-5.6245 6.25-8.125-1.6e-4 -4.1662-2.2919-6.2495-6.875-6.25v0.625h-1.875l-1.875 1.875m33.125 4.375 1.25 4.375 0.625 1.25 5-0.625 3.125-1.875 3.75-0.625 9.375-2.5c0.41719-0.41562 1.8748-0.625 4.375-0.625 22.083 4.7e-4 41.041 8.1255 56.875 24.375h0.625c0.83281 0.41719 2.2914 0.20938 4.375-0.625-1.25-1.6662-2.2919-3.1245-3.125-4.375-0.83438-1.6662-1.6669-2.9162-2.5-3.75-7.0836-11.666-23.542-18.333-49.375-20l-8.75-0.625-10 1.25-7.5 1.25-8.125 3.125m-57.5 32.5v-5l-5-21.875c-1.6e-4 -2.9162 1.6666-4.3745 5-4.375 4.1666 4.7e-4 6.2498 5.0005 6.25 15-1.6e-4 4.5838-0.20781 7.5005-0.625 8.75-0.83281 6.667-1.6667 11.875-2.5 15.625-0.41719 3.3338-0.625 5.417-0.625 6.25-1.6e-4 9.167 6.6666 13.75 20 13.75 3.7498 4.7e-4 6.0416-0.625 6.875-1.875l3.75-5.625 7.5-20 2.5-3.125c3.7498-4.1662 7.4998-6.2495 11.25-6.25 8.3331 4.7e-4 12.5 2.5005 12.5 7.5-1.6e-4 2.0838-1.6669 3.1255-5 3.125h-2.5c-0.83281 4.7e-4 -2.2919 4.7e-4 -4.375 0-1.6669 4.7e-4 -3.5419-0.20781-5.625-0.625-7.5002 2.0838-11.25 7.917-11.25 17.5-1.6e-4 9.5838 4.3748 14.375 13.125 14.375 2.4998 4.7e-4 4.7916-1.8745 6.875-5.625h-1.25c-7.9169 4.7e-4 -11.875-2.9162-11.875-8.75-1.6e-4 -4.583 1.6666-7.4995 5-8.75l1.25-0.625h0.625l13.75 3.125c3.3331 4.7e-4 6.2498-1.8745 8.75-5.625 1.25-1.6662 1.8748-4.1662 1.875-7.5-1.6e-4 -3.7495-1.25-7.4995-3.75-11.25-2.5002-3.7495-5.4169-5.6245-8.75-5.625h-1.875c-0.41719 0.41719-1.4578 0.625-3.125 0.625-1.25 4.7e-4 -2.5002 0.20938-3.75 0.625v-3.75c0.83281-7.0828-0.83281-10.625-5-10.625-6.6669 4.7e-4 -13.125 3.3338-19.375 10-4.1667 6.6672-6.2502 11.875-6.25 15.625v7.5c-1.6e-4 1.25-0.20781 2.7088-0.625 4.375-1.6e-4 1.667-0.20781 3.542-0.625 5.625l-3.125 3.125 2.5 3.75-2.5 2.5h-2.5c-2.5002 4.7e-4 -5.0002-2.083-7.5-6.25h5.625l-0.625-10 6.25-11.25c1.6666-2.9162 2.4998-7.9162 2.5-15-1.6e-4 -0.41562-1.0422-3.1245-3.125-8.125-0.41719 2.9172-1.4578 4.3755-3.125 4.375l-2.5-0.625c-2.0834-8.7495-6.4584-13.125-13.125-13.125-7.0834 4.7e-4 -10.625 3.9588-10.625 11.875-1.6e-4 2.9172 0.20781 4.5838 0.625 5l4.375 15 0.625 1.875c-1.6e-4 2.0838-0.83281 4.3755-2.5 6.875-1.6667 2.5005-2.5002 3.9588-2.5 4.375 0.83281 0.83438 1.4578 1.25 1.875 1.25 1.25 4.7e-4 3.3333-2.708 6.25-8.125m121.25-36.25 23.75 10 20 11.875c8.3331 4.5838 16.875 6.8755 25.625 6.875 12.5 4.7e-4 18.75-5.2078 18.75-15.625-3.1e-4 -9.1662-6.4586-13.75-19.375-13.75-2.9169 4.7e-4 -4.5836 0.20938-5 0.625l-9.375 4.375c-2.5003 1.25-5.0003 1.8755-7.5 1.875-0.83281 4.7e-4 -4.7919-1.0406-11.875-3.125l3.125 6.25 2.5 0.625 5.625 1.875c0.41719 0.41719 1.25 0.625 2.5 0.625-3.1e-4 4.7e-4 1.6664-0.41562 5-1.25l10-6.25h1.25c7.083 4.7e-4 10.625 2.2922 10.625 6.875-3.1e-4 2.0838-1.667 4.1672-5 6.25-5.4169 1.6672-9.7919 2.5005-13.125 2.5-5.4169 4.7e-4 -11.459-1.8745-18.125-5.625l-23.75-11.875-6.875-1.875h-3.75l-5-1.25m131.25 0-6.875 1.875-6.875 4.375c-1.25 4.5838-1.8753 7.7088-1.875 9.375-3.1e-4 3.7505 1.8747 7.0838 5.625 10 4.1662 2.5005 8.5412 3.7505 13.125 3.75l1.875-0.625 6.25-0.625 17.5-4.375 3.125-0.625 3.75-2.5 4.375-2.5 3.75-4.375 3.75-1.875-6.875 2.5-6.875 3.125c-10 3.3338-17.709 5.0005-23.125 5-9.167 4.7e-4 -13.75-2.7078-13.75-8.125-3.1e-4 -5.4162 4.3747-8.1245 13.125-8.125h4.375c5.4162 0.83438 9.3747 1.6672 11.875 2.5 2.4997 0.41719 3.958 0.625 4.375 0.625 2.083 4.7e-4 4.1662-1.8745 6.25-5.625-1.25 0.41719-3.3338 0.625-6.25 0.625h-6.25c-2.0838 4.7e-4 -3.9588 4.7e-4 -5.625 0-1.25-0.41562-2.7088-0.83281-4.375-1.25l-6.875-2.5-5.625-0.625h-1.875m95 1.875-5.625 0.625c-4.167 0.41719-10.625 1.8755-19.375 4.375l-3.75 1.875-6.875 3.125-4.375 1.25-5.625 4.375h-2.5v1.25h-1.875l-1.875 2.5-3.75 2.5-3.75 3.75 6.875 1.25h7.5l10-7.5 6.875-3.125 6.25-3.125 10.625-2.5 11.875-3.125c0.41563-0.41562 1.6662-0.625 3.75-0.625 18.333 4.7e-4 35.833 4.5838 52.5 13.75 1.6661 0.41719 3.5411 1.4594 5.625 3.125v-3.75c0.83281-2.0828-0.41719-4.1662-3.75-6.25-4.1672-2.9162-9.5838-5.4162-16.25-7.5-0.83437-0.41562-1.6672-0.83281-2.5-1.25-0.83437-0.41562-1.8755-0.83281-3.125-1.25l-11.25-2.5c-3.7505-1.25-7.7088-1.8745-11.875-1.875-1.6672 4.7e-4 -3.5422 0.20938-5.625 0.625-1.6672 4.7e-4 -3.7505 0.20938-6.25 0.625l-1.875-0.625m86.875 3.75-3.125 1.25c-2.9172 0.41719-5.0005 1.8755-6.25 4.375l-1.875 1.875-3.75 0.625c-2.0839-1.25-4.3755-1.8745-6.875-1.875l5 23.75c3.3328 3.3338 4.9995 5.8338 5 7.5-4.7e-4 1.25-1.4594 2.0838-4.375 2.5l-7.5-6.25c-5.8339-2.4995-9.7922-3.7495-11.875-3.75-2.5005 4.7e-4 -5.8338 1.25-10 3.75l-5 5 6.875 2.5 1.25 3.125c-4.1672 2.917-6.2505 6.2505-6.25 10-4.7e-4 4.5838 4.1662 8.542 12.5 11.875 12.916 4.5838 19.583 7.917 20 10v1.875l-0.625 6.875 3.75-0.625c1.6661-2.9162 2.4995-5.208 2.5-6.875-4.7e-4 -1.6662-0.625-4.3745-1.875-8.125-1.6672-0.83281-3.3339-1.4578-5-1.875-1.6672-0.41562-3.3339-0.83281-5-1.25-10-1.6662-15-5.6245-15-11.875-4.7e-4 -4.9995 2.9161-7.4995 8.75-7.5 3.7495 4.7e-4 6.6661 1.0422 8.75 3.125l4.375 5 5 4.375 2.5 5.625 5.625 11.25c4.1661 7.5003 6.4578 15.834 6.875 25v0.625l-0.625 7.5 0.625 5.625-2.5 6.875 0.625 5c0.41563 1.25-4.7e-4 3.542-1.25 6.875-2.9172 7.5003-6.0422 15.209-9.375 23.125-3.3339 7.917-7.7089 14.792-13.125 20.625l-2.5 3.125-3.125 3.75c-1.6672 1.6669-4.1672 3.9586-7.5 6.875-3.3338 2.5003-7.7088 5.4169-13.125 8.75-2.9172 1.6669-8.9588 4.1669-18.125 7.5l-13.125 4.375-0.625 7.5 2.5-0.625 13.75-3.125c2.4995-0.83281 4.5828-1.4578 6.25-1.875 2.0828-0.83281 3.5412-1.6664 4.375-2.5l11.25-6.25c9.1661-5.4164 14.791-9.1664 16.875-11.25l14.375-19.375 6.875-9.375c7.9161-10.416 13.333-26.458 16.25-48.125l0.625-6.875 0.625-12.5-1.25-8.75-0.625-8.125-1.25-4.375-4.375-20-9.375-26.875c-1.6672-3.3328-2.5005-7.2912-2.5-11.875-4.7e-4 -8.7495 3.1245-13.125 9.375-13.125 3.7495 4.7e-4 5.6245 2.5005 5.625 7.5-4.7e-4 1.25-0.625 3.3338-1.875 6.25l1.875 1.25c2.9161-2.9162 4.3745-5.6245 4.375-8.125l-0.625-1.875c-1.25-6.6662-4.3755-9.7912-9.375-9.375h-4.375m-351.88 1.875-23.125 5c-1.6e-4 4.7e-4 0.20781 0.20938 0.625 0.625 0.41719 4.7e-4 1.0422 0.20938 1.875 0.625l1.25 0.625c1.6666 4.7e-4 3.5416-0.625 5.625-1.875l18.75-1.25c9.1664-0.41562 13.75 1.4594 13.75 5.625-1.6e-4 -0.41562-0.41719 1.0422-1.25 4.375l-3.125 1.25-8.125 0.625c4.5831 3.3338 8.1248 5.0005 10.625 5 6.6664 4.7e-4 9.9998-3.1245 10-9.375-1.6e-4 -6.6662-7.5002-10.416-22.5-11.25h-4.375m136.25 2.5c-2.5003 2.0838-3.7503 3.9588-3.75 5.625-3.1e-4 4.1672 2.708 6.2505 8.125 6.25 4.583 4.7e-4 6.8747-1.8745 6.875-5.625-3.1e-4 -4.9995-2.917-7.4995-8.75-7.5h-0.625l-1.875 1.25m130.62 3.75-1.875 1.875h-1.25c-7.5005-0.41562-11.25 2.2922-11.25 8.125-4.7e-4 4.1672 3.333 6.2505 10 6.25-4.7e-4 4.7e-4 1.4578 4.7e-4 4.375 0 2.9162-0.41562 7.2912-0.83281 13.125-1.25h6.25c2.0828 4.7e-4 3.7495 0.20938 5 0.625l5.625 4.375c0.83281 0.41719 1.4578 0.83438 1.875 1.25 0.41563 4.7e-4 0.625 4.7e-4 0.625 0 0.83281-0.83281 1.25-1.8745 1.25-3.125-4.7e-4 -4.9995-3.7505-7.2912-11.25-6.875h-3.75c-3.3338 0.83438-5.2088 1.25-5.625 1.25h-6.875l-0.625-1.875h-3.125c-0.83437-0.83281-1.25-1.8745-1.25-3.125-4.7e-4 -1.25 1.6662-2.4995 5-3.75 0.41563-0.41562 2.0828-0.625 5-0.625h2.5l0.625-1.25c-3.7505-2.0828-6.6672-2.7078-8.75-1.875h-5.625m43.75 8.75c0.83281 0.83438 2.7078 2.2922 5.625 4.375 3.3328 1.6672 7.2911 4.1672 11.875 7.5v-2.5c-5.4172-4.1662-11.25-7.2912-17.5-9.375m46.25 6.25c-1.6672 1.6672-2.5005 3.5422-2.5 5.625-4.7e-4 7.5005 2.9161 11.25 8.75 11.25 0.83281 4.7e-4 1.6661-0.625 2.5-1.875-2.0839-0.83281-4.1672-3.1245-6.25-6.875l-1.25-10-1.25 1.875m-356.25 2.5-0.625 16.875h6.875c5.4164-0.41562 9.7914 0.20938 13.125 1.875 2.9164 1.667 5.2081 2.917 6.875 3.75 1.6664 0.41719 2.7081 0.83438 3.125 1.25 0.41719 4.7e-4 2.0831-0.83281 5-2.5 3.3331-1.6662 6.0414-2.4995 8.125-2.5l176.25 1.25c5.4162 4.7e-4 8.958 0.625 10.625 1.875 2.083 1.25 3.1245 3.542 3.125 6.875-4.7e-4 3.3338-3.1255 8.1255-9.375 14.375l-83.125 111.25c-0.83437 0.83281-1.25 1.8753-1.25 3.125-3.1e-4 3.1e-4 0.20781 1.8753 0.625 5.625 0.41719 3.7503 0.625 7.9169 0.625 12.5v7.5c0.83281 6.2503 0.20781 12.917-1.875 20l-1.25 8.125-1.25 6.875 62.5-81.25 80-107.5c7.0828-9.583 10.625-17.083 10.625-22.5-4.7e-4 -2.083-1.0422-3.5412-3.125-4.375l-285.62-2.5m132.5 228.75-1.25 6.25v1.25l1.25 1.25 156.25-211.88c1.25-1.6662 1.8745-3.1245 1.875-4.375-4.7e-4 -2.083-0.20937-3.5412-0.625-4.375l-8.125 13.125-3.125 3.75-146.25 195m-131.88-207.5c-2.5002 0.41719-6.0419 1.667-10.625 3.75-7.5002 3.3338-11.25 9.3755-11.25 18.125-1.6e-4 3.3338 1.25 7.0838 3.75 11.25 2.9166 4.167 4.7916 6.2503 5.625 6.25 1.25 3.1e-4 1.8748-1.0406 1.875-3.125-1.6e-4 -1.6662-0.625-3.7495-1.875-6.25-1.25-2.4995-2.0834-4.1662-2.5-5v-2.5c-1.6e-4 -9.583 5.2081-14.375 15.625-14.375 6.6664 4.7e-4 12.916 2.292 18.75 6.875 2.4998 3.7505 3.7498 6.667 3.75 8.75-1.6e-4 2.917-1.4578 5.8338-4.375 8.75 3.3331 0.83438 4.7914 1.25 4.375 1.25 7.0831 3.1e-4 10.625-4.1662 10.625-12.5-1.6e-4 -2.9162-1.4594-6.458-4.375-10.625-2.5002-4.583-5.0002-7.083-7.5-7.5l-9.375-1.875-4.375-1.875-8.125 0.625m41.25 0.625h1.875l-4.375 1.25-2.5 1.875-2.5 0.625-1.25 1.25 1.875 1.875 4.375-1.875h68.125l94.375 0.625 26.875 2.5c0.41563-0.41562 0.625-1.25 0.625-2.5-4.7e-4 -2.9162-1.8755-4.3745-5.625-4.375l-181.88-1.25m-102.5 18.125-2.5-1.875-7.5-0.625-2.5-1.875-4.375-1.875c-0.41719-0.41562-1.4578-1.6662-3.125-3.75-1.25-2.083-2.0834-3.1245-2.5-3.125-1.25 4.7e-4 -1.8752 0.83438-1.875 2.5-1.6e-4 4.5838 3.5416 8.7505 10.625 12.5 2.9166 1.25 5.4166 1.8755 7.5 1.875 2.0833 4.7e-4 4.1666-1.25 6.25-3.75m71.25 27.5-0.625 6.25c4.1664 1.25 7.4998 1.8753 10 1.875 17.083 3.1e-4 30.208-5.833 39.375-17.5l5-6.25 4.375-8.75c1.6664-3.333 2.4997-6.6662 2.5-10-3.1e-4 -2.083-1.25-3.1245-3.75-3.125-2.5003 4.7e-4 -3.9586 2.5005-4.375 7.5-0.41719 10.417-7.0836 18.959-20 25.625-7.0836 3.7503-14.584 5.6253-22.5 5.625-0.83281 3.1e-4 -2.2919 3.1e-4 -4.375 0-1.6669-0.41562-3.5419-0.83281-5.625-1.25m51.875-8.125v1.875c-3.1e-4 0.41719 0.41719 0.625 1.25 0.625 0.83281-0.41562 1.6664-1.4578 2.5-3.125 1.25-1.6662 2.2914-3.333 3.125-5 0.83281-1.6662 1.4578-2.9162 1.875-3.75 0.83281-1.25 1.25-1.8745 1.25-1.875l0.625-4.375 4.375-10.625-1.875-1.875-3.125 10-2.5 6.875-4.375 7.5-3.125 3.75m109.38-28.125h-5.625l-6.25 5c-0.41719 0.41719-5.8336 2.5005-16.25 6.25 2.4997 4.5838 6.0414 6.8755 10.625 6.875 5.833 4.7e-4 11.041-2.4995 15.625-7.5l-0.625 10c8.7497-2.4995 13.958-8.1245 15.625-16.875-0.41719-1.25-1.25-2.4995-2.5-3.75h-10.625m24.375 0h-5.625c-1.667 2.917-2.5003 5.2088-2.5 6.875-3.1e-4 7.917 2.4997 12.709 7.5 14.375l1.25-3.125c4.1662 2.5005 7.2912 3.7505 9.375 3.75 6.2495 4.7e-4 9.3745-2.4995 9.375-7.5-4.7e-4 -1.6662-0.20937-2.708-0.625-3.125-4.167 0.83438-6.2503 1.25-6.25 1.25-5.0003 4.7e-4 -7.7088-2.708-8.125-8.125-0.83438-3.7495-1.667-5.208-2.5-4.375h-1.875m-55.625 3.125c-7.917 1.667-11.875 6.4588-11.875 14.375-3.1e-4 1.667-3.1e-4 3.3338 0 5 0.41719 1.25 0.83281 2.917 1.25 5l-2.5 1.25-4.375-6.25-1.25 7.5c-0.41719 1.25-0.625 3.542-0.625 6.875v1.875l6.875 25c0.41563 0.83438 0.625 2.5003 0.625 5-3.1e-4 4.167-1.4578 6.2503-4.375 6.25-2.917 3.1e-4 -4.3753-1.6662-4.375-5v-19.375c-3.1e-4 -2.9162-1.4578-7.083-4.375-12.5-0.83438-2.083-1.8753-3.5412-3.125-4.375l-6.25-6.25-1.875 6.25c-0.83281 0.83438-1.6669 1.25-2.5 1.25v-0.625c-1.25-1.6662-3.3336-3.333-6.25-5-2.9169-2.083-7.7086-4.583-14.375-7.5l-1.875 10c-0.41719 2.0838-0.83438 3.9588-1.25 5.625-3.1e-4 1.667-3.1e-4 3.1253 0 4.375-3.1e-4 3.3338 1.8747 6.8753 5.625 10.625l-0.625 3.125-10-3.75-1.25 4.375c0.41719 8.7503 2.0831 14.167 5 16.25l11.25 9.375c2.0831 2.0836 3.1247 3.9586 3.125 5.625-3.1e-4 2.917-1.6669 4.3753-5 4.375-2.9169 3.1e-4 -4.5836-0.83281-5-2.5l-6.875-13.125c-5.8336-9.1662-14.792-13.958-26.875-14.375l-0.625 9.375-10-2.5c-0.41719-0.41562-1.6669-0.625-3.75-0.625-6.2502 3.1e-4 -11.25 2.917-15 8.75-1.6669 2.917-2.5002 5.0003-2.5 6.25v3.125c4.1664-1.25 7.7081-1.8747 10.625-1.875 7.9164 3.1e-4 16.041 2.5003 24.375 7.5l22.5 14.375c7.9164 5.0003 16.25 7.5003 25 7.5 4.9997 3.1e-4 9.7914-2.9164 14.375-8.75 9.9997 3.3336 15 19.584 15 48.75-3.1e-4 19.584-1.25 33.959-3.75 43.125l-13.125 48.75-5.625 32.5 5.625-8.125 6.25-30.625 14.375-47.5 4.375-25.625v-10l0.625-10.625-0.625-7.5v-6.875c-0.41719-9.583-2.0836-17.5-5-23.75l-6.875-13.75h8.75l3.75-1.25h1.25l0.625-3.125 2.5-4.375-1.25-0.625-2.5 2.5c-0.41719-0.83281-0.83438-1.4578-1.25-1.875-3.1e-4 -0.41719-3.1e-4 -0.625 0-0.625-3.1e-4 -0.83281 0.41719-2.083 1.25-3.75 0.83281-2.083 1.25-3.958 1.25-5.625l-0.625-5c-3.1e-4 -1.6662 0.41719-2.4997 1.25-2.5 1.6664 3.1e-4 2.708 1.4594 3.125 4.375l0.625-1.25-3.75-62.5 1.875-5m-127.5 2.5c-8.3336-2.083-12.917-3.1245-13.75-3.125-2.5002 4.7e-4 -4.1669 1.0422-5 3.125l-0.625 11.25-1.875 15c-1.6e-4 4.167 1.8748 6.2503 5.625 6.25 1.25 3.1e-4 2.0831-0.20781 2.5-0.625 0.83281-2.4997 2.0831-7.9162 3.75-16.25 0.41719-2.4995 2.2914-6.0412 5.625-10.625 0.41719-1.25 1.6664-2.9162 3.75-5m44.375 3.125c-3.3336 3.3338-6.0419 5.0005-8.125 5-4.1669 4.7e-4 -6.2502-1.6662-6.25-5v-0.625c0.41719-1.25 1.6664-2.9162 3.75-5h-1.875c-0.83437 4.7e-4 -2.2919 0.83438-4.375 2.5-2.0836 1.25-3.1252 2.917-3.125 5-1.6e-4 6.2505 3.1248 9.3755 9.375 9.375 7.9164 4.7e-4 11.875-2.9162 11.875-8.75-3.1e-4 -0.83281-0.41719-1.6662-1.25-2.5m237.5-3.125c-3.3338 1.25-6.0422 3.542-8.125 6.875-1.6672 2.917-3.1255 6.042-4.375 9.375-1.6672-0.41562-2.9172-2.083-3.75-5h-1.875c-0.41719 0.41719-1.25 2.0838-2.5 5l-1.875 3.75c-0.83437 0.83438-1.25 3.542-1.25 8.125v1.25c-4.7e-4 2.917 1.0406 7.0838 3.125 12.5l-7.5-0.625-1.25-0.625v5h-3.75l-3.125 1.25-3.75 1.25-0.625-1.875 2.5-3.75-3.75 1.25 3.125 10.625 1.875 1.25c2.083 2.0838 3.1245 4.792 3.125 8.125-4.7e-4 1.25-1.25 3.7503-3.75 7.5-2.5005 3.7503-5.6255 7.5003-9.375 11.25l-7.5 2.5-4.375 2.5-5-0.625 3.125 2.5 3.75-0.625 10-1.875 5-2.5 4.375-4.375 2.5-0.625-3.75 5-8.125 6.875 7.5-0.625 13.125-6.875c2.9162-1.6664 4.7912-3.333 5.625-5l9.375-15.625c0.41562-0.41562 0.83281-0.625 1.25-0.625 1.25 3.1e-4 1.8745 0.625 1.875 1.875-4.7e-4 -0.83281-1.8755 2.7088-5.625 10.625-2.0838 3.3336-3.3338 5.2086-3.75 5.625-6.2505 4.5836-9.1672 7.0836-8.75 7.5l1.875 1.25 1.25-1.25 5.625-2.5 2.5-3.75 2.5 0.625c-0.41719 0.41719-0.625 1.4578-0.625 3.125-4.7e-4 1.667 0.625 2.5003 1.875 2.5 0.83281 3.1e-4 1.25-0.20781 1.25-0.625l8.125-8.125h0.625c1.25 3.1e-4 1.8745 0.83281 1.875 2.5v1.25l11.875-6.25 9.375-2.5 3.75-1.875c3.3328-0.83281 5.4161-1.25 6.25-1.25 3.3328 3.1e-4 7.2911 1.667 11.875 5 0.83281-4.1664 1.25-6.0414 1.25-5.625-4.7e-4 -6.2497-4.1672-10.416-12.5-12.5h-3.125c-1.25-0.41562-3.5422 1.0422-6.875 4.375-2.0839-0.83281-3.1255-1.8747-3.125-3.125 0.41563-0.41562 1.6661-2.083 3.75-5 2.0828-3.333 3.1245-11.041 3.125-23.125v-12.5h-1.25c-1.6672 3.1e-4 -4.3755 3.7503-8.125 11.25l-3.125 0.625-0.625-13.125-6.25-13.125-2.5-5.625-1.875-0.625-2.5 1.875m-180.62-0.625c-2.917 0.41719-4.3753 2.7088-4.375 6.875-3.1e-4 5.417 2.083 8.1255 6.25 8.125 5.4164 4.7e-4 8.1247-2.083 8.125-6.25-3.1e-4 -5.833-2.917-8.7495-8.75-8.75h-1.25m-109.38 21.25c-0.83281 3.3338-1.6669 6.4588-2.5 9.375-0.41719 2.917-2.9169 4.792-7.5 5.625 2.0831 3.3338 3.5416 5.0003 4.375 5l1.875-0.625c1.6664 3.1e-4 2.9164-0.83281 3.75-2.5 0.83281-2.083 1.25-3.1247 1.25-3.125l4.375-16.25 7.5-12.5c-1.6e-4 -2.083-1.0422-3.1245-3.125-3.125-2.0836-0.41562-3.3336 0.83438-3.75 3.75l-0.625 2.5-3.75 5.625-1.875 6.25m90-11.25c-3.1e-4 5.8338 2.2914 8.7503 6.875 8.75 3.3331 3.1e-4 4.9997-1.8745 5-5.625-3.1e-4 -6.6662-2.2919-9.9995-6.875-10-3.3336 4.7e-4 -5.0003 2.292-5 6.875m-176.88-4.375-1.875 17.5 0.625 3.125c1.6666 23.334 11.458 41.667 29.375 55 1.25 0.83281 2.4998 1.667 3.75 2.5 1.6666 0.83438 3.3331 1.667 5 2.5 9.1666 3.3336 14.167 5.0003 15 5h6.875l-5-6.875-8.75-2.5-5-3.125-5-3.75c-18.333-13.333-27.5-31.25-27.5-53.75-1.6e-4 -1.6662 0.41719-3.5412 1.25-5.625 0.83281-2.083 1.25-3.5412 1.25-4.375-1.6e-4 0.41719-3.3334-1.4578-10-5.625m174.38 12.5c-3.1e-4 -7.4995-1.4578-11.25-4.375-11.25-2.0836 4.7e-4 -3.1253 1.4594-3.125 4.375-3.1e-4 2.917 2.4997 5.2088 7.5 6.875m-120 62.5c-0.41719-2.9164-2.5002-4.7914-6.25-5.625-5.8334-1.6664-11.042-5.4162-15.625-11.25-4.5834-6.2497-6.8752-12.708-6.875-19.375-1.6e-4 -13.75 6.0416-20.625 18.125-20.625 5.4166 3.1e-4 8.1248 2.292 8.125 6.875-1.6e-4 1.667-0.83281 3.9588-2.5 6.875l-3.75 2.5-5 2.5c-2.9169 1.667-4.3752 5.0003-4.375 10-1.6e-4 3.7503 3.3331 6.4588 10 8.125-1.6669-2.9162-2.5002-5.833-2.5-8.75l0.625-1.875c0.41719-0.41562 1.6666-1.0406 3.75-1.875 2.0831-1.25 4.1666-2.708 6.25-4.375 2.0831-1.6662 3.9581-3.7497 5.625-6.25 1.6666-2.4997 2.4998-5.6247 2.5-9.375-1.6e-4 -5.4162-2.2919-9.9997-6.875-13.75-4.1669-4.1662-9.3752-6.2495-15.625-6.25-6.6669 4.7e-4 -12.5 2.7088-17.5 8.125-4.5834 5.417-6.8752 12.292-6.875 20.625-1.6e-4 13.334 4.3748 23.125 13.125 29.375l8.125 6.25 5 3.75c0.41719 0.41719 4.5831 1.8753 12.5 4.375m212.5-69.375v5.625c1.25-0.41562 1.8747-1.25 1.875-2.5-3.1e-4 -1.25-0.625-2.2912-1.875-3.125m0 39.375c3.333-2.4997 4.9997-4.7912 5-6.875-3.1e-4 -0.41562-1.25-2.9162-3.75-7.5-1.667-1.6662-2.5003-3.7497-2.5-6.25v-8.125c-3.1e-4 -5.4162-0.83437-8.1245-2.5-8.125-2.5003 4.7e-4 -3.7503 2.0838-3.75 6.25l1.25 12.5c0.41563 2.0838 1.0406 4.792 1.875 8.125 1.25 2.917 2.708 6.2503 4.375 10m0.625-33.125v6.25c-0.41719 7.917 2.2912 11.875 8.125 11.875 5.833 3.1e-4 8.7497-2.4997 8.75-7.5-3.1e-4 -1.25-0.41719-2.2912-1.25-3.125-2.5003 2.917-4.5838 4.3753-6.25 4.375-3.3338 3.1e-4 -6.4588-3.958-9.375-11.875m-40.625 6.875c8.333 1.25 12.5 3.9588 12.5 8.125-3.1e-4 0.83438-0.41719 1.667-1.25 2.5l-8.125 15.625c-0.83437 3.3338-1.25 6.4588-1.25 9.375-3.1e-4 2.5003 0.20781 3.9588 0.625 4.375l6.25 6.875v1.875c-0.41719 0.41719-1.25 1.4578-2.5 3.125-1.25 1.667-2.917 3.9586-5 6.875-1.667 2.5003-2.7086 6.042-3.125 10.625v6.25c0.83281-1.25 1.8747-2.708 3.125-4.375 1.25-1.6664 2.708-3.5414 4.375-5.625l14.375-14.375c7.9162-7.9162 12.291-17.083 13.125-27.5-0.83437-7.083-1.4594-11.25-1.875-12.5l-3.125-6.875 0.625 16.875c-3.1e-4 10.834-4.3753 16.25-13.125 16.25-5.0003 3.1e-4 -7.7086-3.333-8.125-10l5-8.75c4.9997-3.7497 7.4997-7.708 7.5-11.875-3.1e-4 -8.7497-3.7503-13.125-11.25-13.125-3.3336 3.1e-4 -6.2503 2.0838-8.75 6.25m-31.25-5.625c-1.25 0.83438-1.8753 1.4594-1.875 1.875l0.625 1.875c1.25 1.667 2.2914 2.5003 3.125 2.5 2.083 3.1e-4 3.1247-0.83281 3.125-2.5-3.1e-4 -1.25-0.41719-2.2912-1.25-3.125l-3.75-0.625m-38.75 7.5 1.25-4.375c-3.1e-4 -1.25-0.625-1.8747-1.875-1.875-2.5003 3.1e-4 -3.7503 1.8753-3.75 5.625-3.1e-4 2.0838 0.83281 3.1253 2.5 3.125 0.83281 3.1e-4 1.25-0.20781 1.25-0.625l0.625-1.875m98.125-5.625v8.125-8.125m-110 5.625-10.625 7.5-6.25 3.125-5.625 1.25-5.625 3.125-20.625 3.125c-8.7502 1.25-13.125 6.042-13.125 14.375-1.6e-4 6.667 2.7081 10 8.125 10l4.375-0.625 3.75-3.75c-5.4169-0.41562-8.1252-2.2912-8.125-5.625v-0.625l0.625-2.5c0.41719-1.6662 9.1664-4.7912 26.25-9.375 9.5831-2.4997 18.541-9.1662 26.875-20m1.875 6.25c-1.6669 2.917-2.5003 5.2088-2.5 6.875-3.1e-4 3.3338 1.8747 5.0003 5.625 5 2.9164 3.1e-4 4.9997-1.8747 6.25-5.625-1.25-3.7497-4.3753-5.833-9.375-6.25m265 18.75c1.6661-4.1662 3.9578-6.2497 6.875-6.25 7.4995 3.1e-4 10.833 4.792 10 14.375v5l0.625 6.875c2.4995-7.9162 3.7495-12.916 3.75-15v-0.625l-0.625-1.875-2.5-11.875c-0.41719-0.41562-0.625-0.83281-0.625-1.25-4.7e-4 -0.83281-0.20937-1.4578-0.625-1.875l-3.75-2.5-1.875-2.5-5.625-0.625-1.25-0.625c-0.41719-0.41562-1.0422-0.625-1.875-0.625-1.25 3.1e-4 -2.7089 1.25-4.375 3.75-1.25 2.5003-1.8755 5.2088-1.875 8.125-4.7e-4 3.7503 1.25 6.2503 3.75 7.5m-273.75-6.25c-1.25 0.83438-1.8753 1.8753-1.875 3.125-3.1e-4 5.8338 3.1247 8.7503 9.375 8.75 2.0831 3.1e-4 3.1247-1.25 3.125-3.75-3.1e-4 -5.833-3.1253-8.7497-9.375-8.75l-1.25 0.625m-73.75 29.375-1.875 1.875h-3.75l0.625 8.125c1.6666 3.3336 4.5831 7.0836 8.75 11.25l1.25-1.875-1.875-3.75h2.5l3.75 3.125 6.875 1.25-0.625 1.25c-1.6e-4 0.83281-0.625 1.25-1.875 1.25-0.41719 3.1e-4 -2.2919-0.41719-5.625-1.25l-0.625 1.875 6.25 1.25 23.75 1.875 5 1.875 1.875-1.875c3.3331 3.1e-4 4.9998 1.4578 5 4.375-1.6e-4 2.5003-1.4578 5.2086-4.375 8.125l-1.875-1.875c1.6664-1.6664 2.4998-3.333 2.5-5-0.41719-0.41562-0.83281-0.83281-1.25-1.25-1.6e-4 -0.41719-0.41719-1.0406-1.25-1.875l0.625 3.125c-1.6e-4 1.667-1.25 2.7086-3.75 3.125l-8.75 0.625-13.75-6.875-8.75-1.875c-2.0834-0.41562-3.9584-0.625-5.625-0.625-1.6669-0.41719-3.1252-0.625-4.375-0.625-10.833 3.1e-4 -16.875 3.7503-18.125 11.25 2.4998 0.83281 4.3748 2.0836 5.625 3.75-6.6669 4.167-10 7.0836-10 8.75l0.625 1.25 2.5 3.125-1.875 3.75 1.25 5c-2.5002-1.6664-3.7502-3.1247-3.75-4.375-1.6e-4 -0.41562 0.41719-2.2914 1.25-5.625-3.7502 1.25-5.6252 2.7086-5.625 4.375-1.6e-4 2.0836 0.625 4.5836 1.875 7.5l4.375 0.625 4.375 3.125c0.83281 0.83281 2.4998 1.25 5 1.25h0.625c1.25 3.1e-4 2.9166-1.0406 5-3.125-1.6669-1.6664-2.5002-3.9581-2.5-6.875v-2.5c2.4998-3.3331 4.5831-5.8331 6.25-7.5 2.0831-1.6664 4.5831-2.4997 7.5-2.5l38.75-2.5c2.9164-0.41562 6.0414-3.1247 9.375-8.125 0.83281-2.4997 1.25-3.958 1.25-4.375-1.6e-4 -4.9997-1.8752-8.5414-5.625-10.625l-20-11.25c-14.167-7.9164-21.25-16.875-21.25-26.875-1.6e-4 -3.7497 0.83281-7.2912 2.5-10.625-0.83281-1.25-1.6669-1.8747-2.5-1.875-2.9169 3.1e-4 -5.8334 1.4594-8.75 4.375-2.9169 2.917-4.3752 6.042-4.375 9.375-1.6e-4 5.0003 2.4998 10.209 7.5 15.625m-75-19.375c0.83281-0.41562 2.2916-0.625 4.375-0.625 2.4998 3.1e-4 4.7916 1.0422 6.875 3.125l6.875 8.125 3.75 3.125-2.5-5.625-3.75-5.625-3.75-6.25c-1.6667-2.9162-3.9584-4.3747-6.875-4.375-3.3334 3.1e-4 -5.0002 2.7088-5 8.125m5 12.5c-1.6e-4 4.5836-0.41719 8.1253-1.25 10.625-0.41719 2.5003-1.8752 7.7086-4.375 15.625v1.25c-1.6e-4 4.167 2.4998 7.917 7.5 11.25 4.9998 2.917 10.833 4.3753 17.5 4.375h2.5l18.75-9.375 3.75-1.25 6.875-3.125-7.5 0.625-16.25 4.375c-4.1667 0.83438-6.6667 1.25-7.5 1.25-7.9167 3.1e-4 -11.875-3.1247-11.875-9.375-1.6e-4 -6.2497 2.4998-9.3747 7.5-9.375 4.5833 3.1e-4 6.6666 1.4578 6.25 4.375-1.6e-4 1.25-1.0422 3.542-3.125 6.875 3.3333 0.83281 4.7916 1.25 4.375 1.25 3.7498 3.1e-4 5.6248-2.4997 5.625-7.5-1.6e-4 -9.1664-3.7502-13.75-11.25-13.75-2.0834 3.1e-4 -5.0002 0.83438-8.75 2.5-2.0834-4.9997-5.0002-8.5412-8.75-10.625m340.62 3.75c-2.5005 2.5003-5.8338 3.7503-10 3.75h-12.5c-3.7505 3.7503-5.6255 6.667-5.625 8.75-4.7e-4 1.25 1.6662 1.8753 5 1.875 9.1662 3.1e-4 17.291-4.3747 24.375-13.125l-1.25-1.25m66.875 21.875c4.1661-0.83281 6.4578-1.25 6.875-1.25 3.7495 3.1e-4 5.6245 2.0836 5.625 6.25-4.7e-4 1.25-1.0422 5.0003-3.125 11.25l0.625 3.125 4.375-6.875 4.375-8.125c0.83281-0.83281 1.25-2.083 1.25-3.75-4.7e-4 -8.333-3.7505-12.5-11.25-12.5-6.6672 3.1e-4 -9.5839 2.5003-8.75 7.5v4.375m-285 2.5c2.9164 4.167 4.3748 7.5003 4.375 10-1.6e-4 5.0003-1.4578 8.3336-4.375 10l-7.5 5.625c-0.83438 0.83281-1.4578 1.8753-1.875 3.125-1.6e-4 2.0836 1.0406 3.1253 3.125 3.125 0.41562 3.1e-4 1.8748-0.41562 4.375-1.25 7.4998-4.1664 11.25-11.666 11.25-22.5-1.6e-4 -7.4997-2.2919-11.25-6.875-11.25-1.6669 3.1e-4 -2.5002 0.625-2.5 1.875v1.25m254.38-1.875c-10 3.3336-15 8.7503-15 16.25-4.7e-4 10 4.9995 15 15 15 4.5828 3.1e-4 7.7078-2.0831 9.375-6.25-1.25 0.41719-3.3338 0.625-6.25 0.625-6.2505 3.1e-4 -9.3755-2.9164-9.375-8.75-4.7e-4 -5.833 4.3745-8.7497 13.125-8.75 6.6662 3.1e-4 9.9995 3.542 10 10.625-4.7e-4 11.667-4.1672 19.167-12.5 22.5-5.4172 1.6669-8.5422 3.3336-9.375 5l-3.125 3.125 10.625-3.125c5.8328-1.25 11.041-4.7914 15.625-10.625 4.5828-5.8331 6.8745-11.458 6.875-16.875-4.7e-4 -13.333-6.2505-19.791-18.75-19.375l-6.25 0.625m-51.875 39.375-1.875 1.875-1.875-1.25v1.875l-9.375 0.625c-4.7e-4 2.5003 1.4578 3.7503 4.375 3.75 8.7495 3.1e-4 13.125-4.3747 13.125-13.125-4.7e-4 -1.25-0.41719-2.2914-1.25-3.125l-8.75-6.25c-2.917-1.6664-4.3755-3.958-4.375-6.875-4.7e-4 -5.833 3.5412-8.7497 10.625-8.75 13.333 3.1e-4 20 7.0836 20 21.25-4.7e-4 17.917-13.75 28.334-41.25 31.25-19.584 2.0836-32.5 6.2503-38.75 12.5-2.917 2.9169-5.0003 4.5836-6.25 5l-7.5 3.75c-10 4.5836-19.375 13.125-28.125 25.625-8.3336 12.5-13.959 25.833-16.875 40-0.41719 4.1669-1.0422 6.8752-1.875 8.125-1.25 2.5002-1.8753 4.3752-1.875 5.625-3.1e-4 0.83281 0.83281 1.8752 2.5 3.125l0.625-2.5c2.083-1.25 3.5414-2.0831 4.375-2.5 0.83281-0.83281 1.4578-1.8748 1.875-3.125 0.41719-1.25 0.83281-3.1248 1.25-5.625 0.41562-2.9166 1.25-7.2916 2.5-13.125 2.083-8.7498 9.583-18.333 22.5-28.75 12.916-10.416 27.291-15.625 43.125-15.625 9.1662 1.6e-4 17.083 1.8752 23.75 5.625 6.6662 3.3336 9.9995 7.5002 10 12.5-4.7e-4 7.9169-3.1255 11.459-9.375 10.625h-3.75c1.25 6.2502 3.7495 9.3752 7.5 9.375 5.4162 1.6e-4 8.7495-3.7498 10-11.25l1.875 0.625c2.083 3.3336 3.333 5.0002 3.75 5 1.6662 1.6e-4 3.7495-1.6664 6.25-5 2.4995-3.3331 3.7495-6.0414 3.75-8.125-4.7e-4 -2.4998-2.292-5.4164-6.875-8.75l-0.625-3.75h1.875c3.7495 1.6e-4 6.2495-1.25 7.5-3.75-1.25-5.8331-4.5838-9.5831-10-11.25v1.25c-4.7e-4 1.25-1.25 2.0836-3.75 2.5h-2.5c1.6662 0.41719 2.4995 1.0422 2.5 1.875-4.7e-4 1.6669-1.25 2.5002-3.75 2.5-2.5005 1.6e-4 -4.167-0.20781-5-0.625l-0.625-3.75c-1.25 1.6e-4 -1.8755-0.41719-1.875-1.25v-1.25c1.6662-1.25 2.4995-2.4998 2.5-3.75-4.7e-4 -0.41719-0.20938-0.83281-0.625-1.25h-1.25c-1.667 1.6e-4 -4.5838 0.625-8.75 1.875-3.7505 1.25-6.667 1.8752-8.75 1.875-3.3338 1.6e-4 -5.0003-1.6664-5-5-3.1e-4 -3.7497 2.708-5.6247 8.125-5.625h0.625l21.25 2.5 14.375-1.25 3.75-2.5 7.5-2.5c2.4995-1.6664 5.8328-6.6664 10-15 1.25-2.4997 1.8745-4.1664 1.875-5-4.7e-4 -1.25-0.625-1.8747-1.875-1.875-2.0838 3.1e-4 -3.9588 0.625-5.625 1.875l0.625-6.875 1.875-2.5c2.0828-2.0831 3.1245-5.6247 3.125-10.625-4.7e-4 -8.333-3.1255-15.208-9.375-20.625-6.2505-5.833-14.167-8.7497-23.75-8.75-12.5 3.1e-4 -18.75 3.9586-18.75 11.875-4.7e-4 2.917 1.8745 5.6253 5.625 8.125l14.375 10.625c0.83281 0.83438 1.25 1.8753 1.25 3.125-4.7e-4 2.0836-0.20938 3.5419-0.625 4.375m-329.38 140.62c8.7498-1.6666 15.417-9.1666 20-22.5 2.0833-7.0831 3.1248-11.667 3.125-13.75-1.6e-4 -0.83281-0.20781-2.0831-0.625-3.75-1.6e-4 -1.6666-0.20781-3.9581-0.625-6.875-0.41719-1.6664-0.83281-2.7081-1.25-3.125-1.6e-4 -0.83281-1.6e-4 -1.25 0-1.25-1.6e-4 -0.83281-2.7084-5.2081-8.125-13.125-1.6667-2.4998-2.9167-6.0414-3.75-10.625h4.375c0.41719 2.0836 1.0422 3.5419 1.875 4.375 3.7498 10 9.3748 15 16.875 15 5.8333 1.6e-4 11.042-1.6664 15.625-5 4.5831-3.3331 6.8748-7.0831 6.875-11.25-0.41719-0.41562-0.83281-0.83281-1.25-1.25-1.6e-4 -0.41719-0.20781-0.83281-0.625-1.25-4.5834 2.5002-7.7084 3.7502-9.375 3.75-2.5002 1.6e-4 -4.3752-0.20781-5.625-0.625l-0.625 0.625c-16.667-1.6664-25-14.166-25-37.5-1.6e-4 -4.5831 0.625-9.1664 1.875-13.75 5.4166-17.916 13.542-29.791 24.375-35.625 10.833-5.833 16.25-10.208 16.25-13.125-1.6e-4 -0.83281-0.83281-1.25-2.5-1.25-3.3334 3.1e-4 -6.6669 1.0422-10 3.125l-5.625 3.75-8.75 5.625c-3.7502 2.5003-7.5002 6.2503-11.25 11.25-3.3334 5.0003-6.4584 10.834-9.375 17.5-2.5002 6.2503-4.5834 12.917-6.25 20-1.6667 7.0836-2.5002 13.959-2.5 20.625-1.6e-4 4.1669 0.20781 6.6669 0.625 7.5l5.625 39.375c0.41719 1.25 0.625 3.5419 0.625 6.875v6.25c-1.6e-4 7.5002-1.6667 17.5-5 30m140.62-168.12-3.125 13.75c21.666 6.6669 36.041 19.375 43.125 38.125l3.125 7.5 2.5 6.875h1.25l2.5-4.375c-5.0003-27.5-18.75-46.875-41.25-58.125-0.83438-0.41719-1.8753-0.83281-3.125-1.25-1.25-0.83281-2.9169-1.6664-5-2.5m288.12 16.875 0.625 4.375 11.25-8.125c2.4995-0.83281 3.7495-1.25 3.75-1.25l5 0.625 5.625 7.5c2.0828-3.3331 3.1244-5.6247 3.125-6.875-6.3e-4 -7.083-3.7505-10.625-11.25-10.625-2.5005 3.1e-4 -5.0005 1.25-7.5 3.75l-5.625 6.25-5 4.375m-128.75-13.125c-3.7503 5.0003-5.6253 8.9586-5.625 11.875-3.1e-4 9.1669 4.1662 13.75 12.5 13.75 4.583 3.1e-4 6.8745-1.8747 6.875-5.625v-2.5l-0.625-0.625-8.125-8.75-3.125-8.125h-1.875m-107.5 53.125 1.25-1.25-1.25-8.75-3.75-11.875c-0.41719-0.83281-0.625-2.4997-0.625-5-3.1e-4 -7.9164 3.1247-11.875 9.375-11.875 5.4164 3.1e-4 8.1247 2.7086 8.125 8.125v0.625c-0.83438 2.0836-2.917 4.7919-6.25 8.125h1.25c7.083 3.1e-4 10.625-4.3747 10.625-13.125-3.1e-4 -8.7497-4.5836-13.125-13.75-13.125-10.417 3.1e-4 -15.625 5.8336-15.625 17.5-3.1e-4 1.6669 0.20781 2.7086 0.625 3.125l8.125 21.25 1.875 6.25m-175-46.875c-2.0834-1.25-3.9584-1.8747-5.625-1.875-6.6667 3.1e-4 -10 2.0836-10 6.25-1.6e-4 2.5003 1.6666 3.7503 5 3.75 2.9166 3.1e-4 6.4583-2.708 10.625-8.125m28.75 0c-16.667 7.9169-25 18.542-25 31.875-1.6e-4 10 4.3748 15 13.125 15 8.3331 3.1e-4 12.5-3.1247 12.5-9.375-1.6e-4 3.1e-4 -0.41719-2.0831-1.25-6.25-1.6669 2.5003-3.5419 3.9586-5.625 4.375-5.8334-0.83281-8.7502-2.7081-8.75-5.625l-0.625-5-0.625-1.875 3.125-6.875 0.625-2.5c1.25-0.83281 2.4998-1.8747 3.75-3.125 1.6666-1.6664 3.5416-3.3331 5.625-5 1.25-2.083 2.2916-3.1247 3.125-3.125l1.875-0.625-1.875-1.875m49.375 9.375c-7.5002 2.0836-11.25 4.7919-11.25 8.125-1.6e-4 3.3336 2.4998 5.0003 7.5 5v2.5h-5c-5.4169-0.41719-12.292 3.1253-20.625 10.625l-5.625 3.75-5.625 6.25-3.75 3.75 0.625 5.625c-1.6e-4 2.0836-2.9169 4.1669-8.75 6.25-3.3334 1.25-5.6252 1.8752-6.875 1.875-1.6667 1.6e-4 -2.7084-1.25-3.125-3.75l8.125-1.25 3.125-1.875-1.875-1.875c-4.5834 1.25-7.7084 1.8753-9.375 1.875-1.6667 3.1e-4 -5.4167-1.6664-11.25-5 0.41719 16.667 8.1248 25 23.125 25 11.667 1.6e-4 20.417-6.0414 26.25-18.125 6.6666-15 12.917-22.5 18.75-22.5 3.3331 3.1e-4 4.9998 0.625 5 1.875-1.6e-4 2.5003-1.25 3.9586-3.75 4.375-10 3.3336-15 9.5836-15 18.75-1.6e-4 3.3336 0.83281 6.6669 2.5 10 0.41719-0.41562 1.4578-0.625 3.125-0.625 0.41719 1.6e-4 1.6666 1.0422 3.75 3.125l-1.25-5 6.25 3.75-1.25 3.75c2.9166 0.41719 4.3748 1.0422 4.375 1.875l-0.625 2.5 9.375-0.625 6.875-6.875v-1.875l-8.75 1.875c-4.1669-2.4998-6.2502-5.4164-6.25-8.75-1.6e-4 -10.416 6.6664-15.625 20-15.625 9.5831 3.1e-4 16.875 5.0003 21.875 15l-1.25-6.875-9.375-8.75 1.875-3.75-1.875-1.25 1.25-3.75-5-5c-1.6669-1.6664-3.3336-3.1247-5-4.375-1.25-1.6664-2.7086-2.9164-4.375-3.75-5.0002-2.9164-7.5002-5.2081-7.5-6.875-1.6e-4 -1.6664 0.625-3.7497 1.875-6.25-3.3336-2.0831-7.0836-3.1247-11.25-3.125m190.62 0.625-3.125 1.25c-0.83438 1.25-1.8753 2.7086-3.125 4.375-0.83438 1.25-1.667 2.7086-2.5 4.375l-0.625 2.5v1.25c-3.1e-4 0.83438 1.0406 1.25 3.125 1.25 2.9162 3.1e-4 5.833-0.83281 8.75-2.5l-1.25-3.125h7.5c-1.667-4.1664-4.5838-7.2914-8.75-9.375m140.62 2.5-2.5 1.875 1.875 0.625 0.625-2.5m-8.125 6.25 1.25 1.25c1.25 3.1e-4 1.8745-0.625 1.875-1.875l-0.625-1.25-2.5 1.875m-280-1.25 3.75 8.75c-6.6669 3.1e-4 -10 2.9169-10 8.75 3.7498 13.75 11.041 22.292 21.875 25.625-5.0003-5.4164-7.5003-10.625-7.5-15.625-3.1e-4 -2.4997 0.41719-3.9581 1.25-4.375 0.83281-0.83281 2.4997-1.25 5-1.25 9.1664 3.1e-4 18.125 8.5419 26.875 25.625 2.0831-2.0831 3.1247-3.5414 3.125-4.375-3.1e-4 -4.1664-1.25-8.5414-3.75-13.125-2.5003-4.5831-5.8336-8.7497-10-12.5-3.7503-4.1664-8.3336-7.7081-13.75-10.625-5.4169-3.3331-11.042-5.6247-16.875-6.875m291.25 5.625c-4.7e-4 4.5836 2.2911 6.8753 6.875 6.875 3.3328 3.1e-4 4.9995-1.8747 5-5.625-4.7e-4 -3.3331-1.25-4.9997-3.75-5-5.4172 3.1e-4 -8.1255 1.25-8.125 3.75m-132.5 0-7.5 1.875c-4.167 2.9169-6.667 7.7086-7.5 14.375l7.5-3.75h12.5c2.4995 3.1e-4 4.3745-1.0422 5.625-3.125 1.25-2.4997 1.8745-4.3747 1.875-5.625-4.7e-4 -3.3331-1.8755-4.9997-5.625-5l-0.625 0.625h-1.25l-5 0.625m-90 10-144.38 194.38c-0.41719 0.41719-0.625 1.0422-0.625 1.875-1.6e-4 2.9167 1.6666 4.375 5 4.375l258.12 2.5c16.666 0 29.166-6.6666 37.5-20l12.5-19.375 7.5-10.625 5.625-10 3.125-4.375v-2.5c-4.7e-4 -1.6666-0.625-2.4998-1.875-2.5-2.5005 1.6e-4 -8.3338 4.5834-17.5 13.75-17.917 16.667-35.209 27.083-51.875 31.25-9.5838 2.0834-24.167 3.5417-43.75 4.375-19.584 0.83281-43.959 1.0422-73.125 0.625l-59.375-0.625h-13.125c-5.0002 0.83281-7.5002-1.8748-7.5-8.125-1.6e-4 -3.3333 0.83281-5.8333 2.5-7.5l79.375-103.12c0.83281-2.0831 1.8747-4.7914 3.125-8.125 1.25-3.7498 2.2914-8.5414 3.125-14.375l3.75-24.375 0.625-15.625 0.625-3.75v-0.625c-3.1e-4 -3.7497-0.83438-5.6247-2.5-5.625l-6.875 8.125m240.62-6.875c-2.9172 3.1e-4 -4.3755 2.2919-4.375 6.875-4.7e-4 2.9169 1.25 4.3753 3.75 4.375 3.3328 3.1e-4 4.9995-2.2914 5-6.875-4.7e-4 -2.9164-1.4594-4.3747-4.375-4.375m-184.38 21.875-3.75 4.375c-2.0838 0.83281-3.1253 1.4578-3.125 1.875v1.875c11.666-5.4164 17.5-11.25 17.5-17.5-3.1e-4 -3.7497-1.4594-5.6247-4.375-5.625-0.83438 2.5003-1.8753 5.0003-3.125 7.5-0.83438 2.5003-1.8753 5.0003-3.125 7.5m161.25-15-2.5 1.875c-0.83438 0.83281-1.25 1.4578-1.25 1.875-4.7e-4 2.5003 1.4578 3.7503 4.375 3.75 2.0828 3.1e-4 3.7495-0.83281 5-2.5l0.625-1.25-0.625-1.25c-0.83438-2.0831-2.2922-3.1247-4.375-3.125l-1.25 0.625m-24.375 7.5-3.75 1.875-1.875 4.375c-0.83438 2.0836-5.2088 1.4578-13.125-1.875-3.3338-0.83281-5.0005-1.25-5-1.25l-5 1.25-10 0.625-4.375 1.875v1.25l16.875 0.625c0.83281-0.41719 2.0828-0.625 3.75-0.625 0.83281 3.1e-4 4.3745 0.625 10.625 1.875 2.9162 3.1e-4 4.9995 0.20938 6.25 0.625 0.41562 4.5836 2.4995 7.5002 6.25 8.75 3.7495 0.83438 7.4995 1.8752 11.25 3.125 0.41562 0.41719 1.0406 0.625 1.875 0.625 0.41562 1.6e-4 0.83281 0.20938 1.25 0.625 0.83281-0.83281 1.25-1.4578 1.25-1.875-4.7e-4 -1.6664-1.25-3.1248-3.75-4.375-2.5005-1.25-5.4172-3.5414-8.75-6.875l0.625-1.25c0.41562-1.25 0.83281-1.8747 1.25-1.875l6.875-5.625c1.25-1.25 1.8745-2.2914 1.875-3.125-4.7e-4 -0.83281-0.41719-1.6664-1.25-2.5l-13.125 3.75m31.875 1.875v3.125c-1.6672 0.83281-3.1255 1.8753-4.375 3.125-1.25 0.83438-2.7089 1.6669-4.375 2.5-4.7e-4 1.25 0.20781 2.0836 0.625 2.5l7.5-1.25 3.125-3.75 3.75-3.125c1.25-1.25 1.8745-2.7081 1.875-4.375-4.7e-4 -2.0831-0.83438-3.1247-2.5-3.125l-0.625 0.625-5 3.75m-327.5 8.75-0.625 3.125 8.75 1.25 3.125 1.875c6.2498 7.0836 9.3748 14.167 9.375 21.25-1.6e-4 11.25-3.9586 21.459-11.875 30.625-7.5002 9.1669-16.667 14.375-27.5 15.625l-13.75 1.875c-2.0834 0.83281-7.5002 0.20781-16.25-1.875l-4.375-1.25c-1.6669-0.83281-3.3334-1.4578-5-1.875-1.6669-0.83281-3.3334-1.6666-5-2.5l-1.875 2.5c-0.83281 0.83281-1.25 1.6669-1.25 2.5-1.6e-4 1.6669 2.0833 2.5002 6.25 2.5 13.75 4.5834 21.25 6.8752 22.5 6.875l1.875-0.625 3.125-0.625h8.75c8.3331 0.83281 19.166-3.5416 32.5-13.125 2.0831-1.6666 3.7498-3.1248 5-4.375 1.6664-1.25 2.9164-2.2916 3.75-3.125l2.5-4.375 6.25-6.875 0.625-3.125 4.375-7.5c0.83281-4.1664 1.25-7.0831 1.25-8.75-1.6e-4 -21.25-9.1669-31.458-27.5-30.625h-0.625l-4.375 0.625m231.88 8.75 0.625 1.25h6.25l8.125 1.875 6.25-0.625 6.875 1.875 13.75 4.375c12.5 3.7502 23.125 10 31.875 18.75l5.625 5.625 3.75 3.125 5.625 6.25 4.375 5 2.5 5.625c8.3328 17.5 12.5 33.75 12.5 48.75-4.7e-4 5.4167-1.0422 11.25-3.125 17.5-1.6672 6.2502-3.9589 11.25-6.875 15-3.3339-2.0833-5.6255-3.1248-6.875-3.125-3.7505 1.6e-4 -8.7505 3.1252-15 9.375-6.2505 6.2502-9.3755 11.25-9.375 15-4.7e-4 2.9167 2.7078 5.2084 8.125 6.875 0.83281 0.41719 2.4995 0.625 5 0.625 1.6661 0 2.7078-0.20781 3.125-0.625l0.625-1.25 5.625-6.875c2.0828-2.0833 3.5411-3.1248 4.375-3.125 3.3328 1.6e-4 4.9995 1.4578 5 4.375-4.7e-4 0.41719-1.0422 1.0422-3.125 1.875-10.834 7.9167-16.667 15.208-17.5 21.875-0.41719 0.83281-0.83437 1.4578-1.25 1.875-4.7e-4 0.41719-4.7e-4 0.625 0 0.625l-1.875 1.875-0.625 1.875-1.875 6.875v10l1.875 4.375 1.25 0.625 0.625-0.625c0.41563 0 0.83281-0.20781 1.25-0.625l8.125-7.5c0.41563-0.41719 1.0406-0.625 1.875-0.625 0.41563 0.41719 0.83281 0.625 1.25 0.625v8.125c0.41563 6.25 3.9578 9.375 10.625 9.375h0.625l5.625-1.25h3.125l1.875-4.375c-4.1672-0.83281-7.5005-3.125-10-6.875-2.0839-4.1666-3.1255-7.7083-3.125-10.625-4.7e-4 -2.5 0.625-6.25 1.875-11.25-2.5005-0.41719-3.7505-1.4578-3.75-3.125-4.7e-4 -0.83281 0.20781-1.4578 0.625-1.875l3.125-6.875 1.25-2.5 4.375-3.75 1.875 4.375c0.83281 2.5 1.8745 1.6667 3.125-2.5 2.0828-5.8333 3.5411-9.375 4.375-10.625 0.83281-1.25 1.25-2.4998 1.25-3.75-4.7e-4 -2.9166-2.2922-6.6666-6.875-11.25 4.9995-11.25 7.4995-23.333 7.5-36.25-4.7e-4 -34.167-14.167-62.5-42.5-85l-13.75-8.125-13.75-6.875c-5.0005-2.4998-10.417-4.1664-16.25-5-4.5838-0.83281-8.3338-1.25-11.25-1.25-2.5005-0.41719-4.167-0.83281-5-1.25l-4.375-0.625-9.375 4.375m48.125-2.5-0.625 1.875 26.875 13.75 6.25 5 9.375 8.125c6.6661 6.2502 12.5 9.3752 17.5 9.375 8.7495 1.6e-4 13.125-5.4164 13.125-16.25-4.7e-4 -8.7498-3.3339-15.208-10-19.375h-3.125c-5.4172-0.41562-8.1255 0.83438-8.125 3.75-4.7e-4 0.83438 0.20781 1.4594 0.625 1.875 6.6661 0.83438 10.208 4.5836 10.625 11.25-1.25 4.5836-3.3339 6.6669-6.25 6.25l-4.375-0.625-8.125-3.75-7.5-5-9.375-4.375-3.75-2.5-5.625-2.5-3.125-1.25-14.375-5.625m-63.75 2.5-0.625 0.625 3.75-0.625h-3.125m23.75 5.625v1.875c0.41563 0.83438 2.2912 1.4578 5.625 1.875h1.25c9.5828 1.6e-4 20.625 3.7502 33.125 11.25 15.833 9.5836 23.75 18.959 23.75 28.125-4.7e-4 5.8334-2.5005 8.7502-7.5 8.75-3.3338 1.6e-4 -5.4172-3.5416-6.25-10.625h-1.875c-2.9172-0.41562-4.3755 2.7086-4.375 9.375-4.7e-4 5.4169 2.9162 9.7919 8.75 13.125 1.6662 1.25 3.7495 1.8752 6.25 1.875 2.4995 1.6e-4 5.4161-2.2916 8.75-6.875l2.5 0.625 5 3.75c2.0828-4.9998 3.1245-8.1248 3.125-9.375-4.7e-4 -7.4998-3.7505-15.625-11.25-24.375-7.0838-8.7498-15.625-15.208-25.625-19.375l-9.375-3.75-5.625-1.875-10.625-3.125-15.625-1.25m-275.62 7.5c-5.8334 1.6e-4 -8.7502 2.9169-8.75 8.75-1.6e-4 3.7502 2.7081 5.6252 8.125 5.625 4.9998 1.6e-4 7.4998-2.2914 7.5-6.875-1.6e-4 -4.9998-2.2919-7.4998-6.875-7.5m65 31.25 2.5-1.25 1.25-4.375 1.875-1.25 1.875-5c-1.6e-4 -0.83281 1.0406-2.2914 3.125-4.375l5-5.625c0.83281-0.83281 1.6664-1.25 2.5-1.25 3.7497 1.6e-4 5.6247 1.8752 5.625 5.625-3.1e-4 2.0836-0.83437 4.5836-2.5 7.5 4.9997-4.9998 7.4997-8.7498 7.5-11.25-3.1e-4 -6.6664-3.1253-9.9998-9.375-10-5.8336 1.6e-4 -9.3752 2.0836-10.625 6.25l-3.75 11.875-2.5 6.875-2.5 6.25m212.5-30 1.25 2.5c4.9995 0.83281 9.3745 2.7086 13.125 5.625l5.625 4.375c2.4995 3.3336 3.9578 6.0419 4.375 8.125 0.41563 6.2502-3.1255 9.3752-10.625 9.375-5.0005 1.6e-4 -8.542-3.5414-10.625-10.625-2.5005 2.0836-3.7505 3.9586-3.75 5.625-4.7e-4 9.1669 5.208 13.75 15.625 13.75 12.916 1.6e-4 19.375-6.2498 19.375-18.75-4.7e-4 -2.4998-1.0422-4.7914-3.125-6.875-2.0838-2.4998-4.5838-4.7914-7.5-6.875-2.9172-2.0831-6.0422-3.7498-9.375-5-3.3338-1.25-6.2505-1.8748-8.75-1.875h-2.5l-3.125 0.625m-66.25 34.375c2.083 4.5834 4.7912 6.8752 8.125 6.875 8.7497 1.6e-4 13.125-4.7916 13.125-14.375-4.7e-4 -6.2498-3.1253-11.458-9.375-15.625-6.2503-4.5831-12.709-6.8748-19.375-6.875-14.167 1.6e-4 -27.709 7.5002-40.625 22.5-3.7503 3.7502-6.042 7.5002-6.875 11.25l-3.75 20 3.125-1.875 4.375-17.5c1.25-5.4164 5.4164-10.416 12.5-15l10-5.625 3.75-2.5 9.375-0.625 8.75-0.625c10.416-0.41719 15.625 4.3752 15.625 14.375-3.1e-4 4.5836-2.292 6.4586-6.875 5.625h-1.875m-180-23.75c-8.3334 0.83438-13.75 4.5836-16.25 11.25 4.1666-1.25 8.1248-1.8748 11.875-1.875 3.7498-0.41719 5.6248 1.6669 5.625 6.25-1.6e-4 5.8336-4.7919 11.667-14.375 17.5l-4.375 1.875-5.625 1.875c-0.41719 0.41719-1.25 0.625-2.5 0.625-0.41719 1.6e-4 -1.25 1.6e-4 -2.5 0-1.25-0.41719-2.9169-0.83281-5-1.25l-23.125-5 1.875 2.5c0.41719 1.25 3.1248 2.2919 8.125 3.125l6.875 1.25 6.875 0.625c1.25 0.41719 4.3748 0.625 9.375 0.625 9.1666 1.6e-4 16.666-2.2916 22.5-6.875l9.375-8.125 1.25-2.5 2.5-3.75c0.83281-2.4998 1.25-5.2081 1.25-8.125-1.6e-4 -5.4164-1.4578-8.3331-4.375-8.75l-10-1.25h0.625m155.62 15.625v1.875l-0.625-1.875c-5.417 1.6669-8.7503 6.4586-10 14.375l2.5 5c2.9162-5.4166 6.2497-8.1248 10-8.125 5.833 1.6e-4 8.7497 3.7502 8.75 11.25-3.1e-4 0.83281-0.41719 2.5002-1.25 5l-6.875 18.125-0.625 6.25 15-24.375c2.083-3.3331 3.1247-6.8748 3.125-10.625-3.1e-4 -4.5831-1.667-8.5414-5-11.875-3.3338-3.7498-7.292-5.6248-11.875-5.625l-1.25 0.625h-1.875m-223.12 13.75c-2.9167 5.4169-4.3752 8.9584-4.375 10.625-1.6e-4 1.25 1.25 2.0834 3.75 2.5 6.2498-14.583 15.208-21.875 26.875-21.875 2.0831 1.6e-4 5.2081 1.4578 9.375 4.375l5 7.5 4.375-0.625c-3.7502-11.25-11.042-16.875-21.875-16.875-3.3334 1.6e-4 -7.0834 1.4594-11.25 4.375l-3.75 1.25c-1.25 1.25-2.5002 2.7086-3.75 4.375l-4.375 4.375m-8.125-9.375 1.875 11.875c2.4998-2.4998 4.1666-5.6248 5-9.375l-6.875-2.5m226.25 31.875-1.25-6.25-3.75-5c-1.667-1.6666-2.5003-4.5831-2.5-8.75-3.1e-4 -0.83281-3.1e-4 -2.0831 0-3.75 0.41719-2.0831 0.83281-4.1664 1.25-6.25h-1.25c-2.0836 1.6e-4 -3.7503 1.4594-5 4.375-2.917 5.4169-4.3753 10-4.375 13.75l0.625 2.5 3.75 6.25 0.625 2.5h6.875c2.083 1.6e-4 3.7497 0.20781 5 0.625m-50-29.375-70 92.5c-2.0836 3.3334-3.1252 5.4167-3.125 6.25-1.6e-4 1.6e-4 -1.6e-4 0.41719 0 1.25 0.41719 0.83281 0.83281 2.0834 1.25 3.75l1.875-4.375c0.41719-0.41719 1.8748-2.2916 4.375-5.625 2.4998-3.3333 6.2498-7.9166 11.25-13.75 0.83281-0.83281 1.6664-1.8748 2.5-3.125 0.83281-1.6666 2.0831-3.5416 3.75-5.625 5.8331-8.3333 12.291-17.292 19.375-26.875 7.4997-9.5831 15.416-19.583 23.75-30 3.7497-4.9998 5.6247-8.5416 5.625-10.625l-0.625-3.75m113.75 5-9.375 1.25-3.75 2.5-5.625 0.625c-2.0838 1.6669-4.5838 3.5419-7.5 5.625-2.917 2.0834-6.042 4.3752-9.375 6.875-2.5003 2.5002-5.6253 6.2502-9.375 11.25l-6.875 10.625c-1.667 2.5002-2.917 4.3752-3.75 5.625-0.41719 1.25-0.625 1.8752-0.625 1.875l-1.875 8.75c-1.667 6.2502-2.292 9.5834-1.875 10l0.625 6.25-0.625 11.25c-3.1e-4 -3.7498 1.25 1.8752 3.75 16.875 3.333 1.6e-4 4.9997-0.83281 5-2.5-3.1e-4 -1.6666-0.625-4.3748-1.875-8.125-0.83437-4.1666-1.25-7.4998-1.25-10v-11.875l1.25-3.75 3.75-16.875c3.7497-14.583 14.375-26.25 31.875-35 7.4995-3.7498 15.208-5.6248 23.125-5.625 17.5 1.6e-4 29.375 7.0834 35.625 21.25 2.9162-0.41719 4.3745-1.4578 4.375-3.125-4.7e-4 -5.4166-4.1672-10.417-12.5-15-7.917-4.5831-16.875-7.2916-26.875-8.125l-6.25-0.625m38.75 34.375c-5.417-0.41719-8.1255-1.4578-8.125-3.125-4.7e-4 -1.6666 1.25-4.1666 3.75-7.5l-7.5-7.5c-12.917 6.2502-19.375 13.75-19.375 22.5-4.7e-4 8.3334 3.5412 12.5 10.625 12.5h1.875c5.4162 1.6e-4 11.666-0.625 18.75-1.875l5-3.75 6.25-1.25c7.0828-1.6666 13.541-8.1248 19.375-19.375 0.41563-0.41719 0.625-1.4578 0.625-3.125v-1.875l-2.5-5-1.25-4.375c-1.25-2.4998-5.0005-3.7498-11.25-3.75h-3.75c-2.5005 1.6e-4 -4.7922 0.20781-6.875 0.625-1.6672 0.41719-2.5005 1.0422-2.5 1.875-4.7e-4 0.83281 0.41563 1.6669 1.25 2.5l2.5 3.125 1.875 3.75 5 3.75v0.625c-4.7e-4 3.7502-4.5838 7.5002-13.75 11.25m77.5-26.25-0.625 13.125c-4.7e-4 14.583-5.2089 21.875-15.625 21.875-5.8339 1.6e-4 -8.7505-2.2916-8.75-6.875-4.7e-4 -2.4998 1.4578-5.2081 4.375-8.125v-1.25l-3.125-0.625c-1.6672 1.6e-4 -3.5422 1.0422-5.625 3.125l-2.5-0.625c-1.6672 3.7502-2.5005 6.8752-2.5 9.375-4.7e-4 9.1669 5.6245 13.75 16.875 13.75 4.9995 1.6e-4 8.7495-1.4578 11.25-4.375 2.9161-2.9166 4.5828-4.3748 5-4.375l1.875 0.625c0.41563-1.6666 0.625-2.9166 0.625-3.75 0.41563-0.83281 0.625-1.25 0.625-1.25 2.4995-5.4166 3.7495-8.7498 3.75-10l-1.25-5.625-1.25-6.25-1.875-1.25 0.625-3.75c-4.7e-4 -0.41719-0.625-1.6666-1.875-3.75m-45 5c0.41563 2.0834 0.625 3.7502 0.625 5 0.41563 1.25 0.625 2.0834 0.625 2.5-4.7e-4 9.1669-6.8755 17.708-20.625 25.625-7.0838 4.5834-15 7.2917-23.75 8.125h-3.75c-2.5005 1.6e-4 -4.3755 0.20781-5.625 0.625 7.083 2.0834 11.25 3.1252 12.5 3.125 12.083 1.6e-4 22.5-3.5416 31.25-10.625 9.1662-7.0831 13.75-15.417 13.75-25-4.7e-4 -5.4166-1.6672-8.5416-5-9.375m-348.12 1.25 0.625 3.125 3.75 1.875 6.25 2.5 4.375 0.625 0.625-1.25-5.625-3.125-10-3.75m-12.5 1.875-0.625 5c-0.41719 0.41719-0.625 1.0422-0.625 1.875-1.6e-4 0.41719 1.8748 1.8752 5.625 4.375 3.7498 2.5002 5.8333 3.9584 6.25 4.375 4.1666 3.7502 7.2916 5.6252 9.375 5.625l2.5-0.625 1.25-1.25c0.41719-1.6666-2.0834-3.9581-7.5-6.875-1.6667-0.83281-3.5417-1.8748-5.625-3.125-1.6667-1.6666-3.5417-3.5416-5.625-5.625-1.6e-4 1.6e-4 -0.41719-0.20781-1.25-0.625-0.83281-0.83281-2.0834-1.8748-3.75-3.125m169.38 0-1.25 3.75-1.875 1.875-1.25 10.625-4.375 20v1.25c-3.1e-4 2.0834 0.83281 3.1252 2.5 3.125 1.6664 1.6e-4 2.7081-2.0833 3.125-6.25l5-30.625c-3.1e-4 -1.6666-0.625-2.9166-1.875-3.75m-94.375 1.875-17.5 6.875 20-0.625c4.1664-0.41719 6.2498 1.6669 6.25 6.25-1.6e-4 4.5834-1.25 7.0834-3.75 7.5l-5 1.25-7.5 0.625c-4.5834 0.83281-6.8752 3.9584-6.875 9.375-1.6e-4 2.9167 1.6666 5.6252 5 8.125-0.83281-4.1666-1.25-6.2498-1.25-6.25-1.6e-4 -2.4998 1.8748-5.4166 5.625-8.75l4.375-1.25 6.875 0.625 1.25-1.25 4.375-1.25c4.1664-1.6666 6.2498-5.4166 6.25-11.25-1.6e-4 -7.0831-3.5419-10.625-10.625-10.625h-0.625l-1.25 0.625h-5.625m203.75 0c-11.25 1.25-20.834 6.8752-28.75 16.875-7.917 9.5834-11.875 20.625-11.875 33.125v0.625l1.875 23.125c0.41563 4.5834 2.083 7.2917 5 8.125-2.917-11.25-4.3753-20.625-4.375-28.125-3.1e-4 -17.917 4.9997-30 15-36.25l11.875-7.5 1.875 0.625 10 0.625c2.4995 1.6e-4 3.7495 1.8752 3.75 5.625l-0.625 3.75c6.2495-0.41719 9.3745-3.3331 9.375-8.75-4.7e-4 -4.5831-4.3755-8.5416-13.125-11.875m-113.75 80c2.9164 1.25 5.6247 1.8752 8.125 1.875l5-0.625c1.6664-37.917 12.708-56.875 33.125-56.875 6.2497 1.6e-4 9.3747 2.7084 9.375 8.125l-5.625 5.625h-6.875c-12.5 1.6e-4 -18.75 5.6252-18.75 16.875-3.1e-4 10 6.458 15 19.375 15 3.7497 1.6e-4 7.2914-2.9166 10.625-8.75-2.917 1.6667-5.8336 2.5002-8.75 2.5-6.2503 1.6e-4 -9.3753-2.4998-9.375-7.5-3.1e-4 -4.9998 2.9164-7.9166 8.75-8.75l6.875-0.625c5.4164-0.41719 8.7497-4.5833 10-12.5l-3.125-8.75c2.9162-2.4998 4.3747-4.9998 4.375-7.5-3.1e-4 -1.6666-1.0422-2.4998-3.125-2.5h-3.125c-7.0836-2.9166-11.25-4.3748-12.5-4.375-1.25 1.6e-4 -3.9586 2.0834-8.125 6.25l-0.625-4.375 1.25-6.875-1.875-1.875-6.25 3.75-8.75 6.875c-10.834 9.1669-17.292 27.917-19.375 56.25v3.75c-3.1e-4 2.0834-0.20937 3.7502-0.625 5m-120-69.375h-4.375c-2.0834 1.6e-4 -6.6669 2.9169-13.75 8.75-2.0834 2.0834-4.3752 3.7502-6.875 5-7.0834 3.3334-10.625 6.0419-10.625 8.125-1.6e-4 1.6667 0.625 2.5002 1.875 2.5 0.83281 1.6e-4 2.2916-0.625 4.375-1.875l16.875-9.375 2.5-3.125 6.875-6.25 3.125-3.75m-40 37.5c2.4998-1.6666 3.7498-3.5416 3.75-5.625v-1.25c-1.6667-4.9998-2.9167-10.417-3.75-16.25-1.6e-4 -9.1666-1.4578-13.75-4.375-13.75-1.25 1.6e-4 -1.8752 1.25-1.875 3.75-1.6e-4 16.667 2.0833 27.708 6.25 33.125m153.75-37.5c-2.0836 2.5002-3.3336 5.2084-3.75 8.125v4.375c-0.41719 0.83281-0.625 2.0834-0.625 3.75-3.1e-4 1.6669-0.20781 3.1252-0.625 4.375h2.5l1.875-5.625 2.5-12.5c-3.1e-4 -0.83281-0.625-1.6666-1.875-2.5m113.12 10h-0.625c-3.3338 1.6e-4 -5.2088 1.4578-5.625 4.375v1.875c-3.1e-4 5.0002 1.6662 7.5002 5 7.5 4.583 1.6e-4 6.8745-2.9166 6.875-8.75-4.7e-4 -3.3331-1.8753-4.9998-5.625-5m-224.38 24.375c5.4166 10.417 9.1666 15.625 11.25 15.625 0.41719-0.41719 0.83281-1.0422 1.25-1.875 0.83281-0.83281 1.25-1.6666 1.25-2.5-1.6e-4 -1.6666-0.20781-2.7083-0.625-3.125l-8.75-11.875-1.875-3.75-8.125-7.5c-2.9169-2.9166-5.0002-4.3748-6.25-4.375-2.0834 1.6e-4 -3.1252 0.83281-3.125 2.5-1.6e-4 1.6669 1.25 3.3334 3.75 5 1.25 1.25 3.1248 3.1252 5.625 5.625 2.4998 2.0834 4.3748 4.1667 5.625 6.25m230.62 10h-3.75c-12.917-0.41719-19.375 6.0417-19.375 19.375 4.1662-4.1666 7.4997-6.2498 10-6.25l8.125 0.625 1.25-1.25 3.75-1.25c2.083-0.83281 3.1245-2.0833 3.125-3.75v-1.875l6.25 1.875 6.875 2.5c0.41563 0.41719 2.4995 0.625 6.25 0.625 19.166 1.6e-4 32.291-7.9166 39.375-23.75h-4.375c-9.5838 13.333-21.459 20-35.625 20-8.7505 1.6e-4 -13.125-1.6666-13.125-5l0.625-0.625 5-3.125 0.625-4.375-3.125 0.625-3.75-8.75 3.75 0.625v-9.375c0.41563-0.83281 0.625-2.2916 0.625-4.375-4.7e-4 -0.83281-0.625-1.25-1.875-1.25-2.0838 1.6e-4 -4.167 1.4578-6.25 4.375-1.667 2.5002-2.5005 5.0002-2.5 7.5v11.875l-1.875 5m-25.625-15.625c3.333 0.83281 4.7912 1.25 4.375 1.25 3.7497 1.6e-4 5.6247-1.8748 5.625-5.625-3.1e-4 -4.5831-2.0838-6.8748-6.25-6.875-3.7503 1.6e-4 -5.6253 1.8752-5.625 5.625-3.1e-4 1.25 0.625 3.1252 1.875 5.625m150.62-2.5c-0.83437-1.25-1.8755-1.8748-3.125-1.875-2.5005 1.6e-4 -4.3755 1.4578-5.625 4.375l-0.625 1.25c-4.7e-4 2.5002 1.4578 3.7502 4.375 3.75 2.4995 1.6e-4 4.1661-2.4998 5-7.5m-248.12-0.625-3.125 4.375-2.5 11.25-8.75-3.75-5 0.625 1.25 1.25 1.875-0.625c2.9164 1.6e-4 4.3747 0.83281 4.375 2.5-3.1e-4 1.25-0.83437 1.8752-2.5 1.875h-2.5c-1.25-0.41719-3.1253 0.625-5.625 3.125l-2.5-0.625-0.625-4.375c-4.5836 3.7502-6.8753 8.5417-6.875 14.375-3.1e-4 9.5834 3.5414 14.375 10.625 14.375 0.83281 1.6e-4 2.9164-1.0422 6.25-3.125-5.4169-2.4998-8.1253-5.6248-8.125-9.375-3.1e-4 -5.4166 2.9164-8.1248 8.75-8.125 4.9997 1.6e-4 8.1247 4.5834 9.375 13.75 0.41719 2.0834 1.0422 4.5834 1.875 7.5l10-1.25v-15l1.875-13.75c-3.1e-4 -4.5833-2.7086-9.5833-8.125-15m-158.12 1.875c-15 13.333-22.5 27.708-22.5 43.125-1.6e-4 10 3.5416 19.583 10.625 28.75 7.0833 8.75 15.625 14.375 25.625 16.875l3.125-5c-1.6667-0.83281-2.9167-1.25-3.75-1.25-0.83281-0.41719-1.6667-0.83281-2.5-1.25-17.917-8.75-26.875-21.458-26.875-38.125-1.6e-4 -10.833 2.2916-19.167 6.875-25l10-10.625-0.625-7.5m270.62 1.875c-2.917 1.6667-4.3753 3.7502-4.375 6.25-3.1e-4 3.3334 2.4997 5.0002 7.5 5 3.333 1.6e-4 4.9997-2.7083 5-8.125v-2.5l-8.125-0.625m56.875 63.125c-5.417 2.9167-14.167 4.375-26.25 4.375h-11.875l-16.25-0.625-0.625 1.25c-2.917-0.41719-5.8338-0.625-8.75-0.625-2.5003-0.41719-5.0003-0.625-7.5-0.625h-1.25l-33.75 0.625-65.625-1.25-63.75 0.625-30.625-0.625h-5.625c-7.5002-1.25-12.292-1.875-14.375-1.875-0.83281 0.83281-1.25 1.4578-1.25 1.875-1.6e-4 2.5 1.4578 3.9584 4.375 4.375l271.25 1.875c9.9995 0 23.541-12.5 40.625-37.5l12.5-19.375c2.9162-4.1666 4.3745-7.2916 4.375-9.375v-0.625l-1.25-4.375-9.375 15.625-19.375 30c-2.5005 3.75-7.7088 9.1667-15.625 16.25m-300.62-53.125 1.25 1.25 1.25-1.25c2.0831 0.41719 4.1666 0.83281 6.25 1.25 2.0831 0.41719 4.3748 1.0422 6.875 1.875l3.75 4.375 2.5 1.25-1.875-1.25-6.875-10.625c-7.5002-2.0833-12.083-3.1248-13.75-3.125-8.7502 1.6e-4 -15.833 4.3752-21.25 13.125-0.41719 0.41719-0.625 1.4578-0.625 3.125-1.6e-4 0.41719 0.41719 0.625 1.25 0.625 1.25 1.6e-4 2.2916-0.41719 3.125-1.25 4.1666-2.9166 6.6666-4.7916 7.5-5.625 2.0833-1.25 5.6248-2.4998 10.625-3.75m226.25-5c-1.667 0.41719-2.5003 1.4578-2.5 3.125-3.1e-4 2.5002 1.25 3.7502 3.75 3.75 2.9162 1.6e-4 4.9997-1.0422 6.25-3.125v-0.625c-0.83437-2.0833-2.917-3.1248-6.25-3.125h-1.25m115.62 31.25c0.83281 1.6667 1.4578 3.3334 1.875 5 0.83281 1.6667 1.6662 3.5417 2.5 5.625l3.125 2.5 5 6.25 9.375 3.125h0.625c0.83281-0.41719 1.8745-0.83281 3.125-1.25l-8.75-1.875-3.75-3.75-3.125-2.5c-2.9172-1.6666-4.3755-7.4998-4.375-17.5-4.7e-4 -13.333 7.7078-20.208 23.125-20.625-0.41719-2.9166-2.5005-4.3748-6.25-4.375-3.7505 1.6e-4 -6.4589 0.625-8.125 1.875l-1.25 0.625-0.625 0.625-7.5 5.625c-3.3338 2.5002-5.0005 8.3334-5 17.5v3.125m41.875-26.875-2.5-1.25h-0.625c-3.3339 1.6e-4 -5.0005 1.25-5 3.75-4.7e-4 2.5002 1.4578 3.7502 4.375 3.75 3.3328 1.6e-4 4.9995-1.4578 5-4.375-4.7e-4 -0.41719-0.41719-1.0422-1.25-1.875m-151.25 6.875-1.25-0.625c-3.7503 1.6e-4 -5.6253 1.25-5.625 3.75-3.1e-4 1.6667 0.83281 2.5002 2.5 2.5 1.6662 1.6e-4 3.1247-1.8748 4.375-5.625m129.38 0.625c-1.25 0.41719-2.5005 1.25-3.75 2.5v1.25c-4.7e-4 2.0834 1.0406 3.1252 3.125 3.125 4.1661 1.6e-4 6.2495-1.6666 6.25-5-4.7e-4 -1.6666-1.4594-2.4998-4.375-2.5l-1.25 0.625m-373.12 1.875-3.125 4.375c0.41719 0.83281 0.83281 1.8752 1.25 3.125 0.41719 0.83281 0.83281 1.8752 1.25 3.125 4.5831 15.833 7.4998 23.75 8.75 23.75 0.41719-0.41719 0.83281-0.625 1.25-0.625l1.25-1.25 0.625-1.25c-1.6e-4 -2.9166-0.83281-6.6666-2.5-11.25-0.83281-2.0833-2.0834-4.7916-3.75-8.125-1.25-3.3333-2.9167-7.2916-5-11.875m-13.125 21.25c-2.5002 3.3334-3.7502 5.625-3.75 6.875-1.6e-4 2.9167 0.20781 4.7917 0.625 5.625 3.7498 8.75 9.1666 13.125 16.25 13.125 16.25 0 24.375-7.7083 24.375-23.125-1.6e-4 -9.1666-3.7502-16.042-11.25-20.625-2.0834-1.25-3.7502-1.8748-5-1.875l-1.875 1.875v1.25c-1.6e-4 2.5002 0.83281 3.9584 2.5 4.375l4.375 1.875c3.7498 2.0834 5.6248 6.6667 5.625 13.75-1.6e-4 10.833-6.0419 16.25-18.125 16.25-6.6667 0-11.25-6.4583-13.75-19.375m-11.875 14.375c2.9166-7.9166 5.4166-12.917 7.5-15l5.625-6.25 2.5-2.5 1.875-0.625h0.625c0.41719-0.41719 0.625-1.25 0.625-2.5-1.6e-4 -2.0833-0.83281-3.1248-2.5-3.125-2.5002 1.6e-4 -5.6252 2.5002-9.375 7.5-6.2502 7.5002-9.3752 12.708-9.375 15.625-1.6e-4 2.9167 0.83281 5.2084 2.5 6.875m197.5-12.5 8.125-0.625 4.375-3.125 7.5 0.625c-1.667-4.1666-4.792-6.2498-9.375-6.25-5.8336 1.6e-4 -9.3753 3.1252-10.625 9.375m163.75 7.5c-3.3338 3.3334-4.7922 6.25-4.375 8.75v3.125c3.3328 4.5834 6.6662 6.875 10 6.875h4.375c2.0828-0.41719 4.5828-0.83281 7.5-1.25v1.25c-4.5838 2.0834-6.8755 4.375-6.875 6.875-4.7e-4 2.0834 1.4578 3.125 4.375 3.125 10.416 0 17.916-4.1666 22.5-12.5l-0.625-0.625c-1.6672-0.83281-3.9589-2.0833-6.875-3.75-2.5005-2.0833-5.4172-4.5833-8.75-7.5h-3.125c-3.3338 2.0834-5.8338 3.125-7.5 3.125h-1.25c-2.9172 0.41719-5.4172-1.0422-7.5-4.375v-3.125h-1.875m76.25 42.5v-5.625l-2.5-8.125-0.625-13.125c-1.6672 0-3.3339 1.4578-5 4.375-1.25 2.5-1.8755 4.7917-1.875 6.875-4.7e-4 6.25 3.3328 11.458 10 15.625m-447.5-25-0.625 7.5c-0.41719 17.917 7.2916 26.875 23.125 26.875 7.4998 0 13.75-2.9167 18.75-8.75 5.4166-5.8333 8.1248-12.917 8.125-21.25-1.6e-4 -2.5-0.41719-3.75-1.25-3.75 0.41719 0-1.0422 0.41719-4.375 1.25-2.5002 17.5-9.5834 26.25-21.25 26.25-5.8334 0-10.417-2.2916-13.75-6.875-1.25-1.6666-1.8752-2.9166-1.875-3.75l-1.875-11.25-5-6.25m377.5 20-18.125-0.625c-2.0838-5-3.1255-8.125-3.125-9.375-4.7e-4 -1.6666 2.4995-4.1666 7.5-7.5-1.25-0.41719-2.2922-0.625-3.125-0.625l-0.625-0.625c-8.3338 0-12.5 3.9584-12.5 11.875-4.7e-4 6.6667 5.4162 10 16.25 10 0.83281 0 5.4162-1.0422 13.75-3.125m-301.88-11.875c-0.83281-0.41719-2.0834-0.625-3.75-0.625-3.3334 0-5.8334 0.83281-7.5 2.5l-2.5 2.5-11.25 3.125c-1.6669 0.41719-2.5002 1.4578-2.5 3.125-1.6e-4 2.0834 0.83281 3.125 2.5 3.125 2.0831 0 4.7916-0.625 8.125-1.875 3.7498-1.25 6.2498-2.5 7.5-3.75l4.375-3.75 5-4.375m66.875 17.5v5h-8.75l-5.625-1.875-9.375-5-11.25-10c-1.6669-0.83281-5.0002-2.0833-10-3.75-1.25-0.41719-2.9169-0.625-5-0.625-5.8334 0-11.667 2.2917-17.5 6.875l-8.75 8.75-9.375 3.75 8.125 3.125 8.75-3.125 6.25 5c1.25 1.25 2.7081 1.875 4.375 1.875l1.875-0.625 7.5-1.875 10.625-0.625c-0.83437-2.5-1.4578-3.75-1.875-3.75l-3.125-0.625-12.5 1.875-1.875-1.875-1.25-1.875c-0.83281-0.83281-1.25-1.6666-1.25-2.5-1.6e-4 -4.5833 3.5416-6.875 10.625-6.875 0.83281 0 2.9164 0.41719 6.25 1.25l20.625 12.5c8.3331 4.5833 17.5 6.875 27.5 6.875 9.9997 0 15-2.2917 15-6.875-3.1e-4 -3.3333-2.0836-5.625-6.25-6.875l-20.625-4.375c-0.83437-0.83281-1.25-1.4578-1.25-1.875-1.6e-4 -2.9166 1.6664-4.375 5-4.375l18.125 3.75 13.125 7.5 8.75 5.625 6.25 1.875v-1.875l-5-3.75-10.625-8.125c-0.83437-0.41719-5.8336-2.2916-15-5.625-3.3336-0.83281-6.6669-1.6666-10-2.5-2.9169-0.83281-6.0419-1.4578-9.375-1.875h-1.875c-8.7502-0.41719-13.125 2.0834-13.125 7.5-1.6e-4 5.8334 7.2914 9.1667 21.875 10m78.125 11.875-0.625-5.625-10-8.75c-1.25-1.6666-2.292-3.75-3.125-6.25-0.41719-5.4166-1.8753-8.125-4.375-8.125h-1.25l-5.625 0.625v5l-1.875 1.875-3.75-7.5-4.375 0.625-3.125-1.25c-0.83437 0.83281-1.25 1.6667-1.25 2.5-3.1e-4 0.41719 1.0406 3.3334 3.125 8.75l4.375 8.125c3.3331 7.0833 9.7914 10.625 19.375 10.625l5-0.625h7.5m-4.375-13.75c-2.5003-10.417-4.167-15.625-5-15.625-1.25 0-1.8753 1.0422-1.875 3.125-3.1e-4 1.25 2.2914 5.4167 6.875 12.5m63.125-14.375v1.25c-3.1e-4 0.41719 2.2912 2.5 6.875 6.25l6.875 5c3.7497 2.9167 8.958 5.2084 15.625 6.875l10.625 3.125c7.4995 2.0833 18.333 3.125 32.5 3.125 11.666 0 21.666-1.875 30-5.625 6.6662-0.41719 12.708-3.125 18.125-8.125 0.83281-2.5 1.25-3.75 1.25-3.75-4.7e-4 -0.41719-0.625-1.0422-1.875-1.875-2.0838 0-4.1672 1.0422-6.25 3.125l-8.125 2.5-6.875 3.75c-5.4172 2.9167-17.917 4.375-37.5 4.375-8.3338 0-18.959-2.2916-31.875-6.875-0.83437-0.41719-1.8755-0.83281-3.125-1.25-0.83437-0.41719-2.0838-0.83281-3.75-1.25l-3.125-3.125-6.25-2.5-3.125-3.75-6.25-1.25h-3.75m-46.25 23.75c3.333 1.6667 6.6664 2.5 10 2.5h3.75l11.875-3.75 7.5-0.625c1.6662 0 3.333 0.41719 5 1.25 1.6662 0.83281 2.708 1.25 3.125 1.25 1.25-0.41719 1.8747-1.0422 1.875-1.875-0.41719-0.41719-0.83438-0.625-1.25-0.625-0.41719-0.41719-0.83438-0.83281-1.25-1.25-2.0838-2.5-3.9588-3.75-5.625-3.75l-3.75 0.625-10.625 2.5c-0.83438 0.41719-2.5003 0.625-5 0.625-3.7503 0-6.667-2.2916-8.75-6.875 2.4997-4.5833 5.208-6.875 8.125-6.875h0.625c2.9162 0.41719 6.6662 1.25 11.25 2.5 4.583 1.25 10.208 3.3334 16.875 6.25 13.333 5.8333 23.125 8.9583 29.375 9.375 7.9162 1.25 11.458 1.875 10.625 1.875l1.25-1.25c-4.7e-4 -1.6667-1.667-2.5-5-2.5h-3.75l-15.625-5.625-5.625-1.875c-2.0838-0.83281-4.167-1.6666-6.25-2.5-1.667-0.83281-3.3338-1.6666-5-2.5-11.667-6.6666-21.875-10-30.625-10-12.917 0-19.375 4.7917-19.375 14.375-3.1e-4 2.0834 2.083 5 6.25 8.75m100.62-12.5c0.41562 1.25 1.0406 1.875 1.875 1.875 0.83281 0 1.6662-0.41719 2.5-1.25-2.0838-5-6.4588-7.5-13.125-7.5-1.667 0-2.5005 0.625-2.5 1.875-4.7e-4 3.75 2.708 5.625 8.125 5.625 1.6662 0 2.708-0.20781 3.125-0.625m61.875 8.75c-1.6672 1.6667-2.5005 3.125-2.5 4.375-4.7e-4 3.3333 1.4578 5 4.375 5 1.6662 0 2.4995-0.625 2.5-1.875-1.25-1.25-2.7088-3.75-4.375-7.5m-351.88-436.25 2.5 1.875-4.375 3.75-3.125 7.5c-0.41719 0.41719-0.83281 0.625-1.25 0.625-1.25 4.7e-4 -1.8752-0.625-1.875-1.875-1.6e-4 -0.83281 1.0422-2.9162 3.125-6.25l5-5.625m381.88 34.375 3.125-1.25 1.875-3.125 1.25-0.625c1.6661 4.7e-4 2.4995 0.83437 2.5 2.5-4.7e-4 4.167-2.0839 6.2505-6.25 6.25-1.25 4.7e-4 -2.0839-1.25-2.5-3.75m16.875 17.5h1.25c-4.7e-4 4.7e-4 -0.20938 0.625-0.625 1.875-4.7e-4 1.25-0.20938 3.1255-0.625 5.625-0.41719 0.41719-0.625 1.0422-0.625 1.875 0.41562 0.41719 1.8745 5.6255 4.375 15.625l2.5 7.5v1.875c2.0828-1.25 2.7078-2.9162 1.875-5l-3.125-19.375-3.125-8.125-1.875-1.875 1.25-1.25-1.25 1.25m-270 30v8.125c0.83281 0.83437 1.25 1.8753 1.25 3.125 0.41719 1.25 0.83281 2.292 1.25 3.125-2.5003 3.1e-4 -4.1669-1.4578-5-4.375-0.83438-3.333-1.25-5.6247-1.25-6.875-3.1e-4 -2.083 0.625-3.1247 1.875-3.125h1.875m204.38 5.625 1.875-3.125c1.25 3.1e-4 1.8745 0.83437 1.875 2.5-4.7e-4 1.25-0.41719 1.8753-1.25 1.875-0.83438 3.1e-4 -1.6672-0.41563-2.5-1.25v-0.625c0.41563 0.41719 0.41563 0.625 0 0.625m28.125 2.5 3.125 3.125v5c0.41563 5.417-1.25 8.1253-5 8.125l1.875-16.25m-28.125 3.75 1.875-0.625 0.625 3.125-3.125 1.25 0.625-3.75m3.125 8.75 1.25 3.125-2.5 6.25c-0.41719 0.41719-0.83438 0.625-1.25 0.625-4.1672-1.6662-4.3755-3.5412-0.625-5.625l0.625-1.875-2.5-3.75 3.125-0.625 1.875 1.875m-202.5 1.875 9.375-0.625 0.625 3.125c-0.41719 0.41719-1.25 0.625-2.5 0.625-1.25 3.1e-4 -2.0836-0.625-2.5-1.875l-5-1.25m27.5 36.875-9.375 1.875 3.125-5-3.75-3.75-3.75-6.25-4.375-9.375 1.25-3.125 3.75 5.625 2.5 5.625 5.625 6.25 5 8.125m-64.375-22.5c-0.83281 3.1e-4 -1.25-0.20781-1.25-0.625 0.41719-1.25 1.8748-1.8747 4.375-1.875 6.2497 3.1e-4 11.875 3.3338 16.875 10l-2.5 0.625c-3.7503-3.7497-7.5003-6.458-11.25-8.125h-6.25m0 3.125 11.25 2.5c3.3331 1.25 4.9997 3.1253 5 5.625l0.625 2.5c1.6664 0.83437 2.9164 1.4594 3.75 1.875h-2.5c-0.83438-0.41563-3.3336-2.708-7.5-6.875-1.25-0.83281-2.2919-1.25-3.125-1.25-0.83281-0.41719-1.6669-0.83281-2.5-1.25l-5-3.125m73.125 14.375c-0.41719-0.41719-0.83438-0.625-1.25-0.625-0.41719-0.41563-1.0422-1.0406-1.875-1.875-3.1e-4 -1.25 1.6664-2.2914 5-3.125l-8.75-3.125c2.4997 0.83437 4.9997 0.83437 7.5 0-3.1e-4 -1.25 2.708-2.708 8.125-4.375l-5 4.375 4.375 3.125-8.125 5.625m-28.75 10c3.3331-0.83281 4.9997-0.41563 5 1.25-3.1e-4 3.7503-2.2919 5.6253-6.875 5.625-1.25 3.1e-4 -1.8753-0.625-1.875-1.875-3.1e-4 3.1e-4 -3.1e-4 -0.20781 0-0.625 0.41719-0.83281 0.83281-1.8747 1.25-3.125l-6.875 1.25-0.625-2.5 6.875-3.125 2.5-5 0.625 8.125m-98.75 23.75-7.5 1.25-12.5 2.5c0.41719-4.1664 4.9998-6.2497 13.75-6.25 2.4998 3.1e-4 4.5831 0.83437 6.25 2.5m8.75 25.625c1.6664 1.25 3.5414 0.83437 5.625-1.25-1.6e-4 -2.4997-0.625-3.5414-1.875-3.125-1.6e-4 -0.83281-1.4578-1.25-4.375-1.25 0.41719-0.41719 0.625 1.4578 0.625 5.625m222.5 15.625v-1.25l10-3.125c0.41562 3.1e-4 3.958-2.0831 10.625-6.25 0.41562 3.1e-4 0.625 0.41719 0.625 1.25-1.25 0.83437-3.1255 2.0836-5.625 3.75-2.0838 1.6669-7.292 3.5419-15.625 5.625m-220-9.375v5l-3.125 4.375 1.25 3.125 0.625-1.875 4.375-6.25 0.625-3.75-3.75-0.625m10 1.875h-1.25c0.83281 3.1e-4 -1.6e-4 1.0422-2.5 3.125-2.5002 1.6669-3.9586 2.9169-4.375 3.75-0.83281 0.83437-0.83281 2.0836 0 3.75 0.41719 1.25 0.20781 1.8753-0.625 1.875l6.25-6.875 2.5-5.625m-2.5 9.375c-1.6e-4 -0.83281 0.41719-2.2914 1.25-4.375 1.25-2.0831 2.4998-3.1247 3.75-3.125 0.83281 3.1e-4 1.25 0.83437 1.25 2.5-1.6e-4 0.83281-2.0836 2.5003-6.25 5m-106.88 16.25h6.875c-1.25 1.6e-4 -1.8752-2.0831-1.875-6.25-1.6e-4 -0.41719-0.625 3.1e-4 -1.875 1.25-1.25 0.83437-2.2917 2.5003-3.125 5m291.88 3.75c2.9162-0.41563 3.1247-1.0406 0.625-1.875-0.83438-0.83281-1.4594-2.2914-1.875-4.375l1.875-5.625c-2.5003 0.83437-4.792 2.5003-6.875 5-1.667 2.5002 0.41562 4.7919 6.25 6.875m-10-8.75c-3.1e-4 2.5003 0.41562 5.0002 1.25 7.5 0.83281 2.0836 1.6662 2.9169 2.5 2.5h-5c-1.25 1.6e-4 -1.8753-1.6664-1.875-5v-0.625c-3.1e-4 -2.0831 0.41562-3.5414 1.25-4.375h1.875m-8.75 3.125h2.5l3.125 8.125c-4.167 1.6e-4 -6.2503-1.25-6.25-3.75-3.1e-4 -2.4998 0.20781-3.9581 0.625-4.375m-7.5 2.5c-3.1e-4 0.83437 0.20781 2.7086 0.625 5.625 0.83281 2.5002 1.25 2.9169 1.25 1.25-3.1e-4 0.83437 2.083 1.25 6.25 1.25-2.917 1.6e-4 -4.3753-1.8748-4.375-5.625l-1.875-3.125-1.875 0.625m-265.62 5.625 0.625-3.125h4.375l1.875 1.875c0.41719 1.25 0.20781 1.8752-0.625 1.875l-6.25-0.625m262.5 0 0.625 5-3.75-3.125 0.625-4.375 2.5 2.5m-255.62 3.75h-4.375c-1.25 1.6e-4 -1.8752 1.4578-1.875 4.375-1.6e-4 0.83437 1.6666 0.83437 5 0h3.125l-1.875-4.375m-3.75 6.25c5.4166 0.41719 8.1248 0.41719 8.125 0-1.6e-4 1.6669 0.20781 2.7086 0.625 3.125h-0.625c-0.41719-0.41563-1.6667-0.625-3.75-0.625 0.41719 1.6e-4 -0.625 0.41719-3.125 1.25-1.6667 1.25-2.5002 1.0422-2.5-0.625-1.6e-4 -1.25 0.41719-2.2914 1.25-3.125m11.25 33.75c3.3333 3.3334 4.9998 7.2919 5 11.875-1.6e-4 5.0002-1.25 7.5002-3.75 7.5l-1.25-19.375m283.75 85.625-8.125 2.5c-3.1e-4 -1.6666 1.25-3.1248 3.75-4.375l1.875-0.625h0.625c0.83281 1.6e-4 1.4578 0.83281 1.875 2.5m128.75 3.125h-3.125c-1.25 1.6e-4 -2.5005 1.25-3.75 3.75h-1.875c-4.7e-4 -5.8333 2.7078-8.7498 8.125-8.75 2.0828 1.6e-4 3.1245 0.83281 3.125 2.5-4.7e-4 1.25-0.83438 2.0834-2.5 2.5m-229.38 58.125 1.875 1.25 0.625 3.75 2.5 1.875c0.41719 0.41719 0.625 1.0422 0.625 1.875-3.1e-4 0.83281-0.20938 1.25-0.625 1.25l-3.75-1.875-0.625-1.875-3.125-2.5-0.625-1.25c-3.1e-4 -0.83281 1.0406-1.6666 3.125-2.5"
         fill="#8f0005"
         id="path13" />
    </g>
  </g>
</svg>
