<?xml version="1.0" encoding="UTF-8" standalone="no"?>
<svg
   xmlns:dc="http://purl.org/dc/elements/1.1/"
   xmlns:cc="http://creativecommons.org/ns#"
   xmlns:rdf="http://www.w3.org/1999/02/22-rdf-syntax-ns#"
   xmlns:svg="http://www.w3.org/2000/svg"
   xmlns="http://www.w3.org/2000/svg"
   xmlns:sodipodi="http://sodipodi.sourceforge.net/DTD/sodipodi-0.dtd"
   xmlns:inkscape="http://www.inkscape.org/namespaces/inkscape"
   version="1.1"
   viewBox="0 0 500 500"
   id="svg17"
   sodipodi:docname="william-morris-letter-b.svg"
   inkscape:version="1.0.2 (1.0.2+r75+1)">
  <metadata
     id="metadata21">
    <rdf:RDF>
      <cc:Work
         rdf:about="">
        <dc:format>image/svg+xml</dc:format>
        <dc:type
           rdf:resource="http://purl.org/dc/dcmitype/StillImage" />
      </cc:Work>
    </rdf:RDF>
  </metadata>
  <sodipodi:namedview
     pagecolor="#ffffff"
     bordercolor="#666666"
     borderopacity="1"
     objecttolerance="10"
     gridtolerance="10"
     guidetolerance="10"
     inkscape:pageopacity="0"
     inkscape:pageshadow="2"
     inkscape:window-width="1920"
     inkscape:window-height="1016"
     id="namedview19"
     showgrid="false"
     inkscape:zoom="1.686"
     inkscape:cx="255.33808"
     inkscape:cy="250"
     inkscape:window-x="0"
     inkscape:window-y="27"
     inkscape:window-maximized="1"
     inkscape:current-layer="svg17" />
  <defs
     id="defs7">
    <linearGradient
       id="linearGradient847"
       x1="500"
       x2="0"
       y1="500"
       y2="-4.2633e-14"
       gradientTransform="translate(-500)"
       gradientUnits="userSpaceOnUse">
      <stop
         stop-color="#ff6700"
         offset="0"
         id="stop2" />
      <stop
         stop-color="#ffd700"
         offset="1"
         id="stop4" />
    </linearGradient>
  </defs>
  <path
     d="m56.619 38.584-4.4043 6.502s2.5165 6.71 3.9844 7.5488c1.4679 0.8388 50.957 30.197 50.957 30.197l7.9688 15.307 3.625 12.486-0.01367 1.7871c20.522 5.2382 19.791 4.2066 20.713 5.334 0.94365 1.1534 20.236 13.736 20.236 13.736l7.2246 6.5996c0.88858-21.295 1.2402-59.791 1.2402-59.791l38.256-9.4883 54.566 3.2617 34.697 16.014 1.7461 1.5391-1.166-9.6172 13.82-25.996-15.443-5.5625-89.121-9.4375-37.746 3.9844-94.154-1.8867-16.986-2.5176zm268.49 20.836c-3.126 8.3496-12.537 33.511-12.537 34.145 0 0.41876 0.41656 5.5056 0.78711 10.109l4.8476 4.2734 9.7871 20.463 4.1504 30.547-9.4902 29.654-29.062 26.395-77.105 10.084s-50.712-2.9664-51.898-4.4492c-1.1862-1.4828-0.85437-70.01 1.0156-68.76 0.11621 0.07768 0.22688-0.14141 0.33398-0.61524-1.2015 0.42158-2.6704 0.13672-3.002 0.13672-0.4194 0-5.6621-6.8144-5.6621-6.8144l-14.889-13.211-18.141-7.2344s-2.9064-0.74376-5.584-1.4434l-1.8594 257.49-9.0176 28.1-9.4356 12.373-35.23 13.211 9.6465 20.34 41.102-4.6133 89.77-0.71679c-3.5676-12.923-7.9748-29.39-7.6113-31.025l-23.428-13.346-3.6426-39.33c-2.0163-2.2491-3.9199-4.2637-3.9199-4.2637l-0.5918-28.025 2.1289-1.9941-1.6856-69.328 20.166-8.8965 70.582 1.7793 59.34 11.807 6.9707 4.9824c11.234-2.2268 44.455-3.4453 44.455-3.4453l14.809 2.4219-13.396-12.703-37.326-28.52 27.262-25.164 14.049-27.051 9.2266-45.926-10.693-38.793-36.697-29.568-8.5215-3.0703zm32.836 219.64-21.35 2.6445 0.24218 0.17383 16.957 38.107 1.7793 27.58-2.9668 15.125-15.125 29.656-20.758 15.42-45.375 10.973-17.199 5.6348s3.9827 17.111 5.9004 24.051l37.721-0.30078 48.23-16.355 46.973-43.199 12.793-37.535 1.0469-32.293-6.0117-28.119-17.205-8.8926-25.652-2.6699z"
     fill="#f4eee6"
     id="path11" />
  <g
     transform="translate(-146.86 -119.79)"
     id="g15">
    <path
       d="m146.86 619.79v-500h500v500h-500m7.5-7.5h485v-485h-485v485m7.5-7.5v-469.38h469.38v469.38h-469.38m434.38-460-1.875 3.125h0.625l-1.25 5.625 1.875 3.75v1.25c-4.7e-4 1.25-0.83438 1.8755-2.5 1.875-4.7e-4 4.7e-4 -1.6672-0.41562-5-1.25l1.25 0.625h-1.25v5l3.75 6.25 3.125 2.5 5.625 7.5 7.5 11.25 3.125 5 2.5 3.125 1.875 5 2.5 6.875 1.875 13.75 1.25 4.375-1.875 18.75 0.625 6.25c-0.83438 3.3338-2.0839 5.0003-3.75 5-1.25-0.41562-1.8755-1.25-1.875-2.5-4.7e-4 3.1e-4 -4.7e-4 -0.41562 0-1.25 0.41562-1.25 0.83281-2.9162 1.25-5l0.625-2.5c-4.7e-4 -5.4162-1.0422-10.833-3.125-16.25-3.7505-9.583-7.7089-15.208-11.875-16.875l-4.375-1.875-6.25-3.75-0.625 1.25 1.875 7.5h-3.75l-3.75-6.875-10.625-2.5-6.25-6.875c-2.5005 2.0838-4.3755 5.2088-5.625 9.375 1.6662 11.25 6.6662 19.167 15 23.75v2.5l-6.875-0.625c0.83281 7.0838 2.4995 11.667 5 13.75 5.8328 3.3338 11.875 7.917 18.125 13.75 6.2495 5.417 9.3745 13.542 9.375 24.375-4.7e-4 2.5003-1.25 7.7086-3.75 15.625l-4.375 3.125c-0.83438-3.333-1.25-4.3747-1.25-3.125 0.41562-1.25 1.4578-2.9164 3.125-5 2.0828-2.4997 3.1245-6.0414 3.125-10.625l-0.625-1.875 1.875-1.25c-2.5005-6.6664-5.6255-11.875-9.375-15.625v6.875l-1.875 0.625c-2.5005-5.4162-4.7922-8.5412-6.875-9.375l-6.25-0.625-5-3.125-1.25 10.625 1.875 4.375c1.6662 2.917 3.9578 5.2086 6.875 6.875l-0.625 3.125-2.5-0.625h1.25l-6.25-2.5-1.875 0.625c-4.7e-4 6.2503 0.625 11.459 1.875 15.625 2.0828 10.417 3.1245 16.042 3.125 16.875-4.7e-4 3.3336-1.8755 7.292-5.625 11.875-3.7505 4.5836-7.0838 7.5003-10 8.75l-29.375 13.125-3.75 2.5h8.125l14.375-6.875 5.625-1.25c0.41562-0.41719 1.0406-0.83281 1.875-1.25 0.83281-0.83281 2.0828-1.8747 3.75-3.125l10-8.75c1.25-0.83281 2.4995-2.7081 3.75-5.625 1.6661-3.333 2.9161-4.9997 3.75-5h1.875l-10 15.625c9.5828-5.4164 15.416-16.458 17.5-33.125l0.625-1.25c2.0828 3.1e-4 3.1245 0.625 3.125 1.875-4.7e-4 4.5836-2.9172 12.292-8.75 23.125 0.83281-0.83281 1.6661-1.4578 2.5-1.875 0.83281-0.83281 1.4578-1.6664 1.875-2.5 1.6661-2.083 2.7078-3.7497 3.125-5 0.83281-1.25 1.4578-2.083 1.875-2.5l0.625-0.625c0.83281 3.1e-4 1.25 0.41719 1.25 1.25-4.7e-4 -0.41719-0.41719 1.0422-1.25 4.375 5.4161-4.1664 9.1661-8.958 11.25-14.375l6.25-13.125 1.25-20c0.41562-4.583-0.625-8.958-3.125-13.125-2.0839-4.1662-3.1255-6.6662-3.125-7.5 0.41562-1.25 1.0406-1.8747 1.875-1.875 1.6661 3.1e-4 3.1245 2.292 4.375 6.875l2.5 8.75 0.625 13.125-1.875 12.5-3.75 11.25 3.75-5.625 1.875-5.625c2.0828-4.9997 3.1245-7.4997 3.125-7.5l-0.625-1.25c-0.41719-1.25-0.625-3.1247-0.625-5.625-4.7e-4 -2.9162 0.625-4.3747 1.875-4.375 1.25 3.1e-4 1.8745 0.83437 1.875 2.5v1.875l-0.625 2.5c5.4161-11.25 8.1245-25 8.125-41.25-4.7e-4 -23.75-2.7089-41.666-8.125-53.75-4.5839-10.833-7.7089-19.791-9.375-26.875-0.83438-3.3328-1.25-5.4162-1.25-6.25-4.7e-4 -1.25 1.0406-3.5412 3.125-6.875l8.75-1.25v0.625c-4.7e-4 3.3338-2.0839 6.2505-6.25 8.75v1.25c-0.83438 3.3338-1.25 4.7922-1.25 4.375-4.7e-4 2.0838 0.20781 3.5422 0.625 4.375l1.25 3.125 1.25 2.5 7.5 1.875 0.625-1.875c-2.5005-2.9162-3.7505-4.7912-3.75-5.625v-1.25l0.625-0.625 2.5-4.375 1.875-5 1.875-0.625h-2.5l1.875-5v-0.625c-4.7e-4 -1.6662-0.83438-2.7078-2.5-3.125l2.5-0.625h-1.875c-4.1672-5.4162-8.9589-8.1245-14.375-8.125-5.8339 4.7e-4 -10 2.5005-12.5 7.5m-196.88 6.875c-0.41719 4.1672-3.1253 6.2505-8.125 6.25-8.7503 4.7e-4 -13.542-1.6662-14.375-5 3.7497 1.25 6.6664 1.8755 8.75 1.875 4.9997 4.7e-4 7.4997-2.0828 7.5-6.25-3.1e-4 -0.83281-0.625-1.6662-1.875-2.5-2.0836 3.3338-3.542 5.0005-4.375 5-1.25 4.7e-4 -3.3336-0.625-6.25-1.875-2.0836-4.5828-4.5836-6.8745-7.5-6.875-2.5003 4.7e-4 -3.9586 1.8755-4.375 5.625 0.83281 7.0838 4.9997 10.834 12.5 11.25l15 1.25c4.9997 0.41719 7.708-0.83281 8.125-3.75l0.625-1.25-1.25-8.75c-0.83438-3.7495 0.625-5.6245 4.375-5.625 1.6664 4.7e-4 4.583 1.4594 8.75 4.375 1.25 4.1672 2.9162 6.2505 5 6.25 0.83281-0.83281 1.25-1.4578 1.25-1.875-3.1e-4 -2.0828-0.20938-3.5412-0.625-4.375l-2.5-3.125-6.875-3.125-8.75-0.625c-5.417 0.41719-8.1253 1.8755-8.125 4.375-3.1e-4 -0.41563 1.0406 2.5005 3.125 8.75m-98.125-13.125-5 2.5-7.5 12.5c-1.25 1.6672-2.9169 2.5005-5 2.5h-0.625c-2.5002 4.7e-4 -3.7502-0.625-3.75-1.875v-10.625c-1.6e-4 -2.9162-3.5419-4.3745-10.625-4.375-12.5 4.7e-4 -18.333 5.4172-17.5 16.25v3.75h3.125c1.6666-11.666 6.0416-17.5 13.125-17.5 0.83281 4.7e-4 2.9164 1.0422 6.25 3.125l0.625 2.5c-0.83438 3.3338-1.25 5.0005-1.25 5-1.6e-4 5.4172 2.9164 8.1255 8.75 8.125 2.9164 4.7e-4 4.9998-0.83281 6.25-2.5l11.25-14.375c0.41719-1.6662 2.0831-2.4995 5-2.5 2.0831 4.7e-4 4.3748 1.25 6.875 3.75l-1.25 4.375 1.875 3.125c0.41719 0.41719 0.625 0.83437 0.625 1.25-1.6e-4 0.41719-1.0422 2.2922-3.125 5.625 0.41719 0.41719 1.4578 0.625 3.125 0.625 2.9164 4.7e-4 4.3747-1.6662 4.375-5v-0.625l-1.875-3.75v-3.125l5.625 2.5h1.25c2.4997 4.7e-4 4.1664-1.6662 5-5v-1.25l-5.625 0.625-3.75-3.125-1.25 1.25h-2.5c-2.9169-2.9162-5.8336-4.3745-8.75-4.375l-3.75 0.625m220.62 1.25-33.125 8.125-10.625 6.875-5 3.125c-7.0838 4.5838-13.75 13.125-20 25.625-5.417 12.5-8.542 24.167-9.375 35l6.875-1.875-1.875 7.5c-3.3338 4.5838-5.0003 7.7088-5 9.375-3.1e-4 2.917 2.708 4.5838 8.125 5l-0.625 5.625 6.875 3.75c-3.7503-10.416-5.6253-18.958-5.625-25.625-3.1e-4 -20.833 7.708-38.958 23.125-54.375 15.416-15.833 32.708-23.541 51.875-23.125h4.375l6.875 0.625c9.5828 4.7e-4 19.166 2.0838 28.75 6.25l6.875 3.125 10.625 6.25 2.5-5.625c-0.83438-0.83281-2.0839-1.6662-3.75-2.5-1.25-1.25-2.7089-2.2912-4.375-3.125l-20.625-7.5c-7.0838-3.3328-14.792-4.5828-23.125-3.75h-3.75l-10 1.25m-315-0.625c-9.5834 2.0838-17.917 7.0838-25 15-7.0834 7.5005-10.625 15.625-10.625 24.375-1.6e-4 10 5.2083 15 15.625 15 0.41719 4.7e-4 2.2916-0.41563 5.625-1.25l16.875-5h1.875c7.4998 4.7e-4 11.25 2.917 11.25 8.75-1.6e-4 3.7505-1.8752 7.7088-5.625 11.875-3.3334 3.7505-6.8752 5.6255-10.625 5.625-2.5002 4.7e-4 -4.1667-1.0406-5-3.125l-3.125-11.875c-1.6e-4 -1.25-0.83281-1.8745-2.5-1.875-1.6e-4 4.7e-4 -2.7084 1.0422-8.125 3.125l6.25 3.125 5 12.5c0.41719 1.667 2.4998 2.5005 6.25 2.5 4.9998 4.7e-4 9.5831-2.2912 13.75-6.875 4.1666-4.583 6.2498-9.7912 6.25-15.625-1.6e-4 -8.7495-4.1669-13.125-12.5-13.125-1.25 4.7e-4 -2.0834 0.20937-2.5 0.625l-20.625 6.25h-1.875c-7.0834 4.7e-4 -10.625-4.3745-10.625-13.125-1.6e-4 -8.7495 3.9583-16.458 11.875-23.125 7.9166-7.0828 16.875-10.625 26.875-10.625 12.5 4.7e-4 21.458 4.5838 26.875 13.75 0.83281 2.0838 1.8748 3.1255 3.125 3.125l2.5-0.625c-5.8334-13.333-15.833-19.791-30-19.375h-11.25m234.38 0.625h-0.625c-3.3338-0.83281-5.0003 0.20937-5 3.125-3.1e-4 4.1672 1.8747 6.2505 5.625 6.25 3.7497 4.7e-4 5.6247-1.6662 5.625-5-3.1e-4 -2.9162-1.8753-4.3745-5.625-4.375m146.25 0.625-4.375 1.875 0.625 6.25 6.875 6.25c-2.0839-5.4162-3.1255-9.5828-3.125-12.5v-1.875m-418.12 0.625c-2.5002 2.5005-3.7502 4.7922-3.75 6.875-1.6e-4 3.3338 2.7083 5.0005 8.125 5 1.6666 4.7e-4 3.1248-0.625 4.375-1.875 1.6666-1.6662 2.7083-2.4995 3.125-2.5 2.4998-0.41563 3.7498-1.0406 3.75-1.875l-0.625-1.25c-3.7502 2.5005-6.6667 3.7505-8.75 3.75 0.41719 4.7e-4 -1.0422-0.41563-4.375-1.25l-1.875-6.875m281.88 5.625c3.333 2.0838 4.9997 3.1255 5 3.125 1.25 4.7e-4 2.708-1.4578 4.375-4.375-2.0838-3.3328-3.9588-4.9995-5.625-5-2.5003 4.7e-4 -3.7503 1.0422-3.75 3.125v3.125m-21.875-2.5c-1.667 4.7e-4 -2.5003 1.0422-2.5 3.125-3.1e-4 2.9172 1.25 4.3755 3.75 4.375 2.4997 4.7e-4 3.7497-1.25 3.75-3.75-3.1e-4 -2.9162-1.4594-4.1662-4.375-3.75h-0.625m-231.88 24.375c-3.3334-2.0828-5.0002-3.9578-5-5.625-1.6e-4 -1.25 0.625-2.4995 1.875-3.75 4.9998-7.4995 12.5-11.25 22.5-11.25 6.6666 4.7e-4 11.458 1.4594 14.375 4.375l6.25 4.375 0.625-0.625c-5.8334-7.0828-12.708-10.625-20.625-10.625-20.417 4.7e-4 -30.625 6.6672-30.625 20-1.6e-4 4.5838 1.6666 6.8755 5 6.875 1.6666 4.7e-4 3.5416-1.25 5.625-3.75m334.38-21.875-29.375 8.75-1.25 3.125-1.875 0.625-0.625 2.5-2.5 3.75-2.5 7.5h7.5l-1.25 2.5-0.625 1.875c-0.41719 0.83437-0.83438 2.5005-1.25 5-0.41719 2.0838-1.0422 4.792-1.875 8.125l1.875-0.625c3.333 7.0838 8.1245 10.625 14.375 10.625 3.333 4.7e-4 6.458-0.83281 9.375-2.5l-2.5-5 7.5-0.625c2.0828-0.83281 3.1245-2.708 3.125-5.625-4.7e-4 -0.41563-0.20938-1.25-0.625-2.5-4.7e-4 -1.25-0.20938-2.9162-0.625-5-0.41719 0.41719-2.2922 1.8755-5.625 4.375h-2.5c-8.3338 0.83437-12.5-3.5412-12.5-13.125-4.7e-4 -4.1662 2.2912-7.9162 6.875-11.25 6.6662-5.4162 14.791-8.1245 24.375-8.125 2.0828 4.7e-4 4.7912 0.41719 8.125 1.25l12.5 2.5 5.625-0.625c-4.7e-4 -2.0828-3.9588-3.7495-11.875-5l-16.25-1.875-5.625-0.625m-189.38 3.125c-1.6669 0.41719-2.5003 1.25-2.5 2.5-3.1e-4 1.6672 1.0406 2.5005 3.125 2.5 1.6664 4.7e-4 2.4997-0.83281 2.5-2.5l-0.625-0.625-2.5-1.875m-8.75 1.25c-1.6669 1.25-2.5003 2.5005-2.5 3.75-3.1e-4 2.0838 1.0422 3.1255 3.125 3.125 1.6664 4.7e-4 2.4997-0.83281 2.5-2.5v-1.25l-3.125-3.125m-9.375 1.25c-1.25 4.7e-4 -2.0836 0.625-2.5 1.875l-0.625 1.25c-3.1e-4 2.0838 1.25 3.1255 3.75 3.125 2.0831 4.7e-4 3.1247-1.25 3.125-3.75-3.1e-4 -1.6662-1.25-2.4995-3.75-2.5m151.25 0c-5.0005 1.25-9.167 1.8755-12.5 1.875h-5.625c-2.5003 4.7e-4 -4.3753-0.20781-5.625-0.625l-5-1.25c0.83281 2.9172 1.4578 4.5838 1.875 5l5.625 1.25 5 0.625 1.875-1.25 8.125-1.25 6.25-4.375m-37.5 0c-2.917 4.7e-4 -4.3753 1.4594-4.375 4.375-3.1e-4 2.5005 1.25 3.7505 3.75 3.75 2.9162 4.7e-4 4.3747-1.6662 4.375-5-3.1e-4 -2.0828-1.25-3.1245-3.75-3.125m-12.5 2.5c-2.0838 4.7e-4 -3.3338 1.25-3.75 3.75-3.1e-4 2.9172 1.4578 4.3755 4.375 4.375 2.9162 4.7e-4 4.3747-1.25 4.375-3.75-0.41719-2.9162-2.0838-4.3745-5-4.375m60 7.5c-4.167 2.9172-6.042 5.8338-5.625 8.75v5.625l0.625 1.25 5 0.625-0.625-9.375 8.75-12.5-4.375 1.875-3.75 3.75m74.375 0 2.5 2.5 0.625 2.5c-2.0838-0.41563-3.9588-0.625-5.625-0.625-1.6672-0.41563-3.1255-0.625-4.375-0.625-2.9172 4.7e-4 -4.7922 0.20937-5.625 0.625l-5 2.5-3.125 4.375-2.5 1.25-3.125 4.375c1.6662 1.667 3.5412 2.5005 5.625 2.5 2.4995 4.7e-4 4.1662-0.20781 5-0.625v1.875-0.625l-5 5.625c-1.25 2.5005-1.8755 4.3755-1.875 5.625v3.125c2.9162 7.917 7.4995 11.875 13.75 11.875 3.7495 4.7e-4 6.0412-1.25 6.875-3.75-4.5838-3.333-6.8755-6.2495-6.875-8.75-4.7e-4 -9.1662 6.4578-13.75 19.375-13.75 11.25 4.7e-4 22.083 6.4588 32.5 19.375l1.25 1.875 3.75 6.25 5.625 14.375 3.125 9.375c0.41562-1.25 0.625-3.333 0.625-6.25-4.7e-4 -11.25-2.5005-19.791-7.5-25.625l-5-6.875 1.25-1.875c-1.6672-0.83281-3.3339-1.8745-5-3.125-1.25-1.25-2.7089-2.4995-4.375-3.75 0.41562-0.41563 1.4578-1.0406 3.125-1.875-2.0839-2.083-4.5839-3.5412-7.5-4.375-0.83438-3.7495-2.9172-6.4578-6.25-8.125l1.25-1.25c-1.6672-9.1662-8.9589-13.75-21.875-13.75-4.5838 4.7e-4 -6.8755 0.625-6.875 1.875-4.7e-4 4.7e-4 -4.7e-4 0.41719 0 1.25 0.41562 0.41719 0.83281 1.25 1.25 2.5m-114.38-1.25c-2.0838 4.7e-4 -3.1253 0.83437-3.125 2.5-3.1e-4 2.9172 1.4578 4.3755 4.375 4.375 2.9162 4.7e-4 4.3747-1.0406 4.375-3.125v-1.25l-5.625-2.5m-201.25 20.625 10.625 10.625 1.875 3.75c2.9166 3.3338 4.9998 7.7088 6.25 13.125l1.25 5.625 1.875 6.25-0.625 9.375 6.25 1.25c4.1664 0.83437 12.291 3.9588 24.375 9.375l4.375 3.125 1.25-31.875 1.25-12.5c0.83281-10.833 7.2914-17.708 19.375-20.625 5.4164-1.25 16.041-1.8745 31.875-1.875 32.916 4.7e-4 62.5 7.5005 88.75 22.5l10.625-23.75c-7.917-2.9162-15.417-5.2078-22.5-6.875-7.0838-1.6662-13.542-2.7078-19.375-3.125h1.25l-70-1.875-72.5 1.25-61.875-3.125c-4.1667 4.7e-4 -6.2502 1.4594-6.25 4.375v1.25l1.25 1.25 21.875 3.75 6.875 2.5 6.25 3.75 5.625 2.5m-33.125-8.125c18.333 7.917 33.542 17.917 45.625 30-7.0834-17.5-22.292-27.5-45.625-30m251.25 15.625c-0.83437 2.0838-1.667 4.167-2.5 6.25-0.83437 2.0838-1.667 4.167-2.5 6.25l-1.875 13.125c-0.41719 1.25-0.625 3.542-0.625 6.875v6.25c-3.1e-4 2.0838 0.41563 3.542 1.25 4.375l1.25 0.625 2.5 5c0.83281 2.0838 2.2912 3.1253 4.375 3.125 1.25 3.1e-4 2.4997-1.4578 3.75-4.375-7.0838-8.333-10.625-14.791-10.625-19.375-3.1e-4 -9.1662 1.8747-17.5 5.625-25l6.875-15.625-7.5 12.5m-20.625 14.375v-1.875c-24.584-14.583-54.584-21.875-90-21.875-17.5 4.7e-4 -31.459 2.7088-41.875 8.125-0.83437 0.83437-1.25 1.667-1.25 2.5l-2.5 15.625-1.25 3.75-1.875 32.5c-1.6e-4 1.25 0.20781 2.0838 0.625 2.5l3.75 5.625 2.5-49.375 1.875-3.75 0.625-3.75 2.5-1.875 1.25-2.5h4.375c17.916-3.7495 28.541-5.6245 31.875-5.625 36.25 4.7e-4 66.041 6.667 89.375 20m30-21.25-4.375 9.375c-1.667 4.5838-3.1253 8.9588-4.375 13.125-0.83437 4.167-1.4594 8.3338-1.875 12.5l5.625 7.5 10 16.875c3.333 10 4.9995 18.542 5 25.625-4.7e-4 21.25-7.292 39.792-21.875 55.625l-5.625 5-4.375 3.125-5 3.75c-1.667 0.83437-3.9588 1.8753-6.875 3.125-2.5003 1.25-5.417 2.2919-8.75 3.125l-8.125 1.25c-17.084 2.5003-27.917 3.7503-32.5 3.75h-86.875l-0.625-42.5v-6.25c-0.41719-1.25-0.625-2.9164-0.625-5-1.6e-4 -2.083 0.20781-5.6247 0.625-10.625 0.41719-4.9997 0.625-8.7497 0.625-11.25-1.6e-4 -5.833-2.7086-10.625-8.125-14.375l-6.25-4.375-5-1.875c-0.83281-0.41563-2.0836-0.83281-3.75-1.25-1.6669-0.41563-3.5419-1.0406-5.625-1.875-2.0836-2.083-4.1669-3.1247-6.25-3.125v19.375l-0.625 29.375 0.625 7.5v9.375l-0.625 184.38-3.125 22.5c-0.41719 4.1667-1.6669 7.9167-3.75 11.25-2.0834 3.3334-3.5419 6.0417-4.375 8.125-4.5834 6.25-8.3334 10-11.25 11.25l-23.75 10c-0.41719 0.41719-0.625 1.0422-0.625 1.875-1.6e-4 4.1667 3.9581 6.0417 11.875 5.625h4.375l20.625-3.125c10.833-2.0833 19.166-2.7083 25-1.875h2.5l62.5 2.5-3.75-16.875c-4.1669-0.41719-8.3336-1.0422-12.5-1.875-4.1669-1.25-8.5419-2.7083-13.125-4.375-7.5002-5.4166-11.875-13.125-13.125-23.125l-2.5-21.875v-131.25h58.125c47.5 0.41719 80.625 6.8753 99.375 19.375 6.6662 4.5836 10.416 7.0836 11.25 7.5h1.25c2.4995 1.6e-4 7.083-0.625 13.75-1.875 6.6662-1.6664 11.875-2.4998 15.625-2.5 2.4995 1.6e-4 5.208 0.20937 8.125 0.625 3.333 1.6e-4 6.8745 0.20937 10.625 0.625-0.83438-2.0831-1.667-3.3331-2.5-3.75-0.41719-0.83281-2.5005-2.7081-6.25-5.625l-1.875-1.875c-0.83438-0.83281-2.0838-1.8747-3.75-3.125-4.5838-4.5831-10.625-8.3331-18.125-11.25-3.7505-1.6664-8.7505-3.3331-15-5-3.7503-1.25-8.3338-1.8747-13.75-1.875-2.0838-2.0831-3.1253-3.7497-3.125-5v-1.875l1.25-1.25c22.5-12.5 37.916-25.416 46.25-38.75 8.333-13.333 12.5-30.625 12.5-51.875-4.7e-4 -30-11.667-52.5-35-67.5l-8.125-5m-107.5 10-1.25 6.875 0.625 8.125 3.125 4.375c2.083 2.5005 4.3747 4.5838 6.875 6.25l-5.625-15 0.625-0.625 6.875 9.375v-5c0.83281-4.583-2.917-9.3745-11.25-14.375m126.88 1.25 10.625 13.125 6.25 9.375c2.083 2.5005 3.958 7.0838 5.625 13.75 2.4995 9.5838 3.7495 17.709 3.75 24.375-4.7e-4 22.917-6.4588 43.959-19.375 63.125l-7.5 8.75c-1.25 0.83437-2.917 2.0836-5 3.75-1.667 1.25-3.542 2.7086-5.625 4.375l-5 2.5-10 6.875-6.25 2.5-1.25 3.125 3.75 1.875 3.125-3.125 18.125-9.375c5.833-2.9164 11.25-7.2914 16.25-13.125 4.9995-6.2497 9.3745-13.125 13.125-20.625 3.7495-7.9164 6.458-16.25 8.125-25 2.0828-8.7497 3.1245-17.5 3.125-26.25v-7.5c-0.41719-1.6662-0.83438-3.333-1.25-5-0.41719-2.083-1.0422-4.3747-1.875-6.875l-8.125-18.75c-3.3338-7.9162-10.209-15.208-20.625-21.875m-114.38 36.25c2.4997-7.9162 3.958-11.875 4.375-11.875 1.25 4.7e-4 1.8747 0.625 1.875 1.875-3.1e-4 1.25-0.625 2.7088-1.875 4.375l3.75 0.625c0.83281-3.333 2.083-4.9995 3.75-5l-0.625 5.625 1.875 0.625 3.125-6.25c0.41719-0.41563 0.83281-0.625 1.25-0.625 1.25 4.7e-4 1.8747 0.625 1.875 1.875v0.625l-3.125 6.25 2.5 1.25 1.875-4.375 5-8.75c1.6664-2.9162 3.1247-4.9995 4.375-6.25h2.5l-4.375 26.25 3.75-5 1.25-6.25c0.41719-0.41563 0.83281-0.625 1.25-0.625l0.625-0.625c1.25 4.7e-4 1.8747 0.83437 1.875 2.5-3.1e-4 1.25-0.625 2.917-1.875 5-1.25 1.667-1.8753 2.917-1.875 3.75-3.1e-4 1.25 0.625 2.0838 1.875 2.5l0.625 8.125c10.416-6.6662 15.625-16.458 15.625-29.375-3.1e-4 -2.083-0.625-3.1245-1.875-3.125-2.917 4.7e-4 -5.2088 1.8755-6.875 5.625l-2.5-0.625c1.6662-5.4162 2.4997-9.1662 2.5-11.25-3.1e-4 -6.2495-1.4594-9.583-4.375-10l-3.75-0.625-9.375 4.375-10 3.125c-0.83281 0.83437-1.25 1.4594-1.25 1.875l-0.625 0.625-1.875 6.875-5.625-4.375c-2.0836 4.7e-4 -4.167 2.917-6.25 8.75-0.41719 1.25-0.625 3.542-0.625 6.875-3.1e-4 -0.41563 0.41719 1.4594 1.25 5.625m-148.75-24.375h1.25c4.9998 4.7e-4 7.4998 1.25 7.5 3.75v0.625c-0.41719 2.917-2.5002 6.4588-6.25 10.625-5.4169 6.667-9.1669 10.834-11.25 12.5-2.0834 1.25-3.1252 2.917-3.125 5l5-4.375 3.75-2.5 5-5.625 6.875-6.875c2.4998-2.9162 3.7498-6.0412 3.75-9.375-1.6e-4 -6.6662-2.7084-9.9995-8.125-10-2.5002 4.7e-4 -3.9584 2.0838-4.375 6.25m20-3.75c-0.83281 2.0838-1.6669 4.167-2.5 6.25-0.83281 2.0838-1.6669 4.167-2.5 6.25l-16.875 19.375 3.75-1.25c0.83281-0.41563 1.6666-1.0406 2.5-1.875 0.83281-0.83281 1.6666-1.6662 2.5-2.5 10.833-14.583 16.25-21.458 16.25-20.625v-1.875l-3.125-3.75m-72.5 3.125c-7.0834 4.5838-10.625 9.167-10.625 13.75-1.6e-4 4.167 0.625 6.8755 1.875 8.125l8.125 8.75 2.5 5.625c1.6666-2.9162 2.4998-5.4162 2.5-7.5v-1.25c-0.83281-0.83281-2.0834-1.8747-3.75-3.125-1.6667-1.25-3.9584-2.9162-6.875-5-0.41719-0.41563-0.625-1.0406-0.625-1.875-1.6e-4 -4.9995 2.0833-7.4995 6.25-7.5 1.6666 4.7e-4 3.9583 0.83437 6.875 2.5 3.3333 5.417 4.7916 9.5838 4.375 12.5v4.375c-1.25 6.667-3.7502 12.709-7.5 18.125l-5 7.5c-3.3334 5.0003-5.2084 10.209-5.625 15.625-0.41719 0.41719-0.625 2.292-0.625 5.625 0.41719 15 5.4166 22.5 15 22.5 3.3333 3.1e-4 6.6666-0.83281 10-2.5 13.333-17.083 24.583-25.625 33.75-25.625 6.2498 3.1e-4 9.3748 2.5003 9.375 7.5l-0.625 0.625-5 5.625 5 1.25h0.625c4.9998 3.1e-4 7.4998-3.333 7.5-10-1.6e-4 -3.333-1.4578-6.2497-4.375-8.75-4.5834-3.7497-8.3334-5.6247-11.25-5.625h-3.125c-2.0834 3.1e-4 -3.7502 0.20937-5 0.625 1.6666-1.6662 2.4998-3.333 2.5-5-1.6e-4 -1.25-0.625-1.8747-1.875-1.875l-3.125 0.625-10 1.25-4.375 3.75-3.75 3.75-4.375 6.25-2.5 6.25-3.75 6.875c-1.25 2.5003-2.7084 3.7503-4.375 3.75-3.3334 3.1e-4 -5.0002-2.083-5-6.25-1.6e-4 -0.41719 0.20781-0.83281 0.625-1.25 15-11.25 22.5-22.5 22.5-33.75-1.6e-4 -2.4997-0.20781-3.958-0.625-4.375l-1.875-5-4.375 6.25-1.25 0.625c-1.6667 3.1e-4 -2.5002-0.625-2.5-1.875-1.6e-4 -1.6662 1.25-4.1662 3.75-7.5 1.25-1.6662 1.8748-4.9997 1.875-10-1.6e-4 -14.583-7.0834-22.708-21.25-24.375m170 1.875-0.625 3.125c-3.1e-4 -0.41563-3.1e-4 4.7e-4 0 1.25 0.41719 0.83437 0.83281 2.292 1.25 4.375-2.0836-0.41563-3.9586-0.625-5.625-0.625-1.6669-0.41563-3.1253-0.625-4.375-0.625-0.41719 4.7e-4 -2.2919 0.41719-5.625 1.25l-8.125 3.125-5.625-1.25c-1.25 4.5838-1.8753 7.917-1.875 10-3.1e-4 0.83437-3.1e-4 1.8753 0 3.125 0.41719 1.25 0.83281 2.917 1.25 5l2.5 3.75c1.6664 2.0838 4.5831 4.167 8.75 6.25v1.875c-6.6669 0.41719-10 1.667-10 3.75-3.1e-4 0.83437 0.83281 2.0838 2.5 3.75 2.0831 1.25 3.7497 2.292 5 3.125l1.25 0.625 3.75-0.625-0.625 1.875c1.6664 0.41719 3.7497 0.625 6.25 0.625h4.375c1.25 3.1e-4 2.7081 3.1e-4 4.375 0 2.0831-0.41563 4.1664-0.83281 6.25-1.25-1.25-2.4997-2.7086-3.7497-4.375-3.75-2.5003 3.1e-4 -4.1669 0.20937-5 0.625l-1.25-1.875 0.625-1.25h6.25l3.75 0.625c0.41719 3.1e-4 1.6664-1.0406 3.75-3.125l-10.625-3.75h2.5c1.6664 3.1e-4 3.9581 0.41719 6.875 1.25 3.3331 0.83437 5.6247 1.25 6.875 1.25v-1.25l-26.875-13.75 1.25-0.625 6.875 0.625 10-0.625c2.9164 3.1e-4 6.8747 0.83437 11.875 2.5l-0.625-3.125-6.25-3.75c0.41719-1.25 0.83281-1.8747 1.25-1.875l2.5 0.625c1.6664 2.5003 3.3331 3.9588 5 4.375 1.25 3.1e-4 1.8747-0.625 1.875-1.875-3.1e-4 -1.6662-1.6669-3.7497-5-6.25v-1.875h3.125l3.75 5 5 3.125c-4.5836-14.166-9.7919-21.458-15.625-21.875l-9.375-0.625-3.125-1.25m206.25 19.375h-2.5l-5-5.625-10-3.125-4.375-2.5c-2.9172 4.7e-4 -4.3755 3.3338-4.375 10-4.7e-4 10.417 5.6245 17.084 16.875 20v3.75l-6.875-1.875h5c-6.2505 0.83437-9.3755 2.0838-9.375 3.75-4.7e-4 0.83437-4.7e-4 1.667 0 2.5 0.41563 0.83437 0.83281 2.0838 1.25 3.75l0.625 2.5 2.5 4.375c2.9162 2.917 4.3745 5.8338 4.375 8.75-4.7e-4 4.167-3.7505 9.3753-11.25 15.625 12.5-4.583 18.333-10.416 17.5-17.5v-0.625l-1.25-9.375 2.5 1.25c0.41563 0.41719 0.625 1.8753 0.625 4.375-4.7e-4 5.8338-1.4594 10.834-4.375 15 6.2495-1.6664 9.3745-8.333 9.375-20-4.7e-4 -4.1662-1.25-9.9997-3.75-17.5l2.5-0.625c1.25 3.1e-4 2.0828 2.0838 2.5 6.25l1.875 8.75v2.5c-4.7e-4 2.917-1.25 7.7088-3.75 14.375 4.9995-4.1662 7.4995-9.9997 7.5-17.5-4.7e-4 -3.7497-0.625-8.1247-1.875-13.125h2.5l1.875 13.125 1.25 1.25c1.6662-4.583 2.4995-9.1662 2.5-13.75-4.7e-4 -2.9162-0.20938-4.583-0.625-5l-6.25-19.375-1.25-6.25c-0.83438-0.83281-1.6672-1.25-2.5-1.25-3.3338 4.7e-4 -4.5838 3.542-3.75 10.625v2.5m-299.38-8.125c0.41719 0.83437 0.625 2.0838 0.625 3.75-1.6e-4 2.5005-2.0834 4.5838-6.25 6.25h3.75c6.2498 3.1e-4 9.3748-2.2912 9.375-6.875-1.6e-4 -2.9162-1.4578-4.3745-4.375-4.375l-1.25 0.625-1.875 0.625m151.88 0c-4.167 7.917-6.2503 12.292-6.25 13.125-3.1e-4 1.667 0.625 3.9588 1.875 6.875 3.333-6.6662 4.7914-11.666 4.375-15v-5m22.5 16.25c2.4997-3.333 5.833-5.833 10-7.5l0.625 1.875c-4.5838 2.0838-7.7088 5.417-9.375 10 10.416-2.9162 16.666-9.1662 18.75-18.75l-1.25 0.625c-3.3338 0.83437-6.8753 2.0838-10.625 3.75-3.7503 1.25-6.4588 4.5838-8.125 10m-221.88-9.375c3.3333 3.3338 4.9998 5.2088 5 5.625v2.5l-0.625 0.625c-3.3334 4.5838-4.7917 7.0838-4.375 7.5l1.875 2.5 0.625-1.875 5.625-5.625c1.25-1.25 1.8748-3.5412 1.875-6.875-1.6e-4 -4.1662-1.8752-6.2495-5.625-6.25-0.83281 4.7e-4 -1.4578 0.20937-1.875 0.625l-2.5 1.25m178.12 2.5-3.125 3.75c-1.667 1.667-3.1253 2.5003-4.375 2.5-1.667 3.1e-4 -3.7503-0.625-6.25-1.875-1.667 1.667-2.5003 4.167-2.5 7.5-3.1e-4 5.8338 4.3747 10 13.125 12.5l-0.625-6.875c2.4997 5.0003 4.7914 7.5003 6.875 7.5 0.83281 3.1e-4 1.25-0.625 1.25-1.875l-2.5-8.75h2.5c-3.1e-4 3.1e-4 0.20781 0.83437 0.625 2.5 0.41562 1.25 1.0406 3.542 1.875 6.875l1.25-0.625-0.625-11.25 2.5 0.625 1.875 5.625 0.625-1.875 0.625-5-2.5-5-3.75-4.375-5-1.25-1.875-0.625m-176.88 28.125 6.25-2.5 15-8.75c7.9166-3.333 15.625-4.9997 23.125-5 18.333 3.1e-4 32.916 4.3753 43.75 13.125l5 4.375 6.25 6.25 5 7.5c2.9164-2.4997 4.3747-4.3747 4.375-5.625v-2.5c-16.25-20-37.5-30-63.75-30-7.5002 3.1e-4 -14.375 1.0422-20.625 3.125l-8.75 4.375-7.5 3.125c-5.4167 1.667-8.1252 5.0003-8.125 10v2.5m140-19.375c0.83281 0.83437 2.7081 2.292 5.625 4.375 2.9164 1.667 7.0831 4.167 12.5 7.5l-1.25-4.375v-3.125c0.41719-2.4997-5.2086-3.958-16.875-4.375m87.5 3.75c-7.0838 2.0838-12.917 4.792-17.5 8.125v1.25h7.5c-3.1e-4 1.667 0.20781 2.5003 0.625 2.5l-1.875 6.875 3.75-1.875 0.625 1.875h3.125c2.9162 1.25 8.5412 2.292 16.875 3.125l0.625 1.875c-8.7503 4.5838-15.417 6.667-20 6.25h-5.625l3.125 4.375c0.83281 3.3338 1.25 5.0003 1.25 5-3.1e-4 1.25-2.292 2.292-6.875 3.125v1.875c5.833 2.917 11.041 4.3753 15.625 4.375 5.4162 3.1e-4 10.833-1.4578 16.25-4.375 0.83281-0.83281 1.25-1.6664 1.25-2.5-3.1e-4 -2.083-1.667-4.1662-5-6.25l0.625-2.5c2.9162 1.25 5.208 1.8753 6.875 1.875 7.4997 3.1e-4 13.75-4.7912 18.75-14.375l-9.375-2.5-4.375-4.375c-2.0838-3.7497-4.167-5.833-6.25-6.25h-2.5l-6.25 0.625 3.75-7.5h-1.875l-5-1.25h-3.125l-3.125-0.625-1.875 1.25m-26.25 0c-6.667 1.667-10 5.6253-10 11.875-3.1e-4 0.83437 0.20781 1.4594 0.625 1.875 0.83281-3.333 2.2914-4.9997 4.375-5 0.83281 3.1e-4 1.25 0.625 1.25 1.875l-4.375 5v1.25l1.25 1.25 4.375-5h2.5l-5 8.75h1.25c1.6664-2.9162 3.5414-4.3747 5.625-4.375 0.83281 3.1e-4 1.4578 0.20937 1.875 0.625l-5 4.375 2.5 0.625c8.333 3.1e-4 12.5-3.958 12.5-11.875l-10-1.25-3.75-10m-193.12 14.375-1.25 1.875 6.25-2.5 11.25-4.375c3.3331-0.83281 5.4166-1.25 6.25-1.25 4.9998 3.1e-4 9.5831 1.4594 13.75 4.375 4.1666 2.917 6.2498 6.042 6.25 9.375-1.6e-4 5.0003-2.2919 7.5003-6.875 7.5-3.3334 3.1e-4 -5.4169-0.20781-6.25-0.625 0.41719 2.917 2.7081 4.3753 6.875 4.375 7.9166 3.1e-4 11.875-4.583 11.875-13.75-1.6e-4 -9.583-6.4584-14.375-19.375-14.375-7.5002 3.1e-4 -17.083 3.1253-28.75 9.375m140.62 6.25 0.625 5.625-3.75 7.5c-3.1e-4 2.0838 2.4997 3.1253 7.5 3.125 4.1664 3.1e-4 7.9164-1.6662 11.25-5l-6.25 1.25 0.625-1.875c4.1664-0.41563 6.2497-1.8747 6.25-4.375-0.83438-0.83281-2.7086-1.25-5.625-1.25l-1.875-1.25 10.625-5-10 1.875 1.25-2.5c3.7497-0.41563 6.2497-1.6662 7.5-3.75-2.0836-1.25-4.167-1.8747-6.25-1.875-8.7503 3.1e-4 -13.125 1.667-13.125 5-3.1e-4 3.1e-4 -3.1e-4 0.20937 0 0.625 0.41719 0.41719 0.83281 1.0422 1.25 1.875m31.875-5.625-1.25 1.875 4.375 2.5 0.625-2.5c-3.1e-4 -1.25-1.25-1.8747-3.75-1.875m-11.25 6.875c2.4997 0.83437 3.7497 1.25 3.75 1.25 2.083 3.1e-4 3.1247-1.0406 3.125-3.125-3.1e-4 -2.083-0.83438-3.1247-2.5-3.125h-2.5l-1.875 5m18.125-2.5c-0.41719 0.41719-0.625 1.25-0.625 2.5-3.1e-4 1.667 0.625 2.5003 1.875 2.5 1.25-0.41563 1.8747-1.25 1.875-2.5-3.1e-4 -0.83281-0.41719-1.6662-1.25-2.5h-1.875m27.5 6.875c2.083 0.41719 4.583 0.625 7.5 0.625h4.375c1.6662 3.1e-4 4.1662-0.625 7.5-1.875-3.7503-1.25-9.3753-2.4997-16.875-3.75-1.25 3.1e-4 -2.0838 1.25-2.5 3.75v1.25m-33.75-3.75c-1.25 3.1e-4 -1.8753 0.41719-1.875 1.25-3.1e-4 2.5003 1.0406 3.7503 3.125 3.75 1.6664 3.1e-4 2.4997-0.83281 2.5-2.5-3.1e-4 -2.4997-1.0422-3.333-3.125-2.5h-0.625m-47.5 3.75h-6.875l-6.25 2.5h-2.5l6.875-4.375c-3.3336-0.83281-5.0003-1.25-5-1.25-5.0003 3.1e-4 -8.3336 1.8753-10 5.625l-0.625 1.25c-3.1e-4 1.667 1.6664 2.5003 5 2.5 4.9997 3.1e-4 11.458-2.083 19.375-6.25m-35.625 1.25v61.25l0.625 5.625v9.375l3.75-0.625v-67.5c-1.6e-4 -3.7497-1.4578-6.458-4.375-8.125m73.75-0.625c-1.25 0.83437-1.8753 1.8753-1.875 3.125-3.1e-4 2.0838 1.0422 3.1253 3.125 3.125 2.083 3.1e-4 3.1247-1.0406 3.125-3.125-3.1e-4 -2.083-1.25-3.1247-3.75-3.125h-0.625m18.125 0.625c-1.25 3.1e-4 -1.8753 0.625-1.875 1.875-3.1e-4 1.25 0.83281 1.8753 2.5 1.875 1.25 3.1e-4 1.8747-0.83281 1.875-2.5-3.1e-4 -0.83281-0.83438-1.25-2.5-1.25m5.625 5c0.83281 0.41719 1.6664 0.83437 2.5 1.25 1.25 0.41719 2.2914 0.83437 3.125 1.25l0.625 1.25c-0.83438 0.83437-1.4578 1.25-1.875 1.25-0.41719 3.1e-4 -1.25 3.1e-4 -2.5 0-1.25-0.41563-2.917-0.83281-5-1.25l-1.25-0.625c-1.667 3.1e-4 -2.5003 0.625-2.5 1.875-3.1e-4 3.3336 2.9164 7.5003 8.75 12.5l8.75 0.625 2.5-8.125 8.125-3.75c-3.7503-7.4997-7.7086-11.25-11.875-11.25-5.0003 3.1e-4 -8.1253 1.667-9.375 5m-77.5 9.375-3.125 5.625c3.3331 0.83437 4.9997 1.25 5 1.25 1.25 3.1e-4 2.7081-0.83281 4.375-2.5l2.5 1.25c-2.0836 3.3336-3.1253 5.6253-3.125 6.875-3.1e-4 0.83437-3.1e-4 1.8753 0 3.125 0.41719 1.25 0.83281 2.917 1.25 5v9.375l-3.125 12.5c1.25 0.41719 3.9581 0.625 8.125 0.625 4.1664 3.1e-4 7.4997-1.8747 10-5.625 2.4997-4.1664 3.9581-6.2497 4.375-6.25h3.125l-2.5 8.125 0.625 5c12.916-3.7497 20.208-10.625 21.875-20.625l0.625-6.25h-1.875c0.41562 0.41719 0.625 1.25 0.625 2.5-3.1e-4 2.5003-0.83438 4.5836-2.5 6.25h-2.5l2.5-7.5v-6.875l-2.5 8.75-2.5 5-2.5-0.625c1.6664-2.9164 2.4997-4.9997 2.5-6.25-3.1e-4 -1.6664-0.20781-2.9164-0.625-3.75l-4.375 6.25c-1.6669 3.1e-4 -2.5003-0.41563-2.5-1.25-3.1e-4 -2.4997 1.4578-4.583 4.375-6.25-7.0836 2.0836-12.084 5.8336-15 11.25l-3.125-0.625 1.875-6.25 4.375-7.5 4.375-9.375-8.125 6.25-1.875-1.875 0.625-0.625 7.5-6.25-2.5-0.625c-0.41719 3.1e-4 -1.4578 0.83281-3.125 2.5-1.6669 1.667-2.9169 2.5003-3.75 2.5-0.83438 3.1e-4 -1.6669-0.41719-2.5-1.25l7.5-5.625-1.875-3.75-5 3.75h-2.5v-2.5l13.75-6.875h-5l-11.25 3.75c-2.5003 0.41719-6.6669 3.542-12.5 9.375m62.5-10.625c-0.41719 3.1e-4 -0.625 0.625-0.625 1.875-0.83438 2.0838 0.20781 3.1253 3.125 3.125 1.25 3.1e-4 1.8747-0.83281 1.875-2.5-3.1e-4 -2.083-1.0422-3.1247-3.125-3.125l-1.25 0.625m85 0c-2.5003 1.25-3.7503 2.5003-3.75 3.75-3.1e-4 0.83437 1.0406 1.8753 3.125 3.125l5 3.125 1.25-5c-0.41719-2.4997-2.292-4.1662-5.625-5m-159.38 0.625c0.41719 2.0838 0.83281 3.9588 1.25 5.625 0.41719 1.667 0.83281 2.917 1.25 3.75 2.4997 8.7503 3.7497 15.209 3.75 19.375-3.1e-4 4.5836-1.4578 10.417-4.375 17.5l-0.625 19.375c0.83281-1.25 1.8747-2.4997 3.125-3.75 1.25-1.6664 2.2914-3.333 3.125-5v-3.75l3.75-12.5c0.41562-0.41719 0.625-1.4578 0.625-3.125-3.1e-4 -2.4997 0.20781-4.3747 0.625-5.625v-7.5c0.83281-2.4997 0.41719-3.958-1.25-4.375l-5-3.75 3.75-10.625c-3.1e-4 -3.333-3.3336-5.208-10-5.625m223.75 1.25-4.375 3.125-6.25 3.125-1.875 8.125c7.0828-2.9164 11.666-6.6664 13.75-11.25l-1.25-3.125m-76.875 5.625 5 13.75c-1.667 5.417-5.0003 8.542-10 9.375 2.4997 3.7503 4.7912 5.6253 6.875 5.625 6.2497 3.1e-4 9.3745-4.1664 9.375-12.5-4.7e-4 -0.83281-0.41719-2.9164-1.25-6.25l-2.5-5-4.375-6.25-3.125 1.25m-81.875 1.25-4.375 3.125c-0.41719-0.41719-0.625-1.0422-0.625-1.875-3.1e-4 -1.6664 0.20781-2.708 0.625-3.125-2.917 2.917-4.3753 6.042-4.375 9.375-3.1e-4 2.917 0.20781 4.792 0.625 5.625v1.875c1.25-0.41719 3.1247-0.625 5.625-0.625 2.4997 3.1e-4 5.4164 1.25 8.75 3.75l2.5 5c4.583-4.583 6.8747-8.958 6.875-13.125-3.1e-4 -3.7497-1.4578-7.083-4.375-10l3.125 8.75-3.125 0.625c-0.41719-2.083-1.0422-3.7497-1.875-5-0.83438-1.6664-1.667-3.333-2.5-5v7.5l-2.5-5h-1.875l-1.875 2.5-1.875-2.5 1.25-1.875m143.75 15.625 8.125-0.625 6.25-1.25c1.25-0.41719 3.3328-0.625 6.25-0.625 11.666 3.1e-4 17.5 3.3336 17.5 10-4.7e-4 5.0003-2.0838 7.5003-6.25 7.5-1.6672 3.1e-4 -3.5422-1.6664-5.625-5-2.0838 3.3336-3.1255 5.2086-3.125 5.625-4.7e-4 5.0003 3.3328 7.5003 10 7.5 7.9162 3.1e-4 11.875-4.1664 11.875-12.5-4.7e-4 -6.6664-2.7088-10.208-8.125-10.625v-1.875c3.7495-0.41719 5.6245-1.4578 5.625-3.125-4.7e-4 -4.583-4.1672-6.8747-12.5-6.875-3.3338 3.1e-4 -7.2922 1.25-11.875 3.75-4.1672 2.0836-7.2922 3.1253-9.375 3.125-1.25 0.41719-2.9172 0.625-5 0.625h-1.25c-1.25 0.41719-2.0838 1.8753-2.5 4.375m-170 0v2.5l12.5-6.875-0.625-7.5c-3.7503 1.667-7.7086 5.6253-11.875 11.875m65-9.375-0.625 6.875c-4.167 0.83437-6.042 1.25-5.625 1.25-2.0836 3.1e-4 -3.542-0.20781-4.375-0.625 0.83281 2.5003 1.6664 5.0003 2.5 7.5 0.83281 2.5003 1.6664 5.2086 2.5 8.125l3.75 5c0.41719 0.41719 0.625 0.83281 0.625 1.25-3.1e-4 0.83437-0.41719 1.25-1.25 1.25-5.417 3.1e-4 -10.209-3.1247-14.375-9.375l-5.625-8.125v3.75l5 10.625-8.75-10.625c-2.0836 2.0836-3.1253 3.542-3.125 4.375-3.1e-4 0.83281 0.625 2.5003 1.875 5h-2.5c-0.83438-2.9164-1.8753-5.6247-3.125-8.125-0.83438-2.4997-2.0836-4.7914-3.75-6.875-0.41719 2.0836-0.83438 3.9586-1.25 5.625-3.1e-4 1.25-3.1e-4 2.292 0 3.125-3.1e-4 4.167 3.333 11.459 10 21.875 3.333-3.333 4.9997-7.2914 5-11.875l2.5 0.625 4.375 5.625 11.25 3.125 4.375 3.125c0.83281 1.667 1.4578 3.1253 1.875 4.375 0.83281 0.83437 1.4578 1.4578 1.875 1.875 3.333 3.1e-4 4.9997-4.1664 5-12.5-3.1e-4 -4.1664-0.83438-7.9164-2.5-11.25l2.5-1.25c0.83281 1.667 2.708 2.7086 5.625 3.125-3.1e-4 -9.9997-4.5838-18.958-13.75-26.875m-20.625 6.25v1.875c-3.1e-4 1.667 0.20781 2.7086 0.625 3.125l3.75 6.875 9.375 7.5-2.5-5.625-1.875-5c-1.25-4.9997-2.7086-7.708-4.375-8.125l-4.375-2.5-0.625 1.875m31.875 0.625c2.4997 0.83437 4.3747 1.4578 5.625 1.875 3.7497 2.5003 5.833 3.7503 6.25 3.75l1.25 0.625c-3.1e-4 1.25-0.625 1.8753-1.875 1.875-0.41719 3.1e-4 -1.667-0.83281-3.75-2.5-2.0838-1.6664-3.9588-2.708-5.625-3.125 2.9162 7.0836 9.7912 10.834 20.625 11.25-1.667-2.083-2.7088-3.958-3.125-5.625-4.5838-7.4997-9.792-11.25-15.625-11.25-1.25 3.1e-4 -1.8753 0.20937-1.875 0.625l-1.875 2.5m-211.25-1.25c0.41719 2.0836 0.625 3.9586 0.625 5.625 0.41719 1.25 0.625 2.292 0.625 3.125-1.6e-4 3.3336-1.25 7.7086-3.75 13.125-0.41719 0.83437-0.83281 1.667-1.25 2.5-1.6e-4 0.83281-0.41719 2.0836-1.25 3.75-2.9167 9.167-4.3752 13.334-4.375 12.5-1.6e-4 -1.25 1.4578 2.2919 4.375 10.625-1.6669 3.1e-4 -3.9584-0.83281-6.875-2.5l0.625 6.25c5.8331 10.834 15 16.042 27.5 15.625h0.625l5-0.625h6.875c0.83281 2.5003 1.25 3.5419 1.25 3.125-1.6e-4 1.6669-1.0422 2.5003-3.125 2.5-2.9169 3.1e-4 -5.8334-0.625-8.75-1.875-5.8334-0.83281-10.208-1.4578-13.125-1.875-2.9169-0.83281-4.1669-1.25-3.75-1.25-2.5002 3.1e-4 -6.4584 1.25-11.875 3.75l7.5 5 1.25 2.5c-7.0834 3.3336-10.625 6.8753-10.625 10.625-1.6e-4 1.6669 0.83281 3.9586 2.5 6.875 3.3331-4.9998 6.6666-7.9164 10-8.75l30-1.875 8.125-1.875 4.375-1.25c2.0831-0.83281 3.1248-2.0831 3.125-3.75-1.6e-4 -2.0831-0.20938-3.3331-0.625-3.75l-8.125 1.875-6.875 0.625 0.625-1.875 15-3.75v-7.5h-12.5l-6.875-1.875-6.25-5.625 1.875-1.875c5.8331 4.5836 11.875 6.8753 18.125 6.875h5.625v-3.75h-2.5c-2.5002 3.1e-4 -5.2084-1.25-8.125-3.75-2.5002-2.9164-3.7502-5.6247-3.75-8.125-1.6e-4 -1.6664 0.83281-2.4997 2.5-2.5 0.83281 3.1e-4 1.25 0.83281 1.25 2.5v1.875c2.4998 5.0003 6.0416 7.5003 10.625 7.5v-5c-1.6e-4 -2.0831-0.625-5.4164-1.875-10 1.25-2.4997 1.8748-4.3747 1.875-5.625-1.6e-4 -1.6664-0.20938-2.9164-0.625-3.75-1.25 2.0836-2.5002 3.1253-3.75 3.125-1.25 3.1e-4 -1.8752-0.625-1.875-1.875-1.6e-4 -0.41563 0.625-1.8747 1.875-4.375 1.25-2.4997 1.8748-4.583 1.875-6.25-1.6e-4 -6.2497-2.7084-9.583-8.125-10-0.83281 1.25-1.6669 2.917-2.5 5-0.83281 1.667-1.6669 3.542-2.5 5.625v1.25c-1.6e-4 -0.41563 0.41719 1.4594 1.25 5.625-0.41719 0.41719-1.25 0.625-2.5 0.625-0.83281 3.1e-4 -1.8752-0.625-3.125-1.875-1.6669 2.917-2.5002 5.2086-2.5 6.875-1.6e-4 1.6669 0.625 3.9586 1.875 6.875l-2.5 0.625-2.5-10 2.5-11.875-3.125-6.875c-1.6669 1.667-3.1252 3.3336-4.375 5-1.25 1.25-2.7084 2.292-4.375 3.125l-1.25-2.5c2.9166-4.1664 4.3748-7.2914 4.375-9.375-1.6e-4 -7.083-4.5834-11.458-13.75-13.125m-47.5 5c-0.83281 4.167-1.25 6.042-1.25 5.625-1.6e-4 5.8336 3.5416 8.7503 10.625 8.75 1.25 3.1e-4 3.5416-1.6664 6.875-5l-8.125-1.25-2.5-1.25-5.625-6.875m363.12 11.25-1.25 1.25c-2.0838-0.41719-3.7505-0.625-5-0.625-1.25-0.41719-2.2922-0.625-3.125-0.625-9.5838 3.1e-4 -14.375 5.6253-14.375 16.875-4.7e-4 4.167 3.5412 6.6669 10.625 7.5-3.3338-3.333-5.0005-5.6247-5-6.875-4.7e-4 -4.583 2.4995-6.8747 7.5-6.875 0.83281 3.1e-4 1.6662 0.20937 2.5 0.625 1.25 3.1e-4 2.7078 0.20937 4.375 0.625l3.75 4.375c-0.83438 10-6.8755 17.292-18.125 21.875l-18.75 6.875-6.25 3.125c1.6662 1.25 3.1245 1.8753 4.375 1.875h0.625c2.4995 3.1e-4 10.208-2.9164 23.125-8.75l10.625-5c10.833-4.9997 16.25-12.5 16.25-22.5-4.7e-4 -2.9164-1.0422-6.0414-3.125-9.375l-5-6.875-1.875-3.75-0.625-0.625c-1.6672 3.1e-4 -2.5005 1.0422-2.5 3.125-4.7e-4 3.1e-4 0.41562 1.25 1.25 3.75m75.625 4.375-5 3.75-13.125 11.875c-10.417 9.1669-19.167 15.209-26.25 18.125l-11.25 5-7.5 4.375 6.875-1.875 10.625-5 5.625-1.875 48.125-32.5 3.125-0.625 6.875 1.875-0.625-7.5c-4.7e-4 -2.4997-1.8755-3.7497-5.625-3.75-1.25 3.1e-4 -3.5422 0.83281-6.875 2.5-2.9172 1.667-4.5839 2.917-5 3.75v1.875m-279.38-7.5-1.875 6.875-5 16.875c-0.41719 0.83281-0.625 2.2919-0.625 4.375-3.1e-4 5.4169 2.4997 8.1253 7.5 8.125 4.5831 3.1e-4 7.0831-2.0831 7.5-6.25-2.5003 1.25-4.5836 1.8753-6.25 1.875-2.9169 3.1e-4 -4.3753-2.9164-4.375-8.75v-1.875l3.75-15.625-0.625-5.625m-140 8.125c-5.0002 4.167-8.3334 9.167-10 15l-1.25 5 0.625 8.125 1.875 13.125 1.25 1.25-0.625-12.5v-5l2.5-9.375v-3.125l3.75-2.5 5.625-4.375 7.5 3.75v1.25c0.83281 2.5003-1.6e-4 3.9586-2.5 4.375 0.83281 0.83281 1.6666 1.25 2.5 1.25 3.7498 3.1e-4 5.6248-2.9164 5.625-8.75-1.6e-4 -2.9164-1.8752-6.0414-5.625-9.375-2.5002-0.83281-3.5417-1.25-3.125-1.25h-2.5l-5.625 3.125m-20-0.625-1.25 6.25c-0.41719 3.3336-0.83281 6.2503-1.25 8.75-1.6e-4 2.5003-1.6e-4 4.5836 0 6.25v3.125c0.41719 1.6669 0.83281 3.9586 1.25 6.875 0.41719 2.5003 0.83281 5.4169 1.25 8.75 2.0833 12.5 7.0833 25.209 15 38.125l5 6.25c2.0833 2.0836 4.1666 4.1669 6.25 6.25 2.0833 1.6669 4.1666 2.9169 6.25 3.75l11.25 6.875c2.4998 1.6669 3.9581 2.7086 4.375 3.125 0.83281 0.41719 2.4998 1.0422 5 1.875 2.0831-3.3331 3.1248-4.9998 3.125-5-1.6e-4 -1.25-3.3334-2.7081-10-4.375-10.833-3.3331-20.625-12.5-29.375-27.5-8.3334-15.833-12.5-31.458-12.5-46.875-1.6e-4 -2.9164 0.625-7.4997 1.875-13.75 0.41719-0.83281 0.625-2.2914 0.625-4.375-1.6e-4 -2.083-2.2917-3.5414-6.875-4.375m196.25 25c9.1664-2.9164 13.75-8.7497 13.75-17.5-3.1e-4 -1.6664-0.625-2.4997-1.875-2.5-1.667 3.1e-4 -2.7086 2.7086-3.125 8.125-0.83438 1.25-1.4578 1.8753-1.875 1.875h-1.25l3.125-9.375-0.625-3.125-4.375 6.25-1.25 9.375-2.5 6.875m62.5-1.875c5.4162-0.41719 8.1247-1.4578 8.125-3.125-3.1e-4 -8.333-1.25-12.916-3.75-13.75l-2.5-0.625-1.875 17.5m141.88-9.375c-2.0838 1.667-3.7505 2.917-5 3.75-0.83438 0.41719-1.6672 0.83281-2.5 1.25-0.83438 0.41719-2.7088 1.4578-5.625 3.125-2.5005 1.25-6.0422 3.1253-10.625 5.625-2.0838 0.83437-4.5838 2.0836-7.5 3.75 2.0828 2.0836 3.5412 3.1253 4.375 3.125 1.25 3.1e-4 3.7495-1.25 7.5-3.75l12.5-7.5c2.4995-1.25 4.7912-4.3747 6.875-9.375m25.625 18.125 3.75 1.875c4.1661-7.9164 9.3745-11.875 15.625-11.875 5.4161 3.1e-4 8.1245 3.3336 8.125 10v1.25l-1.875 6.875-0.625 3.125-4.375 4.375 3.125 5.625c5.4161-5.4164 8.1244-12.708 8.125-21.875-6.3e-4 -9.9997-4.3755-15-13.125-15-7.5005 3.1e-4 -13.75 5.2086-18.75 15.625m11.875-1.875-2.5 4.375c2.0828 2.0836 3.1245 3.7503 3.125 5-4.7e-4 3.7503-1.8755 6.4586-5.625 8.125-3.3339 1.25-5.0005 3.5419-5 6.875 10.833-2.0831 16.25-7.4997 16.25-16.25-4.7e-4 -4.1664-2.0839-6.8747-6.25-8.125m-71.25 3.125h-3.125l-0.625 1.875c-3.3338 3.1e-4 -6.6672 1.0422-10 3.125-0.83438 0.41719-7.0838 2.7086-18.75 6.875-1.25 0.41719-2.5005 0.83437-3.75 1.25-0.83438 0.41719-1.667 0.83438-2.5 1.25 3.333 2.0836 4.9995 3.1253 5 3.125 2.4995 3.1e-4 9.9995-3.1247 22.5-9.375 0.83281-0.41719 1.6662-0.83281 2.5-1.25 1.25-0.41719 2.7078-0.83281 4.375-1.25l4.375-5.625m-348.12 29.375 5 9.375 3.75 3.75c8.7498 10 17.917 16.667 27.5 20v-1.25c-22.917-9.9998-34.375-23.75-34.375-41.25-1.6e-4 -8.7497 2.9166-13.125 8.75-13.125 2.9166 3.1e-4 4.3748 1.25 4.375 3.75-1.6e-4 1.6669-0.83281 3.3336-2.5 5 3.7498-1.6664 5.6248-3.3331 5.625-5-1.6e-4 -6.6664-3.3334-9.9997-10-10-7.9167 3.1e-4 -11.875 5.4169-11.875 16.25-1.6e-4 4.1669 1.25 8.3336 3.75 12.5m395.62-8.75c-8.7505 3.1e-4 -13.125-2.4997-13.125-7.5-4.7e-4 -4.5831 5.2078-6.8747 15.625-6.875-1.25 3.1e-4 3.5411 1.6669 14.375 5 0.41562-1.25 0.625-2.0831 0.625-2.5 0.41562-0.83281 0.625-1.25 0.625-1.25-4.7e-4 -3.7497-5.8339-5.6247-17.5-5.625-13.75 3.1e-4 -20.625 4.1669-20.625 12.5-4.7e-4 6.2503 5.4162 9.7919 16.25 10.625 2.4995 3.1e-4 3.7495-0.83281 3.75-2.5v-1.875m-39.375-11.875v0.625l-5 1.875 5-0.625v-1.875m45 1.875-1.25 5.625v8.75l-0.625 2.5 0.625 0.625c0.41562 3.1e-4 0.83281 0.20937 1.25 0.625 0.83281 3.1e-4 2.0828-3.3331 3.75-10 0.83281-3.3331 1.25-4.9997 1.25-5-4.7e-4 -1.25-1.6672-2.2914-5-3.125m-83.75 10c1.6662 1.25 3.1245 1.8753 4.375 1.875 0.41562 3.1e-4 2.2912-0.83281 5.625-2.5 3.7495-1.6664 7.2912-2.4997 10.625-2.5 6.2495 3.1e-4 13.541 2.2919 21.875 6.875l8.125 0.625-0.625-2.5c-8.3338-5.8331-16.667-8.7497-25-8.75-6.6672 3.1e-4 -15 2.2919-25 6.875m84.375 21.25c4.1661 14.167 10.625 21.25 19.375 21.25 9.1661 1.6e-4 13.75-6.2498 13.75-18.75-4.7e-4 -6.6664-2.0839-13.333-6.25-20-2.0839-3.7497-3.3339-5.6247-3.75-5.625l-1.25-0.625h-0.625c-1.6672 3.1e-4 -2.5005 1.0422-2.5 3.125-4.7e-4 0.41719 1.4578 3.1253 4.375 8.125 3.3328 4.5836 4.9995 9.5836 5 15-4.7e-4 8.7502-3.3339 13.125-10 13.125-4.5839 1.6e-4 -7.9172-2.9164-10-8.75-1.25-4.5831-3.3339-6.8748-6.25-6.875h-1.875m-271.25-22.5-12.5 1.875-0.625 4.375 0.625 46.875-0.625 18.75 0.625 14.375-0.625 26.25 1.25 26.875 2.5 16.25c0.41562 1.6667 1.0406 3.3334 1.875 5 0.83281 1.25 1.6664 2.7084 2.5 4.375l3.125 5-4.375-20-2.5-64.375v-65l-0.625-14.375 13.125-1.25h52.5c19.166 3.1e-4 34.791 1.4578 46.875 4.375l6.25 1.25c12.916 2.9169 20.833 5.0003 23.75 6.25l4.375 1.875 6.875 2.5-13.75-7.5-6.875-1.875-5.625-2.5c-1.25-0.83281-4.792-1.6664-10.625-2.5l-20.625-3.75c-0.83438 3.1e-4 -2.917-0.41719-6.25-1.25-3.3336-0.83281-5.2086-1.0422-5.625-0.625l-3.125 0.625-20-1.875h-51.875m288.12 6.875c-7.0839 4.5836-14.792 6.8753-23.125 6.875h-5.625c-2.0839 3.1e-4 -3.7505-0.20781-5-0.625l-31.25-4.375c-1.25-0.41719-3.7505-0.625-7.5-0.625h-4.375c-2.5005 3.1e-4 -4.3755 0.20938-5.625 0.625l-6.875 1.25 3.125 3.75h21.25l41.875 5c2.4995 1.6e-4 7.2911-0.625 14.375-1.875 7.0828-2.0831 10.625-3.9581 10.625-5.625-4.7e-4 -0.83281-0.625-2.2914-1.875-4.375m-243.75 6.25 0.625 1.25-1.875 1.25c-4.5836-3.7497-9.5836-5.6247-15-5.625-7.5003 3.1e-4 -14.167 2.5003-20 7.5-5.8336 5.0002-8.7503 10.625-8.75 16.875-3.1e-4 3.3336 2.2914 7.2919 6.875 11.875 3.3331 2.0836 5.4164 3.1252 6.25 3.125 2.0831 1.6e-4 4.3747-0.625 6.875-1.875 7.9164-4.1664 13.541-6.2498 16.875-6.25 7.0831 1.6e-4 10.625 3.9586 10.625 11.875v1.875c-3.1e-4 5.0002-2.5003 7.5002-7.5 7.5-1.6669 1.6e-4 -2.9169-0.41719-3.75-1.25l-5.625-6.25-1.25-1.25h-1.25l-1.875 0.625-2.5 2.5 6.25 2.5 5 9.375c0.41719 0.41719 1.6664 0.625 3.75 0.625 3.7497 1.6e-4 7.0831-1.8748 10-5.625 3.333-3.7498 4.9997-7.9164 5-12.5-3.1e-4 -4.9998-3.7503-9.1664-11.25-12.5l4.375-4.375c-2.9169-2.9164-5.8336-4.3748-8.75-4.375-3.3336 1.6e-4 -6.4586 1.25-9.375 3.75l-7.5 6.25c-2.0836 2.0836-4.1669 3.1252-6.25 3.125-5.8336 1.6e-4 -8.7503-3.1248-8.75-9.375-3.1e-4 -10.833 7.0831-16.25 21.25-16.25 6.6664 3.1e-4 13.333 2.7086 20 8.125l4.375 5.625 3.125 6.25 0.625-0.625-0.625 1.25c1.25 6.2502 1.8747 10.834 1.875 13.75v4.375l-3.75 10-2.5 9.375-1.875 3.75c-3.1e-4 0.41719 1.0406 2.2919 3.125 5.625l8.75 8.75 2.5 3.125c1.25-2.9166 3.333-7.0831 6.25-12.5l9.375-12.5 4.375-7.5 2.5-7.5 1.25-11.875h-5l1.875-3.125c0.41719-0.41719 0.625-1.25 0.625-2.5-3.1e-4 -2.4998-0.625-4.3748-1.875-5.625l-1.25-1.875-1.25-3.75c-5.417 1.6669-8.1253 4.7919-8.125 9.375l-3.75 0.625v-10.625l-1.25-3.125-5-7.5-6.875-5-1.25-1.25-8.125-1.875-0.625 4.375m28.125 8.125 3.125 3.125 3.125-4.375c0.83281-0.83281 1.8747-1.25 3.125-1.25 4.583 1.6e-4 7.708 3.9586 9.375 11.875l-1.875 10h1.25c3.7497-4.1664 5.6247-8.7498 5.625-13.75-3.1e-4 -10.833-5.0003-16.25-15-16.25-5.8336 3.1e-4 -8.7503 3.5419-8.75 10.625m32.5-6.25c-2.5003 12.084-7.0836 22.084-13.75 30l13.75-13.125v-2.5c3.7497-3.7498 6.0412-7.9164 6.875-12.5l-6.875-1.875m-15 40 1.25 0.625c1.6664-3.7498 3.5414-6.2498 5.625-7.5-3.1e-4 1.6e-4 0.41719-0.20781 1.25-0.625 0.83281-0.83281 2.083-1.6664 3.75-2.5l10-7.5 4.375-2.5 11.875-8.125 6.25-3.125c-5.417-2.9164-8.7503-4.3748-10-4.375-2.5003 1.6e-4 -5.8338 2.2919-10 6.875-3.7503 4.5836-9.792 10.209-18.125 16.875-3.7503 3.7502-5.8336 7.7086-6.25 11.875m128.12-33.125h-7.5l0.625 1.25 27.5 3.125c4.1662 0.83281 6.4578 1.25 6.875 1.25 4.1662 1.6e-4 6.2495-0.83281 6.25-2.5-4.7e-4 1.6e-4 -0.20938-0.20781-0.625-0.625-4.7e-4 -0.41719-0.20938-1.0422-0.625-1.875l-0.625 1.875-31.875-2.5m-302.5 26.25 0.625 1.875c-4.1669 0.83281-7.7084 2.7086-10.625 5.625 4.9998 5.8336 11.458 8.7502 19.375 8.75 5.4166 1.6e-4 11.667-0.625 18.75-1.875l0.625-15-7.5-0.625c-12.917-1.25-19.375-5.2081-19.375-11.875-1.6e-4 -1.6664 1.0422-3.5414 3.125-5.625 0.41719 0.41719 1.4578 0.625 3.125 0.625 1.25 1.6e-4 1.8748-0.625 1.875-1.875-1.6e-4 -2.4998-2.0834-3.7498-6.25-3.75-3.7502 1.6e-4 -6.8752 2.0836-9.375 6.25-0.83281 3.3336-1.25 5.4169-1.25 6.25-1.6e-4 4.1669 2.2916 7.9169 6.875 11.25m261.88-22.5c-39.584 3.3336-66.459 13.334-80.625 30l6.25-2.5 21.25-10c3.333-1.6664 14.166-4.3748 32.5-8.125 5.833-0.83281 11.25-1.4578 16.25-1.875 4.9995-0.83281 9.583-1.25 13.75-1.25 17.083 1.6e-4 33.333 3.9586 48.75 11.875l6.875-9.375c-1.6672-0.83281-3.1255-1.25-4.375-1.25-1.25-0.41719-2.2922-0.83281-3.125-1.25-5.4172-1.6664-10-2.9164-13.75-3.75-3.3338-0.83281-5.8338-1.4578-7.5-1.875l-7.5-0.625-5.625-0.625-15.625-0.625-7.5 1.25m-328.75 7.5c2.9166-1.25 5.4166-1.8748 7.5-1.875 1.6666 1.6e-4 3.1248 0.625 4.375 1.875l12.5 9.375 10 6.25 3.125 3.125c1.6666 1.6669 4.9998 3.3336 10 5l6.25 1.875c-0.41719-2.4998-1.8752-3.9581-4.375-4.375-2.5002-0.41562-4.3752-1.25-5.625-2.5l-8.75-6.875-10.625-6.875-9.375-10c-1.6667-1.6664-3.9584-2.4998-6.875-2.5-3.7502 1.6e-4 -6.4584 2.5002-8.125 7.5m333.12 2.5-3.75 0.625h-1.25l-10.625 0.625 3.75 4.375 2.5 2.5c9.9995 14.584 15 29.375 15 44.375l0.625 10.625c-4.7e-4 2.0834-0.20938 4.1669-0.625 6.25-4.7e-4 1.6669-0.20938 3.5419-0.625 5.625l-1.875 7.5-1.25 6.25c-0.83438 1.6667-1.8755 3.5417-3.125 5.625-1.25 2.0834-2.5005 4.3752-3.75 6.875l-11.25 15.625c-21.25 18.75-44.792 28.125-70.625 28.125h-2.5c-3.3336 0-5.0003 0.625-5 1.875v1.875l1.875 11.25c39.166-1.25 71.458-11.875 96.875-31.875 25.833-20 38.75-44.375 38.75-73.125-4.7e-4 -15-1.8755-27.708-5.625-38.125-3.3338-10.416-7.7088-15.416-13.125-15h-1.25c-3.3338-1.25-6.8755-1.8748-10.625-1.875h-12.5m62.5 20c0.41562-7.0831 3.9578-13.541 10.625-19.375h-1.875c-9.5838 1.6e-4 -14.375 4.5836-14.375 13.75-4.7e-4 3.3336 1.8745 5.2086 5.625 5.625m1.875 2.5c2.9162 6.6669 7.4995 12.083 13.75 16.25l8.125 6.875 4.375 8.125c2.9161 4.1669 4.3745 7.9169 4.375 11.25-4.7e-4 5.8334-2.0839 8.7502-6.25 8.75-2.5005 1.6e-4 -3.7505-1.4578-3.75-4.375l1.25-15.625-2.5-3.125-1.875-4.375-2.5-3.125c-4.1672-2.9166-7.9172-4.3748-11.25-4.375-8.7505 1.6e-4 -13.125 4.3752-13.125 13.125-4.7e-4 3.3334 1.4578 6.4584 4.375 9.375-0.41719-0.83281-0.625-2.7081-0.625-5.625-4.7e-4 -6.6666 3.5412-9.9998 10.625-10 6.6661 1.6e-4 9.9995 3.9584 10 11.875v14.375c0.83281 3.7502 2.7078 7.0834 5.625 10 1.25 1.25 2.9161 1.8752 5 1.875 9.9995 1.6e-4 15-5.4166 15-16.25-4.7e-4 -0.83281-0.625-2.9166-1.875-6.25-3.3339-1.25-5.0005-2.7081-5-4.375l1.875-1.875c0.41562 1.6e-4 1.4578 0.83281 3.125 2.5 2.0828 1.6669 3.7495 2.5002 5 2.5 0.83281 1.6e-4 1.25-1.8748 1.25-5.625-4.7e-4 -9.9998-4.7922-17.917-14.375-23.75l-6.875-3.75c-1.25-0.41719-1.8755-1.4578-1.875-3.125-4.7e-4 -2.4998 1.0406-3.7498 3.125-3.75 1.25 1.6e-4 2.4995 0.625 3.75 1.875l3.125 4.375c6.2495 6.6669 13.125 10 20.625 10h1.875l-1.25-6.875-1.25-4.375 5-1.25c3.7495-1.25 5.6244-5.8331 5.625-13.75-6.3e-4 -1.6664-1.0422-3.5414-3.125-5.625l-1.875 5-4.375 4.375-1.25 1.875-5 1.25c-2.5005-0.41562-4.5839-1.0406-6.25-1.875-1.6672-1.25-4.5839-3.1248-8.75-5.625-6.2505-4.9998-11.459-7.4998-15.625-7.5-10.417 1.6e-4 -15.834 6.8752-16.25 20.625m-383.12-16.25-0.625-0.625c-2.0834-1.25-3.5417-1.8748-4.375-1.875-2.0834 1.6e-4 -3.1252 1.0422-3.125 3.125-1.6e-4 2.5002 1.25 3.7502 3.75 3.75 0.83281 1.6e-4 1.6666-0.41719 2.5-1.25l1.875-3.125m353.75-1.875 3.125 8.125c5.4162 14.584 8.1245 26.667 8.125 36.25-4.7e-4 20.833-5.0005 38.333-15 52.5l-2.5 5.625-4.375 5.625-3.125 3.75-5.625 6.25-6.875 6.875c-1.667 1.25-3.542 2.7084-5.625 4.375-2.0838 1.25-4.3755 2.9167-6.875 5l-5 2.5-8.125 5c-1.25 0-5.417 1.4578-12.5 4.375-3.3338 1.25-6.667 2.2917-10 3.125-3.3338 0.83281-5.2088 1.4578-5.625 1.875l-11.25 3.125-26.25 3.75h-8.75c0.41719 2.5 1.0406 3.75 1.875 3.75h7.5l15.625-0.625c30.833-2.0833 57.916-14.375 81.25-36.875 24.166-22.917 36.25-48.333 36.25-76.25-4.7e-4 -28.75-5.4172-44.791-16.25-48.125m-77.5 1.25c-5.8338 0.83281-13.125 3.3336-21.875 7.5l8.125-0.625 10-3.125c0.41562-0.41719 1.6662-0.625 3.75-0.625 11.25 1.6e-4 16.875 2.9169 16.875 8.75-4.7e-4 2.0836-0.625 3.1252-1.875 3.125-1.667 1.6e-4 -3.3338-0.625-5-1.875l-0.625 3.75c1.6662 2.9169 3.5412 4.3752 5.625 4.375l4.375-0.625c3.7495-2.4998 5.6245-4.9998 5.625-7.5-4.7e-4 -9.1664-6.667-13.75-20-13.75l-5 0.625m-290 3.125-0.625 0.625c-0.41719 0.41719-0.625 0.83281-0.625 1.25-1.6e-4 0.41719 0.41719 1.0422 1.25 1.875l1.25 0.625c1.25 1.6e-4 1.8748-0.625 1.875-1.875-1.6e-4 -1.6664-0.83281-2.4998-2.5-2.5h-0.625m18.75 0.625c-1.25 1.6e-4 -2.2917 1.0422-3.125 3.125l-0.625 1.25c-1.6e-4 3.3336 1.6666 5.0002 5 5 2.4998 1.6e-4 3.7498-1.4578 3.75-4.375-1.6e-4 -3.3331-1.6667-4.9998-5-5m160.62 24.375c-7.0836-4.5831-12.5-7.9164-16.25-10-3.3336-2.0831-5.4169-3.5414-6.25-4.375l-7.5-8.75v5.625c-3.1e-4 1.6669 3.1247 4.3752 9.375 8.125 6.2497 3.7502 13.125 6.8752 20.625 9.375m-168.12-11.875c-1.6e-4 -4.5831-1.25-6.8748-3.75-6.875-2.0834 1.6e-4 -3.1252 1.25-3.125 3.75-1.6e-4 2.5002 1.4578 3.5419 4.375 3.125h2.5m16.25-3.75c-1.25 1.6e-4 -2.2917 1.0422-3.125 3.125v1.25c-1.6e-4 2.5002 1.25 3.7502 3.75 3.75 3.3333 1.6e-4 4.9998-1.25 5-3.75-1.6e-4 -2.9164-1.8752-4.3748-5.625-4.375m196.25 29.375c-3.3336 5.8334-6.8753 14.792-10.625 26.875l-0.625 14.375-2.5 5.625h-4.375l-1.25-7.5 1.25-3.125-4.375-6.875-8.75-8.75c-2.5003 10.833-3.7503 20.833-3.75 30-3.1e-4 6.2502 0.625 13.125 1.875 20.625 4.1664-2.9166 7.2914-4.3748 9.375-4.375 2.083 1.6e-4 3.333 1.4578 3.75 4.375l6.875 9.375 3.125-6.25 5.625-5.625v-6.875l2.5-13.75 5-16.875c2.083-7.9166 6.6664-14.583 13.75-20 7.083-5.4166 14.375-8.1248 21.875-8.125 6.6662 1.6e-4 12.5 2.5002 17.5 7.5 0.41562 0.83281 0.625 2.7084 0.625 5.625-3.1e-4 1.6e-4 -0.41719 1.6669-1.25 5-2.917 2.9169-5.8338 4.3752-8.75 4.375h-2.5l-20-8.125h-1.875c-8.7503 1.6e-4 -13.125 5.0002-13.125 15-3.1e-4 3.3334 2.083 7.0834 6.25 11.25l-1.875 5 3.125 4.375v6.875c4.1664-2.4998 6.2497-4.9998 6.25-7.5-3.1e-4 -2.9166-0.83438-5.8333-2.5-8.75l3.75-0.625 3.125 1.25h1.875c3.333 1.6e-4 5.4162-1.25 6.25-3.75v-3.75h-6.25l-6.875-2.5-4.375 4.375h-0.625c-2.5003 1.6e-4 -3.7503-1.6666-3.75-5-3.1e-4 -7.4998 3.1247-11.25 9.375-11.25 2.083 1.6e-4 4.1662 0.625 6.25 1.875l15.625 11.875c1.6662 1.25 4.1662 1.8752 7.5 1.875 10.833 1.6e-4 16.25-5.2081 16.25-15.625l1.875-1.25c2.4997 2.5002 4.3747 3.7502 5.625 3.75 1.25 1.6e-4 3.1245-0.625 5.625-1.875-2.0838-9.1666-2.917-14.375-2.5-15.625v-0.625l1.25-15c-4.7e-4 -2.9166-1.667-4.3748-5-4.375h-5.625l4.375-4.375c0.41562-0.41562 0.625-1.0406 0.625-1.875-3.1e-4 -3.3331-4.792-6.0414-14.375-8.125l-6.875-1.875c-0.83438-0.41562-3.3338-0.625-7.5-0.625-15 1.6e-4 -30.417 9.7919-46.25 29.375m-223.12-27.5c-1.25 0.83281-1.8752 1.6669-1.875 2.5-1.6e-4 1.25 0.20781 2.0836 0.625 2.5 1.6666-0.41719 2.4998-1.0422 2.5-1.875-1.6e-4 0.41719-0.41719-0.625-1.25-3.125m147.5 2.5-0.625 16.25c4.1664 0.83281 7.0831 1.6669 8.75 2.5 1.6664 0.41719 3.9581 1.25 6.875 2.5l8.75 3.125c9.5831 3.7502 19.375 10.625 29.375 20.625 0.41719 0.41719 0.83281 1.0422 1.25 1.875 0.83281 0.83281 1.6664 1.6669 2.5 2.5l2.5 4.375h1.25c0.41719-2.0831 0.625-3.7498 0.625-5 0.41719-1.6666 0.625-2.9166 0.625-3.75-3.1e-4 -2.9166-1.667-6.2498-5-10-3.3336-3.7498-7.9169-7.7081-13.75-11.875-5.4169-4.1666-11.875-8.1248-19.375-11.875-7.5003-4.1664-15.417-7.9164-23.75-11.25m-133.75 6.875c0.41719 0.41719 1.4578 0.625 3.125 0.625 1.6666 1.6e-4 2.4998-1.0406 2.5-3.125-1.6e-4 -2.4998-1.0422-3.7498-3.125-3.75-1.6667 1.6e-4 -2.5002 1.25-2.5 3.75v2.5m-5.625-2.5-4.375 1.875 4.375-1.875m46.875 1.875-0.625-0.625h-0.625l-16.875 5-0.625-0.625-9.375-2.5c-2.0834 1.6e-4 -3.1252 1.0422-3.125 3.125-1.6e-4 2.5002 3.1248 3.7502 9.375 3.75 7.9166 1.6e-4 15.208-2.7081 21.875-8.125m266.88 0-1.875 4.375c0.83281 0.83438 1.25 1.4578 1.25 1.875-0.83438 0.83281-1.4594 1.25-1.875 1.25l-6.25-1.25c-4.5838 1.6e-4 -6.8755 3.9584-6.875 11.875-4.7e-4 2.9169 1.6662 5.4169 5 7.5v-3.75c-0.41719-5.4166 1.0406-8.1248 4.375-8.125 2.4995 1.6e-4 4.7912 1.6669 6.875 5v4.375c0.83281 5.0002-0.41719 9.1669-3.75 12.5l-15.625 20.625c-2.5003 2.5002-4.792 6.6667-6.875 12.5l4.375-5 4.375-5.625 17.5-17.5c6.2495-5.4166 9.3745-12.292 9.375-20.625-4.7e-4 -8.3331-3.3338-15-10-20m-230 1.25c-6.2502 2.0836-11.042 2.7086-14.375 1.875-1.6669-0.41719-2.9169-0.625-3.75-0.625-0.83281-0.41719-1.6669-0.625-2.5-0.625-1.25 1.6e-4 -2.5002 1.4594-3.75 4.375-1.25 0.41719-3.1252 1.4578-5.625 3.125-2.5002 1.6669-3.9584 2.5002-4.375 2.5-0.83281 1.6e-4 -1.25-0.625-1.25-1.875-1.6e-4 0.41719 3.5416-1.8748 10.625-6.875-0.83281-1.25-1.6669-1.8748-2.5-1.875-7.0834 1.6e-4 -11.25 5.0002-12.5 15l5.625 2.5c-8.3334 5.8334-12.5 11.875-12.5 18.125-1.6e-4 3.7502 1.8748 7.7084 5.625 11.875 0.41719-3.7498 1.0422-5.6248 1.875-5.625 1.25 1.6e-4 2.0831 0.20781 2.5 0.625 1.6666 7.5002 5.4166 11.25 11.25 11.25 2.0831 1.6e-4 4.7916-0.625 8.125-1.875 4.1666-1.6666 6.6666-4.1666 7.5-7.5v-3.125l-4.375-12.5-0.625-1.25c-1.6e-4 -5.8331 2.0831-8.7498 6.25-8.75 2.0831 1.6e-4 3.9581 0.83281 5.625 2.5l0.625 3.125-2.5 5 0.625 5c4.1666-5.4166 6.2498-9.5831 6.25-12.5-1.6e-4 -4.5831-2.7084-6.8748-8.125-6.875-2.5002 1.6e-4 -5.4169 1.25-8.75 3.75-3.3334 2.5002-5.0002 5.0002-5 7.5-1.6e-4 2.0834 0.83281 5.2084 2.5 9.375 1.6666 3.7502 2.4998 5.6252 2.5 5.625-1.6e-4 2.0834-1.6669 4.1669-5 6.25-0.83281 0.83281-2.0834 1.25-3.75 1.25-6.2502 1.6e-4 -9.3752-4.1666-9.375-12.5-1.6e-4 -3.3331 1.4578-7.0831 4.375-11.25 2.9166-4.1666 5.8331-6.8748 8.75-8.125l21.875-6.875 0.625-5 0.625-3.75c-1.6e-4 -0.83281-1.0422-1.25-3.125-1.25m-92.5 3.125v3.75c0.41719 0.41719 1.25 0.625 2.5 0.625 1.6666 1.6e-4 2.4998-0.83281 2.5-2.5-1.6e-4 -0.83281-0.625-1.6664-1.875-2.5h-1.25l-1.875 0.625m11.25 0-0.625 3.125 2.5-1.25-1.875-1.875m6.25 4.375c-1.6667 0.41719-2.5002 1.4578-2.5 3.125-1.6e-4 2.0834 1.25 3.1252 3.75 3.125 2.9166 1.6e-4 4.3748-1.0422 4.375-3.125-1.6e-4 -2.4998-1.4578-3.7498-4.375-3.75l-1.25 0.625m-14.375 6.25c-2.9167 1.6669-4.3752 3.7502-4.375 6.25-1.6e-4 5.8334 4.3748 8.7502 13.125 8.75 4.1666 1.6e-4 7.0833-0.83281 8.75-2.5l18.75-12.5 9.375-3.75c-1.6e-4 -0.83281-0.20781-1.25-0.625-1.25l-4.375 1.875-9.375 3.125-12.5 6.875c-2.9167 1.6669-5.8334 2.5002-8.75 2.5-4.1667 1.6e-4 -7.5002-3.1248-10-9.375m-2.5 92.5 0.625 1.25c4.1666-0.41719 6.2498-1.6666 6.25-3.75l-3.125-13.75v-6.25c-1.6e-4 -12.917 3.5416-25.625 10.625-38.125 7.4998-12.5 16.25-20.833 26.25-25 4.1666-1.6666 6.2498-3.3331 6.25-5-1.6e-4 -1.25-0.625-1.8748-1.875-1.875-5.8334 1.6e-4 -11.667 3.5419-17.5 10.625-4.5834 5.8334-7.5002 8.9584-8.75 9.375l-2.5 1.25c-2.0834 1.25-4.5834 5.0002-7.5 11.25l-5 9.375c-4.1667 7.9167-6.2502 16.042-6.25 24.375v2.5c0.41719 2.0834 0.83281 5.2084 1.25 9.375 0.41719 3.7502 0.83281 8.5417 1.25 14.375m445-92.5c2.4995 6.2502 5.2078 9.3752 8.125 9.375 2.9161 1.6e-4 4.7911-2.9166 5.625-8.75-4.1672 0.83281-6.0422 1.25-5.625 1.25-1.6672 1.6e-4 -4.3755-0.625-8.125-1.875m-288.75 33.75c-3.7503-2.9166-5.6253-5.6248-5.625-8.125-3.1e-4 -1.6666 1.25-4.7916 3.75-9.375 1.6664 0.41719 2.9164 0.83281 3.75 1.25 0.83281 1.6e-4 1.25 1.6e-4 1.25 0h0.625c0.83281-0.41719 2.0831-0.83281 3.75-1.25 2.0831-0.83281 4.7914-1.6666 8.125-2.5 0.41562-0.41719 1.6664-0.625 3.75-0.625-3.1e-4 1.6e-4 2.0831 0.41719 6.25 1.25-2.0836-4.5831-5.8336-7.4998-11.25-8.75l-5.625-0.625-4.375-1.25-0.625-0.625c-9.1669 1.6e-4 -13.75 2.5002-13.75 7.5v0.625l3.75 2.5-3.75 4.375c-0.83281 0.83281-1.25 2.0834-1.25 3.75-1.6e-4 9.1669 2.9164 13.333 8.75 12.5l2.5-0.625m-110.62-26.25c-25 15.833-37.5 34.167-37.5 55v5l3.125 8.75 0.625 3.75 8.75 10c2.0833 2.0834 3.5416 3.1252 4.375 3.125 1.6666 1.6e-4 2.4998-1.0422 2.5-3.125-1.6e-4 -2.4998-0.83281-4.5833-2.5-6.25 8.3333-0.83281 12.5-4.5833 12.5-11.25-1.6e-4 -3.3333-1.0422-5.6248-3.125-6.875l-7.5-5-2.5-5c-1.6667 1.25-2.5002 2.2917-2.5 3.125-1.6e-4 1.25 0.20781 1.8752 0.625 1.875l8.75 6.25c1.25 0.83281 1.8748 1.8752 1.875 3.125-1.6e-4 2.9167-1.25 4.3752-3.75 4.375-1.6e-4 1.6e-4 -1.6667-0.41719-5-1.25-5.8334-4.5833-8.7502-10.208-8.75-16.875-1.6e-4 -15.833 8.5416-30.417 25.625-43.75 1.25-0.41719 2.9166-1.6666 5-3.75l-0.625-1.25m138.12 5.625v3.125c9.1664 5.8334 16.666 12.708 22.5 20.625-3.3336-7.9166-10.834-15.833-22.5-23.75m261.88 1.25 0.625 2.5c-4.7e-4 2.0834-1.25 3.3334-3.75 3.75l5 15.625c2.4995 8.3334 3.7495 15 3.75 20-4.7e-4 8.3334-1.8755 18.958-5.625 31.875-0.83438 2.0834-1.6672 4.7917-2.5 8.125-0.83438 2.9167-2.0839 6.25-3.75 10-1.25 2.9167-5.2089 8.3334-11.875 16.25l-3.75 1.875-10 6.875-5.625 2.5-3.125 1.875-5.625 1.25-5.625 2.5-11.875 1.25-10.625 1.25c-5.4172 0.83281-11.25-0.83281-17.5-5l-6.875-5c-1.667-2.9166-2.5005-5.4166-2.5-7.5-4.7e-4 -4.1666 2.2912-6.25 6.875-6.25 5.4162 0 8.1245 2.0834 8.125 6.25v1.25l0.625 1.25 4.375 2.5c-0.83438-1.6666-1.6672-3.75-2.5-6.25-0.83438-2.5-2.0838-5.4166-3.75-8.75-2.5005-4.1666-6.667-6.25-12.5-6.25-8.7505 0-13.75 5.8334-15 17.5h-2.5c-0.41719-2.5-1.8755-4.1666-4.375-5-1.25 3.3334-1.8755 6.0417-1.875 8.125-4.7e-4 0-4.7e-4 0.41719 0 1.25 0.41562 0.83281 0.83281 2.0834 1.25 3.75l1.875 2.5 5 5c3.333 3.75 8.7495 6.6667 16.25 8.75v2.5c-6.2505-0.83281-12.084-3.5417-17.5-8.125l-5.625-5.625c-7.5005-8.3333-15.209-12.5-23.125-12.5h-9.375l3.75 4.375c-3.1e-4 1.6667-0.83438 2.5-2.5 2.5v-0.625c-0.83438 0-2.7088-0.83281-5.625-2.5-2.5003-1.6666-5.417-2.5-8.75-2.5-6.2503 0-11.667 1.875-16.25 5.625-4.5838 3.3334-6.8753 7.5-6.875 12.5-3.1e-4 7.0833 4.3747 10.625 13.125 10.625 2.9162 0 6.2497-1.25 10-3.75 0.41562-2.5 2.708-3.75 6.875-3.75 2.9162 0 5.4162 1.875 7.5 5.625 2.083-3.3333 3.1247-5.4167 3.125-6.25-3.1e-4 -3.3333-3.3338-5-10-5-2.917 0-4.5838 0.20781-5 0.625l-12.5 7.5h-1.25c-4.167 0-6.2503-1.875-6.25-5.625-3.1e-4 -5.4166 5.4162-8.125 16.25-8.125 4.9997 0 9.1662 0.625 12.5 1.875l33.75 12.5 15.625 3.125c2.083 0.41719 3.7495 0.83281 5 1.25h3.125c2.4995 0 5.6245-3.125 9.375-9.375 1.6662 0.41719 2.4995 1.25 2.5 2.5v0.625l-0.625 2.5c-4.7e-4 3.75 3.1245 5.625 9.375 5.625 3.3328 0 5.4162-0.20781 6.25-0.625 0.83281-0.41719 4.5828-0.83281 11.25-1.25 6.6662-0.83281 12.291-3.125 16.875-6.875 16.666-3.75 30.208-13.75 40.625-30 10.833-16.667 16.25-36.25 16.25-58.75-4.7e-4 -16.25-4.1672-31.667-12.5-46.25m-58.75 9.375-1.875 5.625c10.833 5.8334 16.25 12.917 16.25 21.25-4.7e-4 1.6e-4 -0.41719 1.25-1.25 3.75l-5.625 8.75c-1.6672 2.5002-3.9588 3.9584-6.875 4.375-2.9172 0.41719-5.8338 1.0422-8.75 1.875-2.5005 0.83281-5.2088 1.6667-8.125 2.5-0.41719 0.41719-0.625 1.25-0.625 2.5-4.7e-4 2.5002 0.83281 5.2084 2.5 8.125l2.5 2.5c0.41562 0.41719 0.625 1.0422 0.625 1.875-4.7e-4 0.41719-0.625 0.625-1.875 0.625-5.8338 0.41719-10.209 2.5002-13.125 6.25-2.5005 3.3334-3.7505 5.8334-3.75 7.5-4.7e-4 2.9167 0.83281 5.8334 2.5 8.75 2.9162-1.25 5.4162-1.875 7.5-1.875 0.83281 0 2.9162 0.41719 6.25 1.25l11.875 6.875c2.4995 1.25 6.2495 1.875 11.25 1.875 10.833 0 17.291-3.5416 19.375-10.625 0.83281-3.3333 1.6661-5 2.5-5h1.875c1.25 4.5834 3.3328 6.875 6.25 6.875 2.4995 0 5.2078-0.83281 8.125-2.5-2.9172-5.4166-4.3755-10-4.375-13.75l-0.625-25.625c-4.7e-4 -2.9166-1.8755-7.2916-5.625-13.125 0.41562 0.83281 0.625 2.9167 0.625 6.25-4.7e-4 2.9167-0.625 4.3752-1.875 4.375v-0.625l-1.875-1.25 1.25-6.875-1.25-3.125-1.25-4.375-5-5c2.4995 7.0834 3.7495 11.875 3.75 14.375-4.7e-4 16.667-4.1672 25.625-12.5 26.875l3.125-6.25c4.5828-10.833 6.8745-20.208 6.875-28.125-4.7e-4 -3.3333-0.20938-5.8333-0.625-7.5-4.7e-4 -2.0831 0.41562-3.5416 1.25-4.375-4.7e-4 -0.41719-1.0422-1.0422-3.125-1.875-2.5005-0.41719-6.8755-2.7081-13.125-6.875l3.75 5 4.375 8.75c1.25 2.0834 1.8745 3.3334 1.875 3.75-4.7e-4 0.83281-0.625 1.4578-1.875 1.875l-1.25-1.25-3.125-7.5c-2.5005-6.2498-8.1255-11.875-16.875-16.875m53.125 1.25 3.125 13.125c0.41562 2.0834 0.625 3.9584 0.625 5.625 0.41562 1.6667 0.625 3.1252 0.625 4.375-4.7e-4 2.0834-1.0422 5.8334-3.125 11.25l-8.75 4.375 1.25 2.5c2.4995 4.5834 4.7911 6.8752 6.875 6.875 4.9995 1.6e-4 7.4995-5.2083 7.5-15.625-4.7e-4 -12.5-2.7089-23.333-8.125-32.5m-149.38 58.75 9.375-5 2.5-13.125c0.83281-4.1666 2.9162-7.9166 6.25-11.25l3.75-3.75 4.375-3.75 9.375-3.75c3.333-0.83281 5.208-4.7916 5.625-11.875h1.25v-1.875c-4.7e-4 -1.6666-0.41719-2.4998-1.25-2.5-4.167 1.6e-4 -9.5838 3.3334-16.25 10-9.5838 8.7502-16.25 16.25-20 22.5-3.3338 5.8334-5.0003 13.958-5 24.375m-128.12-40.625c2.4997-2.9166 4.7914-4.3748 6.875-4.375 5.8331 1.6e-4 9.7914 4.1667 11.875 12.5l3.125 15.625 1.875 4.375c-0.41719-2.9166-0.83438-6.2498-1.25-10-0.41719-3.7498-0.83438-7.9166-1.25-12.5l0.625-5.625c-3.1e-4 -4.1666-2.2919-7.9166-6.875-11.25-2.5003-0.83281-4.1669-1.25-5-1.25-7.0836 1.6e-4 -10.625 3.1252-10.625 9.375l0.625 3.125m222.5-11.25-1.875 6.875c7.0828 2.5002 11.666 8.1252 13.75 16.875l-0.625-9.375-5-6.25 2.5-1.875c-3.3338-3.3331-6.2505-5.4166-8.75-6.25m-314.38 11.875c-1.6669 0.41719-3.5419 0.83281-5.625 1.25-2.0834 0.41719-4.5834 1.0422-7.5 1.875-1.6e-4 1.6e-4 -1.4578 1.0422-4.375 3.125-2.5002 2.0834-4.3752 3.1252-5.625 3.125-0.83281 1.6e-4 -1.6669-0.41719-2.5-1.25 0.41719-0.41719 0.625-0.83281 0.625-1.25 0.41719-0.41719 1.0422-0.83281 1.875-1.25h-8.125c-1.6667-0.41719-2.9167-0.625-3.75-0.625-0.83281-0.41719-1.6667-0.625-2.5-0.625-2.0834 1.6e-4 -3.1252 1.25-3.125 3.75-1.6e-4 4.5834 2.9166 6.8752 8.75 6.875 2.9166 1.6e-4 4.7916-0.20781 5.625-0.625l0.625 3.125c-2.9169 2.9167-4.3752 5.4167-4.375 7.5-1.6e-4 -0.83281 0.20781 1.6e-4 0.625 2.5 0.41719 2.5002 1.0422 6.6667 1.875 12.5-0.41719 5.4167-2.5002 9.5834-6.25 12.5 3.3333 2.0834 5.4166 3.125 6.25 3.125 9.1666 0 14.375-5.4166 15.625-16.25l2.5-1.25 1.875 3.75c3.3331 3.3334 6.0416 5.0002 8.125 5 7.9166 1.6e-4 12.708-3.9583 14.375-11.875-0.83281 0.41719-2.7084 0.625-5.625 0.625-7.5002 1.6e-4 -11.25-4.5833-11.25-13.75-1.6e-4 -9.5833 8.3331-15.625 25-18.125v-2.5c0.41562-1.6666-1.0422-2.4998-4.375-2.5-14.167 1.6e-4 -22.708 3.3334-25.625 10l-5 11.25c-0.41719 0.41719-1.0422 0.625-1.875 0.625-1.25 1.6e-4 -1.8752-0.83281-1.875-2.5l1.875-3.75 4.375-6.875 4.375-3.75 5-3.75m10.625 9.375h11.25l0.625-2.5-1.875-0.625-10 3.125m140.62 15-0.625 1.875 3.125-1.25c0.41719-6.2498 1.8747-8.9583 4.375-8.125h5c-3.1e-4 -6.6666-1.667-9.9998-5-10-4.167 1.6e-4 -6.4586 5.8334-6.875 17.5m28.75-16.25c2.4997 2.5002 6.0412 3.9584 10.625 4.375l-10.625-4.375m11.25 3.125c0.41562 1.25 1.6662 1.8752 3.75 1.875h1.875c0.83281 1.6e-4 2.4997 0.625 5 1.875l2.5 6.875c0.83281 0.83281 1.4578 1.25 1.875 1.25 1.6662 1.6e-4 2.4997-1.6666 2.5-5-3.1e-4 -5.8333-3.542-8.3333-10.625-7.5h-0.625l-6.25 0.625m41.25 21.25c0.83281-1.25 1.6662-2.4998 2.5-3.75 1.25-1.6666 2.4995-3.5416 3.75-5.625 1.25-0.41719 3.7495-1.0422 7.5-1.875v-1.25c0.41562-2.4998-0.83438-3.7498-3.75-3.75-4.167 1.6e-4 -7.5005 5.4167-10 16.25m-35-13.125c-1.25 1.25-2.0838 2.5002-2.5 3.75-3.1e-4 2.0834 1.25 3.1252 3.75 3.125 2.4997 1.6e-4 3.7497-1.25 3.75-3.75-3.1e-4 -2.0833-1.25-3.1248-3.75-3.125h-1.25m16.875 1.25c-1.25 1.6e-4 -2.0838 0.83281-2.5 2.5-3.1e-4 1.6667 0.83281 2.5002 2.5 2.5 1.6662-0.83281 2.708-1.4578 3.125-1.875-3.1e-4 -2.0833-1.0422-3.1248-3.125-3.125m-130 16.875 11.25-3.125c5.4164 3.7502 9.1664 7.9167 11.25 12.5l1.875 5 8.125 25c-3.1e-4 1.25 1.0406 4.5834 3.125 10-0.41719-0.83281-1.0422-2.2916-1.875-4.375-0.83438-2.0833-1.6669-4.7916-2.5-8.125l-1.25-6.875-1.25-3.75v-0.625c-3.1e-4 -1.25 0.625-1.875 1.875-1.875 0.83281 0 1.4578 0.20781 1.875 0.625l3.125 18.125c0.83281 1.6667 1.6664 3.5417 2.5 5.625 1.25 1.6667 2.7081 3.75 4.375 6.25l0.625 1.875-2.5 0.625-5-7.5c6.2497 15.417 14.583 23.125 25 23.125 17.083 0 25.625-6.0417 25.625-18.125-3.1e-4 -0.83281-2.292-7.7083-6.875-20.625-1.667-2.9166-2.5003-6.6666-2.5-11.25-3.1e-4 -4.1666 0.83281-7.0833 2.5-8.75l1.875-3.125 1.875-3.75c1.6664-2.9166 5.833-4.3748 12.5-4.375 2.4997 1.6e-4 5.4162 1.25 8.75 3.75-0.41719-11.667-5.6253-17.5-15.625-17.5-5.0003 1.6e-4 -8.1253 2.0834-9.375 6.25h-1.25c0.41719 0.83281 0.625 2.7084 0.625 5.625-3.1e-4 2.5002-0.83438 3.7502-2.5 3.75h-1.25c-0.41719-0.41719-0.625-0.83281-0.625-1.25l0.625-8.75-1.25-0.625-2.5-3.75c-1.667 1.6e-4 -3.9586 1.4578-6.875 4.375-2.5003 2.9167-3.9586 4.7917-4.375 5.625-2.917 2.9167-4.3753 7.9167-4.375 15-3.1e-4 2.0834-3.1e-4 4.375 0 6.875 0.41719 2.5 0.83281 5.2084 1.25 8.125 0.41719-12.917 1.4578-19.375 3.125-19.375 0.41562 0.41719 1.25 0.625 2.5 0.625-2.0836 8.3334-3.1253 13.125-3.125 14.375-3.1e-4 3.3334 0.83281 6.875 2.5 10.625l-3.125 0.625c0.83281 3.75 2.9164 7.2917 6.25 10.625 1.25 2.5 1.8747 4.1667 1.875 5-0.41719 0.41719-1.8753 1.0422-4.375 1.875l-3.125-3.125-3.125-11.25-3.125-8.75c-0.83438-4.1666-1.25-8.3333-1.25-12.5v-11.25c-2.0836-6.2498-5.417-11.042-10-14.375-4.1669 1.6667-6.2503 5.6252-6.25 11.875h-2.5c-1.25 1.6e-4 -2.0836-1.4578-2.5-4.375-2.5003-9.5833-8.1253-14.375-16.875-14.375-7.5003 1.6e-4 -12.084 4.5834-13.75 13.75m121.25-9.375c-2.0838 1.6e-4 -3.1253 0.83281-3.125 2.5-3.1e-4 2.5002 1.25 3.7502 3.75 3.75 2.083 1.6e-4 3.1247-1.0422 3.125-3.125-3.1e-4 -2.9166-1.0422-3.9583-3.125-3.125h-0.625m-8.125 1.875c-0.41719-0.41719-1.25-0.625-2.5-0.625-2.5003 1.6e-4 -3.7503 1.0422-3.75 3.125-3.1e-4 2.5002 1.0406 3.7502 3.125 3.75 1.6662 1.6e-4 2.708-2.0833 3.125-6.25m16.875 9.375c-0.83438-1.25-1.667-1.8748-2.5-1.875-2.0838 1.6e-4 -3.1253 1.25-3.125 3.75-3.1e-4 2.0834 0.83281 3.1252 2.5 3.125 1.25 1.6e-4 2.2912-1.6666 3.125-5m-14.375-0.625c-1.667 1.6e-4 -2.5003 0.625-2.5 1.875-3.1e-4 1.6667 1.0406 2.5002 3.125 2.5 1.25 1.6e-4 2.2912-0.625 3.125-1.875v-0.625c-3.1e-4 -1.25-1.0422-1.8748-3.125-1.875h-0.625m185.62 9.375-5 14.375c-5.4172 13.333-13.542 26.042-24.375 38.125-1.6672 1.6667-2.5005 2.9167-2.5 3.75v1.25l5 6.875c2.0828-1.25 3.1245-2.5 3.125-3.75v-3.125l1.875-1.25 1.875 5 2.5 1.25 1.875 2.5c0.83281 0.83281 1.6661 1.25 2.5 1.25 7.9161 0 11.875-3.5417 11.875-10.625-4.7e-4 -2.9166-0.20938-4.7916-0.625-5.625-1.6672 5.4167-4.1672 8.125-7.5 8.125-2.5005 0-4.3755-1.4578-5.625-4.375-1.25-2.9166-1.8755-5.2083-1.875-6.875-4.7e-4 -2.0833 0.625-4.1666 1.875-6.25l7.5-11.25 3.125-7.5c0.83281-3.3333 1.6661-6.6666 2.5-10 0.83281-3.75 1.4578-7.7083 1.875-11.875m-448.12 4.375-8.125 8.125c4.1666-3.75 7.4998-5.625 10-5.625l4.375 0.625-0.625-1.875-5.625-1.25m-6.875 53.75c2.4998 2.5 5.6248 3.9583 9.375 4.375 4.1666-2.9167 6.2498-5.4167 6.25-7.5-1.6e-4 -2.9166-0.20781-4.7916-0.625-5.625 0.41719-0.41719 1.0422-0.625 1.875-0.625 0.83281 0 2.2916 0.625 4.375 1.875v-3.125c-1.6e-4 -4.1666-1.25-8.125-3.75-11.875l-6.875-6.25v-0.625c-1.6e-4 -2.5 1.0422-3.75 3.125-3.75 1.25 0 2.7083 0.83281 4.375 2.5l6.875 16.25c4.1666 6.25 11.667 10.417 22.5 12.5l-0.625-6.25 13.75 1.25c3.3331 0 5.8331-3.3333 7.5-10l-1.875-0.625c-3.7502 2.5-7.0834 3.75-10 3.75-7.9169 0-14.583-3.3333-20-10l-16.875-20.625c-1.6667-2.9166-4.7917-4.375-9.375-4.375-7.0834 0-10.625 3.75-10.625 11.25-1.6e-4 2.9167 0.20781 5 0.625 6.25l5 23.75c-1.6e-4 1.6667-1.6667 4.1667-5 7.5m316.25-21.25c-1.667-2.9166-2.5005-5.625-2.5-8.125-4.7e-4 -2.9166 2.2912-4.7916 6.875-5.625-2.0838-2.0833-3.7505-3.125-5-3.125-4.167 0-6.2505 2.0834-6.25 6.25-4.7e-4 2.5 2.2912 6.0417 6.875 10.625m-13.125-11.875c-3.3338 0.83281-5.0003 1.6667-5 2.5-3.1e-4 2.0834 1.4578 3.125 4.375 3.125h3.125l-2.5-5.625m-253.12 3.75c4.5831 3.3334 8.9581 5 13.125 5h18.75c7.0831-0.41719 15.208-0.83281 24.375-1.25 10.416-0.41719 19.166-0.625 26.25-0.625 7.0831-0.41719 12.708-0.625 16.875-0.625l30-0.625-65-4.375c-2.9169-0.41719-8.7502 0-17.5 1.25-13.333 2.5-23.958 3.75-31.875 3.75-5.4169 0-10.417-0.83281-15-2.5m355 11.25-4.375-0.625c-9.5838-0.83281-14.584-2.5-15-5l-0.625-1.875 0.625-4.375c-0.83438-0.83281-2.0838-1.25-3.75-1.25h-0.625c-3.7505-0.41719-5.6255 1.25-5.625 5-4.7e-4 7.9167 5.2078 11.875 15.625 11.875 3.3328 0 7.9162-1.25 13.75-3.75m-321.88 5.625c2.0831-4.5833 4.3748-6.875 6.875-6.875 4.1664 0 6.2498 1.6667 6.25 5-1.6e-4 7.9167-5.8334 11.875-17.5 11.875h-8.125l-5.625-1.25c-1.25 0.83281-1.8752 1.4578-1.875 1.875 0.83281 0.83281 2.7081 1.25 5.625 1.25l14.375 1.25c5.4166 0 10.208-1.4578 14.375-4.375 4.1664-3.3333 6.2498-7.0833 6.25-11.25-1.6e-4 -5.8333-4.3752-8.75-13.125-8.75-6.2502 0-9.3752 1.6667-9.375 5-1.6e-4 1.6667 0.625 3.75 1.875 6.25m-30.625 10.625-1.25 4.375c8.3331 2.9167 17.083 4.375 26.25 4.375 26.666 0 46.666-10 60-30l-5-0.625h-5.625c-1.25-0.41719-4.3752 3.5417-9.375 11.875-5.8336 10-18.542 15-38.125 15-6.6669 0-15.625-1.6667-26.875-5m57.5 6.25-0.625 1.25c9.9998-0.83281 20.208-4.5833 30.625-11.25 6.2497-3.75 10.625-5.625 13.125-5.625 2.9164 0 5.8331 0.83281 8.75 2.5l3.125 3.75c0.83281 3.3333 1.25 4.7917 1.25 4.375-3.1e-4 3.3333-1.6669 5-5 5-3.1e-4 0-1.25-0.41719-3.75-1.25l-7.5-6.25-5.625 2.5 8.75 3.75 6.25 3.75c3.3331 0.83281 5.2081 1.25 5.625 1.25 7.0831 0 10.625-3.3333 10.625-10-3.1e-4 -3.3333-2.9169-6.25-8.75-8.75v-1.875c4.1664 0 6.6664-1.6666 7.5-5l-6.25-0.625-4.375-1.875c-0.83438-0.41719-4.1669-0.625-10-0.625-2.5003 0-5.2086 0.83281-8.125 2.5-2.9169 1.25-5.4169 2.7084-7.5 4.375-2.0836 1.6667-3.9586 3.3334-5.625 5-1.6669 1.25-2.5002 1.875-2.5 1.875-0.83438 0.83281-2.5002 1.875-5 3.125-2.0836 1.25-5.2086 2.9167-9.375 5-1.6669 0.41719-3.5419 1.4578-5.625 3.125m-81.875-10c0.83281 1.6667 1.6666 3.5417 2.5 5.625 0.83281 1.6667 1.4578 3.5417 1.875 5.625 3.7498-1.25 5.6248-2.9167 5.625-5-1.6e-4 -0.83281-1.8752-1.875-5.625-3.125-1.25-0.41719-2.7084-1.4578-4.375-3.125m187.5 11.875 20-1.25-3.125-3.125-9.375 3.75-7.5 0.625m180.62-426.88 6.25-0.625c6.6661 4.7e-4 6.4578 1.0422-0.625 3.125-4.5838 1.667-7.7088 2.5005-9.375 2.5 1.25 4.7e-4 3.5412-0.625 6.875-1.875 3.3328-1.25 6.0411-1.8745 8.125-1.875-2.9172 4.7e-4 -5.4172 0.625-7.5 1.875-1.6672 1.25-2.7088 1.8755-3.125 1.875l-2.5 1.25c-2.0838 4.7e-4 -6.2505 1.8755-12.5 5.625 0.83281-0.83281 1.4578-2.4995 1.875-5 0.83281-2.9162 2.2912-3.958 4.375-3.125l8.125-3.75m33.75 52.5 6.875 5c5.4161 5.417 8.1245 9.167 8.125 11.25-0.83438-0.83281-1.8755-1.4578-3.125-1.875-4.7e-4 1.25-0.41719 1.8753-1.25 1.875-1.25 3.1e-4 -2.5005-2.083-3.75-6.25-0.41719-2.083-1.8755-4.3747-4.375-6.875l-2.5-3.125m-20 1.875 1.875 6.25 1.875-3.125-3.75-3.125m-33.75 16.25-4.375-6.25v-0.625c-4.7e-4 -0.41562 0.41562-1.0406 1.25-1.875v0.625l3.125 8.125m45-13.125c0.41562 0.41719 0.83281 0.83438 1.25 1.25 0.83281 0.41719 1.6661 1.0422 2.5 1.875-0.83438 3.3338-2.2922 5.2088-4.375 5.625-2.0839 0.41719-2.7089 1.25-1.875 2.5v-6.25l2.5-5m-39.375 0.625-5 17.5c2.0828-4.583 2.4995-6.8747 1.25-6.875v-3.75c-0.41719-1.25-0.625-2.083-0.625-2.5 1.6662-2.4997 3.1245-3.958 4.375-4.375l-3.75 7.5 3.75-7.5m46.25 9.375h1.875l-3.125 10-3.75-7.5 5-2.5m3.125 5.625-0.625 1.25 1.25-0.625-0.625 2.5 0.625 0.625-0.625-3.75m-404.38 6.875-1.875 6.25-1.875 5-1.25 5h-0.625c-1.6667 3.1e-4 -2.5002-0.625-2.5-1.875v-0.625l5-13.125 2.5-1.25 0.625 0.625m425 16.25-2.5-3.75-1.25 1.25h-1.25l-1.25-1.25-0.625-2.5 4.375 2.5v-1.875l2.5 5.625m0 6.875-7.5-5.625 4.375-2.5 3.125 8.125m-448.75 13.125-1.25-5 1.25 7.5 10 8.75 7.5-6.875c-1.25 0.83438-3.3334 1.4594-6.25 1.875-0.83281 3.1e-4 -2.7084-0.83281-5.625-2.5-4.5834-5.4164-6.4584-6.6664-5.625-3.75m415.62 14.375v-3.75h-1.875l1.875 3.75m7.5 15 3.125-8.125c-0.83438 2.0836-1.6672 3.1253-2.5 3.125-0.41719 1.25-0.625 2.5003-0.625 3.75v1.25m-364.38 11.875-8.125 7.5-0.625-11.875h1.875l-3.125-1.25 10 5.625m-6.875 3.125c1.6666 3.1e-4 2.4998-2.4997 2.5-7.5-1.6e-4 2.5003 1.4578 3.9586 4.375 4.375l-8.125 7.5 1.25-4.375m7.5 7.5 0.625-6.875 1.875 6.25-2.5 0.625m0 1.25 2.5 3.125c-0.83281 1.25-2.2919 1.8753-4.375 1.875h-0.625l2.5-5m19.375 25-2.5 0.625-1.875-0.625 2.5-0.625-1.875-5 1.875-0.625 1.875 6.25m4.375-5.625 0.625 3.125-5.625 1.25 3.75-5 1.25 0.625m140.62 48.125-1.875 5v8.75l-2.5 8.125-1.25 4.375-1.25 0.625h-5c1.25-0.83281 2.4997-2.0831 3.75-3.75 1.6664-2.0831 2.9164-4.9998 3.75-8.75l1.25-11.875-0.625-2.5h3.75m183.75 4.375h14.375l-16.25-1.25-1.875 1.875c0.83281-2.0831 2.7078-3.1248 5.625-3.125l-5.625 3.125 3.75-0.625m8.75-1.875-6.875-0.625 14.375 3.125c0.83281 1.6e-4 1.4578-0.20781 1.875-0.625-4.7e-4 -0.41719-2.2922-1.0406-6.875-1.875-4.1672-0.83281-7.2922-1.0406-9.375-0.625l4.375 0.625 3.125 1.875c6.6661 1.25 10.416 1.4578 11.25 0.625 0.83281-0.41562-0.625-1.25-4.375-2.5-3.3339-1.25-6.6672-1.8748-10-1.875-5.4172 1.6e-4 -8.7505 1.4578-10 4.375l8.75-3.125-10 1.875c1.25-0.41562 3.5411-1.0406 6.875-1.875-4.7e-4 1.6e-4 -4.7e-4 1.6e-4 0 0 0.41562 1.6e-4 1.0406 0.20938 1.875 0.625h5m-201.88 3.125-4.375 14.375 4.375-14.375m-155 5.625 17.5 5-2.5-1.25h-10.625l-4.375-3.75m350 11.25c7.9161 7.9169 13.125 11.875 15.625 11.875 0.41562 1.6e-4 0.625-0.41719 0.625-1.25-6.2505-3.7498-8.7505-5.6248-7.5-5.625 1.25 1.6669 2.9161 2.7084 5 3.125l2.5 2.5-8.75-7.5-15-10.625 7.5 7.5m-143.75 5.625 10.625-5-1.875 10-8.75-2.5h-3.125c-1.25 1.6e-4 -2.5003 0.20781-3.75 0.625h-4.375l-0.625-1.25 1.25-1.25 1.875-0.625h8.75m11.875 18.125v-0.625c-1.667-2.4998-3.542-4.7916-5.625-6.875-1.667-2.4998-5.8338-3.5416-12.5-3.125l-6.25 0.625-3.125-1.25c2.9162-1.6666 5.4162-2.4998 7.5-2.5 6.6662 1.6e-4 13.333 4.5834 20 13.75m-78.75 40h6.875c-3.1e-4 1.6e-4 -0.20781 0.20781-0.625 0.625-3.1e-4 0.41719-0.41719 1.0422-1.25 1.875v0.625c-0.41719 0.41719-1.0422 0.625-1.875 0.625-1.667 1.6e-4 -3.3336-0.83281-5-2.5l1.875-1.25m6.25 5.625-5 4.375 0.625-0.625h-1.25c-0.83438 1.6e-4 -1.667-0.41719-2.5-1.25v-1.25c-3.1e-4 -0.83281 0.20781-1.25 0.625-1.25h7.5m-8.125 5 3.125 2.5h-3.125v-2.5m193.75 5.625 1.25 2.5c-9.1672 3.3334-12.709 5.0002-10.625 5v-1.875l9.375-5.625m-5.625 11.875 10-5.625-0.625 6.25-2.5-2.5c-0.83438 3.3334-2.2922 5.0002-4.375 5-0.83438 1.6e-4 -1.6672-1.0422-2.5-3.125m8.75 8.75h5.625l-3.125 3.75-2.5-1.25v-2.5m-6.25 0.625 3.75 5.625h-2.5c-1.25 0-2.0838-0.20781-2.5-0.625-4.7e-4 -1.6666 0.625-2.4998 1.875-2.5l-0.625-2.5m-171.25 10-1.875 8.75c0.41562 2.0834 0.625 3.75 0.625 5 0.41719 0.83281 0.625 1.6667 0.625 2.5l-1.25 1.25c-2.0836 0-2.7086-1.6666-1.875-5v-2.5l0.625-8.75 1.25-1.25h1.875m186.88 3.125 0.625 1.875-3.75 1.875 1.25-1.25c-4.7e-4 -0.41719-2.0838 0-6.25 1.25-4.1672 0.83281-7.2922 1.6667-9.375 2.5 0.41562 0.41719 1.0406 0.625 1.875 0.625 0.41562 0 0.83281 0.20781 1.25 0.625v-2.5c7.0828 0 11.25-0.83281 12.5-2.5 0.83281-0.83281 0.83281-1.875 0-3.125l1.875 0.625m-391.25 9.375-8.75 2.5c0.41719-0.41719 0.625-1.4578 0.625-3.125-1.6e-4 -1.6666 0.20781-2.9166 0.625-3.75l5 1.25 2.5 3.125m175.62 2.5 4.375 1.25 3.125 13.75-2.5 0.625-1.875-5-3.125-10.625m-162.5 15.625 4.375 10.625 1.25-0.625-5-5.625c-1.6667-1.6666-2.5002-2.7083-2.5-3.125l0.625-1.25h1.25m286.25 5.625-6.25 3.75 1.875-3.125 1.875-1.25-5.625-1.875-6.25-1.25 0.625-1.875 13.75 5.625m17.5 0.625 8.75 3.125 2.5 3.125c0.41562 0.41719 0.625 0.83281 0.625 1.25-4.7e-4 0.83281 0.20781 1.4578 0.625 1.875-4.7e-4 0.83281-1.25 1.25-3.75 1.25 0.41562 0-2.0838-2.0833-7.5-6.25-0.83438-0.83281-2.0838-1.875-3.75-3.125-1.25-1.25-1.8755-2.0833-1.875-2.5 0.41562-1.25 1.0406-1.875 1.875-1.875 0.83281 0 1.6662 1.0422 2.5 3.125m-108.75 0 2.5 3.125-9.375 4.375 1.25-4.375 5.625-3.125m-1.25 8.75 6.25-3.125c-0.83438 2.0834-1.4578 3.75-1.875 5-3.1e-4 1.25-3.1e-4 1.875 0 1.875 3.333-0.83281 2.4997-1.25-2.5-1.25-1.25 0-1.8753-0.41719-1.875-1.25v-1.25m138.12 0.625c2.0828 2.0833 3.1245 3.3333 3.125 3.75v1.25c-4.7e-4 0.83281-0.20938 1.875-0.625 3.125l-2.5-8.125m5.625 1.25c3.3328 0 5.2078 0.83281 5.625 2.5 0.41562 1.6667 1.25 2.9167 2.5 3.75-0.83438 0.83281-2.9172 1.25-6.25 1.25l-1.875-0.625v-6.875m6.875 0 1.25 1.875 5.625 3.125-6.25 1.25-0.625-6.25"
       fill="#8f0005"
       id="path13" />
  </g>
</svg>
